<svg width="41" height="40" viewBox="0 0 41 40" fill="none" xmlns="http://www.w3.org/2000/svg">
<path d="M33.3128 28.9997H11.6462L7.47949 12.333H37.4795L33.3128 28.9997Z" fill=""/>
<path d="M3.3125 7.33301H4.14449C5.36967 7.33301 6.43763 8.16684 6.73477 9.35544L7.47917 12.333M7.47917 12.333L11.1402 26.9773C11.4374 28.1659 12.5053 28.9997 13.7305 28.9997H31.2278C32.453 28.9997 33.521 28.1659 33.8181 26.9773L37.1685 13.5755C37.3263 12.9444 36.849 12.333 36.1984 12.333H7.47917Z" stroke="black" stroke-width="1.33" stroke-linecap="round" stroke-linejoin="round"/>
<path d="M13.6455 37.333C15.0262 37.333 16.1455 36.2137 16.1455 34.833C16.1455 33.4523 15.0262 32.333 13.6455 32.333C12.2648 32.333 11.1455 33.4523 11.1455 34.833C11.1455 36.2137 12.2648 37.333 13.6455 37.333Z" stroke="black" stroke-width="1.33" stroke-linecap="round" stroke-linejoin="round"/>
<path d="M31.3125 37.333C32.6932 37.333 33.8125 36.2137 33.8125 34.833C33.8125 33.4523 32.6932 32.333 31.3125 32.333C29.9318 32.333 28.8125 33.4523 28.8125 34.833C28.8125 36.2137 29.9318 37.333 31.3125 37.333Z" stroke="black" stroke-width="1.33" stroke-linecap="round" stroke-linejoin="round"/>
</svg>
