<svg width="40" height="41" viewBox="0 0 40 41" fill="none" xmlns="http://www.w3.org/2000/svg">
<circle cx="20" cy="20.7969" r="19.5" stroke="black"/>
<path d="M13.8129 24.7217C16.2908 27.1824 19.1017 27.0211 19.1017 27.0211H20.3789C20.3789 27.0211 20.7664 26.9795 20.9629 26.7765C21.143 26.5893 21.1376 26.2408 21.1376 26.2408C21.1376 26.2408 21.1103 24.6125 21.9072 24.368C22.6876 24.1339 23.6973 25.9443 24.7617 26.6413C25.5694 27.1668 26.1807 27.0523 26.1807 27.0523L29.0244 27.0159C29.0244 27.0159 30.5145 26.9274 29.8104 25.8142C29.7503 25.7206 29.4011 24.9871 27.6927 23.4784C25.9078 21.897 26.148 22.1519 28.2985 19.4208C29.6084 17.7561 30.1323 16.7416 29.9686 16.3046C29.8104 15.8885 28.8498 15.9977 28.8498 15.9977L25.6405 16.0185C25.6405 16.0185 25.4003 15.9873 25.2256 16.0862C25.0509 16.185 24.9418 16.4139 24.9418 16.4139C24.9418 16.4139 24.4342 17.7041 23.7574 18.7965C22.3274 21.1063 21.7598 21.2311 21.525 21.0854C20.9848 20.7525 21.1157 19.7433 21.1157 19.0254C21.1157 16.7833 21.4704 15.8521 20.4225 15.6076C20.0732 15.5295 19.8167 15.4724 18.927 15.4671C17.7809 15.4567 16.8148 15.4724 16.2635 15.7272C15.8978 15.8989 15.6194 16.2787 15.7887 16.2995C16.0016 16.3255 16.4818 16.4243 16.7329 16.7521C17.0604 17.1786 17.0495 18.1358 17.0495 18.1358C17.0495 18.1358 17.2405 20.7733 16.6074 21.101C16.1762 21.3248 15.5813 20.8669 14.3095 18.7705C13.6546 17.6988 13.1634 16.5075 13.1634 16.5075C13.1634 16.5075 13.0706 16.2839 12.9014 16.1694C12.694 16.0238 12.4101 15.9821 12.4101 15.9821L9.36456 16.0029C9.36456 16.0029 8.90609 16.0134 8.73689 16.2058C8.58406 16.3671 8.72597 16.7157 8.72597 16.7157C8.72597 16.7157 11.1111 22.0374 13.8129 24.7217Z" fill="black"/>
</svg>
