<svg width="26" height="26" viewBox="0 0 26 26" fill="none" xmlns="http://www.w3.org/2000/svg">
<path fill-rule="evenodd" clip-rule="evenodd" d="M10.3987 10.6608C10.3305 9.91115 10.3956 8.79816 10.7873 7.89293C10.9811 7.44512 11.2469 7.06623 11.598 6.79999C11.9438 6.53777 12.3959 6.36667 13.0005 6.36667C13.605 6.36667 14.0571 6.53777 14.4029 6.79999C14.7541 7.06623 15.0198 7.44512 15.2136 7.89293C15.6054 8.79817 15.6704 9.91115 15.6023 10.6608L16.0338 10.7H9.96713L10.3987 10.6608ZM9.53213 10.7C9.46137 9.86073 9.53143 8.6129 9.99192 7.54874C10.2279 7.00349 10.5742 6.48863 11.0744 6.10939C11.5799 5.72612 12.2184 5.5 13.0005 5.5C13.7825 5.5 14.4211 5.72612 14.9265 6.10939C15.4267 6.48863 15.7731 7.00349 16.009 7.54874C16.4695 8.6129 16.5396 9.86073 16.4688 10.7H17.7672C18.2458 10.7 18.6339 11.088 18.6339 11.5667V17.6333C18.6339 18.112 18.2458 18.5 17.7672 18.5H8.23385C7.75521 18.5 7.36719 18.112 7.36719 17.6333V11.5667C7.36719 11.088 7.75521 10.7 8.23385 10.7H9.53213ZM13.4339 15.2345C13.7692 15.073 14.0005 14.73 14.0005 14.333C14.0005 13.7807 13.5528 13.333 13.0005 13.333C12.4483 13.333 12.0005 13.7807 12.0005 14.333C12.0005 14.73 12.2319 15.073 12.5672 15.2345V16.7667H13.4339V15.2345Z" fill="black"/>
<circle cx="13" cy="13" r="12" stroke="black"/>
</svg>
