<svg id="Layer_1" data-name="Layer 1" xmlns="http://www.w3.org/2000/svg" viewBox="0 0 711.23 150.5"><defs><style>.cls-1{fill:none;}.cls-1,.cls-2,.cls-3,.cls-4{stroke:#000;stroke-miterlimit:10;stroke-width:0.5px;}.cls-2{fill:#fff;}.cls-3{fill:#fdaff3;}.cls-4{fill:#b4e4fd;}</style></defs><title>somia_logo+mark</title><path class="cls-1" d="M141.93,46"/><path class="cls-2" d="M55.64,150.25A55.46,55.46,0,0,1,.25,94.86V83.21A55.46,55.46,0,0,1,54.19,27.83L63,19.06A64.44,64.44,0,0,1,108,.25h23.13a55.46,55.46,0,0,1,55.4,55.39V67.29a55.47,55.47,0,0,1-53.94,55.38l-8.9,8.89a64.17,64.17,0,0,1-44.86,18.69Z"/><path class="cls-3" d="M55.64,132.76a38,38,0,0,1-37.9-37.9V83.21a38,38,0,0,1,37.9-37.9v0c.42,0,.84,0,1.28,0h4.54L75.31,31.46A46.75,46.75,0,0,1,108,17.74h23.13A38,38,0,0,1,169,55.64V67.29a37.94,37.94,0,0,1-37.9,37.9v0c-.41,0-.84,0-1.27,0h-4.54l-13.94,13.93a46.65,46.65,0,0,1-32.55,13.63Z"/><path class="cls-4" d="M55.64,115.26a20.42,20.42,0,0,1-20.4-20.4V83.21A20.43,20.43,0,0,1,55.64,62.8H68.71l19-18.95A29.13,29.13,0,0,1,108,35.24h23.13a20.43,20.43,0,0,1,20.41,20.4V67.29A20.44,20.44,0,0,1,131.08,87.7H118c-6.05,6.05-18.54,18.55-19,19a29.07,29.07,0,0,1-20.25,8.57Z"/><path class="cls-2" d="M131.08,52.73H108a11.84,11.84,0,0,0-8,3.51L77.86,78.37A6.58,6.58,0,0,1,73,80.28l-17.37,0a2.91,2.91,0,0,0-2.91,2.91V94.86a2.91,2.91,0,0,0,2.91,2.91H78.77a11.79,11.79,0,0,0,8-3.51l22.14-22.13a6.6,6.6,0,0,1,4.85-1.91l17.37,0A2.91,2.91,0,0,0,134,67.29V55.64A2.91,2.91,0,0,0,131.08,52.73Z"/><rect x="577.15" y="27.29" width="17.24" height="97.66"/><path d="M409.92,76.12c0-29.84-20.17-50-50-50s-50,20.16-50,50h0c0,29.84,20.17,50,50,50s50-20.16,50-50Zm-50,33.74c-19.64,0-32.76-13.19-32.76-33.74s13.12-33.75,32.76-33.75,32.75,13.2,32.75,33.75S379.56,109.86,359.92,109.86Z"/><path d="M661.23,26.12c-29.83,0-50,20.16-50,50h0c0,29.84,20.17,50,50,50h0c13.85,0,25.06-4.7,32.61-12.9h.23L697.79,125h13.44V76.12C711.23,46.28,691.06,26.12,661.23,26.12Zm0,83.74h0c-19.64,0-32.75-13.21-32.75-33.74s13.11-33.75,32.75-33.75S694,55.57,694,76.12,680.57,109.86,661.23,109.86Z"/><path d="M522.55,26.12c-13.74,0-23.58,7.3-27.88,13.76h-.12c-5.66-8.91-16.26-13.76-28.66-13.76A35,35,0,0,0,441.15,36.3H441l-2.85-9H424.72V125H442V56.54c0-8.36,8.09-14.17,20.25-14.17,12.81,0,20.25,6.35,20.25,16.71V125h17.24V57.65c0-9.1,7.15-15.28,19.84-15.28s20.25,6.57,20.25,16.71V125h17.24V58C557.08,37.94,542.69,26.12,522.55,26.12Z"/><path d="M275.76,71.33,252.35,65c-4.88-1.33-7.63-2.57-9.55-4.14A7.57,7.57,0,0,1,240,54.69c0-3.17,1.38-6.06,4.71-8.41,3.75-2.65,8.6-3.91,17-3.91,10.37,0,20.48,3.49,29.32,8.75L296.26,36c-8.56-5.88-21.26-9.89-34.35-9.89-14.53,0-21.82,2.54-29,7.9a26.25,26.25,0,0,0-10.48,20.8c0,7.13,1.76,12.22,5.39,16.49,3.36,3.94,8.53,7.12,17.58,9.64l24.21,6.76c4.3,1.21,6.92,2.18,8.77,3.61a8.19,8.19,0,0,1,3.33,7.07c0,3.57-2.15,6.48-5.19,8.33s-9.22,3.2-17.37,3.2c-11.61,0-24.91-4.72-33.51-9.72l-5.25,15.15c5.58,4,22.2,10.77,38.83,10.77,13.19,0,22.58-2.27,29.72-8.22,6.55-5.46,10.27-12.27,10.27-21.43C299.17,84.18,291.68,75.67,275.76,71.33Z"/></svg>