<svg width="14" height="14" viewBox="0 0 14 14" fill="none" xmlns="http://www.w3.org/2000/svg">
<path fill-rule="evenodd" clip-rule="evenodd" d="M2.24324 1.52524C1.99388 1.27588 1.5896 1.27588 1.34024 1.52524C1.09088 1.77459 1.09088 2.17888 1.34024 2.42824L5.91147 6.99947L1.33971 11.5712C1.09035 11.8206 1.09035 12.2249 1.33971 12.4742C1.58907 12.7236 1.99335 12.7236 2.24271 12.4742L6.81447 7.90247L11.7247 12.8127C11.9741 13.0621 12.3784 13.0621 12.6277 12.8127C12.8771 12.5634 12.8771 12.1591 12.6277 11.9097L7.71747 6.99947L12.6272 2.08974C12.8766 1.84038 12.8766 1.4361 12.6272 1.18674C12.3778 0.937382 11.9736 0.937382 11.7242 1.18674L6.81447 6.09647L2.24324 1.52524Z" fill="#FF3951"/>
<path d="M1.34024 2.42824L1.5754 2.19308L1.34024 2.42824ZM5.91147 6.99947L6.14663 7.23463C6.2765 7.10475 6.2765 6.89419 6.14663 6.76431L5.91147 6.99947ZM1.33971 11.5712L1.10455 11.3361L1.33971 11.5712ZM6.81447 7.90247L7.04963 7.66731C6.98726 7.60495 6.90267 7.56991 6.81447 7.56991C6.72627 7.56991 6.64168 7.60495 6.57932 7.66731L6.81447 7.90247ZM11.7247 12.8127L11.4896 13.0479L11.7247 12.8127ZM7.71747 6.99947L7.48232 6.76432C7.35244 6.89419 7.35244 7.10475 7.48232 7.23463L7.71747 6.99947ZM11.7242 1.18674L11.9594 1.4219L11.7242 1.18674ZM6.81447 6.09647L6.57932 6.33163C6.70919 6.4615 6.91976 6.4615 7.04963 6.33163L6.81447 6.09647ZM1.5754 1.76039C1.69488 1.64091 1.8886 1.64091 2.00808 1.76039L2.4784 1.29008C2.09917 0.910853 1.48431 0.910852 1.10508 1.29008L1.5754 1.76039ZM1.5754 2.19308C1.45591 2.0736 1.45591 1.87988 1.5754 1.76039L1.10508 1.29008C0.725855 1.66931 0.725855 2.28416 1.10508 2.66339L1.5754 2.19308ZM6.14663 6.76431L1.5754 2.19308L1.10508 2.66339L5.67632 7.23463L6.14663 6.76431ZM1.57487 11.8064L6.14663 7.23463L5.67632 6.76431L1.10455 11.3361L1.57487 11.8064ZM1.57487 12.2391C1.45538 12.1196 1.45538 11.9259 1.57487 11.8064L1.10455 11.3361C0.725324 11.7153 0.725325 12.3302 1.10455 12.7094L1.57487 12.2391ZM2.00755 12.2391C1.88807 12.3586 1.69435 12.3586 1.57487 12.2391L1.10455 12.7094C1.48378 13.0886 2.09864 13.0886 2.47787 12.7094L2.00755 12.2391ZM6.57932 7.66731L2.00755 12.2391L2.47787 12.7094L7.04963 8.13763L6.57932 7.66731ZM11.9599 12.5776L7.04963 7.66731L6.57932 8.13763L11.4896 13.0479L11.9599 12.5776ZM12.3926 12.5776C12.2731 12.6971 12.0794 12.6971 11.9599 12.5776L11.4896 13.0479C11.8688 13.4271 12.4837 13.4271 12.8629 13.0479L12.3926 12.5776ZM12.3926 12.1449C12.5121 12.2644 12.5121 12.4581 12.3926 12.5776L12.8629 13.0479C13.2421 12.6687 13.2421 12.0538 12.8629 11.6746L12.3926 12.1449ZM7.48232 7.23463L12.3926 12.1449L12.8629 11.6746L7.95263 6.76432L7.48232 7.23463ZM12.392 1.85458L7.48232 6.76432L7.95263 7.23463L12.8624 2.32489L12.392 1.85458ZM12.392 1.42189C12.5115 1.54138 12.5115 1.7351 12.392 1.85458L12.8624 2.32489C13.2416 1.94566 13.2416 1.33081 12.8624 0.951583L12.392 1.42189ZM11.9594 1.4219C12.0788 1.30241 12.2726 1.30241 12.392 1.42189L12.8624 0.951583C12.4831 0.572354 11.8683 0.572353 11.489 0.951583L11.9594 1.4219ZM7.04963 6.33163L11.9594 1.4219L11.489 0.951583L6.57932 5.86131L7.04963 6.33163ZM2.00808 1.76039L6.57932 6.33163L7.04963 5.86131L2.4784 1.29008L2.00808 1.76039Z" fill="#FF3951"/>
</svg>
