<svg width="18" height="15" viewBox="0 0 18 15" fill="none" xmlns="http://www.w3.org/2000/svg">
<path fill-rule="evenodd" clip-rule="evenodd" d="M1.78838 6.54234C1.63732 6.39129 1.31949 6.46421 1.07848 6.70521C0.837467 6.94622 0.764546 7.26406 0.915605 7.41512L7.20646 13.706C7.33753 13.837 7.59413 13.7995 7.81718 13.6299C7.91817 13.6027 8.01362 13.5495 8.09287 13.4703L16.7136 2.23165C16.9546 1.99064 16.9546 1.59989 16.7136 1.35888C16.4726 1.11787 16.0819 1.11787 15.8408 1.35888L7.49073 12.2447L1.78838 6.54234Z" fill="#04BF00"/>
<path d="M1.78838 6.54234L2.14193 6.18879L2.14193 6.18879L1.78838 6.54234ZM7.81718 13.6299L7.68746 13.147C7.62485 13.1638 7.5661 13.1926 7.51449 13.2319L7.81718 13.6299ZM8.09287 13.4703L8.44643 13.8238C8.46188 13.8084 8.4763 13.7919 8.4896 13.7746L8.09287 13.4703ZM16.7136 2.23165L16.3601 1.8781C16.3446 1.89355 16.3302 1.91 16.3169 1.92734L16.7136 2.23165ZM15.8408 1.35888L15.4873 1.00533C15.4718 1.02078 15.4574 1.03723 15.4441 1.05456L15.8408 1.35888ZM7.49073 12.2447L7.13717 12.5982C7.239 12.7001 7.37978 12.7531 7.52347 12.7436C7.66716 12.7342 7.79981 12.6633 7.88745 12.549L7.49073 12.2447ZM1.43203 7.05877C1.49669 6.99411 1.5556 6.96945 1.57897 6.96409C1.5895 6.96168 1.57914 6.96621 1.55232 6.96101C1.52251 6.95522 1.4765 6.93757 1.43482 6.8959L2.14193 6.18879C1.901 5.94786 1.58102 5.93764 1.35535 5.98942C1.12178 6.043 0.901276 6.17531 0.724923 6.35166L1.43203 7.05877ZM1.26916 7.06156C1.31083 7.10324 1.32848 7.14925 1.33427 7.17906C1.33948 7.20588 1.33494 7.21624 1.33735 7.20571C1.34272 7.18234 1.36737 7.12343 1.43203 7.05877L0.724923 6.35166C0.548571 6.52801 0.416264 6.74852 0.362677 6.98209C0.310902 7.20775 0.321119 7.52774 0.562051 7.76867L1.26916 7.06156ZM7.56002 13.3524L1.26916 7.06156L0.562051 7.76867L6.85291 14.0595L7.56002 13.3524ZM7.51449 13.2319C7.48806 13.252 7.4639 13.2656 7.44445 13.2742C7.42456 13.283 7.41341 13.2848 7.41235 13.2849C7.41089 13.2851 7.42669 13.2827 7.45465 13.2901C7.48481 13.2982 7.5244 13.3168 7.56002 13.3524L6.85291 14.0595C7.06104 14.2677 7.33248 14.3039 7.5423 14.2764C7.75331 14.2488 7.95325 14.1545 8.11986 14.0278L7.51449 13.2319ZM7.73932 13.1167C7.72369 13.1324 7.70606 13.142 7.68746 13.147L7.94689 14.1127C8.13028 14.0635 8.30355 13.9667 8.44643 13.8238L7.73932 13.1167ZM16.3169 1.92734L7.69615 13.166L8.4896 13.7746L17.1103 2.53597L16.3169 1.92734ZM16.3601 1.71243C16.4058 1.75818 16.4058 1.83235 16.3601 1.8781L17.0672 2.5852C17.5034 2.14893 17.5034 1.4416 17.0672 1.00533L16.3601 1.71243ZM16.1944 1.71243C16.2401 1.66669 16.3143 1.66669 16.3601 1.71243L17.0672 1.00533C16.6309 0.569054 15.9236 0.569055 15.4873 1.00533L16.1944 1.71243ZM7.88745 12.549L16.2376 1.66319L15.4441 1.05456L7.094 11.9404L7.88745 12.549ZM1.43482 6.8959L7.13717 12.5982L7.84428 11.8911L2.14193 6.18879L1.43482 6.8959Z" fill="#04BF00"/>
</svg>
