<svg width="95" height="21" viewBox="0 0 95 21" fill="none" xmlns="http://www.w3.org/2000/svg">
                            <g clip-path="url(#clip0_10635_9551)">
                            <path d="M7.43197 20.2352C5.47052 20.2327 3.59011 19.4564 2.20316 18.0765C0.816201 16.6966 0.0359214 14.8258 0.0334473 12.8744V11.3262C0.0355043 9.40786 0.789277 7.56591 2.13462 6.1917C3.47996 4.81748 5.31085 4.0193 7.23829 3.96672L8.41505 2.80127C10.0121 1.21673 12.1704 0.319149 14.4258 0.301605H17.5153C19.477 0.303715 21.3577 1.07986 22.745 2.45978C24.1322 3.8397 24.9127 5.71072 24.9151 7.6624V9.21058C24.9127 11.1288 24.1589 12.9706 22.8136 14.3447C21.4683 15.7188 19.6376 16.5171 17.7103 16.57L16.5215 17.7514C14.9287 19.3289 12.7769 20.2208 10.5295 20.2352H7.43197Z" fill="white" stroke="black" stroke-width="0.0653016" stroke-miterlimit="10"/>
                            <path d="M7.43197 17.9107C6.09043 17.9072 4.80485 17.3755 3.85624 16.4317C2.90763 15.4879 2.37314 14.2089 2.36961 12.8742V11.326C2.37314 9.99131 2.90763 8.71228 3.85624 7.7685C4.80485 6.82473 6.09043 6.29297 7.43197 6.28946C7.48807 6.28946 7.54417 6.28946 7.60294 6.28946H8.20936L10.0593 4.44893C11.2177 3.29439 12.7861 2.63949 14.4258 2.62567H17.5153C18.8561 2.63023 20.1407 3.16246 21.0884 4.10612C22.0362 5.04978 22.5701 6.32821 22.5736 7.66222V9.21039C22.5722 10.5457 22.0384 11.826 21.0893 12.7702C20.1403 13.7144 18.8535 14.2455 17.5113 14.2469C17.4565 14.2469 17.3991 14.2469 17.3416 14.2469H16.7352L14.8732 16.0981C13.7183 17.245 12.1572 17.8953 10.5255 17.9094L7.43197 17.9107Z" fill="#FFADF6" stroke="black" stroke-width="0.0653016" stroke-miterlimit="10"/>
                            <path d="M7.43196 15.585C6.7095 15.5843 6.01684 15.2985 5.50598 14.7902C4.99512 14.282 4.70781 13.5928 4.70711 12.8741V11.3259C4.70781 10.607 4.99508 9.91772 5.5059 9.40926C6.01672 8.90079 6.70938 8.61465 7.43196 8.6136H9.17774L11.7156 6.09533C12.4335 5.3755 13.4066 4.96466 14.4258 4.95114H17.5153C18.2379 4.95184 18.9307 5.23765 19.4417 5.74586C19.9528 6.25407 20.2404 6.94321 20.2415 7.6621V9.21028C20.2404 9.93045 19.9519 10.6207 19.4394 11.1293C18.927 11.638 18.2325 11.9233 17.5086 11.9226H15.7615C14.9534 12.7266 13.2851 14.3877 13.2236 14.4475C12.5067 15.1648 11.5355 15.5737 10.5188 15.5864L7.43196 15.585Z" fill="#B4E3FD" stroke="black" stroke-width="0.0653016" stroke-miterlimit="10"/>
                            <path d="M17.5086 7.27551H14.4258C14.0228 7.2898 13.6406 7.45665 13.3572 7.74196L10.3999 10.6828C10.3148 10.767 10.2134 10.8329 10.1017 10.8765C9.99009 10.9202 9.87065 10.9406 9.75076 10.9366H7.43062C7.32754 10.9366 7.22867 10.9774 7.15578 11.0499C7.08288 11.1224 7.04193 11.2208 7.04193 11.3234V12.8742C7.04193 12.9767 7.08288 13.0751 7.15578 13.1476C7.22867 13.2202 7.32754 13.2609 7.43062 13.2609H10.5215C10.9246 13.2473 11.307 13.0803 11.59 12.7945L14.5473 9.85359C14.6323 9.76974 14.7336 9.70399 14.845 9.66035C14.9563 9.61672 15.0755 9.5961 15.1951 9.59977H17.5153C17.6179 9.59837 17.7158 9.55664 17.7876 9.4837C17.8594 9.41075 17.8993 9.31251 17.8986 9.2104V7.66223C17.8986 7.61133 17.8885 7.56094 17.8689 7.51393C17.8493 7.46693 17.8205 7.42424 17.7843 7.38831C17.7481 7.35238 17.7051 7.32393 17.6577 7.30457C17.6104 7.28521 17.5597 7.27534 17.5086 7.27551Z" fill="white" stroke="black" stroke-width="0.0653016" stroke-miterlimit="10"/>
                            <path d="M79.3936 3.89478H77.0908V16.8728H79.3936V3.89478Z" fill="black"/>
                            <path d="M54.7537 10.3838C54.7537 6.41836 52.0595 3.73929 48.0751 3.73929C44.0907 3.73929 41.3965 6.41836 41.3965 10.3838C41.3965 14.3493 44.0907 17.0283 48.0751 17.0283C52.0595 17.0283 54.7537 14.3493 54.7537 10.3838ZM48.0751 14.8675C45.4517 14.8675 43.6993 13.1147 43.6993 10.3838C43.6993 7.65291 45.4517 5.89876 48.0751 5.89876C50.6984 5.89876 52.4496 7.65291 52.4496 10.3838C52.4496 13.1147 50.6984 14.8675 48.0751 14.8675Z" fill="black"/>
                            <path d="M88.3215 3.73929C84.337 3.73929 81.6429 6.41836 81.6429 10.3838C81.6429 14.3493 84.337 17.0283 88.3215 17.0283C90.1714 17.0283 91.6688 16.4037 92.6773 15.314H92.708L93.2049 16.8795H95.0001V10.3838C95.0001 6.41836 92.3059 3.73929 88.3215 3.73929ZM88.3215 14.8675C85.6981 14.8675 83.947 13.112 83.947 10.3838C83.947 7.65557 85.6981 5.89876 88.3215 5.89876C90.9448 5.89876 92.6986 7.65291 92.6986 10.3838C92.6986 13.1147 90.9048 14.8675 88.3215 14.8675Z" fill="black"/>
                            <path d="M69.7978 3.7393C67.9625 3.7393 66.6482 4.7094 66.0738 5.56787H66.0578C65.3018 4.38381 63.8859 3.7393 62.2296 3.7393C60.9915 3.73709 59.8031 4.22361 58.9251 5.09212H58.905L58.5244 3.89611H56.7305V16.8795H59.0386V7.78182C59.0386 6.67086 60.1192 5.89876 61.7434 5.89876C63.4545 5.89876 64.4483 6.74262 64.4483 8.11936V16.8795H66.751V7.92933C66.751 6.72003 67.7061 5.89876 69.4011 5.89876C71.0961 5.89876 72.1059 6.77185 72.1059 8.11936V16.8795H74.4087V7.97584C74.41 5.31006 72.4879 3.7393 69.7978 3.7393Z" fill="black"/>
                            <path d="M36.8337 9.74728L33.7068 8.90608C33.055 8.72934 32.6877 8.56455 32.4312 8.35592C32.3091 8.25754 32.2118 8.13223 32.1468 7.9899C32.0819 7.84758 32.0512 7.69216 32.0572 7.53598C32.0572 7.11472 32.2415 6.73067 32.6863 6.41837C33.1872 6.06621 33.835 5.89877 34.957 5.89877C36.3422 5.89877 37.6926 6.36256 38.8734 7.06156L39.5719 5.05226C38.4286 4.27087 36.7322 3.73798 34.9838 3.73798C33.043 3.73798 32.0692 4.07552 31.1102 4.78781C30.6788 5.11031 30.3281 5.52752 30.0853 6.00695C29.8425 6.48638 29.7142 7.0151 29.7104 7.55193C29.7104 8.49944 29.9454 9.17585 30.4303 9.74329C30.8791 10.2669 31.5697 10.6895 32.7785 11.0244L36.0122 11.9227C36.5866 12.0835 36.9366 12.2124 37.1837 12.4024C37.3306 12.5098 37.4483 12.6519 37.526 12.816C37.6037 12.9801 37.6389 13.1609 37.6285 13.342C37.6285 13.8164 37.3413 14.2031 36.9352 14.4489C36.5292 14.6948 35.7037 14.8742 34.6151 14.8742C33.0643 14.8742 31.2878 14.2469 30.1391 13.5825L29.4379 15.5958C30.1832 16.1273 32.4032 17.027 34.6244 17.027C36.3863 17.027 37.6405 16.7253 38.5942 15.9347C39.4691 15.2091 39.966 14.3041 39.966 13.0868C39.9606 11.4549 38.9602 10.324 36.8337 9.74728Z" fill="black"/>
                            </g>
                            <defs>
                            <clipPath id="clip0_10635_9551">
                            <rect width="95" height="20" fill="white" transform="translate(6.10352e-05 0.268188)"/>
                            </clipPath>
                            </defs>
                        </svg>    