<svg xmlns="http://www.w3.org/2000/svg" width="70" height="70" viewBox="0 0 70 70" fill="none">
    <g clip-path="url(#clip0_323_1250)">
        <path d="M35.0089 70.0179C54.3438 70.0179 70.0179 54.3438 70.0179 35.0089C70.0179 15.674 54.3438 0 35.0089 0C15.674 0 0 15.674 0 35.0089C0 54.3438 15.674 70.0179 35.0089 70.0179Z" fill="url(#paint0_linear_323_1250)"/>
        <path d="M35.0089 70.0179C54.3438 70.0179 70.0179 54.3438 70.0179 35.0089C70.0179 15.674 54.3438 0 35.0089 0C15.674 0 0 15.674 0 35.0089C0 54.3438 15.674 70.0179 35.0089 70.0179Z" fill="#A2B3DB"/>
        <path d="M18.0034 17.1521L18.4755 16.7433L19.4898 17.9143L20.968 16.6337L19.9537 15.4626L20.4258 15.0538L22.9716 17.9926L22.4995 18.4014L21.3345 17.0568L19.8563 18.3374L21.0213 19.682L20.5491 20.0908L18.0034 17.1521ZM25.5298 15.7655L24.013 16.6379L24.0958 17.3375L23.5189 17.6693L23.034 13.3884L23.2179 13.2825L26.6747 15.8544L26.0924 16.1893L25.5295 15.7655H25.5298ZM23.7049 14.3415L23.9399 16.0614L25.0683 15.4124L23.7049 14.3415ZM30.1069 12.5942C30.3464 12.604 30.5513 12.674 30.7212 12.8055C30.8913 12.9367 31.0091 13.1178 31.0746 13.3482C31.1333 13.5558 31.1361 13.757 31.0837 13.9519C31.0304 14.1464 30.9254 14.3162 30.7687 14.4608C30.6116 14.6057 30.4122 14.712 30.1702 14.7805L28.5666 15.2355L27.5051 11.4953L28.8144 11.1236C29.0372 11.0606 29.2457 11.0475 29.4399 11.0841C29.6341 11.1209 29.7991 11.2016 29.9346 11.3261C30.07 11.4512 30.165 11.6101 30.2198 11.8028C30.2606 11.9461 30.2716 12.0852 30.2524 12.2186C30.2332 12.3528 30.1851 12.4779 30.1075 12.5939L30.1069 12.5942ZM28.2439 11.8548L28.5304 12.8636L29.1934 12.6755C29.3781 12.6228 29.5081 12.5364 29.5818 12.4155C29.6554 12.2944 29.6707 12.1562 29.6268 12.0015C29.583 11.8466 29.4981 11.7388 29.3726 11.6786C29.2475 11.6183 29.092 11.6146 28.9072 11.6667L28.2442 11.8548H28.2439ZM29.9696 14.2678C30.1772 14.2091 30.3242 14.1111 30.4101 13.9747C30.4953 13.838 30.5133 13.6809 30.463 13.5032C30.4125 13.3257 30.3145 13.2006 30.1699 13.1272C30.0244 13.0545 29.8478 13.0472 29.6402 13.1062L28.6768 13.3796L29.0064 14.5415L29.9699 14.2678H29.9696ZM32.6167 10.9967L31.3126 11.0959L31.27 10.538L34.5068 10.292L34.5494 10.8497L33.2395 10.9492L33.4919 14.2681L32.8691 14.3156L32.6164 10.9967H32.6167ZM37.093 14.3604C36.721 14.3321 36.3859 14.2179 36.0882 14.0179C35.7904 13.8182 35.563 13.5589 35.406 13.2399C35.2489 12.9208 35.1847 12.575 35.213 12.2031C35.2413 11.8308 35.3582 11.499 35.5637 11.2076C35.7688 10.916 36.0331 10.6938 36.3557 10.5413C36.6784 10.3885 37.0257 10.3267 37.3977 10.355C37.766 10.383 38.1 10.4969 38.3995 10.6969C38.6993 10.8968 38.9289 11.1565 39.0878 11.4755C39.2467 11.7948 39.3121 12.1407 39.2835 12.5126C39.2552 12.8849 39.1383 13.2167 38.9328 13.508C38.728 13.7997 38.4619 14.0216 38.1353 14.1738C37.8083 14.3263 37.4613 14.3884 37.093 14.3604ZM37.1423 13.7911C37.4047 13.8109 37.6461 13.7674 37.8671 13.6599C38.0878 13.5528 38.2677 13.3942 38.4053 13.1838C38.5435 12.9741 38.6229 12.7318 38.6439 12.4578C38.6643 12.1912 38.6217 11.944 38.517 11.7154C38.4123 11.4868 38.2589 11.3029 38.0571 11.1635C37.8549 11.0238 37.6227 10.9446 37.3603 10.9245C37.0939 10.9042 36.8504 10.9477 36.6294 11.0551C36.4084 11.162 36.23 11.32 36.0942 11.5282C35.9585 11.7364 35.8802 11.9757 35.8595 12.2463C35.8388 12.5202 35.8796 12.7714 35.9822 12.9994C36.0851 13.228 36.2376 13.4118 36.4397 13.5513C36.6419 13.691 36.876 13.7704 37.1423 13.7908V13.7911ZM40.9179 10.9839L42.2837 11.3717C42.533 11.4423 42.7403 11.5531 42.9059 11.7044C43.0712 11.8554 43.182 12.0326 43.2386 12.2365C43.2953 12.4402 43.2919 12.6533 43.2283 12.8761C43.1653 13.0992 43.0557 13.2825 42.9011 13.4265C42.7455 13.5701 42.5577 13.6636 42.3373 13.7074C42.1169 13.751 41.8819 13.7373 41.6326 13.6663L40.8676 13.4493L40.4576 14.8946L39.8567 14.7241L40.9182 10.9836L40.9179 10.9839ZM41.7723 13.1306C41.9839 13.1905 42.1635 13.1817 42.3099 13.1026C42.4569 13.0237 42.5565 12.8919 42.6088 12.7065C42.6615 12.5215 42.6463 12.3559 42.5629 12.2098C42.4801 12.0636 42.3324 11.9607 42.1212 11.9008L41.3675 11.6868L41.0183 12.9163L41.772 13.1303L41.7723 13.1306ZM44.7181 16.62C44.386 16.4498 44.1208 16.2151 43.9236 15.9156C43.7266 15.6164 43.617 15.2888 43.5957 14.9339C43.5747 14.5786 43.649 14.2353 43.8188 13.9032C43.9893 13.5711 44.2249 13.3102 44.5275 13.1208C44.8295 12.9315 45.1591 12.8289 45.5156 12.8131C45.8724 12.7973 46.2167 12.874 46.5488 13.0441C46.8772 13.2128 47.1411 13.4469 47.3402 13.7473C47.5393 14.0478 47.6504 14.3759 47.6732 14.7318C47.6964 15.0879 47.6227 15.4319 47.4528 15.764C47.2827 16.0961 47.0468 16.357 46.7442 16.5463C46.4422 16.7357 46.111 16.8373 45.7509 16.8513C45.3908 16.8653 45.0465 16.7886 44.7181 16.62ZM44.9835 16.1141C45.2179 16.234 45.4572 16.2876 45.7028 16.2739C45.9476 16.2605 46.1746 16.1838 46.3832 16.0431C46.5917 15.9031 46.7588 15.7107 46.8842 15.466C47.006 15.2282 47.0626 14.9835 47.0547 14.7324C47.0465 14.4809 46.9761 14.252 46.844 14.0453C46.7113 13.8386 46.5284 13.6752 46.294 13.5552C46.0565 13.4338 45.8151 13.3796 45.5698 13.3927C45.3244 13.4061 45.0989 13.4828 44.8931 13.6222C44.6873 13.7616 44.5223 13.9519 44.3987 14.1933C44.2736 14.4377 44.2143 14.6855 44.2207 14.9357C44.2271 15.1862 44.2962 15.4148 44.4289 15.6212C44.5613 15.8282 44.7464 15.9923 44.9838 16.1141H44.9835ZM52.2363 17.0809L49.6482 20.0683L49.1761 19.6595L50.9544 17.6069L47.3125 18.1308L47.1475 17.988L49.7359 15.0005L50.2077 15.4094L48.4336 17.4574L52.0713 16.9378L52.2363 17.0806V17.0809ZM51.2436 15.8157C51.0302 15.6307 50.9164 15.4121 50.9024 15.1613C50.8887 14.9104 50.9782 14.6736 51.1712 14.4508L51.2482 14.3619L51.6314 14.6937L51.5425 14.7963C51.4372 14.9177 51.383 15.0386 51.3806 15.1585C51.3779 15.2785 51.4302 15.3847 51.5371 15.4772C51.6439 15.5698 51.7565 15.6075 51.875 15.5908C51.9937 15.5737 52.1069 15.5034 52.215 15.3786L52.3036 15.276L52.6911 15.6118L52.6141 15.7007C52.4214 15.9232 52.1988 16.045 51.9468 16.0657C51.695 16.0867 51.4607 16.0036 51.2439 15.8157H51.2436Z" fill="white"/>
        <path d="M26.889 54.6686L25.6723 54.1885L25.8774 53.668L28.8974 54.8591L28.692 55.3799L27.4701 54.8978L26.2488 57.9939L25.668 57.765L26.8893 54.6686H26.889ZM30.4922 59.287C30.1248 59.2216 29.8031 59.0742 29.5267 58.8453C29.2503 58.6167 29.0503 58.3357 28.9261 58.0024C28.8022 57.6691 28.7726 57.3187 28.8384 56.9513C28.9038 56.5839 29.0536 56.2655 29.2871 55.9961C29.5206 55.7264 29.8058 55.5321 30.1425 55.4128C30.4788 55.2932 30.8307 55.2661 31.1981 55.3319C31.5616 55.3967 31.8821 55.5437 32.1607 55.7729C32.4389 56.0022 32.641 56.2834 32.7667 56.6171C32.8931 56.9507 32.9235 57.3011 32.8578 57.6685C32.7923 58.0359 32.6426 58.3543 32.4088 58.6237C32.1753 58.8934 31.8882 59.0873 31.5479 59.206C31.2076 59.3247 30.8557 59.3518 30.4922 59.287ZM30.5985 58.7254C30.8575 58.7716 31.1023 58.7528 31.3327 58.6678C31.5631 58.5835 31.7576 58.4435 31.9162 58.2484C32.0748 58.0535 32.1783 57.8207 32.2264 57.5501C32.2736 57.2871 32.2563 57.0365 32.1747 56.7988C32.0937 56.5604 31.9592 56.3623 31.7723 56.2031C31.585 56.0439 31.3622 55.9416 31.1032 55.8953C30.8402 55.8484 30.5936 55.867 30.3629 55.9519C30.1324 56.0362 29.9391 56.1754 29.7827 56.369C29.6265 56.5623 29.5248 56.7924 29.4773 57.0594C29.4289 57.33 29.4445 57.5838 29.5236 57.8213C29.6031 58.059 29.7361 58.2572 29.9236 58.4164C30.1105 58.5756 30.3355 58.6785 30.5985 58.7251V58.7254ZM36.2419 57.5141C36.4714 57.5829 36.6522 57.702 36.7843 57.8715C36.9164 58.0414 36.9852 58.2459 36.9913 58.4855C36.9968 58.7013 36.9493 58.8968 36.8497 59.0724C36.7502 59.2477 36.6062 59.3859 36.4181 59.4867C36.2303 59.5878 36.0105 59.6413 35.7594 59.6477L34.0924 59.6897L33.9947 55.8034L35.3554 55.769C35.5868 55.7629 35.7919 55.8022 35.9709 55.8862C36.1499 55.9699 36.2893 56.0892 36.3895 56.2435C36.4896 56.3985 36.5423 56.5757 36.5472 56.776C36.5511 56.9251 36.5271 57.0624 36.4753 57.1869C36.4236 57.3123 36.3457 57.421 36.2419 57.5141ZM34.6212 56.3349L34.6477 57.3832L35.3369 57.3659C35.5289 57.361 35.6763 57.3093 35.7776 57.2103C35.8793 57.1117 35.9283 56.9814 35.924 56.8207C35.9201 56.6597 35.865 56.534 35.7581 56.4445C35.6522 56.355 35.5024 56.3123 35.3104 56.3172L34.6212 56.3346V56.3349ZM35.6927 59.1013C35.9085 59.0958 36.075 59.0377 36.1922 58.9269C36.3091 58.8158 36.3657 58.6678 36.3612 58.4834C36.3566 58.2989 36.2927 58.1531 36.1703 58.0462C36.0476 57.9397 35.8787 57.8889 35.6626 57.894L34.6614 57.9193L34.6918 59.1269L35.693 59.1016L35.6927 59.1013ZM40.6734 58.3945L38.9508 58.7016L38.7919 59.3881L38.1368 59.505L39.1301 55.3127L39.3389 55.2752L41.7206 58.8654L41.0594 58.9832L40.6731 58.3942L40.6734 58.3945ZM39.4384 56.4365L39.0774 58.1345L40.3589 57.9059L39.4384 56.4365ZM41.6554 54.7291L42.9762 54.2077C43.2173 54.1127 43.4496 54.075 43.6727 54.0947C43.8955 54.1145 44.0913 54.1879 44.2602 54.3157C44.4288 54.4433 44.5552 54.6147 44.6404 54.8305C44.7256 55.0463 44.75 55.2582 44.7141 55.4667C44.6779 55.6752 44.5853 55.8637 44.4368 56.032C44.2876 56.2006 44.0925 56.3321 43.8517 56.4274L43.1117 56.7193L43.6627 58.1166L43.0819 58.3458L41.6551 54.7291H41.6554ZM43.6374 55.9166C43.842 55.8359 43.9789 55.72 44.0474 55.5681C44.1165 55.4162 44.1156 55.2512 44.045 55.0719C43.9747 54.8929 43.862 54.7705 43.7071 54.7048C43.5525 54.6393 43.3729 54.6469 43.1683 54.7273L42.4393 55.015L42.9083 56.2043L43.6374 55.9166Z" fill="white"/>
        <path d="M12.1423 34.5289H17.2194V36.3657H12.1423V34.5289ZM24.3963 33.4351C25.4007 33.6002 26.2538 34.0474 26.9555 34.7766C27.6572 35.5058 28.008 36.4552 28.008 37.6247C28.008 38.5328 27.781 39.3377 27.327 40.0394C26.8729 40.7411 26.2675 41.2845 25.5108 41.6698C24.7541 42.0413 23.9285 42.227 23.0342 42.227C21.9335 42.227 20.9704 41.9587 20.1448 41.4221C19.3331 40.8718 18.7002 40.1563 18.2461 39.2757L19.7733 38.2026C20.1861 38.8355 20.647 39.3308 21.1561 39.6885C21.6652 40.0462 22.2706 40.2251 22.9723 40.2251C23.7841 40.2251 24.4514 39.9912 24.9742 39.5234C25.497 39.0418 25.7585 38.4158 25.7585 37.6453C25.7585 36.8748 25.4833 36.2832 24.9329 35.8704C24.3963 35.4577 23.6258 35.2513 22.6214 35.2513H21.1148V34.6528L24.2931 30.3806H19.2161V28.3787H27.6985V28.9772L24.3963 33.4351ZM35.0657 42.227C33.9099 42.227 32.9399 41.9106 32.1557 41.2777C31.3852 40.6448 30.8073 39.7917 30.4221 38.7185C30.0506 37.6316 29.8648 36.4139 29.8648 35.0655C29.8648 33.0017 30.3051 31.3369 31.1857 30.0711C32.0663 28.7915 33.3596 28.1517 35.0657 28.1517C36.7718 28.1517 38.0582 28.7846 38.925 30.0504C39.8056 31.3162 40.2459 32.9879 40.2459 35.0655C40.2459 36.4139 40.0602 37.6316 39.6887 38.7185C39.3172 39.7917 38.7393 40.6448 37.955 41.2777C37.1845 41.9106 36.2214 42.227 35.0657 42.227ZM35.0657 40.2251C36.0701 40.2251 36.8062 39.7711 37.274 38.863C37.7418 37.9549 37.9757 36.696 37.9757 35.0862C37.9757 31.7978 37.0057 30.1536 35.0657 30.1536C33.1119 30.1536 32.135 31.7978 32.135 35.0862C32.135 36.696 32.3689 37.9549 32.8367 38.863C33.3183 39.7711 34.0613 40.2251 35.0657 40.2251ZM45.8182 34.8591C45.1853 34.8591 44.6006 34.7147 44.064 34.4257C43.5411 34.123 43.1215 33.7172 42.805 33.2081C42.5023 32.699 42.351 32.128 42.351 31.4951C42.351 30.876 42.5023 30.3118 42.805 29.8028C43.1215 29.2937 43.5411 28.8947 44.064 28.6057C44.6006 28.303 45.1853 28.1517 45.8182 28.1517C46.4374 28.1517 47.0084 28.303 47.5312 28.6057C48.0541 28.8947 48.4668 29.2937 48.7695 29.8028C49.086 30.3118 49.2442 30.876 49.2442 31.4951C49.2442 32.128 49.086 32.699 48.7695 33.2081C48.4668 33.7172 48.0541 34.123 47.5312 34.4257C47.0084 34.7147 46.4374 34.8591 45.8182 34.8591ZM52.8765 28.3787H54.7133L46.8914 42H45.0753L52.8765 28.3787ZM45.8182 33.3113C46.2998 33.3113 46.7057 33.1393 47.0359 32.7953C47.3661 32.4513 47.5312 32.0179 47.5312 31.4951C47.5312 30.986 47.3661 30.5595 47.0359 30.2155C46.7057 29.8578 46.2998 29.6789 45.8182 29.6789C45.3229 29.6789 44.9102 29.8509 44.5799 30.1949C44.2635 30.5389 44.1053 30.9723 44.1053 31.4951C44.1053 32.0179 44.2635 32.4513 44.5799 32.7953C44.8964 33.1393 45.3092 33.3113 45.8182 33.3113ZM53.9497 42.2064C53.3306 42.2064 52.7527 42.0619 52.2161 41.773C51.6933 41.4703 51.2805 41.0644 50.9778 40.5553C50.6751 40.0462 50.5238 39.4821 50.5238 38.863C50.5238 38.2301 50.6751 37.6591 50.9778 37.15C51.2805 36.6409 51.6933 36.2419 52.2161 35.953C52.7527 35.6503 53.3306 35.4989 53.9497 35.4989C54.5826 35.4989 55.1605 35.6503 55.6833 35.953C56.2062 36.2419 56.6189 36.6409 56.9216 37.15C57.2381 37.6591 57.3963 38.2301 57.3963 38.863C57.3963 39.4821 57.2381 40.0462 56.9216 40.5553C56.6189 41.0644 56.1993 41.4703 55.6627 41.773C55.1399 42.0619 54.5689 42.2064 53.9497 42.2064ZM53.9704 40.6585C54.4519 40.6585 54.8509 40.4865 55.1674 40.1426C55.4976 39.7986 55.6627 39.3721 55.6627 38.863C55.6627 38.3401 55.4976 37.9067 55.1674 37.5628C54.8509 37.2188 54.4519 37.0468 53.9704 37.0468C53.4613 37.0468 53.0485 37.2188 52.7321 37.5628C52.4156 37.893 52.2574 38.3264 52.2574 38.863C52.2574 39.3858 52.4156 39.8192 52.7321 40.1632C53.0485 40.4934 53.4613 40.6585 53.9704 40.6585Z" fill="#EC90A1"/>
        <path d="M12.1423 34.5289H17.2194V36.3657H12.1423V34.5289ZM24.3963 33.4351C25.4007 33.6002 26.2538 34.0474 26.9555 34.7766C27.6572 35.5058 28.008 36.4552 28.008 37.6247C28.008 38.5328 27.781 39.3377 27.327 40.0394C26.8729 40.7411 26.2675 41.2845 25.5108 41.6698C24.7541 42.0413 23.9285 42.227 23.0342 42.227C21.9335 42.227 20.9704 41.9587 20.1448 41.4221C19.3331 40.8718 18.7002 40.1563 18.2461 39.2757L19.7733 38.2026C20.1861 38.8355 20.647 39.3308 21.1561 39.6885C21.6652 40.0462 22.2706 40.2251 22.9723 40.2251C23.7841 40.2251 24.4514 39.9912 24.9742 39.5234C25.497 39.0418 25.7585 38.4158 25.7585 37.6453C25.7585 36.8748 25.4833 36.2832 24.9329 35.8704C24.3963 35.4577 23.6258 35.2513 22.6214 35.2513H21.1148V34.6528L24.2931 30.3806H19.2161V28.3787H27.6985V28.9772L24.3963 33.4351ZM35.0657 42.227C33.9099 42.227 32.9399 41.9106 32.1557 41.2777C31.3852 40.6448 30.8073 39.7917 30.4221 38.7185C30.0506 37.6316 29.8648 36.4139 29.8648 35.0655C29.8648 33.0017 30.3051 31.3369 31.1857 30.0711C32.0663 28.7915 33.3596 28.1517 35.0657 28.1517C36.7718 28.1517 38.0582 28.7846 38.925 30.0504C39.8056 31.3162 40.2459 32.9879 40.2459 35.0655C40.2459 36.4139 40.0602 37.6316 39.6887 38.7185C39.3172 39.7917 38.7393 40.6448 37.955 41.2777C37.1845 41.9106 36.2214 42.227 35.0657 42.227ZM35.0657 40.2251C36.0701 40.2251 36.8062 39.7711 37.274 38.863C37.7418 37.9549 37.9757 36.696 37.9757 35.0862C37.9757 31.7978 37.0057 30.1536 35.0657 30.1536C33.1119 30.1536 32.135 31.7978 32.135 35.0862C32.135 36.696 32.3689 37.9549 32.8367 38.863C33.3183 39.7711 34.0613 40.2251 35.0657 40.2251ZM45.8182 34.8591C45.1853 34.8591 44.6006 34.7147 44.064 34.4257C43.5411 34.123 43.1215 33.7172 42.805 33.2081C42.5023 32.699 42.351 32.128 42.351 31.4951C42.351 30.876 42.5023 30.3118 42.805 29.8028C43.1215 29.2937 43.5411 28.8947 44.064 28.6057C44.6006 28.303 45.1853 28.1517 45.8182 28.1517C46.4374 28.1517 47.0084 28.303 47.5312 28.6057C48.0541 28.8947 48.4668 29.2937 48.7695 29.8028C49.086 30.3118 49.2442 30.876 49.2442 31.4951C49.2442 32.128 49.086 32.699 48.7695 33.2081C48.4668 33.7172 48.0541 34.123 47.5312 34.4257C47.0084 34.7147 46.4374 34.8591 45.8182 34.8591ZM52.8765 28.3787H54.7133L46.8914 42H45.0753L52.8765 28.3787ZM45.8182 33.3113C46.2998 33.3113 46.7057 33.1393 47.0359 32.7953C47.3661 32.4513 47.5312 32.0179 47.5312 31.4951C47.5312 30.986 47.3661 30.5595 47.0359 30.2155C46.7057 29.8578 46.2998 29.6789 45.8182 29.6789C45.3229 29.6789 44.9102 29.8509 44.5799 30.1949C44.2635 30.5389 44.1053 30.9723 44.1053 31.4951C44.1053 32.0179 44.2635 32.4513 44.5799 32.7953C44.8964 33.1393 45.3092 33.3113 45.8182 33.3113ZM53.9497 42.2064C53.3306 42.2064 52.7527 42.0619 52.2161 41.773C51.6933 41.4703 51.2805 41.0644 50.9778 40.5553C50.6751 40.0462 50.5238 39.4821 50.5238 38.863C50.5238 38.2301 50.6751 37.6591 50.9778 37.15C51.2805 36.6409 51.6933 36.2419 52.2161 35.953C52.7527 35.6503 53.3306 35.4989 53.9497 35.4989C54.5826 35.4989 55.1605 35.6503 55.6833 35.953C56.2062 36.2419 56.6189 36.6409 56.9216 37.15C57.2381 37.6591 57.3963 38.2301 57.3963 38.863C57.3963 39.4821 57.2381 40.0462 56.9216 40.5553C56.6189 41.0644 56.1993 41.4703 55.6627 41.773C55.1399 42.0619 54.5689 42.2064 53.9497 42.2064ZM53.9704 40.6585C54.4519 40.6585 54.8509 40.4865 55.1674 40.1426C55.4976 39.7986 55.6627 39.3721 55.6627 38.863C55.6627 38.3401 55.4976 37.9067 55.1674 37.5628C54.8509 37.2188 54.4519 37.0468 53.9704 37.0468C53.4613 37.0468 53.0485 37.2188 52.7321 37.5628C52.4156 37.893 52.2574 38.3264 52.2574 38.863C52.2574 39.3858 52.4156 39.8192 52.7321 40.1632C53.0485 40.4934 53.4613 40.6585 53.9704 40.6585Z" fill="white"/>
        <circle cx="35" cy="35.0001" r="33.0556" stroke="white" stroke-width="0.777778"/>
        <g clip-path="url(#clip1_323_1250)">
            <path d="M35.0089 70.0179C54.3438 70.0179 70.0179 54.3438 70.0179 35.0089C70.0179 15.674 54.3438 0 35.0089 0C15.674 0 0 15.674 0 35.0089C0 54.3438 15.674 70.0179 35.0089 70.0179Z" fill="url(#paint1_linear_323_1250)"/>
            <path d="M35.0089 70.0179C54.3438 70.0179 70.0179 54.3438 70.0179 35.0089C70.0179 15.674 54.3438 0 35.0089 0C15.674 0 0 15.674 0 35.0089C0 54.3438 15.674 70.0179 35.0089 70.0179Z" fill="#A2B3DB"/>
            <path d="M18.0034 17.1521L18.4755 16.7433L19.4898 17.9143L20.968 16.6337L19.9537 15.4626L20.4258 15.0538L22.9716 17.9926L22.4995 18.4014L21.3345 17.0568L19.8563 18.3374L21.0213 19.682L20.5491 20.0908L18.0034 17.1521ZM25.5298 15.7655L24.013 16.6379L24.0958 17.3375L23.5189 17.6693L23.034 13.3884L23.2179 13.2825L26.6747 15.8544L26.0924 16.1893L25.5295 15.7655H25.5298ZM23.7049 14.3415L23.9399 16.0614L25.0683 15.4124L23.7049 14.3415ZM30.1069 12.5942C30.3464 12.604 30.5513 12.674 30.7212 12.8055C30.8913 12.9367 31.0091 13.1178 31.0746 13.3482C31.1333 13.5558 31.1361 13.757 31.0837 13.9519C31.0304 14.1464 30.9254 14.3162 30.7687 14.4608C30.6116 14.6057 30.4122 14.712 30.1702 14.7805L28.5666 15.2355L27.5051 11.4953L28.8144 11.1236C29.0372 11.0606 29.2457 11.0475 29.4399 11.0841C29.6341 11.1209 29.7991 11.2016 29.9346 11.3261C30.07 11.4512 30.165 11.6101 30.2198 11.8028C30.2606 11.9461 30.2716 12.0852 30.2524 12.2186C30.2332 12.3528 30.1851 12.4779 30.1075 12.5939L30.1069 12.5942ZM28.2439 11.8548L28.5304 12.8636L29.1934 12.6755C29.3781 12.6228 29.5081 12.5364 29.5818 12.4155C29.6554 12.2944 29.6707 12.1562 29.6268 12.0015C29.583 11.8466 29.4981 11.7388 29.3726 11.6786C29.2475 11.6183 29.092 11.6146 28.9072 11.6667L28.2442 11.8548H28.2439ZM29.9696 14.2678C30.1772 14.2091 30.3242 14.1111 30.4101 13.9747C30.4953 13.838 30.5133 13.6809 30.463 13.5032C30.4125 13.3257 30.3145 13.2006 30.1699 13.1272C30.0244 13.0545 29.8478 13.0472 29.6402 13.1062L28.6768 13.3796L29.0064 14.5415L29.9699 14.2678H29.9696ZM32.6167 10.9967L31.3126 11.0959L31.27 10.538L34.5068 10.292L34.5494 10.8497L33.2395 10.9492L33.4919 14.2681L32.8691 14.3156L32.6164 10.9967H32.6167ZM37.093 14.3604C36.721 14.3321 36.3859 14.2179 36.0882 14.0179C35.7904 13.8182 35.563 13.5589 35.406 13.2399C35.2489 12.9208 35.1847 12.575 35.213 12.2031C35.2413 11.8308 35.3582 11.499 35.5637 11.2076C35.7688 10.916 36.0331 10.6938 36.3557 10.5413C36.6784 10.3885 37.0257 10.3267 37.3977 10.355C37.766 10.383 38.1 10.4969 38.3995 10.6969C38.6993 10.8968 38.9289 11.1565 39.0878 11.4755C39.2467 11.7948 39.3121 12.1407 39.2835 12.5126C39.2552 12.8849 39.1383 13.2167 38.9328 13.508C38.728 13.7997 38.4619 14.0216 38.1353 14.1738C37.8083 14.3263 37.4613 14.3884 37.093 14.3604ZM37.1423 13.7911C37.4047 13.8109 37.6461 13.7674 37.8671 13.6599C38.0878 13.5528 38.2677 13.3942 38.4053 13.1838C38.5435 12.9741 38.6229 12.7318 38.6439 12.4578C38.6643 12.1912 38.6217 11.944 38.517 11.7154C38.4123 11.4868 38.2589 11.3029 38.0571 11.1635C37.8549 11.0238 37.6227 10.9446 37.3603 10.9245C37.0939 10.9042 36.8504 10.9477 36.6294 11.0551C36.4084 11.162 36.23 11.32 36.0942 11.5282C35.9585 11.7364 35.8802 11.9757 35.8595 12.2463C35.8388 12.5202 35.8796 12.7714 35.9822 12.9994C36.0851 13.228 36.2376 13.4118 36.4397 13.5513C36.6419 13.691 36.876 13.7704 37.1423 13.7908V13.7911ZM40.9179 10.9839L42.2837 11.3717C42.533 11.4423 42.7403 11.5531 42.9059 11.7044C43.0712 11.8554 43.182 12.0326 43.2386 12.2365C43.2953 12.4402 43.2919 12.6533 43.2283 12.8761C43.1653 13.0992 43.0557 13.2825 42.9011 13.4265C42.7455 13.5701 42.5577 13.6636 42.3373 13.7074C42.1169 13.751 41.8819 13.7373 41.6326 13.6663L40.8676 13.4493L40.4576 14.8946L39.8567 14.7241L40.9182 10.9836L40.9179 10.9839ZM41.7723 13.1306C41.9839 13.1905 42.1635 13.1817 42.3099 13.1026C42.4569 13.0237 42.5565 12.8919 42.6088 12.7065C42.6615 12.5215 42.6463 12.3559 42.5629 12.2098C42.4801 12.0636 42.3324 11.9607 42.1212 11.9008L41.3675 11.6868L41.0183 12.9163L41.772 13.1303L41.7723 13.1306ZM44.7181 16.62C44.386 16.4498 44.1208 16.2151 43.9236 15.9156C43.7266 15.6164 43.617 15.2888 43.5957 14.9339C43.5747 14.5786 43.649 14.2353 43.8188 13.9032C43.9893 13.5711 44.2249 13.3102 44.5275 13.1208C44.8295 12.9315 45.1591 12.8289 45.5156 12.8131C45.8724 12.7973 46.2167 12.874 46.5488 13.0441C46.8772 13.2128 47.1411 13.4469 47.3402 13.7473C47.5393 14.0478 47.6504 14.3759 47.6732 14.7318C47.6964 15.0879 47.6227 15.4319 47.4528 15.764C47.2827 16.0961 47.0468 16.357 46.7442 16.5463C46.4422 16.7357 46.111 16.8373 45.7509 16.8513C45.3908 16.8653 45.0465 16.7886 44.7181 16.62ZM44.9835 16.1141C45.2179 16.234 45.4572 16.2876 45.7028 16.2739C45.9476 16.2605 46.1746 16.1838 46.3832 16.0431C46.5917 15.9031 46.7588 15.7107 46.8842 15.466C47.006 15.2282 47.0626 14.9835 47.0547 14.7324C47.0465 14.4809 46.9761 14.252 46.844 14.0453C46.7113 13.8386 46.5284 13.6752 46.294 13.5552C46.0565 13.4338 45.8151 13.3796 45.5698 13.3927C45.3244 13.4061 45.0989 13.4828 44.8931 13.6222C44.6873 13.7616 44.5223 13.9519 44.3987 14.1933C44.2736 14.4377 44.2143 14.6855 44.2207 14.9357C44.2271 15.1862 44.2962 15.4148 44.4289 15.6212C44.5613 15.8282 44.7464 15.9923 44.9838 16.1141H44.9835ZM52.2363 17.0809L49.6482 20.0683L49.1761 19.6595L50.9544 17.6069L47.3125 18.1308L47.1475 17.988L49.7359 15.0005L50.2077 15.4094L48.4336 17.4574L52.0713 16.9378L52.2363 17.0806V17.0809ZM51.2436 15.8157C51.0302 15.6307 50.9164 15.4121 50.9024 15.1613C50.8887 14.9104 50.9782 14.6736 51.1712 14.4508L51.2482 14.3619L51.6314 14.6937L51.5425 14.7963C51.4372 14.9177 51.383 15.0386 51.3806 15.1585C51.3779 15.2785 51.4302 15.3847 51.5371 15.4772C51.6439 15.5698 51.7565 15.6075 51.875 15.5908C51.9937 15.5737 52.1069 15.5034 52.215 15.3786L52.3036 15.276L52.6911 15.6118L52.6141 15.7007C52.4214 15.9232 52.1988 16.045 51.9468 16.0657C51.695 16.0867 51.4607 16.0036 51.2439 15.8157H51.2436Z" fill="white"/>
            <path d="M26.889 54.6686L25.6723 54.1885L25.8774 53.668L28.8974 54.8591L28.692 55.3799L27.4701 54.8978L26.2488 57.9939L25.668 57.765L26.8893 54.6686H26.889ZM30.4922 59.287C30.1248 59.2216 29.8031 59.0742 29.5267 58.8453C29.2503 58.6167 29.0503 58.3357 28.9261 58.0024C28.8022 57.6691 28.7726 57.3187 28.8384 56.9513C28.9038 56.5839 29.0536 56.2655 29.2871 55.9961C29.5206 55.7264 29.8058 55.5321 30.1425 55.4128C30.4788 55.2932 30.8307 55.2661 31.1981 55.3319C31.5616 55.3967 31.8821 55.5437 32.1607 55.7729C32.4389 56.0022 32.641 56.2834 32.7667 56.6171C32.8931 56.9507 32.9235 57.3011 32.8578 57.6685C32.7923 58.0359 32.6426 58.3543 32.4088 58.6237C32.1753 58.8934 31.8882 59.0873 31.5479 59.206C31.2076 59.3247 30.8557 59.3518 30.4922 59.287ZM30.5985 58.7254C30.8575 58.7716 31.1023 58.7528 31.3327 58.6678C31.5631 58.5835 31.7576 58.4435 31.9162 58.2484C32.0748 58.0535 32.1783 57.8207 32.2264 57.5501C32.2736 57.2871 32.2563 57.0365 32.1747 56.7988C32.0937 56.5604 31.9592 56.3623 31.7723 56.2031C31.585 56.0439 31.3622 55.9416 31.1032 55.8953C30.8402 55.8484 30.5936 55.867 30.3629 55.9519C30.1324 56.0362 29.9391 56.1754 29.7827 56.369C29.6265 56.5623 29.5248 56.7924 29.4773 57.0594C29.4289 57.33 29.4445 57.5838 29.5236 57.8213C29.6031 58.059 29.7361 58.2572 29.9236 58.4164C30.1105 58.5756 30.3355 58.6785 30.5985 58.7251V58.7254ZM36.2419 57.5141C36.4714 57.5829 36.6522 57.702 36.7843 57.8715C36.9164 58.0414 36.9852 58.2459 36.9913 58.4855C36.9968 58.7013 36.9493 58.8968 36.8497 59.0724C36.7502 59.2477 36.6062 59.3859 36.4181 59.4867C36.2303 59.5878 36.0105 59.6413 35.7594 59.6477L34.0924 59.6897L33.9947 55.8034L35.3554 55.769C35.5868 55.7629 35.7919 55.8022 35.9709 55.8862C36.1499 55.9699 36.2893 56.0892 36.3895 56.2435C36.4896 56.3985 36.5423 56.5757 36.5472 56.776C36.5511 56.9251 36.5271 57.0624 36.4753 57.1869C36.4236 57.3123 36.3457 57.421 36.2419 57.5141ZM34.6212 56.3349L34.6477 57.3832L35.3369 57.3659C35.5289 57.361 35.6763 57.3093 35.7776 57.2103C35.8793 57.1117 35.9283 56.9814 35.924 56.8207C35.9201 56.6597 35.865 56.534 35.7581 56.4445C35.6522 56.355 35.5024 56.3123 35.3104 56.3172L34.6212 56.3346V56.3349ZM35.6927 59.1013C35.9085 59.0958 36.075 59.0377 36.1922 58.9269C36.3091 58.8158 36.3657 58.6678 36.3612 58.4834C36.3566 58.2989 36.2927 58.1531 36.1703 58.0462C36.0476 57.9397 35.8787 57.8889 35.6626 57.894L34.6614 57.9193L34.6918 59.1269L35.693 59.1016L35.6927 59.1013ZM40.6734 58.3945L38.9508 58.7016L38.7919 59.3881L38.1368 59.505L39.1301 55.3127L39.3389 55.2752L41.7206 58.8654L41.0594 58.9832L40.6731 58.3942L40.6734 58.3945ZM39.4384 56.4365L39.0774 58.1345L40.3589 57.9059L39.4384 56.4365ZM41.6554 54.7291L42.9762 54.2077C43.2173 54.1127 43.4496 54.075 43.6727 54.0947C43.8955 54.1145 44.0913 54.1879 44.2602 54.3157C44.4288 54.4433 44.5552 54.6147 44.6404 54.8305C44.7256 55.0463 44.75 55.2582 44.7141 55.4667C44.6779 55.6752 44.5853 55.8637 44.4368 56.032C44.2876 56.2006 44.0925 56.3321 43.8517 56.4274L43.1117 56.7193L43.6627 58.1166L43.0819 58.3458L41.6551 54.7291H41.6554ZM43.6374 55.9166C43.842 55.8359 43.9789 55.72 44.0474 55.5681C44.1165 55.4162 44.1156 55.2512 44.045 55.0719C43.9747 54.8929 43.862 54.7705 43.7071 54.7048C43.5525 54.6393 43.3729 54.6469 43.1683 54.7273L42.4393 55.015L42.9083 56.2043L43.6374 55.9166Z" fill="white"/>
            <path d="M12.1423 34.5289H17.2194V36.3657H12.1423V34.5289ZM24.3963 33.4351C25.4007 33.6002 26.2538 34.0474 26.9555 34.7766C27.6572 35.5058 28.008 36.4552 28.008 37.6247C28.008 38.5328 27.781 39.3377 27.327 40.0394C26.8729 40.7411 26.2675 41.2845 25.5108 41.6698C24.7541 42.0413 23.9285 42.227 23.0342 42.227C21.9335 42.227 20.9704 41.9587 20.1448 41.4221C19.3331 40.8718 18.7002 40.1563 18.2461 39.2757L19.7733 38.2026C20.1861 38.8355 20.647 39.3308 21.1561 39.6885C21.6652 40.0462 22.2706 40.2251 22.9723 40.2251C23.7841 40.2251 24.4514 39.9912 24.9742 39.5234C25.497 39.0418 25.7585 38.4158 25.7585 37.6453C25.7585 36.8748 25.4833 36.2832 24.9329 35.8704C24.3963 35.4577 23.6258 35.2513 22.6214 35.2513H21.1148V34.6528L24.2931 30.3806H19.2161V28.3787H27.6985V28.9772L24.3963 33.4351ZM35.0657 42.227C33.9099 42.227 32.9399 41.9106 32.1557 41.2777C31.3852 40.6448 30.8073 39.7917 30.4221 38.7185C30.0506 37.6316 29.8648 36.4139 29.8648 35.0655C29.8648 33.0017 30.3051 31.3369 31.1857 30.0711C32.0663 28.7915 33.3596 28.1517 35.0657 28.1517C36.7718 28.1517 38.0582 28.7846 38.925 30.0504C39.8056 31.3162 40.2459 32.9879 40.2459 35.0655C40.2459 36.4139 40.0602 37.6316 39.6887 38.7185C39.3172 39.7917 38.7393 40.6448 37.955 41.2777C37.1845 41.9106 36.2214 42.227 35.0657 42.227ZM35.0657 40.2251C36.0701 40.2251 36.8062 39.7711 37.274 38.863C37.7418 37.9549 37.9757 36.696 37.9757 35.0862C37.9757 31.7978 37.0057 30.1536 35.0657 30.1536C33.1119 30.1536 32.135 31.7978 32.135 35.0862C32.135 36.696 32.3689 37.9549 32.8367 38.863C33.3183 39.7711 34.0613 40.2251 35.0657 40.2251ZM45.8182 34.8591C45.1853 34.8591 44.6006 34.7147 44.064 34.4257C43.5411 34.123 43.1215 33.7172 42.805 33.2081C42.5023 32.699 42.351 32.128 42.351 31.4951C42.351 30.876 42.5023 30.3118 42.805 29.8028C43.1215 29.2937 43.5411 28.8947 44.064 28.6057C44.6006 28.303 45.1853 28.1517 45.8182 28.1517C46.4374 28.1517 47.0084 28.303 47.5312 28.6057C48.0541 28.8947 48.4668 29.2937 48.7695 29.8028C49.086 30.3118 49.2442 30.876 49.2442 31.4951C49.2442 32.128 49.086 32.699 48.7695 33.2081C48.4668 33.7172 48.0541 34.123 47.5312 34.4257C47.0084 34.7147 46.4374 34.8591 45.8182 34.8591ZM52.8765 28.3787H54.7133L46.8914 42H45.0753L52.8765 28.3787ZM45.8182 33.3113C46.2998 33.3113 46.7057 33.1393 47.0359 32.7953C47.3661 32.4513 47.5312 32.0179 47.5312 31.4951C47.5312 30.986 47.3661 30.5595 47.0359 30.2155C46.7057 29.8578 46.2998 29.6789 45.8182 29.6789C45.3229 29.6789 44.9102 29.8509 44.5799 30.1949C44.2635 30.5389 44.1053 30.9723 44.1053 31.4951C44.1053 32.0179 44.2635 32.4513 44.5799 32.7953C44.8964 33.1393 45.3092 33.3113 45.8182 33.3113ZM53.9497 42.2064C53.3306 42.2064 52.7527 42.0619 52.2161 41.773C51.6933 41.4703 51.2805 41.0644 50.9778 40.5553C50.6751 40.0462 50.5238 39.4821 50.5238 38.863C50.5238 38.2301 50.6751 37.6591 50.9778 37.15C51.2805 36.6409 51.6933 36.2419 52.2161 35.953C52.7527 35.6503 53.3306 35.4989 53.9497 35.4989C54.5826 35.4989 55.1605 35.6503 55.6833 35.953C56.2062 36.2419 56.6189 36.6409 56.9216 37.15C57.2381 37.6591 57.3963 38.2301 57.3963 38.863C57.3963 39.4821 57.2381 40.0462 56.9216 40.5553C56.6189 41.0644 56.1993 41.4703 55.6627 41.773C55.1399 42.0619 54.5689 42.2064 53.9497 42.2064ZM53.9704 40.6585C54.4519 40.6585 54.8509 40.4865 55.1674 40.1426C55.4976 39.7986 55.6627 39.3721 55.6627 38.863C55.6627 38.3401 55.4976 37.9067 55.1674 37.5628C54.8509 37.2188 54.4519 37.0468 53.9704 37.0468C53.4613 37.0468 53.0485 37.2188 52.7321 37.5628C52.4156 37.893 52.2574 38.3264 52.2574 38.863C52.2574 39.3858 52.4156 39.8192 52.7321 40.1632C53.0485 40.4934 53.4613 40.6585 53.9704 40.6585Z" fill="#EC90A1"/>
            <path d="M12.1423 34.5289H17.2194V36.3657H12.1423V34.5289ZM24.3963 33.4351C25.4007 33.6002 26.2538 34.0474 26.9555 34.7766C27.6572 35.5058 28.008 36.4552 28.008 37.6247C28.008 38.5328 27.781 39.3377 27.327 40.0394C26.8729 40.7411 26.2675 41.2845 25.5108 41.6698C24.7541 42.0413 23.9285 42.227 23.0342 42.227C21.9335 42.227 20.9704 41.9587 20.1448 41.4221C19.3331 40.8718 18.7002 40.1563 18.2461 39.2757L19.7733 38.2026C20.1861 38.8355 20.647 39.3308 21.1561 39.6885C21.6652 40.0462 22.2706 40.2251 22.9723 40.2251C23.7841 40.2251 24.4514 39.9912 24.9742 39.5234C25.497 39.0418 25.7585 38.4158 25.7585 37.6453C25.7585 36.8748 25.4833 36.2832 24.9329 35.8704C24.3963 35.4577 23.6258 35.2513 22.6214 35.2513H21.1148V34.6528L24.2931 30.3806H19.2161V28.3787H27.6985V28.9772L24.3963 33.4351ZM35.0657 42.227C33.9099 42.227 32.9399 41.9106 32.1557 41.2777C31.3852 40.6448 30.8073 39.7917 30.4221 38.7185C30.0506 37.6316 29.8648 36.4139 29.8648 35.0655C29.8648 33.0017 30.3051 31.3369 31.1857 30.0711C32.0663 28.7915 33.3596 28.1517 35.0657 28.1517C36.7718 28.1517 38.0582 28.7846 38.925 30.0504C39.8056 31.3162 40.2459 32.9879 40.2459 35.0655C40.2459 36.4139 40.0602 37.6316 39.6887 38.7185C39.3172 39.7917 38.7393 40.6448 37.955 41.2777C37.1845 41.9106 36.2214 42.227 35.0657 42.227ZM35.0657 40.2251C36.0701 40.2251 36.8062 39.7711 37.274 38.863C37.7418 37.9549 37.9757 36.696 37.9757 35.0862C37.9757 31.7978 37.0057 30.1536 35.0657 30.1536C33.1119 30.1536 32.135 31.7978 32.135 35.0862C32.135 36.696 32.3689 37.9549 32.8367 38.863C33.3183 39.7711 34.0613 40.2251 35.0657 40.2251ZM45.8182 34.8591C45.1853 34.8591 44.6006 34.7147 44.064 34.4257C43.5411 34.123 43.1215 33.7172 42.805 33.2081C42.5023 32.699 42.351 32.128 42.351 31.4951C42.351 30.876 42.5023 30.3118 42.805 29.8028C43.1215 29.2937 43.5411 28.8947 44.064 28.6057C44.6006 28.303 45.1853 28.1517 45.8182 28.1517C46.4374 28.1517 47.0084 28.303 47.5312 28.6057C48.0541 28.8947 48.4668 29.2937 48.7695 29.8028C49.086 30.3118 49.2442 30.876 49.2442 31.4951C49.2442 32.128 49.086 32.699 48.7695 33.2081C48.4668 33.7172 48.0541 34.123 47.5312 34.4257C47.0084 34.7147 46.4374 34.8591 45.8182 34.8591ZM52.8765 28.3787H54.7133L46.8914 42H45.0753L52.8765 28.3787ZM45.8182 33.3113C46.2998 33.3113 46.7057 33.1393 47.0359 32.7953C47.3661 32.4513 47.5312 32.0179 47.5312 31.4951C47.5312 30.986 47.3661 30.5595 47.0359 30.2155C46.7057 29.8578 46.2998 29.6789 45.8182 29.6789C45.3229 29.6789 44.9102 29.8509 44.5799 30.1949C44.2635 30.5389 44.1053 30.9723 44.1053 31.4951C44.1053 32.0179 44.2635 32.4513 44.5799 32.7953C44.8964 33.1393 45.3092 33.3113 45.8182 33.3113ZM53.9497 42.2064C53.3306 42.2064 52.7527 42.0619 52.2161 41.773C51.6933 41.4703 51.2805 41.0644 50.9778 40.5553C50.6751 40.0462 50.5238 39.4821 50.5238 38.863C50.5238 38.2301 50.6751 37.6591 50.9778 37.15C51.2805 36.6409 51.6933 36.2419 52.2161 35.953C52.7527 35.6503 53.3306 35.4989 53.9497 35.4989C54.5826 35.4989 55.1605 35.6503 55.6833 35.953C56.2062 36.2419 56.6189 36.6409 56.9216 37.15C57.2381 37.6591 57.3963 38.2301 57.3963 38.863C57.3963 39.4821 57.2381 40.0462 56.9216 40.5553C56.6189 41.0644 56.1993 41.4703 55.6627 41.773C55.1399 42.0619 54.5689 42.2064 53.9497 42.2064ZM53.9704 40.6585C54.4519 40.6585 54.8509 40.4865 55.1674 40.1426C55.4976 39.7986 55.6627 39.3721 55.6627 38.863C55.6627 38.3401 55.4976 37.9067 55.1674 37.5628C54.8509 37.2188 54.4519 37.0468 53.9704 37.0468C53.4613 37.0468 53.0485 37.2188 52.7321 37.5628C52.4156 37.893 52.2574 38.3264 52.2574 38.863C52.2574 39.3858 52.4156 39.8192 52.7321 40.1632C53.0485 40.4934 53.4613 40.6585 53.9704 40.6585Z" fill="white"/>
            <circle cx="35" cy="35.0001" r="33.0556" stroke="white" stroke-width="0.777778"/>
        </g>
    </g>
    <defs>
        <linearGradient id="paint0_linear_323_1250" x1="35.0089" y1="0" x2="35.0089" y2="70.0179" gradientUnits="userSpaceOnUse">
            <stop stop-color="white"/>
            <stop offset="0.6" stop-color="#FDE3CC"/>
            <stop offset="1" stop-color="#E7BE8B"/>
        </linearGradient>
        <linearGradient id="paint1_linear_323_1250" x1="35.0089" y1="0" x2="35.0089" y2="70.0179" gradientUnits="userSpaceOnUse">
            <stop stop-color="white"/>
            <stop offset="0.6" stop-color="#FDE3CC"/>
            <stop offset="1" stop-color="#E7BE8B"/>
        </linearGradient>
        <clipPath id="clip0_323_1250">
            <rect width="70" height="70" fill="white"/>
        </clipPath>
        <clipPath id="clip1_323_1250">
            <rect width="70" height="70" fill="white"/>
        </clipPath>
    </defs>
</svg>