<svg width="64" height="64" viewBox="0 0 64 64" fill="none" xmlns="http://www.w3.org/2000/svg">
<path d="M31.9995 63.9993C49.6723 63.9993 63.9989 49.6726 63.9989 31.9996C63.9989 14.3267 49.6723 0 31.9995 0C14.3266 0 0 14.3267 0 31.9996C0 49.6726 14.3266 63.9993 31.9995 63.9993Z" fill="url(#paint0_linear_11822_891)"/>
<rect x="2.79995" y="2.8002" width="58.4" height="58.4" rx="29.2" fill="url(#paint1_linear_11822_891)" stroke="white" stroke-width="0.8"/>
<path d="M9.37211 31.2702H14.4889V33.1214H9.37211V31.2702ZM25.679 36.8862V38.7998H15.8406V38.3006L20.7286 33.0382C21.4912 32.2339 22.0459 31.5545 22.3926 30.9998C22.7392 30.4313 22.9126 29.8558 22.9126 29.2734C22.9126 28.5801 22.7046 28.0046 22.2886 27.547C21.8726 27.0894 21.3179 26.8606 20.6246 26.8606C19.9312 26.8606 19.3696 27.1033 18.9398 27.5886C18.5099 28.0601 18.295 28.6494 18.295 29.3566C18.295 29.6478 18.3296 30.0014 18.399 30.4174H16.1734C16.0763 30.043 16.0278 29.6478 16.0278 29.2318C16.0278 28.483 16.215 27.7758 16.5894 27.1102C16.9638 26.4307 17.4976 25.883 18.191 25.467C18.8982 25.051 19.7163 24.843 20.6454 24.843C21.519 24.843 22.2955 25.0302 22.975 25.4046C23.6683 25.779 24.2091 26.2921 24.5974 26.9438C24.9995 27.5817 25.2006 28.3027 25.2006 29.107C25.2006 30.0361 24.951 30.8889 24.4518 31.6654C23.9664 32.4281 23.2454 33.3155 22.2886 34.3278L19.8758 36.8862H25.679ZM32.8813 39.0286C31.7165 39.0286 30.7389 38.7097 29.9485 38.0718C29.172 37.4339 28.5896 36.5742 28.2013 35.4926C27.8269 34.3971 27.6397 33.1699 27.6397 31.811C27.6397 29.731 28.0834 28.0531 28.9709 26.7774C29.8584 25.4878 31.1618 24.843 32.8813 24.843C34.6008 24.843 35.8973 25.4809 36.7709 26.7566C37.6584 28.0323 38.1021 29.7171 38.1021 31.811C38.1021 33.1699 37.9149 34.3971 37.5405 35.4926C37.1661 36.5742 36.5837 37.4339 35.7933 38.0718C35.0168 38.7097 34.0461 39.0286 32.8813 39.0286ZM32.8813 37.011C33.8936 37.011 34.6354 36.5534 35.1069 35.6382C35.5784 34.723 35.8141 33.4542 35.8141 31.8318C35.8141 28.5177 34.8365 26.8606 32.8813 26.8606C30.9122 26.8606 29.9277 28.5177 29.9277 31.8318C29.9277 33.4542 30.1634 34.723 30.6349 35.6382C31.1202 36.5534 31.869 37.011 32.8813 37.011ZM43.7181 31.603C43.0802 31.603 42.4909 31.4574 41.9501 31.1662C41.4232 30.8611 41.0002 30.4521 40.6813 29.939C40.3762 29.4259 40.2237 28.8505 40.2237 28.2126C40.2237 27.5886 40.3762 27.0201 40.6813 26.507C41.0002 25.9939 41.4232 25.5918 41.9501 25.3006C42.4909 24.9955 43.0802 24.843 43.7181 24.843C44.3421 24.843 44.9176 24.9955 45.4445 25.3006C45.9714 25.5918 46.3874 25.9939 46.6925 26.507C47.0114 27.0201 47.1709 27.5886 47.1709 28.2126C47.1709 28.8505 47.0114 29.4259 46.6925 29.939C46.3874 30.4521 45.9714 30.8611 45.4445 31.1662C44.9176 31.4574 44.3421 31.603 43.7181 31.603ZM50.8317 25.0718H52.6829L44.7997 38.7998H42.9693L50.8317 25.0718ZM43.7181 30.043C44.2034 30.043 44.6125 29.8697 44.9453 29.523C45.2781 29.1763 45.4445 28.7395 45.4445 28.2126C45.4445 27.6995 45.2781 27.2697 44.9453 26.923C44.6125 26.5625 44.2034 26.3822 43.7181 26.3822C43.2189 26.3822 42.8029 26.5555 42.4701 26.9022C42.1512 27.2489 41.9917 27.6857 41.9917 28.2126C41.9917 28.7395 42.1512 29.1763 42.4701 29.523C42.789 29.8697 43.205 30.043 43.7181 30.043ZM51.9133 39.0078C51.2893 39.0078 50.7069 38.8622 50.1661 38.571C49.6392 38.2659 49.2232 37.8569 48.9181 37.3438C48.613 36.8307 48.4605 36.2622 48.4605 35.6382C48.4605 35.0003 48.613 34.4249 48.9181 33.9118C49.2232 33.3987 49.6392 32.9966 50.1661 32.7054C50.7069 32.4003 51.2893 32.2478 51.9133 32.2478C52.5512 32.2478 53.1336 32.4003 53.6605 32.7054C54.1874 32.9966 54.6034 33.3987 54.9085 33.9118C55.2274 34.4249 55.3869 35.0003 55.3869 35.6382C55.3869 36.2622 55.2274 36.8307 54.9085 37.3438C54.6034 37.8569 54.1805 38.2659 53.6397 38.571C53.1128 38.8622 52.5373 39.0078 51.9133 39.0078ZM51.9341 37.4478C52.4194 37.4478 52.8216 37.2745 53.1405 36.9278C53.4733 36.5811 53.6397 36.1513 53.6397 35.6382C53.6397 35.1113 53.4733 34.6745 53.1405 34.3278C52.8216 33.9811 52.4194 33.8078 51.9341 33.8078C51.421 33.8078 51.005 33.9811 50.6861 34.3278C50.3672 34.6606 50.2077 35.0974 50.2077 35.6382C50.2077 36.1651 50.3672 36.6019 50.6861 36.9486C51.005 37.2814 51.421 37.4478 51.9341 37.4478Z" fill="#EC90A1"/>
<path d="M9.37211 31.2702H14.4889V33.1214H9.37211V31.2702ZM25.679 36.8862V38.7998H15.8406V38.3006L20.7286 33.0382C21.4912 32.2339 22.0459 31.5545 22.3926 30.9998C22.7392 30.4313 22.9126 29.8558 22.9126 29.2734C22.9126 28.5801 22.7046 28.0046 22.2886 27.547C21.8726 27.0894 21.3179 26.8606 20.6246 26.8606C19.9312 26.8606 19.3696 27.1033 18.9398 27.5886C18.5099 28.0601 18.295 28.6494 18.295 29.3566C18.295 29.6478 18.3296 30.0014 18.399 30.4174H16.1734C16.0763 30.043 16.0278 29.6478 16.0278 29.2318C16.0278 28.483 16.215 27.7758 16.5894 27.1102C16.9638 26.4307 17.4976 25.883 18.191 25.467C18.8982 25.051 19.7163 24.843 20.6454 24.843C21.519 24.843 22.2955 25.0302 22.975 25.4046C23.6683 25.779 24.2091 26.2921 24.5974 26.9438C24.9995 27.5817 25.2006 28.3027 25.2006 29.107C25.2006 30.0361 24.951 30.8889 24.4518 31.6654C23.9664 32.4281 23.2454 33.3155 22.2886 34.3278L19.8758 36.8862H25.679ZM32.8813 39.0286C31.7165 39.0286 30.7389 38.7097 29.9485 38.0718C29.172 37.4339 28.5896 36.5742 28.2013 35.4926C27.8269 34.3971 27.6397 33.1699 27.6397 31.811C27.6397 29.731 28.0834 28.0531 28.9709 26.7774C29.8584 25.4878 31.1618 24.843 32.8813 24.843C34.6008 24.843 35.8973 25.4809 36.7709 26.7566C37.6584 28.0323 38.1021 29.7171 38.1021 31.811C38.1021 33.1699 37.9149 34.3971 37.5405 35.4926C37.1661 36.5742 36.5837 37.4339 35.7933 38.0718C35.0168 38.7097 34.0461 39.0286 32.8813 39.0286ZM32.8813 37.011C33.8936 37.011 34.6354 36.5534 35.1069 35.6382C35.5784 34.723 35.8141 33.4542 35.8141 31.8318C35.8141 28.5177 34.8365 26.8606 32.8813 26.8606C30.9122 26.8606 29.9277 28.5177 29.9277 31.8318C29.9277 33.4542 30.1634 34.723 30.6349 35.6382C31.1202 36.5534 31.869 37.011 32.8813 37.011ZM43.7181 31.603C43.0802 31.603 42.4909 31.4574 41.9501 31.1662C41.4232 30.8611 41.0002 30.4521 40.6813 29.939C40.3762 29.4259 40.2237 28.8505 40.2237 28.2126C40.2237 27.5886 40.3762 27.0201 40.6813 26.507C41.0002 25.9939 41.4232 25.5918 41.9501 25.3006C42.4909 24.9955 43.0802 24.843 43.7181 24.843C44.3421 24.843 44.9176 24.9955 45.4445 25.3006C45.9714 25.5918 46.3874 25.9939 46.6925 26.507C47.0114 27.0201 47.1709 27.5886 47.1709 28.2126C47.1709 28.8505 47.0114 29.4259 46.6925 29.939C46.3874 30.4521 45.9714 30.8611 45.4445 31.1662C44.9176 31.4574 44.3421 31.603 43.7181 31.603ZM50.8317 25.0718H52.6829L44.7997 38.7998H42.9693L50.8317 25.0718ZM43.7181 30.043C44.2034 30.043 44.6125 29.8697 44.9453 29.523C45.2781 29.1763 45.4445 28.7395 45.4445 28.2126C45.4445 27.6995 45.2781 27.2697 44.9453 26.923C44.6125 26.5625 44.2034 26.3822 43.7181 26.3822C43.2189 26.3822 42.8029 26.5555 42.4701 26.9022C42.1512 27.2489 41.9917 27.6857 41.9917 28.2126C41.9917 28.7395 42.1512 29.1763 42.4701 29.523C42.789 29.8697 43.205 30.043 43.7181 30.043ZM51.9133 39.0078C51.2893 39.0078 50.7069 38.8622 50.1661 38.571C49.6392 38.2659 49.2232 37.8569 48.9181 37.3438C48.613 36.8307 48.4605 36.2622 48.4605 35.6382C48.4605 35.0003 48.613 34.4249 48.9181 33.9118C49.2232 33.3987 49.6392 32.9966 50.1661 32.7054C50.7069 32.4003 51.2893 32.2478 51.9133 32.2478C52.5512 32.2478 53.1336 32.4003 53.6605 32.7054C54.1874 32.9966 54.6034 33.3987 54.9085 33.9118C55.2274 34.4249 55.3869 35.0003 55.3869 35.6382C55.3869 36.2622 55.2274 36.8307 54.9085 37.3438C54.6034 37.8569 54.1805 38.2659 53.6397 38.571C53.1128 38.8622 52.5373 39.0078 51.9133 39.0078ZM51.9341 37.4478C52.4194 37.4478 52.8216 37.2745 53.1405 36.9278C53.4733 36.5811 53.6397 36.1513 53.6397 35.6382C53.6397 35.1113 53.4733 34.6745 53.1405 34.3278C52.8216 33.9811 52.4194 33.8078 51.9341 33.8078C51.421 33.8078 51.005 33.9811 50.6861 34.3278C50.3672 34.6606 50.2077 35.0974 50.2077 35.6382C50.2077 36.1651 50.3672 36.6019 50.6861 36.9486C51.005 37.2814 51.421 37.4478 51.9341 37.4478Z" fill="white"/>
<path d="M13.5999 14.2563L14.0855 13.8358L15.1287 15.0403L16.6492 13.7231L15.6059 12.5186L16.0915 12.0981L18.71 15.1208L18.2244 15.5413L17.0261 14.1583L15.5057 15.4755L16.704 16.8585L16.2183 17.279L13.5999 14.2563ZM21.3413 12.8301L19.7811 13.7275L19.8663 14.447L19.273 14.7883L18.7742 10.3851L18.9633 10.2761L22.5189 12.9215L21.9199 13.2659L21.341 12.8301H21.3413ZM19.4643 11.3654L19.706 13.1344L20.8667 12.4669L19.4643 11.3654ZM26.0492 9.5682C26.2956 9.57822 26.5063 9.65023 26.681 9.78549C26.856 9.92044 26.9772 10.1067 27.0445 10.3438C27.1049 10.5573 27.1078 10.7643 27.0539 10.9646C26.9991 11.1647 26.8911 11.3394 26.7298 11.4881C26.5683 11.6372 26.3632 11.7465 26.1143 11.8169L24.4649 12.285L23.3731 8.43789L24.7197 8.05559C24.9489 7.99078 25.1634 7.97732 25.3631 8.01489C25.5629 8.05278 25.7326 8.13575 25.8719 8.26381C26.0113 8.39249 26.109 8.55593 26.1653 8.75413C26.2073 8.9016 26.2185 9.04469 26.1988 9.18183C26.1791 9.31991 26.1296 9.44859 26.0498 9.56788L26.0492 9.5682ZM24.133 8.80767L24.4276 9.84529L25.1095 9.6518C25.2996 9.59763 25.4333 9.50871 25.5091 9.3844C25.5848 9.25979 25.6005 9.11764 25.5554 8.95858C25.5103 8.79921 25.423 8.68838 25.294 8.62638C25.1653 8.56439 25.0053 8.56063 24.8152 8.61417L24.1333 8.80767H24.133ZM25.9079 11.2896C26.1215 11.2292 26.2727 11.1284 26.361 10.9881C26.4487 10.8475 26.4672 10.686 26.4155 10.5031C26.3635 10.3206 26.2627 10.1919 26.114 10.1164C25.9643 10.0416 25.7827 10.0341 25.5692 10.0948L24.5782 10.376L24.9173 11.5711L25.9083 11.2896H25.9079ZM28.6307 7.92503L27.2894 8.0271L27.2455 7.45318L30.5748 7.2002L30.6186 7.7738L29.2713 7.87619L29.5309 11.29L28.8903 11.3388L28.6304 7.92503H28.6307ZM33.2349 11.3848C32.8523 11.3557 32.5075 11.2383 32.2013 11.0326C31.8951 10.8272 31.6612 10.5604 31.4997 10.2323C31.3381 9.90416 31.272 9.54847 31.3012 9.16586C31.3303 8.78293 31.4505 8.44165 31.6618 8.14201C31.8729 7.84206 32.1447 7.61349 32.4765 7.45663C32.8084 7.29945 33.1657 7.23589 33.5483 7.26501C33.9272 7.29381 34.2706 7.41091 34.5787 7.61662C34.8871 7.82233 35.1232 8.08941 35.2866 8.41754C35.4501 8.74599 35.5174 9.10167 35.488 9.48428C35.4589 9.86721 35.3386 10.2085 35.1273 10.5081C34.9166 10.8081 34.6429 11.0363 34.3069 11.1929C33.9707 11.3498 33.6137 11.4136 33.2349 11.3848ZM33.2856 10.7993C33.5555 10.8197 33.8038 10.7749 34.0311 10.6644C34.2581 10.5542 34.4431 10.391 34.5847 10.1747C34.7268 9.95895 34.8085 9.70972 34.8301 9.42793C34.8511 9.15365 34.8073 8.89941 34.6996 8.66427C34.5919 8.42913 34.4341 8.24001 34.2265 8.09661C34.0186 7.9529 33.7797 7.87149 33.5098 7.85082C33.2358 7.82985 32.9853 7.87462 32.758 7.98515C32.5307 8.09505 32.3472 8.25755 32.2076 8.47171C32.0679 8.68587 31.9875 8.93197 31.9662 9.21032C31.9449 9.49211 31.9868 9.75042 32.0924 9.98494C32.1982 10.2201 32.3551 10.4092 32.563 10.5526C32.7709 10.6963 33.0116 10.778 33.2856 10.799V10.7993ZM37.169 7.91188L38.5739 8.31077C38.8304 8.38341 39.0436 8.49738 39.2139 8.653C39.3839 8.8083 39.4979 8.99052 39.5561 9.2003C39.6144 9.40977 39.6109 9.62894 39.5455 9.85813C39.4807 10.0876 39.368 10.2761 39.2089 10.4242C39.0489 10.572 38.8557 10.6681 38.629 10.7132C38.4023 10.758 38.1606 10.7439 37.9042 10.6709L37.1174 10.4477L36.6956 11.9343L36.0775 11.759L37.1693 7.91157L37.169 7.91188ZM38.0479 10.1199C38.2655 10.1816 38.4502 10.1725 38.6008 10.0911C38.7521 10.01 38.8545 9.87441 38.9083 9.68373C38.9625 9.49336 38.9468 9.32304 38.861 9.17275C38.7759 9.02246 38.624 8.91663 38.4067 8.85495L37.6315 8.63484L37.2723 9.89946L38.0476 10.1196L38.0479 10.1199ZM41.0778 13.709C40.7362 13.534 40.4635 13.2926 40.2606 12.9845C40.058 12.6767 39.9453 12.3398 39.9234 11.9747C39.9018 11.6093 39.9782 11.2561 40.1529 10.9145C40.3282 10.5729 40.5706 10.3046 40.8818 10.1099C41.1924 9.91512 41.5315 9.8096 41.8981 9.79332C42.2651 9.77704 42.6192 9.85594 42.9608 10.031C43.2986 10.2044 43.5701 10.4452 43.7749 10.7542C43.9796 11.0633 44.0939 11.4008 44.1174 11.7668C44.1412 12.1331 44.0654 12.4869 43.8907 12.8285C43.7157 13.1701 43.473 13.4385 43.1618 13.6332C42.8512 13.828 42.5106 13.9325 42.1402 13.9469C41.7698 13.9614 41.4156 13.8824 41.0778 13.709ZM41.3508 13.1886C41.5919 13.312 41.838 13.3671 42.0907 13.353C42.3424 13.3392 42.576 13.2603 42.7905 13.1157C43.005 12.9716 43.1769 12.7737 43.3059 12.522C43.4311 12.2775 43.4893 12.0257 43.4812 11.7674C43.4727 11.5088 43.4004 11.2734 43.2645 11.0608C43.128 10.8482 42.9398 10.68 42.6987 10.5567C42.4545 10.4317 42.2062 10.376 41.9539 10.3895C41.7015 10.4032 41.4695 10.4821 41.2578 10.6255C41.0462 10.7689 40.8765 10.9646 40.7494 11.2129C40.6207 11.4644 40.5596 11.7192 40.5662 11.9766C40.5728 12.2343 40.6438 12.4694 40.7804 12.6817C40.9166 12.8946 41.1069 13.0634 41.3511 13.1886H41.3508ZM48.8108 14.183L46.1488 17.2558L45.6632 16.8353L47.4924 14.7241L43.7464 15.2629L43.5767 15.1161L46.239 12.0433L46.7243 12.4638L44.8995 14.5703L48.6411 14.0359L48.8108 14.1827V14.183ZM47.7898 12.8818C47.5703 12.6914 47.4532 12.4666 47.4388 12.2086C47.4247 11.9506 47.5168 11.707 47.7153 11.4778L47.7945 11.3864L48.1887 11.7277L48.0973 11.8332C47.9889 11.9581 47.9332 12.0824 47.9307 12.2058C47.9279 12.3291 47.9817 12.4384 48.0916 12.5336C48.2015 12.6288 48.3174 12.6676 48.4392 12.6504C48.5613 12.6329 48.6778 12.5605 48.7889 12.4322L48.88 12.3266L49.2786 12.672L49.1994 12.7634C49.0012 12.9923 48.7723 13.1175 48.5131 13.1388C48.2541 13.1604 48.013 13.075 47.7901 12.8818H47.7898Z" fill="white"/>
<path d="M22.7393 52.8451L21.4878 52.3513L21.6988 51.8159L24.8051 53.0411L24.5938 53.5768L23.337 53.0809L22.0808 56.2654L21.4834 56.03L22.7396 52.8451H22.7393ZM26.4455 57.5955C26.0675 57.5282 25.7366 57.3766 25.4523 57.1412C25.168 56.906 24.9623 56.617 24.8345 56.2742C24.7071 55.9313 24.6767 55.571 24.7444 55.1931C24.8117 54.8151 24.9657 54.4876 25.2059 54.2105C25.446 53.9331 25.7394 53.7334 26.0857 53.6106C26.4317 53.4876 26.7936 53.4597 27.1715 53.5273C27.5454 53.594 27.8751 53.7453 28.1616 53.981C28.4478 54.2168 28.6557 54.5061 28.785 54.8493C28.9149 55.1924 28.9462 55.5528 28.8786 55.9307C28.8113 56.3086 28.6572 56.6361 28.4168 56.9132C28.1766 57.1907 27.8814 57.3901 27.5313 57.5122C27.1813 57.6343 26.8193 57.6622 26.4455 57.5955ZM26.5547 57.0178C26.8212 57.0654 27.0729 57.046 27.3099 56.9586C27.547 56.8719 27.747 56.7279 27.9102 56.5272C28.0733 56.3268 28.1797 56.0873 28.2292 55.8089C28.2777 55.5384 28.2599 55.2807 28.176 55.0362C28.0927 54.791 27.9543 54.5872 27.7621 54.4234C27.5695 54.2597 27.3403 54.1545 27.0739 54.1069C26.8033 54.0587 26.5497 54.0778 26.3124 54.1651C26.0754 54.2519 25.8766 54.3949 25.7156 54.5941C25.555 54.7929 25.4504 55.0296 25.4016 55.3042C25.3518 55.5826 25.3678 55.8437 25.4492 56.0879C25.5309 56.3324 25.6677 56.5363 25.8606 56.7C26.0528 56.8638 26.2842 56.9696 26.5547 57.0175V57.0178ZM32.3594 55.772C32.5954 55.8427 32.7814 55.9652 32.9173 56.1396C33.0532 56.3143 33.124 56.5247 33.1302 56.7711C33.1359 56.9931 33.087 57.1941 32.9846 57.3748C32.8822 57.5551 32.7341 57.6973 32.5406 57.8009C32.3475 57.9048 32.1214 57.9599 31.8631 57.9665L30.1485 58.0097L30.048 54.0123L31.4476 53.977C31.6856 53.9707 31.8966 54.0111 32.0807 54.0975C32.2648 54.1836 32.4082 54.3063 32.5112 54.4651C32.6142 54.6245 32.6684 54.8067 32.6734 55.0127C32.6775 55.1661 32.6527 55.3073 32.5995 55.4354C32.5463 55.5644 32.4661 55.6762 32.3594 55.772ZM30.6924 54.559L30.7196 55.6373L31.4285 55.6195C31.6261 55.6145 31.7776 55.5613 31.8819 55.4595C31.9865 55.3581 32.0369 55.224 32.0325 55.0587C32.0284 54.8931 31.9717 54.7638 31.8618 54.6717C31.7529 54.5797 31.5988 54.5358 31.4013 54.5409L30.6924 54.5587V54.559ZM31.7945 57.4045C32.0165 57.3989 32.1878 57.3391 32.3083 57.2251C32.4286 57.1108 32.4868 56.9586 32.4821 56.7689C32.4774 56.5792 32.4116 56.4292 32.2858 56.3193C32.1596 56.2097 31.9858 56.1574 31.7635 56.1627L30.7337 56.1887L30.765 57.4308L31.7948 57.4048L31.7945 57.4045ZM36.9175 56.6775L35.1457 56.9934L34.9822 57.6994L34.3084 57.8197L35.3301 53.5076L35.5449 53.4691L37.9946 57.1618L37.3145 57.283L36.9172 56.6772L36.9175 56.6775ZM35.6473 54.6636L35.2759 56.4101L36.5941 56.1749L35.6473 54.6636ZM37.9276 52.9074L39.2861 52.371C39.5341 52.2734 39.773 52.2345 40.0025 52.2549C40.2317 52.2752 40.433 52.3507 40.6068 52.4822C40.7803 52.6134 40.9102 52.7897 40.9979 53.0117C41.0855 53.2336 41.1106 53.4516 41.0737 53.666C41.0364 53.8805 40.9412 54.0743 40.7884 54.2475C40.635 54.4209 40.4343 54.5562 40.1866 54.6542L39.4255 54.9545L39.9922 56.3916L39.3948 56.6274L37.9273 52.9074H37.9276ZM39.9662 54.1288C40.1766 54.0458 40.3175 53.9265 40.388 53.7703C40.459 53.6141 40.4581 53.4444 40.3855 53.26C40.3131 53.0758 40.1973 52.95 40.0379 52.8823C39.8788 52.815 39.6941 52.8229 39.4837 52.9055L38.7338 53.2014L39.2163 54.4247L39.9662 54.1288Z" fill="white"/>
<defs>
<linearGradient id="paint0_linear_11822_891" x1="1.11109e-06" y1="48.1834" x2="59.2176" y2="10.6668" gradientUnits="userSpaceOnUse">
<stop stop-color="#B9BDE1"/>
<stop offset="1" stop-color="#A2A5E5"/>
</linearGradient>
<linearGradient id="paint1_linear_11822_891" x1="3.61138" y1="4.43448" x2="57.0971" y2="57.9202" gradientUnits="userSpaceOnUse">
<stop stop-color="white" stop-opacity="0.4"/>
<stop offset="0.259297" stop-color="white" stop-opacity="0"/>
<stop offset="0.795987" stop-color="white" stop-opacity="0"/>
<stop offset="1" stop-color="white" stop-opacity="0.4"/>
</linearGradient>
</defs>
</svg>
