<?xml version="1.0" encoding="utf-8"?>
<!-- Generator: Adobe Illustrator 25.4.1, SVG Export Plug-In . SVG Version: 6.00 Build 0)  -->
<svg version="1.1" id="Слой_1" xmlns="http://www.w3.org/2000/svg" xmlns:xlink="http://www.w3.org/1999/xlink" x="0px" y="0px"
	 viewBox="0 0 151 150" style="enable-background:new 0 0 151 150;" xml:space="preserve">
<style type="text/css">
	.st0{fill:none;stroke:#221D1E;stroke-linecap:round;stroke-linejoin:round;}
	.st1{fill:none;stroke:#221D1E;stroke-width:0.5;stroke-linecap:round;stroke-linejoin:round;}
	.st2{fill:none;stroke:#221D1E;stroke-width:0.6;stroke-dasharray:1.2,1.2;}
	.st3{fill:#FFFFFF;stroke:#221D1E;stroke-linecap:round;stroke-linejoin:round;}
	.st4{fill:#FFFFFF;stroke:#221D1E;stroke-width:0.5;stroke-linecap:round;stroke-linejoin:round;}
</style>
<g>
	<path class="st0" d="M87.1,36.8c0,0-0.1-10.6-30.7-9.3c-22.5,0.9-27.3,7.8-26,11.6c0.3,0.8,0.8,1.5,1.4,1.9
		c3.9,2.8,14.5,7,28.5,6.2S86.9,42.6,87.1,36.8z"/>
	<path class="st0" d="M30.3,39.1c0,0,2.8,40,4.7,46.1c2.6,8.2,7.9,19.6,24.1,19.6c13.1,0,18.9-5,22.3-11.2c2-3.6,3.8-16.3,4.4-27.2
		c0.7-12.2,1.3-29.5,1.3-29.5"/>
	<polyline class="st0" points="55.4,44.2 55.4,41.9 60.7,40.7 61.1,43.8 	"/>
	<path class="st1" d="M35.3,42.5c0,0,6.3-5.1,20.1-5.6c13.7-0.5,22,2.2,25.9,4.4"/>
	<path class="st2" d="M41.4,51.5c0,0,16.7,6,36.3,0c0,0-0.1,34.2-0.9,38.1c0,0-16,6.8-34.1,0C42.8,89.5,41.2,60.6,41.4,51.5z"/>
</g>
<g>
	<path class="st3" d="M89.1,124.5c0,0,18.8-10,24-13.6c8.1-5.5,16.8-13.7,10.5-29.4c-4.9-12.2-13.5-15.5-19.3-16.2
		c-4.1-0.5-13.4,1-22.1,3.6c-11.7,3.5-16.5,6.3-16.5,6.3"/>
	<path class="st3" d="M95.5,91.7c-8.9-17.5-22.3-20.4-29.8-16.5c-2.2,1.1-18.4,12.4-7.7,34.9c8.1,17.2,26.6,17.4,31.1,14.4
		C100.8,117,101,102.5,95.5,91.7z"/>
	<polyline class="st3" points="86.2,98.8 84.1,99.7 80.8,95.4 83.5,93.8 	"/>
	<path class="st4" d="M90.5,121.3c-8,1-18.2-1.8-24.4-14.1s-3.2-26.9,6.1-32"/>
	<path class="st2" d="M103.1,103.3c0,0,1.2-17.5-16.5-29.1c0,0,18.8-6.3,20.9-6.4c0,0,16.2,6.4,15,27.8
		C122.5,95.5,107.3,101.5,103.1,103.3z"/>
</g>
</svg>
