<svg width="95" height="96" viewBox="0 0 95 96" fill="none" xmlns="http://www.w3.org/2000/svg">
<g clip-path="url(#clip0_1302_12231)">
<path d="M47.4234 94.0888C72.9836 94.0888 93.7043 73.3682 93.7043 47.8079C93.7043 22.2476 72.9836 1.52686 47.4234 1.52686C21.8631 1.52686 1.14233 22.2476 1.14233 47.8079C1.14233 73.3682 21.8631 94.0888 47.4234 94.0888Z" stroke="#E0B370" stroke-width="0.984701" stroke-miterlimit="10"/>
<path d="M31.9305 38.2636C37.9117 38.2636 43.8904 38.2636 49.8714 38.2636C50.8252 38.2636 50.8279 36.78 49.8714 36.78C43.8904 36.78 37.9117 36.78 31.9305 36.78C30.9766 36.78 30.974 38.2636 31.9305 38.2636Z" fill="#E0B370"/>
<path d="M39.1417 67.4013C38.4235 64.3079 37.8578 60.5035 37.3742 56.8221C36.8906 53.1407 36.4604 49.4188 35.8931 45.8022C36.2842 46.2036 36.6858 46.597 36.9724 46.1563C37.1874 45.8206 37.3492 45.0116 37.6578 45.4776C37.7708 45.6527 38.4172 44.1232 38.5326 44.3256C38.761 44.7312 38.4203 46.4702 38.5935 46.3401C39.2334 44.893 39.3862 45.747 39.7834 45.4536C40.6393 51.1211 41.1711 56.9072 41.685 62.5426C41.8283 64.1095 41.9735 65.8287 41.8724 66.7629C41.7962 67.4584 41.5961 67.5497 41.406 67.6261C40.5368 67.943 39.6274 68.2228 38.5326 66.1492" fill="#F8EEDE"/>
<path d="M41.5395 67.8496C40.314 64.7513 39.8393 60.9286 39.5878 57.2271C39.3362 53.5255 39.273 49.7807 38.7261 46.1479C39.8535 46.5381 41.0177 46.92 42.1078 46.463C42.9271 46.1153 43.7436 45.2912 44.5793 45.7503C44.8837 45.9227 47.4791 45.4396 47.7812 45.6399C48.3783 46.0405 46.7021 46.7234 47.3116 46.5852C48.7086 46.273 53.9575 46.9024 55.3545 46.5905C56.1038 52.2847 53.8672 60.296 53.5161 65.9713C53.42 67.5492 52.2607 68.4635 50.6455 67.0968C50.1481 67.8027 49.4654 67.9028 48.8194 67.9875C45.8804 68.3421 42.8236 68.6607 40.0083 66.6079" fill="#F8EEDE"/>
<path d="M30.1914 34.1161C31.3035 41.4491 31.9595 48.8636 32.7657 56.2335C33.1663 59.909 33.5614 63.5846 34.0016 67.2553C34.1543 68.5199 34.1148 70.143 34.8552 71.218C35.5218 72.1851 36.5363 72.5038 37.6509 72.5327C42.997 72.6645 48.3511 72.6303 53.6972 72.6804C54.3218 72.6855 54.9541 72.7226 55.5785 72.6987C57.2939 72.633 58.3848 71.4736 58.6535 69.8373C59.1647 66.6886 59.5283 63.5109 59.9393 60.349C60.4794 56.1964 61.0037 52.0414 61.5229 47.8861C61.7864 45.7571 62.2001 43.5859 62.3028 41.4412C62.3476 40.4951 60.8774 40.4978 60.8298 41.4412C60.7534 43.0142 60.4558 44.6057 60.2633 46.1681C59.8497 49.5119 59.4307 52.8555 59.004 56.1964C58.5638 59.6351 58.1213 63.0736 57.6522 66.5094C57.4968 67.6504 57.5705 69.5713 56.9065 70.5461C56.3558 71.3549 55.4205 71.2259 54.5905 71.218C49.3576 71.1706 44.1247 71.1231 38.8919 71.073C38.3806 71.0679 37.8248 71.1257 37.3162 71.06C35.5008 70.82 35.6457 68.67 35.4746 67.2553C35.066 63.8614 34.6998 60.4598 34.3283 57.0608C33.4799 49.2826 32.7842 41.4595 31.6116 33.7236C31.4694 32.7935 30.0492 33.1888 30.1914 34.1161Z" fill="#E0B370"/>
<path d="M57.385 18.5388C57.3799 18.552 57.4115 18.5151 57.2665 18.6811C57.1084 18.8629 56.9424 19.0395 56.7817 19.2212C56.2599 19.8035 55.7436 20.3911 55.2456 20.9919C53.8598 22.665 52.5685 24.4331 51.5067 26.3328C49.2196 30.4249 47.9497 35.5207 50.8955 39.6443C53.3274 43.0486 57.7461 43.7232 61.4771 42.2159C63.0132 41.5968 64.4913 40.635 65.4504 39.2569C66.7153 37.4362 66.6731 34.8514 66.3489 32.7566C65.4979 27.2972 62.0199 22.5254 58.5523 18.3912C57.9384 17.6587 56.8923 18.7127 57.5036 19.4399C60.2361 22.6994 62.8446 26.2617 64.2174 30.3299C64.9657 32.5458 65.4743 35.2467 64.6864 37.5312C64.228 38.8644 62.979 39.8154 61.7775 40.4505C58.5181 42.1738 54.1942 41.8945 52.0073 38.6457C49.4569 34.8567 50.9138 30.2957 53.0192 26.678C54.0889 24.8441 55.3588 23.134 56.7343 21.5189C57.3113 20.8416 58.2757 20.1039 58.6656 19.2871C59.0768 18.4308 57.7961 17.6772 57.385 18.5388Z" fill="#E0B370"/>
<path d="M53.698 32.0951C53.0841 34.1081 53.7322 36.3347 55.3738 37.6678C56.1089 38.2633 57.1654 37.2201 56.4225 36.6192C55.1656 35.6021 54.6544 34.0476 55.1286 32.4905C55.408 31.5735 53.9746 31.1808 53.698 32.0951Z" fill="#E0B370"/>
<path d="M32.1182 47.3068L34.6703 45.8599C36.2435 44.9681 38.195 45.0885 39.6466 46.1669C41.0022 47.1739 42.8027 47.3508 44.3282 46.6271L45.0468 46.2862C46.8261 45.442 48.9094 45.5428 50.599 46.5547L50.9397 46.7587C52.6785 47.8 54.7979 47.9893 56.6939 47.2727L61.0958 45.6086" stroke="#E0B370" stroke-width="1.57552"/>
<path d="M39.0728 46.1765L40.4034 59.6079" stroke="#E0B370" stroke-width="1.57552" stroke-linecap="round" stroke-linejoin="round"/>
</g>
<defs>
<clipPath id="clip0_1302_12231">
<rect width="94.7205" height="94.7205" fill="white" transform="translate(0.0373535 0.476807)"/>
</clipPath>
</defs>
</svg>
