<svg width="259" height="61" viewBox="0 0 259 61" fill="none" xmlns="http://www.w3.org/2000/svg">
<path opacity="0.5" fill-rule="evenodd" clip-rule="evenodd" d="M23.8432 30.2465C23.8432 16.3244 13.7822 4.61577 0.142853 1.23453C2.73297 0.593055 5.45282 0.25 8.25754 0.25C25.8294 0.25 40.0726 13.681 40.0726 30.2465C40.0726 46.812 25.8294 60.2429 8.25754 60.2429C5.45282 60.2429 2.73297 59.8999 0.142853 59.2584C13.7847 55.8772 23.8432 44.1685 23.8432 30.2465ZM227.185 60.25C209.613 60.25 195.37 46.819 195.37 30.2535C195.37 13.688 209.613 0.257054 227.185 0.257054C244.757 0.257054 259 13.6857 259 30.2512C259 46.8167 244.757 60.25 227.185 60.25ZM136.281 1.80316C126.367 5.80003 119.228 17.0199 119.228 30.2394C119.228 43.4401 126.35 54.6506 136.244 58.6592C137.352 59.6884 139.473 60.2453 143.054 60.2453C144.114 60.2453 145.162 60.1959 146.195 60.0996C146.991 60.0268 147.777 59.9257 148.556 59.7988L148.608 59.7871C163.532 57.3105 174.871 45.0262 174.871 30.2465C174.871 15.6007 163.74 3.40802 149.02 0.776334L148.855 0.738741C147.151 0.445027 145.397 0.278197 143.607 0.25L143.54 0.252348C143.38 0.249999 143.218 0.25 143.056 0.25C139.513 0.25235 137.399 0.797482 136.281 1.80316ZM96.334 30.2512C96.334 13.9441 82.5326 0.6753 65.34 0.2641V60.2382C82.5326 59.827 96.334 46.5606 96.334 30.2512Z" fill="url(#paint0_linear_1878_20)"/>
<defs>
<linearGradient id="paint0_linear_1878_20" x1="259" y1="30.9602" x2="0.325257" y2="30.0708" gradientUnits="userSpaceOnUse">
<stop stop-color="#4F6FC1"/>
<stop offset="1" stop-color="#F0C9D1"/>
</linearGradient>
</defs>
</svg>
