<svg width="259" height="61" viewBox="0 0 259 61" fill="none" xmlns="http://www.w3.org/2000/svg">
<path opacity="0.5" fill-rule="evenodd" clip-rule="evenodd" d="M235.157 30.2465C235.157 16.3244 245.218 4.61577 258.857 1.23453C256.267 0.593055 253.547 0.25 250.742 0.25C233.171 0.25 218.927 13.681 218.927 30.2465C218.927 46.812 233.171 60.2429 250.742 60.2429C253.547 60.2429 256.267 59.8999 258.857 59.2584C245.215 55.8772 235.157 44.1685 235.157 30.2465ZM31.815 60.25C49.3869 60.25 63.6301 46.819 63.6301 30.2535C63.6301 13.688 49.3869 0.257054 31.815 0.257054C14.2432 0.257054 0 13.6857 0 30.2512C0 46.8167 14.2432 60.25 31.815 60.25ZM122.719 1.80316C132.633 5.80003 139.772 17.0199 139.772 30.2394C139.772 43.4401 132.65 54.6506 122.756 58.6592C121.648 59.6884 119.527 60.2453 115.946 60.2453C114.886 60.2453 113.838 60.1959 112.805 60.0996C112.009 60.0268 111.223 59.9257 110.444 59.7988L110.392 59.7871C95.4676 57.3105 84.129 45.0262 84.129 30.2465C84.129 15.6007 95.2605 3.40802 109.98 0.776334L110.145 0.738741C111.849 0.445027 113.603 0.278197 115.393 0.25L115.46 0.252348C115.62 0.249999 115.782 0.25 115.944 0.25C119.487 0.25235 121.601 0.797482 122.719 1.80316ZM162.666 30.2512C162.666 13.9441 176.467 0.6753 193.66 0.2641V60.2382C176.467 59.827 162.666 46.5606 162.666 30.2512Z" fill="url(#paint0_linear_1878_18)"/>
<defs>
<linearGradient id="paint0_linear_1878_18" x1="8.49348e-10" y1="30.9602" x2="258.675" y2="30.0708" gradientUnits="userSpaceOnUse">
<stop stop-color="#4F6FC1"/>
<stop offset="1" stop-color="#F0C9D1"/>
</linearGradient>
</defs>
</svg>
