<svg width="34" height="34" viewBox="0 0 34 34" fill="none" xmlns="http://www.w3.org/2000/svg">
<path fill-rule="evenodd" clip-rule="evenodd" d="M30.4867 17.1487V16.9997V16.8512C24.5147 16.6705 21.7838 16.5216 19.6057 14.3945C17.4789 12.2172 17.3293 9.48685 17.1491 3.51562H17H16.8509C16.6707 9.48685 16.5211 12.2172 14.3943 14.3945C12.2162 16.5216 9.48522 16.6705 3.5133 16.8512V16.9997V17.1487C9.48522 17.3294 12.2162 17.4784 14.3943 19.6049C16.5211 21.7827 16.6707 24.5131 16.8509 30.4843H17H17.1491C17.3293 24.5131 17.4789 21.7827 19.6057 19.6049C21.7838 17.4784 24.5147 17.3294 30.4867 17.1487Z" fill="white"/>
</svg>
