<svg width="93" height="22" viewBox="0 0 93 22" fill="none" xmlns="http://www.w3.org/2000/svg">
<path fill-rule="evenodd" clip-rule="evenodd" d="M84.4851 10.7187C84.4851 5.84601 88.0998 1.74799 93 0.564555C92.0694 0.34004 91.0923 0.219971 90.0846 0.219971C83.7715 0.219971 78.6544 4.92081 78.6544 10.7187C78.6544 16.5167 83.7715 21.2175 90.0846 21.2175C91.0923 21.2175 92.0694 21.0974 93 20.8729C88.0989 19.6895 84.4851 15.5915 84.4851 10.7187ZM11.4302 21.22C17.7433 21.22 22.8605 16.5191 22.8605 10.7212C22.8605 4.92328 17.7433 0.22244 11.4302 0.22244C5.11716 0.22244 0 4.92246 0 10.7204C0 16.5183 5.11716 21.22 11.4302 21.22ZM44.0893 0.763577C47.6511 2.16248 50.216 6.08944 50.216 10.7163C50.216 15.3365 47.6574 19.2602 44.1028 20.6632C43.7048 21.0234 42.9427 21.2183 41.6563 21.2183C41.2753 21.2183 40.8987 21.2011 40.5276 21.1673C40.2416 21.1418 39.9592 21.1065 39.6795 21.0621L39.6607 21.058C34.2988 20.1911 30.2251 15.8916 30.2251 10.7187C30.2251 5.59271 34.2244 1.32528 39.5128 0.404188L39.5719 0.39103C40.1842 0.28823 40.8145 0.22984 41.4572 0.219971L41.4815 0.220793C41.5388 0.21997 41.5971 0.219971 41.6554 0.219971C42.9284 0.220793 43.6877 0.411589 44.0893 0.763577ZM58.4412 10.7204C58.4412 5.01292 63.3997 0.368826 69.5765 0.224906V21.2159C63.3997 21.0719 58.4412 16.4287 58.4412 10.7204Z" fill="url(#paint0_linear_1799_535)"/>
<defs>
<linearGradient id="paint0_linear_1799_535" x1="0" y1="21.22" x2="9.02376" y2="-18.7424" gradientUnits="userSpaceOnUse">
<stop stop-color="#4E79C0"/>
<stop offset="1" stop-color="#F0C9D1"/>
</linearGradient>
</defs>
</svg>
