<svg width="356" height="45" viewbox="0 0 356 45" fill="none" xmlns="http://www.w3.org/2000/svg">
<path d="M296.289 11.9082C289.328 11.9082 284.993 16.4618 284.993 23.8175C284.993 30.823 289.897 35.7049 296.946 35.7049C300.296 35.7049 303.514 34.2819 305.353 32.0052L305.572 31.7206C305.747 31.5016 305.725 31.1733 305.528 30.9543L304.718 30.1224C304.608 30.013 304.455 29.9473 304.302 29.9473C304.149 29.9473 303.996 30.0349 303.886 30.1443L303.623 30.4508C302.113 32.1803 299.573 33.2749 296.99 33.2749C291.342 33.2749 287.817 29.9254 287.467 24.2554H306.031C306.338 24.2554 306.601 23.9926 306.601 23.6862V23.2921C306.601 23.117 306.601 22.9637 306.623 22.7886C306.644 22.5916 306.644 22.4164 306.644 22.1975C306.579 16.1553 302.332 11.9082 296.289 11.9082ZM287.467 21.9129C288.124 17.1185 291.32 14.2944 296.071 14.2944C298.501 14.2944 300.537 15.0607 301.96 16.5274C303.273 17.8629 304.017 19.7018 304.149 21.9129H287.467Z" fill="#4F78BB"/>
<path d="M344.059 11.9082C341.432 11.9082 338.608 12.8496 336.528 14.382V12.8496C336.528 12.5431 336.265 12.2804 335.959 12.2804H334.711C334.404 12.2804 334.142 12.5431 334.142 12.8496V44.1553C334.142 44.4618 334.404 44.7245 334.711 44.7245H335.959C336.265 44.7245 336.528 44.4618 336.528 44.1553V34.1506C338.476 35.1576 340.906 35.7049 343.49 35.7049C350.342 35.7049 355.114 30.6697 355.114 23.4672C355.092 16.4399 350.758 11.9082 344.059 11.9082ZM352.728 23.5986C352.706 29.3124 348.941 33.2968 343.533 33.2968C340.819 33.2968 338.52 32.64 336.528 31.2608V17.5345C337.863 15.9145 340.994 14.2726 344.059 14.2726C349.4 14.2944 352.728 17.8629 352.728 23.5986Z" fill="#4F78BB"/>
<path d="M320.262 11.9082C313.3 11.9082 308.966 16.4618 308.966 23.8175C308.966 30.823 313.87 35.7049 320.919 35.7049C324.247 35.7049 327.465 34.2819 329.325 32.0052L329.544 31.7206C329.72 31.5016 329.698 31.1733 329.501 30.9543L328.669 30.1224C328.559 30.013 328.384 29.9254 328.253 29.9473C328.1 29.9473 327.946 30.0349 327.837 30.1443L327.574 30.4508C326.064 32.1803 323.524 33.2749 320.941 33.2749C315.293 33.2749 311.768 29.9254 311.418 24.2554H329.982C330.289 24.2554 330.551 23.9926 330.551 23.6862V23.2921C330.551 23.1389 330.551 22.9856 330.573 22.8105C330.595 22.6134 330.595 22.4164 330.595 22.1975C330.595 19.2421 329.566 16.5931 327.705 14.7323C325.823 12.9152 323.196 11.9082 320.262 11.9082ZM311.483 21.9129C312.14 17.1185 315.315 14.2944 320.087 14.2944C322.517 14.2944 324.553 15.0607 325.976 16.5274C327.268 17.841 328.034 19.7018 328.165 21.9129H311.483Z" fill="#4F78BB"/>
<path d="M284.886 32.0269C284.799 31.8956 284.667 31.808 284.514 31.7861C284.361 31.7642 284.208 31.7861 284.076 31.8956L283.748 32.1364C283.157 32.5961 281.997 33.0777 280.858 33.0777C279.019 33.0777 278.012 32.3334 278.012 28.4366V1.09337C278.012 0.786876 277.75 0.52417 277.443 0.52417H276.195C275.889 0.52417 275.626 0.786876 275.626 1.09337V29.1372C275.626 33.3842 277.334 35.4421 280.858 35.4421C282.369 35.4421 283.989 34.9386 285.171 34.0848L285.477 33.8659C285.74 33.6907 285.784 33.3404 285.631 33.0777L284.886 32.0269Z" fill="#4F78BB"/>
<path d="M265.641 22.5915C265.619 22.5696 265.576 22.5696 265.554 22.5477C262.664 21.6063 260.168 20.7963 260.168 17.8409C260.168 15.8268 262.161 14.2944 264.788 14.2944C266.758 14.2944 268.422 14.9073 269.494 16.0019L269.801 16.3084C269.91 16.4179 270.042 16.4836 270.217 16.4836C270.37 16.4836 270.523 16.4179 270.633 16.2865L271.465 15.3233C271.662 15.1044 271.64 14.776 271.465 14.5571L271.246 14.3163C269.954 12.8495 267.415 11.8862 264.897 11.8862C260.65 11.8862 257.782 14.2944 257.782 17.8847C257.782 22.5696 261.657 23.8174 264.766 24.8464C267.94 25.8753 269.91 26.6415 269.91 29.1591C269.91 32.027 267.218 33.3186 264.547 33.3186C262.795 33.3186 260.322 32.5086 259.358 31.1951L259.139 30.8886C258.964 30.6259 258.614 30.5602 258.351 30.7353L257.3 31.4359C257.169 31.5235 257.082 31.6548 257.06 31.8081C257.038 31.9613 257.06 32.1145 257.147 32.2459L257.366 32.5524C258.592 34.4351 262.095 35.7048 264.591 35.7048C269.275 35.7048 272.318 33.1216 272.318 29.1153C272.275 24.7369 268.706 23.5766 265.641 22.5915Z" fill="#4F78BB"/>
<path d="M155.595 11.9082C148.633 11.9082 144.299 16.4618 144.299 23.7956C144.299 30.8011 149.203 35.683 156.252 35.683C159.601 35.683 162.82 34.26 164.658 31.9833L164.877 31.6987C165.053 31.4797 165.031 31.1514 164.834 30.9324L164.024 30.1224C163.914 30.013 163.761 29.9254 163.608 29.9473C163.454 29.9473 163.301 30.0349 163.192 30.1443L162.929 30.4727C161.418 32.2022 158.879 33.2968 156.296 33.2968C150.648 33.2968 147.123 29.9473 146.773 24.2772H165.315C165.622 24.2772 165.884 24.0145 165.884 23.708V23.314C165.884 23.1607 165.884 23.0075 165.906 22.8324C165.928 22.6353 165.928 22.4383 165.928 22.2194C165.884 16.1553 161.659 11.9082 155.595 11.9082ZM146.795 21.9129C147.451 17.1185 150.648 14.2944 155.398 14.2944C157.828 14.2944 159.864 15.0607 161.287 16.5274C162.601 17.8629 163.345 19.7237 163.476 21.9129H146.795Z" fill="#4F78BB"/>
<path d="M131.406 11.9084C128.888 11.9084 125.998 12.9154 123.875 14.5136V1.11558C123.875 0.809092 123.612 0.546387 123.306 0.546387H122.036C121.73 0.546387 121.467 0.809092 121.467 1.11558V32.3118C121.467 32.487 121.532 32.6402 121.664 32.7497L121.795 32.8591C124.028 34.7856 126.83 35.727 130.355 35.727C137.579 35.727 142.439 30.8232 142.439 23.4893C142.461 16.4619 138.127 11.9084 131.406 11.9084ZM123.875 17.7098C125.232 16.046 128.428 14.3165 131.406 14.3165C136.747 14.3165 140.053 17.8849 140.053 23.6426C140.053 26.4666 139.134 28.8748 137.36 30.648C135.609 32.3994 133.201 33.3408 130.399 33.3408C128.56 33.3408 126.371 33.1218 123.853 31.458V17.7098H123.875Z" fill="#4F78BB"/>
<path d="M208.336 12.2803H207.088C206.781 12.2803 206.519 12.543 206.519 12.8495V29.4875C205.249 31.0856 202.009 33.3186 198.703 33.3186C193.69 33.3186 191.544 30.801 191.544 24.9339V12.8495C191.544 12.543 191.282 12.2803 190.975 12.2803H189.727C189.421 12.2803 189.158 12.543 189.158 12.8495V25.0653C189.158 32.224 192.245 35.7048 198.616 35.7048C201.702 35.7048 204.614 34.2381 206.541 32.7275V34.7635C206.541 35.07 206.803 35.3327 207.11 35.3327H208.358C208.664 35.3327 208.927 35.07 208.927 34.7635V12.8714C208.927 12.543 208.664 12.2803 208.336 12.2803Z" fill="#4F78BB"/>
<path d="M238.13 34.7417L247.04 13.0685C247.106 12.8934 247.084 12.6964 246.997 12.5431C246.887 12.3899 246.712 12.2804 246.515 12.2804H245.136C244.895 12.2804 244.698 12.4118 244.61 12.6307L236.904 31.5893L227.206 12.5869C227.118 12.3899 226.921 12.2804 226.703 12.2804H225.301C225.28 12.2804 225.28 12.2804 225.258 12.2804H215.384V6.98252C215.384 6.67604 215.122 6.41333 214.815 6.41333H213.567C213.261 6.41333 212.998 6.67604 212.998 6.98252V26.3351C212.998 32.4212 215.538 35.5079 220.573 35.5079C222.083 35.5079 223.703 35.0044 224.885 34.1506L225.192 33.9317C225.455 33.7566 225.52 33.4063 225.345 33.1436L224.623 32.049C224.535 31.9176 224.404 31.8301 224.229 31.8082C224.075 31.7863 223.9 31.8301 223.791 31.9176L223.484 32.1585C222.871 32.6182 221.733 33.0998 220.595 33.0998C216.917 33.0998 215.406 31.0201 215.406 25.8973V14.6885H225.608L235.744 34.4133L235.437 35.1358C233.292 40.3461 231.584 42.3821 229.373 42.3821C228.76 42.3821 228.038 42.185 227.031 41.7472L226.681 41.594C226.396 41.4626 226.068 41.594 225.936 41.8785L225.433 43.0169C225.367 43.1483 225.367 43.3234 225.411 43.4548C225.477 43.608 225.586 43.7175 225.717 43.7832L226.09 43.9364C227.294 44.4618 228.41 44.7245 229.483 44.7245C232.876 44.7245 235.087 42.2069 238.13 34.7417Z" fill="#4F78BB"/>
<path d="M176.308 11.9082C173.878 11.9082 171.842 12.5212 169.5 13.988L169.171 14.185C169.04 14.2726 168.952 14.382 168.909 14.5353C168.865 14.6885 168.909 14.8417 168.974 14.9731L169.609 16.002C169.762 16.2647 170.113 16.3523 170.375 16.1991L170.704 16.002C172.608 14.8636 173.922 14.3163 176.177 14.3163C181.409 14.3163 182.175 16.7245 182.241 22.5697C180.052 21.5626 177.709 21.3875 176.418 21.3875C170.966 21.3875 167.42 24.2554 167.42 28.6776C167.42 32.7714 170.441 35.5079 174.951 35.5079C177.884 35.5079 180.292 34.6541 182.241 32.8808V34.7417C182.241 35.0482 182.504 35.3109 182.81 35.3109H184.058C184.364 35.3109 184.627 35.0482 184.627 34.7417V21.1467C184.693 14.9293 181.956 11.9082 176.308 11.9082ZM182.307 25.35V29.3124C180.884 31.217 178.891 33.1217 174.973 33.1217C171.93 33.1217 169.872 31.3265 169.872 28.6338C169.872 27.4297 170.266 26.4008 171.076 25.5908C172.236 24.4305 174.163 23.7737 176.374 23.7737C178.651 23.7737 180.643 24.321 182.307 25.35Z" fill="#4F78BB"/>
<path d="M296.29 11.9084C289.328 11.9084 284.993 16.462 284.993 23.8178C284.993 30.8232 289.897 35.7052 296.946 35.7052C300.296 35.7052 303.514 34.2822 305.353 32.0054L305.572 31.7208C305.747 31.5019 305.725 31.1735 305.528 30.9546L304.718 30.1227C304.609 30.0132 304.455 29.9475 304.302 29.9475C304.149 29.9475 303.996 30.0351 303.886 30.1446L303.623 30.4511C302.113 32.1805 299.573 33.2752 296.99 33.2752C291.342 33.2752 287.817 29.9257 287.467 24.2556H306.032C306.338 24.2556 306.601 23.9929 306.601 23.6864V23.2923C306.601 23.1172 306.601 22.964 306.623 22.7888C306.645 22.5918 306.645 22.4167 306.645 22.1977C306.579 16.1555 302.332 11.9084 296.29 11.9084ZM287.467 21.9131C288.124 17.1188 291.32 14.2947 296.071 14.2947C298.501 14.2947 300.537 15.0609 301.96 16.5277C303.273 17.8631 304.017 19.702 304.149 21.9131H287.467Z" fill="#4F6FC1"/>
<path d="M344.059 11.9084C341.432 11.9084 338.608 12.8498 336.528 14.3823V12.8498C336.528 12.5433 336.265 12.2806 335.959 12.2806H334.711C334.404 12.2806 334.142 12.5433 334.142 12.8498V44.1555C334.142 44.462 334.404 44.7247 334.711 44.7247H335.959C336.265 44.7247 336.528 44.462 336.528 44.1555V34.1508C338.476 35.1579 340.906 35.7052 343.49 35.7052C350.342 35.7052 355.114 30.67 355.114 23.4675C355.092 16.4401 350.758 11.9084 344.059 11.9084ZM352.728 23.5988C352.706 29.3127 348.941 33.297 343.533 33.297C340.819 33.297 338.52 32.6403 336.528 31.2611V17.5347C337.863 15.9147 340.994 14.2728 344.059 14.2728C349.4 14.2947 352.728 17.8631 352.728 23.5988Z" fill="#4F6FC1"/>
<path d="M320.262 11.9084C313.301 11.9084 308.966 16.462 308.966 23.8178C308.966 30.8232 313.87 35.7052 320.919 35.7052C324.247 35.7052 327.465 34.2822 329.326 32.0054L329.544 31.7208C329.72 31.5019 329.698 31.1735 329.501 30.9546L328.669 30.1227C328.559 30.0132 328.384 29.9257 328.253 29.9475C328.1 29.9475 327.946 30.0351 327.837 30.1446L327.574 30.4511C326.064 32.1805 323.524 33.2752 320.941 33.2752C315.293 33.2752 311.768 29.9257 311.418 24.2556H329.982C330.289 24.2556 330.551 23.9929 330.551 23.6864V23.2923C330.551 23.1391 330.551 22.9859 330.573 22.8107C330.595 22.6137 330.595 22.4167 330.595 22.1977C330.595 19.2423 329.566 16.5934 327.706 14.7325C325.823 12.9155 323.196 11.9084 320.262 11.9084ZM311.483 21.9131C312.14 17.1188 315.315 14.2947 320.087 14.2947C322.517 14.2947 324.553 15.0609 325.976 16.5277C327.268 17.8412 328.034 19.702 328.165 21.9131H311.483Z" fill="#4F6FC1"/>
<path d="M284.886 32.0272C284.799 31.8958 284.667 31.8082 284.514 31.7864C284.361 31.7645 284.208 31.7863 284.076 31.8958L283.748 32.1366C283.157 32.5964 281.997 33.078 280.858 33.078C279.019 33.078 278.012 32.3337 278.012 28.4369V1.09361C278.012 0.78712 277.75 0.524414 277.443 0.524414H276.195C275.889 0.524414 275.626 0.78712 275.626 1.09361V29.1374C275.626 33.3845 277.334 35.4423 280.858 35.4423C282.369 35.4423 283.989 34.9388 285.171 34.085L285.477 33.8661C285.74 33.691 285.784 33.3407 285.631 33.078L284.886 32.0272Z" fill="#4F6FC1"/>
<path d="M265.641 22.5917C265.62 22.5698 265.576 22.5698 265.554 22.5479C262.664 21.6066 260.168 20.7966 260.168 17.8411C260.168 15.8271 262.161 14.2946 264.788 14.2946C266.758 14.2946 268.422 14.9076 269.494 16.0022L269.801 16.3087C269.91 16.4181 270.042 16.4838 270.217 16.4838C270.37 16.4838 270.523 16.4181 270.633 16.2868L271.465 15.3235C271.662 15.1046 271.64 14.7762 271.465 14.5573L271.246 14.3165C269.954 12.8497 267.415 11.8865 264.897 11.8865C260.65 11.8865 257.782 14.2946 257.782 17.8849C257.782 22.5698 261.657 23.8177 264.766 24.8466C267.94 25.8755 269.91 26.6418 269.91 29.1594C269.91 32.0272 267.218 33.3189 264.547 33.3189C262.795 33.3189 260.322 32.5088 259.358 31.1953L259.139 30.8888C258.964 30.6261 258.614 30.5604 258.351 30.7356L257.301 31.4361C257.169 31.5237 257.082 31.6551 257.06 31.8083C257.038 31.9615 257.06 32.1148 257.147 32.2461L257.366 32.5526C258.592 34.4354 262.095 35.7051 264.591 35.7051C269.275 35.7051 272.319 33.1218 272.319 29.1156C272.275 24.7371 268.706 23.5769 265.641 22.5917Z" fill="#4F6FC1"/>
<path d="M155.595 11.9083C148.633 11.9083 144.299 16.4619 144.299 23.7958C144.299 30.8012 149.203 35.6832 156.252 35.6832C159.601 35.6832 162.82 34.2602 164.658 31.9834L164.877 31.6988C165.053 31.4799 165.031 31.1515 164.834 30.9326L164.024 30.1226C163.914 30.0131 163.761 29.9256 163.608 29.9474C163.454 29.9474 163.301 30.035 163.192 30.1445L162.929 30.4729C161.418 32.2023 158.879 33.2969 156.296 33.2969C150.648 33.2969 147.123 29.9474 146.773 24.2774H165.315C165.622 24.2774 165.884 24.0147 165.884 23.7082V23.3141C165.884 23.1609 165.884 23.0076 165.906 22.8325C165.928 22.6355 165.928 22.4385 165.928 22.2195C165.884 16.1554 161.659 11.9083 155.595 11.9083ZM146.795 21.913C147.451 17.1187 150.648 14.2946 155.398 14.2946C157.828 14.2946 159.864 15.0608 161.287 16.5276C162.601 17.863 163.345 19.7238 163.476 21.913H146.795Z" fill="#4F6FC1"/>
<path d="M131.406 11.9085C128.888 11.9085 125.998 12.9156 123.875 14.5137V1.11573C123.875 0.809237 123.612 0.546532 123.306 0.546532H122.036C121.73 0.546532 121.467 0.809237 121.467 1.11573V32.312C121.467 32.4871 121.532 32.6404 121.664 32.7498L121.795 32.8593C124.028 34.7858 126.83 35.7271 130.355 35.7271C137.579 35.7271 142.439 30.8233 142.439 23.4895C142.461 16.4621 138.127 11.9085 131.406 11.9085ZM123.875 17.7099C125.232 16.0461 128.428 14.3167 131.406 14.3167C136.747 14.3167 140.053 17.8851 140.053 23.6427C140.053 26.4668 139.134 28.8749 137.36 30.6482C135.609 32.3996 133.201 33.3409 130.399 33.3409C128.56 33.3409 126.371 33.122 123.853 31.4582V17.7099H123.875Z" fill="#4F6FC1"/>
<path d="M208.336 12.2804H207.088C206.781 12.2804 206.519 12.5431 206.519 12.8496V29.4876C205.249 31.0857 202.009 33.3187 198.703 33.3187C193.69 33.3187 191.544 30.8011 191.544 24.9341V12.8496C191.544 12.5431 191.282 12.2804 190.975 12.2804H189.727C189.421 12.2804 189.158 12.5431 189.158 12.8496V25.0654C189.158 32.2241 192.245 35.705 198.616 35.705C201.702 35.705 204.614 34.2382 206.541 32.7276V34.7636C206.541 35.0701 206.803 35.3328 207.11 35.3328H208.358C208.664 35.3328 208.927 35.0701 208.927 34.7636V12.8715C208.927 12.5431 208.664 12.2804 208.336 12.2804Z" fill="#4F6FC1"/>
<path d="M238.13 34.7419L247.04 13.0687C247.106 12.8935 247.084 12.6965 246.997 12.5433C246.887 12.39 246.712 12.2806 246.515 12.2806H245.136C244.895 12.2806 244.698 12.4119 244.61 12.6308L236.904 31.5894L227.206 12.5871C227.118 12.39 226.921 12.2806 226.703 12.2806H225.301C225.28 12.2806 225.28 12.2806 225.258 12.2806H215.384V6.98267C215.384 6.67618 215.122 6.41348 214.815 6.41348H213.567C213.261 6.41348 212.998 6.67618 212.998 6.98267V26.3353C212.998 32.4213 215.538 35.5081 220.573 35.5081C222.083 35.5081 223.703 35.0046 224.885 34.1508L225.192 33.9319C225.455 33.7567 225.52 33.4064 225.345 33.1437L224.623 32.0491C224.535 31.9178 224.404 31.8302 224.229 31.8083C224.075 31.7864 223.9 31.8302 223.791 31.9178L223.484 32.1586C222.871 32.6183 221.733 33.1 220.595 33.1C216.917 33.1 215.406 31.0202 215.406 25.8975V14.6887H225.608L235.744 34.4135L235.437 35.1359C233.292 40.3462 231.584 42.3822 229.373 42.3822C228.76 42.3822 228.038 42.1852 227.031 41.7473L226.681 41.5941C226.396 41.4627 226.068 41.5941 225.936 41.8787L225.433 43.0171C225.367 43.1484 225.367 43.3236 225.411 43.4549C225.477 43.6082 225.586 43.7176 225.717 43.7833L226.09 43.9366C227.294 44.462 228.41 44.7247 229.483 44.7247C232.876 44.7247 235.087 42.2071 238.13 34.7419Z" fill="#4F6FC1"/>
<path d="M176.308 11.9083C173.878 11.9083 171.842 12.5213 169.5 13.9881L169.171 14.1851C169.04 14.2727 168.952 14.3822 168.909 14.5354C168.865 14.6886 168.909 14.8419 168.974 14.9732L169.609 16.0022C169.762 16.2649 170.113 16.3524 170.375 16.1992L170.704 16.0022C172.608 14.8638 173.922 14.3165 176.177 14.3165C181.409 14.3165 182.175 16.7246 182.241 22.5698C180.052 21.5628 177.709 21.3876 176.418 21.3876C170.966 21.3876 167.42 24.2555 167.42 28.6777C167.42 32.7715 170.441 35.508 174.951 35.508C177.884 35.508 180.292 34.6543 182.241 32.881V34.7418C182.241 35.0483 182.504 35.311 182.81 35.311H184.058C184.364 35.311 184.627 35.0483 184.627 34.7418V21.1468C184.693 14.9295 181.956 11.9083 176.308 11.9083ZM182.307 25.3501V29.3126C180.884 31.2172 178.891 33.1218 174.973 33.1218C171.93 33.1218 169.872 31.3267 169.872 28.6339C169.872 27.4299 170.266 26.4009 171.076 25.5909C172.236 24.4306 174.163 23.7739 176.374 23.7739C178.651 23.7739 180.643 24.3212 182.307 25.3501Z" fill="#4F6FC1"/>
<path d="M296.29 11.9084C289.328 11.9084 284.993 16.462 284.993 23.8178C284.993 30.8232 289.897 35.7052 296.946 35.7052C300.296 35.7052 303.514 34.2822 305.353 32.0054L305.572 31.7208C305.747 31.5019 305.725 31.1735 305.528 30.9546L304.718 30.1227C304.609 30.0132 304.455 29.9475 304.302 29.9475C304.149 29.9475 303.996 30.0351 303.886 30.1446L303.623 30.4511C302.113 32.1805 299.573 33.2752 296.99 33.2752C291.342 33.2752 287.817 29.9257 287.467 24.2556H306.032C306.338 24.2556 306.601 23.9929 306.601 23.6864V23.2923C306.601 23.1172 306.601 22.964 306.623 22.7888C306.645 22.5918 306.645 22.4167 306.645 22.1977C306.579 16.1555 302.332 11.9084 296.29 11.9084ZM287.467 21.9131C288.124 17.1188 291.32 14.2947 296.071 14.2947C298.501 14.2947 300.537 15.0609 301.96 16.5277C303.273 17.8631 304.017 19.702 304.149 21.9131H287.467Z" stroke="#4F6FC1" stroke-width="0.3"/>
<path d="M344.059 11.9084C341.432 11.9084 338.608 12.8498 336.528 14.3823V12.8498C336.528 12.5433 336.265 12.2806 335.959 12.2806H334.711C334.404 12.2806 334.142 12.5433 334.142 12.8498V44.1555C334.142 44.462 334.404 44.7247 334.711 44.7247H335.959C336.265 44.7247 336.528 44.462 336.528 44.1555V34.1508C338.476 35.1579 340.906 35.7052 343.49 35.7052C350.342 35.7052 355.114 30.67 355.114 23.4675C355.092 16.4401 350.758 11.9084 344.059 11.9084ZM352.728 23.5988C352.706 29.3127 348.941 33.297 343.533 33.297C340.819 33.297 338.52 32.6403 336.528 31.2611V17.5347C337.863 15.9147 340.994 14.2728 344.059 14.2728C349.4 14.2947 352.728 17.8631 352.728 23.5988Z" stroke="#4F6FC1" stroke-width="0.3"/>
<path d="M320.262 11.9084C313.301 11.9084 308.966 16.462 308.966 23.8178C308.966 30.8232 313.87 35.7052 320.919 35.7052C324.247 35.7052 327.465 34.2822 329.326 32.0054L329.544 31.7208C329.72 31.5019 329.698 31.1735 329.501 30.9546L328.669 30.1227C328.559 30.0132 328.384 29.9257 328.253 29.9475C328.1 29.9475 327.946 30.0351 327.837 30.1446L327.574 30.4511C326.064 32.1805 323.524 33.2752 320.941 33.2752C315.293 33.2752 311.768 29.9257 311.418 24.2556H329.982C330.289 24.2556 330.551 23.9929 330.551 23.6864V23.2923C330.551 23.1391 330.551 22.9859 330.573 22.8107C330.595 22.6137 330.595 22.4167 330.595 22.1977C330.595 19.2423 329.566 16.5934 327.706 14.7325C325.823 12.9155 323.196 11.9084 320.262 11.9084ZM311.483 21.9131C312.14 17.1188 315.315 14.2947 320.087 14.2947C322.517 14.2947 324.553 15.0609 325.976 16.5277C327.268 17.8412 328.034 19.702 328.165 21.9131H311.483Z" stroke="#4F6FC1" stroke-width="0.3"/>
<path d="M284.886 32.0272C284.799 31.8958 284.667 31.8082 284.514 31.7864C284.361 31.7645 284.208 31.7863 284.076 31.8958L283.748 32.1366C283.157 32.5964 281.997 33.078 280.858 33.078C279.019 33.078 278.012 32.3337 278.012 28.4369V1.09361C278.012 0.78712 277.75 0.524414 277.443 0.524414H276.195C275.889 0.524414 275.626 0.78712 275.626 1.09361V29.1374C275.626 33.3845 277.334 35.4423 280.858 35.4423C282.369 35.4423 283.989 34.9388 285.171 34.085L285.477 33.8661C285.74 33.691 285.784 33.3407 285.631 33.078L284.886 32.0272Z" stroke="#4F6FC1" stroke-width="0.3"/>
<path d="M265.641 22.5917C265.62 22.5698 265.576 22.5698 265.554 22.5479C262.664 21.6066 260.168 20.7966 260.168 17.8411C260.168 15.8271 262.161 14.2946 264.788 14.2946C266.758 14.2946 268.422 14.9076 269.494 16.0022L269.801 16.3087C269.91 16.4181 270.042 16.4838 270.217 16.4838C270.37 16.4838 270.523 16.4181 270.633 16.2868L271.465 15.3235C271.662 15.1046 271.64 14.7762 271.465 14.5573L271.246 14.3165C269.954 12.8497 267.415 11.8865 264.897 11.8865C260.65 11.8865 257.782 14.2946 257.782 17.8849C257.782 22.5698 261.657 23.8177 264.766 24.8466C267.94 25.8755 269.91 26.6418 269.91 29.1594C269.91 32.0272 267.218 33.3189 264.547 33.3189C262.795 33.3189 260.322 32.5088 259.358 31.1953L259.139 30.8888C258.964 30.6261 258.614 30.5604 258.351 30.7356L257.301 31.4361C257.169 31.5237 257.082 31.6551 257.06 31.8083C257.038 31.9615 257.06 32.1148 257.147 32.2461L257.366 32.5526C258.592 34.4354 262.095 35.7051 264.591 35.7051C269.275 35.7051 272.319 33.1218 272.319 29.1156C272.275 24.7371 268.706 23.5769 265.641 22.5917Z" stroke="#4F6FC1" stroke-width="0.3"/>
<path d="M155.595 11.9083C148.633 11.9083 144.299 16.4619 144.299 23.7958C144.299 30.8012 149.203 35.6832 156.252 35.6832C159.601 35.6832 162.82 34.2602 164.658 31.9834L164.877 31.6988C165.053 31.4799 165.031 31.1515 164.834 30.9326L164.024 30.1226C163.914 30.0131 163.761 29.9256 163.608 29.9474C163.454 29.9474 163.301 30.035 163.192 30.1445L162.929 30.4729C161.418 32.2023 158.879 33.2969 156.296 33.2969C150.648 33.2969 147.123 29.9474 146.773 24.2774H165.315C165.622 24.2774 165.884 24.0147 165.884 23.7082V23.3141C165.884 23.1609 165.884 23.0076 165.906 22.8325C165.928 22.6355 165.928 22.4385 165.928 22.2195C165.884 16.1554 161.659 11.9083 155.595 11.9083ZM146.795 21.913C147.451 17.1187 150.648 14.2946 155.398 14.2946C157.828 14.2946 159.864 15.0608 161.287 16.5276C162.601 17.863 163.345 19.7238 163.476 21.913H146.795Z" stroke="#4F6FC1" stroke-width="0.3"/>
<path d="M131.406 11.9085C128.888 11.9085 125.998 12.9156 123.875 14.5137V1.11573C123.875 0.809237 123.612 0.546532 123.306 0.546532H122.036C121.73 0.546532 121.467 0.809237 121.467 1.11573V32.312C121.467 32.4871 121.532 32.6404 121.664 32.7498L121.795 32.8593C124.028 34.7858 126.83 35.7271 130.355 35.7271C137.579 35.7271 142.439 30.8233 142.439 23.4895C142.461 16.4621 138.127 11.9085 131.406 11.9085ZM123.875 17.7099C125.232 16.0461 128.428 14.3167 131.406 14.3167C136.747 14.3167 140.053 17.8851 140.053 23.6427C140.053 26.4668 139.134 28.8749 137.36 30.6482C135.609 32.3996 133.201 33.3409 130.399 33.3409C128.56 33.3409 126.371 33.122 123.853 31.4582V17.7099H123.875Z" stroke="#4F6FC1" stroke-width="0.3"/>
<path d="M208.336 12.2804H207.088C206.781 12.2804 206.519 12.5431 206.519 12.8496V29.4876C205.249 31.0857 202.009 33.3187 198.703 33.3187C193.69 33.3187 191.544 30.8011 191.544 24.9341V12.8496C191.544 12.5431 191.282 12.2804 190.975 12.2804H189.727C189.421 12.2804 189.158 12.5431 189.158 12.8496V25.0654C189.158 32.2241 192.245 35.705 198.616 35.705C201.702 35.705 204.614 34.2382 206.541 32.7276V34.7636C206.541 35.0701 206.803 35.3328 207.11 35.3328H208.358C208.664 35.3328 208.927 35.0701 208.927 34.7636V12.8715C208.927 12.5431 208.664 12.2804 208.336 12.2804Z" stroke="#4F6FC1" stroke-width="0.3"/>
<path d="M238.13 34.7419L247.04 13.0687C247.106 12.8935 247.084 12.6965 246.997 12.5433C246.887 12.39 246.712 12.2806 246.515 12.2806H245.136C244.895 12.2806 244.698 12.4119 244.61 12.6308L236.904 31.5894L227.206 12.5871C227.118 12.39 226.921 12.2806 226.703 12.2806H225.301C225.28 12.2806 225.28 12.2806 225.258 12.2806H215.384V6.98267C215.384 6.67618 215.122 6.41348 214.815 6.41348H213.567C213.261 6.41348 212.998 6.67618 212.998 6.98267V26.3353C212.998 32.4213 215.538 35.5081 220.573 35.5081C222.083 35.5081 223.703 35.0046 224.885 34.1508L225.192 33.9319C225.455 33.7567 225.52 33.4064 225.345 33.1437L224.623 32.0491C224.535 31.9178 224.404 31.8302 224.229 31.8083C224.075 31.7864 223.9 31.8302 223.791 31.9178L223.484 32.1586C222.871 32.6183 221.733 33.1 220.595 33.1C216.917 33.1 215.406 31.0202 215.406 25.8975V14.6887H225.608L235.744 34.4135L235.437 35.1359C233.292 40.3462 231.584 42.3822 229.373 42.3822C228.76 42.3822 228.038 42.1852 227.031 41.7473L226.681 41.5941C226.396 41.4627 226.068 41.5941 225.936 41.8787L225.433 43.0171C225.367 43.1484 225.367 43.3236 225.411 43.4549C225.477 43.6082 225.586 43.7176 225.717 43.7833L226.09 43.9366C227.294 44.462 228.41 44.7247 229.483 44.7247C232.876 44.7247 235.087 42.2071 238.13 34.7419Z" stroke="#4F6FC1" stroke-width="0.3"/>
<path d="M176.308 11.9083C173.878 11.9083 171.842 12.5213 169.5 13.9881L169.171 14.1851C169.04 14.2727 168.952 14.3822 168.909 14.5354C168.865 14.6886 168.909 14.8419 168.974 14.9732L169.609 16.0022C169.762 16.2649 170.113 16.3524 170.375 16.1992L170.704 16.0022C172.608 14.8638 173.922 14.3165 176.177 14.3165C181.409 14.3165 182.175 16.7246 182.241 22.5698C180.052 21.5628 177.709 21.3876 176.418 21.3876C170.966 21.3876 167.42 24.2555 167.42 28.6777C167.42 32.7715 170.441 35.508 174.951 35.508C177.884 35.508 180.292 34.6543 182.241 32.881V34.7418C182.241 35.0483 182.504 35.311 182.81 35.311H184.058C184.364 35.311 184.627 35.0483 184.627 34.7418V21.1468C184.693 14.9295 181.956 11.9083 176.308 11.9083ZM182.307 25.3501V29.3126C180.884 31.2172 178.891 33.1218 174.973 33.1218C171.93 33.1218 169.872 31.3267 169.872 28.6339C169.872 27.4299 170.266 26.4009 171.076 25.5909C172.236 24.4306 174.163 23.7739 176.374 23.7739C178.651 23.7739 180.643 24.3212 182.307 25.3501Z" stroke="#4F6FC1" stroke-width="0.3"/>
<path fill-rule="evenodd" clip-rule="evenodd" d="M99.9364 9.96948C101.051 9.96948 102.132 10.1136 103.162 10.3843C97.7369 11.8112 93.7356 16.7498 93.7356 22.6229C93.7356 28.4967 97.7377 33.4358 103.164 34.862C102.133 35.133 101.052 35.2773 99.9364 35.2773C92.9478 35.2773 87.2825 29.612 87.2825 22.6234C87.2825 15.6348 92.9478 9.96948 99.9364 9.96948ZM12.8629 35.2809C19.8515 35.2809 25.5168 29.6155 25.5168 22.627C25.5168 15.6384 19.8515 9.97304 12.8629 9.97304C5.87433 9.97304 0.208984 15.6384 0.208984 22.627C0.208984 29.6155 5.87433 35.2809 12.8629 35.2809ZM49.016 10.6235C52.9618 12.3074 55.8042 17.0427 55.8042 22.6211C55.8042 28.1953 52.966 32.9277 49.0248 34.6149C48.5822 35.0444 47.7398 35.2773 46.323 35.2773C45.7671 35.2773 45.2196 35.2415 44.6826 35.1719C44.4882 35.1468 44.2951 35.1173 44.1035 35.0834L44.1004 35.0828C38.1717 34.0323 33.6691 28.8537 33.6691 22.6234C33.6691 16.4265 38.1235 11.2701 44.0051 10.1813L44.0234 10.177C44.6958 10.0537 45.3868 9.98358 46.0919 9.97111L46.1007 9.9714C46.1747 9.97012 46.2487 9.96948 46.323 9.96948C47.7306 9.96948 48.5712 10.1993 49.016 10.6235ZM64.9035 22.6259C64.9035 15.7476 70.3915 10.151 77.2277 9.97619V35.2756C70.3915 35.1007 64.9035 29.5042 64.9035 22.6259Z" fill="url(#paint0_linear)"/>
<defs>
<linearGradient id="paint0_linear" x1="23.4868" y1="66.0725" x2="116.126" y2="78.7735" gradientUnits="userSpaceOnUse">
<stop stop-color="#F0C9D1"/>
<stop offset="0.75864" stop-color="#4E79C0"/>
</linearGradient>
</defs>
</svg>
