<svg width="96" height="96" viewBox="0 0 96 96" fill="none" xmlns="http://www.w3.org/2000/svg">
<g clip-path="url(#clip0_1302_12241)">
<mask id="mask0_1302_12241" style="mask-type:luminance" maskUnits="userSpaceOnUse" x="0" y="0" width="96" height="96">
<path d="M95.4809 0.665771H0.949463V95.1972H95.4809V0.665771Z" fill="white"/>
</mask>
<g mask="url(#mask0_1302_12241)">
<path d="M47.9405 94.5874C73.5006 94.5874 94.2215 73.8667 94.2215 48.3063C94.2215 22.7462 73.5006 2.02539 47.9405 2.02539C22.3801 2.02539 1.65942 22.7462 1.65942 48.3063C1.65942 73.8667 22.3801 94.5874 47.9405 94.5874Z" stroke="#E0B370" stroke-width="1.19661" stroke-miterlimit="10"/>
<path d="M30.4559 42.418C30.3523 45.4844 30.6308 48.5085 31.2815 51.5036C31.4532 52.2969 32.6738 51.9602 32.4991 51.1669C31.8709 48.2754 31.6151 45.3712 31.7187 42.418C31.7478 41.6054 30.4818 41.6054 30.4559 42.418Z" fill="#E0B370"/>
<path d="M33.6203 57.4094C36.2624 59.9156 39.0178 62.4929 42.4338 63.895C44.0268 64.549 45.811 65.051 47.5173 64.5588C49.1298 64.0892 50.6938 63.0726 52.0698 62.1303C54.9613 60.152 57.4545 57.5389 58.8825 54.3075C60.456 50.7523 60.6859 46.8087 60.8996 42.9813C60.9449 42.1687 59.6822 42.1719 59.6368 42.9813C59.4491 46.3617 59.2742 49.849 58.0406 53.0415C56.823 56.1953 54.5728 58.779 51.8497 60.7413C50.6872 61.5766 49.4374 62.344 48.139 62.9431C46.2028 63.8398 44.3053 63.3736 42.437 62.5221C39.3935 61.133 36.9132 58.7856 34.514 56.5093C33.9247 55.9589 33.031 56.8492 33.6203 57.4094Z" fill="#E0B370"/>
<path d="M43.3251 50.0231C44.3646 50.6708 45.6759 50.6741 46.7184 50.0362C47.4113 49.6119 46.7768 48.5176 46.0805 48.9449C45.4038 49.3593 44.6332 49.3531 43.963 48.932C43.2733 48.5014 42.6354 49.5926 43.3251 50.0231Z" fill="#E0B370"/>
<path d="M39.5625 55.0425C43.1501 56.4511 46.9998 56.5579 50.4969 54.8321C51.2254 54.4727 50.5875 53.3814 49.859 53.7408C46.6599 55.321 43.1532 55.1008 39.8992 53.8252C39.1416 53.5272 38.8146 54.7478 39.5625 55.0425Z" fill="#E0B370"/>
<path d="M54.3129 59.1027C53.9954 61.719 53.6878 64.3675 54.0214 67C54.3161 69.3312 55.2873 71.2481 56.2684 73.3461C56.6117 74.0812 57.7028 73.4401 57.3596 72.7084C56.2912 70.4257 55.3327 68.4084 55.1741 65.8441C55.0347 63.5905 55.3036 61.3369 55.5756 59.1027C55.6726 58.2965 54.4099 58.303 54.3129 59.1027Z" fill="#E0B370"/>
<path d="M35.5533 59.3394C35.686 60.7541 35.6019 62.1402 35.2814 63.5226C35.0967 64.3127 36.3175 64.6526 36.4988 63.8593C36.8453 62.3667 36.9586 60.8644 36.816 59.3394C36.7416 58.5362 35.4788 58.5266 35.5533 59.3394Z" fill="#E0B370"/>
<path d="M50.2376 43.3862C51.6656 41.5211 54.0682 42.2108 55.742 43.3149C56.422 43.7651 57.0567 42.6706 56.3799 42.2239C54.026 40.6696 51.0116 40.3102 49.1465 42.7483C48.6512 43.3926 49.7487 44.0241 50.2376 43.3862Z" fill="#E0B370"/>
<path d="M48.9846 39.737C50.788 38.4515 53.1517 37.8558 54.9907 39.4261C55.6061 39.9506 56.5028 39.0635 55.8846 38.5324C53.6179 36.5962 50.6585 36.9946 48.3467 38.6459C47.6893 39.1153 48.3208 40.2128 48.9846 39.737Z" fill="#E0B370"/>
<path d="M51.0534 42.1109C51.0243 42.5253 50.9822 42.9429 51.0081 43.3606C51.0794 44.481 51.8305 44.5814 52.0379 44.6235C52.2451 44.6687 52.4782 44.6396 52.6401 44.5069C52.7113 44.4486 52.7664 44.3774 52.815 44.3029C53.3103 43.5808 53.5012 42.658 53.3362 41.8" fill="#E0B370"/>
<path d="M50.7387 42.1105C50.661 43.2048 50.5768 44.6555 51.9368 44.9242C53.5266 45.2382 53.8212 42.7808 53.6465 41.7154C53.5816 41.314 52.9728 41.4855 53.0377 41.8839C53.1379 42.5087 53.002 44.6037 51.9498 44.2799C51.0786 44.011 51.3216 42.8001 51.3702 42.1105C51.3993 41.7058 50.768 41.709 50.7387 42.1105Z" fill="#E0B370"/>
<path d="M41.0772 42.505C39.2121 40.07 36.2007 40.4262 33.8437 41.9803C33.1668 42.4273 33.8015 43.5218 34.4816 43.0716C36.1523 41.9675 38.5548 41.2746 39.986 43.1429C40.4717 43.7808 41.5694 43.1525 41.0772 42.505Z" fill="#E0B370"/>
<path d="M41.8739 38.4062C39.562 36.7582 36.6026 36.3566 34.336 38.2928C33.7175 38.8205 34.6145 39.711 35.2297 39.1865C37.0657 37.6194 39.4325 38.2119 41.236 39.4973C41.8998 39.9702 42.5311 38.8757 41.8739 38.4062Z" fill="#E0B370"/>
<path d="M39.1684 41.8714C39.1975 42.286 39.2397 42.7036 39.2138 43.1213C39.1425 44.2416 38.3914 44.342 38.1842 44.384C37.9768 44.4294 37.7438 44.4003 37.5818 44.2675C37.5105 44.2093 37.4555 44.1379 37.4069 44.0635C36.9116 43.3413 36.7206 42.4187 36.8857 41.5605" fill="#E0B370"/>
<path d="M38.8504 41.8709C38.8988 42.5606 39.1417 43.7716 38.2707 44.0404C37.2216 44.3643 37.0825 42.2693 37.1828 41.6444C37.2475 41.2461 36.6387 41.0744 36.5741 41.476C36.3992 42.5446 36.6937 44.9988 38.2836 44.6848C39.6435 44.4161 39.5594 42.9654 39.4817 41.8709C39.4525 41.4662 38.8211 41.4629 38.8504 41.8709Z" fill="#E0B370"/>
<path d="M60.8181 41.7702C63.8747 42.9002 63.308 50.3312 59.6493 49.7808C58.8528 49.6609 58.5094 50.8785 59.3126 50.9982C64.6776 51.8011 65.7819 42.2623 61.155 40.5494C60.3876 40.2679 60.0605 41.4885 60.8181 41.7702Z" fill="#E0B370"/>
<path d="M60.6789 46.8085C60.8602 46.0022 61.3136 45.3287 62.0129 44.8884C62.6994 44.4577 62.0647 43.3632 61.3752 43.7971C60.407 44.4059 59.7109 45.3514 59.4583 46.4716C59.2834 47.2649 60.5008 47.6018 60.6789 46.8085Z" fill="#E0B370"/>
<path d="M29.9745 51.4197C30.5443 51.6043 31.1304 51.5944 31.7163 51.4812C32.0532 51.4165 32.2442 51.015 32.1567 50.7041C32.0597 50.3544 31.7163 50.199 31.3798 50.2638C31.0138 50.3349 30.6642 50.3156 30.3112 50.2022C29.5342 49.9496 29.2007 51.1704 29.9745 51.4197Z" fill="#E0B370"/>
<path d="M29.8741 41.0352C26.4452 42.2754 26.5553 46.504 27.7825 49.3016C28.1094 50.0431 29.1974 49.4019 28.8736 48.6637C28.0025 46.6789 27.6431 43.1788 30.2076 42.2527C30.9686 41.9774 30.6415 40.7567 29.8741 41.0352Z" fill="#E0B370"/>
<path d="M31.5634 46.9574C31.3108 45.837 30.6178 44.8917 29.6466 44.283C28.9569 43.8491 28.3222 44.9401 29.0087 45.374C29.7113 45.8144 30.1615 46.4912 30.3428 47.2942C30.5241 48.0843 31.7414 47.7507 31.5634 46.9574Z" fill="#E0B370"/>
<path d="M21.1892 59.1225C20.3216 56.4902 19.8196 53.7832 19.3242 51.0602C19.1203 51.3258 18.9195 51.5944 18.7155 51.8599C21.1665 51.7045 22.0375 56.0531 22.5331 57.8176C22.983 59.4107 24.3333 61.1852 25.4601 62.3767C26.0201 62.9692 26.9106 62.0755 26.3537 61.483C25.4439 60.518 24.5632 59.1679 23.9318 57.9925C23.7603 57.6688 23.9059 58.0152 23.7667 57.5554C23.6113 57.0438 23.5011 56.5193 23.3424 56.0077C22.6917 53.9258 21.4322 50.4257 18.7122 50.5971C18.2784 50.6263 18.0258 50.976 18.1036 51.3969C18.599 54.1199 19.1008 56.8268 19.9686 59.4593C20.2244 60.2267 21.445 59.8964 21.1892 59.1225Z" fill="#E0B370"/>
<path d="M25.3711 59.9545C25.3064 58.7144 25.3678 57.4613 25.3905 56.2212C25.3937 55.9879 25.4004 55.7516 25.4036 55.5185C25.41 55.1526 25.4196 55.3599 25.3451 55.5283C25.4586 55.2627 25.6821 54.9972 25.8341 54.7575C26.5109 53.6955 27.1908 52.6336 27.8805 51.578C28.1977 51.0955 29.0268 49.5672 29.3149 49.4312C29.0591 49.3989 28.8033 49.3666 28.5507 49.3308C29.8685 50.3962 28.8712 53.1645 28.2529 54.3788C27.8837 55.1008 28.975 55.742 29.344 55.0167C30.2215 53.2974 31.3322 49.9623 29.4444 48.4371C29.2081 48.2462 28.9555 48.2074 28.6802 48.3369C28.0425 48.6411 27.4855 49.8878 27.1227 50.435C26.3392 51.6232 25.5718 52.8213 24.8046 54.0226C23.7166 55.7323 24.0015 57.9663 24.1083 59.9545C24.1505 60.7606 25.4164 60.767 25.3711 59.9545Z" fill="#E0B370"/>
<path d="M28.4627 60.7406C28.3268 59.5104 28.3947 58.2605 28.4724 57.0301C28.4983 56.6092 28.576 56.1751 28.5696 55.7543C28.5663 55.4758 28.3268 56.0942 28.4692 56.0004C28.5696 55.9356 28.644 55.832 28.7444 55.7639C30.3762 54.6696 31.9466 53.0734 33.326 51.6745C32.9957 51.6325 32.6654 51.5903 32.3353 51.5484C32.6331 52.0048 32.8501 52.6232 32.6008 53.1737C32.2705 53.9086 33.3583 54.553 33.6918 53.8115C34.1289 52.8402 34.0093 51.8106 33.4264 50.9137C33.2061 50.577 32.7303 50.4862 32.4355 50.7874C31.6681 51.5644 30.836 52.28 30.0136 52.9989C29.2753 53.6464 28.2198 54.2939 27.6176 55.0744C27.2614 55.5374 27.2841 55.955 27.2387 56.5476C27.1384 57.9398 27.0414 59.3548 27.1966 60.744C27.2873 61.5405 28.5533 61.547 28.4627 60.7406Z" fill="#E0B370"/>
<path d="M31.5486 61.4793C31.4095 60.5501 31.4322 59.5755 31.4063 58.6398C31.3932 58.2155 31.4354 57.7623 31.3737 57.3413C31.2896 56.7552 31.3673 57.0532 31.2476 57.2345C32.1056 55.9651 33.3716 54.1325 34.6765 53.3101C34.3657 53.1838 34.0581 53.0575 33.747 52.9312C34.0613 54.3365 33.6402 55.7095 33.0381 56.9755C32.8178 57.4385 32.5881 57.7656 32.5718 58.2705C32.5427 59.2679 32.7531 60.7701 33.3133 61.6056C34.2231 62.9591 35.5539 64.1409 36.6807 65.3065C37.72 66.3783 38.7595 67.5471 39.9736 68.4279C40.634 68.907 41.2655 67.8095 40.6115 67.3367C39.4426 66.4884 38.442 65.3131 37.4417 64.2769C36.4767 63.2796 34.8805 62.0427 34.2522 60.7735C34.0418 60.3493 34.0418 59.705 33.9705 59.2227C33.9219 58.889 33.8055 58.4908 33.8183 58.1509C33.7924 57.921 33.786 57.9565 33.7958 58.2577C33.8637 58.1314 33.9285 58.0019 33.9964 57.8756C34.9969 56.4281 35.3401 54.2719 34.9646 52.5945C34.8771 52.2028 34.3689 52.0084 34.0354 52.2158C33.1967 52.7403 32.5556 53.6274 31.9307 54.3755C31.4223 54.9841 30.6322 55.6997 30.2827 56.4249C29.9783 57.05 30.1142 57.772 30.1337 58.4681C30.1628 59.5787 30.1596 60.7119 30.3278 61.8128C30.4511 62.6158 31.6685 62.2758 31.5486 61.4793Z" fill="#E0B370"/>
<path d="M20.6987 61.1455C22.9392 65.0277 26.6177 68.7062 30.1824 71.3612C31.0567 72.0119 32.1479 72.8861 33.2262 73.1678C33.7928 73.3168 33.5209 73.0675 33.7054 73.5532C33.8542 73.9385 33.9092 74.3822 34 74.7836C34.5471 77.2348 34.2601 75.8011 34.5806 78.2911C34.681 79.0876 35.947 79.0972 35.8434 78.2911C35.5293 75.8399 35.8424 77.3253 35.3212 74.9131C35.1754 74.2396 35.1139 73.2715 34.7479 72.6693C34.3204 71.9699 33.2197 71.8143 32.5236 71.4098C29.9786 69.9364 27.8188 67.7703 25.847 65.6171C24.3996 64.0403 22.8714 62.3727 21.7931 60.5078C21.3852 59.8019 20.2909 60.4398 20.6987 61.1455Z" fill="#E0B370"/>
<path d="M38.5036 67.2306C40.0093 68.652 40.4107 70.0346 41.1295 71.8445C42.3276 74.8557 42.0839 74.2193 43.1523 77.2857C43.4177 78.0499 44.6385 77.7196 44.3697 76.949C43.2591 73.7563 43.3767 74.2893 42.1915 71.1323C41.4728 69.2218 40.945 67.7938 39.3941 66.3335C38.8048 65.7799 37.9111 66.6704 38.5036 67.2306Z" fill="#E0B370"/>
<path d="M59.8416 40.4134C59.6603 33.6493 55.5028 25.8784 47.693 26.6167C46.8901 26.691 46.8836 27.9572 47.693 27.8795C54.7938 27.2092 58.4138 34.2936 58.5789 40.4134C58.5983 41.2228 59.8643 41.226 59.8416 40.4134Z" fill="#E0B370"/>
<path d="M45.1223 20.0022C45.3941 22.301 45.501 24.6 45.4395 26.9151C45.4168 27.7277 46.6828 27.7277 46.7023 26.9151C46.7637 24.6 46.6601 22.301 46.3848 20.0022C46.291 19.2024 45.0251 19.1959 45.1223 20.0022Z" fill="#E0B370"/>
<path d="M62.3989 41.7348C68.0392 31.0919 60.3364 15.3492 47.6535 15.8769C46.844 15.9094 46.8375 17.1753 47.6535 17.1397C53.6177 16.8904 58.4972 20.3646 61.0293 25.6522C63.2862 30.36 63.8106 36.3794 61.311 41.0969C60.9257 41.8125 62.0168 42.4536 62.3989 41.7348Z" fill="#E0B370"/>
<path d="M45.8177 15.6241C42.5959 14.154 38.2864 15.5367 35.343 17.0423C30.5185 19.5095 27.054 24.0037 25.9434 29.3139C25.0401 33.6332 25.5904 38.0821 26.7399 42.2946C26.9538 43.0782 28.1743 42.7447 27.9573 41.9578C26.2737 35.7897 26.0016 28.8736 29.8192 23.4144C32.2929 19.8755 36.2464 17.4017 40.4685 16.5695C41.9323 16.2814 43.7713 16.0709 45.183 16.712C45.9149 17.0488 46.5558 15.9608 45.8177 15.6241Z" fill="#E0B370"/>
<path d="M36.9043 23.5921C32.9055 26.6035 30.0011 30.6574 28.4663 35.4235C28.2169 36.2007 29.4377 36.5308 29.6838 35.7602C31.1084 31.3341 33.8251 27.481 37.5422 24.6834C38.1865 24.2009 37.5551 23.1034 36.9043 23.5921Z" fill="#E0B370"/>
<path d="M44.1995 26.1573C36.5256 26.2933 32.1673 33.1869 29.4023 39.4619C29.0784 40.2002 30.1663 40.8445 30.4934 40.0998C33.0578 34.278 37.0081 27.5464 44.1995 27.4201C45.0089 27.407 45.0121 26.1443 44.1995 26.1573Z" fill="#E0B370"/>
<path d="M74.8489 74.6864C75.7522 69.2208 72.5952 63.7812 69.4836 59.5428C67.8711 57.3474 66.0903 55.2655 64.1379 53.3648C62.9852 52.2412 61.7029 50.9365 60.2233 50.237C59.4915 49.8906 58.8504 50.9817 59.5854 51.3282C60.9323 51.9661 62.0786 53.1285 63.1341 54.1515C64.9571 55.913 66.6375 57.8331 68.156 59.8633C71.1253 63.8264 74.4862 69.1561 73.6281 74.3497C73.4986 75.143 74.7159 75.4861 74.8489 74.6864Z" fill="#E0B370"/>
<path d="M70.7207 69.8884C67.3726 67.1168 64.7208 63.7233 62.8397 59.8087C62.4867 59.0771 61.3988 59.715 61.7486 60.4466C63.6717 64.4519 66.4078 67.9488 69.827 70.7819C70.4487 71.2968 71.3488 70.4097 70.7207 69.8884Z" fill="#E0B370"/>
<path d="M65.861 69.8556C63.8308 69.7843 61.48 68.9101 60.0749 67.4402C58.8381 66.1481 58.0675 64.4808 57.3193 62.8779C56.973 62.1428 55.8849 62.7841 56.2283 63.5158C57.1543 65.4909 58.1516 67.5502 59.8677 68.9685C61.4509 70.2799 63.8244 71.0471 65.861 71.1184C66.6738 71.1475 66.6738 69.8847 65.861 69.8556Z" fill="#E0B370"/>
<path d="M76.8214 57.342C79.0654 57.044 79.878 55.3668 80.0918 53.2945C79.6999 53.4013 79.3081 53.5082 78.9132 53.6118C79.7065 55.2632 80.3572 57.044 82.449 57.1249C83.2616 57.154 83.2616 55.8913 82.449 55.8622C80.9983 55.8072 80.5353 54.0814 80.0043 52.9773C79.7033 52.3522 78.8841 52.7409 78.8258 53.2945C78.6929 54.5832 78.2913 55.8817 76.8182 56.0758C76.0249 56.1826 76.0152 57.4488 76.8214 57.342Z" fill="#E0B370"/>
<path d="M76.9524 57.5068C78.0565 57.8015 78.7559 58.6272 78.934 59.7443C79.0344 60.3563 80.0413 60.3401 80.1513 59.7443C80.2971 58.9671 80.9738 57.1281 81.9775 57.1961C82.7903 57.2479 82.7871 55.985 81.9775 55.9332C80.2907 55.8232 79.1962 58.0055 78.934 59.4108C79.3388 59.4108 79.7468 59.4108 80.1513 59.4108C79.9022 57.876 78.7786 56.6876 77.2857 56.2926C76.5022 56.079 76.1655 57.2963 76.9524 57.5068Z" fill="#E0B370"/>
<path d="M69.3726 39.4392C71.3056 39.2189 73.0639 38.3706 74.2684 36.8066C75.544 35.1457 75.7966 33.0734 76.0006 31.0529C75.6089 31.1599 75.2171 31.2667 74.822 31.3703C76.4182 34.6891 77.7976 38.9599 82.1591 38.9502C82.9719 38.947 82.9751 37.6843 82.1591 37.6875C78.4388 37.6971 77.2537 33.5204 75.9132 30.7324C75.6153 30.1108 74.7929 30.4929 74.7346 31.0497C74.3913 34.4267 73.2289 37.7327 69.3694 38.1732C68.5729 38.267 68.5632 39.5329 69.3726 39.4392Z" fill="#E0B370"/>
<path d="M69.8907 39.8408C72.6333 40.5337 74.5404 42.6934 74.9548 45.4811C75.0455 46.0931 76.0686 46.077 76.1724 45.4811C76.5478 43.3508 78.4258 38.8531 81.0938 39.0993C81.9034 39.1738 81.8968 37.911 81.0938 37.8366C77.6907 37.5191 75.4373 42.3922 74.9548 45.1446C75.3596 45.1446 75.7674 45.1446 76.1724 45.1446C75.6963 41.9487 73.3457 39.4069 70.2242 38.62C69.4374 38.4226 69.1006 39.64 69.8907 39.8408Z" fill="#E0B370"/>
<path d="M61.3039 40.9442C61.7508 36.5375 62.2849 31.1625 59.9018 27.1897C59.4842 26.4936 58.3899 27.1281 58.8107 27.8276C61.0545 31.5673 60.4588 36.7899 60.0411 40.9442C59.9602 41.7538 61.223 41.7472 61.3039 40.9442Z" fill="#E0B370"/>
<path opacity="0.23" d="M62.4255 28.5951C62.0659 26.6846 61.5997 24.7257 60.4341 23.1327C59.3428 21.6368 57.8504 20.4323 56.2636 19.4901C52.7084 17.3725 48.7032 16.9807 44.6461 16.9904C41.0295 17.0001 37.0953 17.366 34.0582 19.5321C30.7749 21.8699 29.1658 25.6421 28.0163 29.3753C26.9963 32.6909 25.4227 37.6319 28.3626 40.3421C28.6638 41.5239 30.6875 41.4009 30.7426 39.9795C30.8915 36.0714 32.7954 32.4837 35.9201 30.1363C37.4322 28.9997 39.5918 27.2058 41.5668 27.2837C42.8717 27.3355 44.3742 27.1088 45.8215 26.9761C45.6207 24.7873 45.2516 22.6114 45.1771 20.4096C45.1253 18.8522 47.5408 18.8587 47.5958 20.4096C47.6703 22.5887 48.0329 24.742 48.2369 26.9113C50.0275 27.0635 51.4975 28.2808 53.1423 29.1713C54.8972 30.12 55.969 32.2602 56.7786 34.0023C57.6625 35.9061 58.0315 37.8975 58.6889 39.8694C59.1908 41.3816 60.9716 42.1197 61.9366 40.5266C62.9209 38.9013 63.0536 36.7416 63.0438 34.8927C63.0341 32.7783 62.814 30.6672 62.4255 28.5951Z" fill="#E0B370"/>
<path opacity="0.23" d="M62.7098 72.637C60.3138 73.0161 57.9016 71.5168 56.6227 69.4542C55.3435 67.3919 55.0134 64.879 55.0199 62.4507C55.0231 60.9063 55.1689 59.3068 55.9168 57.9565C56.8525 56.2631 58.724 54.9065 58.6788 52.9702C58.9635 52.7921 59.3296 52.9864 59.608 53.1774C61.4081 54.4142 63.1827 55.6834 64.9343 56.9885C65.8636 57.6814 66.7896 58.3872 67.5925 59.2225C69.953 61.6769 71.0603 65.0507 71.9767 68.3308C72.2779 69.4058 72.566 70.5099 72.4721 71.6237C72.3781 72.7376 71.831 73.8741 70.8338 74.3791C69.8072 74.9005 68.5736 74.6511 67.4534 74.3791C64.2575 73.602 61.0909 72.7214 57.9534 71.7403" fill="#E0B370"/>
<path opacity="0.23" d="M44.1586 58.4616C42.7989 58.0375 41.6104 56.9366 40.9725 55.499C40.8139 55.1396 40.6844 54.7382 40.7524 54.3431C40.8366 53.8509 41.209 53.4883 41.5911 53.2389C42.8085 52.4328 44.2785 52.3356 45.687 52.2742C46.0755 52.2579 46.4672 52.2416 46.8461 52.3324C47.5001 52.491 48.0603 52.9508 48.601 53.3978C48.7791 53.5465 48.967 53.7054 49.0672 53.9319C49.1321 54.0776 49.1548 54.2427 49.1742 54.4047C49.2357 54.9551 49.2421 55.5444 49.0154 56.0365C48.75 56.6226 48.2125 56.9691 47.7043 57.2864C47.28 57.5486 46.8493 57.8141 46.3799 57.9307C46.1273 57.9922 45.8683 58.0084 45.6125 58.0181C44.5925 58.057 43.5663 57.9761 42.5593 57.7817" fill="#E0B370"/>
</g>
</g>
<defs>
<clipPath id="clip0_1302_12241">
<rect width="94.7205" height="94.7205" fill="white" transform="translate(0.769775 0.639648)"/>
</clipPath>
</defs>
</svg>
