<svg width="96" height="96" viewBox="0 0 96 96" fill="none" xmlns="http://www.w3.org/2000/svg">
<g clip-path="url(#clip0_1483_31)">
<mask id="mask0_1483_31" style="mask-type:luminance" maskUnits="userSpaceOnUse" x="1" y="0" width="95" height="95">
<path d="M95.6659 0.41626H1.13452V94.9477H95.6659V0.41626Z" fill="white"/>
</mask>
<g mask="url(#mask0_1483_31)">
<path d="M48.1255 94.3379C73.6857 94.3379 94.4066 73.6172 94.4066 48.0568C94.4066 22.4967 73.6857 1.77588 48.1255 1.77588C22.5652 1.77588 1.84448 22.4967 1.84448 48.0568C1.84448 73.6172 22.5652 94.3379 48.1255 94.3379Z" stroke="#E0B370" stroke-width="1.19661" stroke-miterlimit="10"/>
</g>
<path opacity="0.23" d="M69.1921 44.3493C69.1921 56.3486 64.0188 64.2838 59.6787 68.8278C54.7527 73.9855 49.4858 76.2756 48.3153 76.2756C47.1448 76.2756 41.8776 73.9855 36.9515 68.8278C32.6115 64.2837 27.438 56.3486 27.438 44.3493V34.2837C27.438 33.4028 28.0151 32.6278 28.8537 32.358C35.2859 30.2885 41.3417 27.5237 47.2569 23.9567C47.9078 23.5642 48.7231 23.5639 49.3747 23.9552C55.1733 27.4376 61.4633 30.3082 67.7788 32.3557C68.616 32.6272 69.1921 33.4015 69.1921 34.2817V44.3493Z" fill="#E0B370"/>
<path d="M73.0276 43.3494C73.0276 57.5531 66.904 66.9462 61.7665 72.325C55.9354 78.4303 49.701 81.141 48.3154 81.141C46.9298 81.141 40.695 78.4303 34.8638 72.325C29.7265 66.946 23.6025 57.5531 23.6025 43.3494V31.162C23.6025 30.2811 24.1797 29.5058 25.0189 29.2382C32.8003 26.7569 40.1143 23.4198 47.2576 19.0924C47.9077 18.6985 48.7234 18.6981 49.3741 19.0908C56.3711 23.3139 63.9801 26.7842 71.6138 29.2359C72.4518 29.5051 73.0276 30.2797 73.0276 31.1599V43.3494Z" stroke="#E0B370" stroke-width="1.2" stroke-linecap="round" stroke-linejoin="round"/>
<path d="M27.1895 37.373V33.5603C27.1895 33.1339 27.4599 32.7549 27.8619 32.6129C29.8571 31.9082 31.8464 31.1391 33.795 30.3186" stroke="#E0B370" stroke-width="1.2" stroke-linecap="round" stroke-linejoin="round"/>
<path d="M64.1705 63.2085C63.056 65.0314 61.7484 66.777 60.2835 68.3964C59.0789 69.7279 57.7736 70.9689 56.4038 72.0848" stroke="#E0B370" stroke-width="1.2" stroke-linecap="round" stroke-linejoin="round"/>
<path d="M55.448 31.6127C55.1145 34.2299 53.5949 34.935 52.8769 34.9603C51.5304 35.3096 51.2794 35.3362 50.5142 35.4168C50.3144 35.4378 50.1272 35.2457 49.9535 34.9603C49.4621 34.1528 49.0781 32.5988 48.8184 33.0156C48.5554 33.4375 49.2792 35.0615 49.5037 35.9795C49.5793 36.2888 49.5983 36.518 49.5037 36.594C48.1625 37.671 44.5683 34.0337 44.1267 34.9603C43.8939 35.4488 48.5499 37.4456 48.0779 38.2318C47.6059 39.018 47.701 40.9776 47.0476 41.1229C45.6658 41.4303 41.859 41.1229 42.0798 41.8228C42.3006 42.5227 44.766 41.8228 45.9436 41.8228C47.1211 41.8228 47.5995 42.0359 48.0779 43.3135C48.5563 44.5911 50.0972 44.8509 50.5142 46.1443C50.9311 47.4377 47.4566 50.5571 48.4295 50.8614C49.4023 51.1657 50.0972 48.5789 50.5142 47.742C50.9311 46.9051 51.626 47.2095 51.626 48.1225C51.626 49.0354 50.3057 51.9265 50.0972 53.4482C49.8888 54.9698 50.5836 55.0459 50.9311 53.4482C51.2785 51.8505 52.4599 48.1225 52.8769 48.1225C53.2939 48.1225 55.448 48.3507 56.8378 47.742C57.9497 47.2551 58.9226 46.119 59.27 45.6117C62.2581 47.4377 63.9259 47.742 63.37 47.2095C62.8141 46.6769 60.3819 45.1553 59.8259 44.8509C59.27 44.5466 60.0344 42.5685 60.3819 42.0359C60.7293 41.5033 63.509 41.8077 63.37 41.1229C63.231 40.4382 62.2581 41.1229 61.4937 41.1229C60.7293 41.1229 59.7564 40.5903 60.3819 39.5252C61.0073 38.4601 64.5513 38.2318 63.9259 37.3188C63.3005 36.4058 61.6327 37.9275 60.8683 38.2318C60.1039 38.5361 59.3395 38.0796 58.9226 37.3188C58.5056 36.558 57.1853 35.8733 56.2819 35.4168C55.3785 34.9603 56.3514 29.9389 56.2819 29.3303C56.2124 28.7216 55.865 28.3412 55.448 31.6127Z" fill="white"/>
<path d="M59.8259 44.8509C59.27 44.5466 60.0344 42.5685 60.3819 42.0359C60.7293 41.5033 63.509 41.8077 63.37 41.1229C63.231 40.4382 62.2581 41.1229 61.4937 41.1229C60.7293 41.1229 59.7564 40.5903 60.3819 39.5252C61.0073 38.4601 64.5513 38.2318 63.9259 37.3188C63.3005 36.4058 61.6327 37.9275 60.8683 38.2318C60.1039 38.5361 59.3395 38.0796 58.9226 37.3188C58.5056 36.558 57.1853 35.8733 56.2819 35.4168C55.3785 34.9603 56.3514 29.9389 56.2819 29.3303C56.2124 28.7216 55.865 28.3412 55.448 31.6127C55.1145 34.2299 53.5949 34.935 52.8769 34.9603C51.5304 35.3096 51.2794 35.3362 50.5142 35.4168C50.3144 35.4378 50.1272 35.2457 49.9535 34.9603M59.8259 44.8509C60.3819 45.1553 62.8141 46.6769 63.37 47.2095C63.9259 47.742 62.2581 47.4377 59.27 45.6117M59.8259 44.8509C59.3614 44.6309 58.4229 44.0153 58.385 43.3135M59.27 45.6117C58.9226 46.119 57.9497 47.2551 56.8378 47.742C55.448 48.3507 53.2939 48.1225 52.8769 48.1225C52.4599 48.1225 51.2785 51.8505 50.9311 53.4482C50.5836 55.0459 49.8888 54.9698 50.0972 53.4482C50.3057 51.9265 51.626 49.0354 51.626 48.1225C51.626 47.2095 50.9311 46.9051 50.5142 47.742C50.0972 48.5789 49.4023 51.1657 48.4295 50.8614C47.4566 50.5571 50.9311 47.4377 50.5142 46.1443C50.0972 44.8509 48.5563 44.5911 48.0779 43.3135C47.5995 42.0359 47.1211 41.8228 45.9436 41.8228C44.766 41.8228 42.3006 42.5227 42.0798 41.8228C41.859 41.1229 45.6658 41.4303 47.0476 41.1229C47.701 40.9776 47.6059 39.018 48.0779 38.2318C48.5499 37.4456 43.8939 35.4488 44.1267 34.9603C44.5683 34.0337 48.1625 37.671 49.5037 36.594C49.5983 36.518 49.5793 36.2888 49.5037 35.9795M59.27 45.6117C58.8072 45.3289 57.6345 44.9888 56.8378 45.3289M49.5037 35.9795C49.2792 35.0615 48.5554 33.4375 48.8184 33.0156C49.0781 32.5988 49.4621 34.1528 49.9535 34.9603M49.5037 35.9795C49.693 36.7537 50.2277 38.2318 49.7686 38.7871M49.9535 34.9603C50.2314 35.4168 50.7149 35.9795 50.9896 35.9795" stroke="#E0B370" stroke-width="1.2" stroke-linecap="round"/>
<path d="M41.1925 65.333C41.0131 63.9255 40.1959 63.5464 39.8098 63.5327C39.0857 63.3449 38.9507 63.3306 38.5392 63.2873C38.4318 63.276 38.3311 63.3793 38.2377 63.5327C37.9734 63.967 37.767 64.8027 37.6273 64.5786C37.4859 64.3517 37.8751 63.4783 37.9958 62.9847C38.0365 62.8183 38.0467 62.6951 37.9958 62.6542C37.2745 62.075 35.3417 64.0311 35.1042 63.5327C34.9791 63.2701 37.4829 62.1963 37.2291 61.7735C36.9753 61.3507 37.0264 60.2969 36.675 60.2187C35.9319 60.0534 33.8848 60.2187 34.0035 59.8424C34.1222 59.466 35.448 59.8424 36.0813 59.8424C36.7145 59.8424 36.9718 59.7278 37.2291 59.0407C37.4863 58.3537 38.315 58.2139 38.5392 57.5184C38.7634 56.8229 36.8949 55.1454 37.4181 54.9817C37.9413 54.8181 38.315 56.2091 38.5392 56.6592C38.7634 57.1093 39.1371 56.9456 39.1371 56.4546C39.1371 55.9637 38.4271 54.4089 38.315 53.5906C38.2029 52.7724 38.5766 52.7314 38.7634 53.5906C38.9503 54.4498 39.5855 56.4546 39.8098 56.4546C40.034 56.4546 41.1925 56.3319 41.9398 56.6592C42.5378 56.921 43.0609 57.532 43.2478 57.8048C44.8547 56.8229 45.7516 56.6592 45.4526 56.9456C45.1536 57.232 43.8457 58.0503 43.5467 58.2139C43.2478 58.3776 43.6589 59.4414 43.8457 59.7278C44.0326 60.0142 45.5273 59.8505 45.4526 60.2187C45.3779 60.587 44.8547 60.2187 44.4436 60.2187C44.0326 60.2187 43.5094 60.5051 43.8457 61.0779C44.182 61.6507 46.0879 61.7735 45.7516 62.2644C45.4152 62.7554 44.5184 61.9371 44.1073 61.7735C43.6962 61.6098 43.2852 61.8553 43.0609 62.2644C42.8367 62.6736 42.1267 63.0418 41.6409 63.2873C41.1551 63.5328 41.6783 66.2331 41.6409 66.5604C41.6035 66.8877 41.4167 67.0923 41.1925 65.333Z" fill="white"/>
<path d="M43.5467 58.2139C43.2478 58.3776 43.6589 59.4414 43.8457 59.7278C44.0326 60.0142 45.5273 59.8505 45.4526 60.2187C45.3779 60.587 44.8547 60.2187 44.4436 60.2187C44.0326 60.2187 43.5094 60.5051 43.8457 61.0779C44.182 61.6507 46.0879 61.7735 45.7516 62.2644C45.4152 62.7554 44.5184 61.9371 44.1073 61.7735C43.6962 61.6098 43.2852 61.8553 43.0609 62.2644C42.8367 62.6736 42.1267 63.0418 41.6409 63.2873C41.1551 63.5328 41.6783 66.2331 41.6409 66.5604C41.6035 66.8877 41.4167 67.0923 41.1925 65.333C41.0131 63.9255 40.1959 63.5464 39.8098 63.5327C39.0857 63.3449 38.9507 63.3306 38.5392 63.2873C38.4318 63.276 38.3311 63.3793 38.2377 63.5327M43.5467 58.2139C43.8457 58.0503 45.1536 57.232 45.4526 56.9456C45.7516 56.6592 44.8547 56.8229 43.2478 57.8048M43.5467 58.2139C43.2969 58.3323 42.7923 58.6633 42.7719 59.0407M43.2478 57.8048C43.0609 57.532 42.5378 56.921 41.9398 56.6592C41.1925 56.3319 40.034 56.4546 39.8098 56.4546C39.5855 56.4546 38.9503 54.4498 38.7634 53.5906C38.5766 52.7314 38.2029 52.7724 38.315 53.5906C38.4271 54.4089 39.1371 55.9637 39.1371 56.4546C39.1371 56.9456 38.7634 57.1093 38.5392 56.6592C38.315 56.2091 37.9413 54.8181 37.4181 54.9817C36.8949 55.1454 38.7634 56.8229 38.5392 57.5184C38.315 58.2139 37.4863 58.3537 37.2291 59.0407C36.9718 59.7278 36.7145 59.8424 36.0813 59.8424C35.448 59.8424 34.1222 59.466 34.0035 59.8424C33.8848 60.2187 35.9319 60.0534 36.675 60.2187C37.0264 60.2969 36.9753 61.3507 37.2291 61.7735C37.4829 62.1963 34.9791 63.2701 35.1042 63.5327C35.3417 64.0311 37.2745 62.075 37.9958 62.6542C38.0467 62.6951 38.0365 62.8183 37.9958 62.9847M43.2478 57.8048C42.9989 57.9569 42.3683 58.1398 41.9398 57.9569M37.9958 62.9847C37.8751 63.4783 37.4859 64.3517 37.6273 64.5786C37.767 64.8027 37.9734 63.967 38.2377 63.5327M37.9958 62.9847C38.0976 62.5683 38.3852 61.7735 38.1383 61.4748M38.2377 63.5327C38.3871 63.2873 38.6471 62.9847 38.7949 62.9847" stroke="#E0B370" stroke-width="1.2" stroke-linecap="round"/>
</g>
<defs>
<clipPath id="clip0_1483_31">
<rect width="94.7205" height="94.7205" fill="white" transform="translate(0.954834 0.390137)"/>
</clipPath>
</defs>
</svg>
