<svg width="150" height="150" viewBox="0 0 150 150" fill="none" xmlns="http://www.w3.org/2000/svg">
<rect width="150" height="150" fill="white"/>
<path d="M20.5863 105.408C22.6431 112.734 31.8831 115.009 37.954 111.067C52.4823 103.383 87.7875 94.1776 110.701 90.8797C138.312 85.7338 145.331 92.679 146.705 81.3178C148.196 72.7042 143.622 68.4559 142.265 66.9748C136.46 60.6327 136.232 59.2335 129.792 58.4529C128.198 56.3551 126.898 54.956 126.898 54.956C126.898 54.956 124.913 52.7762 124.718 49.8491C124.523 46.922 122.605 42.3361 122.605 42.3361C122.605 42.3361 115.189 28.481 110.213 26.6272C95.4917 21.9906 76.3346 34.9109 62.257 35.994C37.0485 39.2392 4.53195 30.5202 4.91833 64.879C5.5018 69.9546 18.1021 95.128 20.5863 105.408Z" fill="white" stroke="#221D1E" stroke-width="1.3" stroke-miterlimit="10"/>
<path d="M19.2359 101.215C20.8165 92.2832 22.805 82.8325 36.8884 77.269C48.2691 74.3848 54.1917 72.8627 54.8415 69.2194C58.481 54.3261 24.4091 51.557 18.2036 59.3159C12.1463 66.2903 12.0663 70.7922 11.1394 81.0782" stroke="#221D1E" stroke-width="1.3" stroke-miterlimit="10"/>
<path d="M38.3354 76.9372C38.3354 76.9372 38.2573 76.7519 38.1149 76.4318Z" fill="white"/>
<path d="M38.3354 76.9372C38.3354 76.9372 38.2573 76.7519 38.1149 76.4318" stroke="#221D1E" stroke-width="1.3" stroke-miterlimit="10"/>
<path d="M37.6993 75.5086C36.7041 73.3308 34.7156 69.2172 33.01 67.1545" stroke="#221D1E" stroke-width="0.5" stroke-miterlimit="10" stroke-dasharray="1.22 1.22"/>
<path d="M30.6162 66.5985C25.6459 67.0103 18.7106 66.1185 15.36 68.8134C13.2407 70.5189 12.3392 72.7162 11.9723 74.01" stroke="#221D1E" stroke-width="0.5" stroke-miterlimit="10" stroke-dasharray="1.22 1.22"/>
<path d="M32.1072 66.8618C33.1969 60.7157 34.7422 59.7063 34.7422 59.7063C34.7422 59.7063 44.0017 57.9091 51.9791 61.2714" stroke="#221D1E" stroke-width="0.5" stroke-miterlimit="10" stroke-dasharray="1.22 1.22"/>
<path d="M52.4733 61.488C52.6411 61.5641 52.8089 61.6422 52.9748 61.7222" stroke="#221D1E" stroke-width="0.5" stroke-miterlimit="10" stroke-dasharray="1.22 1.22"/>
<path d="M34.7424 59.7061C34.7424 59.7061 34.9044 59.8056 35.1913 60.028" stroke="#221D1E" stroke-width="0.5" stroke-miterlimit="10" stroke-dasharray="1.22 1.22"/>
<path d="M36.0592 60.7612C37.8877 62.4375 41.2695 66.3111 43.9391 73.7675" stroke="#221D1E" stroke-width="0.5" stroke-miterlimit="10" stroke-dasharray="1.22 1.22"/>
<path d="M44.1268 74.3062C44.1873 74.4799 44.2459 74.6536 44.3044 74.8292" stroke="#221D1E" stroke-width="0.5" stroke-miterlimit="10" stroke-dasharray="1.22 1.22"/>
<path d="M55.8422 52.9991C61.8312 32.3589 104.064 41.2378 94.0218 64.2412C90.9718 71.2273 78.7285 74.3867 67.5527 70.7336C59.7783 68.1909 53.3854 61.4663 55.8422 52.9991Z" stroke="#221D1E" stroke-width="0.5" stroke-miterlimit="10" stroke-dasharray="1.22 1.22"/>
<path d="M129.532 58.6326C129.532 58.6326 129.581 57.9008 116.604 59.901C87.9121 63.8194 90.4724 32.7157 121.586 40.5214" stroke="#221D1E" stroke-width="1.3" stroke-miterlimit="10"/>
<path d="M108.812 49.0341C113.015 49.3912 121.01 48.478 123.799 49.2839" stroke="#221D1E" stroke-width="0.5" stroke-miterlimit="10" stroke-dasharray="1.22 1.22"/>
<path d="M124.314 49.4865C124.506 49.5899 124.644 49.7109 124.718 49.8514Z" fill="white"/>
<path d="M124.314 49.4865C124.506 49.5899 124.644 49.7109 124.718 49.8514" stroke="#221D1E" stroke-width="1.3" stroke-miterlimit="10"/>
<path d="M115.7 60.0305C115.7 60.0305 115.565 59.8861 115.329 59.6227" stroke="#221D1E" stroke-width="0.5" stroke-miterlimit="10" stroke-dasharray="1.22 1.22"/>
<path d="M114.601 58.8029C112.336 56.2173 107.247 50.1191 105.968 46.0952C105.418 44.3643 99.7472 45.5625 97.4094 49.5141" stroke="#221D1E" stroke-width="0.5" stroke-miterlimit="10" stroke-dasharray="1.22 1.22"/>
<path d="M97.1479 49.9983C97.0659 50.1622 96.9918 50.33 96.9215 50.5037" stroke="#221D1E" stroke-width="0.5" stroke-miterlimit="10" stroke-dasharray="1.22 1.22"/>
<path d="M24.7173 111.128C24.7173 111.128 24.727 110.933 24.7563 110.578Z" fill="white"/>
<path d="M24.7173 111.128C24.7173 111.128 24.727 110.933 24.7563 110.578" stroke="#221D1E" stroke-width="1.3" stroke-miterlimit="10"/>
<path d="M24.8701 109.483C25.4985 104.347 28.5681 88.7999 42.8076 86.265C55.525 84.0013 67.2004 85.0746 86.1936 81.5621C105.187 78.0495 126.586 69.0222 133.336 68.3412C140.482 67.6191 144.395 71.3034 145.833 73.0656" stroke="#221D1E" stroke-width="0.5" stroke-miterlimit="10" stroke-dasharray="1.22 1.22"/>
<path d="M146.172 73.5026C146.381 73.7875 146.481 73.9611 146.481 73.9611Z" fill="white"/>
<path d="M146.172 73.5026C146.381 73.7875 146.481 73.9611 146.481 73.9611" stroke="#221D1E" stroke-width="1.3" stroke-miterlimit="10"/>
</svg>
