<?xml version="1.0" encoding="UTF-8"?>
<!DOCTYPE svg PUBLIC "-//W3C//DTD SVG 1.1//EN" "http://www.w3.org/Graphics/SVG/1.1/DTD/svg11.dtd">
<!-- Creator: CorelDRAW 2020 (64-Bit) -->
<svg xmlns="http://www.w3.org/2000/svg" xml:space="preserve" width="85.1888mm" height="141.17mm" version="1.1" style="shape-rendering:geometricPrecision; text-rendering:geometricPrecision; image-rendering:optimizeQuality; fill-rule:evenodd; clip-rule:evenodd"
viewBox="0 0 8518.88 14116.98"
 xmlns:xlink="http://www.w3.org/1999/xlink"
 xmlns:xodm="http://www.corel.com/coreldraw/odm/2003">
 <defs>
  <style type="text/css">
   <![CDATA[
    .fil0 {fill:#565555;fill-rule:nonzero}
   ]]>
  </style>
 </defs>
 <g id="Слой_x0020_1">
  <metadata id="CorelCorpID_0Corel-Layer"/>
  <path class="fil0" d="M2250.84 12084.98c32.98,-469.3 69.39,-899.64 106.04,-1333.03 66.02,-780.53 132.87,-1570.92 179.39,-2569.1 26.99,-579.31 52.06,-1110.32 117.47,-1630.89 65.76,-523.33 172.3,-1038.16 362.3,-1584.31 38.93,-111.87 64.85,-265.87 81.94,-431.17 23.71,-229.39 30.24,-478.64 30.83,-669.38 -1.71,-216.31 -47.82,-420.01 -93.57,-622.17 -91.2,-402.94 -181.08,-800.04 63.96,-1299.97l4.55 -9.28 7.55 -6.52c1.63,-1.42 3.37,-2.75 5.18,-4.01 -1.89,-93.39 -4.72,-335.65 15.44,-375.98 6.39,-12.79 13.95,-22.73 22.09,-30.38 18.57,-17.47 39.38,-23.52 57.62,-24.17 17.56,-0.63 33.52,4.51 42.24,8.87 6.46,3.23 12.09,7.39 15.99,11.41 27.69,27.13 621.95,607.62 981.75,959.09 359.85,-351.51 954.08,-931.96 981.76,-959.09 3.9,-4.02 9.53,-8.18 15.99,-11.41l0 -0.2c8.57,-4.27 24.42,-9.31 42.24,-8.67 18.23,0.65 39.05,6.69 57.62,24.17 8.37,7.88 16.03,17.85 22.29,30.38l-0.16 0.08c20.12,40.55 17.29,282.57 15.4,375.9 1.81,1.26 3.54,2.59 5.18,4.01l7.55 6.52 4.55 9.28c245.03,499.93 155.16,897.04 63.96,1299.98 -45.76,202.16 -91.87,405.85 -93.57,622.16 0.59,190.75 7.12,440 30.83,669.39 17.09,165.3 43.01,319.3 81.93,431.16 190.01,546.15 296.55,1060.98 362.31,1584.31 65.41,520.58 90.48,1051.59 117.47,1630.89 46.52,998.29 113.38,1788.73 179.41,2569.35 36.64,433.29 73.03,863.55 106.02,1332.78 4.82,68.57 -38.61,133.93 -120.97,193.39 -74.72,53.93 -184.44,105.31 -320.2,151.13 -113.39,38.26 -256.01,30.2 -409.29,21.54 -119.89,-6.77 -246.65,-13.92 -364.66,1.27 -101.04,13.02 -203.96,47.94 -306.66,82.79 -141.03,47.85 -281.7,95.58 -429.97,92.58 -145.07,-2.94 -280.87,-61.47 -410.56,-117.37 -99.78,-43.01 -195.72,-84.36 -281.7,-93.21 -146.9,-15.11 -296.42,-8.26 -436.65,-1.85 -172.17,7.88 -330.84,15.15 -462.2,-18.07 -132.33,-33.48 -237.56,-78.67 -312.41,-124.98 -99.75,-61.71 -150.19,-131.66 -146.28,-187.22zm1553.83 -8675.4c-27.57,-21.61 -80.45,-70.86 -130.25,-161.23 -6.11,-11.14 -2.04,-25.13 9.1,-31.24 11.14,-6.11 25.13,-2.05 31.24,9.09 51.96,94.3 105.27,138.2 124.99,152.27 110.01,-98.55 204.39,-192.43 273.12,-260.81 35.05,-34.87 64.01,-63.69 87.15,-83.91 -43.2,-34.43 -103.38,-99.39 -177.22,-179.12 -85.96,-92.79 -192.26,-207.56 -303.26,-316.19 -101.56,-99.39 -182.42,-163.6 -254.11,-220.53 -104.71,-83.15 -190.58,-151.35 -295.4,-290.12 -206.17,450.49 -122.52,820.26 -37.64,1195.29 42.61,188.24 85.51,377.79 94.32,581.49 133.51,-58.85 267.54,-146.32 392.27,-241.98 -39.17,-14.68 -97.58,-44.23 -165.88,-103.28 -9.6,-8.3 -10.64,-22.81 -2.34,-32.41 8.3,-9.6 22.81,-10.64 32.41,-2.34 86.74,74.98 152.46,97.45 179.45,103.95 19.48,-15.48 38.7,-31.11 57.61,-46.81 -42.52,-20.19 -146.25,-75.86 -233.29,-174.07 -8.4,-9.49 -7.51,-24 1.98,-32.41 9.5,-8.4 24.01,-7.51 32.41,1.98 105.09,118.57 235.67,170.64 236.04,170.79 0.65,0.27 1.27,0.56 1.88,0.88 15.38,-13.11 30.52,-26.22 45.42,-39.29zm933.02 34.12c33.73,-18.62 131.2,-75.86 222.71,-162.79 9.19,-8.75 23.75,-8.39 32.5,0.81 8.75,9.19 8.39,23.75 -0.81,32.5 -83.8,79.61 -172.62,135.47 -216.96,161.11 19.06,15.9 38.44,31.74 58.09,47.45 0.89,-0.07 1.8,-0.1 2.73,-0.06 0.17,0 61.14,3.83 156.29,-84.63 9.3,-8.65 23.85,-8.13 32.51,1.17 8.65,9.29 8.12,23.85 -1.17,32.5 -58.38,54.27 -108.33,78.2 -142.25,88.72 125.57,96.52 260.64,184.87 395.18,244.16 8.81,-203.73 51.72,-393.29 94.33,-581.55 84.88,-375.04 168.53,-744.81 -37.65,-1195.3 -104.82,138.78 -190.69,206.98 -295.4,290.13 -71.69,56.93 -152.55,121.14 -254.1,220.52 -110.99,108.62 -217.28,223.38 -303.24,316.17 -73.95,79.84 -134.19,144.88 -177.41,179.27 23.13,20.23 52.05,48.99 87.03,83.8 66.56,66.2 157.18,156.32 262.74,251.43 40.13,-29.46 142.11,-108.84 214.37,-204.43 7.65,-10.14 22.09,-12.16 32.23,-4.51 10.14,7.66 12.16,22.1 4.51,32.24 -71.2,94.2 -169.62,173.18 -216.07,207.95 16.31,14.4 32.93,28.87 49.84,43.34zm-414.8 -900.1l162.95 159.18c70.62,-75.62 149.12,-158.14 228.01,-235.35 106.02,-103.74 188.65,-169.36 261.9,-227.54 105.64,-83.9 191.1,-151.77 296.71,-297.31 1.69,-2.67 3.63,-5.24 5.78,-7.72 2.79,-3.23 5.81,-6.09 9.02,-8.61 1.9,-78.17 5.67,-272.39 -2.33,-322.47 -107,104.6 -632.08,617.52 -962.04,939.82zm-305.5 159.17l162.95 -159.17c-329.95,-322.3 -855.03,-835.22 -962.04,-939.82 -8,50.08 -4.23,244.3 -2.33,322.47 3.21,2.52 6.23,5.38 9.02,8.61 2.15,2.48 4.09,5.05 5.78,7.72 105.6,145.53 191.05,213.41 296.69,297.3 73.27,58.18 155.9,123.8 261.92,227.55 78.89,77.21 157.39,159.73 228.01,235.34zm234.23 -89.55l-166.4 162.54 10.54 11.38c93.28,100.71 151.03,173.48 155.86,173.48 4.83,0 62.58,-72.79 155.87,-173.5l10.52 -11.36 -166.39 -162.54zm1023.34 1249.17c-367.44,-154.4 -737.17,-522.14 -922.7,-706.69 -49.34,-49.07 -78.6,-84.77 -90.69,-96.83 -3.58,1.08 -6.9,1.64 -9.95,1.64 -3.13,0 -6.53,-0.59 -10.21,-1.72 -12.03,11.97 -41.29,47.71 -90.73,96.9 -185.45,184.51 -555.03,552.18 -922.42,706.62l0.05 4.1 0 0.4c-0.6,194.04 -7.2,447.43 -31.23,679.81 -17.79,172.11 -45.24,333.76 -87,453.81 -187.13,537.87 -292.21,1046.18 -357.24,1563.62 -65.36,520.21 -90.26,1047.68 -117.08,1623.09 -46.92,1006.88 -113.57,1794.86 -179.38,2573.01 -36.98,437.26 -73.71,871.45 -106.05,1331.46 -1.4,19.89 32.88,54.98 99.07,95.92 66.72,41.29 162.24,82 284.33,112.89 117.83,29.8 269.32,22.86 433.71,15.34 143.77,-6.58 297.09,-13.6 451.08,2.24 101.83,10.48 204.35,54.66 310.97,100.62 121.31,52.29 248.33,107.04 373.11,109.57 130.34,2.63 263.01,-42.38 396.01,-87.51 106.93,-36.28 214.09,-72.64 326.17,-87.08 127.73,-16.44 258.72,-9.04 382.61,-2.05 143.52,8.1 277.04,15.64 372.22,-16.47 126.44,-42.67 227.11,-89.43 293.67,-137.48 53.29,-38.47 81.82,-74.63 79.62,-105.99 -32.33,-459.92 -69.06,-894.04 -106.03,-1331.21 -65.82,-778.25 -132.48,-1566.28 -179.41,-2573.26 -26.81,-575.41 -51.71,-1102.88 -117.08,-1623.09 -65.02,-517.44 -170.1,-1025.75 -357.23,-1563.62 -41.77,-120.04 -69.21,-281.68 -87,-453.8 -24.03,-232.38 -30.63,-485.78 -31.23,-679.82l0 -0.4 0.04 -4.02z"/>
 </g>
</svg>
