<svg width="164" height="164" viewBox="0 0 164 164" fill="none" xmlns="http://www.w3.org/2000/svg">
<path d="M88.2631 156.746C129.51 153.121 160.065 116.741 156.511 75.4884C152.957 34.2359 116.64 3.73254 75.3933 7.35735C34.1468 10.9822 3.59097 47.3625 7.14487 88.615C10.6988 129.868 47.0166 160.37 88.2631 156.746Z" fill="#D9D9D9"/>
<path d="M88.2631 156.746C129.51 153.121 160.065 116.741 156.511 75.4884C152.957 34.2359 116.64 3.73254 75.3933 7.35735C34.1468 10.9822 3.59097 47.3625 7.14487 88.615C10.6988 129.868 47.0166 160.37 88.2631 156.746Z" fill="url(#paint0_linear_178_2006)"/>
<path d="M87.5494 148.437C50.9318 151.655 18.6086 124.507 15.4536 87.8841C12.2985 51.261 39.4934 18.8823 76.1111 15.6643C112.728 12.4463 145.052 39.5944 148.207 76.2176C151.362 112.84 124.167 145.219 87.5494 148.437ZM76.3967 18.9798C41.608 22.0371 15.7711 52.799 18.7686 87.5928C21.766 122.386 52.4751 148.179 87.2638 145.122C122.052 142.064 147.889 111.302 144.892 76.5089C141.894 41.715 111.147 15.9259 76.3967 18.9798Z" fill="#796295"/>
<path d="M156.473 75.4917C160.026 116.726 129.492 153.122 88.225 156.749C46.9586 160.376 10.6972 129.85 7.14487 88.615C3.59254 47.3807 34.127 10.9839 75.3933 7.35735C116.659 3.73081 152.956 34.216 156.511 75.4884L156.473 75.4917ZM15.8707 87.8481C19.0093 124.28 51.0841 151.221 87.5113 148.019C123.938 144.818 150.925 112.688 147.786 76.2552C144.647 39.8227 112.572 12.8832 76.1451 16.0844C39.718 19.2857 12.732 51.4156 15.8707 87.8481Z" fill="url(#paint1_linear_178_2006)"/>
<path d="M87.5494 148.437C50.9318 151.655 18.6086 124.507 15.4536 87.8841C12.2985 51.261 39.4934 18.8823 76.1111 15.6643C112.728 12.4463 145.052 39.5944 148.207 76.2176C151.362 112.84 124.167 145.219 87.5494 148.437ZM76.3967 18.9798C41.608 22.0371 15.7711 52.799 18.7686 87.5928C21.766 122.386 52.4751 148.179 87.2638 145.122C122.052 142.064 147.889 111.302 144.892 76.5089C141.894 41.715 111.147 15.9259 76.3967 18.9798Z" fill="url(#paint2_linear_178_2006)"/>
<path d="M29.5979 94.8692L28.5714 83.0315L30.9926 82.8201L32.0192 94.6578L29.5979 94.8692ZM41.3614 81.9148L43.7826 81.7034L44.8278 93.7563L44.0207 93.8267L36.535 87.1071L37.1509 94.2097L34.7297 94.4211L33.6845 82.3682L34.4737 82.2993L41.9742 88.9815L41.3614 81.9148ZM54.147 80.7985L56.5682 80.5871L57.6134 92.6399L56.8064 92.7104L49.3206 85.9908L49.9366 93.0934L47.5154 93.3048L46.4702 81.2519L47.2593 81.183L54.7598 87.8652L54.147 80.7985ZM65.9153 91.9151C62.436 92.2189 59.4079 89.8087 59.1062 86.3291C58.8045 82.8496 61.3721 79.9508 64.8515 79.647C68.3309 79.3432 71.3948 81.7503 71.6965 85.2298C71.9982 88.7094 69.3947 91.6113 65.9153 91.9151ZM65.7389 89.6715C67.909 89.4821 69.4026 87.7433 69.2036 85.4475C69.006 83.1696 67.234 81.6979 65.0638 81.8874C62.8578 82.08 61.4016 83.8336 61.5991 86.1114C61.7982 88.4072 63.5329 89.8642 65.7389 89.6715ZM80.398 78.5064L83.1241 78.2684L78.8964 90.7817L78.0894 90.8522L71.7534 79.2612L74.4974 79.0216L78.0788 85.9376L80.398 78.5064ZM91.9712 89.4232L91.1739 87.9387L86.3315 88.3615L85.8016 89.9619L83.2011 90.189L87.4467 77.6741L88.2538 77.6037L94.5718 89.1962L91.9712 89.4232ZM90.1583 86.0214L88.2332 82.1595L87.0018 86.297L90.1583 86.0214ZM97.512 88.9395L96.6752 79.29L92.891 79.6204L92.7012 77.4322L102.709 76.5584L102.899 78.7466L99.0965 79.0786L99.9332 88.7281L97.512 88.9395ZM105.331 88.2568L104.304 76.4191L106.726 76.2077L107.752 88.0454L105.331 88.2568ZM116.077 87.5354C112.598 87.8392 109.57 85.429 109.268 81.9494C108.966 78.4698 111.534 75.5711 115.013 75.2673C118.493 74.9635 121.556 77.3706 121.858 80.8501C122.16 84.3297 119.556 87.2316 116.077 87.5354ZM115.901 85.2918C118.071 85.1024 119.564 83.3636 119.365 81.0678C119.168 78.7899 117.396 77.3182 115.226 77.5077C113.02 77.7003 111.563 79.4539 111.761 81.7317C111.96 84.0275 113.695 85.4844 115.901 85.2918ZM131.054 74.0836L133.475 73.8722L134.52 85.9251L133.713 85.9956L126.227 79.2759L126.843 86.3785L124.422 86.5899L123.377 74.537L124.166 74.4681L131.666 81.1503L131.054 74.0836Z" fill="#221D1E"/>
<defs>
<linearGradient id="paint0_linear_178_2006" x1="75.3932" y1="7.35736" x2="88.5198" y2="156.723" gradientUnits="userSpaceOnUse">
<stop stop-color="#FFFAF2"/>
<stop offset="1" stop-color="#F1DDB7"/>
</linearGradient>
<linearGradient id="paint1_linear_178_2006" x1="7.7784" y1="95.9688" x2="157.28" y2="84.439" gradientUnits="userSpaceOnUse">
<stop stop-color="#FFFAF2"/>
<stop offset="1" stop-color="#F1DDB7"/>
</linearGradient>
<linearGradient id="paint2_linear_178_2006" x1="15.4536" y1="87.8841" x2="148.226" y2="76.4458" gradientUnits="userSpaceOnUse">
<stop stop-color="#BCA587"/>
<stop offset="0.07" stop-color="#B8A284"/>
<stop offset="0.08" stop-color="#FFF8EF"/>
<stop offset="0.21" stop-color="#DAC5A5"/>
<stop offset="0.34" stop-color="#AB8F76"/>
<stop offset="0.66" stop-color="#735B42"/>
<stop offset="0.74" stop-color="#A58B6E"/>
<stop offset="0.91" stop-color="#B79A7A"/>
<stop offset="1" stop-color="#8F7E61"/>
</linearGradient>
</defs>
</svg>
