<svg width="1182" height="136" viewBox="0 0 1182 136" fill="none" xmlns="http://www.w3.org/2000/svg">
<g clip-path="url(#clip0)">
<path d="M483.3 3.20029V1.80029H475.3H457.4H449.4V3.10029C453 3.70029 457.3 6.30029 457.4 12.4003V122.3C457.3 128.3 453 131 449.4 131.6V132.9H457.4H462H470.7H475.3H483.3V131.6C479.7 131 475.4 128.4 475.3 122.3V12.4003C475.4 6.40029 479.7 3.70029 483.3 3.20029Z" fill="#F4EAE3"/>
<path d="M900.6 3.20029V1.80029H892.6H874.7H866.7V3.10029C870.3 3.70029 874.6 6.30029 874.7 12.4003V122.3C874.6 128.3 870.3 131 866.7 131.6V132.9H874.7H879.3H888H892.6H900.6V131.6C897 131 892.7 128.4 892.6 122.3V12.4003C892.7 6.40029 897 3.70029 900.6 3.20029Z" fill="#F4EAE3"/>
<path d="M1133.7 22.8003C1147.8 10.1003 1166.9 4.40029 1171 3.20029V1.80029H1132.6V3.10029C1142.4 4.70029 1141.7 11.4003 1132.6 22.7003H1133.7V22.8003Z" fill="#F4EAE3"/>
<path d="M1087.4 122.3V12.4003C1087.5 6.40029 1091.8 3.70029 1095.4 3.10029V1.80029H1087.4H1069.5H1061.5V3.10029C1065.1 3.70029 1069.4 6.30029 1069.5 12.4003V122.3C1069.4 128.3 1065.1 131 1061.5 131.6V132.9H1069.5H1074.1H1082.8H1087.4H1095.4V131.6C1091.7 131 1087.4 128.3 1087.4 122.3Z" fill="#F4EAE3"/>
<path d="M1163.2 120.9L1099.4 59.4004L1091.3 67.8004L1149.3 124.5L1149.1 124.3C1151.3 128.7 1146.8 131.4 1144.7 131.5V132.8H1158.1H1158.9H1169.5H1176H1182.1V131.5C1176.6 130.9 1169 126.3 1163.2 120.9Z" fill="#F4EAE3"/>
<path d="M419.7 122.3C414.9 133.6 404.9 129.8 400.7 112C400.5 111.2 397 99.1999 396.8 98.3999C390.7 76.9999 376.8 70.2999 363.6 70.2999C363.6 70.2999 350.5 70.2999 343.6 70.2999H320.1V4.7999H359.4C364.7 4.7999 388.4 4.7999 388.4 37.5999C388.4 63.6999 372.3 67.4999 372.3 67.4999C372.3 67.4999 372.8 67.9999 376.3 67.9999C379.8 67.9999 405.7 63.6999 405.7 37.3999C405.7 4.7999 378.8 1.8999 359.4 1.8999H320.1H316.2H306.8H302.2H294.2V3.1999C297.8 3.7999 302.1 6.3999 302.2 12.4999V122.4C302.1 128.4 297.8 131.1 294.2 131.7V133H302.2H306.8H315.5H320.1H328.1V131.7C324.5 131.1 320.2 128.5 320.1 122.4V73.1999H346.6C354.9 73.1999 373.1 71.6999 377.5 91.3999C377.7 92.4999 382.5 110.9 382.7 111.9C385.7 124.1 392.4 135 405.5 135C419.7 135 421.1 122.3 421.1 122.3H419.7Z" fill="#F4EAE3"/>
<path d="M1045.6 110.2C1045.6 110.2 1045.5 110.1 1045.4 110.1C1045.3 110.1 1045.2 110.1 1045.1 110.2H1044.4C1043.9 113.5 1039.9 127.1 1027.9 129.6H1025.6H1023.9H973V12.4003C973.1 6.40029 977.4 3.70029 981 3.10029V1.80029H980.1C980.1 1.60029 979.9 1.50029 979.7 1.50029H978L952.4 1.30029H950.6H949.4H947.6C947.4 1.30029 947.3 1.40029 947.2 1.60029C947.2 1.70029 947.2 1.80029 947.3 1.80029H947.2V3.10029C949.4 3.40029 951.9 4.60029 953.5 6.80029C954.1 8.00029 954.4 9.40029 954.6 11.0003C954.8 12.9003 954.9 14.7003 954.9 16.4003C954.9 44.8003 954.9 77.8003 954.9 110C954.9 113.6 954.7 117.3 954.5 120.9C954.1 126.3 952.8 130 947.6 131.4C947.5 131.4 947.4 131.4 947.3 131.5V132.8H955.3H959.9H961.9H973H1045.6V132V130V110.5V110.3V110.2Z" fill="#F4EAE3"/>
<path d="M29.5 110.4H28.4C19.3 126.6 4 130.4 0 131.6V132.9H38.4V131.6C25.2 129.8 27.8 119.3 29.5 110.4Z" fill="#F4EAE3"/>
<path d="M139.3 120L80.3 1.80029H79L71.5 20.5003L99.5 76.3003H45L43.6 79.2003H101L123.7 124.4C125.7 128.7 121.3 131.3 119.2 131.4V132.7H127.8H133.3H141.1H145.7H153.7V131.4C148.2 130.9 142.8 125.8 139.3 120Z" fill="#F4EAE3"/>
<path d="M260.7 1.80029H259.5H246V3.20029C250.5 3.70029 253.2 8.50029 250.7 12.6003L215.6 70.4003L180.8 13.2003C178.4 9.20029 182.1 3.80029 186.6 3.30029V1.80029H174H173.1H156.6H156.1H144V3.20029C150.6 3.80029 159.9 8.70029 163.6 14.3003L201.3 76.4003V122.5C201.2 128.4 196.9 131.1 193.3 131.6V132.9H201.3H205.9H214.6H219.2H227.2V131.6C223.6 131 219.2 128.3 219.2 122.2V70.6003L253.6 14.1003C257.4 8.60029 266.5 3.80029 273.1 3.20029V1.80029H260.7Z" fill="#F4EAE3"/>
<path d="M633 95.9001C630.7 75.3001 618.5 69.8001 600 62.8001C580.5 55.5001 541.6 52.0001 542.3 29.0001C543 6.7001 563.1 3.1001 572.8 3.1001C587.8 3.1001 602.4 10.2001 612.5 18.2001C619.4 23.7001 621.6 31.7001 621.6 31.7001H622.9V3.1001H621.5C621.5 3.1001 619.9 19.1001 612 14.1001C600.6 6.9001 586.2 0.100098 572.5 0.100098C549.7 0.100098 528.5 6.8001 524.9 28.9001C522.1 46.5001 534 59.6001 551.6 65.4001C562.3 69.0001 569.1 70.5001 579.5 73.5001C606.5 81.9001 612.9 89.8001 615.1 102.8C616.9 113.3 609.3 132 581.5 132C575.4 131.7 558.8 130.5 535.5 114.9C528.6 109.4 526.4 101.4 526.4 101.4H525.1V130H526.5C526.5 130 528.1 114 536 119C538.4 120.5 541 122 543.7 123.4C552.3 128.1 566.6 134.6 581.7 135.1C619.7 135.1 635.2 115.8 633 95.9001Z" fill="#F4EAE3"/>
<path d="M829.7 95.9001C827.4 75.3001 815.2 69.8001 796.7 62.8001C777.2 55.5001 738.3 52.0001 739 29.0001C739.7 6.6001 759.8 3.1001 769.5 3.1001C784.5 3.1001 799.1 10.2001 809.2 18.2001C816.1 23.7001 818.3 31.7001 818.3 31.7001H819.6V3.1001H818.2C818.2 3.1001 816.6 19.1001 808.7 14.1001C797.3 6.9001 782.9 0.100098 769.2 0.100098C746.4 0.100098 725.2 6.8001 721.6 28.9001C718.8 46.5001 730.7 59.6001 748.3 65.4001C759 69.0001 765.8 70.5001 776.2 73.5001C803.2 81.9001 809.6 89.8001 811.8 102.8C813.6 113.3 806 132 778.2 132C772.1 131.7 755.5 130.5 732.2 114.9C725.3 109.4 723.1 101.4 723.1 101.4H721.8V130H723.2C723.2 130 724.8 114 732.7 119C735.1 120.5 737.7 122 740.4 123.4C749 128.1 763.3 134.6 778.4 135.1C816.4 135.1 831.9 115.8 829.7 95.9001Z" fill="#F4EAE3"/>
</g>
<defs>
<clipPath id="clip0">
<rect width="1182" height="135.1" fill="white"/>
</clipPath>
</defs>
</svg>
