<svg id="Слой_1" data-name="Слой 1" xmlns="http://www.w3.org/2000/svg" viewBox="0 0 393.18 45.45">
    <defs>
        <style>
            .cls-1 {
                opacity: 0.8;
            }
            .cls-2 {
                fill: #3c3c3b;
            }
        </style>
    </defs>
    <title>logo grey</title>
    <g class="cls-1"><path class="cls-2" d="M172.64,11.29v-.44H161.41v.44a3,3,0,0,1,2.64,3.07V50.87a3,3,0,0,1-2.64,3.07v.44h11.23v-.44A3,3,0,0,1,170,50.87V14.36A3,3,0,0,1,172.64,11.29Z" transform="translate(-11.82 -9.95)"/><path
        class="cls-2"
        d="M172.93,54.67H161.12v-1l.24,0a2.69,2.69,0,0,0,2.4-2.79V14.36a2.69,2.69,0,0,0-2.4-2.78l-.24,0v-1h11.81v1l-.25,0a2.69,2.69,0,0,0-2.39,2.79v36.5a2.68,2.68,0,0,0,2.39,2.78l.25,0ZM162,54.09h10a3.24,3.24,0,0,1-2.33-3.22V14.36A3.24,3.24,0,0,1,172,11.14H162a3.25,3.25,0,0,1,2.33,3.22V50.87A3.25,3.25,0,0,1,162,54.09Z"
        transform="translate(-11.82 -9.95)"/><path class="cls-2" d="M311.23,11.29v-.44H300v.44a3,3,0,0,1,2.65,3.07V50.87A3,3,0,0,1,300,53.94v.44h11.23v-.44a3,3,0,0,1-2.64-3.07V14.36A3,3,0,0,1,311.23,11.29Z" transform="translate(-11.82 -9.95)"/><path
        class="cls-2"
        d="M311.52,54.67h-11.8v-1l.24,0a2.7,2.7,0,0,0,2.4-2.79V14.36a2.7,2.7,0,0,0-2.4-2.78l-.24,0v-1h11.8v1l-.24,0a2.7,2.7,0,0,0-2.4,2.79v36.5a2.7,2.7,0,0,0,2.4,2.78l.24,0Zm-10.92-.58h10a3.26,3.26,0,0,1-2.34-3.22V14.36a3.25,3.25,0,0,1,2.33-3.22h-10a3.23,3.23,0,0,1,2.32,3.22V50.87A3.24,3.24,0,0,1,300.6,54.09Z"
        transform="translate(-11.82 -9.95)"/><path class="cls-2" d="M388.66,17.8c4.69-4.21,11-6.11,12.38-6.52v-.43H388.29v.45c3.26.53,3,2.76,0,6.5Z" transform="translate(-11.82 -9.95)"/><path
        class="cls-2"
        d="M388.77,18.09h-1.08l.38-.47c1.83-2.27,2.57-3.91,2.2-4.87-.22-.59-.9-1-2-1.17l-.24,0v-1h13.32v.94l-.21.06A32.79,32.79,0,0,0,388.86,18Zm.17-6.95a2.48,2.48,0,0,1,1.87,1.4c.38,1-.07,2.37-1.36,4.22a34.23,34.23,0,0,1,11.08-5.62Z"
        transform="translate(-11.82 -9.95)"/><path class="cls-2" d="M373.28,50.87V14.36a3,3,0,0,1,2.64-3.07v-.44H364.69v.44a3,3,0,0,1,2.65,3.07V50.87a3,3,0,0,1-2.65,3.07v.44h11.23v-.44A3,3,0,0,1,373.28,50.87Z" transform="translate(-11.82 -9.95)"/><path
        class="cls-2"
        d="M376.21,54.67h-11.8v-1l.24,0a2.7,2.7,0,0,0,2.4-2.79V14.36a2.7,2.7,0,0,0-2.4-2.78l-.24,0v-1h11.8v1l-.24,0a2.7,2.7,0,0,0-2.4,2.79V50.86a2.7,2.7,0,0,0,2.4,2.79l.24,0Zm-10.92-.58h10A3.26,3.26,0,0,1,373,50.87V14.36a3.25,3.25,0,0,1,2.33-3.22h-10a3.23,3.23,0,0,1,2.32,3.22V50.87A3.24,3.24,0,0,1,365.29,54.09Z"
        transform="translate(-11.82 -9.95)"/><path class="cls-2" d="M398.46,50.39,377.28,30l-2.71,2.78L393.84,51.6l-.08-.06c.74,1.45-.76,2.35-1.45,2.4v.44h12.4v-.44C402.9,53.72,400.39,52.19,398.46,50.39Z" transform="translate(-11.82 -9.95)"/><path
        class="cls-2"
        d="M405,54.67H392v-1l.28,0a1.75,1.75,0,0,0,1.23-.81,1.18,1.18,0,0,0,0-1.15L374.17,32.76l3.1-3.19,21.39,20.61c2,1.88,4.46,3.28,6.09,3.47l.25,0Zm-12.13-.58H404a14.54,14.54,0,0,1-5.74-3.49h0l-21-20.22L375,32.75,394,51.4h0a1.72,1.72,0,0,1,0,1.71A2.37,2.37,0,0,1,392.87,54.09Z"
        transform="translate(-11.82 -9.95)"/><path
        class="cls-2"
        d="M151.51,50.86c-1.58,3.76-4.9,2.49-6.3-3.44-.07-.26-1.23-4.25-1.3-4.5-2-7.12-6.65-9.34-11-9.34H118.43V11.82h13c1.77,0,9.62,0,9.62,10.89,0,8.69-5.34,9.93-5.34,9.93s.18.16,1.33.16,9.78-1.43,9.78-10.16c0-10.83-8.93-11.8-15.39-11.8H109.84v.45a3,3,0,0,1,2.64,3.07V50.87a3,3,0,0,1-2.64,3.07v.44h11.23v-.44a3,3,0,0,1-2.64-3.07V34.54h8.78c2.75,0,8.81-.49,10.28,6.06.07.35,1.64,6.46,1.73,6.79,1,4,3.23,7.68,7.58,7.68A4.91,4.91,0,0,0,152,50.85Z"
        transform="translate(-11.82 -9.95)"/><path
        class="cls-2"
        d="M146.8,55.36c-4.87,0-7-4.29-7.86-7.9,0-.11-.22-.85-.46-1.8-.52-2-1.22-4.76-1.28-5-1.32-5.92-6.6-5.87-9.44-5.83h-9v16a2.68,2.68,0,0,0,2.39,2.78l.25,0v1H109.55v-1l.24,0a2.69,2.69,0,0,0,2.4-2.79V14.36a2.7,2.7,0,0,0-2.4-2.79l-.24,0v-1h21.92c7.3,0,15.67,1.38,15.67,12.09,0,8.63-8.4,10.45-10.06,10.45a3.25,3.25,0,0,1-1.52-.23l-.41-.37.54-.13c.21,0,5.11-1.32,5.11-9.65,0-4.84-1.62-10.6-9.33-10.6H118.72V33.29h14.15c3.21,0,9,1.24,11.31,9.55l.2.68c.55,1.89,1.06,3.65,1.11,3.84.74,3.12,2.13,5.21,3.55,5.33.87.05,1.65-.62,2.21-1.94l.07-.18h1l0,.33A5.24,5.24,0,0,1,146.8,55.36ZM128.45,34.24c3.1,0,8,.39,9.32,6.3,0,.23.78,3.09,1.27,5,.24.95.43,1.7.46,1.8.85,3.41,2.8,7.46,7.3,7.46a4.53,4.53,0,0,0,4.74-3.29A2.76,2.76,0,0,1,149,53.27c-1.7-.14-3.26-2.36-4.06-5.78-.05-.2-.76-2.63-1.1-3.8l-.2-.7c-2.14-7.54-7-9.12-10.76-9.12H118.14V11.53h13.33c6.39,0,9.91,4,9.91,11.18,0,6.48-3,8.94-4.57,9.8h.27c1.56,0,9.49-1.71,9.49-9.87,0-10.2-8.07-11.51-15.1-11.51h-21a3.26,3.26,0,0,1,2.33,3.23V50.87a3.25,3.25,0,0,1-2.34,3.22h10a3.24,3.24,0,0,1-2.33-3.22V34.25h10.31Z"
        transform="translate(-11.82 -9.95)"/><path
        class="cls-2"
        d="M359.39,46.83s0,0-.06,0a.11.11,0,0,0-.1,0H359c-.17,1.09-1.49,5.6-5.49,6.44H335.3V14.36a3,3,0,0,1,2.64-3.07v-.44h-.28a.12.12,0,0,0-.12-.1h-.6l-8.51-.07h-1.6a.12.12,0,0,0-.12.1.19.19,0,0,0,0,.08h0v.44a3.15,3.15,0,0,1,2.09,1.24,4.22,4.22,0,0,1,.36,1.4,16,16,0,0,1,.1,1.79c0,9.44,0,20.39,0,31.08,0,1.21-.05,2.42-.15,3.61-.14,1.81-.57,3-2.28,3.51h0l-.11,0v.44h32.72V46.83Z"
        transform="translate(-11.82 -9.95)"/><path
        class="cls-2"
        d="M359.71,54.67H326.42v-1l.36,0c1.52-.45,1.9-1.53,2-3.24.1-1.18.15-2.39.15-3.59,0-10.69,0-21.64,0-31.08,0-.54,0-1.14-.09-1.76a4.48,4.48,0,0,0-.34-1.31,2.88,2.88,0,0,0-1.87-1.07l-.25,0v-1h.08a.4.4,0,0,1,.33-.18h1.6l9.11.07a.39.39,0,0,1,.27.11h.42v1l-.24,0a2.69,2.69,0,0,0-2.4,2.79V53h17.9c3.57-.76,5-4.83,5.21-6.19l0-.25h.41a.39.39,0,0,1,.24,0l.33,0Zm-32.5-.58h31.93V47.45c-.4,1.46-1.78,5.3-5.59,6.1H335V14.36a3.27,3.27,0,0,1,2.36-3.23V11h-.43L327.88,11h-.75l.09.15A3.35,3.35,0,0,1,329,12.36a4.69,4.69,0,0,1,.42,1.54c.06.64.1,1.26.1,1.82,0,9.44,0,20.39,0,31.08,0,1.22-.05,2.45-.15,3.63C329.25,52.2,328.81,53.51,327.21,54.09Z"
        transform="translate(-11.82 -9.95)"/><path class="cls-2" d="M21.92,46.91h-.36a15,15,0,0,1-9.45,7v.44H24.86v-.45C20.5,53.36,21.34,49.87,21.92,46.91Z" transform="translate(-11.82 -9.95)"/><path
        class="cls-2"
        d="M25.14,54.67H11.82v-.94l.41-.12a14.61,14.61,0,0,0,9.07-6.85l.09-.14h.88l-.12.65c-.38,1.9-.77,3.86.13,5.1a3.58,3.58,0,0,0,2.61,1.28l.25,0Zm-12.51-.58H24.11a3.71,3.71,0,0,1-2.3-1.38c-1-1.35-.66-3.32-.31-5.14A15.14,15.14,0,0,1,12.63,54.09Z"
        transform="translate(-11.82 -9.95)"/><path class="cls-2" d="M58.38,50.1,38.79,10.84h-.43l-2.49,6.22L45.16,35.6H27.05l-.45,1h19l7.53,15c.66,1.41-.8,2.3-1.48,2.34v.44H63.16v-.44C61.35,53.72,59.54,52,58.38,50.1Z" transform="translate(-11.82 -9.95)"/><path
        class="cls-2"
        d="M63.45,54.67h-12v-1l.27,0a1.78,1.78,0,0,0,1.22-.79,1.16,1.16,0,0,0,0-1.14L45.47,36.87H26.15l.72-1.55H44.69L35.55,17.08l2.62-6.53H39L58.63,50c1,1.64,2.73,3.47,4.56,3.69l.26,0Zm-11.2-.58H62.49a8.62,8.62,0,0,1-4.36-3.84L38.61,11.13h0l-2.38,5.92,9.45,18.84H27.24l-.19.4H45.83l7.6,15.18a1.7,1.7,0,0,1,0,1.68A2.34,2.34,0,0,1,52.25,54.09Z"
        transform="translate(-11.82 -9.95)"/><path
        class="cls-2"
        d="M98.72,10.84H93.85v.45a2.06,2.06,0,0,1,1.57,3.11L83.75,33.59l-11.54-19h0c-.81-1.33.43-3.12,1.91-3.29v-.45H60v.45A10.11,10.11,0,0,1,66.5,15L79,35.6V50.9a3,3,0,0,1-2.64,3v.44H87.62v-.44A3,3,0,0,1,85,50.83V33.7L96.39,14.93a10.16,10.16,0,0,1,6.49-3.64v-.45Z"
        transform="translate(-11.82 -9.95)"/><path
        class="cls-2"
        d="M87.91,54.67H76.1v-1l.25,0a2.69,2.69,0,0,0,2.39-2.75V35.69L66.26,15.13A9.83,9.83,0,0,0,60,11.58l-.26,0v-1H74.41v1l-.26,0a2.32,2.32,0,0,0-1.71,1.26,1.62,1.62,0,0,0,0,1.59L83.75,33,95.17,14.25a1.72,1.72,0,0,0,.09-1.67,1.81,1.81,0,0,0-1.44-1l-.26,0v-1h9.61v1l-.26,0a10,10,0,0,0-6.28,3.51L85.27,33.78v17a2.7,2.7,0,0,0,2.4,2.82l.24,0ZM77,54.09H87a3.24,3.24,0,0,1-2.34-3.26V33.62L96.14,14.78a10.48,10.48,0,0,1,5.92-3.65H94.43a2.41,2.41,0,0,1,1.35,1.2,2.28,2.28,0,0,1-.11,2.22L83.75,34.15,72,14.73a2.2,2.2,0,0,1,0-2.14,2.89,2.89,0,0,1,1.62-1.46H60.81a10.3,10.3,0,0,1,5.93,3.69l12.58,20.7V50.9A3.24,3.24,0,0,1,77,54.09Z"
        transform="translate(-11.82 -9.95)"/><path
        class="cls-2"
        d="M222.35,42.09c-.76-6.86-4.82-8.67-11-11-6.46-2.44-19.37-3.59-19.14-11.22.22-7.43,6.92-8.6,10.13-8.6,5,0,9.85,2.36,13.2,5a9.5,9.5,0,0,1,3,4.48H219V11.26h-.45s-.52,5.31-3.16,3.64c-3.8-2.38-8.57-4.66-13.13-4.66-7.58,0-14.62,2.23-15.8,9.56-.94,5.85,3,10.19,8.86,12.12,3.54,1.19,5.81,1.68,9.25,2.7,9,2.79,11.09,5.43,11.84,9.74.61,3.49-1.91,9.69-11.15,9.69-2-.1-7.53-.5-15.28-5.68a9.5,9.5,0,0,1-3-4.48h-.43V53.4H187s.52-5.31,3.16-3.64c.81.51,1.66,1,2.54,1.48,2.84,1.56,7.61,3.71,12.62,3.87C217.94,55.11,223.09,48.7,222.35,42.09Z"
        transform="translate(-11.82 -9.95)"/><path
        class="cls-2"
        d="M205.32,55.4a29.52,29.52,0,0,1-12.76-3.91c-.89-.48-1.75-1-2.55-1.48a1.19,1.19,0,0,0-1.21-.19c-1,.49-1.43,2.77-1.51,3.61l0,.26h-1V43.59h1l0,.21a9.28,9.28,0,0,0,2.93,4.33c5.23,3.49,10.32,5.39,15.12,5.62,5.08,0,7.76-1.91,9.1-3.51a7.38,7.38,0,0,0,1.76-5.84c-.72-4.13-2.72-6.74-11.64-9.52l-3.48-1c-1.83-.5-3.55-1-5.78-1.72-6.47-2.14-9.94-6.9-9.05-12.44,1.3-8.1,9.46-9.8,16.08-9.8,3.83,0,8.3,1.58,13.29,4.7a1.18,1.18,0,0,0,1.2.19c1-.49,1.43-2.77,1.52-3.61l0-.26h1V21.06h-1l0-.21a9.29,9.29,0,0,0-2.93-4.34c-1.89-1.48-6.94-5-13-5-2.25,0-9.61.6-9.84,8.33-.17,5.63,7.16,7.6,13.63,9.34,2,.53,3.81,1,5.33,1.6,6.43,2.42,10.38,4.39,11.15,11.23h0A10.44,10.44,0,0,1,220,50.3C218,52.63,213.72,55.4,205.32,55.4ZM189.2,49.15a2.06,2.06,0,0,1,1.11.37c.8.5,1.65,1,2.53,1.46a28.81,28.81,0,0,0,12.49,3.84c8.18,0,12.28-2.66,14.28-4.9a9.74,9.74,0,0,0,2.46-7.8h0c-.75-6.64-4.59-8.41-10.79-10.75-1.48-.56-3.32-1.06-5.27-1.58C199.67,28.08,191.77,26,192,19.87c.13-4.29,2.93-8.88,10.42-8.88,6.27,0,11.45,3.55,13.38,5.07a9.79,9.79,0,0,1,3,4.24V12.1c-.2,1-.68,2.75-1.71,3.26a1.74,1.74,0,0,1-1.77-.22c-4.89-3.06-9.26-4.62-13-4.62-6.39,0-14.28,1.62-15.51,9.32-.84,5.24,2.48,9.76,8.66,11.8,2.22.75,3.93,1.22,5.75,1.72,1.09.29,2.21.6,3.5,1,9.21,2.87,11.28,5.61,12,10a8,8,0,0,1-1.89,6.31c-1.42,1.7-4.24,3.72-9.55,3.72-4.93-.24-10.12-2.17-15.44-5.73a9.72,9.72,0,0,1-3-4.25v8.19c.2-1,.68-2.74,1.71-3.25A1.52,1.52,0,0,1,189.2,49.15Z"
        transform="translate(-11.82 -9.95)"/><path
        class="cls-2"
        d="M287.69,42.09c-.76-6.86-4.82-8.67-11-11-6.46-2.44-19.37-3.59-19.14-11.22.22-7.43,6.92-8.6,10.13-8.6,5,0,9.85,2.36,13.2,5a9.5,9.5,0,0,1,3,4.48h.43V11.26h-.45s-.52,5.31-3.16,3.64c-3.8-2.38-8.57-4.66-13.13-4.66-7.58,0-14.63,2.23-15.8,9.56-.94,5.85,3,10.19,8.86,12.12,3.54,1.19,5.81,1.68,9.25,2.7,9,2.79,11.09,5.43,11.84,9.74.61,3.49-1.92,9.69-11.15,9.69-2-.1-7.53-.5-15.28-5.68a9.5,9.5,0,0,1-3-4.48h-.44V53.4h.46s.52-5.31,3.16-3.64c.8.51,1.66,1,2.54,1.48,2.84,1.56,7.61,3.71,12.62,3.87C283.28,55.11,288.43,48.7,287.69,42.09Z"
        transform="translate(-11.82 -9.95)"/><path
        class="cls-2"
        d="M270.66,55.4a29.52,29.52,0,0,1-12.76-3.91c-.89-.48-1.75-1-2.56-1.48a1.18,1.18,0,0,0-1.2-.19c-1,.49-1.43,2.77-1.52,3.61l0,.26h-1V43.59h1l0,.21a9.28,9.28,0,0,0,2.93,4.33c5.22,3.49,10.32,5.39,15.12,5.62,5.08,0,7.75-1.91,9.1-3.51a7.38,7.38,0,0,0,1.76-5.84c-.72-4.13-2.72-6.74-11.64-9.52-1.28-.38-2.4-.68-3.49-1-1.82-.5-3.54-1-5.77-1.72-6.47-2.14-9.94-6.9-9.05-12.44,1.29-8.1,9.46-9.8,16.08-9.8,3.83,0,8.3,1.58,13.28,4.7a1.19,1.19,0,0,0,1.21.19c1-.49,1.43-2.77,1.52-3.61l0-.26h1V21.06h-.95l-.05-.21a9.29,9.29,0,0,0-2.93-4.34c-1.89-1.48-6.95-5-13-5-2.25,0-9.61.6-9.85,8.33-.16,5.63,7.17,7.6,13.64,9.34,2,.53,3.81,1,5.32,1.6,6.44,2.42,10.39,4.39,11.16,11.23h0a10.44,10.44,0,0,1-2.6,8.24C283.3,52.63,279.06,55.4,270.66,55.4Zm-16.12-6.25a2.06,2.06,0,0,1,1.11.37c.8.49,1.64,1,2.53,1.46a28.81,28.81,0,0,0,12.49,3.84c8.18,0,12.28-2.66,14.28-4.9a9.75,9.75,0,0,0,2.46-7.8h0c-.75-6.64-4.59-8.41-10.79-10.75-1.49-.56-3.32-1.06-5.27-1.58C265,28.08,257.1,26,257.29,19.87c.13-4.29,2.93-8.88,10.42-8.88,6.27,0,11.45,3.55,13.38,5.07a9.64,9.64,0,0,1,3,4.24V12.11c-.19,1-.67,2.74-1.71,3.25a1.72,1.72,0,0,1-1.76-.22c-4.89-3.06-9.26-4.62-13-4.62-6.4,0-14.28,1.62-15.52,9.32-.84,5.24,2.49,9.76,8.67,11.8,2.22.75,3.93,1.22,5.75,1.71,1.09.3,2.21.61,3.49,1,9.22,2.87,11.29,5.61,12.05,10a8,8,0,0,1-1.89,6.31c-1.42,1.7-4.24,3.72-9.55,3.72-4.93-.24-10.12-2.17-15.44-5.73a9.72,9.72,0,0,1-3-4.25v8.2c.2-1,.68-2.75,1.71-3.26A1.52,1.52,0,0,1,254.54,49.15Z"
        transform="translate(-11.82 -9.95)"/>
    </g>
</svg>
