<svg id="Слой_1" data-name="Слой 1" xmlns="http://www.w3.org/2000/svg" viewBox="0 0 100 43"><defs><style>.cls-1{fill:#3c3c3b;}</style></defs><title>1</title><g id="gEiMoT"><path class="cls-1" d="M11.42,18.14a3.89,3.89,0,0,1,2.65-1.95,2.69,2.69,0,0,1,3.24,1.43,3,3,0,0,1,.22,1.05c0,3.24,0,6.48,0,9.78H13.62V20.78a1.25,1.25,0,0,0-.74-1.29,1,1,0,0,0-1.25.22,1.84,1.84,0,0,0-.43,1.05c0,2.35,0,4.71,0,7.06v.65H7.3V27c0-2.07,0-4.14,0-6.21a1.27,1.27,0,0,0-.87-1.31A1.1,1.1,0,0,0,5.1,20a1.78,1.78,0,0,0-.19.86q0,3.5,0,7v.67H1.21c0-.18,0-.36,0-.55,0-3.18,0-6.37,0-9.55a.69.69,0,0,1,.43-.75C2.69,17.1,3.75,16.54,4.89,16v2.32c.36-.4.63-.7.9-1a3.72,3.72,0,0,1,3.57-1.13A2.34,2.34,0,0,1,11,17.37C11.13,17.59,11.25,17.83,11.42,18.14Z"/><path class="cls-1" d="M71.91,20.74c-.16-2.51-1.19-3.2-3.94-2.68,0-.44,0-.88,0-1.31a.52.52,0,0,1,.28-.35,6.28,6.28,0,0,1,5.37.32,3.9,3.9,0,0,1,1.87,2.73c.41,2,.76,4,1.14,6l.09.5c.07.5.22.93.8,1v1.47c-1.39.11-2.73.18-3.74-1.11a4.07,4.07,0,0,1-3.54,1.35,3.67,3.67,0,0,1-3.37-2.61,3.71,3.71,0,0,1,1.64-4.19,18.37,18.37,0,0,1,2.86-1A5,5,0,0,1,71.91,20.74Zm.32,1.9a3.09,3.09,0,0,0-2,2.06A1.69,1.69,0,0,0,71,26.42a1.37,1.37,0,0,0,1.64-.1.86.86,0,0,0,.26-.65C72.68,24.68,72.46,23.71,72.23,22.64Z"/><path class="cls-1" d="M23,20.69c.05-2.16-1.21-3-3.91-2.51,0-.44,0-.87,0-1.3a.48.48,0,0,1,.25-.31c1.66-.74,4.79-.76,6.32,1.05a6,6,0,0,1,1.18,2.91c.36,1.88.68,3.76,1,5.65.08.47.21.89.8.92v1.47c-1.41.17-2.75.16-3.75-1.09a4.14,4.14,0,0,1-4.51,1.14,3.29,3.29,0,0,1-2.49-3,3.45,3.45,0,0,1,1.71-3.58A27.67,27.67,0,0,1,23,20.69Zm.35,2.06a3.17,3.17,0,0,0-2,2,1.59,1.59,0,0,0,1.67,2c.54-.07,1-.47,1-.83C23.83,24.87,23.6,23.85,23.37,22.75Z"/><path class="cls-1" d="M45.08,24c.8,2.67,1.82,3.57,5.22,2.29,0,.53,0,1,0,1.52a.52.52,0,0,1-.27.32c-1.87.88-5.11,1.08-7-.65A6.77,6.77,0,0,1,41,21.8a6.56,6.56,0,0,1,1.79-4.31,5,5,0,0,1,8.14,1.62,23.52,23.52,0,0,1,.65,2.4c.1.38-.16.44-.42.53l-5.66,1.84ZM45,22.24c1.05-.31,2-.59,3-.9a.46.46,0,0,0,.24-.4,12.21,12.21,0,0,0-.63-2,1.12,1.12,0,0,0-1.21-.66,1.25,1.25,0,0,0-1,.86A6.56,6.56,0,0,0,45,22.24Z"/><path class="cls-1" d="M92.8,24c.8,2.67,1.82,3.57,5.22,2.29,0,.53,0,1,0,1.52,0,.11-.15.26-.27.32-1.87.88-5.11,1.08-7-.65A6.72,6.72,0,0,1,88.7,21.8a6.51,6.51,0,0,1,1.79-4.31,5,5,0,0,1,8.13,1.62,21.19,21.19,0,0,1,.65,2.4c.11.38-.15.44-.41.53L93.2,23.88C93.07,23.92,93,24,92.8,24Zm-.11-1.8c1-.31,2-.59,3-.9a.47.47,0,0,0,.25-.4,14.58,14.58,0,0,0-.63-2,1.13,1.13,0,0,0-1.21-.66,1.23,1.23,0,0,0-1,.86A6.43,6.43,0,0,0,92.69,22.24Z"/><path class="cls-1" d="M66.34,12.05V28.44H62.58v-.62q0-6.6,0-13.19a.82.82,0,0,1,.52-.87c.88-.43,1.74-.92,2.61-1.38C65.89,12.27,66.09,12.18,66.34,12.05Z"/><path class="cls-1" d="M62.19,26.41v.82c0,1.17,0,1.15-1.17,1.42a5.59,5.59,0,0,1-4.81-.83,5.37,5.37,0,0,1-2-3.49,8,8,0,0,1,1-6.12,5.46,5.46,0,0,1,6.53-1.84.55.55,0,0,1,.28.41c0,.54,0,1.09,0,1.7-.43-.14-.78-.28-1.13-.38a2,2,0,0,0-2.55,1.12,7.38,7.38,0,0,0-.17,5.65,2.74,2.74,0,0,0,3.57,1.67Z"/><path class="cls-1" d="M32.91,28.53H29.13c0-.21,0-.39,0-.58,0-3.17,0-6.33,0-9.5a.76.76,0,0,1,.46-.8c1.09-.57,2.15-1.17,3.31-1.8v2c.93-1.36,2-2.4,3.84-1.84l-.65,2.82c-.42,0-.83,0-1.24,0A1.83,1.83,0,0,0,33,20.54,10.39,10.39,0,0,0,32.92,22c0,2,0,3.91,0,5.86Z"/><path class="cls-1" d="M86.08,28.52H82.3c0-.2,0-.39,0-.57,0-3.17,0-6.34,0-9.51a.76.76,0,0,1,.46-.8c1.09-.56,2.15-1.16,3.31-1.79v2a16.64,16.64,0,0,1,1.62-1.63A2.39,2.39,0,0,1,89.88,16c-.11.5-.22.95-.33,1.41s-.21.92-.33,1.42c-.41,0-.83,0-1.24,0a1.81,1.81,0,0,0-1.77,1.62A9.76,9.76,0,0,0,86.09,22c0,1.95,0,3.9,0,5.86Z"/><path class="cls-1" d="M81.78,15.85V28.48H78c0-.2,0-.38,0-.56,0-3.17,0-6.33,0-9.5a.75.75,0,0,1,.48-.78C79.53,17.08,80.6,16.49,81.78,15.85Z"/><path class="cls-1" d="M40.43,15.86V28.48H36.65c0-.19,0-.37,0-.55,0-3.17,0-6.33,0-9.49a.79.79,0,0,1,.47-.8C38.19,17.08,39.28,16.48,40.43,15.86Z"/><path class="cls-1" d="M40.66,13.34a2.17,2.17,0,0,1-2.27,2.23,2.08,2.08,0,0,1-2.14-2.15,2.28,2.28,0,0,1,2.29-2.26A2.1,2.1,0,0,1,40.66,13.34Z"/><path class="cls-1" d="M82,13.25a2.14,2.14,0,0,1-2.29,2.19,2.07,2.07,0,0,1-2.09-2.19A2.27,2.27,0,0,1,79.94,11,2.06,2.06,0,0,1,82,13.25Z"/></g></svg>