<svg xmlns="http://www.w3.org/2000/svg">
	<defs>
		<style>
		.img { display: none }
		.img:target { display: inline }
		</style>
	</defs>
    <svg viewBox="0 0 26 27">
        <path id="email" class="img" d="M12.8 0C5.7 0 0 5.7 0 12.8C0 19.9 5.7 25.6 12.8 25.6C19.9 25.6 25.6 19.9 25.6 12.8C25.6 5.7 19.9 0 12.8 0ZM8.2 7.9H17.3C17.7 7.9 18.2 8 18.5 8.3L13.3 13C13 13.2 12.6 13.2 12.3 13L7.1 8.3C7.4 8.1 7.8 7.9 8.2 7.9ZM19.6 15.5C19.6 16.7 18.6 17.7 17.4 17.7H8.2C7 17.7 6 16.7 6 15.5V10.1C6 9.7 6.2 9.3 6.3 9L11.6 13.7C11.9 14 12.3 14.1 12.8 14.1C13.2 14.1 13.6 14 14 13.7L19.3 9C19.5 9.3 19.6 9.7 19.6 10.1V15.5Z" fill="#C0A89B"/>
    </svg>
    <svg viewBox="0 0 26 26">
        <path id="phone" class="img" d="M12.8 0.600098C5.7 0.600098 0 6.4001 0 13.4001C0 20.5001 5.7 26.2001 12.8 26.2001C19.9 26.2001 25.6 20.5001 25.6 13.4001C25.6 6.4001 19.9 0.600098 12.8 0.600098ZM18.7 19.2001C18.1 19.5001 17.5 19.6001 16.9 19.6001C15.8 19.6001 14.7 19.3001 13.7 18.8001C11.4 17.6001 9.6 16.0001 8.2 13.8001C7.7 13.1001 7.4 12.4001 7 11.6001C6.5 10.5001 6.3 9.3001 6.7 8.1001C6.9 7.3001 7.5 6.7001 8.2 6.3001C8.5 6.2001 8.7 6.1001 9 6.1001C9.3 6.1001 9.5 6.2001 9.8 6.2001C10.2 6.3001 10.5 6.5001 10.7 7.0001C10.9 7.8001 11.2 8.7001 11.4 9.5001C11.5 9.9001 11.4 10.3001 11.1 10.6001C10.9 10.8001 10.7 11.0001 10.4 11.3001C10.1 11.6001 10.1 11.9001 10.3 12.2001C10.5 12.5001 10.8 12.9001 11 13.2001C11.8 14.2001 12.7 15.1001 13.8 15.8001C14.3 16.2001 14.6 16.2001 15 15.7001C15.2 15.5001 15.4 15.3001 15.5 15.2001C15.8 14.9001 16.1 14.8001 16.5 14.9001C17.3 15.1001 18.2 15.3001 19 15.6001C19.4 15.7001 19.7 16.0001 19.8 16.5001C19.8 16.6001 19.8 16.7001 19.8 16.7001C20.2 17.7001 19.7 18.6001 18.7 19.2001Z" fill="#C0A89B"/>
    </svg>
    <svg viewBox="0 0 22 14" fill="none">
        <path id="up" class="img" d="M1 13L11 2L21 13" stroke="#C0A89B" stroke-width="2"/>
    </svg>
	<svg viewBox="0 0 12 14" fill="none">
		<path id="check" class="img" d="M11.9999 0.330709C10.6414 1.87402 9.50936 3.6378 8.6037 5.51181C7.58483 7.27559 6.79238 9.14961 6.11313 11.0236L5.09426 14L3.96219 11.1339C3.16974 8.92914 1.69804 6.72441 -0.113281 4.85039L-7.3716e-05 4.62992C1.132 5.29134 2.26408 6.06299 3.16974 7.05512C4.1886 7.93701 5.09426 8.92913 5.88672 10.1417L4.0754 10.252C4.98106 8.26772 6.11313 6.50394 7.47162 4.74016C8.71691 2.97638 10.1886 1.43307 11.7735 0L11.9999 0.330709Z" fill="#A79285"/>
	</svg>
</svg>
