<svg width="15" height="9" viewBox="0 0 15 9" fill="none" xmlns="http://www.w3.org/2000/svg">
<path d="M3.61888 6.50876C5.36117 8.2389 7.33759 8.12548 7.33759 8.12548H8.23562C8.23562 8.12548 8.50806 8.09625 8.64625 7.95354C8.7729 7.82187 8.76907 7.57685 8.76907 7.57685C8.76907 7.57685 8.74988 6.43191 9.31018 6.26003C9.85893 6.09543 10.5689 7.36834 11.3173 7.85844C11.8852 8.22792 12.315 8.14744 12.315 8.14744L14.3145 8.12184C14.3145 8.12184 15.3622 8.05962 14.8671 7.27688C14.8249 7.21108 14.5793 6.69531 13.3781 5.63456C12.1232 4.52262 12.292 4.70184 13.8041 2.7815C14.7251 1.61103 15.0935 0.897735 14.9784 0.590487C14.8671 0.297917 14.1917 0.374697 14.1917 0.374697L11.9352 0.389313C11.9352 0.389313 11.7663 0.367358 11.6435 0.436862C11.5206 0.506367 11.4439 0.66733 11.4439 0.66733C11.4439 0.66733 11.087 1.57446 10.6111 2.34258C9.60563 3.96665 9.20655 4.05441 9.04151 3.95197C8.66162 3.71786 8.7537 3.00827 8.7537 2.50355C8.7537 0.92703 9.00312 0.27226 8.2663 0.100382C8.02071 0.0454935 7.8403 0.0052839 7.21476 0.00158287C6.40888 -0.00569374 5.72958 0.00528391 5.34198 0.184502C5.08485 0.305193 4.88913 0.572232 5.00813 0.586848C5.1578 0.605165 5.49547 0.674607 5.67206 0.905075C5.90228 1.20498 5.89462 1.87801 5.89462 1.87801C5.89462 1.87801 6.02893 3.73254 5.5838 3.96295C5.28056 4.12027 4.86228 3.79834 3.96808 2.32427C3.50759 1.57076 3.16219 0.733133 3.16219 0.733133C3.16219 0.733133 3.09695 0.575871 2.97799 0.495389C2.83215 0.393014 2.63259 0.36372 2.63259 0.36372L0.491166 0.378336C0.491166 0.378336 0.1688 0.385675 0.0498332 0.520983C-0.0576223 0.634397 0.0421552 0.879481 0.0421552 0.879481C0.0421552 0.879481 1.71923 4.62135 3.61888 6.50876Z" fill="#F6ECE5"/>
</svg>
