<svg id="Слой_1" data-name="Слой 1" xmlns="http://www.w3.org/2000/svg" viewBox="0 0 100 43"><defs><style>.cls-1{fill:#3c3c3b;}</style></defs><title>1</title><g id="clQR2T"><path class="cls-1" d="M29.16,12.85h4.72l5,18h.05q0-9,0-18h6L47.44,24h0Q48.74,18.4,50,12.85h6V31.1c-.14,0-4.08,0-4.35,0V21.45h0l-2.24,9.68h-4l-2.23-9.71h0v9.7H34.29l-.93-3.38H29.21l-.87,3.38H15.26V12.87c.14,0,4-.06,4.48,0,0,.68,0,1.35,0,2V27.17c.49,0,1,0,1.45,0h2.91v3.7h0ZM30,24.28c.41,0,2.42,0,2.57,0l-1.27-4.7h0Z"/><path class="cls-1" d="M96.16,23.5C97.1,26,98.05,28.56,99,31.12H94.45L92,24.5H90v6.62H85.63c0-.14-.07-17.7,0-18.27h.14c2.49,0,5,0,7.45,0a6.4,6.4,0,0,1,2.72.58,4.6,4.6,0,0,1,2.66,3.29A6.88,6.88,0,0,1,98.26,21a5.3,5.3,0,0,1-1.91,2.38l-.16.11S96.18,23.48,96.16,23.5ZM90,16.37v4.57h1.31c.38,0,.76,0,1.14,0a1.79,1.79,0,0,0,1.69-1.19,3.24,3.24,0,0,0,.06-2.15,1.57,1.57,0,0,0-1.31-1.17,4.76,4.76,0,0,0-.66-.06H90Z"/><path class="cls-1" d="M71,21.9a16.06,16.06,0,0,1-.36,3.52,9.14,9.14,0,0,1-1.18,3,6,6,0,0,1-4.18,2.81,8.24,8.24,0,0,1-3.63-.15,5.92,5.92,0,0,1-3.94-3.34,10.61,10.61,0,0,1-.89-3,19.34,19.34,0,0,1-.18-3.88,13.06,13.06,0,0,1,.75-4A7.07,7.07,0,0,1,59,14.36a5.88,5.88,0,0,1,3-1.67,8.33,8.33,0,0,1,2.39-.16,7.58,7.58,0,0,1,2.11.4,5.77,5.77,0,0,1,3,2.45,8.73,8.73,0,0,1,1.12,2.88A14.39,14.39,0,0,1,71,20.62C71,21.05,71,21.47,71,21.9Zm-4.75-.24c0-.32,0-.65,0-1a12.25,12.25,0,0,0-.19-1.92,4.88,4.88,0,0,0-.43-1.34,1.8,1.8,0,0,0-1.29-1,3.66,3.66,0,0,0-.66,0,1.84,1.84,0,0,0-1.65,1,4,4,0,0,0-.21.47,7.32,7.32,0,0,0-.41,1.91,25.3,25.3,0,0,0-.1,2.61,13.87,13.87,0,0,0,.25,2.73,4.29,4.29,0,0,0,.5,1.39,1.76,1.76,0,0,0,1.11.85,2.53,2.53,0,0,0,.48.08,1.86,1.86,0,0,0,1.94-1,3.93,3.93,0,0,0,.24-.56,7.09,7.09,0,0,0,.34-1.66A19.39,19.39,0,0,0,66.28,21.66Z"/><path class="cls-1" d="M14.49,18.33l-4.25.81c0-.15-.05-.29-.08-.43a5.22,5.22,0,0,0-.34-1.23,1.67,1.67,0,0,0-1.46-1.05,2.78,2.78,0,0,0-.91,0,1.81,1.81,0,0,0-1.26.94,4.62,4.62,0,0,0-.5,1.45,15,15,0,0,0-.23,2.68,26.15,26.15,0,0,0,.08,2.65A7.86,7.86,0,0,0,5.88,26a4,4,0,0,0,.25.56,1.77,1.77,0,0,0,1.23.91,3.52,3.52,0,0,0,1.55,0,1.71,1.71,0,0,0,1.28-1.09,5.14,5.14,0,0,0,.28-1.88H7.8V21.07c.14,0,6.23-.06,6.65,0,0,.14,0,9.86,0,10.07H12.09l-.51-1.66-.08.06a4.47,4.47,0,0,1-2.74,1.67,6.9,6.9,0,0,1-3.38-.09,5.27,5.27,0,0,1-2.61-1.78,8.07,8.07,0,0,1-1.43-2.89,14.14,14.14,0,0,1-.43-2.32,20.78,20.78,0,0,1,0-3.7,13.4,13.4,0,0,1,.6-3.2,8,8,0,0,1,1.23-2.38,5.7,5.7,0,0,1,3-2,8.55,8.55,0,0,1,2.85-.29,7.38,7.38,0,0,1,2.13.41,5.2,5.2,0,0,1,3,2.69,8.53,8.53,0,0,1,.78,2.64A.23.23,0,0,1,14.49,18.33Z"/><path class="cls-1" d="M84.83,12.86v.21c0,4.07,0,8.13,0,12.2a7.83,7.83,0,0,1-.27,2.21,4.93,4.93,0,0,1-3.23,3.42,8.09,8.09,0,0,1-2.28.45,10.43,10.43,0,0,1-2.84-.18,6.28,6.28,0,0,1-2.43-1,4.92,4.92,0,0,1-1.89-2.75,6.29,6.29,0,0,1-.23-1.67V12.87c.14,0,4.24,0,4.52,0V24.91a4.52,4.52,0,0,0,.11,1.16,1.65,1.65,0,0,0,.82,1.18,2.06,2.06,0,0,0,.8.24,3.4,3.4,0,0,0,1.27-.1,1.62,1.62,0,0,0,1.11-1.09,3.1,3.1,0,0,0,.16-1c0-1.28,0-2.57,0-3.86V12.87C80.61,12.83,84.51,12.82,84.83,12.86Z"/></g></svg>