<svg width="78" height="75" viewBox="0 0 78 75" fill="none" xmlns="http://www.w3.org/2000/svg">
<g clip-path="url(#clip0)">
<path d="M23.6004 74.3L23.1004 74.1L22.9004 66.3L23.4004 66.5L23.5004 68.7L27.3004 70.3L28.9004 68.8L29.4004 69L23.6004 74.3ZM23.5004 69.2L23.6004 73.6L26.9004 70.6L23.5004 69.2Z" fill="#3C3C3B"/>
<path d="M19.3 67.2L19.4 72.4L18.9 72V67.4L14.5 69L14 68.7L18.9 66.9L20.5 64.6L20.9 64.9L19.3 67.2Z" fill="#3C3C3B"/>
<path d="M12.1002 66.9L10.1002 64.7C9.5002 64.1 9.2002 63.4 9.3002 62.8C9.3002 62.3 9.5002 61.9 9.9002 61.5C10.8002 60.7 11.8002 60.9 12.8002 61.6L13.4002 57.9L13.8002 58.4L13.2002 62L14.8002 63.7L16.9002 61.7L17.3002 62.1L12.1002 66.9ZM12.8002 62.3C12.0002 61.4 11.0002 61.2 10.2002 61.9C9.5002 62.5 9.6002 63.5 10.4002 64.4L12.0002 66.2L14.3002 64.1L12.8002 62.3Z" fill="#3C3C3B"/>
<path d="M6.8 60.6L6.5 60.2L12.3 56.3L12.6 56.7L6.8 60.6Z" fill="#3C3C3B"/>
<path d="M10.4 55.4L9.9 55.3C10.2 54.3 10.2 53.5 9.7 52.6C9.2 51.7 8.4 51.3 7.7 51.6C7 51.9 6.8 52.4 7.2 54C7.6 55.7 7.4 56.5 6.5 57C5.6 57.5 4.4 57 3.9 55.8C3.5 54.9 3.4 54.2 3.6 53.3L4.1 53.4C3.9 54.2 4 54.9 4.3 55.6C4.8 56.5 5.6 56.9 6.3 56.5C7 56.2 7.2 55.6 6.8 54C6.4 52.4 6.6 51.5 7.5 51.1C8.5 50.6 9.6 51.1 10.2 52.3C10.7 53.4 10.7 54.3 10.4 55.4Z" fill="#3C3C3B"/>
<path d="M6.79975 46.6L6.39975 46.3C6.99975 45.5 7.19975 44.7 6.99975 43.7C6.79975 42.7 6.09975 42 5.29975 42.2C4.59975 42.3 4.19975 42.8 4.19975 44.4C4.09975 46.1 3.69975 46.9 2.59975 47.1C1.59975 47.3 0.59975 46.5 0.39975 45.2C0.19975 44.2 0.39975 43.5 0.79975 42.7L1.29975 43C0.79975 43.7 0.69975 44.4 0.89975 45.2C1.09975 46.2 1.79975 46.8 2.49975 46.7C3.19975 46.6 3.59975 46.1 3.69975 44.4C3.79975 42.7 4.19975 42 5.29975 41.8C6.39975 41.6 7.29975 42.4 7.59975 43.8C7.69975 44.8 7.39975 45.7 6.79975 46.6Z" fill="#3C3C3B"/>
<path d="M0 39.9V39.4L7 39.2V39.7L0 39.9Z" fill="#3C3C3B"/>
<path d="M0 36.4L0.1 35.9L6.6 36.6L7 32.5L7.5 32.6L7 37.2L0 36.4Z" fill="#3C3C3B"/>
<path d="M1.09961 29.1L1.29961 28.6L5.69961 30L2.69961 24.3L2.89961 23.6L4.89961 27.5L9.59961 25.7L9.39961 26.3L5.09961 28L6.19961 30.2L7.89961 30.8L7.69961 31.3L1.09961 29.1Z" fill="#3C3C3B"/>
<path d="M8.7002 20.5L13.3002 14.5L13.7002 14.8L9.1002 20.8L8.7002 20.5Z" fill="#3C3C3B"/>
<path d="M17.1002 10.8C16.1002 9.19997 16.4002 6.99997 18.2002 5.89997C20.0002 4.79997 22.1002 5.49997 23.1002 7.09997C24.1002 8.69997 23.8002 10.9 22.0002 12C20.2002 13.1 18.2002 12.4 17.1002 10.8ZM22.7002 7.29997C21.8002 5.79997 20.0002 5.29997 18.5002 6.19997C17.0002 7.09997 16.7002 8.99997 17.6002 10.5C18.5002 12 20.3002 12.5 21.8002 11.6C23.3002 10.7 23.6002 8.79997 22.7002 7.29997Z" fill="#3C3C3B"/>
<path d="M28.0996 8.6L28.1996 8.1C28.2996 8.1 28.5996 8.1 28.8996 8.1C29.3996 8 30.2996 7.4 29.2996 2.6L28.9996 1.4L33.1996 0.5L34.6996 7.3L34.1996 7.4L32.7996 1L29.5996 1.7L29.7996 2.6C30.8996 7.6 29.9996 8.4 28.9996 8.6C28.6996 8.6 28.2996 8.6 28.0996 8.6Z" fill="#3C3C3B"/>
<path d="M38.7004 3.8L37.1004 3.7L36.9004 7H36.4004L36.8004 0H37.3004L37.1004 3.2L38.7004 3.3C38.9004 1.4 40.3004 0 42.2004 0.2C44.1004 0.3 45.3004 2 45.2004 4C45.1004 6 43.7004 7.5 41.7004 7.4C39.8004 7.3 38.7004 5.8 38.7004 3.8ZM44.7004 4C44.8004 2.2 43.8004 0.8 42.2004 0.7C40.6004 0.6 39.4004 1.9 39.3004 3.7C39.2004 5.5 40.2004 6.9 41.8004 7C43.4004 7.1 44.6004 5.8 44.7004 4Z" fill="#3C3C3B"/>
<path d="M48.7004 1.5L53.3004 3L53.1004 3.5L49.0004 2.1L48.2004 4.4L50.4004 5.2C51.8004 5.7 52.6004 6.6 52.2004 7.9C51.8004 9.2 50.7004 9.6 49.2004 9.1L46.4004 8.1L48.7004 1.5ZM49.2004 8.6C50.4004 9 51.3004 8.8 51.6004 7.7C52.0004 6.8 51.4004 6 50.2004 5.6L48.0004 4.9L47.0004 7.8L49.2004 8.6Z" fill="#3C3C3B"/>
<path d="M56.3998 4.5L58.8998 6C60.0998 6.7 60.4998 7.8 59.8998 8.7C59.3998 9.5 58.5998 9.6 57.9998 9.5C58.5998 10.1 58.9998 10.9 58.4998 11.8C57.8998 12.8 56.5998 12.9 55.3998 12.1L52.7998 10.5L56.3998 4.5ZM55.6998 11.7C56.6998 12.3 57.6998 12.3 58.0998 11.5C58.4998 10.8 58.1998 9.9 56.9998 9.2L54.9998 8L53.4998 10.4L55.6998 11.7ZM57.1998 8.7C58.0998 9.2 58.9998 9.2 59.4998 8.4C59.8998 7.7 59.5998 7 58.6998 6.4L56.6998 5.2L55.2998 7.5L57.1998 8.7Z" fill="#3C3C3B"/>
<path d="M63.5996 9.29999L63.9996 9.69999L59.5996 14.2L67.1996 12.9L67.5996 13.3L62.6996 18.3L62.2996 17.9L66.6996 13.4L58.9996 14.6L58.5996 14.2L63.5996 9.29999Z" fill="#3C3C3B"/>
<path d="M71.6998 18.9L71.8998 19.4L67.7998 21.5L73.8998 23.4L74.1998 24L69.9998 22.7L67.9998 27.3L67.6998 26.7L69.4998 22.5L67.0998 21.8L65.4998 22.6L65.2998 22.1L71.6998 18.9Z" fill="#3C3C3B"/>
<path d="M72.7002 30.3C74.7002 30 76.5003 31.2 76.8003 33.2C77.0003 34.4 76.6002 35.2 76.1002 36L75.7002 35.7C76.2002 35 76.5003 34.2 76.3003 33.2C76.0003 31.5 74.5002 30.5 72.7002 30.8C71.0002 31.1 69.8002 32.6 70.1002 34.2C70.3002 35.2 70.8002 35.8 71.6002 36.4L71.3003 36.8C70.5003 36.2 69.9002 35.5 69.7002 34.2C69.3002 32.3 70.7002 30.6 72.7002 30.3Z" fill="#3C3C3B"/>
<path d="M77.0998 38.6L76.7998 43.6H76.2998L76.5998 39.1L73.8998 39L73.6998 43H73.1998L73.3998 39L70.5998 38.8L70.2998 43.3H69.7998L70.0998 38.3L77.0998 38.6Z" fill="#3C3C3B"/>
<path d="M76.4005 46.5L75.1005 51.2L74.6005 51.1L75.8005 46.9L73.4005 46.2L72.8005 48.5C72.4005 49.9 71.6005 50.8 70.2005 50.4C68.9005 50 68.4005 49 68.8005 47.5L69.6005 44.6L76.4005 46.5ZM69.3005 47.5C69.0005 48.7 69.2005 49.6 70.3005 49.9C71.3005 50.2 71.9005 49.6 72.3005 48.3L72.9005 46.1L69.9005 45.3L69.3005 47.5Z" fill="#3C3C3B"/>
<path d="M73.8002 54.4L71.5002 58.8L71.1002 58.6L73.2002 54.6L70.8002 53.3L68.8002 57L68.4002 56.8L70.2002 53.2L67.7002 51.9L65.6002 55.9L65.2002 55.7L67.5002 51.2L73.8002 54.4Z" fill="#3C3C3B"/>
</g>
<defs>
<clipPath id="clip0">
<rect width="77.1" height="74.3" fill="white"/>
</clipPath>
</defs>
</svg>
