<svg id="Слой_1" data-name="Слой 1" xmlns="http://www.w3.org/2000/svg" viewBox="0 0 100 43"><defs><style>.cls-1{fill:#3c3c3b;}</style></defs><title>1</title><g id="jUyZqJ"><path class="cls-1" d="M80.12,31.1V12.45h-.91v-.26l.13,0c1.78,0,3.57,0,5.35,0a8.62,8.62,0,0,1,2.9.49,2.75,2.75,0,0,1,1.73,1.49,2.49,2.49,0,0,1,.07,1.74,2.58,2.58,0,0,1-.84,1.34c-.29.25-.58.49-.88.71a4.57,4.57,0,0,1-1.6.73l-.24.07,4,12.35h.88v.24c-.13,0-4.64.05-4.87,0v-.24c.32,0,.63,0,1,0l-1.8-6q-.9-3-1.81-6l.2,0a5.23,5.23,0,0,0,2.83-1.39,3,3,0,0,0,.91-1.71,2.64,2.64,0,0,0-.39-1.79,3.94,3.94,0,0,0-2.1-1.66.65.65,0,0,0-.19,0H83.09V31.1h1v.26H79.25V31.1Z"/><path class="cls-1" d="M72.76,16.3H72.5V12.47c-.15,0-2.82,0-3,0v6.68a14,14,0,0,0,1.85,0c0-.36,0-.73,0-1.1s0-.73,0-1.1h.27v4.81h-.14l-.13,0V19.46H69.46V31.07c.13,0,2.72.05,3,0V27.24h.27v4.1c-.14,0-6.89.05-7.11,0v-.24h.81l0,0h0a.34.34,0,0,0,0-.1V12.51a.41.41,0,0,0,0-.07h-.83V12.2h7.11Z"/><path class="cls-1" d="M12,31.35v-.24h.84V12.47a19.82,19.82,0,0,0-2.06,0,1.27,1.27,0,0,0,0,.2c0,1.14,0,2.29,0,3.44v.2h-.26V12.2c.13,0,7.34,0,7.65,0V16.3h-.25V12.45H15.78V31.1h.84v.25H12Z"/><path class="cls-1" d="M39.85,12.45H37.77V16.3h-.26V12.2h7.65V16.3h-.25V12.47c-.15,0-1.73-.05-2.07,0h0v0s0,0,0,.08V31a.41.41,0,0,0,0,.07h.84v.26H39V31.1h.84Z"/><path class="cls-1" d="M57.09,12.19v.25h-.8l0,0h0a.17.17,0,0,0,0,.07V31a.14.14,0,0,0,0,.06h3c0-.21,0-.42,0-.63V27.24h.26v4.1c-.13,0-6.84.05-7.06,0v-.24c.26,0,.52,0,.77,0,0-.12,0-18.44,0-18.65h-.83V12.2C52.57,12.17,56.84,12.16,57.09,12.19Z"/><path class="cls-1" d="M27.41,11.56c.47,2.17.91,4.33,1.35,6.5s.89,4.34,1.34,6.51.89,4.34,1.34,6.53h.85v.26H27.63V31.1h.85l-1.26-6.67H25.39L24.12,31.1H25v.26H22.69v-.25h1Q25.54,21.33,27.41,11.56Zm-2,12.56a12.33,12.33,0,0,0,1.72,0c-.28-1.45-.55-2.9-.83-4.34,0,0,0,0,0-.05h0Z"/></g></svg>