<svg width="315" height="202" viewBox="0 0 315 202" fill="none" xmlns="http://www.w3.org/2000/svg">
<g clip-path="url(#clip0_165_689)">
<path d="M51.8492 92.1506C49.498 83.245 49.6612 72.7176 51.95 63.9224C53.1735 59.2297 55.136 54.7242 56.8202 50.1562C57.1081 49.3789 57.2904 48.7647 56.8586 47.9634C56.1292 46.5959 56.2588 45.1852 56.6426 43.6642C58.5955 35.9438 60.5484 28.2138 62.2758 20.4406C63.6961 14.0637 64.8045 7.62444 66.052 1.20917C66.1336 0.801319 66.2392 0.403054 66.3351 0" stroke="#3C3C3B" stroke-miterlimit="10"/>
<path d="M68.2876 82.7076C67.112 82.77 65.9316 82.9283 64.7609 82.8708C62.8799 82.7844 61.2246 83.0819 59.9818 84.6845C59.7131 85.0348 59.2093 85.2699 58.7678 85.409C56.4551 86.1432 54.9772 87.765 53.8064 89.7994C53.4562 90.4136 52.8324 90.8647 52.3958 91.4356C51.6856 92.3617 50.9755 93.2926 50.3613 94.2858C49.7471 95.2743 49.2481 96.3347 48.6963 97.3615" stroke="#3C3C3B" stroke-miterlimit="10"/>
<path d="M90.1339 68.332C89.3613 68.2505 85.0669 66.8494 84.4911 66.619C82.3175 65.7362 80.0767 64.9445 78.0614 63.7737C73.0137 60.8515 58.7436 51.8404 56.9971 48.2513" stroke="#3C3C3B" stroke-miterlimit="10"/>
<path d="M211.064 53.8509C210.305 54.0284 209.557 54.2491 208.789 54.3787C198.814 56.0725 188.8 57.4256 178.675 57.7327C176.415 57.7998 174.136 57.7759 171.886 57.5743C170.485 57.4448 169.122 56.8786 167.735 56.5475" stroke="#3C3C3B" stroke-miterlimit="10"/>
<path d="M94.8604 54.7434C95.0331 55.156 95.4697 55.6646 95.868 55.7558C104.347 57.6799 112.935 58.4716 121.337 55.8806C133.29 52.1907 145.372 52.2387 157.578 53.587" stroke="#3C3C3B" stroke-miterlimit="10"/>
<path d="M110.181 40.6605C107.964 42.7237 95.8099 44.3167 90.5078 43.3811" stroke="#3C3C3B" stroke-miterlimit="10"/>
<path d="M83.0234 20.3638C83.1098 25.4596 84.1127 30.421 85.5713 35.2624C86.6557 38.8707 87.5866 39.4225 91.8714 41.1067C96.0555 42.7525 100.34 42.3638 104.62 41.4762" stroke="#3C3C3B" stroke-miterlimit="10"/>
<path d="M90.5849 68.4568C91.4198 65.146 92.3075 59.3449 93.0656 56.0965C93.1807 55.5974 92.936 54.9833 92.7729 54.4507C90.9255 48.5488 89.7644 45.0701 87.8643 39.1874" stroke="#3C3C3B" stroke-miterlimit="10"/>
<path d="M231.399 135.695C230.223 137.513 227.944 140.037 226.836 141.75C226.706 141.683 226.567 141.577 226.437 141.51C226.677 141.016 228.064 139.74 228.333 139.265C228.755 138.507 229.182 137.739 229.667 137.019C230.07 136.419 230.161 135.796 229.518 135.445C228.981 135.153 228.256 134.98 227.661 135.071C226.97 135.177 226.553 135.714 226.922 136.539C227.023 136.76 227.047 137.086 226.96 137.307C226.802 137.72 226.533 138.089 226.313 138.478C225.986 138.238 225.646 138.003 225.334 137.744C225.219 137.652 225.161 137.489 225.003 137.245C224.249 139.202 225.694 140.023 226.673 141.165C226.572 141.242 226.533 141.434 226.433 141.51C225.012 140.627 223.597 139.745 222.177 138.857C222.22 138.751 222.263 138.641 222.301 138.535C222.911 138.771 223.525 139.006 224.149 139.25C224.221 137.019 224.221 137.019 227.603 134.174C225.617 133.008 223.679 131.871 221.735 130.738C219.139 129.222 216.519 127.749 213.957 126.175C212.926 125.542 211.971 125.153 210.81 125.753" stroke="#3C3C3B" stroke-width="0.5" stroke-miterlimit="10"/>
<path d="M229.432 120.753C226.025 124.088 217.733 125.278 214.567 122.773C213.88 123.291 213.161 123.834 212.249 124.52" stroke="#3C3C3B" stroke-miterlimit="10"/>
<path d="M234.384 118.296C235.262 119.481 237.853 123.733 238.534 125.028C241.269 130.254 242.752 135.892 243.774 141.664C246.063 154.629 245.645 167.603 243.923 180.587C242.733 189.584 240.823 198.437 238.496 207.203C238.386 207.616 238.347 208.048 238.28 208.47" stroke="#3C3C3B" stroke-miterlimit="10"/>
<path d="M229.432 120.753C230.003 120.177 231.466 120.196 231.783 119.99C234.23 118.407 236.672 116.799 239.11 115.201C239.537 114.923 251.067 105.562 251.484 105.269" stroke="#3C3C3B" stroke-miterlimit="10"/>
<path d="M48.7012 97.3567C46.1245 100.437 50.467 105.725 51.3498 106.905" stroke="#3C3C3B" stroke-miterlimit="10"/>
<path d="M219.869 74.2339C194.347 80.1166 168.129 86.076 142.756 91.9251C142.761 92.0306 142.761 92.1362 142.766 92.2418C144.963 93.1822 147.161 94.1275 149.354 95.0679C149.301 95.2071 149.248 95.351 149.195 95.4902C148.744 95.3366 148.279 95.2167 147.837 95.0295C135.328 89.8234 122.781 84.6989 109.864 80.582C104.936 79.0082 99.8883 77.7846 94.8597 76.5562C92.4222 75.9613 92.2974 76.1772 92.2639 78.6627C92.2399 80.1885 92.2879 81.7144 92.2447 83.2354C92.2207 84.0175 92.4318 84.4446 93.2811 84.5405C94.3127 84.6509 95.3347 84.8716 96.3136 85.0396C96.5007 83.936 96.6783 82.9187 96.851 81.9015C97.0285 81.9111 97.2109 81.9255 97.3884 81.9351C97.422 82.6212 97.542 83.3218 97.47 83.9983C97.3308 85.2939 98.0314 85.7449 99.135 85.7833C100.133 85.8217 101.025 85.7017 101.241 84.3822C101.357 83.6769 101.822 83.0339 102.134 82.3621C102.316 82.4197 102.499 82.4773 102.681 82.5349C102.547 83.1539 102.532 83.84 102.249 84.3822C101.731 85.3707 102.11 85.8601 103.007 86.1432C104.994 86.7717 106.995 87.3667 109.091 88.0049C109.35 86.7238 109.59 85.5386 109.83 84.3582C109.984 84.3822 110.137 84.4014 110.291 84.4254C110.632 85.5818 109.346 87.0884 110.872 87.9521C112.009 88.5951 113.242 89.0605 114.777 89.7611C114.437 88.1536 114.336 87.0308 115.9 86.5318C115.9 86.8581 115.943 87.098 115.895 87.3235C115.502 89.1469 115.507 89.2332 117.239 89.8618C118.414 90.2889 119.643 90.572 120.67 90.8695C121.293 90.0777 121.788 89.4492 122.287 88.8158C122.387 88.883 122.493 88.9454 122.594 89.0125C122.579 89.1661 122.603 89.334 122.55 89.4684C121.768 91.3829 121.783 91.4069 123.793 91.8915C123.961 91.9347 124.134 91.9683 124.302 92.0066C125.324 92.2178 126.399 92.7168 127.358 92.5584C128.193 92.4193 128.903 91.5316 129.729 90.9318C129.714 91.1142 129.757 91.3253 129.681 91.4692C128.831 92.9567 128.831 92.9327 130.544 93.3981C131.773 93.7292 132.982 94.1275 134.205 94.4969C134.191 94.6553 134.172 94.8088 134.157 94.9672C128.208 95.8548 122.258 96.7473 116.308 97.635C116.279 97.4527 116.25 97.2703 116.222 97.088C121.442 96.2915 126.663 95.4998 131.883 94.7033C131.893 94.6073 131.902 94.5161 131.912 94.4202C130.655 94.0411 129.407 93.6284 128.136 93.2926C125.962 92.7216 123.76 92.2562 121.596 91.6516C119.547 91.0806 117.512 89.8234 115.511 89.8954C113.333 89.977 111.822 89.1085 110.425 88.4127C109.566 88.4127 108.952 88.5567 108.439 88.3888C106.136 87.6306 103.866 86.7813 101.582 85.9656C101.501 85.9368 101.395 85.8553 101.342 85.8841C98.8519 87.1988 96.5871 85.5482 94.2455 85.2459C91.237 84.8572 91.5825 85.4858 91.6929 82.3046C91.9184 75.8269 92.2207 69.3541 92.6861 62.8908C92.8013 61.2978 94.0632 57.7854 93.1084 55.7174" stroke="#3C3C3B" stroke-width="0.5" stroke-miterlimit="10"/>
<path d="M223.727 81.7576C222.518 81.9159 221.98 81.7384 221.17 81.8391C219.25 82.0742 217.307 82.0934 215.373 82.2038C215.157 82.2182 214.932 82.2134 214.725 82.2614C212.12 82.8516 209.519 83.4705 206.909 84.0367C205.858 84.2623 204.783 84.4974 203.718 84.507C199.884 84.531 196.339 85.8793 192.682 86.7238C189.247 87.5155 185.802 88.3024 182.337 88.9406C179.146 89.5307 175.884 89.7611 172.717 90.4424C168.149 91.4213 163.634 92.6544 159.104 93.7964C157.002 94.3242 154.91 94.8904 152.814 95.4518C152.406 95.5622 152.022 95.7445 151.388 95.9796C161.81 100.552 172.026 105.034 181.92 109.376C181.128 112.179 180.456 114.568 179.737 117.116C179.074 116.79 178.35 116.449 177.64 116.089C174.07 114.285 170.538 112.409 166.925 110.701C165.73 110.134 164.315 110.062 163.039 109.635C161.542 109.136 159.843 108.973 158.879 107.419C158.749 107.208 158.346 107.164 158.068 107.044C156.345 106.31 154.632 105.552 152.895 104.847C151.82 104.41 150.683 104.069 151.441 102.347C150.51 103.743 149.589 103.254 148.562 102.716C147.411 102.112 146.149 101.704 144.988 101.119C144.402 100.821 143.975 100.178 143.38 99.9382C142.046 99.396 140.669 98.7098 139.278 98.6186C135.746 98.3883 132.421 99.444 129.206 100.845C128.889 100.984 128.568 101.147 128.232 101.186C126.649 101.363 125.041 101.406 123.477 101.68C119.84 102.313 116.222 103.062 112.59 103.738C111.803 103.882 110.997 103.916 110.2 104.002C110.181 103.882 110.162 103.762 110.143 103.642C112.772 103.1 115.401 102.558 118.06 102.011C117.599 101.008 117.22 100.188 116.841 99.3624C116.98 99.2808 117.124 99.204 117.263 99.1225C117.623 99.6647 117.906 100.288 118.372 100.725C118.837 101.162 119.528 101.742 120.037 101.675C122.306 101.373 124.552 100.859 126.773 100.432C126.533 99.3336 126.308 98.326 126.087 97.3135C126.246 97.2703 126.404 97.2272 126.567 97.184C126.874 98.0525 127.104 98.9545 127.517 99.7702C127.69 100.111 128.318 100.533 128.606 100.452C131.111 99.7462 133.587 98.9305 136.068 98.1484C136.14 98.1244 136.197 98.0477 136.331 97.9421C136 97.2895 135.66 96.6226 135.314 95.946C135.516 95.8645 135.655 95.7973 135.66 95.8117C136.682 97.4767 138.112 98.1772 140.113 98.086C141.106 98.0429 142.128 98.5707 143.155 98.8442C143.798 97.8029 144.45 96.7425 145.103 95.6821C145.261 95.7685 145.419 95.8597 145.578 95.946C145.223 96.6514 144.877 97.3663 144.513 98.0668C143.596 99.8374 143.673 100.02 145.472 100.725C146.528 101.138 147.627 101.502 148.572 102.097C149.757 102.841 150.544 102.625 151.235 101.493C151.494 101.066 151.82 100.682 152.118 100.279C152.266 100.389 152.42 100.504 152.569 100.615C152.396 101.31 152.267 102.016 152.046 102.697C151.82 103.388 151.897 103.82 152.65 104.122C154.55 104.876 156.422 105.691 158.384 106.517C159.118 105.36 159.838 104.228 160.563 103.095C160.678 103.163 160.793 103.23 160.908 103.297C160.553 103.993 160.193 104.688 159.838 105.389C159.061 106.934 159.32 107.759 160.923 108.321C162.64 108.925 164.401 109.405 166.1 109.923C166.604 109.165 167.016 108.551 167.424 107.932C167.631 108.11 167.842 108.292 168.048 108.469C167.774 108.964 167.506 109.458 167.108 110.178C169.439 111.454 171.771 112.735 174.18 114.055C174.123 111.819 174.698 110.965 176.603 110.586C176.253 111.387 176.032 112.131 175.624 112.759C175.01 113.709 175.322 114.271 176.21 114.722C176.483 114.861 176.738 115.029 177.011 115.163C177.75 115.523 178.494 115.873 179.401 116.305C179.65 115.177 179.842 114.131 180.12 113.105C180.399 112.059 180.759 111.037 181.186 109.683C170.884 105.183 160.5 100.648 150.117 96.114C150.107 95.9988 150.093 95.8836 150.083 95.7733C151.403 95.3174 152.722 94.8568 154.167 94.3578C153.812 93.3214 153.476 92.3473 153.14 91.3733C153.255 91.3253 153.375 91.2773 153.49 91.2245C153.816 91.8483 154.138 92.4673 154.464 93.0911C154.886 93.9068 155.486 94.1419 156.407 93.8876C158.624 93.283 160.86 92.7648 162.947 92.2466C162.674 90.975 162.429 89.8426 162.185 88.7102C162.376 88.6527 162.568 88.5951 162.76 88.5327C163.063 89.334 163.307 90.1641 163.686 90.9222C163.854 91.2581 164.353 91.7092 164.622 91.6612C166.925 91.2533 169.214 90.7399 171.647 90.2265C171.354 89.1373 171.071 88.0913 170.793 87.0404C170.908 86.9973 171.023 86.9541 171.138 86.9061C171.426 87.4963 171.728 88.0769 172.002 88.6719C172.443 89.6219 173.096 90.0442 174.195 89.8042C176.186 89.3676 178.196 89.0029 180.336 88.5807C180.149 87.6258 179.981 86.7861 179.813 85.9417C179.933 85.9081 180.058 85.8745 180.178 85.8409C180.394 86.3735 180.6 86.9061 180.821 87.4339C181.152 88.2112 181.641 88.5615 182.563 88.3408C184.463 87.8897 186.382 87.5347 188.426 87.1124C188.172 86.1192 187.951 85.2603 187.735 84.4014C187.836 84.3438 187.942 84.2911 188.042 84.2335C188.316 84.6509 188.613 85.054 188.858 85.4906C189.357 86.3927 189.981 86.8293 191.089 86.4934C192.418 86.0904 193.795 85.8217 195.158 85.5434C195.95 85.385 196.262 85.0492 196.089 84.1951C195.988 83.7105 196.171 83.1635 196.233 82.5637C196.506 82.722 196.626 82.7508 196.636 82.7988C196.91 84.7277 196.905 84.7085 198.867 84.4446C200.288 84.2575 201.717 84.1279 203.286 83.96C203.003 83.0003 202.749 82.1366 202.495 81.2729C202.619 81.225 202.744 81.1722 202.864 81.1242C203.075 81.5896 203.301 82.0551 203.502 82.5253C204.078 83.8976 204.52 84.1375 205.897 83.7201C206.976 83.3938 208.042 83.0195 209.121 82.6644C209.001 81.7816 208.886 80.9706 208.776 80.1597C208.915 80.1214 209.049 80.0782 209.188 80.0398C209.515 80.6636 209.769 81.3449 210.191 81.8919C210.441 82.2134 210.997 82.5589 211.348 82.4965C212.408 82.3142 213.435 81.9399 214.481 81.6424C214.38 80.8651 214.289 80.1405 214.193 79.4112C214.294 79.3584 214.394 79.3056 214.5 79.2577C215.364 80.1645 215.138 82.0503 217.307 81.8151C219.816 81.5416 217.983 79.4928 218.948 78.6963C219.245 79.5744 219.293 80.7691 219.888 81.177C220.469 81.5752 221.601 81.1674 222.686 81.1002C220.944 76.9257 221.232 76.657 219.84 74.2291" stroke="#3C3C3B" stroke-width="0.5" stroke-miterlimit="10"/>
<path d="M221.736 46.5623C222.292 49.7963 220.901 59.0282 219.514 61.9551C218.866 63.3226 217.955 64.5654 217.168 65.8705C216.261 67.3724 216.448 67.6987 217.403 69.1189C218.732 71.0958 219.955 73.1735 220.953 75.3327C222.628 78.965 224.101 82.6932 225.632 86.3927C225.824 86.8581 225.852 87.3907 225.953 87.8945" stroke="#3C3C3B" stroke-miterlimit="10"/>
<path d="M91.9521 75.4574C106.841 77.3576 132.507 88.2976 140.088 91.1526C140.808 91.4213 141.715 91.522 142.454 91.3541C155.961 88.288 169.458 85.1739 182.961 82.0646C194.294 79.4544 208.766 76.2204 220.099 73.6101" stroke="#3C3C3B" stroke-width="0.5" stroke-miterlimit="10"/>
<path d="M83.5888 103.052C83.0178 100.02 81.2184 96.0372 80.3547 93.0671C79.4478 89.9482 77.7637 87.2708 75.3261 85.1115C73.7955 83.7536 70.4607 82.6068 68.2871 82.7076" stroke="#3C3C3B" stroke-miterlimit="10"/>
<path d="M69.9043 90.7735C70.9647 92.592 72.2315 94.3098 73.1239 96.2051C74.8657 99.8998 76.4059 103.695 77.927 107.203" stroke="#3C3C3B" stroke-miterlimit="10"/>
<path d="M78.6856 115.768C78.6856 111.406 73.9545 101.109 73.2348 99.3336C72.611 97.7982 71.1811 96.4642 72.2224 94.2282" stroke="#3C3C3B" stroke-miterlimit="10"/>
<path d="M62.9326 93.0383C64.4201 95.7397 65.9507 98.4267 67.2463 101.219C69.0024 105.01 70.5619 108.892 72.2077 112.735C72.3948 113.172 72.5915 113.604 72.865 114.223" stroke="#3C3C3B" stroke-miterlimit="10"/>
<path d="M78.6845 115.768C78.6221 117.418 77.3362 118.186 75.7527 118.008C74.8363 117.908 74.1981 117.529 73.9822 116.574C73.8766 116.113 73.0417 114.784 72.8594 114.223" stroke="#3C3C3B" stroke-miterlimit="10"/>
<path d="M88.5741 101.171C97.4941 99.8518 106.328 98.5419 115.281 97.2176C114.633 97.9709 92.2832 101.632 88.0607 101.762C87.9839 101.426 87.9071 101.066 87.8592 100.859C87.3697 101.411 84.5244 102.371 83.8334 102.741M83.5 102.5C83.5 103 83.891 105.163 83.8334 106.181C83.7374 107.86 83.5455 109.544 83.2336 111.195C83.1233 111.771 82.6195 112.361 82.1444 112.764C80.9545 113.767 79.9804 113.556 79.443 112.111C78.992 110.902 78.3634 108.186 77.9268 107.208" stroke="#3C3C3B" stroke-width="0.5" stroke-miterlimit="10"/>
<path d="M91.6591 84.5741C91.0055 89.2622 88 96.5 88.5002 101.5" stroke="#3C3C3B" stroke-miterlimit="10"/>
<path d="M90.1342 68.332C90.2877 68.3704 90.4365 68.4136 90.59 68.452C90.4749 69.0854 90.4653 69.7571 90.2302 70.3425C88.7331 74.0516 87.2793 77.7846 85.6239 81.4265C84.1508 84.6749 81.7373 89.2908 80.1826 92.5009" stroke="#3C3C3B" stroke-miterlimit="10"/>
<path d="M193.694 133.627C195.513 133.512 196.18 132.379 197.187 131.42C197.331 131.28 197.48 131.151 197.643 131.007C198.867 133.253 199.279 133.483 201.539 132.504C202.83 131.948 204.915 130.67 206 130" stroke="#3C3C3B" stroke-miterlimit="10"/>
<path d="M205.882 129.836C209.62 131.683 218.568 136.674 222.301 138.54" stroke="#3C3C3B" stroke-width="0.5" stroke-miterlimit="10"/>
<path d="M212.244 124.52C211.323 125.244 206.146 129.673 205.205 130.374" stroke="#3C3C3B" stroke-miterlimit="10"/>
<path d="M213.483 111.065C213.199 111.502 212.955 111.967 212.633 112.375C208.233 117.999 203.459 123.286 199.059 128.915C198.738 129.323 197.605 130.604 197.644 131.012" stroke="#3C3C3B" stroke-miterlimit="10"/>
<path d="M191.478 127.725C194.448 120.432 198.027 112.414 204.692 107.663" stroke="#3C3C3B" stroke-miterlimit="10"/>
<path d="M191.497 127.672C191.257 128.32 191.175 129.112 190.739 129.572C190.273 130.066 189.505 130.383 188.814 130.537C187.433 130.844 186.737 129.956 186.281 128.627C183.915 130.158 181.344 130.858 178.618 131.136" stroke="#3C3C3B" stroke-miterlimit="10"/>
<path d="M193.695 133.632C188.604 134.351 191.113 129.745 191.435 127.859" stroke="#3C3C3B" stroke-miterlimit="10"/>
<path d="M89.5936 108.764C88.2453 108.764 86.6358 108.762 85.2059 108.762C85.2011 108.623 85.2011 108.484 85.1963 108.345C86.9668 108.345 88.7374 108.345 90.7671 108.345C90.3304 107.088 89.9849 106.099 89.5963 104.976C89.9801 105.044 90.1097 105.029 90.1385 105.072C91.3093 106.992 91.3093 106.987 93.67 106.56C95.5413 106.224 97.4175 105.907 99.3896 105.567C99.0873 104.636 98.8138 103.796 98.5402 102.961C98.6602 102.903 98.7754 102.851 98.8953 102.793C99.0729 103.124 99.2888 103.436 99.4183 103.786C99.831 104.885 100.58 105.351 101.755 105.168C103.315 104.924 104.884 104.708 106.443 104.482C106.467 104.621 106.486 104.76 106.51 104.9C101.472 105.773 96.4338 106.651 91.3189 107.539C91.3477 107.817 91.3908 108.186 91.4388 108.633C91.0742 108.748 89.9901 108.777 89.5391 108.762" stroke="#3C3C3B" stroke-width="0.5" stroke-miterlimit="10"/>
<path d="M262.133 57.416C264.45 60.3765 266.149 64.8389 266.278 65.3235C268.601 74.1811 266.489 82.6692 262.373 90.7303C259.796 95.7781 256.413 100.24 252.527 104.343C252.21 104.679 251.836 104.962 251.485 105.264" stroke="#3C3C3B" stroke-miterlimit="10"/>
<path d="M221.736 46.5623C221.789 46.951 222.778 50.2234 222.859 50.6072C224.495 58.3132 226.108 66.0289 227.816 73.7205C228.171 75.3231 228.814 76.8777 229.462 78.394C230.229 80.1981 230.776 80.4284 232.278 79.2385C235.176 76.9449 237.978 74.5218 240.733 72.0555C245.373 67.9002 249.892 63.5913 255.214 60.2901C256.576 59.4456 258.03 58.7163 259.518 58.1213C261.811 57.2049 264.163 56.917 266.437 58.342C266.59 58.2653 266.744 58.1885 266.893 58.1117C263.222 45.1084 256.025 16.2901 252.354 3.2868" stroke="#3C3C3B" stroke-miterlimit="10"/>
<path d="M74.5577 117.572C73.9148 119.251 70.9302 119.4 69.1549 117.879C68.4831 118.32 67.8977 118.81 67.226 119.126C65.4026 119.985 64.1263 118.92 62.9891 117.721C60.6811 115.288 58.4596 112.778 56.1372 110.36C55.6142 109.813 54.8369 109.501 54.1651 109.108C53.4022 108.657 51.6316 107.332 51.3438 106.905" stroke="#3C3C3B" stroke-miterlimit="10"/>
<path d="M59.2764 100.912C62.6495 106.401 65.7828 112.39 69.1512 117.879" stroke="#3C3C3B" stroke-miterlimit="10"/>
<path d="M183.526 125.244C182.427 125.983 181.233 125.729 180.561 124.414C180.201 123.714 179.98 122.816 180.062 122.044C180.642 116.324 181.674 110.739 185.359 106.027C188.584 101.905 192.686 98.8298 197.153 96.2387C199.663 94.7848 202.46 95.0583 205.19 95.6485C208.803 96.4258 212.153 97.8989 215.319 99.7654C216.236 100.303 216.797 100.269 217.56 99.5303C221.792 95.4134 224.978 90.548 227.905 85.4762C228.62 84.2335 229.455 83.0627 230.228 81.8535C230.482 81.4553 230.784 80.7643 230.784 79.9822" stroke="#3C3C3B" stroke-miterlimit="10"/>
<path d="M219.072 49.2781C217.498 47.7523 215.675 48.0978 213.952 48.2081C206.601 48.6832 199.236 49.163 191.909 48.1457C188.838 47.7187 185.786 46.8598 182.845 45.857C180.734 45.1372 179.136 43.5778 178.786 41.1499C178.757 40.9484 178.781 40.7372 178.781 40.3486" stroke="#3C3C3B" stroke-miterlimit="10"/>
<path d="M220.306 11.0312C220.57 14.3324 220.618 17.6672 221.16 20.9204C221.764 24.5575 222.806 28.1226 223.688 31.7117C224.936 36.7691 224.456 41.6393 222.134 46.3128C222.067 46.452 221.932 46.5575 221.596 46.5863" stroke="#3C3C3B" stroke-miterlimit="10"/>
<path d="M83.8863 191.892C83.8431 191.657 83.4209 166.586 83.4401 166.356C84.2222 156.75 85.273 147.172 88.483 138.012C89.5435 134.989 93.1709 123.45 94.4857 120.518" stroke="#3C3C3B" stroke-miterlimit="10"/>
<path d="M140.511 128.953C149.877 128.099 169.732 131.938 178.998 131.093" stroke="#3C3C3B" stroke-miterlimit="10"/>
<path d="M198.69 102.654C195.129 108.69 185.907 120.979 186.276 128.627" stroke="#3C3C3B" stroke-miterlimit="10"/>
<path d="M183.527 125.244C184.223 124.908 191.42 108.844 196.439 104.194" stroke="#3C3C3B" stroke-miterlimit="10"/>
<path d="M217.58 52.2291C216.606 52.5314 215.637 52.8288 214.663 53.1311" stroke="#3C3C3B" stroke-miterlimit="10"/>
<path d="M222.177 138.862C217.868 136.693 209.802 132.475 205.402 130.258" stroke="#3C3C3B" stroke-width="0.5" stroke-miterlimit="10"/>
<path d="M141 128.939C140 129 138.683 128.881 137.771 128.939C130.137 129.39 122.527 129.371 114.975 127.95C109.034 126.832 103.382 124.88 97.8064 122.557C93.8958 120.931 91.7749 117.97 90.5562 114.184C90.0276 112.532 89.824 110.774 89.4385 108.858" stroke="#3C3C3B" stroke-miterlimit="10"/>
</g>
<defs>
<clipPath id="clip0_165_689">
<rect width="315" height="202" fill="white"/>
</clipPath>
</defs>
</svg>
