<svg width="68" height="40" viewBox="0 0 68 40" fill="none" xmlns="http://www.w3.org/2000/svg">
<g clip-path="url(#clip0_120_426)">
<path d="M35.9757 11.1374H35.0642C35.0642 11.1345 35.0614 11.1288 35.0557 11.126H35.97C35.9729 11.1288 35.9757 11.1345 35.9757 11.1374Z" fill="#4F6FC1"/>
<path d="M3.3405 20.2998V20.3026L3.33496 20.2998H3.3405Z" fill="#4F6FC1"/>
<path d="M35.9788 11.1251H35.976C35.8649 10.8766 35.7481 10.6281 35.6228 10.3825V10.3796C35.4974 10.134 35.3721 9.89405 35.2382 9.65697C35.2382 9.65411 35.2382 9.65411 35.2382 9.65411C34.8423 8.93431 34.3922 8.24307 33.9023 7.58326C33.9023 7.5804 33.9023 7.5804 33.9023 7.5804C33.777 7.41473 33.6516 7.24906 33.5263 7.08625C33.3326 6.84632 33.1304 6.60924 32.9281 6.37502C32.723 6.1408 32.5123 5.91515 32.2958 5.69521C30.6038 3.95855 28.5757 2.53323 26.3368 1.55635C24.1008 0.576626 21.6597 0.0482013 19.2072 0.00249972C16.7518 -0.0374892 14.2793 0.402389 11.9749 1.31642C9.6734 2.22474 7.53707 3.59008 5.75679 5.33531C3.98221 7.0834 2.53804 9.18281 1.56672 11.4936C1.38442 11.9278 1.21921 12.3762 1.07109 12.8275C0.823278 13.5702 0.621038 14.3271 0.467222 15.0955C0.222255 16.3237 0.0912274 17.5748 0.0883789 18.8287C0.0883789 18.983 0.091227 19.1401 0.0969239 19.2943C0.0969239 19.2943 0.0969239 19.2943 0.0969239 19.2972C0.105469 19.6199 0.125408 19.9455 0.151044 20.2683C0.689401 19.4171 1.39012 18.5231 2.29023 17.709C2.30447 17.4091 2.33296 17.1149 2.36714 16.8178C2.49817 15.6667 2.75168 14.5328 3.10773 13.4331C3.62045 11.8706 4.3525 10.3825 5.27255 9.02286C5.83085 8.21165 6.45751 7.44615 7.14683 6.73778C8.70778 5.13822 10.5735 3.81573 12.6329 2.91883C14.6895 2.01337 16.9369 1.52494 19.2043 1.47638C21.4717 1.43353 23.7504 1.83913 25.8782 2.67319C27.9975 3.51296 29.9743 4.76689 31.6207 6.37502C31.7944 6.5464 31.9654 6.72064 32.1363 6.89488C32.2986 7.07483 32.4667 7.26049 32.629 7.44615C32.8113 7.65466 32.9851 7.86889 33.156 8.08597C33.3269 8.30306 33.4921 8.52585 33.6516 8.7515C34.1814 9.50273 34.66 10.2939 35.0616 11.1223C35.0645 11.1251 35.0702 11.1308 35.0702 11.1337H35.073H35.976H35.9788C35.9817 11.1337 35.9788 11.128 35.9788 11.1251Z" fill="#4F6FC1"/>
<path d="M32.9858 29.7808H32.9773C32.9773 29.7836 32.9744 29.7893 32.9687 29.7922C32.55 30.3092 32.1 30.8033 31.6243 31.2689C29.9779 32.877 28.001 34.1338 25.8818 34.9708C23.754 35.8077 21.4752 36.2104 19.2079 36.1704C18.1312 36.1419 17.0601 36.0219 16.0148 35.8048C15.767 35.7534 15.5277 35.6963 15.2827 35.6334C15.2827 35.6363 15.2856 35.6363 15.2827 35.642C15.3397 36.0619 15.4223 36.5446 15.5419 37.0959C15.5562 37.1787 15.5761 37.2587 15.5989 37.3444C15.596 37.3472 15.596 37.353 15.5989 37.3558C16.7895 37.5643 18.0001 37.6614 19.2079 37.6443C21.6604 37.5986 24.1015 37.0702 26.3375 36.0904C28.5764 35.1164 30.6045 33.6883 32.2965 31.9516C32.9545 31.2803 33.5555 30.5577 34.1024 29.7922C34.1053 29.7893 34.111 29.7836 34.111 29.7808H34.1081H32.9858Z" fill="#4F6FC1"/>
<path d="M6.90546 33.8909C6.85989 33.8595 6.80576 33.8166 6.76304 33.7795C6.35571 33.4596 5.94269 33.1026 5.53821 32.7227C5.4499 32.9997 5.35875 33.2596 5.26191 33.511C5.24766 33.551 5.23342 33.5853 5.21918 33.6224V33.6253C4.61816 35.202 3.96871 36.4102 3.17969 37.4414L3.11133 37.5299L3.15406 37.6356C3.16545 37.6641 3.17684 37.6927 3.19393 37.7213C3.54144 38.5525 3.87471 39.6008 3.88041 39.6093L4.00574 40.0006L4.23077 39.6579C4.38458 39.4237 4.56688 39.138 4.75773 38.8181C5.43851 37.687 6.2845 36.1474 6.7488 35.0363C6.78868 34.9478 6.82286 34.8621 6.85419 34.7792C6.94819 34.5279 7.03649 34.2822 7.11909 34.0451C7.04219 33.9966 6.97382 33.9452 6.90546 33.8909Z" fill="#4F6FC1"/>
<path d="M8.07194 25.83C7.94376 24.6789 7.80418 23.662 7.41394 22.8222C7.37976 22.748 7.34273 22.6737 7.3057 22.6051C7.27152 22.5337 7.23734 22.4652 7.19746 22.3995C7.15473 22.3252 7.11201 22.2567 7.06928 22.1853C6.93256 21.9767 6.78729 21.7739 6.62777 21.5854H6.63062C6.60214 21.554 6.57365 21.5226 6.54517 21.4912C6.53662 21.4826 6.53378 21.4797 6.52523 21.4712C6.51099 21.4569 6.49674 21.4426 6.4825 21.4283C6.43693 21.3769 6.38565 21.3226 6.33438 21.2769C6.3002 21.2455 6.26887 21.2141 6.23469 21.1827C6.22614 21.1741 6.21475 21.1627 6.2062 21.1541C6.18342 21.1313 6.16063 21.1113 6.13784 21.0884C6.13499 21.0884 6.13499 21.0856 6.12929 21.0856L6.12645 21.0827H6.1236V21.0799C6.1122 21.0684 6.10081 21.057 6.08372 21.0484C6.05523 21.0199 6.0296 20.997 6.00111 20.9742C5.91851 20.9085 5.83875 20.8456 5.75045 20.7885C5.73906 20.7799 5.72766 20.7742 5.71627 20.7657C5.64791 20.72 5.57669 20.6714 5.49979 20.6343C5.49694 20.6343 5.49694 20.6314 5.49124 20.6314C5.49124 20.6314 5.48839 20.6314 5.48839 20.6285C5.48554 20.6257 5.477 20.62 5.47415 20.62C5.47415 20.6171 5.4713 20.6171 5.4713 20.6171C5.46845 20.6143 5.46276 20.6143 5.45991 20.6086C5.45991 20.6057 5.45706 20.6057 5.45136 20.6057C5.43997 20.5971 5.42858 20.5914 5.41718 20.5828C5.40294 20.5714 5.383 20.56 5.36306 20.5514C5.32888 20.5371 5.29185 20.52 5.25767 20.5057C5.25482 20.5057 5.24912 20.5029 5.24627 20.5029C5.21494 20.4886 5.18076 20.4714 5.14943 20.46C5.13803 20.4515 5.12949 20.4486 5.1181 20.4457C5.08676 20.4315 5.05543 20.4172 5.02979 20.4058C5.01555 20.3972 5.00131 20.3943 4.98991 20.3915C4.75064 20.2915 4.50853 20.2258 4.22938 20.2001C4.20944 20.1972 4.1895 20.1972 4.17241 20.1972C4.0955 20.1858 4.01859 20.183 3.94453 20.1772L3.94169 20.1858L3.69387 20.5514C3.69387 20.5543 3.69102 20.5543 3.69102 20.56C3.40903 20.977 3.28369 21.5083 3.23242 21.951C3.36345 21.9282 3.48024 21.9196 3.57993 21.9196C3.69957 21.9196 3.77363 21.931 3.78787 21.9339C3.89611 21.9482 3.99581 21.9739 4.09835 22.0053H4.1012C4.79907 22.231 5.26052 22.8279 5.55391 23.4106C5.55391 23.4135 5.55676 23.4135 5.55676 23.4192C5.89003 24.0847 6.00681 24.7246 6.00966 24.7417C6.29735 26.2384 6.36572 27.7694 6.22329 29.3004C6.3942 29.5175 6.5708 29.7317 6.7588 29.9403C7.10631 30.3401 7.48231 30.7257 7.87824 31.0856C8.20012 29.3033 8.25993 27.5438 8.07194 25.83Z" fill="#4F6FC1"/>
<path d="M2.83236 23.3135C2.82381 23.3021 2.82096 23.2907 2.82096 23.2792C2.83521 23.3764 2.8523 23.4706 2.87509 23.5706C2.86084 23.4849 2.84375 23.3992 2.83236 23.3135ZM2.83236 23.3135C2.82381 23.3021 2.82096 23.2907 2.82096 23.2792C2.83521 23.3764 2.8523 23.4706 2.87509 23.5706C2.86084 23.4849 2.84375 23.3992 2.83236 23.3135ZM2.83236 23.3135C2.82381 23.3021 2.82096 23.2907 2.82096 23.2792C2.83521 23.3764 2.8523 23.4706 2.87509 23.5706C2.86084 23.4849 2.84375 23.3992 2.83236 23.3135ZM2.83236 23.3135C2.80957 23.1736 2.78963 23.0364 2.77539 22.8965C2.78678 23.0222 2.80387 23.1478 2.82096 23.2764C2.83521 23.3735 2.8523 23.4678 2.87509 23.5677C2.86084 23.4849 2.84375 23.3992 2.83236 23.3135ZM2.83236 23.3135C2.82381 23.3021 2.82096 23.2907 2.82096 23.2792C2.83521 23.3764 2.8523 23.4706 2.87509 23.5706C2.86084 23.4849 2.84375 23.3992 2.83236 23.3135ZM2.83236 23.3135C2.82381 23.3021 2.82096 23.2907 2.82096 23.2792C2.83521 23.3764 2.8523 23.4706 2.87509 23.5706C2.86084 23.4849 2.84375 23.3992 2.83236 23.3135ZM2.83236 23.3135C2.82381 23.3021 2.82096 23.2907 2.82096 23.2792C2.83521 23.3764 2.8523 23.4706 2.87509 23.5706C2.86084 23.4849 2.84375 23.3992 2.83236 23.3135ZM2.83236 23.3135C2.82381 23.3021 2.82096 23.2907 2.82096 23.2792C2.83521 23.3764 2.8523 23.4706 2.87509 23.5706C2.86084 23.4849 2.84375 23.3992 2.83236 23.3135Z" fill="#4F6FC1"/>
<path d="M12.9074 24.8251V25.5963H13.2834C13.497 25.5963 13.685 25.6134 13.8531 25.6477C14.0212 25.682 14.1636 25.7391 14.2804 25.8162C14.3971 25.8934 14.4854 25.9933 14.5481 26.1133C14.6079 26.2333 14.6393 26.3818 14.6393 26.5589C14.6393 26.8817 14.5225 27.1216 14.2889 27.2844C14.0553 27.4472 13.7278 27.5272 13.3005 27.5272C13.2378 27.5272 13.1723 27.5272 13.1011 27.5243C13.0299 27.5215 12.9587 27.5158 12.8875 27.5101C12.8163 27.5043 12.745 27.4958 12.6767 27.4872C12.6055 27.4786 12.5428 27.4672 12.4858 27.4529V24.4595H14.3573V24.8222H12.9074V24.8251ZM13.3347 27.1559C13.4486 27.1559 13.5569 27.1473 13.6594 27.1302C13.7619 27.113 13.8531 27.0816 13.9329 27.0359C14.0126 26.9902 14.0753 26.9302 14.1208 26.8531C14.1664 26.776 14.1921 26.6817 14.1921 26.5646C14.1921 26.4418 14.1721 26.3418 14.1294 26.2618C14.0867 26.1819 14.0268 26.119 13.9471 26.0733C13.8673 26.0276 13.7705 25.9933 13.6566 25.9762C13.5426 25.9562 13.4116 25.9476 13.2663 25.9476H12.9074V27.1444C12.9387 27.1473 12.9786 27.1502 13.0213 27.153C13.0584 27.1559 13.104 27.1587 13.1581 27.1587C13.2093 27.1559 13.2692 27.1559 13.3347 27.1559Z" fill="#4F6FC1"/>
<path d="M15.869 25.5596C15.869 25.6567 15.8662 25.7595 15.8633 25.868C15.8576 25.9766 15.8519 26.088 15.8405 26.1965C15.8292 26.3051 15.8121 26.4136 15.7921 26.5221C15.7722 26.6278 15.7465 26.7278 15.7124 26.8221C15.681 26.9163 15.6412 27.002 15.5927 27.0849C15.5443 27.1677 15.4845 27.2391 15.4161 27.3019C15.3449 27.3648 15.2652 27.4162 15.1712 27.459C15.0772 27.5019 14.9689 27.5276 14.8436 27.539L14.7866 27.1962C14.929 27.1677 15.043 27.1134 15.1256 27.0334C15.2082 26.9535 15.2737 26.8592 15.325 26.7449C15.3677 26.645 15.4019 26.5336 15.4218 26.4079C15.4418 26.2822 15.456 26.1508 15.4646 26.0166C15.4731 25.8795 15.4788 25.7452 15.4788 25.6081C15.4788 25.471 15.4816 25.3396 15.4816 25.2168H16.9942V27.4962H16.5868V25.5596H15.869Z" fill="#4F6FC1"/>
<path d="M18.5082 25.1626C18.6705 25.1626 18.8073 25.1826 18.9212 25.2254C19.0323 25.2683 19.1234 25.3283 19.1918 25.4054C19.2602 25.4825 19.3086 25.5739 19.3371 25.6825C19.3656 25.7881 19.3798 25.9053 19.3798 26.0338V27.4591C19.3456 27.4648 19.2972 27.4734 19.2345 27.482C19.1719 27.4934 19.1007 27.502 19.0238 27.5105C18.944 27.5191 18.8585 27.5277 18.7674 27.5334C18.6762 27.5419 18.5851 27.5448 18.4939 27.5448C18.3658 27.5448 18.249 27.5305 18.1407 27.5048C18.0325 27.4791 17.9385 27.4363 17.8616 27.3791C17.7818 27.322 17.722 27.2477 17.6793 27.1535C17.6366 27.0592 17.6138 26.9478 17.6138 26.8164C17.6138 26.6907 17.6394 26.5822 17.6907 26.4908C17.7419 26.3994 17.8103 26.328 17.8986 26.2709C17.9869 26.2166 18.0895 26.1737 18.2034 26.148C18.3202 26.1223 18.4427 26.108 18.5708 26.108C18.6107 26.108 18.6535 26.1109 18.699 26.1138C18.7418 26.1166 18.7845 26.1252 18.8244 26.1309C18.8642 26.1395 18.8984 26.1452 18.9269 26.1509C18.9554 26.1566 18.9753 26.1623 18.9867 26.1652V26.0509C18.9867 25.9852 18.9782 25.9167 18.9639 25.851C18.9497 25.7853 18.9241 25.7282 18.8842 25.6767C18.8471 25.6253 18.793 25.5853 18.7275 25.5539C18.662 25.5225 18.5765 25.5082 18.4712 25.5082C18.3373 25.5082 18.2205 25.5168 18.1208 25.5368C18.0211 25.5568 17.9442 25.5768 17.8958 25.5968L17.8473 25.2597C17.8986 25.2369 17.9869 25.214 18.1094 25.1912C18.2319 25.174 18.3629 25.1626 18.5082 25.1626ZM18.5424 27.2049C18.6392 27.2049 18.7247 27.202 18.7987 27.1992C18.8728 27.1935 18.9354 27.1878 18.9839 27.1763V26.4965C18.9554 26.4822 18.907 26.4708 18.8414 26.4594C18.7759 26.448 18.6962 26.4451 18.6022 26.4451C18.5395 26.4451 18.4768 26.448 18.4085 26.4594C18.3401 26.468 18.2775 26.4851 18.2205 26.5137C18.1635 26.5422 18.1151 26.5793 18.0781 26.6279C18.041 26.6765 18.0211 26.7393 18.0211 26.8193C18.0211 26.965 18.0667 27.0678 18.1607 27.1249C18.2547 27.1763 18.3829 27.2049 18.5424 27.2049Z" fill="#4F6FC1"/>
<path d="M21.3813 25.5596H20.3814V27.4962H19.9741V25.2168H21.3813V25.5596Z" fill="#4F6FC1"/>
<path d="M23.799 26.3594C23.799 26.5394 23.7734 26.705 23.7193 26.8507C23.668 26.9964 23.5939 27.1221 23.4971 27.2277C23.4002 27.3334 23.2891 27.4134 23.1581 27.4705C23.0271 27.5277 22.8847 27.5562 22.7308 27.5562C22.577 27.5562 22.4346 27.5277 22.3036 27.4705C22.1725 27.4134 22.0586 27.3334 21.9646 27.2277C21.8706 27.1221 21.7966 26.9964 21.7424 26.8507C21.6912 26.705 21.6655 26.5422 21.6655 26.3594C21.6655 26.1823 21.6912 26.0195 21.7424 25.871C21.7937 25.7224 21.8678 25.5968 21.9646 25.4911C22.0615 25.3854 22.1725 25.3054 22.3036 25.2483C22.4346 25.1912 22.577 25.1626 22.7308 25.1626C22.8847 25.1626 23.0271 25.1912 23.1581 25.2483C23.2891 25.3054 23.4031 25.3854 23.4971 25.4911C23.5911 25.5968 23.6651 25.7224 23.7193 25.871C23.7705 26.0166 23.799 26.1795 23.799 26.3594ZM23.3746 26.3594C23.3746 26.1023 23.3176 25.8995 23.2008 25.7482C23.0869 25.5968 22.9302 25.5225 22.7308 25.5225C22.5315 25.5225 22.3748 25.5968 22.2609 25.7482C22.1469 25.8995 22.0871 26.1023 22.0871 26.3594C22.0871 26.6165 22.1441 26.8193 22.2609 26.9707C22.3748 27.1221 22.5315 27.1963 22.7308 27.1963C22.9302 27.1963 23.0869 27.1221 23.2008 26.9707C23.3148 26.8193 23.3746 26.6165 23.3746 26.3594Z" fill="#4F6FC1"/>
<path d="M25.8042 25.2197V25.5625H25.0665V27.4991H24.6591V25.5625H23.9214V25.2197H25.8042Z" fill="#4F6FC1"/>
<path d="M26.9664 27.5353C26.7954 27.5353 26.6359 27.5268 26.4907 27.5125C26.3454 27.4953 26.2286 27.4782 26.146 27.4582V25.2417C26.2314 25.2217 26.3454 25.2017 26.4907 25.1874C26.6359 25.1703 26.7954 25.1646 26.9664 25.1646C27.086 25.1646 27.2028 25.176 27.3167 25.196C27.4306 25.216 27.5303 25.2502 27.6186 25.2988C27.7069 25.3474 27.7753 25.4131 27.8294 25.4959C27.8836 25.5787 27.9092 25.6815 27.9092 25.8044C27.9092 25.9158 27.8807 26.01 27.8266 26.09C27.7725 26.17 27.6984 26.23 27.6044 26.2728C27.7297 26.3157 27.8294 26.3814 27.9035 26.467C27.9775 26.5527 28.0146 26.6727 28.0146 26.8298C28.0146 26.9669 27.9889 27.0812 27.9348 27.1726C27.8807 27.264 27.8066 27.3354 27.7126 27.3925C27.6186 27.4468 27.5076 27.4868 27.3794 27.5096C27.2483 27.5239 27.1116 27.5353 26.9664 27.5353ZM26.9749 26.15C27.0547 26.15 27.1259 26.1443 27.1914 26.1357C27.2569 26.1243 27.3139 26.1071 27.3623 26.0814C27.4107 26.0557 27.4477 26.0186 27.4762 25.9758C27.5047 25.9329 27.5189 25.8758 27.5189 25.8101C27.5189 25.7387 27.5019 25.6844 27.4677 25.6444C27.4335 25.6044 27.3879 25.573 27.331 25.5502C27.274 25.5273 27.2113 25.513 27.1401 25.5073C27.0689 25.4987 26.9977 25.4959 26.9236 25.4959C26.8553 25.4959 26.7897 25.4987 26.7214 25.5016C26.653 25.5045 26.5961 25.5073 26.5476 25.5102V26.1557H26.9749V26.15ZM26.5419 27.1897C26.559 27.1926 26.5847 27.1954 26.616 27.1983C26.6473 27.2011 26.6844 27.204 26.7242 27.204C26.7641 27.2068 26.8068 27.2068 26.8524 27.2097C26.898 27.2097 26.9407 27.2126 26.9806 27.2126C27.066 27.2126 27.1458 27.2068 27.2227 27.1954C27.2996 27.184 27.368 27.164 27.425 27.1326C27.4819 27.104 27.5275 27.064 27.5617 27.0155C27.5959 26.9669 27.6129 26.9069 27.6129 26.8298C27.6129 26.7555 27.5987 26.6956 27.5674 26.647C27.536 26.5984 27.4962 26.5613 27.442 26.5299C27.3908 26.5013 27.3281 26.4813 27.2569 26.4699C27.1857 26.4585 27.1088 26.4528 27.0262 26.4528H26.5419V27.1897Z" fill="#4F6FC1"/>
<path d="M30.4543 26.3594C30.4543 26.5394 30.4287 26.705 30.3745 26.8507C30.3233 26.9964 30.2492 27.1221 30.1524 27.2277C30.0584 27.3334 29.9444 27.4134 29.8134 27.4705C29.6824 27.5277 29.5399 27.5562 29.3861 27.5562C29.2323 27.5562 29.0899 27.5277 28.9589 27.4705C28.8278 27.4134 28.7139 27.3334 28.6199 27.2277C28.5259 27.1221 28.4518 26.9964 28.3977 26.8507C28.3464 26.705 28.3208 26.5422 28.3208 26.3594C28.3208 26.1823 28.3464 26.0195 28.3977 25.871C28.449 25.7224 28.523 25.5968 28.6199 25.4911C28.7139 25.3854 28.8278 25.3054 28.9589 25.2483C29.0899 25.1912 29.2323 25.1626 29.3861 25.1626C29.5399 25.1626 29.6824 25.1912 29.8134 25.2483C29.9444 25.3054 30.0584 25.3854 30.1524 25.4911C30.2463 25.5968 30.3204 25.7224 30.3745 25.871C30.4287 26.0166 30.4543 26.1795 30.4543 26.3594ZM30.0327 26.3594C30.0327 26.1023 29.9757 25.8995 29.859 25.7482C29.745 25.5968 29.5884 25.5225 29.389 25.5225C29.1896 25.5225 29.0329 25.5968 28.919 25.7482C28.805 25.8995 28.7452 26.1023 28.7452 26.3594C28.7452 26.6165 28.8022 26.8193 28.919 26.9707C29.0329 27.1221 29.1896 27.1963 29.389 27.1963C29.5884 27.1963 29.7422 27.1221 29.859 26.9707C29.9729 26.8193 30.0327 26.6165 30.0327 26.3594Z" fill="#4F6FC1"/>
<path d="M32.8515 26.3615C32.8515 26.5329 32.8287 26.6928 32.7831 26.8385C32.7376 26.9842 32.672 27.1099 32.5837 27.2156C32.4954 27.3212 32.3901 27.4041 32.2619 27.4612C32.1365 27.5212 31.9913 27.5498 31.8261 27.5498C31.695 27.5498 31.5782 27.5326 31.4785 27.4983C31.3789 27.4641 31.3019 27.4298 31.2535 27.3984V28.3095H30.8462V25.2904C30.943 25.2675 31.0627 25.2418 31.2079 25.2133C31.3532 25.1847 31.5184 25.1704 31.7093 25.1704C31.883 25.1704 32.0425 25.199 32.1821 25.2532C32.3217 25.3075 32.4413 25.3875 32.541 25.4903C32.6407 25.5932 32.7176 25.716 32.7717 25.8645C32.823 26.013 32.8515 26.1787 32.8515 26.3615ZM32.4271 26.3615C32.4271 26.0959 32.3616 25.8902 32.2305 25.7474C32.0995 25.6046 31.9257 25.5332 31.7064 25.5332C31.5839 25.5332 31.4871 25.536 31.4216 25.5474C31.3532 25.556 31.2991 25.5674 31.2564 25.5789V27.0156C31.3048 27.0556 31.376 27.0956 31.47 27.1327C31.564 27.1699 31.6637 27.1899 31.7748 27.1899C31.8916 27.1899 31.9913 27.1699 32.0739 27.127C32.1565 27.0842 32.2248 27.027 32.2761 26.9528C32.3274 26.8785 32.3673 26.79 32.39 26.69C32.4157 26.5872 32.4271 26.4786 32.4271 26.3615Z" fill="#4F6FC1"/>
<path d="M35.2458 25.2197V27.4991H34.8527V25.7624C34.7644 25.8738 34.6704 26.0024 34.565 26.1538C34.4596 26.3023 34.3542 26.4565 34.2488 26.6165C34.1434 26.7764 34.0437 26.9335 33.9469 27.0878C33.85 27.242 33.7674 27.3791 33.6962 27.4991H33.3345V25.2197H33.7276V26.8593C33.8045 26.7336 33.8899 26.5965 33.9868 26.4451C34.0836 26.2937 34.1833 26.1452 34.2859 25.9967C34.3884 25.8481 34.4938 25.7082 34.5963 25.5711C34.6989 25.434 34.7957 25.3168 34.8869 25.2197H35.2458Z" fill="#4F6FC1"/>
<path d="M37.5532 25.2197V25.5625H36.8155V27.4991H36.4082V25.5625H35.6704V25.2197H37.5532Z" fill="#4F6FC1"/>
<path d="M37.8462 26.3623C37.8462 26.1595 37.8747 25.9852 37.9345 25.8338C37.9943 25.6825 38.0712 25.5596 38.1652 25.4597C38.2621 25.3597 38.3732 25.2854 38.4985 25.2369C38.6238 25.1883 38.752 25.1626 38.883 25.1626C39.1878 25.1626 39.4242 25.2597 39.5866 25.4511C39.749 25.6425 39.8316 25.9338 39.8316 26.3251C39.8316 26.3423 39.8316 26.3651 39.8316 26.3937C39.8316 26.4222 39.8316 26.448 39.8287 26.4708H38.2735C38.2905 26.7079 38.3589 26.8878 38.4785 27.0107C38.5982 27.1335 38.7833 27.1935 39.0368 27.1935C39.1793 27.1935 39.2989 27.182 39.3986 27.1563C39.4954 27.1306 39.5695 27.1078 39.6179 27.0849L39.6749 27.4277C39.6265 27.4534 39.5382 27.482 39.4157 27.5105C39.2932 27.5391 39.1508 27.5534 38.9941 27.5534C38.7947 27.5534 38.6238 27.5219 38.4814 27.462C38.3361 27.402 38.2193 27.3191 38.1253 27.2135C38.0313 27.1078 37.963 26.9821 37.9174 26.8393C37.8661 26.6936 37.8462 26.5336 37.8462 26.3623ZM39.4043 26.1395C39.4071 25.9567 39.3616 25.8053 39.2676 25.6853C39.1736 25.5682 39.0425 25.5082 38.8773 25.5082C38.7833 25.5082 38.7007 25.5254 38.6295 25.5625C38.5583 25.5996 38.4985 25.6453 38.4472 25.7053C38.3959 25.7653 38.3589 25.831 38.3304 25.9081C38.3019 25.9852 38.2849 26.0623 38.2763 26.1395H39.4043Z" fill="#4F6FC1"/>
<path d="M41.1542 25.5596C41.1542 25.6567 41.1513 25.7595 41.1485 25.868C41.1428 25.9766 41.1371 26.088 41.1257 26.1965C41.1143 26.3051 41.0972 26.4136 41.0773 26.5221C41.0573 26.6278 41.0317 26.7278 40.9975 26.8221C40.9662 26.9163 40.9263 27.002 40.8779 27.0849C40.8295 27.1677 40.7696 27.2391 40.7013 27.3019C40.6301 27.3648 40.5503 27.4162 40.4563 27.459C40.3623 27.5019 40.2541 27.5276 40.1287 27.539L40.0718 27.1962C40.2142 27.1677 40.3281 27.1134 40.4107 27.0334C40.4933 26.9535 40.5589 26.8592 40.6101 26.7449C40.6529 26.645 40.687 26.5336 40.707 26.4079C40.7269 26.2822 40.7412 26.1508 40.7497 26.0166C40.7583 25.8795 40.7639 25.7452 40.7639 25.6081C40.7639 25.471 40.7668 25.3396 40.7668 25.2168H42.2793V27.4962H41.872V25.5596H41.1542Z" fill="#4F6FC1"/>
<path d="M42.8911 27.4505V25.2197H43.2984V26.0909C43.3212 26.0852 43.3526 26.0795 43.3924 26.0738C43.4323 26.0681 43.475 26.0624 43.5206 26.0566C43.5662 26.0509 43.6118 26.0452 43.663 26.0424C43.7115 26.0395 43.7599 26.0395 43.8026 26.0395C43.9279 26.0395 44.0447 26.0538 44.1558 26.0823C44.2669 26.1109 44.3638 26.1538 44.4464 26.2137C44.529 26.2737 44.5945 26.3508 44.6458 26.4451C44.6942 26.5394 44.7198 26.6536 44.7198 26.785C44.7198 26.9221 44.697 27.0392 44.6486 27.1363C44.603 27.2335 44.5347 27.3106 44.4464 27.3734C44.3581 27.4334 44.2555 27.4791 44.133 27.5077C44.0134 27.5362 43.8767 27.5505 43.7286 27.5505C43.5833 27.5505 43.4409 27.5419 43.3013 27.5277C43.1617 27.5048 43.025 27.482 42.8911 27.4505ZM43.7513 27.2135C43.9223 27.2135 44.059 27.1792 44.1587 27.1135C44.2584 27.0478 44.3068 26.9392 44.3068 26.7879C44.3068 26.7136 44.2926 26.6508 44.2641 26.5993C44.2356 26.5479 44.1957 26.5051 44.1444 26.4708C44.0932 26.4365 44.0333 26.4108 43.9678 26.3965C43.9023 26.3794 43.8283 26.3737 43.7542 26.3737C43.6744 26.3737 43.5947 26.3765 43.5121 26.3794C43.4295 26.3823 43.3583 26.3937 43.3013 26.408V27.1935C43.3184 27.1963 43.344 27.1992 43.381 27.202C43.4152 27.2049 43.4551 27.2077 43.4978 27.2077C43.5406 27.2106 43.5833 27.2106 43.6289 27.2135C43.6687 27.2106 43.7115 27.2135 43.7513 27.2135Z" fill="#4F6FC1"/>
<path d="M46.9718 27.4962H46.5644V26.4879H45.5162V27.4962H45.1089V25.2168H45.5162V26.1451H46.5644V25.2168H46.9718V27.4962Z" fill="#4F6FC1"/>
<path d="M47.5894 25.2197H47.9967V26.0908C48.0451 26.0794 48.1192 26.068 48.2132 26.0566C48.3072 26.0451 48.3983 26.0394 48.4866 26.0394C48.6063 26.0394 48.7202 26.0537 48.8284 26.0823C48.9367 26.1108 49.0307 26.1537 49.1133 26.2137C49.1959 26.2736 49.2585 26.3508 49.307 26.445C49.3554 26.5393 49.3782 26.6535 49.3782 26.7849C49.3782 26.922 49.3554 27.0391 49.307 27.1363C49.2614 27.2334 49.1959 27.3105 49.1104 27.3733C49.025 27.4333 48.9253 27.479 48.8056 27.5076C48.686 27.5362 48.555 27.5504 48.4126 27.5504C48.2758 27.5504 48.1363 27.5419 47.9967 27.5276C47.8571 27.5104 47.7204 27.4876 47.5894 27.4562V25.2197ZM48.424 26.3708C48.3442 26.3708 48.2701 26.3736 48.1932 26.3765C48.1192 26.3793 48.0537 26.3908 47.9938 26.405V27.1905C48.0109 27.1934 48.0366 27.1962 48.0707 27.1991C48.1049 27.202 48.142 27.2048 48.179 27.2048C48.2189 27.2077 48.2587 27.2077 48.2986 27.2105C48.3385 27.2105 48.3755 27.2134 48.4069 27.2134C48.5835 27.2134 48.723 27.1791 48.817 27.1134C48.9139 27.0477 48.9623 26.9392 48.9623 26.7878C48.9623 26.7135 48.9481 26.6507 48.9167 26.5993C48.8854 26.5479 48.8455 26.505 48.7943 26.4707C48.743 26.4365 48.686 26.4108 48.6205 26.3965C48.5607 26.3793 48.4923 26.3708 48.424 26.3708ZM50.2014 27.4962H49.7941V25.2168H50.2014V27.4962Z" fill="#4F6FC1"/>
<path d="M52.8102 25.2179V27.4973H52.4171V25.7606C52.3288 25.872 52.2348 26.0006 52.1295 26.152C52.0241 26.3005 51.9187 26.4547 51.8133 26.6147C51.7079 26.7746 51.6082 26.9317 51.5113 27.086C51.4145 27.2402 51.3319 27.3773 51.2607 27.4973H50.8989V25.2179H51.292V26.8575C51.3689 26.7318 51.4544 26.5947 51.5512 26.4433C51.6481 26.2919 51.7478 26.1434 51.8503 25.9949C51.9529 25.8463 52.0582 25.7064 52.1608 25.5693C52.2633 25.4322 52.3602 25.3151 52.4513 25.2179H52.8102ZM51.856 24.8495C51.6737 24.8495 51.5227 24.8038 51.4088 24.7095C51.2949 24.6152 51.2236 24.4867 51.2009 24.3182L51.5113 24.2354C51.5341 24.3296 51.574 24.4039 51.6281 24.4639C51.6822 24.521 51.7592 24.5524 51.856 24.5524C51.9529 24.5524 52.0269 24.5238 52.0839 24.4639C52.138 24.4039 52.1779 24.3296 52.2007 24.2354L52.5055 24.3182C52.4827 24.4839 52.4143 24.6152 52.3004 24.7095C52.1893 24.8009 52.0412 24.8495 51.856 24.8495Z" fill="#4F6FC1"/>
<path d="M56.0423 28.3068H55.6492V27.5099C55.4783 27.507 55.316 27.4785 55.165 27.427C55.014 27.3756 54.8802 27.2985 54.7662 27.2014C54.6523 27.1043 54.5611 26.9843 54.4928 26.8415C54.4244 26.7015 54.3931 26.5387 54.3931 26.3559C54.3931 26.176 54.4272 26.0131 54.4928 25.8703C54.5583 25.7304 54.6494 25.6075 54.7662 25.5104C54.8802 25.4133 55.014 25.3362 55.165 25.2848C55.316 25.2334 55.4783 25.2048 55.6492 25.2019V24.1622L56.0423 24.0908V25.1991C56.2104 25.2019 56.3727 25.2305 56.5266 25.2819C56.6804 25.3333 56.8142 25.4105 56.9282 25.5076C57.0421 25.6047 57.1333 25.7247 57.2016 25.8675C57.2671 26.0103 57.3013 26.1702 57.3013 26.3531C57.3013 26.533 57.2671 26.6958 57.2016 26.8386C57.1333 26.9814 57.0421 27.1014 56.9282 27.1985C56.8142 27.2956 56.6804 27.3728 56.5266 27.4242C56.3727 27.4756 56.2132 27.5042 56.0423 27.507V28.3068ZM54.8061 26.3588C54.8061 26.4873 54.826 26.6016 54.8688 26.7015C54.9115 26.8015 54.9713 26.8843 55.0454 26.9529C55.1223 27.0214 55.2106 27.0729 55.3131 27.11C55.4157 27.1471 55.5267 27.1671 55.6464 27.17V25.5476C55.5267 25.5504 55.4157 25.5704 55.3131 25.6104C55.2106 25.6475 55.1194 25.7018 55.0454 25.7704C54.9685 25.8389 54.9115 25.9217 54.8688 26.0217C54.826 26.1188 54.8061 26.2331 54.8061 26.3588ZM56.0423 27.1671C56.162 27.1643 56.273 27.1443 56.3756 27.1071C56.4781 27.07 56.5693 27.0186 56.6433 26.95C56.7202 26.8815 56.7772 26.7986 56.8199 26.6987C56.8627 26.5987 56.8826 26.4844 56.8826 26.3559C56.8826 26.2302 56.8627 26.1188 56.8199 26.0189C56.7772 25.9189 56.7174 25.8361 56.6433 25.7675C56.5664 25.6989 56.4781 25.6447 56.3756 25.6075C56.273 25.5704 56.162 25.5476 56.0423 25.5447V27.1671Z" fill="#4F6FC1"/>
<path d="M59.8664 26.3594C59.8664 26.5394 59.8408 26.705 59.7866 26.8507C59.7354 26.9964 59.6613 27.1221 59.5645 27.2277C59.4705 27.3334 59.3565 27.4134 59.2255 27.4705C59.0945 27.5277 58.952 27.5562 58.7982 27.5562C58.6444 27.5562 58.502 27.5277 58.371 27.4705C58.2399 27.4134 58.126 27.3334 58.032 27.2277C57.938 27.1221 57.8639 26.9964 57.8098 26.8507C57.7585 26.705 57.7329 26.5422 57.7329 26.3594C57.7329 26.1823 57.7585 26.0195 57.8098 25.871C57.8611 25.7224 57.9351 25.5968 58.032 25.4911C58.1288 25.3854 58.2399 25.3054 58.371 25.2483C58.502 25.1912 58.6444 25.1626 58.7982 25.1626C58.952 25.1626 59.0945 25.1912 59.2255 25.2483C59.3565 25.3054 59.4705 25.3854 59.5645 25.4911C59.6585 25.5968 59.7325 25.7224 59.7866 25.871C59.8408 26.0166 59.8664 26.1795 59.8664 26.3594ZM59.442 26.3594C59.442 26.1023 59.385 25.8995 59.2682 25.7482C59.1543 25.5968 58.9976 25.5225 58.7982 25.5225C58.5988 25.5225 58.4422 25.5968 58.3282 25.7482C58.2143 25.8995 58.1545 26.1023 58.1545 26.3594C58.1545 26.6165 58.2114 26.8193 58.3282 26.9707C58.4422 27.1221 58.5988 27.1963 58.7982 27.1963C58.9976 27.1963 59.1543 27.1221 59.2682 26.9707C59.385 26.8193 59.442 26.6165 59.442 26.3594Z" fill="#4F6FC1"/>
<path d="M62.212 27.4962H61.8047V26.4879H60.7564V27.4962H60.3491V25.2168H60.7564V26.1451H61.8047V25.2168H62.212V27.4962Z" fill="#4F6FC1"/>
<path d="M62.5503 27.1648H62.7953C62.8921 27.0249 62.969 26.8792 63.026 26.7307C63.083 26.5821 63.1257 26.4279 63.1542 26.2679C63.1826 26.108 63.2026 25.9423 63.2111 25.7681C63.2197 25.5938 63.2254 25.411 63.2282 25.2168H64.718V27.162H65.0227V28.1303H64.6382V27.4962H62.9348V28.1303H62.5503V27.1648ZM64.3106 27.1648V25.5624H63.5985C63.5957 25.6995 63.5871 25.8366 63.5757 25.9766C63.5643 26.1165 63.5444 26.2537 63.5188 26.3879C63.4931 26.525 63.4561 26.6564 63.4077 26.7878C63.3593 26.9163 63.2994 27.0449 63.2254 27.1677H64.3106V27.1648Z" fill="#4F6FC1"/>
<path d="M12.1303 23.159C12.1331 23.1105 12.136 23.059 12.136 22.9991C12.1417 22.8305 12.1417 22.7277 12.1417 22.6934C12.1417 22.6906 12.1417 22.6877 12.1417 22.6849L12.1104 22.2707H12.5633C12.6088 22.2707 12.6487 22.245 12.6686 22.205C12.9079 21.6937 13.3152 20.7711 13.9191 19.3858C14.56 17.9233 15.0414 16.8151 15.3861 16.001C15.8532 14.8899 16.158 14.1501 16.3147 13.7388H16.8017C17.0382 14.33 17.2774 14.9127 17.511 15.4754C17.5366 15.5383 18.4909 17.8262 19.0577 19.183C19.636 20.5626 20.0547 21.5509 20.3338 22.2021C20.3509 22.245 20.3936 22.2707 20.4392 22.2707H20.8921L20.8608 22.6849C20.8608 22.6877 20.8608 22.6906 20.8608 22.6934C20.8608 22.8105 20.8636 22.9191 20.8665 23.0276C20.8693 23.0676 20.8693 23.1105 20.875 23.1533C20.6899 22.9534 20.4421 22.8277 20.1287 22.7734C19.7641 22.7134 19.1375 22.6849 18.2089 22.6849H14.9303C14.1043 22.6849 13.64 22.6906 13.5118 22.6991C12.9079 22.7391 12.4436 22.8934 12.1303 23.159ZM16.289 14.9756C16.2434 14.9756 16.2036 15.0013 16.1836 15.0441C15.8048 15.8839 15.4801 16.618 15.2152 17.2292C14.8762 18.0176 14.5543 18.7974 14.2581 19.5514C13.9362 20.3884 13.6172 21.251 13.3152 22.1164C13.3039 22.1507 13.3095 22.1907 13.3295 22.2221C13.3523 22.2536 13.3865 22.2707 13.4235 22.2707H19.1774C19.2144 22.2707 19.2514 22.2507 19.2742 22.2193C19.297 22.1879 19.2998 22.1479 19.2856 22.1107L16.4485 15.047C16.4314 15.0041 16.3887 14.9756 16.3403 14.9756H16.289Z" fill="#4F6FC1"/>
<path d="M29.9935 22.6844C29.9906 22.6844 29.9792 22.6844 29.9792 22.6844L29.3526 22.7187C29.0421 21.8332 28.7772 21.1077 28.5607 20.5593C28.4154 20.1965 28.216 19.7252 27.9682 19.1539C27.9511 19.1111 27.9084 19.0854 27.8628 19.0854H24.4475C24.3991 19.0854 24.3592 19.114 24.3393 19.1568C23.8209 20.4536 23.5275 21.2048 23.4648 21.3848C23.3366 21.7275 23.1914 22.1731 23.0319 22.7158L22.6274 22.6815C22.6245 22.6815 22.6217 22.6815 22.6188 22.6815C22.616 22.6815 22.6131 22.6815 22.6103 22.6815L22.334 22.7044L26.4187 13.5298H26.5753L30.5033 22.7187L29.9935 22.6844ZM26.168 15.0808C26.1224 15.0808 26.0797 15.1093 26.0626 15.1522L24.5928 18.5884C24.5786 18.6255 24.5814 18.6655 24.6014 18.6969C24.6241 18.7283 24.6583 18.7483 24.6982 18.7483H27.652C27.6919 18.7483 27.7261 18.7283 27.7489 18.6969C27.7688 18.6655 27.7745 18.6227 27.7574 18.5884L26.2734 15.1522C26.2563 15.1093 26.2136 15.0808 26.168 15.0808Z" fill="#4F6FC1"/>
<path d="M36.0001 15.0465C35.983 15.0036 35.9403 14.9722 35.8919 14.9722H35.7722C35.7267 14.9722 35.6839 14.9979 35.6668 15.0408C35.0316 16.4775 34.442 17.8886 33.9122 19.231C33.3966 20.5393 32.9637 21.7132 32.6276 22.7272L32.2231 22.6844C32.2202 22.6844 32.2145 22.6844 32.2117 22.6844C32.206 22.6844 32.2031 22.6844 32.2003 22.6844L31.9297 22.7158C32.1234 22.3188 32.4652 21.5733 32.9523 20.485C33.4194 19.431 33.9891 18.1171 34.6471 16.5832C35.2681 15.135 35.6555 14.181 35.8064 13.7383H36.2764C36.5613 14.4409 36.8433 15.1322 37.1224 15.7977C37.5753 16.9003 38.1621 18.3056 38.8685 19.9766C39.4524 21.3676 39.8455 22.2702 40.0592 22.7158C40.0592 22.7158 39.6091 22.6872 39.6063 22.6872C39.6034 22.6872 39.6006 22.6872 39.5977 22.6872L39.0252 22.7329L36.0001 15.0465Z" fill="#4F6FC1"/>
<path d="M41.7656 22.6959V13.7441L42.1416 13.7756C42.1445 13.7756 42.1559 13.7756 42.1587 13.7756L42.6259 13.7441V17.7859C42.6259 17.8487 42.6771 17.903 42.7426 17.903H43.9646C45.2436 17.903 46.0354 18.0601 46.5168 18.3714C46.9811 18.6713 47.2176 19.2169 47.2176 19.9996C47.2176 20.7536 46.9868 21.3449 46.5282 21.7591C46.0981 22.1475 45.4914 22.4417 44.5315 22.6331C44.4033 22.6588 44.1327 22.676 43.7254 22.6845C43.3408 22.6931 43.0702 22.6988 42.9962 22.6988H41.7656V22.6959ZM42.7398 18.1829C42.6771 18.1829 42.623 18.2343 42.623 18.3V22.2504C42.623 22.3132 42.6743 22.3675 42.7398 22.3675H44.07C44.0729 22.3675 44.0786 22.3675 44.0814 22.3675C44.7707 22.3018 45.3176 22.059 45.7136 21.6448C46.1095 21.2306 46.3089 20.6994 46.3089 20.0681C46.3089 19.5568 46.1836 19.1398 45.9358 18.8227C45.6566 18.4657 45.3376 18.2686 44.9815 18.2343C44.6483 18.2029 44.3976 18.1858 44.2124 18.1858H42.7398V18.1829Z" fill="#4F6FC1"/>
<path d="M58.0266 22.7364C57.3857 22.7364 56.7476 22.7307 55.9444 22.7192C55.0898 22.7078 54.2666 22.6964 53.4776 22.6821H53.4748C52.3154 22.6821 51.3726 22.6878 50.6719 22.6992C50.0139 22.7107 49.4926 22.7221 48.9258 22.7335V13.7046L49.3018 13.736C49.3046 13.736 49.316 13.736 49.316 13.736L49.7832 13.7046V22.1394C49.7832 22.2022 49.8344 22.2565 49.9 22.2565H52.8851C52.9478 22.2565 53.0475 22.2051 53.0475 22.1394V13.7046L53.4691 13.736C53.4719 13.736 53.4748 13.736 53.4776 13.736C53.6713 13.736 53.7824 13.7303 53.9077 13.716V22.1394C53.9077 22.2022 54.0046 22.2565 54.0701 22.2565H57.0553C57.1179 22.2565 57.172 22.2051 57.172 22.1394V13.7046L57.6392 13.736C57.642 13.736 57.6534 13.736 57.6534 13.736L58.0294 13.7046V22.7364H58.0266Z" fill="#4F6FC1"/>
<path d="M60.3506 22.6853V13.7363H64.7856L64.7571 13.9963C64.7571 14.0048 64.7571 14.0134 64.7571 14.0191L64.7828 14.2562C64.5834 14.2191 64.4096 14.1905 64.2701 14.1705C64.0935 14.1476 63.9054 14.1362 63.7032 14.1362H61.3248C61.2621 14.1362 61.208 14.1876 61.208 14.2533V17.6352C61.208 17.6981 61.2592 17.7524 61.3248 17.7524H63.407C63.5836 17.7524 63.8143 17.7438 64.0934 17.7267C64.2587 17.7152 64.3868 17.7095 64.4723 17.7038L64.4467 17.9209C64.4467 17.9295 64.4467 17.938 64.4467 17.9466L64.4723 18.1922C64.3299 18.1865 64.1533 18.1751 63.9396 18.1551C63.6405 18.1265 63.4696 18.1151 63.4041 18.1151H61.3219C61.2592 18.1151 61.2051 18.1665 61.2051 18.2322V22.1683C61.2051 22.2311 61.2564 22.2854 61.3219 22.2854C61.6153 22.2854 62.0881 22.2768 62.729 22.2597C63.1478 22.2483 63.7117 22.234 63.7545 22.234C64.0137 22.234 64.1988 22.2283 64.3185 22.214C64.421 22.2026 64.6033 22.1768 64.8597 22.1369L64.834 22.3911C64.834 22.3996 64.834 22.4054 64.834 22.4139L64.8625 22.691H60.3506V22.6853Z" fill="#4F6FC1"/>
<path d="M13.3318 36.9615L12.9956 36.8187C12.7507 36.713 12.4915 36.6016 12.2209 36.4731C12.0129 36.3788 11.7936 36.276 11.5743 36.1703C11.5629 36.1618 11.5543 36.1589 11.5429 36.156C11.5116 36.1418 11.486 36.1246 11.4546 36.1132C10.0361 35.4134 8.47801 34.5251 7.39275 33.7167V33.7139C7.35002 33.6853 7.30729 33.6567 7.26457 33.6168C7.23323 33.5968 7.19905 33.571 7.16772 33.5482C7.14778 33.5339 7.12784 33.5168 7.10506 33.5025C7.08227 33.4825 7.05948 33.4625 7.03384 33.4454C6.95978 33.3882 6.88573 33.3283 6.81167 33.2654C6.79742 33.2511 6.77748 33.2369 6.76039 33.2226C6.70912 33.1797 6.6607 33.1369 6.60658 33.094C6.55531 33.0512 6.50688 33.0112 6.45561 32.9655C6.43567 32.9541 6.41573 32.9369 6.39864 32.9198C6.1907 32.737 5.97707 32.5456 5.76628 32.3485C5.73495 32.32 5.70932 32.2943 5.68083 32.2628C5.66944 32.2543 5.65235 32.24 5.64095 32.2286C5.60962 32.2 5.58398 32.1743 5.5555 32.1429C5.55265 32.1429 5.55265 32.1429 5.55265 32.14C4.51866 31.1374 3.6271 30.0463 2.89505 28.8838C2.82099 28.7667 2.74693 28.6496 2.68142 28.5296C2.65293 28.4896 2.63014 28.4525 2.61305 28.4125C2.53899 28.2868 2.47063 28.1611 2.39942 28.0354C2.32536 27.9098 2.25984 27.7869 2.19433 27.6613C2.06615 27.4156 1.95506 27.1842 1.85252 26.9586C1.79555 26.8329 1.74143 26.7129 1.693 26.593C1.64173 26.473 1.59616 26.3473 1.55058 26.2274C1.50786 26.1074 1.46513 25.9817 1.4224 25.8589C1.38822 25.7646 1.35974 25.6761 1.33695 25.5875C1.3341 25.5761 1.3284 25.5647 1.3284 25.5561C1.2458 25.2762 1.18883 25.0049 1.14895 24.7392C1.09198 24.3707 1.06635 24.008 1.09198 23.6595C1.09198 23.6281 1.09483 23.5967 1.09483 23.5652C1.09768 23.511 1.10337 23.4596 1.10907 23.411C1.10907 23.391 1.10907 23.3682 1.11192 23.3482C1.11192 23.3053 1.11477 23.2625 1.12331 23.2225C1.13186 23.1482 1.14325 23.074 1.15465 23.0054C1.16604 22.9483 1.18313 22.8883 1.19453 22.8312C1.19453 22.8283 1.19453 22.8283 1.19737 22.8226C1.19737 22.814 1.20022 22.8083 1.20022 22.7997C1.20307 22.7855 1.20307 22.7683 1.21162 22.7569C1.21162 22.754 1.21162 22.754 1.21162 22.7483V22.7369C1.21446 22.7141 1.22301 22.6941 1.22586 22.6741C1.2344 22.6341 1.2458 22.5912 1.25719 22.5541C1.26004 22.5255 1.26858 22.5027 1.27713 22.477C1.28852 22.4341 1.30277 22.3941 1.31986 22.3513C1.36258 22.2142 1.4167 22.0799 1.47367 21.9514C1.47367 21.9514 1.47652 21.9514 1.47652 21.9486C1.49076 21.9057 1.5164 21.8657 1.53349 21.8286C1.55343 21.7857 1.57622 21.7429 1.59616 21.7029C1.6047 21.6886 1.6104 21.6743 1.62464 21.6601C1.62749 21.6601 1.62749 21.6601 1.62749 21.6572C1.63034 21.6486 1.63603 21.6429 1.63888 21.6344C1.65028 21.6144 1.66737 21.5915 1.68161 21.5687C1.80124 21.3973 2.02627 21.0974 2.35669 20.8317C2.57887 20.6461 2.84093 20.4775 3.14856 20.369C3.20553 20.3461 3.2682 20.3261 3.33086 20.3062H3.33371V20.309C2.96626 20.8517 2.82953 21.5372 2.78681 22.0685C2.77257 22.2313 2.76402 22.3827 2.76402 22.5084V22.5113C2.76402 22.6112 2.76402 22.6969 2.76687 22.7598C2.76972 22.854 2.77541 22.9026 2.77541 22.9026C2.78966 23.0425 2.8096 23.1796 2.83238 23.3196C2.84378 23.4053 2.85802 23.491 2.87511 23.5767C2.8979 23.6938 2.92068 23.8052 2.94917 23.9194C2.97765 24.028 3.00614 24.1422 3.03747 24.2536C3.06596 24.3622 3.10014 24.4707 3.13717 24.585C3.23686 24.8992 3.35935 25.2305 3.50462 25.5761C4.13982 27.0928 4.9972 28.4982 6.04543 29.7721C6.07961 29.8149 6.11664 29.8578 6.15367 29.9006C6.24197 30.0092 6.33882 30.1177 6.43282 30.2263C6.82876 30.6776 7.25317 31.1089 7.70038 31.5088C7.72886 31.5373 7.75735 31.5602 7.78583 31.583C7.82571 31.623 7.85989 31.6516 7.89692 31.6887C8.36122 32.1 8.82267 32.4742 9.28412 32.8084C9.39236 32.8855 9.5006 32.9626 9.60884 33.0426C9.70854 33.1112 9.81108 33.1797 9.91363 33.2454C10.019 33.314 10.1216 33.3854 10.227 33.4482C11.0672 33.9738 11.9132 34.3737 12.7678 34.6593L12.876 34.6936L12.8903 34.7793L12.9045 34.8621L12.9073 34.8735L13.2748 36.8016L13.2776 36.8101L13.3318 36.9615Z" fill="#4F6FC1"/>
</g>
<defs>
<clipPath id="clip0_120_426">
<rect width="67.2" height="40" fill="white" transform="translate(0.0654297)"/>
</clipPath>
</defs>
</svg>
