<svg width="123" height="75" viewBox="0 0 123 75" fill="none" xmlns="http://www.w3.org/2000/svg">
<path d="M67.7934 20.8813H66.0844C66.0844 20.8759 66.079 20.8652 66.0684 20.8599H67.7828C67.7881 20.8652 67.7934 20.8759 67.7934 20.8813Z" fill="#3C3C3B"/>
<path d="M6.6006 38.062V38.0674L6.58984 38.062H6.6006Z" fill="#3C3C3B"/>
<path d="M67.7926 20.8596H67.7873C67.579 20.3937 67.36 19.9277 67.125 19.4672V19.4618C66.89 19.0012 66.655 18.5513 66.404 18.1068C66.404 18.1015 66.404 18.1015 66.404 18.1015C65.6616 16.7518 64.8178 15.4558 63.8991 14.2186C63.8991 14.2133 63.8991 14.2133 63.8991 14.2133C63.6641 13.9026 63.4292 13.592 63.1942 13.2867C62.831 12.8368 62.4518 12.3923 62.0726 11.9532C61.688 11.514 61.2928 11.0909 60.8869 10.6785C57.7145 7.42227 53.9118 4.7498 49.7139 2.91816C45.5213 1.08117 40.9442 0.0903775 36.3458 0.00468698C31.742 -0.0702922 27.1061 0.754478 22.7854 2.46829C18.47 4.17139 14.4643 6.73139 11.1263 10.0037C7.79897 13.2814 5.09117 17.2178 3.26994 21.5505C2.92813 22.3646 2.61836 23.2054 2.34063 24.0516C1.87598 25.4441 1.49678 26.8633 1.20838 28.304C0.749065 30.6069 0.503388 32.9527 0.498047 35.3038C0.498047 35.593 0.503387 35.8876 0.514069 36.1768C0.514069 36.1768 0.514069 36.1768 0.514069 36.1822C0.530091 36.7874 0.567476 37.3979 0.615544 38.0031C1.62496 36.4071 2.93881 34.7308 4.62652 33.2044C4.65322 32.6421 4.70663 32.0904 4.77072 31.5335C5.0164 29.3751 5.49173 27.2489 6.15934 25.187C7.12069 22.2575 8.49328 19.4672 10.2184 16.9179C11.2652 15.3968 12.4402 13.9615 13.7326 12.6333C16.6594 9.63416 20.1577 7.15449 24.0191 5.47281C27.8752 3.77507 32.0891 2.85925 36.3404 2.76821C40.5917 2.68787 44.8644 3.44838 48.854 5.01223C52.8276 6.58679 56.5341 8.93792 59.6211 11.9532C59.9469 12.2745 60.2674 12.6012 60.5878 12.9279C60.8923 13.2653 61.2074 13.6134 61.5118 13.9615C61.8536 14.3525 62.1794 14.7542 62.4998 15.1612C62.8203 15.5682 63.1301 15.986 63.4292 16.4091C64.4226 17.8176 65.3198 19.3011 66.0729 20.8543C66.0782 20.8596 66.0889 20.8703 66.0889 20.8757H66.0942H67.7873H67.7926C67.798 20.8757 67.7926 20.865 67.7926 20.8596Z" fill="#3C3C3B"/>
<path d="M62.1738 55.8376H62.1578C62.1578 55.843 62.1524 55.8537 62.1418 55.8591C61.3566 56.8284 60.5128 57.755 59.6209 58.6279C56.5339 61.6432 52.8273 63.9997 48.8537 65.5689C44.8641 67.1381 40.5915 67.8932 36.3401 67.8183C34.3213 67.7647 32.3132 67.5398 30.3531 67.1327C29.8884 67.0363 29.4398 66.9292 28.9805 66.8114C28.9805 66.8168 28.9858 66.8167 28.9805 66.8275C29.0873 67.6147 29.2422 68.5198 29.4665 69.5535C29.4932 69.7088 29.5306 69.8588 29.5733 70.0194C29.568 70.0248 29.568 70.0355 29.5733 70.0409C31.8058 70.4318 34.0756 70.6139 36.3401 70.5818C40.9386 70.4961 45.5157 69.5053 49.7083 67.6683C53.9062 65.842 57.7089 63.1642 60.8813 59.908C62.115 58.6494 63.242 57.2944 64.2674 55.8591C64.2727 55.8537 64.2834 55.843 64.2834 55.8376H64.2781H62.1738Z" fill="#3C3C3B"/>
<path d="M13.2878 63.5445C13.2024 63.4856 13.1009 63.4052 13.0208 63.3356C12.257 62.7358 11.4826 62.0663 10.7242 61.354C10.5587 61.8735 10.3878 62.3609 10.2062 62.8322C10.1795 62.9071 10.1528 62.9714 10.1261 63.041V63.0464C8.99913 66.0027 7.78142 68.2682 6.30201 70.2016L6.17383 70.3676L6.25394 70.5657C6.2753 70.6193 6.29667 70.6729 6.32871 70.7264C6.9803 72.2849 7.60518 74.2504 7.61586 74.2665L7.85085 75.0002L8.27278 74.3575C8.56118 73.9184 8.903 73.3828 9.26083 72.783C10.5373 70.6621 12.1235 67.7754 12.9941 65.6921C13.0689 65.5261 13.1329 65.3654 13.1917 65.2101C13.3679 64.7388 13.5335 64.2782 13.6884 63.8337C13.5442 63.7426 13.416 63.6462 13.2878 63.5445Z" fill="#3C3C3B"/>
<path d="M15.4882 48.4306C15.2478 46.2723 14.9861 44.3657 14.2544 42.7911C14.1903 42.6519 14.1209 42.5126 14.0515 42.3841C13.9874 42.2502 13.9233 42.1217 13.8485 41.9985C13.7684 41.8592 13.6883 41.7307 13.6082 41.5968C13.3518 41.2059 13.0794 40.8256 12.7803 40.4721H12.7857C12.7323 40.4132 12.6789 40.3543 12.6255 40.2954C12.6094 40.2793 12.6041 40.274 12.5881 40.2579C12.5614 40.2311 12.5347 40.2043 12.508 40.1776C12.4225 40.0812 12.3264 39.9794 12.2302 39.8937C12.1661 39.8348 12.1074 39.7759 12.0433 39.717C12.0273 39.7009 12.0059 39.6795 11.9899 39.6634C11.9472 39.6206 11.9044 39.5831 11.8617 39.5402C11.8564 39.5402 11.8564 39.5349 11.8457 39.5349L11.8404 39.5295H11.835V39.5242C11.8137 39.5028 11.7923 39.4813 11.7602 39.4653C11.7068 39.4117 11.6588 39.3689 11.6054 39.326C11.4505 39.2028 11.3009 39.085 11.1354 38.9779C11.114 38.9618 11.0926 38.9511 11.0713 38.9351C10.9431 38.8494 10.8096 38.7583 10.6654 38.6887C10.66 38.6887 10.66 38.6833 10.6493 38.6833C10.6493 38.6833 10.644 38.6833 10.644 38.678C10.6387 38.6726 10.6226 38.6619 10.6173 38.6619C10.6173 38.6566 10.612 38.6566 10.612 38.6566C10.6066 38.6512 10.5959 38.6512 10.5906 38.6405C10.5906 38.6351 10.5853 38.6351 10.5746 38.6351C10.5532 38.6191 10.5318 38.6084 10.5105 38.5923C10.4838 38.5709 10.4464 38.5494 10.409 38.5334C10.3449 38.5066 10.2755 38.4745 10.2114 38.4477C10.2061 38.4477 10.1954 38.4423 10.19 38.4423C10.1313 38.4156 10.0672 38.3834 10.0084 38.362C9.98709 38.3459 9.97106 38.3406 9.9497 38.3352C9.89095 38.3084 9.8322 38.2817 9.78414 38.2602C9.75743 38.2442 9.73072 38.2388 9.70936 38.2335C9.26073 38.046 8.80676 37.9228 8.28336 37.8746C8.24597 37.8693 8.20859 37.8693 8.17654 37.8693C8.03234 37.8479 7.88813 37.8425 7.74927 37.8318L7.74393 37.8479L7.27928 38.5334C7.27928 38.5387 7.27394 38.5387 7.27394 38.5494C6.74519 39.3314 6.5102 40.3275 6.41406 41.1577C6.65974 41.1148 6.87872 41.0987 7.06565 41.0987C7.28996 41.0987 7.42882 41.1202 7.45553 41.1255C7.65848 41.1523 7.84541 41.2005 8.03768 41.2594H8.04302C9.35153 41.6825 10.2167 42.8018 10.7668 43.8944C10.7668 43.8997 10.7722 43.8997 10.7722 43.9105C11.3971 45.1583 11.616 46.358 11.6214 46.3901C12.1608 49.1965 12.289 52.0671 12.0219 54.9378C12.3424 55.3448 12.6735 55.7465 13.026 56.1374C13.6776 56.8872 14.3826 57.6102 15.125 58.285C15.7285 54.9431 15.8406 51.644 15.4882 48.4306Z" fill="#3C3C3B"/>
<path d="M5.65955 43.7121C5.64353 43.6907 5.63819 43.6693 5.63819 43.6478C5.66489 43.8299 5.69694 44.0067 5.73966 44.1941C5.71296 44.0334 5.68091 43.8728 5.65955 43.7121ZM5.65955 43.7121C5.64353 43.6907 5.63819 43.6693 5.63819 43.6478C5.66489 43.8299 5.69694 44.0067 5.73966 44.1941C5.71296 44.0334 5.68091 43.8728 5.65955 43.7121ZM5.65955 43.7121C5.64353 43.6907 5.63819 43.6693 5.63819 43.6478C5.66489 43.8299 5.69694 44.0067 5.73966 44.1941C5.71296 44.0334 5.68091 43.8728 5.65955 43.7121ZM5.65955 43.7121C5.61682 43.4497 5.57944 43.1926 5.55273 42.9302C5.5741 43.1658 5.60614 43.4015 5.63819 43.6425C5.66489 43.8246 5.69694 44.0013 5.73966 44.1888C5.71296 44.0334 5.68091 43.8728 5.65955 43.7121ZM5.65955 43.7121C5.64353 43.6907 5.63819 43.6693 5.63819 43.6478C5.66489 43.8299 5.69694 44.0067 5.73966 44.1941C5.71296 44.0334 5.68091 43.8728 5.65955 43.7121ZM5.65955 43.7121C5.64353 43.6907 5.63819 43.6693 5.63819 43.6478C5.66489 43.8299 5.69694 44.0067 5.73966 44.1941C5.71296 44.0334 5.68091 43.8728 5.65955 43.7121ZM5.65955 43.7121C5.64353 43.6907 5.63819 43.6693 5.63819 43.6478C5.66489 43.8299 5.69694 44.0067 5.73966 44.1941C5.71296 44.0334 5.68091 43.8728 5.65955 43.7121ZM5.65955 43.7121C5.64353 43.6907 5.63819 43.6693 5.63819 43.6478C5.66489 43.8299 5.69694 44.0067 5.73966 44.1941C5.71296 44.0334 5.68091 43.8728 5.65955 43.7121Z" fill="#3C3C3B"/>
<path d="M24.5463 46.5454V47.9914H25.2513C25.6519 47.9914 26.0044 48.0236 26.3195 48.0878C26.6346 48.1521 26.9016 48.2592 27.1206 48.4038C27.3396 48.5484 27.5051 48.7359 27.6226 48.9608C27.7348 49.1857 27.7935 49.4642 27.7935 49.7963C27.7935 50.4015 27.5746 50.8513 27.1366 51.1566C26.6987 51.4619 26.0845 51.6118 25.2833 51.6118C25.1658 51.6118 25.043 51.6118 24.9095 51.6065C24.776 51.6011 24.6424 51.5904 24.5089 51.5797C24.3754 51.569 24.2419 51.5529 24.1137 51.5369C23.9802 51.5208 23.8627 51.4994 23.7559 51.4726V45.8599H27.2648V46.54H24.5463V46.5454ZM25.3474 50.9156C25.5611 50.9156 25.764 50.8995 25.9563 50.8674C26.1486 50.8353 26.3195 50.7764 26.469 50.6907C26.6186 50.605 26.736 50.4925 26.8215 50.3479C26.907 50.2033 26.955 50.0266 26.955 49.807C26.955 49.5767 26.9176 49.3892 26.8375 49.2393C26.7574 49.0893 26.6453 48.9715 26.4957 48.8858C26.3462 48.8001 26.1646 48.7359 25.9509 48.7037C25.7373 48.6662 25.4916 48.6502 25.2192 48.6502H24.5463V50.8942C24.6051 50.8995 24.6798 50.9049 24.7599 50.9103C24.8294 50.9156 24.9148 50.921 25.0163 50.921C25.1124 50.9156 25.2246 50.9156 25.3474 50.9156Z" fill="#3C3C3B"/>
<path d="M30.0862 47.9215C30.0862 48.1036 30.0808 48.2964 30.0755 48.4999C30.0648 48.7034 30.0541 48.9123 30.0328 49.1158C30.0114 49.3193 29.9793 49.5228 29.942 49.7263C29.9046 49.9245 29.8565 50.1119 29.7924 50.2887C29.7337 50.4654 29.6589 50.6261 29.5681 50.7814C29.4773 50.9367 29.3651 51.0706 29.237 51.1884C29.1034 51.3063 28.9539 51.4027 28.7777 51.483C28.6014 51.5633 28.3985 51.6115 28.1635 51.633L28.0566 50.9903C28.3237 50.9367 28.5373 50.835 28.6922 50.685C28.8471 50.535 28.9699 50.3583 29.0661 50.1441C29.1462 49.9566 29.2103 49.7478 29.2476 49.5121C29.285 49.2765 29.3117 49.0301 29.3278 48.7784C29.3438 48.5213 29.3545 48.2696 29.3545 48.0125C29.3545 47.7555 29.3598 47.5091 29.3598 47.2788H32.1958V51.5526H31.4321V47.9215H30.0862Z" fill="#3C3C3B"/>
<path d="M35.054 47.1772C35.3584 47.1772 35.6148 47.2147 35.8284 47.2951C36.0367 47.3754 36.2076 47.4879 36.3358 47.6325C36.464 47.7771 36.5547 47.9485 36.6082 48.152C36.6616 48.3501 36.6883 48.5697 36.6883 48.8107V51.4832C36.6242 51.4939 36.5334 51.51 36.4159 51.526C36.2984 51.5475 36.1649 51.5635 36.0207 51.5796C35.8711 51.5957 35.7109 51.6117 35.54 51.6224C35.3691 51.6385 35.1982 51.6439 35.0273 51.6439C34.7869 51.6439 34.568 51.6171 34.365 51.5689C34.1621 51.5207 33.9858 51.4404 33.8416 51.3332C33.6921 51.2261 33.5799 51.0869 33.4998 50.9101C33.4197 50.7334 33.377 50.5245 33.377 50.2782C33.377 50.0425 33.425 49.839 33.5212 49.6676C33.6173 49.4962 33.7455 49.3624 33.911 49.2552C34.0766 49.1535 34.2689 49.0732 34.4825 49.025C34.7015 48.9768 34.9311 48.95 35.1715 48.95C35.2462 48.95 35.3264 48.9553 35.4118 48.9607C35.4919 48.966 35.572 48.9821 35.6468 48.9928C35.7216 49.0089 35.7857 49.0196 35.8391 49.0303C35.8925 49.041 35.9299 49.0517 35.9512 49.0571V48.8429C35.9512 48.7197 35.9352 48.5911 35.9085 48.468C35.8818 48.3448 35.8337 48.2377 35.759 48.1413C35.6895 48.0449 35.5881 47.9699 35.4652 47.911C35.3424 47.8521 35.1822 47.8253 34.9845 47.8253C34.7335 47.8253 34.5146 47.8413 34.3276 47.8788C34.1407 47.9163 33.9965 47.9538 33.9057 47.9913L33.8149 47.3593C33.911 47.3165 34.0766 47.2736 34.3063 47.2308C34.5359 47.1987 34.7816 47.1772 35.054 47.1772ZM35.1181 51.0065C35.2997 51.0065 35.4599 51.0012 35.5987 50.9958C35.7376 50.9851 35.8551 50.9744 35.9459 50.953V49.6783C35.8925 49.6516 35.8017 49.6301 35.6789 49.6087C35.556 49.5873 35.4065 49.5819 35.2302 49.5819C35.1127 49.5819 34.9952 49.5873 34.867 49.6087C34.7389 49.6248 34.6214 49.6569 34.5146 49.7105C34.4077 49.764 34.3169 49.8337 34.2475 49.9247C34.1781 50.0157 34.1407 50.1336 34.1407 50.2835C34.1407 50.5567 34.2261 50.7495 34.4024 50.8566C34.5786 50.953 34.819 51.0065 35.1181 51.0065Z" fill="#3C3C3B"/>
<path d="M40.4216 47.9215H38.5469V51.5526H37.7832V47.2788H40.4216V47.9215Z" fill="#3C3C3B"/>
<path d="M44.971 49.4213C44.971 49.7587 44.9229 50.0693 44.8214 50.3424C44.7253 50.6156 44.5864 50.8512 44.4049 51.0494C44.2233 51.2475 44.015 51.3975 43.7693 51.5046C43.5236 51.6117 43.2566 51.6653 42.9682 51.6653C42.6798 51.6653 42.4127 51.6117 42.167 51.5046C41.9214 51.3975 41.7077 51.2475 41.5315 51.0494C41.3552 50.8512 41.2164 50.6156 41.1149 50.3424C41.0188 50.0693 40.9707 49.764 40.9707 49.4213C40.9707 49.0892 41.0188 48.7839 41.1149 48.5055C41.211 48.227 41.3499 47.9913 41.5315 47.7931C41.7131 47.595 41.9214 47.445 42.167 47.3379C42.4127 47.2308 42.6798 47.1772 42.9682 47.1772C43.2566 47.1772 43.5236 47.2308 43.7693 47.3379C44.015 47.445 44.2286 47.595 44.4049 47.7931C44.5811 47.9913 44.72 48.227 44.8214 48.5055C44.9176 48.7786 44.971 49.0839 44.971 49.4213ZM44.1752 49.4213C44.1752 48.9393 44.0684 48.559 43.8494 48.2752C43.6358 47.9913 43.342 47.8521 42.9682 47.8521C42.5943 47.8521 42.3006 47.9913 42.0869 48.2752C41.8733 48.559 41.7611 48.9393 41.7611 49.4213C41.7611 49.9033 41.868 50.2835 42.0869 50.5674C42.3006 50.8512 42.5943 50.9905 42.9682 50.9905C43.342 50.9905 43.6358 50.8512 43.8494 50.5674C44.063 50.2835 44.1752 49.9033 44.1752 49.4213Z" fill="#3C3C3B"/>
<path d="M48.7315 47.2844V47.9271H47.3482V51.5582H46.5844V47.9271H45.2012V47.2844H48.7315Z" fill="#3C3C3B"/>
<path d="M50.8995 51.6273C50.579 51.6273 50.2799 51.6113 50.0076 51.5845C49.7352 51.5523 49.5162 51.5202 49.3613 51.4827V47.3267C49.5216 47.2892 49.7352 47.2518 50.0076 47.225C50.2799 47.1928 50.579 47.1821 50.8995 47.1821C51.1238 47.1821 51.3428 47.2036 51.5564 47.241C51.77 47.2785 51.957 47.3428 52.1225 47.4338C52.2881 47.5249 52.4163 47.6481 52.5178 47.8034C52.6192 47.9587 52.6673 48.1515 52.6673 48.3818C52.6673 48.5907 52.6139 48.7674 52.5124 48.9174C52.4109 49.0673 52.2721 49.1798 52.0958 49.2601C52.3308 49.3405 52.5178 49.4636 52.6566 49.6243C52.7955 49.785 52.8649 50.0099 52.8649 50.3045C52.8649 50.5616 52.8169 50.7758 52.7154 50.9472C52.6139 51.1185 52.475 51.2524 52.2988 51.3595C52.1225 51.4613 51.9143 51.5363 51.6739 51.5791C51.4282 51.6059 51.1719 51.6273 50.8995 51.6273ZM50.9155 49.0298C51.0651 49.0298 51.1986 49.0191 51.3214 49.0031C51.4443 48.9816 51.5511 48.9495 51.6419 48.9013C51.7327 48.8531 51.8021 48.7835 51.8555 48.7031C51.9089 48.6228 51.9356 48.5157 51.9356 48.3925C51.9356 48.2586 51.9036 48.1569 51.8395 48.0819C51.7754 48.0069 51.6899 47.948 51.5831 47.9051C51.4763 47.8623 51.3588 47.8355 51.2253 47.8248C51.0918 47.8087 50.9582 47.8034 50.8194 47.8034C50.6912 47.8034 50.5684 47.8087 50.4402 47.8141C50.312 47.8195 50.2052 47.8248 50.1144 47.8302V49.0405H50.9155V49.0298ZM50.1037 50.9793C50.1357 50.9846 50.1838 50.99 50.2426 50.9954C50.3013 51.0007 50.3707 51.0061 50.4455 51.0061C50.5203 51.0114 50.6004 51.0114 50.6859 51.0168C50.7713 51.0168 50.8514 51.0221 50.9262 51.0221C51.0864 51.0221 51.236 51.0114 51.3802 50.99C51.5244 50.9686 51.6526 50.9311 51.7594 50.8722C51.8662 50.8186 51.9516 50.7436 52.0157 50.6526C52.0798 50.5615 52.1119 50.4491 52.1119 50.3045C52.1119 50.1652 52.0852 50.0528 52.0264 49.9617C51.9677 49.8707 51.8929 49.801 51.7914 49.7421C51.6953 49.6886 51.5778 49.6511 51.4443 49.6297C51.3107 49.6082 51.1665 49.5975 51.0116 49.5975H50.1037V50.9793Z" fill="#3C3C3B"/>
<path d="M57.4397 49.4215C57.4397 49.7589 57.3917 50.0695 57.2902 50.3427C57.1941 50.6158 57.0552 50.8515 56.8736 51.0496C56.6974 51.2478 56.4837 51.3978 56.2381 51.5049C55.9924 51.612 55.7253 51.6655 55.4369 51.6655C55.1485 51.6655 54.8815 51.612 54.6358 51.5049C54.3901 51.3978 54.1765 51.2478 54.0002 51.0496C53.824 50.8515 53.6851 50.6158 53.5837 50.3427C53.4875 50.0695 53.4395 49.7643 53.4395 49.4215C53.4395 49.0895 53.4875 48.7842 53.5837 48.5057C53.6798 48.2272 53.8187 47.9916 54.0002 47.7934C54.1765 47.5952 54.3901 47.4453 54.6358 47.3382C54.8815 47.231 55.1485 47.1775 55.4369 47.1775C55.7253 47.1775 55.9924 47.231 56.2381 47.3382C56.4837 47.4453 56.6974 47.5952 56.8736 47.7934C57.0499 47.9916 57.1887 48.2272 57.2902 48.5057C57.3917 48.7788 57.4397 49.0841 57.4397 49.4215ZM56.6493 49.4215C56.6493 48.9395 56.5425 48.5593 56.3235 48.2754C56.1099 47.9916 55.8161 47.8523 55.4423 47.8523C55.0684 47.8523 54.7747 47.9916 54.561 48.2754C54.3474 48.5593 54.2352 48.9395 54.2352 49.4215C54.2352 49.9035 54.3421 50.2838 54.561 50.5676C54.7747 50.8515 55.0684 50.9907 55.4423 50.9907C55.8161 50.9907 56.1045 50.8515 56.3235 50.5676C56.5371 50.2838 56.6493 49.9035 56.6493 49.4215Z" fill="#3C3C3B"/>
<path d="M61.9396 49.4269C61.9396 49.7483 61.8969 50.0482 61.8115 50.3213C61.726 50.5944 61.6032 50.8301 61.4376 51.0283C61.272 51.2264 61.0744 51.3817 60.8341 51.4888C60.5991 51.6013 60.3267 51.6549 60.0169 51.6549C59.7713 51.6549 59.5523 51.6227 59.3654 51.5585C59.1784 51.4942 59.0342 51.4299 58.9434 51.371V53.0795H58.1797V47.4185C58.3613 47.3757 58.5856 47.3275 58.858 47.2739C59.1304 47.2204 59.4401 47.1936 59.798 47.1936C60.1238 47.1936 60.4228 47.2472 60.6845 47.3489C60.9462 47.4507 61.1706 47.6006 61.3575 47.7934C61.5444 47.9862 61.6886 48.2165 61.7901 48.495C61.8862 48.7735 61.9396 49.0842 61.9396 49.4269ZM61.1438 49.4269C61.1438 48.9288 61.021 48.5432 60.7753 48.2754C60.5297 48.0077 60.2039 47.8738 59.7926 47.8738C59.563 47.8738 59.3814 47.8791 59.2585 47.9006C59.1304 47.9166 59.0289 47.938 58.9488 47.9595V50.6534C59.0396 50.7283 59.1731 50.8033 59.3493 50.8729C59.5256 50.9426 59.7125 50.9801 59.9208 50.9801C60.1398 50.9801 60.3267 50.9426 60.4816 50.8622C60.6365 50.7819 60.7646 50.6748 60.8608 50.5355C60.9569 50.3963 61.0317 50.2303 61.0744 50.0428C61.1225 49.85 61.1438 49.6465 61.1438 49.4269Z" fill="#3C3C3B"/>
<path d="M66.4274 47.2844V51.5582H65.6904V48.302C65.5249 48.5109 65.3486 48.7519 65.151 49.0357C64.9534 49.3142 64.7558 49.6034 64.5582 49.9033C64.3605 50.2033 64.1736 50.4978 63.992 50.787C63.8104 51.0762 63.6556 51.3333 63.522 51.5582H62.8438V47.2844H63.5808V50.3586C63.725 50.1229 63.8852 49.8658 64.0668 49.582C64.2484 49.2981 64.4353 49.0197 64.6276 48.7412C64.8199 48.4627 65.0175 48.2002 65.2097 47.9432C65.402 47.6861 65.5836 47.4665 65.7545 47.2844H66.4274Z" fill="#3C3C3B"/>
<path d="M70.751 47.2844V47.9271H69.3677V51.5582H68.604V47.9271H67.2207V47.2844H70.751Z" fill="#3C3C3B"/>
<path d="M71.2988 49.4269C71.2988 49.0466 71.3522 48.7199 71.4644 48.4361C71.5766 48.1522 71.7208 47.9219 71.897 47.7345C72.0786 47.547 72.2869 47.4078 72.5219 47.3167C72.7569 47.2257 72.9972 47.1775 73.2429 47.1775C73.8144 47.1775 74.2577 47.3596 74.5621 47.7184C74.8665 48.0772 75.0214 48.6235 75.0214 49.3572C75.0214 49.3894 75.0214 49.4322 75.0214 49.4858C75.0214 49.5393 75.0214 49.5875 75.016 49.6304H72.1C72.132 50.0749 72.2602 50.4123 72.4845 50.6426C72.7088 50.8729 73.056 50.9854 73.5313 50.9854C73.7983 50.9854 74.0227 50.9639 74.2096 50.9157C74.3912 50.8675 74.53 50.8247 74.6208 50.7819L74.7276 51.4245C74.6369 51.4727 74.4713 51.5263 74.2416 51.5798C74.012 51.6334 73.7449 51.6602 73.4512 51.6602C73.0773 51.6602 72.7569 51.6013 72.4898 51.4888C72.2175 51.3763 71.9985 51.221 71.8222 51.0229C71.646 50.8247 71.5178 50.589 71.4323 50.3213C71.3362 50.0481 71.2988 49.7482 71.2988 49.4269ZM74.2203 49.0091C74.2256 48.6664 74.1401 48.3825 73.9639 48.1576C73.7877 47.938 73.542 47.8255 73.2322 47.8255C73.056 47.8255 72.9011 47.8577 72.7676 47.9273C72.634 47.9969 72.5219 48.0826 72.4257 48.1951C72.3296 48.3075 72.2602 48.4307 72.2068 48.5753C72.1534 48.7199 72.1213 48.8645 72.1053 49.0091H74.2203Z" fill="#3C3C3B"/>
<path d="M77.5178 47.9215C77.5178 48.1036 77.5125 48.2964 77.5071 48.4999C77.4964 48.7034 77.4858 48.9123 77.4644 49.1158C77.443 49.3193 77.411 49.5228 77.3736 49.7263C77.3362 49.9245 77.2881 50.1119 77.2241 50.2887C77.1653 50.4654 77.0905 50.6261 76.9997 50.7814C76.9089 50.9367 76.7968 51.0706 76.6686 51.1884C76.5351 51.3063 76.3855 51.4027 76.2093 51.483C76.0331 51.5633 75.8301 51.6115 75.5951 51.633L75.4883 50.9903C75.7553 50.9367 75.969 50.835 76.1238 50.685C76.2787 50.535 76.4016 50.3583 76.4977 50.1441C76.5778 49.9566 76.6419 49.7478 76.6793 49.5121C76.7167 49.2765 76.7434 49.0301 76.7594 48.7784C76.7754 48.5213 76.7861 48.2696 76.7861 48.0125C76.7861 47.7555 76.7914 47.5091 76.7914 47.2788H79.6274V51.5526H78.8637V47.9215H77.5178Z" fill="#3C3C3B"/>
<path d="M80.7676 51.4669V47.2842H81.5313V48.9177C81.574 48.9069 81.6328 48.8962 81.7076 48.8855C81.7823 48.8748 81.8625 48.8641 81.9479 48.8534C82.0334 48.8427 82.1188 48.832 82.2149 48.8266C82.3057 48.8213 82.3965 48.8213 82.4766 48.8213C82.7116 48.8213 82.9306 48.848 83.1389 48.9016C83.3472 48.9551 83.5288 49.0355 83.6837 49.1479C83.8386 49.2604 83.9614 49.405 84.0575 49.5818C84.1483 49.7585 84.1964 49.9727 84.1964 50.2191C84.1964 50.4761 84.1537 50.6957 84.0629 50.8778C83.9774 51.0599 83.8492 51.2045 83.6837 51.3223C83.5181 51.4348 83.3258 51.5205 83.0962 51.5741C82.8719 51.6276 82.6155 51.6544 82.3378 51.6544C82.0654 51.6544 81.7984 51.6383 81.5367 51.6115C81.275 51.5687 81.0186 51.5259 80.7676 51.4669ZM82.3805 51.0224C82.701 51.0224 82.9573 50.9582 83.1443 50.835C83.3312 50.7118 83.422 50.5083 83.422 50.2244C83.422 50.0852 83.3953 49.9674 83.3419 49.871C83.2885 49.7746 83.2137 49.6942 83.1175 49.63C83.0214 49.5657 82.9093 49.5175 82.7864 49.4907C82.6636 49.4586 82.5247 49.4479 82.3859 49.4479C82.2363 49.4479 82.0868 49.4532 81.9319 49.4586C81.777 49.4639 81.6435 49.4854 81.5367 49.5121V50.9849C81.5687 50.9903 81.6168 50.9956 81.6862 51.001C81.7503 51.0064 81.8251 51.0117 81.9052 51.0117C81.9853 51.0171 82.0654 51.0171 82.1509 51.0224C82.2256 51.0171 82.3057 51.0224 82.3805 51.0224Z" fill="#3C3C3B"/>
<path d="M88.4206 51.5526H87.6569V49.6621H85.6915V51.5526H84.9277V47.2788H85.6915V49.0194H87.6569V47.2788H88.4206V51.5526Z" fill="#3C3C3B"/>
<path d="M89.5684 47.2842H90.3321V48.9176C90.4229 48.8962 90.5618 48.8748 90.738 48.8534C90.9143 48.832 91.0852 48.8212 91.2507 48.8212C91.475 48.8212 91.6887 48.848 91.8916 48.9016C92.0946 48.9551 92.2708 49.0355 92.4257 49.1479C92.5806 49.2604 92.6981 49.405 92.7889 49.5817C92.8797 49.7585 92.9224 49.9727 92.9224 50.2191C92.9224 50.4761 92.8797 50.6957 92.7889 50.8778C92.7034 51.0599 92.5806 51.2045 92.4204 51.3223C92.2601 51.4348 92.0732 51.5205 91.8489 51.574C91.6246 51.6276 91.3789 51.6544 91.1119 51.6544C90.8555 51.6544 90.5938 51.6383 90.3321 51.6115C90.0704 51.5794 89.814 51.5366 89.5684 51.4776V47.2842ZM91.1332 49.4425C90.9837 49.4425 90.8448 49.4478 90.7006 49.4532C90.5618 49.4586 90.4389 49.48 90.3268 49.5068V50.9796C90.3588 50.9849 90.4069 50.9903 90.471 50.9956C90.5351 51.001 90.6045 51.0063 90.6739 51.0063C90.7487 51.0117 90.8235 51.0117 90.8982 51.0171C90.973 51.0171 91.0424 51.0224 91.1012 51.0224C91.4323 51.0224 91.694 50.9581 91.8703 50.835C92.0518 50.7118 92.1426 50.5083 92.1426 50.2244C92.1426 50.0852 92.1159 49.9673 92.0572 49.8709C91.9984 49.7745 91.9237 49.6942 91.8275 49.6299C91.7314 49.5657 91.6246 49.5175 91.5017 49.4907C91.3896 49.4586 91.2614 49.4425 91.1332 49.4425ZM94.4659 51.5526H93.7022V47.2788H94.4659V51.5526Z" fill="#3C3C3B"/>
<path d="M99.363 47.2842V51.5581H98.626V48.3018C98.4604 48.5107 98.2841 48.7517 98.0865 49.0355C97.8889 49.314 97.6913 49.6032 97.4937 49.9032C97.2961 50.2031 97.1092 50.4976 96.9276 50.7868C96.746 51.076 96.5911 51.3331 96.4576 51.5581H95.7793V47.2842H96.5163V50.3584C96.6605 50.1227 96.8208 49.8657 97.0023 49.5818C97.1839 49.298 97.3709 49.0195 97.5631 48.741C97.7554 48.4625 97.953 48.2001 98.1453 47.943C98.3376 47.6859 98.5191 47.4663 98.6901 47.2842H99.363ZM97.5738 46.5934C97.232 46.5934 96.9489 46.5077 96.7353 46.3309C96.5217 46.1542 96.3882 45.9132 96.3454 45.5972L96.9276 45.4419C96.9703 45.6186 97.0451 45.7579 97.1466 45.8703C97.248 45.9775 97.3922 46.0364 97.5738 46.0364C97.7554 46.0364 97.8943 45.9828 98.0011 45.8703C98.1026 45.7579 98.1773 45.6186 98.2201 45.4419L98.7915 45.5972C98.7488 45.9078 98.6206 46.1542 98.407 46.3309C98.1987 46.5023 97.921 46.5934 97.5738 46.5934Z" fill="#3C3C3B"/>
<path d="M105.417 53.0739H104.68V51.5797C104.359 51.5743 104.055 51.5208 103.772 51.4244C103.489 51.328 103.238 51.1834 103.024 51.0013C102.81 50.8192 102.639 50.5942 102.511 50.3264C102.383 50.064 102.324 49.7587 102.324 49.416C102.324 49.0786 102.388 48.7733 102.511 48.5055C102.634 48.2431 102.805 48.0128 103.024 47.8307C103.238 47.6486 103.489 47.504 103.772 47.4076C104.055 47.3112 104.359 47.2577 104.68 47.2523V45.3028L105.417 45.1689V47.2469C105.732 47.2523 106.036 47.3059 106.325 47.4023C106.613 47.4987 106.864 47.6433 107.078 47.8254C107.291 48.0074 107.462 48.2324 107.59 48.5002C107.713 48.7679 107.777 49.0679 107.777 49.4106C107.777 49.748 107.713 50.0533 107.59 50.3211C107.462 50.5889 107.291 50.8138 107.078 50.9959C106.864 51.178 106.613 51.3226 106.325 51.419C106.036 51.5154 105.737 51.569 105.417 51.5743V53.0739ZM103.099 49.4213C103.099 49.6623 103.136 49.8766 103.216 50.064C103.296 50.2515 103.408 50.4068 103.547 50.5353C103.691 50.6639 103.857 50.7603 104.049 50.8299C104.242 50.8995 104.45 50.937 104.674 50.9423V47.9003C104.45 47.9057 104.242 47.9432 104.049 48.0182C103.857 48.0878 103.686 48.1895 103.547 48.3181C103.403 48.4466 103.296 48.6019 103.216 48.7894C103.136 48.9715 103.099 49.1857 103.099 49.4213ZM105.417 50.937C105.641 50.9316 105.849 50.8941 106.041 50.8245C106.234 50.7549 106.405 50.6585 106.543 50.53C106.688 50.4014 106.795 50.2461 106.875 50.0587C106.955 49.8712 106.992 49.657 106.992 49.416C106.992 49.1803 106.955 48.9715 106.875 48.784C106.795 48.5966 106.682 48.4413 106.543 48.3127C106.399 48.1842 106.234 48.0824 106.041 48.0128C105.849 47.9432 105.641 47.9003 105.417 47.895V50.937Z" fill="#3C3C3B"/>
<path d="M112.6 49.4213C112.6 49.7587 112.552 50.0693 112.45 50.3424C112.354 50.6156 112.215 50.8512 112.034 51.0494C111.858 51.2475 111.644 51.3975 111.398 51.5046C111.153 51.6117 110.885 51.6653 110.597 51.6653C110.309 51.6653 110.042 51.6117 109.796 51.5046C109.55 51.3975 109.337 51.2475 109.16 51.0494C108.984 50.8512 108.845 50.6156 108.744 50.3424C108.648 50.0693 108.6 49.764 108.6 49.4213C108.6 49.0892 108.648 48.7839 108.744 48.5055C108.84 48.227 108.979 47.9913 109.16 47.7931C109.342 47.595 109.55 47.445 109.796 47.3379C110.042 47.2308 110.309 47.1772 110.597 47.1772C110.885 47.1772 111.153 47.2308 111.398 47.3379C111.644 47.445 111.858 47.595 112.034 47.7931C112.21 47.9913 112.349 48.227 112.45 48.5055C112.552 48.7786 112.6 49.0839 112.6 49.4213ZM111.804 49.4213C111.804 48.9393 111.697 48.559 111.478 48.2752C111.265 47.9913 110.971 47.8521 110.597 47.8521C110.223 47.8521 109.929 47.9913 109.716 48.2752C109.502 48.559 109.39 48.9393 109.39 49.4213C109.39 49.9033 109.497 50.2835 109.716 50.5674C109.929 50.8512 110.223 50.9905 110.597 50.9905C110.971 50.9905 111.265 50.8512 111.478 50.5674C111.697 50.2835 111.804 49.9033 111.804 49.4213Z" fill="#3C3C3B"/>
<path d="M116.997 51.5526H116.233V49.6621H114.268V51.5526H113.504V47.2788H114.268V49.0194H116.233V47.2788H116.997V51.5526Z" fill="#3C3C3B"/>
<path d="M117.623 50.9314H118.082C118.264 50.6689 118.408 50.3958 118.515 50.1173C118.622 49.8388 118.702 49.5496 118.755 49.2497C118.809 48.9498 118.846 48.6391 118.862 48.3125C118.878 47.9858 118.889 47.643 118.894 47.2788H121.687V50.926H122.259V52.7416H121.538V51.5526H118.344V52.7416H117.623V50.9314ZM120.924 50.9314V47.9268H119.588C119.583 48.1839 119.567 48.441 119.546 48.7034C119.524 48.9658 119.487 49.2229 119.439 49.4746C119.391 49.7317 119.321 49.9781 119.231 50.2244C119.14 50.4654 119.028 50.7064 118.889 50.9367H120.924V50.9314Z" fill="#3C3C3B"/>
<path d="M23.0843 43.423C23.0896 43.3319 23.0949 43.2355 23.0949 43.1231C23.1056 42.8071 23.1056 42.6143 23.1056 42.55C23.1056 42.5446 23.1056 42.5393 23.1056 42.5339L23.0469 41.7574H23.8961C23.9815 41.7574 24.0563 41.7092 24.0937 41.6342C24.5423 40.6755 25.306 38.9456 26.4383 36.3481C27.64 33.6061 28.5426 31.5281 29.1888 30.0017C30.0647 27.9183 30.6362 26.5312 30.93 25.76H31.8432C32.2865 26.8686 32.7352 27.9612 33.1731 29.0163C33.2212 29.1341 35.0104 33.424 36.0732 35.9679C37.1574 38.5547 37.9425 40.4077 38.4659 41.6288C38.4979 41.7092 38.578 41.7574 38.6635 41.7574H39.5127L39.4539 42.5339C39.4539 42.5393 39.4539 42.5446 39.4539 42.55C39.4539 42.7696 39.4593 42.9731 39.4646 43.1766C39.47 43.2516 39.47 43.3319 39.4806 43.4123C39.1335 43.0374 38.6688 42.8017 38.0813 42.7C37.3977 42.5875 36.2227 42.5339 34.4816 42.5339H28.3343C26.7855 42.5339 25.9149 42.5447 25.6746 42.5607C24.5423 42.6357 23.6718 42.9249 23.0843 43.423ZM30.8819 28.079C30.7964 28.079 30.7217 28.1272 30.6843 28.2075C29.9739 29.7821 29.3651 31.1585 28.8684 32.3046C28.2328 33.7828 27.6293 35.2449 27.0739 36.6588C26.4704 38.228 25.8722 39.8454 25.306 41.4682C25.2847 41.5324 25.2954 41.6074 25.3328 41.6663C25.3755 41.7252 25.4396 41.7574 25.509 41.7574H36.2975C36.3669 41.7574 36.4364 41.7199 36.4791 41.661C36.5218 41.6021 36.5272 41.5271 36.5005 41.4574L31.181 28.2129C31.1489 28.1326 31.0688 28.079 30.978 28.079H30.8819Z" fill="#3C3C3B"/>
<path d="M56.5842 42.5338C56.5788 42.5338 56.5575 42.5338 56.5575 42.5338L55.3825 42.5981C54.8003 40.9378 54.3036 39.5775 53.8977 38.5492C53.6253 37.869 53.2515 36.9853 52.7868 35.9142C52.7548 35.8339 52.6747 35.7857 52.5892 35.7857H46.1856C46.0948 35.7857 46.02 35.8392 45.9826 35.9195C45.0106 38.351 44.4605 39.7596 44.343 40.097C44.1026 40.7396 43.8302 41.5751 43.5312 42.5927L42.7728 42.5284C42.7674 42.5284 42.7621 42.5284 42.7567 42.5284C42.7514 42.5284 42.7461 42.5284 42.7407 42.5284L42.2227 42.5713L49.8814 25.3689H50.1752L57.5402 42.5981L56.5842 42.5338ZM49.4114 28.277C49.326 28.277 49.2459 28.3306 49.2138 28.4109L46.4579 34.8538C46.4312 34.9234 46.4366 34.9984 46.474 35.0573C46.5167 35.1162 46.5808 35.1537 46.6556 35.1537H52.194C52.2688 35.1537 52.3329 35.1162 52.3756 35.0573C52.413 34.9984 52.4237 34.918 52.3916 34.8538L49.609 28.4109C49.577 28.3306 49.4969 28.277 49.4114 28.277Z" fill="#3C3C3B"/>
<path d="M67.8313 28.2129C67.7992 28.1326 67.7191 28.0737 67.6283 28.0737H67.404C67.3186 28.0737 67.2384 28.1219 67.2064 28.2022C66.0154 30.8961 64.9098 33.5418 63.9164 36.0589C62.9498 38.5118 62.1379 40.713 61.5077 42.6143L60.7493 42.5339C60.744 42.5339 60.7333 42.5339 60.728 42.5339C60.7173 42.5339 60.7119 42.5339 60.7066 42.5339L60.1992 42.5928C60.5624 41.8484 61.2033 40.4506 62.1166 38.4101C62.9925 36.4338 64.0606 33.9702 65.2944 31.0942C66.4587 28.3789 67.185 26.5901 67.4681 25.76H68.3493C68.8834 27.0775 69.4122 28.3736 69.9356 29.6214C70.7848 31.6887 71.885 34.3237 73.2095 37.4568C74.3044 40.065 75.0414 41.7574 75.442 42.5928C75.442 42.5928 74.5981 42.5393 74.5928 42.5393C74.5874 42.5393 74.5821 42.5393 74.5768 42.5393L73.5033 42.625L67.8313 28.2129Z" fill="#3C3C3B"/>
<path d="M78.6523 42.5556V25.771L79.3573 25.8299C79.3627 25.8299 79.384 25.8299 79.3894 25.8299L80.2653 25.771V33.3493C80.2653 33.4671 80.3614 33.5688 80.4843 33.5688H82.7755C85.1735 33.5688 86.6583 33.8634 87.5609 34.4472C88.4314 35.0095 88.8747 36.0324 88.8747 37.4999C88.8747 38.9138 88.4421 40.0224 87.5822 40.799C86.7758 41.5273 85.6382 42.079 83.8383 42.4378C83.598 42.486 83.0906 42.5181 82.3268 42.5342C81.6058 42.5503 81.0985 42.561 80.9596 42.561H78.6523V42.5556ZM80.4789 34.0937C80.3614 34.0937 80.2599 34.1901 80.2599 34.3133V41.7201C80.2599 41.838 80.3561 41.9397 80.4789 41.9397H82.9731C82.9784 41.9397 82.9891 41.9397 82.9944 41.9397C84.2869 41.8166 85.3124 41.3613 86.0547 40.5848C86.7971 39.8082 87.171 38.812 87.171 37.6284C87.171 36.6698 86.936 35.8878 86.4713 35.2934C85.9479 34.6239 85.3498 34.2544 84.6822 34.1901C84.0573 34.1312 83.5873 34.099 83.2401 34.099H80.4789V34.0937Z" fill="#3C3C3B"/>
<path d="M109.166 42.6304C107.964 42.6304 106.768 42.6197 105.261 42.5983C103.659 42.5768 102.116 42.5554 100.636 42.5286H100.631C98.4572 42.5286 96.6893 42.5394 95.3755 42.5608C94.1418 42.5822 93.1644 42.6036 92.1016 42.625V25.6958L92.8065 25.7547C92.8119 25.7547 92.8333 25.7547 92.8333 25.7547L93.7092 25.6958V41.5111C93.7092 41.6289 93.8053 41.7306 93.9281 41.7306H99.5253C99.6428 41.7306 99.8298 41.6342 99.8298 41.5111V25.6958L100.62 25.7547C100.626 25.7547 100.631 25.7547 100.636 25.7547C100.999 25.7547 101.208 25.744 101.443 25.7172V41.5111C101.443 41.6289 101.624 41.7306 101.747 41.7306H107.344C107.462 41.7306 107.563 41.6342 107.563 41.5111V25.6958L108.439 25.7547C108.445 25.7547 108.466 25.7547 108.466 25.7547L109.171 25.6958V42.6304H109.166Z" fill="#3C3C3B"/>
<path d="M113.48 42.5337V25.7544H121.796L121.743 26.2418C121.743 26.2578 121.743 26.2739 121.743 26.2846L121.791 26.7291C121.417 26.6595 121.091 26.6059 120.829 26.5685C120.498 26.5256 120.146 26.5042 119.767 26.5042H115.307C115.19 26.5042 115.088 26.6006 115.088 26.7238V33.0649C115.088 33.1827 115.184 33.2845 115.307 33.2845H119.211C119.542 33.2845 119.975 33.2684 120.498 33.2363C120.808 33.2148 121.048 33.2041 121.209 33.1934L121.161 33.6004C121.161 33.6165 121.161 33.6326 121.161 33.6486L121.209 34.1092C120.942 34.0985 120.61 34.0771 120.21 34.0396C119.649 33.986 119.329 33.9646 119.206 33.9646H115.302C115.184 33.9646 115.083 34.061 115.083 34.1842V41.5643C115.083 41.6821 115.179 41.7839 115.302 41.7839C115.852 41.7839 116.738 41.7678 117.94 41.7357C118.725 41.7143 119.783 41.6875 119.863 41.6875C120.349 41.6875 120.696 41.6768 120.92 41.65C121.113 41.6286 121.454 41.5804 121.935 41.5054L121.887 41.982C121.887 41.9981 121.887 42.0088 121.887 42.0249L121.94 42.5444H113.48V42.5337Z" fill="#3C3C3B"/>
<path d="M25.3335 69.3016L24.7033 69.0338C24.244 68.8357 23.7579 68.6268 23.2506 68.3858C22.8607 68.209 22.4494 68.0162 22.0382 67.8181C22.0168 67.802 22.0008 67.7967 21.9794 67.7913C21.9207 67.7645 21.8726 67.7324 21.8139 67.711C19.1541 66.3988 16.2327 64.7332 14.1978 63.2176V63.2122C14.1177 63.1587 14.0376 63.1051 13.9575 63.0301C13.8987 62.9926 13.8347 62.9444 13.7759 62.9016C13.7385 62.8748 13.7011 62.8427 13.6584 62.8159C13.6157 62.7784 13.573 62.7409 13.5249 62.7088C13.386 62.6017 13.2472 62.4892 13.1083 62.3714C13.0816 62.3446 13.0442 62.3178 13.0122 62.291C12.916 62.2107 12.8252 62.1304 12.7238 62.05C12.6276 61.9697 12.5368 61.8947 12.4407 61.809C12.4033 61.7876 12.3659 61.7555 12.3339 61.7233C11.944 61.3806 11.5434 61.0218 11.1482 60.6522C11.0895 60.5987 11.0414 60.5505 10.988 60.4915C10.9666 60.4755 10.9346 60.4487 10.9132 60.4273C10.8545 60.3737 10.8064 60.3255 10.753 60.2666C10.7476 60.2666 10.7476 60.2666 10.7476 60.2613C8.80892 58.3814 7.13724 56.3355 5.76464 54.1558C5.62578 53.9362 5.48692 53.7166 5.36408 53.4917C5.31067 53.4167 5.26794 53.3471 5.2359 53.2721C5.09704 53.0365 4.96886 52.8008 4.83534 52.5652C4.69647 52.3295 4.57364 52.0992 4.4508 51.8636C4.21046 51.403 4.00217 50.9692 3.80989 50.5461C3.70308 50.3104 3.6016 50.0855 3.51081 49.8606C3.41467 49.6356 3.32922 49.4 3.24377 49.175C3.16365 48.9501 3.08354 48.7144 3.00343 48.4842C2.93934 48.3074 2.88593 48.1414 2.8432 47.9754C2.83786 47.9539 2.82718 47.9325 2.82718 47.9165C2.6723 47.3916 2.56548 46.8828 2.49071 46.3847C2.38389 45.6939 2.33582 45.0137 2.38389 44.3603C2.38389 44.3014 2.38923 44.2425 2.38923 44.1836C2.39457 44.0818 2.40525 43.9854 2.41593 43.8944C2.41593 43.8569 2.41594 43.814 2.42128 43.7765C2.42128 43.6962 2.42662 43.6159 2.44264 43.5409C2.45866 43.4016 2.48003 43.2624 2.50139 43.1339C2.52275 43.0267 2.5548 42.9143 2.57616 42.8072C2.57616 42.8018 2.57616 42.8018 2.5815 42.7911C2.5815 42.775 2.58684 42.7643 2.58684 42.7482C2.59218 42.7215 2.59218 42.6893 2.60821 42.6679C2.60821 42.6626 2.60821 42.6626 2.60821 42.6518V42.6304C2.61355 42.5876 2.62957 42.5501 2.63491 42.5126C2.65093 42.4376 2.6723 42.3573 2.69366 42.2877C2.699 42.2341 2.71502 42.1913 2.73104 42.1431C2.75241 42.0627 2.77911 41.9877 2.81116 41.9074C2.89127 41.6503 2.99275 41.3986 3.09956 41.1576C3.09956 41.1576 3.1049 41.1576 3.1049 41.1523C3.13161 41.0719 3.17968 40.9969 3.21172 40.9273C3.24911 40.847 3.29183 40.7666 3.32922 40.6917C3.34524 40.6649 3.35592 40.6381 3.38263 40.6113C3.38797 40.6113 3.38797 40.6113 3.38797 40.606C3.39331 40.5899 3.40399 40.5792 3.40933 40.5631C3.4307 40.5256 3.46274 40.4828 3.48945 40.44C3.71376 40.1186 4.13569 39.5563 4.75523 39.0582C5.17181 38.7101 5.66317 38.3941 6.23998 38.1906C6.3468 38.1477 6.46429 38.1102 6.58179 38.0728H6.58713V38.0781C5.89817 39.0957 5.6418 40.381 5.56169 41.3772C5.53499 41.6825 5.51897 41.9663 5.51897 42.202V42.2073C5.51897 42.3948 5.51896 42.5554 5.5243 42.6733C5.52965 42.85 5.54033 42.941 5.54033 42.941C5.56703 43.2035 5.60442 43.4605 5.64715 43.723C5.66851 43.8836 5.69521 44.0443 5.72726 44.205C5.76999 44.4246 5.81271 44.6334 5.86612 44.8477C5.91953 45.0512 5.97294 45.2654 6.03169 45.4743C6.0851 45.6778 6.14918 45.8813 6.21862 46.0955C6.40554 46.6847 6.6352 47.3059 6.90758 47.9539C8.09859 50.7978 9.70618 53.4328 11.6716 55.8214C11.7357 55.9017 11.8051 55.9821 11.8746 56.0624C12.0401 56.2659 12.2217 56.4694 12.398 56.673C13.1403 57.5191 13.9361 58.3279 14.7746 59.0776C14.828 59.1312 14.8815 59.174 14.9349 59.2169C15.0096 59.2919 15.0737 59.3454 15.1432 59.4151C16.0137 60.1863 16.8789 60.8879 17.7442 61.5145C17.9471 61.6591 18.1501 61.8037 18.353 61.9536C18.5399 62.0822 18.7322 62.2107 18.9245 62.3339C19.1221 62.4624 19.3144 62.5963 19.512 62.7141C21.0875 63.6996 22.6737 64.4494 24.276 64.9849L24.479 65.0492L24.5057 65.2099L24.5324 65.3652L24.5377 65.3866L25.2267 69.0017L25.232 69.0177L25.3335 69.3016Z" fill="#3C3C3B"/>
</svg>
