<svg width="487" height="412" viewBox="0 0 487 412" fill="none" xmlns="http://www.w3.org/2000/svg">
<path d="M275.699 410.618C388.202 410.618 479.403 318.84 479.403 205.625C479.403 92.411 388.202 0.63269 275.699 0.63269C163.197 0.63269 71.9961 92.411 71.9961 205.625C71.9961 318.84 163.197 410.618 275.699 410.618Z" fill="#E3AEB8"/>
<mask id="mask0_65_4450" style="mask-type:luminance" maskUnits="userSpaceOnUse" x="0" y="0" width="487" height="412">
<path d="M486.938 0.271851H0.9375V411.031H486.938V0.271851Z" fill="white"/>
</mask>
<g mask="url(#mask0_65_4450)">
<path d="M118.513 46.5309C118.513 46.5309 104.486 41.7349 90.4585 51.5848C76.4313 61.4348 69.263 66.7981 68.6442 86.8075C68.0253 106.817 63.5903 140.234 60.5992 146.784C57.6081 153.333 37.5988 199.644 34.0404 205.884C30.482 212.175 25.0671 225.893 25.0671 225.893C25.0671 225.893 15.2172 240.797 14.3405 250.08C13.4638 259.311 16.1454 274.833 26.5627 279.629C37.0315 284.426 64.1575 270.656 76.1219 260.239C88.0862 249.822 108.353 233.061 108.353 233.061C108.353 233.061 129.858 178.139 129.549 177.262C129.239 176.385 125.062 101.763 124.495 100.835C123.928 99.9579 130.787 53.6992 118.513 46.5309Z" fill="#FFFBFA"/>
</g>
<mask id="mask1_65_4450" style="mask-type:luminance" maskUnits="userSpaceOnUse" x="0" y="0" width="487" height="412">
<path d="M486.938 0.271851H0.9375V411.031H486.938V0.271851Z" fill="white"/>
</mask>
<g mask="url(#mask1_65_4450)">
<path d="M367.185 93.4082C368.681 94.4396 398.849 144.154 422.108 166.845L456.711 205.058C456.711 205.058 463.261 213.103 463.261 217.899C463.261 222.695 461.146 242.653 451.606 245.386C442.065 248.068 432.215 251.368 425.614 251.059C419.065 250.75 396.941 247.759 393.073 249.564C389.206 251.368 376.932 261.786 373.064 262.972C369.196 264.158 357.541 263.281 353.983 262.972C350.425 262.662 341.761 261.476 340.833 262.095C339.956 262.714 333.974 264.467 331.601 263.9C331.601 263.9 324.124 266.582 319.379 263.591L299.679 265.086L302.361 247.759L309.529 230.431L301.742 217.59L318.451 218.467C318.451 218.467 326.805 211.298 332.478 216.971C332.478 216.971 336.655 216.094 342.019 218.467C347.382 220.839 350.064 216.094 351.869 216.662C353.674 217.28 373.941 218.776 373.941 218.776C373.941 218.776 387.349 214.908 390.65 212.794C390.65 212.794 368.268 184.43 356.923 178.757C345.577 173.085 326.496 157.562 324.382 156.066C322.267 154.571 307.982 140.234 305.868 134.871C303.753 129.507 299.576 116.976 299.576 116.976C299.576 116.976 351.353 82.3205 367.185 93.4082Z" fill="#FFFBFA"/>
</g>
<mask id="mask2_65_4450" style="mask-type:luminance" maskUnits="userSpaceOnUse" x="0" y="0" width="487" height="412">
<path d="M486.938 0.271851H0.9375V411.031H486.938V0.271851Z" fill="white"/>
</mask>
<g mask="url(#mask2_65_4450)">
<path d="M305.409 121.772C305.409 121.772 305.719 142.658 314.073 157.613C322.428 172.517 329.287 200.881 314.692 217.899C300.046 234.918 284.523 223.572 284.523 223.572L305.409 121.772Z" fill="white"/>
</g>
<mask id="mask3_65_4450" style="mask-type:luminance" maskUnits="userSpaceOnUse" x="0" y="0" width="487" height="412">
<path d="M486.938 0.271851H0.9375V411.031H486.938V0.271851Z" fill="white"/>
</mask>
<g mask="url(#mask3_65_4450)">
<path d="M309.839 233.731C309.839 233.731 311.386 320.834 284.982 395.662C259.764 467.242 287.664 279.887 287.664 279.887L309.839 233.731Z" fill="white"/>
</g>
<mask id="mask4_65_4450" style="mask-type:luminance" maskUnits="userSpaceOnUse" x="0" y="0" width="487" height="412">
<path d="M486.938 0.271851H0.9375V411.031H486.938V0.271851Z" fill="white"/>
</mask>
<g mask="url(#mask4_65_4450)">
<path d="M364.608 93.769C361.927 84.2801 353.572 38.6918 307.726 46.943C307.726 46.943 279.053 56.9993 263.066 38.6402C263.066 38.6402 256.981 36.8868 254.351 20.5905C251.669 4.34584 250.225 -29.6907 253.474 -40.6236C256.723 -51.5565 177.459 -48.3076 177.15 -30.8768C177.15 -30.8768 184.267 -9.57818 184.267 -3.0803C184.267 3.41758 190.352 17.9089 170.497 46.3242C170.497 46.3242 162.813 55.8132 133.212 51.3265C126.817 50.3467 120.268 46.1179 115.833 45.2928C115.626 46.4273 116.606 50.7593 116.194 51.8938C97.0609 99.7512 103.043 140.801 87.1078 188.659L89.0675 198.663C90.0473 202.48 90.6146 207.276 90.6662 213.361L106.395 232.7C106.395 232.7 112.584 239.92 118.824 241.673C118.824 241.673 117.38 260.651 117.689 265.396C117.999 270.14 121.247 292.006 124.496 304.434C127.745 316.863 127.436 317.43 124.187 324.237C120.938 331.045 112.223 349.301 112.223 349.301C112.223 349.301 105.725 355.283 86.7468 383.131C79.0628 394.425 65.7577 405.719 65.7577 405.719C65.7577 405.719 70.1927 398.86 62.5087 410.979C17.4361 474.101 28.3175 537.533 31.7212 605.606C32.1853 606.018 34.6607 616.281 35.1248 616.694C35.1248 616.694 67.2016 734.687 109.799 797.706L115.884 824.935L169.26 775.995C169.26 775.995 173.488 742.061 179.883 679.249C190.352 576.52 168.434 504.786 168.434 504.786C168.434 504.786 288.233 443.107 289.316 437.28C292.255 421.138 286.84 391.795 286.84 391.795L310.356 226.305C310.356 226.305 305.663 181.594 306.282 135.644C306.282 135.799 367.239 103.206 364.608 93.769Z" fill="#FFFBFA"/>
</g>
<mask id="mask5_65_4450" style="mask-type:luminance" maskUnits="userSpaceOnUse" x="0" y="0" width="487" height="412">
<path d="M486.938 0.271851H0.9375V411.031H486.938V0.271851Z" fill="white"/>
</mask>
<g mask="url(#mask5_65_4450)">
<path d="M179.58 -26.1323C179.58 -26.1323 180.044 -23.5022 180.92 -19.0672C181.385 -16.8496 181.9 -14.168 182.416 -11.1253C182.674 -9.57821 182.932 -7.97952 183.19 -6.27769C183.344 -4.57587 183.654 -2.82247 183.757 -0.965933C183.808 -0.0376644 183.912 0.890598 183.963 1.81887C184.015 2.74714 184.015 3.72697 184.015 4.70681C184.118 6.66649 183.963 8.67773 183.86 10.689C183.808 11.7204 183.654 12.7518 183.551 13.7832C183.396 14.8146 183.344 15.846 183.138 16.8774C182.725 18.9403 182.364 21.0547 181.694 23.1175C181.385 24.1489 181.178 25.2319 180.766 26.2117C180.405 27.2431 179.992 28.2229 179.631 29.2544C179.27 30.2858 178.806 31.2656 178.342 32.2454L176.95 35.185C175.918 37.0931 174.784 38.9496 173.701 40.8577C172.463 42.6111 171.277 44.4161 170.039 46.221C170.039 46.221 171.535 44.5192 174.165 41.5797C174.784 40.8061 175.402 39.8779 176.124 38.898C176.795 37.9182 177.671 36.8868 178.342 35.6491C179.064 34.4114 179.786 33.1221 180.559 31.7297C181.281 30.2858 181.9 28.7386 182.674 27.0884C183.396 25.4381 183.86 23.6332 184.479 21.7766C184.994 19.9201 185.407 17.9088 185.768 15.846C185.974 13.7832 186.387 11.6173 186.335 9.39972C186.335 8.31674 186.438 7.18219 186.387 6.04764C186.335 4.91309 186.284 3.77854 186.232 2.59242C186.181 1.4063 185.974 0.271749 185.871 -0.914371C185.768 -2.10049 185.562 -3.28661 185.355 -4.47272C184.995 -6.84497 184.427 -9.21721 183.86 -11.641C183.241 -14.0648 182.571 -16.4886 181.849 -18.9125C181.075 -21.1816 180.353 -23.6054 179.58 -26.1323Z" fill="#3C3C3B"/>
</g>
<mask id="mask6_65_4450" style="mask-type:luminance" maskUnits="userSpaceOnUse" x="0" y="0" width="487" height="412">
<path d="M486.938 0.271851H0.9375V411.031H486.938V0.271851Z" fill="white"/>
</mask>
<g mask="url(#mask6_65_4450)">
<path d="M255.657 -51.1953C255.657 -51.1953 255.399 -50.4218 254.883 -49.0294C254.625 -48.3074 254.316 -47.4822 254.006 -46.4508C253.749 -45.4194 253.336 -44.2333 253.027 -42.8925C252.717 -41.5516 252.356 -40.1077 252.098 -38.4574C251.84 -36.8587 251.48 -35.1053 251.273 -33.2488C250.758 -29.5357 250.397 -25.3585 250.242 -20.8719C249.881 -11.8471 250.293 -1.53297 251.789 8.98741C252.15 11.6175 252.614 14.2476 253.181 16.8777C253.697 19.5078 254.419 22.1379 255.038 24.6648C255.657 27.2434 256.276 29.8735 257.359 32.3488C258.39 34.8242 259.989 37.1449 262.206 38.3826C262.258 38.331 261.639 38.0216 260.865 37.0417C260.04 36.1135 259.112 34.5664 258.39 32.3488C257.668 30.1313 257.255 27.2949 256.688 23.9944C256.121 20.6423 255.45 16.9808 254.935 12.8036C253.852 4.55236 253.027 -5.34918 252.82 -16.2305C252.769 -18.9638 252.769 -21.7486 252.769 -24.585C252.82 -27.4213 252.923 -30.3093 253.078 -33.2488C253.284 -36.1883 253.542 -39.1794 253.955 -42.1705C254.264 -45.1616 254.883 -48.1527 255.657 -51.1953Z" fill="#3C3C3B"/>
</g>
<mask id="mask7_65_4450" style="mask-type:luminance" maskUnits="userSpaceOnUse" x="0" y="0" width="487" height="412">
<path d="M486.938 0.271851H0.9375V411.031H486.938V0.271851Z" fill="white"/>
</mask>
<g mask="url(#mask7_65_4450)">
<path d="M259.141 35.3916C259.141 35.3916 259.398 35.7526 259.914 36.4746C260.172 36.8356 260.481 37.2481 260.842 37.7638C261.203 38.2795 261.719 38.7953 262.235 39.3625C262.751 39.9298 263.318 40.6002 264.04 41.2706C264.762 41.8895 265.484 42.663 266.36 43.2819C267.237 43.9007 268.114 44.6743 269.197 45.2931C270.228 45.912 271.311 46.634 272.497 47.2012C273.116 47.5107 273.684 47.8201 274.302 48.0779C274.921 48.3358 275.592 48.5936 276.262 48.8515C277.551 49.4188 278.995 49.7282 280.388 50.1408C281.832 50.3986 283.327 50.8112 284.823 50.9143C285.596 51.0175 286.37 51.069 287.143 51.1722C287.917 51.1722 288.69 51.1722 289.464 51.2237C291.011 51.2753 292.61 51.069 294.157 50.9659C295.704 50.708 297.251 50.5017 298.747 50.0376C299.52 49.8313 300.242 49.6766 300.964 49.4188C301.686 49.1609 302.408 48.9031 303.13 48.5936C304.574 48.0779 305.915 47.3044 307.204 46.6855C307.204 46.6855 306.843 46.7887 306.121 46.995C305.399 47.1497 304.42 47.5622 303.079 47.8201C302.408 47.9748 301.686 48.1295 300.861 48.3358C300.036 48.5421 299.159 48.5936 298.231 48.7484C297.303 48.9031 296.271 49.0062 295.188 49.0578C294.105 49.1609 292.971 49.2125 291.785 49.2125C290.599 49.2641 289.361 49.1609 288.072 49.1093C286.782 49.1093 285.442 48.7999 284.101 48.6968C282.76 48.3874 281.316 48.2326 279.924 47.8201C279.202 47.6138 278.48 47.4591 277.758 47.2528C277.036 46.995 276.314 46.7371 275.592 46.4792C274.87 46.273 274.148 45.912 273.426 45.6026C272.704 45.2931 271.93 45.0353 271.26 44.6227C270.538 44.2617 269.816 43.9007 269.094 43.4882C268.372 43.0756 267.701 42.6115 266.979 42.1473C266.257 41.7348 265.587 41.1675 264.917 40.7034C264.195 40.1877 263.524 39.6719 262.905 39.1047C261.668 37.9701 260.43 36.6809 259.141 35.3916Z" fill="#3C3C3B"/>
</g>
<mask id="mask8_65_4450" style="mask-type:luminance" maskUnits="userSpaceOnUse" x="0" y="0" width="487" height="412">
<path d="M486.938 0.271851H0.9375V411.031H486.938V0.271851Z" fill="white"/>
</mask>
<g mask="url(#mask8_65_4450)">
<path d="M124.857 63.3943C124.857 63.3943 133.006 66.2822 143.887 70.0984C154.975 73.9662 169.208 78.9686 182.049 82.7848C182.049 82.7848 175.757 79.7937 165.495 75.8228C155.181 71.9034 140.844 67.0558 124.857 63.3943Z" fill="#3C3C3B"/>
</g>
<mask id="mask9_65_4450" style="mask-type:luminance" maskUnits="userSpaceOnUse" x="0" y="0" width="487" height="412">
<path d="M486.938 0.271851H0.9375V411.031H486.938V0.271851Z" fill="white"/>
</mask>
<g mask="url(#mask9_65_4450)">
<path d="M300.454 60.3003C300.454 60.3003 299.835 60.1456 298.649 59.8362C298.03 59.733 297.308 59.5783 296.431 59.4752C295.555 59.372 294.523 59.2689 293.389 59.2689C291.12 59.2173 288.386 59.4752 285.344 60.0425C282.301 60.6097 278.949 61.5896 275.442 62.7757C268.429 65.1995 260.59 68.3969 252.751 72.2647C244.912 76.0809 237.125 80.6191 230.215 85.4667C230.215 85.4667 232.175 84.4869 235.681 82.7335C239.188 81.0316 244.242 78.5563 250.482 75.6683C256.722 72.7804 264.2 69.4798 272.554 66.1278C276.731 64.4259 281.063 62.6725 285.705 61.4349C290.398 60.1972 295.348 59.4752 300.454 60.3003Z" fill="#3C3C3B"/>
</g>
<mask id="mask10_65_4450" style="mask-type:luminance" maskUnits="userSpaceOnUse" x="0" y="0" width="487" height="412">
<path d="M486.938 0.271851H0.9375V411.031H486.938V0.271851Z" fill="white"/>
</mask>
<g mask="url(#mask10_65_4450)">
<path d="M307.972 265.447C307.972 265.447 307.508 269.933 306.734 277.514C306.322 281.33 305.858 285.92 305.342 291.077C304.826 296.286 304.156 302.062 303.382 308.302C303.021 311.396 302.557 314.645 302.145 317.945C301.629 321.246 301.216 324.649 300.649 328.105C300.133 331.56 299.566 335.067 298.947 338.625C298.38 342.183 297.606 345.742 296.988 349.403C296.214 353.013 295.544 356.675 294.718 360.285L293.532 365.751L292.243 371.166C291.418 374.776 290.438 378.386 289.613 381.944C288.685 385.503 287.756 389.009 286.828 392.516C286.828 392.516 287.189 391.639 287.808 389.989C288.117 389.164 288.53 388.133 288.994 386.947C289.458 385.76 290.026 384.368 290.541 382.769C291.624 379.624 293.017 375.807 294.357 371.269C295.028 369 295.801 366.628 296.472 363.998C297.142 361.419 297.967 358.686 298.638 355.798C299.308 352.91 300.082 349.919 300.701 346.773C301.371 343.627 302.041 340.327 302.609 336.923C303.228 333.52 303.743 329.961 304.311 326.351C304.775 322.69 305.29 318.977 305.651 315.109C306.476 307.425 307.044 299.38 307.405 291.077C307.766 282.774 307.972 274.214 307.972 265.447Z" fill="#3C3C3B"/>
</g>
<mask id="mask11_65_4450" style="mask-type:luminance" maskUnits="userSpaceOnUse" x="0" y="0" width="487" height="412">
<path d="M486.938 0.271851H0.9375V411.031H486.938V0.271851Z" fill="white"/>
</mask>
<g mask="url(#mask11_65_4450)">
<path d="M106.967 354.923C106.967 354.923 106.451 355.902 105.471 357.759C105.007 358.687 104.389 359.873 103.563 361.214C102.79 362.555 101.913 364.102 100.779 365.804C98.6126 369.208 95.6731 373.282 91.7537 377.562C87.886 381.894 82.9352 386.432 77.6234 391.692C72.3117 396.953 66.7936 403.244 61.4303 410.412C56.067 417.581 50.7037 425.78 46.217 435.063C43.9479 439.704 41.8335 444.552 39.8223 449.554C38.7909 452.081 37.7595 454.608 36.7281 457.187C35.6967 459.765 34.6137 462.292 33.6338 465.129C29.8692 476.216 28.0127 488.078 26.4655 500.351C25.0216 512.625 23.9902 525.415 23.7839 538.617C23.7323 541.917 23.7323 545.269 23.8354 548.621C23.8354 550.272 23.9902 552.076 24.0933 553.778C24.248 555.48 24.4027 557.182 24.5574 558.832C25.2794 565.588 26.1561 572.292 27.136 579.099C29.0956 592.714 31.3647 606.535 34.098 620.511C35.5419 627.524 36.8312 634.486 39.1003 641.706C41.3694 648.513 43.6901 655.321 46.0107 662.179C50.7036 675.897 55.706 689.615 61.0693 703.23C66.4326 716.844 72.1054 730.407 78.4486 743.558C84.7917 756.76 91.6506 769.601 99.3862 781.771C107.122 793.942 115.734 805.494 125.842 815.137C125.842 815.137 123.47 812.404 119.035 807.144C117.023 804.359 114.393 801.007 111.557 796.933C110.164 794.819 108.72 792.601 107.122 790.177C105.471 787.805 104.079 785.072 102.377 782.339C101.552 780.946 100.727 779.502 99.8503 778.058C99.0252 776.563 98.2001 775.016 97.3749 773.417C95.6731 770.22 93.8681 766.971 92.1663 763.412C88.6595 756.399 85.0496 748.612 81.3881 740.206C79.5831 735.977 77.675 731.645 75.9216 727.107C74.0651 722.568 72.2085 717.875 70.4036 713.028C66.6389 703.333 62.9774 693.019 59.2128 682.189C55.4997 671.307 51.6835 659.91 47.8157 647.998C46.8359 645.006 45.9076 642.015 44.9278 638.973C44.0511 636.085 43.3291 633.042 42.6587 629.896C41.2663 623.605 40.0286 617.158 38.894 610.557C36.5733 597.355 34.3558 583.638 32.3961 569.559C31.4679 562.545 30.4365 555.325 30.127 548.26C29.8692 541.092 30.0239 533.666 30.2818 526.24C30.9522 511.336 32.1899 496.071 34.8715 480.806C35.2325 478.898 35.5935 476.99 36.0061 475.133C36.4186 473.225 36.8828 471.369 37.3985 469.512C37.8626 467.604 38.533 465.902 39.1519 464.046C39.8223 462.189 40.5443 460.333 41.2147 458.425C43.9995 450.947 46.7843 443.418 50.0848 436.146C53.3853 428.875 57.3562 421.81 61.946 415.054C66.4842 408.246 71.435 401.697 77.0046 395.509C82.4711 389.32 88.6079 383.493 93.9197 376.788C99.3346 370.291 103.512 362.71 106.967 354.923Z" fill="#3C3C3B"/>
</g>
<mask id="mask12_65_4450" style="mask-type:luminance" maskUnits="userSpaceOnUse" x="0" y="0" width="487" height="412">
<path d="M486.938 0.271851H0.9375V411.031H486.938V0.271851Z" fill="white"/>
</mask>
<g mask="url(#mask12_65_4450)">
<path d="M186.388 374.777C186.388 374.777 185.976 378.232 185.46 383.028C184.945 387.824 184.223 393.858 184.274 399.479C184.274 399.479 185.46 396.798 186.337 392.311C187.214 387.824 187.729 381.481 186.388 374.777Z" fill="#3C3C3B"/>
</g>
<mask id="mask13_65_4450" style="mask-type:luminance" maskUnits="userSpaceOnUse" x="0" y="0" width="487" height="412">
<path d="M486.938 0.271851H0.9375V411.031H486.938V0.271851Z" fill="white"/>
</mask>
<g mask="url(#mask13_65_4450)">
<path d="M118.725 242.756C118.725 242.756 118.622 243.89 118.364 246.005C118.158 248.119 117.849 251.162 117.643 255.029C117.282 262.765 116.921 273.801 118.983 286.591C119.602 289.943 120.582 293.037 121.51 296.337C122.49 299.586 123.522 302.887 124.605 306.239C125.12 307.838 125.378 309.436 125.533 311.086C125.636 312.685 125.481 314.335 125.12 315.934C124.398 319.131 122.696 322.38 120.995 325.733C119.293 329.085 117.746 332.694 116.302 336.098C114.806 339.553 113.259 342.957 111.609 346.309C108.257 353.013 104.389 359.408 100.418 365.493C100.418 365.493 101.037 364.771 102.223 363.431C103.357 362.038 105.059 360.027 107.122 357.345C109.185 354.664 111.557 351.26 114.033 347.134C115.27 345.071 116.508 342.802 117.797 340.43C119.035 338.006 120.324 335.428 121.613 332.746C122.903 330.116 124.398 327.434 125.945 324.495C127.441 321.607 129.04 318.255 129.504 314.335C129.71 312.427 129.607 310.416 129.297 308.508C128.936 306.6 128.369 304.64 127.802 302.938C126.667 299.432 125.481 295.822 124.244 292.16C123.676 290.304 123.057 288.447 122.645 286.642C122.232 284.786 121.871 282.826 121.51 280.866C120.84 276.895 120.324 272.821 119.912 268.696C119.138 260.29 118.777 251.626 118.725 242.756Z" fill="#3C3C3B"/>
</g>
<mask id="mask14_65_4450" style="mask-type:luminance" maskUnits="userSpaceOnUse" x="0" y="0" width="487" height="412">
<path d="M486.938 0.271851H0.9375V411.031H486.938V0.271851Z" fill="white"/>
</mask>
<g mask="url(#mask14_65_4450)">
<path d="M205.462 246.418C205.462 246.418 204.998 247.295 204.172 248.945C203.76 249.77 203.244 250.802 202.677 251.988C202.161 253.226 201.594 254.67 200.975 256.268C200.666 257.093 200.305 257.919 200.047 258.795C199.789 259.672 199.479 260.652 199.17 261.632C198.861 262.611 198.551 263.643 198.242 264.674C197.932 265.706 197.675 266.84 197.417 267.975C196.849 270.244 196.282 272.668 195.818 275.246C195.56 276.536 195.354 277.825 195.096 279.166C194.89 280.506 194.683 281.847 194.477 283.24C194.065 286.024 193.704 288.912 193.394 291.903C193.033 294.895 192.827 297.937 192.517 301.031C192.002 307.272 191.641 313.769 191.28 320.319C191.125 323.619 190.919 326.92 190.764 330.22C190.558 333.521 190.352 336.821 190.197 340.122C189.939 343.422 189.733 346.723 189.372 349.972C189.114 353.221 188.598 356.418 188.186 359.616C188.186 359.616 188.392 358.79 188.856 357.295C189.062 356.521 189.32 355.593 189.63 354.51C189.939 353.427 190.197 352.086 190.506 350.642C190.816 349.198 191.177 347.548 191.486 345.795C191.795 343.99 192.105 342.082 192.466 340.019C193.033 335.842 193.652 331.097 194.168 325.888C194.683 320.628 195.096 314.955 195.56 308.819C196.024 302.733 196.437 296.184 197.056 289.428C197.314 286.024 197.726 282.569 198.087 279.062C198.551 275.556 198.964 271.946 199.634 268.336C199.789 267.408 199.944 266.531 200.098 265.603C200.305 264.726 200.511 263.798 200.717 262.869C201.13 261.064 201.439 259.208 202.006 257.403C202.522 255.598 202.986 253.741 203.605 251.936C204.121 250.08 204.791 248.275 205.462 246.418Z" fill="#3C3C3B"/>
</g>
<mask id="mask15_65_4450" style="mask-type:luminance" maskUnits="userSpaceOnUse" x="0" y="0" width="487" height="412">
<path d="M486.938 0.271851H0.9375V411.031H486.938V0.271851Z" fill="white"/>
</mask>
<g mask="url(#mask15_65_4450)">
<path d="M169.258 46.6848C169.258 46.6848 168.948 46.8911 168.33 47.3037C168.02 47.5099 167.659 47.7678 167.247 48.0772C166.782 48.2835 166.267 48.5929 165.648 48.8508C165.081 49.1602 164.359 49.418 163.637 49.6759C162.915 49.9338 162.09 50.2432 161.213 50.3979C160.336 50.6042 159.408 50.862 158.428 51.0167C157.448 51.1714 156.417 51.3777 155.334 51.4809C154.251 51.6356 153.168 51.7387 151.982 51.7903C150.847 51.8934 149.661 51.945 148.475 51.945C147.289 51.9966 146.051 51.9966 144.813 51.945C143.576 51.945 142.287 51.8419 141.049 51.8419C138.522 51.6872 135.943 51.4809 133.365 51.0683C132.076 50.9136 130.838 50.6557 129.6 50.3979C128.981 50.2432 128.362 50.0885 127.744 49.9337C127.176 49.7275 126.558 49.5212 125.99 49.3149C125.99 49.3149 126.3 49.4696 126.815 49.7275C127.331 50.0369 128.208 50.3463 129.291 50.7589C129.858 50.9652 130.477 51.1199 131.147 51.3262C131.818 51.5324 132.591 51.7387 133.365 51.8934C134.19 52.0997 135.015 52.2544 135.943 52.4091C136.872 52.5638 137.851 52.7186 138.883 52.8217C139.914 52.9764 140.997 53.0796 142.08 53.1311C143.215 53.2343 144.349 53.2858 145.587 53.2858C146.773 53.3374 148.062 53.2858 149.3 53.2343C150.589 53.2343 151.879 53.028 153.219 52.9248C154.56 52.7186 155.953 52.5638 157.294 52.2544C158.686 51.945 160.078 51.6356 161.471 51.1199C162.193 50.9136 162.863 50.6557 163.534 50.2947C164.204 49.9853 164.926 49.7275 165.545 49.3149C166.164 48.9023 166.834 48.5413 167.453 48.0772C168.072 47.7162 168.639 47.2005 169.258 46.6848Z" fill="#3C3C3B"/>
</g>
<mask id="mask16_65_4450" style="mask-type:luminance" maskUnits="userSpaceOnUse" x="0" y="0" width="487" height="412">
<path d="M486.938 0.271851H0.9375V411.031H486.938V0.271851Z" fill="white"/>
</mask>
<g mask="url(#mask16_65_4450)">
<path d="M342.222 183.193C342.222 183.193 341.707 183.399 341.346 183.657C341.346 183.605 341.758 183.451 342.222 183.193Z" fill="#563E3D"/>
</g>
<mask id="mask17_65_4450" style="mask-type:luminance" maskUnits="userSpaceOnUse" x="0" y="0" width="487" height="412">
<path d="M486.938 0.271851H0.9375V411.031H486.938V0.271851Z" fill="white"/>
</mask>
<g mask="url(#mask17_65_4450)">
<path d="M309.947 46.1175C309.947 46.1175 310.463 46.0659 311.391 46.0144C311.855 45.9628 312.423 45.9112 313.145 45.9112C313.815 45.9112 314.64 45.9112 315.568 45.9112C317.373 45.9628 319.591 46.1175 322.169 46.5301C324.696 46.9942 327.584 47.7678 330.627 48.9539C336.661 51.3777 343.571 55.658 348.883 62.62C351.513 66.0753 353.731 70.304 355.639 74.7907C357.598 79.3804 359.558 84.3828 362.033 89.4367C363.323 91.9121 364.56 94.4906 366.056 96.966C366.778 98.2037 367.5 99.4929 368.222 100.731C368.995 101.968 369.769 103.206 370.543 104.444C371.316 105.681 372.141 106.971 372.915 108.208C373.74 109.446 374.617 110.684 375.442 111.921C377.144 114.397 378.845 116.975 380.702 119.451C382.507 121.926 384.363 124.453 386.22 126.98C388.128 129.455 390.088 131.931 392.047 134.458C395.915 139.512 400.092 144.411 404.27 149.413C408.395 154.415 412.779 159.263 417.111 164.162C421.443 169.061 425.929 173.858 430.416 178.602C434.903 183.346 439.389 188.039 443.927 192.578C448.466 197.116 453.004 201.602 457.542 205.986C457.542 205.986 453.519 200.88 446.145 191.856C444.288 189.587 442.226 187.111 440.008 184.378C437.79 181.645 435.367 178.654 432.788 175.456C430.158 172.259 427.425 168.907 424.434 165.297C421.494 161.687 418.452 157.871 415.203 153.848C411.954 149.877 408.653 145.648 405.146 141.265C401.64 136.933 398.081 132.292 394.471 127.547C390.758 122.854 387.148 117.8 383.384 112.747C381.579 110.168 379.722 107.538 377.814 104.856C376.061 102.123 374.204 99.4413 372.451 96.605C368.892 90.9838 365.695 85.1048 362.755 78.8647C361.26 75.7189 359.816 72.4184 358.011 69.2211L356.619 66.7973L355.071 64.4766C354.092 62.9295 352.854 61.3824 351.616 59.9384C346.614 54.1625 339.91 49.8821 332.638 47.4068C325.418 44.9314 317.477 44.3641 309.947 46.1175Z" fill="#3C3C3B"/>
</g>
<mask id="mask18_65_4450" style="mask-type:luminance" maskUnits="userSpaceOnUse" x="0" y="0" width="487" height="412">
<path d="M486.938 0.271851H0.9375V411.031H486.938V0.271851Z" fill="white"/>
</mask>
<g mask="url(#mask18_65_4450)">
<path d="M126.045 49.5205C126.045 49.5205 125.014 49.0048 123.157 47.9734C122.229 47.4061 120.991 47.0451 119.547 46.4263C119.186 46.2716 118.825 46.1684 118.413 46.0137C118 45.9106 117.587 45.8074 117.175 45.7043C116.298 45.498 115.421 45.2402 114.442 45.0339C113.462 44.8792 112.43 44.7245 111.347 44.5698C110.264 44.415 109.13 44.4666 107.892 44.415C105.52 44.415 102.89 44.6729 100.208 45.2402C98.8673 45.5496 97.5265 45.9621 96.0825 46.3747C94.7417 46.942 93.2977 47.3546 91.9053 48.0765C89.0689 49.3142 86.3873 51.0676 83.654 53.0789C81.0239 55.1417 78.497 57.5139 76.1763 60.2987C75.0418 61.6911 73.9588 63.1867 73.0305 64.7338C72.5664 65.5073 72.0507 66.2809 71.5865 67.0545C71.174 67.8796 70.7098 68.7047 70.2973 69.5298C69.369 71.1801 68.8017 72.9851 68.0282 74.7385C67.5125 76.5434 66.7905 78.4 66.4295 80.2565C65.5012 84.0212 65.1402 87.8889 64.8824 91.7051C64.6761 95.5214 64.6245 99.3376 64.573 103.154C64.5214 106.97 64.5214 110.735 64.3667 114.499C64.2635 118.264 64.0573 122.029 63.7478 125.742C63.49 129.455 63.0258 133.168 62.6133 136.778C62.6133 136.778 62.8711 135.849 63.3868 134.148C63.6447 133.271 63.9541 132.188 64.2635 130.95C64.573 129.661 64.934 128.217 65.2949 126.515C65.7075 124.865 66.0169 123.008 66.3779 120.946C66.7905 118.883 67.0483 116.665 67.4093 114.293C67.6672 111.921 67.9766 109.342 68.1829 106.609C68.3892 103.876 68.5955 101.039 68.8533 98.0483C69.0596 95.0572 69.3174 91.963 69.73 88.8172C69.8847 87.2185 70.2457 85.6714 70.452 84.0212C70.813 82.4225 71.1224 80.8238 71.6381 79.2251C71.896 78.4515 72.1538 77.6264 72.4117 76.8013C72.6695 75.9762 73.0305 75.2026 73.3399 74.429C73.9072 72.8304 74.7839 71.2833 75.5575 69.6846C76.4342 68.1375 77.414 66.5903 78.3423 65.0432C78.858 64.3212 79.3737 63.5477 79.941 62.8257C80.5082 62.1037 81.1271 61.4333 81.6943 60.7113C86.6967 55.1933 93.2461 50.5003 101.033 48.0765C104.901 46.8388 109.078 46.2716 113.307 46.5294C117.639 46.7873 121.919 47.8187 126.045 49.5205Z" fill="#3C3C3B"/>
</g>
<mask id="mask19_65_4450" style="mask-type:luminance" maskUnits="userSpaceOnUse" x="0" y="0" width="487" height="412">
<path d="M486.938 0.271851H0.9375V411.031H486.938V0.271851Z" fill="white"/>
</mask>
<g mask="url(#mask19_65_4450)">
<path d="M65.8553 128.063C65.8553 128.063 64.5145 131.622 62.297 137.604C61.214 140.647 59.8732 144.256 58.3776 148.382C56.8821 152.508 55.1803 157.046 53.1174 161.842C49.0949 171.486 43.7832 182.212 38.523 193.455C33.2112 204.645 28.0026 216.3 23.6191 227.594C23.6191 227.594 30.2202 216.971 39.5544 199.54C41.8751 195.157 44.3505 190.36 46.8774 185.152C48.1151 182.522 49.4559 179.84 50.6936 177.004C51.9829 174.219 53.2206 171.279 54.4067 168.237C56.8305 162.203 58.9449 155.705 60.7499 148.949C62.658 142.194 64.3082 135.232 65.8553 128.063Z" fill="#3C3C3B"/>
</g>
<mask id="mask20_65_4450" style="mask-type:luminance" maskUnits="userSpaceOnUse" x="0" y="0" width="487" height="412">
<path d="M486.938 0.271851H0.9375V411.031H486.938V0.271851Z" fill="white"/>
</mask>
<g mask="url(#mask20_65_4450)">
<path d="M149.268 247.449C149.268 247.449 149.835 247.449 150.815 247.5C151.846 247.552 153.342 247.449 155.198 247.294C156.126 247.191 157.158 247.036 158.292 246.881C159.427 246.675 160.613 246.469 161.851 246.211C163.088 245.902 164.429 245.541 165.822 245.18C167.163 244.715 168.658 244.303 170.102 243.736C171.546 243.117 173.093 242.601 174.589 241.828C175.362 241.467 176.084 241.106 176.858 240.693C177.631 240.28 178.353 239.816 179.127 239.404C180.674 238.579 182.118 237.496 183.562 236.413C185.006 235.33 186.398 234.092 187.791 232.854C189.028 231.462 190.472 230.224 191.504 228.677L193.206 226.408L194.65 223.984C195.681 222.437 196.248 220.632 196.97 218.982C197.641 217.28 197.95 215.475 198.414 213.773C198.414 213.773 198.208 214.186 197.847 214.959C197.692 215.372 197.434 215.836 197.177 216.403C196.919 216.971 196.661 217.641 196.248 218.363C195.836 219.085 195.372 219.859 194.907 220.684C194.443 221.56 193.824 222.385 193.154 223.314C192.484 224.242 191.813 225.222 190.937 226.15C190.06 227.078 189.286 228.161 188.203 229.09C187.172 230.018 186.192 231.152 184.954 232.081C183.768 233.061 182.531 234.092 181.138 234.969C180.468 235.433 179.797 235.949 179.075 236.413C178.353 236.877 177.631 237.289 176.858 237.753C175.362 238.682 173.712 239.455 172.113 240.332C170.411 241.106 168.761 241.982 166.905 242.653C165.1 243.426 163.243 244.045 161.335 244.715C160.355 245.025 159.427 245.283 158.396 245.592C157.416 245.85 156.384 246.108 155.404 246.366C153.496 246.778 151.382 247.191 149.268 247.449Z" fill="#3C3C3B"/>
</g>
<mask id="mask21_65_4450" style="mask-type:luminance" maskUnits="userSpaceOnUse" x="0" y="0" width="487" height="412">
<path d="M486.938 0.271851H0.9375V411.031H486.938V0.271851Z" fill="white"/>
</mask>
<g mask="url(#mask21_65_4450)">
<path d="M305.724 230.07C305.724 230.07 305.363 230.328 304.744 230.843C304.435 231.101 304.022 231.411 303.558 231.772C303.094 232.133 302.527 232.494 301.959 232.958C301.341 233.37 300.67 233.886 299.948 234.35C299.175 234.814 298.401 235.382 297.524 235.846C296.648 236.31 295.719 236.929 294.688 237.393C293.657 237.909 292.625 238.476 291.491 238.94C289.273 239.971 286.798 240.9 284.219 241.725C282.93 242.137 281.589 242.498 280.197 242.859C278.804 243.169 277.463 243.53 276.019 243.736C274.627 244.045 273.183 244.2 271.739 244.355C270.295 244.51 268.851 244.664 267.407 244.664C265.963 244.716 264.519 244.767 263.075 244.716C261.631 244.767 260.187 244.561 258.795 244.51C258.795 244.51 259.156 244.561 259.826 244.716C260.497 244.819 261.528 245.077 262.817 245.18C263.488 245.232 264.21 245.335 264.983 245.438C265.808 245.489 266.634 245.489 267.562 245.541C268.49 245.593 269.47 245.541 270.553 245.541C271.636 245.541 272.719 245.386 273.905 245.283C275.091 245.18 276.277 244.974 277.567 244.767C278.804 244.51 280.094 244.252 281.434 243.942C282.775 243.581 284.116 243.22 285.508 242.705C286.901 242.24 288.293 241.673 289.686 241.106C291.078 240.487 292.522 239.817 293.863 239.043C295.255 238.27 296.648 237.444 297.988 236.516C299.329 235.588 300.722 234.608 301.959 233.473C303.249 232.494 304.486 231.308 305.724 230.07Z" fill="#3C3C3B"/>
</g>
<mask id="mask22_65_4450" style="mask-type:luminance" maskUnits="userSpaceOnUse" x="0" y="0" width="487" height="412">
<path d="M486.938 0.271851H0.9375V411.031H486.938V0.271851Z" fill="white"/>
</mask>
<g mask="url(#mask22_65_4450)">
<path d="M328.862 90.21C328.862 90.21 327.934 90.9835 326.18 92.4275C325.355 93.201 324.272 94.0777 323.138 95.2123C321.952 96.3468 320.662 97.6877 319.218 99.1832C318.548 99.9568 317.826 100.782 317.053 101.659C316.331 102.587 315.609 103.515 314.835 104.495C313.391 106.506 311.844 108.724 310.452 111.302C309.008 113.829 307.77 116.614 306.738 119.708C305.655 122.751 305.037 126.155 304.779 129.661C304.521 133.22 304.779 136.933 305.655 140.594C306.481 144.256 307.821 147.917 309.317 151.424C312.36 158.541 316.279 165.348 318.806 172.723C321.281 180.046 322.21 188.039 321.539 195.929C320.869 203.82 318.703 211.555 315.196 218.517C315.196 218.517 315.763 217.641 316.795 216.042C317.259 215.217 317.878 214.185 318.496 212.948C319.115 211.71 319.837 210.214 320.508 208.564C321.178 206.862 321.849 204.954 322.467 202.84C323.086 200.725 323.602 198.353 324.015 195.775C324.788 190.618 324.943 184.635 323.808 178.138C323.241 174.889 322.313 171.537 321.075 168.236C319.837 164.884 318.29 161.583 316.692 158.18C315.093 154.776 313.443 151.373 311.947 147.763C310.503 144.204 309.214 140.44 308.595 136.52C307.976 132.601 307.976 128.527 308.698 124.401C309.42 120.276 310.812 116.201 312.669 112.231C316.434 104.237 322.158 96.8626 328.862 90.21Z" fill="#3C3C3B"/>
</g>
<mask id="mask23_65_4450" style="mask-type:luminance" maskUnits="userSpaceOnUse" x="0" y="0" width="487" height="412">
<path d="M486.938 0.271851H0.9375V411.031H486.938V0.271851Z" fill="white"/>
</mask>
<g mask="url(#mask23_65_4450)">
<path d="M212.643 193.97C212.643 193.97 212.694 194.589 212.746 195.723C212.797 196.29 212.797 197.012 212.849 197.838C212.9 198.663 212.9 199.642 213.158 200.674C213.365 201.705 213.571 202.891 213.777 204.129C213.932 205.418 214.499 206.656 214.86 208.048C215.066 208.77 215.324 209.441 215.531 210.214C215.84 210.936 216.149 211.658 216.459 212.38C217.078 213.876 217.748 215.423 218.676 216.97C219.089 217.744 219.553 218.517 220.017 219.291C220.481 220.064 221.049 220.838 221.564 221.611C222.08 222.385 222.647 223.159 223.215 223.932C223.833 224.654 224.452 225.428 225.071 226.15C226.309 227.697 227.753 229.089 229.197 230.533C230.641 231.926 232.239 233.266 233.838 234.556C235.488 235.793 237.19 237.031 238.995 238.114C240.748 239.249 242.657 240.177 244.462 241.105L247.349 242.291C248.329 242.652 249.309 242.962 250.289 243.271C252.249 243.838 254.26 244.199 256.22 244.251C256.22 244.251 255.704 244.096 254.776 243.838C254.312 243.735 253.744 243.58 253.074 243.271C252.403 243.013 251.681 242.755 250.856 242.394C250.031 241.982 249.154 241.569 248.175 241.105C247.195 240.589 246.163 239.971 245.08 239.352C243.997 238.681 242.863 237.908 241.677 237.134C240.542 236.258 239.253 235.432 238.015 234.453C236.829 233.421 235.437 232.441 234.199 231.255C232.91 230.069 231.569 228.935 230.331 227.542C229.712 226.872 228.99 226.201 228.372 225.531C227.753 224.809 227.134 224.087 226.463 223.313C225.123 221.869 224.04 220.168 222.75 218.569C222.132 217.744 221.616 216.815 221.049 215.939C220.533 215.01 219.862 214.185 219.398 213.206C218.418 211.297 217.284 209.389 216.51 207.275C216.098 206.244 215.582 205.212 215.221 204.129C214.912 203.046 214.551 201.963 214.19 200.829C214.035 200.261 213.829 199.746 213.674 199.127L213.313 197.425C213.107 196.342 212.9 195.156 212.643 193.97Z" fill="#3C3C3B"/>
</g>
<mask id="mask24_65_4450" style="mask-type:luminance" maskUnits="userSpaceOnUse" x="0" y="0" width="487" height="412">
<path d="M486.938 0.271851H0.9375V411.031H486.938V0.271851Z" fill="white"/>
</mask>
<g mask="url(#mask24_65_4450)">
<path d="M105.666 233.318C105.666 233.318 105.924 233.575 106.388 234.04C106.852 234.504 107.523 235.226 108.399 235.999C108.863 236.412 109.328 236.876 109.895 237.289C110.462 237.753 111.029 238.268 111.751 238.733C113.092 239.712 114.639 240.744 116.393 241.724C118.146 242.755 120.054 243.683 122.117 244.508C124.18 245.334 126.397 246.056 128.718 246.571C129.853 246.881 131.039 247.035 132.225 247.242C133.411 247.396 134.597 247.551 135.783 247.603C136.969 247.654 138.155 247.706 139.29 247.654C140.476 247.654 141.611 247.5 142.745 247.396C142.745 247.396 142.436 247.345 141.92 247.293C141.353 247.242 140.579 247.19 139.496 247.087C138.465 246.984 137.176 246.829 135.732 246.571C135.01 246.468 134.236 246.262 133.411 246.107C132.586 245.952 131.761 245.746 130.884 245.54C129.131 245.127 127.171 244.508 125.16 243.838C123.148 243.116 121.034 242.291 118.868 241.311C117.785 240.795 116.702 240.28 115.568 239.661C114.485 239.094 113.35 238.475 112.267 237.804C111.184 237.134 110.05 236.463 108.967 235.638C107.884 234.968 106.801 234.143 105.666 233.318Z" fill="#3C3C3B"/>
</g>
<mask id="mask25_65_4450" style="mask-type:luminance" maskUnits="userSpaceOnUse" x="0" y="0" width="487" height="412">
<path d="M486.938 0.271851H0.9375V411.031H486.938V0.271851Z" fill="white"/>
</mask>
<g mask="url(#mask25_65_4450)">
<path d="M104.287 86.1882C104.287 86.1882 104.699 87.0134 105.524 88.5605C106.349 90.1076 107.484 92.3767 108.876 95.2131C110.217 98.101 111.816 101.608 113.105 105.682C113.776 107.745 114.291 109.962 114.652 112.283C115.013 114.604 115.22 117.079 115.013 119.606C114.755 124.66 113.105 129.92 110.681 135.18C108.309 140.389 105.267 145.701 102.275 151.115C99.2843 156.53 96.3448 162.152 93.9726 167.979C91.6003 173.806 89.8985 179.892 89.3828 185.874C89.3828 185.874 89.5891 185.1 89.9501 183.708C90.1048 182.986 90.4142 182.109 90.6721 181.078C90.9299 180.046 91.3941 178.912 91.8582 177.571C92.3739 176.282 92.8896 174.838 93.56 173.291C94.2304 171.744 95.004 170.093 95.8291 168.34C97.5825 164.833 99.6969 160.965 102.172 156.737C104.648 152.508 107.432 147.867 110.166 142.761C111.558 140.183 112.899 137.501 114.085 134.613C115.271 131.725 116.303 128.631 116.921 125.33C117.54 122.03 117.747 118.574 117.282 115.119C116.87 111.664 115.942 108.26 114.704 104.96C112.229 98.3589 108.309 92.2735 104.287 86.1882Z" fill="#3C3C3B"/>
</g>
<mask id="mask26_65_4450" style="mask-type:luminance" maskUnits="userSpaceOnUse" x="0" y="0" width="487" height="412">
<path d="M486.938 0.271851H0.9375V411.031H486.938V0.271851Z" fill="white"/>
</mask>
<g mask="url(#mask26_65_4450)">
<path d="M286.275 394.374C286.275 394.374 286.482 395.766 286.843 398.035C287.204 400.304 287.668 403.553 288.08 407.318C288.957 414.899 289.524 424.594 289.885 433.309C289.885 433.309 290.04 432.175 290.195 430.164C290.349 428.152 290.504 425.213 290.453 421.654C290.349 414.486 289.37 404.585 286.275 394.374Z" fill="#3C3C3B"/>
</g>
<mask id="mask27_65_4450" style="mask-type:luminance" maskUnits="userSpaceOnUse" x="0" y="0" width="487" height="412">
<path d="M486.938 0.271851H0.9375V411.031H486.938V0.271851Z" fill="white"/>
</mask>
<g mask="url(#mask27_65_4450)">
<path d="M234.695 179.221C234.695 179.221 234.025 179.273 233.2 178.705C232.323 178.19 231.395 177.158 230.209 175.972C228.971 174.786 227.321 173.703 225.619 172.775C223.917 171.847 222.06 170.97 220.41 170.042C220.41 170.042 221.854 171.382 224.536 173.033C225.877 173.858 227.424 174.786 229.022 176.024C229.796 176.591 230.57 177.365 231.498 178.035C231.962 178.344 232.426 178.705 232.942 178.912C233.457 179.17 234.076 179.324 234.695 179.221Z" fill="#3C3C3B"/>
<path d="M234.304 164.833C234.304 164.833 233.737 164.678 233.015 164.214C232.241 163.75 231.365 162.822 230.178 161.842C228.992 160.811 227.239 160.14 225.486 159.779C223.732 159.367 221.927 159.16 220.174 158.903C220.174 158.903 220.586 159.109 221.36 159.367C222.134 159.625 223.268 159.934 224.609 160.295C225.95 160.708 227.6 161.12 229.096 161.997C229.869 162.461 230.591 163.028 231.416 163.647C232.241 164.214 233.273 164.73 234.304 164.833Z" fill="#3C3C3B"/>
<path d="M239.71 153.334C239.71 153.334 239.194 153.231 238.421 152.87C237.647 152.457 236.719 151.632 235.584 150.704C234.398 149.776 232.799 149.054 231.098 148.641C229.396 148.228 227.642 148.022 225.992 147.919C225.992 147.919 226.456 148.074 227.127 148.28C228.003 148.538 229.138 148.847 230.273 149.157C231.562 149.518 233.109 150.033 234.604 150.859C235.326 151.271 236.048 151.838 236.925 152.354C237.699 152.921 238.679 153.334 239.71 153.334Z" fill="#3C3C3B"/>
<path d="M237.037 138.584C237.037 138.584 236.263 138.584 235.18 138.069C234.613 137.811 233.994 137.398 233.272 136.986C232.55 136.573 231.776 136.006 230.745 135.645C228.837 134.923 226.516 134.407 224.144 134.098C221.772 133.737 219.348 133.582 217.027 133.427C217.027 133.427 219.296 134.201 223.061 134.923C224.918 135.284 227.135 135.696 229.456 136.315C230.075 136.47 230.642 136.625 231.209 136.831C231.776 137.037 232.395 137.347 232.963 137.604C234.2 138.069 235.593 138.739 237.037 138.584Z" fill="#3C3C3B"/>
<path d="M238.373 139.718C238.373 139.718 238.992 140.234 240.126 141.11C241.261 141.987 242.963 143.276 245.18 144.72C247.398 146.164 250.183 147.763 253.432 149.465C256.681 151.167 260.342 152.868 264.261 154.777C268.181 156.633 272.41 158.696 276.69 160.913C278.907 161.996 280.919 163.131 282.878 164.627C284.838 166.122 286.695 167.772 288.706 169.474C290.666 171.176 292.78 172.826 295.049 174.167C296.338 174.889 297.576 175.302 298.762 175.766C299.948 176.23 301.134 176.746 301.856 177.468C302.217 177.829 302.424 178.241 302.424 178.654C302.424 179.118 302.166 179.634 301.856 180.046C301.186 180.82 299.948 181.181 298.71 181.284C296.235 181.439 293.708 180.974 291.284 180.407C291.284 180.407 291.903 180.665 293.038 181.026C294.224 181.387 295.926 181.954 298.349 182.109C299.536 182.109 300.98 182.161 302.32 181.129C302.991 180.613 303.455 179.84 303.661 178.912C303.868 177.932 303.3 176.849 302.63 176.23C301.237 174.941 299.536 174.322 297.885 173.548C297.009 173.136 296.338 172.826 295.513 172.259C294.74 171.743 293.966 171.124 293.192 170.506C290.047 168.03 287.004 164.73 282.93 161.842C281.899 161.12 280.816 160.449 279.733 159.882C278.65 159.315 277.515 158.748 276.38 158.18C274.111 157.046 271.739 155.911 269.264 154.828C264.365 152.611 259.208 150.496 253.947 148.176C248.739 145.803 243.427 143.122 238.373 139.718Z" fill="#3C3C3B"/>
<path d="M286.861 189.175C286.861 189.175 287.325 189.587 288.15 190.309C288.975 191.031 290.264 192.114 291.502 193.661C291.76 194.074 292.069 194.538 292.121 194.951C292.224 195.312 291.76 195.724 291.399 196.24C290.625 197.116 289.542 197.735 288.253 197.993C285.674 198.457 282.58 197.632 279.486 196.498C277.887 195.93 276.289 195.26 274.535 194.693C272.833 194.125 271.132 193.507 269.378 192.836C265.871 191.495 262.261 190 258.6 188.453C251.277 185.358 243.645 182.213 236.115 180.356C236.115 180.356 237.972 181.078 241.272 182.419C244.573 183.811 249.266 185.926 254.99 188.607C257.878 189.948 261.024 191.392 264.479 192.785C266.181 193.507 267.986 194.177 269.842 194.847C271.699 195.518 273.71 196.137 275.618 196.755C277.578 197.426 279.589 198.148 281.755 198.664C283.869 199.179 286.242 199.54 288.614 198.921C289.748 198.612 290.935 198.045 291.708 197.065C291.966 196.859 292.121 196.601 292.275 196.343C292.43 196.085 292.636 195.879 292.74 195.518C292.997 194.641 292.533 194.022 292.224 193.558C290.78 191.805 288.769 190.567 286.861 189.175Z" fill="#3C3C3B"/>
<path d="M235.233 179.634C235.233 179.634 235.13 179.531 234.872 179.376C234.666 179.221 234.253 179.015 233.84 178.706C233.376 178.448 232.964 177.984 232.448 177.468C231.881 176.952 231.313 176.385 230.695 175.869C230.127 175.251 229.405 174.58 228.529 174.064C227.652 173.549 226.672 173.239 225.795 172.827C223.939 172.002 222.082 171.073 220.277 170.248C220.277 170.248 220.741 170.558 221.463 171.073C222.237 171.589 223.372 172.311 224.816 173.085C225.538 173.446 226.363 173.858 227.239 174.219C228.064 174.58 228.941 175.096 229.715 175.766C230.076 176.127 230.488 176.488 230.952 176.849C231.365 177.159 231.829 177.52 232.293 177.932C232.757 178.293 233.17 178.706 233.737 178.964C234.15 179.118 234.717 179.273 235.233 179.634Z" fill="#3C3C3B"/>
<path d="M284.615 187.678C284.615 187.678 283.068 186.698 280.386 185.255C277.705 183.759 273.837 181.851 269.247 179.736C266.978 178.653 264.503 177.519 261.976 176.333C259.397 175.095 256.664 174.115 253.828 173.135C248.258 171.176 242.379 169.474 237.531 166.431C237.531 166.431 237.841 166.638 238.408 167.102C238.975 167.514 239.852 168.133 240.986 168.804C243.256 170.196 246.814 171.795 251.249 173.445C253.467 174.27 255.89 175.147 258.417 176.178C260.944 177.209 263.574 178.55 266.411 179.736C272.083 182.212 278.323 184.636 284.615 187.678Z" fill="#3C3C3B"/>
<path d="M234.853 164.833C234.853 164.833 234.338 164.627 233.564 164.111C232.791 163.596 231.914 162.616 230.676 161.585C229.438 160.553 227.685 159.883 225.932 159.47C224.127 159.006 222.27 158.8 220.568 158.439C220.568 158.439 220.981 158.645 221.754 158.903C222.528 159.161 223.663 159.47 225.055 159.883C226.447 160.295 228.098 160.708 229.696 161.636C230.47 162.1 231.243 162.719 232.069 163.338C232.894 163.957 233.822 164.576 234.853 164.833Z" fill="#3C3C3B"/>
<path d="M290.194 179.944C290.194 179.944 288.492 179.17 285.707 177.571C282.923 175.973 279.21 173.497 275.032 170.352C272.918 168.804 270.649 167.051 268.07 165.607C265.492 164.112 262.759 162.771 259.871 161.533C254.146 159.109 248.113 157.098 242.543 154.932C242.543 154.932 243.884 155.706 246.411 156.892C248.938 158.078 252.599 159.676 257.086 161.688C261.572 163.699 266.884 166.071 272.041 169.784C277.405 173.394 283.284 177.468 290.194 179.944Z" fill="#3C3C3B"/>
<path d="M240.626 153.591C240.626 153.591 240.059 153.539 239.286 153.075C238.512 152.663 237.635 151.683 236.449 150.755C235.211 149.826 233.613 149.104 231.911 148.64C230.209 148.176 228.404 147.867 226.754 147.557C226.754 147.557 227.166 147.712 227.888 147.97C228.61 148.228 229.745 148.537 231.086 148.95C232.427 149.362 233.974 149.878 235.521 150.755C236.294 151.219 237.016 151.786 237.842 152.405C238.615 153.024 239.595 153.591 240.626 153.591Z" fill="#3C3C3B"/>
<path d="M292.223 180.51C292.223 180.51 293.357 180.974 294.956 182.212C295.368 182.521 295.833 182.831 296.348 183.192C296.864 183.553 297.431 183.965 298.05 184.275C299.288 184.945 300.68 185.616 302.021 186.544C302.33 186.75 302.64 187.008 302.949 187.266C303.207 187.524 303.413 187.73 303.465 187.988C303.671 188.452 303.413 189.071 302.949 189.69C302.485 190.257 301.763 190.773 301.041 191.082C300.319 191.34 299.288 191.546 298.411 191.649C296.555 191.856 294.646 191.752 292.738 191.288C290.83 190.824 288.974 190.154 287.117 189.535C287.117 189.535 287.942 190.102 289.489 190.979C291.037 191.804 293.46 193.145 296.812 193.351C297.638 193.403 298.514 193.351 299.443 193.248C299.907 193.196 300.371 193.093 300.835 192.99C301.299 192.887 301.866 192.732 302.33 192.474C303.259 191.959 304.135 191.288 304.754 190.205C305.064 189.69 305.322 189.019 305.27 188.297C305.27 187.575 304.909 186.853 304.445 186.389C303.517 185.512 302.588 185.048 301.557 184.533C300.577 184.068 299.494 183.656 298.463 183.243C296.555 182.521 294.543 181.026 292.223 180.51Z" fill="#3C3C3B"/>
<path d="M238.012 139.151C238.012 139.151 237.496 138.945 236.671 138.429C235.795 137.913 234.763 136.882 233.113 135.954C232.236 135.541 231.153 135.283 230.07 135.077C228.987 134.819 227.801 134.716 226.512 134.561C223.985 134.304 221.149 134.046 218.158 133.891C212.072 133.53 205.162 133.375 197.994 133.478C194.435 133.53 190.825 133.633 187.215 133.788C185.462 133.891 183.657 133.943 181.852 134.046C180.099 134.149 178.345 134.252 176.592 134.252C176.592 134.252 178.345 134.613 181.594 134.871C184.791 135.129 189.433 135.438 195.106 135.644C200.778 135.851 207.534 135.954 214.909 136.005C218.622 136.005 222.489 136.005 226.46 136.108C228.42 136.212 230.534 136.16 232.339 136.573C234.248 137.14 235.898 138.687 238.012 139.151Z" fill="#3C3C3B"/>
<path d="M275.66 197.374C275.66 197.374 275.402 197.477 274.989 197.632C274.525 197.838 273.855 198.044 272.978 198.302C272.101 198.56 271.018 198.818 269.678 199.024C268.388 199.179 266.841 199.333 265.191 199.23C261.839 199.076 257.868 198.044 253.639 196.291C251.473 195.414 249.256 194.486 246.883 193.506C244.511 192.526 241.984 191.546 239.406 190.463C236.827 189.432 234.094 188.349 231.361 187.214C230.071 186.647 228.37 186.08 226.822 185.925C225.224 185.719 223.625 185.667 222.026 185.77C218.829 185.925 215.683 186.492 212.537 186.699C210.99 186.802 209.392 186.853 207.896 186.699C206.297 186.492 204.699 186.286 203.1 185.977C196.705 184.894 190.311 183.089 184.277 180.459C178.243 177.829 172.622 174.476 167.207 171.021C167.207 171.021 167.877 171.537 169.115 172.465C170.353 173.393 172.209 174.786 174.685 176.385C175.922 177.21 177.315 178.086 178.862 179.015C180.409 179.943 182.162 180.871 184.019 181.799C187.835 183.656 192.322 185.461 197.427 186.75C200.006 187.421 202.688 187.988 205.575 188.4C206.968 188.607 208.515 188.865 210.062 188.865C211.609 188.865 213.156 188.761 214.703 188.607C217.798 188.297 220.892 187.782 224.038 187.782C225.585 187.782 227.132 187.936 228.627 188.349C230.071 188.813 231.722 189.483 233.32 190.051C239.715 192.423 246.419 194.898 253.381 197.528C256.888 198.766 260.601 199.798 264.52 199.849C268.285 200.055 272.205 199.127 275.66 197.374Z" fill="#3C3C3B"/>
<path d="M233.992 136.005C233.992 136.005 240.799 136.933 250.392 137.81C252.815 138.016 255.342 138.223 258.024 138.481C259.365 138.584 260.757 138.635 261.995 138.893C263.233 139.151 264.264 139.821 264.625 140.956C264.986 142.039 264.573 143.431 263.903 144.514C263.181 145.649 262.15 146.474 260.86 146.938C258.333 147.969 255.342 148.021 252.764 148.846C252.764 148.846 254.156 148.588 256.683 148.434C257.972 148.33 259.52 148.227 261.325 147.66C262.201 147.402 263.181 146.887 263.955 146.113C264.728 145.339 265.399 144.36 265.811 143.173C266.172 141.987 266.172 140.44 265.244 139.254C264.316 138.068 262.82 137.604 261.479 137.398C260.087 137.243 258.798 137.191 257.354 137.037C255.961 136.933 254.517 136.83 253.073 136.727C247.091 136.418 240.696 136.108 233.992 136.005Z" fill="#3C3C3B"/>
</g>
<mask id="mask28_65_4450" style="mask-type:luminance" maskUnits="userSpaceOnUse" x="0" y="0" width="487" height="412">
<path d="M486.938 0.271851H0.9375V411.031H486.938V0.271851Z" fill="white"/>
</mask>
<g mask="url(#mask28_65_4450)">
<path d="M177.056 134.407C177.056 134.407 176.643 134.459 175.818 134.613C174.993 134.716 173.807 134.974 172.26 135.284C169.166 136.006 164.679 137.295 159.264 139.616C153.849 141.885 147.455 145.082 140.75 149.672C137.398 151.889 134.046 154.88 130.746 157.665C127.394 160.45 123.784 163.286 119.916 166.02C112.18 171.538 103.516 176.798 94.0275 181.388C84.5386 186.029 74.1729 190.052 63.8588 194.899C58.7018 197.323 53.5447 199.953 48.5939 203.047C43.6432 206.09 38.8987 209.545 34.6184 213.516C30.338 217.435 26.5218 221.87 23.4276 226.667C20.3333 231.463 18.1674 236.774 16.9297 242.086C16.9297 242.086 17.0844 241.777 17.3423 241.106C17.6001 240.487 17.9095 239.508 18.5284 238.321C18.8378 237.703 19.1472 237.032 19.5082 236.31C19.9208 235.588 20.3333 234.815 20.7975 233.938C21.7773 232.288 23.015 230.38 24.5105 228.368C26.0577 226.409 27.8111 224.243 29.977 222.128C32.0914 219.962 34.5668 217.745 37.3516 215.579C42.9212 211.195 49.7285 207.018 57.7735 203.202C65.7669 199.334 74.8949 195.776 84.5901 191.599C89.4378 189.484 94.4917 187.267 99.494 184.637C104.548 182.007 109.55 179.015 114.501 175.715C119.452 172.363 124.351 168.701 129.044 164.627C131.416 162.616 133.737 160.502 136.006 158.284C138.223 156.118 140.441 154.107 142.916 152.199C147.816 148.383 153.179 144.927 158.903 141.833C164.627 138.842 170.61 136.057 177.056 134.407Z" fill="#3C3C3B"/>
</g>
<mask id="mask29_65_4450" style="mask-type:luminance" maskUnits="userSpaceOnUse" x="0" y="0" width="487" height="412">
<path d="M486.938 0.271851H0.9375V411.031H486.938V0.271851Z" fill="white"/>
</mask>
<g mask="url(#mask29_65_4450)">
<path d="M173.381 176.126C173.381 176.126 171.576 176.9 168.223 178.344C166.625 179.169 164.562 180.097 162.293 181.387C161.158 182.057 159.921 182.727 158.631 183.449C157.342 184.275 156.001 185.1 154.609 185.976C151.824 187.833 148.781 189.947 145.584 192.423C142.438 194.898 139.086 197.631 135.631 200.726C128.772 206.811 121.501 214.082 113.868 221.973C106.236 229.863 98.1908 238.32 89.166 246.417C80.1927 254.462 70.2912 262.198 59.2035 268.077C53.6339 270.965 47.8064 273.388 41.7211 275.09C40.9476 275.296 40.2256 275.554 39.452 275.761L37.1314 276.276L34.8107 276.792L32.3869 277.256C30.8398 277.566 29.3958 277.772 28.2612 277.669C27.694 277.617 27.1783 277.462 26.7657 277.205L24.9092 275.915C22.4854 274.11 20.371 271.893 18.7207 269.314C17.122 266.736 15.9875 263.796 15.3686 260.805C14.1309 254.72 14.6466 248.222 16.6063 242.24C16.6063 242.24 16.4516 242.601 16.0906 243.323C15.7296 244.045 15.3171 245.128 14.8013 246.623C14.2856 248.119 13.8215 249.975 13.4605 252.244C13.1511 254.514 12.8932 257.144 13.0995 260.186C13.3574 263.177 14.0278 266.53 15.6265 269.933C17.1736 273.337 19.7005 276.689 23.1042 279.474C23.5168 279.835 23.9809 280.196 24.3935 280.505C24.9607 280.918 25.6311 281.279 26.3016 281.485C27.6424 281.949 28.9832 282.052 30.2725 282.001C31.5102 281.949 32.6963 281.794 33.8309 281.64C34.9138 281.485 36.0484 281.33 37.2345 281.124C41.979 280.505 46.8782 279.113 51.9321 277.462C56.9344 275.657 61.9883 273.337 66.9907 270.552C71.993 267.716 76.9438 264.364 81.8429 260.65C91.6413 253.224 100.924 244.096 110.104 234.143C119.232 224.242 128.36 213.567 138.467 203.304C148.575 193.145 159.869 183.295 173.381 176.126Z" fill="#3C3C3B"/>
</g>
<mask id="mask30_65_4450" style="mask-type:luminance" maskUnits="userSpaceOnUse" x="0" y="0" width="487" height="412">
<path d="M486.938 0.271851H0.9375V411.031H486.938V0.271851Z" fill="white"/>
</mask>
<g mask="url(#mask30_65_4450)">
<path d="M385.686 221.406C385.686 221.406 384.448 220.838 382.23 220.168C380.013 219.498 376.867 218.672 373.102 218.054C371.246 217.693 369.235 217.383 367.12 217.177C366.089 217.074 365.057 216.919 363.974 216.764C362.891 216.61 361.808 216.455 360.674 216.352C358.456 216.145 356.136 215.991 353.815 216.249C351.546 216.506 349.174 217.074 347.523 218.518C347.523 218.518 347.781 218.415 348.245 218.208C348.452 218.105 348.813 218.054 349.174 217.95C349.535 217.847 349.999 217.796 350.463 217.693C350.979 217.641 351.494 217.589 352.062 217.589C352.629 217.538 353.299 217.589 353.97 217.589C355.362 217.641 356.909 217.847 358.663 218.105C360.416 218.363 362.273 218.672 364.335 219.033C365.367 219.24 366.501 219.343 367.584 219.446C368.667 219.549 369.802 219.652 370.936 219.755C375.526 220.116 380.529 220.529 385.686 221.406Z" fill="#3C3C3B"/>
<path d="M348.143 218.105C348.143 218.105 347.782 218.26 347.112 218.466C346.751 218.518 346.338 218.672 345.823 218.672C345.307 218.724 344.688 218.672 344.069 218.518C342.78 218.208 341.336 217.486 339.531 216.713C339.067 216.506 338.603 216.352 338.087 216.197C337.571 216.042 337.004 215.939 336.437 215.836C335.87 215.784 335.251 215.784 334.632 215.888C334.322 215.888 334.013 215.991 333.704 216.094C333.446 216.145 332.982 216.249 332.672 216.506L333.497 216.558C332.517 215.63 331.383 214.753 329.991 214.237C328.547 213.722 326.896 213.567 325.298 213.876C323.699 214.186 322.152 214.805 320.708 215.733C319.264 216.61 317.923 217.692 316.737 218.982C311.889 223.984 308.537 230.843 305.082 237.702C304.205 239.455 303.329 241.106 302.4 242.859C301.472 244.664 300.492 246.727 300.595 249.254C300.595 250.491 301.163 251.832 301.936 252.812C302.71 253.792 303.586 254.514 304.463 255.133C306.217 256.37 307.97 257.299 309.62 258.382C311.219 259.413 312.818 260.805 314.571 261.888C316.273 263.023 318.129 264.106 320.141 264.828C322.152 265.55 324.266 265.859 326.329 265.653C328.392 265.447 330.352 264.776 332.105 263.9L331.95 263.59C331.435 263.796 330.867 264.054 330.352 264.261L329.526 264.57L329.114 264.725L328.908 264.776L328.804 264.828H328.753C328.753 264.828 328.753 264.828 328.701 264.828C328.598 264.673 328.701 264.725 328.701 264.673C328.701 264.673 328.701 264.673 328.65 264.725C328.65 264.725 328.598 264.776 328.701 264.828H328.753C328.804 264.828 328.856 264.828 328.908 264.776C329.062 264.725 329.269 264.673 329.526 264.622C330.094 264.467 330.919 264.209 332.053 263.9L331.899 263.436C331.28 263.59 330.609 263.9 329.836 264.054C329.062 264.261 328.186 264.415 327.206 264.467C326.226 264.518 325.195 264.518 324.06 264.312C322.925 264.157 321.791 263.797 320.656 263.281C318.284 262.249 315.963 260.496 313.436 258.382C312.199 257.299 310.755 256.216 309.259 255.184C307.764 254.153 306.165 253.173 304.927 252.038C304.308 251.471 303.793 250.852 303.586 250.182C303.38 249.511 303.277 248.789 303.432 247.964C303.483 247.552 303.638 247.139 303.741 246.675L304.257 245.386C304.669 244.509 305.134 243.632 305.701 242.653C307.815 238.836 309.672 234.711 311.838 230.585C312.921 228.522 314.107 226.511 315.396 224.551C316.737 222.592 318.232 220.632 319.883 219.033C321.636 217.435 323.699 216.094 325.968 215.63C327.103 215.423 328.237 215.423 329.372 215.733C330.455 216.094 331.486 216.713 332.466 217.486L332.982 217.899L333.497 217.538C333.652 217.435 333.6 217.435 333.704 217.383L334.065 217.228C334.322 217.125 334.58 217.022 334.89 217.022C335.457 216.867 336.024 216.867 336.643 216.919C337.829 217.022 339.067 217.383 340.253 217.796C341.491 218.208 342.78 218.672 344.121 218.827C344.791 218.93 345.513 218.879 346.184 218.724C346.493 218.621 346.854 218.518 347.164 218.414L348.143 218.105Z" fill="#3C3C3B"/>
<path d="M332.124 219.24C332.124 219.24 332.021 219.601 331.866 220.22C331.66 220.839 331.35 221.716 330.783 222.747C329.751 224.862 327.843 227.492 325.523 230.637C324.388 232.236 323.15 233.886 322.016 235.846C321.5 236.774 320.984 237.754 320.469 238.734C319.953 239.714 319.386 240.745 318.87 241.777C317.839 243.839 316.91 246.109 316.549 248.532C316.395 249.718 316.395 251.008 316.756 252.142C317.168 253.328 317.942 254.257 318.87 254.824C318.87 254.824 318.715 254.566 318.354 254.154C318.148 253.947 318.045 253.638 317.89 253.328C317.684 253.019 317.632 252.555 317.529 252.091C317.478 251.627 317.426 251.111 317.529 250.492C317.581 249.925 317.736 249.306 317.89 248.636C318.096 247.965 318.354 247.295 318.664 246.573C318.973 245.851 319.334 245.077 319.798 244.304C320.623 242.705 321.655 241.055 322.686 239.198C323.202 238.27 323.718 237.29 324.233 236.31C324.801 235.382 325.368 234.402 325.987 233.371C327.224 231.359 328.617 229.245 329.751 226.924C330.989 224.604 332.072 222.025 332.124 219.24Z" fill="#3C3C3B"/>
<path d="M318.393 254.308C318.393 254.308 318.547 254.566 318.754 254.978C319.011 255.391 319.476 255.958 320.146 256.577C321.435 257.866 323.653 259.259 326.128 260.806C326.747 261.218 327.366 261.631 327.985 262.043C328.294 262.25 328.604 262.507 328.861 262.765L329.893 263.539C330.666 264.003 331.44 264.467 332.368 264.673C333.296 264.931 334.276 265.034 335.205 264.931C336.184 264.88 337.061 264.57 337.938 264.261C338.763 263.9 339.588 263.487 340.362 262.972C341.857 261.992 343.198 260.806 344.384 259.62C344.384 259.62 343.559 260.084 342.27 260.857C341.599 261.218 340.774 261.682 339.794 262.146C338.814 262.611 337.68 263.075 336.391 263.281C335.772 263.384 335.101 263.487 334.431 263.384C333.761 263.384 333.09 263.178 332.42 262.972C331.749 262.662 331.079 262.353 330.46 261.889C329.841 261.476 329.016 260.806 328.243 260.342C326.644 259.362 324.942 258.588 323.24 257.711C321.487 256.783 319.733 255.855 318.393 254.308Z" fill="#3C3C3B"/>
<path d="M345.824 221.561C345.824 221.561 345.257 222.489 344.174 224.036C343.091 225.584 341.492 227.595 339.636 230.07C338.707 231.308 337.779 232.649 336.851 234.144C335.923 235.64 335.149 237.238 334.376 238.94C332.88 242.292 331.9 245.799 330.508 249.1C330.508 249.1 331.075 248.378 331.952 246.985C332.828 245.593 333.911 243.478 335.201 240.9C336.49 238.321 338.037 235.382 339.997 232.236C342.008 229.09 344.329 225.584 345.824 221.561Z" fill="#3C3C3B"/>
<path d="M331.076 248.171C331.076 248.171 331.024 248.222 330.921 248.377C330.869 248.532 330.56 248.686 330.508 249.047C330.457 249.202 330.405 249.408 330.354 249.614C330.354 249.821 330.405 250.079 330.405 250.336C330.508 250.594 330.56 250.852 330.663 251.11C330.766 251.368 330.921 251.626 331.076 251.935C332.468 254.101 335.253 256.37 338.76 258.485C339.636 259 340.564 259.516 341.596 260.032C342.679 260.444 343.813 260.805 345 261.012C347.372 261.424 349.796 261.373 352.168 261.166C354.54 260.96 356.912 260.599 359.285 260.29C360.471 260.135 361.605 260.083 362.791 259.98C363.359 259.98 363.926 259.98 364.545 259.98C365.112 260.032 365.679 260.032 366.298 260.083C366.298 260.083 365.989 259.98 365.473 259.825C364.906 259.619 364.132 259.464 363.049 259.258C361.966 259.103 360.625 258.949 359.13 258.897C357.583 258.846 355.881 258.897 353.973 258.949C352.116 259 350.053 259.103 347.939 259C346.908 258.949 345.825 258.846 344.742 258.588C344.226 258.485 343.659 258.381 343.143 258.175C342.627 258.02 342.06 257.814 341.544 257.556C340.461 257.092 339.327 256.525 338.244 255.906C337.109 255.287 336.026 254.668 334.943 253.998C333.86 253.276 332.777 252.502 331.849 251.574C330.972 250.749 330.25 249.408 331.076 248.171Z" fill="#3C3C3B"/>
<path d="M366.251 260.084C366.251 260.084 366.251 259.826 366.302 259.413C366.302 259.207 366.302 258.949 366.354 258.64C366.354 258.33 366.251 257.969 366.199 257.557C366.147 257.351 366.096 257.144 366.044 256.938C365.941 256.732 365.838 256.525 365.735 256.319C365.529 255.855 365.271 255.391 364.91 254.978C364.755 254.772 364.549 254.514 364.394 254.308C364.188 254.102 363.93 253.895 363.724 253.689C363.259 253.225 362.744 252.864 362.177 252.503C361.609 252.09 360.99 251.832 360.372 251.471C359.753 251.162 359.082 250.904 358.36 250.595C356.968 250.079 355.524 249.667 354.028 249.357C351.037 248.687 347.891 248.429 344.9 248.223C344.9 248.223 345.622 248.48 346.963 248.841C348.407 249.202 350.315 249.718 352.533 250.337C353.667 250.646 354.957 251.007 356.297 251.42C356.968 251.678 357.638 251.832 358.309 252.142C358.979 252.4 359.701 252.658 360.372 253.019C361.094 253.328 361.712 253.741 362.434 254.102C363.053 254.566 363.724 254.978 364.291 255.597L364.703 256.01L365.064 256.525C365.271 256.886 365.58 257.196 365.683 257.608C365.786 258.021 366.044 258.382 366.096 258.794C366.147 259.207 366.199 259.671 366.251 260.084Z" fill="#3C3C3B"/>
<path d="M342.594 249.563C342.594 249.563 343.161 249.305 344.141 248.738C345.121 248.171 346.41 247.294 347.699 246.005C348.988 244.716 350.329 243.065 351.464 241.26C352.598 239.455 353.681 237.599 354.713 235.794C354.713 235.794 353.166 237.289 351.206 240.074C350.175 241.415 349.04 243.065 347.699 244.716C346.307 246.366 344.605 248.016 342.594 249.563Z" fill="#3C3C3B"/>
<path d="M353.979 237.238C353.979 237.238 355.216 237.238 357.227 237.548C359.239 237.857 362.075 238.631 365.169 239.869C365.943 240.126 366.716 240.591 367.542 240.952C368.367 241.312 369.243 241.725 370.12 242.086C371.873 242.808 373.833 243.478 375.844 243.943C376.876 244.149 377.907 244.304 378.939 244.355C379.97 244.407 381.053 244.355 382.084 244.2C384.147 243.943 386.107 243.324 387.912 242.55C387.912 242.55 387.654 242.602 387.19 242.653C386.726 242.705 386.004 242.808 385.127 242.911C383.374 243.066 380.795 243.169 377.753 242.55C374.71 241.983 371.306 240.539 367.438 238.992C365.479 238.167 363.261 237.651 360.992 237.29C358.775 236.826 356.351 236.774 353.979 237.238Z" fill="#3C3C3B"/>
<path d="M338.719 262.92C338.719 262.92 339.286 262.816 340.369 262.662C341.4 262.559 342.948 262.455 344.856 262.559C346.764 262.662 349.084 262.971 351.663 263.487C354.241 263.951 357.181 264.621 360.378 265.086C363.627 265.55 367.186 265.911 371.105 265.137C373.013 264.673 374.921 263.951 376.623 262.971C378.376 262.043 379.924 260.857 381.471 259.671C384.513 257.247 387.247 254.617 390.083 252.193C391.527 251.007 392.971 249.872 394.518 248.944C396.065 247.913 397.767 247.242 399.52 246.623C399.52 246.623 399.056 246.675 398.128 246.778C397.664 246.83 397.097 246.881 396.478 247.087C395.807 247.242 395.034 247.397 394.26 247.758C393.435 248.016 392.558 248.428 391.578 248.892C390.599 249.357 389.619 249.924 388.587 250.594C386.473 251.884 384.255 253.534 381.883 255.287C380.697 256.164 379.408 257.092 378.119 257.969C376.829 258.846 375.437 259.671 373.941 260.341C373.219 260.65 372.446 261.063 371.672 261.218L370.486 261.579L369.248 261.785C367.598 262.094 365.793 262.146 363.885 262.094C360.12 261.991 356.046 261.476 351.766 261.218C347.589 261.011 342.896 261.115 338.719 262.92Z" fill="#3C3C3B"/>
<path d="M253.517 211.659C253.517 211.659 253.413 211.762 253.517 212.02C253.568 212.278 253.723 212.639 253.929 213.103C254.342 214.031 254.961 215.424 255.889 217.074C256.353 217.899 256.869 218.776 257.642 219.756C257.797 219.962 258.106 220.271 258.313 220.478C258.519 220.684 258.777 220.89 258.983 221.097C259.499 221.509 260.014 221.87 260.582 222.231C262.851 223.727 265.739 224.758 268.781 225.48C274.815 226.976 281.777 228.213 288.997 229.038C292.607 229.451 296.268 229.709 299.93 229.864C301.735 229.967 303.591 230.018 305.396 230.018C307.201 230.07 309.006 229.967 310.76 230.07C310.76 230.07 310.347 229.915 309.471 229.657C308.594 229.451 307.356 229.193 305.757 228.832C302.56 228.162 297.919 227.285 292.246 226.305C286.522 225.377 279.869 224.242 272.443 223.056C268.73 222.437 264.914 221.973 261.458 220.323C260.633 219.91 259.757 219.395 258.983 218.879C258.313 218.363 257.642 217.538 256.972 216.765C256.301 215.991 255.683 215.166 255.012 214.289L254.084 213C253.981 212.587 253.568 212.123 253.517 211.659Z" fill="#3C3C3B"/>
<path d="M253.367 211.608C253.367 211.608 253.419 211.453 253.625 211.298C253.831 211.092 254.295 211.04 254.811 211.195C255.327 211.35 255.894 211.608 256.565 211.969C257.235 212.33 257.957 212.845 258.937 213.258C260.742 214.083 263.062 214.908 265.693 215.63C268.323 216.352 271.314 216.971 274.46 217.59C277.657 218.26 281.164 218.776 284.774 219.188C288.384 219.549 292.2 219.807 296.016 219.859C303.7 219.962 311.59 219.395 318.913 218.209C318.913 218.209 317.005 218.002 313.55 217.693C310.095 217.435 305.144 217.074 299.162 216.61C293.128 216.197 286.011 215.682 278.224 214.805C274.356 214.289 270.179 213.928 266.002 213.361C263.888 213.051 261.825 212.742 259.71 212.175C258.679 211.969 257.699 211.556 256.616 211.195C256.049 211.04 255.482 210.886 254.914 210.834C254.347 210.782 253.573 210.937 253.367 211.608Z" fill="#3C3C3B"/>
<path d="M321.552 264.312C321.552 264.312 321.294 264.158 320.778 264.003C320.262 263.848 319.489 263.693 318.509 263.693C317.529 263.693 316.343 263.797 315.002 263.951C314.332 264.054 313.661 264.158 312.939 264.209C312.217 264.312 311.495 264.312 310.67 264.467C307.421 264.879 303.76 265.859 300.305 267.613C296.849 269.315 293.704 271.738 291.125 274.368C291.125 274.368 292.002 273.853 293.394 273.028C294.838 272.203 297.004 270.965 299.634 269.727C302.316 268.489 305.565 267.252 309.278 266.323C310.206 266.117 311.134 265.911 312.166 265.705C313.197 265.498 314.229 265.241 315.208 264.931C316.24 264.673 317.271 264.415 318.303 264.209C319.386 264.106 320.469 264.003 321.552 264.312Z" fill="#3C3C3B"/>
<path d="M291.075 274.368C291.075 274.368 290.817 274.317 290.404 274.213C290.198 274.11 289.94 274.007 289.734 273.801C289.528 273.595 289.373 273.285 289.321 272.873C289.27 272.099 289.579 271.119 290.095 270.139C290.559 269.108 291.23 268.025 292.003 266.89C293.55 264.57 295.458 262.146 297.831 259.928C300.151 257.711 302.781 255.648 305.875 254.668C305.875 254.668 305.669 254.668 305.257 254.72C304.844 254.72 304.277 254.823 303.555 255.029C302.111 255.442 300.048 256.319 297.882 257.969C296.799 258.794 295.716 259.774 294.633 260.908C293.55 262.043 292.519 263.384 291.59 264.879C290.662 266.375 289.786 267.973 289.167 269.778C288.909 270.707 288.599 271.686 288.806 272.718C288.857 273.234 289.218 273.749 289.631 274.059C289.889 274.162 290.147 274.265 290.353 274.317C290.559 274.317 290.817 274.368 291.075 274.368Z" fill="#3C3C3B"/>
<path d="M318.806 244.356C318.806 244.356 318.497 244.253 317.929 244.304C317.362 244.304 316.588 244.459 315.763 244.82C314.061 245.49 312.257 246.831 310.555 247.914C310.555 247.914 311.586 247.605 313.03 246.831C313.907 246.367 314.577 246.006 315.557 245.439C316.485 244.923 317.568 244.407 318.806 244.356Z" fill="#3C3C3B"/>
<path d="M332.743 244.665C332.743 244.665 331.814 244.82 330.628 245.232C329.442 245.645 327.947 246.367 326.709 247.14C326.709 247.14 327.431 246.934 328.566 246.47C329.649 246.057 331.144 245.387 332.743 244.665Z" fill="#3C3C3B"/>
</g>
<mask id="mask31_65_4450" style="mask-type:luminance" maskUnits="userSpaceOnUse" x="0" y="0" width="487" height="412">
<path d="M486.938 0.271851H0.9375V411.031H486.938V0.271851Z" fill="white"/>
</mask>
<g mask="url(#mask31_65_4450)">
<path d="M373.885 218.415C373.885 218.415 374.658 218.415 376.102 218.26C377.546 218.157 379.661 217.899 382.239 217.28C384.869 216.661 387.964 215.63 391.264 214.031C392.914 213.206 394.616 212.226 396.369 211.092C398.071 209.957 399.773 208.565 401.423 207.172C403.074 205.78 404.775 204.439 406.684 203.305C408.54 202.118 410.551 201.087 412.717 200.21C416.998 198.457 421.794 197.425 426.641 197.374C429.065 197.322 431.592 197.529 434.119 197.786C436.646 198.044 439.121 198.405 441.597 198.973C446.496 200.107 451.24 201.964 455.108 205.213C455.108 205.213 454.696 204.697 453.871 203.82C453.406 203.408 452.891 202.84 452.22 202.273C451.55 201.654 450.673 201.035 449.693 200.417C448.714 199.798 447.579 199.127 446.29 198.508C445 197.838 443.556 197.322 441.958 196.755C438.812 195.672 435.047 194.847 430.922 194.331C428.859 194.073 426.59 193.919 424.269 194.022C421.948 194.125 419.525 194.434 417.101 195.002C412.253 196.136 407.251 198.354 402.816 201.809C400.598 203.511 398.639 205.47 396.627 207.275C394.616 209.08 392.399 210.731 390.026 212.175C385.282 214.959 379.815 217.229 373.885 218.415Z" fill="#3C3C3B"/>
</g>
<mask id="mask32_65_4450" style="mask-type:luminance" maskUnits="userSpaceOnUse" x="0" y="0" width="487" height="412">
<path d="M486.938 0.271851H0.9375V411.031H486.938V0.271851Z" fill="white"/>
</mask>
<g mask="url(#mask32_65_4450)">
<path d="M388.123 251.317C388.123 251.317 388.329 251.265 388.793 251.111C389.206 250.956 389.825 250.698 390.702 250.543C391.527 250.337 392.558 250.182 393.796 250.079C395.033 249.976 396.426 249.976 397.973 250.079C401.119 250.234 404.832 250.853 409.112 251.678C411.227 252.039 413.496 252.503 415.971 252.813C418.446 253.174 421.077 253.277 423.707 253.277C429.07 253.225 434.794 252.555 440.622 251.059C443.51 250.337 446.449 249.357 449.337 248.223C452.174 247.088 455.268 245.644 457.846 243.117C459.084 241.88 460.167 240.229 460.786 238.631C461.456 237.032 461.869 235.433 462.23 233.938C463.003 230.947 463.725 227.801 464.035 224.603C464.344 221.406 464.086 218.054 463.003 215.063C461.92 212.072 459.961 209.39 457.331 207.895C457.331 207.895 457.485 208.049 457.743 208.307C458.001 208.565 458.414 208.978 458.826 209.545C459.703 210.679 460.786 212.536 461.405 215.115C462.024 217.693 462.075 220.942 461.25 224.655C460.889 226.512 460.322 228.471 459.651 230.534C458.929 232.597 458.31 234.918 457.382 236.877C456.505 238.888 455.113 240.384 453.102 241.673C451.142 242.963 448.667 243.942 446.037 244.871C440.828 246.727 435.052 248.223 428.864 248.996C425.769 249.357 422.572 249.667 419.375 249.667C416.177 249.667 412.825 249.357 409.37 249.048C405.915 248.738 402.356 248.481 398.747 248.687C395.085 248.687 391.32 249.46 388.123 251.317Z" fill="#3C3C3B"/>
</g>
<mask id="mask33_65_4450" style="mask-type:luminance" maskUnits="userSpaceOnUse" x="0" y="0" width="487" height="412">
<path d="M486.938 0.271851H0.9375V411.031H486.938V0.271851Z" fill="white"/>
</mask>
<g mask="url(#mask33_65_4450)">
<path d="M306.283 134.664C306.283 134.664 306.747 135.593 307.624 137.243C308.037 138.068 308.604 139.151 309.326 140.286C310.048 141.42 310.821 142.813 311.904 144.153C312.42 144.875 312.987 145.597 313.555 146.371C314.122 147.144 314.844 147.866 315.514 148.692C316.855 150.342 318.454 151.889 320.156 153.591C321.909 155.189 323.766 156.943 325.828 158.645C327.84 160.398 330.057 162.048 332.326 163.802C336.916 167.257 341.97 170.712 347.179 174.271C349.809 176.076 352.439 177.88 355.069 179.789C356.358 180.768 357.699 181.697 358.988 182.677C360.277 183.708 361.567 184.688 362.856 185.719C367.961 189.845 372.861 194.486 377.554 199.282C382.246 204.078 386.785 209.029 391.426 213.619C391.426 213.619 389.518 210.834 385.96 205.935C382.35 201.087 377.244 193.97 369.457 186.338C367.497 184.481 365.435 182.522 363.114 180.665C360.845 178.757 358.421 176.901 355.842 175.096C350.737 171.383 345.116 167.773 339.34 163.956C336.452 162.048 333.461 160.089 330.521 158.026C327.582 155.963 324.642 153.797 321.754 151.476C318.918 149.104 316.082 146.629 313.503 143.792C310.873 141.059 308.552 137.965 306.283 134.664Z" fill="#3C3C3B"/>
</g>
</svg>
