<svg width="313" height="36" viewBox="0 0 313 36" fill="none" xmlns="http://www.w3.org/2000/svg">
<path d="M128.162 0.882358V0.536705H126.066V0.532715H121.352V0.536705H119.256V0.882358C120.204 1.02655 121.338 1.72405 121.352 3.27875V31.7477C121.338 33.3029 120.204 34.0004 119.256 34.1446V34.4896H128.162V34.1446C127.214 34.0004 126.081 33.3029 126.066 31.7477V3.27875C126.081 1.72405 127.214 1.02655 128.162 0.882358Z" fill="#221D1E"/>
<path d="M238.065 0.882358V0.536705H235.968V0.532715H231.254V0.536705H229.158V0.882358C230.106 1.02655 231.24 1.72405 231.254 3.27875V31.7477C231.24 33.3029 230.106 34.0004 229.158 34.1446V34.4896H238.065V34.1446C237.116 34.0004 235.982 33.3029 235.968 31.7477V3.27875C235.982 1.72405 237.116 1.02655 238.065 0.882358Z" fill="#221D1E"/>
<path d="M299.449 5.96355C303.169 2.67795 308.207 1.19534 309.263 0.88292V0.54248H299.158V0.892115C301.744 1.30589 301.561 3.04475 299.158 5.96355H299.449Z" fill="#221D1E"/>
<path d="M287.239 31.7482V3.2793C287.253 1.72405 288.387 1.02711 289.335 0.882911V0.537384H287.239V0.532715H282.524V0.537384H280.429V0.882911C281.376 1.02711 282.51 1.72405 282.524 3.2793V31.7482C282.51 33.3034 281.376 34.0011 280.429 34.1446V34.4902H289.335V34.1446C288.387 34.0011 287.253 33.3034 287.239 31.7482Z" fill="#221D1E"/>
<path d="M307.223 31.3769L290.424 15.457L288.281 17.6268L303.559 32.3234L303.499 32.2719C304.086 33.4032 302.895 34.111 302.348 34.1453V34.4909H312.18V34.1459C310.743 33.9766 308.753 32.7823 307.223 31.3769Z" fill="#221D1E"/>
<path d="M111.412 31.7448C110.155 34.6744 107.521 33.684 106.412 29.064C106.362 28.8574 105.438 25.7446 105.381 25.5472C103.778 19.9986 100.112 18.2688 96.6268 18.2688H85.1758V1.29599H95.5197C96.9206 1.29599 103.149 1.29599 103.149 9.7887C103.149 16.5625 98.9161 17.5346 98.9161 17.5346C98.9161 17.5346 99.0586 17.6593 99.9708 17.6593C100.884 17.6593 107.719 16.5458 107.719 9.73322C107.719 1.28912 100.646 0.532715 95.5197 0.532715H78.3662V0.878234C79.314 1.02243 80.4479 1.71938 80.4624 3.27463V31.7482C80.4479 33.3034 79.314 34.0004 78.3662 34.1446V34.4901H87.272V34.1446C86.3242 34.0004 85.1903 33.3034 85.1758 31.7482V19.0167H92.1431C94.3212 19.0167 99.1283 18.632 100.29 23.7424C100.352 24.0153 101.597 28.7813 101.662 29.0405C102.463 32.1967 104.225 35.0286 107.676 35.0286C111.404 35.0286 111.774 31.7384 111.774 31.7384L111.412 31.7448Z" fill="#221D1E"/>
<path d="M276.233 28.6073C276.22 28.5946 276.205 28.5832 276.186 28.5798C276.154 28.574 276.127 28.5872 276.106 28.6073H275.912C275.778 29.4569 274.726 32.9725 271.558 33.6266H257.132V3.28486C257.146 1.7296 258.28 1.03211 259.229 0.887916V0.542254H259.001C259 0.541705 259.001 0.540607 259.001 0.539371C258.995 0.493091 258.955 0.457656 258.907 0.457656H258.429L251.684 0.400391H251.207C251.204 0.400391 251.203 0.402729 251.2 0.402729L250.894 0.400391H250.417C250.37 0.400391 250.33 0.434728 250.323 0.481008C250.32 0.503392 250.326 0.524539 250.337 0.542254H250.322V0.887916C250.905 0.976081 251.556 1.27477 251.977 1.85155C252.122 2.16164 252.221 2.52034 252.265 2.94263C252.316 3.4296 252.341 3.9005 252.341 4.34462C252.344 11.7015 252.345 20.2484 252.336 28.5798C252.335 29.5245 252.295 30.4731 252.219 31.3996C252.104 32.8083 251.761 33.7565 250.41 34.1319C250.409 34.1319 250.408 34.1335 250.407 34.1335C250.379 34.1393 250.35 34.1456 250.322 34.1501V34.4952H276.263V28.6073H276.233Z" fill="#221D1E"/>
<path d="M8.63908 28.6567H8.34824C5.9502 32.8407 1.918 33.8335 0.860352 34.1465V34.4864H10.9656V34.1373C7.50757 33.6927 8.18014 30.9668 8.63908 28.6567Z" fill="#221D1E"/>
<path d="M37.5393 31.1502L22.0038 0.532715H21.6699L19.6884 5.38565L27.0576 19.8459H12.7008L12.3418 20.6086H27.4463L33.4145 32.321C33.9405 33.4225 32.78 34.1109 32.2424 34.144V34.4902H41.3312V34.1446C39.8984 33.9758 38.4626 32.6397 37.5393 31.1502Z" fill="#221D1E"/>
<path d="M69.5315 0.532715L69.5309 0.53326H69.222L69.2226 0.532715H65.6709V0.884688C66.8484 1.01227 67.5605 2.26883 66.9177 3.31019L57.6658 18.274L48.5129 3.45096C47.8695 2.40959 48.8509 1.01227 50.0289 0.884688V0.532715H38.8184V0.884688C40.5683 1.04426 43.0122 2.30824 43.9879 3.75707L53.9227 19.8457V31.7769C53.8948 33.3108 52.7696 34.0009 51.8278 34.1446V34.4902H60.734V34.1446C59.78 33.9993 58.6367 33.2955 58.6367 31.7196V18.3609L67.6879 3.72108C68.6798 2.28709 71.0971 1.04317 72.833 0.884688V0.532715H69.5315Z" fill="#221D1E"/>
<path d="M167.569 24.9048C166.96 19.5598 163.747 18.143 158.87 16.3326C153.744 14.4288 143.506 13.5316 143.687 7.58635C143.864 1.78831 149.174 0.872746 151.726 0.872746C155.674 0.872746 159.53 2.71872 162.193 4.78319C164.022 6.19713 164.597 8.27822 164.597 8.27822L164.945 8.28166V0.859561H164.586C164.586 0.859561 164.175 5.00059 162.079 3.6972C159.069 1.84202 155.286 0.0625 151.668 0.0625C145.654 0.0625 140.07 1.80658 139.138 7.51947C138.394 12.0839 141.542 15.4697 146.167 16.9717C148.973 17.9032 150.77 18.2821 153.502 19.0803C160.604 21.2541 162.296 23.3118 162.891 26.6775C163.372 29.3949 161.369 34.2351 154.046 34.2351C152.443 34.1574 148.072 33.8444 141.926 29.8046C140.097 28.3906 139.522 26.3095 139.522 26.3095L139.174 26.3067V33.7282H139.533C139.533 33.7282 139.945 29.5872 142.04 30.89C142.679 31.2843 143.356 31.6717 144.055 32.0419C146.309 33.2629 150.087 34.9367 154.064 35.0625C164.07 35.0625 168.156 30.0615 167.569 24.9048Z" fill="#221D1E"/>
<path d="M219.379 24.9048C218.77 19.5598 215.557 18.143 210.68 16.3326C205.553 14.4288 195.316 13.5316 195.497 7.58635C195.674 1.78831 200.984 0.872746 203.536 0.872746C207.484 0.872746 211.34 2.71872 214.003 4.78319C215.832 6.19713 216.407 8.27822 216.407 8.27822L216.755 8.28166L216.754 0.859561H216.396C216.396 0.859561 215.984 5.00059 213.889 3.6972C210.879 1.84202 207.096 0.0625 203.478 0.0625C197.464 0.0625 191.879 1.80658 190.948 7.51947C190.203 12.0839 193.351 15.4697 197.976 16.9717C200.783 17.9032 202.579 18.2821 205.312 19.0803C212.413 21.2541 214.105 23.3118 214.701 26.6775C215.182 29.3949 213.179 34.2351 205.856 34.2351C204.253 34.1574 199.882 33.8444 193.736 29.8046C191.906 28.3906 191.332 26.3095 191.332 26.3095L190.984 26.3067V33.7282H191.343C191.343 33.7282 191.754 29.5872 193.85 30.89C194.489 31.2843 195.165 31.6717 195.865 32.0419C198.119 33.2629 201.897 34.9367 205.873 35.0625C215.88 35.0625 219.966 30.0615 219.379 24.9048Z" fill="#221D1E"/>
</svg>
