<svg width="213" height="46" viewBox="0 0 213 46" fill="none" xmlns="http://www.w3.org/2000/svg">
<g clip-path="url(#clip0_58_1276)">
<path d="M16.637 45.425C12.2462 45.4194 8.03689 43.6727 4.93215 40.568C1.82741 37.4633 0.0807337 33.2539 0.0751953 28.8632V25.3798C0.0798001 21.0635 1.76714 16.9192 4.77873 13.8272C7.79031 10.7352 11.8888 8.93927 16.2034 8.82097L18.8377 6.19872C22.4126 2.6335 27.2441 0.613936 32.2928 0.574463H39.2087C43.6 0.57921 47.8101 2.32554 50.9155 5.43036C54.0209 8.53519 55.768 12.745 55.7735 17.1363V20.6196C55.7682 24.9357 54.0806 29.0796 51.0692 32.1714C48.0577 35.2633 43.9597 37.0594 39.6453 37.1785L36.9842 39.8366C33.4186 43.3859 28.6017 45.3927 23.5709 45.425H16.637Z" fill="white" stroke="black" stroke-width="0.149502" stroke-miterlimit="10"/>
<path d="M16.6369 40.1956C13.6338 40.1877 10.756 38.9912 8.63254 36.8677C6.50904 34.7442 5.31258 31.8664 5.30469 28.8633V25.3799C5.31258 22.3769 6.50904 19.4991 8.63254 17.3756C10.756 15.2521 13.6338 14.0556 16.6369 14.0477C16.7625 14.0477 16.8881 14.0477 17.0196 14.0477H18.3771L22.5183 9.90652C25.1115 7.30881 28.6224 5.8353 32.2927 5.8042H39.2087C42.2102 5.81446 45.0857 7.01196 47.2073 9.1352C49.3288 11.2584 50.524 14.1349 50.5319 17.1364V20.6198C50.5288 23.6243 49.3338 26.5049 47.2093 28.6294C45.0848 30.7539 42.2042 31.9489 39.1997 31.952C39.0771 31.952 38.9485 31.952 38.82 31.952H37.4625L33.2944 36.1172C30.709 38.6976 27.2145 40.1609 23.5618 40.1926L16.6369 40.1956Z" fill="#FDAFF3" stroke="black" stroke-width="0.149502" stroke-miterlimit="10"/>
<path d="M16.6368 34.9629C15.0195 34.9613 13.469 34.3181 12.3254 33.1746C11.1818 32.031 10.5387 30.4804 10.5371 28.8632V25.3798C10.5387 23.7623 11.1817 22.2114 12.3252 21.0674C13.4687 19.9233 15.0193 19.2795 16.6368 19.2772H20.5447L26.2258 13.611C27.8328 11.9914 30.0112 11.067 32.2926 11.0366H39.2085C40.8261 11.0382 42.3769 11.6813 43.521 12.8247C44.665 13.9682 45.3088 15.5188 45.3112 17.1363V20.6197C45.3088 22.2401 44.663 23.7932 43.5159 24.9376C42.3687 26.082 40.814 26.7239 39.1936 26.7223H35.2826C33.4737 28.5313 29.7391 32.2688 29.6016 32.4034C27.9966 34.0174 25.8227 34.9374 23.5467 34.9659L16.6368 34.9629Z" fill="#B4E4FD" stroke="black" stroke-width="0.149502" stroke-miterlimit="10"/>
<path d="M39.1936 16.2664H32.2926C31.3906 16.2985 30.535 16.6739 29.9005 17.3159L23.2806 23.9328C23.0902 24.1221 22.863 24.2705 22.6131 24.3687C22.3632 24.4669 22.0958 24.5129 21.8275 24.5039H16.6338C16.403 24.5039 16.1817 24.5956 16.0185 24.7587C15.8553 24.9219 15.7637 25.1432 15.7637 25.374V28.8634C15.7637 29.0941 15.8553 29.3155 16.0185 29.4786C16.1817 29.6418 16.403 29.7335 16.6338 29.7335H23.5527C24.455 29.7029 25.3112 29.3272 25.9447 28.684L32.5647 22.067C32.755 21.8784 32.9817 21.7304 33.231 21.6323C33.4803 21.5341 33.747 21.4877 34.0148 21.4959H39.2085C39.4382 21.4928 39.6574 21.3989 39.8182 21.2348C39.9789 21.0706 40.0683 20.8496 40.0667 20.6199V17.1365C40.0667 17.0219 40.0441 16.9086 40.0001 16.8028C39.9562 16.697 39.8919 16.601 39.8108 16.5201C39.7296 16.4393 39.6334 16.3753 39.5275 16.3317C39.4216 16.2882 39.3081 16.266 39.1936 16.2664Z" fill="white" stroke="black" stroke-width="0.149502" stroke-miterlimit="10"/>
<path d="M177.725 8.65967H172.57V37.8603H177.725V8.65967Z" fill="black"/>
<path d="M122.567 23.26C122.567 14.3377 116.536 8.30981 107.617 8.30981C98.6979 8.30981 92.667 14.3377 92.667 23.26C92.667 32.1822 98.6979 38.2101 107.617 38.2101C116.536 38.2101 122.567 32.1822 122.567 23.26ZM107.617 33.3484C101.745 33.3484 97.8218 29.4045 97.8218 23.26C97.8218 17.1155 101.745 13.1686 107.617 13.1686C113.49 13.1686 117.41 17.1155 117.41 23.26C117.41 29.4045 113.49 33.3484 107.617 33.3484Z" fill="black"/>
<path d="M197.71 8.30981C188.791 8.30981 182.76 14.3377 182.76 23.26C182.76 32.1822 188.791 38.2101 197.71 38.2101C201.851 38.2101 205.203 36.8048 207.46 34.353H207.529L208.641 37.8753H212.66V23.26C212.66 14.3377 206.629 8.30981 197.71 8.30981ZM197.71 33.3484C191.838 33.3484 187.918 29.3985 187.918 23.26C187.918 17.1214 191.838 13.1686 197.71 13.1686C203.582 13.1686 207.508 17.1155 207.508 23.26C207.508 29.4045 203.493 33.3484 197.71 33.3484Z" fill="black"/>
<path d="M156.245 8.30983C152.136 8.30983 149.194 10.4926 147.908 12.4241H147.873C146.18 9.76 143.011 8.30983 139.303 8.30983C136.532 8.30487 133.871 9.39955 131.906 11.3537H131.861L131.009 8.66265H126.993V37.8753H132.16V17.4055C132.16 14.9058 134.579 13.1686 138.215 13.1686C142.045 13.1686 144.27 15.0673 144.27 18.165V37.8753H149.424V17.7374C149.424 15.0165 151.562 13.1686 155.357 13.1686C159.151 13.1686 161.411 15.1331 161.411 18.165V37.8753H166.566V17.8421C166.569 11.8441 162.267 8.30983 156.245 8.30983Z" fill="black"/>
<path d="M82.4533 21.8278L75.4536 19.9351C73.9945 19.5374 73.1722 19.1667 72.5981 18.6972C72.3249 18.4759 72.1069 18.194 71.9616 17.8737C71.8163 17.5535 71.7476 17.2038 71.7609 16.8524C71.7609 15.9046 72.1735 15.0404 73.1692 14.3378C74.2905 13.5454 75.7406 13.1687 78.2523 13.1687C81.3529 13.1687 84.3759 14.2122 87.0191 15.785L88.5828 11.264C86.0234 9.50589 82.226 8.30688 78.3121 8.30688C73.9676 8.30688 71.7878 9.06635 69.641 10.669C68.6753 11.3946 67.8902 12.3334 67.3467 13.4121C66.8032 14.4908 66.516 15.6804 66.5074 16.8883C66.5074 19.0202 67.0337 20.5421 68.1191 21.8188C69.1237 22.9969 70.6696 23.9477 73.3755 24.7012L80.6144 26.7225C81.9001 27.0843 82.6835 27.3743 83.2367 27.8019C83.5656 28.0434 83.829 28.3633 84.0029 28.7325C84.1768 29.1016 84.2557 29.5084 84.2323 29.9159C84.2323 30.9833 83.5895 31.8534 82.6805 32.4066C81.7715 32.9597 79.9237 33.3634 77.4868 33.3634C74.0154 33.3634 70.0387 31.9521 67.4672 30.4571L65.8975 34.9869C67.5659 36.183 72.5353 38.2072 77.5078 38.2072C81.4516 38.2072 84.2593 37.5285 86.3941 35.7494C88.3526 34.1168 89.4649 32.0806 89.4649 29.3418C89.4529 25.67 87.2134 23.1255 82.4533 21.8278Z" fill="black"/>
</g>
<defs>
<clipPath id="clip0_58_1276">
<rect width="212.66" height="45" fill="white" transform="translate(0 0.5)"/>
</clipPath>
</defs>
</svg>
