<svg width="486" height="422" viewBox="0 0 486 422" fill="none" xmlns="http://www.w3.org/2000/svg">
<path d="M277.533 421.414C392.668 421.414 486.002 327.478 486.002 211.602C486.002 95.7264 392.668 1.79053 277.533 1.79053C162.399 1.79053 69.0645 95.7264 69.0645 211.602C69.0645 327.478 162.399 421.414 277.533 421.414Z" fill="#E3AEB8"/>
<mask id="mask0_65_5212" style="mask-type:luminance" maskUnits="userSpaceOnUse" x="0" y="0" width="428" height="421">
<path d="M427.855 0.534302H0V420.981H427.855V0.534302Z" fill="white"/>
</mask>
<g mask="url(#mask0_65_5212)">
<path d="M101.117 114.3C101.117 114.3 94.3149 145.448 82.3145 160.828C70.3141 176.251 52.7251 206.75 46.5733 213.855C40.4215 220.96 24.6953 241.885 21.3161 245.004C17.937 248.08 36.4358 251.806 37.3455 251.459C38.2553 251.156 112.25 240.672 112.25 240.672L115.63 210.476L137.204 140.206C137.161 140.163 102.026 98.2701 101.117 114.3Z" fill="#FFFBFA"/>
</g>
<mask id="mask1_65_5212" style="mask-type:luminance" maskUnits="userSpaceOnUse" x="0" y="0" width="428" height="421">
<path d="M427.855 0.534302H0V420.981H427.855V0.534302Z" fill="white"/>
</mask>
<g mask="url(#mask1_65_5212)">
<path d="M318.165 201.421C318.165 201.421 318.598 242.101 315.695 248.253C312.793 254.405 297.89 316.789 297.543 321.512C297.197 326.234 289.182 367.26 302.265 394.857C315.349 422.453 334.194 442.772 337.833 448.577C341.473 454.382 359.625 485.618 342.209 532.45C324.793 579.281 260.892 663.847 260.892 663.847C260.892 663.847 274.322 665.32 282.294 664.93C290.265 664.584 324.403 660.944 329.862 662.374C335.321 663.847 341.473 663.457 351.653 675.804C361.834 688.151 363.654 691.79 367.25 693.22C370.889 694.693 401.388 701.928 410.442 712.108C419.497 722.289 420.623 727.705 428.594 731.344C436.566 734.983 439.858 737.885 437.302 747.33C437.302 747.33 439.122 753.482 433.663 756.774C433.663 756.774 436.566 763.662 432.19 768.385C432.19 768.385 429.634 779.259 424.912 779.995C424.912 779.995 423.829 790.176 421.273 793.425C418.717 796.674 415.121 807.938 407.843 799.23C407.843 799.23 404.594 791.259 403.467 786.147C403.467 786.147 389.691 762.926 376.954 758.55C376.954 758.55 352.996 745.12 349.747 744.037C346.498 742.954 289.139 717.914 279.694 711.372L223.072 707.733L205.656 728.441C205.656 728.441 197.684 740.442 197.684 741.525C197.684 741.525 200.587 758.204 201.324 759.677C202.06 761.15 215.1 788.356 228.53 803.606C241.96 818.855 259.376 831.549 268.82 854.423C278.265 877.298 328.346 982.918 328.346 982.918L356.679 1033.74L397.705 1100.89L415.511 1115.05C415.511 1115.05 448.566 1135.02 453.245 1144.47C457.967 1153.91 457.967 1180.04 457.967 1180.04C457.967 1180.04 465.939 1197.11 470.314 1203.26C474.69 1209.41 484.091 1228.3 481.578 1239.56C481.578 1239.56 480.842 1246.45 483.744 1253.73C486.647 1261.01 487.73 1267.5 481.188 1270.06C481.188 1270.06 475.036 1280.59 470.661 1276.95C470.661 1276.95 470.314 1284.92 463.383 1284.57C463.383 1284.57 455.411 1293.63 450.299 1289.3C450.299 1289.3 433.62 1305.98 427.078 1298.74C420.536 1291.51 431.064 1279.85 431.064 1279.85C431.064 1279.85 430.717 1257.71 428.508 1251.52C426.342 1245.37 415.424 1216.3 401.994 1197.06C388.564 1177.83 377.3 1152.79 377.3 1152.79L354.773 1124.84C354.773 1124.84 246.596 985.821 238.234 979.626C229.873 973.474 197.208 934.96 191.056 925.516C184.904 916.071 152.196 858.712 147.863 851.477C143.488 844.199 116.628 804.646 112.642 803.563C112.642 803.563 97.0458 789.786 90.8506 778.522C84.6988 767.258 88.2946 745.12 91.9337 737.149C95.5728 729.178 108.266 697.942 108.266 697.942C108.266 697.942 4.46516 687.068 -0.9935 689.971C-6.45216 692.873 -86.6858 684.512 -92.8376 683.819C-98.9895 683.082 -125.893 673.291 -125.893 673.291C-125.893 673.291 -149.114 662.417 -153.1 659.861C-157.085 657.305 -162.89 642.056 -165.793 624.293C-168.696 606.488 -167.959 591.628 -160.724 582.92C-153.446 574.213 -125.156 551.338 -109.907 544.06C-94.6572 536.782 -26.7705 515.727 -16.9796 514.644C-7.18864 513.561 89.8976 475.784 89.8976 475.784L144.744 463.437C144.744 463.437 118.837 442.468 126.852 424.619L146.564 361.758C146.564 361.758 124.382 264.369 134.867 257.567L104.931 248.6L104.021 231.66C104.021 231.66 89.2044 205.754 96.006 189.724C102.808 173.695 105.884 173.998 104.021 164.77C102.158 155.543 92.9301 95.4108 121.913 79.3814C150.896 63.352 171.214 69.5038 183.561 57.8067C195.908 46.1096 203.923 39.9145 202.06 10.3251C200.197 -19.2642 215.49 -14.4554 215.49 -14.4554L254.87 -28.0587L271.116 14.0076C271.116 14.0076 264.011 46.4995 266.178 55.9439C266.178 55.9439 269.86 73.8361 276.662 77.5185C276.662 77.5185 315.479 32.5063 322.281 15.2639C329.082 -1.9785 356.202 -41.4454 371.582 -55.6119C387.005 -69.7784 409.186 -55.0054 409.792 -49.4601C410.399 -43.9148 412.262 -58.0813 402.991 -21.7336C393.763 14.6574 359.841 106.501 359.841 106.501C359.841 106.501 322.757 181.06 318.165 201.421ZM133.48 599.686C133.48 599.686 98.0855 611.86 63.4274 611.123L126.029 632.741L133.48 599.686Z" fill="#FFFBFA"/>
</g>
<mask id="mask2_65_5212" style="mask-type:luminance" maskUnits="userSpaceOnUse" x="0" y="0" width="428" height="421">
<path d="M427.855 0.534302H0V420.981H427.855V0.534302Z" fill="white"/>
</mask>
<g mask="url(#mask2_65_5212)">
<path d="M273.201 12.318C273.201 12.318 272.854 12.8379 272.204 13.7476C271.858 14.2242 271.468 14.7874 270.991 15.4805C270.558 16.1737 269.951 16.9535 269.475 17.8633C268.955 18.8164 268.392 19.8128 267.785 20.9392C267.135 22.0223 266.616 23.3219 266.052 24.6649C265.446 26.0079 264.839 27.4376 264.406 28.9972C263.886 30.5568 263.366 32.1598 263.02 33.936C262.847 34.8024 262.63 35.7122 262.457 36.5787C262.283 37.4884 262.197 38.4415 262.067 39.3513C261.763 41.2575 261.72 43.207 261.72 45.1999C261.677 46.1963 261.72 47.1927 261.807 48.2325C261.893 49.2289 261.937 50.2686 262.067 51.3084C262.413 53.3445 262.673 55.424 263.28 57.4602C263.756 59.4963 264.536 61.4892 265.229 63.482C266.096 65.4315 266.962 67.3377 268.045 69.1573C268.565 70.0671 269.085 70.9768 269.735 71.8C270.341 72.6664 270.905 73.5329 271.554 74.3127C272.204 75.0925 272.854 75.9156 273.547 76.6521L275.67 78.7749C275.67 78.7749 275.41 78.2984 274.977 77.4752C274.76 77.042 274.457 76.5221 274.11 75.9156C273.807 75.2658 273.461 74.5726 273.071 73.7495C272.637 72.9697 272.248 72.0166 271.858 71.0202C271.424 70.0237 270.948 68.9407 270.558 67.7276C270.341 67.1211 270.125 66.5146 269.865 65.9081C269.692 65.2583 269.475 64.6084 269.258 63.9153C268.782 62.5723 268.478 61.0993 268.089 59.583C267.655 58.0667 267.482 56.4638 267.135 54.8175C266.919 53.1279 266.659 51.395 266.529 49.6188C266.399 47.7992 266.269 45.9364 266.312 44.0302C266.226 42.124 266.442 40.1311 266.572 38.095C266.616 37.0985 266.832 36.0588 266.919 35.0191C267.049 33.9793 267.135 32.9396 267.395 31.8998C267.829 29.8203 268.175 27.6542 268.782 25.5314C269.258 23.3653 270.038 21.1991 270.731 18.9897C271.424 16.7369 272.378 14.6141 273.201 12.318Z" fill="#3C3C3B"/>
</g>
<mask id="mask3_65_5212" style="mask-type:luminance" maskUnits="userSpaceOnUse" x="0" y="0" width="428" height="421">
<path d="M427.855 0.534302H0V420.981H427.855V0.534302Z" fill="white"/>
</mask>
<g mask="url(#mask3_65_5212)">
<path d="M319.47 206.447C319.47 206.447 318.127 217.538 314.532 236.123C312.755 245.394 310.503 256.615 307.6 269.178C306.127 275.46 304.524 282.132 302.661 288.977C301.708 292.399 300.668 295.908 299.499 299.374C298.892 301.15 298.242 302.927 297.636 304.703C297.029 306.522 296.293 308.342 295.773 310.248C293.347 317.786 291.571 325.801 290.444 334.162C289.318 342.524 288.885 351.231 289.361 360.069C289.838 368.907 291.267 377.918 293.823 386.756C296.379 395.594 300.105 404.215 305.087 412.23C310.026 420.244 316.048 427.436 321.983 434.541C324.972 438.093 327.918 441.602 330.734 445.242C332.164 447.104 333.464 448.794 334.547 450.744C335.11 451.697 335.673 452.693 336.15 453.689C336.67 454.686 337.146 455.682 337.579 456.765C339.399 460.924 340.915 465.213 342.172 469.589C343.428 473.964 344.511 478.383 345.247 482.846C346.027 487.308 346.59 491.77 346.677 496.276C346.807 500.738 346.634 505.243 345.681 509.619C345.681 509.619 345.811 509.056 346.114 507.973C346.244 507.41 346.417 506.76 346.634 505.937C346.764 505.113 346.937 504.16 347.11 503.077C347.327 501.994 347.37 500.781 347.5 499.438C347.674 498.095 347.674 496.622 347.717 495.019C347.804 491.813 347.63 488.131 347.24 483.972C346.287 475.697 344.554 465.603 340.135 454.556C338.966 451.827 337.709 448.967 335.89 446.238C334.114 443.509 332.164 440.996 330.171 438.353C326.142 433.068 321.723 427.696 317.391 421.934C315.225 419.031 313.102 416.042 311.066 412.88C310.589 412.1 310.069 411.277 309.593 410.497C309.116 409.674 308.683 408.851 308.207 408.027C307.297 406.338 306.257 404.735 305.521 402.959C302.055 396.027 299.369 388.359 297.506 380.214C293.737 363.968 293.347 345.773 296.596 327.317C296.813 326.148 296.986 325.021 297.203 323.852C297.463 322.682 297.722 321.555 297.982 320.386C298.242 319.216 298.502 318.09 298.762 316.92C299.066 315.75 299.412 314.624 299.715 313.454C300.019 312.284 300.322 311.115 300.668 309.988L301.795 306.522C302.575 304.14 303.311 301.8 304.091 299.418C306.907 289.713 308.986 279.792 310.936 269.612C312.842 259.474 314.532 249.12 316.048 238.636C317.434 227.935 318.777 217.278 319.47 206.447Z" fill="#3C3C3B"/>
</g>
<mask id="mask4_65_5212" style="mask-type:luminance" maskUnits="userSpaceOnUse" x="0" y="0" width="428" height="421">
<path d="M427.855 0.534302H0V420.981H427.855V0.534302Z" fill="white"/>
</mask>
<g mask="url(#mask4_65_5212)">
<path d="M178.092 392.474C178.092 392.474 178.612 408.936 183.031 421.327C183.031 421.327 182.814 407.723 178.092 392.474Z" fill="#3C3C3B"/>
</g>
<mask id="mask5_65_5212" style="mask-type:luminance" maskUnits="userSpaceOnUse" x="0" y="0" width="428" height="421">
<path d="M427.855 0.534302H0V420.981H427.855V0.534302Z" fill="white"/>
</mask>
<g mask="url(#mask5_65_5212)">
<path d="M171.7 273.424C171.7 273.424 171.31 277.02 170.833 283.215C170.4 289.367 169.837 298.118 170.443 308.385C170.747 313.498 171.44 318.999 172.696 324.631C173.952 330.263 175.815 335.852 176.985 341.571C179.281 353.008 177.981 365.355 177.245 376.922C177.245 376.922 177.938 374.019 178.935 368.691C179.411 366.048 179.974 362.799 180.364 358.943C180.754 355.131 181.014 350.712 180.624 345.86C180.451 343.433 180.104 340.877 179.541 338.278C179.021 335.679 178.328 333.036 177.592 330.35C176.119 324.978 174.819 319.346 173.996 313.281C172.306 301.151 172.133 287.547 171.7 273.424Z" fill="#3C3C3B"/>
</g>
<mask id="mask6_65_5212" style="mask-type:luminance" maskUnits="userSpaceOnUse" x="0" y="0" width="428" height="421">
<path d="M427.855 0.534302H0V420.981H427.855V0.534302Z" fill="white"/>
</mask>
<g mask="url(#mask6_65_5212)">
<path d="M264.059 92.2485C264.059 92.2485 267.871 88.0029 274.239 80.638C277.402 76.9556 281.171 72.4934 285.503 67.4246C289.792 62.3559 294.514 56.6806 299.583 50.4421C302.096 47.3229 304.652 44.0304 307.208 40.5646C309.721 37.0988 312.19 33.373 314.53 29.5173C316.912 25.6616 319.122 21.6759 321.331 17.6036C323.541 13.5313 325.707 9.41561 327.873 5.25664C330.039 1.09766 332.205 -3.06132 334.545 -7.17697C336.797 -11.2926 339.223 -15.3216 341.736 -19.264C344.336 -23.1197 346.978 -27.0187 349.968 -30.5279C352.87 -34.167 356.119 -37.4162 359.455 -40.5354C359.455 -40.5354 358.502 -39.8422 356.639 -38.5426C355.729 -37.8927 354.56 -37.1129 353.347 -36.0298C352.09 -34.9468 350.574 -33.8204 349.058 -32.3041C347.498 -30.8311 345.809 -29.1849 344.076 -27.2353C342.256 -25.3292 340.566 -23.1197 338.66 -20.7803C336.841 -18.3542 334.935 -15.7548 333.028 -12.8956C331.122 -10.0363 329.216 -7.00368 327.266 -3.75448C323.411 2.70059 319.468 9.93548 315.223 17.5169C313.1 21.3293 310.847 25.185 308.464 29.1274C306.038 33.0264 303.482 36.9688 300.666 40.9112C295.034 48.7959 288.839 56.9405 282.687 65.5617C276.536 74.1396 270.297 83.0641 264.059 92.2485Z" fill="#3C3C3B"/>
</g>
<mask id="mask7_65_5212" style="mask-type:luminance" maskUnits="userSpaceOnUse" x="0" y="0" width="428" height="421">
<path d="M427.855 0.534302H0V420.981H427.855V0.534302Z" fill="white"/>
</mask>
<g mask="url(#mask7_65_5212)">
<path d="M316.133 211.645C316.133 211.645 316.826 209.523 317.822 205.537C318.299 203.544 318.905 201.075 319.599 198.172C320.292 195.313 321.028 191.977 322.111 188.381C323.324 184.829 324.711 180.886 326.4 176.727C328.047 172.525 329.953 168.063 332.076 163.384C336.321 153.983 341.433 143.629 346.849 132.408C349.535 126.776 352.307 120.928 354.95 114.819C357.593 108.711 360.235 102.342 362.488 95.6706C364.741 89.1722 367.297 82.6305 369.94 75.9588C372.582 69.2871 375.312 62.5288 378.041 55.7271C380.727 48.8821 383.37 41.9939 385.926 35.0189L389.651 24.5348C390.821 20.9824 391.991 17.4732 393.074 13.9208C394.114 10.3683 395.24 6.81587 396.15 3.26341L397.536 -2.06527C397.926 -3.88482 398.316 -5.66105 398.706 -7.43728C399.139 -9.21351 399.399 -11.0331 399.702 -12.8526C399.962 -14.6722 400.352 -16.4484 400.439 -18.2679C400.569 -20.0875 400.742 -21.8637 400.829 -23.6399C400.742 -25.4162 400.699 -27.1924 400.612 -28.9686C400.612 -28.9686 400.525 -27.1491 400.309 -23.6833C400.092 -21.9504 399.659 -19.8709 399.269 -17.3582C398.706 -14.8888 398.056 -12.0295 397.19 -8.86693C396.236 -5.70437 395.283 -2.19524 393.984 1.57383C392.771 5.38622 391.254 9.41523 389.695 13.7908C388.048 18.1231 386.316 22.8019 384.323 27.6541C382.417 32.5495 380.25 37.6616 378.041 43.0769C373.579 53.8643 368.553 65.5614 363.441 78.2549C362.142 81.4175 360.885 84.71 359.672 88.0025C358.502 91.3383 357.333 94.7175 356.12 98.14C353.694 104.898 350.921 111.743 347.888 118.718C341.91 132.668 335.022 147.095 328.956 162.517C325.924 170.229 323.151 178.2 320.898 186.388C318.646 194.663 317.996 203.197 316.133 211.645Z" fill="#3C3C3B"/>
</g>
<mask id="mask8_65_5212" style="mask-type:luminance" maskUnits="userSpaceOnUse" x="0" y="0" width="428" height="421">
<path d="M427.855 0.534302H0V420.981H427.855V0.534302Z" fill="white"/>
</mask>
<g mask="url(#mask8_65_5212)">
<path d="M335.156 103.469C335.156 103.469 334.679 103.729 333.769 104.249C333.336 104.508 332.773 104.812 332.123 105.158C331.473 105.505 330.823 106.025 330 106.545C329.22 107.065 328.354 107.671 327.487 108.408C326.621 109.144 325.625 109.881 324.715 110.79C323.805 111.7 322.765 112.61 321.812 113.736C320.859 114.819 319.819 115.946 318.91 117.202C315.054 122.141 311.501 128.423 308.685 135.181C305.826 141.939 303.703 149.174 302.014 156.019C302.014 156.019 302.707 154.286 303.963 151.297C304.57 149.781 305.35 147.918 306.216 145.795C307.082 143.672 308.122 141.246 309.292 138.603C310.462 135.961 311.805 133.101 313.278 130.112C314.101 128.639 314.837 127.08 315.747 125.563C316.18 124.783 316.657 124.004 317.09 123.224C317.567 122.444 318.086 121.664 318.563 120.884C319.559 119.325 320.686 117.765 321.855 116.206C322.462 115.426 323.069 114.689 323.675 113.866C324.325 113.13 324.975 112.393 325.668 111.613C326.318 110.834 327.098 110.184 327.791 109.447C328.527 108.711 329.264 108.018 330.087 107.324C331.69 105.981 333.423 104.768 335.156 103.469Z" fill="#3C3C3B"/>
</g>
<mask id="mask9_65_5212" style="mask-type:luminance" maskUnits="userSpaceOnUse" x="0" y="0" width="428" height="421">
<path d="M427.855 0.534302H0V420.981H427.855V0.534302Z" fill="white"/>
</mask>
<g mask="url(#mask9_65_5212)">
<path d="M299.801 163.427C299.801 163.427 299.887 164.987 300.017 167.803C300.147 170.662 300.364 174.778 300.494 179.976C300.537 182.576 300.537 185.435 300.45 188.554C300.364 191.63 300.19 194.966 299.844 198.475C299.541 201.984 298.934 205.623 298.154 209.436C297.331 213.205 296.161 217.061 294.645 220.916C293.086 224.772 291.136 228.541 288.667 232.137C286.197 235.733 283.251 239.112 279.872 242.188C273.157 248.34 264.709 253.235 255.438 255.921C246.167 258.607 236.073 259.084 226.325 257.307C216.578 255.575 207.133 251.805 198.945 246.347C198.945 246.347 199.898 247.213 201.761 248.773C202.714 249.509 203.884 250.462 205.357 251.459C206.787 252.499 208.563 253.582 210.556 254.708C212.592 255.834 214.888 257.004 217.487 258.044C220.087 259.17 222.989 260.08 226.195 260.947C229.401 261.726 232.867 262.376 236.636 262.723C240.362 263.026 244.391 263.026 248.55 262.593C256.911 261.726 265.879 258.91 274.24 253.712C282.601 248.556 290.356 240.931 295.598 231.184C298.198 226.332 300.147 221.003 301.404 215.501C302.66 209.956 303.31 204.237 303.44 198.475C303.7 186.865 302.01 175.168 299.801 163.427Z" fill="#3C3C3B"/>
</g>
<mask id="mask10_65_5212" style="mask-type:luminance" maskUnits="userSpaceOnUse" x="0" y="0" width="428" height="421">
<path d="M427.855 0.534302H0V420.981H427.855V0.534302Z" fill="white"/>
</mask>
<g mask="url(#mask10_65_5212)">
<path d="M117.748 148.091C117.748 148.091 116.968 149.087 115.495 150.863C114.066 152.683 111.986 155.369 109.517 158.921C104.621 165.94 98.3396 176.424 93.0109 189.594C91.7112 192.886 90.4115 196.482 89.8483 200.468C89.2418 204.497 89.7184 208.743 90.8014 212.685C91.278 214.678 92.1011 216.584 92.8376 218.577C93.1842 219.573 93.7474 220.483 94.1806 221.436C94.6572 222.346 95.0904 223.342 95.6969 224.209C97.863 227.891 100.549 231.227 103.582 234.303C106.701 237.249 110.08 240.021 113.849 242.144C117.575 244.31 121.517 246.13 125.676 247.256C127.712 247.95 129.835 248.296 131.915 248.686C132.954 248.859 134.037 248.903 135.077 249.033C136.117 249.163 137.157 249.249 138.196 249.206C142.355 249.379 146.471 248.686 150.37 247.776C150.37 247.776 149.33 247.863 147.381 247.993C146.904 248.036 146.341 248.079 145.735 248.079C145.128 248.079 144.478 248.036 143.742 248.036C143.049 248.036 142.269 247.993 141.446 247.993C140.623 247.906 139.756 247.82 138.846 247.69C137.027 247.56 135.034 247.04 132.868 246.65C130.745 246.043 128.406 245.437 126.066 244.44C124.853 244.007 123.64 243.444 122.427 242.837C121.82 242.534 121.171 242.231 120.564 241.928C119.958 241.581 119.351 241.234 118.701 240.845C118.095 240.498 117.445 240.108 116.795 239.762C116.189 239.328 115.582 238.895 114.932 238.462C114.326 238.029 113.676 237.595 113.026 237.162C112.419 236.686 111.813 236.166 111.206 235.689C108.737 233.696 106.398 231.314 104.188 228.714C103.105 227.371 102.065 225.985 101.069 224.512C100.159 222.996 99.1194 221.523 98.3829 219.833C97.993 219.01 97.5598 218.187 97.1699 217.364C96.8233 216.497 96.52 215.631 96.1734 214.721C95.437 212.988 94.9604 211.125 94.5705 209.262C93.7474 205.493 93.7474 201.724 94.6572 197.739C95.5236 193.796 97.1265 189.681 98.6862 185.565C100.289 181.406 102.065 177.247 103.972 173.088C107.871 164.683 112.463 156.322 117.748 148.091Z" fill="#3C3C3B"/>
</g>
<mask id="mask11_65_5212" style="mask-type:luminance" maskUnits="userSpaceOnUse" x="0" y="0" width="428" height="421">
<path d="M427.855 0.534302H0V420.981H427.855V0.534302Z" fill="white"/>
</mask>
<g mask="url(#mask11_65_5212)">
<path d="M200.157 -4.36096C200.157 -4.36096 200.071 -3.62447 199.854 -2.23815C199.681 -0.851825 199.464 1.14102 199.291 3.69705C199.118 6.25309 199.031 9.329 198.901 12.7948C198.771 16.2606 198.641 20.1163 198.208 24.232C197.991 26.2681 197.688 28.391 197.255 30.5138C196.778 32.6366 196.258 34.7594 195.392 36.8389C194.612 38.9617 193.572 40.9978 192.446 43.034C191.276 45.0268 189.977 47.063 188.46 48.9259C182.568 56.464 174.38 62.7891 165.109 65.3885C165.109 65.3885 165.716 65.3018 166.886 65.1286C167.492 65.0419 168.185 64.9119 169.008 64.652C169.832 64.4354 170.828 64.1755 171.868 63.7855C172.951 63.439 174.077 62.9624 175.334 62.3992C176.547 61.7927 177.89 61.1429 179.233 60.2764C180.619 59.4533 182.005 58.4569 183.435 57.3738C184.128 56.8106 184.865 56.2041 185.558 55.5976C186.251 54.9477 186.987 54.2546 187.681 53.5614C188.374 52.8249 189.067 52.0884 189.803 51.3086C190.453 50.4855 191.146 49.6624 191.839 48.7959C193.139 47.0197 194.439 45.1568 195.522 43.034C196.692 40.9978 197.645 38.7017 198.468 36.319C199.248 33.8929 199.811 31.3802 200.157 28.7809C200.851 23.5821 200.851 18.1235 200.591 12.6215C200.417 7.11954 200.027 1.48759 200.157 -4.36096Z" fill="#3C3C3B"/>
</g>
<mask id="mask12_65_5212" style="mask-type:luminance" maskUnits="userSpaceOnUse" x="0" y="0" width="428" height="421">
<path d="M427.855 0.534302H0V420.981H427.855V0.534302Z" fill="white"/>
</mask>
<g mask="url(#mask12_65_5212)">
<path d="M163.466 64.7388C163.466 64.7388 163.336 64.8254 163.12 64.9554C162.903 65.0853 162.6 65.3453 162.123 65.5186C161.213 65.9951 159.827 66.4283 157.921 66.7316C156.058 67.0782 153.675 67.2082 150.946 67.3381C148.217 67.5114 145.011 67.3381 141.458 67.9446C139.725 68.3345 137.819 68.5512 135.956 69.201C135.003 69.5043 134.05 69.8075 133.054 70.1108C132.1 70.5007 131.147 70.8906 130.151 71.3238C126.209 73.0567 122.136 75.3528 118.324 78.472C114.468 81.5479 110.742 85.317 107.536 89.8226C104.374 94.3281 101.645 99.5268 99.825 105.245C99.6084 105.982 99.3485 106.675 99.1319 107.412C98.9586 108.148 98.7853 108.885 98.6553 109.664L98.1788 111.917C98.0488 112.697 97.9622 113.477 97.8755 114.257L97.6156 116.639C97.5289 117.419 97.5723 118.242 97.5289 119.022L97.4856 121.405C97.4423 122.228 97.4423 122.618 97.3557 123.311C96.8791 125.954 95.796 128.813 94.6263 131.629C93.37 134.445 92.0703 137.304 90.5973 140.12C84.7487 151.471 77.7738 162.951 70.5822 174.475C63.3473 185.999 55.7225 197.523 47.9678 208.83C40.213 220.137 32.3283 231.271 24.1836 241.668C24.1836 241.668 25.3533 240.412 27.6061 238.073C29.8155 235.69 33.0214 232.137 36.9638 227.415C44.8918 218.014 55.8958 204.064 68.2861 186.129C74.4379 177.161 81.023 167.197 87.4781 156.15C90.684 150.604 93.9332 144.842 96.8358 138.647C98.3088 135.528 99.6951 132.365 100.821 128.9C101.385 127.167 101.861 125.347 102.121 123.311L102.164 121.665V120.408V117.896C102.338 111.137 104.201 104.292 107.32 97.9239C108.836 94.6747 110.829 91.6855 112.952 88.7395C115.248 85.9235 117.674 83.1076 120.533 80.7248C123.263 78.2121 126.469 76.176 129.718 74.2698C133.097 72.5368 136.606 70.9339 140.332 70.0675C144.014 68.8977 147.957 68.8544 151.942 68.3345C153.935 68.1179 155.928 67.8147 157.921 67.3381C159.87 66.7749 161.863 66.0818 163.466 64.7388Z" fill="#3C3C3B"/>
</g>
<mask id="mask13_65_5212" style="mask-type:luminance" maskUnits="userSpaceOnUse" x="0" y="0" width="428" height="421">
<path d="M427.855 0.534302H0V420.981H427.855V0.534302Z" fill="white"/>
</mask>
<g mask="url(#mask13_65_5212)">
<path d="M116.283 100.783C116.283 100.783 117.453 103.989 119.706 108.971C120.832 111.44 122.262 114.386 123.908 117.549C124.731 119.108 125.641 120.755 126.594 122.444C127.071 123.267 127.59 124.134 128.067 125L128.847 126.3L129.237 126.95L128.803 127.556L127.937 128.813C127.374 129.679 126.811 130.545 126.291 131.412C125.251 133.188 124.298 135.051 123.475 136.957C121.829 140.77 120.659 144.799 120.096 148.698C120.096 148.698 120.312 148.134 120.702 147.051C121.092 145.968 121.742 144.452 122.608 142.503C123.475 140.596 124.601 138.3 126.074 135.788C126.811 134.531 127.634 133.231 128.544 131.845C128.977 131.152 129.453 130.502 129.973 129.809C130.623 128.943 131.316 128.033 132.009 127.08C129.67 123.224 127.114 118.978 124.341 114.429C121.872 110.184 119.186 105.678 116.283 100.783Z" fill="#3C3C3B"/>
</g>
<mask id="mask14_65_5212" style="mask-type:luminance" maskUnits="userSpaceOnUse" x="0" y="0" width="428" height="421">
<path d="M427.855 0.534302H0V420.981H427.855V0.534302Z" fill="white"/>
</mask>
<g mask="url(#mask14_65_5212)">
<path d="M135.641 80.1617C135.641 80.1617 136.074 80.205 136.81 80.2484C137.59 80.2917 138.673 80.3783 140.103 80.5516C141.489 80.6816 143.179 80.8982 145.085 81.1581C146.991 81.4181 149.071 81.7647 151.323 82.2412C155.829 83.151 160.898 84.4073 166.053 86.0536C171.209 87.6565 176.364 89.736 181.259 91.7722C181.259 91.7722 180.133 90.9924 178.01 89.736C176.97 89.0862 175.627 88.3497 174.068 87.5699C172.508 86.7901 170.689 85.9236 168.696 85.1005C166.66 84.2774 164.407 83.4976 161.938 82.7611C159.468 82.0679 156.825 81.4181 154.009 80.8982C148.334 79.9451 142.052 79.5552 135.641 80.1617Z" fill="#3C3C3B"/>
</g>
<mask id="mask15_65_5212" style="mask-type:luminance" maskUnits="userSpaceOnUse" x="0" y="0" width="428" height="421">
<path d="M427.855 0.534302H0V420.981H427.855V0.534302Z" fill="white"/>
</mask>
<g mask="url(#mask15_65_5212)">
<path d="M256.472 93.1145C256.472 93.1145 254.739 93.0712 251.793 93.2011C248.847 93.3311 244.732 93.591 239.923 94.3275C235.114 95.0207 229.699 96.1471 224.24 97.88C218.782 99.5262 213.323 101.779 208.471 104.378C208.471 104.378 209.9 103.945 212.283 103.209C214.709 102.472 218.262 101.432 222.594 100.263C231.258 97.88 243.216 95.194 256.472 93.1145Z" fill="#3C3C3B"/>
</g>
<mask id="mask16_65_5212" style="mask-type:luminance" maskUnits="userSpaceOnUse" x="0" y="0" width="428" height="421">
<path d="M427.855 0.534302H0V420.981H427.855V0.534302Z" fill="white"/>
</mask>
<g mask="url(#mask16_65_5212)">
<path d="M202.8 136.697C202.8 136.697 202.237 137.39 201.241 138.647C200.244 139.946 198.771 141.852 197.082 144.322C193.702 149.304 189.154 156.625 185.601 166.026C184.691 168.366 183.912 170.835 183.175 173.435C182.482 176.034 181.832 178.72 181.399 181.493C180.922 184.265 180.619 187.125 180.446 190.071C180.272 192.973 180.359 195.962 180.576 198.908C180.836 201.898 181.226 204.844 181.919 207.789C182.569 210.735 183.392 213.638 184.475 216.411C185.514 219.227 186.814 221.869 188.287 224.425C189.717 226.981 191.493 229.278 193.269 231.487C193.269 231.487 192.923 230.837 192.273 229.624C191.926 229.018 191.58 228.238 191.146 227.328C190.713 226.418 190.237 225.378 189.76 224.165C189.24 222.996 188.807 221.609 188.244 220.136C187.767 218.62 187.247 217.017 186.814 215.284C186.554 214.418 186.381 213.508 186.164 212.555C185.948 211.602 185.731 210.649 185.601 209.652C185.428 208.656 185.255 207.616 185.125 206.533C184.951 205.45 184.821 204.367 184.735 203.241C183.868 194.273 184.518 183.485 187.594 172.048C190.627 160.654 195.912 148.611 202.8 136.697Z" fill="#3C3C3B"/>
</g>
<mask id="mask17_65_5212" style="mask-type:luminance" maskUnits="userSpaceOnUse" x="0" y="0" width="428" height="421">
<path d="M427.855 0.534302H0V420.981H427.855V0.534302Z" fill="white"/>
</mask>
<g mask="url(#mask17_65_5212)">
<path d="M159.033 247.17C159.033 247.17 159.77 247.387 161.113 247.56C162.412 247.733 164.275 247.863 166.441 247.733C168.608 247.56 171.077 247.127 173.46 246.217C175.842 245.307 178.139 243.964 179.958 242.188C179.958 242.188 179.308 242.318 178.225 242.534C177.012 242.794 175.409 243.184 173.676 243.574C169.864 244.441 164.882 245.61 159.033 247.17Z" fill="#563E3D"/>
</g>
<mask id="mask18_65_5212" style="mask-type:luminance" maskUnits="userSpaceOnUse" x="0" y="0" width="428" height="421">
<path d="M427.855 0.534302H0V420.981H427.855V0.534302Z" fill="white"/>
</mask>
<g mask="url(#mask18_65_5212)">
<path d="M148.773 -98.4147C148.773 -98.4147 137.075 -99.7144 136.296 -82.9486C135.559 -66.1827 145.61 -52.5794 164.672 -55.5253C164.672 -55.5253 172.99 -16.8382 182.131 -7.43721C191.272 1.96379 221.511 26.7877 226.19 27.3509C230.869 27.9574 236.371 29.4737 243.606 26.961C250.841 24.4483 271.679 12.1879 273.845 10.5417C276.011 8.89543 291.001 -4.31799 296.46 -11.9428C301.962 -19.5676 312.402 -45.4745 312.402 -45.4745C312.402 -45.4745 321.067 -42.2686 330.555 -48.2038C340.086 -54.0957 342.988 -63.0635 343.075 -64.8397C343.205 -66.6159 345.328 -81.8222 338.743 -85.158C332.158 -88.5372 329.428 -96.6385 329.428 -96.6385L279.694 -178.518L180.528 -148.972L159.04 -107.209L148.773 -98.4147Z" fill="#FFFBFA"/>
<path d="M158.66 -77.7068C158.66 -77.7068 159.093 -75.8872 159.873 -72.5081C160.653 -69.1289 161.779 -64.1901 163.079 -57.9517C164.379 -51.7132 166.025 -44.1751 168.234 -35.6838C169.361 -31.4382 170.661 -26.976 172.393 -22.3838C174.126 -17.7916 176.336 -13.0694 179.498 -8.65051C182.618 -4.31824 186.213 -0.0726166 190.502 3.7831C194.878 7.46552 199.21 11.018 203.802 14.787C208.351 18.5128 213.117 22.1952 218.099 25.7044L219.962 27.0474C220.698 27.5672 221.435 27.9571 222.215 28.3037C223.731 28.9969 225.247 29.5167 226.763 29.95C228.323 30.3832 229.709 30.8164 231.486 31.1197C233.175 31.3796 234.908 31.3363 236.598 31.1197C239.934 30.6431 242.923 29.4734 245.869 28.3904C248.815 27.264 251.717 26.0076 254.577 24.6646C260.295 21.9353 265.754 18.6861 270.866 15.047C281.133 7.76878 289.971 -1.19901 296.99 -10.9033C296.99 -10.9033 295.95 -9.73356 294 -7.52411C292.961 -6.48437 291.791 -5.09804 290.275 -3.58175C288.802 -2.06545 286.982 -0.37587 284.946 1.53033C282.866 3.34988 280.527 5.38604 277.884 7.4222C275.242 9.45837 272.296 11.5812 269.003 13.704C265.711 15.7835 262.115 17.9063 258.172 19.8125C254.23 21.762 249.984 23.6249 245.392 25.2711C240.8 26.8307 235.948 28.7369 231.269 27.6539C228.8 27.0474 226.157 26.2675 223.861 25.2278C223.298 24.9679 222.734 24.6646 222.258 24.3614C221.781 24.0581 221.131 23.5816 220.612 23.1916C219.485 22.3685 218.316 21.5454 217.189 20.6789C212.597 17.2998 207.961 13.6173 203.239 9.76163C200.856 7.85543 198.474 5.86259 196.004 3.91306C193.535 1.96355 191.239 0.0140305 189.029 -2.28207C186.82 -4.53485 184.74 -6.91759 182.791 -9.47363C180.711 -12.0297 178.978 -14.7157 177.506 -17.6616C174.516 -23.5102 172.263 -29.9219 170.271 -36.507C168.278 -43.1353 166.415 -49.937 164.595 -56.8253C162.776 -63.7569 160.826 -70.7318 158.66 -77.7068Z" fill="#3C3C3B"/>
<path d="M322.926 -71.5115C322.926 -71.5115 317.727 -60.1176 310.926 -44.0016C309.236 -39.9726 307.46 -35.6403 305.554 -31.1348C303.734 -26.6292 301.741 -21.9937 299.402 -17.4448C297.062 -12.8959 294.42 -8.43371 291.127 -4.53468C287.791 -0.592316 284.152 3.04679 280.34 6.25267C280.34 6.25267 280.86 5.86276 281.856 5.1696C282.853 4.43311 284.282 3.35004 286.058 1.83376C287.835 0.317467 289.914 -1.58874 292.167 -4.0148C294.42 -6.44087 296.672 -9.47345 298.839 -13.0259C301.005 -16.5784 303.041 -20.6074 304.99 -25.0263C306.94 -29.4452 308.76 -34.2107 310.752 -39.1928C314.695 -49.157 318.854 -60.0743 322.926 -71.5115Z" fill="#563E3D"/>
</g>
<mask id="mask19_65_5212" style="mask-type:luminance" maskUnits="userSpaceOnUse" x="0" y="0" width="428" height="421">
<path d="M427.855 0.534302H0V420.981H427.855V0.534302Z" fill="white"/>
</mask>
<g mask="url(#mask19_65_5212)">
<path d="M52.0655 231.314C53.2785 232.051 52.6287 231.401 52.9319 231.444C77.6692 230.794 79.4888 228.932 154.307 235.517C164.748 236.426 175.015 233.22 183.94 228.152L184.07 228.368C196.677 221.133 206.598 214.245 218.858 206.317C224.88 202.548 230.338 199.429 237.227 197.783C240.606 196.829 250.267 189.421 250.57 194.837C250.743 197.609 242.382 202.981 240.996 203.848C240.303 204.021 241.819 203.718 241.819 203.761L241.862 203.891C249.487 200.469 257.112 196.223 265.083 195.097C271.148 194.273 276.78 192.714 282.412 191.111C284.665 190.461 287.871 188.642 289.387 190.721C289.474 190.808 289.517 190.938 289.561 191.024C290.86 193.537 287.351 196.266 284.925 197.783C286.268 197.219 287.871 196.916 289.214 196.44C290.687 195.876 292.593 194.923 294.283 194.707C295.193 194.577 295.842 194.967 296.189 195.573C296.795 196.613 296.665 198.302 296.102 199.342C295.106 201.205 293.676 202.765 291.857 203.891C290.47 204.758 288.521 205.581 287.005 206.144C288.694 205.884 292.42 205.191 293.373 206.101C293.46 206.187 293.503 206.274 293.546 206.404C295.366 211.906 287.394 215.025 283.712 217.104C273.618 222.823 263.307 226.029 253.256 231.748C258.282 230.664 270.629 228.108 274.658 231.834C272.101 238.852 251.74 240.932 245.025 244.094C238.093 247.387 231.595 252.066 225.01 255.445C216.562 259.647 208.157 260.687 199.103 261.553V261.51C197.586 261.64 194.121 260.99 192.041 260.86C182.64 259.821 174.669 261.597 165.051 263.633C132.299 270.521 102.233 278.969 68.918 282.262C57.8274 283.042 48.383 283.172 41.4947 279.922C38.2022 265.279 34.5631 250.636 30.6641 236.773C36.8592 233.524 46.0869 227.805 52.0655 231.314Z" fill="#FFFBFA"/>
<path d="M41.673 280.182C39.7235 279.142 36.8209 277.15 34.5248 275.677C29.1961 272.341 18.1055 264.889 16.5892 257.914C15.0296 250.03 22.6111 241.322 29.1528 237.553C29.1961 237.509 29.2394 237.509 29.2394 237.509C29.6727 237.293 30.1059 237.033 30.5391 236.816C34.4815 250.723 38.3805 265.539 41.673 280.182Z" fill="#FFFBFA"/>
<path d="M251.52 232.138C251.52 232.138 251.217 232.571 250.394 232.788C249.614 233.048 248.444 233.048 247.058 233.134C244.242 233.308 240.993 234.737 238.047 235.691C238.047 235.691 239.693 235.517 242.119 234.824C243.376 234.477 244.805 234.044 246.408 233.741C247.188 233.568 248.098 233.568 249.008 233.394C249.917 233.178 250.957 232.961 251.52 232.138Z" fill="#FFFBFA"/>
<path d="M242.648 224.383C242.648 224.383 242.259 224.643 241.565 224.859C240.872 225.076 239.789 225.076 238.533 225.293C237.233 225.466 235.89 226.116 234.677 226.939C233.464 227.762 232.338 228.759 231.168 229.582C231.168 229.582 231.515 229.408 232.078 229.105C232.641 228.802 233.464 228.282 234.417 227.632C235.414 227.026 236.54 226.289 237.97 225.856C238.663 225.639 239.443 225.553 240.266 225.379C241.132 225.249 241.999 224.946 242.648 224.383Z" fill="#FFFBFA"/>
<path d="M238.743 214.765C238.743 214.765 238.397 215.068 237.747 215.285C237.097 215.545 236.057 215.632 234.887 215.848C233.674 216.065 232.375 216.628 231.205 217.408C229.992 218.188 228.909 219.141 227.869 220.051C227.869 220.051 228.216 219.834 228.692 219.531C229.342 219.097 230.165 218.578 230.945 218.101C231.898 217.538 233.025 216.845 234.368 216.455C235.061 216.238 235.797 216.151 236.577 215.935C237.357 215.675 238.137 215.372 238.743 214.765Z" fill="#FFFBFA"/>
<path d="M228.359 208.136C228.359 208.136 227.969 208.613 227.016 208.959C226.539 209.133 225.976 209.306 225.326 209.523C224.676 209.739 223.896 209.912 223.117 210.346C221.644 211.126 220.041 212.209 218.524 213.465C217.008 214.721 215.535 216.064 214.105 217.321C214.105 217.321 215.838 216.324 218.308 214.461C219.564 213.552 221.037 212.425 222.727 211.342C223.16 211.082 223.593 210.779 224.026 210.562C224.503 210.346 224.979 210.129 225.499 209.956C226.452 209.523 227.622 209.089 228.359 208.136Z" fill="#FFFBFA"/>
<path d="M184.5 228.022C184.5 228.022 187.446 226.506 192.255 223.69C197.107 220.874 203.735 216.541 211.447 211.516C215.346 209.047 219.418 206.274 223.88 203.891C226.133 202.721 228.473 201.638 230.942 200.729C232.155 200.295 233.411 199.862 234.711 199.516C235.361 199.299 235.967 199.212 236.704 198.952C237.44 198.692 238.004 198.346 238.61 197.999C240.993 196.656 243.246 195.097 245.672 194.057C246.841 193.537 248.228 193.147 249.181 193.58C249.614 193.797 249.917 194.274 250.091 194.88C250.264 195.313 250.004 195.876 249.657 196.44C248.184 198.563 245.888 200.209 243.765 201.812C242.682 202.592 241.599 203.371 240.473 204.108L238.783 205.191L237.96 205.711C237.7 205.884 237.917 205.711 238.047 205.624L238.48 205.364C238.48 205.364 238.35 205.451 238.047 205.581C237.96 205.624 237.874 205.667 237.787 205.711C237.83 205.754 237.657 205.711 237.83 205.841H237.874L237.96 205.797L238.134 205.711C238.35 205.581 238.61 205.451 238.87 205.321C239.996 204.714 241.643 203.761 243.722 202.462C244.762 201.812 245.888 201.032 247.058 200.122C248.228 199.169 249.527 198.216 250.567 196.656C250.784 196.266 251.044 195.79 251.044 195.183C251 194.577 250.827 194.187 250.567 193.667C250.307 193.19 249.831 192.757 249.267 192.584C248.704 192.367 248.141 192.367 247.621 192.411C245.498 192.714 243.636 193.754 241.729 194.75C240.776 195.27 239.823 195.833 238.87 196.396C237.917 196.916 236.877 197.523 235.924 197.826C233.628 198.346 231.245 199.126 228.862 200.035C226.48 200.989 224.097 202.158 221.758 203.458C219.375 204.801 217.079 206.317 214.739 207.834C205.295 214.029 195.417 221.437 184.5 228.022Z" fill="#3C3C3B"/>
<path d="M229.77 207.964C229.77 207.964 230.419 207.834 231.589 207.661C232.196 207.574 232.889 207.358 233.712 207.184C234.535 207.011 235.488 206.664 236.528 206.361C238.607 205.668 241.077 204.715 243.806 203.545C246.535 202.375 249.568 200.946 252.861 199.603C254.507 198.91 256.24 198.26 258.016 197.653C259.792 197.047 261.655 196.527 263.561 196.18C265.467 195.834 267.547 195.574 269.583 195.184C271.619 194.794 273.699 194.274 275.735 193.754C277.771 193.234 279.851 192.628 281.887 192.021C284.01 191.501 285.959 190.245 287.779 190.375C288.645 190.418 289.338 191.198 289.468 192.108C289.555 193.018 289.078 193.971 288.428 194.751C287.129 196.354 285.439 197.567 283.706 198.693C283.706 198.693 284.183 198.476 285.049 197.957C285.916 197.437 287.215 196.7 288.602 195.314C289.252 194.621 290.075 193.754 290.161 192.411C290.248 191.761 289.988 191.068 289.555 190.462C289.122 189.855 288.342 189.509 287.562 189.422C286.046 189.335 284.616 189.899 283.186 190.375C281.8 190.808 280.197 191.155 278.594 191.588C275.345 192.411 271.793 193.278 267.98 193.971C266.074 194.317 264.038 194.534 261.958 195.011C259.879 195.444 257.799 196.18 255.72 196.96C251.604 198.563 247.489 200.686 243.243 202.765C239.084 204.802 234.622 206.838 229.77 207.964Z" fill="#3C3C3B"/>
<path d="M286.577 206.231C286.577 206.231 287.097 206.188 287.963 206.058C288.873 205.971 290.216 205.754 291.862 205.884C292.252 205.928 292.729 206.014 293.032 206.231C293.335 206.404 293.335 206.924 293.422 207.401C293.509 208.354 293.292 209.393 292.729 210.303C291.559 212.166 289.35 213.552 286.924 214.852C285.711 215.502 284.411 216.108 283.111 216.845C281.812 217.538 280.469 218.231 279.126 218.924C276.353 220.311 273.45 221.654 270.461 222.997C264.526 225.683 258.331 228.499 253.002 231.921C253.002 231.921 254.475 231.185 257.118 229.928C259.76 228.672 263.659 227.026 268.468 225.033C270.851 224.037 273.494 222.91 276.266 221.61C277.653 220.961 279.082 220.267 280.512 219.531C281.942 218.794 283.414 217.928 284.887 217.148C286.36 216.325 287.92 215.545 289.436 214.549C290.909 213.552 292.469 212.383 293.379 210.65C293.812 209.783 294.115 208.787 293.985 207.791C293.985 207.271 293.812 206.837 293.639 206.318C293.292 205.711 292.686 205.668 292.209 205.581C290.303 205.364 288.44 205.884 286.577 206.231Z" fill="#3C3C3B"/>
<path d="M252.657 231.877C252.657 231.877 253.567 231.704 255.213 231.401C256.903 231.098 259.329 230.708 262.405 230.448C263.965 230.318 265.654 230.231 267.517 230.318C269.337 230.404 271.373 230.621 273.149 231.531C273.366 231.617 273.582 231.791 273.755 231.921C273.799 232.007 274.015 232.007 273.885 232.137C273.842 232.224 273.799 232.311 273.625 232.571C273.496 232.787 273.322 233.004 273.149 233.177C272.456 233.957 271.546 234.607 270.593 235.213C268.6 236.383 266.304 237.206 263.878 237.986C259.026 239.546 253.654 240.585 248.065 242.188C246.679 242.578 245.249 243.098 243.906 243.791C242.563 244.441 241.263 245.134 239.964 245.871C237.364 247.344 234.808 248.903 232.252 250.506C229.696 252.066 227.097 253.669 224.454 255.098C221.768 256.441 218.952 257.611 216.093 258.434C210.331 260.21 204.309 260.99 198.504 261.77C198.504 261.77 199.284 261.727 200.713 261.64C202.143 261.553 204.266 261.38 206.952 261.077C209.638 260.774 212.974 260.297 216.699 259.301C218.562 258.781 220.555 258.131 222.591 257.308C224.628 256.485 226.707 255.402 228.83 254.232C233.032 251.892 237.451 248.99 242.39 246.39C243.603 245.784 244.903 245.047 246.159 244.571C247.459 244.051 248.845 243.661 250.275 243.271C253.177 242.491 256.123 241.712 259.156 240.932C262.188 240.109 265.308 239.156 268.383 237.813C269.9 237.119 271.416 236.34 272.802 235.213C273.496 234.65 274.102 234 274.579 233.177L274.752 232.874L274.969 232.397L275.185 231.921C275.272 231.747 274.968 231.704 274.839 231.574C274.145 231.098 273.972 230.924 273.496 230.708C271.849 229.928 270.073 229.755 268.297 229.668C266.564 229.581 264.788 229.755 263.055 229.928C259.589 230.231 256.123 231.011 252.657 231.877Z" fill="#3C3C3B"/>
<path d="M252.083 232.051C252.083 232.051 251.953 232.051 251.737 232.094C251.52 232.138 251.173 232.268 250.783 232.354C250.393 232.484 249.874 232.484 249.267 232.528C248.617 232.571 247.967 232.614 247.318 232.701C246.624 232.701 245.801 232.788 245.021 233.047C244.242 233.264 243.505 233.697 242.725 234.001C241.209 234.65 239.563 235.257 238.09 235.863C238.09 235.863 239.736 235.56 242.292 234.65C243.592 234.26 244.935 233.307 246.624 233.177C247.491 233.134 248.401 232.961 249.31 232.831C249.787 232.744 250.264 232.744 250.74 232.571C251.173 232.398 251.607 232.181 252.083 232.051Z" fill="#3C3C3B"/>
<path d="M284.394 206.708C284.394 206.708 282.965 207.097 280.625 207.921C278.243 208.744 274.95 210.043 271.138 211.603C269.231 212.383 267.195 213.249 265.072 214.116C262.906 214.982 260.784 216.065 258.617 217.235C254.328 219.531 250.039 222.087 245.447 223.257C245.447 223.257 245.751 223.213 246.314 223.083C246.877 222.954 247.7 222.78 248.783 222.434C250.906 221.827 253.809 220.527 257.231 218.795C258.964 217.928 260.827 216.932 262.863 215.979C264.899 215.025 267.152 214.159 269.448 213.119C274.084 211.17 279.066 208.787 284.394 206.708Z" fill="#3C3C3B"/>
<path d="M242.995 224.036C242.995 224.036 242.605 224.253 241.825 224.426C241.089 224.599 240.006 224.599 238.706 224.816C237.406 225.033 236.063 225.682 234.807 226.506C233.551 227.329 232.338 228.282 231.168 229.105C231.168 229.105 231.515 228.932 232.078 228.628C232.684 228.282 233.507 227.762 234.504 227.155C235.5 226.549 236.713 225.769 238.143 225.336C239.573 224.859 241.435 225.033 242.995 224.036Z" fill="#3C3C3B"/>
<path d="M282.857 199.039C282.857 199.039 281.427 199.689 278.958 200.469C276.488 201.292 272.892 202.158 268.69 202.982C266.611 203.415 264.271 203.805 261.975 204.541C259.679 205.234 257.296 206.187 255 207.227C250.365 209.307 245.772 211.819 241.354 213.899C241.354 213.899 242.567 213.466 244.689 212.599C246.812 211.733 249.801 210.39 253.484 208.743C257.166 207.141 261.585 205.278 266.697 204.195C271.766 203.068 277.485 201.812 282.857 199.039Z" fill="#3C3C3B"/>
<path d="M239.398 214.332C239.398 214.332 239.051 214.635 238.358 214.852C237.665 215.112 236.625 215.112 235.369 215.328C234.156 215.545 232.813 216.108 231.556 216.888C230.3 217.668 229.174 218.577 228.004 219.357C228.004 219.357 229.304 218.707 231.253 217.494C232.25 216.931 233.419 216.238 234.806 215.848C235.499 215.631 236.279 215.501 237.058 215.372C237.925 215.155 238.791 214.938 239.398 214.332Z" fill="#3C3C3B"/>
<path d="M284.281 198.172C284.281 198.172 285.191 197.739 286.837 197.393C287.66 197.219 288.657 197.046 289.783 196.656C290.866 196.266 292.079 195.79 293.336 195.486C293.986 195.356 294.679 195.183 295.112 195.4C295.545 195.573 295.848 196.093 295.935 196.743C296.022 197.393 295.935 198.129 295.718 198.736C295.459 199.342 295.025 200.079 294.592 200.685C293.682 201.942 292.513 203.025 291.126 203.891C289.783 204.757 288.31 205.494 286.881 206.187C286.881 206.187 287.66 206.014 289.09 205.494C290.433 204.974 292.556 204.238 294.549 202.331C295.025 201.855 295.502 201.335 295.935 200.728C296.325 200.122 296.802 199.472 297.018 198.606C297.235 197.783 297.278 196.873 297.018 195.963C296.888 195.53 296.628 195.01 296.195 194.663C295.762 194.273 295.199 194.143 294.679 194.143C293.682 194.187 292.859 194.49 291.993 194.837C291.17 195.183 290.346 195.573 289.523 195.963C287.92 196.786 285.928 197.089 284.281 198.172Z" fill="#3C3C3B"/>
<path d="M189.697 225.033C189.697 225.033 189.393 225.206 188.83 225.552C188.267 225.899 187.444 226.376 186.318 226.982C184.108 228.195 180.816 229.798 176.483 231.271C172.108 232.701 166.692 233.827 160.454 234.39C157.335 234.65 153.999 234.867 150.533 234.953C147.067 234.997 143.428 234.867 139.659 234.65C124.583 233.784 107.427 231.054 89.578 229.755C80.6535 229.148 71.5124 228.932 62.458 229.885C53.4902 230.881 44.479 233.134 37.2441 237.986C37.2441 237.986 38.2406 237.466 40.1034 236.513C41.0999 236.123 42.2696 235.517 43.6992 235.04C44.4357 234.78 45.2155 234.477 46.0386 234.217C46.9051 233.957 47.8149 233.697 48.768 233.437C50.7175 232.961 52.8836 232.484 55.2664 232.138C56.4794 231.964 57.7358 231.834 59.0355 231.661C60.3351 231.574 61.6781 231.401 63.1078 231.314C65.9238 231.141 68.9564 231.054 72.1189 231.098C75.3248 231.098 78.704 231.228 82.2131 231.444C89.2747 231.878 96.9861 232.657 105.261 233.567C113.535 234.477 122.33 235.56 131.601 236.253C136.237 236.6 141.002 236.86 145.897 236.816C150.793 236.816 155.732 236.47 160.757 235.82C165.739 235.17 170.851 234.174 175.747 232.397C180.729 230.578 185.364 228.065 189.697 225.033Z" fill="#3C3C3B"/>
<path d="M229.214 207.877C229.214 207.877 228.651 208.181 227.568 208.441C227.005 208.57 226.355 208.7 225.618 208.874C224.882 209.047 224.059 209.394 223.236 209.784C219.9 211.43 216.477 214.766 213.531 217.625C213.531 217.625 215.307 216.369 217.907 214.202C219.25 213.119 220.809 211.863 222.672 210.693C223.625 210.13 224.622 209.567 225.748 209.22C226.875 208.83 228.131 208.57 229.214 207.877Z" fill="#3C3C3B"/>
<path d="M200.796 261.51C200.796 261.51 200.45 261.51 199.843 261.554C199.193 261.554 198.24 261.64 197.027 261.467C196.421 261.38 195.771 261.25 194.991 261.12C194.255 261.034 193.432 260.947 192.565 260.817C190.832 260.6 188.796 260.427 186.543 260.384C182.038 260.254 176.536 260.73 170.471 261.9C164.405 263.026 157.647 264.456 150.455 266.189C143.264 267.922 135.552 269.785 127.494 271.734C123.465 272.687 119.393 273.641 115.234 274.55C111.075 275.46 106.829 276.37 102.584 277.15C100.461 277.583 98.2949 277.973 96.1288 278.319C93.9626 278.666 91.7965 279.099 89.6304 279.359C87.4642 279.662 85.2981 280.009 83.1319 280.269L76.5902 281.049C72.2146 281.439 67.8824 281.915 63.5501 282.088C59.2178 282.392 54.9289 282.435 50.7266 282.565C50.7266 282.565 51.8096 282.608 53.8891 282.695C54.9289 282.738 56.2285 282.782 57.7448 282.825C59.2611 282.912 60.994 282.868 62.9869 282.868C64.9364 282.825 67.1459 282.912 69.5286 282.782C71.9114 282.652 74.5107 282.608 77.2834 282.392C80.056 282.132 83.0453 282.002 86.1645 281.612C89.2838 281.265 92.5763 280.875 96.0421 280.356C99.5079 279.879 103.104 279.229 106.829 278.579C110.555 277.843 114.411 277.106 118.397 276.197C126.368 274.464 134.773 272.341 143.524 270.045C152.318 267.749 161.459 265.366 170.99 263.243C175.756 262.203 180.651 261.38 185.633 261.207C188.146 261.12 190.659 261.164 193.172 261.38C194.471 261.424 195.684 261.554 196.984 261.77C198.24 261.813 199.497 261.64 200.796 261.51Z" fill="#3C3C3B"/>
<path d="M23.2644 242.232C23.2644 242.232 22.7445 242.665 21.7914 243.488C21.3582 243.922 20.7516 244.442 20.1884 245.135C19.5819 245.785 18.9321 246.608 18.2822 247.561C17.6324 248.514 17.0259 249.64 16.5493 250.94C16.3327 251.59 16.0728 252.283 15.9861 253.019C15.8129 253.756 15.7695 254.536 15.7695 255.359C15.8129 256.139 15.8129 257.005 16.0295 257.828C16.1594 258.695 16.4627 259.474 16.766 260.341C17.1559 261.164 17.5024 261.987 18.0223 262.724C18.4555 263.547 19.1054 264.24 19.6686 264.976L20.1451 264.587C19.8419 264.89 19.6253 265.15 19.7119 265.063L19.7552 265.106L19.7985 265.193L19.9718 265.41L20.3184 265.843L21.0549 266.753C21.5315 267.359 22.0513 267.922 22.6145 268.486C23.6976 269.612 24.8673 270.695 26.1237 271.735C27.38 272.775 28.6797 273.728 30.066 274.681C31.4524 275.591 32.882 276.457 34.3983 277.193C35.1348 277.627 35.9146 277.93 36.6511 278.276C37.4309 278.623 38.1674 278.97 38.9905 279.273L41.3299 280.139C42.1097 280.399 42.9329 280.616 43.7127 280.833C45.3156 281.352 46.9619 281.569 48.5215 281.916C49.3013 282.089 50.1244 282.132 50.9476 282.262C51.7274 282.349 52.5505 282.435 53.3303 282.522C53.3303 282.522 52.3339 282.262 50.5577 281.786C49.6479 281.569 48.5648 281.266 47.3085 280.833C46.0088 280.486 44.5791 279.966 43.0195 279.316C42.2397 279.056 41.4166 278.666 40.5501 278.276C39.727 277.887 38.8172 277.54 37.9074 277.063C37.041 276.587 36.0879 276.154 35.1348 275.591C34.225 275.027 33.2286 274.507 32.2755 273.858C31.3224 273.251 30.3693 272.558 29.3729 271.821C28.4198 271.085 27.4233 270.305 26.5136 269.482C25.5605 268.659 24.6074 267.749 23.6976 266.796C23.221 266.319 22.7878 265.843 22.3546 265.323C21.878 264.76 21.4448 264.197 20.9683 263.633L21.0116 263.677L20.1018 262.594C19.7985 262.247 19.5386 261.814 19.2787 261.424C18.9754 261.034 18.7588 260.644 18.5422 260.211C18.3256 259.778 18.109 259.388 17.9357 258.911C17.7624 258.478 17.5891 258.002 17.4591 257.568C17.3292 257.092 17.1992 256.615 17.1559 256.139C17.0692 255.662 17.0259 255.186 17.0259 254.666C16.9826 254.189 17.0692 253.669 17.1125 253.193C17.1125 252.673 17.2858 252.196 17.3725 251.676C17.4591 251.157 17.6757 250.68 17.8057 250.203C18.1523 249.207 18.6288 248.254 19.1487 247.344C19.7119 246.434 20.3184 245.525 20.9683 244.658C21.7481 243.878 22.4846 243.055 23.2644 242.232Z" fill="#3C3C3B"/>
<path d="M41.1445 280.095C41.1445 280.095 41.5778 280.269 42.141 280.529C42.7475 280.832 43.6572 281.179 44.7836 281.438C46.9498 282.045 49.8524 282.392 52.4518 282.608C52.4518 282.608 50.5456 282.348 49.0293 282.132C47.9895 281.958 46.7332 281.785 45.3902 281.438C44.697 281.265 44.0038 281.092 43.3107 280.875C42.5742 280.659 41.881 280.355 41.1445 280.095Z" fill="#553D3D"/>
</g>
<mask id="mask20_65_5212" style="mask-type:luminance" maskUnits="userSpaceOnUse" x="0" y="0" width="428" height="421">
<path d="M427.855 0.534302H0V420.981H427.855V0.534302Z" fill="white"/>
</mask>
<g mask="url(#mask20_65_5212)">
<path d="M130.918 270.565C130.918 270.565 130.875 271.388 130.832 272.861C130.788 274.334 130.702 276.543 130.702 279.272C130.658 282.002 130.702 285.338 130.832 289.107C130.962 292.876 131.178 297.078 131.568 301.584C131.958 306.089 132.521 310.941 133.258 315.923C133.994 320.905 134.904 326.104 136.074 331.303C138.327 341.744 141.576 352.271 145.432 361.845C145.432 361.845 144.825 359.203 143.785 354.567C143.265 352.228 142.616 349.412 141.922 346.119C141.532 344.473 141.229 342.697 140.839 340.834C140.449 338.971 140.103 336.978 139.67 334.942C138.846 330.826 138.067 326.277 137.244 321.425C136.42 316.573 135.641 311.374 134.861 305.959C133.215 295.042 131.915 283.085 130.918 270.565Z" fill="#3C3C3B"/>
</g>
<mask id="mask21_65_5212" style="mask-type:luminance" maskUnits="userSpaceOnUse" x="0" y="0" width="428" height="421">
<path d="M427.855 0.534302H0V420.981H427.855V0.534302Z" fill="white"/>
</mask>
<g mask="url(#mask21_65_5212)">
<path d="M141.888 355.477C141.888 355.477 141.845 356.127 141.801 357.297C141.801 357.903 141.758 358.597 141.715 359.463C141.715 360.286 141.498 361.283 141.411 362.322C141.281 363.405 141.151 364.575 140.848 365.831C140.545 367.088 140.372 368.431 139.938 369.86C139.505 371.247 139.202 372.763 138.639 374.323C138.119 375.882 137.642 377.485 136.992 379.131C135.823 382.467 134.393 385.976 132.963 389.659C131.534 393.341 130.061 397.24 128.804 401.269C128.155 403.262 127.635 405.342 127.115 407.421C126.812 408.461 126.682 409.544 126.465 410.584C126.292 411.623 126.075 412.663 125.989 413.746L125.685 416.909C125.642 417.949 125.685 419.032 125.685 420.071V421.631L125.859 423.191L126.248 426.223C126.248 426.223 126.248 425.703 126.292 424.707C126.292 424.23 126.292 423.58 126.335 422.887C126.335 422.541 126.335 422.151 126.335 421.718C126.378 421.284 126.422 420.851 126.465 420.418C126.552 419.508 126.682 418.468 126.812 417.342C127.028 416.216 127.245 415.003 127.505 413.746C127.721 412.447 128.155 411.104 128.501 409.674C128.848 408.244 129.411 406.728 129.844 405.168C130.841 402.049 132.097 398.627 133.483 394.988C134.87 391.348 136.386 387.493 137.816 383.334C138.509 381.254 139.202 379.131 139.808 376.922C140.112 375.796 140.372 374.713 140.675 373.543C140.892 372.416 141.151 371.247 141.368 370.077C141.628 368.907 141.715 367.694 141.845 366.525L142.061 364.705L142.105 362.885C142.408 360.416 142.148 357.947 141.888 355.477Z" fill="#3C3C3B"/>
</g>
</svg>
