<svg width="98" height="99" viewBox="0 0 98 99" fill="none" xmlns="http://www.w3.org/2000/svg">
    <g clip-path="url(#clip0_2222_2437)">
        <path d="M49.3641 97.4891C22.8659 97.4891 1.38489 76.0081 1.38489 49.5099C1.38489 23.0117 22.8659 1.53076 49.3641 1.53076C75.8622 1.53076 97.3432 23.0117 97.3432 49.5099C97.3432 76.0081 75.8622 97.4891 49.3641 97.4891Z" stroke="#A9D4FF" stroke-width="1.63333" stroke-miterlimit="10"/>
        <mask id="mask0_2222_2437" style="mask-type:luminance" maskUnits="userSpaceOnUse" x="14" y="29" width="68" height="42">
            <path d="M81.6741 29.0063H14.5078V70.0129H81.6741V29.0063Z" fill="white"/>
        </mask>
        <g mask="url(#mask0_2222_2437)">
            <path d="M27.103 68.4962C25.3391 68.5024 23.5782 68.5056 21.8142 68.5118C21.5859 68.5118 21.3357 68.5024 21.1699 68.343C21.0198 68.196 20.9885 67.9676 20.9698 67.7581C20.8165 66.2599 20.7039 64.6023 21.6015 63.4044C21.9737 62.9071 22.496 62.5412 23.0434 62.2565C25.2234 61.1306 28.0007 61.3183 30.0212 62.7226C30.7436 63.2261 31.3816 63.8735 32.1886 64.2207C32.9612 64.5522 33.8244 64.5741 34.6626 64.5866C37.884 64.6336 41.1056 64.5804 44.3208 64.4302C44.7586 64.4084 45.2028 64.3865 45.6187 64.2426C46.1066 64.0737 46.5226 63.7516 46.9636 63.4794C48.4086 62.5912 50.2414 62.2753 51.8209 62.8821C53.4003 63.4888 54.6201 65.109 54.5482 66.8229C54.5231 67.414 54.3355 68.0239 53.9007 68.418C53.6161 68.6776 53.2502 68.8215 52.8843 68.934C51.3611 69.4032 49.741 69.4064 48.149 69.4064C40.3987 69.4032 32.6484 69.4001 24.895 69.397" fill="#EBF5FF"/>
            <path d="M80.8861 29.7977H67.5029C64.1751 29.732 61.429 31.1081 59.5055 33.6853C56.944 37.1319 54.0884 41.9455 52.7466 44.2537C52.2618 45.0887 51.3454 45.6017 50.3478 45.6017H47.3484C46.7979 45.6017 46.2568 45.4453 45.8002 45.1513C45.8002 45.1513 42.8508 43.6813 40.0547 42.9775C38.6347 42.621 34.4687 42.7493 34.4687 42.7493C28.4135 42.7493 23.5031 46.4805 23.5031 52.2197" stroke="#A9D4FF" stroke-width="1.24348" stroke-miterlimit="10" stroke-linecap="round" stroke-linejoin="round"/>
            <path d="M79.8039 69.2186H67.8657C64.5379 69.2843 61.1132 68.6431 59.1896 66.069C56.6281 62.6224 51.3424 57.1928 50.3446 57.1928H47.3452C46.7948 57.1928 46.2537 57.3492 45.7971 57.6432L43.4951 59.1382C42.585 59.7262 41.5028 60.0452 40.4019 60.0452H35.6165H34.4749C28.4199 60.0452 23.5095 56.7549 23.5095 51.0156" stroke="#A9D4FF" stroke-width="1.24348" stroke-miterlimit="10" stroke-linecap="round" stroke-linejoin="round"/>
            <path d="M74.5806 35.5903C74.5806 35.5903 74.9872 37.0478 79.638 38.5147" stroke="#A9D4FF" stroke-width="1.24348" stroke-miterlimit="10" stroke-linecap="round" stroke-linejoin="round"/>
            <path d="M74.7653 65.1152C74.7653 65.1152 75.1719 63.6578 79.8227 62.1909" stroke="#A9D4FF" stroke-width="1.24348" stroke-miterlimit="10" stroke-linecap="round" stroke-linejoin="round"/>
            <path d="M76.6791 51.9197H77.1639C77.6957 51.9197 78.1304 51.5069 78.1304 51.0033C78.1304 50.4997 77.6957 50.0869 77.1639 50.0869H76.6791C76.1475 50.0869 75.7127 50.4997 75.7127 51.0033C75.7127 51.5069 76.1475 51.9197 76.6791 51.9197Z" fill="#EBF5FF"/>
            <path d="M52.3871 51.0033C52.3871 50.4997 52.8218 50.0869 53.3535 50.0869H54.3199C54.8517 50.0869 55.2864 50.4997 55.2864 51.0033C55.2864 51.5069 54.8517 51.9197 54.3199 51.9197H53.3535C52.8124 51.9197 52.3871 51.5069 52.3871 51.0033ZM58.217 51.0033C58.217 50.4997 58.6517 50.0869 59.1834 50.0869H60.1499C60.6816 50.0869 61.1163 50.4997 61.1163 51.0033C61.1163 51.5069 60.6816 51.9197 60.1499 51.9197H59.1834C58.6423 51.9197 58.217 51.5069 58.217 51.0033ZM64.05 51.0033C64.05 50.4997 64.4848 50.0869 65.0165 50.0869H65.9923C66.524 50.0869 66.9588 50.4997 66.9588 51.0033C66.9588 51.5069 66.524 51.9197 65.9923 51.9197H65.0165C64.4848 51.9197 64.05 51.5069 64.05 51.0033ZM69.88 51.0033C69.88 50.4997 70.3148 50.0869 70.8464 50.0869H71.8128C72.3446 50.0869 72.7793 50.4997 72.7793 51.0033C72.7793 51.5069 72.3446 51.9197 71.8128 51.9197H70.8464C70.3148 51.9197 69.88 51.5069 69.88 51.0033Z" fill="#EBF5FF"/>
            <path d="M48.0049 51.9197H48.4897C49.0215 51.9197 49.4562 51.5069 49.4562 51.0033C49.4562 50.4997 49.0215 50.0869 48.4897 50.0869H48.0049C47.4733 50.0869 47.0385 50.4997 47.0385 51.0033C47.0385 51.5069 47.4733 51.9197 48.0049 51.9197Z" fill="#EBF5FF"/>
            <g style="mix-blend-mode:multiply">
                <path d="M76.6791 51.9197H77.1639C77.6956 51.9197 78.1304 51.5069 78.1304 51.0033C78.1304 50.4997 77.6956 50.0869 77.1639 50.0869H76.6791C76.1474 50.0869 75.7126 50.4997 75.7126 51.0033C75.7126 51.5069 76.1474 51.9197 76.6791 51.9197Z" fill="#EBF5FF"/>
                <path d="M52.387 51.0033C52.387 50.4997 52.8217 50.0869 53.3534 50.0869H54.3199C54.8516 50.0869 55.2863 50.4997 55.2863 51.0033C55.2863 51.5069 54.8516 51.9197 54.3199 51.9197H53.3534C52.8123 51.9197 52.387 51.5069 52.387 51.0033ZM58.2169 51.0033C58.2169 50.4997 58.6517 50.0869 59.1833 50.0869H60.1498C60.6815 50.0869 61.1163 50.4997 61.1163 51.0033C61.1163 51.5069 60.6815 51.9197 60.1498 51.9197H59.1833C58.6423 51.9197 58.2169 51.5069 58.2169 51.0033ZM64.0499 51.0033C64.0499 50.4997 64.4847 50.0869 65.0165 50.0869H65.9923C66.5239 50.0869 66.9587 50.4997 66.9587 51.0033C66.9587 51.5069 66.5239 51.9197 65.9923 51.9197H65.0165C64.4847 51.9197 64.0499 51.5069 64.0499 51.0033ZM69.8799 51.0033C69.8799 50.4997 70.3147 50.0869 70.8463 50.0869H71.8128C72.3445 50.0869 72.7793 50.4997 72.7793 51.0033C72.7793 51.5069 72.3445 51.9197 71.8128 51.9197H70.8463C70.3147 51.9197 69.8799 51.5069 69.8799 51.0033Z" fill="#EBF5FF"/>
                <path d="M48.0049 51.9197H48.4897C49.0215 51.9197 49.4562 51.5069 49.4562 51.0033C49.4562 50.4997 49.0215 50.0869 48.4897 50.0869H48.0049C47.4733 50.0869 47.0385 50.4997 47.0385 51.0033C47.0385 51.5069 47.4733 51.9197 48.0049 51.9197Z" fill="#EBF5FF"/>
            </g>
            <path d="M67.8657 69.2188H15.2993" stroke="#A9D4FF" stroke-width="1.24348" stroke-miterlimit="10" stroke-linecap="round" stroke-linejoin="round"/>
            <path d="M56.0116 69.2186C56.2087 66.3818 55.9584 61.6652 52.0239 58.8879C51.3483 58.4125 50.4069 58.2686 48.8869 58.3155C46.9415 58.375 46.0657 58.5407 45.6967 58.8566" stroke="#A9D4FF" stroke-width="1.22035" stroke-miterlimit="10" stroke-linecap="round" stroke-linejoin="round"/>
            <path d="M27.4094 58.1625C24.1254 57.2241 21.3137 57.8747 20.4848 58.6253C17.4573 61.3651 17.7326 67.4328 17.7232 68.6088" stroke="#A9D4FF" stroke-width="1.22035" stroke-miterlimit="10" stroke-linecap="round" stroke-linejoin="round"/>
            <path d="M29.1017 59.0444C31.9291 60.7302 31.0471 63.6545 33.2209 63.6545H42.582C43.0416 63.6545 43.417 63.3293 43.4264 62.9258C43.4264 62.9258 42.9072 61.3557 45.694 58.8599" stroke="#A9D4FF" stroke-width="1.22035" stroke-miterlimit="10" stroke-linecap="round" stroke-linejoin="round"/>
        </g>
    </g>
    <defs>
        <clipPath id="clip0_2222_2437">
            <rect width="98" height="98" fill="white" transform="translate(0 0.5)"/>
        </clipPath>
    </defs>
</svg>
