<svg width="98" height="99" viewBox="0 0 98 99" fill="none" xmlns="http://www.w3.org/2000/svg">
    <g clip-path="url(#clip0_2222_2463)">
        <path d="M58.247 28.9386C52.6627 31.5849 48.2913 36.5173 46.4169 42.4161C45.9564 43.8624 45.8138 44.8678 46.8417 46.0547C47.98 47.3681 49.2123 48.636 50.49 49.8131C51.1256 50.3969 51.7807 50.9546 52.4682 51.4768C53.2692 52.0864 54.4269 52.6702 53.4864 53.656C52.9125 54.256 51.4726 54.5251 50.6781 54.6711C49.4718 54.8947 48.2621 54.8785 47.0525 54.6841C46.271 54.5575 45.7326 55.245 46.0635 55.9714C46.5564 57.0481 47.2017 58.0371 48.0351 58.8836C48.3368 59.1884 50.4835 60.5601 50.4868 60.6996C50.4997 61.0627 48.9204 61.4843 48.6416 61.5394C48.0999 61.6465 47.5325 61.6562 46.9812 61.6562C45.3013 61.653 43.6669 61.3579 42.0617 60.878C40.9785 60.5536 40.518 62.2432 41.5947 62.5675C44.3933 63.4042 49.4621 64.4905 51.6931 61.8411C52.3741 61.0303 52.5395 60.0899 51.6639 59.3667C50.9051 58.7408 49.9809 58.3712 49.2707 57.6481C48.5345 56.8989 48.0059 56.0395 47.5714 55.0926C47.2406 55.5207 46.913 55.9487 46.5823 56.38C49.115 56.7887 54.0994 56.7984 55.4873 54.0355C56.0483 52.9199 55.6008 51.827 54.7284 51.0228C53.3048 49.7062 51.7125 48.6295 50.3408 47.2351C49.7182 46.5994 48.9658 45.9509 48.447 45.2277C47.6752 44.1479 47.9087 43.3825 48.3303 42.2021C48.9237 40.5418 49.7539 38.9624 50.7527 37.5097C52.8638 34.4418 55.7662 32.0421 59.1259 30.4531C60.1473 29.9699 59.262 28.4587 58.247 28.9386Z" fill="#A9D4FF"/>
        <path d="M48.9303 63.2291C52.6402 69.2318 58.8989 73.1492 65.8972 73.9469C65.6896 73.4475 65.4853 72.9514 65.2777 72.452C59.1486 78.0524 49.7962 79.1551 41.9483 77.592C34.1946 76.0451 26.8073 71.852 22.7894 64.8538C18.0936 56.6721 18.392 45.63 22.4683 37.2601C26.1554 29.6879 33.092 24.055 41.2155 21.879C49.9161 19.5474 59.4503 21.438 65.9101 27.9108C66.7078 28.7086 67.9467 27.4731 67.1489 26.672C54.1514 13.6453 31.8111 18.7886 22.5137 33.5761C17.2018 42.0271 16.0052 53.5945 19.8675 62.8498C23.2304 70.9116 30.5431 76.3176 38.806 78.6362C42.9407 79.7972 47.3446 80.2803 51.6283 79.862C56.9045 79.3496 62.5926 77.2807 66.5262 73.6908C67.1424 73.1264 66.6009 72.2769 65.9069 72.1957C59.5475 71.4693 53.8109 67.7757 50.4544 62.3439C49.8481 61.3872 48.3336 62.266 48.9303 63.2291Z" fill="#A9D4FF"/>
        <path d="M33.0629 42.8411C36.0334 44.8744 39.5357 45.8148 43.1256 45.5425C44.2411 45.4582 44.2508 43.707 43.1256 43.7913C39.8113 44.0443 36.6885 43.2044 33.945 41.33C33.0142 40.6879 32.1387 42.2056 33.0629 42.8411Z" fill="#A9D4FF"/>
        <path d="M34.972 43.2236C34.0639 43.6419 33.2467 44.2354 32.5559 44.9553C31.7744 45.766 33.01 47.0081 33.7948 46.1941C34.3947 45.5714 35.0757 45.098 35.8573 44.7348C36.2853 44.537 36.3923 43.9176 36.1718 43.5382C35.9124 43.0972 35.4033 43.0225 34.972 43.2236Z" fill="#A9D4FF"/>
        <path d="M37.8984 45.0788C38.0086 45.7533 38.119 46.4278 38.2259 47.1023C38.3006 47.5693 38.881 47.8288 39.3026 47.7152C39.7987 47.579 39.9901 47.1055 39.9155 46.6386C39.8052 45.964 39.695 45.2895 39.588 44.6151C39.5134 44.1481 38.9329 43.8886 38.5114 44.0021C38.0151 44.1384 37.8238 44.6118 37.8984 45.0788Z" fill="#A9D4FF"/>
        <path d="M41.8286 45.8378C42.2145 46.4475 42.5647 47.0831 42.8436 47.7512C43.0252 48.1857 43.4241 48.5002 43.9202 48.364C44.3321 48.2505 44.7147 47.7252 44.5332 47.2874C44.1926 46.4767 43.81 45.6984 43.3397 44.9558C42.7431 44.0023 41.2253 44.8811 41.8286 45.8378Z" fill="#A9D4FF"/>
        <path d="M64.905 45.6026C64.0975 47.5062 63.4328 50.0129 63.316 52.0819C63.2771 52.7824 64.0781 53.1229 64.6326 52.8375C66.0789 52.0949 67.1556 50.4864 68.1998 49.2898C68.336 49.1341 68.5922 48.6995 68.7933 48.6282C69.3868 48.4142 70.0255 49.2671 70.4406 49.6205C71.5432 50.5512 72.7236 51.3717 73.969 52.0981C74.4034 52.351 75.1785 52.15 75.2563 51.576C75.5611 49.3319 75.519 47.1625 75.1071 44.9346C74.9029 43.8287 73.2133 44.2957 73.4176 45.4015C73.7711 47.3018 73.8295 49.1958 73.5668 51.1123C73.9949 50.9372 74.4229 50.762 74.8542 50.5902C73.2068 49.627 71.9033 48.3882 70.405 47.237C69.5294 46.5657 68.5533 46.5495 67.6809 47.2792C66.2703 48.4531 65.4239 50.4669 63.7506 51.3296C64.1884 51.5825 64.6294 51.8322 65.0672 52.0851C65.1612 50.4021 65.8584 47.8045 66.4163 46.4912C66.8507 45.4599 65.3428 44.5681 64.905 45.6026Z" fill="#A9D4FF"/>
        <path d="M66.1892 44.5818C64.6034 43.1777 62.5377 42.3312 61.0492 40.8136C60.8417 41.313 60.6374 41.8092 60.4298 42.3085C62.2134 42.3766 64.0327 41.8545 65.8001 41.6924C66.3481 41.6405 65.8325 41.7573 66.1989 41.7086C66.6432 41.6502 66.9578 41.5595 67.2626 41.2124C67.7199 40.6903 67.9015 39.7985 68.1382 39.1726C68.5274 38.1512 68.9165 37.1296 69.3057 36.1081C68.7739 36.1762 68.2387 36.2476 67.7069 36.3157C68.3587 37.2107 68.9262 38.135 69.3997 39.1337C69.711 39.7888 69.9186 40.418 70.6061 40.7487C71.4686 41.1638 72.714 40.9465 73.6317 40.9433C74.9191 40.9368 76.2033 40.9303 77.4908 40.9206C77.2378 40.4828 76.988 40.0418 76.7351 39.6039C75.9828 40.8007 75.0812 41.8059 73.9462 42.6556C73.0544 43.3235 73.9268 44.8445 74.8315 44.1667C76.213 43.1355 77.3318 41.9485 78.2496 40.486C78.6062 39.9218 78.1425 39.1661 77.494 39.1694C76.6378 39.1726 75.7784 39.1791 74.9223 39.1824C74.0272 39.1888 72.8923 39.3769 72.0297 39.1987C70.7779 38.9424 69.9899 36.4779 69.2246 35.4271C68.7641 34.7947 67.9015 34.905 67.6259 35.6347C67.3437 36.3773 67.0615 37.1199 66.7762 37.8626C66.6367 38.2322 66.4682 38.5987 66.3514 38.978C66.3287 39.0559 66.1762 39.951 66.1827 39.9445C66.1082 40.0158 64.8694 40.0612 64.7721 40.0742C63.3679 40.2623 61.8599 40.6061 60.4395 40.5509C59.6645 40.5217 59.3045 41.5206 59.8202 42.0459C61.3151 43.5701 63.3744 44.4099 64.9602 45.8141C65.7904 46.5665 67.0324 45.3309 66.1892 44.5818Z" fill="#A9D4FF"/>
        <path d="M47.98 95.894C73.8897 95.894 94.8938 74.8899 94.8938 48.9801C94.8938 23.0704 73.8897 2.06641 47.98 2.06641C22.0702 2.06641 1.06622 23.0704 1.06622 48.9801C1.06622 74.8899 22.0702 95.894 47.98 95.894Z" stroke="#A9D4FF" stroke-width="1.6" stroke-miterlimit="10"/>
    </g>
    <defs>
        <clipPath id="clip0_2222_2463">
            <rect width="95.96" height="95.96" fill="white" transform="translate(0 1)"/>
        </clipPath>
    </defs>
</svg>
