<svg width="120" height="120" viewBox="0 0 120 120" fill="none" xmlns="http://www.w3.org/2000/svg">
<mask id="mask0_10193_131" style="mask-type:luminance" maskUnits="userSpaceOnUse" x="0" y="0" width="120" height="120">
<path d="M119.341 0.128235H0.41153V119.058H119.341V0.128235Z" fill="white"/>
</mask>
<g mask="url(#mask0_10193_131)">
<path d="M52.6805 44.4631C52.6829 44.3833 52.6878 44.2987 52.7252 44.2292C52.8247 44.0375 53.0835 44.0102 53.2975 44.0075C53.6733 44.0028 54.0491 43.9978 54.425 43.9928C54.4796 43.9928 54.537 43.9928 54.5867 44.0151C54.6414 44.0425 54.6788 44.0948 54.7111 44.1445C54.8428 44.3486 54.9425 44.58 54.9401 44.8238C54.9351 45.1947 54.6911 45.5182 54.4423 45.7943C54.3429 45.904 54.2358 46.0134 54.1115 46.0931C53.8177 46.2798 52.9667 46.4963 52.7875 46.0931C52.7152 45.929 52.8173 45.6325 52.8099 45.4585C52.7949 45.12 52.6705 44.8065 52.6805 44.4631Z" fill="#A9D4FF"/>
<path d="M67.3631 44.712C67.3657 44.6324 67.3705 44.5479 67.4081 44.4783C67.5075 44.2865 67.7663 44.2591 67.9803 44.2568C68.3562 44.2518 68.7317 44.2466 69.1078 44.2418C69.1622 44.2418 69.2196 44.2418 69.2693 44.2642C69.324 44.2915 69.3613 44.3438 69.3939 44.3935C69.5257 44.5976 69.6253 44.8291 69.6228 45.0729C69.6178 45.4437 69.374 45.7672 69.1249 46.0436C69.0255 46.153 68.9185 46.2624 68.794 46.342C68.5003 46.5288 67.6492 46.7452 67.4701 46.342C67.3978 46.1779 67.5001 45.8816 67.4924 45.7075C67.4775 45.369 67.3531 45.0555 67.3631 44.712Z" fill="#A9D4FF"/>
<path opacity="0.23" d="M77.9373 30.3434C77.5743 28.5028 77.1031 26.6159 75.9254 25.0812C74.8227 23.6401 73.3147 22.4798 71.7115 21.5721C68.1194 19.532 64.0724 19.1547 59.9732 19.164C56.3187 19.1734 52.3439 19.5259 49.275 21.6125C45.9578 23.8646 44.3318 27.4986 43.1703 31.095C42.1397 34.289 40.5499 39.049 43.5205 41.6597C43.8247 42.7984 45.8694 42.6799 45.925 41.3106C46.0754 37.5455 47.9991 34.0894 51.1563 31.8281C52.684 30.7332 54.8662 29.0052 56.8618 29.0799C58.1804 29.1298 59.6982 28.9118 61.1608 28.7837C60.9579 26.6751 60.585 24.5791 60.5096 22.458C60.4572 20.9577 62.8979 20.9638 62.9536 22.458C63.0287 24.5573 63.3952 26.6314 63.6012 28.7215C65.4104 28.8679 66.8958 30.0408 68.5578 30.8986C70.331 31.8124 71.4137 33.8742 72.2318 35.5523C73.1249 37.3864 73.4978 39.3047 74.162 41.2045C74.6691 42.6611 76.4684 43.3721 77.4433 41.8376C78.4379 40.2719 78.5721 38.1914 78.5624 36.4102C78.5524 34.3735 78.3299 32.3397 77.9373 30.3434Z" fill="#A9D4FF"/>
<path d="M65.6652 81.2488C67.0983 79.4795 68.9991 78.3731 71.218 78.0121C71.973 77.8905 71.651 76.7174 70.9038 76.8392C68.5086 77.2276 66.374 78.4751 64.8261 80.3897C64.3392 80.9899 65.1785 81.853 65.6652 81.2488Z" fill="#A9D4FF" stroke="#A9D4FF" stroke-width="0.365221"/>
<path d="M58.8392 80.3897C57.2912 78.4792 55.1566 77.2314 52.7614 76.8392C52.0143 76.7174 51.6922 77.8905 52.4472 78.0121C54.6661 78.3731 56.567 79.4756 58.0001 81.2488C58.4867 81.853 59.3222 80.9899 58.8392 80.3897Z" fill="#A9D4FF" stroke="#A9D4FF" stroke-width="0.365221"/>
<path d="M45.7642 44.2737C45.6607 47.84 46.2854 51.7458 46.9559 55.2297C47.1169 56.0706 48.2744 55.666 48.1133 54.8251C47.4659 51.4533 46.8524 47.7191 46.9559 44.2737C46.979 43.4158 45.7909 43.4158 45.7642 44.2737Z" fill="#A9D4FF" stroke="#A9D4FF" stroke-width="0.365221"/>
<path d="M47.008 55.1929C48.4374 58.8924 50.4839 62.3645 53.9215 64.4203C56.2475 65.813 60.0605 67.4138 62.7698 66.9154C64.9464 66.5154 67.1616 64.9108 68.8976 63.5847C70.5569 62.3174 72.0668 60.8422 73.2853 59.1239C76.2744 54.9143 76.8453 49.861 77.1212 44.8158C77.1636 44.0351 75.9755 44.0351 75.9333 44.8158C75.6919 49.2294 75.2743 53.6784 72.9211 57.5153C71.7218 59.469 70.1006 61.1521 68.2997 62.5332C66.7016 63.7612 64.6208 65.2757 62.6433 65.6679C60.2789 66.1348 56.7532 64.6637 54.6879 63.467C51.442 61.5876 49.4952 58.3352 48.1538 54.871C47.8779 54.1491 46.7246 54.4631 47.008 55.1929Z" fill="#A9D4FF" stroke="#A9D4FF" stroke-width="0.365221"/>
<path d="M77.1119 43.4707C80.3116 44.7221 79.7676 52.6273 75.87 52.0664C75.1229 51.9606 74.7973 53.1297 75.5561 53.2396C81.0435 54.0322 82.1205 44.1296 77.4299 42.2976C76.7133 42.019 76.4029 43.196 77.1119 43.4707Z" fill="#A9D4FF" stroke="#A9D4FF" stroke-width="0.365221"/>
<path d="M44.2627 42.2906C40.3004 43.4126 40.6298 51.2826 44.4812 52.3185C45.2207 52.5185 45.539 51.3454 44.7954 51.1454C42.1205 50.4276 41.8025 44.2484 44.5771 43.4637C45.3128 43.2558 45.0023 42.0828 44.2627 42.2906Z" fill="#A9D4FF" stroke="#A9D4FF" stroke-width="0.365221"/>
<path d="M76.8977 48.8491C77.0891 47.9822 77.5682 47.2563 78.3039 46.7814C78.9516 46.3657 78.3539 45.3106 77.7024 45.7301C76.7135 46.3657 76.0086 47.3544 75.7479 48.5276C75.5833 49.2885 76.729 49.6141 76.8977 48.8491Z" fill="#A9D4FF" stroke="#A9D4FF" stroke-width="0.365221"/>
<path d="M46.9468 47.5152C46.6095 46.2165 45.778 45.1218 44.6285 44.4747C43.9579 44.0979 43.3561 45.1494 44.0267 45.526C44.9198 46.0283 45.5366 46.8325 45.8011 47.8405C45.9965 48.5941 47.1423 48.2722 46.9468 47.5152Z" fill="#A9D4FF" stroke="#A9D4FF" stroke-width="0.365221"/>
<path d="M59.1794 52.0176C60.2345 52.6772 61.5609 52.6799 62.621 52.0303C63.2755 51.6297 62.6757 50.5967 62.0187 50.9999C61.3071 51.4354 60.4907 51.428 59.784 50.9875C59.127 50.577 58.5274 51.6097 59.1794 52.0176Z" fill="#A9D4FF" stroke="#A9D4FF" stroke-width="0.365221"/>
<path d="M66.2217 45.7253C67.7073 43.7841 70.2232 44.466 71.9602 45.6331C72.5999 46.0637 73.1995 45.0283 72.5625 44.6027C70.1835 43.0027 67.0827 42.6492 65.1889 45.123C64.721 45.7326 65.7588 46.3299 66.2217 45.7253Z" fill="#A9D4FF" stroke="#A9D4FF" stroke-width="0.365221"/>
<path d="M64.9494 41.9525C66.8156 40.6112 69.2918 39.9966 71.198 41.6416C71.7779 42.1416 72.6266 41.3006 72.0417 40.7979C69.7447 38.8144 66.6889 39.2376 64.3471 40.9223C63.7276 41.3652 64.3245 42.4006 64.9494 41.9525Z" fill="#A9D4FF" stroke="#A9D4FF" stroke-width="0.365221"/>
<path d="M66.5121 44.441C66.4226 45.7051 66.4101 47.2854 67.9457 47.6013C69.8369 47.9897 70.2551 45.2746 70.041 43.9607C69.919 43.204 68.7668 43.5252 68.8888 44.2792C68.9659 44.757 68.8864 46.6135 68.1048 46.4118C67.3881 46.2277 67.672 44.9511 67.7093 44.441C67.7616 43.6746 66.567 43.6769 66.5121 44.441Z" fill="#A9D4FF" stroke="#A9D4FF" stroke-width="0.365221"/>
<path d="M56.7892 44.8732C54.8954 42.3997 51.7973 42.7531 49.4156 44.3532C48.7809 44.7787 49.3782 45.8139 50.0179 45.3834C51.7547 44.2162 54.2708 43.5343 55.7564 45.4754C56.2193 46.0777 57.2571 45.4855 56.7892 44.8732Z" fill="#A9D4FF" stroke="#A9D4FF" stroke-width="0.365221"/>
<path d="M57.6295 40.6701C55.2875 38.9879 52.2318 38.5625 49.9347 40.5457C49.3525 41.0485 50.2009 41.8896 50.7784 41.3894C52.6796 39.747 55.1607 40.359 57.0272 41.7005C57.6519 42.1508 58.2491 41.1156 57.6295 40.6701Z" fill="#A9D4FF" stroke="#A9D4FF" stroke-width="0.365221"/>
<path d="M54.2709 44.1914C54.3084 44.7016 54.5919 45.9782 53.8753 46.1626C53.0939 46.3616 53.0118 44.5075 53.0916 44.0297C53.2134 43.2782 52.0635 42.9545 51.9391 43.7112C51.7253 45.0251 52.1408 47.7402 54.0347 47.3521C55.57 47.0384 55.5577 45.4582 55.4679 44.1914C55.4109 43.4301 54.2162 43.4227 54.2709 44.1914Z" fill="#A9D4FF" stroke="#A9D4FF" stroke-width="0.365221"/>
<path d="M76.1003 42.8006C76.0133 39.3057 75.0849 35.7514 72.6934 33.0205C70.4936 30.5102 67.0943 28.9679 63.6474 29.3074C62.891 29.3809 62.8835 30.5221 63.6474 30.4462C66.8129 30.1354 69.8366 31.5161 71.8498 33.825C74.025 36.3185 74.8288 39.6261 74.9084 42.8006C74.9258 43.5315 76.1201 43.5339 76.1003 42.8006Z" fill="#A9D4FF" stroke="#A9D4FF" stroke-width="0.365221"/>
<path d="M61.0512 22.7636C61.3349 25.0198 61.4417 27.2763 61.3773 29.5493C61.3547 30.2824 62.5519 30.2824 62.5716 29.5493C62.6365 27.2787 62.5295 25.0198 62.2457 22.7636C62.1563 22.047 60.9615 22.0374 61.0512 22.7636Z" fill="#A9D4FF" stroke="#A9D4FF" stroke-width="0.365221"/>
<path d="M78.7395 44.0724C83.0647 36.3515 79.6999 24.9248 71.7217 20.5592C69.2506 19.2067 66.436 18.6444 63.6014 18.7654C62.835 18.7986 62.8324 19.9374 63.6014 19.9043C69.7657 19.6409 74.7974 23.0907 77.4181 28.2845C79.7499 32.9042 80.2998 38.8666 77.7067 43.4982C77.3459 44.1435 78.3786 44.7201 78.7395 44.0724Z" fill="#A9D4FF" stroke="#A9D4FF" stroke-width="0.365221"/>
<path d="M61.546 17.9986C58.2213 16.5346 53.7019 17.9558 50.6809 19.4553C45.7707 21.8946 42.2645 26.2934 41.1496 31.4706C40.2436 35.6774 40.8011 40.0195 41.9834 44.1239C42.1874 44.8311 43.3394 44.5298 43.1355 43.8204C41.3734 37.7037 41.127 30.8205 45.1561 25.4392C47.7293 22.006 51.8057 19.6073 56.1433 18.8171C57.6389 18.5443 59.5102 18.3496 60.9435 18.9809C61.638 19.2869 62.2451 18.3046 61.546 17.9986Z" fill="#A9D4FF" stroke="#A9D4FF" stroke-width="0.365221"/>
<path d="M60.0508 28.8588C52.1846 28.9394 47.6776 35.787 44.8606 41.8942C44.5546 42.5588 45.5823 43.1399 45.8908 42.4684C48.5213 36.7693 52.6425 30.0736 60.0508 29.9977C60.8198 29.9881 60.8198 28.8493 60.0508 28.8588Z" fill="#A9D4FF" stroke="#A9D4FF" stroke-width="0.365221"/>
<path d="M55.3669 57.3699C58.9919 58.7931 62.8819 58.901 66.4153 57.1573C67.1511 56.7941 66.5068 55.6916 65.7707 56.0548C62.5384 57.6513 58.9952 57.4286 55.7073 56.1397C54.9417 55.8388 54.6112 57.0721 55.3669 57.3699Z" fill="#A9D4FF" stroke="#A9D4FF" stroke-width="0.365221"/>
<g opacity="0.23">
<path opacity="0.23" d="M60.0142 60.8256C58.64 60.397 57.4393 59.2848 56.7947 57.8322C56.6344 57.469 56.5036 57.0632 56.5723 56.6641C56.6575 56.167 57.0337 55.8004 57.4195 55.5485C58.6498 54.7339 60.1352 54.6359 61.5583 54.5735C61.9508 54.5574 62.3468 54.5409 62.7296 54.6325C63.3903 54.7928 63.9564 55.2573 64.5027 55.7088C64.6826 55.8594 64.8724 56.0197 64.9738 56.2485C65.0392 56.396 65.0622 56.5628 65.0818 56.7263C65.1438 57.2825 65.1505 57.8779 64.9214 58.3753C64.6531 58.9675 64.11 59.3174 63.5965 59.638C63.1679 59.903 62.7326 60.1713 62.2584 60.289C62.0031 60.3511 61.7415 60.3675 61.4829 60.3776C60.4525 60.4165 59.4155 60.3349 58.3979 60.1387" fill="#A9D4FF"/>
<path opacity="0.23" d="M60.0142 60.8256C58.64 60.397 57.4393 59.2848 56.7947 57.8322C56.6344 57.469 56.5036 57.0632 56.5723 56.6641C56.6575 56.167 57.0337 55.8004 57.4195 55.5485C58.6498 54.7339 60.1352 54.6359 61.5583 54.5735C61.9508 54.5574 62.3468 54.5409 62.7296 54.6325C63.3903 54.7928 63.9564 55.2573 64.5027 55.7088C64.6826 55.8594 64.8724 56.0197 64.9738 56.2485C65.0392 56.396 65.0622 56.5628 65.0818 56.7263C65.1438 57.2825 65.1505 57.8779 64.9214 58.3753C64.6531 58.9675 64.11 59.3174 63.5965 59.638C63.1679 59.903 62.7326 60.1713 62.2584 60.289C62.0031 60.3511 61.7415 60.3675 61.4829 60.3776C60.4525 60.4165 59.4155 60.3349 58.3979 60.1387" stroke="#A9D4FF" stroke-width="0.365221"/>
</g>
<path d="M52.5376 26.4226C48.3454 28.9394 45.3001 32.3347 43.7778 36.2357C43.5485 36.8226 44.748 37.0469 44.9772 36.4639C46.402 32.8175 49.2575 29.5837 53.1798 27.2264C53.8009 26.8527 53.1663 26.0428 52.5376 26.4226Z" fill="#A9D4FF" stroke="#A9D4FF" stroke-width="0.365221"/>
<path d="M77.342 42.159C77.8129 38.6406 78.3959 34.2635 75.8734 31.0995C75.4635 30.5873 74.4075 31.0566 74.8197 31.5707C77.207 34.5653 76.5658 38.8275 76.1203 42.159C76.039 42.7567 77.2606 42.7529 77.342 42.159Z" fill="#A9D4FF" stroke="#A9D4FF" stroke-width="0.365221"/>
<path fill-rule="evenodd" clip-rule="evenodd" d="M76.7303 91.3773C72.4286 91.0117 66.979 90.8212 62.1045 90.9402C60.6777 90.9749 59.1541 90.9993 57.5919 91.0246C53.8037 91.0857 49.788 91.1504 46.374 91.3733C43.9614 91.531 41.8887 91.7655 40.4304 92.1228C39.6966 92.3026 39.1619 92.5036 38.8237 92.7141C38.4797 92.9284 38.4536 93.0742 38.4536 93.1278C38.4536 93.4457 38.1959 93.7034 37.8781 93.7034C37.5601 93.7034 37.3025 93.4457 37.3025 93.1278C37.3025 92.4907 37.7292 92.0396 38.2152 91.7367C38.7069 91.4306 39.38 91.1949 40.1563 91.0046C41.718 90.6219 43.8744 90.3828 46.2991 90.2246C49.7428 89.9999 53.8069 89.9343 57.6069 89.8729C59.161 89.8479 60.6712 89.8234 62.0765 89.7891C66.9947 89.6692 72.486 89.8612 76.8278 90.2301C78.9969 90.4147 80.8919 90.6443 82.2893 90.904C82.9858 91.0334 83.5768 91.1735 84.0223 91.3255C84.2443 91.4011 84.4483 91.4861 84.6172 91.5836C84.7704 91.6718 84.9709 91.8134 85.0853 92.0363C85.2306 92.3188 85.1191 92.6658 84.8363 92.8109C84.5703 92.9477 84.2476 92.8573 84.0894 92.6108C84.0798 92.6039 84.0646 92.5937 84.0416 92.5804C83.9629 92.535 83.8359 92.4784 83.6506 92.4151C83.2819 92.2893 82.7533 92.1611 82.0791 92.0357C80.7349 91.786 78.8824 91.5602 76.7303 91.3773Z" fill="#A9D4FF" stroke="#A9D4FF" stroke-width="0.365221" stroke-linecap="round"/>
<path fill-rule="evenodd" clip-rule="evenodd" d="M53.4748 62.8427C53.4867 64.6428 53.4118 66.5383 52.8326 68.3341C51.9044 71.2103 49.672 73.6293 46.8782 74.7839C46.7343 74.8433 46.4832 74.9078 46.2068 74.9728C45.9116 75.0422 45.5318 75.1243 45.0936 75.2159C44.5382 75.3319 43.88 75.4651 43.17 75.6086C42.7609 75.6913 42.3345 75.7777 41.9006 75.8662C39.508 76.3541 36.8993 76.9075 35.5172 77.3471C31.2172 78.7148 29.4751 81.4427 27.5425 84.4691C27.3177 84.8214 27.09 85.1777 26.8555 85.5364L25.8919 84.9065C26.1206 84.5571 26.3448 84.2041 26.5699 83.8507C28.4956 80.8251 30.4532 77.7496 35.1682 76.2501C36.622 75.7874 39.3001 75.2214 41.6706 74.7381C42.1092 74.6486 42.5378 74.562 42.9476 74.479C43.6546 74.336 44.3058 74.2045 44.8582 74.0889C45.2939 73.9978 45.6625 73.9181 45.9437 73.852C46.0843 73.819 46.1994 73.7901 46.2882 73.7659C46.3324 73.754 46.3678 73.7436 46.3949 73.735C46.4085 73.7307 46.4189 73.7271 46.4268 73.7243L46.4357 73.7212C46.4377 73.7202 46.4387 73.7199 46.4387 73.7199C48.9198 72.6946 50.9126 70.5355 51.7368 67.9807C52.2562 66.3699 52.3352 64.63 52.3236 62.8503L53.4748 62.8427Z" fill="#A9D4FF"/>
<path d="M46.4387 73.7199L47.0883 73.9667L46.4269 73.7243C46.4189 73.7271 46.4085 73.7307 46.3949 73.735C46.3678 73.7436 46.3324 73.754 46.2882 73.7659C46.1994 73.7901 46.0843 73.819 45.9437 73.852C45.6625 73.9181 45.2939 73.9978 44.8582 74.0889C44.3058 74.2045 43.6546 74.336 42.9476 74.479C42.5378 74.562 42.1092 74.6486 41.6706 74.7381C39.3001 75.2214 36.6223 75.7874 35.1685 76.2501C30.4534 77.7496 28.4956 80.8251 26.5699 83.8507C26.3448 84.2041 26.1206 84.5571 25.8919 84.9065L26.8555 85.5364C27.09 85.1777 27.3177 84.8214 27.5425 84.4691C29.4751 81.4427 31.2172 78.7148 35.5172 77.3471C36.8993 76.9075 39.508 76.3541 41.9006 75.8662C42.3345 75.7777 42.7609 75.6913 43.17 75.6086C43.88 75.4651 44.5382 75.3319 45.0936 75.2159C45.5318 75.1243 45.9116 75.0422 46.2068 74.9728C46.4832 74.9078 46.7341 74.8436 46.878 74.7842C49.6717 73.6296 51.9044 71.2106 52.8326 68.3344C53.4115 66.5386 53.4867 64.6428 53.4748 62.8427L52.3236 62.8503C52.3352 64.63 52.2562 66.3699 51.7368 67.9807C50.9126 70.5355 48.9198 72.6946 46.4387 73.7199ZM46.4387 73.7199L46.657 74.2487" stroke="#A9D4FF" stroke-width="0.365221" stroke-miterlimit="10"/>
<path fill-rule="evenodd" clip-rule="evenodd" d="M70.1184 62.4823C70.1068 64.2695 70.1943 66.3729 70.7126 67.9804C71.5371 70.5352 73.5298 72.694 76.0109 73.7197C76.0114 73.72 76.0131 73.7203 76.014 73.7206L76.0228 73.7239C76.0307 73.7268 76.0411 73.7302 76.0547 73.7344C76.0818 73.7432 76.1173 73.7534 76.1615 73.7656C76.2502 73.7898 76.3653 73.8186 76.5059 73.8517C76.787 73.9175 77.1557 73.9975 77.5915 74.0886C78.1436 74.2039 78.7951 74.3357 79.5018 74.4787C79.9118 74.5615 80.3402 74.6483 80.7791 74.7375C83.1493 75.221 85.8274 75.7872 87.2814 76.2495C91.9962 77.7492 93.9538 80.8245 95.88 83.8503C96.1049 84.2038 96.3297 84.5565 96.5575 84.9059L95.5937 85.536C95.3593 85.1773 95.1316 84.821 94.9067 84.4687C92.9744 81.4422 91.2325 78.7142 86.9325 77.3468C85.5502 76.9072 82.9417 76.3534 80.5491 75.8656C80.1149 75.7772 79.6887 75.6911 79.2793 75.6083C78.5696 75.4646 77.9114 75.3316 77.356 75.2155C76.9176 75.124 76.5381 75.0417 76.2426 74.9725C75.9665 74.9075 75.7157 74.843 75.5713 74.7836C72.7777 73.6293 70.5451 71.21 69.6171 68.3338C69.0369 66.5347 68.9556 64.2672 68.9672 62.4749L70.1184 62.4823Z" fill="#A9D4FF"/>
<path d="M86.9325 77.3468C91.2325 78.7142 92.9744 81.4422 94.9067 84.4687C95.1316 84.821 95.3593 85.1773 95.5937 85.536L96.5575 84.9059C96.3297 84.5565 96.1049 84.2038 95.88 83.8503C93.9538 80.8245 91.9962 77.7492 87.2814 76.2495C85.8274 75.7872 83.1493 75.221 80.7791 74.7375C80.3402 74.6483 79.9118 74.5615 79.5018 74.4787C78.7951 74.3357 78.1436 74.2039 77.5915 74.0886C77.1557 73.9975 76.787 73.9175 76.5059 73.8517C76.3653 73.8186 76.2502 73.7898 76.1615 73.7656C76.1173 73.7534 76.0818 73.7432 76.0547 73.7344C76.0411 73.7302 76.0307 73.7268 76.0228 73.7239L76.014 73.7206C76.0131 73.7203 76.0121 73.7201 76.0117 73.7199C73.5306 72.6942 71.5371 70.5352 70.7126 67.9804C70.1943 66.3729 70.1068 64.2695 70.1184 62.4823L68.9672 62.4749C68.9556 64.2672 69.0369 66.5347 69.6171 68.3338C70.5451 71.21 72.7777 73.6291 75.5713 74.7833C75.7157 74.8428 75.9665 74.9075 76.2426 74.9725C76.5381 75.0417 76.9176 75.124 77.356 75.2155C77.9114 75.3316 78.5696 75.4646 79.2793 75.6083C79.6887 75.6911 80.1149 75.7771 80.5491 75.8656C82.9417 76.3534 85.5502 76.9072 86.9325 77.3468ZM86.9325 77.3468L87.1068 76.798" stroke="#A9D4FF" stroke-width="0.365221" stroke-miterlimit="10"/>
<path d="M76.7682 64.2829C80.998 62.0694 84.2722 58.4532 85.9862 53.9891C86.2913 53.1967 87.5801 53.5422 87.2718 54.3435C85.4313 59.1282 81.9906 63.053 77.4404 65.433C76.6819 65.8275 76.0068 64.6806 76.7682 64.2829Z" fill="#A9D4FF"/>
<path d="M81.3711 54.926C82.8139 54.2819 84.2785 53.6929 85.7241 53.061C86.3223 52.8019 87.201 52.1637 87.8237 52.7094C88.3632 53.1782 88.5513 54.3865 88.7887 55.0371C89.1462 56.0175 89.5223 57.0256 89.5872 58.0769C89.6395 58.9339 88.3077 58.9309 88.2552 58.0769C88.2091 57.3555 87.947 56.6495 87.7126 55.9681C87.5894 55.6074 87.2626 54.1185 86.9636 53.9458C86.9017 53.7145 86.8773 53.7329 86.8865 53.995C86.7232 54.0659 86.5597 54.1368 86.3963 54.211C86.0695 54.4113 85.6316 54.5378 85.271 54.6889C84.1921 55.1451 83.1098 55.5951 82.0432 56.073C81.2693 56.4243 80.5911 55.2776 81.3711 54.926Z" fill="#A9D4FF"/>
<path d="M45.444 64.2829C41.2143 62.0694 37.9402 58.4532 36.226 53.9891C35.9208 53.1967 34.6321 53.5422 34.9406 54.3435C36.7809 59.1282 40.2215 63.053 44.772 65.433C45.5304 65.8275 46.2056 64.6806 45.444 64.2829Z" fill="#A9D4FF"/>
<path d="M40.8389 54.926C39.396 54.2819 37.9318 53.6929 36.4858 53.061C35.8878 52.8019 35.009 52.1637 34.3862 52.7094C33.8468 53.1782 33.6587 54.3865 33.4212 55.0371C33.0638 56.0175 32.6877 57.0256 32.623 58.0769C32.5704 58.9339 33.9022 58.9309 33.9545 58.0769C34.0009 57.3555 34.263 56.6495 34.4973 55.9681C34.6205 55.6074 34.9474 54.1185 35.2465 53.9458C35.3081 53.7145 35.3327 53.7329 35.3236 53.995C35.487 54.0659 35.6505 54.1368 35.8137 54.211C36.1405 54.4113 36.5783 54.5378 36.9389 54.6889C38.0182 55.1451 39.1001 55.5951 40.1669 56.073C40.9407 56.4243 41.6188 55.2776 40.8389 54.926Z" fill="#A9D4FF"/>
<path d="M59.9847 117.241C92.142 117.241 118.21 91.1725 118.21 59.0151C118.21 26.858 92.142 0.789246 59.9847 0.789246C27.8273 0.789246 1.75873 26.858 1.75873 59.0151C1.75873 91.1725 27.8273 117.241 59.9847 117.241Z" stroke="#A9D4FF" stroke-width="2" stroke-miterlimit="10"/>
<path opacity="0.23" fill-rule="evenodd" clip-rule="evenodd" d="M49.7946 72.7417C50.6939 72.2427 51.476 71.4694 52.0143 70.571C53.0699 68.8096 53.3425 66.6642 53.3371 64.5905C53.3356 63.7758 52.648 63.0542 51.977 62.3496C51.5614 61.9134 51.1521 61.4838 50.9161 61.0428C50.6286 60.5043 50.2197 60.0546 49.8215 59.6164C49.1505 58.8778 48.5099 58.173 48.5335 57.1352C48.1189 58.5505 48.0347 57.73 47.9629 57.0304C47.9243 56.6557 47.8893 56.3158 47.8092 56.3729C47.3425 55.0828 47.0204 55.9876 46.5766 57.2347C46.2241 58.2256 45.7945 59.4327 45.1545 59.926C44.959 60.0768 44.7634 60.2284 44.5701 60.3823C45.9587 61.5477 47.2994 62.8463 48.1362 64.4318C48.6672 65.4377 48.657 66.3549 48.6132 67.4921C48.5972 67.9075 48.3872 68.3927 48.0699 68.6645C47.7324 68.954 47.2479 68.9302 46.7909 68.9079C46.6713 68.9021 46.5533 68.8965 46.4406 68.8965C44.7936 68.8965 42.2868 67.9854 41.0148 66.9812C40.8552 66.8553 40.6037 66.6822 40.3015 66.4838C39.9292 67.5076 39.6245 68.5651 39.3419 69.6115C39.237 69.9994 38.4823 71.0629 37.6515 72.2334C36.5164 73.833 35.2391 75.6328 35.2838 76.1818C35.3245 76.6809 36.4719 76.1512 37.6726 75.5967C38.7613 75.0941 39.8939 74.5713 40.2855 74.7763C41.1325 75.2213 42.1508 75.0084 43.0754 74.7763C45.713 74.1127 48.3265 73.3606 50.9161 72.5228L49.7946 72.7417Z" fill="#A9D4FF"/>
<path opacity="0.23" fill-rule="evenodd" clip-rule="evenodd" d="M73.7343 72.8698C72.7424 72.3268 71.8802 71.4852 71.2862 70.5073C70.1219 68.5907 69.8213 66.2558 69.8272 63.9991C69.8304 62.5638 69.9628 61.0775 70.6438 59.8228C70.9539 59.2495 71.6121 58.5019 72.3216 57.696C73.1943 56.7047 74.1446 55.6255 74.6201 54.674C75.293 54.5549 76.2171 55.763 77.1321 56.9594C77.7339 57.7462 78.3318 58.5278 78.8516 58.9232C78.9546 59.0014 79.0573 59.0799 79.1598 59.1586C79.0233 59.2626 78.8875 59.3689 78.7519 59.4773C77.0025 60.8767 75.135 62.4242 74.0754 64.4317C73.5447 65.4376 73.5547 66.3548 73.5985 67.492C73.6144 67.9073 73.8247 68.3926 74.1418 68.6644C74.4793 68.9539 74.964 68.9301 75.4207 68.9077C75.5404 68.9021 75.6583 68.8961 75.7711 68.8961C77.418 68.8961 79.9251 67.9853 81.1969 66.9811C81.6186 66.6483 82.6825 65.9863 83.6281 65.3981C83.7144 65.3444 83.8001 65.2911 83.884 65.2388C84.4465 66.6024 84.873 68.0422 85.2619 69.4634C85.3777 69.8854 86.21 71.0425 87.126 72.3163C88.3781 74.0571 89.7869 76.016 89.7374 76.6137C89.6927 77.1565 88.4273 76.5802 87.1029 75.9767C85.9022 75.4299 84.6532 74.8607 84.2215 75.0838C83.2872 75.5683 82.1645 75.3366 81.1446 75.0838C78.2357 74.3616 75.3534 73.5434 72.4975 72.6317L73.7343 72.8698ZM74.9274 53.635C74.9184 53.9536 74.8052 54.3042 74.6201 54.674C74.378 54.7171 74.1684 54.9321 74.0035 55.3816C73.8482 55.273 74.3263 54.5539 74.6613 54.0501C74.7787 53.8734 74.8787 53.7231 74.9274 53.635ZM74.9274 53.635C74.9281 53.6106 74.9281 53.5866 74.9276 53.5626C74.9723 53.5337 74.9665 53.5642 74.9274 53.635Z" fill="#A9D4FF"/>
<path fill-rule="evenodd" clip-rule="evenodd" d="M76.7835 52.6687C76.9926 52.7762 77.1602 52.976 77.2475 53.2633C77.8545 55.2711 78.7753 57.0244 79.8544 58.6554C79.4815 58.9114 79.1151 59.1865 78.7517 59.4774C78.6661 59.5457 78.5804 59.6146 78.4943 59.6836C77.292 57.9178 76.2539 56.0097 75.5875 53.8049C75.4997 53.5155 75.5266 53.2531 75.6367 53.0429C75.7454 52.8345 75.93 52.6889 76.1365 52.6212C76.3431 52.5536 76.5765 52.5621 76.7835 52.6687ZM83.1674 65.685C85.291 68.3767 87.2041 71.1887 88.0635 74.8105C88.1336 75.1052 88.2878 75.3148 88.4921 75.4292C88.6943 75.5424 88.9266 75.552 89.1333 75.4836C89.5515 75.3452 89.8714 74.8898 89.7289 74.2894C88.8203 70.462 86.7935 67.5425 84.6025 64.7881C84.3214 64.9667 83.983 65.1772 83.6281 65.3983C83.4765 65.4927 83.3218 65.5887 83.1674 65.685Z" fill="#A9D4FF"/>
<path fill-rule="evenodd" clip-rule="evenodd" d="M48.1337 55.227C48.2983 54.6771 48.0171 54.2518 47.6256 54.1217C47.4339 54.058 47.217 54.0664 47.0245 54.1665C46.8302 54.2678 46.6761 54.455 46.5962 54.7219C46.012 56.6804 45.107 58.3754 44.0501 59.9526C44.4569 60.2838 44.8643 60.6246 45.2611 60.9792C46.4513 59.2586 47.4858 57.3992 48.1337 55.227ZM40.7631 66.7956C40.4347 66.5644 39.9554 66.2567 39.4445 65.9353C37.6427 68.2922 36.0252 70.8252 35.2662 74.0646C35.1356 74.6219 35.4282 75.0486 35.8166 75.1787C36.0086 75.2431 36.2251 75.2341 36.4132 75.1273C36.6032 75.0196 36.745 74.8231 36.8092 74.5496C37.5223 71.5041 39.0351 69.0814 40.7631 66.7956Z" fill="#A9D4FF"/>
</g>
</svg>
