<svg width="120" height="120" viewBox="0 0 120 120" fill="none" xmlns="http://www.w3.org/2000/svg">
<g clip-path="url(#clip0_10193_109)">
<path d="M60.4459 118.762C27.9991 118.762 1.69586 92.4588 1.69586 60.012C1.69586 27.5653 27.9991 1.26202 60.4459 1.26202C92.8926 1.26202 119.196 27.5653 119.196 60.012C119.196 92.4588 92.8926 118.762 60.4459 118.762Z" stroke="#A9D4FF" stroke-width="2" stroke-miterlimit="10"/>
<mask id="mask0_10193_109" style="mask-type:luminance" maskUnits="userSpaceOnUse" x="17" y="34" width="84" height="52">
<path d="M100.009 34.9059H17.7649V85.118H100.009V34.9059Z" fill="white"/>
</mask>
<g mask="url(#mask0_10193_109)">
<path d="M33.1873 83.2606C31.0275 83.2683 28.8712 83.2721 26.7112 83.2798C26.4317 83.2798 26.1253 83.2683 25.9223 83.073C25.7385 82.893 25.7002 82.6134 25.6772 82.3569C25.4896 80.5224 25.3517 78.4926 26.4508 77.0258C26.9066 76.4169 27.5461 75.9688 28.2163 75.6203C30.8857 74.2415 34.2866 74.4714 36.7606 76.1909C37.6452 76.8075 38.4265 77.6003 39.4146 78.0254C40.3606 78.4313 41.4176 78.4581 42.444 78.4734C46.3886 78.5309 50.3334 78.4658 54.2704 78.2819C54.8065 78.2551 55.3503 78.2284 55.8596 78.0521C56.4571 77.8454 56.9665 77.4509 57.5065 77.1176C59.2758 76.03 61.5201 75.6433 63.4541 76.3863C65.3881 77.1291 66.8817 79.113 66.7937 81.2118C66.763 81.9355 66.5332 82.6824 66.0008 83.1649C65.6523 83.4828 65.2043 83.659 64.7562 83.7968C62.8911 84.3713 60.9073 84.3751 58.958 84.3751C49.4677 84.3713 39.9776 84.3675 30.4836 84.3636" fill="#EBF5FF"/>
<path d="M99.0441 35.8749H82.6565C78.5816 35.7945 75.2191 37.4795 72.8637 40.6353C69.7272 44.8556 66.2306 50.7498 64.5876 53.5761C63.994 54.5986 62.8719 55.2268 61.6502 55.2268H57.9775C57.3035 55.2268 56.6409 55.0353 56.0817 54.6753C56.0817 54.6753 52.4702 52.8753 49.0465 52.0135C47.3077 51.5769 42.2065 51.734 42.2065 51.734C34.792 51.734 28.7792 56.3029 28.7792 63.3305" stroke="#A9D4FF" stroke-width="1.52263" stroke-miterlimit="10" stroke-linecap="round" stroke-linejoin="round"/>
<path d="M97.7192 84.1454H83.101C79.0261 84.2258 74.8326 83.4406 72.4772 80.2888C69.3407 76.0684 62.8684 69.4199 61.6466 69.4199H57.9739C57.2999 69.4199 56.6374 69.6114 56.0782 69.9714L53.2595 71.802C52.145 72.522 50.8199 72.9126 49.4719 72.9126H43.6122H42.2144C34.8 72.9126 28.7872 68.8836 28.7872 61.856" stroke="#A9D4FF" stroke-width="1.52263" stroke-miterlimit="10" stroke-linecap="round" stroke-linejoin="round"/>
<path d="M91.3232 42.9676C91.3232 42.9676 91.8211 44.7522 97.516 46.5485" stroke="#A9D4FF" stroke-width="1.52263" stroke-miterlimit="10" stroke-linecap="round" stroke-linejoin="round"/>
<path d="M91.5494 79.1206C91.5494 79.1206 92.0473 77.336 97.7421 75.5399" stroke="#A9D4FF" stroke-width="1.52263" stroke-miterlimit="10" stroke-linecap="round" stroke-linejoin="round"/>
<path d="M93.893 62.9629H94.4866C95.1377 62.9629 95.6701 62.4574 95.6701 61.8407C95.6701 61.2241 95.1377 60.7186 94.4866 60.7186H93.893C93.242 60.7186 92.7096 61.2241 92.7096 61.8407C92.7096 62.4574 93.242 62.9629 93.893 62.9629Z" fill="#EBF5FF"/>
<path d="M64.1474 61.8407C64.1474 61.2241 64.6796 60.7186 65.3307 60.7186H66.5141C67.1652 60.7186 67.6975 61.2241 67.6975 61.8407C67.6975 62.4574 67.1652 62.9629 66.5141 62.9629H65.3307C64.6681 62.9629 64.1474 62.4574 64.1474 61.8407ZM71.286 61.8407C71.286 61.2241 71.8184 60.7186 72.4694 60.7186H73.6529C74.3039 60.7186 74.8362 61.2241 74.8362 61.8407C74.8362 62.4574 74.3039 62.9629 73.6529 62.9629H72.4694C71.8069 62.9629 71.286 62.4574 71.286 61.8407ZM78.4285 61.8407C78.4285 61.2241 78.9609 60.7186 79.612 60.7186H80.8069C81.4579 60.7186 81.9902 61.2241 81.9902 61.8407C81.9902 62.4574 81.4579 62.9629 80.8069 62.9629H79.612C78.9609 62.9629 78.4285 62.4574 78.4285 61.8407ZM85.5672 61.8407C85.5672 61.2241 86.0996 60.7186 86.7506 60.7186H87.934C88.5851 60.7186 89.1175 61.2241 89.1175 61.8407C89.1175 62.4574 88.5851 62.9629 87.934 62.9629H86.7506C86.0996 62.9629 85.5672 62.4574 85.5672 61.8407Z" fill="#EBF5FF"/>
<path d="M58.7816 62.9629H59.3752C60.0264 62.9629 60.5586 62.4574 60.5586 61.8407C60.5586 61.2241 60.0264 60.7186 59.3752 60.7186H58.7816C58.1306 60.7186 57.5982 61.2241 57.5982 61.8407C57.5982 62.4574 58.1306 62.9629 58.7816 62.9629Z" fill="#EBF5FF"/>
<g style="mix-blend-mode:multiply">
<path d="M93.893 62.9629H94.4866C95.1377 62.9629 95.6701 62.4574 95.6701 61.8407C95.6701 61.2241 95.1377 60.7186 94.4866 60.7186H93.893C93.242 60.7186 92.7096 61.2241 92.7096 61.8407C92.7096 62.4574 93.242 62.9629 93.893 62.9629Z" fill="#EBF5FF"/>
<path d="M64.1474 61.8407C64.1474 61.2241 64.6796 60.7186 65.3307 60.7186H66.5141C67.1652 60.7186 67.6975 61.2241 67.6975 61.8407C67.6975 62.4574 67.1652 62.9629 66.5141 62.9629H65.3307C64.6681 62.9629 64.1474 62.4574 64.1474 61.8407ZM71.286 61.8407C71.286 61.2241 71.8184 60.7186 72.4694 60.7186H73.6529C74.3039 60.7186 74.8362 61.2241 74.8362 61.8407C74.8362 62.4574 74.3039 62.9629 73.6529 62.9629H72.4694C71.8069 62.9629 71.286 62.4574 71.286 61.8407ZM78.4285 61.8407C78.4285 61.2241 78.9609 60.7186 79.612 60.7186H80.8069C81.4579 60.7186 81.9902 61.2241 81.9902 61.8407C81.9902 62.4574 81.4579 62.9629 80.8069 62.9629H79.612C78.9609 62.9629 78.4285 62.4574 78.4285 61.8407ZM85.5672 61.8407C85.5672 61.2241 86.0996 60.7186 86.7506 60.7186H87.934C88.5851 60.7186 89.1175 61.2241 89.1175 61.8407C89.1175 62.4574 88.5851 62.9629 87.934 62.9629H86.7506C86.0996 62.9629 85.5672 62.4574 85.5672 61.8407Z" fill="#EBF5FF"/>
<path d="M58.7816 62.9629H59.3752C60.0264 62.9629 60.5586 62.4574 60.5586 61.8407C60.5586 61.2241 60.0264 60.7186 59.3752 60.7186H58.7816C58.1306 60.7186 57.5982 61.2241 57.5982 61.8407C57.5982 62.4574 58.1306 62.9629 58.7816 62.9629Z" fill="#EBF5FF"/>
</g>
<path d="M83.1009 84.1454H18.7339" stroke="#A9D4FF" stroke-width="1.52263" stroke-miterlimit="10" stroke-linecap="round" stroke-linejoin="round"/>
<path d="M68.5857 84.1454C68.8271 80.6718 68.5206 74.8964 63.7029 71.4956C62.8756 70.9135 61.7229 70.7373 59.8616 70.7948C57.4795 70.8675 56.4071 71.0705 55.9552 71.4573" stroke="#A9D4FF" stroke-width="1.4943" stroke-miterlimit="10" stroke-linecap="round" stroke-linejoin="round"/>
<path d="M33.5624 70.6071C29.5411 69.4581 26.0982 70.2548 25.0832 71.1739C21.3761 74.5288 21.7131 81.9585 21.7016 83.3985" stroke="#A9D4FF" stroke-width="1.4943" stroke-miterlimit="10" stroke-linecap="round" stroke-linejoin="round"/>
<path d="M35.6347 71.6871C39.0969 73.7514 38.0169 77.3321 40.6786 77.3321H52.1411C52.704 77.3321 53.1636 76.9339 53.1751 76.4399C53.1751 76.4399 52.5394 74.5172 55.9517 71.4611" stroke="#A9D4FF" stroke-width="1.4943" stroke-miterlimit="10" stroke-linecap="round" stroke-linejoin="round"/>
</g>
</g>
<defs>
<clipPath id="clip0_10193_109">
<rect width="120" height="120" fill="white"/>
</clipPath>
</defs>
</svg>
