<svg width="120" height="120" viewBox="0 0 120 120" fill="none" xmlns="http://www.w3.org/2000/svg">
<path d="M59.6157 117.703C91.7728 117.703 117.841 91.8387 117.841 59.9326C117.841 28.0265 91.7728 2.16156 59.6157 2.16156C27.4584 2.16156 1.38963 28.0265 1.38963 59.9326C1.38963 91.8387 27.4584 117.703 59.6157 117.703Z" stroke="#A9D4FF" stroke-width="2" stroke-miterlimit="10"/>
<path d="M40.1249 48.0188C47.6498 48.0188 55.1716 48.0188 62.6963 48.0188C63.8963 48.0188 63.8996 46.167 62.6963 46.167C55.1716 46.167 47.6498 46.167 40.1249 46.167C38.9249 46.167 38.9216 48.0188 40.1249 48.0188Z" fill="#A9D4FF"/>
<path d="M49.197 84.3906C48.2933 80.5292 47.5816 75.7804 46.9732 71.1849C46.3648 66.5895 45.8237 61.9436 45.1098 57.4292C45.6019 57.9302 46.1071 58.4213 46.4678 57.8712C46.7382 57.4521 46.9418 56.4422 47.33 57.0239C47.4722 57.2425 48.2855 55.3332 48.4306 55.586C48.7179 56.0922 48.2892 58.263 48.5071 58.1006C49.3123 56.2942 49.5045 57.3603 50.0042 56.994C51.081 64.0686 51.7501 71.2912 52.3966 78.3256C52.5769 80.2816 52.7596 82.4275 52.6324 83.5936C52.5365 84.4619 52.2849 84.5758 52.0455 84.6712C50.9521 85.0668 49.808 85.416 48.4306 82.8276" fill="#DAEDFF"/>
<path d="M52.2139 84.9502C50.6721 81.0826 50.0749 76.3108 49.7585 71.6905C49.4419 67.0698 49.3624 62.3953 48.6744 57.8606C50.0927 58.3477 51.5574 58.8244 52.9289 58.254C53.9596 57.82 54.9868 56.7912 56.0382 57.3642C56.4212 57.5795 59.6865 56.9765 60.0666 57.2264C60.8178 57.7265 58.7089 58.579 59.4758 58.4065C61.2333 58.0168 67.837 58.8025 69.5945 58.413C70.5371 65.521 67.7233 75.5212 67.2816 82.6055C67.1607 84.5752 65.7022 85.7165 63.6701 84.0104C63.0443 84.8916 62.1854 85.0165 61.3726 85.1222C57.6751 85.5649 53.8295 85.9626 50.2875 83.4001" fill="#EBF5FF"/>
<path d="M37.938 42.8417C39.337 51.9952 40.1624 61.2504 41.1766 70.45C41.6806 75.038 42.1778 79.6262 42.7315 84.2081C42.9237 85.7868 42.874 87.8128 43.8055 89.1547C44.6442 90.3618 45.9205 90.7597 47.3227 90.7958C54.0486 90.9603 60.7845 90.9176 67.5105 90.9801C68.2963 90.9865 69.0917 91.0328 69.8774 91.003C72.0355 90.9209 73.408 89.4738 73.7459 87.4311C74.3891 83.5008 74.8465 79.5341 75.3636 75.5872C76.0431 70.4037 76.7028 65.2172 77.356 60.0303C77.6875 57.3727 78.208 54.6625 78.3371 51.9853C78.3934 50.8043 76.5438 50.8076 76.4839 51.9853C76.3878 53.9488 76.0135 55.9354 75.7713 57.8858C75.2509 62.0597 74.7238 66.2333 74.1869 70.4037C73.6332 74.6961 73.0764 78.9883 72.4862 83.2771C72.2907 84.7013 72.3835 87.0992 71.5482 88.3159C70.8553 89.3255 69.6785 89.1646 68.6343 89.1547C62.0509 89.0955 55.4674 89.0362 48.8839 88.9737C48.2408 88.9673 47.5415 89.0395 46.9017 88.9574C44.6177 88.6579 44.8 85.9741 44.5847 84.2081C44.0707 79.9716 43.6099 75.7255 43.1425 71.4828C42.0753 61.7734 41.2 52.0082 39.7247 42.3517C39.5459 41.1906 37.7591 41.6841 37.938 42.8417Z" fill="#A9D4FF"/>
<path d="M72.1501 23.3971C72.1437 23.4136 72.1834 23.3675 72.0009 23.5748C71.8021 23.8016 71.5933 24.0221 71.3911 24.2489C70.7346 24.9758 70.085 25.7093 69.4585 26.4593C67.7149 28.5476 66.0904 30.7547 64.7546 33.126C61.8772 38.2341 60.2795 44.595 63.9856 49.7424C67.0452 53.9919 72.6044 54.8338 77.2983 52.9525C79.2309 52.1796 81.0905 50.979 82.2971 49.2588C83.8884 46.9861 83.8354 43.7595 83.4275 41.1446C82.3568 34.3299 77.9812 28.3735 73.6187 23.2129C72.8463 22.2986 71.5303 23.6142 72.2992 24.5219C75.737 28.5906 79.0188 33.0373 80.7458 38.1156C81.6873 40.8815 82.3272 44.253 81.336 47.1046C80.7591 48.7689 79.1879 49.956 77.6763 50.7487C73.5756 52.8999 68.1358 52.5513 65.3844 48.4959C62.1758 43.7662 64.0086 38.0728 66.6574 33.557C68.0032 31.2678 69.6009 29.1332 71.3314 27.117C72.0573 26.2717 73.2707 25.3508 73.7612 24.3311C74.2785 23.2623 72.6672 22.3216 72.1501 23.3971Z" fill="#A9D4FF"/>
<path d="M67.511 40.3191C66.7386 42.8318 67.554 45.6112 69.6193 47.2751C70.5441 48.0186 71.8733 46.7163 70.9387 45.9663C69.3575 44.6966 68.7143 42.7562 69.3108 40.8126C69.6624 39.6679 67.859 39.1778 67.511 40.3191Z" fill="#A9D4FF"/>
<path d="M40.3614 59.3073L43.5723 57.5012C45.5515 56.388 48.0067 56.5383 49.833 57.8844C51.5384 59.1414 53.8036 59.3623 55.7228 58.4588L56.627 58.0334C58.8654 56.9796 61.4864 57.1054 63.6121 58.3685L64.0407 58.6231C66.2283 59.923 68.8947 60.1593 71.28 59.2648L76.8181 57.1876" stroke="#A9D4FF" stroke-width="2.09778"/>
<path d="M49.1108 57.8964L50.7849 74.6623" stroke="#A9D4FF" stroke-width="2.09778" stroke-linecap="round" stroke-linejoin="round"/>
</svg>
