<svg width="122" height="122" viewBox="0 0 122 122" fill="none" xmlns="http://www.w3.org/2000/svg">
<path fill-rule="evenodd" clip-rule="evenodd" d="M59.3759 45.635C52.0161 46.5735 46.3319 52.9041 46.3319 60.5643C46.3319 68.2246 52.0161 74.5551 59.3759 75.4937V74.0591C52.8112 73.1301 47.7534 67.4464 47.7534 60.5643C47.7534 53.6822 52.8112 47.9986 59.3759 47.0695V45.635ZM53.6405 35.6419C53.6025 35.2512 53.2549 34.9653 52.8642 35.0034C52.4735 35.0415 52.1876 35.3891 52.2257 35.7798L52.6914 40.5593C52.7295 40.95 53.0771 41.2358 53.4678 41.1978C53.8585 41.1597 54.1443 40.8121 54.1063 40.4214L53.6405 35.6419ZM39.8929 42.7991C39.5842 42.5566 39.1373 42.6103 38.8949 42.919C38.6524 43.2277 38.706 43.6745 39.0147 43.917L43.3172 47.2966C43.6259 47.5391 44.0727 47.4854 44.3152 47.1767C44.5577 46.868 44.504 46.4212 44.1953 46.1787L39.8929 42.7991ZM34.7108 59.8536C34.3182 59.8536 34 60.1718 34 60.5643C34 60.9569 34.3182 61.2751 34.7108 61.2751H39.4538C39.8463 61.2751 40.1646 60.9569 40.1646 60.5643C40.1646 60.1718 39.8463 59.8536 39.4538 59.8536H34.7108ZM44.2284 74.4783C44.5218 74.2175 44.5483 73.7683 44.2875 73.4748C44.0267 73.1814 43.5775 73.1549 43.2841 73.4157L38.9816 77.2393C38.6882 77.5001 38.6618 77.9493 38.9225 78.2428C39.1833 78.5362 39.6325 78.5627 39.9259 78.3019L44.2284 74.4783ZM54.0697 81.9999C54.1994 81.6294 54.0042 81.2239 53.6337 81.0942C53.2632 80.9645 52.8577 81.1597 52.728 81.5302L51.1148 86.1389C50.9851 86.5094 51.1803 86.9149 51.5508 87.0446C51.9213 87.1743 52.3268 86.9791 52.4565 86.6086L54.0697 81.9999Z" fill="#A9D4FF"/>
<path d="M59.3759 45.635H59.9759C59.9759 45.4626 59.9018 45.2986 59.7725 45.1847C59.6431 45.0708 59.471 45.018 59.3 45.0398L59.3759 45.635ZM59.3759 75.4937L59.3 76.0889C59.471 76.1107 59.6431 76.0579 59.7725 75.944C59.9018 75.8301 59.9759 75.6661 59.9759 75.4937H59.3759ZM59.3759 74.0591H59.9759C59.9759 73.7602 59.756 73.5069 59.46 73.465L59.3759 74.0591ZM59.3759 47.0695L59.46 47.6636C59.756 47.6217 59.9759 47.3684 59.9759 47.0695H59.3759ZM52.8642 35.0034L52.806 34.4062L52.806 34.4062L52.8642 35.0034ZM53.6405 35.6419L53.0434 35.7001V35.7001L53.6405 35.6419ZM52.2257 35.7798L52.8229 35.7216V35.7216L52.2257 35.7798ZM52.6914 40.5593L52.0943 40.6175V40.6175L52.6914 40.5593ZM53.4678 41.1978L53.4096 40.6006H53.4096L53.4678 41.1978ZM54.1063 40.4214L54.7034 40.3632V40.3632L54.1063 40.4214ZM38.8949 42.919L38.423 42.5484L38.423 42.5484L38.8949 42.919ZM39.8929 42.7991L39.5222 43.2709L39.8929 42.7991ZM39.0147 43.917L39.3854 43.4452H39.3854L39.0147 43.917ZM43.3172 47.2966L43.6878 46.8248L43.3172 47.2966ZM44.3152 47.1767L44.787 47.5474H44.787L44.3152 47.1767ZM44.1953 46.1787L44.5659 45.7069L44.1953 46.1787ZM44.2875 73.4748L43.839 73.8734H43.839L44.2875 73.4748ZM44.2284 74.4783L44.627 74.9268L44.627 74.9268L44.2284 74.4783ZM43.2841 73.4157L43.6826 73.8642L43.6826 73.8642L43.2841 73.4157ZM38.9816 77.2393L39.3802 77.6878H39.3802L38.9816 77.2393ZM38.9225 78.2428L38.474 78.6413L38.474 78.6413L38.9225 78.2428ZM39.9259 78.3019L39.5274 77.8534L39.5274 77.8534L39.9259 78.3019ZM53.6337 81.0942L53.4355 81.6605L53.6337 81.0942ZM54.0697 81.9999L53.5034 81.8017L54.0697 81.9999ZM52.728 81.5302L52.1617 81.332L52.728 81.5302ZM51.1148 86.1389L51.6811 86.3372L51.1148 86.1389ZM51.5508 87.0446L51.7491 86.4783L51.5508 87.0446ZM52.4565 86.6086L53.0228 86.8068L52.4565 86.6086ZM46.9319 60.5643C46.9319 53.2063 52.3914 47.1305 59.4518 46.2302L59.3 45.0398C51.6409 46.0165 45.7319 52.6019 45.7319 60.5643H46.9319ZM59.4518 74.8985C52.3914 73.9981 46.9319 67.9223 46.9319 60.5643H45.7319C45.7319 68.5268 51.6409 75.1121 59.3 76.0889L59.4518 74.8985ZM59.9759 75.4937V74.0591H58.7759V75.4937H59.9759ZM47.1534 60.5643C47.1534 67.7461 52.432 73.6824 59.2919 74.6532L59.46 73.465C53.1905 72.5778 48.3534 67.1468 48.3534 60.5643H47.1534ZM59.2919 46.4755C52.432 47.4463 47.1534 53.3825 47.1534 60.5643H48.3534C48.3534 53.9819 53.1905 48.5509 59.46 47.6636L59.2919 46.4755ZM59.9759 47.0695V45.635H58.7759V47.0695H59.9759ZM52.9224 35.6006C52.9833 35.5946 53.0374 35.6392 53.0434 35.7001L54.2377 35.5837C54.1675 34.8632 53.5265 34.336 52.806 34.4062L52.9224 35.6006ZM52.8229 35.7216C52.8169 35.6607 52.8615 35.6065 52.9224 35.6006L52.806 34.4062C52.0855 34.4764 51.5583 35.1174 51.6285 35.8379L52.8229 35.7216ZM53.2886 40.5011L52.8229 35.7216L51.6285 35.8379L52.0943 40.6175L53.2886 40.5011ZM53.4096 40.6006C53.3487 40.6065 53.2945 40.562 53.2886 40.5011L52.0943 40.6175C52.1645 41.338 52.8055 41.8651 53.526 41.7949L53.4096 40.6006ZM53.5091 40.4796C53.515 40.5405 53.4705 40.5946 53.4096 40.6006L53.526 41.7949C54.2465 41.7247 54.7737 41.0837 54.7034 40.3632L53.5091 40.4796ZM53.0434 35.7001L53.5091 40.4796L54.7034 40.3632L54.2377 35.5837L53.0434 35.7001ZM39.3667 43.2896C39.4045 43.2415 39.4741 43.2332 39.5222 43.2709L40.2635 42.3273C39.6942 41.8801 38.8702 41.9791 38.423 42.5484L39.3667 43.2896ZM39.3854 43.4452C39.3373 43.4074 39.3289 43.3377 39.3667 43.2896L38.423 42.5484C37.9758 43.1176 38.0748 43.9417 38.6441 44.3888L39.3854 43.4452ZM43.6878 46.8248L39.3854 43.4452L38.6441 44.3888L42.9465 47.7685L43.6878 46.8248ZM43.8433 46.8061C43.8055 46.8542 43.7359 46.8626 43.6878 46.8248L42.9465 47.7685C43.5158 48.2156 44.3398 48.1167 44.787 47.5474L43.8433 46.8061ZM43.8247 46.6506C43.8728 46.6884 43.8811 46.758 43.8433 46.8061L44.787 47.5474C45.2342 46.9781 45.1352 46.1541 44.5659 45.7069L43.8247 46.6506ZM39.5222 43.2709L43.8247 46.6506L44.5659 45.7069L40.2635 42.3273L39.5222 43.2709ZM34.6 60.5643C34.6 60.5032 34.6496 60.4536 34.7108 60.4536V59.2536C33.9868 59.2536 33.4 59.8404 33.4 60.5643H34.6ZM34.7108 60.6751C34.6496 60.6751 34.6 60.6255 34.6 60.5643H33.4C33.4 61.2882 33.9868 61.8751 34.7108 61.8751V60.6751ZM39.4538 60.6751H34.7108V61.8751H39.4538V60.6751ZM39.5646 60.5643C39.5646 60.6255 39.515 60.6751 39.4538 60.6751V61.8751C40.1777 61.8751 40.7646 61.2882 40.7646 60.5643H39.5646ZM39.4538 60.4536C39.515 60.4536 39.5646 60.5032 39.5646 60.5643H40.7646C40.7646 59.8404 40.1777 59.2536 39.4538 59.2536V60.4536ZM34.7108 60.4536H39.4538V59.2536H34.7108V60.4536ZM43.839 73.8734C43.8797 73.9191 43.8755 73.9892 43.8298 74.0298L44.627 74.9268C45.1681 74.4459 45.2169 73.6174 44.736 73.0763L43.839 73.8734ZM43.6826 73.8642C43.7284 73.8236 43.7984 73.8277 43.839 73.8734L44.736 73.0763C44.2551 72.5352 43.4266 72.4863 42.8855 72.9672L43.6826 73.8642ZM39.3802 77.6878L43.6826 73.8642L42.8855 72.9672L38.5831 76.7908L39.3802 77.6878ZM39.371 77.8442C39.3304 77.7985 39.3345 77.7285 39.3802 77.6878L38.5831 76.7908C38.042 77.2717 37.9931 78.1002 38.474 78.6413L39.371 77.8442ZM39.5274 77.8534C39.4816 77.894 39.4116 77.8899 39.371 77.8442L38.474 78.6413C38.9549 79.1825 39.7834 79.2313 40.3245 78.7504L39.5274 77.8534ZM43.8298 74.0298L39.5274 77.8534L40.3245 78.7504L44.627 74.9268L43.8298 74.0298ZM53.4355 81.6605C53.4932 81.6807 53.5236 81.7439 53.5034 81.8017L54.636 82.1981C54.8752 81.5148 54.5152 80.7671 53.8319 80.5279L53.4355 81.6605ZM53.2943 81.7285C53.3145 81.6707 53.3777 81.6403 53.4355 81.6605L53.8319 80.5279C53.1486 80.2887 52.4009 80.6488 52.1617 81.332L53.2943 81.7285ZM51.6811 86.3372L53.2943 81.7285L52.1617 81.332L50.5485 85.9407L51.6811 86.3372ZM51.7491 86.4783C51.6913 86.4581 51.6609 86.3949 51.6811 86.3372L50.5485 85.9407C50.3093 86.624 50.6694 87.3718 51.3526 87.6109L51.7491 86.4783ZM51.8902 86.4103C51.87 86.4681 51.8068 86.4985 51.7491 86.4783L51.3526 87.6109C52.0359 87.8501 52.7837 87.4901 53.0228 86.8068L51.8902 86.4103ZM53.5034 81.8017L51.8902 86.4103L53.0228 86.8068L54.636 82.1981L53.5034 81.8017Z" fill="#AAD5FF"/>
<path fill-rule="evenodd" clip-rule="evenodd" d="M67.4272 36.121C67.4272 35.7284 67.109 35.4102 66.7164 35.4102C66.3239 35.4102 66.0057 35.7284 66.0057 36.121V45.2758V60.5703V75.8647V83.8423C66.0057 84.2348 66.3239 84.553 66.7164 84.553C67.109 84.553 67.4272 84.2348 67.4272 83.8423V77.59L71.9036 82.1008C72.1801 82.3794 72.6301 82.3812 72.9087 82.1047C73.1874 81.8282 73.1891 81.3781 72.9126 81.0995L67.4272 75.5719V61.8061L79.2493 68.6841L81.257 76.2349C81.3579 76.6143 81.7472 76.8401 82.1266 76.7392C82.506 76.6383 82.7317 76.249 82.6308 75.8696L80.7295 68.7191L87.8209 66.8042C88.1998 66.7019 88.4241 66.3117 88.3218 65.9328C88.2194 65.5538 87.8293 65.3295 87.4503 65.4319L79.9618 67.454L68.1298 60.5703L79.9618 53.6865L87.4503 55.7086C87.8293 55.8109 88.2194 55.5867 88.3218 55.2077C88.4241 54.8287 88.1998 54.4385 87.8209 54.3362L80.7295 52.4214L82.6308 45.2708C82.7317 44.8914 82.506 44.5021 82.1266 44.4013C81.7472 44.3004 81.3579 44.5262 81.257 44.9055L79.2493 52.4564L67.4272 59.3344V45.5686L72.9126 40.041C73.1891 39.7624 73.1874 39.3124 72.9087 39.0359C72.6301 38.7593 72.1801 38.7611 71.9036 39.0397L67.4272 43.5505V36.121Z" fill="#A9D4FF"/>
<path d="M67.4272 77.59L67.8531 77.1674C67.6819 76.9948 67.4234 76.9426 67.1987 77.0352C66.9739 77.1278 66.8272 77.3469 66.8272 77.59H67.4272ZM71.9036 82.1008L72.3295 81.6782L71.9036 82.1008ZM72.9087 82.1047L73.3314 82.5306L73.3314 82.5306L72.9087 82.1047ZM72.9126 81.0995L73.3385 80.6769L72.9126 81.0995ZM67.4272 75.5719H66.8272C66.8272 75.7302 66.8898 75.8822 67.0013 75.9945L67.4272 75.5719ZM67.4272 61.8061L67.7289 61.2875C67.5433 61.1795 67.3142 61.1789 67.1281 61.286C66.9419 61.393 66.8272 61.5914 66.8272 61.8061H67.4272ZM79.2493 68.6841L79.8292 68.5299C79.7883 68.3764 79.6883 68.2454 79.551 68.1655L79.2493 68.6841ZM81.257 76.2349L81.8369 76.0808V76.0808L81.257 76.2349ZM82.1266 76.7392L81.9724 76.1593L82.1266 76.7392ZM82.6308 75.8696L83.2107 75.7155L83.2107 75.7155L82.6308 75.8696ZM80.7295 68.7191L80.5731 68.1399C80.2541 68.226 80.0648 68.5539 80.1497 68.8733L80.7295 68.7191ZM87.8209 66.8042L87.9773 67.3835L87.9773 67.3835L87.8209 66.8042ZM88.3218 65.9328L87.7425 66.0892L87.7425 66.0892L88.3218 65.9328ZM87.4503 65.4319L87.2939 64.8526L87.4503 65.4319ZM79.9618 67.454L79.66 67.9726C79.7985 68.0532 79.9635 68.075 80.1182 68.0332L79.9618 67.454ZM68.1298 60.5703L67.8281 60.0517C67.6434 60.1591 67.5298 60.3566 67.5298 60.5703C67.5298 60.7839 67.6434 60.9814 67.8281 61.0889L68.1298 60.5703ZM79.9618 53.6865L80.1182 53.1073C79.9635 53.0655 79.7985 53.0873 79.66 53.1679L79.9618 53.6865ZM87.4503 55.7086L87.6067 55.1293H87.6067L87.4503 55.7086ZM88.3218 55.2077L87.7425 55.0513V55.0513L88.3218 55.2077ZM87.8209 54.3362L87.6645 54.9155H87.6645L87.8209 54.3362ZM80.7295 52.4214L80.1497 52.2672C80.0648 52.5866 80.2541 52.9145 80.5731 53.0007L80.7295 52.4214ZM82.6308 45.2708L83.2107 45.425V45.425L82.6308 45.2708ZM82.1266 44.4013L82.2808 43.8214H82.2808L82.1266 44.4013ZM81.257 44.9055L80.6772 44.7513V44.7513L81.257 44.9055ZM79.2493 52.4564L79.551 52.975C79.6883 52.8952 79.7883 52.7641 79.8292 52.6106L79.2493 52.4564ZM67.4272 59.3344H66.8272C66.8272 59.5492 66.9419 59.7475 67.1281 59.8546C67.3142 59.9616 67.5433 59.961 67.7289 59.8531L67.4272 59.3344ZM67.4272 45.5686L67.0013 45.146C66.8898 45.2584 66.8272 45.4103 66.8272 45.5686H67.4272ZM72.9126 40.041L73.3385 40.4637L72.9126 40.041ZM72.9087 39.0359L72.4861 39.4617V39.4617L72.9087 39.0359ZM71.9036 39.0397L71.4777 38.6171L71.4777 38.6171L71.9036 39.0397ZM67.4272 43.5505H66.8272C66.8272 43.7936 66.9739 44.0127 67.1987 44.1053C67.4234 44.1979 67.6819 44.1457 67.8531 43.9731L67.4272 43.5505ZM66.7164 36.0102C66.7776 36.0102 66.8272 36.0598 66.8272 36.121H68.0272C68.0272 35.3971 67.4404 34.8102 66.7164 34.8102V36.0102ZM66.6057 36.121C66.6057 36.0598 66.6553 36.0102 66.7164 36.0102V34.8102C65.9925 34.8102 65.4057 35.3971 65.4057 36.121H66.6057ZM66.6057 45.2758V36.121H65.4057V45.2758H66.6057ZM66.6057 60.5703V45.2758H65.4057V60.5703H66.6057ZM66.6057 75.8647V60.5703H65.4057V75.8647H66.6057ZM66.6057 83.8423V75.8647H65.4057V83.8423H66.6057ZM66.7164 83.953C66.6553 83.953 66.6057 83.9034 66.6057 83.8423H65.4057C65.4057 84.5662 65.9925 85.153 66.7164 85.153V83.953ZM66.8272 83.8423C66.8272 83.9034 66.7776 83.953 66.7164 83.953V85.153C67.4404 85.153 68.0272 84.5662 68.0272 83.8423H66.8272ZM66.8272 77.59V83.8423H68.0272V77.59H66.8272ZM72.3295 81.6782L67.8531 77.1674L67.0013 78.0126L71.4777 82.5234L72.3295 81.6782ZM72.4861 81.6788C72.4427 81.7219 72.3725 81.7216 72.3295 81.6782L71.4777 82.5234C71.9876 83.0373 72.8175 83.0405 73.3314 82.5306L72.4861 81.6788ZM72.4867 81.5221C72.5298 81.5656 72.5295 81.6357 72.4861 81.6788L73.3314 82.5306C73.8452 82.0206 73.8484 81.1907 73.3385 80.6769L72.4867 81.5221ZM67.0013 75.9945L72.4867 81.5221L73.3385 80.6769L67.8531 75.1493L67.0013 75.9945ZM66.8272 61.8061V75.5719H68.0272V61.8061H66.8272ZM79.551 68.1655L67.7289 61.2875L67.1255 62.3247L78.9476 69.2027L79.551 68.1655ZM81.8369 76.0808L79.8292 68.5299L78.6695 68.8383L80.6772 76.3891L81.8369 76.0808ZM81.9724 76.1593C81.9133 76.1751 81.8526 76.1399 81.8369 76.0808L80.6772 76.3891C80.8632 77.0887 81.5812 77.5051 82.2808 77.319L81.9724 76.1593ZM82.051 76.0238C82.0667 76.0829 82.0315 76.1436 81.9724 76.1593L82.2808 77.319C82.9804 77.133 83.3967 76.4151 83.2107 75.7155L82.051 76.0238ZM80.1497 68.8733L82.051 76.0238L83.2107 75.7155L81.3094 68.5649L80.1497 68.8733ZM87.6645 66.225L80.5731 68.1399L80.886 69.2984L87.9773 67.3835L87.6645 66.225ZM87.7425 66.0892C87.7585 66.1482 87.7235 66.209 87.6645 66.225L87.9773 67.3835C88.6762 67.1948 89.0897 66.4752 88.901 65.7763L87.7425 66.0892ZM87.6067 66.0111C87.6658 65.9952 87.7266 66.0301 87.7425 66.0892L88.901 65.7763C88.7123 65.0775 87.9928 64.6639 87.2939 64.8526L87.6067 66.0111ZM80.1182 68.0332L87.6067 66.0111L87.2939 64.8526L79.8053 66.8747L80.1182 68.0332ZM67.8281 61.0889L79.66 67.9726L80.2635 66.9354L68.4316 60.0516L67.8281 61.0889ZM79.66 53.1679L67.8281 60.0517L68.4316 61.0889L80.2635 54.2051L79.66 53.1679ZM87.6067 55.1293L80.1182 53.1073L79.8053 54.2658L87.2939 56.2878L87.6067 55.1293ZM87.7425 55.0513C87.7266 55.1103 87.6658 55.1453 87.6067 55.1293L87.2939 56.2878C87.9928 56.4766 88.7123 56.063 88.901 55.3641L87.7425 55.0513ZM87.6645 54.9155C87.7235 54.9314 87.7585 54.9922 87.7425 55.0513L88.901 55.3641C89.0897 54.6652 88.6762 53.9457 87.9773 53.757L87.6645 54.9155ZM80.5731 53.0007L87.6645 54.9155L87.9773 53.757L80.886 51.8422L80.5731 53.0007ZM82.051 45.1166L80.1497 52.2672L81.3094 52.5756L83.2107 45.425L82.051 45.1166ZM81.9724 44.9811C82.0315 44.9968 82.0667 45.0575 82.051 45.1166L83.2107 45.425C83.3967 44.7254 82.9804 44.0074 82.2808 43.8214L81.9724 44.9811ZM81.8369 45.0597C81.8526 45.0006 81.9133 44.9654 81.9724 44.9811L82.2808 43.8214C81.5812 43.6354 80.8632 44.0517 80.6772 44.7513L81.8369 45.0597ZM79.8292 52.6106L81.8369 45.0597L80.6772 44.7513L78.6695 52.3022L79.8292 52.6106ZM67.7289 59.8531L79.551 52.975L78.9476 51.9378L67.1255 58.8158L67.7289 59.8531ZM66.8272 45.5686V59.3344H68.0272V45.5686H66.8272ZM72.4867 39.6184L67.0013 45.146L67.8531 45.9912L73.3385 40.4637L72.4867 39.6184ZM72.4861 39.4617C72.5295 39.5048 72.5298 39.575 72.4867 39.6184L73.3385 40.4637C73.8484 39.9498 73.8452 39.1199 73.3314 38.61L72.4861 39.4617ZM72.3295 39.4623C72.3725 39.4189 72.4427 39.4187 72.4861 39.4617L73.3314 38.61C72.8175 38.1 71.9876 38.1032 71.4777 38.6171L72.3295 39.4623ZM67.8531 43.9731L72.3295 39.4623L71.4777 38.6171L67.0013 43.1279L67.8531 43.9731ZM66.8272 36.121V43.5505H68.0272V36.121H66.8272Z" fill="#AAD5FF"/>
<path d="M61.0004 121C94.1375 121 121 94.1376 121 61.0003C121 27.863 94.1375 1 61.0004 1C27.8631 1 1 27.863 1 61.0003C1 94.1376 27.8631 121 61.0004 121Z" stroke="#AAD5FF" stroke-width="2" stroke-miterlimit="10"/>
</svg>
