<svg width="63" height="63" viewBox="0 0 63 63" fill="none" xmlns="http://www.w3.org/2000/svg">
<path d="M31.5602 61.8493C48.3603 61.8493 61.9793 48.2303 61.9793 31.43C61.9793 14.6298 48.3603 1.01056 31.5602 1.01056C14.7599 1.01056 1.14058 14.6298 1.14058 31.43C1.14058 48.2303 14.7599 61.8493 31.5602 61.8493Z" stroke="url(#paint0_linear_40000001_202)" stroke-width="2" stroke-miterlimit="10"/>
<path d="M41.0373 35.7499C41.7103 37.0327 41.8989 38.5145 41.5688 39.9249C41.2387 41.3352 40.412 42.5795 39.2403 43.4306C38.068 44.2818 36.6292 44.6825 35.1859 44.5589C33.7426 44.4359 32.3923 43.7973 31.381 42.7605C30.3698 43.7978 29.0195 44.4359 27.5762 44.5589C26.1329 44.682 24.6941 44.2813 23.5218 43.4306C22.3495 42.5795 21.5233 41.3352 21.1932 39.9249C20.8632 38.5145 21.0522 37.0327 21.7253 35.7499C20.4296 35.1062 19.4083 34.018 18.8482 32.6838C18.2881 31.3495 18.2266 29.8586 18.6747 28.4827C19.1228 27.107 20.0505 25.9382 21.2888 25.19C22.5271 24.4418 23.9934 24.1633 25.4197 24.4063C25.6318 22.9765 26.3509 21.6702 27.4457 20.726C28.5404 19.7818 29.9377 19.2622 31.3836 19.2622C32.8294 19.2622 34.2267 19.7813 35.322 20.7255C36.4167 21.6697 37.1359 22.9755 37.3484 24.4053C38.7747 24.1638 40.2396 24.4434 41.4773 25.1926C42.7146 25.9417 43.6412 27.1105 44.0884 28.4858C44.5355 29.8611 44.4735 31.3519 43.9134 32.6853C43.3532 34.0186 42.333 35.1062 41.0373 35.7499ZM35.9926 32.6027C35.9926 31.691 35.7225 30.8003 35.2164 30.0421C34.7103 29.2845 33.9906 28.6933 33.1484 28.3447C32.3063 27.9961 31.3795 27.9047 30.4858 28.0822C29.5917 28.2603 28.7704 28.6988 28.1263 29.3435C27.4817 29.9881 27.0425 30.8088 26.865 31.703C26.687 32.5972 26.7785 33.5234 27.1271 34.3656C27.4757 35.2077 28.0662 35.9275 28.8245 36.4341C29.5821 36.9402 30.4733 37.2108 31.385 37.2108C32.6073 37.2108 33.7791 36.7252 34.6433 35.8615C35.5074 34.9972 35.9926 33.825 35.9926 32.6027Z" stroke="url(#paint1_linear_40000001_202)" stroke-width="2" stroke-miterlimit="10" stroke-linejoin="round"/>
<defs>
<linearGradient id="paint0_linear_40000001_202" x1="35.5878" y1="-20.4347" x2="39.1814" y2="117.59" gradientUnits="userSpaceOnUse">
<stop offset="0.167093" stop-color="#CBE5FF"/>
<stop offset="0.5" stop-color="#85B2DE"/>
<stop offset="1" stop-color="#3F7EBD"/>
</linearGradient>
<linearGradient id="paint1_linear_40000001_202" x1="33.1027" y1="10.3376" x2="34.5588" y2="67.7801" gradientUnits="userSpaceOnUse">
<stop offset="0.167093" stop-color="#CBE5FF"/>
<stop offset="0.5" stop-color="#85B2DE"/>
<stop offset="1" stop-color="#3F7EBD"/>
</linearGradient>
</defs>
</svg>
