<svg width="81" height="30" viewBox="0 0 81 30" fill="none" xmlns="http://www.w3.org/2000/svg">
<mask id="mask0_10193_592" style="mask-type:luminance" maskUnits="userSpaceOnUse" x="0" y="0" width="81" height="30">
<path d="M80.3044 0.674805H0.0703125V29.9344H80.3044V0.674805Z" fill="white"/>
</mask>
<g mask="url(#mask0_10193_592)">
<path d="M14.1251 4.83862C11.4818 4.83862 9.84045 6.56594 9.84045 9.35132C9.84045 12.1367 11.7024 13.864 14.3718 13.864C15.6393 13.864 16.8619 13.3256 17.5648 12.4545L17.647 12.3498C17.733 12.2414 17.7255 12.0769 17.6246 11.9647L17.3217 11.6619C17.2544 11.5946 17.1759 11.5647 17.1124 11.5759C17.0413 11.5759 16.9666 11.6095 16.8993 11.6768L16.802 11.7965C16.2487 12.4321 15.3215 12.8246 14.3868 12.8246C12.3641 12.8246 11.0705 11.6245 10.9172 9.6093H17.748C17.905 9.6093 18.0358 9.47844 18.0358 9.32141V9.1756C18.0358 9.11952 18.0358 9.06717 18.0433 9.00361C18.0508 8.9251 18.0508 8.85033 18.0508 8.76433C18.0358 6.45377 16.4207 4.84236 14.1251 4.84236V4.83862ZM10.9284 8.57366C11.1939 6.88373 12.3529 5.878 14.0503 5.878C14.9364 5.878 15.6767 6.15841 16.1926 6.68932C16.6488 7.15292 16.9217 7.80347 16.9815 8.57366H10.9284Z" fill="#557ABC"/>
<path d="M5.10766 4.83901C4.20288 4.83901 3.17098 5.18298 2.37462 5.74005V0.887129C2.37462 0.7301 2.24377 0.599243 2.08674 0.599243H1.61191C1.45489 0.599243 1.32403 0.7301 1.32403 0.887129V12.5297C1.32403 12.6194 1.36142 12.6979 1.42497 12.7503L1.47358 12.7914C2.32228 13.5242 3.38035 13.8794 4.71509 13.8794C7.45561 13.8794 9.29509 12.0137 9.29509 9.23581C9.29883 7.89359 8.88756 6.76448 8.10242 5.97934C7.35841 5.23532 6.32277 4.83901 5.10766 4.83901ZM8.25571 9.29563C8.25571 10.3275 7.91548 11.2136 7.27241 11.8567C6.62934 12.4998 5.75073 12.84 4.73005 12.84C4.06829 12.84 3.26819 12.7615 2.36341 12.1707V7.11592C2.8644 6.51024 4.02342 5.88587 5.10393 5.88587C7.04435 5.88587 8.25197 7.1907 8.25197 9.29189L8.25571 9.29563Z" fill="#557ABC"/>
<path d="M57.5601 17.3007C54.9168 17.3007 53.2755 19.0317 53.2755 21.8208C53.2755 24.61 55.1374 26.3335 57.8068 26.3335C59.0743 26.3335 60.2969 25.7951 60.9998 24.924L61.0783 24.8193C61.1643 24.7109 61.1568 24.5464 61.0558 24.4342L60.753 24.1239C60.6446 24.0155 60.4651 24.0005 60.3343 24.1351L60.237 24.2473C59.6837 24.8829 58.7565 25.2755 57.8218 25.2755C55.7991 25.2755 54.5055 24.0753 54.3522 22.0601H61.1942C61.3512 22.0601 61.4821 21.9293 61.4821 21.7722V21.6264C61.4821 21.5629 61.4821 21.5105 61.4895 21.447C61.497 21.3684 61.497 21.3011 61.497 21.2189C61.4708 18.9158 59.852 17.3044 57.5601 17.3044V17.3007ZM60.4128 21.0357H54.3597C54.6252 19.3458 55.7842 18.34 57.4816 18.34C58.3677 18.34 59.1079 18.6204 59.6239 19.1514C60.0875 19.6224 60.353 20.258 60.4128 21.0357Z" fill="#557ABC"/>
<path d="M75.3675 17.3007C74.4254 17.3007 73.4159 17.6185 72.6345 18.1531V17.7269C72.6345 17.5699 72.5036 17.439 72.3466 17.439H71.883C71.726 17.439 71.5951 17.5699 71.5951 17.7269V29.4105C71.5951 29.5676 71.726 29.6984 71.883 29.6984H72.3466C72.5036 29.6984 72.6345 29.5676 72.6345 29.4105V25.7989C73.3561 26.1503 74.2272 26.3335 75.1544 26.3335C77.7491 26.3335 79.5625 24.423 79.5625 21.69C79.555 19.0242 77.9062 17.3007 75.3675 17.3007ZM75.1694 25.2867C74.1786 25.2867 73.3486 25.0511 72.6345 24.5614V19.5028C73.1243 18.9233 74.2721 18.3326 75.3675 18.3326C77.3154 18.34 78.5231 19.6449 78.5231 21.7386C78.5156 23.8248 77.136 25.2829 75.1694 25.2829V25.2867Z" fill="#557ABC"/>
<path d="M66.4954 17.3007C63.8521 17.3007 62.2108 19.0317 62.2108 21.8208C62.2108 24.61 64.0727 26.3335 66.7422 26.3335C68.0021 26.3335 69.2247 25.7951 69.9351 24.924L70.0173 24.8193C70.1033 24.7109 70.0958 24.5464 69.9949 24.4342L69.6846 24.1239C69.6322 24.0716 69.5425 24.023 69.4752 24.0379C69.4042 24.0379 69.3294 24.0716 69.2621 24.1389L69.1649 24.251C68.6115 24.8866 67.6843 25.2792 66.7496 25.2792C64.727 25.2792 63.4333 24.0791 63.2801 22.0639H70.122C70.279 22.0639 70.4099 21.933 70.4099 21.776V21.6302C70.4099 21.5741 70.4099 21.5217 70.4174 21.4582C70.4248 21.3797 70.4249 21.3049 70.4249 21.2226C70.4249 20.101 70.036 19.0915 69.3257 18.3812C68.6078 17.6895 67.6058 17.3044 66.4991 17.3044L66.4954 17.3007ZM63.31 21.0357C63.5754 19.3233 64.7083 18.34 66.4318 18.34C67.3179 18.34 68.0582 18.6204 68.5742 19.1514C69.0303 19.615 69.3032 20.2655 69.363 21.0357H63.31Z" fill="#557ABC"/>
<path d="M53.3689 24.8451C53.324 24.7778 53.2567 24.7329 53.1782 24.7217C53.0922 24.7105 53.0175 24.7292 52.9614 24.7778L52.838 24.8675C52.6286 25.0283 52.2174 25.204 51.8061 25.204C51.1518 25.204 50.8191 24.946 50.8191 23.5477V13.3409C50.8191 13.1838 50.6882 13.053 50.5312 13.053H50.0676C49.9105 13.053 49.7797 13.1838 49.7797 13.3409V23.8094C49.7797 25.4433 50.4414 26.2359 51.8061 26.2359C52.3893 26.2359 53.0062 26.0415 53.4586 25.7162L53.5708 25.6377C53.6942 25.5554 53.7316 25.3797 53.6493 25.2376L53.3726 24.8451H53.3689Z" fill="#557ABC"/>
<path d="M46.1591 21.2936L46.1217 21.2749C45.03 20.9197 44.1701 20.6393 44.1701 19.5887C44.1701 18.8784 44.8767 18.34 45.8188 18.34C46.5292 18.34 47.1312 18.5568 47.52 18.9569L47.6322 19.0728C47.7481 19.1887 47.9462 19.185 48.0509 19.0616L48.3612 18.7027C48.4547 18.598 48.4584 18.4372 48.3612 18.3176L48.279 18.2278C47.7892 17.6708 46.8134 17.2969 45.8562 17.2969C44.2261 17.2969 43.1307 18.2278 43.1307 19.6112C43.1307 21.402 44.5888 21.8843 45.759 22.2732L45.7852 22.2807C46.9405 22.6545 47.6508 22.9312 47.6508 23.821C47.6508 24.8417 46.6825 25.2978 45.7254 25.2978C45.0935 25.2978 44.1962 25.0062 43.8523 24.5351L43.7737 24.423C43.6877 24.2921 43.5083 24.2585 43.3774 24.3445L42.9849 24.6062C42.9176 24.651 42.8727 24.7183 42.8615 24.7969C42.8503 24.8754 42.8615 24.9501 42.9063 25.0137L42.9849 25.1259C43.4559 25.8512 44.7907 26.3372 45.7403 26.3372C47.5349 26.3372 48.6977 25.3427 48.6977 23.8023C48.6828 22.1124 47.2844 21.66 46.1591 21.2974V21.2936Z" fill="#557ABC"/>
<path d="M33.7832 4.97729H33.3196C33.1626 4.97729 33.0317 5.10815 33.0317 5.26518V11.4491C32.5569 12.0286 31.3829 12.8287 30.194 12.8287C28.3769 12.8287 27.5993 11.9165 27.5993 9.77414V5.26518C27.5993 5.10815 27.4684 4.97729 27.3114 4.97729H26.8478C26.6908 4.97729 26.5599 5.10815 26.5599 5.26518V9.82648C26.5599 12.5483 27.7376 13.8718 30.1603 13.8718C31.4577 13.8718 32.5382 13.2063 33.0392 12.8362V13.4456C33.0392 13.6026 33.1701 13.7335 33.3271 13.7335H33.7907C33.9477 13.7335 34.0786 13.6026 34.0786 13.4456V5.2764C34.0786 5.11189 33.9477 4.98103 33.7832 4.98103V4.97729Z" fill="#557ABC"/>
<path d="M44.9614 13.4643L48.2852 5.37356C48.3151 5.29131 48.3076 5.1941 48.259 5.10811C48.203 5.02586 48.1095 4.97725 48.0198 4.97725H47.5076C47.3879 4.97725 47.287 5.04455 47.2421 5.15297L44.4305 12.0772L40.8899 5.13428C40.8451 5.03707 40.7479 4.97351 40.632 4.97351H36.4894V3.07048C36.4894 2.91345 36.3585 2.78259 36.2015 2.78259H35.7379C35.5809 2.78259 35.45 2.91345 35.45 3.07048V10.2938C35.45 12.6156 36.4258 13.7933 38.3476 13.7933C38.9308 13.7933 39.5477 13.5989 40.0001 13.2736L40.1123 13.1951C40.2431 13.1091 40.2768 12.9296 40.1908 12.7988L39.9216 12.3912C39.8767 12.3202 39.8057 12.2791 39.7234 12.2679C39.6449 12.2566 39.5589 12.2791 39.5028 12.3239L39.3907 12.4137C39.1664 12.5819 38.7626 12.7502 38.3588 12.7502C37.039 12.7502 36.5006 11.9949 36.5006 10.1368V6.02785H40.1833L43.9258 13.3185L43.8249 13.5577C43.0397 15.472 42.4228 16.216 41.6339 16.216C41.4171 16.216 41.1591 16.145 40.789 15.9842L40.6581 15.9281C40.516 15.8608 40.3478 15.9281 40.2805 16.0739L40.0936 16.4964C40.0599 16.56 40.0562 16.646 40.0824 16.7245C40.1123 16.7955 40.1646 16.8516 40.2356 16.8852L40.374 16.9413C40.8376 17.1432 41.2601 17.2404 41.6676 17.2404C42.9799 17.2404 43.8136 16.287 44.9614 13.468V13.4643Z" fill="#557ABC"/>
<path d="M21.8467 4.83862C20.9195 4.83862 20.1493 5.07417 19.2707 5.6275L19.1435 5.70228C19.0762 5.74714 19.0351 5.80323 19.0164 5.87426C18.9977 5.94156 19.009 6.0126 19.0501 6.09859L19.2856 6.47994C19.323 6.5435 19.3828 6.58837 19.4576 6.6108C19.5324 6.62949 19.6109 6.61828 19.6745 6.58089L19.7978 6.50612C20.497 6.08737 20.9755 5.88922 21.7981 5.88922C23.6076 5.88922 23.9479 6.61454 23.9815 8.77929C23.1665 8.43158 22.3252 8.37924 21.8878 8.37924C19.8053 8.37924 18.4594 9.47844 18.4594 11.1758C18.4594 12.7461 19.6184 13.8005 21.3419 13.8005C22.4038 13.8005 23.2712 13.5088 23.9853 12.9106V13.4415C23.9853 13.5986 24.1161 13.7294 24.2731 13.7294H24.7367C24.8938 13.7294 25.0246 13.5986 25.0246 13.4415V8.36802C25.0359 7.14171 24.7517 6.22197 24.1797 5.64246C23.6562 5.11155 22.8711 4.84236 21.8504 4.84236L21.8467 4.83862ZM19.9511 10.0729C20.3661 9.65416 21.069 9.41862 21.8728 9.41862C22.6767 9.41862 23.3983 9.60556 24.0114 9.9757V11.389C23.4992 12.0694 22.7814 12.7611 21.3532 12.7611C20.2614 12.7611 19.5249 12.118 19.5249 11.1609C19.5249 10.7272 19.667 10.3608 19.9511 10.0766V10.0729Z" fill="#557ABC"/>
<path fill-rule="evenodd" clip-rule="evenodd" d="M35.3027 21.3872C35.3027 19.1701 36.8094 17.3082 38.8545 16.7698C38.4657 16.6689 38.0582 16.6128 37.6394 16.6128C35.0073 16.6128 32.8725 18.7514 32.8725 21.3872C32.8725 24.023 35.0073 26.1616 37.6394 26.1616C38.0582 26.1616 38.4657 26.1055 38.8545 26.0046C36.8094 25.4662 35.3027 23.6043 35.3027 21.3872ZM4.83545 26.1616C7.46754 26.1616 9.60238 24.023 9.60238 21.3872C9.60238 18.7514 7.46754 16.6128 4.83545 16.6128C2.20335 16.6128 0.068512 18.7514 0.068512 21.3872C0.068512 24.023 2.20335 26.1616 4.83545 26.1616ZM18.4558 16.8633C19.9401 17.4989 21.0094 19.286 21.0094 21.3872C21.0094 23.4884 19.9438 25.2718 18.4595 25.9111C18.295 26.0756 17.9772 26.1616 17.4388 26.1616C17.2818 26.1616 17.1248 26.1541 16.9678 26.1392C16.8481 26.128 16.7322 26.113 16.6126 26.0906H16.6051C14.3693 25.6943 12.6719 23.7389 12.6719 21.3872C12.6719 19.0355 14.3394 17.1175 16.5453 16.6988L16.5715 16.6913C16.8257 16.6427 17.0911 16.6165 17.3566 16.6128H17.3678C17.3902 16.6128 17.4164 16.6128 17.4388 16.6128C17.9698 16.6128 18.2875 16.6988 18.4521 16.8596L18.4558 16.8633ZM24.4416 21.3872C24.4416 18.7925 26.5091 16.6801 29.0851 16.6165V26.1579C26.5091 26.0943 24.4416 23.9819 24.4416 21.3872Z" fill="url(#paint0_linear_10193_592)"/>
</g>
<defs>
<linearGradient id="paint0_linear_10193_592" x1="10.9371" y1="21.3909" x2="45.8834" y2="21.3909" gradientUnits="userSpaceOnUse">
<stop stop-color="#F9CFD3"/>
<stop offset="0.76" stop-color="#557ABC"/>
</linearGradient>
</defs>
</svg>
