<svg width="22" height="12" viewBox="0 0 22 12" fill="none" xmlns="http://www.w3.org/2000/svg">
                    <g clip-path="url(#clip0_4677_67)">
                    <path d="M3.92303 10.396C3.42499 10.396 2.94539 10.4198 2.4658 10.3901C2.03539 10.3604 1.82018 9.98614 1.91856 9.49307C2.02924 8.92871 2.15836 8.3703 2.27519 7.80594C2.77323 5.50693 3.25898 3.20198 3.75087 0.89703C3.8677 0.344554 4.2981 0 4.88223 0C8.26401 0 11.6396 0 15.0214 0C15.6301 0 15.913 0.350495 15.7839 0.932673C15.4826 2.32871 15.1813 3.71881 14.8861 5.11485C14.5357 6.7901 14.1852 8.46535 13.8409 10.1406C13.8224 10.2178 13.7978 10.295 13.7732 10.3842C12.0885 10.3842 10.4038 10.3842 8.69442 10.3842C8.64523 9.66535 8.35009 9.07129 7.74752 8.63762C7.26792 8.29307 6.72684 8.15049 6.13041 8.18614C4.93757 8.26337 4.0706 9.11287 3.92303 10.396Z" fill="#818182"/>
                    <path d="M20.0875 10.4083C19.8784 9.00634 18.9561 8.17465 17.6649 8.18653C16.3921 8.20436 15.4637 9.0598 15.3038 10.3786C15.0394 10.3786 14.7689 10.3786 14.4614 10.3786C14.5905 9.73109 14.7197 9.08951 14.8488 8.44198C15.2116 6.67762 15.5743 4.9192 15.931 3.15485C16.0293 2.68554 16.1831 2.55485 16.6811 2.55485C17.5604 2.55485 18.4396 2.56079 19.325 2.55485C19.7186 2.54891 19.9768 2.7093 20.1305 3.06574C20.7146 4.44396 21.3295 5.81624 21.8891 7.2004C22.012 7.50337 22.0182 7.87762 21.9813 8.2103C21.9136 8.75683 21.7599 9.29743 21.6431 9.83802C21.5509 10.2717 21.3849 10.3964 20.9237 10.4024C20.6532 10.4083 20.3765 10.4083 20.0875 10.4083ZM20.6532 6.25584C20.6593 6.17267 20.6716 6.13703 20.6655 6.11327C20.315 5.28158 19.9768 4.4499 19.6017 3.62415C19.5525 3.52316 19.3619 3.42217 19.239 3.41623C18.5257 3.39841 17.8063 3.40435 17.0931 3.40435C16.8717 3.40435 16.7549 3.4994 16.7241 3.7192C16.6688 4.0697 16.6012 4.42019 16.5335 4.77069C16.4659 5.12713 16.5028 5.18059 16.8594 5.2697C17.6342 5.47168 18.415 5.6796 19.1898 5.88158C19.6632 6.01228 20.1428 6.12515 20.6532 6.25584Z" fill="#818182"/>
                    <path d="M17.7021 8.83203C18.6552 8.83797 19.3992 9.53896 19.3869 10.4301C19.3807 11.2974 18.6183 11.9924 17.6837 11.9865C16.7368 11.9805 15.9805 11.2617 15.9928 10.3825C16.0051 9.52114 16.7553 8.83203 17.7021 8.83203Z" fill="#818182"/>
                    <path d="M6.30251 8.83203C7.25555 8.83203 8.01184 9.53302 8.00569 10.4182C7.99954 11.2855 7.24325 11.9924 6.30865 11.9924C5.35561 11.9924 4.60547 11.2855 4.60547 10.4003C4.61777 9.52708 5.36176 8.83797 6.30251 8.83203Z" fill="#818182"/>
                    <path d="M1.21142 3.24799C0.89169 3.24799 0.578107 3.24205 0.258375 3.24799C0.0370229 3.25393 -0.0367613 3.15294 0.0247255 2.95096C0.0247255 2.93908 0.0308742 2.93314 0.0308742 2.92126C0.369052 1.79849 0.116956 1.9767 1.27906 1.96482C1.69717 1.95888 2.11528 1.97076 2.53954 1.96482C2.77319 1.96482 2.85927 2.04799 2.78549 2.27373C2.7117 2.49948 2.65021 2.73116 2.58873 2.9569C2.53339 3.15888 2.40427 3.24799 2.18906 3.24799C1.86318 3.24205 1.5373 3.24205 1.21142 3.24799Z" fill="#818182"/>
                    <path d="M0.854612 5.808C0.651705 5.808 0.44265 5.808 0.239743 5.808C0.0552829 5.808 -0.0369474 5.73671 0.0183907 5.55256C0.0983236 5.28523 0.15981 5.01196 0.276635 4.76246C0.325825 4.65553 0.497988 4.54266 0.620962 4.53671C1.02677 4.50701 1.43874 4.52483 1.84455 4.52483C2.05975 4.52483 2.10894 4.62582 2.04746 4.81592C1.98597 5.01196 1.92448 5.21394 1.88144 5.41592C1.8261 5.67731 1.68468 5.81394 1.40184 5.80206C1.21738 5.80206 1.03292 5.808 0.854612 5.808Z" fill="#818182"/>
                    <path d="M0.842318 7.08858C0.934548 7.08858 1.02678 7.08264 1.11901 7.08858C1.28502 7.09452 1.36496 7.17175 1.31577 7.33808C1.24198 7.59353 1.19279 7.86086 1.08212 8.10442C1.02678 8.2173 0.860764 8.35987 0.73779 8.35987C-0.147621 8.38363 -0.0615393 8.4371 0.135219 7.68858C0.135219 7.6767 0.141367 7.67076 0.141367 7.65888C0.288936 7.17175 0.2213 7.08264 0.842318 7.08858Z" fill="#818182"/>
                    </g>
                    <defs>
                    <clipPath id="clip0_4677_67">
                    <rect width="22" height="12" fill="white"/>
                    </clipPath>
                    </defs>
                    </svg>