<svg width="102" height="41" viewBox="0 0 102 41" fill="none" xmlns="http://www.w3.org/2000/svg">
<path d="M85.6955 41C87.1201 37.7911 88.703 34.5821 90.1277 31.2127C90.286 30.8918 90.286 30.5709 90.1277 30.25C87.595 24.3135 84.904 18.3769 82.3713 12.4403C82.213 12.4403 82.213 12.1194 82.0547 11.959C82.213 11.959 82.3713 11.959 82.5296 11.959C83.6377 11.959 84.5874 11.959 85.6955 11.959C86.0121 11.959 86.1703 12.1194 86.3286 12.4403C88.2282 16.9329 90.1277 21.5859 91.8689 26.0784C91.8689 26.2388 92.0272 26.3993 92.0272 26.5597C92.1855 26.2388 92.1855 26.2388 92.1855 26.0784C93.9267 21.5859 95.8263 17.0933 97.5675 12.6008C97.7258 12.2799 97.8841 12.1194 98.2007 12.1194C99.3087 12.1194 100.258 12.1194 101.367 12.1194C101.525 12.1194 101.683 12.1194 101.841 12.1194C97.7258 21.9067 93.4518 31.5336 89.3362 41.1605C88.2282 41 86.9618 41 85.6955 41Z" fill="#c1bfbd"/>
<path d="M28.5511 4.57842C26.9682 6.1829 25.3853 7.78738 23.8023 9.39186L23.644 9.23141C19.845 5.86201 13.8298 6.1829 10.189 10.1941C8.44781 12.1195 7.49802 14.3657 7.49802 16.9329C7.33973 21.9068 10.9805 26.3993 15.8876 27.2016C18.4203 27.6829 20.953 27.2016 23.1692 25.7575C24.9104 24.6344 26.0184 23.0299 26.4933 20.9441C26.4933 20.7837 26.4933 20.7837 26.4933 20.6232C26.335 20.6232 26.1767 20.6232 26.0184 20.6232C23.3274 20.6232 20.7947 20.6232 18.1037 20.6232C17.6289 20.6232 17.6289 20.6232 17.6289 20.1419C17.6289 18.3769 17.6289 16.4516 17.6289 14.6866C17.6289 14.2053 17.6289 14.2053 18.1037 14.2053C23.0108 14.2053 27.9179 14.2053 32.8251 14.2053C33.1416 14.2053 33.3 14.2053 33.3 14.5262C33.7748 18.6978 33.4582 22.709 31.2421 26.5598C29.026 30.4105 25.7018 32.8172 21.2696 33.7799C15.8876 34.9031 10.9805 33.9404 6.70655 30.2501C3.22409 27.362 1.16628 23.5113 0.691403 18.8583C0.374815 15.6493 0.849697 12.6008 2.27434 9.8732C4.96534 4.41798 9.23929 1.20902 15.0962 0.406783C20.0033 -0.235008 24.4355 1.04857 28.2345 4.41798C28.3928 4.41798 28.5511 4.57842 28.5511 4.57842Z" fill="#c1bfbd"/>
<path d="M44.8556 17.2538C44.8556 12.4404 44.8556 7.78738 44.8556 2.97394C44.8556 2.33215 44.8556 2.33215 45.4887 2.33215C48.6546 2.33215 51.8205 2.33215 55.1447 2.33215C59.102 2.33215 62.7427 5.05977 63.6925 8.91051C65.2754 14.8471 60.8432 19.0187 56.7276 19.821C56.0944 19.9814 55.4613 19.9814 54.6698 19.9814C52.7703 19.9814 50.8707 19.9814 48.9712 19.9814C48.6546 19.9814 48.4964 20.1419 48.4964 20.4627C48.4964 24.153 48.4964 27.6829 48.4964 31.3732C48.4964 32.015 48.4963 32.015 47.8631 32.015C46.9134 32.015 45.9636 32.015 45.1722 32.015C44.8556 32.015 44.6973 31.8545 44.6973 31.5336C44.6973 27.0411 44.6973 22.3881 44.6973 17.8956C44.8556 17.7351 44.8556 17.5747 44.8556 17.2538ZM48.6546 11.3172C48.6546 12.9217 48.6546 14.5262 48.6546 16.1307C48.6546 16.4516 48.8129 16.612 49.1295 16.612C51.029 16.612 53.0868 16.612 54.9863 16.612C55.3029 16.612 55.6195 16.612 55.9361 16.612C58.4688 16.2911 60.3684 13.8844 60.2101 11.1568C60.0518 8.75006 57.8357 6.5038 55.303 6.5038C53.2451 6.5038 51.1873 6.5038 49.1295 6.5038C48.8129 6.5038 48.6546 6.66424 48.6546 6.98514C48.6546 8.26872 48.6546 9.8732 48.6546 11.3172Z" fill="#c1bfbd"/>
<path d="M77.7802 20.1418C77.9385 18.2165 77.3053 16.7724 75.8807 15.6493C73.5063 13.8844 70.0238 14.3657 68.1243 16.9329C67.966 17.0933 67.966 17.2538 67.8077 17.4142C66.6997 16.7724 65.5916 15.9702 64.4835 15.3284C64.8001 15.0075 64.9584 14.6866 65.275 14.3657C66.8579 12.6008 68.7575 11.7986 71.1319 11.4777C73.0314 11.3172 74.9309 11.4777 76.8305 12.1195C79.5215 13.2426 81.1044 15.3284 81.421 18.3769C81.421 18.8583 81.5793 19.5001 81.5793 19.9814C81.5793 23.8321 81.5793 27.8433 81.5793 31.6941C81.5793 32.1754 81.5793 32.1754 81.1044 32.1754C80.1546 32.1754 79.3632 32.1754 78.4134 32.1754C78.0968 32.1754 77.9385 32.015 77.9385 31.6941C77.9385 30.8918 77.9385 30.0896 77.9385 29.2874C77.7802 29.4478 77.7802 29.4478 77.6219 29.6083C76.3556 31.3732 74.7726 32.4963 72.7148 32.6568C70.1821 32.9777 67.8077 32.3359 65.9082 30.4105C63.2172 27.8433 63.0589 22.0672 67.6494 19.821C68.7575 19.3396 69.8655 19.0187 71.1319 18.8583C73.1897 18.6978 75.2475 18.8583 77.147 19.6605C77.3053 19.9814 77.622 19.9814 77.7802 20.1418ZM73.1897 22.0672C72.8731 22.0672 72.7148 22.0672 72.5565 22.0672C70.9736 22.2277 69.5489 22.709 68.4409 23.9926C67.3328 25.2762 67.4911 27.2015 68.7575 28.1642C69.2324 28.6456 69.8656 28.9665 70.657 29.1269C73.9812 30.0896 77.7802 27.2015 77.9385 23.8321C77.9385 23.5113 77.7802 23.3508 77.6219 23.1904C76.1973 22.3881 74.7726 22.0672 73.1897 22.0672Z" fill="#c1bfbd"/>
</svg>
