<svg width="90" height="29" viewBox="0 0 90 29" fill="none" xmlns="http://www.w3.org/2000/svg">
<path d="M83.4079 1.38062C83.2496 1.38062 83.2496 1.38062 83.0913 1.38062C81.3501 1.38062 79.4506 1.38062 77.7093 1.38062C75.6515 1.38062 74.86 2.02241 74.0686 3.78733C71.5359 9.88435 68.8449 15.8209 66.3122 21.9179C65.3624 24.1642 64.4127 26.25 63.4629 28.4963C65.8373 28.4963 68.2117 28.4963 70.5861 28.4963C70.7444 28.4963 71.061 28.1754 71.061 28.0149C71.3776 27.0523 71.8525 26.0896 72.1691 25.1269C72.3273 24.6455 72.4856 24.4851 73.1188 24.4851C75.8098 24.4851 78.3425 24.4851 81.0335 24.4851C81.5084 24.4851 81.825 24.6455 81.825 25.1269C81.9833 26.25 82.2999 27.3732 82.6164 28.4963C84.8326 28.4963 87.0487 28.4963 89.2648 28.4963C87.207 19.3508 85.3074 10.3657 83.4079 1.38062ZM74.3852 18.8694C75.6515 15.5 76.9179 12.2911 78.0259 8.92166H78.1842C78.8174 12.2911 79.6089 15.5 80.242 18.8694C78.5008 18.8694 76.443 18.8694 74.3852 18.8694Z" fill="#c1bfbd"/>
<path d="M33.8611 1.38062C31.4867 1.38062 29.2706 1.38062 27.0545 1.38062C26.4213 1.38062 26.263 1.54106 25.9464 2.02241C24.0469 6.67539 22.1474 11.3284 20.2478 15.9814C19.773 17.2649 19.2981 18.3881 18.6649 19.8321C18.5066 19.3508 18.5066 19.0299 18.5066 18.8694C17.5568 14.056 16.6071 9.08211 15.6573 4.26868C15.3407 2.3433 14.0744 1.38062 12.1749 1.38062C8.37581 1.38062 4.57676 1.38062 0.936 1.38062C0.777706 1.38062 0.461116 1.38062 0.302823 1.38062C0.302823 1.70151 0.144531 1.86196 0.144531 2.18285C0.461119 2.18285 0.619413 2.3433 0.936 2.3433C2.67723 2.82464 4.41846 3.46644 6.15969 3.94778C7.74263 4.42912 8.69239 5.55226 9.00898 7.15673C10.7502 14.056 12.6497 20.7948 14.391 27.694C14.5493 28.3358 14.8658 28.4963 15.499 28.4963C17.3985 28.4963 19.2981 28.4963 21.3559 28.4963C22.1474 28.4963 22.4639 28.3358 22.6222 27.694C25.9464 19.9926 29.1123 12.4515 32.4365 4.75002C32.7531 3.62688 33.2279 2.50375 33.8611 1.38062Z" fill="#c1bfbd"/>
<path d="M60.1383 13.5746C59.0303 12.7724 57.7639 12.291 56.4976 11.4888C55.7061 11.0074 55.0729 10.6866 54.4398 10.0448C53.3317 9.08207 53.49 7.95894 54.5981 7.1567C54.9146 6.8358 55.3895 6.51491 55.8644 6.51491C56.8142 6.35446 57.9222 6.19401 58.872 6.35446C60.6132 6.51491 62.1961 6.99625 63.9374 7.31715C64.254 5.55222 64.7289 3.7873 65.2037 1.86192C62.1962 0.73879 59.1886 0.417893 56.0227 0.738789C53.49 1.05968 51.1156 1.86192 49.2161 3.4664C45.2587 6.83581 45.417 12.1306 49.6909 15.1791C50.6407 15.8209 51.9071 16.4627 53.0151 17.1045C53.9649 17.5858 54.9146 18.0672 55.7061 18.7089C56.8142 19.6716 56.6559 21.1157 55.5478 21.9179C55.0729 22.2388 54.4398 22.5597 53.8066 22.7201C51.1156 23.2015 48.4246 22.7201 46.0502 21.7574C45.7336 21.597 45.2587 21.4366 44.9421 21.2761C44.4672 23.3619 44.1507 25.2873 43.6758 27.2127C47 28.3358 50.3241 28.8172 53.8066 28.4963C56.4976 28.1754 59.1886 27.5336 61.4047 25.6082C64.8871 22.5597 64.5706 16.6231 60.1383 13.5746Z" fill="#c1bfbd"/>
<path d="M36.8687 1.38062C34.9691 10.3657 32.9113 19.3508 30.8535 28.4963C33.2279 28.4963 35.6023 28.4963 37.9767 28.4963C39.8763 19.5112 41.9341 10.5261 43.8336 1.38062C41.6175 1.38062 39.2431 1.38062 36.8687 1.38062Z" fill="#c1bfbd"/>
</svg>
