<svg width="428" height="51" viewBox="0 0 428 51" fill="none" xmlns="http://www.w3.org/2000/svg">
<rect x="0.46875" y="0.5" width="157.606" height="50.1306" rx="25.0653" fill="url(#paint0_linear_10334_35162)"/>
<path d="M47.4482 29.5864H42.1022L41.2562 31.5664H39.2222L44.4602 19.4884H45.1082L50.3462 31.5664H48.2942L47.4482 29.5864ZM44.7842 23.0344L42.7862 27.9484H46.7642L44.7842 23.0344ZM62.0301 19.6864V31.7644H61.3821L54.1461 23.5204V31.5664H52.2381V19.4884H52.9041L60.1221 27.6964V19.6864H62.0301ZM67.825 21.3964H63.829V19.6864H73.747V21.3964H69.733V31.5664H67.825V21.3964ZM75.5292 19.6864H77.4372V31.5664H75.5292V19.6864ZM79.8215 25.0504H84.2495V26.6524H79.8215V25.0504ZM93.0283 29.5864H87.6823L86.8363 31.5664H84.8023L90.0403 19.4884H90.6883L95.9263 31.5664H93.8743L93.0283 29.5864ZM90.3643 23.0344L88.3663 27.9484H92.3443L90.3643 23.0344ZM103.081 31.7644C101.917 31.7644 100.855 31.4944 99.895 30.9544C98.947 30.4144 98.197 29.6764 97.645 28.7404C97.093 27.8044 96.817 26.7664 96.817 25.6264C96.817 24.4864 97.093 23.4484 97.645 22.5124C98.197 21.5764 98.953 20.8384 99.913 20.2984C100.873 19.7584 101.929 19.4884 103.081 19.4884C104.113 19.4884 105.049 19.7044 105.889 20.1364C106.729 20.5684 107.431 21.1804 107.995 21.9724L106.609 23.1064C105.721 21.8584 104.539 21.2344 103.063 21.2344C102.235 21.2344 101.497 21.4264 100.849 21.8104C100.201 22.1824 99.697 22.7044 99.337 23.3764C98.977 24.0364 98.797 24.7804 98.797 25.6084C98.797 26.4484 98.983 27.2104 99.355 27.8944C99.727 28.5664 100.243 29.0944 100.903 29.4784C101.563 29.8624 102.319 30.0544 103.171 30.0544C103.951 30.0544 104.641 29.8984 105.241 29.5864C105.853 29.2624 106.345 28.8184 106.717 28.2544V26.9764H103.063V25.2844H108.625V28.6324C108.097 29.5804 107.341 30.3424 106.357 30.9184C105.373 31.4824 104.281 31.7644 103.081 31.7644ZM110.967 19.6864H118.779V21.3964H112.875V24.4384H117.321V26.0944H112.875V29.8564H118.995V31.5664H110.967V19.6864Z" fill="white"/>
<rect x="200.004" y="39.6328" width="28.1328" height="8.27436" transform="rotate(-90 200.004 39.6328)" fill="url(#paint1_linear_10334_35162)"/>
<rect x="218.207" y="29.7031" width="28.1328" height="8.27436" transform="rotate(180 218.207 29.7031)" fill="url(#paint2_linear_10334_35162)"/>
<rect x="250.207" y="0.5" width="177.606" height="50.1306" rx="25.0653" fill="url(#paint3_linear_10334_35162)"/>
<path d="M290.215 19.6864H292.123V24.4204H298.099V19.6864H300.007V31.5664H298.099V26.1304H292.123V31.5664H290.215V19.6864ZM308.052 26.7784V31.5664H306.144V26.7784L302.04 19.6864H304.164L307.098 24.8524L310.05 19.6864H312.156L308.052 26.7784ZM314.174 19.6864H317.9C319.196 19.6864 320.33 19.9384 321.302 20.4424C322.274 20.9344 323.024 21.6304 323.552 22.5304C324.092 23.4184 324.362 24.4444 324.362 25.6084C324.362 26.7604 324.092 27.7864 323.552 28.6864C323.024 29.5864 322.268 30.2944 321.284 30.8104C320.312 31.3144 319.184 31.5664 317.9 31.5664H314.174V19.6864ZM317.882 29.8564C318.794 29.8564 319.592 29.6764 320.276 29.3164C320.96 28.9564 321.482 28.4524 321.842 27.8044C322.214 27.1564 322.4 26.4244 322.4 25.6084C322.4 24.7684 322.214 24.0364 321.842 23.4124C321.482 22.7764 320.96 22.2844 320.276 21.9364C319.604 21.5884 318.806 21.4144 317.882 21.4144H316.082V29.8564H317.882ZM334.107 31.5664L330.723 26.9764H328.545V31.5664H326.637V19.6864H330.975C331.767 19.6864 332.469 19.8424 333.081 20.1544C333.693 20.4544 334.167 20.8804 334.503 21.4324C334.839 21.9844 335.007 22.6144 335.007 23.3224C335.007 24.1024 334.803 24.7864 334.395 25.3744C333.987 25.9624 333.429 26.3944 332.721 26.6704L336.285 31.5664H334.107ZM328.545 25.2844H330.939C331.599 25.2844 332.115 25.1044 332.487 24.7444C332.859 24.3844 333.045 23.9164 333.045 23.3404C333.045 22.7524 332.859 22.2784 332.487 21.9184C332.115 21.5584 331.599 21.3784 330.939 21.3784H328.545V25.2844ZM345.12 29.5864H339.774L338.928 31.5664H336.894L342.132 19.4884H342.78L348.018 31.5664H345.966L345.12 29.5864ZM342.456 23.0344L340.458 27.9484H344.436L342.456 23.0344ZM351.347 21.3964H347.351V19.6864H357.269V21.3964H353.255V31.5664H351.347V21.3964ZM359.051 19.6864H360.959V31.5664H359.051V19.6864ZM369.463 31.7644C368.323 31.7644 367.273 31.4944 366.313 30.9544C365.365 30.4144 364.615 29.6764 364.063 28.7404C363.511 27.8044 363.235 26.7664 363.235 25.6264C363.235 24.4864 363.511 23.4484 364.063 22.5124C364.627 21.5764 365.383 20.8384 366.331 20.2984C367.279 19.7584 368.323 19.4884 369.463 19.4884C370.591 19.4884 371.635 19.7584 372.595 20.2984C373.555 20.8384 374.311 21.5764 374.863 22.5124C375.427 23.4484 375.709 24.4864 375.709 25.6264C375.709 26.7664 375.427 27.8044 374.863 28.7404C374.311 29.6764 373.555 30.4144 372.595 30.9544C371.635 31.4944 370.591 31.7644 369.463 31.7644ZM369.481 30.0184C370.285 30.0184 371.011 29.8324 371.659 29.4604C372.307 29.0764 372.817 28.5484 373.189 27.8764C373.561 27.2044 373.747 26.4484 373.747 25.6084C373.747 24.7924 373.561 24.0484 373.189 23.3764C372.817 22.7044 372.307 22.1824 371.659 21.8104C371.011 21.4264 370.285 21.2344 369.481 21.2344C368.665 21.2344 367.933 21.4264 367.285 21.8104C366.637 22.1824 366.127 22.7044 365.755 23.3764C365.395 24.0364 365.215 24.7804 365.215 25.6084C365.215 26.4484 365.395 27.2044 365.755 27.8764C366.127 28.5484 366.637 29.0764 367.285 29.4604C367.933 29.8324 368.665 30.0184 369.481 30.0184ZM387.792 19.6864V31.7644H387.144L379.908 23.5204V31.5664H378V19.4884H378.666L385.884 27.6964V19.6864H387.792Z" fill="white"/>
<defs>
<linearGradient id="paint0_linear_10334_35162" x1="-45.0306" y1="25.3205" x2="196.069" y2="25.3205" gradientUnits="userSpaceOnUse">
<stop stop-color="#DCC2EC"/>
<stop offset="0.501875" stop-color="#93819E"/>
<stop offset="0.830053" stop-color="#DCC3ED"/>
</linearGradient>
<linearGradient id="paint1_linear_10334_35162" x1="191.882" y1="43.7296" x2="234.919" y2="43.7296" gradientUnits="userSpaceOnUse">
<stop stop-color="#DCC2EC"/>
<stop offset="0.501875" stop-color="#93819E"/>
<stop offset="0.830053" stop-color="#DCC3ED"/>
</linearGradient>
<linearGradient id="paint2_linear_10334_35162" x1="210.085" y1="33.7999" x2="253.122" y2="33.7999" gradientUnits="userSpaceOnUse">
<stop stop-color="#DCC2EC"/>
<stop offset="0.501875" stop-color="#93819E"/>
<stop offset="0.830053" stop-color="#DCC3ED"/>
</linearGradient>
<linearGradient id="paint3_linear_10334_35162" x1="198.934" y1="25.3205" x2="470.629" y2="25.3205" gradientUnits="userSpaceOnUse">
<stop stop-color="#DCC2EC"/>
<stop offset="0.501875" stop-color="#93819E"/>
<stop offset="0.830053" stop-color="#DCC3ED"/>
</linearGradient>
</defs>
</svg>
