<svg width="127" height="127" viewBox="0 0 127 127" fill="none" xmlns="http://www.w3.org/2000/svg">
<g clip-path="url(#clip0_10334_34892)">
<path d="M63.6304 124.643C97.6633 124.643 125.253 97.0541 125.253 63.0209C125.253 28.9877 97.6633 1.39844 63.6304 1.39844C29.5972 1.39844 2.00781 28.9877 2.00781 63.0209C2.00781 97.0541 29.5972 124.643 63.6304 124.643Z" stroke="url(#paint0_linear_10334_34892)" stroke-width="1.31111" stroke-miterlimit="10"/>
<path d="M42.1619 90.7378C44.7043 90.7378 46.7652 88.6767 46.7652 86.1345C46.7652 83.5921 44.7043 81.5312 42.1619 81.5312C39.6194 81.5312 37.5586 83.5921 37.5586 86.1345C37.5586 88.6767 39.6194 90.7378 42.1619 90.7378Z" stroke="url(#paint1_linear_10334_34892)" stroke-width="1.45833" stroke-miterlimit="10" stroke-linecap="round" stroke-linejoin="round"/>
<path d="M55.9744 88.898C58.5168 88.898 60.5779 86.8371 60.5779 84.2947C60.5779 81.7523 58.5168 79.6914 55.9744 79.6914C53.4319 79.6914 51.3711 81.7523 51.3711 84.2947C51.3711 86.8371 53.4319 88.898 55.9744 88.898Z" stroke="url(#paint2_linear_10334_34892)" stroke-width="1.45833" stroke-miterlimit="10" stroke-linecap="round" stroke-linejoin="round"/>
<path d="M44.0059 76.0076C46.5483 76.0076 48.6092 73.9465 48.6092 71.4043C48.6092 68.8619 46.5483 66.8008 44.0059 66.8008C41.4635 66.8008 39.4023 68.8619 39.4023 71.4043C39.4023 73.9465 41.4635 76.0076 44.0059 76.0076Z" stroke="url(#paint3_linear_10334_34892)" stroke-width="1.45833" stroke-miterlimit="10" stroke-linecap="round" stroke-linejoin="round"/>
<path d="M55.0528 68.6402C57.5952 68.6402 59.656 66.5791 59.656 64.0369C59.656 61.4944 57.5952 59.4336 55.0528 59.4336C52.5103 59.4336 50.4492 61.4944 50.4492 64.0369C50.4492 66.5791 52.5103 68.6402 55.0528 68.6402Z" stroke="url(#paint4_linear_10334_34892)" stroke-width="1.45833" stroke-miterlimit="10" stroke-linecap="round" stroke-linejoin="round"/>
<path d="M64.2598 77.8474C66.8022 77.8474 68.8631 75.7863 68.8631 73.2439C68.8631 70.7015 66.8022 68.6406 64.2598 68.6406C61.7174 68.6406 59.6562 70.7015 59.6562 73.2439C59.6562 75.7863 61.7174 77.8474 64.2598 77.8474Z" stroke="url(#paint5_linear_10334_34892)" stroke-width="1.45833" stroke-miterlimit="10" stroke-linecap="round" stroke-linejoin="round"/>
<path d="M72.5486 87.9764C75.0913 87.9764 77.1521 85.9152 77.1521 83.3728C77.1521 80.8304 75.0913 78.7695 72.5486 78.7695C70.0064 78.7695 67.9453 80.8304 67.9453 83.3728C67.9453 85.9152 70.0064 87.9764 72.5486 87.9764Z" stroke="url(#paint6_linear_10334_34892)" stroke-width="1.45833" stroke-miterlimit="10" stroke-linecap="round" stroke-linejoin="round"/>
<path d="M64.2598 100.867C66.8022 100.867 68.8631 98.8059 68.8631 96.2634C68.8631 93.721 66.8022 91.6602 64.2598 91.6602C61.7174 91.6602 59.6562 93.721 59.6562 96.2634C59.6562 98.8059 61.7174 100.867 64.2598 100.867Z" stroke="url(#paint7_linear_10334_34892)" stroke-width="1.45833" stroke-miterlimit="10" stroke-linecap="round" stroke-linejoin="round"/>
<path d="M44.9275 60.3553C47.4699 60.3553 49.531 58.2944 49.531 55.752C49.531 53.2095 47.4699 51.1484 44.9275 51.1484C42.3851 51.1484 40.3242 53.2095 40.3242 55.752C40.3242 58.2944 42.3851 60.3553 44.9275 60.3553Z" stroke="url(#paint8_linear_10334_34892)" stroke-width="1.45833" stroke-miterlimit="10" stroke-linecap="round" stroke-linejoin="round"/>
<path d="M32.0371 67.7224C34.5793 67.7224 36.6404 65.6613 36.6404 63.1192C36.6404 60.5767 34.5793 58.5156 32.0371 58.5156C29.4947 58.5156 27.4336 60.5767 27.4336 63.1192C27.4336 65.6613 29.4947 67.7224 32.0371 67.7224Z" stroke="url(#paint9_linear_10334_34892)" stroke-width="1.45833" stroke-miterlimit="10" stroke-linecap="round" stroke-linejoin="round"/>
<path d="M55.9744 48.3865C58.5168 48.3865 60.5779 46.3254 60.5779 43.783C60.5779 41.2405 58.5168 39.1797 55.9744 39.1797C53.4319 39.1797 51.3711 41.2405 51.3711 43.783C51.3711 46.3254 53.4319 48.3865 55.9744 48.3865Z" stroke="url(#paint10_linear_10334_34892)" stroke-width="1.45833" stroke-miterlimit="10" stroke-linecap="round" stroke-linejoin="round"/>
<path d="M64.2598 36.4178C66.8022 36.4178 68.8631 34.3569 68.8631 31.8145C68.8631 29.272 66.8022 27.2109 64.2598 27.2109C61.7174 27.2109 59.6562 29.272 59.6562 31.8145C59.6562 34.3569 61.7174 36.4178 64.2598 36.4178Z" stroke="url(#paint11_linear_10334_34892)" stroke-width="1.45833" stroke-miterlimit="10" stroke-linecap="round" stroke-linejoin="round"/>
<path d="M72.5486 48.3865C75.0913 48.3865 77.1521 46.3254 77.1521 43.783C77.1521 41.2405 75.0913 39.1797 72.5486 39.1797C70.0064 39.1797 67.9453 41.2405 67.9453 43.783C67.9453 46.3254 70.0064 48.3865 72.5486 48.3865Z" stroke="url(#paint12_linear_10334_34892)" stroke-width="1.45833" stroke-miterlimit="10" stroke-linecap="round" stroke-linejoin="round"/>
<path d="M87.2754 45.6248C89.8176 45.6248 91.8787 43.5637 91.8787 41.0213C91.8787 38.4791 89.8176 36.418 87.2754 36.418C84.733 36.418 82.6719 38.4791 82.6719 41.0213C82.6719 43.5637 84.733 45.6248 87.2754 45.6248Z" stroke="url(#paint13_linear_10334_34892)" stroke-width="1.45833" stroke-miterlimit="10" stroke-linecap="round" stroke-linejoin="round"/>
<path d="M73.4666 67.7224C76.009 67.7224 78.0701 65.6613 78.0701 63.1192C78.0701 60.5767 76.009 58.5156 73.4666 58.5156C70.9241 58.5156 68.8633 60.5767 68.8633 63.1192C68.8633 65.6613 70.9241 67.7224 73.4666 67.7224Z" stroke="url(#paint14_linear_10334_34892)" stroke-width="1.45833" stroke-miterlimit="10" stroke-linecap="round" stroke-linejoin="round"/>
<path d="M84.5137 60.3553C87.0561 60.3553 89.117 58.2944 89.117 55.752C89.117 53.2095 87.0561 51.1484 84.5137 51.1484C81.9713 51.1484 79.9102 53.2095 79.9102 55.752C79.9102 58.2944 81.9713 60.3553 84.5137 60.3553Z" stroke="url(#paint15_linear_10334_34892)" stroke-width="1.45833" stroke-miterlimit="10" stroke-linecap="round" stroke-linejoin="round"/>
<path d="M96.4822 68.6402C99.0244 68.6402 101.085 66.5791 101.085 64.0369C101.085 61.4944 99.0244 59.4336 96.4822 59.4336C93.9398 59.4336 91.8789 61.4944 91.8789 64.0369C91.8789 66.5791 93.9398 68.6402 96.4822 68.6402Z" stroke="url(#paint16_linear_10334_34892)" stroke-width="1.45833" stroke-miterlimit="10" stroke-linecap="round" stroke-linejoin="round"/>
<path d="M84.5137 76.9292C87.0561 76.9292 89.117 74.8684 89.117 72.3259C89.117 69.7835 87.0561 67.7227 84.5137 67.7227C81.9713 67.7227 79.9102 69.7835 79.9102 72.3259C79.9102 74.8684 81.9713 76.9292 84.5137 76.9292Z" stroke="url(#paint17_linear_10334_34892)" stroke-width="1.45833" stroke-miterlimit="10" stroke-linecap="round" stroke-linejoin="round"/>
<path d="M86.6231 91.3081C89.1655 91.3081 91.2264 89.2473 91.2264 86.7048C91.2264 84.1624 89.1655 82.1016 86.6231 82.1016C84.0806 82.1016 82.0195 84.1624 82.0195 86.7048C82.0195 89.2473 84.0806 91.3081 86.6231 91.3081Z" stroke="url(#paint18_linear_10334_34892)" stroke-width="1.45833" stroke-miterlimit="10" stroke-linecap="round" stroke-linejoin="round"/>
<path d="M64.2598 58.5115C66.8022 58.5115 68.8631 56.4504 68.8631 53.9082C68.8631 51.3658 66.8022 49.3047 64.2598 49.3047C61.7174 49.3047 59.6562 51.3658 59.6562 53.9082C59.6562 56.4504 61.7174 58.5115 64.2598 58.5115Z" stroke="url(#paint19_linear_10334_34892)" stroke-width="1.45833" stroke-miterlimit="10" stroke-linecap="round" stroke-linejoin="round"/>
<path d="M41.2442 45.6248C43.7866 45.6248 45.8474 43.5637 45.8474 41.0213C45.8474 38.4791 43.7866 36.418 41.2442 36.418C38.7017 36.418 36.6406 38.4791 36.6406 41.0213C36.6406 43.5637 38.7017 45.6248 41.2442 45.6248Z" stroke="url(#paint20_linear_10334_34892)" stroke-width="1.45833" stroke-miterlimit="10" stroke-linecap="round" stroke-linejoin="round"/>
<path d="M53.4587 46.2225C54.5451 47.1113 56.11 47.1307 57.465 47.3029C58.1328 46.969 58.7263 46.3611 58.7263 45.5626V44.6223C58.7263 44.2557 58.5282 43.9596 58.5161 43.5886C58.4962 42.9801 58.4176 41.8632 57.7803 41.5447C57.3829 41.3458 56.4336 41.5348 56.0518 41.6266C55.4866 41.7616 54.1449 41.9191 53.7858 42.4322C53.3322 43.0801 53.2604 43.7466 53.2604 44.5112C53.2604 44.9701 53.0729 45.9068 53.4587 46.2225Z" fill="#F1EDF3" fill-opacity="0.18"/>
<path d="M42.412 73.2457C43.4986 74.1348 45.0633 74.1542 46.4183 74.3263C47.0861 73.9922 47.6795 73.3846 47.6795 72.586V71.6458C47.6795 71.2791 47.4815 70.9833 47.4694 70.6121C47.4494 70.0035 47.3708 68.8866 46.7335 68.5681C46.3359 68.3693 45.3868 68.5583 45.005 68.6498C44.4398 68.7851 43.0982 68.9426 42.7391 69.4557C42.2855 70.1035 42.2134 70.7701 42.2134 71.5347C42.2134 71.9933 42.0262 72.9302 42.412 73.2457Z" fill="#F1EDF3" fill-opacity="0.8"/>
<path d="M70.9549 64.9608C72.0413 65.8496 73.6062 65.869 74.961 66.0411C75.629 65.7072 76.2225 65.0994 76.2225 64.3008V63.3606C76.2225 62.9939 76.0244 62.6981 76.0123 62.3269C75.9922 61.7185 75.9135 60.6014 75.2765 60.2829C74.8788 60.0841 73.9298 60.2733 73.5478 60.3648C72.9828 60.5001 71.6411 60.6576 71.282 61.1707C70.8284 61.8183 70.7564 62.4849 70.7564 63.2497C70.7564 63.7083 70.5691 64.645 70.9549 64.9608Z" fill="#F1EDF3" fill-opacity="0.18"/>
<path d="M70.9549 45.6246C72.0413 46.5137 73.6062 46.5331 74.961 46.7052C75.629 46.3711 76.2225 45.7635 76.2225 44.9649V44.0247C76.2225 43.658 76.0244 43.3622 76.0123 42.991C75.9922 42.3824 75.9135 41.2655 75.2765 40.947C74.8788 40.7482 73.9298 40.9372 73.5478 41.0287C72.9828 41.164 71.6411 41.3215 71.282 41.8346C70.8284 42.4824 70.7564 43.149 70.7564 43.9136C70.7564 44.3722 70.5691 45.3091 70.9549 45.6246Z" fill="#F1EDF3" fill-opacity="0.8"/>
<path d="M54.3884 86.1364C55.4751 87.0254 57.04 87.0448 58.3947 87.2169C59.0628 86.8828 59.6562 86.2752 59.6562 85.4764V84.5364C59.6562 84.1698 59.4582 83.8739 59.4458 83.5027C59.4259 82.8941 59.3473 81.7773 58.71 81.4587C58.3126 81.2599 57.3636 81.4489 56.9815 81.5404C56.4163 81.6757 55.0746 81.8332 54.7155 82.3463C54.2622 82.9942 54.1899 83.6607 54.1899 84.4253C54.1899 84.8839 54.0029 85.8209 54.3884 86.1364Z" fill="#F1EDF3" fill-opacity="0.81"/>
</g>
<defs>
<linearGradient id="paint0_linear_10334_34892" x1="-33.5718" y1="62.419" x2="154.963" y2="62.419" gradientUnits="userSpaceOnUse">
<stop stop-color="#DCC2EC"/>
<stop offset="0.501875" stop-color="#93819E"/>
<stop offset="0.830053" stop-color="#DCC3ED"/>
</linearGradient>
<linearGradient id="paint1_linear_10334_34892" x1="34.9007" y1="86.0896" x2="48.9846" y2="86.0896" gradientUnits="userSpaceOnUse">
<stop stop-color="#DCC2EC"/>
<stop offset="0.501875" stop-color="#93819E"/>
<stop offset="0.830053" stop-color="#DCC3ED"/>
</linearGradient>
<linearGradient id="paint2_linear_10334_34892" x1="48.7132" y1="84.2497" x2="62.7974" y2="84.2497" gradientUnits="userSpaceOnUse">
<stop stop-color="#DCC2EC"/>
<stop offset="0.501875" stop-color="#93819E"/>
<stop offset="0.830053" stop-color="#DCC3ED"/>
</linearGradient>
<linearGradient id="paint3_linear_10334_34892" x1="36.7444" y1="71.3592" x2="50.8287" y2="71.3592" gradientUnits="userSpaceOnUse">
<stop stop-color="#DCC2EC"/>
<stop offset="0.501875" stop-color="#93819E"/>
<stop offset="0.830053" stop-color="#DCC3ED"/>
</linearGradient>
<linearGradient id="paint4_linear_10334_34892" x1="47.7913" y1="63.9919" x2="61.8755" y2="63.9919" gradientUnits="userSpaceOnUse">
<stop stop-color="#DCC2EC"/>
<stop offset="0.501875" stop-color="#93819E"/>
<stop offset="0.830053" stop-color="#DCC3ED"/>
</linearGradient>
<linearGradient id="paint5_linear_10334_34892" x1="56.9983" y1="73.1991" x2="71.0826" y2="73.1991" gradientUnits="userSpaceOnUse">
<stop stop-color="#DCC2EC"/>
<stop offset="0.501875" stop-color="#93819E"/>
<stop offset="0.830053" stop-color="#DCC3ED"/>
</linearGradient>
<linearGradient id="paint6_linear_10334_34892" x1="65.2874" y1="83.328" x2="79.3716" y2="83.328" gradientUnits="userSpaceOnUse">
<stop stop-color="#DCC2EC"/>
<stop offset="0.501875" stop-color="#93819E"/>
<stop offset="0.830053" stop-color="#DCC3ED"/>
</linearGradient>
<linearGradient id="paint7_linear_10334_34892" x1="56.9983" y1="96.2186" x2="71.0826" y2="96.2186" gradientUnits="userSpaceOnUse">
<stop stop-color="#DCC2EC"/>
<stop offset="0.501875" stop-color="#93819E"/>
<stop offset="0.830053" stop-color="#DCC3ED"/>
</linearGradient>
<linearGradient id="paint8_linear_10334_34892" x1="37.6663" y1="55.7069" x2="51.7505" y2="55.7069" gradientUnits="userSpaceOnUse">
<stop stop-color="#DCC2EC"/>
<stop offset="0.501875" stop-color="#93819E"/>
<stop offset="0.830053" stop-color="#DCC3ED"/>
</linearGradient>
<linearGradient id="paint9_linear_10334_34892" x1="24.7757" y1="63.0741" x2="38.8599" y2="63.0741" gradientUnits="userSpaceOnUse">
<stop stop-color="#DCC2EC"/>
<stop offset="0.501875" stop-color="#93819E"/>
<stop offset="0.830053" stop-color="#DCC3ED"/>
</linearGradient>
<linearGradient id="paint10_linear_10334_34892" x1="48.7132" y1="43.7381" x2="62.7974" y2="43.7381" gradientUnits="userSpaceOnUse">
<stop stop-color="#DCC2EC"/>
<stop offset="0.501875" stop-color="#93819E"/>
<stop offset="0.830053" stop-color="#DCC3ED"/>
</linearGradient>
<linearGradient id="paint11_linear_10334_34892" x1="56.9983" y1="31.7694" x2="71.0826" y2="31.7694" gradientUnits="userSpaceOnUse">
<stop stop-color="#DCC2EC"/>
<stop offset="0.501875" stop-color="#93819E"/>
<stop offset="0.830053" stop-color="#DCC3ED"/>
</linearGradient>
<linearGradient id="paint12_linear_10334_34892" x1="65.2874" y1="43.7381" x2="79.3716" y2="43.7381" gradientUnits="userSpaceOnUse">
<stop stop-color="#DCC2EC"/>
<stop offset="0.501875" stop-color="#93819E"/>
<stop offset="0.830053" stop-color="#DCC3ED"/>
</linearGradient>
<linearGradient id="paint13_linear_10334_34892" x1="80.014" y1="40.9764" x2="94.0982" y2="40.9764" gradientUnits="userSpaceOnUse">
<stop stop-color="#DCC2EC"/>
<stop offset="0.501875" stop-color="#93819E"/>
<stop offset="0.830053" stop-color="#DCC3ED"/>
</linearGradient>
<linearGradient id="paint14_linear_10334_34892" x1="66.2054" y1="63.0741" x2="80.2896" y2="63.0741" gradientUnits="userSpaceOnUse">
<stop stop-color="#DCC2EC"/>
<stop offset="0.501875" stop-color="#93819E"/>
<stop offset="0.830053" stop-color="#DCC3ED"/>
</linearGradient>
<linearGradient id="paint15_linear_10334_34892" x1="77.2522" y1="55.7069" x2="91.3365" y2="55.7069" gradientUnits="userSpaceOnUse">
<stop stop-color="#DCC2EC"/>
<stop offset="0.501875" stop-color="#93819E"/>
<stop offset="0.830053" stop-color="#DCC3ED"/>
</linearGradient>
<linearGradient id="paint16_linear_10334_34892" x1="89.2211" y1="63.9919" x2="103.305" y2="63.9919" gradientUnits="userSpaceOnUse">
<stop stop-color="#DCC2EC"/>
<stop offset="0.501875" stop-color="#93819E"/>
<stop offset="0.830053" stop-color="#DCC3ED"/>
</linearGradient>
<linearGradient id="paint17_linear_10334_34892" x1="77.2522" y1="72.281" x2="91.3365" y2="72.281" gradientUnits="userSpaceOnUse">
<stop stop-color="#DCC2EC"/>
<stop offset="0.501875" stop-color="#93819E"/>
<stop offset="0.830053" stop-color="#DCC3ED"/>
</linearGradient>
<linearGradient id="paint18_linear_10334_34892" x1="79.3616" y1="86.6599" x2="93.4459" y2="86.6599" gradientUnits="userSpaceOnUse">
<stop stop-color="#DCC2EC"/>
<stop offset="0.501875" stop-color="#93819E"/>
<stop offset="0.830053" stop-color="#DCC3ED"/>
</linearGradient>
<linearGradient id="paint19_linear_10334_34892" x1="56.9983" y1="53.8631" x2="71.0826" y2="53.8631" gradientUnits="userSpaceOnUse">
<stop stop-color="#DCC2EC"/>
<stop offset="0.501875" stop-color="#93819E"/>
<stop offset="0.830053" stop-color="#DCC3ED"/>
</linearGradient>
<linearGradient id="paint20_linear_10334_34892" x1="33.9827" y1="40.9764" x2="48.0669" y2="40.9764" gradientUnits="userSpaceOnUse">
<stop stop-color="#DCC2EC"/>
<stop offset="0.501875" stop-color="#93819E"/>
<stop offset="0.830053" stop-color="#DCC3ED"/>
</linearGradient>
<clipPath id="clip0_10334_34892">
<rect width="126.119" height="126.119" fill="white" transform="translate(0.535156)"/>
</clipPath>
</defs>
</svg>
