<svg width="127" height="127" viewBox="0 0 127 127" fill="none" xmlns="http://www.w3.org/2000/svg">
<g clip-path="url(#clip0_10334_35105)">
<mask id="mask0_10334_35105" style="mask-type:luminance" maskUnits="userSpaceOnUse" x="0" y="0" width="127" height="126">
<path d="M126.351 0.0351562H0.484375V125.902H126.351V0.0351562Z" fill="white"/>
</mask>
<g mask="url(#mask0_10334_35105)">
<path d="M63.0522 125.089C97.0851 125.089 124.675 97.4993 124.675 63.4661C124.675 29.4332 97.0851 1.84375 63.0522 1.84375C29.019 1.84375 1.42969 29.4332 1.42969 63.4661C1.42969 97.4993 29.019 125.089 63.0522 125.089Z" stroke="url(#paint0_linear_10334_35105)" stroke-width="1.59327" stroke-miterlimit="10"/>
</g>
<g clip-path="url(#clip1_10334_35105)">
<path opacity="0.23" d="M93.299 86.043H32.5312V57.8664C34.9689 57.2522 38.5389 56.043 42.1858 56.043C50.5351 56.043 56.2741 59.6898 62.2625 59.6898C68.251 59.6898 74.5274 56.043 82.608 56.043C86.6387 56.043 91.0341 57.2522 93.299 57.8664V86.043Z" fill="#C0B0CD"/>
<path d="M42.9541 66.7466C42.9541 67.476 42.3783 68.0518 41.6489 68.0518C40.9196 68.0518 40.3438 67.476 40.3438 66.7466C40.3438 66.0172 40.9196 65.4414 41.6489 65.4414C42.3783 65.4414 42.9541 66.0172 42.9541 66.7466Z" fill="url(#paint1_linear_10334_35105)"/>
<path d="M57.5596 66.7466C57.5596 67.476 56.9838 68.0518 56.2544 68.0518C55.525 68.0518 54.9492 67.476 54.9492 66.7466C54.9492 66.0172 55.525 65.4414 56.2544 65.4414C56.9838 65.4414 57.5596 66.0172 57.5596 66.7466Z" fill="url(#paint2_linear_10334_35105)"/>
<path d="M70.8838 66.7466C70.8838 67.476 70.308 68.0518 69.5786 68.0518C68.8493 68.0518 68.2734 67.476 68.2734 66.7466C68.2734 66.0172 68.8493 65.4414 69.5786 65.4414C70.308 65.4414 70.8838 66.0172 70.8838 66.7466Z" fill="url(#paint3_linear_10334_35105)"/>
<path d="M84.9502 66.7466C84.9502 67.476 84.3744 68.0518 83.645 68.0518C82.9157 68.0518 82.3398 67.476 82.3398 66.7466C82.3398 66.0172 82.9157 65.4414 83.645 65.4414C84.3744 65.4414 84.9502 66.0172 84.9502 66.7466Z" fill="url(#paint4_linear_10334_35105)"/>
<path d="M90.1716 78.2284C90.1716 78.6698 89.8261 79.0153 89.3846 79.0153C88.9431 79.0153 88.5977 78.6698 88.5977 78.2284C88.5977 77.7869 88.9431 77.4414 89.3846 77.4414C89.8261 77.4414 90.1716 77.7869 90.1716 78.2284Z" fill="#010101"/>
<path d="M76.8747 78.2284C76.8747 78.6698 76.5292 79.0153 76.0877 79.0153C75.6463 79.0153 75.3008 78.6698 75.3008 78.2284C75.3008 77.7869 75.6463 77.4414 76.0877 77.4414C76.5292 77.4414 76.8747 77.7869 76.8747 78.2284Z" fill="#010101"/>
<path d="M63.5739 78.2284C63.5739 78.6698 63.2284 79.0153 62.7869 79.0153C62.3455 79.0153 62 78.6698 62 78.2284C62 77.7869 62.3455 77.4414 62.7869 77.4414C63.2284 77.4414 63.5739 77.7869 63.5739 78.2284Z" fill="#010101"/>
<path d="M50.2653 78.2284C50.2653 78.6698 49.9198 79.0153 49.4784 79.0153C49.0369 79.0153 48.6914 78.6698 48.6914 78.2284C48.6914 77.7869 49.0369 77.4414 49.4784 77.4414C49.9198 77.4414 50.2653 77.7869 50.2653 78.2284Z" fill="#010101"/>
<path d="M36.6989 78.2284C36.6989 78.6698 36.3534 79.0153 35.9119 79.0153C35.4705 79.0153 35.125 78.6698 35.125 78.2284C35.125 77.7869 35.4705 77.4414 35.9119 77.4414C36.3534 77.4414 36.6989 77.7869 36.6989 78.2284Z" fill="#010101"/>
<path d="M32.7805 47.9609H92.5118M32.7805 86.0416H92.5118M32.7805 57.865C35.2181 57.2508 38.27 56.0416 41.9168 56.0416C50.2661 56.0416 56.0051 59.6884 61.9936 59.6884C67.982 59.6884 74.2584 56.0416 82.3391 56.0416C86.3698 56.0416 90.2469 57.2508 92.5118 57.865M29.9206 61.0128H18.9609M18.9609 61.0128L22.8765 56.3103M18.9609 61.0128L22.8765 65.7153M29.9206 77.174H18.9609M18.9609 77.174L22.8765 72.4715M18.9609 77.174L22.8765 81.8765M95.6596 77.174H106.619M102.685 72.4715L106.6 77.174L102.685 81.8765M95.6596 61.0128H106.619M102.685 56.3103L106.6 61.0128L102.685 65.7153M42.9533 66.7517C42.9533 67.4811 42.3774 68.0569 41.6481 68.0569C40.9187 68.0569 40.3429 67.4811 40.3429 66.7517C40.3429 66.0224 40.9187 65.4465 41.6481 65.4465C42.3774 65.4465 42.9533 66.0224 42.9533 66.7517ZM57.5598 66.7517C57.5598 67.4811 56.984 68.0569 56.2546 68.0569C55.5252 68.0569 54.9494 67.4811 54.9494 66.7517C54.9494 66.0224 55.5252 65.4465 56.2546 65.4465C56.984 65.4465 57.5598 66.0224 57.5598 66.7517ZM70.8803 66.7517C70.8803 67.4811 70.3045 68.0569 69.5751 68.0569C68.8458 68.0569 68.27 67.4811 68.27 66.7517C68.27 66.0224 68.8458 65.4465 69.5751 65.4465C70.3045 65.4465 70.8803 66.0224 70.8803 66.7517ZM84.9494 66.7517C84.9494 67.4811 84.3736 68.0569 83.6442 68.0569C82.9149 68.0569 82.3391 67.4811 82.3391 66.7517C82.3391 66.0224 82.9149 65.4465 83.6442 65.4465C84.3736 65.4465 84.9494 66.0224 84.9494 66.7517ZM36.6961 78.2297C36.6961 78.6711 36.3506 79.0166 35.9091 79.0166C35.4677 79.0166 35.1222 78.6711 35.1222 78.2297C35.1222 77.7882 35.4677 77.4427 35.9091 77.4427C36.3506 77.4427 36.6961 77.7882 36.6961 78.2297ZM50.2661 78.2297C50.2661 78.6711 49.9206 79.0166 49.4792 79.0166C49.0377 79.0166 48.6922 78.6711 48.6922 78.2297C48.6922 77.7882 49.0377 77.4427 49.4792 77.4427C49.9206 77.4427 50.2661 77.7882 50.2661 78.2297ZM63.5675 78.2297C63.5675 78.6711 63.222 79.0166 62.7805 79.0166C62.3391 79.0166 61.9936 78.6711 61.9936 78.2297C61.9936 77.7882 62.3391 77.4427 62.7805 77.4427C63.222 77.4427 63.5675 77.7882 63.5675 78.2297ZM76.8688 78.2297C76.8688 78.6711 76.5233 79.0166 76.0819 79.0166C75.6404 79.0166 75.2949 78.6711 75.2949 78.2297C75.2949 77.7882 75.6404 77.4427 76.0819 77.4427C76.5233 77.4427 76.8688 77.7882 76.8688 78.2297ZM90.1701 78.2297C90.1701 78.6711 89.8247 79.0166 89.3832 79.0166C88.9417 79.0166 88.5962 78.6711 88.5962 78.2297C88.5962 77.7882 88.9417 77.4427 89.3832 77.4427C89.8247 77.4427 90.1701 77.7882 90.1701 78.2297Z" stroke="url(#paint5_linear_10334_35105)" stroke-width="1.91939" stroke-linecap="round" stroke-linejoin="round"/>
</g>
</g>
<defs>
<linearGradient id="paint0_linear_10334_35105" x1="-34.15" y1="62.8644" x2="154.385" y2="62.8644" gradientUnits="userSpaceOnUse">
<stop stop-color="#DCC2EC"/>
<stop offset="0.501875" stop-color="#93819E"/>
<stop offset="0.830053" stop-color="#DCC3ED"/>
</linearGradient>
<linearGradient id="paint1_linear_10334_35105" x1="39.5902" y1="66.7338" x2="43.5834" y2="66.7338" gradientUnits="userSpaceOnUse">
<stop stop-color="#DCC2EC"/>
<stop offset="0.501875" stop-color="#93819E"/>
<stop offset="0.830053" stop-color="#DCC3ED"/>
</linearGradient>
<linearGradient id="paint2_linear_10334_35105" x1="54.1956" y1="66.7338" x2="58.1889" y2="66.7338" gradientUnits="userSpaceOnUse">
<stop stop-color="#DCC2EC"/>
<stop offset="0.501875" stop-color="#93819E"/>
<stop offset="0.830053" stop-color="#DCC3ED"/>
</linearGradient>
<linearGradient id="paint3_linear_10334_35105" x1="67.5199" y1="66.7338" x2="71.5131" y2="66.7338" gradientUnits="userSpaceOnUse">
<stop stop-color="#DCC2EC"/>
<stop offset="0.501875" stop-color="#93819E"/>
<stop offset="0.830053" stop-color="#DCC3ED"/>
</linearGradient>
<linearGradient id="paint4_linear_10334_35105" x1="81.5863" y1="66.7338" x2="85.5795" y2="66.7338" gradientUnits="userSpaceOnUse">
<stop stop-color="#DCC2EC"/>
<stop offset="0.501875" stop-color="#93819E"/>
<stop offset="0.830053" stop-color="#DCC3ED"/>
</linearGradient>
<linearGradient id="paint5_linear_10334_35105" x1="-6.34519" y1="66.8153" x2="127.751" y2="66.8153" gradientUnits="userSpaceOnUse">
<stop stop-color="#DCC2EC"/>
<stop offset="0.501875" stop-color="#93819E"/>
<stop offset="0.830053" stop-color="#DCC3ED"/>
</linearGradient>
<clipPath id="clip0_10334_35105">
<rect width="126.119" height="126.119" fill="white" transform="translate(0.246094)"/>
</clipPath>
<clipPath id="clip1_10334_35105">
<rect width="89.5585" height="40" fill="white" transform="translate(18 47)"/>
</clipPath>
</defs>
</svg>
