<svg width="127" height="127" viewBox="0 0 127 127" fill="none" xmlns="http://www.w3.org/2000/svg">
<g clip-path="url(#clip0_10334_34751)">
<path d="M62.3412 125.089C96.3742 125.089 123.964 97.4993 123.964 63.4661C123.964 29.4332 96.3742 1.84375 62.3412 1.84375C28.308 1.84375 0.71875 29.4332 0.71875 63.4661C0.71875 97.4993 28.308 125.089 62.3412 125.089Z" stroke="url(#paint0_linear_10334_34751)" stroke-width="1.59327" stroke-miterlimit="10"/>
<path d="M39.0593 55.6279C38.9214 59.7107 39.2922 63.7372 40.1587 67.7252C40.3872 68.7815 42.0124 68.3331 41.7798 67.2769C40.9433 63.4268 40.6027 59.56 40.7407 55.6279C40.7794 54.5459 39.0938 54.5459 39.0593 55.6279Z" fill="url(#paint1_linear_10334_34751)"/>
<path d="M43.2726 75.5871C46.7906 78.9241 50.4594 82.3557 55.0077 84.2226C57.1288 85.0933 59.5044 85.7617 61.7763 85.1064C63.9234 84.4811 66.0057 83.1275 67.8378 81.8729C71.6879 79.2388 75.0075 75.7595 76.9088 71.4569C79.004 66.7233 79.3101 61.4724 79.5946 56.3763C79.655 55.2943 77.9737 55.2986 77.9133 56.3763C77.6633 60.8773 77.4304 65.5205 75.7879 69.7713C74.1667 73.9705 71.1706 77.4107 67.5448 80.0234C65.9969 81.1356 64.333 82.1574 62.604 82.9551C60.026 84.1491 57.4996 83.5283 55.012 82.3945C50.9596 80.545 47.6571 77.4195 44.4626 74.3886C43.6779 73.6558 42.488 74.8412 43.2726 75.5871Z" fill="url(#paint2_linear_10334_34751)"/>
<path d="M56.1959 65.7523C57.58 66.6147 59.326 66.619 60.7141 65.7696C61.6367 65.2047 60.7918 63.7477 59.8647 64.3166C58.9637 64.8684 57.9377 64.8601 57.0453 64.2995C56.127 63.726 55.2776 65.1791 56.1959 65.7523Z" fill="url(#paint3_linear_10334_34751)"/>
<path d="M51.188 72.4341C55.9649 74.3095 61.0907 74.4517 65.747 72.1539C66.717 71.6753 65.8676 70.2223 64.8977 70.7009C60.6381 72.8049 55.9689 72.5116 51.6363 70.8131C50.6276 70.4164 50.1921 72.0416 51.188 72.4341Z" fill="url(#paint4_linear_10334_34751)"/>
<path d="M70.8262 77.8409C70.4035 81.3244 69.994 84.8509 70.438 88.3561C70.8305 91.46 72.1236 94.0123 73.4299 96.8058C73.887 97.7845 75.3398 96.9309 74.8829 95.9567C73.4603 92.9173 72.1841 90.2312 71.9729 86.817C71.7873 83.8163 72.1453 80.8156 72.5075 77.8409C72.6367 76.7675 70.9553 76.7761 70.8262 77.8409Z" fill="url(#paint5_linear_10334_34751)"/>
<path d="M45.8482 78.1545C46.0249 80.0382 45.9129 81.8837 45.4862 83.7244C45.2402 84.7764 46.8657 85.229 47.1071 84.1727C47.5685 82.1853 47.7193 80.185 47.5295 78.1545C47.4303 77.0851 45.749 77.0723 45.8482 78.1545Z" fill="url(#paint6_linear_10334_34751)"/>
<path d="M65.4011 56.9155C67.3025 54.4321 70.5015 55.3504 72.7301 56.8206C73.6356 57.4199 74.4807 55.9627 73.5795 55.3678C70.4454 53.2983 66.4317 52.8198 63.9484 56.0661C63.2888 56.924 64.7502 57.7648 65.4011 56.9155Z" fill="url(#paint7_linear_10334_34751)"/>
<path d="M63.7307 52.0551C66.132 50.3436 69.2791 49.5504 71.7277 51.6413C72.5471 52.3396 73.7411 51.1585 72.9179 50.4513C69.8999 47.8733 65.9595 48.4037 62.8813 50.6024C62.006 51.2274 62.8468 52.6888 63.7307 52.0551Z" fill="url(#paint8_linear_10334_34751)"/>
<path d="M66.4852 55.2185C66.4465 55.7703 66.3903 56.3264 66.4248 56.8825C66.5197 58.3743 67.5199 58.5079 67.796 58.5641C68.0719 58.6243 68.3823 58.5855 68.5978 58.4088C68.6927 58.3312 68.7659 58.2363 68.8306 58.1371C69.4902 57.1758 69.7444 55.9471 69.5247 54.8047" fill="url(#paint9_linear_10334_34751)"/>
<path d="M66.0649 55.2175C65.9615 56.6746 65.8494 58.6061 67.6602 58.9638C69.777 59.382 70.1692 56.1099 69.9366 54.6914C69.8502 54.157 69.0397 54.3853 69.126 54.9157C69.2594 55.7477 69.0784 58.5371 67.6775 58.1059C66.5175 57.748 66.841 56.1356 66.9057 55.2175C66.9445 54.6786 66.1039 54.6828 66.0649 55.2175Z" fill="url(#paint10_linear_10334_34751)"/>
<path d="M53.204 55.7404C50.7206 52.4983 46.711 52.9725 43.5726 55.0418C42.6714 55.6369 43.5165 57.0942 44.422 56.4948C46.6465 55.0247 49.8453 54.1021 51.751 56.5897C52.3977 57.4391 53.8592 56.6026 53.204 55.7404Z" fill="url(#paint11_linear_10334_34751)"/>
<path d="M54.2632 50.2845C51.185 48.0901 47.2446 47.5554 44.2265 50.1334C43.4031 50.836 44.5973 52.0217 45.4165 51.3234C47.8611 49.2368 51.0125 50.0257 53.4138 51.7372C54.2977 52.3668 55.1382 50.9095 54.2632 50.2845Z" fill="url(#paint12_linear_10334_34751)"/>
<path d="M50.6636 54.8982C50.7024 55.4503 50.7585 56.0064 50.724 56.5624C50.6291 58.0542 49.629 58.1879 49.3531 58.2438C49.0769 58.3042 48.7668 58.2654 48.5511 58.0887C48.4561 58.0112 48.3829 57.916 48.3182 57.8171C47.6587 56.8555 47.4044 55.627 47.6242 54.4844" fill="url(#paint13_linear_10334_34751)"/>
<path d="M50.2386 54.8971C50.303 55.8154 50.6265 57.4278 49.4668 57.7857C48.0699 58.2169 47.8846 55.4275 48.0183 54.5955C48.1044 54.0651 47.2938 53.8365 47.2077 54.3712C46.9749 55.794 47.3671 59.0618 49.4839 58.6436C51.2946 58.2859 51.1826 56.3544 51.0791 54.8971C51.0404 54.3581 50.1996 54.3538 50.2386 54.8971Z" fill="url(#paint14_linear_10334_34751)"/>
<path d="M79.4892 54.7632C83.5589 56.2678 82.8045 66.162 77.9329 65.4292C76.8724 65.2696 76.4152 66.8907 77.4846 67.0501C84.6281 68.1192 86.0984 55.4185 79.9378 53.1378C78.916 52.7629 78.4805 54.3881 79.4892 54.7632Z" fill="url(#paint15_linear_10334_34751)"/>
<path d="M79.3043 61.4707C79.5457 60.3971 80.1493 59.5004 81.0805 58.9141C81.9945 58.3407 81.1495 56.8834 80.2314 57.4611C78.9423 58.2717 78.0154 59.5306 77.6791 61.0221C77.4462 62.0784 79.0671 62.527 79.3043 61.4707Z" fill="url(#paint16_linear_10334_34751)"/>
<path d="M38.4173 67.612C39.1761 67.8577 39.9564 67.8446 40.7366 67.6938C41.1852 67.6078 41.4394 67.0731 41.3229 66.6592C41.1937 66.1935 40.7366 65.9866 40.2885 66.0729C39.8011 66.1676 39.3357 66.1419 38.8657 65.9909C37.8311 65.6545 37.387 67.28 38.4173 67.612Z" fill="url(#paint17_linear_10334_34751)"/>
<path d="M38.2877 53.7851C33.7223 55.4365 33.8688 61.0667 35.5028 64.7917C35.938 65.779 37.3868 64.9253 36.9555 63.9423C35.7958 61.2996 35.3173 56.6392 38.7318 55.4063C39.745 55.0397 39.3095 53.4143 38.2877 53.7851Z" fill="url(#paint18_linear_10334_34751)"/>
<path d="M40.5369 61.6709C40.2006 60.1791 39.278 58.9204 37.9848 58.1098C37.0665 57.5321 36.2214 58.9849 37.1354 59.5626C38.0709 60.1489 38.6703 61.0501 38.9117 62.1192C39.1531 63.1712 40.774 62.7271 40.5369 61.6709Z" fill="url(#paint19_linear_10334_34751)"/>
<path d="M26.7247 77.8673C25.5695 74.3624 24.9012 70.7581 24.2415 67.1324C23.97 67.4861 23.7027 67.8438 23.431 68.1972C26.6945 67.9903 27.8543 73.7804 28.5141 76.1299C29.1132 78.251 30.9111 80.6138 32.4114 82.2002C33.157 82.9891 34.3427 81.7992 33.6011 81.0102C32.3898 79.7254 31.2172 77.9278 30.3764 76.3627C30.1481 75.9318 30.3419 76.3929 30.1566 75.7807C29.9497 75.0995 29.8029 74.4012 29.5917 73.72C28.7253 70.9479 27.0482 66.2876 23.4267 66.5159C22.849 66.5547 22.5127 67.0204 22.6163 67.5807C23.2759 71.2065 23.9441 74.8105 25.0995 78.3157C25.4401 79.3375 27.0653 78.8977 26.7247 77.8673Z" fill="url(#paint20_linear_10334_34751)"/>
<path d="M32.2907 78.9756C32.2046 77.3245 32.2864 75.656 32.3166 74.0049C32.3209 73.6942 32.3297 73.3796 32.334 73.0692C32.3426 72.5821 32.3554 72.858 32.2562 73.0823C32.4072 72.7286 32.7048 72.3751 32.9072 72.0559C33.8084 70.6419 34.7136 69.228 35.632 67.8225C36.0544 67.1801 37.1582 65.1451 37.5419 64.9641C37.2013 64.921 36.8607 64.878 36.5244 64.8304C38.2789 66.2489 36.951 69.9348 36.1279 71.5517C35.6362 72.5131 37.0892 73.3667 37.5806 72.4011C38.7489 70.1118 40.2279 65.6712 37.7143 63.6405C37.3996 63.3862 37.0633 63.3346 36.6968 63.507C35.8477 63.9121 35.1061 65.572 34.623 66.3005C33.5798 67.8827 32.558 69.4779 31.5365 71.0774C30.0878 73.3539 30.4671 76.3284 30.6094 78.9756C30.6655 80.049 32.3511 80.0575 32.2907 78.9756Z" fill="url(#paint21_linear_10334_34751)"/>
<path d="M36.4075 80.0234C36.2265 78.3854 36.3168 76.7212 36.4203 75.0829C36.4548 74.5225 36.5582 73.9445 36.5497 73.3842C36.5454 73.0134 36.2265 73.8368 36.416 73.7119C36.5497 73.6256 36.6489 73.4876 36.7825 73.397C38.9553 71.94 41.0462 69.8146 42.8828 67.952C42.443 67.8961 42.0033 67.84 41.5637 67.7841C41.9602 68.3918 42.2492 69.2152 41.9172 69.9483C41.4774 70.9268 42.9259 71.7847 43.3699 70.7974C43.9519 69.5042 43.7926 68.1333 43.0165 66.939C42.7232 66.4907 42.0896 66.3699 41.6971 66.7709C40.6754 67.8055 39.5675 68.7583 38.4724 69.7154C37.4894 70.5776 36.084 71.4398 35.2822 72.4789C34.8079 73.0954 34.8381 73.6515 34.7777 74.4405C34.6441 76.2942 34.5149 78.1782 34.7216 80.0279C34.8424 81.0885 36.528 81.0971 36.4075 80.0234Z" fill="url(#paint22_linear_10334_34751)"/>
<path d="M40.5169 81.0049C40.3316 79.7677 40.3618 78.47 40.3273 77.2242C40.31 76.6593 40.3661 76.0559 40.284 75.4952C40.172 74.7149 40.2755 75.1116 40.1161 75.353C41.2585 73.6629 42.9441 71.2228 44.6816 70.1278C44.2677 69.9596 43.8581 69.7915 43.444 69.6233C43.8624 71.4944 43.3018 73.3225 42.5 75.0081C42.2068 75.6246 41.9009 76.0601 41.8793 76.7325C41.8405 78.0604 42.1207 80.0607 42.8666 81.1731C44.0779 82.9753 45.8499 84.5489 47.3502 86.1008C48.734 87.5279 50.118 89.0841 51.7347 90.2569C52.614 90.8948 53.4548 89.4335 52.584 88.8039C51.0275 87.6744 49.6954 86.1096 48.3634 84.7299C47.0786 83.402 44.9532 81.7551 44.1167 80.0652C43.8365 79.5003 43.8365 78.6424 43.7416 78.0002C43.6769 77.5559 43.5218 77.0258 43.5389 76.5732C43.5045 76.2671 43.4959 76.3144 43.509 76.7154C43.5994 76.5472 43.6857 76.3748 43.7761 76.2066C45.1083 74.2794 45.5652 71.4083 45.0652 69.175C44.9487 68.6534 44.272 68.3946 43.8279 68.6707C42.7112 69.369 41.8576 70.5502 41.0256 71.5463C40.3487 72.3566 39.2967 73.3094 38.8313 74.2751C38.426 75.1073 38.607 76.0687 38.6329 76.9956C38.6717 78.4743 38.6674 79.9832 38.8914 81.449C39.0556 82.5181 40.6765 82.0655 40.5169 81.0049Z" fill="url(#paint23_linear_10334_34751)"/>
<path d="M26.0684 80.5627C29.0517 85.7318 33.9495 90.6296 38.6959 94.1647C39.8599 95.0312 41.3129 96.1952 42.7486 96.5703C43.503 96.7686 43.141 96.4366 43.3867 97.0833C43.5848 97.5963 43.6581 98.1871 43.7789 98.7216C44.5075 101.985 44.1253 100.076 44.552 103.392C44.6857 104.452 46.3713 104.465 46.2333 103.392C45.8152 100.128 46.2321 102.106 45.5381 98.894C45.344 97.9973 45.2621 96.7082 44.7748 95.9064C44.2056 94.9753 42.74 94.7681 41.8131 94.2294C38.4245 92.2676 35.5487 89.3835 32.9234 86.5165C30.9961 84.417 28.9614 82.1967 27.5257 79.7136C26.9825 78.7737 25.5254 79.623 26.0684 80.5627Z" fill="url(#paint24_linear_10334_34751)"/>
<path d="M49.775 88.6652C51.7798 90.5578 52.3142 92.3987 53.2713 94.8085C54.8665 98.8179 54.5421 97.9706 55.9646 102.053C56.318 103.071 57.9435 102.631 57.5855 101.605C56.1068 97.3541 56.2634 98.0637 54.6853 93.8603C53.7284 91.3165 53.0256 89.4151 50.9606 87.4707C50.176 86.7337 48.986 87.9193 49.775 88.6652Z" fill="url(#paint25_linear_10334_34751)"/>
<path d="M78.1878 52.9585C77.9463 43.9522 72.4107 33.6055 62.0121 34.5885C60.943 34.6874 60.9344 36.3733 62.0121 36.2698C71.4667 35.3774 76.2867 44.8101 76.5064 52.9585C76.5324 54.0362 78.218 54.0405 78.1878 52.9585Z" fill="url(#paint26_linear_10334_34751)"/>
<path d="M58.5891 25.7785C58.9511 28.8394 59.0933 31.9004 59.0115 34.9829C58.9813 36.0649 60.6669 36.0649 60.6929 34.9829C60.7747 31.9004 60.6367 28.8394 60.2702 25.7785C60.1453 24.7136 58.4597 24.7049 58.5891 25.7785Z" fill="url(#paint27_linear_10334_34751)"/>
<path d="M81.5933 54.716C89.1033 40.5452 78.8472 19.584 61.9601 20.2868C60.8822 20.3299 60.8736 22.0155 61.9601 21.9681C69.9013 21.6362 76.3983 26.262 79.7698 33.3023C82.7747 39.5707 83.473 47.5854 80.1449 53.8667C79.6318 54.8195 81.0846 55.6731 81.5933 54.716Z" fill="url(#paint28_linear_10334_34751)"/>
<path d="M59.5159 19.9514C55.2261 17.9941 49.488 19.835 45.569 21.8397C39.1453 25.1248 34.5323 31.1087 33.0536 38.1791C31.8508 43.9303 32.5836 49.8538 34.1141 55.4627C34.3989 56.5061 36.024 56.0621 35.7351 55.0144C33.4934 46.8015 33.1311 37.5929 38.2141 30.324C41.5078 25.6121 46.7718 22.3182 52.3936 21.2102C54.3425 20.8266 56.7911 20.5463 58.6708 21.3999C59.6453 21.8483 60.4986 20.3997 59.5159 19.9514Z" fill="url(#paint29_linear_10334_34751)"/>
<path d="M47.6468 30.5578C42.3224 34.5675 38.4552 39.9651 36.4117 46.3111C36.0796 47.346 37.7051 47.7855 38.0328 46.7594C39.9296 40.8661 43.5468 35.7357 48.4962 32.0108C49.3541 31.3684 48.5133 29.9071 47.6468 30.5578Z" fill="url(#paint30_linear_10334_34751)"/>
<path d="M57.3596 33.9767C47.142 34.1577 41.339 43.3364 37.6574 51.6915C37.2262 52.6745 38.6746 53.5324 39.1101 52.5408C42.5247 44.7892 47.7844 35.8262 57.3596 35.658C58.4373 35.6407 58.4416 33.9593 57.3596 33.9767Z" fill="url(#paint31_linear_10334_34751)"/>
<path d="M98.17 98.5925C99.3728 91.3151 95.1694 84.0725 91.0263 78.4291C88.8793 75.506 86.5082 72.7339 83.9085 70.2032C82.3737 68.7071 80.6665 66.9699 78.6964 66.0385C77.7219 65.5773 76.8683 67.0301 77.847 67.4915C79.6404 68.3409 81.1667 69.8885 82.5721 71.2507C84.9993 73.5961 87.2367 76.1527 89.2586 78.8558C93.2121 84.1326 97.6872 91.229 96.5446 98.1442C96.3721 99.2004 97.9931 99.6573 98.17 98.5925Z" fill="url(#paint32_linear_10334_34751)"/>
<path d="M92.6702 92.2034C88.2122 88.513 84.6814 83.9946 82.1766 78.7825C81.7067 77.8083 80.2582 78.6576 80.7239 79.6318C83.2845 84.9648 86.9276 89.6209 91.4802 93.3931C92.3079 94.0786 93.5064 92.8975 92.6702 92.2034Z" fill="url(#paint33_linear_10334_34751)"/>
<path d="M86.203 92.1573C83.4999 92.0624 80.3698 90.8983 78.4989 88.9411C76.8521 87.2208 75.826 85.0007 74.8299 82.8665C74.3687 81.8878 72.92 82.7417 73.3771 83.7159C74.6101 86.3457 75.938 89.0876 78.223 90.9761C80.331 92.7222 83.4913 93.7437 86.203 93.8386C87.2852 93.8774 87.2852 92.196 86.203 92.1573Z" fill="url(#paint34_linear_10334_34751)"/>
<path d="M80.1332 53.6646C80.7283 47.7972 81.4394 40.6404 78.2663 35.3507C77.7102 34.4238 76.2532 35.2686 76.8135 36.2C79.8011 41.1793 79.0079 48.1332 78.4518 53.6646C78.3441 54.7425 80.0254 54.7337 80.1332 53.6646Z" fill="url(#paint35_linear_10334_34751)"/>
<path opacity="0.23" d="M81.6301 37.2212C81.1514 34.6774 80.5306 32.0692 78.9786 29.9481C77.5256 27.9564 75.5384 26.3526 73.4256 25.098C68.692 22.2785 63.359 21.7568 57.9571 21.7698C53.1416 21.7826 47.9033 22.2698 43.8595 25.154C39.4878 28.2667 37.3453 33.2893 35.8148 38.2601C34.4567 42.6747 32.3615 49.2536 36.276 52.8622C36.677 54.4358 39.3715 54.2719 39.4448 52.3793C39.6432 47.1758 42.1781 42.3988 46.3385 39.2733C48.3519 37.7599 51.2275 35.3714 53.8571 35.4752C55.5945 35.5441 57.5951 35.2423 59.5221 35.0656C59.2548 32.1513 58.7634 29.254 58.6642 26.3224C58.5952 24.2487 61.8114 24.2574 61.8846 26.3224C61.9838 29.2238 62.4666 32.0908 62.7383 34.9792C65.1224 35.1819 67.0797 36.8028 69.2697 37.9885C71.6063 39.2517 73.0334 42.1013 74.1114 44.4208C75.2882 46.9557 75.7796 49.6073 76.6549 52.2328C77.3232 54.2462 79.6943 55.229 80.9792 53.1079C82.2897 50.9437 82.4664 48.0681 82.4533 45.6064C82.4405 42.791 82.1475 39.9802 81.6301 37.2212Z" fill="url(#paint36_linear_10334_34751)"/>
<path opacity="0.23" d="M82.0048 95.8617C78.8146 96.3664 75.6027 94.3702 73.9 91.6238C72.1967 88.8778 71.7572 85.5321 71.7657 82.2988C71.77 80.2424 71.9641 78.1127 72.96 76.3148C74.2058 74.06 76.6977 72.2538 76.6376 69.6756C77.0167 69.4384 77.504 69.6972 77.8748 69.9515C80.2716 71.5983 82.6344 73.2882 84.9667 75.0259C86.204 75.9485 87.4369 76.8883 88.5061 78.0004C91.649 81.2684 93.1234 85.7606 94.3435 90.128C94.7445 91.5593 95.1282 93.0294 95.0031 94.5124C94.878 95.9956 94.1494 97.5088 92.8218 98.1812C91.4549 98.8755 89.8123 98.5434 88.3208 98.1812C84.0655 97.1466 79.8492 95.974 75.6717 94.6677" fill="url(#paint37_linear_10334_34751)"/>
<path opacity="0.23" d="M57.306 76.9858C55.4956 76.4212 53.9132 74.9554 53.0638 73.0412C52.8526 72.5626 52.6802 72.0282 52.7708 71.5021C52.8828 70.8468 53.3787 70.364 53.8875 70.0319C55.5084 68.9586 57.4656 68.8292 59.3411 68.7473C59.8584 68.7257 60.38 68.704 60.8844 68.8249C61.7552 69.0361 62.5011 69.6483 63.221 70.2434C63.4582 70.4415 63.7084 70.653 63.8418 70.9546C63.9282 71.1486 63.9584 71.3684 63.9843 71.5841C64.0661 72.3169 64.0747 73.1016 63.7728 73.7569C63.4194 74.5372 62.7037 74.9987 62.0271 75.4211C61.4622 75.7702 60.8887 76.1237 60.2637 76.279C59.9274 76.3608 59.5825 76.3824 59.2419 76.3953C57.8838 76.4471 56.5174 76.3394 55.1766 76.0806" fill="url(#paint38_linear_10334_34751)"/>
</g>
<defs>
<linearGradient id="paint0_linear_10334_34751" x1="-34.8609" y1="62.8644" x2="153.675" y2="62.8644" gradientUnits="userSpaceOnUse">
<stop stop-color="#DCC2EC"/>
<stop offset="0.501875" stop-color="#93819E"/>
<stop offset="0.830053" stop-color="#DCC3ED"/>
</linearGradient>
<linearGradient id="paint1_linear_10334_34751" x1="38.2312" y1="61.5062" x2="42.4706" y2="61.5062" gradientUnits="userSpaceOnUse">
<stop stop-color="#DCC2EC"/>
<stop offset="0.501875" stop-color="#93819E"/>
<stop offset="0.830053" stop-color="#DCC3ED"/>
</linearGradient>
<linearGradient id="paint2_linear_10334_34751" x1="32.4552" y1="70.3227" x2="88.4147" y2="70.3227" gradientUnits="userSpaceOnUse">
<stop stop-color="#DCC2EC"/>
<stop offset="0.501875" stop-color="#93819E"/>
<stop offset="0.830053" stop-color="#DCC3ED"/>
</linearGradient>
<linearGradient id="paint3_linear_10334_34751" x1="54.2672" y1="65.2745" x2="62.3934" y2="65.2745" gradientUnits="userSpaceOnUse">
<stop stop-color="#DCC2EC"/>
<stop offset="0.501875" stop-color="#93819E"/>
<stop offset="0.830053" stop-color="#DCC3ED"/>
</linearGradient>
<linearGradient id="paint4_linear_10334_34751" x1="46.1358" y1="72.2165" x2="69.9239" y2="72.2165" gradientUnits="userSpaceOnUse">
<stop stop-color="#DCC2EC"/>
<stop offset="0.501875" stop-color="#93819E"/>
<stop offset="0.830053" stop-color="#DCC3ED"/>
</linearGradient>
<linearGradient id="paint5_linear_10334_34751" x1="68.8821" y1="87.0403" x2="76.1097" y2="87.0403" gradientUnits="userSpaceOnUse">
<stop stop-color="#DCC2EC"/>
<stop offset="0.501875" stop-color="#93819E"/>
<stop offset="0.830053" stop-color="#DCC3ED"/>
</linearGradient>
<linearGradient id="paint6_linear_10334_34751" x1="44.8407" y1="81.0247" x2="48.1275" y2="81.0247" gradientUnits="userSpaceOnUse">
<stop stop-color="#DCC2EC"/>
<stop offset="0.501875" stop-color="#93819E"/>
<stop offset="0.830053" stop-color="#DCC3ED"/>
</linearGradient>
<linearGradient id="paint7_linear_10334_34751" x1="60.8414" y1="55.4784" x2="76.4195" y2="55.4784" gradientUnits="userSpaceOnUse">
<stop stop-color="#DCC2EC"/>
<stop offset="0.501875" stop-color="#93819E"/>
<stop offset="0.830053" stop-color="#DCC3ED"/>
</linearGradient>
<linearGradient id="paint8_linear_10334_34751" x1="59.4275" y1="50.4518" x2="75.7706" y2="50.4518" gradientUnits="userSpaceOnUse">
<stop stop-color="#DCC2EC"/>
<stop offset="0.501875" stop-color="#93819E"/>
<stop offset="0.830053" stop-color="#DCC3ED"/>
</linearGradient>
<linearGradient id="paint9_linear_10334_34751" x1="65.4937" y1="56.6791" x2="70.3705" y2="56.6791" gradientUnits="userSpaceOnUse">
<stop stop-color="#DCC2EC"/>
<stop offset="0.501875" stop-color="#93819E"/>
<stop offset="0.830053" stop-color="#DCC3ED"/>
</linearGradient>
<linearGradient id="paint10_linear_10334_34751" x1="64.8666" y1="56.6711" x2="70.9553" y2="56.6711" gradientUnits="userSpaceOnUse">
<stop stop-color="#DCC2EC"/>
<stop offset="0.501875" stop-color="#93819E"/>
<stop offset="0.830053" stop-color="#DCC3ED"/>
</linearGradient>
<linearGradient id="paint11_linear_10334_34751" x1="40.2481" y1="55.1538" x2="55.8237" y2="55.1538" gradientUnits="userSpaceOnUse">
<stop stop-color="#DCC2EC"/>
<stop offset="0.501875" stop-color="#93819E"/>
<stop offset="0.830053" stop-color="#DCC3ED"/>
</linearGradient>
<linearGradient id="paint12_linear_10334_34751" x1="40.865" y1="50.134" x2="57.2081" y2="50.134" gradientUnits="userSpaceOnUse">
<stop stop-color="#DCC2EC"/>
<stop offset="0.501875" stop-color="#93819E"/>
<stop offset="0.830053" stop-color="#DCC3ED"/>
</linearGradient>
<linearGradient id="paint13_linear_10334_34751" x1="46.6266" y1="56.3589" x2="51.5033" y2="56.3589" gradientUnits="userSpaceOnUse">
<stop stop-color="#DCC2EC"/>
<stop offset="0.501875" stop-color="#93819E"/>
<stop offset="0.830053" stop-color="#DCC3ED"/>
</linearGradient>
<linearGradient id="paint14_linear_10334_34751" x1="45.9995" y1="56.3508" x2="52.0879" y2="56.3508" gradientUnits="userSpaceOnUse">
<stop stop-color="#DCC2EC"/>
<stop offset="0.501875" stop-color="#93819E"/>
<stop offset="0.830053" stop-color="#DCC3ED"/>
</linearGradient>
<linearGradient id="paint15_linear_10334_34751" x1="74.8735" y1="60.0294" x2="85.4793" y2="60.0294" gradientUnits="userSpaceOnUse">
<stop stop-color="#DCC2EC"/>
<stop offset="0.501875" stop-color="#93819E"/>
<stop offset="0.830053" stop-color="#DCC3ED"/>
</linearGradient>
<linearGradient id="paint16_linear_10334_34751" x1="76.5542" y1="59.6776" x2="82.3941" y2="59.6776" gradientUnits="userSpaceOnUse">
<stop stop-color="#DCC2EC"/>
<stop offset="0.501875" stop-color="#93819E"/>
<stop offset="0.830053" stop-color="#DCC3ED"/>
</linearGradient>
<linearGradient id="paint17_linear_10334_34751" x1="36.8161" y1="66.865" x2="42.1994" y2="66.865" gradientUnits="userSpaceOnUse">
<stop stop-color="#DCC2EC"/>
<stop offset="0.501875" stop-color="#93819E"/>
<stop offset="0.830053" stop-color="#DCC3ED"/>
</linearGradient>
<linearGradient id="paint18_linear_10334_34751" x1="33.0618" y1="59.4242" x2="40.4759" y2="59.4242" gradientUnits="userSpaceOnUse">
<stop stop-color="#DCC2EC"/>
<stop offset="0.501875" stop-color="#93819E"/>
<stop offset="0.830053" stop-color="#DCC3ED"/>
</linearGradient>
<linearGradient id="paint19_linear_10334_34751" x1="35.6399" y1="60.3252" x2="41.481" y2="60.3252" gradientUnits="userSpaceOnUse">
<stop stop-color="#DCC2EC"/>
<stop offset="0.501875" stop-color="#93819E"/>
<stop offset="0.830053" stop-color="#DCC3ED"/>
</linearGradient>
<linearGradient id="paint20_linear_10334_34751" x1="19.3533" y1="74.4058" x2="36.5452" y2="74.4058" gradientUnits="userSpaceOnUse">
<stop stop-color="#DCC2EC"/>
<stop offset="0.501875" stop-color="#93819E"/>
<stop offset="0.830053" stop-color="#DCC3ED"/>
</linearGradient>
<linearGradient id="paint21_linear_10334_34751" x1="27.9649" y1="71.5151" x2="41.1707" y2="71.5151" gradientUnits="userSpaceOnUse">
<stop stop-color="#DCC2EC"/>
<stop offset="0.501875" stop-color="#93819E"/>
<stop offset="0.830053" stop-color="#DCC3ED"/>
</linearGradient>
<linearGradient id="paint22_linear_10334_34751" x1="31.9841" y1="73.6069" x2="45.916" y2="73.6069" gradientUnits="userSpaceOnUse">
<stop stop-color="#DCC2EC"/>
<stop offset="0.501875" stop-color="#93819E"/>
<stop offset="0.830053" stop-color="#DCC3ED"/>
</linearGradient>
<linearGradient id="paint23_linear_10334_34751" x1="34.4188" y1="79.3799" x2="56.4175" y2="79.3799" gradientUnits="userSpaceOnUse">
<stop stop-color="#DCC2EC"/>
<stop offset="0.501875" stop-color="#93819E"/>
<stop offset="0.830053" stop-color="#DCC3ED"/>
</linearGradient>
<linearGradient id="paint24_linear_10334_34751" x1="20.0911" y1="91.6268" x2="51.1332" y2="91.6268" gradientUnits="userSpaceOnUse">
<stop stop-color="#DCC2EC"/>
<stop offset="0.501875" stop-color="#93819E"/>
<stop offset="0.830053" stop-color="#DCC3ED"/>
</linearGradient>
<linearGradient id="paint25_linear_10334_34751" x1="47.1712" y1="94.8594" x2="59.5944" y2="94.8594" gradientUnits="userSpaceOnUse">
<stop stop-color="#DCC2EC"/>
<stop offset="0.501875" stop-color="#93819E"/>
<stop offset="0.830053" stop-color="#DCC3ED"/>
</linearGradient>
<linearGradient id="paint26_linear_10334_34751" x1="56.3047" y1="44.0519" x2="82.2818" y2="44.0519" gradientUnits="userSpaceOnUse">
<stop stop-color="#DCC2EC"/>
<stop offset="0.501875" stop-color="#93819E"/>
<stop offset="0.830053" stop-color="#DCC3ED"/>
</linearGradient>
<linearGradient id="paint27_linear_10334_34751" x1="57.9661" y1="30.3327" x2="61.23" y2="30.3327" gradientUnits="userSpaceOnUse">
<stop stop-color="#DCC2EC"/>
<stop offset="0.501875" stop-color="#93819E"/>
<stop offset="0.830053" stop-color="#DCC3ED"/>
</linearGradient>
<linearGradient id="paint28_linear_10334_34751" x1="54.525" y1="37.5321" x2="89.6224" y2="37.5321" gradientUnits="userSpaceOnUse">
<stop stop-color="#DCC2EC"/>
<stop offset="0.501875" stop-color="#93819E"/>
<stop offset="0.830053" stop-color="#DCC3ED"/>
</linearGradient>
<linearGradient id="paint29_linear_10334_34751" x1="24.5146" y1="37.4069" x2="66.5807" y2="37.4069" gradientUnits="userSpaceOnUse">
<stop stop-color="#DCC2EC"/>
<stop offset="0.501875" stop-color="#93819E"/>
<stop offset="0.830053" stop-color="#DCC3ED"/>
</linearGradient>
<linearGradient id="paint30_linear_10334_34751" x1="32.7621" y1="38.786" x2="51.8653" y2="38.786" gradientUnits="userSpaceOnUse">
<stop stop-color="#DCC2EC"/>
<stop offset="0.501875" stop-color="#93819E"/>
<stop offset="0.830053" stop-color="#DCC3ED"/>
</linearGradient>
<linearGradient id="paint31_linear_10334_34751" x1="31.6336" y1="43.3861" x2="63.1335" y2="43.3861" gradientUnits="userSpaceOnUse">
<stop stop-color="#DCC2EC"/>
<stop offset="0.501875" stop-color="#93819E"/>
<stop offset="0.830053" stop-color="#DCC3ED"/>
</linearGradient>
<linearGradient id="paint32_linear_10334_34751" x1="71.3617" y1="82.4117" x2="103.433" y2="82.4117" gradientUnits="userSpaceOnUse">
<stop stop-color="#DCC2EC"/>
<stop offset="0.501875" stop-color="#93819E"/>
<stop offset="0.830053" stop-color="#DCC3ED"/>
</linearGradient>
<linearGradient id="paint33_linear_10334_34751" x1="77.0758" y1="85.9012" x2="95.9242" y2="85.9012" gradientUnits="userSpaceOnUse">
<stop stop-color="#DCC2EC"/>
<stop offset="0.501875" stop-color="#93819E"/>
<stop offset="0.830053" stop-color="#DCC3ED"/>
</linearGradient>
<linearGradient id="paint34_linear_10334_34751" x1="69.3266" y1="88.0807" x2="90.3235" y2="88.0807" gradientUnits="userSpaceOnUse">
<stop stop-color="#DCC2EC"/>
<stop offset="0.501875" stop-color="#93819E"/>
<stop offset="0.830053" stop-color="#DCC3ED"/>
</linearGradient>
<linearGradient id="paint35_linear_10334_34751" x1="75.5441" y1="44.6142" x2="81.6029" y2="44.6142" gradientUnits="userSpaceOnUse">
<stop stop-color="#DCC2EC"/>
<stop offset="0.501875" stop-color="#93819E"/>
<stop offset="0.830053" stop-color="#DCC3ED"/>
</linearGradient>
<linearGradient id="paint36_linear_10334_34751" x1="20.042" y1="37.8741" x2="94.1292" y2="37.8741" gradientUnits="userSpaceOnUse">
<stop stop-color="#DCC2EC"/>
<stop offset="0.501875" stop-color="#93819E"/>
<stop offset="0.830053" stop-color="#DCC3ED"/>
</linearGradient>
<linearGradient id="paint37_linear_10334_34751" x1="65.0502" y1="83.9428" x2="100.635" y2="83.9428" gradientUnits="userSpaceOnUse">
<stop stop-color="#DCC2EC"/>
<stop offset="0.501875" stop-color="#93819E"/>
<stop offset="0.830053" stop-color="#DCC3ED"/>
</linearGradient>
<linearGradient id="paint38_linear_10334_34751" x1="49.4876" y1="72.8178" x2="66.7541" y2="72.8178" gradientUnits="userSpaceOnUse">
<stop stop-color="#DCC2EC"/>
<stop offset="0.501875" stop-color="#93819E"/>
<stop offset="0.830053" stop-color="#DCC3ED"/>
</linearGradient>
<clipPath id="clip0_10334_34751">
<rect width="126.119" height="126.119" fill="white" transform="translate(0.195312)"/>
</clipPath>
</defs>
</svg>
