<svg width="127" height="127" viewBox="0 0 127 127" fill="none" xmlns="http://www.w3.org/2000/svg">
<path d="M63.0913 124.643C97.1242 124.643 124.714 97.0541 124.714 63.0209C124.714 28.9877 97.1242 1.39844 63.0913 1.39844C29.0581 1.39844 1.46875 28.9877 1.46875 63.0209C1.46875 97.0541 29.0581 124.643 63.0913 124.643Z" stroke="url(#paint0_linear_10334_34843)" stroke-width="1.31111" stroke-miterlimit="10"/>
<path d="M42.4655 50.3113C50.4294 50.3113 58.39 50.3113 66.3536 50.3113C67.6236 50.3113 67.6271 48.3359 66.3536 48.3359C58.39 48.3359 50.4294 48.3359 42.4655 48.3359C41.1955 48.3359 41.192 50.3113 42.4655 50.3113Z" fill="url(#paint1_linear_10334_34843)"/>
<path d="M52.0677 89.1089C51.1114 84.99 50.3582 79.9247 49.7143 75.0229C49.0703 70.1211 48.4976 65.1655 47.7422 60.3501C48.263 60.8845 48.7977 61.4084 49.1793 60.8216C49.4656 60.3745 49.681 59.2973 50.0919 59.9178C50.2424 60.1509 51.1031 58.1144 51.2566 58.384C51.5607 58.924 51.1071 61.2394 51.3377 61.0662C52.1898 59.1395 52.3932 60.2766 52.9221 59.8859C54.0617 67.4321 54.7698 75.1362 55.4541 82.6396C55.6449 84.726 55.8382 87.015 55.7035 88.2588C55.6021 89.1849 55.3357 89.3065 55.0825 89.4082C53.9253 89.8301 52.7144 90.2027 51.2566 87.4417" fill="#E8E4EB"/>
<path d="M55.2578 89.7043C53.626 85.5789 52.9939 80.4891 52.6591 75.5606C52.3241 70.6319 52.24 65.6458 51.5117 60.8088C53.0128 61.3283 54.563 61.8368 56.0145 61.2284C57.1053 60.7655 58.1925 59.6681 59.3052 60.2794C59.7104 60.5089 63.1663 59.8658 63.5685 60.1323C64.3635 60.6658 62.1316 61.575 62.9432 61.391C64.8033 60.9754 71.7922 61.8134 73.6522 61.3981C74.6499 68.9798 71.6718 79.6468 71.2044 87.2033C71.0765 89.3043 69.5329 90.5217 67.3823 88.7019C66.72 89.6419 65.811 89.775 64.9508 89.8878C61.0376 90.3601 56.9676 90.7842 53.219 88.0509" fill="#E8E4EB"/>
<path d="M40.15 44.7918C41.6307 54.5556 42.5042 64.4278 43.5776 74.2407C44.1111 79.1346 44.6372 84.0286 45.2232 88.916C45.4266 90.5999 45.374 92.761 46.3598 94.1924C47.2474 95.48 48.5982 95.9044 50.0822 95.9429C57.2005 96.1184 64.3293 96.0728 71.4476 96.1395C72.2793 96.1463 73.1211 96.1957 73.9526 96.1639C76.2366 96.0763 77.6891 94.5327 78.0468 92.3539C78.7275 88.1616 79.2116 83.9304 79.7589 79.7204C80.4781 74.1913 81.1761 68.659 81.8674 63.1264C82.2183 60.2916 82.7691 57.4007 82.9058 54.545C82.9655 53.2853 81.008 53.2888 80.9445 54.545C80.8428 56.6394 80.4466 58.7585 80.1903 60.8389C79.6395 65.291 79.0817 69.7429 78.5135 74.1913C77.9275 78.7699 77.3382 83.3482 76.7136 87.9229C76.5067 89.4421 76.6049 91.9998 75.7208 93.2977C74.9875 94.3746 73.7422 94.2029 72.6371 94.1924C65.6696 94.1292 58.7021 94.066 51.7346 93.9993C51.0539 93.9925 50.3138 94.0695 49.6366 93.9819C47.2195 93.6625 47.4123 90.7997 47.1845 88.916C46.6405 84.3971 46.1529 79.8679 45.6582 75.3423C44.5287 64.9857 43.6023 54.5694 42.041 44.2692C41.8517 43.0307 39.9607 43.5571 40.15 44.7918Z" fill="url(#paint2_linear_10334_34843)"/>
<path d="M76.3579 24.0501C76.3511 24.0676 76.3931 24.0185 76.2001 24.2395C75.9896 24.4816 75.7686 24.7166 75.5546 24.9587C74.8598 25.7339 74.1723 26.5163 73.5093 27.3163C71.6641 29.5439 69.9447 31.8982 68.531 34.4276C65.4858 39.8761 63.7949 46.6611 67.7171 52.1517C70.9552 56.6844 76.8387 57.5826 81.8064 55.5758C83.8518 54.7513 85.8198 53.4708 87.0969 51.6359C88.781 49.2117 88.7248 45.77 88.2931 42.9807C87.1601 35.7117 82.5292 29.3582 77.9121 23.8535C77.0947 22.8782 75.7019 24.2816 76.5157 25.2499C80.154 29.5898 83.6272 34.3329 85.4551 39.7497C86.4514 42.7001 87.1286 46.2963 86.0796 49.338C85.4692 51.1133 83.8062 52.3795 82.2064 53.2251C77.8665 55.5196 72.1094 55.1478 69.1976 50.822C65.8017 45.777 67.7415 39.7042 70.5449 34.8873C71.9692 32.4454 73.6601 30.1685 75.4914 28.0179C76.2597 27.1162 77.5438 26.134 78.0629 25.0464C78.6104 23.9063 76.9052 22.9028 76.3579 24.0501Z" fill="url(#paint3_linear_10334_34843)"/>
<path d="M71.4481 42.0985C70.6307 44.7787 71.4937 47.7434 73.6795 49.5184C74.6582 50.3114 76.0649 48.9223 75.0758 48.1223C73.4023 46.768 72.7216 44.6982 73.353 42.6249C73.725 41.404 71.8164 40.8812 71.4481 42.0985Z" fill="url(#paint4_linear_10334_34843)"/>
<path d="M42.7148 62.3541L46.113 60.4276C48.2077 59.2402 50.8061 59.4005 52.7389 60.8364C54.5438 62.1772 56.9411 62.4128 58.9723 61.4492L59.9292 60.9953C62.2982 59.8713 65.0721 60.0055 67.3218 61.3527L67.7755 61.6244C70.0907 63.0109 72.9126 63.2629 75.437 62.3088L81.2981 60.0931" stroke="url(#paint5_linear_10334_34843)" stroke-width="2.09778"/>
<path d="M51.9766 60.8477L53.7483 78.7314" stroke="url(#paint6_linear_10334_34843)" stroke-width="2.09778" stroke-linecap="round" stroke-linejoin="round"/>
<defs>
<linearGradient id="paint0_linear_10334_34843" x1="-34.1108" y1="62.419" x2="154.424" y2="62.419" gradientUnits="userSpaceOnUse">
<stop stop-color="#DCC2EC"/>
<stop offset="0.501875" stop-color="#93819E"/>
<stop offset="0.830053" stop-color="#DCC3ED"/>
</linearGradient>
<linearGradient id="paint1_linear_10334_34843" x1="34.0647" y1="49.314" x2="73.526" y2="49.314" gradientUnits="userSpaceOnUse">
<stop stop-color="#DCC2EC"/>
<stop offset="0.501875" stop-color="#93819E"/>
<stop offset="0.830053" stop-color="#DCC3ED"/>
</linearGradient>
<linearGradient id="paint2_linear_10334_34843" x1="27.7893" y1="69.6116" x2="93.2179" y2="69.6116" gradientUnits="userSpaceOnUse">
<stop stop-color="#DCC2EC"/>
<stop offset="0.501875" stop-color="#93819E"/>
<stop offset="0.830053" stop-color="#DCC3ED"/>
</linearGradient>
<linearGradient id="paint3_linear_10334_34843" x1="58.7551" y1="39.8939" x2="94.1235" y2="39.8939" gradientUnits="userSpaceOnUse">
<stop stop-color="#DCC2EC"/>
<stop offset="0.501875" stop-color="#93819E"/>
<stop offset="0.830053" stop-color="#DCC3ED"/>
</linearGradient>
<linearGradient id="paint4_linear_10334_34843" x1="69.9123" y1="45.5398" x2="76.442" y2="45.5398" gradientUnits="userSpaceOnUse">
<stop stop-color="#DCC2EC"/>
<stop offset="0.501875" stop-color="#93819E"/>
<stop offset="0.830053" stop-color="#DCC3ED"/>
</linearGradient>
<linearGradient id="paint5_linear_10334_34843" x1="31.5762" y1="61.2422" x2="90.5995" y2="61.2422" gradientUnits="userSpaceOnUse">
<stop stop-color="#DCC2EC"/>
<stop offset="0.501875" stop-color="#93819E"/>
<stop offset="0.830053" stop-color="#DCC3ED"/>
</linearGradient>
<linearGradient id="paint6_linear_10334_34843" x1="51.4651" y1="69.7022" x2="54.1754" y2="69.7022" gradientUnits="userSpaceOnUse">
<stop stop-color="#DCC2EC"/>
<stop offset="0.501875" stop-color="#93819E"/>
<stop offset="0.830053" stop-color="#DCC3ED"/>
</linearGradient>
</defs>
</svg>
