<svg width="127" height="127" viewBox="0 0 127 127" fill="none" xmlns="http://www.w3.org/2000/svg">
<g clip-path="url(#clip0_10334_34935)">
<mask id="mask0_10334_34935" style="mask-type:luminance" maskUnits="userSpaceOnUse" x="0" y="0" width="127" height="126">
<path d="M126.64 0.0351562H0.773438V125.902H126.64V0.0351562Z" fill="white"/>
</mask>
<g mask="url(#mask0_10334_34935)">
<path d="M63.3412 125.089C97.3742 125.089 124.964 97.4993 124.964 63.4661C124.964 29.4332 97.3742 1.84375 63.3412 1.84375C29.308 1.84375 1.71875 29.4332 1.71875 63.4661C1.71875 97.4993 29.308 125.089 63.3412 125.089Z" stroke="url(#paint0_linear_10334_34935)" stroke-width="1.59327" stroke-miterlimit="10"/>
<path d="M40.0593 55.6279C39.9214 59.7107 40.2922 63.7372 41.1587 67.7252C41.3872 68.7815 43.0124 68.3331 42.7798 67.2769C41.9433 63.4268 41.6027 59.56 41.7407 55.6279C41.7794 54.5459 40.0938 54.5459 40.0593 55.6279Z" fill="url(#paint1_linear_10334_34935)"/>
<path d="M44.2726 75.5871C47.7906 78.9241 51.4594 82.3557 56.0077 84.2226C58.1288 85.0933 60.5044 85.7617 62.7763 85.1064C64.9234 84.4811 67.0057 83.1275 68.8378 81.8729C72.6879 79.2388 76.0075 75.7595 77.9088 71.4569C80.004 66.7233 80.3101 61.4724 80.5946 56.3763C80.655 55.2943 78.9737 55.2986 78.9133 56.3763C78.6633 60.8773 78.4304 65.5205 76.7879 69.7713C75.1667 73.9705 72.1706 77.4107 68.5448 80.0234C66.9969 81.1356 65.333 82.1574 63.604 82.9551C61.026 84.1491 58.4996 83.5283 56.012 82.3945C51.9596 80.545 48.6571 77.4195 45.4626 74.3886C44.6779 73.6558 43.488 74.8412 44.2726 75.5871Z" fill="url(#paint2_linear_10334_34935)"/>
<path d="M57.1959 65.7523C58.58 66.6147 60.326 66.619 61.7141 65.7696C62.6367 65.2047 61.7918 63.7477 60.8647 64.3166C59.9637 64.8684 58.9377 64.8601 58.0453 64.2995C57.127 63.726 56.2776 65.1791 57.1959 65.7523Z" fill="url(#paint3_linear_10334_34935)"/>
<path d="M52.188 72.4341C56.9649 74.3095 62.0907 74.4517 66.747 72.1539C67.717 71.6753 66.8676 70.2223 65.8977 70.7009C61.6381 72.8049 56.9689 72.5116 52.6363 70.8131C51.6276 70.4164 51.1921 72.0416 52.188 72.4341Z" fill="url(#paint4_linear_10334_34935)"/>
<path d="M71.8262 77.8409C71.4035 81.3244 70.994 84.8509 71.438 88.3561C71.8305 91.46 73.1236 94.0123 74.4299 96.8058C74.887 97.7845 76.3398 96.9309 75.8829 95.9567C74.4603 92.9173 73.1841 90.2312 72.9729 86.817C72.7873 83.8163 73.1453 80.8156 73.5075 77.8409C73.6367 76.7675 71.9553 76.7761 71.8262 77.8409Z" fill="url(#paint5_linear_10334_34935)"/>
<path d="M46.8482 78.1545C47.0249 80.0382 46.9129 81.8837 46.4862 83.7244C46.2402 84.7764 47.8657 85.229 48.1071 84.1727C48.5685 82.1853 48.7193 80.185 48.5295 78.1545C48.4303 77.0851 46.749 77.0723 46.8482 78.1545Z" fill="url(#paint6_linear_10334_34935)"/>
<path d="M66.4011 56.9155C68.3025 54.4321 71.5015 55.3504 73.7301 56.8206C74.6356 57.4199 75.4807 55.9627 74.5795 55.3678C71.4454 53.2983 67.4317 52.8198 64.9484 56.0661C64.2888 56.924 65.7502 57.7648 66.4011 56.9155Z" fill="url(#paint7_linear_10334_34935)"/>
<path d="M64.7307 52.0551C67.132 50.3436 70.2791 49.5504 72.7277 51.6413C73.5471 52.3396 74.7411 51.1585 73.9179 50.4513C70.8999 47.8733 66.9595 48.4037 63.8813 50.6024C63.006 51.2274 63.8468 52.6888 64.7307 52.0551Z" fill="url(#paint8_linear_10334_34935)"/>
<path d="M67.4852 55.2185C67.4465 55.7703 67.3903 56.3264 67.4248 56.8825C67.5197 58.3743 68.5199 58.5079 68.796 58.5641C69.0719 58.6243 69.3823 58.5855 69.5978 58.4088C69.6927 58.3312 69.7659 58.2363 69.8306 58.1371C70.4902 57.1758 70.7444 55.9471 70.5247 54.8047" fill="url(#paint9_linear_10334_34935)"/>
<path d="M67.0649 55.2175C66.9615 56.6746 66.8494 58.6061 68.6602 58.9638C70.777 59.382 71.1692 56.1099 70.9366 54.6914C70.8502 54.157 70.0397 54.3853 70.126 54.9157C70.2594 55.7477 70.0784 58.5371 68.6775 58.1059C67.5175 57.748 67.841 56.1356 67.9057 55.2175C67.9445 54.6786 67.1039 54.6828 67.0649 55.2175Z" fill="url(#paint10_linear_10334_34935)"/>
<path d="M54.204 55.7404C51.7206 52.4983 47.711 52.9725 44.5726 55.0418C43.6714 55.6369 44.5165 57.0942 45.422 56.4948C47.6465 55.0247 50.8453 54.1021 52.751 56.5897C53.3977 57.4391 54.8592 56.6026 54.204 55.7404Z" fill="url(#paint11_linear_10334_34935)"/>
<path d="M55.2632 50.2845C52.185 48.0901 48.2446 47.5554 45.2265 50.1334C44.4031 50.836 45.5973 52.0217 46.4165 51.3234C48.8611 49.2368 52.0125 50.0257 54.4138 51.7372C55.2977 52.3668 56.1382 50.9095 55.2632 50.2845Z" fill="url(#paint12_linear_10334_34935)"/>
<path d="M51.6636 54.8982C51.7024 55.4503 51.7585 56.0064 51.724 56.5624C51.6291 58.0542 50.629 58.1879 50.3531 58.2438C50.0769 58.3042 49.7668 58.2654 49.5511 58.0887C49.4561 58.0112 49.3829 57.916 49.3182 57.8171C48.6587 56.8555 48.4044 55.627 48.6242 54.4844" fill="url(#paint13_linear_10334_34935)"/>
<path d="M51.2386 54.8971C51.303 55.8154 51.6265 57.4278 50.4668 57.7857C49.0699 58.2169 48.8846 55.4275 49.0183 54.5955C49.1044 54.0651 48.2938 53.8365 48.2077 54.3712C47.9749 55.794 48.3671 59.0618 50.4839 58.6436C52.2946 58.2859 52.1826 56.3544 52.0791 54.8971C52.0404 54.3581 51.1996 54.3538 51.2386 54.8971Z" fill="url(#paint14_linear_10334_34935)"/>
<path d="M80.4892 54.7632C84.5589 56.2678 83.8045 66.162 78.9329 65.4292C77.8724 65.2696 77.4152 66.8907 78.4846 67.0501C85.6281 68.1192 87.0984 55.4185 80.9378 53.1378C79.916 52.7629 79.4805 54.3881 80.4892 54.7632Z" fill="url(#paint15_linear_10334_34935)"/>
<path d="M80.3043 61.4707C80.5457 60.3971 81.1493 59.5004 82.0805 58.9141C82.9945 58.3407 82.1495 56.8834 81.2314 57.4611C79.9423 58.2717 79.0154 59.5306 78.6791 61.0221C78.4462 62.0784 80.0671 62.527 80.3043 61.4707Z" fill="url(#paint16_linear_10334_34935)"/>
<path d="M39.4173 67.612C40.1761 67.8577 40.9564 67.8446 41.7366 67.6938C42.1852 67.6078 42.4394 67.0731 42.3229 66.6592C42.1937 66.1935 41.7366 65.9866 41.2885 66.0729C40.8011 66.1676 40.3357 66.1419 39.8657 65.9909C38.8311 65.6545 38.387 67.28 39.4173 67.612Z" fill="url(#paint17_linear_10334_34935)"/>
<path d="M39.2877 53.7851C34.7223 55.4365 34.8688 61.0667 36.5028 64.7917C36.938 65.779 38.3868 64.9253 37.9555 63.9423C36.7958 61.2996 36.3173 56.6392 39.7318 55.4063C40.745 55.0397 40.3095 53.4143 39.2877 53.7851Z" fill="url(#paint18_linear_10334_34935)"/>
<path d="M41.5369 61.6709C41.2006 60.1791 40.278 58.9204 38.9848 58.1098C38.0665 57.5321 37.2214 58.9849 38.1354 59.5626C39.0709 60.1489 39.6703 61.0501 39.9117 62.1192C40.1531 63.1712 41.774 62.7271 41.5369 61.6709Z" fill="url(#paint19_linear_10334_34935)"/>
<path d="M27.7247 77.8673C26.5695 74.3624 25.9012 70.7581 25.2415 67.1324C24.97 67.4861 24.7027 67.8438 24.431 68.1972C27.6945 67.9903 28.8543 73.7804 29.5141 76.1299C30.1132 78.251 31.9111 80.6138 33.4114 82.2002C34.157 82.9891 35.3427 81.7992 34.6011 81.0102C33.3898 79.7254 32.2172 77.9278 31.3764 76.3627C31.1481 75.9318 31.3419 76.3929 31.1566 75.7807C30.9497 75.0995 30.8029 74.4012 30.5917 73.72C29.7253 70.9479 28.0482 66.2876 24.4267 66.5159C23.849 66.5547 23.5127 67.0204 23.6163 67.5807C24.2759 71.2065 24.9441 74.8105 26.0995 78.3157C26.4401 79.3375 28.0653 78.8977 27.7247 77.8673Z" fill="url(#paint20_linear_10334_34935)"/>
<path d="M33.2907 78.9756C33.2046 77.3245 33.2864 75.656 33.3166 74.0049C33.3209 73.6942 33.3297 73.3796 33.334 73.0692C33.3426 72.5821 33.3554 72.858 33.2562 73.0823C33.4072 72.7286 33.7048 72.3751 33.9072 72.0559C34.8084 70.6419 35.7136 69.228 36.632 67.8225C37.0544 67.1801 38.1582 65.1451 38.5419 64.9641C38.2013 64.921 37.8607 64.878 37.5244 64.8304C39.2789 66.2489 37.951 69.9348 37.1279 71.5517C36.6362 72.5131 38.0892 73.3667 38.5806 72.4011C39.7489 70.1118 41.2279 65.6712 38.7143 63.6405C38.3996 63.3862 38.0633 63.3346 37.6968 63.507C36.8477 63.9121 36.1061 65.572 35.623 66.3005C34.5798 67.8827 33.558 69.4779 32.5365 71.0774C31.0878 73.3539 31.4671 76.3284 31.6094 78.9756C31.6655 80.049 33.3511 80.0575 33.2907 78.9756Z" fill="url(#paint21_linear_10334_34935)"/>
<path d="M37.4075 80.0234C37.2265 78.3854 37.3168 76.7212 37.4203 75.0829C37.4548 74.5225 37.5582 73.9445 37.5497 73.3842C37.5454 73.0134 37.2265 73.8368 37.416 73.7119C37.5497 73.6256 37.6489 73.4876 37.7825 73.397C39.9553 71.94 42.0462 69.8146 43.8828 67.952C43.443 67.8961 43.0033 67.84 42.5637 67.7841C42.9602 68.3918 43.2492 69.2152 42.9172 69.9483C42.4774 70.9268 43.9259 71.7847 44.3699 70.7974C44.9519 69.5042 44.7926 68.1333 44.0165 66.939C43.7232 66.4907 43.0896 66.3699 42.6971 66.7709C41.6754 67.8055 40.5675 68.7583 39.4724 69.7154C38.4894 70.5776 37.084 71.4398 36.2822 72.4789C35.8079 73.0954 35.8381 73.6515 35.7777 74.4405C35.6441 76.2942 35.5149 78.1782 35.7216 80.0279C35.8424 81.0885 37.528 81.0971 37.4075 80.0234Z" fill="url(#paint22_linear_10334_34935)"/>
<path d="M41.5169 81.0049C41.3316 79.7677 41.3618 78.47 41.3273 77.2242C41.31 76.6593 41.3661 76.0559 41.284 75.4952C41.172 74.7149 41.2755 75.1116 41.1161 75.353C42.2585 73.6629 43.9441 71.2228 45.6816 70.1278C45.2677 69.9596 44.8581 69.7915 44.444 69.6233C44.8624 71.4944 44.3018 73.3225 43.5 75.0081C43.2068 75.6246 42.9009 76.0601 42.8793 76.7325C42.8405 78.0604 43.1207 80.0607 43.8666 81.1731C45.0779 82.9753 46.8499 84.5489 48.3502 86.1008C49.734 87.5279 51.118 89.0841 52.7347 90.2569C53.614 90.8948 54.4548 89.4335 53.584 88.8039C52.0275 87.6744 50.6954 86.1096 49.3634 84.7299C48.0786 83.402 45.9532 81.7551 45.1167 80.0652C44.8365 79.5003 44.8365 78.6424 44.7416 78.0002C44.6769 77.5559 44.5218 77.0258 44.5389 76.5732C44.5045 76.2671 44.4959 76.3144 44.509 76.7154C44.5994 76.5472 44.6857 76.3748 44.7761 76.2066C46.1083 74.2794 46.5652 71.4083 46.0652 69.175C45.9487 68.6534 45.272 68.3946 44.8279 68.6707C43.7112 69.369 42.8576 70.5502 42.0256 71.5463C41.3487 72.3566 40.2967 73.3094 39.8313 74.2751C39.426 75.1073 39.607 76.0687 39.6329 76.9956C39.6717 78.4743 39.6674 79.9832 39.8914 81.449C40.0556 82.5181 41.6765 82.0655 41.5169 81.0049Z" fill="url(#paint23_linear_10334_34935)"/>
<path d="M27.0684 80.5627C30.0517 85.7318 34.9495 90.6296 39.6959 94.1647C40.8599 95.0312 42.3129 96.1952 43.7486 96.5703C44.503 96.7686 44.141 96.4366 44.3867 97.0833C44.5848 97.5963 44.6581 98.1871 44.7789 98.7216C45.5075 101.985 45.1253 100.076 45.552 103.392C45.6857 104.452 47.3713 104.465 47.2333 103.392C46.8152 100.128 47.2321 102.106 46.5381 98.894C46.344 97.9973 46.2621 96.7082 45.7748 95.9064C45.2056 94.9753 43.74 94.7681 42.8131 94.2294C39.4245 92.2676 36.5487 89.3835 33.9234 86.5165C31.9961 84.417 29.9614 82.1967 28.5257 79.7136C27.9825 78.7737 26.5254 79.623 27.0684 80.5627Z" fill="url(#paint24_linear_10334_34935)"/>
<path d="M50.775 88.6652C52.7798 90.5578 53.3142 92.3987 54.2713 94.8085C55.8665 98.8179 55.5421 97.9706 56.9646 102.053C57.318 103.071 58.9435 102.631 58.5855 101.605C57.1068 97.3541 57.2634 98.0637 55.6853 93.8603C54.7284 91.3165 54.0256 89.4151 51.9606 87.4707C51.176 86.7337 49.986 87.9193 50.775 88.6652Z" fill="url(#paint25_linear_10334_34935)"/>
<path d="M79.1878 52.9585C78.9463 43.9522 73.4107 33.6055 63.0121 34.5885C61.943 34.6874 61.9344 36.3733 63.0121 36.2698C72.4667 35.3774 77.2867 44.8101 77.5064 52.9585C77.5324 54.0362 79.218 54.0405 79.1878 52.9585Z" fill="url(#paint26_linear_10334_34935)"/>
<path d="M59.5891 25.7785C59.9511 28.8394 60.0933 31.9004 60.0115 34.9829C59.9813 36.0649 61.6669 36.0649 61.6929 34.9829C61.7747 31.9004 61.6367 28.8394 61.2702 25.7785C61.1453 24.7136 59.4597 24.7049 59.5891 25.7785Z" fill="url(#paint27_linear_10334_34935)"/>
<path d="M82.5933 54.716C90.1033 40.5452 79.8472 19.584 62.9601 20.2868C61.8822 20.3299 61.8736 22.0155 62.9601 21.9681C70.9013 21.6362 77.3983 26.262 80.7698 33.3023C83.7747 39.5707 84.473 47.5854 81.1449 53.8667C80.6318 54.8195 82.0846 55.6731 82.5933 54.716Z" fill="url(#paint28_linear_10334_34935)"/>
<path d="M60.5159 19.9514C56.2261 17.9941 50.488 19.835 46.569 21.8397C40.1453 25.1248 35.5323 31.1087 34.0536 38.1791C32.8508 43.9303 33.5836 49.8538 35.1141 55.4627C35.3989 56.5061 37.024 56.0621 36.7351 55.0144C34.4934 46.8015 34.1311 37.5929 39.2141 30.324C42.5078 25.6121 47.7718 22.3182 53.3936 21.2102C55.3425 20.8266 57.7911 20.5463 59.6708 21.3999C60.6453 21.8483 61.4986 20.3997 60.5159 19.9514Z" fill="url(#paint29_linear_10334_34935)"/>
<path d="M48.6468 30.5578C43.3224 34.5675 39.4552 39.9651 37.4117 46.3111C37.0796 47.346 38.7051 47.7855 39.0328 46.7594C40.9296 40.8661 44.5468 35.7357 49.4962 32.0108C50.3541 31.3684 49.5133 29.9071 48.6468 30.5578Z" fill="url(#paint30_linear_10334_34935)"/>
<path d="M58.3596 33.9767C48.142 34.1577 42.339 43.3364 38.6574 51.6915C38.2262 52.6745 39.6746 53.5324 40.1101 52.5408C43.5247 44.7892 48.7844 35.8262 58.3596 35.658C59.4373 35.6407 59.4416 33.9593 58.3596 33.9767Z" fill="url(#paint31_linear_10334_34935)"/>
<path d="M99.17 98.5925C100.373 91.3151 96.1694 84.0725 92.0263 78.4291C89.8793 75.506 87.5082 72.7339 84.9085 70.2032C83.3737 68.7071 81.6665 66.9699 79.6964 66.0385C78.7219 65.5773 77.8683 67.0301 78.847 67.4915C80.6404 68.3409 82.1667 69.8885 83.5721 71.2507C85.9993 73.5961 88.2367 76.1527 90.2586 78.8558C94.2121 84.1326 98.6872 91.229 97.5446 98.1442C97.3721 99.2004 98.9931 99.6573 99.17 98.5925Z" fill="url(#paint32_linear_10334_34935)"/>
<path d="M93.6702 92.2034C89.2122 88.513 85.6814 83.9946 83.1766 78.7825C82.7067 77.8083 81.2582 78.6576 81.7239 79.6318C84.2845 84.9648 87.9276 89.6209 92.4802 93.3931C93.3079 94.0786 94.5064 92.8975 93.6702 92.2034Z" fill="url(#paint33_linear_10334_34935)"/>
<path d="M87.203 92.1573C84.4999 92.0624 81.3698 90.8983 79.4989 88.9411C77.8521 87.2208 76.826 85.0007 75.8299 82.8665C75.3687 81.8878 73.92 82.7417 74.3771 83.7159C75.6101 86.3457 76.938 89.0876 79.223 90.9761C81.331 92.7222 84.4913 93.7437 87.203 93.8386C88.2852 93.8774 88.2852 92.196 87.203 92.1573Z" fill="url(#paint34_linear_10334_34935)"/>
<path d="M81.1332 53.6646C81.7283 47.7972 82.4394 40.6404 79.2663 35.3507C78.7102 34.4238 77.2532 35.2686 77.8135 36.2C80.8011 41.1793 80.0079 48.1332 79.4518 53.6646C79.3441 54.7425 81.0254 54.7337 81.1332 53.6646Z" fill="url(#paint35_linear_10334_34935)"/>
<path opacity="0.23" d="M82.6301 37.2212C82.1514 34.6774 81.5306 32.0692 79.9786 29.9481C78.5256 27.9564 76.5384 26.3526 74.4256 25.098C69.692 22.2785 64.359 21.7568 58.9571 21.7698C54.1416 21.7826 48.9033 22.2698 44.8595 25.154C40.4878 28.2667 38.3453 33.2893 36.8148 38.2601C35.4567 42.6747 33.3615 49.2536 37.276 52.8622C37.677 54.4358 40.3715 54.2719 40.4448 52.3793C40.6432 47.1758 43.1781 42.3988 47.3385 39.2733C49.3519 37.7599 52.2275 35.3714 54.8571 35.4752C56.5945 35.5441 58.5951 35.2423 60.5221 35.0656C60.2548 32.1513 59.7634 29.254 59.6642 26.3224C59.5952 24.2487 62.8114 24.2574 62.8846 26.3224C62.9838 29.2238 63.4666 32.0908 63.7383 34.9792C66.1224 35.1819 68.0797 36.8028 70.2697 37.9885C72.6063 39.2517 74.0334 42.1013 75.1114 44.4208C76.2882 46.9557 76.7796 49.6073 77.6549 52.2328C78.3232 54.2462 80.6943 55.229 81.9792 53.1079C83.2897 50.9437 83.4664 48.0681 83.4533 45.6064C83.4405 42.791 83.1475 39.9802 82.6301 37.2212Z" fill="url(#paint36_linear_10334_34935)"/>
<path opacity="0.23" d="M83.0048 95.8617C79.8146 96.3664 76.6027 94.3702 74.9 91.6238C73.1967 88.8778 72.7572 85.5321 72.7657 82.2988C72.77 80.2424 72.9641 78.1127 73.96 76.3148C75.2058 74.06 77.6977 72.2538 77.6376 69.6756C78.0167 69.4384 78.504 69.6972 78.8748 69.9515C81.2716 71.5983 83.6344 73.2882 85.9667 75.0259C87.204 75.9485 88.4369 76.8883 89.5061 78.0004C92.649 81.2684 94.1234 85.7606 95.3435 90.128C95.7445 91.5593 96.1282 93.0294 96.0031 94.5124C95.878 95.9956 95.1494 97.5088 93.8218 98.1812C92.4549 98.8755 90.8123 98.5434 89.3208 98.1812C85.0655 97.1466 80.8492 95.974 76.6717 94.6677" fill="url(#paint37_linear_10334_34935)"/>
<path opacity="0.23" d="M58.306 76.9858C56.4956 76.4212 54.9132 74.9554 54.0638 73.0412C53.8526 72.5626 53.6802 72.0282 53.7708 71.5021C53.8828 70.8468 54.3787 70.364 54.8875 70.0319C56.5084 68.9586 58.4656 68.8292 60.3411 68.7473C60.8584 68.7257 61.38 68.704 61.8844 68.8249C62.7552 69.0361 63.5011 69.6483 64.221 70.2434C64.4582 70.4415 64.7084 70.653 64.8418 70.9546C64.9282 71.1486 64.9584 71.3684 64.9843 71.5841C65.0661 72.3169 65.0747 73.1016 64.7728 73.7569C64.4194 74.5372 63.7037 74.9987 63.0271 75.4211C62.4622 75.7702 61.8887 76.1237 61.2637 76.279C60.9274 76.3608 60.5825 76.3824 60.2419 76.3953C58.8838 76.4471 57.5174 76.3394 56.1766 76.0806" fill="url(#paint38_linear_10334_34935)"/>
</g>
<circle cx="64.5" cy="63.5" r="63.5" fill="white"/>
<path d="M56.3326 47.7822C56.3352 47.6973 56.3405 47.6071 56.3803 47.5331C56.4862 47.3289 56.7619 47.2997 56.9899 47.297C57.3902 47.2919 57.7905 47.2866 58.1909 47.2813C58.2491 47.2813 58.3102 47.2812 58.3632 47.3051C58.4214 47.3342 58.4612 47.3899 58.4957 47.4429C58.636 47.6603 58.7422 47.9068 58.7397 48.1665C58.7344 48.5615 58.4744 48.9061 58.2094 49.2003C58.1035 49.3171 57.9894 49.4336 57.8569 49.5185C57.544 49.7174 56.6374 49.948 56.4467 49.5185C56.3696 49.3437 56.4783 49.028 56.4705 48.8425C56.4545 48.482 56.322 48.148 56.3326 47.7822Z" fill="url(#paint39_linear_10334_34935)"/>
<path d="M71.9772 48.0556C71.98 47.9707 71.985 47.8808 72.0251 47.8065C72.131 47.6023 72.4066 47.5732 72.6347 47.5707C73.035 47.5653 73.4351 47.5598 73.8357 47.5547C73.8937 47.5547 73.9547 47.5547 74.0077 47.5785C74.066 47.6076 74.1057 47.6634 74.1405 47.7163C74.2808 47.9337 74.387 48.1803 74.3842 48.44C74.3789 48.835 74.1192 49.1796 73.8539 49.474C73.748 49.5905 73.634 49.7071 73.5015 49.792C73.1885 49.9909 72.282 50.2214 72.0912 49.792C72.0142 49.6171 72.1231 49.3014 72.115 49.116C72.099 48.7554 71.9665 48.4215 71.9772 48.0556Z" fill="url(#paint40_linear_10334_34935)"/>
<path opacity="0.23" d="M83.2363 32.7485C82.8497 30.788 82.3478 28.7779 81.0933 27.1432C79.9187 25.6081 78.3123 24.3721 76.6046 23.4052C72.7781 21.2321 68.4673 20.8301 64.1006 20.84C60.2078 20.8501 55.9737 21.2255 52.7047 23.4483C49.1712 25.8472 47.4391 29.7182 46.2019 33.5492C45.104 36.9515 43.4105 42.022 46.5749 44.803C46.8989 46.0159 49.0769 45.8897 49.1362 44.431C49.2963 40.4204 51.3456 36.7389 54.7086 34.3301C56.336 33.1638 58.6605 31.3231 60.7863 31.4026C62.191 31.4558 63.8077 31.2235 65.3657 31.0872C65.1496 28.841 64.7523 26.6083 64.672 24.3488C64.6162 22.7506 67.2161 22.7572 67.2754 24.3488C67.3555 26.585 67.7459 28.7944 67.9653 31.0208C69.8925 31.1769 71.4748 32.4263 73.2451 33.3399C75.134 34.3134 76.2873 36.5096 77.1587 38.2971C78.1101 40.2509 78.5074 42.2944 79.2148 44.318C79.755 45.8697 81.6718 46.627 82.7101 44.9925C83.7697 43.3246 83.9126 41.1083 83.9022 39.2111C83.8915 37.0414 83.6546 34.8751 83.2363 32.7485Z" fill="url(#paint41_linear_10334_34935)"/>
<path d="M70.1636 86.9723C71.6902 85.0875 73.7149 83.9091 76.0786 83.5244C76.8828 83.395 76.5397 82.1453 75.7439 82.2751C73.1924 82.6888 70.9186 84.0177 69.2697 86.0571C68.751 86.6964 69.6452 87.6159 70.1636 86.9723Z" fill="url(#paint42_linear_10334_34935)" stroke="url(#paint43_linear_10334_34935)" stroke-width="0.289447"/>
<path d="M62.8927 86.0571C61.2437 84.022 58.97 82.6929 56.4185 82.2751C55.6227 82.1453 55.2796 83.395 56.0838 83.5244C58.4475 83.9091 60.4722 85.0834 61.9988 86.9723C62.5172 87.6159 63.4073 86.6964 62.8927 86.0571Z" fill="url(#paint44_linear_10334_34935)" stroke="url(#paint45_linear_10334_34935)" stroke-width="0.289447"/>
<path d="M48.9691 47.5878C48.8588 51.3866 49.5242 55.5472 50.2385 59.2584C50.41 60.154 51.6429 59.723 51.4714 58.8274C50.7817 55.2356 50.1282 51.2579 50.2385 47.5878C50.263 46.6739 48.9974 46.6739 48.9691 47.5878Z" fill="url(#paint46_linear_10334_34935)" stroke="url(#paint47_linear_10334_34935)" stroke-width="0.289447"/>
<path d="M50.2935 59.2166C51.816 63.1576 53.996 66.856 57.6578 69.0459C60.1355 70.5294 64.1973 72.2346 67.0832 71.7038C69.4018 71.2776 71.7615 69.5684 73.6106 68.1558C75.3781 66.8059 76.9865 65.2345 78.2846 63.4041C81.4687 58.9199 82.0768 53.537 82.3707 48.1627C82.4158 47.3312 81.1502 47.3312 81.1053 48.1627C80.8482 52.8643 80.4033 57.6034 77.8966 61.6905C76.6191 63.7717 74.8922 65.5646 72.9739 67.0357C71.2715 68.3438 69.055 69.9571 66.9484 70.3749C64.4299 70.8723 60.6742 69.3051 58.4741 68.0304C55.0166 66.0285 52.9428 62.5639 51.514 58.8738C51.2201 58.1048 49.9915 58.4393 50.2935 59.2166Z" fill="url(#paint48_linear_10334_34935)" stroke="url(#paint49_linear_10334_34935)" stroke-width="0.289447"/>
<path d="M82.3562 46.7322C85.7646 48.0652 85.1851 56.486 81.0334 55.8886C80.2375 55.7758 79.8907 57.0212 80.6989 57.1382C86.5442 57.9825 87.6915 47.4341 82.695 45.4826C81.9316 45.1859 81.6009 46.4396 82.3562 46.7322Z" fill="url(#paint50_linear_10334_34935)" stroke="url(#paint51_linear_10334_34935)" stroke-width="0.289447"/>
<path d="M47.368 45.4715C43.1473 46.6667 43.4983 55.05 47.6009 56.1534C48.3886 56.3665 48.7276 55.1169 47.9356 54.9038C45.0861 54.1391 44.7474 47.557 47.703 46.7211C48.4867 46.4997 48.156 45.25 47.368 45.4715Z" fill="url(#paint52_linear_10334_34935)" stroke="url(#paint53_linear_10334_34935)" stroke-width="0.289447"/>
<path d="M82.1326 52.4607C82.3366 51.5372 82.8469 50.7639 83.6305 50.2582C84.3205 49.8153 83.6838 48.6913 82.9898 49.1383C81.9365 49.8153 81.1855 50.8686 80.9078 52.1182C80.7325 52.9287 81.953 53.2756 82.1326 52.4607Z" fill="url(#paint54_linear_10334_34935)" stroke="url(#paint55_linear_10334_34935)" stroke-width="0.289447"/>
<path d="M50.2232 51.0392C49.8639 49.6558 48.9781 48.4897 47.7535 47.8003C47.0393 47.399 46.3983 48.5191 47.1125 48.9202C48.0639 49.4554 48.7209 50.312 49.0027 51.3858C49.2109 52.1885 50.4314 51.8457 50.2232 51.0392Z" fill="url(#paint56_linear_10334_34935)" stroke="url(#paint57_linear_10334_34935)" stroke-width="0.289447"/>
<path d="M63.2565 55.8349C64.3805 56.5375 65.7933 56.5403 66.9226 55.8484C67.6198 55.4217 66.9808 54.3213 66.281 54.7508C65.5229 55.2147 64.6534 55.2068 63.9006 54.7376C63.2008 54.3003 62.562 55.4004 63.2565 55.8349Z" fill="url(#paint58_linear_10334_34935)" stroke="url(#paint59_linear_10334_34935)" stroke-width="0.289447"/>
<path d="M70.7576 49.1325C72.3401 47.0648 75.0201 47.7912 76.8704 49.0345C77.5518 49.4931 78.1905 48.3902 77.512 47.9369C74.9778 46.2324 71.6748 45.8559 69.6574 48.491C69.1591 49.1404 70.2645 49.7766 70.7576 49.1325Z" fill="url(#paint60_linear_10334_34935)" stroke="url(#paint61_linear_10334_34935)" stroke-width="0.289447"/>
<path d="M69.4042 45.1214C71.3922 43.6926 74.0298 43.0379 76.0603 44.7902C76.678 45.3228 77.5821 44.4269 76.959 43.8915C74.5122 41.7787 71.2571 42.2294 68.7627 44.024C68.1027 44.4958 68.7386 45.5988 69.4042 45.1214Z" fill="url(#paint62_linear_10334_34935)" stroke="url(#paint63_linear_10334_34935)" stroke-width="0.289447"/>
<path d="M71.0661 47.7685C70.9708 49.1152 70.9574 50.7986 72.5931 51.1351C74.6077 51.5488 75.0531 48.6566 74.8251 47.257C74.6951 46.451 73.4678 46.793 73.5977 47.5962C73.6798 48.1053 73.5952 50.0828 72.7626 49.868C71.9992 49.6719 72.3015 48.312 72.3413 47.7685C72.397 46.9522 71.1246 46.9547 71.0661 47.7685Z" fill="url(#paint64_linear_10334_34935)" stroke="url(#paint65_linear_10334_34935)" stroke-width="0.289447"/>
<path d="M60.7093 48.2291C58.6919 45.5942 55.3917 45.9707 52.8547 47.6752C52.1787 48.1285 52.8149 49.2311 53.4963 48.7725C55.3464 47.5292 58.0266 46.8028 59.6091 48.8706C60.1022 49.5121 61.2077 48.8812 60.7093 48.2291Z" fill="url(#paint66_linear_10334_34935)" stroke="url(#paint67_linear_10334_34935)" stroke-width="0.289447"/>
<path d="M61.608 43.7456C59.1133 41.9538 55.8583 41.5005 53.4114 43.6131C52.7912 44.1488 53.695 45.0447 54.3102 44.5118C56.3354 42.7623 58.9783 43.4142 60.9665 44.8432C61.6319 45.3229 62.2681 44.2202 61.608 43.7456Z" fill="url(#paint68_linear_10334_34935)" stroke="url(#paint69_linear_10334_34935)" stroke-width="0.289447"/>
<path d="M58.0263 47.4943C58.0664 48.0378 58.3684 49.3976 57.605 49.594C56.7726 49.8061 56.6852 47.831 56.7701 47.322C56.8998 46.5216 55.675 46.1767 55.5425 46.9827C55.3147 48.3824 55.7574 51.2746 57.7747 50.8611C59.4102 50.5269 59.3971 48.8437 59.3015 47.4943C59.2407 46.6832 57.968 46.6754 58.0263 47.4943Z" fill="url(#paint70_linear_10334_34935)" stroke="url(#paint71_linear_10334_34935)" stroke-width="0.289447"/>
<path d="M81.2786 46.0128C81.1859 42.29 80.197 38.5039 77.6496 35.5949C75.3062 32.9208 71.6852 31.2779 68.0136 31.6395C67.2079 31.7178 67.1998 32.9335 68.0136 32.8526C71.3855 32.5215 74.6063 33.9923 76.7509 36.4518C79.068 39.1079 79.9241 42.6313 80.009 46.0128C80.0275 46.7914 81.2997 46.7939 81.2786 46.0128Z" fill="url(#paint72_linear_10334_34935)" stroke="url(#paint73_linear_10334_34935)" stroke-width="0.289447"/>
<path d="M65.2473 24.6778C65.5496 27.0812 65.6633 29.485 65.5947 31.9062C65.5706 32.6871 66.8458 32.6871 66.8669 31.9062C66.936 29.4875 66.822 27.0812 66.5197 24.6778C66.4245 23.9146 65.1518 23.9044 65.2473 24.6778Z" fill="url(#paint74_linear_10334_34935)" stroke="url(#paint75_linear_10334_34935)" stroke-width="0.289447"/>
<path d="M84.0864 47.3731C88.6937 39.1486 85.1095 26.9766 76.6109 22.3262C73.9786 20.8856 70.9804 20.2866 67.961 20.4155C67.1446 20.4509 67.1418 21.664 67.961 21.6287C74.5274 21.3481 79.8872 25.0229 82.6789 30.5555C85.1627 35.4765 85.7485 41.8278 82.9862 46.7614C82.6018 47.4488 83.702 48.063 84.0864 47.3731Z" fill="url(#paint76_linear_10334_34935)" stroke="url(#paint77_linear_10334_34935)" stroke-width="0.289447"/>
<path d="M65.7798 19.5959C62.2382 18.0365 57.4241 19.5504 54.206 21.1477C48.9756 23.7459 45.2407 28.4316 44.0531 33.9465C43.088 38.4277 43.6819 43.053 44.9412 47.4252C45.1586 48.1785 46.3857 47.8574 46.1685 47.1019C44.2915 40.5862 44.029 33.2541 48.3209 27.5218C51.0619 23.8647 55.4042 21.3095 60.0247 20.4678C61.6179 20.1772 63.6112 19.9699 65.138 20.6423C65.8779 20.9682 66.5245 19.9219 65.7798 19.5959Z" fill="url(#paint78_linear_10334_34935)" stroke="url(#paint79_linear_10334_34935)" stroke-width="0.289447"/>
<path d="M64.1822 31.168C55.803 31.2539 51.0021 38.548 48.0014 45.0536C47.6753 45.7615 48.7701 46.3805 49.0987 45.6652C51.9008 39.5944 56.2907 32.462 64.1822 32.3812C65.0014 32.371 65.0014 31.1579 64.1822 31.168Z" fill="url(#paint80_linear_10334_34935)" stroke="url(#paint81_linear_10334_34935)" stroke-width="0.289447"/>
<path d="M59.1973 61.5405C63.0587 63.0565 67.2023 63.1715 70.9662 61.314C71.7501 60.9271 71.0637 59.7528 70.2795 60.1397C66.8365 61.8403 63.0622 61.6031 59.5599 60.2301C58.7442 59.9096 58.3923 61.2233 59.1973 61.5405Z" fill="url(#paint82_linear_10334_34935)" stroke="url(#paint83_linear_10334_34935)" stroke-width="0.289447"/>
<g opacity="0.23">
<path opacity="0.23" d="M64.1472 65.2241C62.6835 64.7675 61.4044 63.5828 60.7178 62.0354C60.547 61.6485 60.4077 61.2163 60.4809 60.7911C60.5716 60.2616 60.9724 59.8711 61.3834 59.6028C62.6939 58.735 64.2762 58.6306 65.7921 58.5642C66.2102 58.547 66.632 58.5295 67.0397 58.6271C67.7436 58.7978 68.3466 59.2927 68.9286 59.7736C69.1201 59.9339 69.3223 60.1047 69.4303 60.3485C69.4999 60.5056 69.5245 60.6832 69.5453 60.8575C69.6114 61.4499 69.6185 62.0841 69.3745 62.6139C69.0887 63.2448 68.5103 63.6175 67.9632 63.959C67.5067 64.2413 67.043 64.5271 66.5378 64.6525C66.2659 64.7186 65.9872 64.7361 65.7118 64.7468C64.6142 64.7883 63.5095 64.7014 62.4255 64.4924" fill="url(#paint84_linear_10334_34935)"/>
<path opacity="0.23" d="M64.1472 65.2241C62.6835 64.7675 61.4044 63.5828 60.7178 62.0354C60.547 61.6485 60.4077 61.2163 60.4809 60.7911C60.5716 60.2616 60.9724 59.8711 61.3834 59.6028C62.6939 58.735 64.2762 58.6306 65.7921 58.5642C66.2102 58.547 66.632 58.5295 67.0397 58.6271C67.7436 58.7978 68.3466 59.2927 68.9286 59.7736C69.1201 59.9339 69.3223 60.1047 69.4303 60.3485C69.4999 60.5056 69.5245 60.6832 69.5453 60.8575C69.6114 61.4499 69.6185 62.0841 69.3745 62.6139C69.0887 63.2448 68.5103 63.6175 67.9632 63.959C67.5067 64.2413 67.043 64.5271 66.5378 64.6525C66.2659 64.7186 65.9872 64.7361 65.7118 64.7468C64.6142 64.7883 63.5095 64.7014 62.4255 64.4924" stroke="url(#paint85_linear_10334_34935)" stroke-width="0.289447"/>
</g>
<path d="M56.1785 28.5703C51.7128 31.2512 48.4689 34.8678 46.8473 39.0234C46.603 39.6485 47.8808 39.8874 48.125 39.2664C49.6427 35.3822 52.6845 31.9376 56.8626 29.4264C57.5241 29.0284 56.8481 28.1656 56.1785 28.5703Z" fill="url(#paint86_linear_10334_34935)" stroke="url(#paint87_linear_10334_34935)" stroke-width="0.289447"/>
<path d="M82.5991 45.3368C83.1008 41.5889 83.7218 36.9264 81.0348 33.556C80.5983 33.0105 79.4733 33.5104 79.9124 34.0579C82.4555 37.2479 81.7724 41.7881 81.2978 45.3368C81.2112 45.9735 82.5125 45.9695 82.5991 45.3368Z" fill="url(#paint88_linear_10334_34935)" stroke="url(#paint89_linear_10334_34935)" stroke-width="0.289447"/>
<path fill-rule="evenodd" clip-rule="evenodd" d="M81.9524 97.7648C77.3701 97.3754 71.5651 97.1724 66.3728 97.2991C64.8528 97.3361 63.2299 97.3622 61.5658 97.3891C57.5306 97.4542 53.2529 97.5231 49.6162 97.7605C47.0463 97.9285 44.8384 98.1783 43.285 98.5589C42.5033 98.7504 41.9337 98.9646 41.5734 99.1888C41.2071 99.4171 41.1792 99.5724 41.1792 99.6294C41.1792 99.9682 40.9048 100.243 40.5663 100.243C40.2275 100.243 39.9531 99.9682 39.9531 99.6294C39.9531 98.9509 40.4077 98.4702 40.9253 98.1477C41.449 97.8216 42.1661 97.5705 42.9931 97.3678C44.6565 96.9601 46.9535 96.7055 49.5364 96.537C53.2048 96.2976 57.5339 96.2276 61.5818 96.1623C63.2373 96.1356 64.8459 96.1096 66.3429 96.0731C71.5819 95.9454 77.4312 96.1498 82.0563 96.5428C84.3668 96.7394 86.3854 96.9839 87.874 97.2606C88.6158 97.3985 89.2455 97.5477 89.72 97.7096C89.9564 97.7902 90.1738 97.8806 90.3537 97.9845C90.5169 98.0785 90.7305 98.2293 90.8523 98.4667C91.0071 98.7677 90.8883 99.1373 90.5871 99.2919C90.3038 99.4376 89.96 99.3413 89.7915 99.0788C89.7813 99.0715 89.7651 99.0606 89.7405 99.0464C89.6567 98.998 89.5214 98.9377 89.324 98.8703C88.9313 98.7363 88.3683 98.5997 87.65 98.4662C86.2182 98.2001 84.2449 97.9597 81.9524 97.7648Z" fill="url(#paint90_linear_10334_34935)" stroke="url(#paint91_linear_10334_34935)" stroke-width="0.289447" stroke-linecap="round"/>
<path fill-rule="evenodd" clip-rule="evenodd" d="M57.1826 67.3672C57.1953 69.2847 57.1155 71.3038 56.4985 73.2168V73.2171C55.5098 76.2808 53.1317 78.8574 50.1558 80.0872L50.1556 80.0875C50.0023 80.1508 49.735 80.2192 49.4406 80.2884C49.1261 80.3624 48.7215 80.4498 48.2548 80.5474C47.6631 80.671 46.9621 80.8129 46.2057 80.9657C45.7699 81.0539 45.3156 81.1458 44.8535 81.2401C42.3048 81.7598 39.5261 82.3493 38.0537 82.8176C33.4733 84.2745 31.6176 87.1804 29.5589 90.4041C29.3195 90.7793 29.077 91.1589 28.8272 91.5409L27.8008 90.87C28.0443 90.4978 28.2832 90.1218 28.5229 89.7453C30.5742 86.5224 32.6594 83.2463 37.682 81.649H37.6823C39.2309 81.1562 42.0834 80.5532 44.6085 80.0383C45.0757 79.9431 45.5323 79.8508 45.9688 79.7624C46.7219 79.6101 47.4156 79.47 48.0039 79.3469C48.4681 79.2498 48.8608 79.165 49.1603 79.0945C49.3101 79.0593 49.4327 79.0286 49.5272 79.0028C49.5743 78.9901 49.6121 78.979 49.641 78.9699C49.6554 78.9653 49.6666 78.9615 49.6749 78.9585L49.6843 78.9552C49.6866 78.9542 49.6876 78.9539 49.6876 78.9539C52.3305 77.8616 54.4533 75.5618 55.3312 72.8403C55.8846 71.1244 55.9687 69.271 55.9563 67.3753L57.1826 67.3672ZM49.6876 78.9539H49.6873L49.9202 79.5172L49.6876 78.9539Z" fill="url(#paint92_linear_10334_34935)"/>
<path d="M49.6876 78.9539L50.3796 79.2166L49.6749 78.9585C49.6666 78.9615 49.6554 78.9653 49.641 78.9699C49.6121 78.979 49.5743 78.9901 49.5272 79.0028C49.4327 79.0286 49.3101 79.0593 49.1603 79.0945C48.8608 79.165 48.4681 79.2498 48.0039 79.3469C47.4156 79.47 46.7219 79.6101 45.9688 79.7624C45.5323 79.8508 45.0757 79.9431 44.6085 80.0383C42.0834 80.5532 39.2309 81.1562 37.6823 81.649C32.6597 83.2463 30.5742 86.5224 28.5229 89.7453C28.2832 90.1218 28.0443 90.4978 27.8008 90.87L28.8272 91.5409C29.077 91.1589 29.3195 90.7793 29.5589 90.4041C31.6176 87.1804 33.4733 84.2745 38.0537 82.8176C39.5261 82.3493 42.3048 81.7598 44.8535 81.2401C45.3157 81.1458 45.7699 81.0539 46.2058 80.9657C46.9621 80.8129 47.6631 80.671 48.2548 80.5474C48.7215 80.4498 49.1261 80.3624 49.4406 80.2884C49.735 80.2192 50.0023 80.1508 50.1556 80.0875C53.1314 78.8576 55.5098 76.2808 56.4985 73.2171C57.1152 71.3041 57.1953 69.2847 57.1826 67.3672L55.9563 67.3753C55.9687 69.271 55.8846 71.1244 55.3312 72.8403C54.4533 75.5618 52.3305 77.8616 49.6876 78.9539ZM49.6876 78.9539L49.9202 79.5172" stroke="url(#paint93_linear_10334_34935)" stroke-width="0.289447" stroke-miterlimit="10"/>
<path fill-rule="evenodd" clip-rule="evenodd" d="M74.9071 66.9883C74.8947 68.8922 74.9879 71.1327 75.54 72.845C76.4182 75.5665 78.5409 77.8661 81.1839 78.9586C81.1839 78.9586 81.1841 78.9586 81.1846 78.9589C81.1851 78.9592 81.1862 78.9594 81.1872 78.9597L81.1965 78.9632C81.2049 78.9662 81.2161 78.9698 81.2305 78.9744C81.2594 78.9837 81.2971 78.9946 81.3443 79.0075C81.4388 79.0334 81.5614 79.064 81.7111 79.0993C82.0106 79.1694 82.4034 79.2546 82.8675 79.3516C83.4556 79.4745 84.1496 79.6149 84.9024 79.7672C85.3392 79.8553 85.7955 79.9478 86.263 80.0428C88.7878 80.5579 91.6406 81.161 93.1894 81.6535C98.2118 83.251 100.297 86.5269 102.349 89.75C102.588 90.1265 102.827 90.5023 103.071 90.8745L102.044 91.5457C101.794 91.1636 101.552 90.784 101.312 90.4088C99.2536 87.1849 97.3982 84.279 92.8177 82.8223C91.3454 82.3541 88.5666 81.7642 86.018 81.2446C85.5556 81.1503 85.1015 81.0586 84.6655 80.9704C83.9094 80.8174 83.2083 80.6757 82.6167 80.5521C82.1497 80.4546 81.7453 80.3669 81.4307 80.2932C81.1365 80.224 80.8694 80.1553 80.7156 80.092V80.0917C77.7398 78.8621 75.3616 76.2853 74.373 73.2215C73.755 71.305 73.6684 68.8896 73.6808 66.9805L74.9071 66.9883Z" fill="url(#paint94_linear_10334_34935)"/>
<path d="M92.8177 82.8223C97.3982 84.279 99.2536 87.1849 101.312 90.4088C101.552 90.784 101.794 91.1636 102.044 91.5457L103.071 90.8745C102.827 90.5023 102.588 90.1265 102.349 89.75C100.297 86.5269 98.2118 83.251 93.1894 81.6535C91.6406 81.161 88.7878 80.5579 86.263 80.0428C85.7955 79.9478 85.3392 79.8553 84.9024 79.7672C84.1496 79.6149 83.4556 79.4745 82.8675 79.3516C82.4034 79.2546 82.0106 79.1694 81.7111 79.0993C81.5614 79.064 81.4388 79.0334 81.3443 79.0075C81.2971 78.9946 81.2594 78.9837 81.2305 78.9744C81.2161 78.9698 81.2049 78.9662 81.1965 78.9632L81.1872 78.9597C81.1862 78.9594 81.1851 78.9592 81.1846 78.9589C81.1841 78.9586 81.1839 78.9586 81.1839 78.9586C78.5409 77.8661 76.4182 75.5665 75.54 72.845C74.9879 71.1327 74.8947 68.8922 74.9071 66.9883L73.6808 66.9805C73.6684 68.8896 73.755 71.305 74.373 73.2215C75.3616 76.2853 77.7398 78.8621 80.7156 80.0917V80.092C80.8694 80.1553 81.1365 80.224 81.4307 80.2932C81.7453 80.3669 82.1497 80.4546 82.6167 80.5521C83.2083 80.6757 83.9094 80.8174 84.6655 80.9704C85.1015 81.0586 85.5556 81.1503 86.018 81.2446C88.5666 81.7642 91.3454 82.3541 92.8177 82.8223ZM92.8177 82.8223L93.0034 82.2378" stroke="url(#paint95_linear_10334_34935)" stroke-width="0.289447" stroke-miterlimit="10"/>
<path d="M81.9889 68.8959C86.4946 66.5381 89.9823 62.686 91.8081 57.9307C92.1332 57.0868 93.5059 57.4547 93.1776 58.3083C91.217 63.4051 87.5519 67.5858 82.7049 70.121C81.8969 70.5413 81.1778 69.3196 81.9889 68.8959Z" fill="url(#paint96_linear_10334_34935)"/>
<path d="M86.8955 58.9292C88.4324 58.2431 89.9924 57.6158 91.5324 56.9425C92.1697 56.6666 93.1056 55.9868 93.769 56.5681C94.3436 57.0675 94.544 58.3546 94.7969 59.0476C95.1777 60.092 95.5783 61.1658 95.6475 62.2857C95.7032 63.1986 94.2846 63.1953 94.2286 62.2857C94.1794 61.5172 93.9002 60.7652 93.6506 60.0393C93.5194 59.6552 93.1713 58.069 92.8528 57.8851C92.7869 57.6388 92.7608 57.6583 92.7707 57.9375C92.5966 58.013 92.4225 58.0886 92.2485 58.1676C91.9003 58.3809 91.4339 58.5157 91.0498 58.6766C89.9005 59.1626 88.7476 59.642 87.6115 60.151C86.787 60.5252 86.0647 59.3037 86.8955 58.9292Z" fill="url(#paint97_linear_10334_34935)"/>
<path d="M48.6256 68.8959C44.1201 66.5381 40.6324 62.686 38.8064 57.9307C38.4813 57.0868 37.1085 57.4547 37.4371 58.3083C39.3975 63.4051 43.0625 67.5858 47.9098 70.121C48.7175 70.5413 49.4369 69.3196 48.6256 68.8959Z" fill="url(#paint98_linear_10334_34935)"/>
<path d="M43.7182 58.9292C42.1812 58.2431 40.6215 57.6158 39.0812 56.9425C38.4442 56.6666 37.508 55.9868 36.8447 56.5681C36.2701 57.0675 36.0696 58.3546 35.8168 59.0476C35.436 60.092 35.0354 61.1658 34.9665 62.2857C34.9105 63.1986 36.3291 63.1953 36.3848 62.2857C36.4342 61.5172 36.7135 60.7652 36.963 60.0393C37.0943 59.6552 37.4424 58.069 37.7612 57.8851C37.8268 57.6388 37.8529 57.6583 37.8432 57.9375C38.0173 58.013 38.1914 58.0886 38.3652 58.1676C38.7133 58.3809 39.1798 58.5157 39.5639 58.6766C40.7135 59.1626 41.866 59.642 43.0024 60.151C43.8266 60.5252 44.549 59.3037 43.7182 58.9292Z" fill="url(#paint99_linear_10334_34935)"/>
<path d="M64.1133 125.313C98.368 125.313 126.137 97.5437 126.137 63.289C126.137 29.0346 98.368 1.26562 64.1133 1.26562C29.8586 1.26562 2.08984 29.0346 2.08984 63.289C2.08984 97.5437 29.8586 125.313 64.1133 125.313Z" stroke="url(#paint100_linear_10334_34935)" stroke-width="1.67" stroke-miterlimit="10"/>
<path opacity="0.23" fill-rule="evenodd" clip-rule="evenodd" d="M53.2592 77.9096C54.2172 77.378 55.0503 76.5543 55.6237 75.5973C56.7482 73.7211 57.0385 71.4357 57.0327 69.2268C57.0312 68.359 56.2987 67.5902 55.5839 66.8397C55.1413 66.375 54.7052 65.9175 54.4539 65.4477C54.1476 64.8741 53.712 64.3949 53.2879 63.9282C52.5731 63.1415 51.8908 62.3908 51.9158 61.2853C51.4742 62.7929 51.3845 61.9187 51.308 61.1736C51.267 60.7745 51.2297 60.4124 51.1443 60.4732C50.6472 59.099 50.3041 60.0628 49.8314 61.3912C49.4559 62.4468 48.9983 63.7326 48.3164 64.2581C48.1082 64.4188 47.8999 64.5802 47.6939 64.7441C49.1731 65.9856 50.6014 67.3688 51.4927 69.0577C52.0582 70.1293 52.0474 71.1063 52.0007 72.3176C51.9838 72.76 51.76 73.2769 51.422 73.5665C51.0625 73.8749 50.5464 73.8495 50.0596 73.8257C49.9322 73.8196 49.8065 73.8136 49.6864 73.8136C47.9321 73.8136 45.2618 72.8431 43.9067 71.7734C43.7367 71.6394 43.4689 71.4549 43.1469 71.2436C42.7504 72.3341 42.4258 73.4606 42.1248 74.5752C42.013 74.9884 41.2091 76.1213 40.3241 77.3681C39.115 79.072 37.7544 80.9893 37.802 81.5741C37.8453 82.1057 39.0676 81.5414 40.3466 80.9508C41.5063 80.4154 42.7129 79.8585 43.1299 80.0769C44.0322 80.551 45.1169 80.3242 46.1017 80.0769C48.9114 79.37 51.6954 78.5688 54.4539 77.6765L53.2592 77.9096Z" fill="url(#paint101_linear_10334_34935)"/>
<path opacity="0.23" fill-rule="evenodd" clip-rule="evenodd" d="M78.7596 78.0467C77.7031 77.4683 76.7846 76.5718 76.1519 75.5302C74.9117 73.4885 74.5914 71.0014 74.5977 68.5974C74.601 67.0686 74.7422 65.4853 75.4676 64.1487C75.798 63.5381 76.4991 62.7418 77.2549 61.8833C78.1845 60.8273 79.1967 59.6777 79.7032 58.6642C80.42 58.5373 81.4043 59.8242 82.3791 61.0986C83.0201 61.9368 83.6571 62.7694 84.2107 63.1905C84.3204 63.2738 84.4299 63.3575 84.5391 63.4413C84.3936 63.552 84.249 63.6653 84.1045 63.7808C82.241 65.2714 80.2518 66.9199 79.123 69.0583C78.5577 70.1298 78.5683 71.1068 78.615 72.3182C78.6319 72.7606 78.8559 73.2775 79.1937 73.5671C79.5532 73.8754 80.0696 73.8501 80.5561 73.8263H80.5563C80.6838 73.8202 80.8092 73.8139 80.9293 73.8139C82.6836 73.8139 85.3542 72.8437 86.7089 71.774C87.1582 71.4195 88.2915 70.7144 89.2987 70.0878C89.3906 70.0305 89.4819 69.9738 89.5713 69.918C90.1705 71.3706 90.6248 72.9043 91.0391 74.4182C91.1625 74.8677 92.049 76.1003 93.0248 77.4571C94.3585 79.3116 95.8592 81.3981 95.8065 82.0348C95.7589 82.613 94.411 81.9991 93.0002 81.3563C91.7212 80.7738 90.3907 80.1674 89.9308 80.4051C88.9356 80.9212 87.7397 80.6744 86.6532 80.4051C83.5547 79.6359 80.4844 78.7643 77.4421 77.7931L78.7596 78.0467ZM80.0306 57.5575C80.0209 57.8968 79.9003 58.2702 79.7032 58.6642C79.4453 58.7101 79.222 58.9391 79.0465 59.418C78.881 59.3022 79.3903 58.5363 79.747 57.9996C79.8722 57.8114 79.9786 57.6513 80.0306 57.5575ZM80.0306 57.5575C80.0313 57.5314 80.0313 57.5058 80.0308 57.4802C80.0785 57.4496 80.0721 57.482 80.0306 57.5575Z" fill="url(#paint102_linear_10334_34935)"/>
<path fill-rule="evenodd" clip-rule="evenodd" d="M82.0094 56.5303C82.2321 56.6448 82.4107 56.8577 82.5037 57.1637V57.164C83.1503 59.3027 84.1311 61.1701 85.2807 62.9074C84.8834 63.1801 84.4932 63.4732 84.106 63.7831C84.0148 63.8558 83.9236 63.9293 83.8319 64.0028C82.5511 62.1217 81.4454 60.0892 80.7354 57.7407C80.6419 57.4323 80.6705 57.1528 80.7879 56.9289C80.9036 56.7069 81.1003 56.5518 81.3202 56.4796C81.5404 56.4077 81.7889 56.4168 82.0094 56.5303ZM88.8096 70.3956C91.0717 73.2628 93.1096 76.2581 94.025 80.1162V80.1165C94.0998 80.4304 94.264 80.6534 94.4816 80.7753C94.697 80.8959 94.9445 80.906 95.1647 80.8333C95.6101 80.6858 95.9509 80.2006 95.7992 79.5611C94.8313 75.4841 92.6723 72.3742 90.3385 69.4401C90.039 69.6304 89.6784 69.8547 89.3004 70.09C89.139 70.1906 88.9741 70.293 88.8096 70.3956Z" fill="url(#paint103_linear_10334_34935)"/>
<path fill-rule="evenodd" clip-rule="evenodd" d="M51.4903 59.252C51.6656 58.6662 51.3661 58.2132 50.9491 58.0746C50.7449 58.0067 50.5138 58.0156 50.3088 58.1223C50.1018 58.2302 49.9376 58.4296 49.8525 58.7139C49.2302 60.8001 48.2661 62.6057 47.1404 64.2858C47.5737 64.6385 48.0077 65.0016 48.4303 65.3793C49.6982 63.5465 50.8001 61.5658 51.4903 59.252ZM43.639 71.5751C43.2891 71.3288 42.7786 71.0009 42.2343 70.6586C40.315 73.1693 38.5921 75.8674 37.7836 79.3181C37.6445 79.9118 37.9562 80.3663 38.3699 80.5049C38.5744 80.5736 38.8049 80.564 39.0054 80.4502C39.2078 80.3354 39.3588 80.1261 39.4272 79.8348C40.1868 76.5906 41.7983 74.01 43.639 71.5751Z" fill="url(#paint104_linear_10334_34935)"/>
</g>
<defs>
<linearGradient id="paint0_linear_10334_34935" x1="-33.8609" y1="62.8644" x2="154.675" y2="62.8644" gradientUnits="userSpaceOnUse">
<stop stop-color="#DCC2EC"/>
<stop offset="0.501875" stop-color="#93819E"/>
<stop offset="0.830053" stop-color="#DCC3ED"/>
</linearGradient>
<linearGradient id="paint1_linear_10334_34935" x1="39.2312" y1="61.5062" x2="43.4706" y2="61.5062" gradientUnits="userSpaceOnUse">
<stop stop-color="#DCC2EC"/>
<stop offset="0.501875" stop-color="#93819E"/>
<stop offset="0.830053" stop-color="#DCC3ED"/>
</linearGradient>
<linearGradient id="paint2_linear_10334_34935" x1="33.4552" y1="70.3227" x2="89.4147" y2="70.3227" gradientUnits="userSpaceOnUse">
<stop stop-color="#DCC2EC"/>
<stop offset="0.501875" stop-color="#93819E"/>
<stop offset="0.830053" stop-color="#DCC3ED"/>
</linearGradient>
<linearGradient id="paint3_linear_10334_34935" x1="55.2672" y1="65.2745" x2="63.3934" y2="65.2745" gradientUnits="userSpaceOnUse">
<stop stop-color="#DCC2EC"/>
<stop offset="0.501875" stop-color="#93819E"/>
<stop offset="0.830053" stop-color="#DCC3ED"/>
</linearGradient>
<linearGradient id="paint4_linear_10334_34935" x1="47.1358" y1="72.2165" x2="70.9239" y2="72.2165" gradientUnits="userSpaceOnUse">
<stop stop-color="#DCC2EC"/>
<stop offset="0.501875" stop-color="#93819E"/>
<stop offset="0.830053" stop-color="#DCC3ED"/>
</linearGradient>
<linearGradient id="paint5_linear_10334_34935" x1="69.8821" y1="87.0403" x2="77.1097" y2="87.0403" gradientUnits="userSpaceOnUse">
<stop stop-color="#DCC2EC"/>
<stop offset="0.501875" stop-color="#93819E"/>
<stop offset="0.830053" stop-color="#DCC3ED"/>
</linearGradient>
<linearGradient id="paint6_linear_10334_34935" x1="45.8407" y1="81.0247" x2="49.1275" y2="81.0247" gradientUnits="userSpaceOnUse">
<stop stop-color="#DCC2EC"/>
<stop offset="0.501875" stop-color="#93819E"/>
<stop offset="0.830053" stop-color="#DCC3ED"/>
</linearGradient>
<linearGradient id="paint7_linear_10334_34935" x1="61.8414" y1="55.4784" x2="77.4195" y2="55.4784" gradientUnits="userSpaceOnUse">
<stop stop-color="#DCC2EC"/>
<stop offset="0.501875" stop-color="#93819E"/>
<stop offset="0.830053" stop-color="#DCC3ED"/>
</linearGradient>
<linearGradient id="paint8_linear_10334_34935" x1="60.4275" y1="50.4518" x2="76.7706" y2="50.4518" gradientUnits="userSpaceOnUse">
<stop stop-color="#DCC2EC"/>
<stop offset="0.501875" stop-color="#93819E"/>
<stop offset="0.830053" stop-color="#DCC3ED"/>
</linearGradient>
<linearGradient id="paint9_linear_10334_34935" x1="66.4937" y1="56.6791" x2="71.3705" y2="56.6791" gradientUnits="userSpaceOnUse">
<stop stop-color="#DCC2EC"/>
<stop offset="0.501875" stop-color="#93819E"/>
<stop offset="0.830053" stop-color="#DCC3ED"/>
</linearGradient>
<linearGradient id="paint10_linear_10334_34935" x1="65.8666" y1="56.6711" x2="71.9553" y2="56.6711" gradientUnits="userSpaceOnUse">
<stop stop-color="#DCC2EC"/>
<stop offset="0.501875" stop-color="#93819E"/>
<stop offset="0.830053" stop-color="#DCC3ED"/>
</linearGradient>
<linearGradient id="paint11_linear_10334_34935" x1="41.2481" y1="55.1538" x2="56.8237" y2="55.1538" gradientUnits="userSpaceOnUse">
<stop stop-color="#DCC2EC"/>
<stop offset="0.501875" stop-color="#93819E"/>
<stop offset="0.830053" stop-color="#DCC3ED"/>
</linearGradient>
<linearGradient id="paint12_linear_10334_34935" x1="41.865" y1="50.134" x2="58.2081" y2="50.134" gradientUnits="userSpaceOnUse">
<stop stop-color="#DCC2EC"/>
<stop offset="0.501875" stop-color="#93819E"/>
<stop offset="0.830053" stop-color="#DCC3ED"/>
</linearGradient>
<linearGradient id="paint13_linear_10334_34935" x1="47.6266" y1="56.3589" x2="52.5033" y2="56.3589" gradientUnits="userSpaceOnUse">
<stop stop-color="#DCC2EC"/>
<stop offset="0.501875" stop-color="#93819E"/>
<stop offset="0.830053" stop-color="#DCC3ED"/>
</linearGradient>
<linearGradient id="paint14_linear_10334_34935" x1="46.9995" y1="56.3508" x2="53.0879" y2="56.3508" gradientUnits="userSpaceOnUse">
<stop stop-color="#DCC2EC"/>
<stop offset="0.501875" stop-color="#93819E"/>
<stop offset="0.830053" stop-color="#DCC3ED"/>
</linearGradient>
<linearGradient id="paint15_linear_10334_34935" x1="75.8735" y1="60.0294" x2="86.4793" y2="60.0294" gradientUnits="userSpaceOnUse">
<stop stop-color="#DCC2EC"/>
<stop offset="0.501875" stop-color="#93819E"/>
<stop offset="0.830053" stop-color="#DCC3ED"/>
</linearGradient>
<linearGradient id="paint16_linear_10334_34935" x1="77.5542" y1="59.6776" x2="83.3941" y2="59.6776" gradientUnits="userSpaceOnUse">
<stop stop-color="#DCC2EC"/>
<stop offset="0.501875" stop-color="#93819E"/>
<stop offset="0.830053" stop-color="#DCC3ED"/>
</linearGradient>
<linearGradient id="paint17_linear_10334_34935" x1="37.8161" y1="66.865" x2="43.1994" y2="66.865" gradientUnits="userSpaceOnUse">
<stop stop-color="#DCC2EC"/>
<stop offset="0.501875" stop-color="#93819E"/>
<stop offset="0.830053" stop-color="#DCC3ED"/>
</linearGradient>
<linearGradient id="paint18_linear_10334_34935" x1="34.0618" y1="59.4242" x2="41.4759" y2="59.4242" gradientUnits="userSpaceOnUse">
<stop stop-color="#DCC2EC"/>
<stop offset="0.501875" stop-color="#93819E"/>
<stop offset="0.830053" stop-color="#DCC3ED"/>
</linearGradient>
<linearGradient id="paint19_linear_10334_34935" x1="36.6399" y1="60.3252" x2="42.481" y2="60.3252" gradientUnits="userSpaceOnUse">
<stop stop-color="#DCC2EC"/>
<stop offset="0.501875" stop-color="#93819E"/>
<stop offset="0.830053" stop-color="#DCC3ED"/>
</linearGradient>
<linearGradient id="paint20_linear_10334_34935" x1="20.3533" y1="74.4058" x2="37.5452" y2="74.4058" gradientUnits="userSpaceOnUse">
<stop stop-color="#DCC2EC"/>
<stop offset="0.501875" stop-color="#93819E"/>
<stop offset="0.830053" stop-color="#DCC3ED"/>
</linearGradient>
<linearGradient id="paint21_linear_10334_34935" x1="28.9649" y1="71.5151" x2="42.1707" y2="71.5151" gradientUnits="userSpaceOnUse">
<stop stop-color="#DCC2EC"/>
<stop offset="0.501875" stop-color="#93819E"/>
<stop offset="0.830053" stop-color="#DCC3ED"/>
</linearGradient>
<linearGradient id="paint22_linear_10334_34935" x1="32.9841" y1="73.6069" x2="46.916" y2="73.6069" gradientUnits="userSpaceOnUse">
<stop stop-color="#DCC2EC"/>
<stop offset="0.501875" stop-color="#93819E"/>
<stop offset="0.830053" stop-color="#DCC3ED"/>
</linearGradient>
<linearGradient id="paint23_linear_10334_34935" x1="35.4188" y1="79.3799" x2="57.4175" y2="79.3799" gradientUnits="userSpaceOnUse">
<stop stop-color="#DCC2EC"/>
<stop offset="0.501875" stop-color="#93819E"/>
<stop offset="0.830053" stop-color="#DCC3ED"/>
</linearGradient>
<linearGradient id="paint24_linear_10334_34935" x1="21.0911" y1="91.6268" x2="52.1332" y2="91.6268" gradientUnits="userSpaceOnUse">
<stop stop-color="#DCC2EC"/>
<stop offset="0.501875" stop-color="#93819E"/>
<stop offset="0.830053" stop-color="#DCC3ED"/>
</linearGradient>
<linearGradient id="paint25_linear_10334_34935" x1="48.1712" y1="94.8594" x2="60.5944" y2="94.8594" gradientUnits="userSpaceOnUse">
<stop stop-color="#DCC2EC"/>
<stop offset="0.501875" stop-color="#93819E"/>
<stop offset="0.830053" stop-color="#DCC3ED"/>
</linearGradient>
<linearGradient id="paint26_linear_10334_34935" x1="57.3047" y1="44.0519" x2="83.2818" y2="44.0519" gradientUnits="userSpaceOnUse">
<stop stop-color="#DCC2EC"/>
<stop offset="0.501875" stop-color="#93819E"/>
<stop offset="0.830053" stop-color="#DCC3ED"/>
</linearGradient>
<linearGradient id="paint27_linear_10334_34935" x1="58.9661" y1="30.3327" x2="62.23" y2="30.3327" gradientUnits="userSpaceOnUse">
<stop stop-color="#DCC2EC"/>
<stop offset="0.501875" stop-color="#93819E"/>
<stop offset="0.830053" stop-color="#DCC3ED"/>
</linearGradient>
<linearGradient id="paint28_linear_10334_34935" x1="55.525" y1="37.5321" x2="90.6224" y2="37.5321" gradientUnits="userSpaceOnUse">
<stop stop-color="#DCC2EC"/>
<stop offset="0.501875" stop-color="#93819E"/>
<stop offset="0.830053" stop-color="#DCC3ED"/>
</linearGradient>
<linearGradient id="paint29_linear_10334_34935" x1="25.5146" y1="37.4069" x2="67.5807" y2="37.4069" gradientUnits="userSpaceOnUse">
<stop stop-color="#DCC2EC"/>
<stop offset="0.501875" stop-color="#93819E"/>
<stop offset="0.830053" stop-color="#DCC3ED"/>
</linearGradient>
<linearGradient id="paint30_linear_10334_34935" x1="33.7621" y1="38.786" x2="52.8653" y2="38.786" gradientUnits="userSpaceOnUse">
<stop stop-color="#DCC2EC"/>
<stop offset="0.501875" stop-color="#93819E"/>
<stop offset="0.830053" stop-color="#DCC3ED"/>
</linearGradient>
<linearGradient id="paint31_linear_10334_34935" x1="32.6336" y1="43.3861" x2="64.1335" y2="43.3861" gradientUnits="userSpaceOnUse">
<stop stop-color="#DCC2EC"/>
<stop offset="0.501875" stop-color="#93819E"/>
<stop offset="0.830053" stop-color="#DCC3ED"/>
</linearGradient>
<linearGradient id="paint32_linear_10334_34935" x1="72.3617" y1="82.4117" x2="104.433" y2="82.4117" gradientUnits="userSpaceOnUse">
<stop stop-color="#DCC2EC"/>
<stop offset="0.501875" stop-color="#93819E"/>
<stop offset="0.830053" stop-color="#DCC3ED"/>
</linearGradient>
<linearGradient id="paint33_linear_10334_34935" x1="78.0758" y1="85.9012" x2="96.9242" y2="85.9012" gradientUnits="userSpaceOnUse">
<stop stop-color="#DCC2EC"/>
<stop offset="0.501875" stop-color="#93819E"/>
<stop offset="0.830053" stop-color="#DCC3ED"/>
</linearGradient>
<linearGradient id="paint34_linear_10334_34935" x1="70.3266" y1="88.0807" x2="91.3235" y2="88.0807" gradientUnits="userSpaceOnUse">
<stop stop-color="#DCC2EC"/>
<stop offset="0.501875" stop-color="#93819E"/>
<stop offset="0.830053" stop-color="#DCC3ED"/>
</linearGradient>
<linearGradient id="paint35_linear_10334_34935" x1="76.5441" y1="44.6142" x2="82.6029" y2="44.6142" gradientUnits="userSpaceOnUse">
<stop stop-color="#DCC2EC"/>
<stop offset="0.501875" stop-color="#93819E"/>
<stop offset="0.830053" stop-color="#DCC3ED"/>
</linearGradient>
<linearGradient id="paint36_linear_10334_34935" x1="21.042" y1="37.8741" x2="95.1292" y2="37.8741" gradientUnits="userSpaceOnUse">
<stop stop-color="#DCC2EC"/>
<stop offset="0.501875" stop-color="#93819E"/>
<stop offset="0.830053" stop-color="#DCC3ED"/>
</linearGradient>
<linearGradient id="paint37_linear_10334_34935" x1="66.0502" y1="83.9428" x2="101.635" y2="83.9428" gradientUnits="userSpaceOnUse">
<stop stop-color="#DCC2EC"/>
<stop offset="0.501875" stop-color="#93819E"/>
<stop offset="0.830053" stop-color="#DCC3ED"/>
</linearGradient>
<linearGradient id="paint38_linear_10334_34935" x1="50.4876" y1="72.8178" x2="67.7541" y2="72.8178" gradientUnits="userSpaceOnUse">
<stop stop-color="#DCC2EC"/>
<stop offset="0.501875" stop-color="#93819E"/>
<stop offset="0.830053" stop-color="#DCC3ED"/>
</linearGradient>
<linearGradient id="paint39_linear_10334_34935" x1="55.637" y1="48.5093" x2="59.3201" y2="48.5093" gradientUnits="userSpaceOnUse">
<stop stop-color="#DCC2EC"/>
<stop offset="0.501875" stop-color="#93819E"/>
<stop offset="0.830053" stop-color="#DCC3ED"/>
</linearGradient>
<linearGradient id="paint40_linear_10334_34935" x1="71.2815" y1="48.7828" x2="74.9647" y2="48.7828" gradientUnits="userSpaceOnUse">
<stop stop-color="#DCC2EC"/>
<stop offset="0.501875" stop-color="#93819E"/>
<stop offset="0.830053" stop-color="#DCC3ED"/>
</linearGradient>
<linearGradient id="paint41_linear_10334_34935" x1="33.452" y1="33.2517" x2="93.3403" y2="33.2517" gradientUnits="userSpaceOnUse">
<stop stop-color="#DCC2EC"/>
<stop offset="0.501875" stop-color="#93819E"/>
<stop offset="0.830053" stop-color="#DCC3ED"/>
</linearGradient>
<linearGradient id="paint42_linear_10334_34935" x1="66.97" y1="84.7043" x2="78.3271" y2="84.7043" gradientUnits="userSpaceOnUse">
<stop stop-color="#DCC2EC"/>
<stop offset="0.501875" stop-color="#93819E"/>
<stop offset="0.830053" stop-color="#DCC3ED"/>
</linearGradient>
<linearGradient id="paint43_linear_10334_34935" x1="66.97" y1="84.7043" x2="78.3271" y2="84.7043" gradientUnits="userSpaceOnUse">
<stop stop-color="#DCC2EC"/>
<stop offset="0.501875" stop-color="#93819E"/>
<stop offset="0.830053" stop-color="#DCC3ED"/>
</linearGradient>
<linearGradient id="paint44_linear_10334_34935" x1="53.4822" y1="84.7043" x2="64.8368" y2="84.7043" gradientUnits="userSpaceOnUse">
<stop stop-color="#DCC2EC"/>
<stop offset="0.501875" stop-color="#93819E"/>
<stop offset="0.830053" stop-color="#DCC3ED"/>
</linearGradient>
<linearGradient id="paint45_linear_10334_34935" x1="53.4822" y1="84.7043" x2="64.8368" y2="84.7043" gradientUnits="userSpaceOnUse">
<stop stop-color="#DCC2EC"/>
<stop offset="0.501875" stop-color="#93819E"/>
<stop offset="0.830053" stop-color="#DCC3ED"/>
</linearGradient>
<linearGradient id="paint46_linear_10334_34935" x1="48.2265" y1="53.2645" x2="52.0978" y2="53.2645" gradientUnits="userSpaceOnUse">
<stop stop-color="#DCC2EC"/>
<stop offset="0.501875" stop-color="#93819E"/>
<stop offset="0.830053" stop-color="#DCC3ED"/>
</linearGradient>
<linearGradient id="paint47_linear_10334_34935" x1="48.2265" y1="53.2645" x2="52.0978" y2="53.2645" gradientUnits="userSpaceOnUse">
<stop stop-color="#DCC2EC"/>
<stop offset="0.501875" stop-color="#93819E"/>
<stop offset="0.830053" stop-color="#DCC3ED"/>
</linearGradient>
<linearGradient id="paint48_linear_10334_34935" x1="40.9717" y1="59.5525" x2="90.1165" y2="59.5525" gradientUnits="userSpaceOnUse">
<stop stop-color="#DCC2EC"/>
<stop offset="0.501875" stop-color="#93819E"/>
<stop offset="0.830053" stop-color="#DCC3ED"/>
</linearGradient>
<linearGradient id="paint49_linear_10334_34935" x1="40.9717" y1="59.5525" x2="90.1165" y2="59.5525" gradientUnits="userSpaceOnUse">
<stop stop-color="#DCC2EC"/>
<stop offset="0.501875" stop-color="#93819E"/>
<stop offset="0.830053" stop-color="#DCC3ED"/>
</linearGradient>
<linearGradient id="paint50_linear_10334_34935" x1="78.6189" y1="51.2545" x2="87.1998" y2="51.2545" gradientUnits="userSpaceOnUse">
<stop stop-color="#DCC2EC"/>
<stop offset="0.501875" stop-color="#93819E"/>
<stop offset="0.830053" stop-color="#DCC3ED"/>
</linearGradient>
<linearGradient id="paint51_linear_10334_34935" x1="78.6189" y1="51.2545" x2="87.1998" y2="51.2545" gradientUnits="userSpaceOnUse">
<stop stop-color="#DCC2EC"/>
<stop offset="0.501875" stop-color="#93819E"/>
<stop offset="0.830053" stop-color="#DCC3ED"/>
</linearGradient>
<linearGradient id="paint52_linear_10334_34935" x1="43.1967" y1="50.7591" x2="49.3577" y2="50.7591" gradientUnits="userSpaceOnUse">
<stop stop-color="#DCC2EC"/>
<stop offset="0.501875" stop-color="#93819E"/>
<stop offset="0.830053" stop-color="#DCC3ED"/>
</linearGradient>
<linearGradient id="paint53_linear_10334_34935" x1="43.1967" y1="50.7591" x2="49.3577" y2="50.7591" gradientUnits="userSpaceOnUse">
<stop stop-color="#DCC2EC"/>
<stop offset="0.501875" stop-color="#93819E"/>
<stop offset="0.830053" stop-color="#DCC3ED"/>
</linearGradient>
<linearGradient id="paint54_linear_10334_34935" x1="80.0139" y1="50.9614" x2="84.6597" y2="50.9614" gradientUnits="userSpaceOnUse">
<stop stop-color="#DCC2EC"/>
<stop offset="0.501875" stop-color="#93819E"/>
<stop offset="0.830053" stop-color="#DCC3ED"/>
</linearGradient>
<linearGradient id="paint55_linear_10334_34935" x1="80.0139" y1="50.9614" x2="84.6597" y2="50.9614" gradientUnits="userSpaceOnUse">
<stop stop-color="#DCC2EC"/>
<stop offset="0.501875" stop-color="#93819E"/>
<stop offset="0.830053" stop-color="#DCC3ED"/>
</linearGradient>
<linearGradient id="paint56_linear_10334_34935" x1="45.8059" y1="49.7587" x2="51.0778" y2="49.7587" gradientUnits="userSpaceOnUse">
<stop stop-color="#DCC2EC"/>
<stop offset="0.501875" stop-color="#93819E"/>
<stop offset="0.830053" stop-color="#DCC3ED"/>
</linearGradient>
<linearGradient id="paint57_linear_10334_34935" x1="45.8059" y1="49.7587" x2="51.0778" y2="49.7587" gradientUnits="userSpaceOnUse">
<stop stop-color="#DCC2EC"/>
<stop offset="0.501875" stop-color="#93819E"/>
<stop offset="0.830053" stop-color="#DCC3ED"/>
</linearGradient>
<linearGradient id="paint58_linear_10334_34935" x1="61.7252" y1="55.4922" x2="68.2524" y2="55.4922" gradientUnits="userSpaceOnUse">
<stop stop-color="#DCC2EC"/>
<stop offset="0.501875" stop-color="#93819E"/>
<stop offset="0.830053" stop-color="#DCC3ED"/>
</linearGradient>
<linearGradient id="paint59_linear_10334_34935" x1="61.7252" y1="55.4922" x2="68.2524" y2="55.4922" gradientUnits="userSpaceOnUse">
<stop stop-color="#DCC2EC"/>
<stop offset="0.501875" stop-color="#93819E"/>
<stop offset="0.830053" stop-color="#DCC3ED"/>
</linearGradient>
<linearGradient id="paint60_linear_10334_34935" x1="67.1437" y1="47.9796" x2="79.7951" y2="47.9796" gradientUnits="userSpaceOnUse">
<stop stop-color="#DCC2EC"/>
<stop offset="0.501875" stop-color="#93819E"/>
<stop offset="0.830053" stop-color="#DCC3ED"/>
</linearGradient>
<linearGradient id="paint61_linear_10334_34935" x1="67.1437" y1="47.9796" x2="79.7951" y2="47.9796" gradientUnits="userSpaceOnUse">
<stop stop-color="#DCC2EC"/>
<stop offset="0.501875" stop-color="#93819E"/>
<stop offset="0.830053" stop-color="#DCC3ED"/>
</linearGradient>
<linearGradient id="paint62_linear_10334_34935" x1="65.9773" y1="43.8481" x2="79.2624" y2="43.8481" gradientUnits="userSpaceOnUse">
<stop stop-color="#DCC2EC"/>
<stop offset="0.501875" stop-color="#93819E"/>
<stop offset="0.830053" stop-color="#DCC3ED"/>
</linearGradient>
<linearGradient id="paint63_linear_10334_34935" x1="65.9773" y1="43.8481" x2="79.2624" y2="43.8481" gradientUnits="userSpaceOnUse">
<stop stop-color="#DCC2EC"/>
<stop offset="0.501875" stop-color="#93819E"/>
<stop offset="0.830053" stop-color="#DCC3ED"/>
</linearGradient>
<linearGradient id="paint64_linear_10334_34935" x1="69.9204" y1="48.9646" x2="75.8069" y2="48.9646" gradientUnits="userSpaceOnUse">
<stop stop-color="#DCC2EC"/>
<stop offset="0.501875" stop-color="#93819E"/>
<stop offset="0.830053" stop-color="#DCC3ED"/>
</linearGradient>
<linearGradient id="paint65_linear_10334_34935" x1="69.9204" y1="48.9646" x2="75.8069" y2="48.9646" gradientUnits="userSpaceOnUse">
<stop stop-color="#DCC2EC"/>
<stop offset="0.501875" stop-color="#93819E"/>
<stop offset="0.830053" stop-color="#DCC3ED"/>
</linearGradient>
<linearGradient id="paint66_linear_10334_34935" x1="50.1792" y1="47.7175" x2="62.8289" y2="47.7175" gradientUnits="userSpaceOnUse">
<stop stop-color="#DCC2EC"/>
<stop offset="0.501875" stop-color="#93819E"/>
<stop offset="0.830053" stop-color="#DCC3ED"/>
</linearGradient>
<linearGradient id="paint67_linear_10334_34935" x1="50.1792" y1="47.7175" x2="62.8289" y2="47.7175" gradientUnits="userSpaceOnUse">
<stop stop-color="#DCC2EC"/>
<stop offset="0.501875" stop-color="#93819E"/>
<stop offset="0.830053" stop-color="#DCC3ED"/>
</linearGradient>
<linearGradient id="paint68_linear_10334_34935" x1="50.6964" y1="43.5708" x2="63.9796" y2="43.5708" gradientUnits="userSpaceOnUse">
<stop stop-color="#DCC2EC"/>
<stop offset="0.501875" stop-color="#93819E"/>
<stop offset="0.830053" stop-color="#DCC3ED"/>
</linearGradient>
<linearGradient id="paint69_linear_10334_34935" x1="50.6964" y1="43.5708" x2="63.9796" y2="43.5708" gradientUnits="userSpaceOnUse">
<stop stop-color="#DCC2EC"/>
<stop offset="0.501875" stop-color="#93819E"/>
<stop offset="0.830053" stop-color="#DCC3ED"/>
</linearGradient>
<linearGradient id="paint70_linear_10334_34935" x1="54.3774" y1="48.6909" x2="60.2641" y2="48.6909" gradientUnits="userSpaceOnUse">
<stop stop-color="#DCC2EC"/>
<stop offset="0.501875" stop-color="#93819E"/>
<stop offset="0.830053" stop-color="#DCC3ED"/>
</linearGradient>
<linearGradient id="paint71_linear_10334_34935" x1="54.3774" y1="48.6909" x2="60.2641" y2="48.6909" gradientUnits="userSpaceOnUse">
<stop stop-color="#DCC2EC"/>
<stop offset="0.501875" stop-color="#93819E"/>
<stop offset="0.830053" stop-color="#DCC3ED"/>
</linearGradient>
<linearGradient id="paint72_linear_10334_34935" x1="63.4013" y1="39.0205" x2="84.6232" y2="39.0205" gradientUnits="userSpaceOnUse">
<stop stop-color="#DCC2EC"/>
<stop offset="0.501875" stop-color="#93819E"/>
<stop offset="0.830053" stop-color="#DCC3ED"/>
</linearGradient>
<linearGradient id="paint73_linear_10334_34935" x1="63.4013" y1="39.0205" x2="84.6232" y2="39.0205" gradientUnits="userSpaceOnUse">
<stop stop-color="#DCC2EC"/>
<stop offset="0.501875" stop-color="#93819E"/>
<stop offset="0.830053" stop-color="#DCC3ED"/>
</linearGradient>
<linearGradient id="paint74_linear_10334_34935" x1="64.7675" y1="28.2557" x2="67.2828" y2="28.2557" gradientUnits="userSpaceOnUse">
<stop stop-color="#DCC2EC"/>
<stop offset="0.501875" stop-color="#93819E"/>
<stop offset="0.830053" stop-color="#DCC3ED"/>
</linearGradient>
<linearGradient id="paint75_linear_10334_34935" x1="64.7675" y1="28.2557" x2="67.2828" y2="28.2557" gradientUnits="userSpaceOnUse">
<stop stop-color="#DCC2EC"/>
<stop offset="0.501875" stop-color="#93819E"/>
<stop offset="0.830053" stop-color="#DCC3ED"/>
</linearGradient>
<linearGradient id="paint76_linear_10334_34935" x1="61.9312" y1="33.9037" x2="90.6327" y2="33.9037" gradientUnits="userSpaceOnUse">
<stop stop-color="#DCC2EC"/>
<stop offset="0.501875" stop-color="#93819E"/>
<stop offset="0.830053" stop-color="#DCC3ED"/>
</linearGradient>
<linearGradient id="paint77_linear_10334_34935" x1="61.9312" y1="33.9037" x2="90.6327" y2="33.9037" gradientUnits="userSpaceOnUse">
<stop stop-color="#DCC2EC"/>
<stop offset="0.501875" stop-color="#93819E"/>
<stop offset="0.830053" stop-color="#DCC3ED"/>
</linearGradient>
<linearGradient id="paint78_linear_10334_34935" x1="37.0684" y1="33.2567" x2="71.5427" y2="33.2567" gradientUnits="userSpaceOnUse">
<stop stop-color="#DCC2EC"/>
<stop offset="0.501875" stop-color="#93819E"/>
<stop offset="0.830053" stop-color="#DCC3ED"/>
</linearGradient>
<linearGradient id="paint79_linear_10334_34935" x1="37.0684" y1="33.2567" x2="71.5427" y2="33.2567" gradientUnits="userSpaceOnUse">
<stop stop-color="#DCC2EC"/>
<stop offset="0.501875" stop-color="#93819E"/>
<stop offset="0.830053" stop-color="#DCC3ED"/>
</linearGradient>
<linearGradient id="paint80_linear_10334_34935" x1="43.0755" y1="38.5031" x2="68.8599" y2="38.5031" gradientUnits="userSpaceOnUse">
<stop stop-color="#DCC2EC"/>
<stop offset="0.501875" stop-color="#93819E"/>
<stop offset="0.830053" stop-color="#DCC3ED"/>
</linearGradient>
<linearGradient id="paint81_linear_10334_34935" x1="43.0755" y1="38.5031" x2="68.8599" y2="38.5031" gradientUnits="userSpaceOnUse">
<stop stop-color="#DCC2EC"/>
<stop offset="0.501875" stop-color="#93819E"/>
<stop offset="0.830053" stop-color="#DCC3ED"/>
</linearGradient>
<linearGradient id="paint82_linear_10334_34935" x1="55.1133" y1="61.3647" x2="74.3425" y2="61.3647" gradientUnits="userSpaceOnUse">
<stop stop-color="#DCC2EC"/>
<stop offset="0.501875" stop-color="#93819E"/>
<stop offset="0.830053" stop-color="#DCC3ED"/>
</linearGradient>
<linearGradient id="paint83_linear_10334_34935" x1="55.1133" y1="61.3647" x2="74.3425" y2="61.3647" gradientUnits="userSpaceOnUse">
<stop stop-color="#DCC2EC"/>
<stop offset="0.501875" stop-color="#93819E"/>
<stop offset="0.830053" stop-color="#DCC3ED"/>
</linearGradient>
<linearGradient id="paint84_linear_10334_34935" x1="57.827" y1="61.8549" x2="71.7843" y2="61.8549" gradientUnits="userSpaceOnUse">
<stop stop-color="#DCC2EC"/>
<stop offset="0.501875" stop-color="#93819E"/>
<stop offset="0.830053" stop-color="#DCC3ED"/>
</linearGradient>
<linearGradient id="paint85_linear_10334_34935" x1="57.827" y1="61.8549" x2="71.7843" y2="61.8549" gradientUnits="userSpaceOnUse">
<stop stop-color="#DCC2EC"/>
<stop offset="0.501875" stop-color="#93819E"/>
<stop offset="0.830053" stop-color="#DCC3ED"/>
</linearGradient>
<linearGradient id="paint86_linear_10334_34935" x1="43.838" y1="33.9925" x2="59.6206" y2="33.9925" gradientUnits="userSpaceOnUse">
<stop stop-color="#DCC2EC"/>
<stop offset="0.501875" stop-color="#93819E"/>
<stop offset="0.830053" stop-color="#DCC3ED"/>
</linearGradient>
<linearGradient id="paint87_linear_10334_34935" x1="43.838" y1="33.9925" x2="59.6206" y2="33.9925" gradientUnits="userSpaceOnUse">
<stop stop-color="#DCC2EC"/>
<stop offset="0.501875" stop-color="#93819E"/>
<stop offset="0.830053" stop-color="#DCC3ED"/>
</linearGradient>
<linearGradient id="paint88_linear_10334_34935" x1="78.8806" y1="39.5056" x2="83.8187" y2="39.5056" gradientUnits="userSpaceOnUse">
<stop stop-color="#DCC2EC"/>
<stop offset="0.501875" stop-color="#93819E"/>
<stop offset="0.830053" stop-color="#DCC3ED"/>
</linearGradient>
<linearGradient id="paint89_linear_10334_34935" x1="78.8806" y1="39.5056" x2="83.8187" y2="39.5056" gradientUnits="userSpaceOnUse">
<stop stop-color="#DCC2EC"/>
<stop offset="0.501875" stop-color="#93819E"/>
<stop offset="0.830053" stop-color="#DCC3ED"/>
</linearGradient>
<linearGradient id="paint90_linear_10334_34935" x1="25.2394" y1="98.1183" x2="103.207" y2="98.1183" gradientUnits="userSpaceOnUse">
<stop stop-color="#DCC2EC"/>
<stop offset="0.501875" stop-color="#93819E"/>
<stop offset="0.830053" stop-color="#DCC3ED"/>
</linearGradient>
<linearGradient id="paint91_linear_10334_34935" x1="25.2394" y1="98.1183" x2="103.207" y2="98.1183" gradientUnits="userSpaceOnUse">
<stop stop-color="#DCC2EC"/>
<stop offset="0.501875" stop-color="#93819E"/>
<stop offset="0.830053" stop-color="#DCC3ED"/>
</linearGradient>
<linearGradient id="paint92_linear_10334_34935" x1="19.3182" y1="79.336" x2="64.2672" y2="79.336" gradientUnits="userSpaceOnUse">
<stop stop-color="#DCC2EC"/>
<stop offset="0.501875" stop-color="#93819E"/>
<stop offset="0.830053" stop-color="#DCC3ED"/>
</linearGradient>
<linearGradient id="paint93_linear_10334_34935" x1="19.3182" y1="79.336" x2="64.2672" y2="79.336" gradientUnits="userSpaceOnUse">
<stop stop-color="#DCC2EC"/>
<stop offset="0.501875" stop-color="#93819E"/>
<stop offset="0.830053" stop-color="#DCC3ED"/>
</linearGradient>
<linearGradient id="paint94_linear_10334_34935" x1="65.1948" y1="79.1431" x2="110.156" y2="79.1431" gradientUnits="userSpaceOnUse">
<stop stop-color="#DCC2EC"/>
<stop offset="0.501875" stop-color="#93819E"/>
<stop offset="0.830053" stop-color="#DCC3ED"/>
</linearGradient>
<linearGradient id="paint95_linear_10334_34935" x1="65.1948" y1="79.1431" x2="110.156" y2="79.1431" gradientUnits="userSpaceOnUse">
<stop stop-color="#DCC2EC"/>
<stop offset="0.501875" stop-color="#93819E"/>
<stop offset="0.830053" stop-color="#DCC3ED"/>
</linearGradient>
<linearGradient id="paint96_linear_10334_34935" x1="78.2854" y1="63.7681" x2="96.0232" y2="63.7681" gradientUnits="userSpaceOnUse">
<stop stop-color="#DCC2EC"/>
<stop offset="0.501875" stop-color="#93819E"/>
<stop offset="0.830053" stop-color="#DCC3ED"/>
</linearGradient>
<linearGradient id="paint97_linear_10334_34935" x1="83.894" y1="59.6221" x2="97.8481" y2="59.6221" gradientUnits="userSpaceOnUse">
<stop stop-color="#DCC2EC"/>
<stop offset="0.501875" stop-color="#93819E"/>
<stop offset="0.830053" stop-color="#DCC3ED"/>
</linearGradient>
<linearGradient id="paint98_linear_10334_34935" x1="34.0393" y1="63.7681" x2="51.777" y2="63.7681" gradientUnits="userSpaceOnUse">
<stop stop-color="#DCC2EC"/>
<stop offset="0.501875" stop-color="#93819E"/>
<stop offset="0.830053" stop-color="#DCC3ED"/>
</linearGradient>
<linearGradient id="paint99_linear_10334_34935" x1="32.3316" y1="59.6221" x2="46.2853" y2="59.6221" gradientUnits="userSpaceOnUse">
<stop stop-color="#DCC2EC"/>
<stop offset="0.501875" stop-color="#93819E"/>
<stop offset="0.830053" stop-color="#DCC3ED"/>
</linearGradient>
<linearGradient id="paint100_linear_10334_34935" x1="-33.7213" y1="62.6834" x2="156.041" y2="62.6834" gradientUnits="userSpaceOnUse">
<stop stop-color="#DCC2EC"/>
<stop offset="0.501875" stop-color="#93819E"/>
<stop offset="0.830053" stop-color="#DCC3ED"/>
</linearGradient>
<linearGradient id="paint101_linear_10334_34935" x1="32.2487" y1="70.6882" x2="61.6691" y2="70.6882" gradientUnits="userSpaceOnUse">
<stop stop-color="#DCC2EC"/>
<stop offset="0.501875" stop-color="#93819E"/>
<stop offset="0.830053" stop-color="#DCC3ED"/>
</linearGradient>
<linearGradient id="paint102_linear_10334_34935" x1="68.4745" y1="69.7461" x2="100.921" y2="69.7461" gradientUnits="userSpaceOnUse">
<stop stop-color="#DCC2EC"/>
<stop offset="0.501875" stop-color="#93819E"/>
<stop offset="0.830053" stop-color="#DCC3ED"/>
</linearGradient>
<linearGradient id="paint103_linear_10334_34935" x1="76.3043" y1="68.5369" x2="99.4895" y2="68.5369" gradientUnits="userSpaceOnUse">
<stop stop-color="#DCC2EC"/>
<stop offset="0.501875" stop-color="#93819E"/>
<stop offset="0.830053" stop-color="#DCC3ED"/>
</linearGradient>
<linearGradient id="paint104_linear_10334_34935" x1="33.7686" y1="69.1797" x2="54.8661" y2="69.1797" gradientUnits="userSpaceOnUse">
<stop stop-color="#DCC2EC"/>
<stop offset="0.501875" stop-color="#93819E"/>
<stop offset="0.830053" stop-color="#DCC3ED"/>
</linearGradient>
<clipPath id="clip0_10334_34935">
<rect width="126.119" height="126.119" fill="white" transform="translate(0.535156)"/>
</clipPath>
</defs>
</svg>
