<svg width="200" height="28" viewBox="0 0 200 28" fill="none" xmlns="http://www.w3.org/2000/svg">
<rect x="0.834396" y="1.24846" width="78.3781" height="26.0119" rx="13.0059" fill="url(#paint0_linear_10352_1044)"/>
<rect x="0.834396" y="1.24846" width="78.3781" height="26.0119" rx="13.0059" stroke="url(#paint1_linear_10352_1044)" stroke-width="0.621918"/>
<path d="M16.5654 16.7945H12.625L12.0014 18.2539H10.5021L14.363 9.35136H14.8406L18.7015 18.2539H17.189L16.5654 16.7945ZM14.6018 11.9651L13.1291 15.5871H16.0613L14.6018 11.9651ZM27.3136 9.4973V18.3998H26.836L21.5024 12.3233V18.2539H20.0961V9.35136H20.587L25.9073 15.4014V9.4973H27.3136ZM31.5849 10.7577H28.6395V9.4973H35.95V10.7577H32.9913V18.2539H31.5849V10.7577ZM37.2636 9.4973H38.6699V18.2539H37.2636V9.4973ZM40.4274 13.451H43.6912V14.6319H40.4274V13.451ZM50.1619 16.7945H46.2215L45.5979 18.2539H44.0987L47.9595 9.35136H48.4372L52.298 18.2539H50.7855L50.1619 16.7945ZM48.1983 11.9651L46.7256 15.5871H49.6578L48.1983 11.9651ZM57.5717 18.3998C56.7137 18.3998 55.9309 18.2008 55.2233 17.8028C54.5246 17.4048 53.9717 16.8608 53.5649 16.1709C53.158 15.481 52.9546 14.7159 52.9546 13.8756C52.9546 13.0353 53.158 12.2702 53.5649 11.5803C53.9717 10.8904 54.529 10.3464 55.2366 9.9484C55.9442 9.55037 56.7226 9.35136 57.5717 9.35136C58.3324 9.35136 59.0223 9.51057 59.6414 9.82899C60.2606 10.1474 60.778 10.5985 61.1937 11.1823L60.1721 12.0181C59.5176 11.0983 58.6464 10.6383 57.5584 10.6383C56.9481 10.6383 56.4041 10.7798 55.9265 11.0629C55.4489 11.3371 55.0774 11.7218 54.812 12.2172C54.5467 12.7036 54.414 13.252 54.414 13.8623C54.414 14.4815 54.5511 15.0432 54.8253 15.5473C55.0995 16.0426 55.4798 16.4318 55.9663 16.7149C56.4528 16.9979 57.01 17.1394 57.638 17.1394C58.2129 17.1394 58.7215 17.0244 59.1638 16.7945C59.6149 16.5557 59.9775 16.2284 60.2517 15.8127V14.8707H57.5584V13.6235H61.6581V16.0913C61.2689 16.7901 60.7117 17.3517 59.9864 17.7763C59.2611 18.192 58.4562 18.3998 57.5717 18.3998ZM63.3841 9.4973H69.1423V10.7577H64.7905V12.9999H68.0676V14.2206H64.7905V16.9935H69.3015V18.2539H63.3841V9.4973Z" fill="white"/>
<rect x="87.7852" y="20.0859" width="11.6642" height="3.43065" transform="rotate(-90 87.7852 20.0859)" fill="url(#paint2_linear_10352_1044)"/>
<rect x="95.332" y="15.9688" width="11.6642" height="3.43065" transform="rotate(180 95.332 15.9688)" fill="url(#paint3_linear_10352_1044)"/>
<rect x="99.7914" y="1.24846" width="99.3781" height="26.0119" rx="13.0059" fill="url(#paint4_linear_10352_1044)"/>
<rect x="99.7914" y="1.24846" width="99.3781" height="26.0119" rx="13.0059" stroke="url(#paint5_linear_10352_1044)" stroke-width="0.621918"/>
<path d="M111.527 9.01391H113.011V12.6959H117.659V9.01391H119.143V18.2539H117.659V14.0259H113.011V18.2539H111.527V9.01391ZM125.4 14.5299V18.2539H123.916V14.5299L120.724 9.01391H122.376L124.658 13.0319L126.954 9.01391H128.592L125.4 14.5299ZM130.162 9.01391H133.06C134.068 9.01391 134.95 9.20991 135.706 9.60191C136.462 9.98457 137.045 10.5259 137.456 11.2259C137.876 11.9166 138.086 12.7146 138.086 13.6199C138.086 14.5159 137.876 15.3139 137.456 16.0139C137.045 16.7139 136.457 17.2646 135.692 17.6659C134.936 18.0579 134.059 18.2539 133.06 18.2539H130.162V9.01391ZM133.046 16.9239C133.755 16.9239 134.376 16.7839 134.908 16.5039C135.44 16.2239 135.846 15.8319 136.126 15.3279C136.415 14.8239 136.56 14.2546 136.56 13.6199C136.56 12.9666 136.415 12.3972 136.126 11.9119C135.846 11.4172 135.44 11.0346 134.908 10.7639C134.385 10.4932 133.765 10.3579 133.046 10.3579H131.646V16.9239H133.046ZM145.665 18.2539L143.033 14.6839H141.339V18.2539H139.855V9.01391H143.229C143.845 9.01391 144.391 9.13524 144.867 9.37791C145.343 9.61124 145.712 9.94257 145.973 10.3719C146.235 10.8012 146.365 11.2912 146.365 11.8419C146.365 12.4486 146.207 12.9806 145.889 13.4379C145.572 13.8952 145.138 14.2312 144.587 14.4459L147.359 18.2539H145.665ZM141.339 13.3679H143.201C143.715 13.3679 144.116 13.2279 144.405 12.9479C144.695 12.6679 144.839 12.3039 144.839 11.8559C144.839 11.3986 144.695 11.0299 144.405 10.7499C144.116 10.4699 143.715 10.3299 143.201 10.3299H141.339V13.3679ZM154.231 16.7139H150.073L149.415 18.2539H147.833L151.907 8.85991H152.411L156.485 18.2539H154.889L154.231 16.7139ZM152.159 11.6179L150.605 15.4399H153.699L152.159 11.6179ZM159.074 10.3439H155.966V9.01391H163.68V10.3439H160.558V18.2539H159.074V10.3439ZM165.066 9.01391H166.55V18.2539H165.066V9.01391ZM173.165 18.4079C172.278 18.4079 171.461 18.1979 170.715 17.7779C169.977 17.3579 169.394 16.7839 168.965 16.0559C168.535 15.3279 168.321 14.5206 168.321 13.6339C168.321 12.7472 168.535 11.9399 168.965 11.2119C169.403 10.4839 169.991 9.90991 170.729 9.48991C171.466 9.06991 172.278 8.85991 173.165 8.85991C174.042 8.85991 174.854 9.06991 175.601 9.48991C176.347 9.90991 176.935 10.4839 177.365 11.2119C177.803 11.9399 178.023 12.7472 178.023 13.6339C178.023 14.5206 177.803 15.3279 177.365 16.0559C176.935 16.7839 176.347 17.3579 175.601 17.7779C174.854 18.1979 174.042 18.4079 173.165 18.4079ZM173.179 17.0499C173.804 17.0499 174.369 16.9052 174.873 16.6159C175.377 16.3172 175.773 15.9066 176.063 15.3839C176.352 14.8612 176.497 14.2732 176.497 13.6199C176.497 12.9852 176.352 12.4066 176.063 11.8839C175.773 11.3612 175.377 10.9552 174.873 10.6659C174.369 10.3672 173.804 10.2179 173.179 10.2179C172.544 10.2179 171.975 10.3672 171.471 10.6659C170.967 10.9552 170.57 11.3612 170.281 11.8839C170.001 12.3972 169.861 12.9759 169.861 13.6199C169.861 14.2732 170.001 14.8612 170.281 15.3839C170.57 15.9066 170.967 16.3172 171.471 16.6159C171.975 16.9052 172.544 17.0499 173.179 17.0499ZM187.421 9.01391V18.4079H186.917L181.289 11.9959V18.2539H179.805V8.85991H180.323L185.937 15.2439V9.01391H187.421Z" fill="white"/>
<defs>
<linearGradient id="paint0_linear_10352_1044" x1="-22.2831" y1="14.1243" x2="98.5681" y2="14.1243" gradientUnits="userSpaceOnUse">
<stop stop-color="#DCC2EC"/>
<stop offset="0.501875" stop-color="#93819E"/>
<stop offset="0.830053" stop-color="#DCC3ED"/>
</linearGradient>
<linearGradient id="paint1_linear_10352_1044" x1="-22.2831" y1="14.1243" x2="98.5681" y2="14.1243" gradientUnits="userSpaceOnUse">
<stop stop-color="#DCC2EC"/>
<stop offset="0.501875" stop-color="#93819E"/>
<stop offset="0.830053" stop-color="#DCC3ED"/>
</linearGradient>
<linearGradient id="paint2_linear_10352_1044" x1="84.4178" y1="21.7845" x2="102.261" y2="21.7845" gradientUnits="userSpaceOnUse">
<stop stop-color="#DCC2EC"/>
<stop offset="0.501875" stop-color="#93819E"/>
<stop offset="0.830053" stop-color="#DCC3ED"/>
</linearGradient>
<linearGradient id="paint3_linear_10352_1044" x1="91.9647" y1="17.6673" x2="109.808" y2="17.6673" gradientUnits="userSpaceOnUse">
<stop stop-color="#DCC2EC"/>
<stop offset="0.501875" stop-color="#93819E"/>
<stop offset="0.830053" stop-color="#DCC3ED"/>
</linearGradient>
<linearGradient id="paint4_linear_10352_1044" x1="70.6114" y1="14.1243" x2="223.588" y2="14.1243" gradientUnits="userSpaceOnUse">
<stop stop-color="#DCC2EC"/>
<stop offset="0.501875" stop-color="#93819E"/>
<stop offset="0.830053" stop-color="#DCC3ED"/>
</linearGradient>
<linearGradient id="paint5_linear_10352_1044" x1="70.6114" y1="14.1243" x2="223.588" y2="14.1243" gradientUnits="userSpaceOnUse">
<stop stop-color="#DCC2EC"/>
<stop offset="0.501875" stop-color="#93819E"/>
<stop offset="0.830053" stop-color="#DCC3ED"/>
</linearGradient>
</defs>
</svg>
