<svg width="121" height="121" viewBox="0 0 121 121" fill="none" xmlns="http://www.w3.org/2000/svg">
    <g clip-path="url(#clip0_1323_49209)">
        <mask id="mask0_1323_49209" style="mask-type:luminance" maskUnits="userSpaceOnUse" x="0" y="0" width="121" height="121">
            <path d="M120.49 0.532227H0.729492V120.293H120.49V0.532227Z" fill="white"/>
        </mask>
        <g mask="url(#mask0_1323_49209)">
            <path d="M60.2588 119.521C92.6406 119.521 118.892 93.2701 118.892 60.888C118.892 28.5062 92.6406 2.25537 60.2588 2.25537C27.8767 2.25537 1.62598 28.5062 1.62598 60.888C1.62598 93.2701 27.8767 119.521 60.2588 119.521Z" stroke="url(#paint0_linear_1323_49209)" stroke-width="1.51597" stroke-miterlimit="10"/>
            <path d="M38.1068 53.4303C37.9755 57.3151 38.3284 61.1462 39.1528 64.9407C39.3703 65.9457 40.9166 65.5192 40.6953 64.5141C39.8994 60.8509 39.5753 57.1716 39.7066 53.4303C39.7434 52.4008 38.1396 52.4008 38.1068 53.4303Z" fill="url(#paint1_linear_1323_49209)"/>
            <path d="M42.1156 72.4209C45.4629 75.596 48.9537 78.8612 53.2814 80.6375C55.2996 81.466 57.5599 82.1019 59.7216 81.4784C61.7645 80.8835 63.7458 79.5956 65.489 78.4018C69.1523 75.8954 72.3108 72.585 74.1199 68.4911C76.1135 63.9872 76.4047 58.991 76.6754 54.1422C76.7329 53.1127 75.1331 53.1168 75.0756 54.1422C74.8378 58.4248 74.6162 62.8427 73.0534 66.8873C71.5108 70.8827 68.6601 74.156 65.2102 76.642C63.7374 77.7002 62.1542 78.6724 60.5092 79.4315C58.0562 80.5675 55.6524 79.9769 53.2854 78.8981C49.4296 77.1383 46.2874 74.1644 43.2478 71.2806C42.5013 70.5833 41.369 71.7113 42.1156 72.4209Z" fill="url(#paint2_linear_1323_49209)"/>
            <path d="M54.4111 63.0631C55.728 63.8837 57.3893 63.8878 58.7101 63.0796C59.5879 62.5421 58.7841 61.1558 57.9019 61.6971C57.0447 62.2221 56.0684 62.2142 55.2193 61.6808C54.3455 61.1352 53.5374 62.5177 54.4111 63.0631Z" fill="url(#paint3_linear_1323_49209)"/>
            <path d="M49.647 69.421C54.1922 71.2055 59.0693 71.3408 63.4997 69.1544C64.4226 68.6991 63.6144 67.3166 62.6916 67.7719C58.6386 69.7738 54.196 69.4948 50.0736 67.8788C49.1138 67.5013 48.6995 69.0476 49.647 69.421Z" fill="url(#paint4_linear_1323_49209)"/>
            <path d="M68.3322 74.5657C67.9301 77.8802 67.5404 81.2356 67.9629 84.5707C68.3363 87.524 69.5667 89.9525 70.8096 92.6105C71.2446 93.5417 72.6268 92.7295 72.1921 91.8026C70.8386 88.9106 69.6242 86.3549 69.4233 83.1063C69.2467 80.2512 69.5873 77.3961 69.932 74.5657C70.0549 73.5444 68.4551 73.5525 68.3322 74.5657Z" fill="url(#paint5_linear_1323_49209)"/>
            <path d="M44.5657 74.8639C44.7339 76.6562 44.6273 78.4122 44.2213 80.1635C43.9873 81.1645 45.5339 81.5952 45.7636 80.5901C46.2026 78.6991 46.3461 76.7959 46.1655 74.8639C46.0711 73.8464 44.4714 73.8342 44.5657 74.8639Z" fill="url(#paint6_linear_1323_49209)"/>
            <path d="M63.1702 54.6551C64.9793 52.2922 68.0231 53.166 70.1436 54.5648C71.0052 55.1351 71.8092 53.7485 70.9518 53.1825C67.9697 51.2134 64.1508 50.7581 61.7879 53.847C61.1604 54.6632 62.5508 55.4632 63.1702 54.6551Z" fill="url(#paint7_linear_1323_49209)"/>
            <path d="M61.5807 50.0309C63.8655 48.4024 66.86 47.6476 69.1898 49.6371C69.9694 50.3015 71.1055 49.1777 70.3223 48.5049C67.4506 46.0519 63.7014 46.5566 60.7726 48.6486C59.9397 49.2433 60.7397 50.6337 61.5807 50.0309Z" fill="url(#paint8_linear_1323_49209)"/>
            <path d="M64.2015 53.0407C64.1646 53.5658 64.1112 54.0949 64.144 54.624C64.2343 56.0434 65.1859 56.1706 65.4487 56.224C65.7112 56.2812 66.0065 56.2443 66.2116 56.0762C66.3019 56.0024 66.3716 55.9121 66.4331 55.8178C67.0607 54.903 67.3026 53.7339 67.0935 52.647" fill="url(#paint9_linear_1323_49209)"/>
            <path d="M63.8018 53.0395C63.7033 54.4259 63.5968 56.2637 65.3196 56.6041C67.3338 57.0019 67.7069 53.8886 67.4856 52.5389C67.4035 52.0304 66.6322 52.2477 66.7144 52.7523C66.8413 53.544 66.6691 56.1981 65.3362 55.7878C64.2324 55.4472 64.5402 53.9131 64.6018 53.0395C64.6387 52.5267 63.8389 52.5308 63.8018 53.0395Z" fill="url(#paint10_linear_1323_49209)"/>
            <path d="M51.5647 53.5369C49.2018 50.4521 45.3867 50.9034 42.4006 52.8722C41.5431 53.4385 42.3472 54.825 43.2088 54.2547C45.3254 52.8559 48.369 51.9781 50.1822 54.345C50.7975 55.1532 52.1882 54.3573 51.5647 53.5369Z" fill="url(#paint11_linear_1323_49209)"/>
            <path d="M52.5724 48.3459C49.6435 46.258 45.8943 45.7493 43.0227 48.2022C42.2392 48.8707 43.3755 49.9988 44.1549 49.3344C46.4809 47.349 49.4794 48.0997 51.7642 49.7282C52.6052 50.3272 53.4049 48.9406 52.5724 48.3459Z" fill="url(#paint12_linear_1323_49209)"/>
            <path d="M49.1481 52.7361C49.185 53.2613 49.2384 53.7904 49.2056 54.3195C49.1153 55.7389 48.1637 55.8661 47.9012 55.9193C47.6384 55.9768 47.3433 55.9399 47.1381 55.7717C47.0478 55.698 46.9781 55.6074 46.9165 55.5133C46.289 54.5983 46.0471 53.4295 46.2562 52.3423" fill="url(#paint13_linear_1323_49209)"/>
            <path d="M48.743 52.7347C48.8043 53.6085 49.1121 55.1426 48.0086 55.4832C46.6795 55.8935 46.5032 53.2394 46.6304 52.4478C46.7123 51.9431 45.9411 51.7256 45.8591 52.2343C45.6376 53.5881 46.0108 56.6973 48.0249 56.2995C49.7478 55.9591 49.6412 54.1213 49.5427 52.7347C49.5058 52.2219 48.7058 52.2178 48.743 52.7347Z" fill="url(#paint14_linear_1323_49209)"/>
            <path d="M76.5752 52.6074C80.4476 54.039 79.7297 63.4532 75.0945 62.7559C74.0854 62.6041 73.6504 64.1466 74.6679 64.2982C81.4648 65.3154 82.8638 53.2309 77.002 51.0608C76.0298 50.7042 75.6155 52.2505 76.5752 52.6074Z" fill="url(#paint15_linear_1323_49209)"/>
            <path d="M76.3991 58.9895C76.6288 57.9679 77.2032 57.1147 78.0892 56.5569C78.9589 56.0113 78.1548 54.6247 77.2813 55.1744C76.0547 55.9456 75.1728 57.1435 74.8528 58.5626C74.6312 59.5677 76.1735 59.9945 76.3991 58.9895Z" fill="url(#paint16_linear_1323_49209)"/>
            <path d="M37.4954 64.8329C38.2173 65.0667 38.9598 65.0542 39.7021 64.9108C40.1289 64.8289 40.3708 64.3201 40.2599 63.9263C40.1371 63.4832 39.7021 63.2863 39.2757 63.3685C38.812 63.4586 38.3692 63.4341 37.922 63.2904C36.9375 62.9704 36.515 64.517 37.4954 64.8329Z" fill="url(#paint17_linear_1323_49209)"/>
            <path d="M37.3726 51.6765C33.0286 53.2477 33.168 58.6049 34.7227 62.1491C35.1369 63.0885 36.5153 62.2762 36.105 61.3409C35.0015 58.8264 34.5462 54.3922 37.7951 53.219C38.7592 52.8703 38.3448 51.3237 37.3726 51.6765Z" fill="url(#paint18_linear_1323_49209)"/>
            <path d="M39.512 59.1801C39.192 57.7607 38.3141 56.5631 37.0837 55.7918C36.2099 55.2421 35.4058 56.6244 36.2756 57.1741C37.1656 57.732 37.7359 58.5895 37.9656 59.6067C38.1953 60.6077 39.7376 60.1851 39.512 59.1801Z" fill="url(#paint19_linear_1323_49209)"/>
            <path d="M26.3702 74.5906C25.2711 71.2558 24.6351 67.8263 24.0075 64.3765C23.7491 64.713 23.4948 65.0534 23.2363 65.3897C26.3415 65.1928 27.4449 70.702 28.0727 72.9375C28.6428 74.9557 30.3534 77.2038 31.781 78.7133C32.4904 79.4639 33.6186 78.3317 32.913 77.5811C31.7604 76.3585 30.6447 74.6481 29.8447 73.159C29.6275 72.749 29.8119 73.1878 29.6356 72.6052C29.4387 71.9571 29.2991 71.2927 29.0981 70.6445C28.2737 68.0069 26.678 63.5727 23.2322 63.7899C22.6825 63.8268 22.3625 64.2699 22.4611 64.8031C23.0887 68.2529 23.7244 71.6821 24.8239 75.0172C25.1479 75.9894 26.6943 75.571 26.3702 74.5906Z" fill="url(#paint20_linear_1323_49209)"/>
            <path d="M31.6666 75.645C31.5847 74.074 31.6625 72.4865 31.6912 70.9155C31.6953 70.6199 31.7037 70.3205 31.7078 70.0252C31.7159 69.5617 31.7281 69.8242 31.6338 70.0376C31.7775 69.7011 32.0606 69.3648 32.2532 69.0611C33.1106 67.7157 33.972 66.3703 34.8457 65.0331C35.2477 64.4218 36.2979 62.4855 36.663 62.3133C36.3389 62.2723 36.0148 62.2314 35.6948 62.1861C37.3643 63.5358 36.1008 67.0429 35.3176 68.5813C34.8498 69.4961 36.2323 70.3083 36.6999 69.3895C37.8115 67.2113 39.2187 62.9861 36.8271 61.0539C36.5277 60.812 36.2077 60.7629 35.8589 60.927C35.051 61.3123 34.3454 62.8917 33.8857 63.5849C32.8932 65.0903 31.9209 66.6082 30.949 68.1301C29.5705 70.2961 29.9315 73.1262 30.0668 75.645C30.1202 76.6664 31.7241 76.6745 31.6666 75.645Z" fill="url(#paint21_linear_1323_49209)"/>
            <path d="M35.5831 76.6421C35.4109 75.0835 35.4969 73.5 35.5953 71.9412C35.6281 71.4081 35.7266 70.8581 35.7184 70.3249C35.7144 69.9721 35.4109 70.7556 35.5913 70.6368C35.7184 70.5547 35.8128 70.4234 35.94 70.3372C38.0073 68.9508 39.9968 66.9285 41.7443 65.1563C41.3259 65.1032 40.9074 65.0497 40.4892 64.9966C40.8665 65.5748 41.1414 66.3582 40.8255 67.0557C40.4071 67.9867 41.7853 68.803 42.2078 67.8636C42.7615 66.6332 42.6099 65.3288 41.8715 64.1925C41.5924 63.7659 40.9896 63.6509 40.6162 64.0325C39.6439 65.0169 38.5898 65.9235 37.5479 66.8342C36.6126 67.6545 35.2753 68.4749 34.5124 69.4636C34.0612 70.0502 34.0899 70.5793 34.0324 71.33C33.9053 73.0938 33.7824 74.8864 33.979 76.6464C34.094 77.6555 35.6978 77.6636 35.5831 76.6421Z" fill="url(#paint22_linear_1323_49209)"/>
            <path d="M39.4937 77.5759C39.3174 76.3987 39.3462 75.1639 39.3134 73.9785C39.2968 73.4411 39.3503 72.8669 39.2722 72.3335C39.1656 71.591 39.264 71.9685 39.1124 72.1982C40.1994 70.59 41.8032 68.2684 43.4564 67.2264C43.0626 67.0664 42.6729 66.9064 42.2789 66.7464C42.677 68.5268 42.1436 70.2662 41.3807 71.87C41.1016 72.4566 40.8106 72.871 40.79 73.5108C40.7531 74.7742 41.0197 76.6775 41.7294 77.7359C42.882 79.4506 44.568 80.9479 45.9955 82.4245C47.3122 83.7824 48.6291 85.2631 50.1673 86.379C51.0039 86.986 51.8039 85.5955 50.9754 84.9965C49.4944 83.9218 48.2269 82.4329 46.9596 81.1201C45.7371 79.8566 43.7148 78.2897 42.9189 76.6818C42.6523 76.1443 42.6523 75.328 42.562 74.717C42.5004 74.2942 42.3529 73.7898 42.3692 73.3591C42.3364 73.0679 42.3282 73.1129 42.3407 73.4945C42.4267 73.3345 42.5088 73.1704 42.5948 73.0104C43.8624 71.1766 44.2971 68.4449 43.8214 66.3199C43.7105 65.8236 43.0667 65.5773 42.6441 65.8401C41.5816 66.5045 40.7694 67.6284 39.9778 68.5761C39.3337 69.3472 38.3328 70.2537 37.8899 71.1725C37.5043 71.9644 37.6765 72.8791 37.7012 73.761C37.738 75.168 37.734 76.6037 37.9471 77.9984C38.1033 79.0157 39.6456 78.585 39.4937 77.5759Z" fill="url(#paint23_linear_1323_49209)"/>
            <path d="M25.7462 77.155C28.5848 82.0733 33.2449 86.7335 37.7611 90.0971C38.8686 90.9215 40.2512 92.029 41.6171 92.3859C42.335 92.5747 41.9906 92.2587 42.2243 92.8741C42.4128 93.3622 42.4825 93.9244 42.5975 94.4329C43.2907 97.5383 42.9271 95.722 43.3331 98.8765C43.4603 99.8856 45.0641 99.8978 44.9328 98.8765C44.535 95.7711 44.9316 97.653 44.2713 94.5969C44.0866 93.7438 44.0088 92.5172 43.545 91.7543C43.0035 90.8683 41.609 90.6712 40.7271 90.1586C37.5029 88.292 34.7666 85.5478 32.2686 82.8199C30.4349 80.8223 28.4988 78.7098 27.1328 76.3471C26.6159 75.4527 25.2296 76.2609 25.7462 77.155Z" fill="url(#paint24_linear_1323_49209)"/>
            <path d="M48.3024 84.8645C50.21 86.6653 50.7185 88.4169 51.6291 90.7098C53.147 94.5247 52.8382 93.7184 54.1918 97.6032C54.528 98.5714 56.0746 98.1529 55.734 97.1766C54.3271 93.1318 54.4761 93.8071 52.9745 89.8075C52.0641 87.3872 51.3954 85.5781 49.4306 83.728C48.684 83.0267 47.5518 84.1548 48.3024 84.8645Z" fill="url(#paint25_linear_1323_49209)"/>
            <path d="M75.3366 50.8903C75.1069 42.321 69.8398 32.4762 59.9457 33.4115C58.9284 33.5056 58.9203 35.1097 59.9457 35.0113C68.9416 34.1622 73.5277 43.1372 73.7368 50.8903C73.7615 51.9157 75.3653 51.9198 75.3366 50.8903Z" fill="url(#paint26_linear_1323_49209)"/>
            <path d="M56.6884 25.0292C57.0328 27.9415 57.1681 30.8541 57.0903 33.787C57.0615 34.8165 58.6654 34.8165 58.6901 33.787C58.7679 30.8541 58.6366 27.9415 58.2879 25.0292C58.1691 24.0159 56.5653 24.0076 56.6884 25.0292Z" fill="url(#paint27_linear_1323_49209)"/>
            <path d="M78.577 52.5624C85.7226 39.0791 75.9641 19.1348 59.8963 19.8035C58.8707 19.8445 58.8625 21.4483 59.8963 21.4033C67.4522 21.0874 73.634 25.4889 76.8419 32.1876C79.7011 38.1519 80.3655 45.7777 77.1988 51.7543C76.7107 52.6609 78.0929 53.4731 78.577 52.5624Z" fill="url(#paint28_linear_1323_49209)"/>
            <path d="M57.5701 19.4847C53.4884 17.6223 48.0288 19.3739 44.2999 21.2813C38.1878 24.4071 33.7986 30.1006 32.3916 36.8281C31.2472 42.3002 31.9445 47.9363 33.4007 53.2731C33.6716 54.2659 35.218 53.8434 34.943 52.8465C32.8101 45.0321 32.4654 36.2702 37.3018 29.3541C40.4357 24.8707 45.4443 21.7367 50.7933 20.6824C52.6477 20.3174 54.9775 20.0507 56.766 20.8629C57.6932 21.2896 58.5052 19.9112 57.5701 19.4847Z" fill="url(#paint29_linear_1323_49209)"/>
            <path d="M46.2773 29.5763C41.2112 33.3914 37.5317 38.5272 35.5872 44.5653C35.2713 45.5499 36.8179 45.9681 37.1298 44.9918C38.9345 39.3844 42.3762 34.503 47.0854 30.9588C47.9017 30.3475 47.1017 28.9571 46.2773 29.5763Z" fill="url(#paint30_linear_1323_49209)"/>
            <path d="M55.519 32.8292C45.7971 33.0014 40.2757 41.7349 36.7727 49.6846C36.3624 50.6199 37.7406 51.4362 38.155 50.4927C41.4038 43.1171 46.4084 34.589 55.519 34.429C56.5444 34.4125 56.5485 32.8127 55.519 32.8292Z" fill="url(#paint31_linear_1323_49209)"/>
            <path d="M94.3496 94.31C95.494 87.3857 91.4945 80.4945 87.5524 75.1249C85.5096 72.3436 83.2535 69.706 80.78 67.2981C79.3196 65.8746 77.6952 64.2217 75.8207 63.3354C74.8935 62.8966 74.0813 64.2789 75.0126 64.718C76.7189 65.5261 78.1711 66.9987 79.5084 68.2947C81.8178 70.5263 83.9467 72.9589 85.8705 75.5309C89.6322 80.5517 93.8902 87.3038 92.803 93.8835C92.6389 94.8885 94.1812 95.3232 94.3496 94.31Z" fill="url(#paint32_linear_1323_49209)"/>
            <path d="M89.1164 88.2311C84.8748 84.7197 81.5152 80.4206 79.132 75.4613C78.6848 74.5343 77.3066 75.3425 77.7497 76.2694C80.1861 81.3437 83.6525 85.7739 87.9842 89.3631C88.7718 90.0153 89.9121 88.8915 89.1164 88.2311Z" fill="url(#paint33_linear_1323_49209)"/>
            <path d="M82.9632 88.1875C80.3912 88.0972 77.413 86.9896 75.6329 85.1274C74.0659 83.4905 73.0896 81.3781 72.1419 79.3475C71.7031 78.4162 70.3246 79.2287 70.7596 80.1556C71.9328 82.6579 73.1962 85.2667 75.3704 87.0636C77.3761 88.725 80.383 89.6969 82.9632 89.7872C83.9929 89.8241 83.9929 88.2244 82.9632 88.1875Z" fill="url(#paint34_linear_1323_49209)"/>
            <path d="M77.1877 51.5623C77.7539 45.9795 78.4305 39.1699 75.4114 34.1369C74.8823 33.255 73.4959 34.0588 74.0291 34.945C76.8717 39.6828 76.117 46.2993 75.5879 51.5623C75.4854 52.5879 77.0852 52.5795 77.1877 51.5623Z" fill="url(#paint35_linear_1323_49209)"/>
            <path opacity="0.23" d="M78.6115 35.9164C78.1559 33.496 77.5652 31.0143 76.0886 28.9961C74.7061 27.101 72.8153 25.575 70.805 24.3814C66.3011 21.6986 61.2268 21.2022 56.0869 21.2146C51.5051 21.2268 46.5209 21.6904 42.6733 24.4346C38.5137 27.3963 36.4752 32.1753 35.0189 36.9049C33.7267 41.1053 31.7331 47.365 35.4577 50.7985C35.8393 52.2957 38.4031 52.1398 38.4728 50.3391C38.6615 45.388 41.0735 40.8428 45.0321 37.8689C46.9478 36.4289 49.6838 34.1563 52.1858 34.255C53.839 34.3207 55.7425 34.0335 57.576 33.8653C57.3217 31.0924 56.8541 28.3358 56.7597 25.5463C56.6941 23.5732 59.7542 23.5815 59.8239 25.5463C59.9183 28.307 60.3777 31.0349 60.6361 33.7832C62.9046 33.976 64.7669 35.5183 66.8508 36.6464C69.074 37.8483 70.4318 40.5597 71.4575 42.7666C72.5772 45.1786 73.0448 47.7015 73.8776 50.1997C74.5135 52.1154 76.7696 53.0505 77.9921 51.0323C79.239 48.9731 79.4072 46.2371 79.3947 43.8948C79.3825 41.216 79.1037 38.5415 78.6115 35.9164Z" fill="url(#paint36_linear_1323_49209)"/>
            <path opacity="0.23" d="M78.968 91.7117C75.9325 92.192 72.8765 90.2926 71.2564 87.6794C69.6358 85.0667 69.2176 81.8832 69.2257 78.8068C69.2298 76.8502 69.4144 74.8238 70.362 73.1132C71.5474 70.9678 73.9184 69.2492 73.8612 66.796C74.2219 66.5704 74.6856 66.8166 75.0384 67.0585C77.3189 68.6255 79.567 70.2334 81.7862 71.8868C82.9634 72.7647 84.1366 73.6588 85.1538 74.717C88.1443 77.8265 89.5471 82.1007 90.7081 86.2562C91.0897 87.6181 91.4547 89.0169 91.3356 90.4279C91.2166 91.8391 90.5234 93.2789 89.2602 93.9187C87.9596 94.5793 86.3967 94.2633 84.9776 93.9187C80.9287 92.9342 76.917 91.8186 72.9421 90.5757" fill="url(#paint37_linear_1323_49209)"/>
            <path opacity="0.23" d="M55.4676 73.7518C53.745 73.2146 52.2394 71.8199 51.4312 69.9985C51.2303 69.5432 51.0662 69.0347 51.1524 68.5341C51.259 67.9106 51.7309 67.4512 52.2149 67.1353C53.7572 66.114 55.6195 65.9909 57.4039 65.913C57.8961 65.8924 58.3924 65.8718 58.8724 65.9868C59.7009 66.1878 60.4106 66.7703 61.0957 67.3365C61.3213 67.525 61.5594 67.7262 61.6863 68.0132C61.7685 68.1978 61.7972 68.4069 61.8219 68.6122C61.8997 69.3094 61.9079 70.056 61.6207 70.6795C61.2844 71.422 60.6034 71.8611 59.9596 72.263C59.4221 72.5952 58.8765 72.9315 58.2818 73.0793C57.9618 73.1571 57.6336 73.1777 57.3095 73.1899C56.0173 73.2393 54.7172 73.1367 53.4415 72.8905" fill="url(#paint38_linear_1323_49209)"/>
        </g>
        <circle cx="61.3636" cy="60.9207" r="60.4192" fill="white"/>
        <path d="M53.5914 45.9673C53.5938 45.8866 53.5989 45.8008 53.6367 45.7304C53.7375 45.536 53.9998 45.5083 54.2168 45.5057C54.5977 45.5008 54.9786 45.4958 55.3595 45.4907C55.4149 45.4907 55.473 45.4907 55.5234 45.5134C55.5789 45.5411 55.6167 45.5941 55.6495 45.6445C55.7831 45.8514 55.8841 46.0859 55.8817 46.3331C55.8766 46.7089 55.6292 47.0368 55.3771 47.3167C55.2763 47.4278 55.1678 47.5387 55.0417 47.6195C54.744 47.8087 53.8814 48.0281 53.6999 47.6195C53.6266 47.4531 53.73 47.1527 53.7225 46.9763C53.7074 46.6332 53.5813 46.3155 53.5914 45.9673Z" fill="url(#paint39_linear_1323_49209)"/>
        <path d="M68.4771 46.2276C68.4798 46.1468 68.4846 46.0612 68.5227 45.9906C68.6235 45.7963 68.8858 45.7686 69.1027 45.7662C69.4836 45.7611 69.8643 45.7558 70.2455 45.751C70.3007 45.751 70.3588 45.751 70.4091 45.7736C70.4646 45.8014 70.5024 45.8544 70.5355 45.9048C70.669 46.1116 70.7701 46.3462 70.7674 46.5933C70.7623 46.9692 70.5152 47.297 70.2628 47.5772C70.162 47.6881 70.0536 47.7989 69.9275 47.8797C69.6297 48.069 68.7672 48.2883 68.5856 47.8797C68.5123 47.7134 68.616 47.413 68.6083 47.2365C68.5931 46.8935 68.467 46.5757 68.4771 46.2276Z" fill="url(#paint40_linear_1323_49209)"/>
        <path opacity="0.23" d="M79.1896 31.663C78.8217 29.7975 78.3442 27.885 77.1506 26.3296C76.0329 24.8689 74.5045 23.6929 72.8796 22.7729C69.2388 20.7052 65.1371 20.3228 60.9823 20.3322C57.2784 20.3417 53.2497 20.699 50.1393 22.8139C46.7772 25.0964 45.1292 28.7797 43.952 32.4248C42.9074 35.662 41.296 40.4865 44.3068 43.1326C44.6152 44.2866 46.6875 44.1666 46.7439 42.7787C46.8963 38.9626 48.8461 35.4597 52.046 33.1678C53.5944 32.0581 55.8061 30.3067 57.8288 30.3824C59.1653 30.433 60.7036 30.2119 62.186 30.0822C61.9804 27.945 61.6024 25.8206 61.526 23.6708C61.4729 22.1501 63.9466 22.1564 64.003 23.6708C64.0792 25.7985 64.4507 27.9007 64.6595 30.019C66.4932 30.1676 67.9987 31.3563 69.6831 32.2257C71.4804 33.1519 72.5778 35.2416 73.4069 36.9424C74.3121 38.8013 74.6901 40.7457 75.3632 42.6712C75.8772 44.1475 77.701 44.8681 78.6889 43.3129C79.6971 41.7259 79.8331 39.6172 79.8232 37.812C79.8131 35.7476 79.5877 33.6864 79.1896 31.663Z" fill="url(#paint41_linear_1323_49209)"/>
        <path d="M66.7513 83.2562C68.2038 81.4628 70.1303 80.3415 72.3793 79.9756C73.1445 79.8524 72.8181 78.6634 72.0608 78.7868C69.6332 79.1805 67.4697 80.4449 65.9008 82.3854C65.4073 82.9936 66.2581 83.8685 66.7513 83.2562Z" fill="url(#paint42_linear_1323_49209)" stroke="url(#paint43_linear_1323_49209)" stroke-width="0.275404"/>
        <path d="M59.8331 82.3854C58.2641 80.449 56.1007 79.1843 53.673 78.7868C52.9158 78.6634 52.5893 79.8524 53.3545 79.9756C55.6035 80.3415 57.53 81.4589 58.9825 83.2562C59.4758 83.8685 60.3227 82.9936 59.8331 82.3854Z" fill="url(#paint44_linear_1323_49209)" stroke="url(#paint45_linear_1323_49209)" stroke-width="0.275404"/>
        <path d="M46.5857 45.7821C46.4808 49.3966 47.1139 53.3553 47.7935 56.8864C47.9567 57.7387 49.1298 57.3286 48.9666 56.4764C48.3103 53.0588 47.6886 49.2741 47.7935 45.7821C47.8169 44.9125 46.6127 44.9125 46.5857 45.7821Z" fill="url(#paint46_linear_1323_49209)" stroke="url(#paint47_linear_1323_49209)" stroke-width="0.275404"/>
        <path d="M47.8459 56.8468C49.2945 60.5966 51.3688 64.1156 54.8529 66.1993C57.2104 67.6108 61.0751 69.2333 63.821 68.7282C66.0272 68.3227 68.2723 66.6964 70.0317 65.3524C71.7135 64.0679 73.2439 62.5727 74.4789 60.8312C77.5086 56.5645 78.0872 51.4428 78.3668 46.3293C78.4097 45.538 77.2055 45.538 77.1629 46.3293C76.9182 50.8027 76.4948 55.3119 74.1098 59.2007C72.8943 61.181 71.2511 62.8869 69.4259 64.2866C67.8061 65.5313 65.6971 67.0662 63.6928 67.4638C61.2964 67.937 57.7229 66.4459 55.6296 65.233C52.3398 63.3283 50.3666 60.0317 49.0072 56.5207C48.7275 55.789 47.5585 56.1072 47.8459 56.8468Z" fill="url(#paint48_linear_1323_49209)" stroke="url(#paint49_linear_1323_49209)" stroke-width="0.275404"/>
        <path d="M78.3531 44.9682C81.5961 46.2366 81.0447 54.2488 77.0944 53.6804C76.3372 53.5731 76.0071 54.758 76.7762 54.8694C82.3379 55.6727 83.4295 45.636 78.6754 43.7792C77.949 43.4969 77.6344 44.6898 78.3531 44.9682Z" fill="url(#paint50_linear_1323_49209)" stroke="url(#paint51_linear_1323_49209)" stroke-width="0.275404"/>
        <path d="M45.0619 43.7686C41.046 44.9057 41.3799 52.8823 45.2834 53.9322C46.033 54.135 46.3555 52.946 45.6019 52.7432C42.8907 52.0157 42.5684 45.7529 45.3806 44.9576C46.1263 44.7469 45.8116 43.5579 45.0619 43.7686Z" fill="url(#paint52_linear_1323_49209)" stroke="url(#paint53_linear_1323_49209)" stroke-width="0.275404"/>
        <path d="M78.1397 50.4191C78.3338 49.5403 78.8193 48.8045 79.565 48.3234C80.2215 47.9019 79.6156 46.8325 78.9553 47.2578C77.9531 47.9019 77.2386 48.9041 76.9744 50.0931C76.8075 50.8643 77.9688 51.1944 78.1397 50.4191Z" fill="url(#paint54_linear_1323_49209)" stroke="url(#paint55_linear_1323_49209)" stroke-width="0.275404"/>
        <path d="M47.7788 49.0664C47.4369 47.7501 46.5941 46.6406 45.429 45.9847C44.7494 45.6028 44.1395 46.6686 44.8191 47.0502C45.7243 47.5594 46.3494 48.3745 46.6175 49.3962C46.8157 50.1599 47.977 49.8337 47.7788 49.0664Z" fill="url(#paint56_linear_1323_49209)" stroke="url(#paint57_linear_1323_49209)" stroke-width="0.275404"/>
        <path d="M60.1795 53.6293C61.2489 54.2979 62.5932 54.3005 63.6677 53.6421C64.3311 53.2361 63.7231 52.1891 63.0573 52.5978C62.3359 53.0392 61.5086 53.0317 60.7923 52.5852C60.1264 52.1691 59.5187 53.2159 60.1795 53.6293Z" fill="url(#paint58_linear_1323_49209)" stroke="url(#paint59_linear_1323_49209)" stroke-width="0.275404"/>
        <path d="M66.0285 43.4354C67.9201 42.0759 70.4297 41.453 72.3617 43.1203C72.9495 43.627 73.8096 42.7746 73.2168 42.2652C70.8887 40.2548 67.7916 40.6837 65.4181 42.3912C64.7901 42.8401 65.3952 43.8896 66.0285 43.4354Z" fill="url(#paint60_linear_1323_49209)" stroke="url(#paint61_linear_1323_49209)" stroke-width="0.275404"/>
        <path d="M67.6103 45.9543C67.5196 47.2356 67.5068 48.8374 69.0633 49.1575C70.9801 49.5512 71.4039 46.7993 71.1869 45.4675C71.0632 44.7007 69.8955 45.0261 70.0191 45.7904C70.0972 46.2747 70.0167 48.1563 69.2245 47.9519C68.4982 47.7653 68.7858 46.4714 68.8236 45.9543C68.8767 45.1775 67.666 45.1799 67.6103 45.9543Z" fill="url(#paint62_linear_1323_49209)" stroke="url(#paint63_linear_1323_49209)" stroke-width="0.275404"/>
        <path d="M58.6114 42.1266C56.2377 40.4216 53.1406 39.9904 50.8125 42.0005C50.2223 42.5101 51.0822 43.3626 51.6676 42.8556C53.5945 41.1909 56.1092 41.8112 58.001 43.1709C58.6341 43.6273 59.2394 42.5781 58.6114 42.1266Z" fill="url(#paint64_linear_1323_49209)" stroke="url(#paint65_linear_1323_49209)" stroke-width="0.275404"/>
        <path d="M67.3163 47.2522C68.822 45.2847 71.3719 45.9759 73.1325 47.1589C73.7808 47.5952 74.3886 46.5458 73.743 46.1145C71.3317 44.4928 68.189 44.1345 66.2695 46.6417C65.7953 47.2596 66.8471 47.865 67.3163 47.2522Z" fill="url(#paint66_linear_1323_49209)" stroke="url(#paint67_linear_1323_49209)" stroke-width="0.275404"/>
        <path d="M55.203 45.6933C55.2411 46.2104 55.5285 47.5043 54.8021 47.6911C54.0101 47.8929 53.927 46.0137 54.0077 45.5293C54.1311 44.7678 52.9658 44.4397 52.8397 45.2065C52.623 46.5383 53.0441 49.2902 54.9636 48.8967C56.5198 48.5788 56.5072 46.9773 56.4163 45.6933C56.3585 44.9216 55.1475 44.9141 55.203 45.6933Z" fill="url(#paint68_linear_1323_49209)" stroke="url(#paint69_linear_1323_49209)" stroke-width="0.275404"/>
        <path d="M77.3273 44.2838C77.2391 40.7416 76.2981 37.1391 73.8743 34.3713C71.6446 31.8269 68.1993 30.2638 64.7058 30.6078C63.9392 30.6823 63.9315 31.839 64.7058 31.7621C67.9141 31.447 70.9787 32.8465 73.0192 35.1866C75.2239 37.7139 76.0385 41.0663 76.1192 44.2838C76.1368 45.0246 77.3473 45.027 77.3273 44.2838Z" fill="url(#paint70_linear_1323_49209)" stroke="url(#paint71_linear_1323_49209)" stroke-width="0.275404"/>
        <path d="M57.7556 46.3925C55.8361 43.8855 52.6961 44.2438 50.2821 45.8655C49.6389 46.2968 50.2443 47.346 50.8926 46.9096C52.6529 45.7266 55.2031 45.0355 56.7088 47.0029C57.178 47.6133 58.2298 47.013 57.7556 46.3925Z" fill="url(#paint72_linear_1323_49209)" stroke="url(#paint73_linear_1323_49209)" stroke-width="0.275404"/>
        <path d="M62.0742 23.9839C62.3618 26.2707 62.4701 28.5578 62.4047 30.8615C62.3818 31.6045 63.5952 31.6045 63.6152 30.8615C63.681 28.5602 63.5725 26.2707 63.2849 23.9839C63.1943 23.2576 61.9833 23.2479 62.0742 23.9839Z" fill="url(#paint74_linear_1323_49209)" stroke="url(#paint75_linear_1323_49209)" stroke-width="0.275404"/>
        <path d="M79.9989 45.5781C84.3827 37.7526 80.9723 26.1711 72.8861 21.7464C70.3815 20.3756 67.5288 19.8057 64.6558 19.9283C63.8791 19.962 63.8764 21.1163 64.6558 21.0826C70.9037 20.8157 76.0035 24.3122 78.6597 29.5764C81.023 34.2586 81.5804 40.3018 78.9521 44.9961C78.5864 45.6501 79.6332 46.2345 79.9989 45.5781Z" fill="url(#paint76_linear_1323_49209)" stroke="url(#paint77_linear_1323_49209)" stroke-width="0.275404"/>
        <path d="M62.5804 19.1486C59.2106 17.6649 54.6301 19.1053 51.5681 20.6251C46.5915 23.0973 43.0378 27.5557 41.9078 32.803C40.9895 37.0667 41.5546 41.4677 42.7528 45.6277C42.9596 46.3445 44.1272 46.039 43.9206 45.3201C42.1347 39.1205 41.8849 32.1441 45.9686 26.69C48.5766 23.2103 52.7082 20.779 57.1045 19.9782C58.6204 19.7017 60.517 19.5045 61.9697 20.1442C62.6737 20.4544 63.2889 19.4588 62.5804 19.1486Z" fill="url(#paint78_linear_1323_49209)" stroke="url(#paint79_linear_1323_49209)" stroke-width="0.275404"/>
        <path opacity="0.23" d="M61.0269 62.5629C59.6342 62.1285 58.4173 61.0012 57.7639 59.529C57.6014 59.1608 57.4689 58.7495 57.5385 58.345C57.6248 57.8412 58.0062 57.4697 58.3973 57.2143C59.6441 56.3887 61.1497 56.2893 62.592 56.2262C62.9898 56.2098 63.3912 56.1931 63.7791 56.286C64.4488 56.4484 65.0226 56.9193 65.5764 57.3768C65.7586 57.5294 65.951 57.6919 66.0537 57.9238C66.12 58.0733 66.1434 58.2423 66.1632 58.4082C66.2261 58.9718 66.2328 59.5752 66.0007 60.0793C65.7287 60.6796 65.1783 61.0343 64.6578 61.3592C64.2234 61.6278 63.7822 61.8997 63.3015 62.0191C63.0429 62.082 62.7777 62.0986 62.5156 62.1087C61.4713 62.1483 60.4202 62.0656 59.3888 61.8667" fill="#DBD4E0"/>
        <path opacity="0.23" d="M61.0269 62.5629C59.6342 62.1285 58.4173 61.0012 57.7639 59.529C57.6014 59.1608 57.4689 58.7495 57.5385 58.345C57.6248 57.8412 58.0062 57.4697 58.3973 57.2143C59.6441 56.3887 61.1497 56.2893 62.592 56.2262C62.9898 56.2098 63.3912 56.1931 63.7791 56.286C64.4488 56.4484 65.0226 56.9193 65.5764 57.3768C65.7586 57.5294 65.951 57.6919 66.0537 57.9238C66.12 58.0733 66.1434 58.2423 66.1632 58.4082C66.2261 58.9718 66.2328 59.5752 66.0007 60.0793C65.7287 60.6796 65.1783 61.0343 64.6578 61.3592C64.2234 61.6278 63.7822 61.8997 63.3015 62.0191C63.0429 62.082 62.7777 62.0986 62.5156 62.1087C61.4713 62.1483 60.4202 62.0656 59.3888 61.8667" fill="#DBD4E0"/>
        <path d="M61.0603 30.1592C53.0876 30.241 48.5196 37.1812 45.6645 43.3711C45.3542 44.0447 46.3959 44.6337 46.7086 43.9531C49.3747 38.1768 53.5516 31.3904 61.0603 31.3135C61.8397 31.3039 61.8397 30.1496 61.0603 30.1592Z" fill="url(#paint80_linear_1323_49209)" stroke="url(#paint81_linear_1323_49209)" stroke-width="0.275404"/>
        <path d="M56.3168 59.0582C59.9909 60.5006 63.9335 60.61 67.5147 58.8427C68.2606 58.4745 67.6075 57.3571 66.8614 57.7253C63.5854 59.3434 59.9942 59.1177 56.6618 57.8113C55.8858 57.5064 55.5509 58.7564 56.3168 59.0582Z" fill="url(#paint82_linear_1323_49209)" stroke="url(#paint83_linear_1323_49209)" stroke-width="0.275404"/>
        <path d="M53.445 27.6872C49.1959 30.2381 46.1094 33.6793 44.5665 37.6332C44.3341 38.228 45.5498 38.4553 45.7822 37.8644C47.2263 34.1687 50.1205 30.8912 54.0959 28.5018C54.7253 28.1231 54.0821 27.3022 53.445 27.6872Z" fill="url(#paint84_linear_1323_49209)" stroke="url(#paint85_linear_1323_49209)" stroke-width="0.275404"/>
        <path d="M78.5841 43.6405C79.0614 40.0745 79.6523 35.6381 77.0956 32.4313C76.6803 31.9123 75.6099 32.3879 76.0277 32.9089C78.4474 35.9441 77.7974 40.264 77.3459 43.6405C77.2634 44.2464 78.5016 44.2425 78.5841 43.6405Z" fill="url(#paint86_linear_1323_49209)" stroke="url(#paint87_linear_1323_49209)" stroke-width="0.275404"/>
        <path fill-rule="evenodd" clip-rule="evenodd" d="M77.9685 93.5251C73.6085 93.1546 68.0852 92.9615 63.1447 93.082C61.6985 93.1172 60.1544 93.1421 58.5709 93.1676C54.7315 93.2296 50.6614 93.2952 47.2011 93.521C44.7559 93.6809 42.6551 93.9186 41.177 94.2807C40.4333 94.4629 39.8914 94.6667 39.5485 94.88C39.1999 95.0972 39.1734 95.245 39.1734 95.2993C39.1734 95.6216 38.9123 95.8827 38.5902 95.8827C38.2679 95.8827 38.0068 95.6216 38.0068 95.2993C38.0068 94.6536 38.4393 94.1963 38.9319 93.8894C39.4302 93.5792 40.1124 93.3402 40.8993 93.1474C42.482 92.7595 44.6676 92.5172 47.1252 92.3569C50.6155 92.1291 54.7346 92.0625 58.5861 92.0003C60.1613 91.975 61.692 91.9502 63.1163 91.9155C68.1011 91.794 73.6666 91.9885 78.0673 92.3624C80.2657 92.5495 82.1864 92.7821 83.6027 93.0454C84.3086 93.1765 84.9077 93.3185 85.3592 93.4726C85.5842 93.5493 85.791 93.6353 85.9622 93.7342C86.1174 93.8236 86.3207 93.9671 86.4366 94.1929C86.5839 94.4793 86.4709 94.8311 86.1842 94.9781C85.9147 95.1168 85.5875 95.0251 85.4272 94.7754C85.4176 94.7684 85.4021 94.758 85.3788 94.7445C85.299 94.6985 85.1702 94.6411 84.9824 94.577C84.6088 94.4494 84.0731 94.3195 83.3896 94.1925C82.0273 93.9393 80.1497 93.7105 77.9685 93.5251Z" fill="url(#paint88_linear_1323_49209)" stroke="url(#paint89_linear_1323_49209)" stroke-width="0.275404" stroke-linecap="round"/>
        <path fill-rule="evenodd" clip-rule="evenodd" d="M54.4007 64.6021C54.4127 66.4265 54.3368 68.3477 53.7497 70.1679V70.1681C52.8091 73.0832 50.5463 75.5348 47.7148 76.705L47.7146 76.7052C47.5687 76.7655 47.3144 76.8306 47.0342 76.8964C46.7351 76.9668 46.35 77.05 45.906 77.1428C45.3431 77.2604 44.676 77.3954 43.9564 77.5408C43.5417 77.6247 43.1095 77.7122 42.6697 77.8019C40.2447 78.2963 37.6008 78.8573 36.1999 79.3029C31.8416 80.6891 30.076 83.454 28.1172 86.5213C27.8894 86.8783 27.6587 87.2394 27.4209 87.603L26.4443 86.9646C26.676 86.6105 26.9034 86.2527 27.1314 85.8945C29.0832 82.8279 31.0673 79.7108 35.8462 78.191H35.8464C37.3199 77.7221 40.034 77.1483 42.4366 76.6585C42.8812 76.5678 43.3156 76.4801 43.731 76.3959C44.4474 76.251 45.1075 76.1177 45.6673 76.0005C46.109 75.9082 46.4826 75.8274 46.7676 75.7604C46.9101 75.7269 47.0268 75.6977 47.1167 75.6732C47.1615 75.6611 47.1974 75.6505 47.2249 75.6418C47.2387 75.6375 47.2493 75.6339 47.2572 75.631L47.2662 75.6278C47.2683 75.6269 47.2693 75.6266 47.2693 75.6266C49.784 74.5873 51.8038 72.3991 52.6391 69.8096C53.1656 68.177 53.2457 66.4135 53.2338 64.6098L54.4007 64.6021ZM47.2693 75.6266H47.269L47.4906 76.1625L47.2693 75.6266Z" fill="url(#paint90_linear_1323_49209)"/>
        <path d="M47.2693 75.6266L47.9277 75.8766L47.2572 75.631C47.2493 75.6339 47.2387 75.6375 47.2249 75.6418C47.1974 75.6505 47.1615 75.6611 47.1167 75.6732C47.0268 75.6977 46.9101 75.7269 46.7676 75.7604C46.4826 75.8274 46.109 75.9082 45.6673 76.0005C45.1075 76.1177 44.4474 76.251 43.731 76.3959C43.3156 76.4801 42.8812 76.5678 42.4366 76.6584C40.034 77.1483 37.3199 77.7221 35.8464 78.191C31.0675 79.7108 29.0832 82.8279 27.1314 85.8945C26.9034 86.2527 26.676 86.6105 26.4443 86.9646L27.4209 87.603C27.6587 87.2394 27.8894 86.8783 28.1172 86.5213C30.076 83.454 31.8416 80.6891 36.1999 79.3029C37.6008 78.8573 40.2447 78.2963 42.6697 77.8019C43.1095 77.7122 43.5417 77.6247 43.9564 77.5408C44.676 77.3954 45.3431 77.2604 45.906 77.1428C46.35 77.05 46.7351 76.9668 47.0342 76.8964C47.3144 76.8306 47.5687 76.7655 47.7146 76.7052C50.546 75.535 52.8091 73.0832 53.7497 70.1681C54.3365 68.348 54.4127 66.4265 54.4007 64.6021L53.2338 64.6098C53.2457 66.4135 53.1656 68.177 52.6391 69.8096C51.8038 72.3991 49.784 74.5873 47.2693 75.6266ZM47.2693 75.6266L47.4906 76.1625" stroke="url(#paint91_linear_1323_49209)" stroke-width="0.275404" stroke-miterlimit="10"/>
        <path fill-rule="evenodd" clip-rule="evenodd" d="M71.2645 64.2418C71.2527 66.0533 71.3414 68.1852 71.8667 69.8144C72.7023 72.4038 74.7221 74.5919 77.2368 75.6314C77.2368 75.6314 77.237 75.6314 77.2375 75.6317C77.238 75.6319 77.239 75.6321 77.2399 75.6324L77.2489 75.6358C77.2568 75.6387 77.2674 75.642 77.2812 75.6464C77.3086 75.6553 77.3446 75.6656 77.3894 75.6779C77.4793 75.7025 77.596 75.7317 77.7385 75.7652C78.0234 75.832 78.3971 75.913 78.8388 76.0053C79.3983 76.1223 80.0586 76.2558 80.7749 76.4007C81.1905 76.4846 81.6247 76.5726 82.0695 76.663C84.4718 77.1531 87.1862 77.7269 88.6599 78.1955C93.4386 79.7156 95.4226 82.8325 97.3747 85.8992C97.6025 86.2575 97.8303 86.615 98.0618 86.9692L97.0849 87.6078C96.8474 87.2442 96.6167 86.8831 96.3887 86.5261C94.4299 83.4586 92.6645 80.6936 88.3062 79.3076C86.9053 78.8621 84.2614 78.3009 81.8364 77.8064C81.3964 77.7168 80.9644 77.6295 80.5495 77.5456C79.8301 77.4 79.163 77.2652 78.6001 77.1476C78.1558 77.0548 77.771 76.9713 77.4716 76.9012C77.1917 76.8354 76.9376 76.77 76.7913 76.7098V76.7095C73.9598 75.5396 71.697 73.0878 70.7563 70.1726C70.1683 68.3491 70.0859 66.0509 70.0977 64.2344L71.2645 64.2418Z" fill="url(#paint92_linear_1323_49209)"/>
        <path d="M88.3062 79.3076C92.6645 80.6936 94.4299 83.4586 96.3887 86.5261C96.6167 86.8831 96.8474 87.2442 97.0849 87.6078L98.0618 86.9692C97.8303 86.615 97.6025 86.2575 97.3747 85.8992C95.4226 82.8325 93.4386 79.7156 88.6599 78.1955C87.1862 77.7269 84.4718 77.1531 82.0695 76.663C81.6247 76.5726 81.1905 76.4846 80.7749 76.4007C80.0586 76.2558 79.3983 76.1223 78.8388 76.0053C78.3971 75.913 78.0234 75.832 77.7385 75.7652C77.596 75.7317 77.4793 75.7025 77.3894 75.6779C77.3446 75.6656 77.3086 75.6553 77.2812 75.6464C77.2674 75.642 77.2568 75.6387 77.2489 75.6358L77.2399 75.6324C77.239 75.6321 77.238 75.6319 77.2375 75.6317C77.237 75.6314 77.2368 75.6314 77.2368 75.6314C74.7221 74.5919 72.7023 72.4038 71.8667 69.8144C71.3414 68.1852 71.2527 66.0533 71.2645 64.2418L70.0977 64.2344C70.0859 66.0509 70.1683 68.3491 70.7563 70.1726C71.697 73.0878 73.9598 75.5396 76.7913 76.7095V76.7098C76.9376 76.77 77.1917 76.8354 77.4716 76.9012C77.771 76.9713 78.1558 77.0548 78.6001 77.1476C79.163 77.2652 79.8301 77.4 80.5495 77.5456C80.9644 77.6295 81.3964 77.7168 81.8364 77.8064C84.2614 78.3009 86.9053 78.8621 88.3062 79.3076ZM88.3062 79.3076L88.4829 78.7515" stroke="url(#paint93_linear_1323_49209)" stroke-width="0.275404" stroke-miterlimit="10"/>
        <path d="M78.0029 66.0566C82.29 63.8131 85.6084 60.148 87.3457 55.6234C87.655 54.8204 88.9611 55.1704 88.6487 55.9826C86.7832 60.8322 83.296 64.81 78.6842 67.2222C77.9154 67.6222 77.2312 66.4597 78.0029 66.0566Z" fill="url(#paint94_linear_1323_49209)"/>
        <path d="M82.6716 56.5736C84.134 55.9208 85.6183 55.3239 87.0836 54.6833C87.6899 54.4208 88.5804 53.774 89.2116 54.327C89.7583 54.8022 89.949 56.0269 90.1896 56.6862C90.552 57.6799 90.9331 58.7016 90.9989 59.7672C91.052 60.6358 89.7022 60.6327 89.6489 59.7672C89.6021 59.036 89.3365 58.3205 89.099 57.6298C88.9741 57.2643 88.6429 55.7552 88.3398 55.5801C88.2772 55.3458 88.2523 55.3644 88.2617 55.63C88.0961 55.7019 87.9305 55.7737 87.7649 55.8489C87.4336 56.0519 86.9898 56.1802 86.6243 56.3333C85.5308 56.7957 84.4339 57.2518 83.3529 57.7361C82.5684 58.0922 81.8811 56.9299 82.6716 56.5736Z" fill="url(#paint95_linear_1323_49209)"/>
        <path d="M46.258 66.0566C41.9712 63.8131 38.6527 60.148 36.9152 55.6234C36.6059 54.8204 35.2998 55.1704 35.6124 55.9826C37.4777 60.8322 40.9649 64.81 45.577 67.2222C46.3455 67.6222 47.03 66.4597 46.258 66.0566Z" fill="url(#paint96_linear_1323_49209)"/>
        <path d="M41.5894 56.5736C40.127 55.9208 38.6429 55.3239 37.1774 54.6833C36.5713 54.4208 35.6806 53.774 35.0494 54.327C34.5026 54.8022 34.3119 56.0269 34.0713 56.6862C33.709 57.6799 33.3279 58.7016 33.2623 59.7672C33.209 60.6358 34.5588 60.6327 34.6118 59.7672C34.6589 59.036 34.9245 58.3205 35.162 57.6298C35.2869 57.2643 35.6181 55.7552 35.9214 55.5801C35.9838 55.3458 36.0087 55.3644 35.9995 55.63C36.1651 55.7019 36.3307 55.7737 36.4961 55.8489C36.8274 56.0519 37.2712 56.1802 37.6367 56.3333C38.7305 56.7957 39.8271 57.2518 40.9084 57.7361C41.6926 58.0922 42.3799 56.9299 41.5894 56.5736Z" fill="url(#paint97_linear_1323_49209)"/>
        <path d="M60.9948 119.736C93.5876 119.736 120.009 93.3146 120.009 60.7218C120.009 28.1293 93.5876 1.70752 60.9948 1.70752C28.402 1.70752 1.98047 28.1293 1.98047 60.7218C1.98047 93.3146 28.402 119.736 60.9948 119.736Z" stroke="url(#paint98_linear_1323_49209)" stroke-width="1.58898" stroke-miterlimit="10"/>
        <path opacity="0.23" fill-rule="evenodd" clip-rule="evenodd" d="M50.6674 74.6332C51.579 74.1275 52.3716 73.3437 52.9172 72.4331C53.9871 70.648 54.2634 68.4734 54.2579 66.3717C54.2564 65.546 53.5594 64.8145 52.8794 64.1005C52.4582 63.6583 52.0433 63.2229 51.8041 62.776C51.5127 62.2302 51.0983 61.7743 50.6947 61.3302C50.0146 60.5817 49.3654 59.8673 49.3892 58.8155C48.969 60.2499 48.8837 59.4182 48.8109 58.7092C48.7718 58.3295 48.7364 57.985 48.6552 58.0429C48.1822 56.7352 47.8557 57.6523 47.4059 58.9163C47.0486 59.9206 46.6132 61.1441 45.9645 61.6441C45.7663 61.7969 45.5681 61.9505 45.3721 62.1065C46.7796 63.2878 48.1385 64.6038 48.9866 66.2109C49.5247 67.2304 49.5144 68.16 49.47 69.3126C49.4539 69.7335 49.241 70.2253 48.9194 70.5009C48.5773 70.7943 48.0862 70.7702 47.6231 70.7475C47.5018 70.7417 47.3823 70.7359 47.268 70.7359C45.5987 70.7359 43.058 69.8126 41.7687 68.7948C41.607 68.6672 41.3521 68.4917 41.0457 68.2907C40.6684 69.3283 40.3596 70.4001 40.0732 71.4606C39.9669 71.8538 39.2019 72.9317 38.3598 74.1181C37.2094 75.7393 35.9148 77.5636 35.9601 78.12C36.0014 78.6258 37.1643 78.0889 38.3813 77.5269C39.4847 77.0175 40.6327 76.4876 41.0296 76.6954C41.8881 77.1465 42.9201 76.9307 43.8572 76.6954C46.5305 76.0228 49.1795 75.2605 51.8041 74.4115L50.6674 74.6332Z" fill="url(#paint99_linear_1323_49209)"/>
        <path opacity="0.23" fill-rule="evenodd" clip-rule="evenodd" d="M74.9308 74.7637C73.9255 74.2133 73.0515 73.3604 72.4496 72.3693C71.2695 70.4267 70.9648 68.0602 70.9708 65.7729C70.9739 64.3182 71.1082 62.8117 71.7984 61.54C72.1128 60.959 72.7799 60.2013 73.499 59.3845C74.3835 58.3797 75.3466 57.2859 75.8286 56.3216C76.5106 56.2008 77.4472 57.4252 78.3746 58.6379C78.9845 59.4354 79.5906 60.2275 80.1174 60.6282C80.2217 60.7075 80.3259 60.7871 80.4298 60.8669C80.2914 60.9722 80.1538 61.08 80.0163 61.1899C78.2432 62.6082 76.3505 64.1767 75.2765 66.2114C74.7386 67.2309 74.7488 68.1605 74.7931 69.3131C74.8093 69.734 75.0224 70.2258 75.3437 70.5014C75.6858 70.7948 76.1772 70.7707 76.64 70.748H76.6403C76.7615 70.7422 76.8809 70.7362 76.9951 70.7362C78.6644 70.7362 81.2054 69.8131 82.4944 68.7953C82.9218 68.458 84.0002 67.7871 84.9585 67.1909C85.046 67.1364 85.1328 67.0824 85.2179 67.0294C85.788 68.4115 86.2203 69.8707 86.6145 71.3112C86.7319 71.7389 87.5754 72.9117 88.5038 74.2027C89.7728 75.9672 91.2008 77.9524 91.1506 78.5583C91.1053 79.1084 89.8227 78.5243 88.4804 77.9127C87.2634 77.3584 85.9975 76.7815 85.56 77.0077C84.613 77.4987 83.4751 77.2639 82.4414 77.0077C79.4932 76.2757 76.5718 75.4464 73.6772 74.5224L74.9308 74.7637ZM76.14 55.2685C76.1309 55.5913 76.0161 55.9467 75.8286 56.3216C75.5831 56.3652 75.3707 56.5831 75.2037 57.0388C75.0462 56.9286 75.5308 56.1998 75.8703 55.6892C75.9894 55.5101 76.0906 55.3577 76.14 55.2685ZM76.14 55.2685C76.1407 55.2437 76.1408 55.2194 76.1403 55.195C76.1856 55.1658 76.1796 55.1967 76.14 55.2685Z" fill="url(#paint100_linear_1323_49209)"/>
        <path fill-rule="evenodd" clip-rule="evenodd" d="M78.023 54.2907C78.2349 54.3997 78.4049 54.6022 78.4933 54.8934V54.8937C79.1086 56.9286 80.0418 58.7054 81.1356 60.3585C80.7575 60.6179 80.3863 60.8968 80.0179 61.1917C79.9311 61.2608 79.8443 61.3308 79.7571 61.4007C78.5384 59.6109 77.4863 57.677 76.8108 55.4424C76.7219 55.149 76.7491 54.8831 76.8607 54.67C76.9709 54.4588 77.158 54.3112 77.3672 54.2425C77.5767 54.1741 77.8132 54.1827 78.023 54.2907ZM84.4933 67.4834C86.6457 70.2114 88.5847 73.0615 89.4557 76.7324V76.7326C89.5268 77.0313 89.683 77.2435 89.8901 77.3594C90.095 77.4742 90.3306 77.4838 90.5401 77.4146C90.9639 77.2743 91.2882 76.8127 91.1437 76.2042C90.2228 72.325 88.1686 69.3659 85.948 66.5742C85.663 66.7553 85.32 66.9687 84.9603 67.1926C84.8067 67.2883 84.6498 67.3857 84.4933 67.4834Z" fill="url(#paint101_linear_1323_49209)"/>
        <path fill-rule="evenodd" clip-rule="evenodd" d="M48.9838 56.8808C49.1507 56.3234 48.8657 55.8924 48.4689 55.7605C48.2746 55.6959 48.0547 55.7043 47.8597 55.8058C47.6627 55.9085 47.5065 56.0983 47.4255 56.3688C46.8334 58.3538 45.9161 60.0717 44.845 61.6703C45.2572 62.0059 45.6702 62.3514 46.0723 62.7108C47.2787 60.9669 48.3271 59.0823 48.9838 56.8808ZM41.5135 68.606C41.1806 68.3716 40.6948 68.0597 40.1769 67.734C38.3508 70.1228 36.7114 72.6901 35.9421 75.9734C35.8098 76.5382 36.1063 76.9707 36.5 77.1026C36.6945 77.1679 36.9139 77.1587 37.1046 77.0505C37.2972 76.9413 37.4409 76.7422 37.506 76.4649C38.2288 73.3781 39.762 70.9227 41.5135 68.606Z" fill="url(#paint102_linear_1323_49209)"/>
    </g>
    <defs>
        <linearGradient id="paint0_linear_1323_49209" x1="-32.2275" y1="60.3155" x2="147.161" y2="60.3155" gradientUnits="userSpaceOnUse">
            <stop stop-color="#DCC2EC"/>
            <stop offset="0.501875" stop-color="#93819E"/>
            <stop offset="0.830053" stop-color="#DCC3ED"/>
        </linearGradient>
        <linearGradient id="paint1_linear_1323_49209" x1="37.3188" y1="59.0234" x2="41.3526" y2="59.0234" gradientUnits="userSpaceOnUse">
            <stop stop-color="#DCC2EC"/>
            <stop offset="0.501875" stop-color="#93819E"/>
            <stop offset="0.830053" stop-color="#DCC3ED"/>
        </linearGradient>
        <linearGradient id="paint2_linear_1323_49209" x1="31.823" y1="67.412" x2="85.0676" y2="67.412" gradientUnits="userSpaceOnUse">
            <stop stop-color="#DCC2EC"/>
            <stop offset="0.501875" stop-color="#93819E"/>
            <stop offset="0.830053" stop-color="#DCC3ED"/>
        </linearGradient>
        <linearGradient id="paint3_linear_1323_49209" x1="52.576" y1="62.6085" x2="60.3079" y2="62.6085" gradientUnits="userSpaceOnUse">
            <stop stop-color="#DCC2EC"/>
            <stop offset="0.501875" stop-color="#93819E"/>
            <stop offset="0.830053" stop-color="#DCC3ED"/>
        </linearGradient>
        <linearGradient id="paint4_linear_1323_49209" x1="44.8399" y1="69.2141" x2="67.4739" y2="69.2141" gradientUnits="userSpaceOnUse">
            <stop stop-color="#DCC2EC"/>
            <stop offset="0.501875" stop-color="#93819E"/>
            <stop offset="0.830053" stop-color="#DCC3ED"/>
        </linearGradient>
        <linearGradient id="paint5_linear_1323_49209" x1="66.4825" y1="83.3187" x2="73.3594" y2="83.3187" gradientUnits="userSpaceOnUse">
            <stop stop-color="#DCC2EC"/>
            <stop offset="0.501875" stop-color="#93819E"/>
            <stop offset="0.830053" stop-color="#DCC3ED"/>
        </linearGradient>
        <linearGradient id="paint6_linear_1323_49209" x1="43.6071" y1="77.5948" x2="46.7344" y2="77.5948" gradientUnits="userSpaceOnUse">
            <stop stop-color="#DCC2EC"/>
            <stop offset="0.501875" stop-color="#93819E"/>
            <stop offset="0.830053" stop-color="#DCC3ED"/>
        </linearGradient>
        <linearGradient id="paint7_linear_1323_49209" x1="58.8317" y1="53.2878" x2="73.654" y2="53.2878" gradientUnits="userSpaceOnUse">
            <stop stop-color="#DCC2EC"/>
            <stop offset="0.501875" stop-color="#93819E"/>
            <stop offset="0.830053" stop-color="#DCC3ED"/>
        </linearGradient>
        <linearGradient id="paint8_linear_1323_49209" x1="57.4863" y1="48.5053" x2="73.0365" y2="48.5053" gradientUnits="userSpaceOnUse">
            <stop stop-color="#DCC2EC"/>
            <stop offset="0.501875" stop-color="#93819E"/>
            <stop offset="0.830053" stop-color="#DCC3ED"/>
        </linearGradient>
        <linearGradient id="paint9_linear_1323_49209" x1="63.2581" y1="54.4305" x2="67.8983" y2="54.4305" gradientUnits="userSpaceOnUse">
            <stop stop-color="#DCC2EC"/>
            <stop offset="0.501875" stop-color="#93819E"/>
            <stop offset="0.830053" stop-color="#DCC3ED"/>
        </linearGradient>
        <linearGradient id="paint10_linear_1323_49209" x1="62.6616" y1="54.4225" x2="68.4549" y2="54.4225" gradientUnits="userSpaceOnUse">
            <stop stop-color="#DCC2EC"/>
            <stop offset="0.501875" stop-color="#93819E"/>
            <stop offset="0.830053" stop-color="#DCC3ED"/>
        </linearGradient>
        <linearGradient id="paint11_linear_1323_49209" x1="39.2374" y1="52.9788" x2="54.0574" y2="52.9788" gradientUnits="userSpaceOnUse">
            <stop stop-color="#DCC2EC"/>
            <stop offset="0.501875" stop-color="#93819E"/>
            <stop offset="0.830053" stop-color="#DCC3ED"/>
        </linearGradient>
        <linearGradient id="paint12_linear_1323_49209" x1="39.8242" y1="48.2027" x2="55.3744" y2="48.2027" gradientUnits="userSpaceOnUse">
            <stop stop-color="#DCC2EC"/>
            <stop offset="0.501875" stop-color="#93819E"/>
            <stop offset="0.830053" stop-color="#DCC3ED"/>
        </linearGradient>
        <linearGradient id="paint13_linear_1323_49209" x1="45.307" y1="54.1259" x2="49.9471" y2="54.1259" gradientUnits="userSpaceOnUse">
            <stop stop-color="#DCC2EC"/>
            <stop offset="0.501875" stop-color="#93819E"/>
            <stop offset="0.830053" stop-color="#DCC3ED"/>
        </linearGradient>
        <linearGradient id="paint14_linear_1323_49209" x1="44.7095" y1="54.1179" x2="50.5026" y2="54.1179" gradientUnits="userSpaceOnUse">
            <stop stop-color="#DCC2EC"/>
            <stop offset="0.501875" stop-color="#93819E"/>
            <stop offset="0.830053" stop-color="#DCC3ED"/>
        </linearGradient>
        <linearGradient id="paint15_linear_1323_49209" x1="72.1835" y1="57.6181" x2="82.2747" y2="57.6181" gradientUnits="userSpaceOnUse">
            <stop stop-color="#DCC2EC"/>
            <stop offset="0.501875" stop-color="#93819E"/>
            <stop offset="0.830053" stop-color="#DCC3ED"/>
        </linearGradient>
        <linearGradient id="paint16_linear_1323_49209" x1="73.7824" y1="57.2833" x2="79.339" y2="57.2833" gradientUnits="userSpaceOnUse">
            <stop stop-color="#DCC2EC"/>
            <stop offset="0.501875" stop-color="#93819E"/>
            <stop offset="0.830053" stop-color="#DCC3ED"/>
        </linearGradient>
        <linearGradient id="paint17_linear_1323_49209" x1="35.9719" y1="64.1221" x2="41.0939" y2="64.1221" gradientUnits="userSpaceOnUse">
            <stop stop-color="#DCC2EC"/>
            <stop offset="0.501875" stop-color="#93819E"/>
            <stop offset="0.830053" stop-color="#DCC3ED"/>
        </linearGradient>
        <linearGradient id="paint18_linear_1323_49209" x1="32.4002" y1="57.042" x2="39.4546" y2="57.042" gradientUnits="userSpaceOnUse">
            <stop stop-color="#DCC2EC"/>
            <stop offset="0.501875" stop-color="#93819E"/>
            <stop offset="0.830053" stop-color="#DCC3ED"/>
        </linearGradient>
        <linearGradient id="paint19_linear_1323_49209" x1="34.8525" y1="57.8997" x2="40.4103" y2="57.8997" gradientUnits="userSpaceOnUse">
            <stop stop-color="#DCC2EC"/>
            <stop offset="0.501875" stop-color="#93819E"/>
            <stop offset="0.830053" stop-color="#DCC3ED"/>
        </linearGradient>
        <linearGradient id="paint20_linear_1323_49209" x1="19.3564" y1="71.297" x2="35.7142" y2="71.297" gradientUnits="userSpaceOnUse">
            <stop stop-color="#DCC2EC"/>
            <stop offset="0.501875" stop-color="#93819E"/>
            <stop offset="0.830053" stop-color="#DCC3ED"/>
        </linearGradient>
        <linearGradient id="paint21_linear_1323_49209" x1="27.5506" y1="68.5465" x2="40.1157" y2="68.5465" gradientUnits="userSpaceOnUse">
            <stop stop-color="#DCC2EC"/>
            <stop offset="0.501875" stop-color="#93819E"/>
            <stop offset="0.830053" stop-color="#DCC3ED"/>
        </linearGradient>
        <linearGradient id="paint22_linear_1323_49209" x1="31.3744" y1="70.5368" x2="44.6304" y2="70.5368" gradientUnits="userSpaceOnUse">
            <stop stop-color="#DCC2EC"/>
            <stop offset="0.501875" stop-color="#93819E"/>
            <stop offset="0.830053" stop-color="#DCC3ED"/>
        </linearGradient>
        <linearGradient id="paint23_linear_1323_49209" x1="33.6915" y1="76.0297" x2="54.6229" y2="76.0297" gradientUnits="userSpaceOnUse">
            <stop stop-color="#DCC2EC"/>
            <stop offset="0.501875" stop-color="#93819E"/>
            <stop offset="0.830053" stop-color="#DCC3ED"/>
        </linearGradient>
        <linearGradient id="paint24_linear_1323_49209" x1="20.0589" y1="87.6823" x2="49.595" y2="87.6823" gradientUnits="userSpaceOnUse">
            <stop stop-color="#DCC2EC"/>
            <stop offset="0.501875" stop-color="#93819E"/>
            <stop offset="0.830053" stop-color="#DCC3ED"/>
        </linearGradient>
        <linearGradient id="paint25_linear_1323_49209" x1="45.8249" y1="90.7582" x2="57.6455" y2="90.7582" gradientUnits="userSpaceOnUse">
            <stop stop-color="#DCC2EC"/>
            <stop offset="0.501875" stop-color="#93819E"/>
            <stop offset="0.830053" stop-color="#DCC3ED"/>
        </linearGradient>
        <linearGradient id="paint26_linear_1323_49209" x1="54.5152" y1="42.4158" x2="79.232" y2="42.4158" gradientUnits="userSpaceOnUse">
            <stop stop-color="#DCC2EC"/>
            <stop offset="0.501875" stop-color="#93819E"/>
            <stop offset="0.830053" stop-color="#DCC3ED"/>
        </linearGradient>
        <linearGradient id="paint27_linear_1323_49209" x1="56.0956" y1="29.3623" x2="59.2011" y2="29.3623" gradientUnits="userSpaceOnUse">
            <stop stop-color="#DCC2EC"/>
            <stop offset="0.501875" stop-color="#93819E"/>
            <stop offset="0.830053" stop-color="#DCC3ED"/>
        </linearGradient>
        <linearGradient id="paint28_linear_1323_49209" x1="52.8219" y1="36.2121" x2="86.2165" y2="36.2121" gradientUnits="userSpaceOnUse">
            <stop stop-color="#DCC2EC"/>
            <stop offset="0.501875" stop-color="#93819E"/>
            <stop offset="0.830053" stop-color="#DCC3ED"/>
        </linearGradient>
        <linearGradient id="paint29_linear_1323_49209" x1="24.2669" y1="36.0933" x2="64.2922" y2="36.0933" gradientUnits="userSpaceOnUse">
            <stop stop-color="#DCC2EC"/>
            <stop offset="0.501875" stop-color="#93819E"/>
            <stop offset="0.830053" stop-color="#DCC3ED"/>
        </linearGradient>
        <linearGradient id="paint30_linear_1323_49209" x1="32.1148" y1="37.4052" x2="50.2911" y2="37.4052" gradientUnits="userSpaceOnUse">
            <stop stop-color="#DCC2EC"/>
            <stop offset="0.501875" stop-color="#93819E"/>
            <stop offset="0.830053" stop-color="#DCC3ED"/>
        </linearGradient>
        <linearGradient id="paint31_linear_1323_49209" x1="31.0411" y1="41.7821" x2="61.0128" y2="41.7821" gradientUnits="userSpaceOnUse">
            <stop stop-color="#DCC2EC"/>
            <stop offset="0.501875" stop-color="#93819E"/>
            <stop offset="0.830053" stop-color="#DCC3ED"/>
        </linearGradient>
        <linearGradient id="paint32_linear_1323_49209" x1="68.8419" y1="78.9143" x2="99.3572" y2="78.9143" gradientUnits="userSpaceOnUse">
            <stop stop-color="#DCC2EC"/>
            <stop offset="0.501875" stop-color="#93819E"/>
            <stop offset="0.830053" stop-color="#DCC3ED"/>
        </linearGradient>
        <linearGradient id="paint33_linear_1323_49209" x1="74.2787" y1="82.2347" x2="92.2126" y2="82.2347" gradientUnits="userSpaceOnUse">
            <stop stop-color="#DCC2EC"/>
            <stop offset="0.501875" stop-color="#93819E"/>
            <stop offset="0.830053" stop-color="#DCC3ED"/>
        </linearGradient>
        <linearGradient id="paint34_linear_1323_49209" x1="66.9056" y1="84.3087" x2="86.8838" y2="84.3087" gradientUnits="userSpaceOnUse">
            <stop stop-color="#DCC2EC"/>
            <stop offset="0.501875" stop-color="#93819E"/>
            <stop offset="0.830053" stop-color="#DCC3ED"/>
        </linearGradient>
        <linearGradient id="paint35_linear_1323_49209" x1="72.8213" y1="42.9509" x2="78.5861" y2="42.9509" gradientUnits="userSpaceOnUse">
            <stop stop-color="#DCC2EC"/>
            <stop offset="0.501875" stop-color="#93819E"/>
            <stop offset="0.830053" stop-color="#DCC3ED"/>
        </linearGradient>
        <linearGradient id="paint36_linear_1323_49209" x1="20.0113" y1="36.5376" x2="90.5041" y2="36.5376" gradientUnits="userSpaceOnUse">
            <stop stop-color="#DCC2EC"/>
            <stop offset="0.501875" stop-color="#93819E"/>
            <stop offset="0.830053" stop-color="#DCC3ED"/>
        </linearGradient>
        <linearGradient id="paint37_linear_1323_49209" x1="62.836" y1="80.371" x2="96.6942" y2="80.371" gradientUnits="userSpaceOnUse">
            <stop stop-color="#DCC2EC"/>
            <stop offset="0.501875" stop-color="#93819E"/>
            <stop offset="0.830053" stop-color="#DCC3ED"/>
        </linearGradient>
        <linearGradient id="paint38_linear_1323_49209" x1="48.0285" y1="69.786" x2="64.4573" y2="69.786" gradientUnits="userSpaceOnUse">
            <stop stop-color="#DCC2EC"/>
            <stop offset="0.501875" stop-color="#93819E"/>
            <stop offset="0.830053" stop-color="#DCC3ED"/>
        </linearGradient>
        <linearGradient id="paint39_linear_1323_49209" x1="52.9295" y1="46.6592" x2="56.434" y2="46.6592" gradientUnits="userSpaceOnUse">
            <stop stop-color="#DCC2EC"/>
            <stop offset="0.501875" stop-color="#93819E"/>
            <stop offset="0.830053" stop-color="#DCC3ED"/>
        </linearGradient>
        <linearGradient id="paint40_linear_1323_49209" x1="67.8152" y1="46.9195" x2="71.3197" y2="46.9195" gradientUnits="userSpaceOnUse">
            <stop stop-color="#DCC2EC"/>
            <stop offset="0.501875" stop-color="#93819E"/>
            <stop offset="0.830053" stop-color="#DCC3ED"/>
        </linearGradient>
        <linearGradient id="paint41_linear_1323_49209" x1="31.8207" y1="32.1417" x2="88.8034" y2="32.1417" gradientUnits="userSpaceOnUse">
            <stop stop-color="#DCC2EC"/>
            <stop offset="0.501875" stop-color="#93819E"/>
            <stop offset="0.830053" stop-color="#DCC3ED"/>
        </linearGradient>
        <linearGradient id="paint42_linear_1323_49209" x1="63.7127" y1="81.0982" x2="74.5188" y2="81.0982" gradientUnits="userSpaceOnUse">
            <stop stop-color="#DCC2EC"/>
            <stop offset="0.501875" stop-color="#93819E"/>
            <stop offset="0.830053" stop-color="#DCC3ED"/>
        </linearGradient>
        <linearGradient id="paint43_linear_1323_49209" x1="63.7127" y1="81.0982" x2="74.5188" y2="81.0982" gradientUnits="userSpaceOnUse">
            <stop stop-color="#DCC2EC"/>
            <stop offset="0.501875" stop-color="#93819E"/>
            <stop offset="0.830053" stop-color="#DCC3ED"/>
        </linearGradient>
        <linearGradient id="paint44_linear_1323_49209" x1="50.8791" y1="81.0982" x2="61.6829" y2="81.0982" gradientUnits="userSpaceOnUse">
            <stop stop-color="#DCC2EC"/>
            <stop offset="0.501875" stop-color="#93819E"/>
            <stop offset="0.830053" stop-color="#DCC3ED"/>
        </linearGradient>
        <linearGradient id="paint45_linear_1323_49209" x1="50.8791" y1="81.0982" x2="61.6829" y2="81.0982" gradientUnits="userSpaceOnUse">
            <stop stop-color="#DCC2EC"/>
            <stop offset="0.501875" stop-color="#93819E"/>
            <stop offset="0.830053" stop-color="#DCC3ED"/>
        </linearGradient>
        <linearGradient id="paint46_linear_1323_49209" x1="45.8791" y1="51.1834" x2="49.5626" y2="51.1834" gradientUnits="userSpaceOnUse">
            <stop stop-color="#DCC2EC"/>
            <stop offset="0.501875" stop-color="#93819E"/>
            <stop offset="0.830053" stop-color="#DCC3ED"/>
        </linearGradient>
        <linearGradient id="paint47_linear_1323_49209" x1="45.8791" y1="51.1834" x2="49.5626" y2="51.1834" gradientUnits="userSpaceOnUse">
            <stop stop-color="#DCC2EC"/>
            <stop offset="0.501875" stop-color="#93819E"/>
            <stop offset="0.830053" stop-color="#DCC3ED"/>
        </linearGradient>
        <linearGradient id="paint48_linear_1323_49209" x1="38.9763" y1="57.1664" x2="85.7368" y2="57.1664" gradientUnits="userSpaceOnUse">
            <stop stop-color="#DCC2EC"/>
            <stop offset="0.501875" stop-color="#93819E"/>
            <stop offset="0.830053" stop-color="#DCC3ED"/>
        </linearGradient>
        <linearGradient id="paint49_linear_1323_49209" x1="38.9763" y1="57.1664" x2="85.7368" y2="57.1664" gradientUnits="userSpaceOnUse">
            <stop stop-color="#DCC2EC"/>
            <stop offset="0.501875" stop-color="#93819E"/>
            <stop offset="0.830053" stop-color="#DCC3ED"/>
        </linearGradient>
        <linearGradient id="paint50_linear_1323_49209" x1="74.7971" y1="49.2711" x2="82.9616" y2="49.2711" gradientUnits="userSpaceOnUse">
            <stop stop-color="#DCC2EC"/>
            <stop offset="0.501875" stop-color="#93819E"/>
            <stop offset="0.830053" stop-color="#DCC3ED"/>
        </linearGradient>
        <linearGradient id="paint51_linear_1323_49209" x1="74.7971" y1="49.2711" x2="82.9616" y2="49.2711" gradientUnits="userSpaceOnUse">
            <stop stop-color="#DCC2EC"/>
            <stop offset="0.501875" stop-color="#93819E"/>
            <stop offset="0.830053" stop-color="#DCC3ED"/>
        </linearGradient>
        <linearGradient id="paint52_linear_1323_49209" x1="41.0929" y1="48.7997" x2="46.955" y2="48.7997" gradientUnits="userSpaceOnUse">
            <stop stop-color="#DCC2EC"/>
            <stop offset="0.501875" stop-color="#93819E"/>
            <stop offset="0.830053" stop-color="#DCC3ED"/>
        </linearGradient>
        <linearGradient id="paint53_linear_1323_49209" x1="41.0929" y1="48.7997" x2="46.955" y2="48.7997" gradientUnits="userSpaceOnUse">
            <stop stop-color="#DCC2EC"/>
            <stop offset="0.501875" stop-color="#93819E"/>
            <stop offset="0.830053" stop-color="#DCC3ED"/>
        </linearGradient>
        <linearGradient id="paint54_linear_1323_49209" x1="76.1238" y1="48.9924" x2="80.5443" y2="48.9924" gradientUnits="userSpaceOnUse">
            <stop stop-color="#DCC2EC"/>
            <stop offset="0.501875" stop-color="#93819E"/>
            <stop offset="0.830053" stop-color="#DCC3ED"/>
        </linearGradient>
        <linearGradient id="paint55_linear_1323_49209" x1="76.1238" y1="48.9924" x2="80.5443" y2="48.9924" gradientUnits="userSpaceOnUse">
            <stop stop-color="#DCC2EC"/>
            <stop offset="0.501875" stop-color="#93819E"/>
            <stop offset="0.830053" stop-color="#DCC3ED"/>
        </linearGradient>
        <linearGradient id="paint56_linear_1323_49209" x1="43.5758" y1="47.848" x2="48.5919" y2="47.848" gradientUnits="userSpaceOnUse">
            <stop stop-color="#DCC2EC"/>
            <stop offset="0.501875" stop-color="#93819E"/>
            <stop offset="0.830053" stop-color="#DCC3ED"/>
        </linearGradient>
        <linearGradient id="paint57_linear_1323_49209" x1="43.5758" y1="47.848" x2="48.5919" y2="47.848" gradientUnits="userSpaceOnUse">
            <stop stop-color="#DCC2EC"/>
            <stop offset="0.501875" stop-color="#93819E"/>
            <stop offset="0.830053" stop-color="#DCC3ED"/>
        </linearGradient>
        <linearGradient id="paint58_linear_1323_49209" x1="58.7225" y1="53.3033" x2="64.933" y2="53.3033" gradientUnits="userSpaceOnUse">
            <stop stop-color="#DCC2EC"/>
            <stop offset="0.501875" stop-color="#93819E"/>
            <stop offset="0.830053" stop-color="#DCC3ED"/>
        </linearGradient>
        <linearGradient id="paint59_linear_1323_49209" x1="58.7225" y1="53.3033" x2="64.933" y2="53.3033" gradientUnits="userSpaceOnUse">
            <stop stop-color="#DCC2EC"/>
            <stop offset="0.501875" stop-color="#93819E"/>
            <stop offset="0.830053" stop-color="#DCC3ED"/>
        </linearGradient>
        <linearGradient id="paint60_linear_1323_49209" x1="62.7678" y1="42.2238" x2="75.4084" y2="42.2238" gradientUnits="userSpaceOnUse">
            <stop stop-color="#DCC2EC"/>
            <stop offset="0.501875" stop-color="#93819E"/>
            <stop offset="0.830053" stop-color="#DCC3ED"/>
        </linearGradient>
        <linearGradient id="paint61_linear_1323_49209" x1="62.7678" y1="42.2238" x2="75.4084" y2="42.2238" gradientUnits="userSpaceOnUse">
            <stop stop-color="#DCC2EC"/>
            <stop offset="0.501875" stop-color="#93819E"/>
            <stop offset="0.830053" stop-color="#DCC3ED"/>
        </linearGradient>
        <linearGradient id="paint62_linear_1323_49209" x1="66.5202" y1="47.0924" x2="72.1211" y2="47.0924" gradientUnits="userSpaceOnUse">
            <stop stop-color="#DCC2EC"/>
            <stop offset="0.501875" stop-color="#93819E"/>
            <stop offset="0.830053" stop-color="#DCC3ED"/>
        </linearGradient>
        <linearGradient id="paint63_linear_1323_49209" x1="66.5202" y1="47.0924" x2="72.1211" y2="47.0924" gradientUnits="userSpaceOnUse">
            <stop stop-color="#DCC2EC"/>
            <stop offset="0.501875" stop-color="#93819E"/>
            <stop offset="0.830053" stop-color="#DCC3ED"/>
        </linearGradient>
        <linearGradient id="paint64_linear_1323_49209" x1="48.2291" y1="41.9602" x2="60.8679" y2="41.9602" gradientUnits="userSpaceOnUse">
            <stop stop-color="#DCC2EC"/>
            <stop offset="0.501875" stop-color="#93819E"/>
            <stop offset="0.830053" stop-color="#DCC3ED"/>
        </linearGradient>
        <linearGradient id="paint65_linear_1323_49209" x1="48.2291" y1="41.9602" x2="60.8679" y2="41.9602" gradientUnits="userSpaceOnUse">
            <stop stop-color="#DCC2EC"/>
            <stop offset="0.501875" stop-color="#93819E"/>
            <stop offset="0.830053" stop-color="#DCC3ED"/>
        </linearGradient>
        <linearGradient id="paint66_linear_1323_49209" x1="63.8777" y1="46.1552" x2="75.9153" y2="46.1552" gradientUnits="userSpaceOnUse">
            <stop stop-color="#DCC2EC"/>
            <stop offset="0.501875" stop-color="#93819E"/>
            <stop offset="0.830053" stop-color="#DCC3ED"/>
        </linearGradient>
        <linearGradient id="paint67_linear_1323_49209" x1="63.8777" y1="46.1552" x2="75.9153" y2="46.1552" gradientUnits="userSpaceOnUse">
            <stop stop-color="#DCC2EC"/>
            <stop offset="0.501875" stop-color="#93819E"/>
            <stop offset="0.830053" stop-color="#DCC3ED"/>
        </linearGradient>
        <linearGradient id="paint68_linear_1323_49209" x1="51.7311" y1="46.8319" x2="57.3322" y2="46.8319" gradientUnits="userSpaceOnUse">
            <stop stop-color="#DCC2EC"/>
            <stop offset="0.501875" stop-color="#93819E"/>
            <stop offset="0.830053" stop-color="#DCC3ED"/>
        </linearGradient>
        <linearGradient id="paint69_linear_1323_49209" x1="51.7311" y1="46.8319" x2="57.3322" y2="46.8319" gradientUnits="userSpaceOnUse">
            <stop stop-color="#DCC2EC"/>
            <stop offset="0.501875" stop-color="#93819E"/>
            <stop offset="0.830053" stop-color="#DCC3ED"/>
        </linearGradient>
        <linearGradient id="paint70_linear_1323_49209" x1="60.3173" y1="37.6307" x2="80.5096" y2="37.6307" gradientUnits="userSpaceOnUse">
            <stop stop-color="#DCC2EC"/>
            <stop offset="0.501875" stop-color="#93819E"/>
            <stop offset="0.830053" stop-color="#DCC3ED"/>
        </linearGradient>
        <linearGradient id="paint71_linear_1323_49209" x1="60.3173" y1="37.6307" x2="80.5096" y2="37.6307" gradientUnits="userSpaceOnUse">
            <stop stop-color="#DCC2EC"/>
            <stop offset="0.501875" stop-color="#93819E"/>
            <stop offset="0.830053" stop-color="#DCC3ED"/>
        </linearGradient>
        <linearGradient id="paint72_linear_1323_49209" x1="47.7364" y1="45.9058" x2="59.7724" y2="45.9058" gradientUnits="userSpaceOnUse">
            <stop stop-color="#DCC2EC"/>
            <stop offset="0.501875" stop-color="#93819E"/>
            <stop offset="0.830053" stop-color="#DCC3ED"/>
        </linearGradient>
        <linearGradient id="paint73_linear_1323_49209" x1="47.7364" y1="45.9058" x2="59.7724" y2="45.9058" gradientUnits="userSpaceOnUse">
            <stop stop-color="#DCC2EC"/>
            <stop offset="0.501875" stop-color="#93819E"/>
            <stop offset="0.830053" stop-color="#DCC3ED"/>
        </linearGradient>
        <linearGradient id="paint74_linear_1323_49209" x1="61.6177" y1="27.3882" x2="64.0109" y2="27.3882" gradientUnits="userSpaceOnUse">
            <stop stop-color="#DCC2EC"/>
            <stop offset="0.501875" stop-color="#93819E"/>
            <stop offset="0.830053" stop-color="#DCC3ED"/>
        </linearGradient>
        <linearGradient id="paint75_linear_1323_49209" x1="61.6177" y1="27.3882" x2="64.0109" y2="27.3882" gradientUnits="userSpaceOnUse">
            <stop stop-color="#DCC2EC"/>
            <stop offset="0.501875" stop-color="#93819E"/>
            <stop offset="0.830053" stop-color="#DCC3ED"/>
        </linearGradient>
        <linearGradient id="paint76_linear_1323_49209" x1="58.9186" y1="32.7622" x2="86.2276" y2="32.7622" gradientUnits="userSpaceOnUse">
            <stop stop-color="#DCC2EC"/>
            <stop offset="0.501875" stop-color="#93819E"/>
            <stop offset="0.830053" stop-color="#DCC3ED"/>
        </linearGradient>
        <linearGradient id="paint77_linear_1323_49209" x1="58.9186" y1="32.7622" x2="86.2276" y2="32.7622" gradientUnits="userSpaceOnUse">
            <stop stop-color="#DCC2EC"/>
            <stop offset="0.501875" stop-color="#93819E"/>
            <stop offset="0.830053" stop-color="#DCC3ED"/>
        </linearGradient>
        <linearGradient id="paint78_linear_1323_49209" x1="35.2619" y1="32.1467" x2="68.0637" y2="32.1467" gradientUnits="userSpaceOnUse">
            <stop stop-color="#DCC2EC"/>
            <stop offset="0.501875" stop-color="#93819E"/>
            <stop offset="0.830053" stop-color="#DCC3ED"/>
        </linearGradient>
        <linearGradient id="paint79_linear_1323_49209" x1="35.2619" y1="32.1467" x2="68.0637" y2="32.1467" gradientUnits="userSpaceOnUse">
            <stop stop-color="#DCC2EC"/>
            <stop offset="0.501875" stop-color="#93819E"/>
            <stop offset="0.830053" stop-color="#DCC3ED"/>
        </linearGradient>
        <linearGradient id="paint80_linear_1323_49209" x1="40.9776" y1="37.1384" x2="65.511" y2="37.1384" gradientUnits="userSpaceOnUse">
            <stop stop-color="#DCC2EC"/>
            <stop offset="0.501875" stop-color="#93819E"/>
            <stop offset="0.830053" stop-color="#DCC3ED"/>
        </linearGradient>
        <linearGradient id="paint81_linear_1323_49209" x1="40.9776" y1="37.1384" x2="65.511" y2="37.1384" gradientUnits="userSpaceOnUse">
            <stop stop-color="#DCC2EC"/>
            <stop offset="0.501875" stop-color="#93819E"/>
            <stop offset="0.830053" stop-color="#DCC3ED"/>
        </linearGradient>
        <linearGradient id="paint82_linear_1323_49209" x1="52.431" y1="58.8909" x2="70.7273" y2="58.8909" gradientUnits="userSpaceOnUse">
            <stop stop-color="#DCC2EC"/>
            <stop offset="0.501875" stop-color="#93819E"/>
            <stop offset="0.830053" stop-color="#DCC3ED"/>
        </linearGradient>
        <linearGradient id="paint83_linear_1323_49209" x1="52.431" y1="58.8909" x2="70.7273" y2="58.8909" gradientUnits="userSpaceOnUse">
            <stop stop-color="#DCC2EC"/>
            <stop offset="0.501875" stop-color="#93819E"/>
            <stop offset="0.830053" stop-color="#DCC3ED"/>
        </linearGradient>
        <linearGradient id="paint84_linear_1323_49209" x1="41.7032" y1="32.8464" x2="56.7201" y2="32.8464" gradientUnits="userSpaceOnUse">
            <stop stop-color="#DCC2EC"/>
            <stop offset="0.501875" stop-color="#93819E"/>
            <stop offset="0.830053" stop-color="#DCC3ED"/>
        </linearGradient>
        <linearGradient id="paint85_linear_1323_49209" x1="41.7032" y1="32.8464" x2="56.7201" y2="32.8464" gradientUnits="userSpaceOnUse">
            <stop stop-color="#DCC2EC"/>
            <stop offset="0.501875" stop-color="#93819E"/>
            <stop offset="0.830053" stop-color="#DCC3ED"/>
        </linearGradient>
        <linearGradient id="paint86_linear_1323_49209" x1="75.0459" y1="38.0922" x2="79.7444" y2="38.0922" gradientUnits="userSpaceOnUse">
            <stop stop-color="#DCC2EC"/>
            <stop offset="0.501875" stop-color="#93819E"/>
            <stop offset="0.830053" stop-color="#DCC3ED"/>
        </linearGradient>
        <linearGradient id="paint87_linear_1323_49209" x1="75.0459" y1="38.0922" x2="79.7444" y2="38.0922" gradientUnits="userSpaceOnUse">
            <stop stop-color="#DCC2EC"/>
            <stop offset="0.501875" stop-color="#93819E"/>
            <stop offset="0.830053" stop-color="#DCC3ED"/>
        </linearGradient>
        <linearGradient id="paint88_linear_1323_49209" x1="24.007" y1="93.8615" x2="98.1919" y2="93.8615" gradientUnits="userSpaceOnUse">
            <stop stop-color="#DCC2EC"/>
            <stop offset="0.501875" stop-color="#93819E"/>
            <stop offset="0.830053" stop-color="#DCC3ED"/>
        </linearGradient>
        <linearGradient id="paint89_linear_1323_49209" x1="24.007" y1="93.8615" x2="98.1919" y2="93.8615" gradientUnits="userSpaceOnUse">
            <stop stop-color="#DCC2EC"/>
            <stop offset="0.501875" stop-color="#93819E"/>
            <stop offset="0.830053" stop-color="#DCC3ED"/>
        </linearGradient>
        <linearGradient id="paint90_linear_1323_49209" x1="18.3733" y1="75.9902" x2="61.1415" y2="75.9902" gradientUnits="userSpaceOnUse">
            <stop stop-color="#DCC2EC"/>
            <stop offset="0.501875" stop-color="#93819E"/>
            <stop offset="0.830053" stop-color="#DCC3ED"/>
        </linearGradient>
        <linearGradient id="paint91_linear_1323_49209" x1="18.3733" y1="75.9902" x2="61.1415" y2="75.9902" gradientUnits="userSpaceOnUse">
            <stop stop-color="#DCC2EC"/>
            <stop offset="0.501875" stop-color="#93819E"/>
            <stop offset="0.830053" stop-color="#DCC3ED"/>
        </linearGradient>
        <linearGradient id="paint92_linear_1323_49209" x1="62.0234" y1="75.8069" x2="104.803" y2="75.8069" gradientUnits="userSpaceOnUse">
            <stop stop-color="#DCC2EC"/>
            <stop offset="0.501875" stop-color="#93819E"/>
            <stop offset="0.830053" stop-color="#DCC3ED"/>
        </linearGradient>
        <linearGradient id="paint93_linear_1323_49209" x1="62.0234" y1="75.8069" x2="104.803" y2="75.8069" gradientUnits="userSpaceOnUse">
            <stop stop-color="#DCC2EC"/>
            <stop offset="0.501875" stop-color="#93819E"/>
            <stop offset="0.830053" stop-color="#DCC3ED"/>
        </linearGradient>
        <linearGradient id="paint94_linear_1323_49209" x1="74.4791" y1="61.1776" x2="91.3563" y2="61.1776" gradientUnits="userSpaceOnUse">
            <stop stop-color="#DCC2EC"/>
            <stop offset="0.501875" stop-color="#93819E"/>
            <stop offset="0.830053" stop-color="#DCC3ED"/>
        </linearGradient>
        <linearGradient id="paint95_linear_1323_49209" x1="79.8157" y1="57.2329" x2="93.0928" y2="57.2329" gradientUnits="userSpaceOnUse">
            <stop stop-color="#DCC2EC"/>
            <stop offset="0.501875" stop-color="#93819E"/>
            <stop offset="0.830053" stop-color="#DCC3ED"/>
        </linearGradient>
        <linearGradient id="paint96_linear_1323_49209" x1="32.3795" y1="61.1776" x2="49.2566" y2="61.1776" gradientUnits="userSpaceOnUse">
            <stop stop-color="#DCC2EC"/>
            <stop offset="0.501875" stop-color="#93819E"/>
            <stop offset="0.830053" stop-color="#DCC3ED"/>
        </linearGradient>
        <linearGradient id="paint97_linear_1323_49209" x1="30.7552" y1="57.2329" x2="44.0319" y2="57.2329" gradientUnits="userSpaceOnUse">
            <stop stop-color="#DCC2EC"/>
            <stop offset="0.501875" stop-color="#93819E"/>
            <stop offset="0.830053" stop-color="#DCC3ED"/>
        </linearGradient>
        <linearGradient id="paint98_linear_1323_49209" x1="-32.0933" y1="60.1455" x2="148.463" y2="60.1455" gradientUnits="userSpaceOnUse">
            <stop stop-color="#DCC2EC"/>
            <stop offset="0.501875" stop-color="#93819E"/>
            <stop offset="0.830053" stop-color="#DCC3ED"/>
        </linearGradient>
        <linearGradient id="paint99_linear_1323_49209" x1="30.6763" y1="67.7622" x2="58.6693" y2="67.7622" gradientUnits="userSpaceOnUse">
            <stop stop-color="#DCC2EC"/>
            <stop offset="0.501875" stop-color="#93819E"/>
            <stop offset="0.830053" stop-color="#DCC3ED"/>
        </linearGradient>
        <linearGradient id="paint100_linear_1323_49209" x1="65.1446" y1="66.8658" x2="96.017" y2="66.8658" gradientUnits="userSpaceOnUse">
            <stop stop-color="#DCC2EC"/>
            <stop offset="0.501875" stop-color="#93819E"/>
            <stop offset="0.830053" stop-color="#DCC3ED"/>
        </linearGradient>
        <linearGradient id="paint101_linear_1323_49209" x1="72.5947" y1="65.7149" x2="94.655" y2="65.7149" gradientUnits="userSpaceOnUse">
            <stop stop-color="#DCC2EC"/>
            <stop offset="0.501875" stop-color="#93819E"/>
            <stop offset="0.830053" stop-color="#DCC3ED"/>
        </linearGradient>
        <linearGradient id="paint102_linear_1323_49209" x1="32.1219" y1="66.3268" x2="52.1958" y2="66.3268" gradientUnits="userSpaceOnUse">
            <stop stop-color="#DCC2EC"/>
            <stop offset="0.501875" stop-color="#93819E"/>
            <stop offset="0.830053" stop-color="#DCC3ED"/>
        </linearGradient>
        <clipPath id="clip0_1323_49209">
            <rect width="120" height="120" fill="white" transform="translate(0.5 0.5)"/>
        </clipPath>
    </defs>
</svg>
