<svg width="121" height="121" viewBox="0 0 121 121" fill="none" xmlns="http://www.w3.org/2000/svg">
    <g clip-path="url(#clip0_1323_49411)">
        <path d="M60.5352 119.097C92.917 119.097 119.168 92.8464 119.168 60.4643C119.168 28.0823 92.917 1.83154 60.5352 1.83154C28.1532 1.83154 1.90234 28.0823 1.90234 60.4643C1.90234 92.8464 28.1532 119.097 60.5352 119.097Z" stroke="url(#paint0_linear_1323_49411)" stroke-width="1.2475" stroke-miterlimit="10"/>
        <path d="M40.1065 86.8375C42.5256 86.8375 44.4865 84.8764 44.4865 82.4576C44.4865 80.0385 42.5256 78.0776 40.1065 78.0776C37.6874 78.0776 35.7266 80.0385 35.7266 82.4576C35.7266 84.8764 37.6874 86.8375 40.1065 86.8375Z" stroke="url(#paint1_linear_1323_49411)" stroke-width="1.38758" stroke-miterlimit="10" stroke-linecap="round" stroke-linejoin="round"/>
        <path d="M53.2491 85.0866C55.6682 85.0866 57.6293 83.1257 57.6293 80.7066C57.6293 78.2875 55.6682 76.3267 53.2491 76.3267C50.83 76.3267 48.8691 78.2875 48.8691 80.7066C48.8691 83.1257 50.83 85.0866 53.2491 85.0866Z" stroke="url(#paint2_linear_1323_49411)" stroke-width="1.38758" stroke-miterlimit="10" stroke-linecap="round" stroke-linejoin="round"/>
        <path d="M41.8616 72.8217C44.2807 72.8217 46.2416 70.8606 46.2416 68.4417C46.2416 66.0226 44.2807 64.0615 41.8616 64.0615C39.4426 64.0615 37.4814 66.0226 37.4814 68.4417C37.4814 70.8606 39.4426 72.8217 41.8616 72.8217Z" stroke="url(#paint3_linear_1323_49411)" stroke-width="1.38758" stroke-miterlimit="10" stroke-linecap="round" stroke-linejoin="round"/>
        <path d="M52.3724 65.8117C54.7915 65.8117 56.7523 63.8505 56.7523 61.4317C56.7523 59.0126 54.7915 57.0518 52.3724 57.0518C49.9533 57.0518 47.9922 59.0126 47.9922 61.4317C47.9922 63.8505 49.9533 65.8117 52.3724 65.8117Z" stroke="url(#paint4_linear_1323_49411)" stroke-width="1.38758" stroke-miterlimit="10" stroke-linecap="round" stroke-linejoin="round"/>
        <path d="M61.1331 74.5721C63.5522 74.5721 65.5131 72.611 65.5131 70.192C65.5131 67.7729 63.5522 65.812 61.1331 65.812C58.714 65.812 56.7529 67.7729 56.7529 70.192C56.7529 72.611 58.714 74.5721 61.1331 74.5721Z" stroke="url(#paint5_linear_1323_49411)" stroke-width="1.38758" stroke-miterlimit="10" stroke-linecap="round" stroke-linejoin="round"/>
        <path d="M69.0196 84.2098C71.4389 84.2098 73.3998 82.2487 73.3998 79.8297C73.3998 77.4106 71.4389 75.4497 69.0196 75.4497C66.6008 75.4497 64.6396 77.4106 64.6396 79.8297C64.6396 82.2487 66.6008 84.2098 69.0196 84.2098Z" stroke="url(#paint6_linear_1323_49411)" stroke-width="1.38758" stroke-miterlimit="10" stroke-linecap="round" stroke-linejoin="round"/>
        <path d="M61.1331 96.475C63.5522 96.475 65.5131 94.5139 65.5131 92.0948C65.5131 89.6757 63.5522 87.7148 61.1331 87.7148C58.714 87.7148 56.7529 89.6757 56.7529 92.0948C56.7529 94.5139 58.714 96.475 61.1331 96.475Z" stroke="url(#paint7_linear_1323_49411)" stroke-width="1.38758" stroke-miterlimit="10" stroke-linecap="round" stroke-linejoin="round"/>
        <path d="M42.7383 57.9286C45.1574 57.9286 47.1185 55.9677 47.1185 53.5486C47.1185 51.1296 45.1574 49.1685 42.7383 49.1685C40.3193 49.1685 38.3584 51.1296 38.3584 53.5486C38.3584 55.9677 40.3193 57.9286 42.7383 57.9286Z" stroke="url(#paint8_linear_1323_49411)" stroke-width="1.38758" stroke-miterlimit="10" stroke-linecap="round" stroke-linejoin="round"/>
        <path d="M30.473 64.9384C32.8918 64.9384 34.8529 62.9773 34.8529 60.5584C34.8529 58.1393 32.8918 56.1782 30.473 56.1782C28.0539 56.1782 26.0928 58.1393 26.0928 60.5584C26.0928 62.9773 28.0539 64.9384 30.473 64.9384Z" stroke="url(#paint9_linear_1323_49411)" stroke-width="1.38758" stroke-miterlimit="10" stroke-linecap="round" stroke-linejoin="round"/>
        <path d="M53.2491 46.5409C55.6682 46.5409 57.6293 44.5798 57.6293 42.1607C57.6293 39.7416 55.6682 37.7808 53.2491 37.7808C50.83 37.7808 48.8691 39.7416 48.8691 42.1607C48.8691 44.5798 50.83 46.5409 53.2491 46.5409Z" stroke="url(#paint10_linear_1323_49411)" stroke-width="1.38758" stroke-miterlimit="10" stroke-linecap="round" stroke-linejoin="round"/>
        <path d="M61.1331 35.1527C63.5522 35.1527 65.5131 33.1918 65.5131 30.7728C65.5131 28.3537 63.5522 26.3926 61.1331 26.3926C58.714 26.3926 56.7529 28.3537 56.7529 30.7728C56.7529 33.1918 58.714 35.1527 61.1331 35.1527Z" stroke="url(#paint11_linear_1323_49411)" stroke-width="1.38758" stroke-miterlimit="10" stroke-linecap="round" stroke-linejoin="round"/>
        <path d="M69.0196 46.5409C71.4389 46.5409 73.3998 44.5798 73.3998 42.1607C73.3998 39.7416 71.4389 37.7808 69.0196 37.7808C66.6008 37.7808 64.6396 39.7416 64.6396 42.1607C64.6396 44.5798 66.6008 46.5409 69.0196 46.5409Z" stroke="url(#paint12_linear_1323_49411)" stroke-width="1.38758" stroke-miterlimit="10" stroke-linecap="round" stroke-linejoin="round"/>
        <path d="M83.0316 43.913C85.4504 43.913 87.4115 41.9519 87.4115 39.5328C87.4115 37.1139 85.4504 35.1528 83.0316 35.1528C80.6125 35.1528 78.6514 37.1139 78.6514 39.5328C78.6514 41.9519 80.6125 43.913 83.0316 43.913Z" stroke="url(#paint13_linear_1323_49411)" stroke-width="1.38758" stroke-miterlimit="10" stroke-linecap="round" stroke-linejoin="round"/>
        <path d="M69.8926 64.9384C72.3117 64.9384 74.2728 62.9773 74.2728 60.5584C74.2728 58.1393 72.3117 56.1782 69.8926 56.1782C67.4736 56.1782 65.5127 58.1393 65.5127 60.5584C65.5127 62.9773 67.4736 64.9384 69.8926 64.9384Z" stroke="url(#paint14_linear_1323_49411)" stroke-width="1.38758" stroke-miterlimit="10" stroke-linecap="round" stroke-linejoin="round"/>
        <path d="M80.4036 57.9286C82.8227 57.9286 84.7836 55.9677 84.7836 53.5486C84.7836 51.1296 82.8227 49.1685 80.4036 49.1685C77.9846 49.1685 76.0234 51.1296 76.0234 53.5486C76.0234 55.9677 77.9846 57.9286 80.4036 57.9286Z" stroke="url(#paint15_linear_1323_49411)" stroke-width="1.38758" stroke-miterlimit="10" stroke-linecap="round" stroke-linejoin="round"/>
        <path d="M91.7921 65.8117C94.2109 65.8117 96.172 63.8505 96.172 61.4317C96.172 59.0126 94.2109 57.0518 91.7921 57.0518C89.373 57.0518 87.4121 59.0126 87.4121 61.4317C87.4121 63.8505 89.373 65.8117 91.7921 65.8117Z" stroke="url(#paint16_linear_1323_49411)" stroke-width="1.38758" stroke-miterlimit="10" stroke-linecap="round" stroke-linejoin="round"/>
        <path d="M80.4036 73.6989C82.8227 73.6989 84.7836 71.738 84.7836 69.3189C84.7836 66.8998 82.8227 64.939 80.4036 64.939C77.9846 64.939 76.0234 66.8998 76.0234 69.3189C76.0234 71.738 77.9846 73.6989 80.4036 73.6989Z" stroke="url(#paint17_linear_1323_49411)" stroke-width="1.38758" stroke-miterlimit="10" stroke-linecap="round" stroke-linejoin="round"/>
        <path d="M82.4114 87.38C84.8305 87.38 86.7914 85.4191 86.7914 83.0001C86.7914 80.581 84.8305 78.6201 82.4114 78.6201C79.9924 78.6201 78.0312 80.581 78.0312 83.0001C78.0312 85.4191 79.9924 87.38 82.4114 87.38Z" stroke="url(#paint18_linear_1323_49411)" stroke-width="1.38758" stroke-miterlimit="10" stroke-linecap="round" stroke-linejoin="round"/>
        <path d="M61.1331 56.1747C63.5522 56.1747 65.5131 54.2136 65.5131 51.7947C65.5131 49.3757 63.5522 47.4146 61.1331 47.4146C58.714 47.4146 56.7529 49.3757 56.7529 51.7947C56.7529 54.2136 58.714 56.1747 61.1331 56.1747Z" stroke="url(#paint19_linear_1323_49411)" stroke-width="1.38758" stroke-miterlimit="10" stroke-linecap="round" stroke-linejoin="round"/>
        <path d="M39.2337 43.913C41.6528 43.913 43.6137 41.9519 43.6137 39.5328C43.6137 37.1139 41.6528 35.1528 39.2337 35.1528C36.8146 35.1528 34.8535 37.1139 34.8535 39.5328C34.8535 41.9519 36.8146 43.913 39.2337 43.913Z" stroke="url(#paint20_linear_1323_49411)" stroke-width="1.38758" stroke-miterlimit="10" stroke-linecap="round" stroke-linejoin="round"/>
        <path d="M50.8561 44.4816C51.8897 45.3273 53.3787 45.3457 54.668 45.5095C55.3034 45.1918 55.8681 44.6134 55.8681 43.8536V42.959C55.8681 42.6101 55.6796 42.3284 55.6681 41.9755C55.6491 41.3964 55.5743 40.3337 54.9679 40.0306C54.5898 39.8415 53.6866 40.0213 53.3233 40.1086C52.7855 40.2371 51.509 40.3869 51.1673 40.8751C50.7357 41.4916 50.6674 42.1258 50.6674 42.8533C50.6674 43.2899 50.489 44.1811 50.8561 44.4816Z" fill="#F1EDF3" fill-opacity="0.18"/>
        <path d="M40.3445 70.1937C41.3784 71.0397 42.8671 71.0581 44.1564 71.2219C44.7918 70.904 45.3565 70.3259 45.3565 69.566V68.6714C45.3565 68.3225 45.168 68.041 45.1565 67.6879C45.1375 67.1088 45.0627 66.0461 44.4563 65.7431C44.078 65.5539 43.175 65.7337 42.8117 65.8207C42.2739 65.9495 40.9974 66.0994 40.6557 66.5875C40.2241 67.204 40.1555 67.8382 40.1555 68.5657C40.1555 69.0021 39.9774 69.8935 40.3445 70.1937Z" fill="#F1EDF3" fill-opacity="0.8"/>
        <path d="M67.5027 62.3111C68.5363 63.1568 70.0253 63.1753 71.3144 63.339C71.95 63.0213 72.5147 62.443 72.5147 61.6831V60.7885C72.5147 60.4397 72.3262 60.1582 72.3147 59.805C72.2955 59.2262 72.2207 58.1633 71.6146 57.8602C71.2362 57.671 70.3332 57.8511 69.9697 57.9381C69.4321 58.0669 68.1556 58.2167 67.8139 58.7049C67.3823 59.3211 67.3137 59.9553 67.3137 60.683C67.3137 61.1194 67.1356 62.0107 67.5027 62.3111Z" fill="#F1EDF3" fill-opacity="0.18"/>
        <path d="M67.5027 43.913C68.5363 44.7589 70.0253 44.7774 71.3144 44.9411C71.95 44.6232 72.5147 44.0451 72.5147 43.2852V42.3907C72.5147 42.0418 72.3262 41.7603 72.3147 41.4071C72.2955 40.828 72.2207 39.7654 71.6146 39.4623C71.2362 39.2731 70.3332 39.4529 69.9697 39.54C69.4321 39.6687 68.1556 39.8186 67.8139 40.3068C67.3823 40.9232 67.3137 41.5574 67.3137 42.2849C67.3137 42.7213 67.1356 43.6128 67.5027 43.913Z" fill="#F1EDF3" fill-opacity="0.8"/>
        <path d="M51.7399 82.4594C52.7738 83.3053 54.2628 83.3238 55.5518 83.4875C56.1875 83.1696 56.7521 82.5915 56.7521 81.8314V80.937C56.7521 80.5882 56.5637 80.3067 56.5519 79.9535C56.533 79.3744 56.4582 78.3118 55.8518 78.0087C55.4736 77.8195 54.5707 77.9993 54.2072 78.0864C53.6693 78.2151 52.3928 78.365 52.0511 78.8532C51.6198 79.4696 51.5509 80.1038 51.5509 80.8313C51.5509 81.2677 51.373 82.1592 51.7399 82.4594Z" fill="#F1EDF3" fill-opacity="0.81"/>
    </g>
    <defs>
        <linearGradient id="paint0_linear_1323_49411" x1="-31.9511" y1="59.8916" x2="147.437" y2="59.8916" gradientUnits="userSpaceOnUse">
            <stop stop-color="#DCC2EC"/>
            <stop offset="0.501875" stop-color="#93819E"/>
            <stop offset="0.830053" stop-color="#DCC3ED"/>
        </linearGradient>
        <linearGradient id="paint1_linear_1323_49411" x1="33.1977" y1="82.4148" x2="46.5982" y2="82.4148" gradientUnits="userSpaceOnUse">
            <stop stop-color="#DCC2EC"/>
            <stop offset="0.501875" stop-color="#93819E"/>
            <stop offset="0.830053" stop-color="#DCC3ED"/>
        </linearGradient>
        <linearGradient id="paint2_linear_1323_49411" x1="46.3402" y1="80.6638" x2="59.7411" y2="80.6638" gradientUnits="userSpaceOnUse">
            <stop stop-color="#DCC2EC"/>
            <stop offset="0.501875" stop-color="#93819E"/>
            <stop offset="0.830053" stop-color="#DCC3ED"/>
        </linearGradient>
        <linearGradient id="paint3_linear_1323_49411" x1="34.9525" y1="68.3988" x2="48.3534" y2="68.3988" gradientUnits="userSpaceOnUse">
            <stop stop-color="#DCC2EC"/>
            <stop offset="0.501875" stop-color="#93819E"/>
            <stop offset="0.830053" stop-color="#DCC3ED"/>
        </linearGradient>
        <linearGradient id="paint4_linear_1323_49411" x1="45.4632" y1="61.3889" x2="58.8641" y2="61.3889" gradientUnits="userSpaceOnUse">
            <stop stop-color="#DCC2EC"/>
            <stop offset="0.501875" stop-color="#93819E"/>
            <stop offset="0.830053" stop-color="#DCC3ED"/>
        </linearGradient>
        <linearGradient id="paint5_linear_1323_49411" x1="54.224" y1="70.1493" x2="67.6249" y2="70.1493" gradientUnits="userSpaceOnUse">
            <stop stop-color="#DCC2EC"/>
            <stop offset="0.501875" stop-color="#93819E"/>
            <stop offset="0.830053" stop-color="#DCC3ED"/>
        </linearGradient>
        <linearGradient id="paint6_linear_1323_49411" x1="62.1107" y1="79.787" x2="75.5116" y2="79.787" gradientUnits="userSpaceOnUse">
            <stop stop-color="#DCC2EC"/>
            <stop offset="0.501875" stop-color="#93819E"/>
            <stop offset="0.830053" stop-color="#DCC3ED"/>
        </linearGradient>
        <linearGradient id="paint7_linear_1323_49411" x1="54.224" y1="92.0521" x2="67.6249" y2="92.0521" gradientUnits="userSpaceOnUse">
            <stop stop-color="#DCC2EC"/>
            <stop offset="0.501875" stop-color="#93819E"/>
            <stop offset="0.830053" stop-color="#DCC3ED"/>
        </linearGradient>
        <linearGradient id="paint8_linear_1323_49411" x1="35.8294" y1="53.5058" x2="49.2304" y2="53.5058" gradientUnits="userSpaceOnUse">
            <stop stop-color="#DCC2EC"/>
            <stop offset="0.501875" stop-color="#93819E"/>
            <stop offset="0.830053" stop-color="#DCC3ED"/>
        </linearGradient>
        <linearGradient id="paint9_linear_1323_49411" x1="23.5638" y1="60.5155" x2="36.9647" y2="60.5155" gradientUnits="userSpaceOnUse">
            <stop stop-color="#DCC2EC"/>
            <stop offset="0.501875" stop-color="#93819E"/>
            <stop offset="0.830053" stop-color="#DCC3ED"/>
        </linearGradient>
        <linearGradient id="paint10_linear_1323_49411" x1="46.3402" y1="42.1181" x2="59.7411" y2="42.1181" gradientUnits="userSpaceOnUse">
            <stop stop-color="#DCC2EC"/>
            <stop offset="0.501875" stop-color="#93819E"/>
            <stop offset="0.830053" stop-color="#DCC3ED"/>
        </linearGradient>
        <linearGradient id="paint11_linear_1323_49411" x1="54.224" y1="30.7299" x2="67.6249" y2="30.7299" gradientUnits="userSpaceOnUse">
            <stop stop-color="#DCC2EC"/>
            <stop offset="0.501875" stop-color="#93819E"/>
            <stop offset="0.830053" stop-color="#DCC3ED"/>
        </linearGradient>
        <linearGradient id="paint12_linear_1323_49411" x1="62.1107" y1="42.1181" x2="75.5116" y2="42.1181" gradientUnits="userSpaceOnUse">
            <stop stop-color="#DCC2EC"/>
            <stop offset="0.501875" stop-color="#93819E"/>
            <stop offset="0.830053" stop-color="#DCC3ED"/>
        </linearGradient>
        <linearGradient id="paint13_linear_1323_49411" x1="76.1224" y1="39.4901" x2="89.5233" y2="39.4901" gradientUnits="userSpaceOnUse">
            <stop stop-color="#DCC2EC"/>
            <stop offset="0.501875" stop-color="#93819E"/>
            <stop offset="0.830053" stop-color="#DCC3ED"/>
        </linearGradient>
        <linearGradient id="paint14_linear_1323_49411" x1="62.9837" y1="60.5155" x2="76.3847" y2="60.5155" gradientUnits="userSpaceOnUse">
            <stop stop-color="#DCC2EC"/>
            <stop offset="0.501875" stop-color="#93819E"/>
            <stop offset="0.830053" stop-color="#DCC3ED"/>
        </linearGradient>
        <linearGradient id="paint15_linear_1323_49411" x1="73.4945" y1="53.5058" x2="86.8954" y2="53.5058" gradientUnits="userSpaceOnUse">
            <stop stop-color="#DCC2EC"/>
            <stop offset="0.501875" stop-color="#93819E"/>
            <stop offset="0.830053" stop-color="#DCC3ED"/>
        </linearGradient>
        <linearGradient id="paint16_linear_1323_49411" x1="84.8832" y1="61.3889" x2="98.2838" y2="61.3889" gradientUnits="userSpaceOnUse">
            <stop stop-color="#DCC2EC"/>
            <stop offset="0.501875" stop-color="#93819E"/>
            <stop offset="0.830053" stop-color="#DCC3ED"/>
        </linearGradient>
        <linearGradient id="paint17_linear_1323_49411" x1="73.4945" y1="69.2761" x2="86.8954" y2="69.2761" gradientUnits="userSpaceOnUse">
            <stop stop-color="#DCC2EC"/>
            <stop offset="0.501875" stop-color="#93819E"/>
            <stop offset="0.830053" stop-color="#DCC3ED"/>
        </linearGradient>
        <linearGradient id="paint18_linear_1323_49411" x1="75.5023" y1="82.9573" x2="88.9032" y2="82.9573" gradientUnits="userSpaceOnUse">
            <stop stop-color="#DCC2EC"/>
            <stop offset="0.501875" stop-color="#93819E"/>
            <stop offset="0.830053" stop-color="#DCC3ED"/>
        </linearGradient>
        <linearGradient id="paint19_linear_1323_49411" x1="54.224" y1="51.7518" x2="67.6249" y2="51.7518" gradientUnits="userSpaceOnUse">
            <stop stop-color="#DCC2EC"/>
            <stop offset="0.501875" stop-color="#93819E"/>
            <stop offset="0.830053" stop-color="#DCC3ED"/>
        </linearGradient>
        <linearGradient id="paint20_linear_1323_49411" x1="32.3245" y1="39.4901" x2="45.7255" y2="39.4901" gradientUnits="userSpaceOnUse">
            <stop stop-color="#DCC2EC"/>
            <stop offset="0.501875" stop-color="#93819E"/>
            <stop offset="0.830053" stop-color="#DCC3ED"/>
        </linearGradient>
        <clipPath id="clip0_1323_49411">
            <rect width="120" height="120" fill="white" transform="translate(0.5 0.5)"/>
        </clipPath>
    </defs>
</svg>
