<svg width="121" height="121" viewBox="0 0 121 121" fill="none" xmlns="http://www.w3.org/2000/svg">
    <g clip-path="url(#clip0_1323_49172)">
        <path d="M60.5313 119.097C92.9131 119.097 119.164 92.8464 119.164 60.4643C119.164 28.0823 92.9131 1.83154 60.5313 1.83154C28.1493 1.83154 1.89844 28.0823 1.89844 60.4643C1.89844 92.8464 28.1493 119.097 60.5313 119.097Z" stroke="url(#paint0_linear_1323_49172)" stroke-width="1.2475" stroke-miterlimit="10"/>
        <mask id="mask0_1323_49172" style="mask-type:luminance" maskUnits="userSpaceOnUse" x="18" y="35" width="82" height="51">
            <path d="M98.5938 36.3296V84.5552H18.9834V36.3296H98.5938Z" fill="white" stroke="white" stroke-width="0.97202"/>
        </mask>
        <g mask="url(#mask0_1323_49172)">
            <path d="M33.6058 83.2242C31.4896 83.2316 29.3769 83.2354 27.2605 83.2429C26.9866 83.2429 26.6865 83.2316 26.4876 83.0403C26.3074 82.864 26.2699 82.59 26.2474 82.3387C26.0636 80.5412 25.9285 78.5525 27.0054 77.1152C27.4519 76.5187 28.0785 76.0796 28.7352 75.7381C31.3507 74.3872 34.6828 74.6125 37.1068 76.2972C37.9736 76.9014 38.7391 77.6781 39.7072 78.0947C40.6341 78.4923 41.6698 78.5187 42.6754 78.5336C46.5403 78.59 50.4054 78.5262 54.2628 78.346C54.7881 78.3198 55.321 78.2936 55.82 78.1209C56.4054 77.9183 56.9045 77.5318 57.4336 77.2053C59.1672 76.1396 61.3661 75.7607 63.2611 76.4887C65.156 77.2165 66.6194 79.1603 66.5332 81.2167C66.5031 81.9258 66.278 82.6576 65.7563 83.1303C65.4149 83.4418 64.9759 83.6145 64.5369 83.7494C62.7094 84.3123 60.7658 84.3161 58.8558 84.3161C49.5573 84.3123 40.2589 84.3087 30.9567 84.3049" fill="#F1EDF3"/>
            <path d="M98.1304 36.7961H82.0739C78.0814 36.7174 74.7868 38.3684 72.479 41.4604C69.4059 45.5955 65.9799 51.3705 64.3701 54.1398C63.7885 55.1416 62.689 55.7571 61.4921 55.7571H57.8935C57.2331 55.7571 56.5839 55.5694 56.0361 55.2167C56.0361 55.2167 52.4975 53.4531 49.1429 52.6087C47.4393 52.1809 42.4411 52.3349 42.4411 52.3349C35.1764 52.3349 29.2852 56.8114 29.2852 63.6971" stroke="url(#paint1_linear_1323_49172)" stroke-width="1.48003" stroke-miterlimit="10" stroke-linecap="round" stroke-linejoin="round"/>
            <path d="M96.8323 84.092H82.5094C78.5168 84.1707 74.4081 83.4015 72.1003 80.3133C69.0272 76.1782 62.6855 69.664 61.4885 69.664H57.8899C57.2295 69.664 56.5804 69.8516 56.0326 70.2043L53.2708 71.998C52.1788 72.7034 50.8805 73.0862 49.5597 73.0862H43.8185H42.4488C35.1842 73.0862 29.293 69.1386 29.293 62.2529" stroke="url(#paint2_linear_1323_49172)" stroke-width="1.48003" stroke-miterlimit="10" stroke-linecap="round" stroke-linejoin="round"/>
            <path d="M90.5664 43.7476C90.5664 43.7476 91.0542 45.4961 96.634 47.2561" stroke="url(#paint3_linear_1323_49172)" stroke-width="1.48003" stroke-miterlimit="10" stroke-linecap="round" stroke-linejoin="round"/>
            <path d="M90.7861 79.1676C90.7861 79.1676 91.2739 77.419 96.8538 75.6592" stroke="url(#paint4_linear_1323_49172)" stroke-width="1.48003" stroke-miterlimit="10" stroke-linecap="round" stroke-linejoin="round"/>
            <path d="M93.083 61.6245H93.665C94.059 61.6246 94.3389 61.9259 94.3389 62.2378C94.3388 62.5496 94.059 62.851 93.665 62.8511H93.083C92.6893 62.8509 92.4103 62.5496 92.4102 62.2378C92.4102 61.9259 92.6893 61.6247 93.083 61.6245Z" fill="#EAEDFF" stroke="url(#paint5_linear_1323_49172)" stroke-width="0.97202"/>
            <path d="M65.0996 61.6245H66.2598C66.6535 61.6247 66.9326 61.9259 66.9326 62.2378C66.9325 62.5496 66.6535 62.8509 66.2598 62.8511H65.0996C64.6977 62.8509 64.4268 62.5526 64.4268 62.2378C64.4268 61.9259 64.7058 61.6247 65.0996 61.6245ZM72.0947 61.6245H73.2539C73.6478 61.6245 73.9277 61.9259 73.9277 62.2378C73.9276 62.5497 73.6477 62.8511 73.2539 62.8511H72.0947C71.6928 62.8511 71.421 62.5527 71.4209 62.2378C71.4209 61.9649 71.6349 61.7002 71.9521 61.6382L72.0947 61.6245ZM79.0928 61.6245H80.2637C80.6574 61.6247 80.9365 61.926 80.9365 62.2378C80.9364 62.5496 80.6573 62.8509 80.2637 62.8511H79.0928C78.6988 62.8511 78.419 62.5496 78.4189 62.2378C78.4189 61.9259 78.6987 61.6245 79.0928 61.6245ZM86.0869 61.6245H87.2461C87.6401 61.6245 87.9199 61.9259 87.9199 62.2378C87.9198 62.5496 87.6401 62.8511 87.2461 62.8511H86.0869C85.6931 62.851 85.4132 62.5496 85.4131 62.2378C85.4131 61.9259 85.6931 61.6246 86.0869 61.6245Z" fill="#EAEDFF" stroke="url(#paint6_linear_1323_49172)" stroke-width="0.97202"/>
            <path d="M58.6807 61.6245H59.2627C59.6566 61.6246 59.9365 61.9259 59.9365 62.2378C59.9364 62.5497 59.6566 62.851 59.2627 62.8511H58.6807C58.287 62.8509 58.0079 62.5496 58.0078 62.2378C58.0078 61.9259 58.2869 61.6247 58.6807 61.6245Z" fill="#EAEDFF" stroke="url(#paint7_linear_1323_49172)" stroke-width="0.97202"/>
            <g style="mix-blend-mode:multiply">
                <path d="M93.0823 63.3356H93.664C94.3019 63.3356 94.8235 62.8403 94.8235 62.2362C94.8235 61.632 94.3019 61.1367 93.664 61.1367H93.0823C92.4445 61.1367 91.9229 61.632 91.9229 62.2362C91.9229 62.8403 92.4445 63.3356 93.0823 63.3356Z" fill="#EAEDFF"/>
                <path d="M63.9355 62.2362C63.9355 61.632 64.457 61.1367 65.095 61.1367H66.2545C66.8924 61.1367 67.4139 61.632 67.4139 62.2362C67.4139 62.8403 66.8924 63.3356 66.2545 63.3356H65.095C64.4458 63.3356 63.9355 62.8403 63.9355 62.2362ZM70.9299 62.2362C70.9299 61.632 71.4516 61.1367 72.0894 61.1367H73.249C73.8868 61.1367 74.4085 61.632 74.4085 62.2362C74.4085 62.8403 73.8868 63.3356 73.249 63.3356H72.0894C71.4403 63.3356 70.9299 62.8403 70.9299 62.2362ZM77.9281 62.2362C77.9281 61.632 78.4498 61.1367 79.0877 61.1367H80.2585C80.8963 61.1367 81.4179 61.632 81.4179 62.2362C81.4179 62.8403 80.8963 63.3356 80.2585 63.3356H79.0877C78.4498 63.3356 77.9281 62.8403 77.9281 62.2362ZM84.9227 62.2362C84.9227 61.632 85.4443 61.1367 86.0821 61.1367H87.2416C87.8796 61.1367 88.4012 61.632 88.4012 62.2362C88.4012 62.8403 87.8796 63.3356 87.2416 63.3356H86.0821C85.4443 63.3356 84.9227 62.8403 84.9227 62.2362Z" fill="#EAEDFF"/>
                <path d="M58.68 63.3356H59.2616C59.8996 63.3356 60.4211 62.8403 60.4211 62.2362C60.4211 61.632 59.8996 61.1367 59.2616 61.1367H58.68C58.0421 61.1367 57.5205 61.632 57.5205 62.2362C57.5205 62.8403 58.0421 63.3356 58.68 63.3356Z" fill="#EAEDFF"/>
            </g>
            <path d="M82.5099 84.0928H19.4434" stroke="url(#paint8_linear_1323_49172)" stroke-width="1.48003" stroke-miterlimit="10" stroke-linecap="round" stroke-linejoin="round"/>
            <path d="M68.2874 84.0895C68.5239 80.6861 68.2236 75.0274 63.5032 71.6953C62.6927 71.125 61.5632 70.9523 59.7396 71.0086C57.4056 71.0799 56.3549 71.2788 55.9121 71.6577" stroke="url(#paint9_linear_1323_49172)" stroke-width="1.45249" stroke-miterlimit="10" stroke-linecap="round" stroke-linejoin="round"/>
            <path d="M33.9704 70.8282C30.0304 69.7024 26.657 70.4829 25.6625 71.3835C22.0303 74.6706 22.3605 81.9502 22.3492 83.3611" stroke="url(#paint10_linear_1323_49172)" stroke-width="1.45249" stroke-miterlimit="10" stroke-linecap="round" stroke-linejoin="round"/>
            <path d="M36.001 71.8855C39.3932 73.908 38.335 77.4164 40.9429 77.4164H52.1739C52.7254 77.4164 53.1757 77.0262 53.187 76.5422C53.187 76.5422 52.5641 74.6584 55.9075 71.6641" stroke="url(#paint11_linear_1323_49172)" stroke-width="1.45249" stroke-miterlimit="10" stroke-linecap="round" stroke-linejoin="round"/>
        </g>
        <path d="M60.4434 119.055C92.8136 119.055 119.055 92.8141 119.055 60.4439C119.055 28.0737 92.8136 1.83252 60.4434 1.83252C28.0732 1.83252 1.83203 28.0737 1.83203 60.4439C1.83203 92.8141 28.0732 119.055 60.4434 119.055Z" stroke="url(#paint12_linear_1323_49172)" stroke-width="1.0572" stroke-miterlimit="10"/>
    </g>
    <defs>
        <linearGradient id="paint0_linear_1323_49172" x1="-31.955" y1="59.8916" x2="147.433" y2="59.8916" gradientUnits="userSpaceOnUse">
            <stop stop-color="#DCC2EC"/>
            <stop offset="0.501875" stop-color="#93819E"/>
            <stop offset="0.830053" stop-color="#DCC3ED"/>
        </linearGradient>
        <linearGradient id="paint1_linear_1323_49172" x1="9.41018" y1="50.1139" x2="114.727" y2="50.1139" gradientUnits="userSpaceOnUse">
            <stop stop-color="#DCC2EC"/>
            <stop offset="0.501875" stop-color="#93819E"/>
            <stop offset="0.830053" stop-color="#DCC3ED"/>
        </linearGradient>
        <linearGradient id="paint2_linear_1323_49172" x1="9.795" y1="73.0685" x2="113.114" y2="73.0685" gradientUnits="userSpaceOnUse">
            <stop stop-color="#DCC2EC"/>
            <stop offset="0.501875" stop-color="#93819E"/>
            <stop offset="0.830053" stop-color="#DCC3ED"/>
        </linearGradient>
        <linearGradient id="paint3_linear_1323_49172" x1="88.8147" y1="45.4847" x2="98.0968" y2="45.4847" gradientUnits="userSpaceOnUse">
            <stop stop-color="#DCC2EC"/>
            <stop offset="0.501875" stop-color="#93819E"/>
            <stop offset="0.830053" stop-color="#DCC3ED"/>
        </linearGradient>
        <linearGradient id="paint4_linear_1323_49172" x1="89.0345" y1="77.3963" x2="98.3165" y2="77.3963" gradientUnits="userSpaceOnUse">
            <stop stop-color="#DCC2EC"/>
            <stop offset="0.501875" stop-color="#93819E"/>
            <stop offset="0.830053" stop-color="#DCC3ED"/>
        </linearGradient>
        <linearGradient id="paint5_linear_1323_49172" x1="91.0864" y1="62.2269" x2="95.5238" y2="62.2269" gradientUnits="userSpaceOnUse">
            <stop stop-color="#DCC2EC"/>
            <stop offset="0.501875" stop-color="#93819E"/>
            <stop offset="0.830053" stop-color="#DCC3ED"/>
        </linearGradient>
        <linearGradient id="paint6_linear_1323_49172" x1="56.8774" y1="62.2269" x2="94.304" y2="62.2269" gradientUnits="userSpaceOnUse">
            <stop stop-color="#DCC2EC"/>
            <stop offset="0.501875" stop-color="#93819E"/>
            <stop offset="0.830053" stop-color="#DCC3ED"/>
        </linearGradient>
        <linearGradient id="paint7_linear_1323_49172" x1="56.6841" y1="62.2269" x2="61.1213" y2="62.2269" gradientUnits="userSpaceOnUse">
            <stop stop-color="#DCC2EC"/>
            <stop offset="0.501875" stop-color="#93819E"/>
            <stop offset="0.830053" stop-color="#DCC3ED"/>
        </linearGradient>
        <linearGradient id="paint8_linear_1323_49172" x1="1.23664" y1="84.5879" x2="97.7135" y2="84.5879" gradientUnits="userSpaceOnUse">
            <stop stop-color="#DCC2EC"/>
            <stop offset="0.501875" stop-color="#93819E"/>
            <stop offset="0.830053" stop-color="#DCC3ED"/>
        </linearGradient>
        <linearGradient id="paint9_linear_1323_49172" x1="52.323" y1="77.4801" x2="71.3417" y2="77.4801" gradientUnits="userSpaceOnUse">
            <stop stop-color="#DCC2EC"/>
            <stop offset="0.501875" stop-color="#93819E"/>
            <stop offset="0.830053" stop-color="#DCC3ED"/>
        </linearGradient>
        <linearGradient id="paint10_linear_1323_49172" x1="18.9898" y1="76.7516" x2="36.7727" y2="76.7516" gradientUnits="userSpaceOnUse">
            <stop stop-color="#DCC2EC"/>
            <stop offset="0.501875" stop-color="#93819E"/>
            <stop offset="0.830053" stop-color="#DCC3ED"/>
        </linearGradient>
        <linearGradient id="paint11_linear_1323_49172" x1="30.2542" y1="74.5122" x2="60.7064" y2="74.5122" gradientUnits="userSpaceOnUse">
            <stop stop-color="#DCC2EC"/>
            <stop offset="0.501875" stop-color="#93819E"/>
            <stop offset="0.830053" stop-color="#DCC3ED"/>
        </linearGradient>
        <linearGradient id="paint12_linear_1323_49172" x1="-32.0091" y1="59.8715" x2="147.314" y2="59.8715" gradientUnits="userSpaceOnUse">
            <stop stop-color="#DCC2EC"/>
            <stop offset="0.501875" stop-color="#93819E"/>
            <stop offset="0.830053" stop-color="#DCC3ED"/>
        </linearGradient>
        <clipPath id="clip0_1323_49172">
            <rect width="120" height="120" fill="white" transform="translate(0.5 0.5)"/>
        </clipPath>
    </defs>
</svg>
