<svg width="121" height="121" viewBox="0 0 121 121" fill="none" xmlns="http://www.w3.org/2000/svg">
    <path d="M60.5313 119.097C92.9131 119.097 119.164 92.8464 119.164 60.4643C119.164 28.0823 92.9131 1.83154 60.5313 1.83154C28.1493 1.83154 1.89844 28.0823 1.89844 60.4643C1.89844 92.8464 28.1493 119.097 60.5313 119.097Z" stroke="url(#paint0_linear_1323_49396)" stroke-width="1.2475" stroke-miterlimit="10"/>
    <path d="M40.9056 48.3717C48.4831 48.3717 56.0574 48.3717 63.6347 48.3717C64.8431 48.3717 64.8464 46.4922 63.6347 46.4922C56.0574 46.4922 48.4831 46.4922 40.9056 46.4922C39.6972 46.4922 39.6939 48.3717 40.9056 48.3717Z" fill="url(#paint1_linear_1323_49396)"/>
    <path d="M50.0415 85.287C49.1315 81.368 48.4149 76.5483 47.8022 71.8844C47.1895 67.2204 46.6446 62.5052 45.9258 57.9234C46.4214 58.4319 46.9301 58.9303 47.2932 58.372C47.5655 57.9466 47.7706 56.9217 48.1615 57.5121C48.3047 57.7339 49.1236 55.7962 49.2697 56.0527C49.5591 56.5665 49.1275 58.7696 49.3469 58.6048C50.1576 56.7715 50.3512 57.8535 50.8544 57.4817C51.9387 64.6618 52.6125 71.9921 53.2635 79.1315C53.4451 81.1167 53.629 83.2947 53.5009 84.4781C53.4043 85.3593 53.1509 85.475 52.91 85.5718C51.8089 85.9732 50.6568 86.3277 49.2697 83.7006" fill="#E8E4EB"/>
    <path d="M53.077 85.8533C51.5244 81.928 50.923 77.0852 50.6044 72.3958C50.2856 67.7062 50.2056 62.962 49.5127 58.3596C50.941 58.854 52.4159 59.3379 53.797 58.7589C54.8349 58.3185 55.8693 57.2744 56.928 57.8559C57.3137 58.0744 60.6018 57.4624 60.9846 57.7161C61.741 58.2236 59.6174 59.0888 60.3896 58.9137C62.1594 58.5182 68.8092 59.3156 70.579 58.9204C71.5283 66.1343 68.6947 76.2837 68.2499 83.4737C68.1283 85.4727 66.6595 86.631 64.6133 84.8995C63.9831 85.7939 63.1182 85.9206 62.2998 86.0279C58.5764 86.4773 54.7038 86.8808 51.1371 84.2801" fill="#E8E4EB"/>
    <path d="M38.7021 43.1199C40.111 52.4099 40.9421 61.8032 41.9634 71.14C42.471 75.7965 42.9716 80.453 43.5292 85.1033C43.7227 86.7055 43.6726 88.7618 44.6106 90.1237C45.4552 91.3488 46.7404 91.7527 48.1524 91.7893C54.9253 91.9563 61.7083 91.9129 68.4813 91.9764C69.2726 91.9829 70.0736 92.0298 70.8647 91.9996C73.0379 91.9163 74.4199 90.4475 74.7603 88.3745C75.408 84.3855 75.8686 80.3596 76.3893 76.3539C77.0736 71.093 77.7378 65.8291 78.3955 60.5649C78.7294 57.8676 79.2535 55.117 79.3835 52.3999C79.4403 51.2013 77.5778 51.2047 77.5174 52.3999C77.4207 54.3927 77.0437 56.409 76.7998 58.3884C76.2758 62.6245 75.745 66.8605 75.2044 71.093C74.6468 75.4494 74.0861 79.8056 73.4918 84.1584C73.2949 85.6039 73.3883 88.0375 72.5471 89.2724C71.8494 90.2971 70.6645 90.1338 69.613 90.1237C62.9835 90.0636 56.3541 90.0035 49.7246 89.94C49.077 89.9335 48.3728 90.0068 47.7285 89.9235C45.4286 89.6195 45.612 86.8957 45.3953 85.1033C44.8777 80.8037 44.4137 76.4942 43.9431 72.1881C42.8683 62.334 41.9869 52.4231 40.5014 42.6226C40.3213 41.4442 38.522 41.945 38.7021 43.1199Z" fill="url(#paint2_linear_1323_49396)"/>
    <path d="M73.1529 23.3844C73.1464 23.4011 73.1864 23.3543 73.0027 23.5646C72.8025 23.7949 72.5922 24.0186 72.3886 24.2489C71.7275 24.9866 71.0734 25.731 70.4425 26.4922C68.6868 28.6117 67.0509 30.8517 65.7057 33.2584C62.8082 38.4426 61.1994 44.8984 64.9313 50.1226C68.0123 54.4354 73.6104 55.29 78.3371 53.3806C80.2832 52.5961 82.1558 51.3777 83.3709 49.6318C84.9733 47.3252 84.9198 44.0505 84.5091 41.3966C83.431 34.4802 79.0248 28.4349 74.6317 23.1974C73.854 22.2694 72.5287 23.6047 73.3031 24.526C76.7649 28.6553 80.0695 33.1684 81.8087 38.3224C82.7567 41.1296 83.401 44.5514 82.403 47.4455C81.8221 49.1346 80.2398 50.3394 78.7177 51.1439C74.5883 53.3272 69.1105 52.9734 66.34 48.8575C63.1088 44.0572 64.9546 38.279 67.6219 33.6958C68.9771 31.3724 70.586 29.206 72.3285 27.1597C73.0595 26.3018 74.2813 25.3672 74.7752 24.3324C75.2961 23.2475 73.6736 22.2928 73.1529 23.3844Z" fill="url(#paint3_linear_1323_49396)"/>
    <path d="M68.4822 40.5571C67.7045 43.1073 68.5255 45.9282 70.6053 47.617C71.5366 48.3715 72.875 47.0498 71.9339 46.2886C70.3416 45 69.6939 43.0307 70.2946 41.058C70.6487 39.8963 68.8326 39.3988 68.4822 40.5571Z" fill="url(#paint4_linear_1323_49396)"/>
    <path d="M41.1426 59.8302L44.3759 57.9972C46.3689 56.8673 48.8413 57.0199 50.6803 58.3861C52.3977 59.6618 54.6786 59.886 56.6113 58.9691L57.5217 58.5373C59.7759 57.4678 62.4151 57.5955 64.5557 58.8774L64.9874 59.1358C67.1902 60.4551 69.8753 60.6949 72.2772 59.7871L77.854 57.6788" stroke="url(#paint5_linear_1323_49396)" stroke-width="1.99601"/>
    <path d="M49.9551 58.3965L51.6408 75.4125" stroke="url(#paint6_linear_1323_49396)" stroke-width="1.99601" stroke-linecap="round" stroke-linejoin="round"/>
    <defs>
        <linearGradient id="paint0_linear_1323_49396" x1="-31.955" y1="59.8916" x2="147.433" y2="59.8916" gradientUnits="userSpaceOnUse">
            <stop stop-color="#DCC2EC"/>
            <stop offset="0.501875" stop-color="#93819E"/>
            <stop offset="0.830053" stop-color="#DCC3ED"/>
        </linearGradient>
        <linearGradient id="paint1_linear_1323_49396" x1="32.9124" y1="47.4228" x2="70.4591" y2="47.4228" gradientUnits="userSpaceOnUse">
            <stop stop-color="#DCC2EC"/>
            <stop offset="0.501875" stop-color="#93819E"/>
            <stop offset="0.830053" stop-color="#DCC3ED"/>
        </linearGradient>
        <linearGradient id="paint2_linear_1323_49396" x1="26.9411" y1="66.7355" x2="89.1953" y2="66.7355" gradientUnits="userSpaceOnUse">
            <stop stop-color="#DCC2EC"/>
            <stop offset="0.501875" stop-color="#93819E"/>
            <stop offset="0.830053" stop-color="#DCC3ED"/>
        </linearGradient>
        <linearGradient id="paint3_linear_1323_49396" x1="56.4041" y1="38.4595" x2="90.0566" y2="38.4595" gradientUnits="userSpaceOnUse">
            <stop stop-color="#DCC2EC"/>
            <stop offset="0.501875" stop-color="#93819E"/>
            <stop offset="0.830053" stop-color="#DCC3ED"/>
        </linearGradient>
        <linearGradient id="paint4_linear_1323_49396" x1="67.0209" y1="43.8315" x2="73.2338" y2="43.8315" gradientUnits="userSpaceOnUse">
            <stop stop-color="#DCC2EC"/>
            <stop offset="0.501875" stop-color="#93819E"/>
            <stop offset="0.830053" stop-color="#DCC3ED"/>
        </linearGradient>
        <linearGradient id="paint5_linear_1323_49396" x1="30.5444" y1="58.7722" x2="86.704" y2="58.7722" gradientUnits="userSpaceOnUse">
            <stop stop-color="#DCC2EC"/>
            <stop offset="0.501875" stop-color="#93819E"/>
            <stop offset="0.830053" stop-color="#DCC3ED"/>
        </linearGradient>
        <linearGradient id="paint6_linear_1323_49396" x1="49.4684" y1="66.8214" x2="52.0472" y2="66.8214" gradientUnits="userSpaceOnUse">
            <stop stop-color="#DCC2EC"/>
            <stop offset="0.501875" stop-color="#93819E"/>
            <stop offset="0.830053" stop-color="#DCC3ED"/>
        </linearGradient>
    </defs>
</svg>
