<svg width="127" height="127" viewBox="0 0 127 127" fill="none" xmlns="http://www.w3.org/2000/svg">
<path d="M63.0913 124.643C97.1242 124.643 124.714 97.0541 124.714 63.0209C124.714 28.9877 97.1242 1.39844 63.0913 1.39844C29.0581 1.39844 1.46875 28.9877 1.46875 63.0209C1.46875 97.0541 29.0581 124.643 63.0913 124.643Z" stroke="url(#paint0_linear_10334_34858)" stroke-width="1.31111" stroke-miterlimit="10"/>
<g clip-path="url(#clip0_10334_34858)">
<mask id="mask0_10334_34858" style="mask-type:luminance" maskUnits="userSpaceOnUse" x="18" y="37" width="86" height="52">
<path d="M19.4209 88.34V37.6553H103.091V88.34H19.4209Z" fill="white" stroke="white" stroke-width="1.02158"/>
</mask>
<g mask="url(#mask0_10334_34858)">
<mask id="path-3-inside-1_10334_34858" fill="white">
<path d="M34.7911 86.9387C32.5669 86.9466 30.3465 86.9506 28.1223 86.9584C27.8344 86.9584 27.519 86.9466 27.3099 86.7455C27.1206 86.5601 27.0812 86.2722 27.0575 86.0081C26.8643 84.119 26.7223 82.0288 27.8541 80.5183C28.3235 79.8913 28.982 79.4299 29.6722 79.071C32.421 77.6512 35.9231 77.8879 38.4707 79.6586C39.3816 80.2936 40.1861 81.1099 41.2036 81.5477C42.1778 81.9656 43.2662 81.9933 44.3232 82.009C48.3852 82.0682 52.4473 82.0012 56.5015 81.8118C57.0535 81.7843 57.6136 81.7567 58.138 81.5752C58.7533 81.3623 59.2778 80.9561 59.8339 80.6129C61.6559 79.4929 63.9669 79.0947 65.9585 79.8598C67.95 80.6248 69.4881 82.6677 69.3975 84.8289C69.3658 85.5742 69.1292 86.3433 68.581 86.8401C68.2221 87.1674 67.7608 87.3489 67.2993 87.4908C65.3787 88.0824 63.3359 88.0864 61.3286 88.0864C51.5559 88.0824 41.7834 88.0785 32.0069 88.0745"/>
</mask>
<path d="M34.7911 86.9387C32.5669 86.9466 30.3465 86.9506 28.1223 86.9584C27.8344 86.9584 27.519 86.9466 27.3099 86.7455C27.1206 86.5601 27.0812 86.2722 27.0575 86.0081C26.8643 84.119 26.7223 82.0288 27.8541 80.5183C28.3235 79.8913 28.982 79.4299 29.6722 79.071C32.421 77.6512 35.9231 77.8879 38.4707 79.6586C39.3816 80.2936 40.1861 81.1099 41.2036 81.5477C42.1778 81.9656 43.2662 81.9933 44.3232 82.009C48.3852 82.0682 52.4473 82.0012 56.5015 81.8118C57.0535 81.7843 57.6136 81.7567 58.138 81.5752C58.7533 81.3623 59.2778 80.9561 59.8339 80.6129C61.6559 79.4929 63.9669 79.0947 65.9585 79.8598C67.95 80.6248 69.4881 82.6677 69.3975 84.8289C69.3658 85.5742 69.1292 86.3433 68.581 86.8401C68.2221 87.1674 67.7608 87.3489 67.2993 87.4908C65.3787 88.0824 63.3359 88.0864 61.3286 88.0864C51.5559 88.0824 41.7834 88.0785 32.0069 88.0745" fill="#F1EDF3"/>
<path d="M28.1223 86.9584V87.98L28.1259 87.98L28.1223 86.9584ZM27.3099 86.7455L26.5952 87.4755L26.6017 87.4818L27.3099 86.7455ZM27.0575 86.0081L28.0751 85.9168L28.0738 85.9041L27.0575 86.0081ZM27.8541 80.5183L28.6717 81.1309L28.672 81.1305L27.8541 80.5183ZM29.6722 79.071L29.2034 78.1633L29.2009 78.1646L29.6722 79.071ZM38.4707 79.6586L39.0549 78.8205L39.0537 78.8197L38.4707 79.6586ZM41.2036 81.5477L40.7999 82.4861L40.8008 82.4865L41.2036 81.5477ZM44.3232 82.009L44.308 83.0305L44.3083 83.0305L44.3232 82.009ZM56.5015 81.8118L56.5491 82.8323L56.5524 82.8321L56.5015 81.8118ZM58.138 81.5752L57.8039 80.6098L57.8039 80.6098L58.138 81.5752ZM59.8339 80.6129L59.2989 79.7426L59.2974 79.7436L59.8339 80.6129ZM65.9585 79.8598L65.5921 80.8134L65.5922 80.8134L65.9585 79.8598ZM69.3975 84.8289L70.4181 84.8722L70.4182 84.8717L69.3975 84.8289ZM68.581 86.8401L67.895 86.0831L67.8926 86.0853L68.581 86.8401ZM67.2993 87.4908L66.9992 86.5143L66.9986 86.5145L67.2993 87.4908ZM61.3286 88.0864L61.3281 89.108H61.3286V88.0864ZM34.7875 85.9171C33.6759 85.9211 32.5652 85.924 31.454 85.927C30.3429 85.9299 29.2313 85.9329 28.1187 85.9368L28.1259 87.98C29.2375 87.9761 30.3482 87.9731 31.4594 87.9701C32.5705 87.9672 33.6821 87.9642 34.7947 87.9603L34.7875 85.9171ZM28.1223 85.9368C28.0552 85.9368 28.0054 85.936 27.9625 85.9335C27.92 85.9311 27.8967 85.9276 27.8862 85.9255C27.8648 85.9212 27.9371 85.9313 28.0181 86.0092L26.6017 87.4818C27.1517 88.0107 27.9054 87.98 28.1223 87.98V85.9368ZM28.0245 86.0155C28.0976 86.0869 28.1104 86.1487 28.1041 86.1267C28.1013 86.1168 28.0963 86.0957 28.0907 86.0582C28.0851 86.0204 28.0803 85.9759 28.075 85.9168L26.04 86.0993C26.0592 86.3139 26.0997 86.9904 26.5953 87.4755L28.0245 86.0155ZM28.0738 85.9041C27.9771 84.9592 27.904 84.0506 27.9767 83.2091C28.0487 82.3763 28.2585 81.6824 28.6717 81.1309L27.0366 79.9057C26.318 80.8648 26.0329 81.9712 25.9411 83.0333C25.8501 84.0869 25.9446 85.1679 26.0412 86.112L28.0738 85.9041ZM28.672 81.1305C29.0139 80.6737 29.5248 80.299 30.1435 79.9774L29.2009 78.1646C28.4391 78.5607 27.633 79.109 27.0363 79.9061L28.672 81.1305ZM30.141 79.9786C32.5512 78.7337 35.6487 78.9413 37.8876 80.4975L39.0537 78.8197C36.1974 76.8345 32.2907 76.5687 29.2034 78.1633L30.141 79.9786ZM37.8865 80.4967C38.3221 80.8003 38.676 81.1057 39.1766 81.4886C39.6394 81.8425 40.1744 82.217 40.7999 82.4861L41.6074 80.6093C41.2154 80.4406 40.8393 80.188 40.4178 79.8656C40.034 79.5721 39.5302 79.1518 39.0549 78.8205L37.8865 80.4967ZM40.8008 82.4865C41.9891 82.9963 43.2798 83.0152 44.308 83.0305L44.3383 80.9875C43.2527 80.9714 42.3665 80.9349 41.6064 80.6089L40.8008 82.4865ZM44.3083 83.0305C48.3914 83.09 52.4744 83.0226 56.5491 82.8323L56.4538 80.7913C52.4202 80.9797 48.3789 81.0464 44.3381 80.9875L44.3083 83.0305ZM56.5524 82.8321C57.0775 82.8059 57.7866 82.7779 58.4721 82.5406L57.8039 80.6098C57.4406 80.7355 57.0296 80.7626 56.4505 80.7915L56.5524 82.8321ZM58.472 82.5406C59.2294 82.2786 59.9409 81.7473 60.3704 81.4823L59.2974 79.7436C58.6147 80.1648 58.2772 80.446 57.8039 80.6098L58.472 82.5406ZM60.3688 81.4832C61.9785 80.4938 63.9565 80.185 65.5921 80.8134L66.3248 78.9061C63.9773 78.0043 61.3333 78.4921 59.2989 79.7426L60.3688 81.4832ZM65.5922 80.8134C67.2324 81.4435 68.4466 83.1221 68.3768 84.7861L70.4182 84.8717C70.5296 82.2132 68.6677 79.8061 66.3248 78.9061L65.5922 80.8134ZM68.3768 84.7855C68.3515 85.3807 68.1648 85.8386 67.895 86.0832L69.267 87.5971C70.0937 86.8479 70.3801 85.7676 70.4181 84.8722L68.3768 84.7855ZM67.8926 86.0853C67.7084 86.2533 67.4303 86.3818 66.9992 86.5143L67.5995 88.4673C68.0913 88.3161 68.7359 88.0816 69.2695 87.5949L67.8926 86.0853ZM66.9986 86.5145C65.2493 87.0533 63.3624 87.0648 61.3286 87.0648V89.108C63.3095 89.108 65.5082 89.1115 67.6001 88.4671L66.9986 86.5145ZM61.329 87.0648C51.5567 87.0608 41.7835 87.0569 32.0073 87.0529L32.0065 89.0961C41.7833 89.1001 51.5552 89.104 61.3281 89.108L61.329 87.0648Z" fill="url(#paint1_linear_10334_34858)" mask="url(#path-3-inside-1_10334_34858)"/>
<path d="M102.606 38.1435H85.7304C81.5343 38.0607 78.0718 39.7958 75.6463 43.0455C72.4165 47.3914 68.8158 53.461 67.1239 56.3714C66.5126 57.4244 65.3571 58.0712 64.0991 58.0712H60.3171C59.623 58.0712 58.9407 57.874 58.3649 57.5033C58.3649 57.5033 54.646 55.6497 51.1203 54.7623C49.3298 54.3127 44.0768 54.4745 44.0768 54.4745C36.4417 54.4745 30.25 59.1793 30.25 66.4161" stroke="url(#paint2_linear_10334_34858)" stroke-width="1.55549" stroke-miterlimit="10" stroke-linecap="round" stroke-linejoin="round"/>
<path d="M101.241 87.8511H86.1877C81.9916 87.9338 77.6733 87.1253 75.2479 83.8797C72.018 79.5337 65.3531 72.6874 64.095 72.6874H60.3129C59.6189 72.6874 58.9367 72.8846 58.3609 73.2553L55.4583 75.1404C54.3106 75.8818 52.946 76.2841 51.5579 76.2841H45.524H44.0845C36.4495 76.2841 30.2578 72.1352 30.2578 64.8984" stroke="url(#paint3_linear_10334_34858)" stroke-width="1.55549" stroke-miterlimit="10" stroke-linecap="round" stroke-linejoin="round"/>
<path d="M94.6562 45.4492C94.6562 45.4492 95.1689 47.2869 101.033 49.1366" stroke="url(#paint4_linear_10334_34858)" stroke-width="1.55549" stroke-miterlimit="10" stroke-linecap="round" stroke-linejoin="round"/>
<path d="M94.8867 82.6756C94.8867 82.6756 95.3994 80.8379 101.264 78.9883" stroke="url(#paint5_linear_10334_34858)" stroke-width="1.55549" stroke-miterlimit="10" stroke-linecap="round" stroke-linejoin="round"/>
<path d="M97.9119 65.5268H97.3006C96.8866 65.5268 96.5928 65.2099 96.5928 64.8821C96.5928 64.5542 96.8866 64.2374 97.3006 64.2374H97.9119C98.3261 64.2374 98.6198 64.5543 98.6198 64.8821C98.6198 65.2099 98.3261 65.5268 97.9119 65.5268Z" fill="#EAEDFF" stroke="url(#paint6_linear_10334_34858)" stroke-width="1.02158"/>
<path d="M67.1827 64.8821C67.1827 64.5542 67.4764 64.2374 67.8905 64.2374H69.109C69.5231 64.2374 69.8168 64.5542 69.8168 64.8821C69.8168 65.2099 69.5231 65.5268 69.109 65.5268H67.8905C67.4679 65.5268 67.1827 65.2131 67.1827 64.8821ZM74.5337 64.8821C74.5337 64.5542 74.8275 64.2374 75.2415 64.2374H76.4602C76.8742 64.2374 77.168 64.5542 77.168 64.8821C77.168 65.2099 76.8742 65.5268 76.4602 65.5268H75.2415C74.819 65.5268 74.5337 65.2131 74.5337 64.8821ZM81.8887 64.8821C81.8887 64.5543 82.1825 64.2374 82.5967 64.2374H83.8271C84.2411 64.2374 84.5349 64.5543 84.5349 64.8821C84.5349 65.2099 84.2411 65.5268 83.8271 65.5268H82.5967C82.1825 65.5268 81.8887 65.2099 81.8887 64.8821ZM89.2399 64.8821C89.2399 64.5543 89.5337 64.2374 89.9477 64.2374H91.1663C91.5805 64.2374 91.8742 64.5543 91.8742 64.8821C91.8742 65.2099 91.5804 65.5268 91.1663 65.5268H89.9477C89.5337 65.5268 89.2399 65.2099 89.2399 64.8821Z" fill="#EAEDFF" stroke="url(#paint7_linear_10334_34858)" stroke-width="1.02158"/>
<path d="M61.7557 65.5268H61.1444C60.7304 65.5268 60.4366 65.2099 60.4366 64.8821C60.4366 64.5542 60.7304 64.2374 61.1444 64.2374H61.7557C62.1697 64.2374 62.4635 64.5542 62.4635 64.8821C62.4635 65.2099 62.1697 65.5268 61.7557 65.5268Z" fill="#EAEDFF" stroke="url(#paint8_linear_10334_34858)" stroke-width="1.02158"/>
<g style="mix-blend-mode:multiply">
<path d="M97.9119 65.5268H97.3006C96.8866 65.5268 96.5928 65.2099 96.5928 64.8821C96.5928 64.5542 96.8866 64.2374 97.3006 64.2374H97.9119C98.3261 64.2374 98.6198 64.5543 98.6198 64.8821C98.6198 65.2099 98.3261 65.5268 97.9119 65.5268Z" fill="#EAEDFF" stroke="url(#paint9_linear_10334_34858)" stroke-width="1.02158"/>
<path d="M67.1788 64.8821C67.1788 64.5542 67.4725 64.2374 67.8866 64.2374H69.1051C69.5192 64.2374 69.8129 64.5542 69.8129 64.8821C69.8129 65.2099 69.5192 65.5268 69.1051 65.5268H67.8866C67.464 65.5268 67.1788 65.2131 67.1788 64.8821ZM74.5298 64.8821C74.5298 64.5542 74.8236 64.2374 75.2376 64.2374H76.4563C76.8703 64.2374 77.1641 64.5542 77.1641 64.8821C77.1641 65.2099 76.8703 65.5268 76.4563 65.5268H75.2376C74.8151 65.5268 74.5298 65.2131 74.5298 64.8821ZM81.8848 64.8821C81.8848 64.5543 82.1786 64.2374 82.5928 64.2374H83.8232C84.2372 64.2374 84.531 64.5543 84.531 64.8821C84.531 65.2099 84.2372 65.5268 83.8232 65.5268H82.5928C82.1786 65.5268 81.8848 65.2099 81.8848 64.8821ZM89.236 64.8821C89.236 64.5543 89.5298 64.2374 89.9438 64.2374H91.1624C91.5765 64.2374 91.8703 64.5543 91.8703 64.8821C91.8703 65.2099 91.5765 65.5268 91.1624 65.5268H89.9438C89.5298 65.5268 89.236 65.2099 89.236 64.8821Z" fill="#EAEDFF" stroke="url(#paint10_linear_10334_34858)" stroke-width="1.02158"/>
<path d="M61.7557 65.5268H61.1444C60.7304 65.5268 60.4366 65.2099 60.4366 64.8821C60.4366 64.5542 60.7304 64.2374 61.1444 64.2374H61.7557C62.1697 64.2374 62.4635 64.5542 62.4635 64.8821C62.4635 65.2099 62.1697 65.5268 61.7557 65.5268Z" fill="#EAEDFF" stroke="url(#paint11_linear_10334_34858)" stroke-width="1.02158"/>
</g>
<path d="M86.1886 87.8516H19.9062" stroke="url(#paint12_linear_10334_34858)" stroke-width="1.55549" stroke-miterlimit="10" stroke-linecap="round" stroke-linejoin="round"/>
<path d="M71.2407 87.8483C71.4893 84.2714 71.1737 78.3241 66.2125 74.8222C65.3607 74.2227 64.1736 74.0412 62.257 74.1005C59.804 74.1754 58.6997 74.3844 58.2344 74.7827" stroke="url(#paint13_linear_10334_34858)" stroke-width="1.52655" stroke-miterlimit="10" stroke-linecap="round" stroke-linejoin="round"/>
<path d="M35.1744 73.9108C31.0335 72.7276 27.4882 73.548 26.443 74.4944C22.6256 77.9491 22.9726 85.6 22.9607 87.0828" stroke="url(#paint14_linear_10334_34858)" stroke-width="1.52655" stroke-miterlimit="10" stroke-linecap="round" stroke-linejoin="round"/>
<path d="M37.3086 75.0218C40.8737 77.1475 39.7616 80.8348 42.5026 80.8348H54.3061C54.8858 80.8348 55.3591 80.4247 55.3709 79.916C55.3709 79.916 54.7162 77.9361 58.2302 74.7891" stroke="url(#paint15_linear_10334_34858)" stroke-width="1.52655" stroke-miterlimit="10" stroke-linecap="round" stroke-linejoin="round"/>
</g>
<path d="M62.9984 124.598C97.0191 124.598 124.598 97.0191 124.598 62.9984C124.598 28.9777 97.0191 1.39844 62.9984 1.39844C28.9777 1.39844 1.39844 28.9777 1.39844 62.9984C1.39844 97.0191 28.9777 124.598 62.9984 124.598Z" stroke="url(#paint16_linear_10334_34858)" stroke-width="1.11111" stroke-miterlimit="10"/>
</g>
<defs>
<linearGradient id="paint0_linear_10334_34858" x1="-34.1108" y1="62.419" x2="154.424" y2="62.419" gradientUnits="userSpaceOnUse">
<stop stop-color="#DCC2EC"/>
<stop offset="0.501875" stop-color="#93819E"/>
<stop offset="0.830053" stop-color="#DCC3ED"/>
</linearGradient>
<linearGradient id="paint1_linear_10334_34858" x1="14.6635" y1="83.0689" x2="79.6409" y2="83.0689" gradientUnits="userSpaceOnUse">
<stop stop-color="#DCC2EC"/>
<stop offset="0.501875" stop-color="#93819E"/>
<stop offset="0.830053" stop-color="#DCC3ED"/>
</linearGradient>
<linearGradient id="paint2_linear_10334_34858" x1="9.3616" y1="52.1403" x2="120.049" y2="52.1403" gradientUnits="userSpaceOnUse">
<stop stop-color="#DCC2EC"/>
<stop offset="0.501875" stop-color="#93819E"/>
<stop offset="0.830053" stop-color="#DCC3ED"/>
</linearGradient>
<linearGradient id="paint3_linear_10334_34858" x1="9.76565" y1="76.2655" x2="118.353" y2="76.2655" gradientUnits="userSpaceOnUse">
<stop stop-color="#DCC2EC"/>
<stop offset="0.501875" stop-color="#93819E"/>
<stop offset="0.830053" stop-color="#DCC3ED"/>
</linearGradient>
<linearGradient id="paint4_linear_10334_34858" x1="92.8153" y1="47.2749" x2="102.571" y2="47.2749" gradientUnits="userSpaceOnUse">
<stop stop-color="#DCC2EC"/>
<stop offset="0.501875" stop-color="#93819E"/>
<stop offset="0.830053" stop-color="#DCC3ED"/>
</linearGradient>
<linearGradient id="paint5_linear_10334_34858" x1="93.0457" y1="80.8139" x2="102.801" y2="80.8139" gradientUnits="userSpaceOnUse">
<stop stop-color="#DCC2EC"/>
<stop offset="0.501875" stop-color="#93819E"/>
<stop offset="0.830053" stop-color="#DCC3ED"/>
</linearGradient>
<linearGradient id="paint6_linear_10334_34858" x1="95.2019" y1="64.8708" x2="99.8656" y2="64.8708" gradientUnits="userSpaceOnUse">
<stop stop-color="#DCC2EC"/>
<stop offset="0.501875" stop-color="#93819E"/>
<stop offset="0.830053" stop-color="#DCC3ED"/>
</linearGradient>
<linearGradient id="paint7_linear_10334_34858" x1="59.2487" y1="64.8708" x2="98.5837" y2="64.8708" gradientUnits="userSpaceOnUse">
<stop stop-color="#DCC2EC"/>
<stop offset="0.501875" stop-color="#93819E"/>
<stop offset="0.830053" stop-color="#DCC3ED"/>
</linearGradient>
<linearGradient id="paint8_linear_10334_34858" x1="59.0457" y1="64.8708" x2="63.7091" y2="64.8708" gradientUnits="userSpaceOnUse">
<stop stop-color="#DCC2EC"/>
<stop offset="0.501875" stop-color="#93819E"/>
<stop offset="0.830053" stop-color="#DCC3ED"/>
</linearGradient>
<linearGradient id="paint9_linear_10334_34858" x1="95.2019" y1="64.8708" x2="99.8656" y2="64.8708" gradientUnits="userSpaceOnUse">
<stop stop-color="#DCC2EC"/>
<stop offset="0.501875" stop-color="#93819E"/>
<stop offset="0.830053" stop-color="#DCC3ED"/>
</linearGradient>
<linearGradient id="paint10_linear_10334_34858" x1="59.2448" y1="64.8708" x2="98.5798" y2="64.8708" gradientUnits="userSpaceOnUse">
<stop stop-color="#DCC2EC"/>
<stop offset="0.501875" stop-color="#93819E"/>
<stop offset="0.830053" stop-color="#DCC3ED"/>
</linearGradient>
<linearGradient id="paint11_linear_10334_34858" x1="59.0457" y1="64.8708" x2="63.7091" y2="64.8708" gradientUnits="userSpaceOnUse">
<stop stop-color="#DCC2EC"/>
<stop offset="0.501875" stop-color="#93819E"/>
<stop offset="0.830053" stop-color="#DCC3ED"/>
</linearGradient>
<linearGradient id="paint12_linear_10334_34858" x1="0.771174" y1="88.3467" x2="102.167" y2="88.3467" gradientUnits="userSpaceOnUse">
<stop stop-color="#DCC2EC"/>
<stop offset="0.501875" stop-color="#93819E"/>
<stop offset="0.830053" stop-color="#DCC3ED"/>
</linearGradient>
<linearGradient id="paint13_linear_10334_34858" x1="54.4622" y1="80.9019" x2="74.4508" y2="80.9019" gradientUnits="userSpaceOnUse">
<stop stop-color="#DCC2EC"/>
<stop offset="0.501875" stop-color="#93819E"/>
<stop offset="0.830053" stop-color="#DCC3ED"/>
</linearGradient>
<linearGradient id="paint14_linear_10334_34858" x1="19.43" y1="80.1363" x2="38.1197" y2="80.1363" gradientUnits="userSpaceOnUse">
<stop stop-color="#DCC2EC"/>
<stop offset="0.501875" stop-color="#93819E"/>
<stop offset="0.830053" stop-color="#DCC3ED"/>
</linearGradient>
<linearGradient id="paint15_linear_10334_34858" x1="31.2687" y1="77.7824" x2="63.2737" y2="77.7824" gradientUnits="userSpaceOnUse">
<stop stop-color="#DCC2EC"/>
<stop offset="0.501875" stop-color="#93819E"/>
<stop offset="0.830053" stop-color="#DCC3ED"/>
</linearGradient>
<linearGradient id="paint16_linear_10334_34858" x1="-34.1682" y1="62.3969" x2="154.298" y2="62.3969" gradientUnits="userSpaceOnUse">
<stop stop-color="#DCC2EC"/>
<stop offset="0.501875" stop-color="#93819E"/>
<stop offset="0.830053" stop-color="#DCC3ED"/>
</linearGradient>
<clipPath id="clip0_10334_34858">
<rect width="126" height="126" fill="white"/>
</clipPath>
</defs>
</svg>
