<svg width="121" height="121" viewBox="0 0 121 121" fill="none" xmlns="http://www.w3.org/2000/svg">
    <g clip-path="url(#clip0_1323_49080)">
        <path d="M59.6308 119.522C92.0126 119.522 118.264 93.2711 118.264 60.889C118.264 28.5072 92.0126 2.25635 59.6308 2.25635C27.2488 2.25635 0.998047 28.5072 0.998047 60.889C0.998047 93.2711 27.2488 119.522 59.6308 119.522Z" stroke="url(#paint0_linear_1323_49080)" stroke-width="1.51597" stroke-miterlimit="10"/>
        <path d="M37.4789 53.4313C37.3476 57.3161 37.7004 61.1472 38.5249 64.9417C38.7423 65.9467 40.2887 65.5201 40.0674 64.5151C39.2714 60.8519 38.9474 57.1726 39.0786 53.4313C39.1155 52.4018 37.5117 52.4018 37.4789 53.4313Z" fill="url(#paint1_linear_1323_49080)"/>
        <path d="M41.4877 72.4219C44.835 75.597 48.3258 78.8622 52.6534 80.6385C54.6716 81.467 56.932 82.1029 59.0937 81.4794C61.1366 80.8844 63.1179 79.5965 64.8611 78.4028C68.5243 75.8964 71.6829 72.586 73.492 68.4921C75.4855 63.9882 75.7768 58.992 76.0475 54.1431C76.1049 53.1137 74.5052 53.1177 74.4477 54.1431C74.2099 58.4258 73.9883 62.8437 72.4254 66.8883C70.8829 70.8837 68.0321 74.157 64.5823 76.643C63.1095 77.7012 61.5263 78.6734 59.8812 79.4325C57.4283 80.5685 55.0245 79.9779 52.6575 78.8991C48.8017 77.1393 45.6594 74.1654 42.6199 71.2816C41.8733 70.5843 40.7411 71.7122 41.4877 72.4219Z" fill="url(#paint2_linear_1323_49080)"/>
        <path d="M53.7842 63.0641C55.1011 63.8847 56.7624 63.8887 58.0831 63.0806C58.961 62.5431 58.1571 61.1568 57.275 61.6981C56.4177 62.2231 55.4414 62.2152 54.5923 61.6818C53.7186 61.1362 52.9104 62.5187 53.7842 63.0641Z" fill="url(#paint3_linear_1323_49080)"/>
        <path d="M49.0191 69.422C53.5642 71.2064 58.4414 71.3418 62.8718 69.1554C63.7947 68.7001 62.9865 67.3176 62.0636 67.7729C58.0107 69.7748 53.5681 69.4958 49.4457 67.8797C48.4859 67.5022 48.0715 69.0486 49.0191 69.422Z" fill="url(#paint4_linear_1323_49080)"/>
        <path d="M67.7043 74.5666C67.3022 77.8811 66.9125 81.2366 67.335 84.5717C67.7084 87.525 68.9388 89.9535 70.1817 92.6114C70.6166 93.5427 71.9989 92.7305 71.5642 91.8035C70.2107 88.9116 68.9963 86.3559 68.7953 83.1072C68.6188 80.2522 68.9594 77.3971 69.3041 74.5666C69.4269 73.5453 67.8272 73.5535 67.7043 74.5666Z" fill="url(#paint5_linear_1323_49080)"/>
        <path d="M43.9378 74.8649C44.1059 76.6572 43.9994 78.4131 43.5934 80.1645C43.3594 81.1655 44.9059 81.5961 45.1356 80.5911C45.5747 78.7001 45.7182 76.7968 45.5376 74.8649C45.4432 73.8474 43.8434 73.8352 43.9378 74.8649Z" fill="url(#paint6_linear_1323_49080)"/>
        <path d="M62.5423 54.6561C64.3514 52.2932 67.3952 53.167 69.5157 54.5658C70.3772 55.1361 71.1813 53.7495 70.3238 53.1835C67.3418 51.2144 63.5229 50.7591 61.16 53.8479C60.5325 54.6642 61.9229 55.4642 62.5423 54.6561Z" fill="url(#paint7_linear_1323_49080)"/>
        <path d="M60.9528 50.0318C63.2376 48.4033 66.2321 47.6486 68.5619 49.6381C69.3415 50.3025 70.4776 49.1787 69.6943 48.5058C66.8227 46.0529 63.0735 46.5576 60.1446 48.6496C59.3118 49.2443 60.1118 50.6347 60.9528 50.0318Z" fill="url(#paint8_linear_1323_49080)"/>
        <path d="M63.5736 53.0417C63.5367 53.5668 63.4833 54.0959 63.5161 54.625C63.6064 56.0444 64.558 56.1715 64.8208 56.225C65.0833 56.2822 65.3786 56.2453 65.5836 56.0772C65.6739 56.0034 65.7436 55.9131 65.8052 55.8187C66.4327 54.904 66.6747 53.7349 66.4656 52.6479" fill="url(#paint9_linear_1323_49080)"/>
        <path d="M63.1739 53.0405C63.0754 54.4269 62.9688 56.2647 64.6917 56.6051C66.7058 57.0029 67.079 53.8896 66.8577 52.5399C66.7755 52.0314 66.0043 52.2486 66.0864 52.7533C66.2134 53.5449 66.0412 56.1991 64.7082 55.7888C63.6045 55.4482 63.9123 53.914 63.9739 53.0405C64.0107 52.5277 63.211 52.5318 63.1739 53.0405Z" fill="url(#paint10_linear_1323_49080)"/>
        <path d="M50.9368 53.5379C48.5739 50.4531 44.7588 50.9043 41.7727 52.8732C40.9152 53.4394 41.7193 54.826 42.5808 54.2557C44.6975 52.8569 47.7411 51.9791 49.5542 54.346C50.1696 55.1542 51.5602 54.3582 50.9368 53.5379Z" fill="url(#paint11_linear_1323_49080)"/>
        <path d="M51.9444 48.3469C49.0156 46.259 45.2663 45.7502 42.3947 48.2032C41.6113 48.8717 42.7475 49.9998 43.5269 49.3354C45.8529 47.35 48.8515 48.1006 51.1363 49.7292C51.9772 50.3282 52.777 48.9416 51.9444 48.3469Z" fill="url(#paint12_linear_1323_49080)"/>
        <path d="M48.5202 52.737C48.5571 53.2623 48.6105 53.7914 48.5777 54.3205C48.4874 55.7399 47.5358 55.8671 47.2733 55.9203C47.0105 55.9778 46.7154 55.9409 46.5101 55.7727C46.4198 55.699 46.3501 55.6084 46.2886 55.5143C45.661 54.5993 45.4191 53.4304 45.6282 52.3433" fill="url(#paint13_linear_1323_49080)"/>
        <path d="M48.115 52.7357C48.1764 53.6094 48.4841 55.1436 47.3807 55.4842C46.0516 55.8945 45.8753 53.2403 46.0025 52.4487C46.0844 51.9441 45.3131 51.7266 45.2312 52.2353C45.0097 53.5891 45.3828 56.6983 47.397 56.3005C49.1198 55.9601 49.0132 54.1223 48.9148 52.7357C48.8779 52.2229 48.0779 52.2188 48.115 52.7357Z" fill="url(#paint14_linear_1323_49080)"/>
        <path d="M75.9473 52.6084C79.8196 54.04 79.1018 63.4541 74.4666 62.7569C73.4575 62.605 73.0225 64.1476 74.04 64.2992C80.8369 65.3164 82.2359 53.2319 76.3741 51.0618C75.4019 50.7052 74.9875 52.2515 75.9473 52.6084Z" fill="url(#paint15_linear_1323_49080)"/>
        <path d="M75.7712 58.9904C76.0009 57.9689 76.5752 57.1157 77.4612 56.5579C78.3309 56.0122 77.5269 54.6257 76.6533 55.1754C75.4267 55.9466 74.5448 57.1445 74.2248 58.5636C74.0033 59.5687 75.5455 59.9955 75.7712 58.9904Z" fill="url(#paint16_linear_1323_49080)"/>
        <path d="M36.8675 64.8339C37.5894 65.0677 38.3319 65.0552 39.0742 64.9117C39.501 64.8298 39.7429 64.3211 39.632 63.9273C39.5091 63.4842 39.0742 63.2873 38.6478 63.3695C38.1841 63.4595 37.7412 63.4351 37.294 63.2914C36.3096 62.9714 35.8871 64.518 36.8675 64.8339Z" fill="url(#paint17_linear_1323_49080)"/>
        <path d="M36.7446 51.6775C32.4007 53.2487 32.5401 58.6058 34.0948 62.15C34.5089 63.0894 35.8874 62.2772 35.4771 61.3419C34.3736 58.8274 33.9183 54.3931 37.1671 53.22C38.1312 52.8712 37.7169 51.3246 36.7446 51.6775Z" fill="url(#paint18_linear_1323_49080)"/>
        <path d="M38.884 59.1811C38.564 57.7617 37.6862 56.5641 36.4558 55.7928C35.582 55.2431 34.7779 56.6254 35.6476 57.1751C36.5377 57.7329 37.108 58.5904 37.3377 59.6077C37.5674 60.6086 39.1097 60.1861 38.884 59.1811Z" fill="url(#paint19_linear_1323_49080)"/>
        <path d="M25.7423 74.5916C24.6431 71.2568 24.0072 67.8273 23.3796 64.3775C23.1212 64.714 22.8668 65.0544 22.6083 65.3907C25.7135 65.1938 26.817 70.703 27.4448 72.9384C28.0149 74.9566 29.7255 77.2048 31.1531 78.7142C31.8625 79.4649 32.9907 78.3327 32.285 77.582C31.1325 76.3595 30.0168 74.6491 29.2168 73.16C28.9995 72.7499 29.184 73.1887 29.0077 72.6062C28.8108 71.9581 28.6711 71.2936 28.4702 70.6455C27.6458 68.0079 26.0501 63.5737 22.6042 63.7909C22.0546 63.8278 21.7346 64.2709 21.8332 64.8041C22.4608 68.2539 23.0965 71.6831 24.1959 75.0182C24.52 75.9904 26.0664 75.572 25.7423 74.5916Z" fill="url(#paint20_linear_1323_49080)"/>
        <path d="M31.0386 75.646C30.9567 74.075 31.0346 72.4875 31.0633 70.9164C31.0674 70.6209 31.0758 70.3215 31.0798 70.0261C31.088 69.5627 31.1002 69.8252 31.0058 70.0386C31.1495 69.7021 31.4327 69.3658 31.6252 69.0621C32.4827 67.7167 33.344 66.3713 34.2178 65.034C34.6197 64.4228 35.67 62.4865 36.035 62.3143C35.711 62.2733 35.3869 62.2324 35.0669 62.1871C36.7364 63.5368 35.4729 67.0439 34.6897 68.5823C34.2219 69.497 35.6044 70.3093 36.0719 69.3905C37.1836 67.2122 38.5907 62.9871 36.1991 61.0549C35.8997 60.813 35.5797 60.7639 35.231 60.9279C34.4231 61.3133 33.7174 62.8927 33.2578 63.5859C32.2652 65.0913 31.293 66.6091 30.321 68.131C28.9426 70.297 29.3036 73.1272 29.4389 75.646C29.4923 76.6673 31.0961 76.6755 31.0386 75.646Z" fill="url(#paint21_linear_1323_49080)"/>
        <path d="M34.9552 76.6431C34.783 75.0845 34.8689 73.501 34.9674 71.9422C35.0002 71.409 35.0986 70.8591 35.0905 70.3259C35.0864 69.9731 34.783 70.7566 34.9633 70.6378C35.0905 70.5556 35.1849 70.4244 35.3121 70.3381C37.3794 68.9518 39.3688 66.9295 41.1164 65.1573C40.6979 65.1041 40.2795 65.0507 39.8613 64.9975C40.2385 65.5757 40.5135 66.3592 40.1976 67.0567C39.7791 67.9877 41.1573 68.804 41.5798 67.8646C42.1336 66.6342 41.982 65.3298 41.2436 64.1935C40.9645 63.7669 40.3616 63.6519 39.9882 64.0335C39.016 65.0179 37.9619 65.9245 36.92 66.8351C35.9846 67.6555 34.6474 68.4759 33.8845 69.4646C33.4333 70.0512 33.462 70.5803 33.4045 71.331C33.2773 73.0948 33.1545 74.8874 33.3511 76.6474C33.4661 77.6565 35.0699 77.6646 34.9552 76.6431Z" fill="url(#paint22_linear_1323_49080)"/>
        <path d="M38.8658 77.5769C38.6895 76.3996 38.7183 75.1649 38.6854 73.9795C38.6689 73.442 38.7223 72.8679 38.6442 72.3345C38.5377 71.592 38.6361 71.9695 38.4845 72.1992C39.5714 70.591 41.1753 68.2693 42.8284 67.2274C42.4347 67.0674 42.045 66.9074 41.651 66.7474C42.049 68.5278 41.5156 70.2672 40.7527 71.871C40.4737 72.4576 40.1827 72.872 40.1621 73.5117C40.1252 74.7752 40.3918 76.6784 41.1015 77.7369C42.2541 79.4516 43.9401 80.9489 45.3676 82.4255C46.6842 83.7833 48.0011 85.2641 49.5393 86.38C50.376 86.9869 51.176 85.5965 50.3475 84.9975C48.8665 83.9227 47.599 82.4339 46.3317 81.1211C45.1092 79.8576 43.0869 78.2906 42.291 76.6827C42.0244 76.1453 42.0244 75.329 41.9341 74.718C41.8725 74.2952 41.725 73.7908 41.7413 73.3601C41.7084 73.0688 41.7003 73.1139 41.7127 73.4954C41.7987 73.3354 41.8809 73.1714 41.9669 73.0114C43.2344 71.1776 43.6692 68.4459 43.1935 66.3208C43.0826 65.8245 42.4387 65.5783 42.0162 65.8411C40.9537 66.5055 40.1415 67.6293 39.3499 68.5771C38.7058 69.3481 37.7048 70.2547 37.262 71.1735C36.8763 71.9654 37.0486 72.8801 37.0732 73.762C37.1101 75.169 37.106 76.6047 37.3192 77.9994C37.4754 79.0166 39.0177 78.586 38.8658 77.5769Z" fill="url(#paint23_linear_1323_49080)"/>
        <path d="M25.1183 77.156C27.9569 82.0743 32.617 86.7344 37.1332 90.098C38.2407 90.9225 39.6232 92.03 40.9892 92.3869C41.7071 92.5756 41.3626 92.2597 41.5964 92.875C41.7849 93.3632 41.8546 93.9253 41.9696 94.4338C42.6627 97.5392 42.2992 95.7229 42.7051 98.8774C42.8323 99.8865 44.4362 99.8988 44.3049 98.8774C43.9071 95.772 44.3037 97.654 43.6433 94.5979C43.4587 93.7447 43.3808 92.5182 42.9171 91.7553C42.3756 90.8693 40.9811 90.6722 40.0992 90.1596C36.875 88.293 34.1387 85.5488 31.6407 82.8209C29.8069 80.8233 27.8709 78.7107 26.5049 76.3481C25.988 75.4537 24.6017 76.2619 25.1183 77.156Z" fill="url(#paint24_linear_1323_49080)"/>
        <path d="M47.6745 84.8655C49.582 86.6662 50.0905 88.4179 51.0012 90.7108C52.519 94.5256 52.2103 93.7194 53.5638 97.6042C53.9001 98.5723 55.4467 98.1539 55.1061 97.1776C53.6992 93.1328 53.8481 93.808 52.3466 89.8085C51.4362 87.3882 50.7674 85.5791 48.8026 83.729C48.056 83.0277 46.9238 84.1558 47.6745 84.8655Z" fill="url(#paint25_linear_1323_49080)"/>
        <path d="M74.7086 50.8913C74.4789 42.3219 69.2119 32.4771 59.3177 33.4125C58.3005 33.5066 58.2924 35.1107 59.3177 35.0122C68.3137 34.1631 72.8998 43.1382 73.1089 50.8913C73.1336 51.9167 74.7374 51.9207 74.7086 50.8913Z" fill="url(#paint26_linear_1323_49080)"/>
        <path d="M56.0604 25.0301C56.4049 27.9425 56.5402 30.855 56.4624 33.788C56.4336 34.8174 58.0375 34.8174 58.0621 33.788C58.14 30.855 58.0087 27.9425 57.66 25.0301C57.5412 24.0169 55.9373 24.0086 56.0604 25.0301Z" fill="url(#paint27_linear_1323_49080)"/>
        <path d="M77.9491 52.5634C85.0947 39.08 75.3362 19.1358 59.2684 19.8045C58.2427 19.8455 58.2346 21.4493 59.2684 21.4043C66.8243 21.0884 73.0061 25.4899 76.214 32.1885C79.0732 38.1529 79.7376 45.7787 76.5709 51.7552C76.0827 52.6618 77.465 53.474 77.9491 52.5634Z" fill="url(#paint28_linear_1323_49080)"/>
        <path d="M56.9422 19.4856C52.8605 17.6233 47.4008 19.3749 43.672 21.2823C37.5599 24.408 33.1707 30.1016 31.7637 36.829C30.6193 42.3011 31.3165 47.9373 32.7728 53.2741C33.0437 54.2669 34.5901 53.8444 34.3151 52.8475C32.1822 45.0331 31.8375 36.2712 36.6739 29.355C39.8078 24.8717 44.8164 21.7376 50.1654 20.6834C52.0198 20.3183 54.3496 20.0516 56.1381 20.8639C57.0653 21.2905 57.8772 19.9122 56.9422 19.4856Z" fill="url(#paint29_linear_1323_49080)"/>
        <path d="M45.6494 29.5773C40.5833 33.3923 36.9037 38.5281 34.9593 44.5662C34.6434 45.5509 36.19 45.9691 36.5018 44.9928C38.3066 39.3854 41.7483 34.504 46.4575 30.9598C47.2738 30.3485 46.4738 28.9581 45.6494 29.5773Z" fill="url(#paint30_linear_1323_49080)"/>
        <path d="M54.8911 32.8302C45.1692 33.0024 39.6478 41.7358 36.1448 49.6855C35.7345 50.6209 37.1127 51.4371 37.527 50.4937C40.7759 43.1181 45.7804 34.59 54.8911 34.43C55.9165 34.4134 55.9206 32.8137 54.8911 32.8302Z" fill="url(#paint31_linear_1323_49080)"/>
        <path d="M93.7216 94.311C94.8661 87.3867 90.8665 80.4955 86.9245 75.1259C84.8816 72.3446 82.6256 69.707 80.1521 67.2991C78.6917 65.8756 77.0673 64.2226 75.1928 63.3364C74.2656 62.8976 73.4534 64.2799 74.3846 64.7189C76.091 65.5271 77.5432 66.9996 78.8804 68.2957C81.1899 70.5273 83.3188 72.9599 85.2426 75.5319C89.0043 80.5527 93.2622 87.3048 92.175 93.8844C92.011 94.8895 93.5532 95.3242 93.7216 94.311Z" fill="url(#paint32_linear_1323_49080)"/>
        <path d="M88.4885 88.2321C84.2468 84.7207 80.8873 80.4215 78.5041 75.4623C78.0569 74.5353 76.6787 75.3435 77.1218 76.2704C79.5582 81.3446 83.0246 85.7748 87.3563 89.3641C88.1438 90.0163 89.2842 88.8924 88.4885 88.2321Z" fill="url(#paint33_linear_1323_49080)"/>
        <path d="M82.3352 88.1884C79.7633 88.0981 76.7851 86.9906 75.0049 85.1283C73.438 83.4914 72.4617 81.3791 71.5139 79.3484C71.0751 78.4172 69.6967 79.2296 70.1317 80.1566C71.3048 82.6589 72.5683 85.2677 74.7424 87.0646C76.7482 88.7259 79.7551 89.6979 82.3352 89.7882C83.3649 89.8251 83.3649 88.2253 82.3352 88.1884Z" fill="url(#paint34_linear_1323_49080)"/>
        <path d="M76.5597 51.5632C77.126 45.9805 77.8026 39.1709 74.7835 34.1379C74.2544 33.2559 72.868 34.0598 73.4012 34.946C76.2438 39.6837 75.4891 46.3003 74.96 51.5632C74.8575 52.5889 76.4572 52.5805 76.5597 51.5632Z" fill="url(#paint35_linear_1323_49080)"/>
        <path opacity="0.23" d="M77.9835 35.9173C77.528 33.497 76.9373 31.0153 75.4607 28.9971C74.0782 27.102 72.1874 25.576 70.1771 24.3824C65.6731 21.6996 60.5989 21.2032 55.459 21.2156C50.8772 21.2278 45.893 21.6914 42.0453 24.4356C37.8858 27.3973 35.8473 32.1762 34.391 36.9058C33.0988 41.1063 31.1052 47.3659 34.8298 50.7995C35.2113 52.2967 37.7752 52.1408 37.8449 50.3401C38.0336 45.3889 40.4456 40.8438 44.4041 37.8699C46.3198 36.4299 49.0559 34.1573 51.5579 34.256C53.2111 34.3216 55.1146 34.0345 56.9481 33.8663C56.6937 31.0934 56.2262 28.3367 56.1318 25.5473C56.0662 23.5742 59.1263 23.5825 59.196 25.5473C59.2904 28.308 59.7498 31.0359 60.0082 33.7842C62.2767 33.977 64.139 35.5192 66.2228 36.6474C68.4461 37.8493 69.8039 40.5607 70.8295 42.7676C71.9493 45.1796 72.4168 47.7025 73.2497 50.2007C73.8856 52.1164 76.1416 53.0515 77.3641 51.0333C78.6111 48.9741 78.7792 46.238 78.7668 43.8958C78.7546 41.217 78.4758 38.5425 77.9835 35.9173Z" fill="url(#paint36_linear_1323_49080)"/>
        <path opacity="0.23" d="M78.34 91.7127C75.3046 92.1929 72.2486 90.2935 70.6284 87.6804C69.0078 85.0677 68.5896 81.8842 68.5978 78.8078C68.6018 76.8511 68.7865 74.8248 69.7341 73.1141C70.9195 70.9687 73.2905 69.2502 73.2332 66.797C73.5939 66.5714 74.0577 66.8176 74.4105 67.0595C76.6909 68.6265 78.9391 70.2344 81.1583 71.8878C82.3355 72.7656 83.5087 73.6598 84.5259 74.718C87.5163 77.8274 88.9192 82.1017 90.0802 86.2571C90.4617 87.6191 90.8268 89.0179 90.7077 90.4289C90.5887 91.8401 89.8955 93.2799 88.6323 93.9196C87.3317 94.5802 85.7688 94.2643 84.3496 93.9196C80.3008 92.9352 76.289 91.8195 72.3142 90.5767" fill="url(#paint37_linear_1323_49080)"/>
        <path opacity="0.23" d="M54.8397 73.7528C53.1171 73.2156 51.6114 71.8208 50.8033 69.9995C50.6023 69.5442 50.4383 69.0357 50.5245 68.5351C50.6311 67.9116 51.1029 67.4522 51.587 67.1363C53.1293 66.115 54.9916 65.9919 56.776 65.914C57.2682 65.8934 57.7645 65.8728 58.2445 65.9878C59.073 66.1887 59.7827 66.7713 60.4677 67.3375C60.6933 67.526 60.9314 67.7272 61.0584 68.0141C61.1405 68.1988 61.1693 68.4079 61.1939 68.6132C61.2718 69.3104 61.2799 70.057 60.9928 70.6805C60.6565 71.423 59.9755 71.862 59.3317 72.2639C58.7942 72.5962 58.2486 72.9325 57.6538 73.0802C57.3338 73.1581 57.0057 73.1787 56.6816 73.1909C55.3894 73.2402 54.0893 73.1377 52.8136 72.8915" fill="url(#paint38_linear_1323_49080)"/>
    </g>
    <defs>
        <linearGradient id="paint0_linear_1323_49080" x1="-32.8554" y1="60.3165" x2="146.533" y2="60.3165" gradientUnits="userSpaceOnUse">
            <stop stop-color="#DCC2EC"/>
            <stop offset="0.501875" stop-color="#93819E"/>
            <stop offset="0.830053" stop-color="#DCC3ED"/>
        </linearGradient>
        <linearGradient id="paint1_linear_1323_49080" x1="36.6909" y1="59.0244" x2="40.7247" y2="59.0244" gradientUnits="userSpaceOnUse">
            <stop stop-color="#DCC2EC"/>
            <stop offset="0.501875" stop-color="#93819E"/>
            <stop offset="0.830053" stop-color="#DCC3ED"/>
        </linearGradient>
        <linearGradient id="paint2_linear_1323_49080" x1="31.1951" y1="67.413" x2="84.4397" y2="67.413" gradientUnits="userSpaceOnUse">
            <stop stop-color="#DCC2EC"/>
            <stop offset="0.501875" stop-color="#93819E"/>
            <stop offset="0.830053" stop-color="#DCC3ED"/>
        </linearGradient>
        <linearGradient id="paint3_linear_1323_49080" x1="51.9491" y1="62.6095" x2="59.681" y2="62.6095" gradientUnits="userSpaceOnUse">
            <stop stop-color="#DCC2EC"/>
            <stop offset="0.501875" stop-color="#93819E"/>
            <stop offset="0.830053" stop-color="#DCC3ED"/>
        </linearGradient>
        <linearGradient id="paint4_linear_1323_49080" x1="44.212" y1="69.215" x2="66.846" y2="69.215" gradientUnits="userSpaceOnUse">
            <stop stop-color="#DCC2EC"/>
            <stop offset="0.501875" stop-color="#93819E"/>
            <stop offset="0.830053" stop-color="#DCC3ED"/>
        </linearGradient>
        <linearGradient id="paint5_linear_1323_49080" x1="65.8546" y1="83.3197" x2="72.7314" y2="83.3197" gradientUnits="userSpaceOnUse">
            <stop stop-color="#DCC2EC"/>
            <stop offset="0.501875" stop-color="#93819E"/>
            <stop offset="0.830053" stop-color="#DCC3ED"/>
        </linearGradient>
        <linearGradient id="paint6_linear_1323_49080" x1="42.9792" y1="77.5958" x2="46.1065" y2="77.5958" gradientUnits="userSpaceOnUse">
            <stop stop-color="#DCC2EC"/>
            <stop offset="0.501875" stop-color="#93819E"/>
            <stop offset="0.830053" stop-color="#DCC3ED"/>
        </linearGradient>
        <linearGradient id="paint7_linear_1323_49080" x1="58.2038" y1="53.2888" x2="73.0261" y2="53.2888" gradientUnits="userSpaceOnUse">
            <stop stop-color="#DCC2EC"/>
            <stop offset="0.501875" stop-color="#93819E"/>
            <stop offset="0.830053" stop-color="#DCC3ED"/>
        </linearGradient>
        <linearGradient id="paint8_linear_1323_49080" x1="56.8584" y1="48.5063" x2="72.4086" y2="48.5063" gradientUnits="userSpaceOnUse">
            <stop stop-color="#DCC2EC"/>
            <stop offset="0.501875" stop-color="#93819E"/>
            <stop offset="0.830053" stop-color="#DCC3ED"/>
        </linearGradient>
        <linearGradient id="paint9_linear_1323_49080" x1="62.6302" y1="54.4314" x2="67.2703" y2="54.4314" gradientUnits="userSpaceOnUse">
            <stop stop-color="#DCC2EC"/>
            <stop offset="0.501875" stop-color="#93819E"/>
            <stop offset="0.830053" stop-color="#DCC3ED"/>
        </linearGradient>
        <linearGradient id="paint10_linear_1323_49080" x1="62.0337" y1="54.4235" x2="67.8269" y2="54.4235" gradientUnits="userSpaceOnUse">
            <stop stop-color="#DCC2EC"/>
            <stop offset="0.501875" stop-color="#93819E"/>
            <stop offset="0.830053" stop-color="#DCC3ED"/>
        </linearGradient>
        <linearGradient id="paint11_linear_1323_49080" x1="38.6095" y1="52.9798" x2="53.4294" y2="52.9798" gradientUnits="userSpaceOnUse">
            <stop stop-color="#DCC2EC"/>
            <stop offset="0.501875" stop-color="#93819E"/>
            <stop offset="0.830053" stop-color="#DCC3ED"/>
        </linearGradient>
        <linearGradient id="paint12_linear_1323_49080" x1="39.1963" y1="48.2036" x2="54.7465" y2="48.2036" gradientUnits="userSpaceOnUse">
            <stop stop-color="#DCC2EC"/>
            <stop offset="0.501875" stop-color="#93819E"/>
            <stop offset="0.830053" stop-color="#DCC3ED"/>
        </linearGradient>
        <linearGradient id="paint13_linear_1323_49080" x1="44.679" y1="54.1268" x2="49.3191" y2="54.1268" gradientUnits="userSpaceOnUse">
            <stop stop-color="#DCC2EC"/>
            <stop offset="0.501875" stop-color="#93819E"/>
            <stop offset="0.830053" stop-color="#DCC3ED"/>
        </linearGradient>
        <linearGradient id="paint14_linear_1323_49080" x1="44.0816" y1="54.1189" x2="49.8746" y2="54.1189" gradientUnits="userSpaceOnUse">
            <stop stop-color="#DCC2EC"/>
            <stop offset="0.501875" stop-color="#93819E"/>
            <stop offset="0.830053" stop-color="#DCC3ED"/>
        </linearGradient>
        <linearGradient id="paint15_linear_1323_49080" x1="71.5556" y1="57.6191" x2="81.6468" y2="57.6191" gradientUnits="userSpaceOnUse">
            <stop stop-color="#DCC2EC"/>
            <stop offset="0.501875" stop-color="#93819E"/>
            <stop offset="0.830053" stop-color="#DCC3ED"/>
        </linearGradient>
        <linearGradient id="paint16_linear_1323_49080" x1="73.1545" y1="57.2843" x2="78.7111" y2="57.2843" gradientUnits="userSpaceOnUse">
            <stop stop-color="#DCC2EC"/>
            <stop offset="0.501875" stop-color="#93819E"/>
            <stop offset="0.830053" stop-color="#DCC3ED"/>
        </linearGradient>
        <linearGradient id="paint17_linear_1323_49080" x1="35.3439" y1="64.1231" x2="40.466" y2="64.1231" gradientUnits="userSpaceOnUse">
            <stop stop-color="#DCC2EC"/>
            <stop offset="0.501875" stop-color="#93819E"/>
            <stop offset="0.830053" stop-color="#DCC3ED"/>
        </linearGradient>
        <linearGradient id="paint18_linear_1323_49080" x1="31.7722" y1="57.0429" x2="38.8266" y2="57.0429" gradientUnits="userSpaceOnUse">
            <stop stop-color="#DCC2EC"/>
            <stop offset="0.501875" stop-color="#93819E"/>
            <stop offset="0.830053" stop-color="#DCC3ED"/>
        </linearGradient>
        <linearGradient id="paint19_linear_1323_49080" x1="34.2246" y1="57.9007" x2="39.7823" y2="57.9007" gradientUnits="userSpaceOnUse">
            <stop stop-color="#DCC2EC"/>
            <stop offset="0.501875" stop-color="#93819E"/>
            <stop offset="0.830053" stop-color="#DCC3ED"/>
        </linearGradient>
        <linearGradient id="paint20_linear_1323_49080" x1="18.7284" y1="71.298" x2="35.0863" y2="71.298" gradientUnits="userSpaceOnUse">
            <stop stop-color="#DCC2EC"/>
            <stop offset="0.501875" stop-color="#93819E"/>
            <stop offset="0.830053" stop-color="#DCC3ED"/>
        </linearGradient>
        <linearGradient id="paint21_linear_1323_49080" x1="26.9227" y1="68.5475" x2="39.4878" y2="68.5475" gradientUnits="userSpaceOnUse">
            <stop stop-color="#DCC2EC"/>
            <stop offset="0.501875" stop-color="#93819E"/>
            <stop offset="0.830053" stop-color="#DCC3ED"/>
        </linearGradient>
        <linearGradient id="paint22_linear_1323_49080" x1="30.7464" y1="70.5378" x2="44.0024" y2="70.5378" gradientUnits="userSpaceOnUse">
            <stop stop-color="#DCC2EC"/>
            <stop offset="0.501875" stop-color="#93819E"/>
            <stop offset="0.830053" stop-color="#DCC3ED"/>
        </linearGradient>
        <linearGradient id="paint23_linear_1323_49080" x1="33.0636" y1="76.0307" x2="53.995" y2="76.0307" gradientUnits="userSpaceOnUse">
            <stop stop-color="#DCC2EC"/>
            <stop offset="0.501875" stop-color="#93819E"/>
            <stop offset="0.830053" stop-color="#DCC3ED"/>
        </linearGradient>
        <linearGradient id="paint24_linear_1323_49080" x1="19.4309" y1="87.6833" x2="48.9671" y2="87.6833" gradientUnits="userSpaceOnUse">
            <stop stop-color="#DCC2EC"/>
            <stop offset="0.501875" stop-color="#93819E"/>
            <stop offset="0.830053" stop-color="#DCC3ED"/>
        </linearGradient>
        <linearGradient id="paint25_linear_1323_49080" x1="45.197" y1="90.7591" x2="57.0176" y2="90.7591" gradientUnits="userSpaceOnUse">
            <stop stop-color="#DCC2EC"/>
            <stop offset="0.501875" stop-color="#93819E"/>
            <stop offset="0.830053" stop-color="#DCC3ED"/>
        </linearGradient>
        <linearGradient id="paint26_linear_1323_49080" x1="53.8873" y1="42.4168" x2="78.6041" y2="42.4168" gradientUnits="userSpaceOnUse">
            <stop stop-color="#DCC2EC"/>
            <stop offset="0.501875" stop-color="#93819E"/>
            <stop offset="0.830053" stop-color="#DCC3ED"/>
        </linearGradient>
        <linearGradient id="paint27_linear_1323_49080" x1="55.4676" y1="29.3633" x2="58.5732" y2="29.3633" gradientUnits="userSpaceOnUse">
            <stop stop-color="#DCC2EC"/>
            <stop offset="0.501875" stop-color="#93819E"/>
            <stop offset="0.830053" stop-color="#DCC3ED"/>
        </linearGradient>
        <linearGradient id="paint28_linear_1323_49080" x1="52.194" y1="36.2131" x2="85.5886" y2="36.2131" gradientUnits="userSpaceOnUse">
            <stop stop-color="#DCC2EC"/>
            <stop offset="0.501875" stop-color="#93819E"/>
            <stop offset="0.830053" stop-color="#DCC3ED"/>
        </linearGradient>
        <linearGradient id="paint29_linear_1323_49080" x1="23.639" y1="36.0943" x2="63.6643" y2="36.0943" gradientUnits="userSpaceOnUse">
            <stop stop-color="#DCC2EC"/>
            <stop offset="0.501875" stop-color="#93819E"/>
            <stop offset="0.830053" stop-color="#DCC3ED"/>
        </linearGradient>
        <linearGradient id="paint30_linear_1323_49080" x1="31.4868" y1="37.4062" x2="49.6632" y2="37.4062" gradientUnits="userSpaceOnUse">
            <stop stop-color="#DCC2EC"/>
            <stop offset="0.501875" stop-color="#93819E"/>
            <stop offset="0.830053" stop-color="#DCC3ED"/>
        </linearGradient>
        <linearGradient id="paint31_linear_1323_49080" x1="30.4132" y1="41.7831" x2="60.3848" y2="41.7831" gradientUnits="userSpaceOnUse">
            <stop stop-color="#DCC2EC"/>
            <stop offset="0.501875" stop-color="#93819E"/>
            <stop offset="0.830053" stop-color="#DCC3ED"/>
        </linearGradient>
        <linearGradient id="paint32_linear_1323_49080" x1="68.2139" y1="78.9153" x2="98.7293" y2="78.9153" gradientUnits="userSpaceOnUse">
            <stop stop-color="#DCC2EC"/>
            <stop offset="0.501875" stop-color="#93819E"/>
            <stop offset="0.830053" stop-color="#DCC3ED"/>
        </linearGradient>
        <linearGradient id="paint33_linear_1323_49080" x1="73.6507" y1="82.2356" x2="91.5847" y2="82.2356" gradientUnits="userSpaceOnUse">
            <stop stop-color="#DCC2EC"/>
            <stop offset="0.501875" stop-color="#93819E"/>
            <stop offset="0.830053" stop-color="#DCC3ED"/>
        </linearGradient>
        <linearGradient id="paint34_linear_1323_49080" x1="66.2777" y1="84.3097" x2="86.2558" y2="84.3097" gradientUnits="userSpaceOnUse">
            <stop stop-color="#DCC2EC"/>
            <stop offset="0.501875" stop-color="#93819E"/>
            <stop offset="0.830053" stop-color="#DCC3ED"/>
        </linearGradient>
        <linearGradient id="paint35_linear_1323_49080" x1="72.1933" y1="42.9519" x2="77.9582" y2="42.9519" gradientUnits="userSpaceOnUse">
            <stop stop-color="#DCC2EC"/>
            <stop offset="0.501875" stop-color="#93819E"/>
            <stop offset="0.830053" stop-color="#DCC3ED"/>
        </linearGradient>
        <linearGradient id="paint36_linear_1323_49080" x1="19.3834" y1="36.5386" x2="89.8762" y2="36.5386" gradientUnits="userSpaceOnUse">
            <stop stop-color="#DCC2EC"/>
            <stop offset="0.501875" stop-color="#93819E"/>
            <stop offset="0.830053" stop-color="#DCC3ED"/>
        </linearGradient>
        <linearGradient id="paint37_linear_1323_49080" x1="62.2081" y1="80.372" x2="96.0663" y2="80.372" gradientUnits="userSpaceOnUse">
            <stop stop-color="#DCC2EC"/>
            <stop offset="0.501875" stop-color="#93819E"/>
            <stop offset="0.830053" stop-color="#DCC3ED"/>
        </linearGradient>
        <linearGradient id="paint38_linear_1323_49080" x1="47.4006" y1="69.787" x2="63.8294" y2="69.787" gradientUnits="userSpaceOnUse">
            <stop stop-color="#DCC2EC"/>
            <stop offset="0.501875" stop-color="#93819E"/>
            <stop offset="0.830053" stop-color="#DCC3ED"/>
        </linearGradient>
        <clipPath id="clip0_1323_49080">
            <rect width="120" height="120" fill="white" transform="translate(0.5 0.5)"/>
        </clipPath>
    </defs>
</svg>
