<svg width="121" height="121" viewBox="0 0 121 121" fill="none" xmlns="http://www.w3.org/2000/svg">
    <g clip-path="url(#clip0_1323_49373)">
        <mask id="mask0_1323_49373" style="mask-type:luminance" maskUnits="userSpaceOnUse" x="0" y="0" width="121" height="121">
            <path d="M120.491 0.531738H0.730469V120.292H120.491V0.531738Z" fill="white"/>
        </mask>
        <g mask="url(#mask0_1323_49373)">
            <path d="M60.2597 119.52C92.6415 119.52 118.893 93.2696 118.893 60.8876C118.893 28.5058 92.6415 2.25488 60.2597 2.25488C27.8777 2.25488 1.62695 28.5058 1.62695 60.8876C1.62695 93.2696 27.8777 119.52 60.2597 119.52Z" stroke="url(#paint0_linear_1323_49373)" stroke-width="1.51597" stroke-miterlimit="10"/>
        </g>
        <g clip-path="url(#clip1_1323_49373)">
            <path opacity="0.23" d="M89.0383 82.3712H31.2188V55.5616C33.5381 54.9772 36.935 53.8267 40.4049 53.8267C48.3491 53.8267 53.8096 57.2966 59.5076 57.2966C65.2055 57.2966 71.1774 53.8267 78.866 53.8267C82.7012 53.8267 86.8833 54.9772 89.0383 55.5616V82.3712Z" fill="#C0B0CD"/>
            <path d="M41.1361 64.0109C41.1361 64.7049 40.5882 65.2528 39.8942 65.2528C39.2002 65.2528 38.6523 64.7049 38.6523 64.0109C38.6523 63.3169 39.2002 62.769 39.8942 62.769C40.5882 62.769 41.1361 63.3169 41.1361 64.0109Z" fill="url(#paint1_linear_1323_49373)"/>
            <path d="M55.0325 64.0109C55.0325 64.7049 54.4847 65.2528 53.7907 65.2528C53.0967 65.2528 52.5488 64.7049 52.5488 64.0109C52.5488 63.3169 53.0967 62.769 53.7907 62.769C54.4847 62.769 55.0325 63.3169 55.0325 64.0109Z" fill="url(#paint2_linear_1323_49373)"/>
            <path d="M67.7103 64.0109C67.7103 64.7049 67.1624 65.2528 66.4684 65.2528C65.7744 65.2528 65.2266 64.7049 65.2266 64.0109C65.2266 63.3169 65.7744 62.769 66.4684 62.769C67.1624 62.769 67.7103 63.3169 67.7103 64.0109Z" fill="url(#paint3_linear_1323_49373)"/>
            <path d="M81.0941 64.0109C81.0941 64.7049 80.5462 65.2528 79.8522 65.2528C79.1582 65.2528 78.6104 64.7049 78.6104 64.0109C78.6104 63.3169 79.1582 62.769 79.8522 62.769C80.5462 62.769 81.0941 63.3169 81.0941 64.0109Z" fill="url(#paint4_linear_1323_49373)"/>
            <path d="M86.062 74.9358C86.062 75.3558 85.7333 75.6845 85.3132 75.6845C84.8932 75.6845 84.5645 75.3558 84.5645 74.9358C84.5645 74.5157 84.8932 74.187 85.3132 74.187C85.7333 74.187 86.062 74.5157 86.062 74.9358Z" fill="#010101"/>
            <path d="M73.4106 74.9358C73.4106 75.3558 73.0819 75.6845 72.6619 75.6845C72.2418 75.6845 71.9131 75.3558 71.9131 74.9358C71.9131 74.5157 72.2418 74.187 72.6619 74.187C73.0819 74.187 73.4106 74.5157 73.4106 74.9358Z" fill="#010101"/>
            <path d="M60.7553 74.9358C60.7553 75.3558 60.4266 75.6845 60.0066 75.6845C59.5865 75.6845 59.2578 75.3558 59.2578 74.9358C59.2578 74.5157 59.5865 74.187 60.0066 74.187C60.4266 74.187 60.7553 74.5157 60.7553 74.9358Z" fill="#010101"/>
            <path d="M48.0923 74.9358C48.0923 75.3558 47.7635 75.6845 47.3435 75.6845C46.9235 75.6845 46.5947 75.3558 46.5947 74.9358C46.5947 74.5157 46.9235 74.187 47.3435 74.187C47.7635 74.187 48.0923 74.5157 48.0923 74.9358Z" fill="#010101"/>
            <path d="M35.1841 74.9358C35.1841 75.3558 34.8553 75.6845 34.4353 75.6845C34.0153 75.6845 33.6865 75.3558 33.6865 74.9358C33.6865 74.5157 34.0153 74.187 34.4353 74.187C34.8553 74.187 35.1841 74.5157 35.1841 74.9358Z" fill="#010101"/>
            <path d="M31.4557 46.1367H88.2891M31.4557 82.3698H88.2891M31.4557 55.5602C33.7751 54.9758 36.6789 53.8253 40.1488 53.8253C48.093 53.8253 53.5536 57.2952 59.2515 57.2952C64.9494 57.2952 70.9213 53.8253 78.6099 53.8253C82.4451 53.8253 86.1341 54.9758 88.2891 55.5602M28.7346 58.5553H18.3066M18.3066 58.5553L22.0322 54.081M18.3066 58.5553L22.0322 63.0297M28.7346 73.9325H18.3066M18.3066 73.9325L22.0322 69.4581M18.3066 73.9325L22.0322 78.4068M91.2842 73.9325H101.712M97.9683 69.4581L101.694 73.9325L97.9683 78.4068M91.2842 58.5553H101.712M97.9683 54.081L101.694 58.5553L97.9683 63.0297M41.1349 64.0159C41.1349 64.7098 40.5871 65.2577 39.8931 65.2577C39.1991 65.2577 38.6512 64.7098 38.6512 64.0159C38.6512 63.3219 39.1991 62.774 39.8931 62.774C40.5871 62.774 41.1349 63.3219 41.1349 64.0159ZM55.0328 64.0159C55.0328 64.7098 54.4849 65.2577 53.791 65.2577C53.097 65.2577 52.5491 64.7098 52.5491 64.0159C52.5491 63.3219 53.097 62.774 53.791 62.774C54.4849 62.774 55.0328 63.3219 55.0328 64.0159ZM67.7071 64.0159C67.7071 64.7098 67.1592 65.2577 66.4652 65.2577C65.7713 65.2577 65.2234 64.7098 65.2234 64.0159C65.2234 63.3219 65.7713 62.774 66.4652 62.774C67.1592 62.774 67.7071 63.3219 67.7071 64.0159ZM81.0936 64.0159C81.0936 64.7098 80.5457 65.2577 79.8518 65.2577C79.1578 65.2577 78.6099 64.7098 78.6099 64.0159C78.6099 63.3219 79.1578 62.774 79.8518 62.774C80.5457 62.774 81.0936 63.3219 81.0936 64.0159ZM35.1813 74.9369C35.1813 75.357 34.8526 75.6857 34.4326 75.6857C34.0125 75.6857 33.6838 75.357 33.6838 74.9369C33.6838 74.5169 34.0125 74.1881 34.4326 74.1881C34.8526 74.1881 35.1813 74.5169 35.1813 74.9369ZM48.093 74.9369C48.093 75.357 47.7643 75.6857 47.3442 75.6857C46.9242 75.6857 46.5955 75.357 46.5955 74.9369C46.5955 74.5169 46.9242 74.1881 47.3442 74.1881C47.7643 74.1881 48.093 74.5169 48.093 74.9369ZM60.749 74.9369C60.749 75.357 60.4203 75.6857 60.0003 75.6857C59.5802 75.6857 59.2515 75.357 59.2515 74.9369C59.2515 74.5169 59.5802 74.1881 60.0003 74.1881C60.4203 74.1881 60.749 74.5169 60.749 74.9369ZM73.405 74.9369C73.405 75.357 73.0763 75.6857 72.6563 75.6857C72.2362 75.6857 71.9075 75.357 71.9075 74.9369C71.9075 74.5169 72.2362 74.1881 72.6563 74.1881C73.0763 74.1881 73.405 74.5169 73.405 74.9369ZM86.0611 74.9369C86.0611 75.357 85.7323 75.6857 85.3123 75.6857C84.8923 75.6857 84.5635 75.357 84.5635 74.9369C84.5635 74.5169 84.8923 74.1881 85.3123 74.1881C85.7323 74.1881 86.0611 74.5169 86.0611 74.9369Z" stroke="url(#paint5_linear_1323_49373)" stroke-width="1.82626" stroke-linecap="round" stroke-linejoin="round"/>
        </g>
    </g>
    <defs>
        <linearGradient id="paint0_linear_1323_49373" x1="-32.2265" y1="60.315" x2="147.162" y2="60.315" gradientUnits="userSpaceOnUse">
            <stop stop-color="#DCC2EC"/>
            <stop offset="0.501875" stop-color="#93819E"/>
            <stop offset="0.830053" stop-color="#DCC3ED"/>
        </linearGradient>
        <linearGradient id="paint1_linear_1323_49373" x1="37.9353" y1="63.9988" x2="41.7348" y2="63.9988" gradientUnits="userSpaceOnUse">
            <stop stop-color="#DCC2EC"/>
            <stop offset="0.501875" stop-color="#93819E"/>
            <stop offset="0.830053" stop-color="#DCC3ED"/>
        </linearGradient>
        <linearGradient id="paint2_linear_1323_49373" x1="51.8318" y1="63.9988" x2="55.6313" y2="63.9988" gradientUnits="userSpaceOnUse">
            <stop stop-color="#DCC2EC"/>
            <stop offset="0.501875" stop-color="#93819E"/>
            <stop offset="0.830053" stop-color="#DCC3ED"/>
        </linearGradient>
        <linearGradient id="paint3_linear_1323_49373" x1="64.5095" y1="63.9988" x2="68.309" y2="63.9988" gradientUnits="userSpaceOnUse">
            <stop stop-color="#DCC2EC"/>
            <stop offset="0.501875" stop-color="#93819E"/>
            <stop offset="0.830053" stop-color="#DCC3ED"/>
        </linearGradient>
        <linearGradient id="paint4_linear_1323_49373" x1="77.8933" y1="63.9988" x2="81.6928" y2="63.9988" gradientUnits="userSpaceOnUse">
            <stop stop-color="#DCC2EC"/>
            <stop offset="0.501875" stop-color="#93819E"/>
            <stop offset="0.830053" stop-color="#DCC3ED"/>
        </linearGradient>
        <linearGradient id="paint5_linear_1323_49373" x1="-5.77174" y1="64.0763" x2="121.819" y2="64.0763" gradientUnits="userSpaceOnUse">
            <stop stop-color="#DCC2EC"/>
            <stop offset="0.501875" stop-color="#93819E"/>
            <stop offset="0.830053" stop-color="#DCC3ED"/>
        </linearGradient>
        <clipPath id="clip0_1323_49373">
            <rect width="120" height="120" fill="white" transform="translate(0.5 0.5)"/>
        </clipPath>
        <clipPath id="clip1_1323_49373">
            <rect width="85.2135" height="38.0594" fill="white" transform="translate(17.3936 45.2207)"/>
        </clipPath>
    </defs>
</svg>
