<svg width="100" height="100" viewBox="0 0 100 100" fill="none" xmlns="http://www.w3.org/2000/svg">
<circle cx="50" cy="50" r="50" fill="white"/>
<path d="M43.5708 37.621C43.5728 37.5541 43.577 37.4831 43.6083 37.4249C43.6917 37.2641 43.9088 37.2411 44.0883 37.2389C44.4035 37.2349 44.7187 37.2308 45.034 37.2266C45.0799 37.2266 45.1279 37.2266 45.1696 37.2453C45.2155 37.2683 45.2468 37.3122 45.274 37.3538C45.3845 37.525 45.4681 37.7191 45.4661 37.9236C45.4619 38.2347 45.2572 38.506 45.0485 38.7376C44.9651 38.8296 44.8754 38.9214 44.771 38.9882C44.5246 39.1448 43.8108 39.3264 43.6606 38.9882C43.5999 38.8505 43.6855 38.602 43.6793 38.4559C43.6668 38.172 43.5624 37.9091 43.5708 37.621Z" fill="url(#paint0_linear_10334_34578)"/>
<path d="M55.8872 37.8358C55.8894 37.769 55.8934 37.6982 55.9249 37.6397C56.0083 37.4789 56.2254 37.456 56.4049 37.454C56.7201 37.4498 57.0352 37.4454 57.3506 37.4414C57.3963 37.4414 57.4443 37.4414 57.486 37.4602C57.5319 37.4831 57.5632 37.527 57.5906 37.5687C57.7011 37.7399 57.7847 37.934 57.7825 38.1385C57.7783 38.4495 57.5738 38.7208 57.3649 38.9527C57.2815 39.0444 57.1918 39.1362 57.0874 39.203C56.841 39.3597 56.1272 39.5412 55.977 39.203C55.9163 39.0654 56.0021 38.8168 55.9957 38.6708C55.9832 38.3869 55.8788 38.1239 55.8872 37.8358Z" fill="url(#paint1_linear_10334_34578)"/>
<path opacity="0.23" d="M64.7542 25.7793C64.4498 24.2355 64.0546 22.6528 63.0668 21.3656C62.1419 20.1568 60.877 19.1836 59.5324 18.4223C56.5194 16.7112 53.125 16.3947 49.6868 16.4025C46.6216 16.4104 43.2876 16.706 40.7136 18.4563C37.9313 20.3451 36.5675 23.3932 35.5933 26.4097C34.7288 29.0887 33.3953 33.0812 35.887 35.271C36.1421 36.226 37.8571 36.1266 37.9038 34.9781C38.0298 31.8201 39.6434 28.9213 42.2915 27.0246C43.5729 26.1063 45.4032 24.6569 47.077 24.7195C48.1831 24.7614 49.4561 24.5784 50.6829 24.4711C50.5127 22.7025 50.1999 20.9444 50.1367 19.1653C50.0928 17.9069 52.1399 17.9121 52.1866 19.1653C52.2496 20.9261 52.5571 22.6658 52.7298 24.4188C54.2473 24.5417 55.4932 25.5255 56.8871 26.2449C58.3744 27.0114 59.2826 28.7407 59.9687 30.1483C60.7178 31.6866 61.0307 33.2957 61.5877 34.8891C62.013 36.1109 63.5223 36.7072 64.3399 35.4202C65.1742 34.1068 65.2867 32.3618 65.2785 30.8679C65.2702 29.1595 65.0836 27.4537 64.7542 25.7793Z" fill="url(#paint2_linear_10334_34578)"/>
<path d="M54.4598 68.4795C55.6619 66.9954 57.2561 66.0675 59.1173 65.7646C59.7505 65.6627 59.4804 64.6787 58.8537 64.7809C56.8447 65.1067 55.0544 66.1531 53.756 67.7589C53.3476 68.2622 54.0516 68.9862 54.4598 68.4795Z" fill="url(#paint3_linear_10334_34578)" stroke="url(#paint4_linear_10334_34578)" stroke-width="0.289447"/>
<path d="M48.7382 67.7589C47.4398 66.1564 45.6495 65.1098 43.6404 64.7809C43.0138 64.6787 42.7437 65.6627 43.3769 65.7646C45.2381 66.0675 46.8323 66.9922 48.0344 68.4795C48.4425 68.9862 49.1434 68.2622 48.7382 67.7589Z" fill="url(#paint5_linear_10334_34578)" stroke="url(#paint6_linear_10334_34578)" stroke-width="0.289447"/>
<path d="M37.7712 37.4655C37.6844 40.4567 38.2083 43.7328 38.7707 46.6549C38.9058 47.3602 39.8766 47.0208 39.7415 46.3156C39.1985 43.4874 38.6839 40.3553 38.7707 37.4655C38.7901 36.7459 37.7935 36.7459 37.7712 37.4655Z" fill="url(#paint7_linear_10334_34578)" stroke="url(#paint8_linear_10334_34578)" stroke-width="0.289447"/>
<path d="M38.8147 46.6246C40.0135 49.7277 41.73 52.6399 44.6133 54.3642C46.5643 55.5323 49.7626 56.875 52.0349 56.4571C53.8606 56.1215 55.7186 54.7756 57.1746 53.6634C58.5663 52.6004 59.8328 51.3631 60.8549 49.9218C63.3621 46.391 63.8409 42.1525 64.0723 37.9208C64.1078 37.266 63.1113 37.266 63.076 37.9208C62.8735 41.6228 62.5231 45.3544 60.5494 48.5726C59.5435 50.2113 58.1837 51.623 56.6732 52.7814C55.3328 53.8114 53.5875 55.0817 51.9288 55.4106C49.9457 55.8023 46.9884 54.5683 45.2561 53.5646C42.5337 51.9883 40.9007 49.2603 39.7757 46.3547C39.5443 45.7492 38.5769 46.0125 38.8147 46.6246Z" fill="url(#paint9_linear_10334_34578)" stroke="url(#paint10_linear_10334_34578)" stroke-width="0.289447"/>
<path d="M64.0622 36.7929C66.746 37.8425 66.2897 44.4731 63.0206 44.0026C62.3939 43.9139 62.1208 44.8944 62.7572 44.9866C67.3598 45.6514 68.2632 37.3455 64.329 35.8089C63.7278 35.5753 63.4675 36.5625 64.0622 36.7929Z" fill="url(#paint11_linear_10334_34578)" stroke="url(#paint12_linear_10334_34578)" stroke-width="0.289447"/>
<path d="M36.5096 35.8019C33.1863 36.7429 33.4626 43.344 36.693 44.2128C37.3132 44.3806 37.5802 43.3967 36.9565 43.2289C34.7129 42.6268 34.4461 37.444 36.7734 36.7858C37.3905 36.6115 37.1301 35.6275 36.5096 35.8019Z" fill="url(#paint13_linear_10334_34578)" stroke="url(#paint14_linear_10334_34578)" stroke-width="0.289447"/>
<path d="M63.8842 41.3028C64.0448 40.5756 64.4466 39.9667 65.0637 39.5685C65.6069 39.2197 65.1056 38.3347 64.5591 38.6867C63.7298 39.2197 63.1384 40.0491 62.9198 41.0331C62.7817 41.6713 63.7427 41.9444 63.8842 41.3028Z" fill="url(#paint15_linear_10334_34578)" stroke="url(#paint16_linear_10334_34578)" stroke-width="0.289447"/>
<path d="M38.7612 40.184C38.4783 39.0947 37.7808 38.1766 36.8166 37.6337C36.2542 37.3177 35.7495 38.1997 36.3119 38.5155C37.061 38.9369 37.5783 39.6114 37.8002 40.4569C37.9642 41.089 38.9252 40.819 38.7612 40.184Z" fill="url(#paint17_linear_10334_34578)" stroke="url(#paint18_linear_10334_34578)" stroke-width="0.289447"/>
<path d="M49.021 43.9591C49.906 44.5123 51.0184 44.5145 51.9076 43.9697C52.4567 43.6337 51.9535 42.7673 51.4025 43.1054C50.8055 43.4707 50.1208 43.4645 49.5281 43.095C48.9771 42.7507 48.4741 43.617 49.021 43.9591Z" fill="url(#paint19_linear_10334_34578)" stroke="url(#paint20_linear_10334_34578)" stroke-width="0.289447"/>
<path d="M54.9266 38.681C56.1727 37.0528 58.2828 37.6248 59.7398 38.6038C60.2763 38.9649 60.7793 38.0964 60.245 37.7395C58.2495 36.3974 55.6488 36.101 54.0603 38.1758C53.6679 38.6872 54.5383 39.1881 54.9266 38.681Z" fill="url(#paint21_linear_10334_34578)" stroke="url(#paint22_linear_10334_34578)" stroke-width="0.289447"/>
<path d="M53.861 35.5217C55.4263 34.3967 57.5032 33.8812 59.102 35.261C59.5884 35.6803 60.3003 34.9749 59.8097 34.5533C57.883 32.8896 55.32 33.2446 53.3559 34.6577C52.8362 35.0291 53.3369 35.8976 53.861 35.5217Z" fill="url(#paint23_linear_10334_34578)" stroke="url(#paint24_linear_10334_34578)" stroke-width="0.289447"/>
<path d="M55.1719 37.6088C55.0969 38.6692 55.0863 39.9947 56.3744 40.2597C57.9606 40.5854 58.3114 38.3081 58.1318 37.206C58.0295 36.5714 57.063 36.8407 57.1654 37.4732C57.23 37.874 57.1634 39.4311 56.5078 39.2619C55.9067 39.1075 56.1447 38.0368 56.176 37.6088C56.2199 36.966 55.218 36.968 55.1719 37.6088Z" fill="url(#paint25_linear_10334_34578)" stroke="url(#paint26_linear_10334_34578)" stroke-width="0.289447"/>
<path d="M47.0172 37.9686C45.4287 35.894 42.8301 36.1904 40.8325 37.5325C40.3002 37.8894 40.8012 38.7577 41.3376 38.3966C42.7944 37.4176 44.9048 36.8456 46.1509 38.4738C46.5392 38.9789 47.4096 38.4822 47.0172 37.9686Z" fill="url(#paint27_linear_10334_34578)" stroke="url(#paint28_linear_10334_34578)" stroke-width="0.289447"/>
<path d="M47.7235 34.442C45.7592 33.0311 43.1961 32.6742 41.2695 34.3376C40.7811 34.7594 41.4927 35.4648 41.9771 35.0453C43.5718 33.6677 45.6528 34.181 47.2184 35.3062C47.7423 35.6839 48.2432 34.8156 47.7235 34.442Z" fill="url(#paint29_linear_10334_34578)" stroke="url(#paint30_linear_10334_34578)" stroke-width="0.289447"/>
<path d="M44.9047 37.3934C44.9362 37.8213 45.174 38.892 44.5729 39.0467C43.9176 39.2136 43.8487 37.6585 43.9156 37.2577C44.0177 36.6274 43.0533 36.3559 42.949 36.9905C42.7696 38.0926 43.1181 40.37 44.7066 40.0444C45.9944 39.7812 45.984 38.4559 45.9088 37.3934C45.8609 36.7547 44.8588 36.7485 44.9047 37.3934Z" fill="url(#paint31_linear_10334_34578)" stroke="url(#paint32_linear_10334_34578)" stroke-width="0.289447"/>
<path d="M63.2122 36.2278C63.1392 33.2964 62.3605 30.3152 60.3547 28.0247C58.5095 25.9191 55.6583 24.6255 52.7673 24.9102C52.1329 24.9718 52.1265 25.9291 52.7673 25.8654C55.4223 25.6047 57.9584 26.7628 59.647 28.6994C61.4715 30.7908 62.1456 33.5651 62.2125 36.2278C62.227 36.8408 63.2288 36.8428 63.2122 36.2278Z" fill="url(#paint33_linear_10334_34578)" stroke="url(#paint34_linear_10334_34578)" stroke-width="0.289447"/>
<path d="M50.59 19.4264C50.828 21.3189 50.9176 23.2116 50.8635 25.118C50.8445 25.7329 51.8486 25.7329 51.8652 25.118C51.9197 23.2136 51.8299 21.3189 51.5919 19.4264C51.5169 18.8254 50.5148 18.8174 50.59 19.4264Z" fill="url(#paint35_linear_10334_34578)" stroke="url(#paint36_linear_10334_34578)" stroke-width="0.289447"/>
<path d="M65.4262 37.2946C69.054 30.8186 66.2318 21.2344 59.54 17.5726C57.4673 16.4383 55.1065 15.9666 52.729 16.0681C52.0862 16.096 52.084 17.0512 52.729 17.0234C57.8994 16.8025 62.1198 19.696 64.3179 24.0524C66.2737 27.9272 66.7349 32.9282 64.5599 36.813C64.2573 37.3542 65.1235 37.8378 65.4262 37.2946Z" fill="url(#paint37_linear_10334_34578)" stroke="url(#paint38_linear_10334_34578)" stroke-width="0.289447"/>
<path d="M51.0081 15.4255C48.2195 14.1976 44.4288 15.3897 41.8949 16.6474C37.7765 18.6933 34.8356 22.3828 33.9005 26.7252C33.1406 30.2537 33.6082 33.8957 34.5998 37.3383C34.771 37.9315 35.7372 37.6787 35.5662 37.0838C34.0883 31.9533 33.8816 26.18 37.261 21.6663C39.4193 18.7868 42.8384 16.7748 46.4766 16.112C47.7311 15.8832 49.3006 15.72 50.5028 16.2494C51.0854 16.5061 51.5945 15.6822 51.0081 15.4255Z" fill="url(#paint39_linear_10334_34578)" stroke="url(#paint40_linear_10334_34578)" stroke-width="0.289447"/>
<path d="M49.7529 24.5391C43.155 24.6067 39.3748 30.3501 37.0121 35.4726C36.7553 36.03 37.6174 36.5174 37.8761 35.9542C40.0825 31.1741 43.5391 25.558 49.7529 25.4943C50.3979 25.4864 50.3979 24.5311 49.7529 24.5391Z" fill="url(#paint41_linear_10334_34578)" stroke="url(#paint42_linear_10334_34578)" stroke-width="0.289447"/>
<path d="M45.8232 48.4529C48.8637 49.6465 52.1264 49.7371 55.09 48.2745C55.7073 47.9699 55.1668 47.0452 54.5494 47.3498C51.8383 48.6889 48.8664 48.5022 46.1087 47.421C45.4665 47.1687 45.1894 48.2031 45.8232 48.4529Z" fill="url(#paint43_linear_10334_34578)" stroke="url(#paint44_linear_10334_34578)" stroke-width="0.289447"/>
<g opacity="0.23">
<path opacity="0.23" d="M49.7229 51.3522C48.5703 50.9927 47.5632 50.0598 47.0226 48.8415C46.8881 48.5368 46.7784 48.1965 46.836 47.8617C46.9075 47.4447 47.2231 47.1373 47.5467 46.926C48.5785 46.2427 49.8244 46.1605 51.0181 46.1082C51.3473 46.0947 51.6794 46.0809 52.0004 46.1577C52.5547 46.2922 53.0295 46.6818 53.4878 47.0605C53.6386 47.1868 53.7978 47.3212 53.8828 47.5132C53.9376 47.6368 53.957 47.7767 53.9734 47.914C54.0254 48.3804 54.031 48.8798 53.8389 49.2969C53.6138 49.7937 53.1584 50.0872 52.7276 50.3561C52.3681 50.5784 52.003 50.8034 51.6052 50.9022C51.3911 50.9542 51.1717 50.968 50.9548 50.9764C50.0906 51.0091 49.2207 50.9407 48.3672 50.7761" fill="url(#paint45_linear_10334_34578)"/>
<path opacity="0.23" d="M49.7229 51.3522C48.5703 50.9927 47.5632 50.0598 47.0226 48.8415C46.8881 48.5368 46.7784 48.1965 46.836 47.8617C46.9075 47.4447 47.2231 47.1373 47.5467 46.926C48.5785 46.2427 49.8244 46.1605 51.0181 46.1082C51.3473 46.0947 51.6794 46.0809 52.0004 46.1577C52.5547 46.2922 53.0295 46.6818 53.4878 47.0605C53.6386 47.1868 53.7978 47.3212 53.8828 47.5132C53.9376 47.6368 53.957 47.7767 53.9734 47.914C54.0254 48.3804 54.031 48.8798 53.8389 49.2969C53.6138 49.7937 53.1584 50.0872 52.7276 50.3561C52.3681 50.5784 52.003 50.8034 51.6052 50.9022C51.3911 50.9542 51.1717 50.968 50.9548 50.9764C50.0906 51.0091 49.2207 50.9407 48.3672 50.7761" stroke="url(#paint46_linear_10334_34578)" stroke-width="0.289447"/>
</g>
<path d="M43.4498 22.4893C39.9335 24.6002 37.3793 27.448 36.1024 30.7201C35.9101 31.2123 36.9162 31.4004 37.1085 30.9114C38.3036 27.853 40.6986 25.1407 43.9885 23.1634C44.5094 22.85 43.9771 22.1707 43.4498 22.4893Z" fill="url(#paint47_linear_10334_34578)" stroke="url(#paint48_linear_10334_34578)" stroke-width="0.289447"/>
<path d="M64.2528 35.6923C64.6478 32.7412 65.1368 29.0699 63.021 26.4161C62.6773 25.9865 61.7915 26.3802 62.1372 26.8113C64.1397 29.3231 63.6018 32.898 63.2281 35.6923C63.1599 36.1936 64.1846 36.1904 64.2528 35.6923Z" fill="url(#paint49_linear_10334_34578)" stroke="url(#paint50_linear_10334_34578)" stroke-width="0.289447"/>
<path fill-rule="evenodd" clip-rule="evenodd" d="M63.7422 76.9752C60.1341 76.6686 55.5632 76.5088 51.4747 76.6085C50.2779 76.6377 49.0001 76.6582 47.6897 76.6794C44.5124 76.7306 41.1441 76.7849 38.2806 76.9718C36.257 77.1041 34.5185 77.3008 33.2954 77.6005C32.6799 77.7513 32.2314 77.9199 31.9477 78.0965C31.6592 78.2762 31.6373 78.3985 31.6373 78.4434C31.6373 78.7101 31.4212 78.9262 31.1547 78.9262C30.8879 78.9262 30.6719 78.7101 30.6719 78.4434C30.6719 77.9091 31.0298 77.5307 31.4374 77.2767C31.8498 77.0199 32.4144 76.8222 33.0655 76.6626C34.3753 76.3416 36.184 76.1411 38.2178 76.0084C41.1062 75.8199 44.515 75.7648 47.7023 75.7134C49.0059 75.6924 50.2725 75.6719 51.4512 75.6431C55.5764 75.5426 60.1822 75.7036 63.8239 76.013C65.6432 76.1678 67.2327 76.3604 68.4048 76.5782C68.989 76.6867 69.4847 76.8043 69.8584 76.9317C70.0445 76.9952 70.2157 77.0664 70.3574 77.1482C70.4859 77.2222 70.654 77.3409 70.75 77.5279C70.8719 77.7649 70.7783 78.056 70.5411 78.1776C70.3181 78.2924 70.0473 78.2166 69.9147 78.0099C69.9067 78.0041 69.8939 77.9955 69.8746 77.9843C69.8085 77.9462 69.702 77.8987 69.5466 77.8457C69.2373 77.7401 68.794 77.6326 68.2284 77.5275C67.101 77.318 65.5473 77.1286 63.7422 76.9752Z" fill="url(#paint51_linear_10334_34578)" stroke="url(#paint52_linear_10334_34578)" stroke-width="0.289447" stroke-linecap="round"/>
<path fill-rule="evenodd" clip-rule="evenodd" d="M44.2369 53.0391C44.2468 54.5489 44.184 56.1388 43.6982 57.6451V57.6453C42.9197 60.0577 41.0472 62.0865 38.704 63.0549L38.7038 63.0551C38.5831 63.1049 38.3726 63.1588 38.1408 63.2133C37.8932 63.2715 37.5746 63.3403 37.2071 63.4172C36.7412 63.5145 36.1892 63.6262 35.5937 63.7465C35.2505 63.816 34.8928 63.8884 34.5289 63.9626C32.5221 64.3718 30.3341 64.836 29.1748 65.2047C25.5681 66.3519 24.1069 68.64 22.4859 71.1783C22.2974 71.4738 22.1065 71.7727 21.9098 72.0735L21.1016 71.5452C21.2933 71.2521 21.4814 70.9561 21.6702 70.6596C23.2854 68.1219 24.9273 65.5423 28.8821 64.2846H28.8823C30.1017 63.8966 32.3477 63.4217 34.336 63.0163C34.7039 62.9413 35.0634 62.8687 35.4071 62.7991C36.0001 62.6792 36.5463 62.5689 37.0096 62.4719C37.375 62.3955 37.6843 62.3287 37.9201 62.2732C38.038 62.2455 38.1346 62.2213 38.209 62.201C38.2461 62.191 38.2758 62.1822 38.2986 62.175C38.3099 62.1714 38.3187 62.1685 38.3253 62.1661L38.3327 62.1635C38.3345 62.1627 38.3353 62.1625 38.3353 62.1625C40.4163 61.3024 42.0878 59.4915 42.7791 57.3486C43.2148 55.9975 43.281 54.5382 43.2712 53.0454L44.2369 53.0391ZM38.3353 62.1625H38.3351L38.5184 62.606L38.3353 62.1625Z" fill="url(#paint53_linear_10334_34578)"/>
<path d="M38.3353 62.1625L38.8801 62.3693L38.3253 62.1661C38.3187 62.1685 38.3099 62.1714 38.2986 62.175C38.2758 62.1822 38.2461 62.191 38.209 62.201C38.1346 62.2213 38.038 62.2455 37.9201 62.2732C37.6843 62.3287 37.3751 62.3955 37.0096 62.4719C36.5463 62.5689 36.0001 62.6792 35.4071 62.7991C35.0634 62.8687 34.7039 62.9413 34.336 63.0163C32.3477 63.4217 30.1017 63.8966 28.8823 64.2846C24.9275 65.5423 23.2854 68.1219 21.6702 70.6596C21.4814 70.9561 21.2933 71.2521 21.1016 71.5452L21.9098 72.0735C22.1065 71.7727 22.2974 71.4738 22.4859 71.1783C24.1069 68.64 25.5681 66.3519 29.1748 65.2047C30.3341 64.836 32.5221 64.3718 34.5289 63.9626C34.8928 63.8884 35.2505 63.816 35.5937 63.7465C36.1892 63.6262 36.7412 63.5145 37.2071 63.4172C37.5746 63.3403 37.8932 63.2715 38.1408 63.2133C38.3726 63.1588 38.5831 63.1049 38.7038 63.0551C41.047 62.0867 42.9197 60.0577 43.6982 57.6453C44.1838 56.139 44.2468 54.5489 44.2369 53.0391L43.2712 53.0454C43.281 54.5382 43.2148 55.9975 42.7791 57.3486C42.0878 59.4915 40.4163 61.3024 38.3353 62.1625ZM38.3353 62.1625L38.5184 62.606" stroke="url(#paint54_linear_10334_34578)" stroke-width="0.289447" stroke-miterlimit="10"/>
<path fill-rule="evenodd" clip-rule="evenodd" d="M58.1969 52.7406C58.1871 54.2396 58.2606 56.0039 58.6953 57.3521C59.3868 59.495 61.0582 61.3057 63.1393 62.166C63.1393 62.166 63.1395 62.166 63.1399 62.1662C63.1403 62.1664 63.1411 62.1666 63.1419 62.1668L63.1493 62.1696C63.1558 62.172 63.1646 62.1748 63.176 62.1784C63.1987 62.1858 63.2285 62.1943 63.2656 62.2045C63.34 62.2249 63.4365 62.249 63.5545 62.2767C63.7903 62.332 64.0995 62.399 64.465 62.4754C64.9281 62.5722 65.4745 62.6827 66.0672 62.8026C66.4112 62.8721 66.7705 62.9449 67.1386 63.0197C69.1267 63.4253 71.3729 63.9001 72.5925 64.288C76.5471 65.5458 78.189 68.1252 79.8044 70.6632C79.9929 70.9596 80.1815 71.2555 80.373 71.5486L79.5646 72.0771C79.3681 71.7762 79.1772 71.4773 78.9884 71.1819C77.3674 68.6434 75.9065 66.3552 72.2998 65.2083C71.1405 64.8396 68.9525 64.3751 66.9457 63.966C66.5816 63.8917 66.224 63.8195 65.8807 63.7501C65.2854 63.6296 64.7333 63.5181 64.2675 63.4207C63.8998 63.3439 63.5814 63.2749 63.3336 63.2168C63.102 63.1623 62.8917 63.1083 62.7706 63.0584V63.0582C60.4274 62.09 58.5548 60.061 57.7764 57.6486C57.2898 56.1395 57.2215 54.2377 57.2313 52.7344L58.1969 52.7406Z" fill="url(#paint55_linear_10334_34578)"/>
<path d="M72.2998 65.2083C75.9065 66.3552 77.3674 68.6434 78.9884 71.1819C79.1772 71.4773 79.3681 71.7762 79.5646 72.0771L80.373 71.5486C80.1815 71.2555 79.9929 70.9596 79.8044 70.6632C78.189 68.1252 76.5471 65.5458 72.5925 64.288C71.3729 63.9001 69.1267 63.4253 67.1386 63.0197C66.7705 62.9449 66.4112 62.8721 66.0672 62.8026C65.4745 62.6827 64.9281 62.5722 64.465 62.4754C64.0995 62.399 63.7903 62.332 63.5545 62.2767C63.4365 62.249 63.34 62.2249 63.2656 62.2045C63.2285 62.1943 63.1987 62.1858 63.176 62.1784C63.1646 62.1748 63.1558 62.172 63.1493 62.1696L63.1419 62.1668C63.1411 62.1666 63.1403 62.1664 63.1399 62.1662C63.1395 62.166 63.1393 62.166 63.1393 62.166C61.0582 61.3057 59.3868 59.495 58.6953 57.3521C58.2606 56.0039 58.1871 54.2396 58.1969 52.7406L57.2313 52.7344C57.2215 54.2377 57.2898 56.1395 57.7764 57.6486C58.5548 60.061 60.4274 62.09 62.7706 63.0582V63.0584C62.8917 63.1083 63.102 63.1623 63.3336 63.2168C63.5814 63.2749 63.8998 63.3439 64.2675 63.4207C64.7333 63.5181 65.2854 63.6296 65.8807 63.7501C66.224 63.8195 66.5816 63.8917 66.9457 63.966C68.9525 64.3751 71.1405 64.8396 72.2998 65.2083ZM72.2998 65.2083L72.446 64.748" stroke="url(#paint56_linear_10334_34578)" stroke-width="0.289447" stroke-miterlimit="10"/>
<path d="M63.7726 54.2445C67.3204 52.3879 70.0666 49.3548 71.5042 45.6105C71.7602 44.9459 72.8411 45.2356 72.5825 45.9077C71.0388 49.921 68.1529 53.2128 64.3364 55.2091C63.7001 55.5401 63.1339 54.578 63.7726 54.2445Z" fill="url(#paint57_linear_10334_34578)"/>
<path d="M67.6336 46.3983C68.8438 45.858 70.0722 45.364 71.2848 44.8339C71.7865 44.6167 72.5235 44.0814 73.0458 44.5391C73.4983 44.9323 73.6561 45.9458 73.8552 46.4914C74.1551 47.3138 74.4705 48.1593 74.525 49.0411C74.5688 49.7599 73.4518 49.7573 73.4077 49.0411C73.369 48.436 73.1492 47.8439 72.9526 47.2723C72.8493 46.9699 72.5752 45.7209 72.3244 45.5761C72.2725 45.3822 72.252 45.3975 72.2598 45.6174C72.1227 45.6769 71.9856 45.7363 71.8486 45.7986C71.5745 45.9665 71.2072 46.0727 70.9047 46.1994C69.9998 46.582 69.092 46.9595 68.1974 47.3603C67.5482 47.655 66.9794 46.6931 67.6336 46.3983Z" fill="url(#paint58_linear_10334_34578)"/>
<path d="M37.5018 54.2445C33.9542 52.3879 31.208 49.3548 29.7702 45.6105C29.5142 44.9459 28.4333 45.2356 28.692 45.9077C30.2356 49.921 33.1215 53.2128 36.9382 55.2091C37.5742 55.5401 38.1406 54.578 37.5018 54.2445Z" fill="url(#paint59_linear_10334_34578)"/>
<path d="M33.6385 46.3983C32.4283 45.858 31.2001 45.364 29.9873 44.8339C29.4858 44.6167 28.7486 44.0814 28.2263 44.5391C27.7738 44.9323 27.616 45.9458 27.4169 46.4914C27.117 47.3138 26.8016 48.1593 26.7474 49.0411C26.7033 49.7599 27.8203 49.7573 27.8642 49.0411C27.9031 48.436 28.123 47.8439 28.3195 47.2723C28.4228 46.9699 28.6969 45.7209 28.9479 45.5761C28.9996 45.3822 29.0201 45.3975 29.0126 45.6174C29.1496 45.6769 29.2867 45.7363 29.4235 45.7986C29.6977 45.9665 30.0649 46.0727 30.3674 46.1994C31.2726 46.582 32.1801 46.9595 33.0749 47.3603C33.7239 47.655 34.2927 46.6931 33.6385 46.3983Z" fill="url(#paint60_linear_10334_34578)"/>
<path d="M49.6968 98.6669C76.6689 98.6669 98.5342 76.8017 98.5342 49.8295C98.5342 22.8575 76.6689 0.992188 49.6968 0.992188C22.7246 0.992188 0.859375 22.8575 0.859375 49.8295C0.859375 76.8017 22.7246 98.6669 49.6968 98.6669Z" stroke="url(#paint61_linear_10334_34578)" stroke-width="1.67" stroke-miterlimit="10"/>
<path opacity="0.23" fill-rule="evenodd" clip-rule="evenodd" d="M41.1486 61.3417C41.9029 60.9232 42.5589 60.2746 43.0104 59.5211C43.8958 58.0437 44.1244 56.2442 44.1198 54.5049C44.1186 53.8216 43.5418 53.2163 42.979 52.6253C42.6305 52.2594 42.2871 51.8991 42.0892 51.5293C41.848 51.0776 41.5051 50.7003 41.1711 50.3328C40.6083 49.7134 40.071 49.1222 40.0908 48.2518C39.7431 49.4388 39.6724 48.7505 39.6122 48.1638C39.5799 47.8496 39.5505 47.5645 39.4833 47.6124C39.0919 46.5302 38.8217 47.2892 38.4495 48.3352C38.1538 49.1663 37.7935 50.1788 37.2566 50.5926C37.0926 50.7191 36.9286 50.8461 36.7664 50.9752C37.9311 51.9528 39.0558 53.0419 39.7576 54.3718C40.2029 55.2155 40.1943 55.9848 40.1576 56.9387C40.1443 57.287 39.9681 57.694 39.702 57.922C39.4189 58.1648 39.0125 58.1449 38.6292 58.1261C38.5289 58.1213 38.4299 58.1165 38.3353 58.1165C36.954 58.1165 34.8514 57.3524 33.7844 56.5101C33.6505 56.4046 33.4397 56.2593 33.1861 56.093C32.8739 56.9516 32.6183 57.8386 32.3813 58.7163C32.2933 59.0416 31.6603 59.9336 30.9634 60.9154C30.0114 62.2571 28.94 63.7667 28.9775 64.2272C29.0116 64.6458 29.9741 64.2015 30.9812 63.7364C31.8943 63.3149 32.8443 62.8764 33.1727 63.0483C33.8832 63.4216 34.7372 63.243 35.5127 63.0483C37.725 62.4917 39.9172 61.8609 42.0892 61.1582L41.1486 61.3417Z" fill="url(#paint62_linear_10334_34578)"/>
<path opacity="0.23" fill-rule="evenodd" clip-rule="evenodd" d="M61.2303 61.4492C60.3983 60.9937 59.6751 60.2879 59.177 59.4677C58.2004 57.8601 57.9482 55.9018 57.9532 54.0088C57.9558 52.805 58.0669 51.5583 58.6381 50.5059C58.8983 50.0251 59.4503 49.3981 60.0454 48.7221C60.7774 47.8906 61.5744 46.9854 61.9732 46.1874C62.5376 46.0875 63.3127 47.1008 64.0802 48.1043C64.585 48.7642 65.0865 49.4198 65.5224 49.7514C65.6088 49.817 65.695 49.8829 65.781 49.9489C65.6665 50.0361 65.5526 50.1253 65.4389 50.2162C63.9715 51.3899 62.4052 52.6879 61.5164 54.3717C61.0713 55.2155 61.0797 55.9847 61.1164 56.9386C61.1297 57.2869 61.3061 57.6939 61.572 57.922C61.8551 58.1648 62.2617 58.1448 62.6448 58.126H62.645C62.7453 58.1213 62.8441 58.1163 62.9386 58.1163C64.32 58.1163 66.4228 57.3524 67.4896 56.5101C67.8433 56.2309 68.7357 55.6757 69.5287 55.1823C69.6011 55.1373 69.673 55.0926 69.7434 55.0487C70.2152 56.1924 70.5729 57.4 70.8991 58.5921C70.9963 58.946 71.6944 59.9166 72.4627 60.985C73.5129 62.4451 74.6945 64.0881 74.653 64.5894C74.6155 65.0447 73.5542 64.5613 72.4433 64.0552C71.4362 63.5965 70.3886 63.1191 70.0265 63.3062C69.2428 63.7126 68.3012 63.5183 67.4457 63.3062C65.0059 62.7005 62.5883 62.0142 60.1929 61.2495L61.2303 61.4492ZM62.231 45.316C62.2234 45.5831 62.1285 45.8772 61.9732 46.1874C61.7701 46.2235 61.5944 46.4039 61.4561 46.781C61.3258 46.6898 61.7269 46.0867 62.0078 45.6641C62.1063 45.5159 62.1901 45.3898 62.231 45.316ZM62.231 45.316C62.2316 45.2954 62.2316 45.2753 62.2312 45.2551C62.2687 45.231 62.2637 45.2565 62.231 45.316Z" fill="url(#paint63_linear_10334_34578)"/>
<path fill-rule="evenodd" clip-rule="evenodd" d="M63.7892 44.5058C63.9645 44.596 64.1052 44.7636 64.1784 45.0046V45.0048C64.6876 46.6888 65.4598 48.1592 66.365 49.5272C66.0522 49.7419 65.7449 49.9727 65.4401 50.2167C65.3683 50.2739 65.2964 50.3318 65.2242 50.3897C64.2157 48.9085 63.3451 47.3081 62.7861 45.4589C62.7124 45.2161 62.735 44.996 62.8274 44.8197C62.9185 44.6449 63.0733 44.5228 63.2465 44.4659C63.4199 44.4093 63.6156 44.4165 63.7892 44.5058ZM69.1437 55.4234C70.9249 57.681 72.5295 60.0396 73.2503 63.0774V63.0776C73.3092 63.3248 73.4385 63.5004 73.6098 63.5963C73.7794 63.6913 73.9743 63.6993 74.1477 63.642C74.4985 63.5259 74.7668 63.1439 74.6473 62.6403C73.8852 59.4301 72.1852 56.9813 70.3475 54.6711C70.1117 54.8209 69.8278 54.9974 69.5302 55.1828C69.4031 55.262 69.2732 55.3426 69.1437 55.4234Z" fill="url(#paint64_linear_10334_34578)"/>
<path fill-rule="evenodd" clip-rule="evenodd" d="M39.7566 46.6527C39.8947 46.1914 39.6589 45.8347 39.3305 45.7256C39.1697 45.6721 38.9877 45.6791 38.8263 45.7631C38.6633 45.8481 38.5341 46.0051 38.467 46.2289C37.977 47.8716 37.2179 49.2933 36.3315 50.6162C36.6727 50.894 37.0144 51.1798 37.3472 51.4773C38.3455 50.0341 39.2132 48.4745 39.7566 46.6527ZM33.5745 56.3558C33.299 56.1619 32.897 55.9037 32.4685 55.6342C30.9572 57.6111 29.6006 59.7357 28.964 62.4527C28.8544 62.9202 29.0998 63.2781 29.4256 63.3872C29.5866 63.4413 29.7682 63.4337 29.926 63.3441C30.0854 63.2537 30.2043 63.0889 30.2582 62.8595C30.8563 60.305 32.1251 58.2731 33.5745 56.3558Z" fill="url(#paint65_linear_10334_34578)"/>
<defs>
<linearGradient id="paint0_linear_10334_34578" x1="43.023" y1="38.1936" x2="45.9232" y2="38.1936" gradientUnits="userSpaceOnUse">
<stop stop-color="#DCC2EC"/>
<stop offset="0.501875" stop-color="#93819E"/>
<stop offset="0.830053" stop-color="#DCC3ED"/>
</linearGradient>
<linearGradient id="paint1_linear_10334_34578" x1="55.3394" y1="38.4084" x2="58.2396" y2="38.4084" gradientUnits="userSpaceOnUse">
<stop stop-color="#DCC2EC"/>
<stop offset="0.501875" stop-color="#93819E"/>
<stop offset="0.830053" stop-color="#DCC3ED"/>
</linearGradient>
<linearGradient id="paint2_linear_10334_34578" x1="25.554" y1="26.1754" x2="72.7102" y2="26.1754" gradientUnits="userSpaceOnUse">
<stop stop-color="#DCC2EC"/>
<stop offset="0.501875" stop-color="#93819E"/>
<stop offset="0.830053" stop-color="#DCC3ED"/>
</linearGradient>
<linearGradient id="paint3_linear_10334_34578" x1="51.9452" y1="66.6937" x2="60.8878" y2="66.6937" gradientUnits="userSpaceOnUse">
<stop stop-color="#DCC2EC"/>
<stop offset="0.501875" stop-color="#93819E"/>
<stop offset="0.830053" stop-color="#DCC3ED"/>
</linearGradient>
<linearGradient id="paint4_linear_10334_34578" x1="51.9452" y1="66.6937" x2="60.8878" y2="66.6937" gradientUnits="userSpaceOnUse">
<stop stop-color="#DCC2EC"/>
<stop offset="0.501875" stop-color="#93819E"/>
<stop offset="0.830053" stop-color="#DCC3ED"/>
</linearGradient>
<linearGradient id="paint5_linear_10334_34578" x1="41.3284" y1="66.6937" x2="50.269" y2="66.6937" gradientUnits="userSpaceOnUse">
<stop stop-color="#DCC2EC"/>
<stop offset="0.501875" stop-color="#93819E"/>
<stop offset="0.830053" stop-color="#DCC3ED"/>
</linearGradient>
<linearGradient id="paint6_linear_10334_34578" x1="41.3284" y1="66.6937" x2="50.269" y2="66.6937" gradientUnits="userSpaceOnUse">
<stop stop-color="#DCC2EC"/>
<stop offset="0.501875" stop-color="#93819E"/>
<stop offset="0.830053" stop-color="#DCC3ED"/>
</linearGradient>
<linearGradient id="paint7_linear_10334_34578" x1="37.1865" y1="41.9353" x2="40.2347" y2="41.9353" gradientUnits="userSpaceOnUse">
<stop stop-color="#DCC2EC"/>
<stop offset="0.501875" stop-color="#93819E"/>
<stop offset="0.830053" stop-color="#DCC3ED"/>
</linearGradient>
<linearGradient id="paint8_linear_10334_34578" x1="37.1865" y1="41.9353" x2="40.2347" y2="41.9353" gradientUnits="userSpaceOnUse">
<stop stop-color="#DCC2EC"/>
<stop offset="0.501875" stop-color="#93819E"/>
<stop offset="0.830053" stop-color="#DCC3ED"/>
</linearGradient>
<linearGradient id="paint9_linear_10334_34578" x1="31.4747" y1="46.8891" x2="70.1713" y2="46.8891" gradientUnits="userSpaceOnUse">
<stop stop-color="#DCC2EC"/>
<stop offset="0.501875" stop-color="#93819E"/>
<stop offset="0.830053" stop-color="#DCC3ED"/>
</linearGradient>
<linearGradient id="paint10_linear_10334_34578" x1="31.4747" y1="46.8891" x2="70.1713" y2="46.8891" gradientUnits="userSpaceOnUse">
<stop stop-color="#DCC2EC"/>
<stop offset="0.501875" stop-color="#93819E"/>
<stop offset="0.830053" stop-color="#DCC3ED"/>
</linearGradient>
<linearGradient id="paint11_linear_10334_34578" x1="61.1195" y1="40.3537" x2="67.876" y2="40.3537" gradientUnits="userSpaceOnUse">
<stop stop-color="#DCC2EC"/>
<stop offset="0.501875" stop-color="#93819E"/>
<stop offset="0.830053" stop-color="#DCC3ED"/>
</linearGradient>
<linearGradient id="paint12_linear_10334_34578" x1="61.1195" y1="40.3537" x2="67.876" y2="40.3537" gradientUnits="userSpaceOnUse">
<stop stop-color="#DCC2EC"/>
<stop offset="0.501875" stop-color="#93819E"/>
<stop offset="0.830053" stop-color="#DCC3ED"/>
</linearGradient>
<linearGradient id="paint13_linear_10334_34578" x1="33.2251" y1="39.9654" x2="38.0763" y2="39.9654" gradientUnits="userSpaceOnUse">
<stop stop-color="#DCC2EC"/>
<stop offset="0.501875" stop-color="#93819E"/>
<stop offset="0.830053" stop-color="#DCC3ED"/>
</linearGradient>
<linearGradient id="paint14_linear_10334_34578" x1="33.2251" y1="39.9654" x2="38.0763" y2="39.9654" gradientUnits="userSpaceOnUse">
<stop stop-color="#DCC2EC"/>
<stop offset="0.501875" stop-color="#93819E"/>
<stop offset="0.830053" stop-color="#DCC3ED"/>
</linearGradient>
<linearGradient id="paint15_linear_10334_34578" x1="62.2159" y1="40.1222" x2="65.8741" y2="40.1222" gradientUnits="userSpaceOnUse">
<stop stop-color="#DCC2EC"/>
<stop offset="0.501875" stop-color="#93819E"/>
<stop offset="0.830053" stop-color="#DCC3ED"/>
</linearGradient>
<linearGradient id="paint16_linear_10334_34578" x1="62.2159" y1="40.1222" x2="65.8741" y2="40.1222" gradientUnits="userSpaceOnUse">
<stop stop-color="#DCC2EC"/>
<stop offset="0.501875" stop-color="#93819E"/>
<stop offset="0.830053" stop-color="#DCC3ED"/>
</linearGradient>
<linearGradient id="paint17_linear_10334_34578" x1="35.283" y1="39.1757" x2="39.4341" y2="39.1757" gradientUnits="userSpaceOnUse">
<stop stop-color="#DCC2EC"/>
<stop offset="0.501875" stop-color="#93819E"/>
<stop offset="0.830053" stop-color="#DCC3ED"/>
</linearGradient>
<linearGradient id="paint18_linear_10334_34578" x1="35.283" y1="39.1757" x2="39.4341" y2="39.1757" gradientUnits="userSpaceOnUse">
<stop stop-color="#DCC2EC"/>
<stop offset="0.501875" stop-color="#93819E"/>
<stop offset="0.830053" stop-color="#DCC3ED"/>
</linearGradient>
<linearGradient id="paint19_linear_10334_34578" x1="47.8152" y1="43.6893" x2="52.9548" y2="43.6893" gradientUnits="userSpaceOnUse">
<stop stop-color="#DCC2EC"/>
<stop offset="0.501875" stop-color="#93819E"/>
<stop offset="0.830053" stop-color="#DCC3ED"/>
</linearGradient>
<linearGradient id="paint20_linear_10334_34578" x1="47.8152" y1="43.6893" x2="52.9548" y2="43.6893" gradientUnits="userSpaceOnUse">
<stop stop-color="#DCC2EC"/>
<stop offset="0.501875" stop-color="#93819E"/>
<stop offset="0.830053" stop-color="#DCC3ED"/>
</linearGradient>
<linearGradient id="paint21_linear_10334_34578" x1="52.081" y1="37.7732" x2="62.0427" y2="37.7732" gradientUnits="userSpaceOnUse">
<stop stop-color="#DCC2EC"/>
<stop offset="0.501875" stop-color="#93819E"/>
<stop offset="0.830053" stop-color="#DCC3ED"/>
</linearGradient>
<linearGradient id="paint22_linear_10334_34578" x1="52.081" y1="37.7732" x2="62.0427" y2="37.7732" gradientUnits="userSpaceOnUse">
<stop stop-color="#DCC2EC"/>
<stop offset="0.501875" stop-color="#93819E"/>
<stop offset="0.830053" stop-color="#DCC3ED"/>
</linearGradient>
<linearGradient id="paint23_linear_10334_34578" x1="51.1626" y1="34.5191" x2="61.6234" y2="34.5191" gradientUnits="userSpaceOnUse">
<stop stop-color="#DCC2EC"/>
<stop offset="0.501875" stop-color="#93819E"/>
<stop offset="0.830053" stop-color="#DCC3ED"/>
</linearGradient>
<linearGradient id="paint24_linear_10334_34578" x1="51.1626" y1="34.5191" x2="61.6234" y2="34.5191" gradientUnits="userSpaceOnUse">
<stop stop-color="#DCC2EC"/>
<stop offset="0.501875" stop-color="#93819E"/>
<stop offset="0.830053" stop-color="#DCC3ED"/>
</linearGradient>
<linearGradient id="paint25_linear_10334_34578" x1="54.2698" y1="38.5507" x2="58.9049" y2="38.5507" gradientUnits="userSpaceOnUse">
<stop stop-color="#DCC2EC"/>
<stop offset="0.501875" stop-color="#93819E"/>
<stop offset="0.830053" stop-color="#DCC3ED"/>
</linearGradient>
<linearGradient id="paint26_linear_10334_34578" x1="54.2698" y1="38.5507" x2="58.9049" y2="38.5507" gradientUnits="userSpaceOnUse">
<stop stop-color="#DCC2EC"/>
<stop offset="0.501875" stop-color="#93819E"/>
<stop offset="0.830053" stop-color="#DCC3ED"/>
</linearGradient>
<linearGradient id="paint27_linear_10334_34578" x1="38.7258" y1="37.5658" x2="48.6862" y2="37.5658" gradientUnits="userSpaceOnUse">
<stop stop-color="#DCC2EC"/>
<stop offset="0.501875" stop-color="#93819E"/>
<stop offset="0.830053" stop-color="#DCC3ED"/>
</linearGradient>
<linearGradient id="paint28_linear_10334_34578" x1="38.7258" y1="37.5658" x2="48.6862" y2="37.5658" gradientUnits="userSpaceOnUse">
<stop stop-color="#DCC2EC"/>
<stop offset="0.501875" stop-color="#93819E"/>
<stop offset="0.830053" stop-color="#DCC3ED"/>
</linearGradient>
<linearGradient id="paint29_linear_10334_34578" x1="39.1316" y1="34.3043" x2="49.5909" y2="34.3043" gradientUnits="userSpaceOnUse">
<stop stop-color="#DCC2EC"/>
<stop offset="0.501875" stop-color="#93819E"/>
<stop offset="0.830053" stop-color="#DCC3ED"/>
</linearGradient>
<linearGradient id="paint30_linear_10334_34578" x1="39.1316" y1="34.3043" x2="49.5909" y2="34.3043" gradientUnits="userSpaceOnUse">
<stop stop-color="#DCC2EC"/>
<stop offset="0.501875" stop-color="#93819E"/>
<stop offset="0.830053" stop-color="#DCC3ED"/>
</linearGradient>
<linearGradient id="paint31_linear_10334_34578" x1="42.0315" y1="38.3356" x2="46.6668" y2="38.3356" gradientUnits="userSpaceOnUse">
<stop stop-color="#DCC2EC"/>
<stop offset="0.501875" stop-color="#93819E"/>
<stop offset="0.830053" stop-color="#DCC3ED"/>
</linearGradient>
<linearGradient id="paint32_linear_10334_34578" x1="42.0315" y1="38.3356" x2="46.6668" y2="38.3356" gradientUnits="userSpaceOnUse">
<stop stop-color="#DCC2EC"/>
<stop offset="0.501875" stop-color="#93819E"/>
<stop offset="0.830053" stop-color="#DCC3ED"/>
</linearGradient>
<linearGradient id="paint33_linear_10334_34578" x1="49.1356" y1="30.722" x2="65.8457" y2="30.722" gradientUnits="userSpaceOnUse">
<stop stop-color="#DCC2EC"/>
<stop offset="0.501875" stop-color="#93819E"/>
<stop offset="0.830053" stop-color="#DCC3ED"/>
</linearGradient>
<linearGradient id="paint34_linear_10334_34578" x1="49.1356" y1="30.722" x2="65.8457" y2="30.722" gradientUnits="userSpaceOnUse">
<stop stop-color="#DCC2EC"/>
<stop offset="0.501875" stop-color="#93819E"/>
<stop offset="0.830053" stop-color="#DCC3ED"/>
</linearGradient>
<linearGradient id="paint35_linear_10334_34578" x1="50.2122" y1="22.2437" x2="52.1927" y2="22.2437" gradientUnits="userSpaceOnUse">
<stop stop-color="#DCC2EC"/>
<stop offset="0.501875" stop-color="#93819E"/>
<stop offset="0.830053" stop-color="#DCC3ED"/>
</linearGradient>
<linearGradient id="paint36_linear_10334_34578" x1="50.2122" y1="22.2437" x2="52.1927" y2="22.2437" gradientUnits="userSpaceOnUse">
<stop stop-color="#DCC2EC"/>
<stop offset="0.501875" stop-color="#93819E"/>
<stop offset="0.830053" stop-color="#DCC3ED"/>
</linearGradient>
<linearGradient id="paint37_linear_10334_34578" x1="47.9812" y1="26.6888" x2="70.5808" y2="26.6888" gradientUnits="userSpaceOnUse">
<stop stop-color="#DCC2EC"/>
<stop offset="0.501875" stop-color="#93819E"/>
<stop offset="0.830053" stop-color="#DCC3ED"/>
</linearGradient>
<linearGradient id="paint38_linear_10334_34578" x1="47.9812" y1="26.6888" x2="70.5808" y2="26.6888" gradientUnits="userSpaceOnUse">
<stop stop-color="#DCC2EC"/>
<stop offset="0.501875" stop-color="#93819E"/>
<stop offset="0.830053" stop-color="#DCC3ED"/>
</linearGradient>
<linearGradient id="paint39_linear_10334_34578" x1="28.4007" y1="26.1821" x2="55.5458" y2="26.1821" gradientUnits="userSpaceOnUse">
<stop stop-color="#DCC2EC"/>
<stop offset="0.501875" stop-color="#93819E"/>
<stop offset="0.830053" stop-color="#DCC3ED"/>
</linearGradient>
<linearGradient id="paint40_linear_10334_34578" x1="28.4007" y1="26.1821" x2="55.5458" y2="26.1821" gradientUnits="userSpaceOnUse">
<stop stop-color="#DCC2EC"/>
<stop offset="0.501875" stop-color="#93819E"/>
<stop offset="0.830053" stop-color="#DCC3ED"/>
</linearGradient>
<linearGradient id="paint41_linear_10334_34578" x1="33.1334" y1="30.3148" x2="53.4361" y2="30.3148" gradientUnits="userSpaceOnUse">
<stop stop-color="#DCC2EC"/>
<stop offset="0.501875" stop-color="#93819E"/>
<stop offset="0.830053" stop-color="#DCC3ED"/>
</linearGradient>
<linearGradient id="paint42_linear_10334_34578" x1="33.1334" y1="30.3148" x2="53.4361" y2="30.3148" gradientUnits="userSpaceOnUse">
<stop stop-color="#DCC2EC"/>
<stop offset="0.501875" stop-color="#93819E"/>
<stop offset="0.830053" stop-color="#DCC3ED"/>
</linearGradient>
<linearGradient id="paint43_linear_10334_34578" x1="42.6075" y1="48.3144" x2="57.7486" y2="48.3144" gradientUnits="userSpaceOnUse">
<stop stop-color="#DCC2EC"/>
<stop offset="0.501875" stop-color="#93819E"/>
<stop offset="0.830053" stop-color="#DCC3ED"/>
</linearGradient>
<linearGradient id="paint44_linear_10334_34578" x1="42.6075" y1="48.3144" x2="57.7486" y2="48.3144" gradientUnits="userSpaceOnUse">
<stop stop-color="#DCC2EC"/>
<stop offset="0.501875" stop-color="#93819E"/>
<stop offset="0.830053" stop-color="#DCC3ED"/>
</linearGradient>
<linearGradient id="paint45_linear_10334_34578" x1="44.7463" y1="48.6993" x2="55.7364" y2="48.6993" gradientUnits="userSpaceOnUse">
<stop stop-color="#DCC2EC"/>
<stop offset="0.501875" stop-color="#93819E"/>
<stop offset="0.830053" stop-color="#DCC3ED"/>
</linearGradient>
<linearGradient id="paint46_linear_10334_34578" x1="44.7463" y1="48.6993" x2="55.7364" y2="48.6993" gradientUnits="userSpaceOnUse">
<stop stop-color="#DCC2EC"/>
<stop offset="0.501875" stop-color="#93819E"/>
<stop offset="0.830053" stop-color="#DCC3ED"/>
</linearGradient>
<linearGradient id="paint47_linear_10334_34578" x1="33.7329" y1="26.7588" x2="46.1602" y2="26.7588" gradientUnits="userSpaceOnUse">
<stop stop-color="#DCC2EC"/>
<stop offset="0.501875" stop-color="#93819E"/>
<stop offset="0.830053" stop-color="#DCC3ED"/>
</linearGradient>
<linearGradient id="paint48_linear_10334_34578" x1="33.7329" y1="26.7588" x2="46.1602" y2="26.7588" gradientUnits="userSpaceOnUse">
<stop stop-color="#DCC2EC"/>
<stop offset="0.501875" stop-color="#93819E"/>
<stop offset="0.830053" stop-color="#DCC3ED"/>
</linearGradient>
<linearGradient id="paint49_linear_10334_34578" x1="61.3248" y1="31.1008" x2="65.2131" y2="31.1008" gradientUnits="userSpaceOnUse">
<stop stop-color="#DCC2EC"/>
<stop offset="0.501875" stop-color="#93819E"/>
<stop offset="0.830053" stop-color="#DCC3ED"/>
</linearGradient>
<linearGradient id="paint50_linear_10334_34578" x1="61.3248" y1="31.1008" x2="65.2131" y2="31.1008" gradientUnits="userSpaceOnUse">
<stop stop-color="#DCC2EC"/>
<stop offset="0.501875" stop-color="#93819E"/>
<stop offset="0.830053" stop-color="#DCC3ED"/>
</linearGradient>
<linearGradient id="paint51_linear_10334_34578" x1="19.0863" y1="77.2536" x2="80.478" y2="77.2536" gradientUnits="userSpaceOnUse">
<stop stop-color="#DCC2EC"/>
<stop offset="0.501875" stop-color="#93819E"/>
<stop offset="0.830053" stop-color="#DCC3ED"/>
</linearGradient>
<linearGradient id="paint52_linear_10334_34578" x1="19.0863" y1="77.2536" x2="80.478" y2="77.2536" gradientUnits="userSpaceOnUse">
<stop stop-color="#DCC2EC"/>
<stop offset="0.501875" stop-color="#93819E"/>
<stop offset="0.830053" stop-color="#DCC3ED"/>
</linearGradient>
<linearGradient id="paint53_linear_10334_34578" x1="14.4224" y1="62.4633" x2="49.8153" y2="62.4633" gradientUnits="userSpaceOnUse">
<stop stop-color="#DCC2EC"/>
<stop offset="0.501875" stop-color="#93819E"/>
<stop offset="0.830053" stop-color="#DCC3ED"/>
</linearGradient>
<linearGradient id="paint54_linear_10334_34578" x1="14.4224" y1="62.4633" x2="49.8153" y2="62.4633" gradientUnits="userSpaceOnUse">
<stop stop-color="#DCC2EC"/>
<stop offset="0.501875" stop-color="#93819E"/>
<stop offset="0.830053" stop-color="#DCC3ED"/>
</linearGradient>
<linearGradient id="paint55_linear_10334_34578" x1="50.5494" y1="62.3113" x2="85.952" y2="62.3113" gradientUnits="userSpaceOnUse">
<stop stop-color="#DCC2EC"/>
<stop offset="0.501875" stop-color="#93819E"/>
<stop offset="0.830053" stop-color="#DCC3ED"/>
</linearGradient>
<linearGradient id="paint56_linear_10334_34578" x1="50.5494" y1="62.3113" x2="85.952" y2="62.3113" gradientUnits="userSpaceOnUse">
<stop stop-color="#DCC2EC"/>
<stop offset="0.501875" stop-color="#93819E"/>
<stop offset="0.830053" stop-color="#DCC3ED"/>
</linearGradient>
<linearGradient id="paint57_linear_10334_34578" x1="60.8564" y1="50.2068" x2="74.8232" y2="50.2068" gradientUnits="userSpaceOnUse">
<stop stop-color="#DCC2EC"/>
<stop offset="0.501875" stop-color="#93819E"/>
<stop offset="0.830053" stop-color="#DCC3ED"/>
</linearGradient>
<linearGradient id="paint58_linear_10334_34578" x1="65.2702" y1="46.9438" x2="76.2577" y2="46.9438" gradientUnits="userSpaceOnUse">
<stop stop-color="#DCC2EC"/>
<stop offset="0.501875" stop-color="#93819E"/>
<stop offset="0.830053" stop-color="#DCC3ED"/>
</linearGradient>
<linearGradient id="paint59_linear_10334_34578" x1="26.0166" y1="50.2068" x2="39.9833" y2="50.2068" gradientUnits="userSpaceOnUse">
<stop stop-color="#DCC2EC"/>
<stop offset="0.501875" stop-color="#93819E"/>
<stop offset="0.830053" stop-color="#DCC3ED"/>
</linearGradient>
<linearGradient id="paint60_linear_10334_34578" x1="24.6726" y1="46.9438" x2="35.6598" y2="46.9438" gradientUnits="userSpaceOnUse">
<stop stop-color="#DCC2EC"/>
<stop offset="0.501875" stop-color="#93819E"/>
<stop offset="0.830053" stop-color="#DCC3ED"/>
</linearGradient>
<linearGradient id="paint61_linear_10334_34578" x1="-27.3384" y1="49.3526" x2="122.081" y2="49.3526" gradientUnits="userSpaceOnUse">
<stop stop-color="#DCC2EC"/>
<stop offset="0.501875" stop-color="#93819E"/>
<stop offset="0.830053" stop-color="#DCC3ED"/>
</linearGradient>
<linearGradient id="paint62_linear_10334_34578" x1="24.6048" y1="55.6556" x2="47.7705" y2="55.6556" gradientUnits="userSpaceOnUse">
<stop stop-color="#DCC2EC"/>
<stop offset="0.501875" stop-color="#93819E"/>
<stop offset="0.830053" stop-color="#DCC3ED"/>
</linearGradient>
<linearGradient id="paint63_linear_10334_34578" x1="53.1317" y1="54.9133" x2="78.6802" y2="54.9133" gradientUnits="userSpaceOnUse">
<stop stop-color="#DCC2EC"/>
<stop offset="0.501875" stop-color="#93819E"/>
<stop offset="0.830053" stop-color="#DCC3ED"/>
</linearGradient>
<linearGradient id="paint64_linear_10334_34578" x1="59.297" y1="53.9599" x2="77.5531" y2="53.9599" gradientUnits="userSpaceOnUse">
<stop stop-color="#DCC2EC"/>
<stop offset="0.501875" stop-color="#93819E"/>
<stop offset="0.830053" stop-color="#DCC3ED"/>
</linearGradient>
<linearGradient id="paint65_linear_10334_34578" x1="25.8025" y1="54.4697" x2="42.4147" y2="54.4697" gradientUnits="userSpaceOnUse">
<stop stop-color="#DCC2EC"/>
<stop offset="0.501875" stop-color="#93819E"/>
<stop offset="0.830053" stop-color="#DCC3ED"/>
</linearGradient>
</defs>
</svg>
