<svg width="102" height="103" viewBox="0 0 102 103" fill="none" xmlns="http://www.w3.org/2000/svg">
<path d="M99.4047 51C99.4047 78.16 77.5567 100.167 50.619 100.167C23.6814 100.167 1.83333 78.16 1.83333 51C1.83333 23.8401 23.6814 1.83333 50.619 1.83333C77.5567 1.83333 99.4047 23.8401 99.4047 51Z" fill="white" stroke="url(#paint0_linear_10334_34452)" stroke-width="1.66667"/>
<path d="M34.1327 73.9529C36.1909 73.9529 37.8592 72.2844 37.8592 70.2265C37.8592 68.1683 36.1909 66.5 34.1327 66.5C32.0746 66.5 30.4062 68.1683 30.4062 70.2265C30.4062 72.2844 32.0746 73.9529 34.1327 73.9529Z" stroke="url(#paint1_linear_10334_34452)" stroke-width="1.18056" stroke-miterlimit="10" stroke-linecap="round" stroke-linejoin="round"/>
<path d="M45.3124 72.4647C47.3706 72.4647 49.0391 70.7963 49.0391 68.7382C49.0391 66.68 47.3706 65.0117 45.3124 65.0117C43.2542 65.0117 41.5859 66.68 41.5859 68.7382C41.5859 70.7963 43.2542 72.4647 45.3124 72.4647Z" stroke="url(#paint2_linear_10334_34452)" stroke-width="1.18056" stroke-miterlimit="10" stroke-linecap="round" stroke-linejoin="round"/>
<path d="M35.6251 62.0313C37.6833 62.0313 39.3516 60.3627 39.3516 58.3048C39.3516 56.2466 37.6833 54.5781 35.6251 54.5781C33.567 54.5781 31.8984 56.2466 31.8984 58.3048C31.8984 60.3627 33.567 62.0313 35.6251 62.0313Z" stroke="url(#paint3_linear_10334_34452)" stroke-width="1.18056" stroke-miterlimit="10" stroke-linecap="round" stroke-linejoin="round"/>
<path d="M44.5665 56.0662C46.6247 56.0662 48.293 54.3977 48.293 52.3397C48.293 50.2816 46.6247 48.6133 44.5665 48.6133C42.5084 48.6133 40.8398 50.2816 40.8398 52.3397C40.8398 54.3977 42.5084 56.0662 44.5665 56.0662Z" stroke="url(#paint4_linear_10334_34452)" stroke-width="1.18056" stroke-miterlimit="10" stroke-linecap="round" stroke-linejoin="round"/>
<path d="M52.0196 63.5195C54.0778 63.5195 55.7461 61.851 55.7461 59.7929C55.7461 57.7347 54.0778 56.0664 52.0196 56.0664C49.9615 56.0664 48.293 57.7347 48.293 59.7929C48.293 61.851 49.9615 63.5195 52.0196 63.5195Z" stroke="url(#paint5_linear_10334_34452)" stroke-width="1.18056" stroke-miterlimit="10" stroke-linecap="round" stroke-linejoin="round"/>
<path d="M58.7304 71.7188C60.7887 71.7188 62.457 70.0502 62.457 67.9921C62.457 65.9339 60.7887 64.2656 58.7304 64.2656C56.6724 64.2656 55.0039 65.9339 55.0039 67.9921C55.0039 70.0502 56.6724 71.7188 58.7304 71.7188Z" stroke="url(#paint6_linear_10334_34452)" stroke-width="1.18056" stroke-miterlimit="10" stroke-linecap="round" stroke-linejoin="round"/>
<path d="M52.0196 82.1524C54.0778 82.1524 55.7461 80.4838 55.7461 78.4257C55.7461 76.3675 54.0778 74.6992 52.0196 74.6992C49.9615 74.6992 48.293 76.3675 48.293 78.4257C48.293 80.4838 49.9615 82.1524 52.0196 82.1524Z" stroke="url(#paint7_linear_10334_34452)" stroke-width="1.18056" stroke-miterlimit="10" stroke-linecap="round" stroke-linejoin="round"/>
<path d="M36.371 49.3594C38.4292 49.3594 40.0977 47.6911 40.0977 45.6329C40.0977 43.5748 38.4292 41.9062 36.371 41.9062C34.3128 41.9062 32.6445 43.5748 32.6445 45.6329C32.6445 47.6911 34.3128 49.3594 36.371 49.3594Z" stroke="url(#paint8_linear_10334_34452)" stroke-width="1.18056" stroke-miterlimit="10" stroke-linecap="round" stroke-linejoin="round"/>
<path d="M25.9337 55.3242C27.9917 55.3242 29.6602 53.6557 29.6602 51.5978C29.6602 49.5396 27.9917 47.8711 25.9337 47.8711C23.8755 47.8711 22.207 49.5396 22.207 51.5978C22.207 53.6557 23.8755 55.3242 25.9337 55.3242Z" stroke="url(#paint9_linear_10334_34452)" stroke-width="1.18056" stroke-miterlimit="10" stroke-linecap="round" stroke-linejoin="round"/>
<path d="M45.3124 39.6719C47.3706 39.6719 49.0391 38.0034 49.0391 35.9452C49.0391 33.8871 47.3706 32.2188 45.3124 32.2188C43.2542 32.2188 41.5859 33.8871 41.5859 35.9452C41.5859 38.0034 43.2542 39.6719 45.3124 39.6719Z" stroke="url(#paint10_linear_10334_34452)" stroke-width="1.18056" stroke-miterlimit="10" stroke-linecap="round" stroke-linejoin="round"/>
<path d="M52.0196 29.9805C54.0778 29.9805 55.7461 28.3122 55.7461 26.254C55.7461 24.1959 54.0778 22.5273 52.0196 22.5273C49.9615 22.5273 48.293 24.1959 48.293 26.254C48.293 28.3122 49.9615 29.9805 52.0196 29.9805Z" stroke="url(#paint11_linear_10334_34452)" stroke-width="1.18056" stroke-miterlimit="10" stroke-linecap="round" stroke-linejoin="round"/>
<path d="M58.7304 39.6719C60.7887 39.6719 62.457 38.0034 62.457 35.9452C62.457 33.8871 60.7887 32.2188 58.7304 32.2188C56.6724 32.2188 55.0039 33.8871 55.0039 35.9452C55.0039 38.0034 56.6724 39.6719 58.7304 39.6719Z" stroke="url(#paint12_linear_10334_34452)" stroke-width="1.18056" stroke-miterlimit="10" stroke-linecap="round" stroke-linejoin="round"/>
<path d="M70.6525 37.4336C72.7104 37.4336 74.3789 35.7651 74.3789 33.7069C74.3789 31.649 72.7104 29.9805 70.6525 29.9805C68.5943 29.9805 66.9258 31.649 66.9258 33.7069C66.9258 35.7651 68.5943 37.4336 70.6525 37.4336Z" stroke="url(#paint13_linear_10334_34452)" stroke-width="1.18056" stroke-miterlimit="10" stroke-linecap="round" stroke-linejoin="round"/>
<path d="M59.4726 55.3242C61.5307 55.3242 63.1992 53.6557 63.1992 51.5978C63.1992 49.5396 61.5307 47.8711 59.4726 47.8711C57.4144 47.8711 55.7461 49.5396 55.7461 51.5978C55.7461 53.6557 57.4144 55.3242 59.4726 55.3242Z" stroke="url(#paint14_linear_10334_34452)" stroke-width="1.18056" stroke-miterlimit="10" stroke-linecap="round" stroke-linejoin="round"/>
<path d="M68.4142 49.3594C70.4723 49.3594 72.1406 47.6911 72.1406 45.6329C72.1406 43.5748 70.4723 41.9062 68.4142 41.9062C66.356 41.9062 64.6875 43.5748 64.6875 45.6329C64.6875 47.6911 66.356 49.3594 68.4142 49.3594Z" stroke="url(#paint15_linear_10334_34452)" stroke-width="1.18056" stroke-miterlimit="10" stroke-linecap="round" stroke-linejoin="round"/>
<path d="M78.1054 56.0662C80.1633 56.0662 81.8318 54.3977 81.8318 52.3397C81.8318 50.2816 80.1633 48.6133 78.1054 48.6133C76.0472 48.6133 74.3789 50.2816 74.3789 52.3397C74.3789 54.3977 76.0472 56.0662 78.1054 56.0662Z" stroke="url(#paint16_linear_10334_34452)" stroke-width="1.18056" stroke-miterlimit="10" stroke-linecap="round" stroke-linejoin="round"/>
<path d="M68.4142 62.7772C70.4723 62.7772 72.1406 61.1088 72.1406 59.0507C72.1406 56.9925 70.4723 55.3242 68.4142 55.3242C66.356 55.3242 64.6875 56.9925 64.6875 59.0507C64.6875 61.1088 66.356 62.7772 68.4142 62.7772Z" stroke="url(#paint17_linear_10334_34452)" stroke-width="1.18056" stroke-miterlimit="10" stroke-linecap="round" stroke-linejoin="round"/>
<path d="M70.1251 74.4178C72.1833 74.4178 73.8516 72.7495 73.8516 70.6913C73.8516 68.6332 72.1833 66.9648 70.1251 66.9648C68.0669 66.9648 66.3984 68.6332 66.3984 70.6913C66.3984 72.7495 68.0669 74.4178 70.1251 74.4178Z" stroke="url(#paint18_linear_10334_34452)" stroke-width="1.18056" stroke-miterlimit="10" stroke-linecap="round" stroke-linejoin="round"/>
<path d="M52.0196 47.8672C54.0778 47.8672 55.7461 46.1987 55.7461 44.1407C55.7461 42.0826 54.0778 40.4141 52.0196 40.4141C49.9615 40.4141 48.293 42.0826 48.293 44.1407C48.293 46.1987 49.9615 47.8672 52.0196 47.8672Z" stroke="url(#paint19_linear_10334_34452)" stroke-width="1.18056" stroke-miterlimit="10" stroke-linecap="round" stroke-linejoin="round"/>
<path d="M33.3868 37.4336C35.445 37.4336 37.1133 35.7651 37.1133 33.7069C37.1133 31.649 35.445 29.9805 33.3868 29.9805C31.3287 29.9805 29.6602 31.649 29.6602 33.7069C29.6602 35.7651 31.3287 37.4336 33.3868 37.4336Z" stroke="url(#paint20_linear_10334_34452)" stroke-width="1.18056" stroke-miterlimit="10" stroke-linecap="round" stroke-linejoin="round"/>
<path d="M43.2755 37.9164C44.155 38.6359 45.4218 38.6516 46.5187 38.7909C47.0593 38.5206 47.5398 38.0286 47.5398 37.3821V36.621C47.5398 36.3242 47.3794 36.0845 47.3696 35.7842C47.3535 35.2915 47.2899 34.3874 46.7739 34.1295C46.4522 33.9686 45.6838 34.1216 45.3747 34.1958C44.9171 34.3052 43.831 34.4327 43.5403 34.848C43.1731 35.3725 43.115 35.9121 43.115 36.531C43.115 36.9025 42.9632 37.6608 43.2755 37.9164Z" fill="#F1A4B3" fill-opacity="0.18"/>
<path d="M34.3342 59.7951C35.2139 60.5148 36.4805 60.5305 37.5774 60.6698C38.118 60.3993 38.5985 59.9075 38.5985 59.261V58.4999C38.5985 58.2031 38.4381 57.9636 38.4283 57.6631C38.4122 57.1704 38.3486 56.2663 37.8326 56.0084C37.5107 55.8475 36.7425 56.0005 36.4334 56.0745C35.9758 56.1841 34.8897 56.3116 34.599 56.7269C34.2318 57.2514 34.1735 57.791 34.1735 58.4099C34.1735 58.7812 34.0219 59.5397 34.3342 59.7951Z" fill="#F1A4B3" fill-opacity="0.18"/>
<path d="M57.4397 53.0882C58.3192 53.8077 59.586 53.8234 60.6827 53.9628C61.2235 53.6925 61.7039 53.2004 61.7039 52.5539V51.7928C61.7039 51.496 61.5436 51.2565 61.5338 50.956C61.5175 50.4636 61.4538 49.5592 60.9381 49.3014C60.6162 49.1404 59.8479 49.2936 59.5387 49.3677C59.0813 49.4772 57.9952 49.6047 57.7045 50.0201C57.3373 50.5443 57.279 51.0839 57.279 51.7031C57.279 52.0743 57.1274 52.8326 57.4397 53.0882Z" fill="#F1A4B3" fill-opacity="0.18"/>
<path d="M57.4397 37.4357C58.3192 38.1554 59.586 38.1711 60.6827 38.3105C61.2235 38.04 61.7039 37.5481 61.7039 36.9016V36.1405C61.7039 35.8437 61.5436 35.6042 61.5338 35.3037C61.5175 34.8111 61.4538 33.9069 60.9381 33.6491C60.6162 33.4881 59.8479 33.6411 59.5387 33.7152C59.0813 33.8247 57.9952 33.9522 57.7045 34.3676C57.3373 34.892 57.279 35.4316 57.279 36.0506C57.279 36.4218 57.1274 37.1803 57.4397 37.4357Z" fill="#F1A4B3" fill-opacity="0.18"/>
<path d="M44.0295 70.2287C44.9091 70.9484 46.176 70.9641 47.2727 71.1034C47.8135 70.8329 48.2939 70.3411 48.2939 69.6944V68.9335C48.2939 68.6367 48.1335 68.3972 48.1236 68.0967C48.1074 67.604 48.0438 66.6999 47.5279 66.442C47.2062 66.2811 46.4379 66.4341 46.1286 66.5081C45.6711 66.6177 44.585 66.7452 44.2943 67.1605C43.9273 67.685 43.8687 68.2246 43.8687 68.8435C43.8687 69.2148 43.7174 69.9733 44.0295 70.2287Z" fill="#F1A4B3" fill-opacity="0.18"/>
<defs>
<linearGradient id="paint0_linear_10334_34452" x1="-27.6491" y1="50.5117" x2="124.162" y2="50.5117" gradientUnits="userSpaceOnUse">
<stop stop-color="#DCC2EC"/>
<stop offset="0.501875" stop-color="#93819E"/>
<stop offset="0.830053" stop-color="#DCC3ED"/>
</linearGradient>
<linearGradient id="paint1_linear_10334_34452" x1="28.2547" y1="70.1901" x2="39.6559" y2="70.1901" gradientUnits="userSpaceOnUse">
<stop stop-color="#DCC2EC"/>
<stop offset="0.501875" stop-color="#93819E"/>
<stop offset="0.830053" stop-color="#DCC3ED"/>
</linearGradient>
<linearGradient id="paint2_linear_10334_34452" x1="39.4343" y1="68.7018" x2="50.8358" y2="68.7018" gradientUnits="userSpaceOnUse">
<stop stop-color="#DCC2EC"/>
<stop offset="0.501875" stop-color="#93819E"/>
<stop offset="0.830053" stop-color="#DCC3ED"/>
</linearGradient>
<linearGradient id="paint3_linear_10334_34452" x1="29.7468" y1="58.2683" x2="41.1483" y2="58.2683" gradientUnits="userSpaceOnUse">
<stop stop-color="#DCC2EC"/>
<stop offset="0.501875" stop-color="#93819E"/>
<stop offset="0.830053" stop-color="#DCC3ED"/>
</linearGradient>
<linearGradient id="paint4_linear_10334_34452" x1="38.6882" y1="52.3034" x2="50.0897" y2="52.3034" gradientUnits="userSpaceOnUse">
<stop stop-color="#DCC2EC"/>
<stop offset="0.501875" stop-color="#93819E"/>
<stop offset="0.830053" stop-color="#DCC3ED"/>
</linearGradient>
<linearGradient id="paint5_linear_10334_34452" x1="46.1413" y1="59.7566" x2="57.5429" y2="59.7566" gradientUnits="userSpaceOnUse">
<stop stop-color="#DCC2EC"/>
<stop offset="0.501875" stop-color="#93819E"/>
<stop offset="0.830053" stop-color="#DCC3ED"/>
</linearGradient>
<linearGradient id="paint6_linear_10334_34452" x1="52.8523" y1="67.9558" x2="64.2538" y2="67.9558" gradientUnits="userSpaceOnUse">
<stop stop-color="#DCC2EC"/>
<stop offset="0.501875" stop-color="#93819E"/>
<stop offset="0.830053" stop-color="#DCC3ED"/>
</linearGradient>
<linearGradient id="paint7_linear_10334_34452" x1="46.1413" y1="78.3894" x2="57.5429" y2="78.3894" gradientUnits="userSpaceOnUse">
<stop stop-color="#DCC2EC"/>
<stop offset="0.501875" stop-color="#93819E"/>
<stop offset="0.830053" stop-color="#DCC3ED"/>
</linearGradient>
<linearGradient id="paint8_linear_10334_34452" x1="30.4929" y1="45.5964" x2="41.8944" y2="45.5964" gradientUnits="userSpaceOnUse">
<stop stop-color="#DCC2EC"/>
<stop offset="0.501875" stop-color="#93819E"/>
<stop offset="0.830053" stop-color="#DCC3ED"/>
</linearGradient>
<linearGradient id="paint9_linear_10334_34452" x1="20.0554" y1="51.5613" x2="31.4569" y2="51.5613" gradientUnits="userSpaceOnUse">
<stop stop-color="#DCC2EC"/>
<stop offset="0.501875" stop-color="#93819E"/>
<stop offset="0.830053" stop-color="#DCC3ED"/>
</linearGradient>
<linearGradient id="paint10_linear_10334_34452" x1="39.4343" y1="35.9089" x2="50.8358" y2="35.9089" gradientUnits="userSpaceOnUse">
<stop stop-color="#DCC2EC"/>
<stop offset="0.501875" stop-color="#93819E"/>
<stop offset="0.830053" stop-color="#DCC3ED"/>
</linearGradient>
<linearGradient id="paint11_linear_10334_34452" x1="46.1413" y1="26.2175" x2="57.5429" y2="26.2175" gradientUnits="userSpaceOnUse">
<stop stop-color="#DCC2EC"/>
<stop offset="0.501875" stop-color="#93819E"/>
<stop offset="0.830053" stop-color="#DCC3ED"/>
</linearGradient>
<linearGradient id="paint12_linear_10334_34452" x1="52.8523" y1="35.9089" x2="64.2538" y2="35.9089" gradientUnits="userSpaceOnUse">
<stop stop-color="#DCC2EC"/>
<stop offset="0.501875" stop-color="#93819E"/>
<stop offset="0.830053" stop-color="#DCC3ED"/>
</linearGradient>
<linearGradient id="paint13_linear_10334_34452" x1="64.7741" y1="33.6706" x2="76.1757" y2="33.6706" gradientUnits="userSpaceOnUse">
<stop stop-color="#DCC2EC"/>
<stop offset="0.501875" stop-color="#93819E"/>
<stop offset="0.830053" stop-color="#DCC3ED"/>
</linearGradient>
<linearGradient id="paint14_linear_10334_34452" x1="53.5944" y1="51.5613" x2="64.996" y2="51.5613" gradientUnits="userSpaceOnUse">
<stop stop-color="#DCC2EC"/>
<stop offset="0.501875" stop-color="#93819E"/>
<stop offset="0.830053" stop-color="#DCC3ED"/>
</linearGradient>
<linearGradient id="paint15_linear_10334_34452" x1="62.5358" y1="45.5964" x2="73.9374" y2="45.5964" gradientUnits="userSpaceOnUse">
<stop stop-color="#DCC2EC"/>
<stop offset="0.501875" stop-color="#93819E"/>
<stop offset="0.830053" stop-color="#DCC3ED"/>
</linearGradient>
<linearGradient id="paint16_linear_10334_34452" x1="72.2273" y1="52.3034" x2="83.6285" y2="52.3034" gradientUnits="userSpaceOnUse">
<stop stop-color="#DCC2EC"/>
<stop offset="0.501875" stop-color="#93819E"/>
<stop offset="0.830053" stop-color="#DCC3ED"/>
</linearGradient>
<linearGradient id="paint17_linear_10334_34452" x1="62.5358" y1="59.0143" x2="73.9374" y2="59.0143" gradientUnits="userSpaceOnUse">
<stop stop-color="#DCC2EC"/>
<stop offset="0.501875" stop-color="#93819E"/>
<stop offset="0.830053" stop-color="#DCC3ED"/>
</linearGradient>
<linearGradient id="paint18_linear_10334_34452" x1="64.2468" y1="70.6549" x2="75.6483" y2="70.6549" gradientUnits="userSpaceOnUse">
<stop stop-color="#DCC2EC"/>
<stop offset="0.501875" stop-color="#93819E"/>
<stop offset="0.830053" stop-color="#DCC3ED"/>
</linearGradient>
<linearGradient id="paint19_linear_10334_34452" x1="46.1413" y1="44.1042" x2="57.5429" y2="44.1042" gradientUnits="userSpaceOnUse">
<stop stop-color="#DCC2EC"/>
<stop offset="0.501875" stop-color="#93819E"/>
<stop offset="0.830053" stop-color="#DCC3ED"/>
</linearGradient>
<linearGradient id="paint20_linear_10334_34452" x1="27.5085" y1="33.6706" x2="38.91" y2="33.6706" gradientUnits="userSpaceOnUse">
<stop stop-color="#DCC2EC"/>
<stop offset="0.501875" stop-color="#93819E"/>
<stop offset="0.830053" stop-color="#DCC3ED"/>
</linearGradient>
</defs>
</svg>
