<svg width="256" height="32" viewBox="0 0 256 32" fill="none" xmlns="http://www.w3.org/2000/svg">
<path d="M213.512 8.29688C208.504 8.29688 205.385 11.5683 205.385 16.8529C205.385 21.8858 208.913 25.3931 213.984 25.3931C216.394 25.3931 218.709 24.3708 220.032 22.7352L220.19 22.5307C220.316 22.3734 220.3 22.1375 220.158 21.9802L219.575 21.3825C219.496 21.3039 219.386 21.2567 219.276 21.2567C219.166 21.2567 219.056 21.3196 218.977 21.3982L218.788 21.6184C217.701 22.861 215.874 23.6474 214.016 23.6474C209.953 23.6474 207.417 21.241 207.165 17.1675H220.52C220.741 17.1675 220.93 16.9787 220.93 16.7585V16.4754C220.93 16.3496 220.93 16.2395 220.946 16.1137C220.961 15.9722 220.961 15.8463 220.961 15.689C220.914 11.3481 217.859 8.29688 213.512 8.29688ZM207.165 15.4846C207.638 12.0401 209.937 10.0112 213.355 10.0112C215.103 10.0112 216.568 10.5617 217.591 11.6154C218.536 12.5749 219.071 13.896 219.166 15.4846H207.165Z" fill="#4F78BB"/>
<path d="M247.876 8.29688C245.986 8.29688 243.955 8.97321 242.458 10.0741V8.9732C242.458 8.75301 242.269 8.56427 242.049 8.56427H241.151C240.93 8.56427 240.742 8.75301 240.742 8.9732V31.4642C240.742 31.6844 240.93 31.8731 241.151 31.8731H242.049C242.269 31.8731 242.458 31.6844 242.458 31.4642V24.2765C243.86 24.9999 245.608 25.3931 247.467 25.3931C252.396 25.3931 255.829 21.7757 255.829 16.6012C255.813 11.5526 252.695 8.29688 247.876 8.29688ZM254.112 16.6956C254.097 20.8006 251.388 23.6631 247.498 23.6631C245.545 23.6631 243.891 23.1912 242.458 22.2004V12.339C243.419 11.1751 245.671 9.99553 247.876 9.99553C251.718 10.0112 254.112 12.5749 254.112 16.6956Z" fill="#4F78BB"/>
<path d="M230.756 8.29688C225.748 8.29688 222.63 11.5683 222.63 16.8529C222.63 21.8858 226.158 25.3931 231.229 25.3931C233.623 25.3931 235.938 24.3708 237.276 22.7352L237.434 22.5307C237.56 22.3734 237.544 22.1375 237.403 21.9802L236.804 21.3825C236.725 21.3039 236.599 21.241 236.505 21.2567C236.395 21.2567 236.284 21.3196 236.206 21.3982L236.016 21.6184C234.93 22.861 233.103 23.6474 231.245 23.6474C227.182 23.6474 224.646 21.241 224.394 17.1675H237.749C237.97 17.1675 238.158 16.9787 238.158 16.7585V16.4754C238.158 16.3653 238.158 16.2552 238.174 16.1294C238.19 15.9878 238.19 15.8463 238.19 15.689C238.19 13.5658 237.45 11.6626 236.111 10.3258C234.757 9.02033 232.867 8.29688 230.756 8.29688ZM224.441 15.4846C224.913 12.0401 227.197 10.0112 230.63 10.0112C232.378 10.0112 233.843 10.5617 234.867 11.6154C235.796 12.5592 236.347 13.896 236.442 15.4846H224.441Z" fill="#4F78BB"/>
<path d="M205.306 22.7536C205.243 22.6593 205.148 22.5963 205.038 22.5806C204.928 22.5649 204.818 22.5806 204.723 22.6593L204.487 22.8323C204.062 23.1625 203.227 23.5085 202.408 23.5085C201.085 23.5085 200.361 22.9738 200.361 20.1742V0.530024C200.361 0.30983 200.172 0.121094 199.951 0.121094H199.053C198.833 0.121094 198.644 0.30983 198.644 0.530024V20.6776C198.644 23.7287 199.873 25.2072 202.408 25.2072C203.495 25.2072 204.66 24.8455 205.511 24.2321L205.731 24.0748C205.92 23.9489 205.952 23.6973 205.842 23.5085L205.306 22.7536Z" fill="#4F78BB"/>
<path d="M191.461 15.9723C191.445 15.9565 191.414 15.9565 191.399 15.9408C189.319 15.2645 187.524 14.6825 187.524 12.5593C187.524 11.1123 188.958 10.0114 190.847 10.0114C192.265 10.0114 193.462 10.4517 194.233 11.2381L194.454 11.4583C194.532 11.537 194.627 11.5842 194.753 11.5842C194.863 11.5842 194.973 11.537 195.052 11.4426L195.651 10.7506C195.793 10.5933 195.777 10.3574 195.651 10.2001L195.493 10.0271C194.564 8.97331 192.737 8.28125 190.926 8.28125C187.871 8.28125 185.807 10.0114 185.807 12.5908C185.807 15.9565 188.595 16.853 190.832 17.5922C193.115 18.3314 194.532 18.8819 194.532 20.6906C194.532 22.751 192.596 23.6789 190.674 23.6789C189.414 23.6789 187.635 23.097 186.941 22.1533L186.784 21.9331C186.658 21.7444 186.406 21.6972 186.217 21.823L185.461 22.3263C185.366 22.3893 185.304 22.4836 185.288 22.5937C185.272 22.7038 185.288 22.8139 185.351 22.9083L185.508 23.1285C186.39 24.4811 188.91 25.3933 190.706 25.3933C194.075 25.3933 196.265 23.5374 196.265 20.6592C196.234 17.5136 193.666 16.68 191.461 15.9723Z" fill="#4F78BB"/>
<path d="M112.297 8.29688C107.288 8.29688 104.17 11.5683 104.17 16.8371C104.17 21.8701 107.698 25.3774 112.769 25.3774C115.179 25.3774 117.494 24.3551 118.817 22.7194L118.974 22.515C119.101 22.3576 119.085 22.1218 118.943 21.9644L118.361 21.3825C118.281 21.3039 118.171 21.241 118.061 21.2567C117.951 21.2567 117.84 21.3196 117.762 21.3982L117.573 21.6342C116.486 22.8767 114.659 23.6631 112.801 23.6631C108.738 23.6631 106.202 21.2567 105.95 17.1831H119.289C119.51 17.1831 119.699 16.9944 119.699 16.7742V16.4911C119.699 16.381 119.699 16.2709 119.714 16.1451C119.73 16.0035 119.73 15.862 119.73 15.7048C119.699 11.3481 116.659 8.29688 112.297 8.29688ZM105.966 15.4846C106.438 12.0401 108.738 10.0112 112.155 10.0112C113.903 10.0112 115.368 10.5617 116.392 11.6154C117.337 12.5749 117.872 13.9118 117.966 15.4846H105.966Z" fill="#4F78BB"/>
<path d="M94.8952 8.29953C93.0838 8.29953 91.0047 9.02299 89.4774 10.1712V0.545644C89.4774 0.325454 89.2882 0.136719 89.0681 0.136719H88.1545C87.9343 0.136719 87.7451 0.325454 87.7451 0.545644V22.958C87.7451 23.0838 87.7919 23.1939 87.8868 23.2726L87.9811 23.3511C89.5875 24.7352 91.6033 25.4115 94.1391 25.4115C99.3361 25.4115 102.832 21.8885 102.832 16.6196C102.848 11.5709 99.7303 8.29953 94.8952 8.29953ZM89.4774 12.4674C90.4537 11.2721 92.7529 10.0296 94.8952 10.0296C98.7375 10.0296 101.116 12.5932 101.116 16.7297C101.116 18.7586 100.455 20.4887 99.1785 21.7626C97.9189 23.0209 96.1866 23.6972 94.1708 23.6972C92.8478 23.6972 91.273 23.5399 89.4616 22.3446V12.4674H89.4774Z" fill="#4F78BB"/>
<path d="M150.237 8.56641H149.339C149.118 8.56641 148.93 8.75514 148.93 8.97534V20.9286C148.016 22.0767 145.685 23.681 143.307 23.681C139.701 23.681 138.157 21.8722 138.157 17.6571V8.97534C138.157 8.75514 137.968 8.56641 137.748 8.56641H136.85C136.63 8.56641 136.44 8.75514 136.44 8.97534V17.7515C136.44 22.8946 138.661 25.3953 143.245 25.3953C145.465 25.3953 147.559 24.3416 148.946 23.2563V24.719C148.946 24.9392 149.134 25.1279 149.355 25.1279H150.253C150.473 25.1279 150.662 24.9392 150.662 24.719V8.99107C150.662 8.75514 150.473 8.56641 150.237 8.56641Z" fill="#4F78BB"/>
<path d="M171.669 24.7035L178.079 9.13284C178.127 9.00704 178.111 8.86551 178.048 8.75537C177.969 8.64531 177.843 8.56664 177.701 8.56664H176.709C176.536 8.56664 176.394 8.66104 176.331 8.81831L170.787 22.4387L163.811 8.78684C163.747 8.64531 163.606 8.56664 163.449 8.56664H162.44C162.425 8.56664 162.425 8.56664 162.409 8.56664H155.306V4.76049C155.306 4.5403 155.117 4.35156 154.897 4.35156H153.999C153.779 4.35156 153.589 4.5403 153.589 4.76049V18.664C153.589 23.0364 155.417 25.254 159.039 25.254C160.125 25.254 161.291 24.8923 162.141 24.2789L162.362 24.1216C162.551 23.9958 162.598 23.7441 162.472 23.5554L161.952 22.769C161.889 22.6746 161.795 22.6117 161.669 22.596C161.558 22.5803 161.432 22.6117 161.354 22.6746L161.133 22.8477C160.692 23.1779 159.873 23.5239 159.055 23.5239C156.409 23.5239 155.322 22.0298 155.322 18.3494V10.2967H162.661L169.953 24.4676L169.732 24.9867C168.189 28.7299 166.96 30.1926 165.37 30.1926C164.929 30.1926 164.409 30.051 163.685 29.7365L163.433 29.6264C163.228 29.532 162.992 29.6264 162.897 29.8308L162.535 30.6487C162.488 30.7431 162.488 30.8689 162.519 30.9633C162.567 31.0733 162.645 31.152 162.739 31.1992L163.008 31.3093C163.874 31.6867 164.677 31.8755 165.449 31.8755C167.89 31.8755 169.48 30.0667 171.669 24.7035Z" fill="#4F78BB"/>
<path d="M127.198 8.29688C125.45 8.29688 123.985 8.73727 122.3 9.79107L122.063 9.9326C121.969 9.99553 121.906 10.0741 121.875 10.1843C121.843 10.2943 121.875 10.4044 121.922 10.4988L122.378 11.238C122.489 11.4267 122.741 11.4897 122.93 11.3796L123.166 11.238C124.536 10.4201 125.481 10.0269 127.103 10.0269C130.867 10.0269 131.418 11.7571 131.466 15.9564C129.891 15.2329 128.206 15.1071 127.277 15.1071C123.355 15.1071 120.804 17.1675 120.804 20.3445C120.804 23.2856 122.977 25.2516 126.222 25.2516C128.332 25.2516 130.064 24.6382 131.466 23.3642V24.7012C131.466 24.9214 131.655 25.1101 131.875 25.1101H132.773C132.993 25.1101 133.182 24.9214 133.182 24.7012V14.9341C133.23 10.4673 131.261 8.29688 127.198 8.29688ZM131.513 17.9539V20.8006C130.49 22.1689 129.056 23.5373 126.237 23.5373C124.048 23.5373 122.568 22.2476 122.568 20.3131C122.568 19.448 122.851 18.7088 123.434 18.1269C124.268 17.2933 125.655 16.8214 127.245 16.8214C128.883 16.8214 130.316 17.2146 131.513 17.9539Z" fill="#4F78BB"/>
<path d="M213.512 8.29688C208.504 8.29688 205.385 11.5683 205.385 16.8529C205.385 21.8858 208.913 25.3932 213.984 25.3932C216.394 25.3932 218.709 24.3709 220.032 22.7352L220.19 22.5307C220.316 22.3734 220.3 22.1375 220.158 21.9802L219.575 21.3826C219.497 21.3039 219.386 21.2567 219.276 21.2567C219.166 21.2567 219.056 21.3196 218.977 21.3983L218.788 21.6185C217.701 22.861 215.874 23.6474 214.016 23.6474C209.953 23.6474 207.417 21.241 207.165 17.1675H220.521C220.741 17.1675 220.93 16.9787 220.93 16.7585V16.4754C220.93 16.3496 220.93 16.2396 220.946 16.1137C220.962 15.9722 220.962 15.8464 220.962 15.689C220.914 11.3481 217.859 8.29688 213.512 8.29688ZM207.165 15.4846C207.638 12.0402 209.937 10.0113 213.355 10.0113C215.103 10.0113 216.568 10.5617 217.591 11.6155C218.536 12.5749 219.071 13.896 219.166 15.4846H207.165Z" fill="#4F6FC1"/>
<path d="M247.876 8.29688C245.986 8.29688 243.955 8.97321 242.458 10.0742V8.97321C242.458 8.75301 242.269 8.56427 242.049 8.56427H241.151C240.93 8.56427 240.742 8.75301 240.742 8.97321V31.4642C240.742 31.6844 240.93 31.8731 241.151 31.8731H242.049C242.269 31.8731 242.458 31.6844 242.458 31.4642V24.2765C243.86 25 245.608 25.3932 247.467 25.3932C252.396 25.3932 255.829 21.7758 255.829 16.6013C255.813 11.5526 252.695 8.29688 247.876 8.29688ZM254.112 16.6956C254.097 20.8007 251.388 23.6631 247.498 23.6631C245.545 23.6631 243.891 23.1913 242.458 22.2004V12.339C243.419 11.1751 245.671 9.99553 247.876 9.99553C251.718 10.0113 254.112 12.5749 254.112 16.6956Z" fill="#4F6FC1"/>
<path d="M230.756 8.29688C225.748 8.29688 222.63 11.5683 222.63 16.8529C222.63 21.8858 226.158 25.3932 231.229 25.3932C233.623 25.3932 235.938 24.3709 237.277 22.7352L237.434 22.5307C237.56 22.3734 237.544 22.1375 237.403 21.9802L236.804 21.3826C236.725 21.3039 236.599 21.241 236.505 21.2567C236.395 21.2567 236.284 21.3196 236.206 21.3983L236.016 21.6185C234.93 22.861 233.103 23.6474 231.245 23.6474C227.182 23.6474 224.646 21.241 224.394 17.1675H237.749C237.97 17.1675 238.158 16.9787 238.158 16.7585V16.4754C238.158 16.3653 238.158 16.2553 238.174 16.1294C238.19 15.9879 238.19 15.8464 238.19 15.689C238.19 13.5658 237.45 11.6627 236.111 10.3258C234.757 9.02041 232.867 8.29688 230.756 8.29688ZM224.441 15.4846C224.913 12.0402 227.197 10.0113 230.63 10.0113C232.378 10.0113 233.843 10.5617 234.867 11.6155C235.796 12.5592 236.347 13.896 236.442 15.4846H224.441Z" fill="#4F6FC1"/>
<path d="M205.306 22.7536C205.243 22.6592 205.148 22.5963 205.038 22.5806C204.928 22.5649 204.818 22.5806 204.723 22.6592L204.487 22.8322C204.062 23.1626 203.227 23.5086 202.408 23.5086C201.085 23.5086 200.361 22.9738 200.361 20.1743V0.530021C200.361 0.30983 200.172 0.121094 199.951 0.121094H199.053C198.833 0.121094 198.644 0.30983 198.644 0.530021V20.6775C198.644 23.7288 199.873 25.2072 202.408 25.2072C203.495 25.2072 204.66 24.8454 205.511 24.232L205.731 24.0748C205.92 23.949 205.952 23.6973 205.842 23.5086L205.306 22.7536Z" fill="#4F6FC1"/>
<path d="M191.461 15.9722C191.446 15.9565 191.414 15.9565 191.399 15.9407C189.319 15.2645 187.524 14.6825 187.524 12.5592C187.524 11.1123 188.958 10.0113 190.847 10.0113C192.265 10.0113 193.462 10.4517 194.233 11.2381L194.454 11.4583C194.532 11.5369 194.627 11.5841 194.753 11.5841C194.863 11.5841 194.973 11.5369 195.052 11.4426L195.651 10.7505C195.793 10.5932 195.777 10.3573 195.651 10.2L195.493 10.027C194.564 8.97324 192.737 8.28125 190.926 8.28125C187.871 8.28125 185.807 10.0113 185.807 12.5907C185.807 15.9565 188.595 16.853 190.832 17.5922C193.115 18.3314 194.532 18.8819 194.532 20.6906C194.532 22.7509 192.596 23.6789 190.674 23.6789C189.414 23.6789 187.635 23.0969 186.941 22.1533L186.784 21.9331C186.658 21.7443 186.406 21.6971 186.217 21.823L185.461 22.3263C185.366 22.3892 185.304 22.4836 185.288 22.5937C185.272 22.7037 185.288 22.8139 185.351 22.9082L185.508 23.1284C186.39 24.4811 188.91 25.3933 190.706 25.3933C194.075 25.3933 196.265 23.5373 196.265 20.6592C196.234 17.5135 193.666 16.68 191.461 15.9722Z" fill="#4F6FC1"/>
<path d="M112.297 8.29688C107.288 8.29688 104.17 11.5683 104.17 16.8372C104.17 21.8701 107.698 25.3775 112.769 25.3775C115.179 25.3775 117.494 24.3552 118.817 22.7194L118.974 22.515C119.101 22.3577 119.085 22.1218 118.943 21.9645L118.361 21.3826C118.281 21.3039 118.171 21.241 118.061 21.2567C117.951 21.2567 117.84 21.3196 117.762 21.3983L117.573 21.6342C116.486 22.8767 114.659 23.6631 112.801 23.6631C108.738 23.6631 106.202 21.2567 105.95 17.1832H119.289C119.51 17.1832 119.699 16.9945 119.699 16.7743V16.4911C119.699 16.3811 119.699 16.2709 119.714 16.1452C119.73 16.0036 119.73 15.8621 119.73 15.7048C119.699 11.3481 116.659 8.29688 112.297 8.29688ZM105.966 15.4846C106.438 12.0402 108.738 10.0113 112.155 10.0113C113.903 10.0113 115.368 10.5617 116.392 11.6155C117.337 12.5749 117.872 13.9118 117.966 15.4846H105.966Z" fill="#4F6FC1"/>
<path d="M94.8952 8.2995C93.0838 8.2995 91.0047 9.02303 89.4774 10.1712V0.545648C89.4774 0.325454 89.2882 0.136719 89.0681 0.136719H88.1545C87.9343 0.136719 87.7451 0.325454 87.7451 0.545648V22.958C87.7451 23.0838 87.7919 23.1939 87.8868 23.2725L87.9811 23.3512C89.5875 24.7352 91.6033 25.4115 94.1391 25.4115C99.3361 25.4115 102.832 21.8885 102.832 16.6196C102.848 11.5709 99.7303 8.2995 94.8952 8.2995ZM89.4774 12.4674C90.4537 11.2721 92.7529 10.0296 94.8952 10.0296C98.7375 10.0296 101.116 12.5933 101.116 16.7297C101.116 18.7586 100.455 20.4887 99.1785 21.7627C97.9189 23.0209 96.1866 23.6972 94.1708 23.6972C92.8478 23.6972 91.273 23.5399 89.4616 22.3446V12.4674H89.4774Z" fill="#4F6FC1"/>
<path d="M150.237 8.56641H149.339C149.118 8.56641 148.93 8.75514 148.93 8.97534V20.9286C148.016 22.0767 145.685 23.681 143.307 23.681C139.701 23.681 138.157 21.8722 138.157 17.6572V8.97534C138.157 8.75514 137.968 8.56641 137.748 8.56641H136.85C136.63 8.56641 136.44 8.75514 136.44 8.97534V17.7515C136.44 22.8946 138.661 25.3953 143.245 25.3953C145.465 25.3953 147.559 24.3416 148.946 23.2563V24.719C148.946 24.9392 149.134 25.1279 149.355 25.1279H150.253C150.473 25.1279 150.662 24.9392 150.662 24.719V8.99107C150.662 8.75514 150.473 8.56641 150.237 8.56641Z" fill="#4F6FC1"/>
<path d="M171.669 24.7036L178.079 9.13287C178.127 9.007 178.111 8.86547 178.048 8.75541C177.969 8.64528 177.843 8.56668 177.701 8.56668H176.709C176.536 8.56668 176.394 8.66101 176.331 8.81827L170.787 22.4387L163.811 8.78688C163.747 8.64528 163.606 8.56668 163.449 8.56668H162.44C162.425 8.56668 162.425 8.56668 162.409 8.56668H155.306V4.76049C155.306 4.54029 155.117 4.35156 154.897 4.35156H153.999C153.779 4.35156 153.589 4.54029 153.589 4.76049V18.664C153.589 23.0364 155.417 25.254 159.039 25.254C160.125 25.254 161.291 24.8923 162.141 24.2789L162.362 24.1216C162.551 23.9958 162.598 23.7441 162.472 23.5554L161.952 22.769C161.889 22.6746 161.795 22.6117 161.669 22.596C161.558 22.5802 161.432 22.6117 161.354 22.6746L161.133 22.8476C160.692 23.1779 159.873 23.524 159.055 23.524C156.409 23.524 155.322 22.0298 155.322 18.3495V10.2967H162.661L169.953 24.4676L169.732 24.9866C168.189 28.7299 166.96 30.1926 165.37 30.1926C164.929 30.1926 164.409 30.051 163.685 29.7364L163.433 29.6264C163.228 29.532 162.992 29.6264 162.897 29.8308L162.535 30.6487C162.488 30.743 162.488 30.8689 162.519 30.9632C162.567 31.0734 162.645 31.152 162.739 31.1992L163.008 31.3093C163.874 31.6868 164.677 31.8755 165.449 31.8755C167.89 31.8755 169.48 30.0668 171.669 24.7036Z" fill="#4F6FC1"/>
<path d="M127.198 8.29688C125.45 8.29688 123.985 8.73727 122.3 9.79107L122.063 9.9326C121.969 9.99553 121.906 10.0742 121.875 10.1843C121.843 10.2943 121.875 10.4045 121.922 10.4988L122.378 11.2381C122.489 11.4268 122.741 11.4897 122.93 11.3796L123.166 11.2381C124.536 10.4202 125.481 10.027 127.103 10.027C130.867 10.027 131.418 11.757 131.466 15.9564C129.891 15.233 128.206 15.1071 127.277 15.1071C123.355 15.1071 120.804 17.1675 120.804 20.3445C120.804 23.2856 122.977 25.2516 126.222 25.2516C128.332 25.2516 130.064 24.6383 131.466 23.3643V24.7012C131.466 24.9213 131.655 25.1101 131.875 25.1101H132.773C132.993 25.1101 133.182 24.9213 133.182 24.7012V14.9341C133.23 10.4674 131.261 8.29688 127.198 8.29688ZM131.513 17.9539V20.8006C130.49 22.169 129.056 23.5373 126.237 23.5373C124.048 23.5373 122.568 22.2476 122.568 20.3131C122.568 19.4481 122.851 18.7088 123.434 18.1269C124.268 17.2933 125.655 16.8215 127.245 16.8215C128.883 16.8215 130.316 17.2147 131.513 17.9539Z" fill="#4F6FC1"/>
<path d="M213.512 8.29688C208.504 8.29688 205.385 11.5683 205.385 16.8529C205.385 21.8858 208.913 25.3932 213.984 25.3932C216.394 25.3932 218.709 24.3709 220.032 22.7352L220.19 22.5307C220.316 22.3734 220.3 22.1375 220.158 21.9802L219.575 21.3826C219.497 21.3039 219.386 21.2567 219.276 21.2567C219.166 21.2567 219.056 21.3196 218.977 21.3983L218.788 21.6185C217.701 22.861 215.874 23.6474 214.016 23.6474C209.953 23.6474 207.417 21.241 207.165 17.1675H220.521C220.741 17.1675 220.93 16.9787 220.93 16.7585V16.4754C220.93 16.3496 220.93 16.2396 220.946 16.1137C220.962 15.9722 220.962 15.8464 220.962 15.689C220.914 11.3481 217.859 8.29688 213.512 8.29688ZM207.165 15.4846C207.638 12.0402 209.937 10.0113 213.355 10.0113C215.103 10.0113 216.568 10.5617 217.591 11.6155C218.536 12.5749 219.071 13.896 219.166 15.4846H207.165Z" stroke="#4F6FC1" stroke-width="0.120407"/>
<path d="M247.876 8.29688C245.986 8.29688 243.955 8.97321 242.458 10.0742V8.97321C242.458 8.75301 242.269 8.56427 242.049 8.56427H241.151C240.93 8.56427 240.742 8.75301 240.742 8.97321V31.4642C240.742 31.6844 240.93 31.8731 241.151 31.8731H242.049C242.269 31.8731 242.458 31.6844 242.458 31.4642V24.2765C243.86 25 245.608 25.3932 247.467 25.3932C252.396 25.3932 255.829 21.7758 255.829 16.6013C255.813 11.5526 252.695 8.29688 247.876 8.29688ZM254.112 16.6956C254.097 20.8007 251.388 23.6631 247.498 23.6631C245.545 23.6631 243.891 23.1913 242.458 22.2004V12.339C243.419 11.1751 245.671 9.99553 247.876 9.99553C251.718 10.0113 254.112 12.5749 254.112 16.6956Z" stroke="#4F6FC1" stroke-width="0.120407"/>
<path d="M230.756 8.29688C225.748 8.29688 222.63 11.5683 222.63 16.8529C222.63 21.8858 226.158 25.3932 231.229 25.3932C233.623 25.3932 235.938 24.3709 237.277 22.7352L237.434 22.5307C237.56 22.3734 237.544 22.1375 237.403 21.9802L236.804 21.3826C236.725 21.3039 236.599 21.241 236.505 21.2567C236.395 21.2567 236.284 21.3196 236.206 21.3983L236.016 21.6185C234.93 22.861 233.103 23.6474 231.245 23.6474C227.182 23.6474 224.646 21.241 224.394 17.1675H237.749C237.97 17.1675 238.158 16.9787 238.158 16.7585V16.4754C238.158 16.3653 238.158 16.2553 238.174 16.1294C238.19 15.9879 238.19 15.8464 238.19 15.689C238.19 13.5658 237.45 11.6627 236.111 10.3258C234.757 9.02041 232.867 8.29688 230.756 8.29688ZM224.441 15.4846C224.913 12.0402 227.197 10.0113 230.63 10.0113C232.378 10.0113 233.843 10.5617 234.867 11.6155C235.796 12.5592 236.347 13.896 236.442 15.4846H224.441Z" stroke="#4F6FC1" stroke-width="0.120407"/>
<path d="M205.306 22.7536C205.243 22.6592 205.148 22.5963 205.038 22.5806C204.928 22.5649 204.818 22.5806 204.723 22.6592L204.487 22.8322C204.062 23.1626 203.227 23.5086 202.408 23.5086C201.085 23.5086 200.361 22.9738 200.361 20.1743V0.530021C200.361 0.30983 200.172 0.121094 199.951 0.121094H199.053C198.833 0.121094 198.644 0.30983 198.644 0.530021V20.6775C198.644 23.7288 199.873 25.2072 202.408 25.2072C203.495 25.2072 204.66 24.8454 205.511 24.232L205.731 24.0748C205.92 23.949 205.952 23.6973 205.842 23.5086L205.306 22.7536Z" stroke="#4F6FC1" stroke-width="0.120407"/>
<path d="M191.461 15.9722C191.446 15.9565 191.414 15.9565 191.399 15.9407C189.319 15.2645 187.524 14.6825 187.524 12.5592C187.524 11.1123 188.958 10.0113 190.847 10.0113C192.265 10.0113 193.462 10.4517 194.233 11.2381L194.454 11.4583C194.532 11.5369 194.627 11.5841 194.753 11.5841C194.863 11.5841 194.973 11.5369 195.052 11.4426L195.651 10.7505C195.793 10.5932 195.777 10.3573 195.651 10.2L195.493 10.027C194.564 8.97324 192.737 8.28125 190.926 8.28125C187.871 8.28125 185.807 10.0113 185.807 12.5907C185.807 15.9565 188.595 16.853 190.832 17.5922C193.115 18.3314 194.532 18.8819 194.532 20.6906C194.532 22.7509 192.596 23.6789 190.674 23.6789C189.414 23.6789 187.635 23.0969 186.941 22.1533L186.784 21.9331C186.658 21.7443 186.406 21.6971 186.217 21.823L185.461 22.3263C185.366 22.3892 185.304 22.4836 185.288 22.5937C185.272 22.7037 185.288 22.8139 185.351 22.9082L185.508 23.1284C186.39 24.4811 188.91 25.3933 190.706 25.3933C194.075 25.3933 196.265 23.5373 196.265 20.6592C196.234 17.5135 193.666 16.68 191.461 15.9722Z" stroke="#4F6FC1" stroke-width="0.120407"/>
<path d="M112.297 8.29688C107.288 8.29688 104.17 11.5683 104.17 16.8372C104.17 21.8701 107.698 25.3775 112.769 25.3775C115.179 25.3775 117.494 24.3552 118.817 22.7194L118.974 22.515C119.101 22.3577 119.085 22.1218 118.943 21.9645L118.361 21.3826C118.281 21.3039 118.171 21.241 118.061 21.2567C117.951 21.2567 117.84 21.3196 117.762 21.3983L117.573 21.6342C116.486 22.8767 114.659 23.6631 112.801 23.6631C108.738 23.6631 106.202 21.2567 105.95 17.1832H119.289C119.51 17.1832 119.699 16.9945 119.699 16.7743V16.4911C119.699 16.3811 119.699 16.2709 119.714 16.1452C119.73 16.0036 119.73 15.8621 119.73 15.7048C119.699 11.3481 116.659 8.29688 112.297 8.29688ZM105.966 15.4846C106.438 12.0402 108.738 10.0113 112.155 10.0113C113.903 10.0113 115.368 10.5617 116.392 11.6155C117.337 12.5749 117.872 13.9118 117.966 15.4846H105.966Z" stroke="#4F6FC1" stroke-width="0.120407"/>
<path d="M94.8952 8.2995C93.0838 8.2995 91.0047 9.02303 89.4774 10.1712V0.545648C89.4774 0.325454 89.2882 0.136719 89.0681 0.136719H88.1545C87.9343 0.136719 87.7451 0.325454 87.7451 0.545648V22.958C87.7451 23.0838 87.7919 23.1939 87.8868 23.2725L87.9811 23.3512C89.5875 24.7352 91.6033 25.4115 94.1391 25.4115C99.3361 25.4115 102.832 21.8885 102.832 16.6196C102.848 11.5709 99.7303 8.2995 94.8952 8.2995ZM89.4774 12.4674C90.4537 11.2721 92.7529 10.0296 94.8952 10.0296C98.7375 10.0296 101.116 12.5933 101.116 16.7297C101.116 18.7586 100.455 20.4887 99.1785 21.7627C97.9189 23.0209 96.1866 23.6972 94.1708 23.6972C92.8478 23.6972 91.273 23.5399 89.4616 22.3446V12.4674H89.4774Z" stroke="#4F6FC1" stroke-width="0.120407"/>
<path d="M150.237 8.56641H149.339C149.118 8.56641 148.93 8.75514 148.93 8.97534V20.9286C148.016 22.0767 145.685 23.681 143.307 23.681C139.701 23.681 138.157 21.8722 138.157 17.6572V8.97534C138.157 8.75514 137.968 8.56641 137.748 8.56641H136.85C136.63 8.56641 136.44 8.75514 136.44 8.97534V17.7515C136.44 22.8946 138.661 25.3953 143.245 25.3953C145.465 25.3953 147.559 24.3416 148.946 23.2563V24.719C148.946 24.9392 149.134 25.1279 149.355 25.1279H150.253C150.473 25.1279 150.662 24.9392 150.662 24.719V8.99107C150.662 8.75514 150.473 8.56641 150.237 8.56641Z" stroke="#4F6FC1" stroke-width="0.120407"/>
<path d="M171.669 24.7036L178.079 9.13287C178.127 9.007 178.111 8.86547 178.048 8.75541C177.969 8.64527 177.843 8.56668 177.701 8.56668H176.709C176.536 8.56668 176.394 8.66101 176.331 8.81827L170.787 22.4387L163.811 8.78688C163.747 8.64528 163.606 8.56668 163.449 8.56668H162.44C162.425 8.56668 162.425 8.56668 162.409 8.56668H155.306V4.76049C155.306 4.54029 155.117 4.35156 154.897 4.35156H153.999C153.779 4.35156 153.589 4.54029 153.589 4.76049V18.664C153.589 23.0364 155.417 25.254 159.039 25.254C160.125 25.254 161.291 24.8923 162.141 24.2789L162.362 24.1216C162.551 23.9958 162.598 23.7441 162.472 23.5554L161.952 22.769C161.889 22.6746 161.795 22.6117 161.669 22.596C161.558 22.5802 161.432 22.6117 161.354 22.6746L161.133 22.8476C160.692 23.1779 159.873 23.524 159.055 23.524C156.409 23.524 155.322 22.0298 155.322 18.3495V10.2967H162.661L169.953 24.4676L169.732 24.9866C168.189 28.7299 166.96 30.1926 165.37 30.1926C164.929 30.1926 164.409 30.051 163.685 29.7364L163.433 29.6264C163.228 29.532 162.992 29.6264 162.897 29.8308L162.535 30.6487C162.488 30.743 162.488 30.8689 162.519 30.9632C162.567 31.0734 162.645 31.152 162.739 31.1992L163.008 31.3093C163.874 31.6868 164.677 31.8755 165.449 31.8755C167.89 31.8755 169.48 30.0668 171.669 24.7036Z" stroke="#4F6FC1" stroke-width="0.120407"/>
<path d="M127.198 8.29688C125.45 8.29688 123.985 8.73727 122.3 9.79107L122.063 9.9326C121.969 9.99553 121.906 10.0742 121.875 10.1843C121.843 10.2943 121.875 10.4045 121.922 10.4988L122.378 11.2381C122.489 11.4268 122.741 11.4897 122.93 11.3796L123.166 11.2381C124.536 10.4202 125.481 10.027 127.103 10.027C130.867 10.027 131.418 11.757 131.466 15.9564C129.891 15.233 128.206 15.1071 127.277 15.1071C123.355 15.1071 120.804 17.1675 120.804 20.3445C120.804 23.2856 122.977 25.2516 126.222 25.2516C128.332 25.2516 130.064 24.6383 131.466 23.3643V24.7012C131.466 24.9213 131.655 25.1101 131.875 25.1101H132.773C132.993 25.1101 133.182 24.9213 133.182 24.7012V14.9341C133.23 10.4674 131.261 8.29688 127.198 8.29688ZM131.513 17.9539V20.8006C130.49 22.169 129.056 23.5373 126.237 23.5373C124.048 23.5373 122.568 22.2476 122.568 20.3131C122.568 19.4481 122.851 18.7088 123.434 18.1269C124.268 17.2933 125.655 16.8215 127.245 16.8215C128.883 16.8215 130.316 17.2147 131.513 17.9539Z" stroke="#4F6FC1" stroke-width="0.120407"/>
<path fill-rule="evenodd" clip-rule="evenodd" d="M72.2539 6.90625C73.0557 6.90625 73.8334 7.00979 74.5744 7.20427C70.6716 8.2294 67.793 11.7774 67.793 15.9968C67.793 20.2168 70.6721 23.7652 74.5758 24.7898C73.8341 24.9845 73.0564 25.0882 72.2539 25.0882C67.2263 25.0882 63.1507 21.018 63.1507 15.9972C63.1507 10.9764 67.2263 6.90625 72.2539 6.90625ZM9.61323 25.0907C14.6408 25.0907 18.7164 21.0205 18.7164 15.9998C18.7164 10.979 14.6408 6.90881 9.61323 6.90881C4.58566 6.90881 0.51001 10.979 0.51001 15.9998C0.51001 21.0205 4.58566 25.0907 9.61323 25.0907ZM35.6218 7.37612C38.4604 8.58588 40.5052 11.9879 40.5052 15.9956C40.5052 20.0002 38.4634 23.4001 35.6281 24.6123C35.3097 24.9208 34.7037 25.0882 33.6844 25.0882C33.2845 25.0882 32.8906 25.0624 32.5043 25.0124C32.3645 24.9944 32.2255 24.9732 32.0877 24.9488L32.0855 24.9484C27.8204 24.1937 24.5812 20.4732 24.5812 15.9972C24.5812 11.5452 27.7857 7.84066 32.0169 7.05843L32.0301 7.05534C32.5138 6.96676 33.0109 6.91638 33.5182 6.90742L33.5245 6.90763C33.5777 6.90671 33.631 6.90625 33.6844 6.90625C34.697 6.90625 35.3018 7.07136 35.6218 7.37612ZM47.0512 15.999C47.0512 11.0574 50.9993 7.03666 55.9173 6.91107V25.0869C50.9993 24.9613 47.0512 20.9406 47.0512 15.999Z" fill="url(#paint0_linear_3161_76105)"/>
<defs>
<linearGradient id="paint0_linear_3161_76105" x1="17.2561" y1="47.2124" x2="83.8974" y2="56.3613" gradientUnits="userSpaceOnUse">
<stop stop-color="#F0C9D1"/>
<stop offset="0.75864" stop-color="#4E79C0"/>
</linearGradient>
</defs>
</svg>
