<svg width="105" height="37" viewBox="0 0 105 37" fill="none" xmlns="http://www.w3.org/2000/svg">
<path d="M18.9991 5.89063C15.5401 5.89062 13.3911 8.02933 13.3911 11.4723C13.3911 14.7586 15.8287 17.0541 19.3195 17.0541C20.9784 17.0541 22.579 16.3862 23.4977 15.3094L23.6033 15.1795C23.7173 15.0444 23.7066 14.8414 23.575 14.7026L23.1797 14.3284C23.0941 14.2475 22.9914 14.2086 22.9072 14.2202C22.8133 14.2202 22.714 14.2632 22.6279 14.346L22.5022 14.4949C21.7787 15.2798 20.567 15.7669 19.3406 15.7669C16.6941 15.7669 15.004 14.2817 14.8005 11.7873L23.7398 11.7873C23.9433 11.7873 24.1155 11.6245 24.1155 11.4316V11.2499C24.1155 11.1828 24.1155 11.1157 24.1253 11.0376C24.1365 10.9414 24.1365 10.8456 24.1365 10.7439C24.115 7.88641 22.0027 5.89063 18.9991 5.89063ZM14.82 10.5103C15.1654 8.42109 16.6848 7.17783 18.9032 7.17783C20.0641 7.17783 21.0332 7.52425 21.7058 8.18104C22.3026 8.75595 22.6587 9.55935 22.7385 10.5103L14.82 10.5103Z" fill="#4F6FC1"/>
<path d="M7.19907 5.89092C6.01525 5.89092 4.66314 6.31459 3.62362 7.00468L3.62362 1.00021C3.62362 0.807339 3.45192 0.644531 3.24842 0.644531H2.62911C2.42561 0.644531 2.25342 0.807339 2.25342 1.00021L2.25342 15.405C2.25342 15.5146 2.29989 15.6113 2.38501 15.6784L2.44762 15.7278C3.55758 16.6339 4.94393 17.0747 6.68641 17.0747C10.2707 17.0747 12.6784 14.7667 12.6784 11.3316C12.6838 9.66973 12.1437 8.27615 11.1165 7.30161C10.1435 6.37888 8.78892 5.89092 7.19907 5.89092ZM11.319 11.4019C11.319 12.6798 10.8748 13.7755 10.0344 14.5715C9.19397 15.3671 8.04389 15.7875 6.70793 15.7875C5.84159 15.7875 4.79767 15.6885 3.61286 14.961L3.61286 8.70768C4.26837 7.9584 5.78239 7.18783 7.19907 7.18783C9.74039 7.1883 11.319 8.8025 11.319 11.4019Z" fill="#4F6FC1"/>
<path d="M75.8307 21.3047C72.3721 21.3047 70.2231 23.4476 70.2231 26.8966C70.2231 30.1828 72.6607 32.4783 76.1511 32.4783C77.8099 32.4783 79.41 31.8104 80.3287 30.7337L80.4339 30.6037C80.5484 30.4691 80.5381 30.2656 80.407 30.1278L80.0107 29.7425C79.8704 29.6102 79.636 29.5917 79.4619 29.7578L79.3342 29.8988C78.6102 30.6837 77.3985 31.1708 76.1726 31.1708C73.5266 31.1708 71.836 29.6856 71.632 27.1912H80.5821C80.7856 27.1912 80.9578 27.0284 80.9578 26.836V26.6538C80.9578 26.577 80.9573 26.5095 80.9681 26.4318C80.9793 26.3355 80.9793 26.2532 80.9793 26.1478C80.9466 23.2963 78.8294 21.3047 75.8307 21.3047ZM79.5592 25.9244H71.6403C71.9857 23.8351 73.5051 22.5919 75.724 22.5919C76.8849 22.5919 77.8539 22.9388 78.5271 23.5951C79.1332 24.1797 79.4805 24.9628 79.5592 25.9244Z" fill="#4F6FC1"/>
<path d="M99.1273 21.3047C97.896 21.3047 96.5742 21.6969 95.5518 22.3602V21.832C95.5518 21.6391 95.3796 21.4763 95.1761 21.4763H94.5676C94.3641 21.4763 94.1919 21.6391 94.1919 21.832V36.2872C94.1919 36.4796 94.3641 36.6429 94.5676 36.6429H95.1761C95.3796 36.6429 95.5518 36.48 95.5518 36.2872V31.8169C96.4979 32.2498 97.6338 32.4778 98.8494 32.4778C102.245 32.4778 104.617 30.1162 104.617 26.7342C104.606 23.4365 102.451 21.3047 99.1273 21.3047ZM98.8709 31.1809C97.577 31.1809 96.4906 30.8877 95.5518 30.2846V24.0289C96.1946 23.313 97.694 22.5817 99.1268 22.5817C101.675 22.5914 103.258 24.2061 103.258 26.7948C103.247 29.3776 101.444 31.1809 98.8709 31.1809Z" fill="#4F6FC1"/>
<path d="M87.5211 21.3047C84.0626 21.3047 81.9136 23.4476 81.9136 26.8966C81.9136 30.1828 84.3512 32.4783 87.8415 32.4783C89.4896 32.4783 91.0897 31.8104 92.0191 30.7337L92.1253 30.6032C92.2388 30.4687 92.228 30.2651 92.0964 30.1268L91.6904 29.7425C91.6214 29.6773 91.505 29.6199 91.4184 29.6347C91.3245 29.6347 91.2252 29.6777 91.141 29.7582L91.0134 29.8993C90.2899 30.6842 89.0782 31.1712 87.8518 31.1712C85.2053 31.1712 83.5152 29.6861 83.3117 27.1917H92.2618C92.4657 27.1917 92.6374 27.0289 92.6374 26.8365V26.6542C92.6374 26.5872 92.637 26.5196 92.6472 26.4424C92.6585 26.3462 92.6585 26.2504 92.6585 26.1492C92.6585 24.762 92.1478 23.5151 91.2193 22.6354C90.2811 21.7774 88.9676 21.3047 87.5211 21.3047ZM83.3523 25.9244C83.7006 23.8046 85.1838 22.5919 87.436 22.5919C88.5968 22.5919 89.5659 22.9388 90.2385 23.5951C90.8358 24.1705 91.1914 24.9743 91.2707 25.9244H83.3523Z" fill="#4F6FC1"/>
<path d="M70.3441 30.6373C70.2849 30.5541 70.1969 30.5004 70.0956 30.4866C69.9821 30.4704 69.8848 30.4953 69.8109 30.5541L69.648 30.6669C69.3765 30.8667 68.8384 31.0818 68.2988 31.0818C67.4433 31.0818 67.0084 30.7645 67.0084 29.0315V16.406C67.0084 16.2136 66.8362 16.0508 66.6332 16.0508H66.0246C65.8211 16.0508 65.6489 16.2136 65.6489 16.406V29.3552C65.6489 31.3764 66.5158 32.3593 68.2988 32.3593C69.0615 32.3593 69.8696 32.1183 70.4596 31.715L70.6063 31.6156C70.7697 31.5124 70.8162 31.2983 70.7071 31.1211L70.3441 30.6373Z" fill="#4F6FC1"/>
<path d="M60.9149 26.2454L60.864 26.2227C59.4371 25.7824 58.3095 25.4346 58.3095 24.1386C58.3095 23.258 59.236 22.5938 60.4649 22.5938C61.3924 22.5938 62.1829 22.8639 62.6916 23.3551L62.8408 23.4971C62.9939 23.6414 63.2537 23.6359 63.3902 23.4818L63.7947 23.0387C63.9185 22.9083 63.92 22.7094 63.7942 22.5609L63.6886 22.4509C63.0468 21.7608 61.7729 21.2969 60.5187 21.2969C58.3844 21.2969 56.9501 22.4472 56.9501 24.159C56.9501 26.3735 58.8579 26.9711 60.391 27.4512L60.4238 27.4614C61.9373 27.9257 62.8653 28.2662 62.8653 29.3647C62.8653 30.6278 61.6007 31.193 60.347 31.193C59.5193 31.193 58.3467 30.8327 57.8962 30.2513L57.791 30.1121C57.6765 29.9497 57.4432 29.9067 57.271 30.0159L56.7583 30.3392C56.6698 30.3952 56.613 30.4789 56.5984 30.5746C56.5827 30.6736 56.6032 30.7661 56.6585 30.8438L56.7627 30.9821C57.3786 31.878 59.1245 32.4797 60.3685 32.4797C62.7176 32.4797 64.2355 31.249 64.2355 29.3438C64.2135 27.2509 62.3854 26.6931 60.9149 26.2454Z" fill="#4F6FC1"/>
<path d="M44.7211 6.06296H44.1125C43.909 6.06296 43.7368 6.22577 43.7368 6.41864V14.0688C43.118 14.7871 41.5771 15.7778 40.0229 15.7778C37.644 15.7778 36.629 14.6478 36.629 11.999V6.41818C36.629 6.22531 36.4568 6.0625 36.2533 6.0625H35.6447C35.4412 6.0625 35.269 6.22531 35.269 6.41818V12.0586C35.269 15.4267 36.81 17.0641 39.9799 17.0641C41.6759 17.0641 43.0897 16.2426 43.7476 15.7829V16.5363C43.7476 16.7292 43.9198 16.8915 44.1233 16.8915H44.7318C44.9353 16.8915 45.1075 16.7287 45.1075 16.5363V6.42836C45.1071 6.22716 44.9339 6.06296 44.7211 6.06296Z" fill="#4F6FC1"/>
<path d="M59.3448 16.5598L63.6916 6.5499C63.7327 6.4463 63.7225 6.32651 63.6589 6.22105C63.583 6.12068 63.4652 6.06102 63.3438 6.06102H62.6712C62.5147 6.06102 62.3821 6.1452 62.3239 6.28072L58.6462 14.8471L54.0156 6.25805C53.9588 6.13641 53.8302 6.06102 53.6805 6.06102L48.2579 6.06102V3.70724C48.2579 3.51437 48.0857 3.35156 47.8822 3.35156H47.2736C47.0701 3.35156 46.8979 3.51437 46.8979 3.70724V12.6432C46.8979 15.515 48.1737 16.9715 50.6901 16.9715C51.4532 16.9715 52.2609 16.7305 52.8508 16.3276L52.9976 16.2282C53.1688 16.1204 53.2143 15.8998 53.0998 15.7365L52.7471 15.231C52.6865 15.1445 52.596 15.0922 52.4869 15.0788C52.3861 15.0649 52.2731 15.0927 52.1997 15.1482L52.052 15.2583C51.76 15.4655 51.2292 15.6741 50.7014 15.6741C48.9736 15.6741 48.2686 14.7375 48.2686 12.441V7.35793L53.0871 7.35793L57.9824 16.3771L57.8503 16.6717C56.821 19.0385 56.0173 19.9603 54.9832 19.9603C54.6999 19.9603 54.3595 19.8724 53.8796 19.6749L53.7108 19.6051C53.5254 19.5237 53.3043 19.6037 53.2172 19.7831L52.9741 20.3044C52.932 20.3826 52.9262 20.4876 52.9609 20.5847C53.001 20.6726 53.0685 20.741 53.1629 20.785L53.3425 20.8553C53.9476 21.1055 54.5018 21.2271 55.0365 21.2271C56.7555 21.2271 57.8425 20.0491 59.3448 16.5598Z" fill="#4F6FC1"/>
<path d="M29.1015 5.89063C27.8897 5.89063 26.881 6.18201 25.7305 6.86423L25.5661 6.9572C25.48 7.01178 25.4252 7.08162 25.3983 7.17042C25.3734 7.25275 25.3866 7.34295 25.4409 7.44655L25.7491 7.91971C25.798 7.9988 25.8777 8.05569 25.9736 8.07974C26.0695 8.10379 26.1727 8.09038 26.2578 8.0432L26.4178 7.95255C27.334 7.43406 27.9597 7.18754 29.0369 7.18754C31.4036 7.18754 31.8482 8.08437 31.8947 10.7633C30.8297 10.3341 29.7291 10.2679 29.1538 10.2679C26.4285 10.2679 24.6675 11.6254 24.6675 13.7267C24.6675 15.6683 26.183 16.9731 28.4386 16.9731C29.8274 16.9731 30.9608 16.6124 31.8967 15.8714V16.5273C31.8967 16.7197 32.0689 16.8825 32.2724 16.8825H32.8809C33.0844 16.8825 33.2566 16.7197 33.2566 16.5273V10.2504C33.2732 8.7319 32.901 7.59779 32.1496 6.8795C31.4632 6.22364 30.4379 5.89063 29.1015 5.89063ZM26.6188 12.3669C27.1638 11.8512 28.08 11.5551 29.1337 11.5551C30.1899 11.5551 31.1301 11.7864 31.9294 12.242V13.9889C31.2588 14.8321 30.3181 15.6859 28.4503 15.6859C27.0209 15.6859 26.0602 14.8904 26.0602 13.7063C26.0602 13.1684 26.248 12.7179 26.6188 12.3669Z" fill="#4F6FC1"/>
<path fill-rule="evenodd" clip-rule="evenodd" d="M46.7165 26.3616C46.7165 23.6211 48.6889 21.3164 51.3628 20.6508C50.855 20.5246 50.3218 20.457 49.772 20.457C46.3271 20.457 43.5348 23.1008 43.5348 26.3616C43.5348 29.6224 46.3271 32.2661 49.772 32.2661C50.3218 32.2661 50.855 32.1986 51.3628 32.0723C48.6884 31.4068 46.7165 29.102 46.7165 26.3616ZM6.85283 32.2675C10.2977 32.2675 13.0899 29.6238 13.0899 26.363C13.0899 23.1022 10.2977 20.4584 6.85283 20.4584C3.40799 20.4584 0.615723 23.1017 0.615723 26.3625C0.615723 29.6233 3.40799 32.2675 6.85283 32.2675ZM24.6738 20.7628C26.6174 21.5495 28.0169 23.7581 28.0169 26.3602C28.0169 28.9587 26.6208 31.1653 24.6812 31.9544C24.464 32.157 24.0482 32.2666 23.3462 32.2666C23.1383 32.2666 22.9328 32.2569 22.7303 32.2379C22.5743 32.2236 22.4202 32.2037 22.2675 32.1787L22.2573 32.1764C19.3314 31.6889 17.1086 29.2709 17.1086 26.3616C17.1086 23.4787 19.2908 21.0787 22.1765 20.5606L22.2088 20.5532C22.5429 20.4954 22.8868 20.4626 23.2376 20.457L23.2508 20.4575C23.2821 20.457 23.3139 20.457 23.3457 20.457C24.0403 20.4575 24.4547 20.5648 24.6738 20.7628ZM32.5052 26.3625C32.5052 23.1526 35.2109 20.5407 38.5814 20.4598V32.2652C35.2109 32.1843 32.5052 29.5729 32.5052 26.3625Z" fill="url(#paint0_linear_971_18678)"/>
<defs>
<linearGradient id="paint0_linear_971_18678" x1="12.0895" y1="46.6351" x2="57.6544" y2="53.2342" gradientUnits="userSpaceOnUse">
<stop stop-color="#F0C9D1"/>
<stop offset="0.75864" stop-color="#4E79C0"/>
</linearGradient>
</defs>
</svg>
