<svg width="17" height="18" viewBox="0 0 17 18" fill="none" xmlns="http://www.w3.org/2000/svg">
<path d="M3.7252 17.9948C3.7252 17.7913 3.70259 17.7009 3.61215 17.7009L3.09216 17.9496C3.09216 17.8365 3.02433 17.7687 2.91129 17.7235L2.73042 17.7009C2.57216 17.7009 2.50433 17.7235 2.27825 17.8591C2.21042 17.7235 2.11999 17.5652 2.05216 17.4296C1.46434 16.2991 0.853905 14.6035 0.582602 13.8574C0.44695 13.4731 0.311299 12.6818 0.153039 11.4835C0.333907 11.5965 0.469559 11.6418 0.537385 11.6418C0.627819 11.6418 0.740862 11.4835 0.831297 11.167C0.876514 11.2348 0.966948 11.2574 1.07999 11.2574C1.14782 11.2574 1.23825 11.2348 1.28347 11.167L1.64521 10.6244L2.05216 10.76H2.07477C2.11999 10.76 2.18781 10.6922 2.30086 10.6244C2.4139 10.5565 2.50433 10.5113 2.57216 10.5113L2.63998 10.5339C3.00172 10.7148 3.25042 11.0313 3.36346 11.5287C3.63476 12.6818 3.88346 13.247 4.17737 13.247C4.42606 13.247 4.76519 12.9531 5.12693 12.3878C5.48867 11.8226 5.85041 11.0539 6.25736 10.127C6.27997 10.3079 6.30258 10.3983 6.34779 10.3983C6.48345 10.3983 6.82258 9.60699 7.65909 8.27308C8.90257 6.26092 11.9773 2.39484 12.7686 1.85224C13.3565 1.44528 13.8086 1.06094 14.1252 0.721808C14.0799 0.947894 14.0347 1.10615 14.0347 1.17398C14.0347 1.24181 14.0799 1.26441 14.1252 1.26441L14.7582 0.947894V1.03833C14.7582 1.15137 14.7808 1.2192 14.8486 1.2192C14.9391 1.2192 15.3008 0.857459 15.346 0.721808L15.3008 1.03833L16.0695 0.586157L15.8886 0.993112C16.1147 0.834851 16.2956 0.744417 16.4086 0.744417C16.5217 0.744417 16.5895 0.925286 16.5895 1.03833C16.5895 1.2192 16.4312 1.46789 16.1825 1.78441C15.9112 2.14615 15.233 2.84702 13.1982 5.1757C12.3165 6.17048 8.40518 11.4835 7.65909 12.7496L6.25736 15.1235C5.64693 16.1409 5.26258 16.7965 5.0591 17.0452C4.85563 17.2939 4.60693 17.5426 4.31302 17.7687L4.10954 17.6556L3.92867 17.7687L3.7252 17.9948Z" fill="black"/>
</svg>
