<svg width="1110" height="300" viewBox="0 0 1110 300" fill="none" xmlns="http://www.w3.org/2000/svg">
<g clip-path="url(#clip0_6512_22112)">
<rect width="1110" height="300" fill="white"/>
<path d="M83.4999 289C83.4999 289 79.9999 257.882 93.9738 256.315C93.9738 256.315 98.1643 255.937 99.8192 260.164C99.8192 260.164 98.3384 238.805 107.975 237.596C107.975 237.596 116.648 236.1 117.012 258.966C117.012 258.966 118.285 248.033 125.208 247.822C132.13 247.607 132.572 257.882 132.572 257.882C132.572 257.882 134.452 253.629 138.936 253.584C147.317 253.584 148.884 272.966 149.317 287L86.991 287L83.4999 289Z" fill="#FDEE5D" stroke="black" stroke-miterlimit="10"/>
<path d="M909.977 255.113C909.977 255.113 914.954 235.864 924.901 236.443C924.901 236.443 929.878 236.732 930.459 242.278C930.459 242.278 937.192 218.068 948.604 220.693C948.604 220.693 955.628 222.443 953.581 232.364C953.581 232.364 960.895 217.088 969.971 220.496C979.047 223.904 973.192 242.574 973.192 242.574C973.192 242.574 977.291 235.864 985.483 239.074C993.674 242.285 989.872 258.62 989.872 258.62C989.872 258.62 992.506 251.909 998.361 254.245C1004.22 256.58 1003.9 271.995 999.668 292.58L998.948 296.251L905 271.455L909.977 255.113Z" fill="#B4E3FD" stroke="black" stroke-miterlimit="10"/>
<path d="M0 363.278H1110C1110 363.278 1039.57 263.003 874.1 263.003C708.628 263.003 189.314 263.003 189.314 263.003C189.314 263.003 56.8528 260.987 0 363.278Z" fill="white"/>
<mask id="mask0_6512_22112" style="mask-type:luminance" maskUnits="userSpaceOnUse" x="0" y="263" width="1110" height="101">
<path d="M0 363.278H1110C1110 363.278 1039.57 263.003 874.1 263.003C708.628 263.003 189.314 263.003 189.314 263.003C189.314 263.003 56.8528 260.987 0 363.278Z" fill="white"/>
</mask>
<g mask="url(#mask0_6512_22112)">
<path d="M1039.28 288.044C1039.28 288.044 1053.43 341.784 1005.34 382.518C957.261 423.253 1154.69 366.68 1154.13 366.68C1153.56 366.68 1115.66 323.122 1115.66 323.122L1039.28 288.044Z" fill="white" stroke="black" stroke-miterlimit="10"/>
</g>
<mask id="mask1_6512_22112" style="mask-type:luminance" maskUnits="userSpaceOnUse" x="0" y="263" width="1110" height="101">
<path d="M0 363.278H1110C1110 363.278 1039.57 263.003 874.1 263.003C708.628 263.003 189.314 263.003 189.314 263.003C189.314 263.003 56.8528 260.987 0 363.278Z" fill="white"/>
</mask>
<g mask="url(#mask1_6512_22112)">
<path d="M1017.22 278.994C1017.22 278.994 1034.19 341.223 970.266 381.388C906.345 421.552 823.184 380.256 823.184 380.256L820.921 337.259C820.921 337.259 872.399 359.74 876.924 313.145C876.924 313.145 930.663 311.24 910.3 275.031C910.3 275.031 932.364 272.198 926.138 256.93C919.912 241.654 1004.77 256.36 1006.47 256.36C1008.16 256.36 1017.22 278.994 1017.22 278.994Z" fill="white" stroke="black" stroke-miterlimit="10"/>
</g>
<mask id="mask2_6512_22112" style="mask-type:luminance" maskUnits="userSpaceOnUse" x="0" y="263" width="1110" height="101">
<path d="M0 363.278H1110C1110 363.278 1039.57 263.003 874.1 263.003C708.628 263.003 189.314 263.003 189.314 263.003C189.314 263.003 56.8528 260.987 0 363.278Z" fill="white"/>
</mask>
<g mask="url(#mask2_6512_22112)">
<path d="M713.995 369.505C713.995 369.505 693.062 326.508 711.162 321.141C711.162 321.141 721.344 318.597 728.701 335.567C728.701 335.567 715.687 303.891 729.271 299.927C742.846 295.963 758.684 321.991 764.349 333.865C764.349 333.865 759.254 316.752 770.575 313.145C781.888 309.539 793.771 333.865 793.771 333.865C793.771 333.865 792.359 321.081 803.952 321.141C822.81 321.234 839.03 371.206 839.03 371.206L713.995 369.505Z" fill="white" stroke="black" stroke-miterlimit="10" stroke-linejoin="round"/>
</g>
<mask id="mask3_6512_22112" style="mask-type:luminance" maskUnits="userSpaceOnUse" x="0" y="263" width="1110" height="101">
<path d="M0 363.278H1110C1110 363.278 1039.57 263.003 874.1 263.003C708.628 263.003 189.314 263.003 189.314 263.003C189.314 263.003 56.8528 260.987 0 363.278Z" fill="white"/>
</mask>
<g mask="url(#mask3_6512_22112)">
<path d="M458.114 252.209C458.114 252.209 447.176 323.862 614.63 379.686L722.424 375.535C722.424 375.535 565.977 332.921 542.943 250.703C519.373 166.564 458.114 252.209 458.114 252.209Z" fill="white" stroke="black" stroke-miterlimit="10" stroke-linejoin="round"/>
</g>
<mask id="mask4_6512_22112" style="mask-type:luminance" maskUnits="userSpaceOnUse" x="0" y="263" width="1110" height="101">
<path d="M0 363.278H1110C1110 363.278 1039.57 263.003 874.1 263.003C708.628 263.003 189.314 263.003 189.314 263.003C189.314 263.003 56.8528 260.987 0 363.278Z" fill="white"/>
</mask>
<g mask="url(#mask4_6512_22112)">
<path d="M83.2375 278.994C83.2375 278.994 138.678 264.288 130.002 308.033C130.002 308.033 196.382 282.762 217.876 326.134C217.876 326.134 283.873 306.519 303.861 363.279C323.85 420.038 87.3884 393.262 87.3884 393.262C87.3884 393.262 -32.9178 389.494 -32.1608 387.605C-31.4038 385.717 -20.0911 269.561 -20.0911 269.561L77.5897 252.592L83.2375 278.994Z" fill="white" stroke="black" stroke-miterlimit="10"/>
</g>
<mask id="mask5_6512_22112" style="mask-type:luminance" maskUnits="userSpaceOnUse" x="0" y="263" width="1110" height="101">
<path d="M0 363.278H1110C1110 363.278 1039.57 263.003 874.1 263.003C708.628 263.003 189.314 263.003 189.314 263.003C189.314 263.003 56.8528 260.987 0 363.278Z" fill="white"/>
</mask>
<g mask="url(#mask5_6512_22112)">
<path d="M160.173 259.379C159.416 259.379 245.784 268.43 258.228 302.376C258.228 302.376 317.063 291.438 379.291 374.03C441.52 456.621 440.388 372.524 440.388 372.524L388.341 244.673L160.173 259.379Z" fill="white" stroke="black" stroke-miterlimit="10"/>
</g>
<mask id="mask6_6512_22112" style="mask-type:luminance" maskUnits="userSpaceOnUse" x="0" y="263" width="1110" height="101">
<path d="M0 363.278H1110C1110 363.278 1039.57 263.003 874.1 263.003C708.628 263.003 189.314 263.003 189.314 263.003C189.314 263.003 56.8528 260.987 0 363.278Z" fill="white"/>
</mask>
<g mask="url(#mask6_6512_22112)">
<path d="M430.581 255.228C430.581 255.228 427.536 309.912 548.046 376.666L441.145 379.303C441.145 379.303 346.11 326.507 337.808 253.714C329.507 180.93 430.581 255.228 430.581 255.228Z" fill="white" stroke="black" stroke-miterlimit="10"/>
</g>
<mask id="mask7_6512_22112" style="mask-type:luminance" maskUnits="userSpaceOnUse" x="0" y="263" width="1110" height="101">
<path d="M0 363.278H1110C1110 363.278 1039.57 263.003 874.1 263.003C708.628 263.003 189.314 263.003 189.314 263.003C189.314 263.003 56.8528 260.987 0 363.278Z" fill="white"/>
</mask>
<g mask="url(#mask7_6512_22112)">
<path d="M240.128 372.899C240.128 372.899 289.529 282.388 309.901 325.759C309.901 325.759 332.152 291.064 363.453 293.327C394.755 295.589 380.805 324.628 380.805 324.628C380.805 324.628 420.782 294.084 447.184 372.15C473.57 450.208 240.128 372.899 240.128 372.899Z" fill="white" stroke="black" stroke-miterlimit="10" stroke-linejoin="round"/>
</g>
<path d="M0 363.278H1110C1110 363.278 1039.57 263.003 874.1 263.003C708.628 263.003 189.314 263.003 189.314 263.003C189.314 263.003 56.8528 260.987 0 363.278Z" stroke="black" stroke-miterlimit="10"/>
<path d="M687.3 94.6841C687.3 94.6841 690.29 114.239 673 117.219C673 117.219 686.43 118.265 686.7 139.285C686.7 139.285 688.25 117.767 703.24 117.657C703.23 117.657 688.29 115.236 687.3 94.6841Z" fill="white" stroke="black" stroke-miterlimit="10" stroke-linecap="round" stroke-linejoin="round"/>
<path d="M732.15 72.7573C732.15 72.7573 733.65 82.5347 725 84.0197C725 84.0197 731.72 84.538 731.85 95.053C731.85 95.053 732.63 84.2889 740.12 84.2391C740.12 84.249 732.65 83.0331 732.15 72.7573Z" fill="white" stroke="black" stroke-miterlimit="10" stroke-linecap="round" stroke-linejoin="round"/>
<path d="M794.417 251.509L740.214 275.401L716.111 274.331L657.011 300.381L641.601 318.869L587.398 342.761L587.547 343.098C593.467 356.418 609.144 362.613 622.653 356.659L859.729 252.158C873.238 246.203 879.249 230.649 873.255 217.161L868.759 207.045L809.659 233.096L794.417 251.509Z" fill="white" stroke="black" stroke-miterlimit="10"/>
<path d="M628.552 289.331L643.816 270.908L702.986 244.826L726.943 245.961L781.211 222.04L796.475 203.617L855.645 177.536L842.533 148.031L783.363 174.112L768.173 192.704L713.905 216.625L689.874 215.321L630.704 241.403L615.514 259.995L561.246 283.915L574.284 313.252L628.552 289.331Z" fill="#FFADF6" stroke="black" stroke-miterlimit="10"/>
<path d="M781.382 221.966L727.115 245.887L703.158 244.752L643.988 270.834L628.723 289.257L574.456 313.177L587.568 342.682L641.836 318.762L657.101 300.339L716.271 274.257L740.227 275.392L794.495 251.471L809.76 233.048L868.93 206.966L855.817 177.461L796.647 203.543L781.382 221.966Z" fill="#B4E3FD" stroke="black" stroke-miterlimit="10"/>
<path d="M630.707 241.406L689.878 215.325L713.909 216.628L768.177 192.707L783.61 174.21L842.781 148.128L842.631 147.791C836.711 134.471 821.021 128.282 807.497 134.243L570.478 238.719C557.122 244.606 550.929 260.24 556.923 273.728L561.419 283.844L615.687 259.923L630.707 241.406Z" fill="white" stroke="black" stroke-miterlimit="10"/>
<mask id="mask8_6512_22112" style="mask-type:alpha" maskUnits="userSpaceOnUse" x="586" y="206" width="291" height="154">
<path d="M794.412 251.502L740.209 275.394L716.107 274.324L657.006 300.375L641.596 318.862L587.393 342.754L587.542 343.091C593.462 356.411 609.139 362.606 622.648 356.652L859.724 252.151C873.233 246.196 879.244 230.642 873.25 217.154L868.754 207.038L809.654 233.089L794.412 251.502Z" fill="#E6E7E8" stroke="#231F20" stroke-miterlimit="10"/>
</mask>
<g mask="url(#mask8_6512_22112)">
<line y1="-0.5" x2="156.661" y2="-0.5" transform="matrix(-0.360505 0.931129 -0.934453 -0.360322 927.055 100.48)" stroke="#B6B6B6"/>
<line y1="-0.5" x2="156.661" y2="-0.5" transform="matrix(-0.360505 0.931129 -0.934453 -0.360322 917.169 104.838)" stroke="#B6B6B6"/>
<line y1="-0.5" x2="156.661" y2="-0.5" transform="matrix(-0.360505 0.931129 -0.934453 -0.360322 907.283 109.196)" stroke="#B6B6B6"/>
<line y1="-0.5" x2="156.661" y2="-0.5" transform="matrix(-0.360505 0.931129 -0.934453 -0.360322 897.398 113.552)" stroke="#B6B6B6"/>
<line y1="-0.5" x2="156.661" y2="-0.5" transform="matrix(-0.360505 0.931129 -0.934453 -0.360322 887.505 117.914)" stroke="#B6B6B6"/>
<line y1="-0.5" x2="156.661" y2="-0.5" transform="matrix(-0.360505 0.931129 -0.934453 -0.360322 877.618 122.272)" stroke="#B6B6B6"/>
<line y1="-0.5" x2="156.661" y2="-0.5" transform="matrix(-0.360505 0.931129 -0.934453 -0.360322 867.733 126.63)" stroke="#B6B6B6"/>
<line y1="-0.5" x2="156.661" y2="-0.5" transform="matrix(-0.360505 0.931129 -0.934453 -0.360322 857.846 130.986)" stroke="#B6B6B6"/>
<line y1="-0.5" x2="156.661" y2="-0.5" transform="matrix(-0.360505 0.931129 -0.934453 -0.360322 847.961 135.344)" stroke="#B6B6B6"/>
<line y1="-0.5" x2="156.661" y2="-0.5" transform="matrix(-0.360505 0.931129 -0.934453 -0.360322 838.068 139.705)" stroke="#B6B6B6"/>
<line y1="-0.5" x2="156.661" y2="-0.5" transform="matrix(-0.360505 0.931129 -0.934453 -0.360322 828.182 144.062)" stroke="#B6B6B6"/>
<line y1="-0.5" x2="156.661" y2="-0.5" transform="matrix(-0.360505 0.931129 -0.934453 -0.360322 818.297 148.42)" stroke="#B6B6B6"/>
<line y1="-0.5" x2="156.661" y2="-0.5" transform="matrix(-0.360505 0.931129 -0.934453 -0.360322 808.411 152.778)" stroke="#B6B6B6"/>
<line y1="-0.5" x2="156.661" y2="-0.5" transform="matrix(-0.360505 0.931129 -0.934453 -0.360322 798.525 157.135)" stroke="#B6B6B6"/>
<line y1="-0.5" x2="156.661" y2="-0.5" transform="matrix(-0.360505 0.931129 -0.934453 -0.360322 788.639 161.493)" stroke="#B6B6B6"/>
<line y1="-0.5" x2="156.661" y2="-0.5" transform="matrix(-0.360505 0.931129 -0.934453 -0.360322 778.747 165.852)" stroke="#B6B6B6"/>
<line y1="-0.5" x2="156.661" y2="-0.5" transform="matrix(-0.360505 0.931129 -0.934453 -0.360322 768.86 170.211)" stroke="#B6B6B6"/>
<line y1="-0.5" x2="156.661" y2="-0.5" transform="matrix(-0.360505 0.931129 -0.934453 -0.360322 758.975 174.569)" stroke="#B6B6B6"/>
<line y1="-0.5" x2="156.661" y2="-0.5" transform="matrix(-0.360505 0.931129 -0.934453 -0.360322 749.088 178.927)" stroke="#B6B6B6"/>
<line y1="-0.5" x2="156.661" y2="-0.5" transform="matrix(-0.360505 0.931129 -0.934453 -0.360322 739.203 183.284)" stroke="#B6B6B6"/>
<line y1="-0.5" x2="156.661" y2="-0.5" transform="matrix(-0.360505 0.931129 -0.934453 -0.360322 729.31 187.645)" stroke="#B6B6B6"/>
<line y1="-0.5" x2="156.661" y2="-0.5" transform="matrix(-0.360505 0.931129 -0.934453 -0.360322 719.424 192.002)" stroke="#B6B6B6"/>
<line y1="-0.5" x2="156.661" y2="-0.5" transform="matrix(-0.360505 0.931129 -0.934453 -0.360322 709.538 196.359)" stroke="#B6B6B6"/>
<line y1="-0.5" x2="156.661" y2="-0.5" transform="matrix(-0.360505 0.931129 -0.934453 -0.360322 699.652 200.718)" stroke="#B6B6B6"/>
<line y1="-0.5" x2="156.661" y2="-0.5" transform="matrix(-0.360505 0.931129 -0.934453 -0.360322 689.766 205.075)" stroke="#B6B6B6"/>
<line y1="-0.5" x2="156.661" y2="-0.5" transform="matrix(-0.360505 0.931129 -0.934453 -0.360322 679.874 209.435)" stroke="#B6B6B6"/>
<line y1="-0.5" x2="156.661" y2="-0.5" transform="matrix(-0.360505 0.931129 -0.934453 -0.360322 669.989 213.793)" stroke="#B6B6B6"/>
<line y1="-0.5" x2="156.661" y2="-0.5" transform="matrix(-0.360505 0.931129 -0.934453 -0.360322 660.102 218.151)" stroke="#B6B6B6"/>
<line y1="-0.5" x2="156.661" y2="-0.5" transform="matrix(-0.360505 0.931129 -0.934453 -0.360322 650.216 222.508)" stroke="#B6B6B6"/>
<line y1="-0.5" x2="156.661" y2="-0.5" transform="matrix(-0.360505 0.931129 -0.934453 -0.360322 640.331 226.866)" stroke="#B6B6B6"/>
<line y1="-0.5" x2="156.661" y2="-0.5" transform="matrix(-0.360505 0.931129 -0.934453 -0.360322 630.445 231.224)" stroke="#B6B6B6"/>
<line y1="-0.5" x2="156.661" y2="-0.5" transform="matrix(-0.360505 0.931129 -0.934453 -0.360322 620.552 235.583)" stroke="#B6B6B6"/>
<line y1="-0.5" x2="156.661" y2="-0.5" transform="matrix(-0.360505 0.931129 -0.934453 -0.360322 610.667 239.94)" stroke="#B6B6B6"/>
<line y1="-0.5" x2="156.661" y2="-0.5" transform="matrix(-0.360505 0.931129 -0.934453 -0.360322 600.78 244.299)" stroke="#B6B6B6"/>
<line y1="-0.5" x2="156.661" y2="-0.5" transform="matrix(-0.360505 0.931129 -0.934453 -0.360322 590.894 248.658)" stroke="#B6B6B6"/>
</g>
<path d="M794.589 251.432L740.386 275.325L716.283 274.254L657.183 300.305L641.773 318.792L587.569 342.685L587.719 343.022C593.639 356.341 609.316 362.537 622.825 356.582L859.901 252.081C873.409 246.127 879.421 230.573 873.427 217.085L868.931 206.969L809.831 233.02L794.589 251.432Z" stroke="black" stroke-miterlimit="10"/>
<path d="M433.409 18.1502L302.206 165.178L330.722 392.895L659.261 352.414L630.745 124.697C583.932 93.1969 486.075 26.907 469.147 13.7468C452.219 0.586579 438.268 11.199 433.409 18.1502Z" fill="white" stroke="black"/>
<path d="M302.142 165.155L441.139 257.992L517.658 248.559L630.093 124.092" stroke="black" stroke-width="0.928893"/>
<path d="M441.046 257.941L330.606 392.889" stroke="black" stroke-width="1.11521"/>
<path d="M518.272 248.346L659.268 352.314" stroke="black" stroke-width="1.11521"/>
<path d="M302.134 165.276L630.858 124.644" stroke="black" stroke-width="1.11521"/>
<path d="M361.654 137.944L565.173 112.788L574.293 185.851L518.079 248.401L479.369 253.185L441.287 257.892L370.696 210.382L361.654 137.944Z" fill="white" stroke="black"/>
<path d="M428.482 177.132C426.487 177.375 424.475 176.818 422.887 175.583C421.3 174.348 420.267 172.536 420.015 170.545L419.816 168.965C419.573 167.006 420.103 165.032 421.296 163.461C422.488 161.891 424.248 160.847 426.201 160.552L427.249 159.215C428.67 157.398 430.75 156.212 433.042 155.912L436.184 155.526C438.179 155.283 440.191 155.84 441.779 157.075C443.367 158.31 444.4 160.122 444.652 162.113L444.851 163.694C445.094 165.652 444.563 167.626 443.371 169.197C442.179 170.767 440.419 171.811 438.466 172.106L437.408 173.461C435.99 175.27 433.916 176.449 431.632 176.745L428.482 177.132Z" fill="white" stroke="black" stroke-width="0.0492036" stroke-miterlimit="10"/>
<path d="M428.184 174.761C426.819 174.925 425.443 174.543 424.358 173.698C423.272 172.854 422.565 171.615 422.39 170.253L422.192 168.673C422.024 167.31 422.404 165.938 423.248 164.856C424.092 163.774 425.331 163.07 426.695 162.899C426.752 162.892 426.81 162.885 426.869 162.878L427.486 162.802L429.132 160.692C430.162 159.368 431.673 158.504 433.339 158.285L436.481 157.898C437.846 157.735 439.22 158.118 440.305 158.962C441.39 159.807 442.097 161.045 442.271 162.406L442.469 163.987C442.639 165.35 442.26 166.723 441.416 167.806C440.571 168.888 439.331 169.591 437.966 169.761C437.91 169.767 437.852 169.775 437.793 169.782L437.176 169.858L435.52 171.98C434.492 173.295 432.988 174.154 431.33 174.373L428.184 174.761Z" fill="#FFADF6" stroke="black" stroke-width="0.0492036" stroke-miterlimit="10"/>
<path d="M427.886 172.387C427.151 172.477 426.41 172.272 425.825 171.817C425.24 171.362 424.86 170.694 424.767 169.961L424.569 168.38C424.477 167.646 424.681 166.907 425.136 166.324C425.59 165.741 426.258 165.362 426.993 165.271L428.768 165.052L431.027 162.164C431.665 161.34 432.602 160.799 433.637 160.657L436.78 160.271C437.515 160.181 438.256 160.386 438.841 160.841C439.426 161.296 439.806 161.964 439.9 162.697L440.098 164.278C440.189 165.013 439.984 165.754 439.528 166.337C439.072 166.92 438.402 167.298 437.666 167.388L435.889 167.607C435.17 168.528 433.685 170.433 433.631 170.502C432.993 171.323 432.058 171.862 431.025 172.002L427.886 172.387Z" fill="#B4E3FD" stroke="black" stroke-width="0.0492036" stroke-miterlimit="10"/>
<path d="M437.071 162.645L433.935 163.031C433.527 163.096 433.159 163.314 432.908 163.641L430.276 167.013C430.2 167.11 430.106 167.19 429.998 167.248C429.89 167.307 429.771 167.343 429.648 167.354L427.288 167.644C427.183 167.657 427.088 167.711 427.023 167.794C426.958 167.877 426.929 167.983 426.942 168.087L427.141 169.671C427.154 169.775 427.208 169.871 427.292 169.936C427.375 170.001 427.481 170.03 427.586 170.017L430.73 169.63C431.138 169.566 431.506 169.348 431.757 169.02L434.389 165.648C434.464 165.551 434.559 165.472 434.667 165.413C434.774 165.355 434.893 165.319 435.015 165.308L437.375 165.017C437.48 165.003 437.574 164.948 437.637 164.865C437.701 164.781 437.729 164.676 437.715 164.572L437.517 162.991C437.511 162.939 437.494 162.889 437.468 162.843C437.442 162.798 437.407 162.758 437.366 162.726C437.324 162.694 437.277 162.67 437.226 162.656C437.176 162.642 437.123 162.638 437.071 162.645Z" fill="white" stroke="black" stroke-width="0.0492036" stroke-miterlimit="10"/>
<path d="M499.625 151.409L497.285 151.698L498.941 164.932L501.281 164.644L499.625 151.409Z" fill="black"/>
<path d="M475.374 161.129C474.867 157.083 471.785 154.688 467.732 155.187C463.679 155.687 461.28 158.758 461.787 162.803C462.293 166.848 465.376 169.244 469.429 168.744C473.482 168.245 475.881 165.174 475.374 161.129ZM469.153 166.54C466.485 166.869 464.478 165.3 464.129 162.514C463.78 159.728 465.339 157.719 468.007 157.39C470.676 157.062 472.681 158.632 473.03 161.418C473.379 164.204 471.822 166.211 469.153 166.54Z" fill="black"/>
<path d="M508.692 150.125C504.639 150.624 502.241 153.695 502.747 157.74C503.254 161.786 506.337 164.181 510.39 163.682C512.272 163.45 513.715 162.625 514.602 161.387L514.633 161.383L515.338 162.918L517.164 162.693L516.334 156.066C515.828 152.021 512.745 149.625 508.692 150.125ZM510.114 161.477C507.445 161.806 505.44 160.235 505.091 157.452C504.743 154.668 506.299 152.657 508.968 152.328C511.636 151.999 513.645 153.569 513.993 156.355C514.342 159.141 512.741 161.154 510.114 161.477Z" fill="black"/>
<path d="M489.838 152.457C487.971 152.687 486.758 153.841 486.283 154.789L486.267 154.791C485.346 153.678 483.823 153.198 482.139 153.405C480.879 153.558 479.732 154.204 478.95 155.2L478.929 155.202L478.389 154.03L476.564 154.255L478.223 167.502L480.571 167.212L479.409 157.93C479.267 156.796 480.267 155.873 481.92 155.67C483.66 155.455 484.779 156.192 484.955 157.596L486.074 166.534L488.417 166.246L487.274 157.114C487.119 155.88 487.986 154.922 489.71 154.71C491.435 154.497 492.573 155.261 492.746 156.636L493.865 165.574L496.207 165.286L495.07 156.201C494.731 153.481 492.575 152.119 489.838 152.457Z" fill="black"/>
<path d="M457.057 162.732L453.77 162.266C453.084 162.168 452.689 162.045 452.402 161.865C452.265 161.78 452.15 161.664 452.066 161.527C451.982 161.39 451.931 161.235 451.917 161.075C451.863 160.646 452.001 160.231 452.414 159.856C452.878 159.434 453.516 159.182 454.657 159.042C456.066 158.868 457.499 159.172 458.789 159.737L459.243 157.6C457.98 156.946 456.187 156.615 454.408 156.834C452.434 157.077 451.487 157.544 450.602 158.391C450.205 158.774 449.901 159.243 449.716 159.763C449.53 160.282 449.467 160.838 449.532 161.386C449.653 162.352 449.978 163.013 450.544 163.531C451.067 164.009 451.824 164.353 453.096 164.543L456.5 165.054C457.104 165.146 457.477 165.234 457.752 165.397C457.916 165.488 458.054 165.618 458.153 165.776C458.253 165.934 458.312 166.114 458.325 166.3C458.386 166.784 458.143 167.214 457.761 167.516C457.38 167.817 456.563 168.104 455.456 168.24C453.878 168.435 451.991 168.017 450.738 167.484L450.282 169.625C451.108 170.074 453.481 170.713 455.74 170.435C457.532 170.214 458.769 169.749 459.638 168.823C460.436 167.973 460.825 166.988 460.67 165.746C460.456 164.082 459.294 163.054 457.057 162.732Z" fill="black"/>
<path d="M147 194.878V227.312H235.204V194.878C235.155 189.252 231.535 178 217.446 178C208.802 178 179.581 178 161.089 178C147.293 178 147.094 192.704 147 194.878Z" fill="white" stroke="black"/>
<path d="M217.153 236.411L199.101 227.165H235.204L249.294 234.503C253.061 236.069 257.63 239.464 245.771 240.52C233.913 241.577 224.784 239.933 217.153 236.411Z" fill="white" stroke="black"/>
<path d="M201.302 186.953C207.173 187.247 218.914 190.387 218.914 200.602C218.914 210.817 218.914 217.871 218.914 220.122H199.101" stroke="black"/>
<rect x="-0.5" y="0.5" width="9" height="49" transform="matrix(-1 0 0 1 193.398 227)" fill="white" stroke="black"/>
<path d="M218.767 220.12L235.204 227.165" stroke="black"/>
<path d="M199.101 194.879V227.313H235.204V194.879C235.155 189.253 231.535 178.001 217.446 178.001C203.357 178.001 199.345 189.253 199.101 194.879Z" stroke="black"/>
<path d="M233.062 88.7042H295.288C295.288 88.7042 300 88.4588 300 82.8941C300 77.3294 292.068 75.3505 288.221 77.8204C288.221 77.8204 286.111 61.4909 270.62 67.926C270.62 67.926 266.408 52.214 249.299 58.1506C249.299 58.1506 238.266 62.7258 240.621 75.224C240.621 75.224 231.571 71.7573 227.113 79.4273C222.647 87.0973 233.062 88.7042 233.062 88.7042Z" fill="white" stroke="black" stroke-miterlimit="10" stroke-linecap="round" stroke-linejoin="round"/>
<rect x="917.362" y="140.647" width="47.4341" height="32.5171" transform="rotate(21.1184 917.362 140.647)" stroke="black"/>
<path d="M930.078 164.863L917.354 140.305L962.019 157.556C954.719 160.1 939.345 166.171 936.005 167.152C932.406 168.208 931.687 167.853 930.078 164.863Z" stroke="black"/>
<path d="M928.588 161.819L905.119 171.213" stroke="black"/>
<path d="M939.153 165.9L950.214 188.631" stroke="black"/>
<path d="M287.31 278.669C287.31 278.669 293.62 254.181 306.231 254.917C306.231 254.917 312.541 255.285 313.277 262.341C313.277 262.341 321.813 231.542 336.283 234.882C336.283 234.882 345.187 237.108 342.593 249.728C342.593 249.728 351.865 230.296 363.372 234.631C374.878 238.966 367.456 262.717 367.456 262.717C367.456 262.717 372.652 254.181 383.038 258.265C393.423 262.349 388.603 283.129 388.603 283.129C388.603 283.129 391.942 274.593 399.365 277.564C406.788 280.535 406.386 300.144 401.022 326.33L400.11 331L281 299.457L287.31 278.669Z" fill="#FFADF6" stroke="black" stroke-miterlimit="10"/>
</g>
<defs>
<clipPath id="clip0_6512_22112">
<rect width="1110" height="300" fill="white"/>
</clipPath>
</defs>
</svg>
