<svg width="96" height="21" viewBox="0 0 96 21" fill="none" xmlns="http://www.w3.org/2000/svg">
<g clip-path="url(#clip0_6658_25059)">
<path d="M7.93191 20.467C5.97046 20.4645 4.09005 19.6882 2.7031 18.3084C1.31614 16.9285 0.53586 15.0577 0.533386 13.1062V11.558C0.535443 9.6397 1.28922 7.79776 2.63456 6.42354C3.9799 5.04932 5.81079 4.25114 7.73823 4.19856L8.91499 3.03311C10.512 1.44858 12.6703 0.550991 14.9257 0.533447H18.0152C19.9769 0.535557 21.8576 1.3117 23.2449 2.69162C24.6321 4.07155 25.4126 5.94256 25.4151 7.89424V9.44242C25.4127 11.3606 24.6588 13.2024 23.3135 14.5765C21.9683 15.9507 20.1376 16.749 18.2102 16.8019L17.0214 17.9833C15.4286 19.5607 13.2768 20.4527 11.0294 20.467H7.93191Z" fill="white" stroke="black" stroke-width="0.0653016" stroke-miterlimit="10"/>
<path d="M7.93192 18.1425C6.59039 18.139 5.30481 17.6072 4.35619 16.6634C3.40758 15.7197 2.87309 14.4406 2.86957 13.1059V11.5578C2.87309 10.2231 3.40758 8.94403 4.35619 8.00025C5.30481 7.05648 6.59039 6.52472 7.93192 6.52121C7.98802 6.52121 8.04412 6.52121 8.1029 6.52121H8.70931L10.5593 4.68068C11.7177 3.52614 13.2861 2.87125 14.9257 2.85742H18.0152C19.3561 2.86198 20.6406 3.39421 21.5884 4.33787C22.5361 5.28153 23.0701 6.55996 23.0736 7.89397V9.44214C23.0722 10.7775 22.5384 12.0577 21.5893 13.002C20.6402 13.9462 19.3534 14.4773 18.0112 14.4787C17.9565 14.4787 17.899 14.4787 17.8416 14.4787H17.2352L15.3732 16.3298C14.2182 17.4767 12.6572 18.1271 11.0254 18.1411L7.93192 18.1425Z" fill="#FFADF6" stroke="black" stroke-width="0.0653016" stroke-miterlimit="10"/>
<path d="M7.93189 15.817C7.20943 15.8163 6.51676 15.5304 6.0059 15.0222C5.49505 14.5139 5.20774 13.8248 5.20703 13.106V11.5579C5.20774 10.839 5.495 10.1497 6.00582 9.64122C6.51664 9.13276 7.20931 8.84662 7.93189 8.84556H9.67767L12.2155 6.32729C12.9334 5.60746 13.9065 5.19662 14.9257 5.18311H18.0152C18.7378 5.18381 19.4306 5.46961 19.9417 5.97782C20.4527 6.48604 20.7403 7.17517 20.7414 7.89407V9.44224C20.7403 10.1624 20.4518 10.8527 19.9394 11.3613C19.4269 11.8699 18.7324 12.1552 18.0085 12.1545H16.2614C15.4533 12.9585 13.785 14.6196 13.7235 14.6794C13.0066 15.3968 12.0354 15.8057 11.0187 15.8183L7.93189 15.817Z" fill="#B4E3FD" stroke="black" stroke-width="0.0653016" stroke-miterlimit="10"/>
<path d="M18.0085 7.50733H14.9257C14.5228 7.52161 14.1405 7.68846 13.8571 7.97377L10.8999 10.9146C10.8148 10.9988 10.7133 11.0647 10.6017 11.1084C10.49 11.152 10.3706 11.1725 10.2507 11.1685H7.93056C7.82748 11.1685 7.72861 11.2092 7.65572 11.2817C7.58282 11.3542 7.54187 11.4526 7.54187 11.5552V13.106C7.54187 13.2086 7.58282 13.3069 7.65572 13.3794C7.72861 13.452 7.82748 13.4927 7.93056 13.4927H11.0214C11.4245 13.4791 11.807 13.3121 12.09 13.0263L15.0472 10.0854C15.1323 10.0016 15.2335 9.9358 15.3449 9.89217C15.4563 9.84853 15.5754 9.82791 15.6951 9.83158H18.0152C18.1178 9.83018 18.2157 9.78845 18.2875 9.71551C18.3594 9.64256 18.3993 9.54432 18.3986 9.44221V7.89404C18.3986 7.84314 18.3885 7.79275 18.3688 7.74574C18.3492 7.69874 18.3205 7.65605 18.2842 7.62012C18.248 7.58419 18.205 7.55574 18.1577 7.53638C18.1104 7.51703 18.0597 7.50715 18.0085 7.50733Z" fill="white" stroke="black" stroke-width="0.0653016" stroke-miterlimit="10"/>
<path d="M79.8935 4.12671H77.5907V17.1048H79.8935V4.12671Z" fill="black"/>
<path d="M55.2536 10.6157C55.2536 6.65026 52.5595 3.97119 48.575 3.97119C44.5906 3.97119 41.8965 6.65026 41.8965 10.6157C41.8965 14.5812 44.5906 17.2602 48.575 17.2602C52.5595 17.2602 55.2536 14.5812 55.2536 10.6157ZM48.575 15.0994C45.9517 15.0994 44.1992 13.3466 44.1992 10.6157C44.1992 7.88481 45.9517 6.13066 48.575 6.13066C51.1984 6.13066 52.9495 7.88481 52.9495 10.6157C52.9495 13.3466 51.1984 15.0994 48.575 15.0994Z" fill="black"/>
<path d="M88.8214 3.97119C84.837 3.97119 82.1429 6.65026 82.1429 10.6157C82.1429 14.5812 84.837 17.2602 88.8214 17.2602C90.6714 17.2602 92.1687 16.6356 93.1772 15.5459H93.2079L93.7048 17.1114H95.5V10.6157C95.5 6.65026 92.8059 3.97119 88.8214 3.97119ZM88.8214 15.0994C86.1981 15.0994 84.447 13.3439 84.447 10.6157C84.447 7.88747 86.1981 6.13066 88.8214 6.13066C91.4448 6.13066 93.1986 7.88481 93.1986 10.6157C93.1986 13.3466 91.4047 15.0994 88.8214 15.0994Z" fill="black"/>
<path d="M70.2977 3.9712C68.4625 3.9712 67.1481 4.9413 66.5738 5.79977H66.5577C65.8017 4.61572 64.3859 3.9712 62.7296 3.9712C61.4915 3.96899 60.303 4.45552 59.425 5.32402H59.405L59.0243 4.12801H57.2304V17.1114H59.5386V8.01372C59.5386 6.90276 60.6191 6.13067 62.2434 6.13067C63.9544 6.13067 64.9482 6.97452 64.9482 8.35126V17.1114H67.251V8.16123C67.251 6.95193 68.206 6.13067 69.901 6.13067C71.596 6.13067 72.6058 7.00376 72.6058 8.35126V17.1114H74.9086V8.20774C74.91 5.54196 72.9879 3.9712 70.2977 3.9712Z" fill="black"/>
<path d="M37.3337 9.97903L34.2067 9.13783C33.5549 8.96109 33.1876 8.7963 32.9311 8.58767C32.8091 8.4893 32.7117 8.36398 32.6468 8.22165C32.5819 8.07933 32.5512 7.92391 32.5571 7.76773C32.5571 7.34647 32.7415 6.96242 33.1863 6.65012C33.6872 6.29797 34.335 6.13052 35.457 6.13052C36.8421 6.13052 38.1925 6.59431 39.3733 7.29331L40.0719 5.28401C38.9285 4.50262 37.2321 3.96973 35.4837 3.96973C33.5429 3.96973 32.5692 4.30727 31.6101 5.01956C31.1787 5.34206 30.828 5.75927 30.5852 6.2387C30.3424 6.71813 30.2141 7.24685 30.2103 7.78368C30.2103 8.73119 30.4454 9.4076 30.9302 9.97504C31.379 10.4986 32.0696 10.9212 33.2784 11.2561L36.5122 12.1544C37.0865 12.3152 37.4365 12.4441 37.6836 12.6342C37.8306 12.7415 37.9482 12.8837 38.0259 13.0478C38.1036 13.2118 38.1388 13.3926 38.1284 13.5737C38.1284 14.0481 37.8412 14.4348 37.4352 14.6807C37.0291 14.9265 36.2036 15.1059 35.115 15.1059C33.5643 15.1059 31.7878 14.4787 30.6391 13.8142L29.9378 15.8275C30.6831 16.3591 32.9031 17.2588 35.1244 17.2588C36.8862 17.2588 38.1404 16.9571 39.0941 16.1664C39.969 15.4408 40.4659 14.5358 40.4659 13.3186C40.4606 11.6867 39.4601 10.5558 37.3337 9.97903Z" fill="black"/>
</g>
<defs>
<clipPath id="clip0_6658_25059">
<rect width="95" height="20" fill="white" transform="translate(0.5 0.5)"/>
</clipPath>
</defs>
</svg>
