<svg width="20" height="39" viewBox="0 0 20 39" fill="none" xmlns="http://www.w3.org/2000/svg">
<rect x="1.46364" y="0.796387" width="17.0715" height="37.3368" fill="black"/>
<path fill-rule="evenodd" clip-rule="evenodd" d="M3.28235 5.24737e-05L16.8406 0C18.2522 0 19.3966 1.14163 19.3966 2.5499V36.45C19.3966 37.8583 18.2522 38.9999 16.8406 38.9999L3.28234 39C1.87068 39 0.726303 37.8584 0.726303 36.4501L0.726307 2.54995C0.726307 1.14168 1.87069 5.24737e-05 3.28235 5.24737e-05ZM14.1982 0.864694L16.8277 0.864641C17.2756 0.864886 17.7051 1.04251 18.0219 1.35848C18.3386 1.67446 18.5166 2.10295 18.5169 2.54981V36.45C18.5166 36.8968 18.3386 37.3253 18.0219 37.6413C17.7051 37.9573 17.2756 38.1349 16.8277 38.1351L3.26853 38.1352C2.8206 38.1349 2.39108 37.9573 2.07434 37.6413C1.75761 37.3254 1.57955 36.8969 1.57931 36.45L1.57931 2.54986C1.57956 2.103 1.75761 1.67451 2.07435 1.35854C2.39109 1.04256 2.8206 0.864938 3.26854 0.864694H6.01199C6.08143 0.864694 6.14802 0.89221 6.19711 0.941189C6.24621 0.990169 6.27379 1.0566 6.27379 1.12587C6.27404 1.38524 6.37743 1.63392 6.56128 1.81732C6.74512 2.00072 6.9944 2.10387 7.25439 2.10411H12.9595C13.2188 2.10289 13.4671 1.99932 13.6502 1.81602C13.8332 1.63272 13.9361 1.3846 13.9364 1.12587C13.9364 1.0566 13.9639 0.990169 14.013 0.941189C14.0621 0.89221 14.1287 0.864694 14.1982 0.864694Z" fill="#2A2927"/>
<path d="M0.680236 5.15918C0.659872 5.15918 0.640344 5.16725 0.625944 5.18161C0.611544 5.19598 0.603455 5.21546 0.603455 5.23578V6.40413C0.603455 6.42445 0.611544 6.44393 0.625944 6.4583C0.640344 6.47266 0.659872 6.48073 0.680236 6.48073H0.744068V5.15918H0.680236Z" fill="#2B2927"/>
<path d="M0.680236 7.42578C0.660031 7.42578 0.640642 7.43372 0.626269 7.44789C0.611895 7.46206 0.603698 7.4813 0.603455 7.50146V9.53916C0.603455 9.54922 0.60544 9.55918 0.609299 9.56847C0.613157 9.57776 0.618814 9.58621 0.625944 9.59332C0.633074 9.60043 0.641537 9.60608 0.650853 9.60993C0.660168 9.61378 0.670153 9.61576 0.680236 9.61576H0.744068V7.42578H0.680236Z" fill="#2B2927"/>
<path d="M0.680236 10.3154C0.659872 10.3154 0.640344 10.3235 0.625944 10.3379C0.611544 10.3522 0.603455 10.3717 0.603455 10.392V12.4297C0.603455 12.4398 0.60544 12.4497 0.609299 12.459C0.613157 12.4683 0.618814 12.4768 0.625944 12.4839C0.633074 12.491 0.641537 12.4966 0.650853 12.5005C0.660168 12.5043 0.670153 12.5063 0.680236 12.5063H0.744068V10.3154H0.680236Z" fill="#2B2927"/>
<path d="M10.5311 1.22314H8.72533C8.68852 1.22314 8.65323 1.23773 8.62721 1.26369C8.60118 1.28965 8.58656 1.32486 8.58656 1.36158C8.58656 1.39829 8.60118 1.4335 8.62721 1.45946C8.65323 1.48542 8.68852 1.50001 8.72533 1.50001H10.5311C10.5679 1.50001 10.6032 1.48542 10.6292 1.45946C10.6553 1.4335 10.6699 1.39829 10.6699 1.36158C10.6699 1.32486 10.6553 1.28965 10.6292 1.26369C10.6032 1.23773 10.5679 1.22314 10.5311 1.22314Z" fill="#979797"/>
<path d="M11.5895 1.35799C11.5897 1.39618 11.5785 1.43356 11.5574 1.46541C11.5362 1.49725 11.5061 1.52212 11.4708 1.53686C11.4355 1.5516 11.3966 1.55555 11.359 1.54821C11.3214 1.54088 11.2869 1.52258 11.2597 1.49564C11.2326 1.4687 11.2141 1.43433 11.2066 1.39689C11.199 1.35944 11.2028 1.32061 11.2174 1.28531C11.232 1.25001 11.2568 1.21983 11.2886 1.19859C11.3204 1.17735 11.3578 1.16602 11.3961 1.16602C11.4472 1.16626 11.4961 1.18653 11.5323 1.22245C11.5685 1.25838 11.589 1.30707 11.5895 1.35799Z" fill="#979797"/>
</svg>
