<svg width="100" height="101" viewBox="0 0 100 101" fill="none" xmlns="http://www.w3.org/2000/svg">
<path d="M27.0019 80.671C29.7634 80.671 32.0019 78.4323 32.0019 75.6711C32.0019 72.9096 29.7634 70.6711 27.0019 70.6711C24.2404 70.6711 22.002 72.9096 22.002 75.6711C22.002 78.4323 24.2404 80.671 27.0019 80.671Z" stroke="url(#paint0_linear_7336_8238)" stroke-width="1.584" stroke-miterlimit="10" stroke-linecap="round" stroke-linejoin="round"/>
<path d="M42.0034 78.6742C44.7649 78.6742 47.0036 76.4358 47.0036 73.6743C47.0036 70.9128 44.7649 68.6743 42.0034 68.6743C39.2419 68.6743 37.0034 70.9128 37.0034 73.6743C37.0034 76.4358 39.2419 78.6742 42.0034 78.6742Z" stroke="url(#paint1_linear_7336_8238)" stroke-width="1.584" stroke-miterlimit="10" stroke-linecap="round" stroke-linejoin="round"/>
<path d="M29.0041 64.6767C31.7656 64.6767 34.0041 62.438 34.0041 59.6767C34.0041 56.9152 31.7656 54.6765 29.0041 54.6765C26.2426 54.6765 24.0039 56.9152 24.0039 59.6767C24.0039 62.438 26.2426 64.6767 29.0041 64.6767Z" stroke="url(#paint2_linear_7336_8238)" stroke-width="1.584" stroke-miterlimit="10" stroke-linecap="round" stroke-linejoin="round"/>
<path d="M40.9997 56.6737C43.7612 56.6737 45.9997 54.435 45.9997 51.6738C45.9997 48.9123 43.7612 46.6738 40.9997 46.6738C38.2382 46.6738 35.9995 48.9123 35.9995 51.6738C35.9995 54.435 38.2382 56.6737 40.9997 56.6737Z" stroke="url(#paint3_linear_7336_8238)" stroke-width="1.584" stroke-miterlimit="10" stroke-linecap="round" stroke-linejoin="round"/>
<path d="M50.9993 66.6735C53.7608 66.6735 55.9992 64.4348 55.9992 61.6733C55.9992 58.9118 53.7608 56.6733 50.9993 56.6733C48.2377 56.6733 45.999 58.9118 45.999 61.6733C45.999 64.4348 48.2377 66.6735 50.9993 66.6735Z" stroke="url(#paint4_linear_7336_8238)" stroke-width="1.584" stroke-miterlimit="10" stroke-linecap="round" stroke-linejoin="round"/>
<path d="M60.0053 77.6762C62.7671 77.6762 65.0056 75.4375 65.0056 72.676C65.0056 69.9145 62.7671 67.676 60.0053 67.676C57.2441 67.676 55.0054 69.9145 55.0054 72.676C55.0054 75.4375 57.2441 77.6762 60.0053 77.6762Z" stroke="url(#paint5_linear_7336_8238)" stroke-width="1.584" stroke-miterlimit="10" stroke-linecap="round" stroke-linejoin="round"/>
<path d="M50.9993 91.674C53.7608 91.674 55.9992 89.4353 55.9992 86.6738C55.9992 83.9123 53.7608 81.6738 50.9993 81.6738C48.2377 81.6738 45.999 83.9123 45.999 86.6738C45.999 89.4353 48.2377 91.674 50.9993 91.674Z" stroke="url(#paint6_linear_7336_8238)" stroke-width="1.584" stroke-miterlimit="10" stroke-linecap="round" stroke-linejoin="round"/>
<path d="M30.0019 47.673C32.7634 47.673 35.0021 45.4346 35.0021 42.6731C35.0021 39.9116 32.7634 37.6729 30.0019 37.6729C27.2404 37.6729 25.002 39.9116 25.002 42.6731C25.002 45.4346 27.2404 47.673 30.0019 47.673Z" stroke="url(#paint7_linear_7336_8238)" stroke-width="1.584" stroke-miterlimit="10" stroke-linecap="round" stroke-linejoin="round"/>
<path d="M15.9993 55.6757C18.7605 55.6757 20.9992 53.437 20.9992 50.6758C20.9992 47.9143 18.7605 45.6755 15.9993 45.6755C13.2377 45.6755 10.999 47.9143 10.999 50.6758C10.999 53.437 13.2377 55.6757 15.9993 55.6757Z" stroke="url(#paint8_linear_7336_8238)" stroke-width="1.584" stroke-miterlimit="10" stroke-linecap="round" stroke-linejoin="round"/>
<path d="M42.0034 34.6794C44.7649 34.6794 47.0036 32.4407 47.0036 29.6792C47.0036 26.9176 44.7649 24.6792 42.0034 24.6792C39.2419 24.6792 37.0034 26.9176 37.0034 29.6792C37.0034 32.4407 39.2419 34.6794 42.0034 34.6794Z" stroke="url(#paint9_linear_7336_8238)" stroke-width="1.584" stroke-miterlimit="10" stroke-linecap="round" stroke-linejoin="round"/>
<path d="M50.9993 21.6743C53.7608 21.6743 55.9992 19.4358 55.9992 16.6743C55.9992 13.9128 53.7608 11.6741 50.9993 11.6741C48.2377 11.6741 45.999 13.9128 45.999 16.6743C45.999 19.4358 48.2377 21.6743 50.9993 21.6743Z" stroke="url(#paint10_linear_7336_8238)" stroke-width="1.584" stroke-miterlimit="10" stroke-linecap="round" stroke-linejoin="round"/>
<path d="M60.0053 34.6794C62.7671 34.6794 65.0056 32.4407 65.0056 29.6792C65.0056 26.9176 62.7671 24.6792 60.0053 24.6792C57.2441 24.6792 55.0054 26.9176 55.0054 29.6792C55.0054 32.4407 57.2441 34.6794 60.0053 34.6794Z" stroke="url(#paint11_linear_7336_8238)" stroke-width="1.584" stroke-miterlimit="10" stroke-linecap="round" stroke-linejoin="round"/>
<path d="M75.9997 31.6735C78.761 31.6735 80.9997 29.4348 80.9997 26.6733C80.9997 23.9121 78.761 21.6733 75.9997 21.6733C73.2382 21.6733 70.9995 23.9121 70.9995 26.6733C70.9995 29.4348 73.2382 31.6735 75.9997 31.6735Z" stroke="url(#paint12_linear_7336_8238)" stroke-width="1.584" stroke-miterlimit="10" stroke-linecap="round" stroke-linejoin="round"/>
<path d="M60.998 55.6757C63.7595 55.6757 65.9982 53.437 65.9982 50.6758C65.9982 47.9143 63.7595 45.6755 60.998 45.6755C58.2365 45.6755 55.998 47.9143 55.998 50.6758C55.998 53.437 58.2365 55.6757 60.998 55.6757Z" stroke="url(#paint13_linear_7336_8238)" stroke-width="1.584" stroke-miterlimit="10" stroke-linecap="round" stroke-linejoin="round"/>
<path d="M72.9993 47.673C75.7608 47.673 77.9992 45.4346 77.9992 42.6731C77.9992 39.9116 75.7608 37.6729 72.9993 37.6729C70.2377 37.6729 67.999 39.9116 67.999 42.6731C67.999 45.4346 70.2377 47.673 72.9993 47.673Z" stroke="url(#paint14_linear_7336_8238)" stroke-width="1.584" stroke-miterlimit="10" stroke-linecap="round" stroke-linejoin="round"/>
<path d="M85.999 56.6737C88.7602 56.6737 90.9989 54.435 90.9989 51.6738C90.9989 48.9123 88.7602 46.6738 85.999 46.6738C83.2375 46.6738 80.999 48.9123 80.999 51.6738C80.999 54.435 83.2375 56.6737 85.999 56.6737Z" stroke="url(#paint15_linear_7336_8238)" stroke-width="1.584" stroke-miterlimit="10" stroke-linecap="round" stroke-linejoin="round"/>
<path d="M72.9993 65.6801C75.7608 65.6801 77.9992 63.4416 77.9992 60.6801C77.9992 57.9186 75.7608 55.6802 72.9993 55.6802C70.2377 55.6802 67.999 57.9186 67.999 60.6801C67.999 63.4416 70.2377 65.6801 72.9993 65.6801Z" stroke="url(#paint16_linear_7336_8238)" stroke-width="1.584" stroke-miterlimit="10" stroke-linecap="round" stroke-linejoin="round"/>
<path d="M75.2907 81.2982C78.0523 81.2982 80.2907 79.0598 80.2907 76.2983C80.2907 73.5368 78.0523 71.2983 75.2907 71.2983C72.5292 71.2983 70.2905 73.5368 70.2905 76.2983C70.2905 79.0598 72.5292 81.2982 75.2907 81.2982Z" stroke="url(#paint17_linear_7336_8238)" stroke-width="1.584" stroke-miterlimit="10" stroke-linecap="round" stroke-linejoin="round"/>
<path d="M50.9993 45.6713C53.7608 45.6713 55.9992 43.4326 55.9992 40.6714C55.9992 37.9099 53.7608 35.6711 50.9993 35.6711C48.2377 35.6711 45.999 37.9099 45.999 40.6714C45.999 43.4326 48.2377 45.6713 50.9993 45.6713Z" stroke="url(#paint18_linear_7336_8238)" stroke-width="1.584" stroke-miterlimit="10" stroke-linecap="round" stroke-linejoin="round"/>
<path d="M25.9983 31.6735C28.7598 31.6735 30.9982 29.4348 30.9982 26.6733C30.9982 23.9121 28.7598 21.6733 25.9983 21.6733C23.2368 21.6733 20.998 23.9121 20.998 26.6733C20.998 29.4348 23.2368 31.6735 25.9983 31.6735Z" stroke="url(#paint19_linear_7336_8238)" stroke-width="1.584" stroke-miterlimit="10" stroke-linecap="round" stroke-linejoin="round"/>
<path d="M39.2703 32.3209C40.4502 33.2863 42.15 33.3074 43.6218 33.4943C44.3471 33.1317 44.9917 32.4715 44.9917 31.6041V30.5828C44.9917 30.1846 44.7766 29.863 44.7634 29.4601C44.7418 28.799 44.6564 27.5859 43.9642 27.24C43.5325 27.024 42.5015 27.2293 42.0868 27.3289C41.4728 27.4756 40.0156 27.6467 39.6255 28.204C39.1328 28.9077 39.0548 29.6317 39.0548 30.4621C39.0548 30.9606 38.8512 31.978 39.2703 32.3209Z" fill="#E7DBCF"/>
<path d="M27.2694 61.6744C28.4497 62.6401 30.1492 62.6612 31.6209 62.8481C32.3463 62.4852 32.9909 61.8252 32.9909 60.9578V59.9366C32.9909 59.5384 32.7757 59.217 32.7626 58.8138C32.741 58.1528 32.6556 56.9397 31.9634 56.5937C31.5314 56.3778 30.5006 56.5831 30.0859 56.6824C29.472 56.8294 28.0147 57.0005 27.6247 57.5578C27.132 58.2615 27.0537 58.9854 27.0537 59.8159C27.0537 60.3141 26.8504 61.3317 27.2694 61.6744Z" fill="#E7DBCF"/>
<path d="M58.2704 52.6793C59.4504 53.6447 61.1502 53.6657 62.6216 53.8527C63.3473 53.49 63.9919 52.8298 63.9919 51.9624V50.9412C63.9919 50.5429 63.7767 50.2216 63.7636 49.8184C63.7417 49.1577 63.6563 47.9443 62.9643 47.5983C62.5324 47.3823 61.5016 47.5879 61.0866 47.6873C60.473 47.8342 59.0157 48.0053 58.6257 48.5626C58.133 49.266 58.0547 49.99 58.0547 50.8207C58.0547 51.3189 57.8513 52.3363 58.2704 52.6793Z" fill="#E7DBCF"/>
<path d="M58.2704 31.6771C59.4504 32.6428 61.1502 32.6639 62.6216 32.8508C63.3473 32.4879 63.9919 31.8279 63.9919 30.9605V29.9393C63.9919 29.541 63.7767 29.2197 63.7636 28.8165C63.7417 28.1555 63.6563 26.9424 62.9643 26.5964C62.5324 26.3805 61.5016 26.5857 61.0866 26.6851C60.473 26.8321 59.0157 27.0031 58.6257 27.5604C58.133 28.2642 58.0547 28.9881 58.0547 29.8186C58.0547 30.3167 57.8513 31.3344 58.2704 31.6771Z" fill="#E7DBCF"/>
<path d="M40.2791 75.6776C41.4593 76.6433 43.1591 76.6643 44.6306 76.8513C45.3562 76.4883 46.0008 75.8284 46.0008 74.9607V73.9398C46.0008 73.5415 45.7857 73.2202 45.7723 72.817C45.7506 72.156 45.6652 70.9429 44.973 70.5969C44.5414 70.3809 43.5106 70.5862 43.0956 70.6856C42.4817 70.8326 41.0244 71.0036 40.6344 71.5609C40.142 72.2646 40.0634 72.9886 40.0634 73.8191C40.0634 74.3172 39.8603 75.3349 40.2791 75.6776Z" fill="#E7DBCF"/>
<defs>
<linearGradient id="paint0_linear_7336_8238" x1="34.5026" y1="78.9968" x2="21.003" y2="70.9971" gradientUnits="userSpaceOnUse">
<stop stop-color="#9E866C"/>
<stop offset="0.07" stop-color="#B8A284"/>
<stop offset="0.21" stop-color="#AD9378"/>
<stop offset="0.277551" stop-color="#DDCEBA"/>
<stop offset="0.332061" stop-color="#AB8F76"/>
<stop offset="0.66" stop-color="#735B42"/>
<stop offset="0.74" stop-color="#A58B6E"/>
<stop offset="0.91" stop-color="#B79A7A"/>
<stop offset="1" stop-color="#8F7E61"/>
</linearGradient>
<linearGradient id="paint1_linear_7336_8238" x1="49.5044" y1="77" x2="36.0046" y2="68.9999" gradientUnits="userSpaceOnUse">
<stop stop-color="#9E866C"/>
<stop offset="0.07" stop-color="#B8A284"/>
<stop offset="0.21" stop-color="#AD9378"/>
<stop offset="0.277551" stop-color="#DDCEBA"/>
<stop offset="0.332061" stop-color="#AB8F76"/>
<stop offset="0.66" stop-color="#735B42"/>
<stop offset="0.74" stop-color="#A58B6E"/>
<stop offset="0.91" stop-color="#B79A7A"/>
<stop offset="1" stop-color="#8F7E61"/>
</linearGradient>
<linearGradient id="paint2_linear_7336_8238" x1="36.5049" y1="63.0024" x2="23.0049" y2="55.0024" gradientUnits="userSpaceOnUse">
<stop stop-color="#9E866C"/>
<stop offset="0.07" stop-color="#B8A284"/>
<stop offset="0.21" stop-color="#AD9378"/>
<stop offset="0.277551" stop-color="#DDCEBA"/>
<stop offset="0.332061" stop-color="#AB8F76"/>
<stop offset="0.66" stop-color="#735B42"/>
<stop offset="0.74" stop-color="#A58B6E"/>
<stop offset="0.91" stop-color="#B79A7A"/>
<stop offset="1" stop-color="#8F7E61"/>
</linearGradient>
<linearGradient id="paint3_linear_7336_8238" x1="48.5005" y1="54.9995" x2="35.0007" y2="46.9994" gradientUnits="userSpaceOnUse">
<stop stop-color="#9E866C"/>
<stop offset="0.07" stop-color="#B8A284"/>
<stop offset="0.21" stop-color="#AD9378"/>
<stop offset="0.277551" stop-color="#DDCEBA"/>
<stop offset="0.332061" stop-color="#AB8F76"/>
<stop offset="0.66" stop-color="#735B42"/>
<stop offset="0.74" stop-color="#A58B6E"/>
<stop offset="0.91" stop-color="#B79A7A"/>
<stop offset="1" stop-color="#8F7E61"/>
</linearGradient>
<linearGradient id="paint4_linear_7336_8238" x1="58.5" y1="64.9993" x2="45" y2="56.9993" gradientUnits="userSpaceOnUse">
<stop stop-color="#9E866C"/>
<stop offset="0.07" stop-color="#B8A284"/>
<stop offset="0.21" stop-color="#AD9378"/>
<stop offset="0.277551" stop-color="#DDCEBA"/>
<stop offset="0.332061" stop-color="#AB8F76"/>
<stop offset="0.66" stop-color="#735B42"/>
<stop offset="0.74" stop-color="#A58B6E"/>
<stop offset="0.91" stop-color="#B79A7A"/>
<stop offset="1" stop-color="#8F7E61"/>
</linearGradient>
<linearGradient id="paint5_linear_7336_8238" x1="67.5063" y1="76.002" x2="54.0063" y2="68.002" gradientUnits="userSpaceOnUse">
<stop stop-color="#9E866C"/>
<stop offset="0.07" stop-color="#B8A284"/>
<stop offset="0.21" stop-color="#AD9378"/>
<stop offset="0.277551" stop-color="#DDCEBA"/>
<stop offset="0.332061" stop-color="#AB8F76"/>
<stop offset="0.66" stop-color="#735B42"/>
<stop offset="0.74" stop-color="#A58B6E"/>
<stop offset="0.91" stop-color="#B79A7A"/>
<stop offset="1" stop-color="#8F7E61"/>
</linearGradient>
<linearGradient id="paint6_linear_7336_8238" x1="58.5" y1="89.9998" x2="45" y2="81.9998" gradientUnits="userSpaceOnUse">
<stop stop-color="#9E866C"/>
<stop offset="0.07" stop-color="#B8A284"/>
<stop offset="0.21" stop-color="#AD9378"/>
<stop offset="0.277551" stop-color="#DDCEBA"/>
<stop offset="0.332061" stop-color="#AB8F76"/>
<stop offset="0.66" stop-color="#735B42"/>
<stop offset="0.74" stop-color="#A58B6E"/>
<stop offset="0.91" stop-color="#B79A7A"/>
<stop offset="1" stop-color="#8F7E61"/>
</linearGradient>
<linearGradient id="paint7_linear_7336_8238" x1="37.5029" y1="45.9988" x2="24.0029" y2="37.9988" gradientUnits="userSpaceOnUse">
<stop stop-color="#9E866C"/>
<stop offset="0.07" stop-color="#B8A284"/>
<stop offset="0.21" stop-color="#AD9378"/>
<stop offset="0.277551" stop-color="#DDCEBA"/>
<stop offset="0.332061" stop-color="#AB8F76"/>
<stop offset="0.66" stop-color="#735B42"/>
<stop offset="0.74" stop-color="#A58B6E"/>
<stop offset="0.91" stop-color="#B79A7A"/>
<stop offset="1" stop-color="#8F7E61"/>
</linearGradient>
<linearGradient id="paint8_linear_7336_8238" x1="23.5" y1="54.0015" x2="10" y2="46.0015" gradientUnits="userSpaceOnUse">
<stop stop-color="#9E866C"/>
<stop offset="0.07" stop-color="#B8A284"/>
<stop offset="0.21" stop-color="#AD9378"/>
<stop offset="0.277551" stop-color="#DDCEBA"/>
<stop offset="0.332061" stop-color="#AB8F76"/>
<stop offset="0.66" stop-color="#735B42"/>
<stop offset="0.74" stop-color="#A58B6E"/>
<stop offset="0.91" stop-color="#B79A7A"/>
<stop offset="1" stop-color="#8F7E61"/>
</linearGradient>
<linearGradient id="paint9_linear_7336_8238" x1="49.5044" y1="33.0051" x2="36.0044" y2="25.0051" gradientUnits="userSpaceOnUse">
<stop stop-color="#9E866C"/>
<stop offset="0.07" stop-color="#B8A284"/>
<stop offset="0.21" stop-color="#AD9378"/>
<stop offset="0.277551" stop-color="#DDCEBA"/>
<stop offset="0.332061" stop-color="#AB8F76"/>
<stop offset="0.66" stop-color="#735B42"/>
<stop offset="0.74" stop-color="#A58B6E"/>
<stop offset="0.91" stop-color="#B79A7A"/>
<stop offset="1" stop-color="#8F7E61"/>
</linearGradient>
<linearGradient id="paint10_linear_7336_8238" x1="58.5" y1="20" x2="45" y2="12" gradientUnits="userSpaceOnUse">
<stop stop-color="#9E866C"/>
<stop offset="0.07" stop-color="#B8A284"/>
<stop offset="0.21" stop-color="#AD9378"/>
<stop offset="0.277551" stop-color="#DDCEBA"/>
<stop offset="0.332061" stop-color="#AB8F76"/>
<stop offset="0.66" stop-color="#735B42"/>
<stop offset="0.74" stop-color="#A58B6E"/>
<stop offset="0.91" stop-color="#B79A7A"/>
<stop offset="1" stop-color="#8F7E61"/>
</linearGradient>
<linearGradient id="paint11_linear_7336_8238" x1="67.5063" y1="33.0051" x2="54.0063" y2="25.0051" gradientUnits="userSpaceOnUse">
<stop stop-color="#9E866C"/>
<stop offset="0.07" stop-color="#B8A284"/>
<stop offset="0.21" stop-color="#AD9378"/>
<stop offset="0.277551" stop-color="#DDCEBA"/>
<stop offset="0.332061" stop-color="#AB8F76"/>
<stop offset="0.66" stop-color="#735B42"/>
<stop offset="0.74" stop-color="#A58B6E"/>
<stop offset="0.91" stop-color="#B79A7A"/>
<stop offset="1" stop-color="#8F7E61"/>
</linearGradient>
<linearGradient id="paint12_linear_7336_8238" x1="83.5005" y1="29.9993" x2="70.0005" y2="21.9993" gradientUnits="userSpaceOnUse">
<stop stop-color="#9E866C"/>
<stop offset="0.07" stop-color="#B8A284"/>
<stop offset="0.21" stop-color="#AD9378"/>
<stop offset="0.277551" stop-color="#DDCEBA"/>
<stop offset="0.332061" stop-color="#AB8F76"/>
<stop offset="0.66" stop-color="#735B42"/>
<stop offset="0.74" stop-color="#A58B6E"/>
<stop offset="0.91" stop-color="#B79A7A"/>
<stop offset="1" stop-color="#8F7E61"/>
</linearGradient>
<linearGradient id="paint13_linear_7336_8238" x1="68.499" y1="54.0015" x2="54.999" y2="46.0015" gradientUnits="userSpaceOnUse">
<stop stop-color="#9E866C"/>
<stop offset="0.07" stop-color="#B8A284"/>
<stop offset="0.21" stop-color="#AD9378"/>
<stop offset="0.277551" stop-color="#DDCEBA"/>
<stop offset="0.332061" stop-color="#AB8F76"/>
<stop offset="0.66" stop-color="#735B42"/>
<stop offset="0.74" stop-color="#A58B6E"/>
<stop offset="0.91" stop-color="#B79A7A"/>
<stop offset="1" stop-color="#8F7E61"/>
</linearGradient>
<linearGradient id="paint14_linear_7336_8238" x1="80.5" y1="45.9988" x2="67" y2="37.9988" gradientUnits="userSpaceOnUse">
<stop stop-color="#9E866C"/>
<stop offset="0.07" stop-color="#B8A284"/>
<stop offset="0.21" stop-color="#AD9378"/>
<stop offset="0.277551" stop-color="#DDCEBA"/>
<stop offset="0.332061" stop-color="#AB8F76"/>
<stop offset="0.66" stop-color="#735B42"/>
<stop offset="0.74" stop-color="#A58B6E"/>
<stop offset="0.91" stop-color="#B79A7A"/>
<stop offset="1" stop-color="#8F7E61"/>
</linearGradient>
<linearGradient id="paint15_linear_7336_8238" x1="93.4996" y1="54.9995" x2="80" y2="46.9998" gradientUnits="userSpaceOnUse">
<stop stop-color="#9E866C"/>
<stop offset="0.07" stop-color="#B8A284"/>
<stop offset="0.21" stop-color="#AD9378"/>
<stop offset="0.277551" stop-color="#DDCEBA"/>
<stop offset="0.332061" stop-color="#AB8F76"/>
<stop offset="0.66" stop-color="#735B42"/>
<stop offset="0.74" stop-color="#A58B6E"/>
<stop offset="0.91" stop-color="#B79A7A"/>
<stop offset="1" stop-color="#8F7E61"/>
</linearGradient>
<linearGradient id="paint16_linear_7336_8238" x1="80.5" y1="64.0059" x2="67.0002" y2="56.0058" gradientUnits="userSpaceOnUse">
<stop stop-color="#9E866C"/>
<stop offset="0.07" stop-color="#B8A284"/>
<stop offset="0.21" stop-color="#AD9378"/>
<stop offset="0.277551" stop-color="#DDCEBA"/>
<stop offset="0.332061" stop-color="#AB8F76"/>
<stop offset="0.66" stop-color="#735B42"/>
<stop offset="0.74" stop-color="#A58B6E"/>
<stop offset="0.91" stop-color="#B79A7A"/>
<stop offset="1" stop-color="#8F7E61"/>
</linearGradient>
<linearGradient id="paint17_linear_7336_8238" x1="82.7915" y1="79.624" x2="69.2917" y2="71.6239" gradientUnits="userSpaceOnUse">
<stop stop-color="#9E866C"/>
<stop offset="0.07" stop-color="#B8A284"/>
<stop offset="0.21" stop-color="#AD9378"/>
<stop offset="0.277551" stop-color="#DDCEBA"/>
<stop offset="0.332061" stop-color="#AB8F76"/>
<stop offset="0.66" stop-color="#735B42"/>
<stop offset="0.74" stop-color="#A58B6E"/>
<stop offset="0.91" stop-color="#B79A7A"/>
<stop offset="1" stop-color="#8F7E61"/>
</linearGradient>
<linearGradient id="paint18_linear_7336_8238" x1="58.5" y1="43.9971" x2="45" y2="35.9971" gradientUnits="userSpaceOnUse">
<stop stop-color="#9E866C"/>
<stop offset="0.07" stop-color="#B8A284"/>
<stop offset="0.21" stop-color="#AD9378"/>
<stop offset="0.277551" stop-color="#DDCEBA"/>
<stop offset="0.332061" stop-color="#AB8F76"/>
<stop offset="0.66" stop-color="#735B42"/>
<stop offset="0.74" stop-color="#A58B6E"/>
<stop offset="0.91" stop-color="#B79A7A"/>
<stop offset="1" stop-color="#8F7E61"/>
</linearGradient>
<linearGradient id="paint19_linear_7336_8238" x1="33.499" y1="29.9993" x2="19.999" y2="21.9993" gradientUnits="userSpaceOnUse">
<stop stop-color="#9E866C"/>
<stop offset="0.07" stop-color="#B8A284"/>
<stop offset="0.21" stop-color="#AD9378"/>
<stop offset="0.277551" stop-color="#DDCEBA"/>
<stop offset="0.332061" stop-color="#AB8F76"/>
<stop offset="0.66" stop-color="#735B42"/>
<stop offset="0.74" stop-color="#A58B6E"/>
<stop offset="0.91" stop-color="#B79A7A"/>
<stop offset="1" stop-color="#8F7E61"/>
</linearGradient>
</defs>
</svg>
