<svg width="80" height="81" viewBox="0 0 80 81" fill="none" xmlns="http://www.w3.org/2000/svg">
<path d="M60.5229 59.4648C57.2592 67.6427 49.2792 73.3506 39.9526 73.3506C34.8047 73.3506 30.067 71.548 26.3062 68.5676M57.9379 37.7981C51.524 24.3003 39.9526 8.35059 39.9526 8.35059C39.9526 8.35059 17.8071 39.2346 17.8071 51.2051C17.8071 56.1863 19.5239 60.8565 22.41 64.6121" stroke="url(#paint0_linear_7336_8203)" stroke-width="1.16071" stroke-linejoin="round"/>
<path d="M63.4868 33.3057C64.6825 33.3811 65.7825 33.9859 66.4878 34.9551L66.5024 34.9746L66.5181 34.9932C68.1956 36.9399 68.4479 39.1467 68.1362 41.1309C67.8224 43.1287 66.9393 44.8632 66.4038 45.7705L66.1284 46.2373L66.5747 46.5439C67.2007 46.9748 68.1508 47.7188 68.9829 48.7012C69.7652 49.6248 70.4168 50.7273 70.6284 51.9531L70.6646 52.2002C70.8666 53.9408 70.1648 55.6652 68.4087 57.3496C67.3591 58.3407 65.9526 58.8653 64.5103 58.8037L64.5034 58.8027H64.4956C63.4197 58.7852 62.3526 58.5993 61.3345 58.251L60.2583 57.8828L60.5923 58.9697C60.8266 59.7334 60.5876 60.564 59.9829 61.0859C59.1409 61.8126 57.8689 61.719 57.1421 60.877L56.4048 60.0225L56.1392 61.1191C55.6336 63.2018 54.3957 65.9129 51.6646 66.5957L51.6597 66.5967C50.9529 66.7797 50.2267 66.8771 49.4966 66.8857H49.4849C48.1391 66.9282 46.8344 66.4385 45.8511 65.5293L45.6587 65.3418C43.9691 63.5717 43.5883 60.7282 43.52 59.3018L43.4937 58.7607L42.9526 58.749L42.519 58.7334C41.4189 58.6761 39.7342 58.4637 38.1089 57.7695C36.3806 57.0314 34.745 55.7626 33.9165 53.5625L33.7622 53.1104C33.275 51.5269 33.4343 50.3382 34.0581 49.4814C34.8821 48.3659 36.6598 47.6851 39.6235 47.6826C42.9743 47.8042 46.2996 48.3124 49.5337 49.1973L50.8823 49.5664L50.1919 48.3506L49.4243 47C49.2462 46.6729 49.1629 46.3025 49.1841 45.9307L49.2036 45.5996L48.9292 45.415L45.5054 43.1133L45.5024 43.1104L45.4692 43.083C45.3999 43.0134 45.3863 42.9027 45.4429 42.8174C45.4992 42.7323 45.6064 42.7015 45.6978 42.7383L45.7358 42.7578L48.8599 44.8301L49.3081 45.127L49.6382 44.7031C49.7989 44.4971 49.9986 44.3243 50.2261 44.1953C50.468 44.0692 50.7334 43.9943 51.0054 43.9736L51.5562 43.9316L51.5415 43.3799L51.4419 39.6104C51.4421 39.5071 51.5261 39.4238 51.6294 39.4238C51.7325 39.424 51.8157 39.5072 51.8159 39.6104V39.6182L51.8169 39.626L51.9243 43.7705L51.9321 44.0967L52.2153 44.2588C52.5325 44.441 52.794 44.7065 52.9712 45.0264L53.479 44.7461L52.9712 45.0273L52.9751 45.0332L53.7427 46.377L54.4019 47.5303L54.8003 46.2627C55.4413 44.2252 56.6011 40.9292 58.1548 38.1533C58.9322 36.7643 59.793 35.5344 60.7144 34.6582C61.6324 33.7853 62.5589 33.3112 63.4868 33.3057ZM39.6626 48.0264C38.3945 48.0264 37.3009 48.1496 36.4194 48.4072C35.5442 48.6631 34.8215 49.0681 34.3755 49.6738C33.7378 50.5378 33.7449 51.7008 34.1343 52.9746V52.9766C34.9139 55.5046 36.8087 56.8518 38.6626 57.5576C40.5063 58.2595 42.3636 58.3515 43.2163 58.3516H43.6997C43.8031 58.3516 43.8872 58.4357 43.8872 58.5391C43.887 58.5477 43.8861 58.6359 43.8872 58.7451C43.8885 58.8727 43.8922 59.0518 43.9038 59.2695C43.927 59.7041 43.9802 60.2992 44.0991 60.9609C44.3334 62.2643 44.8399 63.9193 45.9702 65.084L45.9712 65.085C46.9123 66.0495 48.2196 66.5681 49.5659 66.5107L49.5649 66.5098C50.2642 66.5003 50.9594 66.4065 51.6362 66.2305C53.5452 65.7463 54.6409 64.1959 55.2632 62.7461C55.8897 61.2863 56.0919 59.809 56.1519 59.2539L56.1714 59.0713L56.0825 58.9102L51.2544 50.1836L51.1372 49.9717L50.9058 49.9062L50.2251 49.7178C48.2261 49.1785 43.5167 48.0264 39.6626 48.0264ZM51.2515 44.3652C50.9738 44.364 50.7003 44.4341 50.4575 44.5684L50.4556 44.5693C49.6674 45.0109 49.3812 46.0053 49.8149 46.7979L49.8169 46.8008L51.4517 49.7471L56.5396 58.9561V58.957L57.3062 60.3516V60.3525C57.518 60.7402 57.8777 61.0264 58.3032 61.1455C59.1753 61.3895 60.0808 60.8799 60.3247 60.0078L60.3228 60.0068C60.444 59.5922 60.3972 59.1469 60.1899 58.7676L60.189 58.7646L52.6899 45.209H52.689C52.4 44.6886 51.852 44.3658 51.2573 44.3652H51.2515ZM63.5034 33.6807C62.4506 33.6807 61.4848 34.3474 60.6499 35.2441C59.7991 36.1579 58.9888 37.4124 58.2476 38.8076C56.7627 41.6028 55.4994 45.0711 54.7241 47.8115L54.6587 48.042L54.7759 48.252L59.6265 56.9785L59.7134 57.1348L59.8735 57.2158C61.3273 57.9462 62.9199 58.359 64.5454 58.4277H64.5474C65.879 58.4814 67.1772 58.0042 68.1567 57.1006L69.2485 56.0938H69.0493C69.9955 54.8836 70.4442 53.602 70.2974 52.2734V52.2695L70.2476 51.9453C69.9445 50.3448 68.8404 49.0012 67.8618 48.0771C67.3298 47.5748 66.8106 47.1744 66.4253 46.8994C66.2324 46.7617 66.0721 46.6543 65.9585 46.5811C65.9018 46.5445 65.8563 46.5166 65.8247 46.4971C65.8089 46.4873 65.7964 46.479 65.7876 46.4736C65.7833 46.471 65.7794 46.4693 65.7769 46.4678C65.7756 46.467 65.7747 46.4663 65.7739 46.4658L65.7729 46.4648H65.772L65.7661 46.4619L65.7515 46.4521C65.6676 46.3917 65.6483 46.2743 65.7085 46.1904H65.7095L65.7144 46.1826C65.812 46.0426 66.9163 44.4846 67.522 42.3965C68.1271 40.3101 68.2591 37.5901 66.2622 35.2598C65.6315 34.3709 64.6482 33.796 63.563 33.6836L63.5337 33.6807H63.5034Z" stroke="url(#paint1_linear_7336_8203)" stroke-width="1.16071"/>
<path d="M30.4099 66.4771C29.3774 66.4406 27.0134 65.7759 25.8172 63.4092C24.6209 61.0426 24.1795 59.7935 24.1083 59.4648C24.0371 60.5605 23.617 63.1244 22.5062 64.6145C21.3954 66.1046 18.9103 66.8423 17.8066 67.0249M18.7651 66.8053C20.4384 67.5357 24.1083 70.29 24.1083 72.8319C24.4287 71.1519 26.5735 67.0709 29.3078 66.282" stroke="url(#paint2_linear_7336_8203)" stroke-width="1.16071" stroke-linecap="round" stroke-linejoin="round"/>
<defs>
<linearGradient id="paint0_linear_7336_8203" x1="48.5508" y1="124.132" x2="29.7007" y2="123.435" gradientUnits="userSpaceOnUse">
<stop stop-color="#9E866C"/>
<stop offset="0.07" stop-color="#B8A284"/>
<stop offset="0.21" stop-color="#AD9378"/>
<stop offset="0.277551" stop-color="#DDCEBA"/>
<stop offset="0.332061" stop-color="#AB8F76"/>
<stop offset="0.66" stop-color="#735B42"/>
<stop offset="0.74" stop-color="#A58B6E"/>
<stop offset="0.91" stop-color="#B79A7A"/>
<stop offset="1" stop-color="#8F7E61"/>
</linearGradient>
<linearGradient id="paint1_linear_7336_8203" x1="60.521" y1="94.6116" x2="43.6252" y2="93.5617" gradientUnits="userSpaceOnUse">
<stop stop-color="#9E866C"/>
<stop offset="0.07" stop-color="#B8A284"/>
<stop offset="0.21" stop-color="#AD9378"/>
<stop offset="0.277551" stop-color="#DDCEBA"/>
<stop offset="0.332061" stop-color="#AB8F76"/>
<stop offset="0.66" stop-color="#735B42"/>
<stop offset="0.74" stop-color="#A58B6E"/>
<stop offset="0.91" stop-color="#B79A7A"/>
<stop offset="1" stop-color="#8F7E61"/>
</linearGradient>
<linearGradient id="paint2_linear_7336_8203" x1="26.8775" y1="83.275" x2="21.3239" y2="82.9804" gradientUnits="userSpaceOnUse">
<stop stop-color="#9E866C"/>
<stop offset="0.07" stop-color="#B8A284"/>
<stop offset="0.21" stop-color="#AD9378"/>
<stop offset="0.277551" stop-color="#DDCEBA"/>
<stop offset="0.332061" stop-color="#AB8F76"/>
<stop offset="0.66" stop-color="#735B42"/>
<stop offset="0.74" stop-color="#A58B6E"/>
<stop offset="0.91" stop-color="#B79A7A"/>
<stop offset="1" stop-color="#8F7E61"/>
</linearGradient>
</defs>
</svg>
