<svg width="100" height="101" viewBox="0 0 100 101" fill="none" xmlns="http://www.w3.org/2000/svg">
<path d="M71.5142 97.3542C75.7066 96.1406 83.562 90.7345 86.0775 79.481M86.0775 79.481L81.4437 82.7908M86.0775 79.481L88.0635 84.6112" stroke="url(#paint0_linear_7336_8330)" stroke-width="1.88" stroke-linecap="round" stroke-linejoin="round"/>
<path d="M28.4858 97.8505C24.2934 96.6369 16.438 91.2308 13.9225 79.9773M13.9225 79.9773L18.5563 83.2872M13.9225 79.9773L11.9365 85.1076" stroke="url(#paint1_linear_7336_8330)" stroke-width="1.88" stroke-linecap="round" stroke-linejoin="round"/>
<path d="M47.8583 73.9021C45.2565 73.3864 43.4187 75.7829 42.5928 77.1262C42.5928 80.0278 46.1511 82.9294 49.407 82.9294C53.4335 82.9294 57.8559 79.528 55.1371 76.159C51.8849 72.129 51.73 74.6697 47.8583 73.9021Z" fill="#E7DBCF"/>
<path d="M20.6231 58.1346C22.2245 66.3999 25.5965 75.749 28.0306 80.515C31.0732 86.4725 45.6458 93.8788 49.1688 93.8788C52.6918 93.8788 67.2248 85.0366 69.6661 80.515C72.071 76.0606 75.2764 65.0673 76.9888 56.2023M20.6231 58.1346C22.1971 47.5071 22.5855 42.8381 28.8309 35.7535C33.8272 30.0858 45.0048 28.0249 49.9691 27.7028M20.6231 58.1346C18.6618 56.5784 15.2193 54.7526 15.2192 58.1346C15.2192 63.133 20.3878 73.2691 24.7115 72.6251M20.6231 58.1346C20.0014 56.7802 19.4408 55.4565 18.9378 54.1632M77.9932 49.7616C77.7919 51.6512 77.4428 53.852 76.9888 56.2023M57.8158 11.2795L56.9352 15.9086M76.9888 56.2023C77.6797 54.5555 78.2757 52.9447 78.7847 51.3714M76.9888 56.2023C78.4447 55.2365 81.3886 53.8842 81.5167 56.2023C81.6768 59.1 79.1146 68.7608 75.2713 69.8878M78.7847 51.3714C85.7406 29.8703 76.4604 15.3596 71.428 11.2795C67.6549 8.22057 61.9798 5.1607 57.8158 7.09313C52.6918 2.90654 40.6812 2.2629 30.7531 8.22057C24.9302 11.7148 7.78008 25.4756 18.9378 54.1632M78.7847 51.3714C76.9193 44.9844 68.385 31.5987 54.2932 29.7957L56.0545 20.5376M56.8973 56.0689C57.9488 55.5242 59.9702 54.1683 62.2464 54.1632C63.7835 54.1597 65.4368 55.1324 66.986 56.0152M41.1181 56.0689C40.059 55.5202 38.0156 54.1581 35.719 54.1632C34.1961 54.1665 32.5618 55.1419 31.0294 56.0152M54.2932 47.5071C57.549 46.2726 62.8436 44.2224 65.6621 44.6088C68.4805 44.9953 69.3453 45.8969 71.5872 47.5071M44.684 47.5071C41.4282 46.2726 36.1336 44.2224 33.3151 44.6088C30.4967 44.9953 29.632 45.8969 27.39 47.5071M47.2462 67.1506C48.1 67.6337 50.2561 68.3099 52.0504 67.1506M60.426 55.6499C60.3156 56.367 60.79 57.8013 62.2464 57.8013C63.7027 57.8013 63.8462 56.6106 63.9013 56.0152M37.5895 55.6499C37.6998 56.367 37.2254 57.8013 35.7691 57.8013C34.3127 57.8013 34.1693 56.6106 34.1141 56.0152M56.0545 20.5376C58.3391 20.4917 64.0006 21.4921 68.3696 25.8611M56.0545 20.5376L56.9352 15.9086M56.9352 15.9086C61.1041 15.6546 70.6078 17.6579 75.2713 27.7028M18.9378 54.1632C18.4791 48.3793 19.3494 35.1841 26.4999 28.6745" stroke="url(#paint2_linear_7336_8330)" stroke-width="1.88" stroke-linecap="round"/>
<path d="M41.3223 77.1237C42.8841 78.063 43.8944 78.063 46.0775 78.063C48.2605 78.063 48.397 78.6713 49.2838 78.6713C50.1707 78.6713 50.9893 78.063 52.1491 78.063C53.3088 78.063 55.7926 78.063 57.2454 76.7927" stroke="url(#paint3_linear_7336_8330)" stroke-width="1.88" stroke-linecap="round"/>
<defs>
<linearGradient id="paint0_linear_7336_8330" x1="92.202" y1="94.3618" x2="69.0006" y2="81.6313" gradientUnits="userSpaceOnUse">
<stop stop-color="#9E866C"/>
<stop offset="0.07" stop-color="#B8A284"/>
<stop offset="0.21" stop-color="#AD9378"/>
<stop offset="0.277551" stop-color="#DDCEBA"/>
<stop offset="0.332061" stop-color="#AB8F76"/>
<stop offset="0.66" stop-color="#735B42"/>
<stop offset="0.74" stop-color="#A58B6E"/>
<stop offset="0.91" stop-color="#B79A7A"/>
<stop offset="1" stop-color="#8F7E61"/>
</linearGradient>
<linearGradient id="paint1_linear_7336_8330" x1="7.79799" y1="94.8582" x2="30.9994" y2="82.1276" gradientUnits="userSpaceOnUse">
<stop stop-color="#9E866C"/>
<stop offset="0.07" stop-color="#B8A284"/>
<stop offset="0.21" stop-color="#AD9378"/>
<stop offset="0.277551" stop-color="#DDCEBA"/>
<stop offset="0.332061" stop-color="#AB8F76"/>
<stop offset="0.66" stop-color="#735B42"/>
<stop offset="0.74" stop-color="#A58B6E"/>
<stop offset="0.91" stop-color="#B79A7A"/>
<stop offset="1" stop-color="#8F7E61"/>
</linearGradient>
<linearGradient id="paint2_linear_7336_8330" x1="98.1048" y1="78.806" x2="-3.48652" y2="34.4679" gradientUnits="userSpaceOnUse">
<stop stop-color="#9E866C"/>
<stop offset="0.07" stop-color="#B8A284"/>
<stop offset="0.21" stop-color="#AD9378"/>
<stop offset="0.277551" stop-color="#DDCEBA"/>
<stop offset="0.332061" stop-color="#AB8F76"/>
<stop offset="0.66" stop-color="#735B42"/>
<stop offset="0.74" stop-color="#A58B6E"/>
<stop offset="0.91" stop-color="#B79A7A"/>
<stop offset="1" stop-color="#8F7E61"/>
</linearGradient>
<linearGradient id="paint3_linear_7336_8330" x1="61.2273" y1="78.3568" x2="60.12" y2="72.7949" gradientUnits="userSpaceOnUse">
<stop stop-color="#9E866C"/>
<stop offset="0.07" stop-color="#B8A284"/>
<stop offset="0.21" stop-color="#AD9378"/>
<stop offset="0.277551" stop-color="#DDCEBA"/>
<stop offset="0.332061" stop-color="#AB8F76"/>
<stop offset="0.66" stop-color="#735B42"/>
<stop offset="0.74" stop-color="#A58B6E"/>
<stop offset="0.91" stop-color="#B79A7A"/>
<stop offset="1" stop-color="#8F7E61"/>
</linearGradient>
</defs>
</svg>
