<svg width="80" height="81" viewBox="0 0 80 81" fill="none" xmlns="http://www.w3.org/2000/svg">
<path d="M38.4249 58.4675C36.8226 58.1498 35.6908 59.6257 35.1821 60.453C35.1821 62.2399 37.3735 64.0269 39.3786 64.0269C41.8584 64.0269 44.5819 61.9321 42.9075 59.8573C40.9046 57.3755 40.8093 58.9402 38.4249 58.4675Z" fill="#E7DBCF"/>
<path d="M55.3076 55.9959C57.6745 55.3018 59.2525 49.3522 59.1539 47.5677C59.075 46.1401 57.262 46.9728 56.3654 47.5677C55.3108 53.0271 53.3368 59.7973 51.8557 62.5406C50.3522 65.3252 41.4021 70.7707 39.2325 70.7707C37.0628 70.7707 28.0883 66.2095 26.2145 62.5406C25.8648 61.8558 25.4836 61.0174 25.0922 60.0697C23.8059 56.9552 22.4088 52.6603 21.6527 48.7577C20.4448 47.7993 18.3247 46.6749 18.3247 48.7577C18.3247 51.1357 20.2244 55.4021 22.3163 57.0371C22.9322 57.5185 23.5648 57.7718 24.1705 57.6816M43.9921 47.4855C44.6396 47.15 45.8845 46.315 47.2863 46.3119C48.2329 46.3097 49.2511 46.9087 50.2052 47.4525M34.2745 47.4855C33.6222 47.1476 32.3638 46.3087 30.9494 46.3119C30.0116 46.3139 29.0051 46.9146 28.0614 47.4525M42.3883 42.2127C44.3934 41.4525 47.6541 40.1899 49.3898 40.4279C51.1256 40.6658 51.6581 41.2211 53.0388 42.2127M36.4705 42.2127C34.4654 41.4525 31.2048 40.1899 29.469 40.4279C27.7333 40.6658 27.2008 41.2211 25.8201 42.2127M38.0485 54.3102C38.5742 54.6076 39.9021 55.0241 41.0071 54.3102M46.1652 47.2274C46.0972 47.6691 46.3894 48.5524 47.2863 48.5524C48.1832 48.5524 48.2715 47.8191 48.3055 47.4525M32.1014 47.2274C32.1693 47.6691 31.8772 48.5524 30.9803 48.5524C30.0834 48.5524 29.9951 47.8191 29.9611 47.4525M47.7959 17.1101C45.1648 16.3215 41.9512 16.0735 38.0485 16.5501C34.4096 16.5501 31.4293 17.1842 29.0037 18.2824M47.7959 17.1101C49.7663 15.2589 52.6268 10.5576 48.3055 6.56244C42.9038 1.56843 35.9013 2.68954 33.4254 3.81064C31.3017 4.77223 30.1521 6.78353 30.5948 9.0085M47.7959 17.1101C56.0412 19.5816 58.5656 27.3638 58.6525 34.8028M36.4705 14.0025C34.0404 13.7987 32.1014 12.7795 30.9494 10.1296C30.7855 9.75256 30.6683 9.37759 30.5948 9.0085M30.5948 9.0085C28.5905 10.0612 25.4663 13.3898 29.0037 18.2824M29.0037 18.2824C23.6635 20.7002 21.0116 25.3673 19.9391 30.4692" stroke="url(#paint0_linear_7336_8171)" stroke-width="1.1875" stroke-linecap="round"/>
<path d="M21.5733 45.6072C23.0985 45.6072 25.0898 36.9575 26.5098 33.515M21.5733 45.6072L21.9899 38.7385M21.5733 45.6072C21.5733 46.83 21.9064 47.9307 21.5733 48.5632C21.2051 48.3953 18.866 46.7328 18.9922 42.098C19.15 36.3045 17.4144 34.2894 18.9922 31.6865C20.57 29.0837 31.2087 20.5193 38.7744 22.3665M57.3537 43.4289C55.8286 40.13 54.4604 36.8201 50.9683 33.7974C49.3416 32.3894 44.9276 32.0914 41.8479 31.3561M34.511 26.3743C31.944 27.9141 27.6458 30.7609 26.5098 33.515M34.511 26.3743C36.0962 25.242 36.5644 24.9434 37.5046 23.8335M34.511 26.3743C35.1886 26.8216 36.321 28.2933 37.272 29.2275M55.649 35.8007C56.3327 37.6479 57.5265 40.0147 58.2838 41.0222C58.4138 41.1952 56.2335 47.6359 56.2996 47.9048C60.0564 40.8998 58.8811 36.3207 58.2838 32.7781C57.8624 30.2789 52.0727 24.4656 46.7609 22.3665C41.4491 20.2675 40.3972 20.8552 39.5032 21.6109C39.3549 21.7362 39.101 22.0024 38.7744 22.3665M26.5098 33.515C26.9481 33.7389 29.414 32.1746 31.944 32.3977C34.511 32.6242 40.6558 32.6116 41.8479 31.3561M38.7744 22.3665C38.4221 22.7594 37.985 23.2664 37.5046 23.8335M37.5046 23.8335C39.8012 23.8763 44.9517 24.4153 47.1816 26.2289M41.8479 31.3561C40.6584 31.0721 38.4156 30.3507 37.272 29.2275M37.272 29.2275C36.77 29.5913 35.1368 31.1174 34.1691 31.1174" stroke="url(#paint1_linear_7336_8171)" stroke-width="1.1875" stroke-linecap="round" stroke-linejoin="round"/>
<path d="M34.3999 60.4527C35.3618 61.0312 35.984 61.0312 37.3284 61.0312C38.6728 61.0312 38.7568 61.4058 39.303 61.4058C39.8492 61.4058 40.3533 61.0312 41.0676 61.0312C41.7818 61.0312 43.3114 61.0312 44.2061 60.2489" stroke="url(#paint2_linear_7336_8171)" stroke-width="1.1875" stroke-linecap="round"/>
<path d="M44.9487 55.1187C43.5984 56.0831 46.106 60.1339 47.0705 60.9055C48.8065 60.9055 51.2756 60.6739 51.8928 59.7481C52.6644 58.5907 52.5913 50.5261 49.5781 52.0324C48.4207 52.6109 48.8065 54.7329 47.6492 55.3116C46.4918 55.8902 46.0914 54.3025 44.9487 55.1187Z" stroke="url(#paint3_linear_7336_8171)" stroke-width="1.1875" stroke-linecap="round"/>
<path d="M46.58 72.0008C46.3886 73.8903 47.1382 77.3545 47.5369 78.8505L60.2162 78.378C61.6515 76.2523 59.8378 66.0272 59.4985 65.8597C59.02 65.6235 58.5415 65.6235 58.0631 66.8045C57.9772 67.0164 57.9138 67.4224 57.8681 67.9506C57.1504 62.7543 54.9531 56.648 53.2785 56.648C52.4894 56.648 52.298 57.3566 52.2862 57.829C51.7155 56.6624 51.0615 55.7032 50.6469 55.7032C49.9293 55.7032 49.69 56.648 49.69 57.829C49.69 58.7738 50.328 61.1875 50.6469 62.2762C50.0119 60.0941 49.3188 58.4724 48.9723 58.3014C48.4939 58.0652 47.5369 58.3014 47.5369 59.4823C47.5369 60.1559 47.7704 61.1368 48.0154 62.0745C46.8193 61.8443 46.1016 63.2615 46.1016 63.9701C46.1016 64.6787 46.8193 69.6388 46.58 72.0008Z" fill="#FEFAF8"/>
<path d="M47.5369 78.8503C47.1382 77.3544 46.3886 73.8902 46.58 72.0006C46.8193 69.6387 46.1016 64.6786 46.1016 63.97C46.1016 63.2614 46.8193 61.8442 48.0154 62.0743M49.2116 70.8196C49.0521 68.9301 48.6853 64.9148 48.4939 63.97C48.2546 62.7889 47.5369 60.6632 47.5369 59.4822C47.5369 58.3012 48.4939 58.0651 48.9723 58.3013C49.3188 58.4723 50.0119 60.094 50.6469 62.2761M52.5608 71.0558C52.4236 69.0247 51.5002 65.2079 50.6469 62.2761M50.6469 62.2761C50.328 61.1873 49.69 58.7736 49.69 57.8289C49.69 56.6479 50.0133 55.896 50.731 55.896C51.1456 55.896 51.7155 56.6623 52.2862 57.8289M54.9531 69.1663C54.9531 69.1663 54.3904 64.3432 53.5177 61.3718C53.1051 59.9669 52.7036 58.682 52.2862 57.8289M52.2862 57.8289C52.298 57.3565 52.4894 56.6479 53.2785 56.6479C54.9531 56.6479 57.1398 62.8827 57.8574 68.079M57.8239 74.835C57.7441 72.5517 57.6803 67.7491 58.0631 66.8043C58.5415 65.6233 59.02 65.6233 59.4985 65.8595C59.8378 66.0271 61.6515 76.2521 60.2162 78.3779" stroke="url(#paint4_linear_7336_8171)" stroke-width="1.1875" stroke-linecap="round" stroke-linejoin="round"/>
<defs>
<linearGradient id="paint0_linear_7336_8171" x1="47.7137" y1="123.833" x2="29.6902" y2="123.224" gradientUnits="userSpaceOnUse">
<stop stop-color="#9E866C"/>
<stop offset="0.07" stop-color="#B8A284"/>
<stop offset="0.21" stop-color="#AD9378"/>
<stop offset="0.277551" stop-color="#DDCEBA"/>
<stop offset="0.332061" stop-color="#AB8F76"/>
<stop offset="0.66" stop-color="#735B42"/>
<stop offset="0.74" stop-color="#A58B6E"/>
<stop offset="0.91" stop-color="#B79A7A"/>
<stop offset="1" stop-color="#8F7E61"/>
</linearGradient>
<linearGradient id="paint1_linear_7336_8171" x1="47.556" y1="70.1616" x2="29.7304" y2="68.6885" gradientUnits="userSpaceOnUse">
<stop stop-color="#9E866C"/>
<stop offset="0.07" stop-color="#B8A284"/>
<stop offset="0.21" stop-color="#AD9378"/>
<stop offset="0.277551" stop-color="#DDCEBA"/>
<stop offset="0.332061" stop-color="#AB8F76"/>
<stop offset="0.66" stop-color="#735B42"/>
<stop offset="0.74" stop-color="#A58B6E"/>
<stop offset="0.91" stop-color="#B79A7A"/>
<stop offset="1" stop-color="#8F7E61"/>
</linearGradient>
<linearGradient id="paint2_linear_7336_8171" x1="41.4577" y1="62.3097" x2="37.927" y2="60.6263" gradientUnits="userSpaceOnUse">
<stop stop-color="#9E866C"/>
<stop offset="0.07" stop-color="#B8A284"/>
<stop offset="0.21" stop-color="#AD9378"/>
<stop offset="0.277551" stop-color="#DDCEBA"/>
<stop offset="0.332061" stop-color="#AB8F76"/>
<stop offset="0.66" stop-color="#735B42"/>
<stop offset="0.74" stop-color="#A58B6E"/>
<stop offset="0.91" stop-color="#B79A7A"/>
<stop offset="1" stop-color="#8F7E61"/>
</linearGradient>
<linearGradient id="paint3_linear_7336_8171" x1="50.1341" y1="67.9836" x2="46.7185" y2="67.8193" gradientUnits="userSpaceOnUse">
<stop stop-color="#9E866C"/>
<stop offset="0.07" stop-color="#B8A284"/>
<stop offset="0.21" stop-color="#AD9378"/>
<stop offset="0.277551" stop-color="#DDCEBA"/>
<stop offset="0.332061" stop-color="#AB8F76"/>
<stop offset="0.66" stop-color="#735B42"/>
<stop offset="0.74" stop-color="#A58B6E"/>
<stop offset="0.91" stop-color="#B79A7A"/>
<stop offset="1" stop-color="#8F7E61"/>
</linearGradient>
<linearGradient id="paint4_linear_7336_8171" x1="56.6527" y1="96.7834" x2="50.1829" y2="96.5509" gradientUnits="userSpaceOnUse">
<stop stop-color="#9E866C"/>
<stop offset="0.07" stop-color="#B8A284"/>
<stop offset="0.21" stop-color="#AD9378"/>
<stop offset="0.277551" stop-color="#DDCEBA"/>
<stop offset="0.332061" stop-color="#AB8F76"/>
<stop offset="0.66" stop-color="#735B42"/>
<stop offset="0.74" stop-color="#A58B6E"/>
<stop offset="0.91" stop-color="#B79A7A"/>
<stop offset="1" stop-color="#8F7E61"/>
</linearGradient>
</defs>
</svg>
