<svg width="80" height="81" viewBox="0 0 80 81" fill="none" xmlns="http://www.w3.org/2000/svg">
<path d="M74.6713 67.2131C73.6742 67.1778 71.3911 66.5359 70.2358 64.2503C69.0805 61.9647 68.6542 60.7584 68.5854 60.4409C68.5166 61.4991 68.1109 63.9752 67.0381 65.4142C65.9654 66.8533 63.5654 67.5658 62.4995 67.7422M63.4251 67.53C65.0412 68.2355 68.5854 70.8955 68.5854 73.3504C68.8949 71.7279 70.9663 67.7866 73.6069 67.0247" stroke="url(#paint0_linear_7336_8185)" stroke-width="1.16071" stroke-linecap="round" stroke-linejoin="round"/>
<path d="M6.37685 11.6399C6.8603 11.6228 7.96724 11.311 8.52738 10.2008C9.08752 9.09069 9.29424 8.50477 9.32758 8.35059C9.36093 8.86455 9.55764 10.0672 10.0778 10.7662C10.5979 11.4652 11.7615 11.8113 12.2783 11.8969M11.8295 11.7939C11.046 12.1365 9.32758 13.4285 9.32758 14.6209C9.17755 13.8328 8.17323 11.9185 6.89291 11.5484" stroke="url(#paint1_linear_7336_8185)" stroke-width="1.16071" stroke-linecap="round" stroke-linejoin="round"/>
<path d="M12.5393 31.833C12.2097 33.218 11.7483 36.7595 12.5393 39.8459C13.5281 43.704 16.4637 44.3799 15.4749 47.6444C14.4862 50.9089 12.0487 54.1863 14.4991 54.829C15.108 54.9887 15.4749 54.9524 16.3217 54.9524C16.7905 55.1375 17.0194 55.4609 17.0194 56.1426C17.0194 57.2658 16.1426 57.797 17.0194 58.2548C17.4605 58.4852 17.5672 58.6523 17.5572 58.8177M12.5393 31.833C13.0007 34.0094 15.8418 38.8369 23.5146 40.7362C26.9373 41.5835 28.5341 43.0859 29.1859 44.8298M12.5393 31.833C12.6412 29.4278 13.6372 25.7188 16.9987 22.6331M29.546 63.0811C28.2607 63.1801 25.4459 66.9472 21.8337 65.863C19.8562 65.2695 20.1528 62.2842 19.9551 61.1961C19.7573 60.1079 17.8787 60.6025 17.4832 59.8111C17.2422 59.329 17.5415 59.0755 17.5572 58.8177M16.9987 22.6331C16.3362 25.1972 15.1479 29.7838 20.6059 33.9481C27.4283 39.1534 29.0478 40.0202 29.1859 44.8298M16.9987 22.6331C18.4475 21.3031 20.3357 20.0889 22.7811 19.1448M29.1859 44.8298C30.3604 47.9725 29.2081 52.348 28.9115 55.7727C28.6148 59.1974 27.7663 63.894 35.2809 71.205C35.7741 71.6848 35.9273 71.8847 36.5033 71.7878C37.5761 71.6073 32.6749 64.1417 32.9718 60.4222M22.7811 19.1448C23.8407 18.7357 25.0048 18.3773 26.2831 18.0822C30.1497 17.1894 33.5633 16.8383 36.6238 16.9547M22.7811 19.1448C24.6544 20.3201 28.6299 23.7985 29.546 28.3094M36.6238 16.9547C42.7202 17.1867 47.4151 19.2742 51.4965 22.6331C57.6268 27.6782 63.3203 37.5093 60.5518 49.6771C58.2902 59.6168 51.1689 65.3511 44.6741 68.5948C43.2182 69.3219 42.0167 69.9766 40.6263 69.9766C38.1604 69.9766 33.4265 64.8967 32.9718 60.4222M36.6238 16.9547C41.3698 18.1142 51.5541 23.3538 54.3226 35.0363M19.4076 46.4831C20.1113 46.7645 22.0502 46.5675 23.0601 45.2166M17.4832 43.1059C19.4076 41.4174 21.8337 40.2502 21.8337 40.2502M46.661 35.0363C49.1897 39.8459 50.4259 44.6146 50.3136 54.1899M44.6741 41.6988C45.4368 44.2828 46.7334 51.6451 45.8181 60.4222M17.5572 58.8177C18.0803 58.7239 20.1721 58.4176 21.0711 57.7422M32.9718 60.4222C33.2687 56.7026 36.0381 52.2323 35.2809 49.6771" stroke="url(#paint2_linear_7336_8185)" stroke-width="1.16071" stroke-linecap="round"/>
<defs>
<linearGradient id="paint0_linear_7336_8185" x1="71.2599" y1="83.4359" x2="65.8963" y2="83.1515" gradientUnits="userSpaceOnUse">
<stop stop-color="#9E866C"/>
<stop offset="0.07" stop-color="#B8A284"/>
<stop offset="0.21" stop-color="#AD9378"/>
<stop offset="0.277551" stop-color="#DDCEBA"/>
<stop offset="0.332061" stop-color="#AB8F76"/>
<stop offset="0.66" stop-color="#735B42"/>
<stop offset="0.74" stop-color="#A58B6E"/>
<stop offset="0.91" stop-color="#B79A7A"/>
<stop offset="1" stop-color="#8F7E61"/>
</linearGradient>
<linearGradient id="paint1_linear_7336_8185" x1="8.03087" y1="19.5196" x2="10.6314" y2="19.3819" gradientUnits="userSpaceOnUse">
<stop stop-color="#9E866C"/>
<stop offset="0.07" stop-color="#B8A284"/>
<stop offset="0.21" stop-color="#AD9378"/>
<stop offset="0.277551" stop-color="#DDCEBA"/>
<stop offset="0.332061" stop-color="#AB8F76"/>
<stop offset="0.66" stop-color="#735B42"/>
<stop offset="0.74" stop-color="#A58B6E"/>
<stop offset="0.91" stop-color="#B79A7A"/>
<stop offset="1" stop-color="#8F7E61"/>
</linearGradient>
<linearGradient id="paint2_linear_7336_8185" x1="47.4905" y1="114.685" x2="25.8182" y2="113.593" gradientUnits="userSpaceOnUse">
<stop stop-color="#9E866C"/>
<stop offset="0.07" stop-color="#B8A284"/>
<stop offset="0.21" stop-color="#AD9378"/>
<stop offset="0.277551" stop-color="#DDCEBA"/>
<stop offset="0.332061" stop-color="#AB8F76"/>
<stop offset="0.66" stop-color="#735B42"/>
<stop offset="0.74" stop-color="#A58B6E"/>
<stop offset="0.91" stop-color="#B79A7A"/>
<stop offset="1" stop-color="#8F7E61"/>
</linearGradient>
</defs>
</svg>
