<svg width="80" height="81" viewBox="0 0 80 81" fill="none" xmlns="http://www.w3.org/2000/svg">
<path d="M18.554 17.4661C14.742 16.846 11.125 19.5817 10.4752 23.5765C10.0217 26.3643 10.9562 28.6044 13.3247 31.4646L19.7843 39.4906C20.0211 39.7848 20.4414 39.8531 20.7592 39.6492L29.4296 34.0845C32.1226 32.0477 34.0809 30.8969 34.6325 27.5063C35.2824 23.5115 32.7191 19.7704 28.907 19.1503C27.1497 18.8644 25.4337 19.2918 24.0308 20.227C23.6494 20.4812 23.1187 20.3949 22.8375 20.0329C21.8034 18.7012 20.3114 17.752 18.554 17.4661Z" stroke="url(#paint0_linear_7336_8195)" stroke-width="1.25" stroke-linejoin="round"/>
<path d="M58.2849 69.748C54.9832 66.5533 51.1951 62.652 48.3671 61.3871C48.1683 61.3039 44.0218 59.5669 42.1474 58.7818C37.9289 57.6156 35.5555 54.3179 33.0574 52.27C30.5594 50.2221 28.6705 48.0289 26.1877 45.5461C23.6936 43.0519 21.415 38.4137 23.047 38.7104C26.0954 39.2646 26.5571 41.2046 29.1437 43.052C31.4716 44.7147 33.6597 45.8344 35.3772 46.732C38.4665 48.3465 39.5973 47.0976 39.7766 46.2714C41.1685 42.9486 39.7811 37.7297 39.0595 34.5945C38.2072 30.8912 37.4874 27.9569 34.6479 22.8914C32.934 19.8337 34.1235 16.8556 35.6458 17.4005C35.7525 17.4388 35.8432 17.0627 35.959 17.1309C36.4087 17.3957 37.1412 19.1284 38.4531 20.98C38.7489 21.3976 39.0522 21.8625 39.3586 22.3609M47.9555 42.2862C47.9854 41.4976 45.7025 35.2328 45.0232 33.7464C44.5719 32.7589 41.8651 26.4389 39.3586 22.3609M67.8755 63.3497C62.6863 57.2106 59.7652 53.5428 59.8469 51.6742C59.9599 49.1485 56.3082 41.458 54.0065 36.108M41.3601 20.4949C39.4327 17.6845 37.5258 19.0894 39.3586 22.3609M41.3601 20.4949C44.2258 19.3918 45.8659 23.4265 47.5114 25.776M41.3601 20.4949C42.0256 21.7751 43.7192 24.1875 44.6601 26.4843M47.5114 25.776C48.7356 27.5238 48.0396 26.7989 50.764 30.4435C52.1161 32.2522 53.1782 34.1829 54.0065 36.108M47.5114 25.776C47.702 25.1213 48.3683 23.9916 49.5095 24.71C50.9361 25.608 53.4936 32.6883 54.0065 36.108M47.6054 32.1247C48.6851 33.6452 50.8004 37.4891 50.6232 40.6998" stroke="url(#paint1_linear_7336_8195)" stroke-width="1.25" stroke-linecap="round" stroke-linejoin="round"/>
<defs>
<linearGradient id="paint0_linear_7336_8195" x1="22.7507" y1="57.824" x2="12.2257" y2="55.4284" gradientUnits="userSpaceOnUse">
<stop stop-color="#9E866C"/>
<stop offset="0.07" stop-color="#B8A284"/>
<stop offset="0.21" stop-color="#AD9378"/>
<stop offset="0.277551" stop-color="#DDCEBA"/>
<stop offset="0.332061" stop-color="#AB8F76"/>
<stop offset="0.66" stop-color="#735B42"/>
<stop offset="0.74" stop-color="#A58B6E"/>
<stop offset="0.91" stop-color="#B79A7A"/>
<stop offset="1" stop-color="#8F7E61"/>
</linearGradient>
<linearGradient id="paint1_linear_7336_8195" x1="38.8706" y1="95.4167" x2="18.7208" y2="85.2118" gradientUnits="userSpaceOnUse">
<stop stop-color="#9E866C"/>
<stop offset="0.07" stop-color="#B8A284"/>
<stop offset="0.21" stop-color="#AD9378"/>
<stop offset="0.277551" stop-color="#DDCEBA"/>
<stop offset="0.332061" stop-color="#AB8F76"/>
<stop offset="0.66" stop-color="#735B42"/>
<stop offset="0.74" stop-color="#A58B6E"/>
<stop offset="0.91" stop-color="#B79A7A"/>
<stop offset="1" stop-color="#8F7E61"/>
</linearGradient>
</defs>
</svg>
