<svg width="80" height="81" viewBox="0 0 80 81" fill="none" xmlns="http://www.w3.org/2000/svg">
<path d="M60.3648 13.1832C58.3842 12.8149 54.1667 14.3159 53.1416 23.2661C51.8602 34.4538 55.7047 49.3853 48.2315 64.0167C42.253 75.7219 31.0648 75.381 26.2181 73.7474C25.6095 73.2637 24.6365 71.9554 25.6132 70.5921C26.6391 69.1601 25.1477 67.7755 24.3046 67.2192C23.6188 67.11 22.0907 66.5501 21.4644 65.1845C20.6815 63.4776 20.7507 62.3811 18.7753 61.539C16.7998 60.6968 12.1975 60.1219 15.3846 56.173M15.3846 56.173C18.5716 52.2242 16.1813 47.8615 11.7592 49.1348C8.22158 50.1534 7.62497 51.1395 7.76888 51.5053L15.3846 56.173Z" stroke="url(#paint0_linear_7336_8366)" stroke-width="1.5" stroke-linecap="round" stroke-linejoin="round"/>
<path d="M65.5078 18.5063C62.3916 18.59 55.517 20.0738 52.9482 25.3394" stroke="url(#paint1_linear_7336_8366)" stroke-width="1.5" stroke-linecap="round" stroke-linejoin="round"/>
<path d="M56.8912 13.318C50.6406 17.0688 48.7799 27.2277 47.9596 44.6911C46.9342 66.5205 36.0069 69.1325 24.3394 67.2209" stroke="url(#paint2_linear_7336_8366)" stroke-width="1.5" stroke-linecap="round" stroke-linejoin="round"/>
<path d="M19.5414 61.923C25.3053 64.4762 35.0752 67.2443 42.5664 56.7876" stroke="url(#paint3_linear_7336_8366)" stroke-width="1.5" stroke-linecap="round" stroke-linejoin="round"/>
<path d="M65.4535 18.4717C64.0159 15.4122 59.7544 10.2486 54.2092 14.0696C51.8546 13.2902 45.5643 12.5184 39.2402 15.6668C36.6692 16.3559 31.087 19.7684 29.3266 27.9053C27.126 38.0764 26.7333 43.0241 24.1362 46.2495C22.0586 48.8297 18.2705 50.3624 16.9093 50.796" stroke="url(#paint4_linear_7336_8366)" stroke-width="1.5" stroke-linecap="round" stroke-linejoin="round"/>
<path d="M65.5078 18.5063C62.3916 18.59 55.517 20.0738 52.9482 25.3394" stroke="url(#paint5_linear_7336_8366)" stroke-width="1.5" stroke-linecap="round" stroke-linejoin="round"/>
<path d="M15.8913 49.9176C19.6595 53.1901 26.654 59.9916 33.3411 58.9981C39.6392 58.0624 45.0227 52.4492 45.7783 42.8369C46.3457 35.6179 45.4136 22.1477 53.7874 14.3167" stroke="url(#paint6_linear_7336_8366)" stroke-width="1.5" stroke-linecap="round" stroke-linejoin="round"/>
<path d="M39.1127 15.7084C36.8773 16.829 33.8927 20.5971 32.6172 26.6172C31.0228 34.1424 31.5114 44.7177 25.6501 48.8996" stroke="url(#paint7_linear_7336_8366)" stroke-width="1.5" stroke-linecap="round" stroke-linejoin="round"/>
<path d="M41.5 71.7837C36.4669 74.4832 32.764 72.2899 30.8055 70.9441C30.6911 72.1038 28.6979 74.1439 26.3021 73.7886" stroke="url(#paint8_linear_7336_8366)" stroke-width="1.5" stroke-linecap="round" stroke-linejoin="round"/>
<mask id="path-10-inside-1_7336_8366" fill="white">
<path d="M65.837 29.6537L64.5962 29.3153C64.145 29.2025 63.6938 28.7512 63.581 28.3L63.2426 27.0591C63.1298 26.7207 62.9042 26.4951 62.5657 26.4951C62.2273 26.4951 62.0017 26.7207 61.8889 27.0591L61.5505 28.3C61.4377 28.7512 60.9865 29.2025 60.5353 29.3153L59.2945 29.6537C58.9561 29.7665 58.7305 29.9921 58.7305 30.3305C58.7305 30.6689 58.9561 30.8945 59.2945 31.0073L60.5353 31.3458C60.9865 31.4586 61.4377 31.9098 61.5505 32.361L61.8889 33.6019C62.0017 33.9403 62.2273 34.1659 62.5657 34.1659C62.9042 34.1659 63.1298 33.9403 63.2426 33.6019L63.581 32.361C63.6938 31.9098 64.145 31.4586 64.5962 31.3458L65.837 31.0073C66.1754 30.8945 66.401 30.6689 66.401 30.3305C66.401 29.9921 66.1754 29.7665 65.837 29.6537ZM62.5657 31.797C62.3401 31.1202 61.7761 30.6689 61.2121 30.4433C61.8889 30.2177 62.3401 29.6537 62.5657 29.0896C62.7914 29.7665 63.3554 30.2177 63.9194 30.4433C63.3554 30.6689 62.7914 31.1202 62.5657 31.797Z"/>
</mask>
<path d="M65.837 29.6537L66.3114 28.2307L66.2719 28.2175L66.2317 28.2065L65.837 29.6537ZM64.5962 29.3153L64.9909 27.8681L64.9755 27.8639L64.96 27.86L64.5962 29.3153ZM63.581 28.3L65.0362 27.9362L65.0323 27.9207L65.0281 27.9053L63.581 28.3ZM63.2426 27.0591L64.6897 26.6645L64.6788 26.6243L64.6656 26.5848L63.2426 27.0591ZM61.8889 27.0591L60.4659 26.5848L60.4527 26.6243L60.4418 26.6645L61.8889 27.0591ZM61.5505 28.3L60.1034 27.9053L60.0992 27.9207L60.0953 27.9362L61.5505 28.3ZM60.5353 29.3153L60.1715 27.86L60.156 27.8639L60.1406 27.8681L60.5353 29.3153ZM59.2945 29.6537L58.8998 28.2065L58.8596 28.2175L58.8201 28.2307L59.2945 29.6537ZM59.2945 31.0073L58.8201 32.4304L58.8596 32.4435L58.8998 32.4545L59.2945 31.0073ZM60.5353 31.3458L60.1406 32.7929L60.156 32.7971L60.1715 32.801L60.5353 31.3458ZM61.5505 32.361L60.0953 32.7248L60.0992 32.7403L60.1034 32.7557L61.5505 32.361ZM61.8889 33.6019L60.4418 33.9965L60.4527 34.0367L60.4659 34.0762L61.8889 33.6019ZM63.2426 33.6019L64.6656 34.0762L64.6788 34.0367L64.6897 33.9965L63.2426 33.6019ZM63.581 32.361L65.0281 32.7557L65.0323 32.7403L65.0362 32.7248L63.581 32.361ZM64.5962 31.3458L64.96 32.801L64.9755 32.7971L64.9909 32.7929L64.5962 31.3458ZM65.837 31.0073L66.2317 32.4545L66.2719 32.4435L66.3114 32.4304L65.837 31.0073ZM62.5657 31.797L61.1427 32.2713L62.5657 36.5405L63.9888 32.2713L62.5657 31.797ZM61.2121 30.4433L60.7378 29.0203L56.8531 30.3152L60.655 31.836L61.2121 30.4433ZM62.5657 29.0896L63.9888 28.6153L62.6938 24.7304L61.173 28.5326L62.5657 29.0896ZM63.9194 30.4433L64.4765 31.836L67.9581 30.4433L64.4765 29.0506L63.9194 30.4433ZM66.2317 28.2065L64.9909 27.8681L64.2015 30.7624L65.4423 31.1008L66.2317 28.2065ZM64.96 27.86C65.0152 27.8738 65.0409 27.8899 65.041 27.89C65.0423 27.8908 65.0341 27.8857 65.0224 27.8739C65.0106 27.8621 65.0055 27.8539 65.0063 27.8552C65.0063 27.8553 65.0224 27.881 65.0362 27.9362L62.1258 28.6638C62.2624 29.2103 62.5719 29.6661 62.901 29.9952C63.2301 30.3243 63.6858 30.6338 64.2324 30.7705L64.96 27.86ZM65.0281 27.9053L64.6897 26.6645L61.7954 27.4538L62.1338 28.6947L65.0281 27.9053ZM64.6656 26.5848C64.4268 25.8686 63.7668 24.9951 62.5657 24.9951V27.9951C62.373 27.9951 62.1627 27.9205 62.001 27.7791C61.8618 27.6573 61.8229 27.5436 61.8195 27.5335L64.6656 26.5848ZM62.5657 24.9951C61.3647 24.9951 60.7046 25.8686 60.4659 26.5848L63.312 27.5335C63.3086 27.5436 63.2697 27.6573 63.1305 27.7791C62.9688 27.9205 62.7585 27.9951 62.5657 27.9951V24.9951ZM60.4418 26.6645L60.1034 27.9053L62.9977 28.6947L63.3361 27.4538L60.4418 26.6645ZM60.0953 27.9362C60.1091 27.881 60.1252 27.8553 60.1252 27.8552C60.126 27.8539 60.1209 27.8621 60.1091 27.8739C60.0974 27.8857 60.0892 27.8908 60.0905 27.89C60.0906 27.8899 60.1163 27.8738 60.1715 27.86L60.8991 30.7705C61.4457 30.6338 61.9014 30.3243 62.2305 29.9952C62.5596 29.6661 62.8691 29.2103 63.0057 28.6638L60.0953 27.9362ZM60.1406 27.8681L58.8998 28.2065L59.6892 31.1008L60.93 30.7624L60.1406 27.8681ZM58.8201 28.2307C58.1038 28.4694 57.2305 29.1295 57.2305 30.3305H60.2305C60.2305 30.5232 60.1559 30.7336 60.0145 30.8952C59.8926 31.0345 59.7789 31.0733 59.7688 31.0767L58.8201 28.2307ZM57.2305 30.3305C57.2305 31.5315 58.1038 32.1916 58.8201 32.4304L59.7688 29.5843C59.7789 29.5877 59.8926 29.6266 60.0145 29.7658C60.1559 29.9275 60.2305 30.1378 60.2305 30.3305H57.2305ZM58.8998 32.4545L60.1406 32.7929L60.93 29.8986L59.6892 29.5602L58.8998 32.4545ZM60.1715 32.801C60.1163 32.7872 60.0906 32.7711 60.0905 32.771C60.0892 32.7703 60.0974 32.7754 60.1091 32.7871C60.1209 32.7989 60.126 32.8071 60.1252 32.8058C60.1252 32.8057 60.1091 32.78 60.0953 32.7248L63.0057 31.9972C62.8691 31.4507 62.5596 30.9949 62.2305 30.6658C61.9014 30.3368 61.4457 30.0272 60.8991 29.8906L60.1715 32.801ZM60.1034 32.7557L60.4418 33.9965L63.3361 33.2072L62.9977 31.9664L60.1034 32.7557ZM60.4659 34.0762C60.7046 34.7924 61.3647 35.6659 62.5657 35.6659V32.6659C62.7585 32.6659 62.9688 32.7405 63.1305 32.8819C63.2697 33.0038 63.3086 33.1175 63.312 33.1275L60.4659 34.0762ZM62.5657 35.6659C63.7668 35.6659 64.4268 34.7925 64.6656 34.0762L61.8195 33.1275C61.8229 33.1175 61.8618 33.0038 62.001 32.8819C62.1627 32.7405 62.373 32.6659 62.5657 32.6659V35.6659ZM64.6897 33.9965L65.0281 32.7557L62.1338 31.9664L61.7954 33.2072L64.6897 33.9965ZM65.0362 32.7248C65.0224 32.78 65.0063 32.8057 65.0063 32.8058C65.0055 32.8071 65.0106 32.7989 65.0224 32.7871C65.0341 32.7754 65.0423 32.7702 65.041 32.771C65.0409 32.7711 65.0152 32.7872 64.96 32.801L64.2324 29.8906C63.6858 30.0272 63.2301 30.3368 62.901 30.6658C62.5719 30.9949 62.2624 31.4507 62.1258 31.9972L65.0362 32.7248ZM64.9909 32.7929L66.2317 32.4545L65.4423 29.5602L64.2015 29.8986L64.9909 32.7929ZM66.3114 32.4304C67.0277 32.1916 67.901 31.5315 67.901 30.3305H64.901C64.901 30.1378 64.9756 29.9275 65.117 29.7658C65.2389 29.6266 65.3526 29.5877 65.3627 29.5843L66.3114 32.4304ZM67.901 30.3305C67.901 29.1295 67.0277 28.4694 66.3114 28.2307L65.3627 31.0767C65.3526 31.0733 65.2389 31.0345 65.117 30.8952C64.9756 30.7336 64.901 30.5232 64.901 30.3305H67.901ZM63.9888 31.3227C63.5848 30.1105 62.613 29.3881 61.7692 29.0506L60.655 31.836C60.9393 31.9497 61.0955 32.1298 61.1427 32.2713L63.9888 31.3227ZM61.6865 31.8663C62.8986 31.4623 63.621 30.4905 63.9585 29.6467L61.173 28.5326C61.0593 28.8169 60.8793 28.9731 60.7378 29.0203L61.6865 31.8663ZM61.1427 29.564C61.5467 30.7761 62.5185 31.4985 63.3623 31.836L64.4765 29.0506C64.1922 28.9369 64.036 28.7569 63.9888 28.6153L61.1427 29.564ZM63.3623 29.0506C62.5185 29.3881 61.5467 30.1105 61.1427 31.3227L63.9888 32.2713C64.036 32.1298 64.1922 31.9497 64.4765 31.836L63.3623 29.0506Z" fill="url(#paint9_linear_7336_8366)" mask="url(#path-10-inside-1_7336_8366)"/>
<defs>
<linearGradient id="paint0_linear_7336_8366" x1="-11.162" y1="23.1385" x2="8.81926" y2="0.221091" gradientUnits="userSpaceOnUse">
<stop stop-color="#9E866C"/>
<stop offset="0.07" stop-color="#B8A284"/>
<stop offset="0.21" stop-color="#AD9378"/>
<stop offset="0.277551" stop-color="#DDCEBA"/>
<stop offset="0.332061" stop-color="#AB8F76"/>
<stop offset="0.66" stop-color="#735B42"/>
<stop offset="0.74" stop-color="#A58B6E"/>
<stop offset="0.91" stop-color="#B79A7A"/>
<stop offset="1" stop-color="#8F7E61"/>
</linearGradient>
<linearGradient id="paint1_linear_7336_8366" x1="50.9013" y1="19.4362" x2="54.69" y2="15.2443" gradientUnits="userSpaceOnUse">
<stop stop-color="#9E866C"/>
<stop offset="0.07" stop-color="#B8A284"/>
<stop offset="0.21" stop-color="#AD9378"/>
<stop offset="0.277551" stop-color="#DDCEBA"/>
<stop offset="0.332061" stop-color="#AB8F76"/>
<stop offset="0.66" stop-color="#735B42"/>
<stop offset="0.74" stop-color="#A58B6E"/>
<stop offset="0.91" stop-color="#B79A7A"/>
<stop offset="1" stop-color="#8F7E61"/>
</linearGradient>
<linearGradient id="paint2_linear_7336_8366" x1="18.4406" y1="41.3518" x2="38.2592" y2="22.6918" gradientUnits="userSpaceOnUse">
<stop stop-color="#9E866C"/>
<stop offset="0.07" stop-color="#B8A284"/>
<stop offset="0.21" stop-color="#AD9378"/>
<stop offset="0.277551" stop-color="#DDCEBA"/>
<stop offset="0.332061" stop-color="#AB8F76"/>
<stop offset="0.66" stop-color="#735B42"/>
<stop offset="0.74" stop-color="#A58B6E"/>
<stop offset="0.91" stop-color="#B79A7A"/>
<stop offset="1" stop-color="#8F7E61"/>
</linearGradient>
<linearGradient id="paint3_linear_7336_8366" x1="12.4233" y1="50.7613" x2="17.3262" y2="44.7531" gradientUnits="userSpaceOnUse">
<stop stop-color="#9E866C"/>
<stop offset="0.07" stop-color="#B8A284"/>
<stop offset="0.21" stop-color="#AD9378"/>
<stop offset="0.277551" stop-color="#DDCEBA"/>
<stop offset="0.332061" stop-color="#AB8F76"/>
<stop offset="0.66" stop-color="#735B42"/>
<stop offset="0.74" stop-color="#A58B6E"/>
<stop offset="0.91" stop-color="#B79A7A"/>
<stop offset="1" stop-color="#8F7E61"/>
</linearGradient>
<linearGradient id="paint4_linear_7336_8366" x1="5.93942" y1="23.6039" x2="22.6084" y2="5.52296" gradientUnits="userSpaceOnUse">
<stop stop-color="#9E866C"/>
<stop offset="0.07" stop-color="#B8A284"/>
<stop offset="0.21" stop-color="#AD9378"/>
<stop offset="0.277551" stop-color="#DDCEBA"/>
<stop offset="0.332061" stop-color="#AB8F76"/>
<stop offset="0.66" stop-color="#735B42"/>
<stop offset="0.74" stop-color="#A58B6E"/>
<stop offset="0.91" stop-color="#B79A7A"/>
<stop offset="1" stop-color="#8F7E61"/>
</linearGradient>
<linearGradient id="paint5_linear_7336_8366" x1="50.9013" y1="19.4362" x2="54.69" y2="15.2443" gradientUnits="userSpaceOnUse">
<stop stop-color="#9E866C"/>
<stop offset="0.07" stop-color="#B8A284"/>
<stop offset="0.21" stop-color="#AD9378"/>
<stop offset="0.277551" stop-color="#DDCEBA"/>
<stop offset="0.332061" stop-color="#AB8F76"/>
<stop offset="0.66" stop-color="#735B42"/>
<stop offset="0.74" stop-color="#A58B6E"/>
<stop offset="0.91" stop-color="#B79A7A"/>
<stop offset="1" stop-color="#8F7E61"/>
</linearGradient>
<linearGradient id="paint6_linear_7336_8366" x1="9.08726" y1="27.9715" x2="24.4237" y2="11.337" gradientUnits="userSpaceOnUse">
<stop stop-color="#9E866C"/>
<stop offset="0.07" stop-color="#B8A284"/>
<stop offset="0.21" stop-color="#AD9378"/>
<stop offset="0.277551" stop-color="#DDCEBA"/>
<stop offset="0.332061" stop-color="#AB8F76"/>
<stop offset="0.66" stop-color="#735B42"/>
<stop offset="0.74" stop-color="#A58B6E"/>
<stop offset="0.91" stop-color="#B79A7A"/>
<stop offset="1" stop-color="#8F7E61"/>
</linearGradient>
<linearGradient id="paint7_linear_7336_8366" x1="17.6567" y1="31.1676" x2="28.6905" y2="20.8818" gradientUnits="userSpaceOnUse">
<stop stop-color="#9E866C"/>
<stop offset="0.07" stop-color="#B8A284"/>
<stop offset="0.21" stop-color="#AD9378"/>
<stop offset="0.277551" stop-color="#DDCEBA"/>
<stop offset="0.332061" stop-color="#AB8F76"/>
<stop offset="0.66" stop-color="#735B42"/>
<stop offset="0.74" stop-color="#A58B6E"/>
<stop offset="0.91" stop-color="#B79A7A"/>
<stop offset="1" stop-color="#8F7E61"/>
</linearGradient>
<linearGradient id="paint8_linear_7336_8366" x1="20.9078" y1="66.3108" x2="23.7953" y2="62.6981" gradientUnits="userSpaceOnUse">
<stop stop-color="#9E866C"/>
<stop offset="0.07" stop-color="#B8A284"/>
<stop offset="0.21" stop-color="#AD9378"/>
<stop offset="0.277551" stop-color="#DDCEBA"/>
<stop offset="0.332061" stop-color="#AB8F76"/>
<stop offset="0.66" stop-color="#735B42"/>
<stop offset="0.74" stop-color="#A58B6E"/>
<stop offset="0.91" stop-color="#B79A7A"/>
<stop offset="1" stop-color="#8F7E61"/>
</linearGradient>
<linearGradient id="paint9_linear_7336_8366" x1="64.2512" y1="40.1587" x2="60.8723" y2="39.9687" gradientUnits="userSpaceOnUse">
<stop stop-color="#9E866C"/>
<stop offset="0.07" stop-color="#B8A284"/>
<stop offset="0.21" stop-color="#AD9378"/>
<stop offset="0.277551" stop-color="#DDCEBA"/>
<stop offset="0.332061" stop-color="#AB8F76"/>
<stop offset="0.66" stop-color="#735B42"/>
<stop offset="0.74" stop-color="#A58B6E"/>
<stop offset="0.91" stop-color="#B79A7A"/>
<stop offset="1" stop-color="#8F7E61"/>
</linearGradient>
</defs>
</svg>
