<svg width="80" height="81" viewBox="0 0 80 81" fill="none" xmlns="http://www.w3.org/2000/svg">
<path d="M60.365 13.1837C58.3844 12.8154 54.1669 14.3164 53.1418 23.2665C51.8605 34.4543 55.705 49.3858 48.2318 64.0172C42.2532 75.7224 31.0651 75.3815 26.2183 73.7479C25.6097 73.2642 24.6368 71.9559 25.6134 70.5926C26.6393 69.1606 25.148 67.776 24.3049 67.2197C23.6191 67.1105 22.0909 66.5506 21.4646 65.185C20.6817 63.4781 20.751 62.3816 18.7755 61.5395C16.8001 60.6973 12.1978 60.1223 15.3848 56.1735M15.3848 56.1735C18.5718 52.2247 16.1816 47.862 11.7595 49.1353C8.22183 50.1539 7.62522 51.14 7.76912 51.5058L15.3848 56.1735Z" stroke="url(#paint0_linear_255_18)" stroke-width="1.5" stroke-linecap="round" stroke-linejoin="round"/>
<path d="M65.5081 18.5068C62.3918 18.5905 55.5172 20.0743 52.9484 25.3399" stroke="url(#paint1_linear_255_18)" stroke-width="1.5" stroke-linecap="round" stroke-linejoin="round"/>
<path d="M56.8915 13.3185C50.6409 17.0693 48.7801 27.2282 47.9598 44.6916C46.9345 66.5209 36.0072 69.133 24.3397 67.2214" stroke="url(#paint2_linear_255_18)" stroke-width="1.5" stroke-linecap="round" stroke-linejoin="round"/>
<path d="M19.5417 61.9235C25.3055 64.4767 35.0755 67.2448 42.5667 56.7881" stroke="url(#paint3_linear_255_18)" stroke-width="1.5" stroke-linecap="round" stroke-linejoin="round"/>
<path d="M65.4538 18.4721C64.0162 15.4127 59.7547 10.2491 54.2094 14.0701C51.8548 13.2907 45.5645 12.5188 39.2404 15.6672C36.6694 16.3564 31.0873 19.7689 29.3268 27.9058C27.1263 38.0769 26.7336 43.0246 24.1365 46.25C22.0588 48.8302 18.2707 50.3629 16.9095 50.7965" stroke="url(#paint4_linear_255_18)" stroke-width="1.5" stroke-linecap="round" stroke-linejoin="round"/>
<path d="M65.5081 18.5068C62.3918 18.5905 55.5172 20.0743 52.9484 25.3399" stroke="url(#paint5_linear_255_18)" stroke-width="1.5" stroke-linecap="round" stroke-linejoin="round"/>
<path d="M15.8916 49.9181C19.6597 53.1906 26.6542 59.9921 33.3414 58.9986C39.6394 58.0629 45.023 52.4497 45.7785 42.8374C46.346 35.6184 45.4139 22.1482 53.7877 14.3172" stroke="url(#paint6_linear_255_18)" stroke-width="1.5" stroke-linecap="round" stroke-linejoin="round"/>
<path d="M39.1129 15.7089C36.8775 16.8295 33.893 20.5976 32.6174 26.6177C31.023 34.1429 31.5116 44.7181 25.6504 48.9001" stroke="url(#paint7_linear_255_18)" stroke-width="1.5" stroke-linecap="round" stroke-linejoin="round"/>
<path d="M41.5002 71.7842C36.4672 74.4837 32.7642 72.2904 30.8057 70.9446C30.6913 72.1043 28.6981 74.1444 26.3023 73.7891" stroke="url(#paint8_linear_255_18)" stroke-width="1.5" stroke-linecap="round" stroke-linejoin="round"/>
<path d="M59.9999 30.2893C60.4833 30.2722 61.5903 29.9604 62.1504 28.8503C62.7106 27.7401 62.9173 27.1542 62.9506 27C62.984 27.514 63.1807 28.7166 63.7008 29.4156C64.2209 30.1146 65.3846 30.4607 65.9014 30.5463M65.4526 30.4433C64.6691 30.7859 62.9506 32.0779 62.9506 33.2703C62.8006 32.4822 61.7963 30.5679 60.516 30.1979" stroke="url(#paint9_linear_255_18)" stroke-width="1.16071" stroke-linecap="round" stroke-linejoin="round"/>
<defs>
<linearGradient id="paint0_linear_255_18" x1="-11.1617" y1="23.139" x2="8.8195" y2="0.221579" gradientUnits="userSpaceOnUse">
<stop stop-color="#9E866C"/>
<stop offset="0.07" stop-color="#B8A284"/>
<stop offset="0.21" stop-color="#AD9378"/>
<stop offset="0.277551" stop-color="#DDCEBA"/>
<stop offset="0.332061" stop-color="#AB8F76"/>
<stop offset="0.66" stop-color="#735B42"/>
<stop offset="0.74" stop-color="#A58B6E"/>
<stop offset="0.91" stop-color="#B79A7A"/>
<stop offset="1" stop-color="#8F7E61"/>
</linearGradient>
<linearGradient id="paint1_linear_255_18" x1="50.9016" y1="19.4367" x2="54.6903" y2="15.2448" gradientUnits="userSpaceOnUse">
<stop stop-color="#9E866C"/>
<stop offset="0.07" stop-color="#B8A284"/>
<stop offset="0.21" stop-color="#AD9378"/>
<stop offset="0.277551" stop-color="#DDCEBA"/>
<stop offset="0.332061" stop-color="#AB8F76"/>
<stop offset="0.66" stop-color="#735B42"/>
<stop offset="0.74" stop-color="#A58B6E"/>
<stop offset="0.91" stop-color="#B79A7A"/>
<stop offset="1" stop-color="#8F7E61"/>
</linearGradient>
<linearGradient id="paint2_linear_255_18" x1="18.4409" y1="41.3523" x2="38.2595" y2="22.6923" gradientUnits="userSpaceOnUse">
<stop stop-color="#9E866C"/>
<stop offset="0.07" stop-color="#B8A284"/>
<stop offset="0.21" stop-color="#AD9378"/>
<stop offset="0.277551" stop-color="#DDCEBA"/>
<stop offset="0.332061" stop-color="#AB8F76"/>
<stop offset="0.66" stop-color="#735B42"/>
<stop offset="0.74" stop-color="#A58B6E"/>
<stop offset="0.91" stop-color="#B79A7A"/>
<stop offset="1" stop-color="#8F7E61"/>
</linearGradient>
<linearGradient id="paint3_linear_255_18" x1="12.4235" y1="50.7618" x2="17.3264" y2="44.7536" gradientUnits="userSpaceOnUse">
<stop stop-color="#9E866C"/>
<stop offset="0.07" stop-color="#B8A284"/>
<stop offset="0.21" stop-color="#AD9378"/>
<stop offset="0.277551" stop-color="#DDCEBA"/>
<stop offset="0.332061" stop-color="#AB8F76"/>
<stop offset="0.66" stop-color="#735B42"/>
<stop offset="0.74" stop-color="#A58B6E"/>
<stop offset="0.91" stop-color="#B79A7A"/>
<stop offset="1" stop-color="#8F7E61"/>
</linearGradient>
<linearGradient id="paint4_linear_255_18" x1="5.93967" y1="23.6044" x2="22.6087" y2="5.52345" gradientUnits="userSpaceOnUse">
<stop stop-color="#9E866C"/>
<stop offset="0.07" stop-color="#B8A284"/>
<stop offset="0.21" stop-color="#AD9378"/>
<stop offset="0.277551" stop-color="#DDCEBA"/>
<stop offset="0.332061" stop-color="#AB8F76"/>
<stop offset="0.66" stop-color="#735B42"/>
<stop offset="0.74" stop-color="#A58B6E"/>
<stop offset="0.91" stop-color="#B79A7A"/>
<stop offset="1" stop-color="#8F7E61"/>
</linearGradient>
<linearGradient id="paint5_linear_255_18" x1="50.9016" y1="19.4367" x2="54.6903" y2="15.2448" gradientUnits="userSpaceOnUse">
<stop stop-color="#9E866C"/>
<stop offset="0.07" stop-color="#B8A284"/>
<stop offset="0.21" stop-color="#AD9378"/>
<stop offset="0.277551" stop-color="#DDCEBA"/>
<stop offset="0.332061" stop-color="#AB8F76"/>
<stop offset="0.66" stop-color="#735B42"/>
<stop offset="0.74" stop-color="#A58B6E"/>
<stop offset="0.91" stop-color="#B79A7A"/>
<stop offset="1" stop-color="#8F7E61"/>
</linearGradient>
<linearGradient id="paint6_linear_255_18" x1="9.08751" y1="27.972" x2="24.424" y2="11.3375" gradientUnits="userSpaceOnUse">
<stop stop-color="#9E866C"/>
<stop offset="0.07" stop-color="#B8A284"/>
<stop offset="0.21" stop-color="#AD9378"/>
<stop offset="0.277551" stop-color="#DDCEBA"/>
<stop offset="0.332061" stop-color="#AB8F76"/>
<stop offset="0.66" stop-color="#735B42"/>
<stop offset="0.74" stop-color="#A58B6E"/>
<stop offset="0.91" stop-color="#B79A7A"/>
<stop offset="1" stop-color="#8F7E61"/>
</linearGradient>
<linearGradient id="paint7_linear_255_18" x1="17.6569" y1="31.1681" x2="28.6908" y2="20.8823" gradientUnits="userSpaceOnUse">
<stop stop-color="#9E866C"/>
<stop offset="0.07" stop-color="#B8A284"/>
<stop offset="0.21" stop-color="#AD9378"/>
<stop offset="0.277551" stop-color="#DDCEBA"/>
<stop offset="0.332061" stop-color="#AB8F76"/>
<stop offset="0.66" stop-color="#735B42"/>
<stop offset="0.74" stop-color="#A58B6E"/>
<stop offset="0.91" stop-color="#B79A7A"/>
<stop offset="1" stop-color="#8F7E61"/>
</linearGradient>
<linearGradient id="paint8_linear_255_18" x1="20.908" y1="66.3113" x2="23.7955" y2="62.6986" gradientUnits="userSpaceOnUse">
<stop stop-color="#9E866C"/>
<stop offset="0.07" stop-color="#B8A284"/>
<stop offset="0.21" stop-color="#AD9378"/>
<stop offset="0.277551" stop-color="#DDCEBA"/>
<stop offset="0.332061" stop-color="#AB8F76"/>
<stop offset="0.66" stop-color="#735B42"/>
<stop offset="0.74" stop-color="#A58B6E"/>
<stop offset="0.91" stop-color="#B79A7A"/>
<stop offset="1" stop-color="#8F7E61"/>
</linearGradient>
<linearGradient id="paint9_linear_255_18" x1="61.6539" y1="38.169" x2="64.2545" y2="38.0313" gradientUnits="userSpaceOnUse">
<stop stop-color="#9E866C"/>
<stop offset="0.07" stop-color="#B8A284"/>
<stop offset="0.21" stop-color="#AD9378"/>
<stop offset="0.277551" stop-color="#DDCEBA"/>
<stop offset="0.332061" stop-color="#AB8F76"/>
<stop offset="0.66" stop-color="#735B42"/>
<stop offset="0.74" stop-color="#A58B6E"/>
<stop offset="0.91" stop-color="#B79A7A"/>
<stop offset="1" stop-color="#8F7E61"/>
</linearGradient>
</defs>
</svg>
