<svg width="452" height="466" viewBox="0 0 452 466" fill="none" xmlns="http://www.w3.org/2000/svg">
<mask id="mask0_7336_7932" style="mask-type:alpha" maskUnits="userSpaceOnUse" x="-30" y="0" width="482" height="466">
<rect width="424.786" height="406.362" transform="matrix(-0.988564 -0.150804 -0.150804 0.988564 451.209 64.0596)" fill="url(#paint0_linear_7336_7932)"/>
</mask>
<g mask="url(#mask0_7336_7932)">
<path d="M302.06 152.615C353.051 155.01 393.909 127.453 407.964 113.375L433.689 178.908C417.476 189.032 374.451 209.528 332.055 210.515L302.06 152.615Z" fill="#FBECFE" stroke="#C4B3D0" stroke-width="0.716507"/>
<mask id="mask1_7336_7932" style="mask-type:alpha" maskUnits="userSpaceOnUse" x="302" y="114" width="133" height="96">
<path d="M433.834 176.934C417.691 187.187 374.737 207.911 332.062 208.789" stroke="black" stroke-width="0.716507"/>
<path d="M432.979 174.832C416.905 185.211 374.02 206.161 331.07 206.931" stroke="black" stroke-width="0.716507"/>
<path d="M432.134 172.756C416.128 183.26 373.312 204.434 330.091 205.096" stroke="black" stroke-width="0.716507"/>
<path d="M431.3 170.707C415.362 181.334 372.613 202.728 329.123 203.285" stroke="black" stroke-width="0.716507"/>
<path d="M430.477 168.685C414.605 179.434 371.923 201.045 328.169 201.498" stroke="black" stroke-width="0.716507"/>
<path d="M413.926 128.025C399.39 141.221 358.049 167.202 308.974 165.562" stroke="black" stroke-width="0.716507"/>
<path d="M429.664 166.688C413.858 177.557 371.241 199.383 327.226 199.733" stroke="black" stroke-width="0.716507"/>
<path d="M428.862 164.717C413.121 175.704 370.569 197.742 326.296 197.991" stroke="black" stroke-width="0.716507"/>
<path d="M428.071 162.773C412.393 173.878 369.906 196.125 325.378 196.274" stroke="black" stroke-width="0.716507"/>
<path d="M427.29 160.855C411.675 172.075 369.251 194.528 324.473 194.578" stroke="black" stroke-width="0.716507"/>
<path d="M426.52 158.965C410.967 170.299 368.606 192.955 323.58 192.907" stroke="black" stroke-width="0.716507"/>
<path d="M425.761 157.099C410.27 168.545 367.97 191.402 322.7 191.259" stroke="black" stroke-width="0.716507"/>
<path d="M425.012 155.26C409.581 166.817 367.342 189.872 321.831 189.634" stroke="black" stroke-width="0.716507"/>
<path d="M424.275 153.448C408.903 165.113 366.724 188.362 320.976 188.031" stroke="black" stroke-width="0.716507"/>
<path d="M423.548 151.661C408.235 163.435 366.114 186.876 320.133 186.453" stroke="black" stroke-width="0.716507"/>
<path d="M422.832 149.901C407.577 161.78 365.514 185.411 319.302 184.897" stroke="black" stroke-width="0.716507"/>
<path d="M422.126 148.168C406.928 160.152 364.922 183.968 318.484 183.365" stroke="black" stroke-width="0.716507"/>
<path d="M421.431 146.46C406.289 158.547 364.34 182.547 317.678 181.856" stroke="black" stroke-width="0.716507"/>
<path d="M420.746 144.78C405.659 156.967 363.766 181.148 316.883 180.37" stroke="black" stroke-width="0.716507"/>
<path d="M420.073 143.125C405.041 155.412 363.202 179.771 316.103 178.908" stroke="black" stroke-width="0.716507"/>
<path d="M419.41 141.497C404.431 153.882 362.646 178.415 315.334 177.469" stroke="black" stroke-width="0.716507"/>
<path d="M418.758 139.895C403.832 152.376 362.099 177.082 314.578 176.053" stroke="black" stroke-width="0.716507"/>
<path d="M418.117 138.319C403.242 150.895 361.562 175.77 313.834 174.66" stroke="black" stroke-width="0.716507"/>
<path d="M417.486 136.769C402.663 149.439 361.033 174.481 313.103 173.291" stroke="black" stroke-width="0.716507"/>
<path d="M416.866 135.246C402.093 148.007 360.514 173.213 312.384 171.944" stroke="black" stroke-width="0.716507"/>
<path d="M416.256 133.749C401.532 146.601 360.002 171.967 311.677 170.622" stroke="black" stroke-width="0.716507"/>
<path d="M415.658 132.278C400.982 145.218 359.501 170.743 310.983 169.321" stroke="black" stroke-width="0.716507"/>
<path d="M415.07 130.834C400.442 143.861 359.008 169.541 310.301 168.045" stroke="black" stroke-width="0.716507"/>
<path d="M414.493 129.416C399.911 142.528 358.524 168.36 309.631 166.792" stroke="black" stroke-width="0.716507"/>
<path d="M413.926 128.025C399.39 141.221 358.049 167.202 308.974 165.562" stroke="black" stroke-width="0.716507"/>
<path d="M413.371 126.659C398.879 139.937 357.583 166.066 308.33 164.355" stroke="black" stroke-width="0.716507"/>
<path d="M412.826 125.32C398.378 138.678 357.127 164.951 307.698 163.171" stroke="black" stroke-width="0.716507"/>
<path d="M412.291 124.007C397.887 137.444 356.678 163.858 307.078 162.011" stroke="black" stroke-width="0.716507"/>
<path d="M411.767 122.721C397.405 136.236 356.239 162.788 306.47 160.874" stroke="black" stroke-width="0.716507"/>
<path d="M411.255 121.46C396.934 135.051 355.81 161.739 305.876 159.761" stroke="black" stroke-width="0.716507"/>
<path d="M410.752 120.227C396.472 133.892 355.388 160.712 305.293 158.67" stroke="black" stroke-width="0.716507"/>
<path d="M410.261 119.019C396.02 132.757 354.977 159.707 304.723 157.603" stroke="black" stroke-width="0.716507"/>
<path d="M409.78 117.837C395.579 131.646 354.574 158.723 304.166 156.559" stroke="black" stroke-width="0.716507"/>
<path d="M409.31 116.683C395.147 130.562 354.18 157.763 303.621 155.538" stroke="black" stroke-width="0.716507"/>
<path d="M408.851 115.554C394.724 129.5 353.795 156.823 303.088 154.54" stroke="black" stroke-width="0.716507"/>
<path d="M408.402 114.452C394.312 128.465 353.418 155.905 302.568 153.566" stroke="black" stroke-width="0.716507"/>
</mask>
<g mask="url(#mask1_7336_7932)">
<g filter="url(#filter0_f_7336_7932)">
<path d="M406.021 136.733C390.642 138.229 322.248 192.006 323.54 205.284C324.832 218.563 323.337 250.489 338.716 248.993C364.765 236.339 458.111 180.427 438.858 156.909C437.567 143.63 421.401 135.237 406.021 136.733Z" fill="#D1BBE0"/>
</g>
<g filter="url(#filter1_f_7336_7932)">
<path d="M387.939 101.365C373.527 102.767 308.345 141.969 309.246 151.228C310.147 160.488 308.012 182.857 322.423 181.455C347.069 172.001 435.626 130.729 418.171 114.721C417.271 105.461 402.351 99.963 387.939 101.365Z" fill="#D1BBE0"/>
</g>
<g filter="url(#filter2_f_7336_7932)">
<path d="M368.294 159.612C360.919 172.075 356.862 178.706 359.74 180.409C362.617 182.111 398.92 176.158 406.295 163.696C416.849 152.274 419.214 136.892 416.337 135.19C413.46 133.487 379.48 146.724 368.294 159.612Z" fill="#F5E6FE"/>
</g>
</g>
<g style="mix-blend-mode:plus-lighter">
<path d="M413.926 128.025C399.39 141.221 358.049 167.202 308.974 165.562" stroke="white" stroke-width="0.486661"/>
</g>
<g style="mix-blend-mode:plus-lighter">
<path d="M432.134 172.757C416.128 183.26 373.312 204.434 330.091 205.097" stroke="white" stroke-width="0.486661"/>
</g>
<g style="mix-blend-mode:plus-lighter">
<path d="M425.761 157.099C410.27 168.546 367.97 191.402 322.7 191.259" stroke="white" stroke-width="0.486661"/>
</g>
<path d="M150.707 191.134C196.91 142.787 252.761 153.378 293.304 152.315L290.225 209.829C276.759 207.602 245.319 206.913 227.283 221.971C204.739 240.794 167.368 288.935 138.16 331.073C108.953 373.212 65.1073 409.493 49.0802 412.743L4.02633 355.135C97.651 297.973 91.3407 253.254 150.707 191.134Z" fill="#F7E7FF" stroke="#AE99BB" stroke-width="0.716507"/>
<mask id="mask2_7336_7932" style="mask-type:alpha" maskUnits="userSpaceOnUse" x="3" y="151" width="291" height="261">
<path d="M293.304 152.315C252.76 153.378 196.91 142.787 150.706 191.134C91.3402 253.254 97.6504 297.973 4.02575 355.135" stroke="black" stroke-width="0.716507"/>
<path d="M290.534 207.805C277.068 205.578 245.627 204.889 227.592 219.947C205.047 238.77 167.676 286.911 138.469 329.049C109.261 371.188 65.4158 407.469 49.3887 410.719" stroke="black" stroke-width="0.716507"/>
<path d="M293.26 153.196C273.096 153.683 248.881 151.328 224.183 155.04C199.413 158.811 173.711 168.864 150.512 193.323C91.6251 255.125 97.1394 299.71 4.74618 356.017" stroke="black" stroke-width="0.716507"/>
<path d="M293.216 154.089C273.162 154.533 248.828 152.205 224.239 156.102C199.505 160.12 173.612 170.796 150.315 195.544C91.9139 257.025 96.6204 301.474 5.47694 356.912" stroke="black" stroke-width="0.716507"/>
<path d="M293.17 154.996C273.227 155.394 248.774 153.094 224.295 157.18C199.598 161.447 173.512 172.756 150.115 197.797C92.2061 258.952 96.093 303.263 6.21755 357.82" stroke="black" stroke-width="0.716507"/>
<path d="M293.124 155.916C273.294 156.268 248.719 153.996 224.352 158.273C199.693 162.794 173.41 174.744 149.912 200.084C92.5031 260.907 95.5587 305.078 6.96949 358.741" stroke="black" stroke-width="0.716507"/>
<path d="M293.078 156.848C273.362 157.155 248.664 154.911 224.411 159.381C199.79 164.16 173.308 176.761 149.707 202.402C92.8051 262.889 95.0175 306.918 7.73273 359.676" stroke="black" stroke-width="0.716507"/>
<path d="M293.031 157.794C273.431 158.053 248.608 155.838 224.47 160.506C199.888 165.544 173.203 178.805 149.499 204.753C93.1109 264.899 94.4684 308.785 8.50633 360.623" stroke="black" stroke-width="0.716507"/>
<path d="M292.983 158.754C273.501 158.965 248.55 156.78 224.53 161.646C199.986 166.949 173.097 180.878 149.287 207.136C93.4201 266.938 93.9109 310.677 9.28974 361.584" stroke="black" stroke-width="0.716507"/>
<path d="M292.935 159.724C273.572 159.887 248.493 157.731 224.591 162.8C200.087 168.371 172.99 182.978 149.073 209.551C93.7342 269.002 93.3464 312.594 10.0845 362.556" stroke="black" stroke-width="0.716507"/>
<path d="M292.885 160.709C273.643 160.823 248.434 158.698 224.652 163.971C200.188 169.813 172.881 185.107 148.855 211.999C94.0521 271.095 92.7741 314.538 10.8896 363.543" stroke="black" stroke-width="0.716507"/>
<path d="M292.835 161.707C273.716 161.772 248.374 159.677 224.714 165.157C200.291 171.274 172.77 187.265 148.635 214.48C94.3745 273.217 92.1943 316.507 11.7055 364.543" stroke="black" stroke-width="0.716507"/>
<path d="M292.785 162.719C273.789 162.733 248.314 160.668 224.778 166.359C200.396 172.755 172.659 189.451 148.412 216.993C94.7012 275.366 91.6072 318.503 12.5322 365.556" stroke="black" stroke-width="0.716507"/>
<path d="M292.734 163.743C273.864 163.706 248.253 161.673 224.841 167.576C200.501 174.254 172.546 191.664 148.186 219.538C95.0318 277.542 91.0121 320.523 13.3693 366.582" stroke="black" stroke-width="0.716507"/>
<path d="M292.683 164.779C273.94 164.691 248.192 162.689 224.907 168.808C200.609 175.772 172.431 193.905 147.958 222.115C95.3672 279.746 90.4101 322.569 14.2176 367.62" stroke="black" stroke-width="0.716507"/>
<path d="M292.629 165.83C274.015 165.69 248.128 163.72 224.972 170.057C200.716 177.311 172.315 196.176 147.726 224.726C95.7056 281.978 89.7992 324.642 15.0754 368.672" stroke="black" stroke-width="0.716507"/>
<path d="M292.577 166.893C274.093 166.7 248.065 164.763 225.038 171.32C200.826 178.867 172.198 198.475 147.492 227.368C96.0494 284.238 89.1819 326.74 15.9449 369.737" stroke="black" stroke-width="0.716507"/>
<path d="M292.523 167.969C274.171 167.723 248.001 165.818 225.105 172.6C200.938 180.443 172.079 200.801 147.254 230.043C96.397 286.526 88.5567 328.864 16.8248 370.816" stroke="black" stroke-width="0.716507"/>
<path d="M292.468 169.058C274.25 168.758 247.936 166.886 225.173 173.894C201.05 182.038 171.958 203.156 147.014 232.75C96.7484 288.84 87.9236 331.013 17.715 371.906" stroke="black" stroke-width="0.716507"/>
<path d="M292.413 170.161C274.33 169.805 247.87 167.968 225.242 175.204C201.163 183.652 171.836 205.539 146.77 235.49C97.1043 291.183 87.283 333.188 18.6161 373.011" stroke="black" stroke-width="0.716507"/>
<path d="M292.358 171.276C274.412 170.864 247.804 169.061 225.312 176.53C201.279 185.285 171.713 207.949 146.525 238.262C97.4651 293.553 86.6356 335.389 19.5284 374.127" stroke="black" stroke-width="0.716507"/>
<path d="M292.302 172.405C274.494 171.937 247.737 170.168 225.383 177.871C201.395 186.937 171.589 210.389 146.276 241.067C97.8297 295.952 85.9802 337.616 20.4511 375.258" stroke="black" stroke-width="0.716507"/>
<path d="M292.245 173.546C274.577 173.022 247.669 171.288 225.454 179.228C201.513 188.609 171.462 212.857 146.024 243.904C98.1982 298.378 85.317 339.869 21.3842 376.402" stroke="black" stroke-width="0.716507"/>
<path d="M292.188 174.7C274.661 174.119 247.601 172.42 225.526 180.6C201.633 190.299 171.335 215.352 145.77 246.774C98.5716 300.832 84.6468 342.147 22.3285 377.558" stroke="black" stroke-width="0.716507"/>
<path d="M292.129 175.868C274.746 175.228 247.531 173.565 225.599 181.988C201.753 192.008 171.206 217.876 145.512 249.675C98.9483 303.313 83.9682 344.45 23.2827 378.727" stroke="black" stroke-width="0.716507"/>
<path d="M292.07 177.048C274.832 176.35 247.46 174.723 225.672 183.391C201.875 193.737 171.075 220.428 145.252 252.609C99.3295 305.822 83.2822 346.78 24.2477 379.91" stroke="black" stroke-width="0.716507"/>
<path d="M292.01 178.242C274.918 177.485 247.389 175.894 225.746 184.81C201.997 195.485 170.943 223.008 144.988 255.576C99.7145 308.359 82.5883 349.136 25.2231 381.106" stroke="black" stroke-width="0.716507"/>
<path d="M291.95 179.448C275.007 178.631 247.318 177.077 225.822 186.244C202.122 197.251 170.81 225.616 144.723 258.575C100.105 310.924 81.888 351.516 26.2102 382.314" stroke="black" stroke-width="0.716507"/>
<path d="M291.889 180.667C275.095 179.79 247.245 178.273 225.898 187.693C202.248 199.037 170.675 228.253 144.454 261.606C100.499 313.515 81.1793 353.923 27.2072 383.535" stroke="black" stroke-width="0.716507"/>
<path d="M291.828 181.901C275.185 180.961 247.171 179.482 225.975 189.158C202.375 200.842 170.539 230.918 144.182 264.671C100.897 316.136 80.4631 356.356 28.2151 384.771" stroke="black" stroke-width="0.716507"/>
<path d="M291.766 183.147C275.276 182.146 247.097 180.704 226.053 190.639C202.504 202.666 170.402 233.611 143.907 267.767C101.299 318.784 79.7395 358.814 29.2337 386.019" stroke="black" stroke-width="0.716507"/>
<path d="M291.702 184.405C275.367 183.342 247.022 181.939 226.131 192.136C202.633 204.509 170.262 236.332 143.629 270.896C101.705 321.459 79.0076 361.298 30.2623 387.28" stroke="black" stroke-width="0.716507"/>
<path d="M291.639 185.677C275.46 184.55 246.946 183.186 226.211 193.647C202.765 206.372 170.122 239.082 143.349 274.057C102.117 324.162 78.2693 363.808 31.3026 388.554" stroke="black" stroke-width="0.716507"/>
<path d="M291.575 186.962C275.553 185.771 246.87 184.446 226.292 195.174C202.898 208.253 169.98 241.859 143.066 277.251C102.532 326.893 77.523 366.343 32.3532 389.841" stroke="black" stroke-width="0.716507"/>
<path d="M291.51 188.26C275.647 187.005 246.792 185.719 226.372 196.717C203.031 210.153 169.836 244.665 142.779 280.477C102.95 329.652 76.7683 368.905 33.4137 391.141" stroke="black" stroke-width="0.716507"/>
<path d="M291.445 189.571C275.743 188.25 246.715 187.005 226.455 198.275C203.167 212.073 169.692 247.499 142.491 283.735C103.375 332.438 76.0077 371.492 34.4864 392.454" stroke="black" stroke-width="0.716507"/>
<path d="M291.379 190.895C275.839 189.508 246.636 188.304 226.537 199.849C203.304 214.011 169.545 250.361 142.198 287.026C103.802 335.252 75.2382 374.104 35.5686 393.78" stroke="black" stroke-width="0.716507"/>
<path d="M291.312 192.232C275.936 190.779 246.556 189.615 226.621 201.438C203.442 215.969 169.398 253.251 141.903 290.349C104.234 338.094 74.4612 376.743 36.6616 395.119" stroke="black" stroke-width="0.716507"/>
<path d="M291.245 193.582C276.035 192.062 246.475 190.939 226.705 203.043C203.581 217.946 169.248 256.17 141.605 293.705C104.67 340.963 73.6769 379.407 37.7654 396.472" stroke="black" stroke-width="0.716507"/>
<path d="M291.177 194.945C276.134 193.357 246.394 192.276 226.79 204.663C203.722 219.942 169.098 259.116 141.305 297.093C105.11 343.86 72.8852 382.097 38.88 397.837" stroke="black" stroke-width="0.716507"/>
<path d="M291.108 196.321C276.234 194.665 246.312 193.625 226.876 206.298C203.864 221.956 168.946 262.091 141.001 300.513C105.555 346.785 72.0855 384.812 40.0049 399.215" stroke="black" stroke-width="0.716507"/>
<path d="M291.038 197.711C276.335 195.986 246.229 194.989 226.962 207.95C204.007 223.992 168.792 265.095 140.694 303.967C106.003 349.739 71.278 387.554 41.1402 400.608" stroke="black" stroke-width="0.716507"/>
<path d="M290.969 199.113C276.437 197.318 246.146 196.364 227.05 209.617C204.152 226.044 168.637 268.126 140.386 307.452C106.456 352.719 70.464 390.321 42.2874 402.012" stroke="black" stroke-width="0.716507"/>
<path d="M290.898 200.528C276.54 198.663 246.062 197.752 227.139 211.299C204.298 228.117 168.481 271.185 140.074 310.969C106.913 355.727 69.6416 393.114 43.4443 403.43" stroke="black" stroke-width="0.716507"/>
<path d="M290.827 201.957C276.644 200.02 245.976 199.153 227.228 212.997C204.445 230.208 168.323 274.273 139.759 314.52C107.375 358.763 68.8119 395.933 44.6121 404.861" stroke="black" stroke-width="0.716507"/>
<path d="M290.754 203.398C276.748 201.39 245.89 200.567 227.318 214.71C204.594 232.319 168.163 277.389 139.44 318.102C107.84 361.826 67.9742 398.777 45.7902 406.304" stroke="black" stroke-width="0.716507"/>
<path d="M290.682 204.852C276.855 202.771 245.804 201.992 227.409 216.438C204.744 234.448 168.003 280.533 139.12 321.717C108.31 364.917 67.1295 401.646 46.9796 407.761" stroke="black" stroke-width="0.716507"/>
<path d="M290.608 206.321C276.961 204.167 245.716 203.433 227.5 218.184C204.895 236.598 167.84 283.706 138.796 325.365C108.783 368.037 66.2764 404.544 48.1787 409.232" stroke="black" stroke-width="0.716507"/>
</mask>
<g mask="url(#mask2_7336_7932)">
<g filter="url(#filter3_f_7336_7932)">
<path d="M198.646 123.769C161.327 139.981 20.9649 301.162 31.3812 325.139C41.7975 349.115 55.4353 410.768 92.7538 394.556C150.467 347.965 351.535 161.032 291.023 133.329C280.607 109.353 235.964 107.556 198.646 123.769Z" fill="#B8A1C5"/>
</g>
<g filter="url(#filter4_f_7336_7932)">
<path d="M159.633 203.885C147.685 224.075 80.0688 330.609 86.8799 334.64C93.6909 338.67 164.167 241.603 176.115 221.413C195.315 204.151 253.097 176.094 246.286 172.063C239.475 168.032 179.725 184.171 159.633 203.885Z" fill="#E0CBED"/>
</g>
<g filter="url(#filter5_f_7336_7932)">
<path d="M155.346 198.054C143.398 218.244 58.1103 323.003 89.5703 336.232C114.458 357.484 181.497 253.565 193.445 233.375C216.841 218.597 280.305 174.365 269.199 167.793C258.093 161.22 179.372 180.668 155.346 198.054Z" fill="#E0CBED"/>
</g>
</g>
<g style="mix-blend-mode:plus-lighter">
<path d="M291.312 192.232C275.936 190.779 246.556 189.615 226.621 201.438C203.442 215.969 169.398 253.251 141.903 290.349C104.234 338.094 74.4612 376.743 36.6616 395.119" stroke="white" stroke-width="0.486661"/>
</g>
<g style="mix-blend-mode:plus-lighter">
<path d="M292.188 174.7C274.661 174.119 247.601 172.42 225.526 180.6C201.633 190.299 171.335 215.352 145.77 246.774C98.5716 300.832 84.6468 342.147 22.3285 377.558" stroke="white" stroke-width="0.486661"/>
</g>
<g style="mix-blend-mode:plus-lighter">
<path d="M292.358 171.276C274.412 170.864 247.804 169.061 225.312 176.53C201.279 185.285 171.713 207.949 146.525 238.262C97.4651 293.553 86.6356 335.389 19.5284 374.127" stroke="white" stroke-width="0.486661"/>
</g>
<g style="mix-blend-mode:plus-lighter">
<path d="M292.391 160.726C272.56 161.079 247.985 158.807 223.619 163.084C198.96 167.605 143.735 207.918 136.763 253.622" stroke="white" stroke-width="0.486661"/>
</g>
<path d="M350.287 74.0318C365.228 64.0161 411.36 60.5691 445.138 63.1333L419.395 106.318C401.704 117.08 382.229 132.747 370.224 146.964C345.439 176.317 341.54 202.643 309.176 241.712C251.795 310.982 136.977 318.467 114.715 315.071C78.7939 309.592 49.3551 322.703 23.1405 331.647L-9.16193 265.111C17.0526 256.168 51.0963 253.595 73.3918 253.372C91.267 253.194 217.565 259.903 271.626 179.035C325.959 97.7593 329.526 87.9493 350.287 74.0318Z" fill="#F4E3FF" stroke="#BAA5C8" stroke-width="1.02358"/>
<mask id="mask3_7336_7932" style="mask-type:alpha" maskUnits="userSpaceOnUse" x="-9" y="63" width="454" height="268">
<path d="M444.345 64.464C411.063 62.3105 365.752 66.1341 350.902 76.2793C330.017 90.6725 326.44 100.992 272.784 180.966C218.621 261.477 92.6762 255.205 74.6659 255.274C51.9503 255.321 18.0486 258.218 -8.16595 267.162" stroke="black" stroke-width="0.716507"/>
<path d="M443.557 65.7858C410.768 64.0402 366.273 68.2378 351.513 78.5117C330.505 93.3773 326.917 104.202 273.933 182.885C219.669 263.041 94.0758 257.203 75.9311 257.162C52.7985 257.035 19.0377 260.254 -7.17681 269.198" stroke="black" stroke-width="0.716507"/>
<path d="M442.774 67.0986C410.473 65.7581 366.789 70.3272 352.118 80.7288C330.988 96.0636 327.39 107.39 275.074 184.79C220.709 264.593 95.4646 259.187 77.1866 259.038C53.6398 258.737 20.019 262.277 -6.19554 271.221" stroke="black" stroke-width="0.716507"/>
<path d="M441.997 68.403C410.182 67.4647 367.302 72.4027 352.72 82.9311C331.468 98.7319 327.86 110.557 276.208 186.683C221.742 266.136 96.8448 261.159 78.4344 260.901C54.4763 260.428 20.9944 264.286 -5.22008 273.23" stroke="black" stroke-width="0.716507"/>
<path d="M441.225 69.6971C409.892 69.1584 367.812 74.4627 353.317 85.1171C331.945 101.381 328.327 113.701 277.333 188.561C222.768 267.667 98.2147 263.115 79.6729 262.75C55.3063 262.106 21.9625 266.281 -4.25203 275.224" stroke="black" stroke-width="0.716507"/>
<path d="M440.459 70.9832C409.605 70.8411 368.318 76.5091 353.911 87.2886C332.419 104.011 328.791 116.823 278.451 190.428C223.787 269.188 99.5755 265.058 80.9031 264.587C56.1308 263.774 22.9241 268.262 -3.29038 277.205" stroke="black" stroke-width="0.716507"/>
<path d="M439.698 72.2593C409.319 72.511 368.82 78.5402 354.5 89.4439C332.889 106.623 329.251 119.923 279.561 192.28C224.798 270.697 100.926 266.987 82.124 266.411C56.949 265.428 23.8784 270.228 -2.33611 279.172" stroke="black" stroke-width="0.716507"/>
<path d="M438.943 73.526C409.037 74.1688 369.32 80.5566 355.086 91.5836C333.356 109.216 329.709 123 280.663 194.119C225.803 272.196 102.268 268.902 83.3372 268.221C57.7624 267.071 24.8269 272.18 -1.38759 281.124" stroke="black" stroke-width="0.716507"/>
<path d="M438.193 74.7842C408.755 75.8152 369.815 82.559 355.666 93.7084C333.82 111.79 330.163 126.056 281.757 195.945C226.801 273.684 103.6 270.804 84.5412 270.018C58.5694 268.703 25.7681 274.118 -0.446383 283.062" stroke="black" stroke-width="0.716507"/>
<path d="M437.448 76.0339C408.476 77.4504 370.307 84.5476 356.243 95.8186C334.28 114.347 330.614 129.09 282.843 197.758C227.791 275.162 104.922 272.693 85.7363 271.804C59.3705 270.323 26.7023 276.043 0.487825 284.987" stroke="black" stroke-width="0.716507"/>
<path d="M436.709 77.2734C408.199 79.0726 370.795 86.5206 356.815 97.9122C334.737 116.884 331.061 132.102 283.921 199.557C228.773 276.628 106.234 274.566 86.9227 273.575C60.1656 271.93 27.6297 277.953 1.41516 286.897" stroke="black" stroke-width="0.716507"/>
<path d="M435.975 78.5043C407.923 80.6832 371.279 88.4796 357.383 99.9909C335.19 119.402 331.505 135.091 284.991 201.344C229.749 278.084 107.537 276.427 88.1004 275.333C60.9549 273.526 28.5502 279.85 2.33573 288.794" stroke="black" stroke-width="0.716507"/>
<path d="M435.247 79.7262C407.65 82.2821 371.76 90.4242 357.947 102.054C335.64 121.902 331.945 138.058 286.054 203.117C230.717 279.529 108.83 278.274 89.2693 277.079C61.7383 275.111 29.4639 281.732 3.24934 290.676" stroke="black" stroke-width="0.716507"/>
<path d="M434.524 80.9387C407.379 83.8689 372.238 92.3541 358.508 104.102C336.088 124.384 332.384 141.003 287.109 204.877C231.679 280.963 110.114 280.106 90.4304 278.811C62.5168 276.683 30.3717 283.601 4.15718 292.544" stroke="black" stroke-width="0.716507"/>
<path d="M433.807 82.1418C407.11 85.4434 372.712 94.2692 359.063 106.135C336.531 126.846 332.817 143.926 288.155 206.623C232.632 282.386 111.388 281.925 91.5817 280.53C63.2883 278.243 31.2716 285.454 5.05709 294.398" stroke="black" stroke-width="0.716507"/>
<path d="M433.095 83.3359C406.843 87.0061 373.182 96.1699 359.615 108.151C336.971 129.29 333.249 146.827 289.194 208.357C233.579 283.799 112.652 283.73 92.7248 282.237C64.0546 279.792 32.1652 287.294 5.95067 296.238" stroke="black" stroke-width="0.716507"/>
<path d="M432.388 84.5219C406.578 88.5578 373.649 98.057 360.162 110.154C337.408 131.716 333.676 149.706 290.224 210.077C234.519 285.201 113.907 285.523 93.8592 283.931C64.8149 281.329 33.0519 289.121 6.83738 298.065" stroke="black" stroke-width="0.716507"/>
<path d="M431.687 85.6985C406.315 90.0974 374.112 99.9294 360.705 112.141C337.841 134.123 334.101 152.563 291.247 211.785C235.451 286.593 115.152 287.301 94.9848 285.612C65.5694 282.855 33.9318 290.934 7.71728 299.878" stroke="black" stroke-width="0.716507"/>
<path d="M430.991 86.8654C406.053 91.6244 374.571 101.787 361.243 114.112C338.271 136.511 334.521 155.398 292.262 213.479C236.376 287.973 116.387 289.065 96.101 287.279C66.3173 284.368 34.8042 292.732 8.58968 301.676" stroke="black" stroke-width="0.716507"/>
<path d="M430.301 88.0234C405.795 93.1398 375.027 103.63 361.778 116.067C338.698 138.881 334.939 158.21 293.269 215.159C237.294 289.343 117.613 290.815 97.2097 288.933C67.0606 285.87 35.6709 294.516 9.45641 303.46" stroke="black" stroke-width="0.716507"/>
<path d="M429.615 89.1722C405.537 94.6432 375.479 105.458 362.308 118.008C339.121 141.232 335.353 161.001 294.267 216.827C238.204 290.702 118.828 292.552 98.3084 290.575C67.7968 287.359 36.5297 296.286 10.3152 305.23" stroke="black" stroke-width="0.716507"/>
<path d="M428.937 90.3123C405.283 96.1349 375.928 107.273 362.835 119.933C339.541 143.565 335.765 163.769 295.259 218.481C239.109 292.05 120.036 294.275 99.3999 292.204C68.5286 288.837 37.3831 298.043 11.1686 306.986" stroke="black" stroke-width="0.716507"/>
<path d="M428.263 91.4424C405.031 97.614 376.374 109.072 363.357 121.842C339.958 145.878 336.174 166.515 296.243 220.122C240.005 293.387 121.233 295.983 100.482 293.818C69.2541 290.303 38.2291 299.784 12.0146 308.728" stroke="black" stroke-width="0.716507"/>
<path d="M427.594 92.5643C404.78 99.0821 376.815 110.857 363.875 123.737C340.371 148.173 336.578 169.239 297.218 221.75C240.894 294.714 122.42 297.679 101.555 295.421C69.9732 291.758 39.0678 301.513 12.8533 310.456" stroke="black" stroke-width="0.716507"/>
<path d="M426.93 93.6772C404.53 100.538 377.253 112.628 364.388 125.616C340.781 150.45 336.979 171.942 298.185 223.365C241.775 296.03 123.597 299.361 102.619 297.011C70.6865 293.201 39.8997 303.227 13.6852 312.171" stroke="black" stroke-width="0.716507"/>
<path d="M426.272 94.7811C404.284 101.983 377.687 114.385 364.898 127.48C341.188 152.709 337.377 174.622 299.144 224.967C242.65 297.336 124.765 301.029 103.675 298.588C71.3943 294.632 40.7252 304.928 14.5107 313.871" stroke="black" stroke-width="0.716507"/>
<path d="M425.62 95.8757C404.039 103.415 378.118 116.127 365.402 129.328C341.59 154.948 337.771 177.28 300.095 226.556C243.517 298.631 125.923 302.683 104.722 300.152C72.0957 296.051 41.5433 306.614 15.3288 315.558" stroke="black" stroke-width="0.716507"/>
<path d="M424.973 96.9601C403.796 104.834 378.545 117.853 365.904 131.16C341.991 157.168 338.163 179.915 301.04 228.13C244.378 299.913 127.072 304.323 105.761 301.702C72.7922 297.458 42.3555 308.285 16.141 317.229" stroke="black" stroke-width="0.716507"/>
<path d="M424.332 98.0366C403.556 106.243 378.969 119.566 366.401 132.978C342.388 159.371 338.552 182.529 301.976 229.692C245.231 301.187 128.211 305.95 106.791 303.239C73.4828 298.853 43.1609 309.944 16.9463 318.887" stroke="black" stroke-width="0.716507"/>
<path d="M423.695 99.1038C403.317 107.639 379.389 121.265 366.893 134.78C342.78 161.554 338.937 185.121 302.903 231.241C246.076 302.449 129.34 307.563 107.812 304.764C74.1666 300.237 43.9584 311.588 17.7439 320.531" stroke="black" stroke-width="0.716507"/>
<path d="M423.065 100.162C403.081 109.024 379.806 122.948 367.382 136.567C343.171 163.719 339.319 187.69 303.824 232.776C246.916 303.7 130.461 309.162 108.825 306.276C74.8459 301.609 44.7506 313.218 18.536 322.161" stroke="black" stroke-width="0.716507"/>
<path d="M422.44 101.21C402.846 110.396 380.219 124.618 367.866 138.338C343.557 165.865 339.697 190.238 304.735 234.299C247.747 304.941 131.571 310.747 109.828 307.774C75.5184 302.969 45.5349 314.834 19.3204 323.777" stroke="black" stroke-width="0.716507"/>
<path d="M421.82 102.25C402.614 111.757 380.628 126.273 368.346 140.094C343.94 167.993 340.072 192.763 305.639 235.808C248.571 306.171 132.671 312.319 110.823 309.26C76.1849 304.317 46.3123 316.436 20.0978 325.38" stroke="black" stroke-width="0.716507"/>
<path d="M421.205 103.281C402.383 113.105 381.033 127.912 368.822 141.835C344.319 170.102 340.444 195.266 306.535 237.303C249.387 307.389 133.762 313.876 111.809 310.732C76.8456 305.653 47.0829 318.023 20.8684 326.967" stroke="black" stroke-width="0.716507"/>
<path d="M420.596 104.302C402.155 114.442 381.436 129.538 369.293 143.56C344.696 172.192 340.812 197.747 307.423 238.786C250.197 308.598 134.843 315.42 112.786 312.191C77.5009 306.978 47.8471 319.597 21.6326 328.541" stroke="black" stroke-width="0.716507"/>
<path d="M419.993 105.314C401.929 115.767 381.835 131.15 369.761 145.27C345.069 174.264 341.178 200.206 308.304 240.255C251 309.795 135.915 316.951 113.756 313.638C78.1508 308.29 48.605 321.157 22.3905 330.101" stroke="black" stroke-width="0.716507"/>
</mask>
<g mask="url(#mask3_7336_7932)">
<g filter="url(#filter6_f_7336_7932)">
<path d="M343.72 53.3568C327.858 60.2477 339.613 92.4682 350.03 116.445C360.446 140.421 333.276 186.878 349.138 179.987C364.999 173.096 428.364 122.182 391.3 84.293C380.884 60.3166 359.581 46.4659 343.72 53.3568Z" fill="#93819E"/>
</g>
<g filter="url(#filter7_f_7336_7932)">
<path d="M319.596 54.6296C303.734 61.5208 290.521 71.5191 300.937 95.4956C311.353 119.472 285.838 151.686 301.7 144.795C317.562 137.903 400.047 70.8769 389.631 46.9004C379.215 22.9239 335.459 47.7384 319.596 54.6296Z" fill="#93819E"/>
</g>
<g filter="url(#filter8_f_7336_7932)">
<path d="M238.673 140.74C222.81 147.631 209.597 157.629 220.014 181.606C230.43 205.582 204.914 237.796 220.777 230.905C236.639 224.014 319.124 156.987 308.708 133.011C298.291 109.034 254.535 133.848 238.673 140.74Z" fill="#93819E"/>
</g>
<g filter="url(#filter9_f_7336_7932)">
<path d="M141.328 339.598C105.827 355.021 71.4748 366.394 62.7882 346.399C-1.79436 328.89 0.554509 235.542 36.0556 220.119C61.1065 255.855 234.837 272.809 243.524 292.804C252.211 312.798 176.829 324.175 141.328 339.598Z" fill="#93819E"/>
</g>
<g filter="url(#filter10_f_7336_7932)">
<path d="M286.615 247.072C268.89 261.452 191.737 293.862 195.751 303.101C199.765 312.341 278.65 283.642 294.512 276.751C310.375 269.859 364.659 151.119 360.645 141.88C356.631 132.64 312.934 225.719 286.615 247.072Z" fill="#93819E"/>
</g>
<g filter="url(#filter11_f_7336_7932)">
<ellipse cx="20.3914" cy="53.4001" rx="20.3914" ry="53.4001" transform="matrix(-0.922096 -0.38696 -0.38696 0.922096 347.203 121.4)" fill="#D1B8E0"/>
</g>
<g filter="url(#filter12_f_7336_7932)">
<ellipse cx="23.4055" cy="42.4786" rx="23.4055" ry="42.4786" transform="matrix(-0.801156 -0.598456 -0.598456 0.801156 320.166 196.827)" fill="#D1B8E0"/>
</g>
<g filter="url(#filter13_f_7336_7932)">
<path d="M225.533 235.773C204.015 245.121 185.547 263.187 188.701 270.446C191.854 277.705 212.126 280.438 233.644 271.09C255.161 261.742 273.357 239.249 270.204 231.99C267.05 224.731 247.05 226.425 225.533 235.773Z" fill="#D1B8E0"/>
</g>
<g filter="url(#filter14_f_7336_7932)">
<path d="M204.093 269.066C189.85 287.708 182.517 312.481 188.806 317.286C195.095 322.09 214.132 314.606 228.374 295.963C242.616 277.321 247.557 248.814 241.268 244.01C234.979 239.205 218.335 250.423 204.093 269.066Z" fill="#D1B8E0"/>
</g>
<g filter="url(#filter15_f_7336_7932)">
<path d="M56.2442 296.081C79.6736 297.285 104.252 289.324 104.658 281.42C105.064 273.516 88.1261 262.048 64.6967 260.844C41.2673 259.641 14.9629 271.686 14.5568 279.59C14.1507 287.494 32.8148 294.878 56.2442 296.081Z" fill="#D1B8E0"/>
</g>
</g>
<g style="mix-blend-mode:plus-lighter" filter="url(#filter16_f_7336_7932)">
<path d="M427.96 90.1582C405.146 96.6759 377.182 108.451 364.242 121.33C340.738 145.767 336.945 166.833 297.584 219.344C241.261 292.308 122.786 295.273 101.922 293.015C70.3399 289.352 39.4345 299.106 13.22 308.05" stroke="white" stroke-width="0.716507"/>
</g>
<g style="mix-blend-mode:plus-lighter">
<path d="M440.065 69.854C409.687 70.1058 369.188 76.1349 354.868 87.0386C333.256 104.218 329.619 117.518 279.928 189.875C225.166 268.292 101.294 264.582 82.4917 264.005C57.3167 263.023 24.2461 267.823 -1.96843 276.766" stroke="white" stroke-width="0.364996"/>
</g>
<g style="mix-blend-mode:plus-lighter">
<path d="M452.296 86.4882C421.918 86.7399 381.418 92.7691 367.098 103.673C345.487 120.852 341.849 134.152 292.159 206.509C237.396 284.926 113.524 281.216 94.7221 280.64C69.5472 279.657 36.4766 284.457 10.262 293.401" stroke="white" stroke-width="0.364996"/>
</g>
<g style="mix-blend-mode:plus-lighter">
<path d="M462.326 117.556C431.947 117.808 391.448 123.837 377.128 134.741C355.517 151.92 351.879 165.22 302.189 237.576C247.426 315.994 123.554 312.284 104.752 311.707C79.577 310.725 46.5063 315.525 20.2918 324.468" stroke="white" stroke-width="0.364996"/>
</g>
<g style="mix-blend-mode:plus-lighter">
<path d="M453.805 108.871C423.426 109.123 382.927 115.152 368.607 126.056C346.996 143.235 343.358 156.535 293.668 228.892C238.905 307.309 115.033 303.599 96.2309 303.023C71.056 302.04 37.9854 306.84 11.7708 315.784" stroke="white" stroke-width="0.364996"/>
</g>
<g style="mix-blend-mode:plus-lighter">
<path d="M438.638 111.481C408.259 111.732 367.76 117.762 353.44 128.665C331.829 145.844 328.191 159.144 278.501 231.501C223.738 309.919 99.866 306.209 81.0639 305.632C55.889 304.65 22.8184 309.449 -3.39617 318.393" stroke="white" stroke-width="0.364996"/>
</g>
<g clip-path="url(#clip0_7336_7932)">
<path d="M150.708 191.134C196.911 142.788 252.762 153.378 293.305 152.315L290.226 209.829C276.76 207.603 243.802 206.682 225.766 221.74C203.222 240.562 167.369 288.935 138.161 331.074C108.954 373.212 65.1083 409.494 49.0812 412.744L4.02731 355.135C97.652 297.973 91.3417 253.254 150.708 191.134Z" fill="#F7E7FF"/>
<mask id="mask4_7336_7932" style="mask-type:alpha" maskUnits="userSpaceOnUse" x="3" y="151" width="291" height="261">
<path d="M293.305 152.315C252.761 153.378 196.911 142.787 150.707 191.134C91.3416 253.254 97.6519 297.973 4.02721 355.135" stroke="black" stroke-width="0.716507"/>
<path d="M290.535 207.805C277.069 205.578 245.629 204.889 227.593 219.947C205.049 238.77 167.678 286.911 138.47 329.049C109.263 371.188 65.4173 407.469 49.3902 410.719" stroke="black" stroke-width="0.716507"/>
<path d="M293.261 153.196C273.097 153.683 248.882 151.328 224.184 155.04C199.414 158.811 173.712 168.864 150.513 193.323C91.626 255.125 97.1403 299.71 4.74716 356.017" stroke="black" stroke-width="0.716507"/>
<path d="M293.217 154.089C273.163 154.533 248.829 152.205 224.24 156.102C199.506 160.12 173.613 170.796 150.316 195.544C91.9148 257.025 96.6214 301.474 5.47792 356.912" stroke="black" stroke-width="0.716507"/>
<path d="M293.171 154.996C273.228 155.394 248.775 153.094 224.296 157.18C199.599 161.447 173.513 172.756 150.116 197.797C92.2075 258.952 96.0945 303.263 6.21902 357.82" stroke="black" stroke-width="0.716507"/>
<path d="M293.125 155.916C273.295 156.268 248.72 153.996 224.354 158.273C199.694 162.794 173.411 174.744 149.913 200.084C92.5046 260.907 95.5602 305.078 6.97095 358.741" stroke="black" stroke-width="0.716507"/>
<path d="M293.079 156.849C273.363 157.155 248.665 154.911 224.412 159.382C199.791 164.16 173.309 176.761 149.708 202.402C92.806 262.889 95.0185 306.919 7.7337 359.676" stroke="black" stroke-width="0.716507"/>
<path d="M293.032 157.794C273.432 158.053 248.609 155.838 224.471 160.506C199.889 165.544 173.204 178.805 149.5 204.753C93.1119 264.899 94.4694 308.785 8.50731 360.623" stroke="black" stroke-width="0.716507"/>
<path d="M292.984 158.754C273.502 158.965 248.551 156.78 224.531 161.646C199.987 166.949 173.098 180.878 149.288 207.136C93.4211 266.938 93.9118 310.677 9.29071 361.584" stroke="black" stroke-width="0.716507"/>
<path d="M292.936 159.724C273.573 159.887 248.494 157.732 224.592 162.8C200.088 168.371 172.991 182.978 149.074 209.551C93.7351 269.002 93.3474 312.594 10.0855 362.556" stroke="black" stroke-width="0.716507"/>
<path d="M292.886 160.709C273.644 160.823 248.435 158.698 224.653 163.971C200.189 169.813 172.882 185.107 148.856 211.999C94.0531 271.095 92.7751 314.538 10.8905 363.543" stroke="black" stroke-width="0.716507"/>
<path d="M292.837 161.707C273.717 161.772 248.376 159.677 224.716 165.157C200.293 171.274 172.772 187.265 148.637 214.48C94.3759 273.217 92.1958 316.507 11.7069 364.543" stroke="black" stroke-width="0.716507"/>
<path d="M292.787 162.719C273.791 162.733 248.316 160.668 224.779 166.359C200.397 172.755 172.66 189.451 148.414 216.993C94.7026 275.366 91.6086 318.503 12.5337 365.556" stroke="black" stroke-width="0.716507"/>
<path d="M292.735 163.743C273.865 163.706 248.254 161.673 224.842 167.576C200.502 174.254 172.547 191.664 148.187 219.538C95.0328 277.542 91.0131 320.523 13.3703 366.582" stroke="black" stroke-width="0.716507"/>
<path d="M292.684 164.779C273.941 164.691 248.193 162.689 224.908 168.808C200.61 175.772 172.432 193.906 147.959 222.115C95.3682 279.746 90.4111 322.569 14.2186 367.62" stroke="black" stroke-width="0.716507"/>
<path d="M292.631 165.83C274.017 165.69 248.13 163.72 224.973 170.057C200.718 177.311 172.316 196.176 147.727 224.726C95.7071 281.978 89.8007 324.642 15.0769 368.672" stroke="black" stroke-width="0.716507"/>
<path d="M292.578 166.893C274.094 166.7 248.067 164.763 225.04 171.32C200.828 178.867 172.199 198.475 147.493 227.368C96.0508 284.238 89.1834 326.74 15.9464 369.737" stroke="black" stroke-width="0.716507"/>
<path d="M292.524 167.969C274.172 167.723 248.002 165.818 225.106 172.6C200.938 180.443 172.08 200.801 147.255 230.043C96.3979 286.526 88.5577 328.864 16.8258 370.816" stroke="black" stroke-width="0.716507"/>
<path d="M292.469 169.058C274.251 168.758 247.937 166.887 225.174 173.894C201.051 182.038 171.959 203.156 147.015 232.751C96.7494 288.841 87.9245 331.013 17.716 371.907" stroke="black" stroke-width="0.716507"/>
<path d="M292.415 170.161C274.332 169.805 247.872 167.968 225.243 175.205C201.165 183.652 171.837 205.539 146.772 235.49C97.1058 291.184 87.2845 333.189 18.6175 373.011" stroke="black" stroke-width="0.716507"/>
<path d="M292.359 171.276C274.413 170.864 247.805 169.061 225.313 176.53C201.28 185.285 171.714 207.949 146.526 238.262C97.466 293.553 86.6365 335.389 19.5294 374.127" stroke="black" stroke-width="0.716507"/>
<path d="M292.303 172.405C274.495 171.937 247.738 170.168 225.384 177.871C201.396 186.937 171.59 210.389 146.277 241.067C97.8306 295.952 85.9812 337.616 20.4521 375.258" stroke="black" stroke-width="0.716507"/>
<path d="M292.246 173.546C274.578 173.022 247.67 171.288 225.455 179.228C201.514 188.609 171.463 212.857 146.025 243.904C98.1992 298.378 85.318 339.869 21.3851 376.402" stroke="black" stroke-width="0.716507"/>
<path d="M292.188 174.7C274.662 174.119 247.602 172.42 225.527 180.6C201.634 190.299 171.336 215.352 145.771 246.774C98.5726 300.832 84.6478 342.147 22.3295 377.558" stroke="black" stroke-width="0.716507"/>
<path d="M292.13 175.868C274.747 175.228 247.532 173.565 225.6 181.988C201.754 192.008 171.207 217.876 145.513 249.675C98.9493 303.313 83.9692 344.45 23.2837 378.727" stroke="black" stroke-width="0.716507"/>
<path d="M292.071 177.048C274.833 176.35 247.461 174.723 225.673 183.391C201.876 193.737 171.076 220.428 145.253 252.609C99.3305 305.822 83.2832 346.78 24.2487 379.91" stroke="black" stroke-width="0.716507"/>
<path d="M292.011 178.242C274.919 177.485 247.39 175.894 225.747 184.81C201.998 195.485 170.944 223.008 144.989 255.576C99.7155 308.359 82.5893 349.136 25.224 381.106" stroke="black" stroke-width="0.716507"/>
<path d="M291.951 179.448C275.008 178.631 247.319 177.077 225.823 186.244C202.123 197.251 170.811 225.616 144.724 258.575C100.106 310.924 81.889 351.516 26.2112 382.314" stroke="black" stroke-width="0.716507"/>
<path d="M291.89 180.668C275.096 179.79 247.246 178.273 225.899 187.693C202.249 199.037 170.676 228.253 144.454 261.606C100.5 313.515 81.1802 353.923 27.2082 383.535" stroke="black" stroke-width="0.716507"/>
<path d="M291.829 181.901C275.186 180.961 247.172 179.482 225.976 189.158C202.376 200.842 170.54 230.918 144.183 264.671C100.898 316.136 80.4641 356.356 28.216 384.771" stroke="black" stroke-width="0.716507"/>
<path d="M291.767 183.147C275.277 182.146 247.098 180.704 226.054 190.64C202.505 202.667 170.403 233.611 143.908 267.767C101.3 318.784 79.7405 358.814 29.2347 386.019" stroke="black" stroke-width="0.716507"/>
<path d="M291.704 184.406C275.368 183.342 247.023 181.939 226.133 192.136C202.635 204.51 170.263 236.332 143.63 270.896C101.707 321.459 79.0091 361.298 30.2637 387.28" stroke="black" stroke-width="0.716507"/>
<path d="M291.64 185.677C275.461 184.55 246.947 183.186 226.212 193.647C202.766 206.372 170.123 239.082 143.35 274.057C102.118 324.162 78.2702 363.808 31.3035 388.554" stroke="black" stroke-width="0.716507"/>
<path d="M291.576 186.962C275.554 185.771 246.871 184.446 226.293 195.174C202.899 208.253 169.981 241.859 143.067 277.251C102.533 326.893 77.524 366.343 32.3542 389.841" stroke="black" stroke-width="0.716507"/>
<path d="M291.511 188.26C275.648 187.005 246.793 185.719 226.374 196.717C203.033 210.153 169.837 244.665 142.78 280.477C102.952 329.652 76.7698 368.905 33.4152 391.141" stroke="black" stroke-width="0.716507"/>
<path d="M291.446 189.571C275.744 188.25 246.716 187.005 226.456 198.275C203.168 212.073 169.693 247.499 142.492 283.735C103.376 332.438 76.0086 371.492 34.4874 392.454" stroke="black" stroke-width="0.716507"/>
<path d="M291.38 190.895C275.84 189.509 246.637 188.304 226.538 199.849C203.305 214.012 169.546 250.361 142.199 287.026C103.803 335.252 75.2391 374.104 35.5696 393.78" stroke="black" stroke-width="0.716507"/>
<path d="M291.313 192.232C275.937 190.779 246.557 189.615 226.622 201.438C203.443 215.969 169.399 253.251 141.904 290.349C104.235 338.094 74.4622 376.743 36.6626 395.119" stroke="black" stroke-width="0.716507"/>
<path d="M291.246 193.582C276.036 192.062 246.476 190.939 226.706 203.043C203.582 217.946 169.249 256.17 141.606 293.705C104.671 340.963 73.6779 379.407 37.7663 396.472" stroke="black" stroke-width="0.716507"/>
<path d="M291.178 194.945C276.135 193.357 246.395 192.276 226.791 204.663C203.723 219.942 169.099 259.116 141.306 297.093C105.111 343.861 72.8862 382.097 38.881 397.837" stroke="black" stroke-width="0.716507"/>
<path d="M291.109 196.321C276.235 194.665 246.313 193.625 226.877 206.298C203.865 221.957 168.947 262.091 141.002 300.513C105.556 346.785 72.0865 384.812 40.0059 399.215" stroke="black" stroke-width="0.716507"/>
<path d="M291.039 197.711C276.336 195.986 246.23 194.989 226.963 207.95C204.008 223.992 168.793 265.095 140.695 303.967C106.004 349.739 71.279 387.554 41.1412 400.608" stroke="black" stroke-width="0.716507"/>
<path d="M290.97 199.113C276.438 197.318 246.147 196.364 227.051 209.617C204.153 226.044 168.638 268.126 140.387 307.452C106.457 352.719 70.465 390.321 42.2883 402.012" stroke="black" stroke-width="0.716507"/>
<path d="M290.899 200.528C276.541 198.663 246.062 197.752 227.14 211.299C204.299 228.117 168.482 271.185 140.075 310.969C106.914 355.727 69.6426 393.114 43.4453 403.43" stroke="black" stroke-width="0.716507"/>
<path d="M290.828 201.957C276.645 200.02 245.977 199.153 227.229 212.997C204.446 230.208 168.324 274.273 139.76 314.52C107.376 358.763 68.8128 395.933 44.6131 404.861" stroke="black" stroke-width="0.716507"/>
<path d="M290.756 203.398C276.75 201.39 245.892 200.567 227.319 214.71C204.595 232.319 168.165 277.389 139.442 318.102C107.841 361.826 67.9756 398.777 45.7917 406.304" stroke="black" stroke-width="0.716507"/>
<path d="M290.683 204.852C276.856 202.771 245.805 201.992 227.41 216.438C204.745 234.448 168.004 280.533 139.121 321.717C108.311 364.917 67.1305 401.646 46.9806 407.761" stroke="black" stroke-width="0.716507"/>
<path d="M290.61 206.32C276.962 204.167 245.717 203.433 227.501 218.183C204.896 236.598 167.842 283.706 138.797 325.365C108.785 368.037 66.2778 404.544 48.1802 409.232" stroke="black" stroke-width="0.716507"/>
</mask>
<g mask="url(#mask4_7336_7932)">
<g filter="url(#filter17_f_7336_7932)">
<path d="M198.646 123.769C161.328 139.982 20.9654 301.163 31.3817 325.139C41.798 349.116 55.4357 410.769 92.7543 394.556C150.467 347.965 351.535 161.033 291.024 133.33C280.607 109.354 235.965 107.557 198.646 123.769Z" fill="#A793B2"/>
</g>
<g filter="url(#filter18_f_7336_7932)">
<path d="M159.634 203.886C147.686 224.076 80.0698 330.61 86.8809 334.64C93.6919 338.671 164.168 241.603 176.116 221.414C195.316 204.152 253.098 176.094 246.287 172.064C239.476 168.033 179.726 184.171 159.634 203.886Z" fill="#E0CBED"/>
</g>
<g filter="url(#filter19_f_7336_7932)">
<path d="M155.347 198.055C143.399 218.245 58.1113 323.004 89.5713 336.232C114.459 357.485 181.498 253.566 193.446 233.376C216.842 218.597 280.306 174.366 269.2 167.793C258.094 161.221 179.373 180.669 155.347 198.055Z" fill="#E0CBED"/>
</g>
</g>
<g style="mix-blend-mode:plus-lighter">
<path d="M291.312 192.232C275.937 190.779 246.556 189.615 226.621 201.438C203.442 215.969 169.398 253.251 141.904 290.349C104.234 338.094 74.4617 376.743 36.6621 395.12" stroke="white" stroke-width="0.486661"/>
</g>
<g style="mix-blend-mode:plus-lighter">
<path d="M292.188 174.7C274.661 174.119 247.601 172.42 225.526 180.6C201.633 190.299 171.335 215.352 145.77 246.774C98.5716 300.832 84.6468 342.147 22.3285 377.558" stroke="white" stroke-width="0.486661"/>
</g>
<g style="mix-blend-mode:plus-lighter">
<path d="M292.359 171.276C274.413 170.865 247.805 169.061 225.313 176.53C201.28 185.285 171.714 207.949 146.526 238.262C97.466 293.553 86.6365 335.389 19.5294 374.127" stroke="white" stroke-width="0.486661"/>
</g>
</g>
</g>
<defs>
<filter id="filter0_f_7336_7932" x="309.192" y="122.231" width="146.591" height="141.143" filterUnits="userSpaceOnUse" color-interpolation-filters="sRGB">
<feFlood flood-opacity="0" result="BackgroundImageFix"/>
<feBlend mode="normal" in="SourceGraphic" in2="BackgroundImageFix" result="shape"/>
<feGaussianBlur stdDeviation="7.16507" result="effect1_foregroundBlur_7336_7932"/>
</filter>
<filter id="filter1_f_7336_7932" x="304.119" y="96.0299" width="121.432" height="90.6062" filterUnits="userSpaceOnUse" color-interpolation-filters="sRGB">
<feFlood flood-opacity="0" result="BackgroundImageFix"/>
<feBlend mode="normal" in="SourceGraphic" in2="BackgroundImageFix" result="shape"/>
<feGaussianBlur stdDeviation="2.55895" result="effect1_foregroundBlur_7336_7932"/>
</filter>
<filter id="filter2_f_7336_7932" x="345.503" y="121.735" width="85.2708" height="72.2663" filterUnits="userSpaceOnUse" color-interpolation-filters="sRGB">
<feFlood flood-opacity="0" result="BackgroundImageFix"/>
<feBlend mode="normal" in="SourceGraphic" in2="BackgroundImageFix" result="shape"/>
<feGaussianBlur stdDeviation="6.65328" result="effect1_foregroundBlur_7336_7932"/>
</filter>
<filter id="filter3_f_7336_7932" x="16.5004" y="98.8456" width="300.082" height="312.72" filterUnits="userSpaceOnUse" color-interpolation-filters="sRGB">
<feFlood flood-opacity="0" result="BackgroundImageFix"/>
<feBlend mode="normal" in="SourceGraphic" in2="BackgroundImageFix" result="shape"/>
<feGaussianBlur stdDeviation="7.16507" result="effect1_foregroundBlur_7336_7932"/>
</filter>
<filter id="filter4_f_7336_7932" x="65.9273" y="150.97" width="201.385" height="204.264" filterUnits="userSpaceOnUse" color-interpolation-filters="sRGB">
<feFlood flood-opacity="0" result="BackgroundImageFix"/>
<feBlend mode="normal" in="SourceGraphic" in2="BackgroundImageFix" result="shape"/>
<feGaussianBlur stdDeviation="10.2358" result="effect1_foregroundBlur_7336_7932"/>
</filter>
<filter id="filter5_f_7336_7932" x="41.7047" y="125.541" width="269.73" height="254.484" filterUnits="userSpaceOnUse" color-interpolation-filters="sRGB">
<feFlood flood-opacity="0" result="BackgroundImageFix"/>
<feBlend mode="normal" in="SourceGraphic" in2="BackgroundImageFix" result="shape"/>
<feGaussianBlur stdDeviation="20.4716" result="effect1_foregroundBlur_7336_7932"/>
</filter>
<filter id="filter6_f_7336_7932" x="321.642" y="37.2576" width="95.4435" height="157.749" filterUnits="userSpaceOnUse" color-interpolation-filters="sRGB">
<feFlood flood-opacity="0" result="BackgroundImageFix"/>
<feBlend mode="normal" in="SourceGraphic" in2="BackgroundImageFix" result="shape"/>
<feGaussianBlur stdDeviation="7.16507" result="effect1_foregroundBlur_7336_7932"/>
</filter>
<filter id="filter7_f_7336_7932" x="282.023" y="22.3506" width="122.844" height="137.72" filterUnits="userSpaceOnUse" color-interpolation-filters="sRGB">
<feFlood flood-opacity="0" result="BackgroundImageFix"/>
<feBlend mode="normal" in="SourceGraphic" in2="BackgroundImageFix" result="shape"/>
<feGaussianBlur stdDeviation="7.16507" result="effect1_foregroundBlur_7336_7932"/>
</filter>
<filter id="filter8_f_7336_7932" x="201.1" y="108.461" width="122.844" height="137.72" filterUnits="userSpaceOnUse" color-interpolation-filters="sRGB">
<feFlood flood-opacity="0" result="BackgroundImageFix"/>
<feBlend mode="normal" in="SourceGraphic" in2="BackgroundImageFix" result="shape"/>
<feGaussianBlur stdDeviation="7.16507" result="effect1_foregroundBlur_7336_7932"/>
</filter>
<filter id="filter9_f_7336_7932" x="-3.00446" y="205.789" width="261.55" height="165.645" filterUnits="userSpaceOnUse" color-interpolation-filters="sRGB">
<feFlood flood-opacity="0" result="BackgroundImageFix"/>
<feBlend mode="normal" in="SourceGraphic" in2="BackgroundImageFix" result="shape"/>
<feGaussianBlur stdDeviation="7.16507" result="effect1_foregroundBlur_7336_7932"/>
</filter>
<filter id="filter10_f_7336_7932" x="181.27" y="126.907" width="193.917" height="192.34" filterUnits="userSpaceOnUse" color-interpolation-filters="sRGB">
<feFlood flood-opacity="0" result="BackgroundImageFix"/>
<feBlend mode="normal" in="SourceGraphic" in2="BackgroundImageFix" result="shape"/>
<feGaussianBlur stdDeviation="7.16507" result="effect1_foregroundBlur_7336_7932"/>
</filter>
<filter id="filter11_f_7336_7932" x="234.761" y="67.8357" width="145.952" height="189.826" filterUnits="userSpaceOnUse" color-interpolation-filters="sRGB">
<feFlood flood-opacity="0" result="BackgroundImageFix"/>
<feBlend mode="normal" in="SourceGraphic" in2="BackgroundImageFix" result="shape"/>
<feGaussianBlur stdDeviation="22.5188" result="effect1_foregroundBlur_7336_7932"/>
</filter>
<filter id="filter12_f_7336_7932" x="209.6" y="145.238" width="132.786" height="143.227" filterUnits="userSpaceOnUse" color-interpolation-filters="sRGB">
<feFlood flood-opacity="0" result="BackgroundImageFix"/>
<feBlend mode="normal" in="SourceGraphic" in2="BackgroundImageFix" result="shape"/>
<feGaussianBlur stdDeviation="17.4009" result="effect1_foregroundBlur_7336_7932"/>
</filter>
<filter id="filter13_f_7336_7932" x="133.075" y="172.212" width="192.759" height="160.121" filterUnits="userSpaceOnUse" color-interpolation-filters="sRGB">
<feFlood flood-opacity="0" result="BackgroundImageFix"/>
<feBlend mode="normal" in="SourceGraphic" in2="BackgroundImageFix" result="shape"/>
<feGaussianBlur stdDeviation="27.6367" result="effect1_foregroundBlur_7336_7932"/>
</filter>
<filter id="filter14_f_7336_7932" x="153.783" y="210.144" width="122.925" height="141.314" filterUnits="userSpaceOnUse" color-interpolation-filters="sRGB">
<feFlood flood-opacity="0" result="BackgroundImageFix"/>
<feBlend mode="normal" in="SourceGraphic" in2="BackgroundImageFix" result="shape"/>
<feGaussianBlur stdDeviation="16.3773" result="effect1_foregroundBlur_7336_7932"/>
</filter>
<filter id="filter15_f_7336_7932" x="2.26731" y="248.478" width="114.681" height="60.0079" filterUnits="userSpaceOnUse" color-interpolation-filters="sRGB">
<feFlood flood-opacity="0" result="BackgroundImageFix"/>
<feBlend mode="normal" in="SourceGraphic" in2="BackgroundImageFix" result="shape"/>
<feGaussianBlur stdDeviation="6.14149" result="effect1_foregroundBlur_7336_7932"/>
</filter>
<filter id="filter16_f_7336_7932" x="0.937966" y="77.6472" width="439.288" height="242.909" filterUnits="userSpaceOnUse" color-interpolation-filters="sRGB">
<feFlood flood-opacity="0" result="BackgroundImageFix"/>
<feBlend mode="normal" in="SourceGraphic" in2="BackgroundImageFix" result="shape"/>
<feGaussianBlur stdDeviation="6.08326" result="effect1_foregroundBlur_7336_7932"/>
</filter>
<filter id="filter17_f_7336_7932" x="16.5009" y="98.8464" width="300.082" height="312.72" filterUnits="userSpaceOnUse" color-interpolation-filters="sRGB">
<feFlood flood-opacity="0" result="BackgroundImageFix"/>
<feBlend mode="normal" in="SourceGraphic" in2="BackgroundImageFix" result="shape"/>
<feGaussianBlur stdDeviation="7.16507" result="effect1_foregroundBlur_7336_7932"/>
</filter>
<filter id="filter18_f_7336_7932" x="65.9283" y="150.97" width="201.385" height="204.264" filterUnits="userSpaceOnUse" color-interpolation-filters="sRGB">
<feFlood flood-opacity="0" result="BackgroundImageFix"/>
<feBlend mode="normal" in="SourceGraphic" in2="BackgroundImageFix" result="shape"/>
<feGaussianBlur stdDeviation="10.2358" result="effect1_foregroundBlur_7336_7932"/>
</filter>
<filter id="filter19_f_7336_7932" x="41.7057" y="125.542" width="269.73" height="254.484" filterUnits="userSpaceOnUse" color-interpolation-filters="sRGB">
<feFlood flood-opacity="0" result="BackgroundImageFix"/>
<feBlend mode="normal" in="SourceGraphic" in2="BackgroundImageFix" result="shape"/>
<feGaussianBlur stdDeviation="20.4716" result="effect1_foregroundBlur_7336_7932"/>
</filter>
<linearGradient id="paint0_linear_7336_7932" x1="23.1164" y1="91.2489" x2="352.829" y2="302.947" gradientUnits="userSpaceOnUse">
<stop offset="0.0374672" stop-color="#999999" stop-opacity="0"/>
<stop offset="0.35" stop-color="#999999"/>
<stop offset="0.77097" stop-color="#999999"/>
<stop offset="0.85" stop-color="#999999" stop-opacity="0.349602"/>
<stop offset="0.946293" stop-color="#999999" stop-opacity="0"/>
</linearGradient>
<clipPath id="clip0_7336_7932">
<rect width="198.575" height="214.952" fill="white" transform="matrix(-0.988564 -0.150804 -0.150804 0.988564 224.6 222.597)"/>
</clipPath>
</defs>
</svg>
