<svg width="80" height="81" viewBox="0 0 80 81" fill="none" xmlns="http://www.w3.org/2000/svg">
<path d="M9.28287 47.4004C13.1048 48.0887 17.3791 49.4681 19.9258 50.8476C27.0587 54.7113 34.6164 65.3883 37.9143 66.8873C41.2121 68.3864 46.9085 62.8399 52.3051 59.8419C55.5978 58.0125 63.746 55.067 69.4623 52.6058M9.28287 47.4004C7.70564 47.1164 5.06753 46.5205 3.43673 46.2006C0.348141 45.5946 0.258818 43.442 4.93564 41.404C10.7817 38.8565 31.6183 30.4618 36.5651 31.5112C41.512 32.5605 58.6014 43.3511 64.2978 45.1513C69.9941 46.9514 74.9406 46.9501 75.5402 48.8989C75.7739 49.6586 73.1145 51.0333 69.4623 52.6058M9.28287 47.4004C13.2304 49.4489 22.3846 55.4347 27.4214 62.9898C33.7173 72.4338 38.0645 75.1321 41.8121 73.3332C45.5597 71.5344 57.8199 65.1439 62.9486 62.9898C70.4438 59.8418 79.5879 57.7432 78.6885 56.2442C77.7891 54.7451 71.9286 54.364 69.4623 52.6058" stroke="url(#paint0_linear_256_36)" stroke-width="1.5" stroke-linecap="round" stroke-linejoin="round"/>
<path d="M63.1516 27.5326C63.1516 35.6206 59.6646 40.9692 56.7393 44.032C53.4189 47.5085 49.8689 49.0521 49.0799 49.0521C48.2909 49.0521 44.7407 47.5085 41.4202 44.032C38.4949 40.9691 35.0078 35.6206 35.0078 27.5326V21.001C35.0078 20.257 35.4955 19.603 36.2028 19.3721C40.3832 18.0073 44.3296 16.2037 48.1851 13.8962C48.7359 13.5666 49.4241 13.5663 49.9756 13.8949C53.7599 16.1494 57.8487 18.0171 61.9588 19.3701C62.6649 19.6025 63.1516 20.256 63.1516 20.9994V27.5326Z" fill="#FEFAF8" stroke="url(#paint1_linear_256_36)" stroke-width="1.5" stroke-linecap="round" stroke-linejoin="round"/>
<path d="M60.9672 28.0972C60.9672 34.9298 58.0214 39.4483 55.55 42.0358C52.745 44.9727 49.746 46.2767 49.0794 46.2767C48.4129 46.2767 45.4137 44.9727 42.6086 42.0358C40.1373 39.4482 37.1914 34.9298 37.1914 28.0972V22.7737C37.1914 22.0297 37.6792 21.3761 38.3856 21.1424C41.7984 20.0136 45.0278 18.5362 48.1837 16.6605C48.7356 16.3326 49.4235 16.3323 49.976 16.6591C53.077 18.4929 56.4156 20.0194 59.7751 21.1403C60.4802 21.3756 60.9672 22.0287 60.9672 22.7721V28.0972Z" fill="#FEFAF8" stroke="url(#paint2_linear_256_36)" stroke-width="1.5" stroke-linecap="round" stroke-linejoin="round"/>
<path d="M51.9999 25.2893C52.4833 25.2722 53.5903 24.9604 54.1504 23.8503C54.7106 22.7401 54.9173 22.1542 54.9506 22C54.984 22.514 55.1807 23.7166 55.7008 24.4156C56.2209 25.1146 57.3846 25.4607 57.9014 25.5463M57.4526 25.4433C56.6691 25.7859 54.9506 27.0779 54.9506 28.2703C54.8006 27.4822 53.7963 25.5679 52.516 25.1979" stroke="url(#paint3_linear_256_36)" stroke-width="1.16071" stroke-linecap="round" stroke-linejoin="round"/>
<defs>
<linearGradient id="paint0_linear_256_36" x1="57.0288" y1="107.009" x2="23.1396" y2="103.527" gradientUnits="userSpaceOnUse">
<stop stop-color="#9E866C"/>
<stop offset="0.07" stop-color="#B8A284"/>
<stop offset="0.21" stop-color="#AD9378"/>
<stop offset="0.277551" stop-color="#DDCEBA"/>
<stop offset="0.332061" stop-color="#AB8F76"/>
<stop offset="0.66" stop-color="#735B42"/>
<stop offset="0.74" stop-color="#A58B6E"/>
<stop offset="0.91" stop-color="#B79A7A"/>
<stop offset="1" stop-color="#8F7E61"/>
</linearGradient>
<linearGradient id="paint1_linear_256_36" x1="55.2636" y1="76.9439" x2="42.8515" y2="76.3935" gradientUnits="userSpaceOnUse">
<stop stop-color="#9E866C"/>
<stop offset="0.07" stop-color="#B8A284"/>
<stop offset="0.21" stop-color="#AD9378"/>
<stop offset="0.277551" stop-color="#DDCEBA"/>
<stop offset="0.332061" stop-color="#AB8F76"/>
<stop offset="0.66" stop-color="#735B42"/>
<stop offset="0.74" stop-color="#A58B6E"/>
<stop offset="0.91" stop-color="#B79A7A"/>
<stop offset="1" stop-color="#8F7E61"/>
</linearGradient>
<linearGradient id="paint2_linear_256_36" x1="54.3034" y1="69.8395" x2="43.8177" y2="69.3746" gradientUnits="userSpaceOnUse">
<stop stop-color="#9E866C"/>
<stop offset="0.07" stop-color="#B8A284"/>
<stop offset="0.21" stop-color="#AD9378"/>
<stop offset="0.277551" stop-color="#DDCEBA"/>
<stop offset="0.332061" stop-color="#AB8F76"/>
<stop offset="0.66" stop-color="#735B42"/>
<stop offset="0.74" stop-color="#A58B6E"/>
<stop offset="0.91" stop-color="#B79A7A"/>
<stop offset="1" stop-color="#8F7E61"/>
</linearGradient>
<linearGradient id="paint3_linear_256_36" x1="53.6539" y1="33.169" x2="56.2545" y2="33.0313" gradientUnits="userSpaceOnUse">
<stop stop-color="#9E866C"/>
<stop offset="0.07" stop-color="#B8A284"/>
<stop offset="0.21" stop-color="#AD9378"/>
<stop offset="0.277551" stop-color="#DDCEBA"/>
<stop offset="0.332061" stop-color="#AB8F76"/>
<stop offset="0.66" stop-color="#735B42"/>
<stop offset="0.74" stop-color="#A58B6E"/>
<stop offset="0.91" stop-color="#B79A7A"/>
<stop offset="1" stop-color="#8F7E61"/>
</linearGradient>
</defs>
</svg>
