<svg width="157" height="183" viewBox="0 0 157 183" fill="none" xmlns="http://www.w3.org/2000/svg">
<mask id="mask0_7606_2452" style="mask-type:alpha" maskUnits="userSpaceOnUse" x="0" y="0" width="191" height="183">
<rect width="191" height="182.716" fill="url(#paint0_linear_7606_2452)"/>
</mask>
<g mask="url(#mask0_7606_2452)">
<path d="M60.2916 49.476C37.4636 47.0827 21.1711 32.0635 15.8783 24.8531L-2.39401e-06 52.2374C6.52008 57.837 24.2547 69.8647 43.0325 73.1784L60.2916 49.476Z" fill="#FBECFE" stroke="#C4B3D0" stroke-width="0.322169"/>
<mask id="mask1_7606_2452" style="mask-type:alpha" maskUnits="userSpaceOnUse" x="-1" y="25" width="62" height="48">
<path d="M0.0693359 51.3503C6.54965 57.0021 24.2376 69.1267 43.1466 72.4106" stroke="black" stroke-width="0.322169"/>
<path d="M0.591797 50.4739C7.03284 56.1773 24.6746 68.3975 43.7132 71.652" stroke="black" stroke-width="0.322169"/>
<path d="M1.1084 49.6086C7.51066 55.3629 25.1068 67.6777 44.2735 70.903" stroke="black" stroke-width="0.322169"/>
<path d="M1.61816 48.7543C7.98214 54.5588 25.5333 66.9669 44.8263 70.1635" stroke="black" stroke-width="0.322169"/>
<path d="M2.12109 47.9112C8.44727 53.7653 25.9541 66.2655 45.3718 69.4339" stroke="black" stroke-width="0.322169"/>
<path d="M12.2344 30.9603C17.8009 37.8115 34.415 52.1635 56.3397 54.762" stroke="black" stroke-width="0.322169"/>
<path d="M2.61816 47.0786C8.90704 52.9817 26.37 65.5729 45.9108 68.7132" stroke="black" stroke-width="0.322169"/>
<path d="M3.10742 46.2569C9.35948 52.2083 26.7792 64.8892 46.4415 68.0019" stroke="black" stroke-width="0.322169"/>
<path d="M3.5918 45.4468C9.80753 51.4459 27.1845 64.2154 46.9667 67.3008" stroke="black" stroke-width="0.322169"/>
<path d="M4.06836 44.647C10.2483 50.693 27.5832 63.5499 47.4836 66.6085" stroke="black" stroke-width="0.322169"/>
<path d="M4.53906 43.8589C10.6836 49.9514 27.977 62.8944 47.994 65.9265" stroke="black" stroke-width="0.322169"/>
<path d="M5.00293 43.0813C11.1126 49.2195 28.3651 62.2474 48.4971 65.2534" stroke="black" stroke-width="0.322169"/>
<path d="M5.45996 42.3148C11.5353 48.4981 28.7474 61.6097 48.9928 64.5899" stroke="black" stroke-width="0.322169"/>
<path d="M5.91113 41.5589C11.9526 47.7866 29.1249 60.9808 49.4821 63.9356" stroke="black" stroke-width="0.322169"/>
<path d="M6.35547 40.8143C12.3636 47.0858 29.4967 60.3613 49.964 63.2911" stroke="black" stroke-width="0.322169"/>
<path d="M6.79297 40.0804C12.7682 46.3951 29.8626 59.7508 50.4384 62.6559" stroke="black" stroke-width="0.322169"/>
<path d="M7.22461 39.358C13.1675 45.7152 30.2238 59.1498 50.9065 62.0306" stroke="black" stroke-width="0.322169"/>
<path d="M7.64844 38.646C13.5594 45.0451 30.5783 58.5575 51.3662 61.4144" stroke="black" stroke-width="0.322169"/>
<path d="M8.06738 37.9454C13.9469 44.3857 30.9289 57.9746 51.8205 60.808" stroke="black" stroke-width="0.322169"/>
<path d="M8.47852 37.2554C14.3271 43.7363 31.2728 57.4006 52.2664 60.2108" stroke="black" stroke-width="0.322169"/>
<path d="M8.88379 36.5767C14.702 43.0975 31.6119 56.836 52.7059 59.6233" stroke="black" stroke-width="0.322169"/>
<path d="M9.28223 35.9088C15.0705 42.4689 31.9452 56.2804 53.138 59.0452" stroke="black" stroke-width="0.322169"/>
<path d="M9.67383 35.2518C15.4326 41.8505 32.2728 55.7337 53.5628 58.4765" stroke="black" stroke-width="0.322169"/>
<path d="M10.0596 34.6058C15.7894 41.2425 32.5956 55.1963 53.9811 57.9174" stroke="black" stroke-width="0.322169"/>
<path d="M10.4385 33.9707C16.1399 40.6448 32.9126 54.668 54.392 57.3677" stroke="black" stroke-width="0.322169"/>
<path d="M10.8105 33.3468C16.484 40.0576 33.2238 54.1489 54.7955 56.8277" stroke="black" stroke-width="0.322169"/>
<path d="M11.1768 32.7335C16.8227 39.4803 33.5302 53.6386 55.1927 56.2968" stroke="black" stroke-width="0.322169"/>
<path d="M11.5361 32.1314C17.1551 38.9137 33.8309 53.1378 55.5824 55.7757" stroke="black" stroke-width="0.322169"/>
<path d="M11.8887 31.5403C17.4812 38.3574 34.1258 52.646 55.9648 55.2641" stroke="black" stroke-width="0.322169"/>
<path d="M12.2344 30.9603C17.8009 37.8115 34.415 52.1635 56.3397 54.762" stroke="black" stroke-width="0.322169"/>
<path d="M12.5742 30.3909C18.1152 37.2756 34.6993 51.6898 56.7082 54.2692" stroke="black" stroke-width="0.322169"/>
<path d="M12.9072 29.8325C18.4232 36.75 34.9779 51.2253 57.0694 53.7859" stroke="black" stroke-width="0.322169"/>
<path d="M13.2344 29.2852C18.7258 36.2349 35.2517 50.7699 57.4242 53.3122" stroke="black" stroke-width="0.322169"/>
<path d="M13.5537 28.749C19.0211 35.7303 35.5188 50.3239 57.7705 52.8481" stroke="black" stroke-width="0.322169"/>
<path d="M13.8672 28.2237C19.311 35.2359 35.781 49.8869 58.1105 52.3934" stroke="black" stroke-width="0.322169"/>
<path d="M14.1748 27.7093C19.5956 34.7517 36.0385 49.4589 58.444 51.9482" stroke="black" stroke-width="0.322169"/>
<path d="M14.4746 27.2059C19.8728 34.2779 36.2893 49.0401 58.7692 51.5124" stroke="black" stroke-width="0.322169"/>
<path d="M14.7686 26.7132C20.1447 33.8142 36.5352 48.6302 59.088 51.086" stroke="black" stroke-width="0.322169"/>
<path d="M15.0557 26.232C20.4102 33.3613 36.7754 48.2299 59.3994 50.6695" stroke="black" stroke-width="0.322169"/>
<path d="M15.3369 25.7612C20.6704 32.9182 37.0107 47.8382 59.7044 50.262" stroke="black" stroke-width="0.322169"/>
<path d="M15.6104 25.3018C20.9232 32.4858 37.2394 47.456 60.001 49.8643" stroke="black" stroke-width="0.322169"/>
</mask>
<g mask="url(#mask1_7606_2452)">
<g filter="url(#filter0_f_7606_2452)">
<path d="M15.1583 35.367C21.8928 37.0748 48.6472 65.616 47.1727 71.4306C45.6982 77.2452 44.1978 91.5377 37.4633 89.8299C26.7425 82.4391 -10.958 51.2569 -0.805668 42.1084C0.66885 36.2938 8.42378 33.6592 15.1583 35.367Z" fill="#D1BBE0"/>
</g>
<g filter="url(#filter1_f_7606_2452)">
<path d="M25.5938 20.8723C31.9048 22.4727 58.2198 44.3175 57.1915 48.3722C56.1633 52.4269 55.5956 62.5149 49.2846 60.9145C38.9711 55.041 2.40608 30.691 11.2502 24.7589C12.2785 20.7042 19.2828 19.2719 25.5938 20.8723Z" fill="#D1BBE0"/>
</g>
<g filter="url(#filter2_f_7606_2452)">
<path d="M30.377 48.0951C32.8101 54.1345 34.1637 57.3573 32.7693 57.919C31.3749 58.4808 15.6422 53.373 13.2091 47.3336C9.29199 41.5409 9.28387 34.5434 10.6783 33.9816C12.0727 33.4199 26.2787 41.608 30.377 48.0951Z" fill="#F5E6FE"/>
</g>
</g>
<g style="mix-blend-mode:plus-lighter">
<path d="M12.2344 30.9602C17.8009 37.8114 34.415 52.1635 56.3397 54.762" stroke="white" stroke-width="0.218821"/>
</g>
<g style="mix-blend-mode:plus-lighter">
<path d="M1.1084 49.6088C7.51066 55.363 25.1068 67.6778 44.2735 70.9032" stroke="white" stroke-width="0.218821"/>
</g>
<g style="mix-blend-mode:plus-lighter">
<path d="M5.00293 43.0814C11.1126 49.2196 28.3651 62.2475 48.4971 65.2535" stroke="white" stroke-width="0.218821"/>
</g>
<path d="M124.955 76.8604C107.696 52.2375 82.1526 53.158 64.2032 49.9363L61.6719 75.7099C67.8084 75.6332 81.8304 77.4588 88.8261 85.3749C97.5707 95.2701 110.918 119.203 121.043 139.913C131.168 160.624 148.197 179.724 155.101 182.256L179.033 159.704C141.294 127.947 147.131 108.498 124.955 76.8604Z" fill="#F7E7FF" stroke="#AE99BB" stroke-width="0.322169"/>
<mask id="mask2_7606_2452" style="mask-type:alpha" maskUnits="userSpaceOnUse" x="61" y="49" width="119" height="133">
<path d="M64.2041 49.9364C82.1535 53.1581 107.697 52.2376 124.956 76.8605C147.132 108.498 141.294 127.947 179.034 159.704" stroke="black" stroke-width="0.322169"/>
<path d="M61.6729 74.7893C67.8094 74.7126 81.8314 76.5382 88.8271 84.4543C97.5716 94.3495 110.919 118.282 121.044 138.993C131.169 159.704 148.198 178.804 155.102 181.335" stroke="black" stroke-width="0.322169"/>
<path d="M64.1641 50.3307C73.0937 51.9148 84.0169 52.51 94.7436 55.8345C105.498 59.1904 116.241 65.4017 124.894 77.8465C146.878 109.31 141.404 128.754 178.655 160.047" stroke="black" stroke-width="0.322169"/>
<path d="M64.123 50.7311C73.007 52.288 83.9809 52.9033 94.6465 56.3029C105.368 59.7659 116.153 66.2673 124.831 78.8473C146.621 110.135 141.515 129.573 178.269 160.396" stroke="black" stroke-width="0.322169"/>
<path d="M64.082 51.1371C72.9196 52.6664 83.9449 53.3021 94.5487 56.778C105.237 60.3495 116.065 67.1451 124.767 79.8624C146.361 110.972 141.628 130.404 177.878 160.749" stroke="black" stroke-width="0.322169"/>
<path d="M64.04 51.549C72.8306 53.0503 83.9081 53.7068 94.449 57.26C105.103 60.9416 115.976 68.0357 124.702 80.8922C146.096 111.821 141.743 131.247 177.481 161.107" stroke="black" stroke-width="0.322169"/>
<path d="M63.9971 51.9667C72.7399 53.4397 83.8703 54.1172 94.3475 57.7488C104.968 61.5422 115.884 68.939 124.636 81.9367C145.827 112.681 141.858 132.102 177.079 161.471" stroke="black" stroke-width="0.322169"/>
<path d="M63.9541 52.3903C72.6485 53.8345 83.8327 54.5332 94.2452 58.2444C104.83 62.151 115.792 69.8548 124.57 82.9956C145.555 113.554 141.976 132.969 176.671 161.84" stroke="black" stroke-width="0.322169"/>
<path d="M63.9102 52.8201C72.5555 54.2351 83.7941 54.9555 94.1411 58.7473C104.691 62.7687 115.699 70.7836 124.502 84.0697C145.279 114.439 142.095 133.848 176.257 162.214" stroke="black" stroke-width="0.322169"/>
<path d="M63.8662 53.2548C72.4619 54.6402 83.7556 55.3825 94.0362 59.256C104.55 63.3939 115.604 71.7242 124.434 85.1573C145 115.336 142.217 134.738 175.838 162.592" stroke="black" stroke-width="0.322169"/>
<path d="M63.8213 53.696C72.3666 55.0515 83.7162 55.816 93.9295 59.7723C104.407 64.0281 115.508 72.6781 124.364 86.2603C144.717 116.245 142.339 135.641 175.414 162.976" stroke="black" stroke-width="0.322169"/>
<path d="M63.7754 54.143C72.2696 55.4682 83.6759 56.2551 93.821 60.2954C104.262 64.6707 115.411 73.6445 124.293 87.3778C144.429 117.166 142.463 136.556 174.983 163.365" stroke="black" stroke-width="0.322169"/>
<path d="M63.7295 54.5959C72.172 55.8903 83.6356 56.7001 93.7117 60.8253C104.116 65.3217 115.312 74.6236 124.222 88.51C144.139 118.099 142.589 137.482 174.547 163.759" stroke="black" stroke-width="0.322169"/>
<path d="M63.6826 55.0546C72.0728 56.3178 83.5945 57.1507 93.6006 61.3621C103.967 65.981 115.212 75.6153 124.15 89.6567C143.844 119.044 142.716 138.421 174.105 164.159" stroke="black" stroke-width="0.322169"/>
<path d="M63.6357 55.5186C71.9729 56.7504 83.5534 57.6065 93.4886 61.9051C103.817 66.6483 115.112 76.6192 124.077 90.8175C143.546 120 142.846 139.371 173.658 164.562" stroke="black" stroke-width="0.322169"/>
<path d="M63.5879 55.9894C71.8713 57.1892 83.5114 58.069 93.3749 62.4559C103.664 67.3249 115.01 77.6365 124.003 91.9939C143.244 120.97 142.976 140.334 173.205 164.972" stroke="black" stroke-width="0.322169"/>
<path d="M63.5391 56.4655C71.7681 57.6329 83.4686 58.5367 93.2594 63.013C103.51 68.0093 114.906 78.666 123.928 93.1842C142.938 121.951 143.108 141.308 172.746 165.386" stroke="black" stroke-width="0.322169"/>
<path d="M63.4893 56.9476C71.6632 58.0824 83.4248 59.0104 93.1421 63.5772C103.353 68.7024 114.8 79.7083 123.852 94.3895C142.627 122.944 143.242 142.295 172.281 165.806" stroke="black" stroke-width="0.322169"/>
<path d="M63.4404 57.4354C71.5587 58.537 83.3821 59.4896 93.0249 64.148C103.196 69.4035 114.695 80.763 123.776 95.6091C142.315 123.949 143.378 143.293 171.812 166.231" stroke="black" stroke-width="0.322169"/>
<path d="M63.3896 57.9291C71.4515 58.9972 83.3375 59.9747 92.905 64.7257C103.035 70.1133 114.587 81.8305 123.697 96.8434C141.997 124.966 143.515 144.304 171.336 166.66" stroke="black" stroke-width="0.322169"/>
<path d="M63.3389 58.4283C71.3437 59.4625 83.2929 60.4651 92.7842 65.3099C102.873 70.8311 114.478 82.9102 123.619 98.092C141.677 125.995 143.653 145.325 170.856 167.095" stroke="black" stroke-width="0.322169"/>
<path d="M63.2871 58.9341C71.2342 59.9339 83.2475 60.9619 92.6617 65.9017C102.709 71.558 114.368 84.0033 123.539 99.3559C141.352 127.037 143.794 146.36 170.369 167.535" stroke="black" stroke-width="0.322169"/>
<path d="M63.2354 59.4453C71.1241 60.4104 83.2021 61.4641 92.5383 66.4998C102.544 72.2928 114.257 85.1086 123.459 100.634C141.024 128.09 143.936 147.406 169.877 167.98" stroke="black" stroke-width="0.322169"/>
<path d="M63.1826 59.9623C71.0123 60.8923 83.1558 61.972 92.4132 67.1048C102.376 73.0361 114.144 86.2265 123.377 101.927C140.691 129.156 144.079 148.464 169.378 168.43" stroke="black" stroke-width="0.322169"/>
<path d="M63.1299 60.485C70.8998 61.3795 83.1096 62.4856 92.2872 67.7166C102.207 73.7876 114.031 87.3569 123.296 103.234C140.356 130.233 144.225 149.534 168.875 168.885" stroke="black" stroke-width="0.322169"/>
<path d="M63.0752 61.0138C70.7847 61.8724 83.0616 63.005 92.1585 68.3353C102.035 74.5477 113.915 88.5002 123.212 104.556C140.016 131.322 144.371 150.616 168.365 169.345" stroke="black" stroke-width="0.322169"/>
<path d="M63.0215 61.5485C70.67 62.3708 83.0145 63.5304 92.0299 68.961C101.862 75.3164 113.8 89.6562 123.128 105.892C139.673 132.424 144.521 151.71 167.851 169.811" stroke="black" stroke-width="0.322169"/>
<path d="M62.9658 62.0888C70.5526 62.8744 82.9656 64.0611 91.8985 69.5932C101.687 76.0931 113.681 90.8245 123.042 107.243C139.325 133.537 144.67 152.816 167.33 170.281" stroke="black" stroke-width="0.322169"/>
<path d="M62.9102 62.6349C70.4345 63.3834 82.9168 64.5976 91.7664 70.2322C101.51 76.8782 113.563 92.0054 122.956 108.609C138.974 134.663 144.822 153.934 166.804 170.756" stroke="black" stroke-width="0.322169"/>
<path d="M62.8545 63.1872C70.3158 63.8982 82.868 65.1402 91.6334 70.8785C101.331 77.6721 113.443 93.1993 122.87 109.99C138.62 135.801 144.976 155.064 166.273 171.237" stroke="black" stroke-width="0.322169"/>
<path d="M62.7969 63.7453C70.1945 64.4184 82.8174 65.6885 91.4976 71.5315C101.15 78.4743 113.321 94.4058 122.781 111.385C138.261 136.95 145.13 156.206 165.735 171.723" stroke="black" stroke-width="0.322169"/>
<path d="M62.7402 64.309C70.0735 64.9439 82.7678 66.2423 91.362 72.1912C100.968 79.2847 113.199 95.6248 122.693 112.794C137.9 138.112 145.287 157.359 165.193 172.213" stroke="black" stroke-width="0.322169"/>
<path d="M62.6816 64.8786C69.9498 65.4748 82.7163 66.8018 91.2236 72.8577C100.783 80.1035 113.074 96.8563 122.603 114.218C137.533 139.286 145.445 158.525 164.644 172.709" stroke="black" stroke-width="0.322169"/>
<path d="M62.623 65.454C69.8255 66.0111 82.6649 67.3672 91.0844 73.5311C100.596 80.9307 112.949 98.1006 122.513 115.657C137.164 140.471 145.605 159.703 164.089 173.21" stroke="black" stroke-width="0.322169"/>
<path d="M62.5645 66.0353C69.7005 66.5529 82.6136 67.9382 90.9444 74.2113C100.408 81.7664 112.823 99.3574 122.422 117.11C136.791 141.669 145.767 160.892 163.53 173.716" stroke="black" stroke-width="0.322169"/>
<path d="M62.5039 66.6225C69.5729 67.1002 82.5604 68.5151 90.8016 74.8983C100.217 82.6104 112.695 100.627 122.329 118.578C136.413 142.879 145.929 162.094 162.964 174.227" stroke="black" stroke-width="0.322169"/>
<path d="M62.4434 67.2155C69.4446 67.6529 82.5073 69.0976 90.658 75.5922C100.025 83.4629 112.566 101.909 122.235 120.061C136.032 144.101 146.094 163.307 162.393 174.743" stroke="black" stroke-width="0.322169"/>
<path d="M62.3828 67.8143C69.3157 68.2111 82.4542 69.6859 90.5136 76.293C99.8312 84.3237 112.436 103.204 122.141 121.558C135.648 145.335 146.261 164.533 161.817 175.264" stroke="black" stroke-width="0.322169"/>
<path d="M62.3213 68.4189C69.1851 68.7746 82.4002 70.2798 90.3674 77.0004C99.6353 85.1929 112.304 104.511 122.046 123.07C135.259 146.58 146.429 165.77 161.234 175.79" stroke="black" stroke-width="0.322169"/>
<path d="M62.2588 69.0295C69.0529 69.3438 82.3454 70.8797 90.2194 77.7149C99.4371 86.0706 112.171 105.831 121.95 124.596C134.867 147.838 146.598 167.019 160.646 176.322" stroke="black" stroke-width="0.322169"/>
<path d="M62.1963 69.6456C68.92 69.918 82.2906 71.485 90.0706 78.4359C99.2377 86.9564 112.037 107.164 121.853 126.137C134.471 149.108 146.77 168.28 160.053 176.858" stroke="black" stroke-width="0.322169"/>
<path d="M62.1328 70.2683C68.7855 70.4985 82.2349 72.0967 89.9199 79.1645C99.0359 87.8513 111.902 108.509 121.755 127.693C134.072 150.391 146.942 169.554 159.453 177.4" stroke="black" stroke-width="0.322169"/>
<path d="M62.0684 70.8961C68.6493 71.0836 82.1783 72.7135 89.7675 79.8991C98.8319 88.7539 111.765 109.867 121.656 129.263C133.668 151.684 147.116 170.839 158.848 177.946" stroke="black" stroke-width="0.322169"/>
<path d="M62.0039 71.53C68.5124 71.6744 82.1217 73.3362 89.6143 80.6408C98.6266 89.6651 111.627 111.238 121.556 130.848C133.261 152.991 147.293 172.136 158.238 178.498" stroke="black" stroke-width="0.322169"/>
<path d="M61.9395 72.1698C68.3749 72.2708 82.0653 73.9648 89.4602 81.3895C98.4199 90.5849 111.488 112.621 121.456 132.447C132.85 154.309 147.471 173.446 157.622 179.055" stroke="black" stroke-width="0.322169"/>
<path d="M61.873 72.8154C68.2348 72.8726 82.007 74.599 89.3034 82.1449C98.21 91.5129 111.347 114.017 121.354 134.061C132.435 155.639 147.65 174.767 157 179.617" stroke="black" stroke-width="0.322169"/>
<path d="M61.8066 73.4665C68.094 73.4794 81.9487 75.2386 89.1458 82.9069C97.9989 92.449 111.205 115.425 121.251 135.689C132.017 156.981 147.831 176.099 156.373 180.183" stroke="black" stroke-width="0.322169"/>
<path d="M61.7402 74.1244C67.9525 74.0927 81.8905 75.885 88.9873 83.6766C97.7864 93.3945 111.063 116.847 121.148 137.333C131.595 158.336 148.014 177.445 155.74 180.756" stroke="black" stroke-width="0.322169"/>
</mask>
<g mask="url(#mask2_7606_2452)">
<g filter="url(#filter3_f_7606_2452)">
<path d="M108.215 43.6662C123.704 53.4031 175.165 134.565 168.909 144.516C162.653 154.467 152.411 180.947 136.922 171.21C114.428 146.587 37.7299 49.8626 66.5054 41.652C72.7612 31.7009 92.7265 33.9293 108.215 43.6662Z" fill="#B8A1C5"/>
</g>
<g filter="url(#filter4_f_7606_2452)">
<path d="M120.124 81.9229C124.065 91.7074 146.897 143.646 143.596 144.976C140.295 146.306 115.551 98.3808 111.609 88.5964C104.245 79.6216 80.4638 63.2322 83.7646 61.9024C87.0654 60.5727 112.53 71.7976 120.124 81.9229Z" fill="#E0CBED"/>
</g>
<g filter="url(#filter5_f_7606_2452)">
<path d="M122.424 79.6217C126.366 89.4062 157.172 141.754 142.292 145.501C129.788 153.26 107.036 102.523 103.094 92.7385C93.6968 84.583 68.4867 60.6188 73.8688 58.4506C79.2509 56.2823 112.923 70.2646 122.424 79.6217Z" fill="#E0CBED"/>
</g>
</g>
<g style="mix-blend-mode:plus-lighter">
<path d="M62.3818 67.8143C69.3147 68.2111 82.4532 69.6859 90.5126 76.293C99.8303 84.3237 112.435 103.204 122.14 121.558C135.647 145.335 146.26 164.533 161.816 175.264" stroke="white" stroke-width="0.218821"/>
</g>
<g style="mix-blend-mode:plus-lighter">
<path d="M63.1816 59.9623C71.0113 60.8923 83.1549 61.972 92.4122 67.1048C102.375 73.0361 114.143 86.2265 123.376 101.927C140.69 129.156 144.078 148.464 169.378 168.43" stroke="white" stroke-width="0.218821"/>
</g>
<g style="mix-blend-mode:plus-lighter">
<path d="M63.3389 58.4283C71.3437 59.4625 83.2929 60.4651 92.7842 65.3099C102.873 70.8311 114.478 82.9102 123.619 98.092C141.677 125.995 143.653 145.325 170.856 167.095" stroke="white" stroke-width="0.218821"/>
</g>
<g style="mix-blend-mode:plus-lighter">
<path d="M64.0391 53.7372C72.8296 55.2385 83.9071 55.895 94.448 59.4482C105.102 63.1298 126.916 84.7934 126.916 105.581" stroke="white" stroke-width="0.218821"/>
</g>
<path d="M44.1834 11.2759C38.2215 5.81086 17.9497 1.1506 2.76172 0L11.2762 20.941C18.4099 26.9241 26.0039 35.2084 30.3762 42.3422C39.4028 57.0699 39.3509 69.0361 51.087 88.5964C71.8958 123.278 122.424 134.39 132.55 134.39C148.888 134.39 161.085 142.214 172.13 147.967L191 120.583C179.954 114.83 164.997 111.378 155.101 109.767C147.168 108.476 90.5743 102.894 72.028 63.2831C53.3882 23.4723 52.4677 18.8699 44.1834 11.2759Z" fill="#F4E3FF" stroke="#BAA5C8" stroke-width="0.460241"/>
<mask id="mask3_7606_2452" style="mask-type:alpha" maskUnits="userSpaceOnUse" x="3" y="0" width="188" height="148">
<path d="M3.02344 0.645264C17.9632 1.9448 37.8443 6.71676 43.7572 12.2332C52.0644 20.0471 52.9549 24.8764 71.3819 64.0632C89.9979 103.522 146.405 109.275 154.406 110.526C164.499 112.087 179.372 115.674 190.418 121.427" stroke="black" stroke-width="0.322169"/>
<path d="M3.2832 1.28619C17.9764 2.73365 37.4695 7.61654 43.3337 13.1841C51.6636 21.2163 52.5244 26.271 70.7401 64.8379C89.4253 104.146 145.647 110.068 153.715 111.28C164.006 112.792 178.794 116.512 189.84 122.265" stroke="black" stroke-width="0.322169"/>
<path d="M3.54297 1.92291C17.9913 3.51727 37.099 8.51032 42.9149 14.1286C51.2674 22.3776 52.0986 27.6563 70.1044 65.6075C88.8585 104.766 144.895 110.856 153.03 112.028C163.517 113.491 178.221 117.345 189.267 123.098" stroke="black" stroke-width="0.322169"/>
<path d="M3.7998 2.5553C18.005 4.29554 36.73 9.39799 42.4979 15.0666C50.8728 23.531 51.6746 29.032 69.4721 66.3719C88.2944 105.382 144.148 111.638 152.349 112.772C163.03 114.186 177.651 118.172 188.697 123.925" stroke="black" stroke-width="0.322169"/>
<path d="M4.05469 3.18292C18.0185 5.06803 36.3634 10.2791 42.0837 15.9978C50.4808 24.676 51.2535 30.3977 68.844 67.1306C87.7341 105.993 143.406 112.415 151.673 113.51C162.547 114.876 177.085 118.992 188.131 124.745" stroke="black" stroke-width="0.322169"/>
<path d="M4.30859 3.80646C18.0326 5.83541 36.0002 11.1544 41.6731 16.9227C50.0924 25.8133 50.8361 31.7542 68.2211 67.8843C87.1786 106.599 142.67 113.186 151.002 114.243C162.068 115.561 176.524 119.808 187.57 125.561" stroke="black" stroke-width="0.322169"/>
<path d="M4.56055 4.42535C18.0465 6.59714 35.6394 12.0232 41.2654 17.8409C49.7066 26.9423 50.4215 33.1008 67.6025 68.6324C86.6269 107.202 141.939 113.952 150.336 114.971C161.592 116.241 175.967 120.617 187.012 126.37" stroke="black" stroke-width="0.322169"/>
<path d="M4.80957 5.03961C18.0592 7.3532 35.28 12.8856 40.8594 18.7523C49.3223 28.063 50.0088 34.4376 66.9871 69.375C86.0779 107.8 141.212 114.713 149.673 115.693C161.119 116.916 175.412 121.42 186.458 127.173" stroke="black" stroke-width="0.322169"/>
<path d="M5.05762 5.64966C18.0726 8.10404 34.9241 13.7421 40.4571 19.6573C48.9417 29.1759 49.5998 35.765 66.377 70.1124C85.5337 108.394 140.491 115.467 149.016 116.41C160.649 117.587 174.862 122.218 185.908 127.971" stroke="black" stroke-width="0.322169"/>
<path d="M5.30469 6.25568C18.0867 8.84983 34.5715 14.5927 40.0585 20.5562C48.5646 30.2811 49.1946 37.0832 65.7721 70.8449C84.9943 108.983 139.776 116.217 148.364 117.123C160.184 118.253 174.317 123.011 185.363 128.764" stroke="black" stroke-width="0.322169"/>
<path d="M5.54883 6.85675C18.0996 9.58966 34.2204 15.4366 39.6618 21.448C48.1891 31.3777 48.7912 38.3913 65.1705 71.5715C84.4576 109.569 139.066 116.961 147.717 117.83C159.722 118.913 173.775 123.797 184.821 129.55" stroke="black" stroke-width="0.322169"/>
<path d="M5.79102 7.45361C18.1122 10.3243 33.8716 16.2744 39.2677 22.3334C47.8163 32.4665 48.3906 39.69 64.5732 72.293C83.9247 110.149 138.36 117.7 147.073 118.532C159.262 119.569 173.237 124.577 184.283 130.33" stroke="black" stroke-width="0.322169"/>
<path d="M6.03223 8.0462C18.1256 11.0536 33.5263 17.1063 38.8774 23.2125C47.447 33.5474 47.9938 40.9792 63.9811 73.0093C83.3966 110.726 137.66 118.433 146.436 119.228C158.806 120.22 172.703 125.352 183.749 131.105" stroke="black" stroke-width="0.322169"/>
<path d="M6.27148 8.63416C18.1387 11.7772 33.1834 17.9317 38.4899 24.0848C47.0803 34.62 47.5998 42.2585 63.3932 73.72C82.8723 111.299 136.965 119.161 145.803 119.92C158.354 120.866 172.174 126.121 183.219 131.874" stroke="black" stroke-width="0.322169"/>
<path d="M6.50879 9.21753C18.1515 12.4953 32.8429 18.7508 38.1051 24.9503C46.7162 35.6844 47.2086 43.5281 62.8096 74.4252C82.3517 111.866 136.276 119.883 145.174 120.606C157.905 121.507 171.648 126.884 182.693 132.637" stroke="black" stroke-width="0.322169"/>
<path d="M6.74414 9.79663C18.1641 13.208 32.5048 19.5638 37.723 25.8095C46.3547 36.7408 46.8202 44.7883 62.2302 75.1253C81.835 112.43 135.591 120.599 144.55 121.287C157.46 122.144 171.126 127.641 182.171 133.394" stroke="black" stroke-width="0.322169"/>
<path d="M6.97754 10.3716C18.1764 13.9157 32.1692 20.3709 37.3437 26.6624C45.9957 37.7896 46.4346 46.0392 61.6551 75.8203C81.322 112.99 134.912 121.311 143.931 121.963C157.017 122.776 170.607 128.393 181.653 134.146" stroke="black" stroke-width="0.322169"/>
<path d="M7.20996 10.9422C18.1894 14.6179 31.8369 21.1718 36.9682 27.5088C45.6404 38.8302 46.0527 47.2804 61.0852 76.5099C80.8137 113.545 134.238 122.017 143.317 122.634C156.579 123.403 170.094 129.139 181.14 134.892" stroke="black" stroke-width="0.322169"/>
<path d="M7.44043 11.5081C18.2022 15.3144 31.507 21.9663 36.5953 28.3483C45.2876 39.8626 45.6737 48.5118 60.5196 77.194C80.3092 114.096 133.57 122.717 142.708 123.299C156.144 124.025 169.584 129.879 180.63 135.632" stroke="black" stroke-width="0.322169"/>
<path d="M7.66797 12.0696C18.2138 16.0055 31.1786 22.7546 36.2243 29.1814C44.9365 40.887 45.2965 49.7336 59.9573 77.8728C79.8075 114.643 132.906 123.412 142.102 123.959C155.711 124.642 169.077 130.613 180.123 136.366" stroke="black" stroke-width="0.322169"/>
<path d="M7.89453 12.6267C18.2261 16.6912 30.8536 23.5366 35.857 30.0078C44.5889 41.9032 44.923 50.9458 59.4001 78.5462C79.3106 115.185 132.247 124.102 141.502 124.614C155.283 125.254 168.575 131.342 179.621 137.095" stroke="black" stroke-width="0.322169"/>
<path d="M8.11914 13.1794C18.2381 17.3715 30.531 24.3126 35.4924 30.8278C44.2439 42.9115 44.5524 52.1484 58.8473 79.2143C78.8175 115.723 131.594 124.786 140.907 125.264C154.857 125.861 168.077 132.065 179.123 137.818" stroke="black" stroke-width="0.322169"/>
<path d="M8.34277 13.7275C18.2508 18.0461 30.2117 25.0821 35.1316 31.641C43.9025 43.9115 44.1855 53.3413 58.2997 79.8769C78.3291 116.256 130.947 125.464 140.317 125.909C154.436 126.464 167.584 132.782 178.63 138.535" stroke="black" stroke-width="0.322169"/>
<path d="M8.56348 14.2715C18.2623 18.7156 29.894 25.8458 34.7725 32.448C43.5627 44.9038 43.8205 54.5248 57.7553 80.5345C77.8435 116.786 130.304 126.137 139.731 126.548C154.017 127.061 167.093 133.493 178.139 139.246" stroke="black" stroke-width="0.322169"/>
<path d="M8.7832 14.8113C18.2746 19.3798 29.5796 26.6034 34.4172 33.2486C43.2265 45.8882 43.4592 55.6989 57.2162 81.1869C77.3627 117.311 129.667 126.805 139.15 127.183C153.603 127.654 166.608 134.199 177.653 139.952" stroke="black" stroke-width="0.322169"/>
<path d="M9.00098 15.3465C18.2865 20.0385 29.2676 27.3547 34.0646 34.0426C42.8929 46.8644 43.1007 56.8633 56.6813 81.8338C76.8856 117.832 129.035 127.467 138.574 127.812C153.191 128.243 166.126 134.899 177.171 140.652" stroke="black" stroke-width="0.322169"/>
<path d="M9.2168 15.8773C18.2982 20.6918 28.958 28.0998 33.7147 34.83C42.5619 47.8326 42.7451 58.0181 56.1507 82.4754C76.4123 118.349 128.408 128.124 138.003 128.436C152.783 128.826 165.647 135.593 176.693 141.346" stroke="black" stroke-width="0.322169"/>
<path d="M9.43066 16.4031C18.3097 21.3391 28.6509 28.8381 33.3676 35.6103C42.2334 48.7921 42.3922 59.1627 55.6243 83.1111C75.9428 118.861 127.786 128.775 137.436 129.055C152.378 129.404 165.173 136.28 176.219 142.033" stroke="black" stroke-width="0.322169"/>
<path d="M9.64258 16.9252C18.3209 21.9816 28.3462 29.5709 33.0233 36.3846C41.9076 49.7443 42.0421 60.2983 55.1022 83.7421C75.4771 119.369 127.169 129.421 136.874 129.668C151.977 129.977 164.703 136.963 175.748 142.716" stroke="black" stroke-width="0.322169"/>
<path d="M9.85254 17.4426C18.3318 22.6184 28.0439 30.2973 32.6817 37.1523C41.5843 50.6882 41.6948 61.4242 54.5843 84.3676C75.0151 119.872 126.557 130.061 136.316 130.277C151.578 130.546 164.236 137.64 175.282 143.393" stroke="black" stroke-width="0.322169"/>
<path d="M10.0615 17.9556C18.3435 23.2498 27.7449 31.0175 32.3438 37.9133C41.2647 51.624 41.3513 62.5404 54.0717 84.9877C74.5579 120.372 125.951 130.696 135.764 130.88C151.184 131.11 163.774 138.311 174.82 144.064" stroke="black" stroke-width="0.322169"/>
<path d="M10.2686 18.4642C18.3549 23.8757 27.4484 31.7314 32.0087 38.6678C40.9476 52.5517 41.0106 63.647 53.5633 85.6025C74.1045 120.867 125.35 131.325 135.216 131.478C150.793 131.669 163.316 138.976 174.362 144.729" stroke="black" stroke-width="0.322169"/>
<path d="M10.4736 18.9686C18.3661 24.4965 27.1543 32.4394 31.6764 39.416C40.6331 53.4717 40.6727 64.7442 53.0592 86.2121C73.6548 121.358 124.755 131.949 134.674 132.071C150.405 132.223 162.862 139.635 173.907 145.388" stroke="black" stroke-width="0.322169"/>
<path d="M10.6768 19.4681C18.377 25.1114 26.8627 33.1408 31.3467 40.1572C40.3212 54.3831 40.3376 65.8315 52.5593 86.816C73.209 121.844 124.164 132.568 134.135 132.659C150.021 132.772 162.411 140.288 173.457 146.041" stroke="black" stroke-width="0.322169"/>
<path d="M10.8779 19.9635C18.3876 25.7211 26.5734 33.8362 31.0199 40.8921C40.0119 55.2868 40.0053 66.9093 52.0637 87.4148C72.7669 122.326 123.579 133.181 133.602 133.241C149.639 133.316 161.965 140.936 173.01 146.689" stroke="black" stroke-width="0.322169"/>
<path d="M11.0771 20.4543C18.398 26.3252 26.2866 34.5253 30.6958 41.6203C39.7052 56.1823 39.6758 67.9774 51.5724 88.0082C72.3285 122.804 122.998 133.788 133.072 133.818C149.261 133.856 161.522 141.578 172.568 147.331" stroke="black" stroke-width="0.322169"/>
</mask>
<g mask="url(#mask3_7606_2452)">
<g filter="url(#filter6_f_7606_2452)">
<path d="M48.5042 2.53133C55.0874 6.66982 47.6774 20.1946 41.4216 30.1457C35.1658 40.0969 44.0926 62.589 37.5095 58.4505C30.9264 54.312 6.21317 27.3843 25.2573 13.0561C31.5131 3.10492 41.9211 -1.60716 48.5042 2.53133Z" fill="#93819E"/>
</g>
<g filter="url(#filter7_f_7606_2452)">
<path d="M59.1407 4.73276C65.7242 8.87147 70.9194 14.2116 64.6636 24.1627C58.4078 34.1138 67.5651 50.1629 60.9816 46.0242C54.3981 41.8855 22.2789 6.49944 28.5346 -3.4517C34.7904 -13.4028 52.5572 0.594044 59.1407 4.73276Z" fill="#93819E"/>
</g>
<g filter="url(#filter8_f_7606_2452)">
<path d="M89.2716 48.4955C95.8551 52.6342 101.05 57.9743 94.7945 67.9255C88.5387 77.8766 97.696 93.9257 91.1125 89.787C84.529 85.6483 52.4097 50.2622 58.6655 40.3111C64.9213 30.3599 82.6881 44.3568 89.2716 48.4955Z" fill="#93819E"/>
</g>
<g filter="url(#filter9_f_7606_2452)">
<path d="M119.057 143.488C133.792 152.75 148.29 160.135 153.507 151.836C183.401 148.433 188.686 106.781 173.952 97.5181C160.394 111.704 82.0216 107.46 76.8047 115.758C71.5877 124.057 104.323 134.225 119.057 143.488Z" fill="#93819E"/>
</g>
<g filter="url(#filter10_f_7606_2452)">
<path d="M60.7516 92.5088C67.6552 100.103 99.7515 119.74 97.3407 123.575C94.93 127.41 61.8122 109.304 55.2287 105.165C48.6452 101.027 32.5674 44.5665 34.9781 40.7317C37.3888 36.8969 50.5007 81.2329 60.7516 92.5088Z" fill="#93819E"/>
</g>
<g filter="url(#filter11_f_7606_2452)">
<ellipse cx="57.0807" cy="53.5955" rx="9.16874" ry="24.0107" transform="rotate(-14.092 57.0807 53.5955)" fill="#D1B8E0"/>
</g>
<g filter="url(#filter12_f_7606_2452)">
<ellipse cx="67.522" cy="79.7963" rx="10.524" ry="19.1" transform="rotate(-28.0859 67.522 79.7963)" fill="#D1B8E0"/>
</g>
<g filter="url(#filter13_f_7606_2452)">
<path d="M88.6689 91.6282C97.5994 97.2424 104.583 106.525 102.689 109.538C100.795 112.551 91.5994 112.391 82.6689 106.776C73.7383 101.162 67.1755 89.9305 69.0694 86.9178C70.9633 83.9051 79.7383 86.014 88.6689 91.6282Z" fill="#D1B8E0"/>
</g>
<g filter="url(#filter14_f_7606_2452)">
<path d="M95.9409 107.881C101.007 117.133 102.587 128.642 99.466 130.351C96.3448 132.06 88.3905 127.442 83.324 118.19C78.2575 108.938 77.9944 95.9318 81.1157 94.2226C84.2369 92.5135 90.8744 98.6283 95.9409 107.881Z" fill="#D1B8E0"/>
</g>
<g filter="url(#filter15_f_7606_2452)">
<path d="M159.827 129.914C149.331 128.861 138.946 123.655 139.302 120.115C139.657 116.574 147.964 112.625 158.459 113.678C168.955 114.732 179.831 121.87 179.475 125.411C179.12 128.952 170.323 130.968 159.827 129.914Z" fill="#D1B8E0"/>
</g>
</g>
<g style="mix-blend-mode:plus-lighter" filter="url(#filter16_f_7606_2452)">
<path d="M8.56348 13.1772C18.2623 17.6213 29.894 24.7514 34.7725 31.3537C43.5627 43.8094 43.8205 53.4305 57.7553 79.4401C77.8435 115.691 130.304 125.043 139.731 125.454C154.017 125.967 167.093 132.399 178.139 138.152" stroke="white" stroke-width="0.322169"/>
</g>
<g style="mix-blend-mode:plus-lighter">
<path d="M4.56055 3.3313C18.0465 5.50308 35.6394 10.9292 41.2654 16.7468C49.7066 25.8483 50.4215 32.0067 67.6025 67.5384C86.6269 106.108 141.939 112.858 150.336 113.877C161.592 115.147 175.967 119.523 187.012 125.276" stroke="white" stroke-width="0.164116"/>
</g>
<g style="mix-blend-mode:plus-lighter">
<path d="M-2.00391 9.89575C11.4821 12.0675 29.0749 17.4936 34.7009 23.3113C43.1421 32.4127 43.8571 38.5712 61.038 74.1028C80.0624 112.672 135.375 119.423 143.771 120.441C155.028 121.712 169.402 126.087 180.448 131.84" stroke="white" stroke-width="0.164116"/>
</g>
<g style="mix-blend-mode:plus-lighter">
<path d="M-8.56934 23.0251C4.91665 25.1969 22.5095 30.623 28.1355 36.4407C36.5767 45.5421 37.2917 51.7006 54.4726 87.2322C73.497 125.802 128.809 132.552 137.206 133.571C148.462 134.841 162.837 139.217 173.883 144.97" stroke="white" stroke-width="0.164116"/>
</g>
<g style="mix-blend-mode:plus-lighter">
<path d="M-4.19238 19.7426C9.2936 21.9144 26.8865 27.3405 32.5124 33.1581C40.9536 42.2596 41.6686 48.4181 58.8495 83.9497C77.8739 122.519 133.186 129.27 141.583 130.288C152.839 131.559 167.214 135.934 178.259 141.687" stroke="white" stroke-width="0.164116"/>
</g>
<g style="mix-blend-mode:plus-lighter">
<path d="M2.37207 21.9309C15.8581 24.1027 33.4509 29.5288 39.0769 35.3464C47.5181 44.4479 48.2331 50.6064 65.414 86.138C84.4384 124.707 139.751 131.458 148.147 132.476C159.404 133.747 173.778 138.123 184.824 143.876" stroke="white" stroke-width="0.164116"/>
</g>
<g clip-path="url(#clip0_7606_2452)">
<path d="M124.955 76.8604C107.696 52.2375 82.1526 53.158 64.2032 49.9363L61.6719 75.7099C67.8084 75.6332 82.5208 77.4588 89.5165 85.3749C98.261 95.2701 110.918 119.203 121.043 139.913C131.168 160.624 148.197 179.724 155.101 182.256L179.033 159.704C141.294 127.947 147.131 108.498 124.955 76.8604Z" fill="#F7E7FF"/>
<mask id="mask4_7606_2452" style="mask-type:alpha" maskUnits="userSpaceOnUse" x="61" y="49" width="119" height="133">
<path d="M64.2031 49.9363C82.1525 53.158 107.696 52.2375 124.955 76.8604C147.131 108.498 141.293 127.947 179.033 159.704" stroke="black" stroke-width="0.322169"/>
<path d="M61.6719 74.7892C67.8084 74.7124 81.8304 76.5381 88.8261 84.4542C97.5707 94.3494 110.918 118.282 121.043 138.993C131.168 159.704 148.197 178.804 155.101 181.335" stroke="black" stroke-width="0.322169"/>
<path d="M64.1631 50.3306C73.0927 51.9147 84.0159 52.5098 94.7426 55.8343C105.497 59.1902 116.24 65.4016 124.893 77.8464C146.877 109.31 141.403 128.754 178.654 160.047" stroke="black" stroke-width="0.322169"/>
<path d="M64.1221 50.731C73.006 52.2879 83.9799 52.9032 94.6456 56.3028C105.367 59.7657 116.152 66.2671 124.83 78.8472C146.62 110.135 141.514 129.573 178.268 160.395" stroke="black" stroke-width="0.322169"/>
<path d="M64.0811 51.137C72.9186 52.6663 83.944 53.302 94.5477 56.7779C105.236 60.3494 116.064 67.145 124.766 79.8623C146.36 110.972 141.627 130.404 177.877 160.749" stroke="black" stroke-width="0.322169"/>
<path d="M64.0391 51.549C72.8296 53.0503 83.9071 53.7067 94.448 57.2599C105.102 60.9416 115.975 68.0357 124.701 80.8922C146.095 111.82 141.742 131.247 177.48 161.107" stroke="black" stroke-width="0.322169"/>
<path d="M63.9961 51.9667C72.7389 53.4396 83.8694 54.1171 94.3465 57.7487C104.967 61.5421 115.883 68.9389 124.635 81.9366C145.826 112.681 141.857 132.102 177.078 161.471" stroke="black" stroke-width="0.322169"/>
<path d="M63.9531 52.3902C72.6476 53.8344 83.8317 54.5332 94.2442 58.2443C104.829 62.151 115.791 69.8547 124.569 82.9956C145.554 113.554 141.975 132.969 176.67 161.84" stroke="black" stroke-width="0.322169"/>
<path d="M63.9092 52.8199C72.5546 54.235 83.7931 54.9554 94.1401 58.7472C104.69 62.7686 115.698 70.7835 124.501 84.0695C145.278 114.439 142.094 133.848 176.256 162.214" stroke="black" stroke-width="0.322169"/>
<path d="M63.8652 53.2547C72.4609 54.6402 83.7546 55.3825 94.0352 59.256C104.549 63.3938 115.603 71.7241 124.433 85.1573C144.999 115.335 142.216 134.738 175.837 162.592" stroke="black" stroke-width="0.322169"/>
<path d="M63.8203 53.6959C72.3656 55.0514 83.7152 55.8159 93.9285 59.7722C104.406 64.028 115.507 72.6779 124.363 86.2602C144.716 116.244 142.338 135.641 175.413 162.976" stroke="black" stroke-width="0.322169"/>
<path d="M63.7754 54.1429C72.2696 55.4681 83.6759 56.255 93.821 60.2953C104.262 64.6706 115.411 73.6444 124.293 87.3777C144.429 117.165 142.463 136.556 174.983 163.365" stroke="black" stroke-width="0.322169"/>
<path d="M63.7285 54.5958C72.1711 55.8902 83.6347 56.7 93.7107 60.8253C104.115 65.3216 115.311 74.6236 124.221 88.5099C144.138 118.099 142.588 137.482 174.546 163.759" stroke="black" stroke-width="0.322169"/>
<path d="M63.6816 55.0544C72.0718 56.3177 83.5935 57.1505 93.5996 61.3619C103.966 65.9809 115.211 75.6152 124.149 89.6566C143.843 119.043 142.715 138.421 174.104 164.158" stroke="black" stroke-width="0.322169"/>
<path d="M63.6348 55.5186C71.9719 56.7503 83.5524 57.6065 93.4876 61.9051C103.816 66.6483 115.111 76.6191 124.076 90.8175C143.545 120 142.845 139.371 173.657 164.562" stroke="black" stroke-width="0.322169"/>
<path d="M63.5869 55.9893C71.8703 57.1891 83.5105 58.069 93.3739 62.4559C103.663 67.3248 115.009 77.6365 124.002 91.9938C143.243 120.97 142.975 140.334 173.204 164.972" stroke="black" stroke-width="0.322169"/>
<path d="M63.5381 56.4653C71.7671 57.6328 83.4676 58.5366 93.2584 63.0129C103.509 68.0092 114.905 78.6658 123.927 93.1841C142.937 121.951 143.107 141.308 172.745 165.386" stroke="black" stroke-width="0.322169"/>
<path d="M63.4893 56.9475C71.6632 58.0822 83.4248 59.0103 93.1421 63.5771C103.353 68.7022 114.8 79.7082 123.852 94.3894C142.627 122.944 143.242 142.295 172.281 165.806" stroke="black" stroke-width="0.322169"/>
<path d="M63.4395 57.4353C71.5577 58.5369 83.3811 59.4895 93.0239 64.1479C103.195 69.4035 114.694 80.7629 123.775 95.609C142.314 123.949 143.377 143.293 171.811 166.231" stroke="black" stroke-width="0.322169"/>
<path d="M63.3896 57.9291C71.4515 58.9972 83.3375 59.9746 92.905 64.7257C103.035 70.1133 114.587 81.8304 123.697 96.8434C141.997 124.966 143.515 144.303 171.336 166.66" stroke="black" stroke-width="0.322169"/>
<path d="M63.3389 58.4283C71.3437 59.4624 83.2929 60.465 92.7842 65.3099C102.873 70.831 114.478 82.9102 123.619 98.092C141.677 125.995 143.653 145.325 170.856 167.095" stroke="black" stroke-width="0.322169"/>
<path d="M63.2871 58.934C71.2342 59.9338 83.2475 60.9618 92.6617 65.9015C102.709 71.5578 114.368 84.0032 123.539 99.3558C141.352 127.037 143.794 146.36 170.369 167.535" stroke="black" stroke-width="0.322169"/>
<path d="M63.2344 59.4451C71.1231 60.4103 83.2011 61.464 92.5374 66.4997C102.543 72.2927 114.256 85.1084 123.458 100.634C141.023 128.09 143.935 147.406 169.876 167.98" stroke="black" stroke-width="0.322169"/>
<path d="M63.1816 59.9622C71.0113 60.8922 83.1549 61.9719 92.4122 67.1047C102.375 73.036 114.143 86.2264 123.376 101.927C140.69 129.156 144.078 148.464 169.378 168.43" stroke="black" stroke-width="0.322169"/>
<path d="M63.1289 60.4849C70.8988 61.3794 83.1087 62.4855 92.2862 67.7165C102.206 73.7875 114.03 87.3568 123.295 103.234C140.355 130.233 144.224 149.534 168.874 168.885" stroke="black" stroke-width="0.322169"/>
<path d="M63.0752 61.0137C70.7847 61.8723 83.0616 63.005 92.1585 68.3352C102.035 74.5477 113.915 88.5001 123.212 104.556C140.016 131.322 144.371 150.616 168.365 169.345" stroke="black" stroke-width="0.322169"/>
<path d="M63.0205 61.5485C70.669 62.3708 83.0136 63.5303 92.0289 68.9609C101.861 75.3163 113.799 89.6561 123.127 105.892C139.672 132.424 144.52 151.71 167.85 169.811" stroke="black" stroke-width="0.322169"/>
<path d="M62.9658 62.0887C70.5526 62.8743 82.9656 64.0611 91.8985 69.5932C101.687 76.093 113.681 90.8244 123.042 107.243C139.325 133.537 144.67 152.816 167.33 170.281" stroke="black" stroke-width="0.322169"/>
<path d="M62.9102 62.6348C70.4345 63.3833 82.9168 64.5975 91.7664 70.2321C101.51 76.8781 113.563 92.0053 122.956 108.609C138.974 134.663 144.822 153.934 166.804 170.756" stroke="black" stroke-width="0.322169"/>
<path d="M62.8535 63.1871C70.3149 63.8981 82.8671 65.1401 91.6324 70.8784C101.33 77.6719 113.442 93.1992 122.869 109.989C138.619 135.8 144.975 155.064 166.272 171.237" stroke="black" stroke-width="0.322169"/>
<path d="M62.7969 63.7452C70.1945 64.4184 82.8174 65.6884 91.4976 71.5315C101.15 78.4742 113.321 94.4058 122.781 111.385C138.261 136.95 145.13 156.206 165.735 171.723" stroke="black" stroke-width="0.322169"/>
<path d="M62.7393 64.309C70.0725 64.9438 82.7668 66.2422 91.361 72.1911C100.967 79.2846 113.198 95.6247 122.693 112.794C137.899 138.112 145.286 157.359 165.192 172.213" stroke="black" stroke-width="0.322169"/>
<path d="M62.6816 64.8785C69.9498 65.4747 82.7163 66.8018 91.2236 72.8576C100.783 80.1034 113.074 96.8563 122.603 114.218C137.533 139.286 145.445 158.525 164.644 172.709" stroke="black" stroke-width="0.322169"/>
<path d="M62.623 65.454C69.8255 66.0111 82.6649 67.3671 91.0844 73.531C100.596 80.9307 112.949 98.1005 122.513 115.657C137.164 140.471 145.605 159.702 164.089 173.21" stroke="black" stroke-width="0.322169"/>
<path d="M62.5635 66.0353C69.6995 66.5529 82.6126 67.9382 90.9434 74.2112C100.407 81.7663 112.822 99.3574 122.421 117.11C136.79 141.669 145.766 160.892 163.529 173.716" stroke="black" stroke-width="0.322169"/>
<path d="M62.5039 66.6224C69.5729 67.1001 82.5604 68.5149 90.8016 74.8982C100.217 82.6103 112.695 100.627 122.329 118.578C136.413 142.879 145.929 162.094 162.964 174.227" stroke="black" stroke-width="0.322169"/>
<path d="M62.4434 67.2154C69.4446 67.6528 82.5073 69.0975 90.658 75.5921C100.025 83.4628 112.566 101.909 122.235 120.061C136.032 144.101 146.094 163.307 162.393 174.743" stroke="black" stroke-width="0.322169"/>
<path d="M62.3828 67.8143C69.3157 68.2111 82.4542 69.6859 90.5136 76.2929C99.8312 84.3237 112.436 103.204 122.141 121.558C135.648 145.335 146.261 164.533 161.817 175.264" stroke="black" stroke-width="0.322169"/>
<path d="M62.3203 68.4188C69.1841 68.7746 82.3993 70.2798 90.3664 77.0003C99.6343 85.1928 112.303 104.511 122.045 123.07C135.258 146.58 146.428 165.77 161.233 175.79" stroke="black" stroke-width="0.322169"/>
<path d="M62.2588 69.0294C69.0529 69.3437 82.3454 70.8796 90.2194 77.7148C99.4371 86.0705 112.171 105.831 121.95 124.596C134.867 147.838 146.598 167.019 160.646 176.322" stroke="black" stroke-width="0.322169"/>
<path d="M62.1953 69.6455C68.919 69.9179 82.2896 71.4849 90.0696 78.4358C99.2367 86.9563 112.036 107.164 121.852 126.137C134.47 149.108 146.769 168.28 160.052 176.858" stroke="black" stroke-width="0.322169"/>
<path d="M62.1328 70.2682C68.7855 70.4984 82.2349 72.0966 89.9199 79.1643C99.0359 87.8512 111.902 108.509 121.755 127.693C134.072 150.391 146.942 169.554 159.453 177.4" stroke="black" stroke-width="0.322169"/>
<path d="M62.0684 70.896C68.6493 71.0835 82.1783 72.7134 89.7675 79.899C98.8319 88.7538 111.765 109.867 121.656 129.263C133.668 151.684 147.116 170.839 158.848 177.946" stroke="black" stroke-width="0.322169"/>
<path d="M62.0039 71.5298C68.5124 71.6743 82.1217 73.3361 89.6143 80.6407C98.6266 89.665 111.627 111.237 121.556 130.847C133.261 152.99 147.293 172.136 158.238 178.498" stroke="black" stroke-width="0.322169"/>
<path d="M61.9385 72.1697C68.3739 72.2708 82.0643 73.9647 89.4593 81.3895C98.4189 90.5848 111.487 112.621 121.455 132.447C132.849 154.309 147.47 173.445 157.621 179.055" stroke="black" stroke-width="0.322169"/>
<path d="M61.873 72.8152C68.2348 72.8724 82.007 74.5989 89.3034 82.1448C98.21 91.5128 111.347 114.017 121.354 134.061C132.435 155.639 147.65 174.766 157 179.617" stroke="black" stroke-width="0.322169"/>
<path d="M61.8066 73.4664C68.094 73.4793 81.9487 75.2385 89.1458 82.9068C97.9989 92.4489 111.205 115.425 121.251 135.689C132.017 156.981 147.831 176.099 156.373 180.183" stroke="black" stroke-width="0.322169"/>
<path d="M61.7393 74.1242C67.9515 74.0925 81.8895 75.8848 88.9863 83.6764C97.7854 93.3943 111.062 116.846 121.147 137.333C131.594 158.335 148.013 177.445 155.739 180.756" stroke="black" stroke-width="0.322169"/>
</mask>
<g mask="url(#mask4_7606_2452)">
<g filter="url(#filter17_f_7606_2452)">
<path d="M108.214 43.6664C123.703 53.4033 175.164 134.565 168.908 144.516C162.652 154.467 152.41 180.947 136.921 171.21C114.427 146.587 37.7289 49.8628 66.5045 41.6523C72.7602 31.7012 92.7255 33.9295 108.214 43.6664Z" fill="#A793B2"/>
</g>
<g filter="url(#filter18_f_7606_2452)">
<path d="M120.123 81.9232C124.064 91.7076 146.896 143.646 143.595 144.976C140.294 146.306 115.55 98.3811 111.608 88.5966C104.244 79.6219 80.4628 63.2324 83.7636 61.9027C87.0644 60.5729 112.529 71.7978 120.123 81.9232Z" fill="#E0CBED"/>
</g>
<g filter="url(#filter19_f_7606_2452)">
<path d="M122.423 79.6219C126.365 89.4064 157.171 141.754 142.291 145.501C129.787 153.26 107.035 102.523 103.093 92.7388C93.6958 84.5833 68.4857 60.6191 73.8678 58.4508C79.2499 56.2826 112.922 70.2648 122.423 79.6219Z" fill="#E0CBED"/>
</g>
</g>
<g style="mix-blend-mode:plus-lighter">
<path d="M62.3818 67.8143C69.3147 68.2111 82.4532 69.6859 90.5126 76.2929C99.8303 84.3237 112.435 103.204 122.14 121.558C135.647 145.335 146.26 164.533 161.816 175.264" stroke="white" stroke-width="0.218821"/>
</g>
<g style="mix-blend-mode:plus-lighter">
<path d="M63.1816 59.9622C71.0113 60.8922 83.1549 61.972 92.4122 67.1048C102.375 73.036 114.143 86.2264 123.376 101.927C140.69 129.156 144.078 148.464 169.378 168.43" stroke="white" stroke-width="0.218821"/>
</g>
<g style="mix-blend-mode:plus-lighter">
<path d="M63.3379 58.4283C71.3427 59.4624 83.2919 60.465 92.7833 65.3099C102.872 70.831 114.477 82.9102 123.618 98.092C141.676 125.995 143.652 145.325 170.855 167.095" stroke="white" stroke-width="0.218821"/>
</g>
</g>
</g>
<defs>
<filter id="filter0_f_7606_2452" x="-8.96681" y="28.4107" width="62.6416" height="68.0033" filterUnits="userSpaceOnUse" color-interpolation-filters="sRGB">
<feFlood flood-opacity="0" result="BackgroundImageFix"/>
<feBlend mode="normal" in="SourceGraphic" in2="BackgroundImageFix" result="shape"/>
<feGaussianBlur stdDeviation="3.22169" result="effect1_foregroundBlur_7606_2452"/>
</filter>
<filter id="filter1_f_7606_2452" x="7.58161" y="17.9299" width="51.9403" height="45.4564" filterUnits="userSpaceOnUse" color-interpolation-filters="sRGB">
<feFlood flood-opacity="0" result="BackgroundImageFix"/>
<feBlend mode="normal" in="SourceGraphic" in2="BackgroundImageFix" result="shape"/>
<feGaussianBlur stdDeviation="1.1506" result="effect1_foregroundBlur_7606_2452"/>
</filter>
<filter id="filter2_f_7606_2452" x="3.84988" y="27.9711" width="35.4643" height="35.9734" filterUnits="userSpaceOnUse" color-interpolation-filters="sRGB">
<feFlood flood-opacity="0" result="BackgroundImageFix"/>
<feBlend mode="normal" in="SourceGraphic" in2="BackgroundImageFix" result="shape"/>
<feGaussianBlur stdDeviation="2.99157" result="effect1_foregroundBlur_7606_2452"/>
</filter>
<filter id="filter3_f_7606_2452" x="53.6885" y="28.7477" width="122.189" height="151.021" filterUnits="userSpaceOnUse" color-interpolation-filters="sRGB">
<feFlood flood-opacity="0" result="BackgroundImageFix"/>
<feBlend mode="normal" in="SourceGraphic" in2="BackgroundImageFix" result="shape"/>
<feGaussianBlur stdDeviation="3.22169" result="effect1_foregroundBlur_7606_2452"/>
</filter>
<filter id="filter4_f_7606_2452" x="74.2473" y="52.5899" width="78.8784" height="101.618" filterUnits="userSpaceOnUse" color-interpolation-filters="sRGB">
<feFlood flood-opacity="0" result="BackgroundImageFix"/>
<feBlend mode="normal" in="SourceGraphic" in2="BackgroundImageFix" result="shape"/>
<feGaussianBlur stdDeviation="4.60241" result="effect1_foregroundBlur_7606_2452"/>
</filter>
<filter id="filter5_f_7606_2452" x="54.7134" y="39.8159" width="110.02" height="124.899" filterUnits="userSpaceOnUse" color-interpolation-filters="sRGB">
<feFlood flood-opacity="0" result="BackgroundImageFix"/>
<feBlend mode="normal" in="SourceGraphic" in2="BackgroundImageFix" result="shape"/>
<feGaussianBlur stdDeviation="9.20482" result="effect1_foregroundBlur_7606_2452"/>
</filter>
<filter id="filter6_f_7606_2452" x="11.7392" y="-5.41322" width="45.7803" height="70.8096" filterUnits="userSpaceOnUse" color-interpolation-filters="sRGB">
<feFlood flood-opacity="0" result="BackgroundImageFix"/>
<feBlend mode="normal" in="SourceGraphic" in2="BackgroundImageFix" result="shape"/>
<feGaussianBlur stdDeviation="3.22169" result="effect1_foregroundBlur_7606_2452"/>
</filter>
<filter id="filter7_f_7606_2452" x="21.2881" y="-13.3968" width="52.6367" height="66.5324" filterUnits="userSpaceOnUse" color-interpolation-filters="sRGB">
<feFlood flood-opacity="0" result="BackgroundImageFix"/>
<feBlend mode="normal" in="SourceGraphic" in2="BackgroundImageFix" result="shape"/>
<feGaussianBlur stdDeviation="3.22169" result="effect1_foregroundBlur_7606_2452"/>
</filter>
<filter id="filter8_f_7606_2452" x="51.4189" y="30.366" width="52.6367" height="66.5324" filterUnits="userSpaceOnUse" color-interpolation-filters="sRGB">
<feFlood flood-opacity="0" result="BackgroundImageFix"/>
<feBlend mode="normal" in="SourceGraphic" in2="BackgroundImageFix" result="shape"/>
<feGaussianBlur stdDeviation="3.22169" result="effect1_foregroundBlur_7606_2452"/>
</filter>
<filter id="filter9_f_7606_2452" x="69.8037" y="91.0748" width="118.51" height="70.8131" filterUnits="userSpaceOnUse" color-interpolation-filters="sRGB">
<feFlood flood-opacity="0" result="BackgroundImageFix"/>
<feBlend mode="normal" in="SourceGraphic" in2="BackgroundImageFix" result="shape"/>
<feGaussianBlur stdDeviation="3.22169" result="effect1_foregroundBlur_7606_2452"/>
</filter>
<filter id="filter10_f_7606_2452" x="28.291" y="34.0539" width="75.6221" height="96.4942" filterUnits="userSpaceOnUse" color-interpolation-filters="sRGB">
<feFlood flood-opacity="0" result="BackgroundImageFix"/>
<feBlend mode="normal" in="SourceGraphic" in2="BackgroundImageFix" result="shape"/>
<feGaussianBlur stdDeviation="3.22169" result="effect1_foregroundBlur_7606_2452"/>
</filter>
<filter id="filter11_f_7606_2452" x="26.1869" y="9.94844" width="61.7883" height="87.2942" filterUnits="userSpaceOnUse" color-interpolation-filters="sRGB">
<feFlood flood-opacity="0" result="BackgroundImageFix"/>
<feBlend mode="normal" in="SourceGraphic" in2="BackgroundImageFix" result="shape"/>
<feGaussianBlur stdDeviation="10.1253" result="effect1_foregroundBlur_7606_2452"/>
</filter>
<filter id="filter12_f_7606_2452" x="38.9485" y="46.5794" width="57.147" height="66.4338" filterUnits="userSpaceOnUse" color-interpolation-filters="sRGB">
<feFlood flood-opacity="0" result="BackgroundImageFix"/>
<feBlend mode="normal" in="SourceGraphic" in2="BackgroundImageFix" result="shape"/>
<feGaussianBlur stdDeviation="7.8241" result="effect1_foregroundBlur_7606_2452"/>
</filter>
<filter id="filter13_f_7606_2452" x="43.8892" y="60.6914" width="83.9648" height="75.648" filterUnits="userSpaceOnUse" color-interpolation-filters="sRGB">
<feFlood flood-opacity="0" result="BackgroundImageFix"/>
<feBlend mode="normal" in="SourceGraphic" in2="BackgroundImageFix" result="shape"/>
<feGaussianBlur stdDeviation="12.4265" result="effect1_foregroundBlur_7606_2452"/>
</filter>
<filter id="filter14_f_7606_2452" x="64.3514" y="79.2084" width="51.4437" height="66.2206" filterUnits="userSpaceOnUse" color-interpolation-filters="sRGB">
<feFlood flood-opacity="0" result="BackgroundImageFix"/>
<feBlend mode="normal" in="SourceGraphic" in2="BackgroundImageFix" result="shape"/>
<feGaussianBlur stdDeviation="7.36385" result="effect1_foregroundBlur_7606_2452"/>
</filter>
<filter id="filter15_f_7606_2452" x="133.77" y="107.982" width="51.2362" height="27.7344" filterUnits="userSpaceOnUse" color-interpolation-filters="sRGB">
<feFlood flood-opacity="0" result="BackgroundImageFix"/>
<feBlend mode="normal" in="SourceGraphic" in2="BackgroundImageFix" result="shape"/>
<feGaussianBlur stdDeviation="2.76145" result="effect1_foregroundBlur_7606_2452"/>
</filter>
<filter id="filter16_f_7606_2452" x="3.02557" y="7.56023" width="180.659" height="136.205" filterUnits="userSpaceOnUse" color-interpolation-filters="sRGB">
<feFlood flood-opacity="0" result="BackgroundImageFix"/>
<feBlend mode="normal" in="SourceGraphic" in2="BackgroundImageFix" result="shape"/>
<feGaussianBlur stdDeviation="2.73526" result="effect1_foregroundBlur_7606_2452"/>
</filter>
<filter id="filter17_f_7606_2452" x="53.6875" y="28.748" width="122.189" height="151.021" filterUnits="userSpaceOnUse" color-interpolation-filters="sRGB">
<feFlood flood-opacity="0" result="BackgroundImageFix"/>
<feBlend mode="normal" in="SourceGraphic" in2="BackgroundImageFix" result="shape"/>
<feGaussianBlur stdDeviation="3.22169" result="effect1_foregroundBlur_7606_2452"/>
</filter>
<filter id="filter18_f_7606_2452" x="74.2464" y="52.5901" width="78.8784" height="101.618" filterUnits="userSpaceOnUse" color-interpolation-filters="sRGB">
<feFlood flood-opacity="0" result="BackgroundImageFix"/>
<feBlend mode="normal" in="SourceGraphic" in2="BackgroundImageFix" result="shape"/>
<feGaussianBlur stdDeviation="4.60241" result="effect1_foregroundBlur_7606_2452"/>
</filter>
<filter id="filter19_f_7606_2452" x="54.7124" y="39.8161" width="110.02" height="124.899" filterUnits="userSpaceOnUse" color-interpolation-filters="sRGB">
<feFlood flood-opacity="0" result="BackgroundImageFix"/>
<feBlend mode="normal" in="SourceGraphic" in2="BackgroundImageFix" result="shape"/>
<feGaussianBlur stdDeviation="9.20482" result="effect1_foregroundBlur_7606_2452"/>
</filter>
<linearGradient id="paint0_linear_7606_2452" x1="10.394" y1="41.029" x2="158.645" y2="136.216" gradientUnits="userSpaceOnUse">
<stop offset="0.0374672" stop-color="#999999" stop-opacity="0"/>
<stop offset="0.35" stop-color="#999999"/>
<stop offset="0.77097" stop-color="#999999"/>
<stop offset="0.85" stop-color="#999999" stop-opacity="0.349602"/>
<stop offset="0.946293" stop-color="#999999" stop-opacity="0"/>
</linearGradient>
<clipPath id="clip0_7606_2452">
<rect width="89.2868" height="96.6506" fill="white" transform="translate(89.9766 85.835)"/>
</clipPath>
</defs>
</svg>
