<svg width="80" height="81" viewBox="0 0 80 81" fill="none" xmlns="http://www.w3.org/2000/svg">
<path d="M9.28287 47.4004C13.1048 48.0887 17.3791 49.4681 19.9258 50.8476C27.0587 54.7113 34.6164 65.3883 37.9143 66.8873C41.2121 68.3864 46.9085 62.8399 52.3051 59.8419C55.5978 58.0125 63.746 55.067 69.4623 52.6058M9.28287 47.4004C7.70564 47.1164 5.06753 46.5205 3.43673 46.2006C0.348141 45.5946 0.258818 43.442 4.93564 41.404C10.7817 38.8565 31.6183 30.4618 36.5651 31.5112C41.512 32.5605 58.6014 43.3511 64.2978 45.1513C69.9941 46.9514 74.9406 46.9501 75.5402 48.8989C75.7739 49.6586 73.1145 51.0333 69.4623 52.6058M9.28287 47.4004C13.2304 49.4489 22.3846 55.4347 27.4214 62.9898C33.7173 72.4338 38.0645 75.1321 41.8121 73.3332C45.5597 71.5344 57.8199 65.1439 62.9486 62.9898C70.4438 59.8418 79.5879 57.7432 78.6885 56.2442C77.7891 54.7451 71.9286 54.364 69.4623 52.6058" stroke="url(#paint0_linear_7336_8393)" stroke-width="1.5" stroke-linecap="round" stroke-linejoin="round"/>
<path d="M63.1516 27.5326C63.1516 35.6206 59.6646 40.9692 56.7393 44.032C53.4189 47.5085 49.8689 49.0521 49.0799 49.0521C48.2909 49.0521 44.7407 47.5085 41.4202 44.032C38.4949 40.9691 35.0078 35.6206 35.0078 27.5326V21.001C35.0078 20.257 35.4955 19.603 36.2028 19.3721C40.3832 18.0073 44.3296 16.2037 48.1851 13.8962C48.7359 13.5666 49.4241 13.5663 49.9756 13.8949C53.7599 16.1494 57.8487 18.0171 61.9588 19.3701C62.6649 19.6025 63.1516 20.256 63.1516 20.9994V27.5326Z" fill="#FEFAF8" stroke="url(#paint1_linear_7336_8393)" stroke-width="1.5" stroke-linecap="round" stroke-linejoin="round"/>
<path d="M60.9672 28.0971C60.9672 34.9298 58.0214 39.4483 55.55 42.0358C52.745 44.9727 49.746 46.2767 49.0794 46.2767C48.4129 46.2767 45.4137 44.9727 42.6086 42.0358C40.1373 39.4482 37.1914 34.9298 37.1914 28.0971V22.7737C37.1914 22.0297 37.6792 21.3761 38.3856 21.1424C41.7984 20.0136 45.0278 18.5362 48.1837 16.6605C48.7356 16.3326 49.4235 16.3323 49.976 16.6591C53.077 18.4929 56.4156 20.0194 59.7751 21.1403C60.4802 21.3756 60.9672 22.0287 60.9672 22.7721V28.0971Z" fill="#FEFAF8" stroke="url(#paint2_linear_7336_8393)" stroke-width="1.5" stroke-linecap="round" stroke-linejoin="round"/>
<mask id="path-4-inside-1_7336_8393" fill="white">
<path d="M58.3565 24.0131L57.1157 23.6746C56.6645 23.5618 56.2133 23.1106 56.1005 22.6594L55.7621 21.4185C55.6493 21.0801 55.4237 20.8545 55.0853 20.8545C54.7469 20.8545 54.5213 21.0801 54.4085 21.4185L54.0701 22.6594C53.9573 23.1106 53.506 23.5618 53.0548 23.6746L51.814 24.0131C51.4756 24.1259 51.25 24.3515 51.25 24.6899C51.25 25.0283 51.4756 25.2539 51.814 25.3667L53.0548 25.7051C53.506 25.8179 53.9573 26.2692 54.0701 26.7204L54.4085 27.9613C54.5213 28.2997 54.7469 28.5253 55.0853 28.5253C55.4237 28.5253 55.6493 28.2997 55.7621 27.9613L56.1005 26.7204C56.2133 26.2692 56.6645 25.8179 57.1157 25.7051L58.3565 25.3667C58.695 25.2539 58.9206 25.0283 58.9206 24.6899C58.9206 24.3515 58.695 24.1259 58.3565 24.0131ZM55.0853 26.1564C54.8597 25.4795 54.2957 25.0283 53.7316 24.8027C54.4085 24.5771 54.8597 24.0131 55.0853 23.449C55.3109 24.1259 55.8749 24.5771 56.4389 24.8027C55.8749 25.0283 55.3109 25.4795 55.0853 26.1564Z"/>
</mask>
<path d="M58.3565 24.0131L58.8309 22.59L58.7914 22.5769L58.7512 22.5659L58.3565 24.0131ZM57.1157 23.6746L57.5104 22.2275L57.495 22.2233L57.4795 22.2194L57.1157 23.6746ZM56.1005 22.6594L57.5557 22.2956L57.5518 22.2801L57.5477 22.2647L56.1005 22.6594ZM55.7621 21.4185L57.2092 21.0239L57.1983 20.9837L57.1851 20.9442L55.7621 21.4185ZM54.4085 21.4185L52.9854 20.9442L52.9723 20.9837L52.9613 21.0239L54.4085 21.4185ZM54.0701 22.6594L52.6229 22.2647L52.6187 22.2801L52.6148 22.2956L54.0701 22.6594ZM53.0548 23.6746L52.691 22.2194L52.6755 22.2233L52.6601 22.2275L53.0548 23.6746ZM51.814 24.0131L51.4193 22.5659L51.3792 22.5769L51.3397 22.59L51.814 24.0131ZM51.814 25.3667L51.3397 26.7897L51.3792 26.8029L51.4193 26.8139L51.814 25.3667ZM53.0548 25.7051L52.6601 27.1523L52.6755 27.1565L52.691 27.1603L53.0548 25.7051ZM54.0701 26.7204L52.6148 27.0842L52.6187 27.0997L52.6229 27.1151L54.0701 26.7204ZM54.4085 27.9613L52.9613 28.3559L52.9723 28.3961L52.9854 28.4356L54.4085 27.9613ZM55.7621 27.9613L57.1851 28.4356L57.1983 28.3961L57.2092 28.3559L55.7621 27.9613ZM56.1005 26.7204L57.5477 27.1151L57.5518 27.0997L57.5557 27.0842L56.1005 26.7204ZM57.1157 25.7051L57.4795 27.1603L57.495 27.1565L57.5104 27.1523L57.1157 25.7051ZM58.3565 25.3667L58.7512 26.8139L58.7914 26.8029L58.8309 26.7897L58.3565 25.3667ZM55.0853 26.1564L53.6622 26.6307L55.0853 30.8999L56.5083 26.6307L55.0853 26.1564ZM53.7316 24.8027L53.2573 23.3797L49.3726 24.6746L53.1745 26.1954L53.7316 24.8027ZM55.0853 23.449L56.5083 22.9747L55.2134 19.0898L53.6926 22.892L55.0853 23.449ZM56.4389 24.8027L56.996 26.1954L60.4777 24.8027L56.996 23.41L56.4389 24.8027ZM58.7512 22.5659L57.5104 22.2275L56.721 25.1218L57.9619 25.4602L58.7512 22.5659ZM57.4795 22.2194C57.5347 22.2332 57.5605 22.2493 57.5605 22.2494C57.5618 22.2501 57.5536 22.245 57.5419 22.2333C57.5301 22.2215 57.525 22.2133 57.5258 22.2146C57.5258 22.2147 57.5419 22.2404 57.5557 22.2956L54.6453 23.0232C54.7819 23.5697 55.0915 24.0255 55.4205 24.3546C55.7496 24.6836 56.2054 24.9932 56.7519 25.1298L57.4795 22.2194ZM57.5477 22.2647L57.2092 21.0239L54.3149 21.8132L54.6534 23.054L57.5477 22.2647ZM57.1851 20.9442C56.9464 20.2279 56.2863 19.3545 55.0853 19.3545V22.3545C54.8925 22.3545 54.6822 22.2799 54.5205 22.1385C54.3813 22.0166 54.3424 21.9029 54.3391 21.8928L57.1851 20.9442ZM55.0853 19.3545C53.8842 19.3545 53.2242 20.228 52.9854 20.9442L55.8315 21.8928C55.8281 21.9029 55.7893 22.0166 55.65 22.1384C55.4884 22.2799 55.278 22.3545 55.0853 22.3545V19.3545ZM52.9613 21.0239L52.6229 22.2647L55.5172 23.054L55.8556 21.8132L52.9613 21.0239ZM52.6148 22.2956C52.6286 22.2404 52.6447 22.2147 52.6448 22.2146C52.6456 22.2133 52.6404 22.2215 52.6287 22.2333C52.6169 22.245 52.6087 22.2501 52.61 22.2494C52.6101 22.2493 52.6358 22.2332 52.691 22.2194L53.4186 25.1298C53.9652 24.9932 54.421 24.6836 54.75 24.3546C55.0791 24.0255 55.3886 23.5697 55.5253 23.0232L52.6148 22.2956ZM52.6601 22.2275L51.4193 22.5659L52.2087 25.4602L53.4495 25.1218L52.6601 22.2275ZM51.3397 22.59C50.6234 22.8288 49.75 23.4889 49.75 24.6899H52.75C52.75 24.8826 52.6754 25.0929 52.534 25.2546C52.4122 25.3938 52.2985 25.4327 52.2884 25.4361L51.3397 22.59ZM49.75 24.6899C49.75 25.8909 50.6234 26.551 51.3397 26.7897L52.2884 23.9437C52.2985 23.9471 52.4122 23.9859 52.534 24.1252C52.6754 24.2868 52.75 24.4972 52.75 24.6899H49.75ZM51.4193 26.8139L52.6601 27.1523L53.4495 24.258L52.2087 23.9196L51.4193 26.8139ZM52.691 27.1603C52.6358 27.1466 52.6101 27.1305 52.61 27.1304C52.6087 27.1296 52.6169 27.1347 52.6287 27.1465C52.6404 27.1583 52.6456 27.1665 52.6448 27.1652C52.6447 27.1651 52.6286 27.1394 52.6148 27.0842L55.5253 26.3566C55.3886 25.8101 55.0791 25.3543 54.75 25.0252C54.421 24.6961 53.9652 24.3866 53.4186 24.2499L52.691 27.1603ZM52.6229 27.1151L52.9613 28.3559L55.8556 27.5666L55.5172 26.3257L52.6229 27.1151ZM52.9854 28.4356C53.2242 29.1518 53.8842 30.0253 55.0853 30.0253V27.0253C55.278 27.0253 55.4884 27.0999 55.65 27.2413C55.7893 27.3631 55.8281 27.4768 55.8315 27.4869L52.9854 28.4356ZM55.0853 30.0253C56.2863 30.0253 56.9464 29.1518 57.1851 28.4356L54.3391 27.4869C54.3424 27.4768 54.3813 27.3631 54.5205 27.2413C54.6822 27.0999 54.8925 27.0253 55.0853 27.0253V30.0253ZM57.2092 28.3559L57.5477 27.1151L54.6534 26.3257L54.3149 27.5666L57.2092 28.3559ZM57.5557 27.0842C57.5419 27.1394 57.5258 27.1651 57.5258 27.1652C57.525 27.1665 57.5301 27.1583 57.5419 27.1465C57.5536 27.1347 57.5618 27.1296 57.5605 27.1304C57.5605 27.1305 57.5347 27.1466 57.4795 27.1603L56.7519 24.2499C56.2054 24.3866 55.7496 24.6961 55.4205 25.0252C55.0915 25.3543 54.7819 25.8101 54.6453 26.3566L57.5557 27.0842ZM57.5104 27.1523L58.7512 26.8139L57.9619 23.9196L56.721 24.258L57.5104 27.1523ZM58.8309 26.7897C59.5472 26.551 60.4206 25.8909 60.4206 24.6899H57.4206C57.4206 24.4972 57.4951 24.2868 57.6366 24.1252C57.7584 23.9859 57.8721 23.9471 57.8822 23.9437L58.8309 26.7897ZM60.4206 24.6899C60.4206 23.4889 59.5472 22.8288 58.8309 22.59L57.8822 25.4361C57.8721 25.4327 57.7584 25.3938 57.6366 25.2546C57.4951 25.0929 57.4206 24.8826 57.4206 24.6899H60.4206ZM56.5083 25.682C56.1043 24.4699 55.1325 23.7475 54.2887 23.41L53.1745 26.1954C53.4588 26.3091 53.6151 26.4891 53.6622 26.6307L56.5083 25.682ZM54.206 26.2257C55.4181 25.8217 56.1405 24.8499 56.478 24.0061L53.6926 22.892C53.5788 23.1762 53.3988 23.3325 53.2573 23.3797L54.206 26.2257ZM53.6622 23.9234C54.0663 25.1355 55.038 25.8579 55.8818 26.1954L56.996 23.41C56.7117 23.2963 56.5555 23.1163 56.5083 22.9747L53.6622 23.9234ZM55.8818 23.41C55.038 23.7475 54.0663 24.4699 53.6622 25.682L56.5083 26.6307C56.5555 26.4891 56.7117 26.3091 56.996 26.1954L55.8818 23.41Z" fill="url(#paint3_linear_7336_8393)" mask="url(#path-4-inside-1_7336_8393)"/>
<defs>
<linearGradient id="paint0_linear_7336_8393" x1="57.0288" y1="107.009" x2="23.1396" y2="103.527" gradientUnits="userSpaceOnUse">
<stop stop-color="#9E866C"/>
<stop offset="0.07" stop-color="#B8A284"/>
<stop offset="0.21" stop-color="#AD9378"/>
<stop offset="0.277551" stop-color="#DDCEBA"/>
<stop offset="0.332061" stop-color="#AB8F76"/>
<stop offset="0.66" stop-color="#735B42"/>
<stop offset="0.74" stop-color="#A58B6E"/>
<stop offset="0.91" stop-color="#B79A7A"/>
<stop offset="1" stop-color="#8F7E61"/>
</linearGradient>
<linearGradient id="paint1_linear_7336_8393" x1="55.2636" y1="76.9439" x2="42.8515" y2="76.3935" gradientUnits="userSpaceOnUse">
<stop stop-color="#9E866C"/>
<stop offset="0.07" stop-color="#B8A284"/>
<stop offset="0.21" stop-color="#AD9378"/>
<stop offset="0.277551" stop-color="#DDCEBA"/>
<stop offset="0.332061" stop-color="#AB8F76"/>
<stop offset="0.66" stop-color="#735B42"/>
<stop offset="0.74" stop-color="#A58B6E"/>
<stop offset="0.91" stop-color="#B79A7A"/>
<stop offset="1" stop-color="#8F7E61"/>
</linearGradient>
<linearGradient id="paint2_linear_7336_8393" x1="54.3034" y1="69.8395" x2="43.8177" y2="69.3746" gradientUnits="userSpaceOnUse">
<stop stop-color="#9E866C"/>
<stop offset="0.07" stop-color="#B8A284"/>
<stop offset="0.21" stop-color="#AD9378"/>
<stop offset="0.277551" stop-color="#DDCEBA"/>
<stop offset="0.332061" stop-color="#AB8F76"/>
<stop offset="0.66" stop-color="#735B42"/>
<stop offset="0.74" stop-color="#A58B6E"/>
<stop offset="0.91" stop-color="#B79A7A"/>
<stop offset="1" stop-color="#8F7E61"/>
</linearGradient>
<linearGradient id="paint3_linear_7336_8393" x1="56.7707" y1="34.5181" x2="53.3918" y2="34.328" gradientUnits="userSpaceOnUse">
<stop stop-color="#9E866C"/>
<stop offset="0.07" stop-color="#B8A284"/>
<stop offset="0.21" stop-color="#AD9378"/>
<stop offset="0.277551" stop-color="#DDCEBA"/>
<stop offset="0.332061" stop-color="#AB8F76"/>
<stop offset="0.66" stop-color="#735B42"/>
<stop offset="0.74" stop-color="#A58B6E"/>
<stop offset="0.91" stop-color="#B79A7A"/>
<stop offset="1" stop-color="#8F7E61"/>
</linearGradient>
</defs>
</svg>
