<svg width="30" height="19" viewBox="0 0 30 19" fill="none" xmlns="http://www.w3.org/2000/svg">
<path fill-rule="evenodd" clip-rule="evenodd" d="M5.82448 4.19775C5.36913 4.19775 5 4.56689 5 5.02224V9.02224C5 9.47759 5.36913 9.84672 5.82448 9.84672H12.8245V8.19775H6.64897V5.84672H12.8245V5.02224H16.8245V5.84672H23V8.19775H16.8245V9.84672H23.8245C24.2798 9.84672 24.649 9.47759 24.649 9.02224V5.02224C24.649 4.56689 24.2798 4.19775 23.8245 4.19775H5.82448Z" fill="#C4C4C4"/>
<path fill-rule="evenodd" clip-rule="evenodd" d="M5.82448 4.19775C5.36913 4.19775 5 4.56689 5 5.02224V9.02224C5 9.47759 5.36913 9.84672 5.82448 9.84672H12.8245V8.19775H6.64897V5.84672H12.8245V5.02224H16.8245V5.84672H23V8.19775H16.8245V9.84672H23.8245C24.2798 9.84672 24.649 9.47759 24.649 9.02224V5.02224C24.649 4.56689 24.2798 4.19775 23.8245 4.19775H5.82448Z" fill="black"/>
<path fill-rule="evenodd" clip-rule="evenodd" d="M16.8245 18.0222H12.8245V17.1978H8.64897V9.84672H12.8245V8.19775H7.82448C7.36913 8.19775 7 8.56689 7 9.02224V18.0222C7 18.4776 7.36913 18.8467 7.82448 18.8467H21.8245C22.2798 18.8467 22.649 18.4776 22.649 18.0222V9.02224C22.649 8.56689 22.2798 8.19775 21.8245 8.19775H16.8245V9.84672H21V17.1978H16.8245V18.0222Z" fill="#C4C4C4"/>
<path fill-rule="evenodd" clip-rule="evenodd" d="M16.8245 18.0222H12.8245V17.1978H8.64897V9.84672H12.8245V8.19775H7.82448C7.36913 8.19775 7 8.56689 7 9.02224V18.0222C7 18.4776 7.36913 18.8467 7.82448 18.8467H21.8245C22.2798 18.8467 22.649 18.4776 22.649 18.0222V9.02224C22.649 8.56689 22.2798 8.19775 21.8245 8.19775H16.8245V9.84672H21V17.1978H16.8245V18.0222Z" fill="black"/>
<rect width="4" height="13" transform="matrix(1 0 0 -1 12.8247 18.0222)" stroke="#C4C4C4" stroke-width="1.64897" stroke-linecap="round" stroke-linejoin="round"/>
<rect width="4" height="13" transform="matrix(1 0 0 -1 12.8247 18.0222)" stroke="black" stroke-width="1.64897" stroke-linecap="round" stroke-linejoin="round"/>
<path d="M14.8247 4.52211C15.4914 2.85544 17.1335 -0.230906 19.3247 1.52213C21.8247 3.52219 17.158 3.85544 14.8247 4.52211Z" stroke="#C4C4C4" stroke-width="1.64897" stroke-linecap="round" stroke-linejoin="round"/>
<path d="M14.8247 4.52211C15.4914 2.85544 17.1335 -0.230906 19.3247 1.52213C21.8247 3.52219 17.158 3.85544 14.8247 4.52211Z" stroke="black" stroke-width="1.64897" stroke-linecap="round" stroke-linejoin="round"/>
<path d="M14.0405 4.52211C13.3739 2.85544 11.7317 -0.230906 9.54053 1.52213C7.04053 3.52219 11.7072 3.85544 14.0405 4.52211Z" stroke="#C4C4C4" stroke-width="1.64897" stroke-linecap="round" stroke-linejoin="round"/>
<path d="M14.0405 4.52211C13.3739 2.85544 11.7317 -0.230906 9.54053 1.52213C7.04053 3.52219 11.7072 3.85544 14.0405 4.52211Z" stroke="black" stroke-width="1.64897" stroke-linecap="round" stroke-linejoin="round"/>
</svg>
