<svg width="80" height="80" viewBox="0 0 80 80" fill="none" xmlns="http://www.w3.org/2000/svg">
<path d="M39.9993 79.9991C62.0904 79.9991 79.9987 62.0907 79.9987 39.9996C79.9987 17.9084 62.0904 0 39.9993 0C17.9083 0 0 17.9084 0 39.9996C0 62.0907 17.9083 79.9991 39.9993 79.9991Z" fill="url(#paint0_linear_564_143)"/>
<rect x="3.5" y="3.5" width="73" height="73" rx="36.5" fill="url(#paint1_linear_564_143)" stroke="white"/>
<path d="M11.5901 40.902V38.588H17.9861V40.902H11.5901ZM24.7197 45.608H31.9737V48H19.6757V47.376L25.7857 40.798C27.5277 38.952 28.5157 37.626 28.5157 36.092C28.5157 34.428 27.4497 33.076 25.6557 33.076C23.8617 33.076 22.7437 34.48 22.7437 36.196C22.7437 36.534 22.7957 37.054 22.8737 37.522H20.0917C19.9617 37.028 19.9097 36.456 19.9097 36.04C19.9097 33.31 22.0677 30.554 25.6817 30.554C28.9837 30.554 31.3757 32.842 31.3757 35.884C31.3757 38.458 29.6077 40.434 27.7357 42.41L24.7197 45.608ZM40.9766 48.286C36.4266 48.286 34.4246 44.178 34.4246 39.264C34.4246 34.298 36.5046 30.554 40.9766 30.554C45.4486 30.554 47.5026 34.298 47.5026 39.264C47.5026 44.178 45.5006 48.286 40.9766 48.286ZM40.9766 45.764C43.6026 45.764 44.6426 43.138 44.6426 39.29C44.6426 35.494 43.6026 33.076 40.9766 33.076C38.3246 33.076 37.2846 35.494 37.2846 39.29C37.2846 43.138 38.3246 45.764 40.9766 45.764ZM54.5226 39.004C52.1046 39.004 50.1546 37.184 50.1546 34.766C50.1546 32.374 52.1046 30.554 54.5226 30.554C56.8886 30.554 58.8386 32.374 58.8386 34.766C58.8386 37.184 56.8886 39.004 54.5226 39.004ZM53.5866 48L63.4146 30.84H65.7286L55.8746 48H53.5866ZM54.5226 37.054C55.7446 37.054 56.6806 36.092 56.6806 34.766C56.6806 33.466 55.7446 32.478 54.5226 32.478C53.2486 32.478 52.3646 33.466 52.3646 34.766C52.3646 36.092 53.2486 37.054 54.5226 37.054ZM64.7666 48.26C62.3746 48.26 60.4506 46.44 60.4506 44.048C60.4506 41.63 62.3746 39.81 64.7666 39.81C67.1586 39.81 69.1086 41.63 69.1086 44.048C69.1086 46.44 67.1586 48.26 64.7666 48.26ZM64.7926 46.31C65.9886 46.31 66.9246 45.348 66.9246 44.048C66.9246 42.722 65.9886 41.76 64.7926 41.76C63.4926 41.76 62.6346 42.722 62.6346 44.048C62.6346 45.348 63.4926 46.31 64.7926 46.31Z" fill="#EC90A1"/>
<path d="M11.5901 40.902V38.588H17.9861V40.902H11.5901ZM24.7197 45.608H31.9737V48H19.6757V47.376L25.7857 40.798C27.5277 38.952 28.5157 37.626 28.5157 36.092C28.5157 34.428 27.4497 33.076 25.6557 33.076C23.8617 33.076 22.7437 34.48 22.7437 36.196C22.7437 36.534 22.7957 37.054 22.8737 37.522H20.0917C19.9617 37.028 19.9097 36.456 19.9097 36.04C19.9097 33.31 22.0677 30.554 25.6817 30.554C28.9837 30.554 31.3757 32.842 31.3757 35.884C31.3757 38.458 29.6077 40.434 27.7357 42.41L24.7197 45.608ZM40.9766 48.286C36.4266 48.286 34.4246 44.178 34.4246 39.264C34.4246 34.298 36.5046 30.554 40.9766 30.554C45.4486 30.554 47.5026 34.298 47.5026 39.264C47.5026 44.178 45.5006 48.286 40.9766 48.286ZM40.9766 45.764C43.6026 45.764 44.6426 43.138 44.6426 39.29C44.6426 35.494 43.6026 33.076 40.9766 33.076C38.3246 33.076 37.2846 35.494 37.2846 39.29C37.2846 43.138 38.3246 45.764 40.9766 45.764ZM54.5226 39.004C52.1046 39.004 50.1546 37.184 50.1546 34.766C50.1546 32.374 52.1046 30.554 54.5226 30.554C56.8886 30.554 58.8386 32.374 58.8386 34.766C58.8386 37.184 56.8886 39.004 54.5226 39.004ZM53.5866 48L63.4146 30.84H65.7286L55.8746 48H53.5866ZM54.5226 37.054C55.7446 37.054 56.6806 36.092 56.6806 34.766C56.6806 33.466 55.7446 32.478 54.5226 32.478C53.2486 32.478 52.3646 33.466 52.3646 34.766C52.3646 36.092 53.2486 37.054 54.5226 37.054ZM64.7666 48.26C62.3746 48.26 60.4506 46.44 60.4506 44.048C60.4506 41.63 62.3746 39.81 64.7666 39.81C67.1586 39.81 69.1086 41.63 69.1086 44.048C69.1086 46.44 67.1586 48.26 64.7666 48.26ZM64.7926 46.31C65.9886 46.31 66.9246 45.348 66.9246 44.048C66.9246 42.722 65.9886 41.76 64.7926 41.76C63.4926 41.76 62.6346 42.722 62.6346 44.048C62.6346 45.348 63.4926 46.31 64.7926 46.31Z" fill="white"/>
<path d="M17 17.8201L17.607 17.2945L18.9111 18.8001L20.8116 17.1536L19.5076 15.648L20.1146 15.1223L23.3877 18.9007L22.7807 19.4263L21.2829 17.6976L19.3823 19.3442L20.8801 21.0729L20.2731 21.5985L17 17.8201ZM26.6769 16.0374L24.7266 17.1591L24.8331 18.0585L24.0914 18.4851L23.4679 12.9811L23.7043 12.8449L28.1488 16.1517L27.4001 16.5822L26.6765 16.0374H26.6769ZM24.3305 14.2065L24.6327 16.4178L26.0835 15.5834L24.3305 14.2065ZM32.5616 11.96C32.8696 11.9725 33.133 12.0625 33.3514 12.2316C33.5702 12.4003 33.7217 12.6332 33.8058 12.9294C33.8814 13.1964 33.8849 13.4551 33.8176 13.7056C33.7491 13.9556 33.614 14.174 33.4125 14.3599C33.2105 14.5462 32.9542 14.6828 32.643 14.7709L30.5813 15.356L29.2165 10.5471L30.8998 10.0692C31.1863 9.98823 31.4544 9.9714 31.7041 10.0184C31.9538 10.0657 32.1659 10.1694 32.3401 10.3295C32.5143 10.4904 32.6364 10.6947 32.7068 10.9424C32.7593 11.1268 32.7734 11.3056 32.7487 11.477C32.7241 11.6496 32.6622 11.8105 32.5624 11.9596L32.5616 11.96ZM30.1664 11.0093L30.5347 12.3064L31.3871 12.0645C31.6247 11.9968 31.7918 11.8856 31.8865 11.7303C31.9812 11.5745 32.0008 11.3968 31.9444 11.198C31.8881 10.9988 31.7789 10.8602 31.6176 10.7827C31.4568 10.7052 31.2568 10.7005 31.0192 10.7675L30.1668 11.0093H30.1664ZM32.3851 14.1118C32.652 14.0363 32.8411 13.9102 32.9514 13.7349C33.061 13.5592 33.0841 13.3572 33.0195 13.1287C32.9546 12.9005 32.8285 12.7396 32.6426 12.6453C32.4556 12.5518 32.2286 12.5424 31.9616 12.6183L30.7229 12.9698L31.1468 14.4637L32.3855 14.1118H32.3851ZM35.7885 9.90604L34.1119 10.0336L34.0571 9.31624L38.2186 9L38.2734 9.71701L36.5893 9.84499L36.9138 14.1122L36.113 14.1733L35.7882 9.90604H35.7885ZM41.5438 14.2308C41.0655 14.1944 40.6346 14.0476 40.2518 13.7905C39.8691 13.5337 39.5767 13.2003 39.3748 12.7901C39.1728 12.38 39.0902 11.9353 39.1266 11.4571C39.163 10.9784 39.3133 10.5518 39.5775 10.1773C39.8413 9.80233 40.181 9.51662 40.5959 9.32054C41.0107 9.12407 41.4573 9.04462 41.9356 9.08102C42.4091 9.11702 42.8385 9.2634 43.2236 9.52054C43.6091 9.77767 43.9042 10.1115 44.1085 10.5217C44.3128 10.9322 44.3969 11.3768 44.3601 11.8551C44.3237 12.3338 44.1735 12.7604 43.9093 13.1349C43.6459 13.5099 43.3038 13.7952 42.8839 13.9909C42.4635 14.1869 42.0174 14.2668 41.5438 14.2308ZM41.6072 13.4989C41.9446 13.5243 42.2549 13.4684 42.5391 13.3302C42.8228 13.1925 43.0541 12.9885 43.231 12.7181C43.4087 12.4484 43.5109 12.1369 43.5379 11.7847C43.5641 11.4418 43.5093 11.124 43.3747 10.8301C43.24 10.5362 43.0428 10.2998 42.7833 10.1205C42.5234 9.94088 42.2248 9.83912 41.8874 9.81329C41.545 9.78706 41.2319 9.84303 40.9477 9.98119C40.6636 10.1186 40.4342 10.3217 40.2597 10.5894C40.0851 10.8571 39.9845 11.1647 39.9579 11.5127C39.9313 11.8649 39.9837 12.1878 40.1156 12.4809C40.2479 12.7749 40.444 13.0112 40.7039 13.1905C40.9638 13.3701 41.2647 13.4723 41.6072 13.4985V13.4989ZM46.4615 9.88961L48.2176 10.3882C48.5381 10.479 48.8046 10.6215 49.0176 10.816C49.2301 11.0101 49.3725 11.2379 49.4453 11.5001C49.5181 11.762 49.5138 12.0359 49.432 12.3224C49.351 12.6093 49.2101 12.8449 49.0113 13.03C48.8113 13.2148 48.5698 13.3349 48.2865 13.3913C48.0031 13.4472 47.701 13.4296 47.3804 13.3384L46.3969 13.0594L45.8697 14.9177L45.0971 14.6985L46.4619 9.88921L46.4615 9.88961ZM47.5601 12.6496C47.8321 12.7267 48.063 12.7154 48.2512 12.6136C48.4403 12.5122 48.5683 12.3428 48.6356 12.1044C48.7033 11.8665 48.6837 11.6536 48.5765 11.4657C48.47 11.2778 48.2802 11.1455 48.0086 11.0684L47.0395 10.7933L46.5906 12.3741L47.5597 12.6492L47.5601 12.6496ZM51.3474 17.136C50.9204 16.9172 50.5796 16.6155 50.3259 16.2303C50.0727 15.8456 49.9318 15.4245 49.9044 14.9681C49.8774 14.5114 49.9729 14.0699 50.1913 13.6429C50.4105 13.2159 50.7134 12.8805 51.1024 12.6371C51.4907 12.3936 51.9145 12.2618 52.3729 12.2414C52.8315 12.2211 53.2742 12.3197 53.7012 12.5385C54.1235 12.7553 54.4628 13.0563 54.7188 13.4425C54.9747 13.8288 55.1176 14.2507 55.1469 14.7083C55.1767 15.1662 55.082 15.6084 54.8636 16.0354C54.6448 16.4624 54.3415 16.7978 53.9525 17.0413C53.5642 17.2847 53.1384 17.4154 52.6754 17.4334C52.2124 17.4514 51.7697 17.3528 51.3474 17.136ZM51.6887 16.4855C51.9901 16.6397 52.2977 16.7086 52.6136 16.691C52.9282 16.6738 53.2202 16.5751 53.4883 16.3943C53.7564 16.2143 53.9712 15.9669 54.1325 15.6523C54.289 15.3466 54.3618 15.0319 54.3517 14.709C54.3411 14.3858 54.2507 14.0915 54.0808 13.8257C53.9102 13.56 53.675 13.3498 53.3736 13.1956C53.0683 13.0394 52.758 12.9698 52.4425 12.9866C52.1271 13.0038 51.8371 13.1024 51.5725 13.2817C51.3079 13.4609 51.0958 13.7056 50.9369 14.0159C50.776 14.3302 50.6997 14.6488 50.7079 14.9705C50.7161 15.2926 50.805 15.5865 50.9756 15.8519C51.1459 16.118 51.3838 16.329 51.6891 16.4855H51.6887ZM61.0137 17.7285L57.6862 21.5695L57.0792 21.0439L59.3656 18.4048L54.6832 19.0784L54.471 18.8948L57.7989 15.0539L58.4056 15.5795L56.1246 18.2127L60.8016 17.5446L61.0137 17.7281V17.7285ZM59.7374 16.102C59.4631 15.864 59.3167 15.583 59.2987 15.2605C59.2811 14.938 59.3962 14.6335 59.6443 14.347L59.7433 14.2327L60.2361 14.6593L60.1218 14.7912C59.9864 14.9474 59.9167 15.1028 59.9136 15.257C59.91 15.4112 59.9774 15.5478 60.1147 15.6668C60.2521 15.7857 60.3969 15.8343 60.5492 15.8127C60.7018 15.7908 60.8474 15.7004 60.9863 15.5399L61.1002 15.4081L61.5984 15.8397L61.4994 15.954C61.2517 16.2401 60.9656 16.3967 60.6415 16.4233C60.3179 16.4503 60.0165 16.3434 59.7378 16.102H59.7374Z" fill="white"/>
<path d="M28.4243 66.056L26.86 65.4388L27.1238 64.7695L31.0066 66.301L30.7425 66.9706L29.1715 66.3507L27.6012 70.3314L26.8545 70.0371L28.4247 66.056H28.4243ZM33.0571 71.994C32.5847 71.9099 32.171 71.7204 31.8156 71.4261C31.4602 71.1322 31.2031 70.7709 31.0434 70.3424C30.8841 69.9138 30.8462 69.4633 30.9307 68.9909C31.0149 68.5186 31.2074 68.1092 31.5076 67.7628C31.8078 67.416 32.1745 67.1663 32.6074 67.0129C33.0398 66.8591 33.4923 66.8243 33.9647 66.9088C34.432 66.9922 34.8441 67.1812 35.2022 67.4759C35.5599 67.7706 35.8198 68.1323 35.9815 68.5612C36.1439 68.9902 36.183 69.4406 36.0985 69.913C36.0143 70.3854 35.8218 70.7948 35.5212 71.1412C35.221 71.4879 34.8519 71.7373 34.4144 71.8899C33.9768 72.0425 33.5244 72.0774 33.0571 71.994ZM33.1937 71.2719C33.5267 71.3314 33.8414 71.3071 34.1377 71.1979C34.4339 71.0895 34.684 70.9095 34.8879 70.6586C35.0918 70.4081 35.2249 70.1087 35.2868 69.7608C35.3474 69.4226 35.3251 69.1005 35.2202 68.7949C35.1161 68.4884 34.9431 68.2336 34.7028 68.0289C34.4621 67.8242 34.1756 67.6927 33.8426 67.6333C33.5044 67.573 33.1874 67.5969 32.8907 67.7061C32.5945 67.8145 32.3459 67.9933 32.1448 68.2422C31.944 68.4908 31.8133 68.7866 31.7522 69.1299C31.69 69.4778 31.7099 69.8042 31.8117 70.1095C31.9139 70.4152 32.0849 70.67 32.326 70.8747C32.5663 71.0793 32.8555 71.2116 33.1937 71.2715V71.2719ZM40.4494 69.7146C40.7445 69.8031 40.977 69.9561 41.1469 70.1741C41.3167 70.3925 41.4052 70.6555 41.413 70.9635C41.4201 71.241 41.359 71.4923 41.231 71.7181C41.103 71.9435 40.9179 72.1212 40.676 72.2507C40.4346 72.3807 40.152 72.4496 39.8291 72.4578L37.6859 72.5118L37.5603 67.5151L39.3097 67.4708C39.6072 67.463 39.871 67.5135 40.1011 67.6215C40.3312 67.7291 40.5105 67.8826 40.6393 68.081C40.768 68.2802 40.8357 68.508 40.842 68.7655C40.8471 68.9573 40.8162 69.1338 40.7496 69.2939C40.6831 69.4551 40.5829 69.5948 40.4494 69.7146ZM38.3657 68.1984L38.3998 69.5463L39.2859 69.524C39.5328 69.5177 39.7223 69.4512 39.8526 69.324C39.9833 69.1972 40.0463 69.0297 40.0408 68.823C40.0358 68.616 39.9649 68.4544 39.8275 68.3393C39.6913 68.2242 39.4988 68.1694 39.2518 68.1757L38.3657 68.198V68.1984ZM39.7434 71.7553C40.0209 71.7482 40.235 71.6735 40.3856 71.531C40.5359 71.3881 40.6087 71.1979 40.6029 70.9608C40.597 70.7236 40.5148 70.5361 40.3575 70.3987C40.1997 70.2618 39.9825 70.1964 39.7046 70.203L38.4174 70.2355L38.4565 71.7881L39.7438 71.7557L39.7434 71.7553ZM46.1471 70.8465L43.9323 71.2414L43.728 72.1239L42.8858 72.2742L44.1628 66.8842L44.4313 66.836L47.4935 71.4519L46.6434 71.6034L46.1467 70.8461L46.1471 70.8465ZM44.5593 68.3291L44.0951 70.5122L45.7428 70.2183L44.5593 68.3291ZM47.4097 66.1339L49.1079 65.4634C49.4179 65.3413 49.7165 65.2928 50.0034 65.3182C50.2899 65.3437 50.5415 65.438 50.7588 65.6024C50.9756 65.7664 51.138 65.9867 51.2476 66.2642C51.3572 66.5417 51.3885 66.8141 51.3423 67.0822C51.2957 67.3503 51.1768 67.5926 50.9858 67.809C50.794 68.0258 50.5431 68.1949 50.2335 68.3174L49.2821 68.6927L49.9905 70.4891L49.2437 70.7839L47.4093 66.1339H47.4097ZM49.958 67.6606C50.221 67.5569 50.3971 67.4078 50.4852 67.2125C50.574 67.0172 50.5729 66.8051 50.4821 66.5746C50.3916 66.3444 50.2468 66.1871 50.0476 66.1026C49.8488 66.0184 49.6179 66.0282 49.3549 66.1315L48.4175 66.5014L49.0206 68.0305L49.958 67.6606Z" fill="white"/>
<defs>
<linearGradient id="paint0_linear_564_143" x1="1.38886e-06" y1="60.2292" x2="74.022" y2="13.3336" gradientUnits="userSpaceOnUse">
<stop stop-color="#B9BDE1"/>
<stop offset="1" stop-color="#A2A5E5"/>
</linearGradient>
<linearGradient id="paint1_linear_564_143" x1="4.51428" y1="5.54286" x2="71.3714" y2="72.4" gradientUnits="userSpaceOnUse">
<stop stop-color="white" stop-opacity="0.4"/>
<stop offset="0.259297" stop-color="white" stop-opacity="0"/>
<stop offset="0.795987" stop-color="white" stop-opacity="0"/>
<stop offset="1" stop-color="white" stop-opacity="0.4"/>
</linearGradient>
</defs>
</svg>
