<svg width="80" height="80" viewBox="0 0 80 80" fill="none" xmlns="http://www.w3.org/2000/svg">
<path d="M39.9993 79.9991C62.0904 79.9991 79.9987 62.0907 79.9987 39.9996C79.9987 17.9084 62.0904 0 39.9993 0C17.9083 0 0 17.9084 0 39.9996C0 62.0907 17.9083 79.9991 39.9993 79.9991Z" fill="#705F80"/>
<rect x="3.05811" y="3.5" width="73" height="73" rx="36.5" stroke="url(#paint0_linear_306_1478)"/>
<rect x="3.05811" y="3.5" width="73" height="73" rx="36.5" stroke="white"/>
<path d="M24.3204 31.3395H27.0764V48.7855H26.1404L15.6884 36.8775V48.4995H12.9324V31.0535H13.8944L24.3204 42.9095V31.3395ZM30.8968 48.4995V31.3395H42.1808V33.8095H33.6528V38.2035H40.0748V40.5955H33.6528V46.0295H42.4928V48.4995H30.8968ZM66.3955 31.3395H69.4115L62.7295 48.7855H61.8195L56.6975 36.6175L51.5755 48.7855H50.6395L43.9575 31.3395H46.9995L51.2895 42.9355L56.2035 31.0535H57.1655L62.1055 42.9355L66.3955 31.3395Z" fill="url(#paint1_linear_306_1478)"/>
<path d="M24.3204 31.3395H27.0764V48.7855H26.1404L15.6884 36.8775V48.4995H12.9324V31.0535H13.8944L24.3204 42.9095V31.3395ZM30.8968 48.4995V31.3395H42.1808V33.8095H33.6528V38.2035H40.0748V40.5955H33.6528V46.0295H42.4928V48.4995H30.8968ZM66.3955 31.3395H69.4115L62.7295 48.7855H61.8195L56.6975 36.6175L51.5755 48.7855H50.6395L43.9575 31.3395H46.9995L51.2895 42.9355L56.2035 31.0535H57.1655L62.1055 42.9355L66.3955 31.3395Z" fill="white"/>
<defs>
<linearGradient id="paint0_linear_306_1478" x1="3.55811" y1="40.0001" x2="75.5581" y2="40.0001" gradientUnits="userSpaceOnUse">
<stop stop-color="#B6B6B6"/>
<stop offset="0.07" stop-color="#BEBEBE"/>
<stop offset="0.125" stop-color="white"/>
<stop offset="0.21" stop-color="#DBDBDB"/>
<stop offset="0.34" stop-color="#B7B7B7"/>
<stop offset="0.66" stop-color="#797979"/>
<stop offset="0.74" stop-color="#AAAAAA"/>
<stop offset="0.91" stop-color="#C2C2C2"/>
<stop offset="1" stop-color="#9C9C9C"/>
</linearGradient>
<linearGradient id="paint1_linear_306_1478" x1="59.6981" y1="73.17" x2="-7.1054" y2="16.6936" gradientUnits="userSpaceOnUse">
<stop offset="0.109375" stop-color="#EDEEF1"/>
<stop offset="0.174361" stop-color="#8F959F"/>
<stop offset="0.21" stop-color="#B5BAC1"/>
<stop offset="0.34" stop-color="#868D97"/>
<stop offset="0.47283" stop-color="#6D7682"/>
<stop offset="0.4984" stop-color="white"/>
<stop offset="0.624216" stop-color="#868D97"/>
<stop offset="0.91" stop-color="#B5BAC1"/>
<stop offset="1" stop-color="#868D97"/>
</linearGradient>
</defs>
</svg>
