<svg width="80" height="80" viewBox="0 0 80 80" fill="none" xmlns="http://www.w3.org/2000/svg">
<circle cx="40" cy="40" r="40" fill="url(#paint0_linear_7554_253)"/>
<path d="M23.7625 33.84H26.5185V51.286H25.5825L15.1305 39.378V51H12.3745V33.554H13.3365L23.7625 45.41V33.84Z" fill="white"/>
<path d="M30.3389 51V33.84H41.6229V36.31H33.0949V40.704H39.5169V43.096H33.0949V48.53H41.9349V51H30.3389Z" fill="white"/>
<path d="M65.8376 33.84H68.8536L62.1716 51.286H61.2616L56.1396 39.118L51.0176 51.286H50.0816L43.3996 33.84H46.4416L50.7316 45.436L55.6456 33.554H56.6076L61.5476 45.436L65.8376 33.84Z" fill="white"/>
<path d="M15.2878 25.5289C14.9713 26.003 14.5675 26.3646 14.0764 26.6139C13.5887 26.8582 13.0736 26.9652 12.5311 26.9349C11.9886 26.9046 11.4803 26.7312 11.0063 26.4147C10.5322 26.0982 10.1772 25.6953 9.94121 25.2059C9.70856 24.7115 9.61155 24.1922 9.65019 23.6481C9.68882 23.104 9.86638 22.5949 10.1829 22.1208C10.496 21.6517 10.8981 21.2926 11.3892 21.0433C11.8803 20.794 12.3971 20.6845 12.9395 20.7148C13.4854 20.7401 13.9953 20.911 14.4693 21.2275C14.9434 21.544 15.2968 21.9494 15.5294 22.4438C15.7654 22.9332 15.8624 23.4525 15.8204 24.0016C15.7785 24.5507 15.6009 25.0598 15.2878 25.5289ZM14.5667 25.0367C14.7899 24.7024 14.9141 24.3488 14.9393 23.9761C14.9595 23.6 14.8816 23.2413 14.7054 22.9001C14.5292 22.5588 14.2665 22.2716 13.9172 22.0384C13.5778 21.8118 13.2168 21.6826 12.8341 21.6508C12.4514 21.6189 12.0927 21.6861 11.7581 21.8523C11.4185 22.0151 11.1371 22.2637 10.9139 22.598C10.6874 22.9374 10.564 23.2951 10.5438 23.6712C10.5186 24.0439 10.5941 24.4009 10.7702 24.7421C10.9448 25.0751 11.2042 25.3565 11.5485 25.5864C11.8978 25.8196 12.2621 25.9546 12.6415 25.9915C13.0243 26.0233 13.3854 25.9578 13.725 25.795C14.0596 25.6288 14.3402 25.376 14.5667 25.0367Z" fill="white"/>
<path d="M13.7712 17.6673L16.4568 15.0587L17.0525 15.672L15.0512 17.6159L16.111 18.7069L17.0277 17.8165C17.3118 17.5406 17.6136 17.3519 17.9334 17.2505C18.2574 17.1449 18.5715 17.1324 18.8759 17.2132C19.1803 17.2856 19.4538 17.4465 19.6962 17.6962C19.9387 17.9458 20.0958 18.2281 20.1676 18.5431C20.2396 18.8497 20.218 19.1634 20.1031 19.4842C19.9924 19.8008 19.795 20.0971 19.511 20.373L17.9099 21.9281L13.7712 17.6673ZM18.9019 19.7977C19.143 19.5636 19.2696 19.3193 19.2817 19.0649C19.2982 18.8063 19.2061 18.5737 19.0055 18.3671C18.8048 18.1605 18.575 18.0617 18.316 18.0707C18.0614 18.0755 17.8135 18.1949 17.5725 18.429L16.6816 19.2944L18.011 20.663L18.9019 19.7977Z" fill="white"/>
<path d="M18.6165 13.2693L19.4177 12.7513L20.7029 14.7389L23.2121 13.1165L21.9268 11.1288L22.7279 10.6108L25.9533 15.5988L25.1522 16.1168L23.6763 13.8344L21.1672 15.4569L22.643 17.7393L21.8419 18.2573L18.6165 13.2693Z" fill="white"/>
<path d="M29.981 14.0218C29.4451 14.216 28.9056 14.268 28.3623 14.1777C27.8246 14.0853 27.3464 13.8662 26.9274 13.5203C26.5085 13.1743 26.2019 12.7334 26.0077 12.1975C25.8134 11.6616 25.7663 11.1266 25.8663 10.5926C25.972 10.0565 26.2017 9.5808 26.5553 9.16545C26.9089 8.75009 27.3537 8.44531 27.8896 8.25109C28.4198 8.05891 28.9566 8.00797 29.4999 8.09826C30.0431 8.18854 30.5243 8.40666 30.9432 8.75261C31.3678 9.09652 31.6772 9.53642 31.8714 10.0723C32.0656 10.6082 32.1099 11.1442 32.0043 11.6803C31.9042 12.2143 31.6746 12.69 31.3153 13.1074C30.956 13.5248 30.5113 13.8296 29.981 14.0218ZM29.692 13.198C30.07 13.061 30.3796 12.8499 30.6208 12.5646C30.86 12.2737 31.0098 11.9386 31.0702 11.5593C31.1305 11.18 31.0892 10.793 30.9461 10.3981C30.807 10.0145 30.5928 9.69648 30.3035 9.44396C30.0141 9.19144 29.6855 9.03295 29.3175 8.96848C28.9474 8.89837 28.5735 8.9318 28.1955 9.06878C27.8119 9.2078 27.5005 9.42276 27.2613 9.71367C27.0201 9.99894 26.8693 10.3312 26.8089 10.7105C26.7521 11.0821 26.7943 11.4625 26.9353 11.8517C27.0785 12.2466 27.2919 12.5713 27.5756 12.8258C27.8649 13.0784 28.1946 13.2397 28.5647 13.3098C28.9327 13.3743 29.3084 13.337 29.692 13.198Z" fill="white"/>
<path d="M36.9721 9.03355C37.3322 9.09974 37.6252 9.25073 37.8509 9.48652C38.0826 9.72151 38.2231 10.0203 38.2723 10.383C38.3166 10.71 38.2763 11.0152 38.1513 11.2986C38.0322 11.5812 37.837 11.8165 37.5659 12.0047C37.2998 12.1861 36.9766 12.3026 36.596 12.3542L34.0722 12.6966L33.2736 6.81055L35.3338 6.53107C35.6846 6.48349 36.003 6.50992 36.2891 6.61037C36.5744 6.70487 36.8045 6.86136 36.9795 7.07982C37.1604 7.29748 37.2714 7.55792 37.3125 7.86114C37.3432 8.08707 37.3298 8.30081 37.2724 8.50236C37.2141 8.69796 37.114 8.87503 36.9721 9.03355ZM34.3137 7.51413L34.529 9.10159L35.5725 8.96003C35.8638 8.92051 36.0771 8.81892 36.2123 8.65525C36.3527 8.48484 36.4063 8.27775 36.3732 8.03398C36.3402 7.79021 36.2341 7.61084 36.055 7.49587C35.8811 7.37415 35.6484 7.33305 35.3571 7.37257L34.3137 7.51413ZM36.4033 11.5357C36.7303 11.4914 36.9721 11.3768 37.1287 11.1921C37.2904 11.0006 37.3523 10.7652 37.3144 10.4857C37.2765 10.2063 37.1541 9.99582 36.9472 9.85435C36.7462 9.71207 36.4822 9.66311 36.1552 9.70748L34.6391 9.91316L34.8871 11.7414L36.4033 11.5357Z" fill="white"/>
<path d="M44.794 6.43792L44.4047 12.3652L43.4528 12.3026L43.786 7.22856L41.7744 7.09643C41.6523 8.40525 41.4979 9.42933 41.311 10.1687C41.1245 10.902 40.8922 11.4189 40.6139 11.7193C40.336 12.0137 39.9845 12.147 39.5594 12.1191C39.3798 12.1073 39.2377 12.0739 39.1331 12.0189L39.1867 11.2017C39.2099 11.2152 39.2933 11.2267 39.437 11.2361C39.7064 11.2538 39.9322 11.1123 40.1143 10.8116C40.2964 10.5109 40.4432 10.0606 40.5548 9.46059C40.6723 8.861 40.771 8.09181 40.8507 7.15302L40.9233 6.1837L44.794 6.43792Z" fill="white"/>
<path d="M47.8155 6.98456L51.5856 8.00621L51.3619 8.83144L48.5127 8.05932L48.1149 9.52737L50.2605 10.1088L50.0439 10.908L47.8983 10.3265L47.4063 12.1421L50.3598 12.9424L50.1361 13.7677L46.2619 12.7178L47.8155 6.98456Z" fill="white"/>
<path d="M53.8308 8.81454L54.6858 9.2378L53.6356 11.3591L56.3135 12.6848L57.3636 10.5635L58.2186 10.9868L55.5832 16.3101L54.7282 15.8869L55.9341 13.451L53.2563 12.1253L52.0504 14.5612L51.1954 14.1379L53.8308 8.81454Z" fill="white"/>
<path d="M60.5673 12.4669L61.3135 13.0613L59.8387 14.9127L62.1758 16.7744L63.6506 14.923L64.3968 15.5174L60.6957 20.1635L59.9496 19.5691L61.6431 17.4431L59.306 15.5814L57.6124 17.7073L56.8663 17.1129L60.5673 12.4669Z" fill="white"/>
<path d="M64.6534 23.1365L62.9277 21.0952L61.8986 21.4113L61.242 20.6346L67.5447 18.736L67.7539 18.9835L64.8328 24.8823L64.1704 24.0987L64.6534 23.1365ZM66.2953 20.0044L63.774 20.8277L65.0581 22.3466L66.2953 20.0044Z" fill="white"/>
<path d="M72.3941 26.1342L67.2359 29.0798L66.7628 28.2513L68.6229 27.1892L68.1365 26.3373L65.5177 26.0708L65 25.1642L67.7884 25.4374C67.7141 25.0169 67.7544 24.6277 67.9093 24.2698C68.0642 23.9119 68.3188 23.6317 68.6731 23.4294C68.9962 23.245 69.3248 23.161 69.6589 23.1774C69.9983 23.1909 70.316 23.2997 70.6122 23.5037C70.9165 23.7099 71.1743 23.998 71.3855 24.3679L72.3941 26.1342ZM71.1864 25.7253L70.6419 24.7718C70.4664 24.4644 70.2432 24.2671 69.9723 24.18C69.7014 24.0928 69.4279 24.1281 69.1518 24.2858C68.8756 24.4435 68.7063 24.6611 68.6437 24.9387C68.5893 25.2185 68.6483 25.5095 68.8209 25.8117L69.3654 26.7652L71.1864 25.7253Z" fill="white"/>
<path d="M29.4131 69.6204C29.2114 70.0757 28.9239 70.4209 28.5507 70.6558C28.183 70.8932 27.7616 71.0149 27.2864 71.0209C26.8167 71.0294 26.3244 70.9261 25.8093 70.711L25.514 71.3775L24.6418 70.991L24.9371 70.3245C24.4373 70.0899 24.03 69.7946 23.7153 69.4386C23.406 69.085 23.2158 68.6923 23.1446 68.2604C23.0759 67.8231 23.1424 67.3768 23.3442 66.9215C23.5459 66.4662 23.8294 66.1226 24.1947 65.8906C24.5624 65.6533 24.9798 65.5331 25.4471 65.5301C25.9223 65.5241 26.4146 65.6274 26.9242 65.84L27.194 65.2311L28.0662 65.6176L27.7964 66.2265C28.3017 66.4635 28.709 66.7588 29.0182 67.1124C29.3354 67.463 29.5296 67.8542 29.6007 68.286C29.6774 68.7203 29.6148 69.1651 29.4131 69.6204ZM26.1484 69.9458C26.6829 70.176 27.1637 70.2316 27.5906 70.1123C28.0199 69.9875 28.3367 69.6947 28.5409 69.2339C28.7475 68.7677 28.7504 68.3391 28.5495 67.9482C28.351 67.5518 27.9882 67.2303 27.461 66.9835L26.1484 69.9458ZM24.2054 67.3326C24.0037 67.7879 23.9993 68.2126 24.1923 68.6065C24.3876 68.995 24.749 69.3126 25.2762 69.5593L26.5887 66.5971C26.0518 66.3723 25.5714 66.3235 25.1475 66.4507C24.7236 66.5778 24.4096 66.8718 24.2054 67.3326Z" fill="white"/>
<path d="M33.4567 73.6528C32.8953 73.5542 32.4015 73.3304 31.9755 72.9814C31.5553 72.6335 31.2498 72.2052 31.0589 71.6965C30.868 71.1878 30.8219 70.6528 30.9205 70.0914C31.0191 69.53 31.2448 69.0427 31.5976 68.6295C31.9563 68.2173 32.3924 67.9192 32.906 67.7353C33.4195 67.5514 33.957 67.5087 34.5184 67.6073C35.0739 67.7048 35.5647 67.9281 35.9907 68.2771C36.4168 68.626 36.7253 69.0548 36.9162 69.5635C37.113 70.0732 37.1621 70.6088 37.0635 71.1702C36.9649 71.7316 36.7362 72.2184 36.3775 72.6306C36.0247 73.0438 35.5886 73.3418 35.0691 73.5247C34.5497 73.7076 34.0122 73.7503 33.4567 73.6528ZM33.6166 72.7945C34.0125 72.864 34.3861 72.8352 34.7374 72.7081C35.0897 72.575 35.3866 72.3591 35.6279 72.0603C35.8692 71.7616 36.0262 71.4053 36.0988 70.9917C36.1694 70.5898 36.1421 70.2073 36.0171 69.8442C35.892 69.4811 35.686 69.1799 35.399 68.9407C35.1131 68.6956 34.7722 68.5382 34.3763 68.4687C33.9744 68.3981 33.5973 68.4293 33.245 68.5624C32.8937 68.6896 32.5974 68.9025 32.3561 69.2013C32.1217 69.4952 31.9687 69.846 31.8971 70.2538C31.8245 70.6674 31.8477 71.0553 31.9669 71.4174C32.092 71.7805 32.2975 72.0846 32.5834 72.3298C32.8703 72.569 33.2147 72.7239 33.6166 72.7945Z" fill="white"/>
<path d="M38.0205 68.2L40.189 68.1506C40.5849 68.1416 40.9376 68.2116 41.247 68.3606C41.5564 68.5036 41.7981 68.7111 41.9724 68.9832C42.1466 69.2554 42.2378 69.5684 42.2458 69.9223C42.2539 70.2762 42.1771 70.593 42.0154 70.8728C41.8537 71.1525 41.6217 71.3738 41.3193 71.5368C41.0169 71.6997 40.6678 71.7857 40.2719 71.7947L39.0572 71.8223L39.1094 74.1167L38.1557 74.1384L38.0205 68.2ZM40.2347 70.9493C40.5706 70.9416 40.8265 70.8488 41.0025 70.6708C41.1844 70.4866 41.272 70.2475 41.2653 69.9536C41.2586 69.6597 41.1602 69.4248 40.9702 69.2491C40.7861 69.0733 40.5261 68.9892 40.1902 68.9968L38.9935 69.024L39.038 70.9765L40.2347 70.9493Z" fill="white"/>
<path d="M49.0148 66.7094L50.3313 72.6032L49.4002 72.8112L48.588 69.1748L47.4145 71.7239L47.0982 71.7946L44.9408 69.9802L45.7551 73.6254L44.824 73.8334L43.5075 67.9396L43.8325 67.867L46.9895 70.5647L48.6986 66.7801L49.0148 66.7094Z" fill="white"/>
<path d="M55.5981 69.3196L53.1695 70.4361L53.1987 71.5123L52.2746 71.9371L52.1316 65.3562L52.426 65.2209L57.3281 69.6138L56.3959 70.0424L55.5981 69.3196ZM53.0194 66.8994L53.1381 69.5491L54.9452 68.7183L53.0194 66.8994Z" fill="white"/>
<defs>
<linearGradient id="paint0_linear_7554_253" x1="1.70837e-06" y1="60.2299" x2="92.4138" y2="-6.89655" gradientUnits="userSpaceOnUse">
<stop stop-color="#F0C9D1"/>
<stop offset="1" stop-color="#4F6FC1"/>
</linearGradient>
</defs>
</svg>
