<svg width="245" height="245" viewBox="0 0 245 245" fill="none" xmlns="http://www.w3.org/2000/svg">
<path d="M122.498 244.997C190.152 244.997 244.996 190.153 244.996 122.499C244.996 54.8445 190.152 0 122.498 0C54.8442 0 0 54.8445 0 122.499C0 190.153 54.8442 244.997 122.498 244.997Z" fill="#93B7E1"/>
<rect x="9.36475" y="10.7207" width="223.562" height="223.562" rx="111.781" stroke="white" stroke-width="3.0625"/>
<mask id="path-3-inside-1_7261_2409" fill="white">
<path d="M117.107 69.4481H122.287L120.824 71.577C120.341 72.2798 120.52 73.2408 121.222 73.7237C121.922 74.2043 122.884 74.0314 123.369 73.3254L126.033 69.4481H130.246L127.74 73.0955C127.257 73.7982 127.435 74.7593 128.138 75.2422C128.838 75.7228 129.8 75.5499 130.285 74.8439L133.992 69.4481H146.824L137.75 78.5219L131.314 77.3281C130.475 77.1731 129.67 77.7264 129.514 78.5643C129.359 79.4027 129.912 80.2084 130.751 80.3638L135.101 81.1706L132.122 84.1495L127.497 83.2916C126.659 83.1362 125.853 83.6894 125.698 84.5278C125.542 85.3662 126.096 86.1718 126.934 86.3272L129.473 86.7982L125.811 90.4606C125.208 91.0637 125.208 92.041 125.811 92.6439C126.414 93.2468 127.391 93.2466 127.994 92.6439L131.657 88.9815L132.128 91.5211C132.284 92.3609 133.091 92.9125 133.927 92.7573C134.765 92.6019 135.319 91.7963 135.164 90.9579L134.306 86.3326L137.284 83.3539L138.091 87.7049C138.229 88.448 138.878 88.9673 139.607 88.9673C139.701 88.9673 139.796 88.9588 139.891 88.9411C140.729 88.7857 141.283 87.9801 141.127 87.1417L139.933 80.705L149.007 71.6312V84.4632L143.611 88.1705C142.909 88.6534 142.73 89.6144 143.213 90.3172C143.696 91.0199 144.657 91.1981 145.36 90.7154L149.007 88.2094V92.422L145.13 95.0862C144.427 95.569 144.249 96.5301 144.731 97.2328C145.214 97.9353 146.176 98.1138 146.878 97.6311L149.007 96.1684V101.348C149.007 102.201 149.698 102.892 150.551 102.892C151.403 102.892 152.094 102.201 152.094 101.348V96.1682L154.223 97.6309C154.923 98.1115 155.885 97.9386 156.37 97.2326C156.853 96.5299 156.674 95.5688 155.972 95.086L152.095 92.4222V88.2096L155.742 90.7156C156.442 91.1963 157.403 91.0234 157.888 90.3174C158.371 89.6146 158.193 88.6536 157.49 88.1707L152.095 84.4636V71.6316L161.168 80.7054L159.974 87.1421C159.819 87.9805 160.372 88.7861 161.211 88.9416C162.047 89.097 162.854 88.5451 163.01 87.7053L163.817 83.3543L166.796 86.333L165.938 90.9583C165.762 91.905 166.488 92.7839 167.458 92.7839C168.187 92.7839 168.836 92.2648 168.974 91.5215L169.445 88.9819L173.107 92.6443C173.71 93.2472 174.688 93.247 175.29 92.6443C175.893 92.0412 175.893 91.0639 175.29 90.461L171.628 86.7984L174.168 86.3274C175.006 86.172 175.56 85.3664 175.404 84.528C175.248 83.6897 174.443 83.1355 173.605 83.2918L168.98 84.1497L166.001 81.1708L170.352 80.364C171.19 80.2086 171.743 79.4029 171.588 78.5646C171.432 77.7262 170.627 77.1725 169.788 77.3283L163.352 78.5222L154.278 69.4483H167.11L170.817 74.8441C171.302 75.5491 172.263 75.7238 172.964 75.2424C173.667 74.7595 173.845 73.7984 173.362 73.0957L170.856 69.4483H175.069L177.733 73.3256C178.218 74.0318 179.181 74.2045 179.88 73.7239C180.583 73.241 180.761 72.28 180.278 71.5773L178.816 69.4483H183.995C184.848 69.4483 185.539 68.7573 185.539 67.9045C185.539 67.0518 184.848 66.3608 183.995 66.3608H178.816L180.278 64.232C180.761 63.5293 180.583 62.5682 179.88 62.0853C179.177 61.6023 178.216 61.7809 177.733 62.4836L175.069 66.3608H170.856L173.362 62.7136C173.845 62.0108 173.667 61.0498 172.964 60.5669C172.261 60.0838 171.3 60.2625 170.817 60.9652L167.11 66.3608H154.278L163.352 57.2871L169.788 58.481C170.625 58.6364 171.432 58.0843 171.588 57.2447C171.743 56.4063 171.19 55.6007 170.352 55.4453L166.001 54.6384L168.98 51.6596L173.604 52.5171C174.441 52.6725 175.248 52.1206 175.404 51.2808C175.559 50.4425 175.006 49.6368 174.168 49.4814L171.628 49.0103L175.291 45.3478C175.894 44.7447 175.894 43.7674 175.291 43.1645C174.688 42.562 173.711 42.5616 173.108 43.1645L169.445 46.827L168.974 44.2874C168.818 43.449 168.013 42.8945 167.175 43.0511C166.336 43.2065 165.783 44.0122 165.938 44.8505L166.796 49.4759L163.818 52.4545L163.01 48.1035C162.854 47.2652 162.047 46.7109 161.211 46.8673C160.372 47.0227 159.819 47.8283 159.974 48.6667L161.168 55.1034L152.095 64.1773V51.3453L157.49 47.6379C158.193 47.1551 158.371 46.194 157.888 45.4913C157.406 44.7888 156.444 44.6101 155.742 45.093L152.095 47.599V43.3866L155.972 40.7225C156.675 40.2396 156.853 39.2785 156.37 38.5758C155.888 37.8731 154.926 37.6948 154.224 38.1775L152.095 39.6404V34.4608C152.095 33.608 151.404 32.917 150.551 32.917C149.698 32.917 149.007 33.608 149.007 34.4608V39.6404L146.878 38.1777C146.175 37.6948 145.214 37.8733 144.731 38.576C144.249 39.2788 144.427 40.2398 145.13 40.7227L149.007 43.3866V47.5993L145.36 45.0932C144.657 44.6101 143.696 44.7888 143.213 45.4915C142.73 46.1942 142.909 47.1553 143.611 47.6382L149.007 51.3453V64.1773L139.933 55.1034L141.127 48.6667C141.283 47.8283 140.729 47.0227 139.891 46.8673C139.052 46.7117 138.247 47.2652 138.092 48.1035L137.284 52.4545L134.306 49.4759L135.164 44.8505C135.319 44.0122 134.766 43.2065 133.928 43.0511C133.089 42.8961 132.284 43.4492 132.128 44.2874L131.657 46.827L127.995 43.1645C127.392 42.562 126.414 42.5616 125.811 43.1645C125.208 43.7676 125.208 44.7449 125.811 45.3478L129.473 49.0103L126.934 49.4812C126.096 49.6366 125.542 50.4423 125.698 51.2806C125.836 52.0237 126.484 52.543 127.214 52.543C127.469 52.543 127.181 52.5661 132.122 51.6589L135.101 54.6378L130.75 55.4447C129.912 55.6001 129.358 56.4057 129.514 57.2441C129.652 57.9872 130.3 58.5065 131.03 58.5065C131.296 58.5065 131.044 58.5211 137.75 57.2865L146.823 66.3601H133.991L130.284 60.9646C129.802 60.2621 128.84 60.0834 128.138 60.5663C127.435 61.0492 127.257 62.0102 127.739 62.7129L130.245 66.3601H126.032L123.368 62.483C122.886 61.7803 121.924 61.6018 121.222 62.0847C120.519 62.5676 120.341 63.5287 120.823 64.2314L122.286 66.3601H117.107C116.254 66.3601 115.563 67.0511 115.563 67.9039C115.563 68.7567 116.255 69.4481 117.107 69.4481Z"/>
</mask>
<path d="M117.107 69.4481H122.287L120.824 71.577C120.341 72.2798 120.52 73.2408 121.222 73.7237C121.922 74.2043 122.884 74.0314 123.369 73.3254L126.033 69.4481H130.246L127.74 73.0955C127.257 73.7982 127.435 74.7593 128.138 75.2422C128.838 75.7228 129.8 75.5499 130.285 74.8439L133.992 69.4481H146.824L137.75 78.5219L131.314 77.3281C130.475 77.1731 129.67 77.7264 129.514 78.5643C129.359 79.4027 129.912 80.2084 130.751 80.3638L135.101 81.1706L132.122 84.1495L127.497 83.2916C126.659 83.1362 125.853 83.6894 125.698 84.5278C125.542 85.3662 126.096 86.1718 126.934 86.3272L129.473 86.7982L125.811 90.4606C125.208 91.0637 125.208 92.041 125.811 92.6439C126.414 93.2468 127.391 93.2466 127.994 92.6439L131.657 88.9815L132.128 91.5211C132.284 92.3609 133.091 92.9125 133.927 92.7573C134.765 92.6019 135.319 91.7963 135.164 90.9579L134.306 86.3326L137.284 83.3539L138.091 87.7049C138.229 88.448 138.878 88.9673 139.607 88.9673C139.701 88.9673 139.796 88.9588 139.891 88.9411C140.729 88.7857 141.283 87.9801 141.127 87.1417L139.933 80.705L149.007 71.6312V84.4632L143.611 88.1705C142.909 88.6534 142.73 89.6144 143.213 90.3172C143.696 91.0199 144.657 91.1981 145.36 90.7154L149.007 88.2094V92.422L145.13 95.0862C144.427 95.569 144.249 96.5301 144.731 97.2328C145.214 97.9353 146.176 98.1138 146.878 97.6311L149.007 96.1684V101.348C149.007 102.201 149.698 102.892 150.551 102.892C151.403 102.892 152.094 102.201 152.094 101.348V96.1682L154.223 97.6309C154.923 98.1115 155.885 97.9386 156.37 97.2326C156.853 96.5299 156.674 95.5688 155.972 95.086L152.095 92.4222V88.2096L155.742 90.7156C156.442 91.1963 157.403 91.0234 157.888 90.3174C158.371 89.6146 158.193 88.6536 157.49 88.1707L152.095 84.4636V71.6316L161.168 80.7054L159.974 87.1421C159.819 87.9805 160.372 88.7861 161.211 88.9416C162.047 89.097 162.854 88.5451 163.01 87.7053L163.817 83.3543L166.796 86.333L165.938 90.9583C165.762 91.905 166.488 92.7839 167.458 92.7839C168.187 92.7839 168.836 92.2648 168.974 91.5215L169.445 88.9819L173.107 92.6443C173.71 93.2472 174.688 93.247 175.29 92.6443C175.893 92.0412 175.893 91.0639 175.29 90.461L171.628 86.7984L174.168 86.3274C175.006 86.172 175.56 85.3664 175.404 84.528C175.248 83.6897 174.443 83.1355 173.605 83.2918L168.98 84.1497L166.001 81.1708L170.352 80.364C171.19 80.2086 171.743 79.4029 171.588 78.5646C171.432 77.7262 170.627 77.1725 169.788 77.3283L163.352 78.5222L154.278 69.4483H167.11L170.817 74.8441C171.302 75.5491 172.263 75.7238 172.964 75.2424C173.667 74.7595 173.845 73.7984 173.362 73.0957L170.856 69.4483H175.069L177.733 73.3256C178.218 74.0318 179.181 74.2045 179.88 73.7239C180.583 73.241 180.761 72.28 180.278 71.5773L178.816 69.4483H183.995C184.848 69.4483 185.539 68.7573 185.539 67.9045C185.539 67.0518 184.848 66.3608 183.995 66.3608H178.816L180.278 64.232C180.761 63.5293 180.583 62.5682 179.88 62.0853C179.177 61.6023 178.216 61.7809 177.733 62.4836L175.069 66.3608H170.856L173.362 62.7136C173.845 62.0108 173.667 61.0498 172.964 60.5669C172.261 60.0838 171.3 60.2625 170.817 60.9652L167.11 66.3608H154.278L163.352 57.2871L169.788 58.481C170.625 58.6364 171.432 58.0843 171.588 57.2447C171.743 56.4063 171.19 55.6007 170.352 55.4453L166.001 54.6384L168.98 51.6596L173.604 52.5171C174.441 52.6725 175.248 52.1206 175.404 51.2808C175.559 50.4425 175.006 49.6368 174.168 49.4814L171.628 49.0103L175.291 45.3478C175.894 44.7447 175.894 43.7674 175.291 43.1645C174.688 42.562 173.711 42.5616 173.108 43.1645L169.445 46.827L168.974 44.2874C168.818 43.449 168.013 42.8945 167.175 43.0511C166.336 43.2065 165.783 44.0122 165.938 44.8505L166.796 49.4759L163.818 52.4545L163.01 48.1035C162.854 47.2652 162.047 46.7109 161.211 46.8673C160.372 47.0227 159.819 47.8283 159.974 48.6667L161.168 55.1034L152.095 64.1773V51.3453L157.49 47.6379C158.193 47.1551 158.371 46.194 157.888 45.4913C157.406 44.7888 156.444 44.6101 155.742 45.093L152.095 47.599V43.3866L155.972 40.7225C156.675 40.2396 156.853 39.2785 156.37 38.5758C155.888 37.8731 154.926 37.6948 154.224 38.1775L152.095 39.6404V34.4608C152.095 33.608 151.404 32.917 150.551 32.917C149.698 32.917 149.007 33.608 149.007 34.4608V39.6404L146.878 38.1777C146.175 37.6948 145.214 37.8733 144.731 38.576C144.249 39.2788 144.427 40.2398 145.13 40.7227L149.007 43.3866V47.5993L145.36 45.0932C144.657 44.6101 143.696 44.7888 143.213 45.4915C142.73 46.1942 142.909 47.1553 143.611 47.6382L149.007 51.3453V64.1773L139.933 55.1034L141.127 48.6667C141.283 47.8283 140.729 47.0227 139.891 46.8673C139.052 46.7117 138.247 47.2652 138.092 48.1035L137.284 52.4545L134.306 49.4759L135.164 44.8505C135.319 44.0122 134.766 43.2065 133.928 43.0511C133.089 42.8961 132.284 43.4492 132.128 44.2874L131.657 46.827L127.995 43.1645C127.392 42.562 126.414 42.5616 125.811 43.1645C125.208 43.7676 125.208 44.7449 125.811 45.3478L129.473 49.0103L126.934 49.4812C126.096 49.6366 125.542 50.4423 125.698 51.2806C125.836 52.0237 126.484 52.543 127.214 52.543C127.469 52.543 127.181 52.5661 132.122 51.6589L135.101 54.6378L130.75 55.4447C129.912 55.6001 129.358 56.4057 129.514 57.2441C129.652 57.9872 130.3 58.5065 131.03 58.5065C131.296 58.5065 131.044 58.5211 137.75 57.2865L146.823 66.3601H133.991L130.284 60.9646C129.802 60.2621 128.84 60.0834 128.138 60.5663C127.435 61.0492 127.257 62.0102 127.739 62.7129L130.245 66.3601H126.032L123.368 62.483C122.886 61.7803 121.924 61.6018 121.222 62.0847C120.519 62.5676 120.341 63.5287 120.823 64.2314L122.286 66.3601H117.107C116.254 66.3601 115.563 67.0511 115.563 67.9039C115.563 68.7567 116.255 69.4481 117.107 69.4481Z" fill="white" stroke="#93B7E1" stroke-width="0.906596" mask="url(#path-3-inside-1_7261_2409)"/>
<path fill-rule="evenodd" clip-rule="evenodd" d="M148.93 109.592C148.929 109.564 148.928 109.536 148.927 109.508C148.928 109.528 148.928 109.547 148.929 109.566L148.93 109.592ZM147.671 146.158C150.961 149.336 153.565 153.104 155.376 157.218L157.366 163.109C158.002 165.749 158.334 168.472 158.334 171.227C158.334 180.783 154.536 189.695 147.627 196.341C141.06 202.659 132.542 206.086 123.493 206.086C123.03 206.086 122.565 206.077 122.099 206.059C103.914 205.355 89.2102 190.545 88.6343 172.351C88.3215 162.474 92.1862 153.004 99.2791 146.158L99.833 145.623V78.6675C99.833 65.6328 110.44 55.0254 123.475 55.0254C134.969 55.0254 144.577 63.2779 146.683 74.1719L146.806 74.8083L146.812 74.8772C146.859 75.4422 146.908 76.2656 146.969 77.2762L146.969 77.2818L146.969 77.2828L146.969 77.2901C147.013 78.0144 147.061 78.8234 147.117 79.6716V85.513C147.116 85.5257 147.116 85.5384 147.115 85.5511L147.112 85.6038V109.521L147.115 109.574C147.116 109.587 147.116 109.599 147.117 109.612L147.117 145.623L147.671 146.158ZM144.704 109.552L144.709 109.483V85.6423L144.704 85.5731C144.702 85.542 144.7 85.5101 144.7 85.4777V78.6675C144.7 66.9623 135.18 57.4423 123.475 57.4423C111.77 57.4423 102.25 66.9623 102.25 78.6675V146.168C102.25 146.512 102.104 146.839 101.848 147.068C94.6839 153.489 90.746 162.678 91.05 172.274C91.5859 189.214 105.261 202.988 122.192 203.644C131.091 203.989 139.534 200.773 145.952 194.599C152.373 188.421 155.917 180.114 155.917 171.227C155.917 162.03 151.974 153.227 145.102 147.068C144.846 146.839 144.7 146.512 144.7 146.169V109.647C144.7 109.615 144.702 109.583 144.704 109.552ZM132.161 78.6665V153.287L133.097 153.804C139.398 157.284 143.378 163.937 143.378 171.227C143.378 182.2 134.448 191.13 123.475 191.13C112.502 191.13 103.572 182.2 103.572 171.227C103.572 163.937 107.551 157.284 113.852 153.804L114.788 153.287V78.6665C114.788 73.8784 118.687 69.9802 123.475 69.9802C128.263 69.9802 132.161 73.8784 132.161 78.6665ZM117.205 115.048H129.744V78.6665C129.744 75.2079 126.933 72.3971 123.475 72.3971C120.016 72.3971 117.205 75.2079 117.205 78.6665V115.048ZM140.961 171.227C140.961 164.275 136.842 157.985 130.469 155.199C130.028 155.007 129.744 154.572 129.744 154.092V117.465H117.205V154.092C117.205 154.572 116.921 155.007 116.481 155.199C110.108 157.985 105.989 164.275 105.989 171.227C105.989 180.87 113.831 188.713 123.475 188.713C133.118 188.713 140.961 180.87 140.961 171.227ZM88.9566 98.7703H74.001C73.3335 98.7703 72.7925 98.2292 72.7925 97.5618C72.7925 96.8944 73.3337 96.3533 74.001 96.3533H88.9566C89.6239 96.3533 90.1651 96.8944 90.1651 97.5618C90.1651 98.2291 89.6239 98.7703 88.9566 98.7703ZM88.9562 80.0772H81.4784C80.8109 80.0772 80.2699 79.5361 80.2699 78.8687C80.2699 78.2013 80.8111 77.6602 81.4784 77.6602H88.9562C89.6235 77.6602 90.1647 78.2013 90.1647 78.8687C90.1647 79.536 89.6235 80.0772 88.9562 80.0772ZM88.9566 133.743C89.6239 133.743 90.1651 134.284 90.1651 134.952C90.1651 135.619 89.6239 136.16 88.9566 136.16H74.001C73.3337 136.16 72.7925 135.619 72.7925 134.952C72.7925 134.284 73.3337 133.743 74.001 133.743H88.9566ZM81.4784 115.048H88.9562C89.6235 115.048 90.1647 115.589 90.1647 116.257C90.1647 116.924 89.6235 117.465 88.9562 117.465H81.4784C80.8111 117.465 80.2699 116.924 80.2699 116.257C80.2699 115.589 80.8111 115.048 81.4784 115.048Z" fill="white"/>
<path fill-rule="evenodd" clip-rule="evenodd" d="M144.709 109.483L144.704 109.552C144.702 109.583 144.7 109.615 144.7 109.647V146.169C144.7 146.512 144.846 146.839 145.102 147.068C151.974 153.227 155.917 162.03 155.917 171.227C155.917 180.114 152.373 188.421 145.952 194.599C139.534 200.773 131.091 203.989 122.192 203.644C105.261 202.988 91.5859 189.214 91.05 172.274C90.746 162.678 94.6839 153.489 101.848 147.068C102.104 146.839 102.25 146.512 102.25 146.168V78.6675C102.25 66.9623 111.77 57.4423 123.475 57.4423C135.18 57.4423 144.7 66.9623 144.7 78.6675V85.4777C144.7 85.5101 144.702 85.542 144.704 85.5731L144.709 85.6423V109.483ZM132.161 78.6665V153.287L133.097 153.804C139.398 157.284 143.378 163.937 143.378 171.227C143.378 182.2 134.448 191.13 123.475 191.13C112.502 191.13 103.572 182.2 103.572 171.227C103.572 163.937 107.551 157.284 113.852 153.804L114.788 153.287V78.6665C114.788 73.8784 118.687 69.9802 123.475 69.9802C128.263 69.9802 132.161 73.8784 132.161 78.6665Z" fill="#93B7E1"/>
<path d="M130.469 155.199C136.842 157.985 140.961 164.275 140.961 171.227C140.961 180.87 133.118 188.713 123.475 188.713C113.831 188.713 105.989 180.87 105.989 171.227C105.989 164.275 110.108 157.985 116.481 155.199C116.921 155.007 117.205 154.572 117.205 154.092V117.465H129.744V154.092C129.744 154.572 130.028 155.007 130.469 155.199Z" fill="#93B7E1"/>
<path d="M129.744 115.048H117.205V78.6665C117.205 75.2079 120.016 72.3971 123.475 72.3971C126.933 72.3971 129.744 75.2079 129.744 78.6665V115.048Z" fill="#93B7E1"/>
</svg>
