<svg width="22" height="22" viewbox="0 0 22 22" fill="none" xmlns="http://www.w3.org/2000/svg">
<g clip-path="url(#clip0)">
<path d="M3.60199 16.7654L3.76999 16.3008L3.4983 15.8873C2.21643 13.9338 1.69816 11.5768 2.04224 9.26572C2.38633 6.95461 3.56873 4.85088 5.36409 3.35546C7.15946 1.86003 9.44229 1.07746 11.7775 1.15687C14.1128 1.23628 16.3372 2.17213 18.0268 3.78606C19.7164 5.4 20.7532 7.57919 20.9395 9.90834C21.1258 12.2375 20.4486 14.5538 19.0369 16.4157C17.6253 18.2777 15.578 19.5552 13.285 20.0048C10.9921 20.4544 8.61391 20.0446 6.60367 18.8536L6.24011 18.637L5.83324 18.7525L2.53755 19.6896L3.60068 16.7654H3.60199Z" fill="white" stroke="#BCBDC2" stroke-width="1.5"/>
<path d="M8.72475 5.48435C8.52223 4.97044 8.31553 4.97441 8.15215 4.97754C8.13235 4.97792 8.11319 4.97829 8.09475 4.97772L9.59756 8.2091M8.72475 5.48435L8.25744 5.66218C8.2578 5.66314 8.25817 5.66411 8.25854 5.66508M8.72475 5.48435L8.25956 5.66767C8.25922 5.6668 8.25888 5.66594 8.25854 5.66508M8.72475 5.48435C8.75027 5.55143 8.78 5.62964 8.81275 5.71582C9.06963 6.39177 9.51283 7.55796 9.57918 7.69066C9.62287 7.76952 9.6473 7.85759 9.65049 7.94768C9.65369 8.03777 9.63555 8.12735 9.59756 8.2091M8.25854 5.66508C8.21805 5.56277 8.18521 5.50635 8.16516 5.47739M8.25854 5.66508C8.28371 5.73121 8.31296 5.80818 8.34517 5.89294C8.45725 6.18786 8.60521 6.57719 8.74176 6.93301C8.91018 7.37187 9.0803 7.81092 9.13197 7.91427L9.13669 7.92371L9.1418 7.93294C9.14732 7.9429 9.1504 7.95402 9.15081 7.96539C9.15121 7.97676 9.14892 7.98807 9.14412 7.9984L9.59756 8.2091M8.16516 5.47739C8.16715 5.47735 8.16895 5.47732 8.17052 5.47729C8.19231 5.47689 8.20061 5.47703 8.20563 5.47731C8.20609 5.47734 8.20632 5.47735 8.20632 5.47735C8.20632 5.47729 8.18763 5.47549 8.1647 5.46401C8.15016 5.45673 8.14356 5.45067 8.14357 5.4506C8.1436 5.45053 8.15135 5.45745 8.16516 5.47739ZM8.16516 5.47739C8.16467 5.4774 8.16417 5.47741 8.16366 5.47742C8.14515 5.4778 8.11168 5.47848 8.07937 5.47749L8.0661 5.47708L8.05288 5.47597C7.92479 5.4652 7.76309 5.46462 7.57959 5.4646C7.51065 5.46832 7.4432 5.48632 7.38153 5.51748C7.31751 5.54984 7.26121 5.59562 7.21649 5.6517L7.21096 5.65864L7.20519 5.66537C7.18886 5.68442 7.17095 5.70484 7.15175 5.72674C6.88216 6.03421 6.35693 6.63323 6.35693 7.81535C6.35693 8.43851 6.57204 9.07867 6.8229 9.6078C7.06433 10.117 7.32133 10.4875 7.39518 10.594C7.39712 10.5968 7.39894 10.5994 7.40062 10.6019L7.40101 10.6024C7.41152 10.6176 7.42862 10.6438 7.45213 10.6798C7.79234 11.2003 9.47455 13.7741 11.934 14.9138L11.9347 14.9141C12.5705 15.2099 13.0666 15.3843 13.4622 15.5201C14.0235 15.7087 14.5375 15.6856 14.9708 15.6179C15.1395 15.5902 15.4793 15.4521 15.8167 15.2206C16.1611 14.9843 16.3844 14.7315 16.4494 14.5418C16.5497 14.2326 16.5998 13.95 16.6171 13.7388C16.6237 13.6573 16.6251 13.591 16.6237 13.5412C16.5958 13.5256 16.5613 13.5076 16.5163 13.4848C16.5018 13.4774 16.4861 13.4695 16.4695 13.4611C16.425 13.4386 16.3738 13.4127 16.3214 13.3853L16.3139 13.3815L16.314 13.3814C16.1802 13.3088 15.7734 13.0933 15.368 12.8841C14.9438 12.6652 14.5758 12.4819 14.4865 12.4489L14.4759 12.445L14.4655 12.4406C14.4529 12.4353 14.4415 12.4305 14.4309 12.4263C14.2114 12.7728 13.7042 13.4137 13.5409 13.6063C13.4196 13.7536 13.2367 13.9151 12.9664 13.9508C12.7152 13.9841 12.4924 13.8929 12.3241 13.8016C12.2893 13.7834 12.2391 13.7604 12.1755 13.7312C11.7965 13.5576 10.9389 13.1646 9.98232 12.2461L9.97713 12.2411L9.97717 12.2411C9.32953 11.6011 8.78055 10.8684 8.34821 10.0671C8.21429 9.82112 8.1729 9.56026 8.26127 9.30575C8.33181 9.10261 8.47257 8.9575 8.536 8.89212C8.53778 8.89029 8.53949 8.88852 8.54115 8.88682C8.60833 8.81272 8.67535 8.72453 8.75475 8.62005C8.80694 8.55137 8.86448 8.47565 8.93093 8.39228L8.93413 8.38826L8.93415 8.38828C9.00105 8.30609 9.0234 8.25768 9.07836 8.13865C9.09662 8.09912 9.11847 8.05178 9.14675 7.99283L9.59756 8.2091M16.6175 13.4634C16.6166 13.4599 16.6163 13.458 16.6164 13.4579C16.6164 13.4579 16.6168 13.4596 16.6175 13.4634ZM16.5525 12.942C16.2769 12.7924 14.9119 12.0731 14.6599 11.9799L16.9239 14.6994C17.1497 14.0051 17.1562 13.4119 17.0814 13.2859C17.0286 13.1835 16.8926 13.1147 16.6923 13.0134C16.6487 12.9914 16.602 12.9678 16.5525 12.942Z" fill="#BCBDC2" stroke="#BCBDC2"/>
</g>
<defs>
<clipPath id="clip0">
<rect x="0.953613" y="0.163574" width="21" height="21" fill="white"/>
</clipPath>
</defs>
</svg>
