<svg width="161" height="159" viewBox="0 0 161 159" fill="none" xmlns="http://www.w3.org/2000/svg">
<path d="M84.438 108.426C83.4365 108.942 82.3097 109.413 81.0443 109.825C70.2309 113.35 65.268 109.413 67.7357 106.648C69.8035 104.331 73.264 105.01 74.672 106.381C75.5137 107.201 73.3688 108.179 72.5926 107.222C72.0531 106.557 71.9597 102.395 76.6517 101.95C80.9917 101.537 79.486 110.907 72.0333 116.225" stroke="black" stroke-linecap="round" stroke-linejoin="round"/>
<path d="M58.3129 75.2975C53.3608 73.6852 50.7916 75.8731 49.465 76.6777C47.5957 77.8131 44.1402 80.614 40.314 83.9759C36.7723 87.0877 32.9132 90.6801 29.7006 93.8769C26.0384 97.5211 24.3674 99.2834 22.1045 101.853C16.847 107.822 25.9588 108.163 34.9224 110.826C47.1661 114.463 57.731 116.701 75.5055 121.712C82.8644 123.787 88.6081 123.004 93.2209 117.653C96.9112 113.372 108.972 100.22 112.485 95.2286C113.765 93.4101 114.115 92.4127 113.144 91.0159" stroke="black"/>
<path d="M68.9937 116.252C62.0559 114.923 62.5357 108.071 64.1963 104.812C70.1168 96.1391 82.9619 96.5198 84.6775 104.812C86.1141 111.755 77.6659 117.912 68.9937 116.252Z" stroke="black"/>
<path d="M72.4886 37.779C62.4314 37.8707 61.1398 38.5125 59.3091 40.2711C57.04 42.4508 58.1485 47.8384 58.2207 55.7584C58.2774 61.9792 58.4799 66.2499 58.5311 71.8694C58.5698 76.1105 58.6894 80.0139 58.7696 82.594C59.0681 92.1977 63.7966 91.5296 71.713 91.4574L118.943 91.0266C134.336 90.8862 132.553 88.141 132.473 79.3575C132.437 75.3553 132.354 65.8517 132.263 56.4234C132.259 55.9727 132.255 55.5256 132.252 55.0832C132.223 50.7761 132.176 46.8693 132.152 44.2934C132.076 35.9258 124.146 37.3078 118.453 37.3597L72.4886 37.779Z" stroke="black"/>
<path d="M65.9753 45.791C65.9753 45.791 86.4505 45.6043 99.0082 45.4897M66.0152 50.2391C78.1456 50.1285 83.0229 50.084 100.111 49.9281M66.0555 54.592C66.0555 54.592 86.5308 54.4053 99.0884 54.2908M66.0954 59.0402C78.2258 58.9295 83.1032 58.885 100.192 58.7292M113.048 45.3617L124.453 45.2577M117.509 58.5712L124.574 58.5068" stroke="black" stroke-width="0.64" stroke-linecap="round" stroke-linejoin="round" stroke-dasharray="1.27 1.27"/>
<path d="M100.433 70.0923C102.39 64.9256 107.529 63.1682 112.313 63.9241C114.672 64.2969 117.223 65.3793 118.517 67.0296C118.84 67.4419 119.127 67.8907 119.381 68.3621C120.509 70.4574 120.973 72.9992 120.99 74.7754C121.002 76.1748 120.393 79.0575 118.437 81.3901C116.761 83.3904 114.094 84.9862 109.982 84.8952C101.074 84.6982 97.9306 76.6977 100.433 70.0923Z" stroke="black"/>
<path d="M120.358 77.4174C119.394 77.8509 118.306 78.198 117.081 78.4396C106.615 80.504 101.671 74.3572 104.011 71.3823C105.971 68.8895 109.365 70.5371 110.774 72.6053C111.616 73.8417 109.547 74.607 108.766 73.21C108.222 72.2391 108.027 66.9034 112.595 67.3919C116.821 67.8437 115.587 79.4703 108.446 84.5817" stroke="black" stroke-linecap="round" stroke-linejoin="round"/>
<path d="M58.3734 67.0503C58.3734 67.0503 88.9381 66.7715 96.3709 66.7037M58.5116 82.2444C65.6915 82.1789 79.4287 82.0536 89.5433 81.9614M118.481 80.8619L127.371 80.7808M118.56 66.5014L132.405 66.3751" stroke="black" stroke-width="0.53" stroke-linecap="round" stroke-linejoin="round"/>
<path d="M34.1207 89.66L54.6942 95.0102M24.8583 99.3974L55.6167 107.557M84.8208 103.146L101.637 107.557M80.7237 113.948L93.4999 117.224" stroke="black" stroke-width="0.53" stroke-linecap="round" stroke-linejoin="round"/>
</svg>
