<svg width="160" height="160" viewBox="0 0 160 160" fill="none" xmlns="http://www.w3.org/2000/svg">
<path d="M128.56 82.7462V111.474L78.7605 125.649L31 111.474V82.7462L78.7605 96.2533L128.56 82.7462Z" stroke="#221D1E" stroke-miterlimit="10"/>
<path d="M126.444 81.0227L110.695 76.046" stroke="#221D1E" stroke-miterlimit="10"/>
<path d="M78.7622 96.2527V125.649" stroke="#221D1E" stroke-miterlimit="10"/>
<path d="M106.75 117.593V89.0974L95.5453 52.4489L83.5 47.5" stroke="#221D1E" stroke-miterlimit="10"/>
<path d="M103.75 118.567V89.0974L92.5 53.0667L81 48.5" stroke="#221D1E" stroke-miterlimit="10"/>
<path d="M107.56 77.1306L78.762 85.4285L49.6923 76.0459V48.6542L79.7817 39.717L107.56 48.6542V77.1306Z" stroke="#221D1E" stroke-miterlimit="10"/>
<path d="M107.56 48.6536L78.626 56.6996L49.6923 48.6536" stroke="#221D1E" stroke-miterlimit="10"/>
<path d="M78.7622 85.4285V57.9785" stroke="#221D1E" stroke-miterlimit="10"/>
<path d="M49.6138 88.0667V117.594" stroke="#221D1E" stroke-miterlimit="10"/>
<path d="M49.6134 88.759L62.1581 52.6819L90.5 43.0667" stroke="#221D1E" stroke-miterlimit="10"/>
<path d="M52.6138 88.5667V118.594" stroke="#221D1E" stroke-miterlimit="10"/>
<path d="M52.6134 89.759L65.1581 53.6819L94 44.0667" stroke="#221D1E" stroke-miterlimit="10"/>
<path d="M31.0005 82.7459L47.5159 78.5339" stroke="#221D1E" stroke-miterlimit="10"/>
<path d="M98.5637 33.4045C95.2527 28.9898 86.5148 35.8977 81.0333 41.4827L81.0332 44.9502C82.5846 46.8119 87.3629 50.5352 94.0649 50.5352C100.767 50.5352 99.3396 44.0684 97.7883 41.4827C98.9259 40.2416 101.678 37.5573 98.5637 33.4045Z" fill="white" stroke="black"/>
<path d="M61.7049 33.4045C65.016 28.9898 73.7538 35.8977 79.2354 41.4827V45.3441C77.684 47.2057 72.9057 50.9291 66.2037 50.9291C59.5017 50.9291 60.929 44.0684 62.4804 41.4827C61.3427 40.2416 58.5902 37.5573 61.7049 33.4045Z" fill="white" stroke="black"/>
<path d="M84.5 43C84.5 44.8346 82.5952 46.5 80 46.5C77.4048 46.5 75.5 44.8346 75.5 43C75.5 41.1654 77.4048 39.5 80 39.5C82.5952 39.5 84.5 41.1654 84.5 43Z" fill="white" stroke="black"/>
<path d="M84.0527 42.7239C85.7075 42.4136 89.8239 41.2345 91.8097 39.0005" stroke="black"/>
<path d="M84.3628 44.5856C85.5005 44.8959 88.2102 45.3303 89.9478 44.5856" stroke="black"/>
<path d="M75.675 44.2753C74.7442 44.7924 72.0758 45.7025 68.8489 45.2061" stroke="black"/>
<path d="M75.9853 42.7239C74.4339 42.6204 70.9588 41.8551 69.4695 39.6211" stroke="black"/>
</svg>
