<svg width="150" height="150" viewBox="0 0 150 150" fill="none" xmlns="http://www.w3.org/2000/svg">
<path d="M96.4957 44.8062C95.7276 39.8139 94.5756 32.1655 94.0955 28.9653C93.4456 24.645 92.1756 26.0851 90.2554 27.0452C88.3353 28.0052 81.1349 29.4453 73.9344 30.4054C66.734 31.3654 48.0128 34.2456 46.0927 35.2057C44.1726 36.1657 39.3723 36.1657 37.4522 36.1657C35.5321 36.1657 32.6518 36.1657 30.7316 37.1258C28.8115 38.0858 30.7316 48.6465 31.2117 52.0067C31.6917 55.3669 33.6118 75.5281 34.0918 79.8483C34.5719 84.1686 37.9321 112.01 38.4121 113.45C38.8921 114.89 39.3722 119.211 39.3722 121.611C39.3722 124.011 42.2523 123.051 43.6924 122.571C45.1325 122.091 53.7731 120.171 61.9336 117.291C70.0941 114.41 106.096 106.25 108.976 106.25C111.281 106.25 111.857 105.61 111.857 105.29C111.537 104.49 110.705 102.218 109.937 99.5295C108.976 96.1693 97.4557 51.0466 96.4957 44.8062Z" stroke="#565555" stroke-width="1.5"/>
<path d="M95.5356 38.0859C97.9358 38.0859 103.024 37.9899 104.176 37.6058C105.616 37.1258 107.056 35.6857 107.056 38.0859C107.056 40.486 108.496 52.4867 108.976 59.2071C109.36 64.5834 109.136 85.4487 108.976 95.6893" stroke="#565555" stroke-width="1.5"/>
<path d="M109.936 106.73C110.096 109.45 110.512 115.178 110.897 116.33C111.377 117.771 111.377 118.731 108.976 118.731C106.576 118.731 54.253 121.611 50.4128 122.091C47.3406 122.475 44.6524 122.571 43.6924 122.571" stroke="#565555" stroke-width="1.5"/>
<path d="M111.954 105.361C114.544 104.476 119.947 102.962 120.833 103.99C121.719 105.019 115.282 105.333 111.954 105.361Z" stroke="#565555" stroke-width="1.5"/>
<path d="M39.9756 36.1657C39.9756 37.6058 39.9756 46.7263 42.3757 56.8069" stroke="#565555" stroke-linecap="round"/>
<path d="M44.2959 36.6457C44.2959 38.0858 44.2959 40.4859 45.256 44.3262" stroke="#565555" stroke-linecap="round"/>
<path d="M46.2158 113.45C46.2158 114.89 46.2158 117.291 47.1759 121.131" stroke="#565555" stroke-linecap="round"/>
</svg>
