<svg width="101" height="101" viewBox="0 0 101 101" fill="none" xmlns="http://www.w3.org/2000/svg">
<g clip-path="url(#clip0_68_889)">
<path d="M14.2214 64.0191L16.6781 62.2599L22.4143 62.7589L24.0293 64.9235L29.4307 65.3373L31.5782 63.9182L37.2243 64.481L37.9026 68.7852L32.3114 68.1979L30.2448 69.6347L24.8268 69.2061L23.2252 67.0809L17.5296 66.581L15.0675 68.3165L9.65355 67.8094L8.02014 65.6328L4.81477 65.2117L3.73451 60.9881L7.11574 61.3136L8.76539 63.4954L14.2214 64.0191Z" fill="white" stroke="black" stroke-width="0.33" stroke-miterlimit="10" stroke-linejoin="round"/>
<path d="M95.6579 48.6462L38.0963 68.7725C38.0963 68.7725 37.5404 65.4272 37.4832 64.1212L95.4182 44.3343L95.8533 48.3488C95.8646 48.479 95.7875 48.602 95.6625 48.6455L95.6579 48.6462Z" fill="white" stroke="black" stroke-width="0.33" stroke-miterlimit="10" stroke-linejoin="round"/>
<path d="M8.41093 59.1499L13.8592 59.6601L16.3369 57.9137L21.9949 58.4451L23.6744 60.4733L29.13 60.9847L31.2691 59.4796L36.7722 59.7834L37.384 64.4694L31.5723 63.8853L29.4926 65.3311L24.0403 64.8998L22.4285 62.7612L16.6968 62.2581L14.2191 64.0046L8.77079 63.4943L7.12703 61.3039L3.9848 60.9993L3.40535 56.6551L6.58743 56.9477L8.40825 59.1479L8.41093 59.1499Z" fill="white" stroke="black" stroke-width="0.33" stroke-miterlimit="10" stroke-linejoin="round"/>
<path d="M85.2957 40.7032L81.4286 40.3697L79.749 38.3415L74.0911 37.8101L69.6695 39.3634L66.1111 38.9823L64.3416 36.8441L61.1595 36.5515" stroke="black" stroke-width="0.364627" stroke-miterlimit="10" stroke-linejoin="round"/>
<path d="M95.3204 44.2097L37.3939 64.4635C37.3939 64.4635 36.8345 61.097 36.777 59.7828L95.0792 39.8704L95.517 43.9104C95.5284 44.0414 95.4509 44.1652 95.3251 44.2089L95.3204 44.2097Z" fill="white" stroke="black" stroke-width="0.33" stroke-miterlimit="10" stroke-linejoin="round"/>
<path d="M89.01 39.3874L31.2795 59.4726L36.7724 59.7834L95.0746 39.8711L89.01 39.3874Z" fill="white" stroke="black" stroke-width="0.33" stroke-miterlimit="10" stroke-linejoin="round"/>
<path d="M74.0511 37.8331L16.3207 57.9183L21.9355 58.4116L79.7573 38.347L74.0511 37.8331Z" stroke="#221D1E" stroke-width="0.366844" stroke-miterlimit="10" stroke-linecap="round" stroke-linejoin="round" stroke-dasharray="0.9 0.9"/>
<path d="M6.56316 56.949L64.322 36.8219" stroke="#221D1E" stroke-width="0.33" stroke-miterlimit="10" stroke-linecap="round" stroke-linejoin="round" stroke-dasharray="0.9 0.9"/>
<path d="M61.1544 36.5471L3.42394 56.6323" stroke="black" stroke-width="0.33" stroke-miterlimit="10" stroke-linejoin="round"/>
<path d="M8.36761 59.1216L66.1264 38.9945" stroke="#221D1E" stroke-opacity="0.5" stroke-width="0.33" stroke-miterlimit="10" stroke-linecap="round" stroke-linejoin="round" stroke-dasharray="0.9 0.9"/>
<path d="M23.6552 60.4614L81.414 40.3343" stroke="#221D1E" stroke-opacity="0.5" stroke-width="0.33" stroke-miterlimit="10" stroke-linecap="round" stroke-linejoin="round" stroke-dasharray="0.9 0.9"/>
<path d="M55.1421 29.7612C55.1421 29.7612 77.1526 29.9127 89.9805 30.4449C93.3015 30.5826 93.9818 34.0119 93.9818 34.0119L35.6129 53.7256L30.2899 53.4463L28.1509 54.9514L22.6953 54.44L21.0157 52.4117L15.3577 51.8803L12.88 53.6268L7.43176 53.1165L7.42907 53.1146L5.60825 50.9144L2.1386 50.5871C2.1386 50.5871 1.30091 47.3025 2.68173 46.4048C2.89759 46.2644 3.11316 46.1653 3.27334 46.1137L55.1421 29.7612Z" fill="white" stroke="black" stroke-width="0.86" stroke-linecap="round" stroke-linejoin="round"/>
<path d="M39.7395 72.5377L39.8708 72.9471L39.7395 72.5377ZM8.10606 70.1809L8.15033 69.7531L8.15923 69.7542L8.10606 70.1809ZM2.87995 57.0011L2.82348 56.5748L3.67603 56.4618L3.73251 56.8881L2.87995 57.0011ZM39.8708 72.9471C39.3557 73.1123 38.4654 73.1806 37.3635 73.1941C36.2417 73.2079 34.8425 73.1643 33.272 73.0804C30.1301 72.9124 26.2798 72.5815 22.5459 72.2153C18.8109 71.849 15.1879 71.4471 12.4989 71.1368C11.1543 70.9817 10.043 70.8494 9.26781 70.7559C8.8802 70.7091 8.57659 70.6721 8.36982 70.6467C8.26644 70.634 8.18727 70.6242 8.13391 70.6176C8.10723 70.6143 8.08701 70.6118 8.07344 70.6101C8.06665 70.6093 8.06153 70.6086 8.0581 70.6082C8.05638 70.608 8.05509 70.6078 8.05422 70.6077C8.05378 70.6077 8.05345 70.6076 8.05323 70.6076C8.05301 70.6076 8.05289 70.6076 8.10606 70.1809C8.15923 69.7542 8.15933 69.7542 8.15953 69.7542C8.15974 69.7542 8.16005 69.7543 8.16047 69.7543C8.16131 69.7544 8.16257 69.7546 8.16426 69.7548C8.16763 69.7552 8.17268 69.7558 8.17941 69.7567C8.19285 69.7583 8.21295 69.7608 8.23949 69.7641C8.29259 69.7707 8.37149 69.7804 8.47459 69.7931C8.6808 69.8184 8.98381 69.8554 9.37079 69.9021C10.1448 69.9954 11.2545 70.1275 12.5975 70.2825C15.2835 70.5924 18.9014 70.9938 22.6298 71.3594C26.3593 71.7251 30.1948 72.0547 33.3179 72.2216C34.88 72.3051 36.2581 72.3476 37.3529 72.3342C38.4677 72.3205 39.2333 72.2484 39.6082 72.1282L39.8708 72.9471ZM8.06181 70.6086C7.71265 70.5725 7.28743 70.4595 6.8322 70.0928C6.38754 69.7345 5.93798 69.1534 5.49179 68.2242C4.60273 66.3727 3.67965 63.0374 2.87995 57.0011L3.73251 56.8881C4.52941 62.9033 5.43897 66.1274 6.26704 67.8519C6.67942 68.7107 7.05954 69.1715 7.37174 69.4231C7.67338 69.6661 7.93219 69.7306 8.15032 69.7532L8.06181 70.6086ZM39.6082 72.1282C39.8227 72.0594 40.0992 71.9541 40.3278 71.8634C40.4409 71.8186 40.54 71.7782 40.6108 71.749C40.6461 71.7345 40.6744 71.7227 40.6936 71.7147C40.7033 71.7107 40.7107 71.7076 40.7156 71.7055C40.7181 71.7045 40.7199 71.7037 40.7211 71.7032C40.7217 71.7029 40.7221 71.7028 40.7224 71.7026C40.7226 71.7026 40.7227 71.7025 40.7227 71.7025C40.7227 71.7025 40.7228 71.7025 40.7228 71.7025C40.7228 71.7025 40.7228 71.7025 40.7228 71.7025C40.7228 71.7025 40.7227 71.7025 40.8899 72.0987C41.057 72.4949 41.057 72.4949 41.057 72.4949C41.057 72.4949 41.057 72.4949 41.057 72.4949C41.0569 72.4949 41.0569 72.4949 41.0568 72.495C41.0567 72.495 41.0565 72.4951 41.0563 72.4952C41.056 72.4953 41.0554 72.4956 41.0547 72.4959C41.0532 72.4965 41.0511 72.4974 41.0484 72.4985C41.043 72.5008 41.035 72.5041 41.0248 72.5084C41.0045 72.5169 40.975 72.5291 40.9383 72.5442C40.8649 72.5745 40.7623 72.6163 40.645 72.6628C40.413 72.7549 40.1142 72.8691 39.8708 72.9471L39.6082 72.1282Z" fill="black"/>
<path d="M3.27353 46.1137C3.11336 46.1653 2.51486 46.3982 2.68192 46.4048C2.68192 46.4048 32.3621 49.1998 36.443 48.8707C40.5239 48.5416 88.7008 31.3359 88.7008 31.3359" stroke="#221D1E" stroke-width="0.33" stroke-miterlimit="10" stroke-linecap="round" stroke-linejoin="round" stroke-dasharray="0.9 0.9"/>
<path d="M36.762 59.7697C37.1367 63.3497 37.8925 69.4231 38.3307 70.5961C38.8112 71.8856 39.7465 72.5024 41.047 72.0463L93.4653 53.6574L93.4606 53.6131C95.8147 52.8326 96.0206 50.7152 95.7792 48.1424L94.8195 39.7479" stroke="black" stroke-width="0.86" stroke-miterlimit="10"/>
<path d="M86.9004 18.754H85.8467L85.8467 24.7229H86.9004L86.9004 18.754Z" fill="black"/>
<path d="M75.6256 21.7384C75.6256 19.9146 74.3929 18.6824 72.5697 18.6824C70.7465 18.6824 69.5137 19.9146 69.5137 21.7384C69.5137 23.5622 70.7465 24.7944 72.5697 24.7944C74.3929 24.7944 75.6256 23.5622 75.6256 21.7384ZM72.5697 23.8006C71.3693 23.8006 70.5674 22.9944 70.5674 21.7384C70.5674 20.4824 71.3693 19.6756 72.5697 19.6756C73.77 19.6756 74.5713 20.4824 74.5713 21.7384C74.5713 22.9944 73.77 23.8006 72.5697 23.8006Z" fill="black"/>
<path d="M90.9854 18.6824C89.1622 18.6824 87.9294 19.9146 87.9294 21.7384C87.9294 23.5622 89.1622 24.7944 90.9854 24.7944C91.8319 24.7944 92.5171 24.5071 92.9785 24.006H92.9926L93.22 24.7259H94.0414L94.0414 21.7384C94.0414 19.9146 92.8086 18.6824 90.9854 18.6824ZM90.9854 23.8006C89.785 23.8006 88.9838 22.9932 88.9838 21.7384C88.9838 20.4836 89.785 19.6756 90.9854 19.6756C92.1858 19.6756 92.9883 20.4824 92.9883 21.7384C92.9883 22.9944 92.1675 23.8006 90.9854 23.8006Z" fill="black"/>
<path d="M82.5094 18.6824C81.6696 18.6824 81.0682 19.1286 80.8054 19.5234H80.798C80.4521 18.9789 79.8042 18.6824 79.0463 18.6824C78.4798 18.6814 77.936 18.9052 77.5342 19.3046H77.5251L77.3509 18.7546H76.53L76.53 24.726H77.5862L77.5862 20.5417C77.5862 20.0307 78.0806 19.6756 78.8239 19.6756C79.6068 19.6756 80.0615 20.0637 80.0615 20.6969L80.0615 24.726H81.1152L81.1152 20.6095C81.1152 20.0534 81.5522 19.6756 82.3278 19.6756C83.1035 19.6756 83.5655 20.0772 83.5655 20.6969L83.5655 24.726H84.6192L84.6192 20.6309C84.6198 19.4049 83.7403 18.6824 82.5094 18.6824Z" fill="black"/>
<path d="M67.4257 21.4457L65.9949 21.0588C65.6966 20.9775 65.5285 20.9017 65.4112 20.8057C65.3553 20.7605 65.3108 20.7029 65.2811 20.6374C65.2514 20.5719 65.2373 20.5005 65.2401 20.4286C65.2401 20.2349 65.3244 20.0582 65.5279 19.9146C65.7571 19.7526 66.0536 19.6756 66.567 19.6756C67.2008 19.6756 67.8187 19.8889 68.359 20.2104L68.6787 19.2863C68.1555 18.9269 67.3793 18.6818 66.5792 18.6818C65.6911 18.6818 65.2456 18.8371 64.8067 19.1647C64.6093 19.313 64.4488 19.5049 64.3377 19.7254C64.2266 19.9459 64.1679 20.1891 64.1662 20.436C64.1662 20.8717 64.2738 21.1828 64.4956 21.4438C64.701 21.6846 65.017 21.879 65.5701 22.033L67.0498 22.4462C67.3126 22.5201 67.4728 22.5794 67.5858 22.6668C67.6531 22.7162 67.7069 22.7816 67.7425 22.857C67.778 22.9325 67.7941 23.0157 67.7894 23.0989C67.7894 23.3171 67.658 23.495 67.4722 23.6081C67.2863 23.7211 66.9086 23.8037 66.4105 23.8037C65.7009 23.8037 64.888 23.5152 64.3624 23.2096L64.0415 24.1355C64.3826 24.38 65.3984 24.7938 66.4148 24.7938C67.221 24.7938 67.7949 24.655 68.2313 24.2914C68.6316 23.9577 68.859 23.5414 68.859 22.9816C68.8565 22.231 68.3987 21.7109 67.4257 21.4457Z" fill="black"/>
</g>
<defs>
<clipPath id="clip0_68_889">
<rect width="100" height="100" fill="white" transform="matrix(-1 0 0 1 100.5 0.855591)"/>
</clipPath>
</defs>
</svg>
