<svg width="100" height="100" viewBox="0 0 100 100" fill="none" xmlns="http://www.w3.org/2000/svg">
<rect width="100" height="100" fill="white"/>
<path d="M50.1482 96.2963C75.6348 96.2963 96.2956 75.6347 96.2956 50.1481C96.2956 24.6611 75.6348 3.99988 50.1482 3.99988C24.6612 3.99988 4 24.6611 4 50.1481C4 75.6347 24.6612 96.2963 50.1482 96.2963Z" stroke="#221D1E" stroke-width="0.860928" stroke-miterlimit="10"/>
<path d="M49.0144 22.7767C47.5413 24.2589 47.5642 26.2213 48.5768 27.4316C49.0833 28.0581 49.8429 28.4964 50.6715 28.7262C51.707 29.039 52.9731 29.039 53.8245 28.3921C54.1698 28.1206 54.4229 27.7866 54.6074 27.4108C55.2747 26.1374 55.2747 24.6139 54.5841 23.3401C53.8935 22.0877 51.316 20.6892 49.0144 22.7767Z" stroke="#221D1E" stroke-width="0.860928" stroke-miterlimit="10"/>
<path d="M37.9409 41.9815C40.3965 40.9018 50.3574 33.9537 52.5515 39.6654C54.9895 46.022 41.5455 66.4663 44.2799 73.8848C46.4391 79.7361 58.7337 76.4098 61.3108 73.7978" stroke="#221D1E" stroke-width="0.860928" stroke-miterlimit="10"/>
</svg>
