<svg width="101" height="100" viewBox="0 0 101 100" fill="none" xmlns="http://www.w3.org/2000/svg">
<g clip-path="url(#clip0_13161_339)">
<rect width="100" height="100" transform="translate(0.200195)" fill="white"/>
<path d="M40.8209 84.0539C40.7666 84.1203 40.6945 84.1707 40.6151 84.1964C40.5918 84.2039 40.5655 84.211 40.5488 84.2295C40.521 84.2599 40.5271 84.3066 40.536 84.3446C40.6016 84.6164 40.7545 84.8608 40.9659 85.0319C40.9676 85.0816 40.9268 85.1266 40.8828 85.149C40.8386 85.1729 40.7892 85.1822 40.7438 85.2043C40.6634 85.2451 40.6021 85.3269 40.5843 85.4168C40.5783 85.4485 40.5782 85.4812 40.5919 85.5094C40.6175 85.5615 40.6804 85.5765 40.729 85.6043C40.766 85.6249 40.7974 85.6559 40.8195 85.6923C40.8535 85.749 40.8684 85.8206 40.9195 85.861C41.0042 85.9283 41.1409 85.8733 41.2315 85.9324C41.1837 85.9968 41.1362 86.0597 41.0884 86.124C41.0124 86.2256 41.0336 86.3607 41.0593 86.4821C41.0909 86.632 41.0917 86.7893 41.0599 86.9414C41.0523 86.9783 41.0436 87.0175 41.0578 87.0514C41.0875 87.1205 41.1882 87.1134 41.2449 87.1618C41.325 87.2295 41.2819 87.3623 41.2909 87.4697C41.3098 87.7201 41.6221 87.8594 41.6279 88.1112C41.6288 88.1523 41.6218 88.1995 41.6479 88.2305C41.6688 88.2557 41.7043 88.2618 41.732 88.2783C41.812 88.328 41.8035 88.4491 41.8398 88.5383C41.8624 88.595 41.9045 88.6392 41.9452 88.6832C42.0234 88.7672 42.1044 88.8526 42.2059 88.9052C42.3075 88.9577 42.4357 88.973 42.5388 88.9145C42.406 88.9225 42.3177 89.0853 42.3391 89.2189C42.3606 89.3521 42.4583 89.4558 42.5575 89.5417C42.6767 89.6443 42.8072 89.7336 42.9462 89.8077C42.8675 89.7831 42.796 89.9037 42.8382 89.9752C42.8796 90.0476 42.9843 90.0572 43.0598 90.0188C43.0511 90.1179 43.0446 90.2272 43.1055 90.3012C43.1681 90.3774 43.278 90.3888 43.3592 90.4455C43.4948 90.5405 43.517 90.7387 43.6229 90.8666C43.6368 90.8839 43.6547 90.8999 43.6767 90.8999C43.7041 90.8998 43.7263 90.876 43.7525 90.8689C43.8017 90.8561 43.8435 90.9071 43.8576 90.9556C43.8717 91.0042 43.873 91.061 43.9021 91.1012C43.9559 91.1765 44.068 91.16 44.1607 91.1604C44.2534 91.1603 44.3672 91.2353 44.327 91.3231C44.3881 91.627 44.6465 91.7891 44.911 91.9326C44.9292 91.8779 45.0057 91.866 45.0524 91.8948C45.0995 91.9242 45.125 91.9765 45.1569 92.0225C45.2979 92.2286 45.3662 92.3784 45.5987 92.2754C45.6797 92.3661 45.6734 92.5067 45.7014 92.6277C45.7283 92.7491 45.8408 92.8751 45.9532 92.8205C46.0251 92.7625 46.0974 92.7055 46.1693 92.6475C46.3198 92.7458 46.1876 93.0716 46.3559 93.137C46.4538 93.1753 46.5533 93.0777 46.6207 92.9897C46.7366 92.9747 46.7329 93.1865 46.8355 93.2382C46.8685 93.2551 46.9089 93.2522 46.9428 93.2697C47.0382 93.3174 47.0035 93.4652 47.0312 93.572C47.0541 93.66 47.1342 93.7282 47.2235 93.7305C47.3128 93.7333 47.4038 93.6656 47.4252 93.5753C47.5244 93.6392 47.651 93.659 47.7668 93.6299C47.798 93.7299 47.7699 93.8417 47.7817 93.947C47.7932 94.0523 47.8819 94.1653 47.9805 94.13C48.0269 94.1134 48.0578 94.0689 48.0963 94.0374C48.195 93.9548 48.3517 93.9599 48.4381 94.0496C48.4129 94.1369 48.3877 94.2232 48.3625 94.31C48.5311 94.4327 48.7422 94.4926 48.952 94.4792C49.0668 94.5499 49.0576 94.7906 49.1935 94.7816C49.227 94.7796 49.2563 94.7603 49.2892 94.7498C49.3938 94.7135 49.5006 94.7732 49.5997 94.8132C49.6992 94.8537 49.8364 94.865 49.8997 94.7715C49.924 94.7343 49.9341 94.6851 49.9689 94.6588C50.0306 94.6134 50.0505 94.454 50.0703 94.5274C50.0901 94.6008 50.0747 94.6808 50.0949 94.7543C50.1205 94.8466 50.2063 94.9157 50.3008 94.9198C50.3954 94.9225 50.4908 94.8608 50.5299 94.7698C50.5502 94.7237 50.5559 94.6714 50.5811 94.6285C50.6063 94.5857 50.6648 94.5543 50.7033 94.5828C50.7423 94.6109 50.731 94.674 50.739 94.7231C50.7605 94.8607 50.9915 94.8736 51.0388 94.7394C51.015 94.8953 51.3189 95.4359 51.4662 95.4703C51.6127 95.5035 51.7606 95.5243 51.911 95.5323C51.9961 95.5369 52.1082 95.5179 52.1285 95.4317C52.1369 95.3965 52.1272 95.3554 52.1493 95.3262C52.1733 95.2972 52.2153 95.2999 52.2501 95.3049C52.3393 95.3179 52.4275 95.3303 52.5166 95.3438C52.6139 95.3576 52.7377 95.4083 52.7215 95.5092C52.821 95.5995 52.9268 95.6937 53.0392 95.767C53.1403 95.7756 53.1319 95.5414 53.2328 95.5509C53.2553 95.5535 53.2725 95.5684 53.2899 95.5819C53.5092 95.7549 54.0896 95.9607 54.2227 95.7005C54.2676 95.7846 54.3189 95.8747 54.4058 95.9088C54.494 95.9436 54.6213 95.8836 54.617 95.7863C54.6153 95.7533 54.6017 95.7121 54.628 95.6904C54.6376 95.6821 54.6509 95.6808 54.6635 95.6784C54.7492 95.6665 54.8341 95.6539 54.9192 95.6424C54.9492 95.6378 54.9815 95.6341 55.0065 95.6488C55.028 95.6609 55.0411 95.683 55.0535 95.704C55.1102 95.7939 55.2169 95.8849 55.31 95.8287C55.3412 95.8102 55.3629 95.777 55.3967 95.7637C55.4705 95.7343 55.5344 95.8122 55.6019 95.8516C55.6793 95.8964 55.7851 95.8872 55.8584 95.8294C55.9309 95.771 55.9672 95.6664 55.9446 95.5769C56.079 95.6532 56.2778 95.5755 56.3345 95.4239C56.3683 95.4546 56.363 95.5103 56.3776 95.5546C56.4109 95.654 56.5484 95.6727 56.639 95.6196C56.7303 95.566 56.7845 95.4652 56.8342 95.371C56.9567 95.4581 57.1563 95.3947 57.2173 95.2501C57.2299 95.2189 57.2424 95.1799 57.2746 95.1698C57.2957 95.1628 57.3166 95.1725 57.3373 95.1811C57.4834 95.2445 57.6687 95.279 57.7967 95.1741C57.8475 95.1323 57.8948 95.067 57.9581 95.0701C58.0447 95.0745 58.0686 95.1934 58.135 95.2492C58.2117 95.3144 58.3408 95.2776 58.4033 95.1923C58.4667 95.1075 58.4747 94.9936 58.4593 94.8921C58.6386 94.7738 58.8537 95.1053 59.0411 95.001C59.0838 94.977 59.114 94.9334 59.1392 94.8905C59.1889 94.8065 59.2293 94.7158 59.2584 94.6232" stroke="#221D1E" stroke-width="0.625" stroke-miterlimit="10" stroke-linecap="round" stroke-linejoin="round"/>
<path d="M59.2193 94.6122C59.2631 94.6098 59.3084 94.6072 59.3522 94.6048C59.3272 94.637 59.3517 94.6862 59.3861 94.7034C59.4214 94.7211 59.4623 94.7217 59.4989 94.7347C59.5322 94.7463 59.5603 94.7693 59.5937 94.7809C59.6727 94.8094 59.7626 94.7708 59.8329 94.7203C59.9038 94.6694 59.9675 94.6051 60.0471 94.5703C60.1178 94.5393 60.1978 94.5329 60.2608 94.4861C60.323 94.4402 60.3494 94.3276 60.283 94.2928C60.3554 94.2358 60.4389 94.1756 60.5267 94.1884C60.6212 94.2018 60.5453 94.2197 60.6398 94.2301C60.7481 94.2427 60.8389 94.1451 60.9334 94.0838C60.9789 94.0548 61.0291 94.0333 61.0675 93.9964C61.1466 93.9243 61.1691 93.7955 61.1194 93.7042C61.1994 93.7451 61.2794 93.7855 61.3595 93.8264C61.3717 93.8322 61.3835 93.8379 61.3959 93.8365C61.4111 93.8364 61.4251 93.8249 61.4374 93.8147C61.5019 93.7608 61.5663 93.7079 61.6308 93.6541C61.6667 93.624 61.704 93.5908 61.7146 93.5451C61.7329 93.4616 61.7942 93.4414 61.851 93.3771C61.8802 93.3431 61.9318 93.3438 61.97 93.362C62.0076 93.3806 62.0355 93.4143 62.0678 93.4423C62.1021 93.4726 61.9991 93.4198 62.0428 93.4369C62.0607 93.4437 62.0793 93.4495 62.0995 93.4483C62.1277 93.4464 62.1543 93.4286 62.1789 93.4119C62.233 93.3745 62.4305 93.4133 62.4731 93.3619C62.5152 93.3109 62.543 93.2424 62.5331 93.1774C62.5221 93.1098 62.4718 93.0413 62.5034 92.9794C62.5358 92.9156 62.6266 92.9181 62.6861 92.9499C62.7455 92.9822 62.7978 93.0348 62.8665 93.0417C62.9895 93.0542 63.041 92.8865 63.0805 92.7642C63.0907 92.7331 63.0954 92.6997 63.1139 92.6723C63.1511 92.6151 63.2259 92.6049 63.2898 92.592C63.5804 92.5311 63.7044 91.8351 63.775 91.5385C63.8562 91.6152 63.9367 91.6909 64.0174 91.7675C64.1778 91.6027 64.3376 91.4383 64.4985 91.2731C64.5857 91.1832 64.678 91.0385 64.5984 90.9479C64.7389 90.967 64.8795 90.8665 64.9558 90.7398C65.0321 90.6131 65.0575 90.4627 65.0822 90.3167C65.3562 90.3714 65.6649 90.1658 65.734 89.8819C65.6526 89.79 65.5713 89.6981 65.4895 89.6062C65.4601 89.5724 65.287 89.4403 65.3213 89.4078C65.3458 89.3853 65.5261 89.4714 65.5563 89.481C65.7793 89.5498 66.0352 89.5115 66.2364 89.3788C66.2842 89.3471 66.3308 89.3084 66.3597 89.2576C66.4336 89.1275 66.3717 88.9643 66.4074 88.8194C66.4407 88.6871 66.5488 88.5886 66.6169 88.4704C66.6843 88.3514 66.5464 88.0896 66.4247 88.0436C66.5572 88.1142 66.7104 87.9706 66.7891 87.8344C66.8422 87.7412 66.7476 87.5618 66.7432 87.4553C66.7392 87.3496 66.6686 87.242 66.5652 87.2325C66.7892 87.2041 67.0408 87.1582 67.1718 86.9659C67.3254 86.7409 67.2441 86.4039 67.4236 86.2007C67.4881 86.1284 67.5842 86.075 67.6096 85.981C67.6517 85.8266 67.4794 85.7174 67.3371 85.6626C67.4322 85.5315 67.4709 85.3613 67.4422 85.2042C67.5857 85.2478 67.7298 85.2907 67.8733 85.3342C67.9365 85.1384 68.0007 84.9419 68.0639 84.7461C68.1075 84.6102 68.1529 84.4693 68.137 84.3304C68.121 84.1915 68.0259 84.0532 67.8903 84.0406C67.9328 84.0964 68.0006 84.0056 68.0574 83.9609C68.1242 83.908 68.1913 83.8559 68.2576 83.803C68.3154 83.7577 68.374 83.7103 68.4115 83.648C68.4841 83.5268 68.4644 83.3774 68.4567 83.2391C68.4473 83.064 68.4629 82.8854 68.5021 82.7122C68.5099 82.6778 68.5178 82.6395 68.5005 82.61C68.4899 82.593 68.4727 82.5818 68.4545 82.5727C68.358 82.5187 68.241 82.4369 68.272 82.3255C68.3045 82.2106 68.4585 82.1996 68.5527 82.1269C68.7104 82.0045 68.6551 81.7579 68.694 81.5611C68.7024 81.5198 68.7153 81.4778 68.7099 81.4373C68.6934 81.3143 68.5343 81.2705 68.4933 81.1548C68.4524 81.0415 68.5416 80.92 68.6263 80.8305C68.7109 80.741 68.8049 80.6263 68.774 80.5086C68.7648 80.4735 68.7448 80.4421 68.7246 80.4121C68.6389 80.2852 68.4679 80.3087 68.3707 80.1899C68.4253 80.0619 68.4801 79.9324 68.5342 79.8044C68.5516 79.7646 68.5687 79.721 68.5568 79.681C68.5467 79.6428 68.5134 79.6182 68.483 79.5942C68.3813 79.5142 68.2916 79.4163 68.2198 79.307C68.1886 79.26 68.1645 79.186 68.2105 79.1502C68.2333 79.1327 68.2635 79.1331 68.2914 79.1263C68.3835 79.1019 68.4272 78.9935 68.4565 78.8993C68.4866 78.8031 68.5136 78.6896 68.4575 78.611C68.3985 78.529 68.2822 78.5272 68.1843 78.5072C68.0608 78.4822 67.9469 78.4177 67.8625 78.3238C67.8512 78.2771 67.9229 78.2645 67.9713 78.255C68.0527 78.2396 68.1133 78.1544 68.1227 78.0692C68.132 77.984 68.1015 77.9013 68.06 77.829C67.9658 77.6665 67.8112 77.5435 67.6329 77.4881C67.7328 77.4582 67.7893 77.3145 67.8175 77.2118C67.8456 77.1092 67.839 77.0015 67.8315 76.8959C67.8274 76.8374 67.9656 76.8558 67.9616 76.7972C67.8951 76.7573 67.828 76.8748 67.7496 76.8801C67.6824 76.885 67.6427 76.8077 67.6302 76.7409C67.6177 76.6741 67.609 76.595 67.5536 76.5592C67.5141 76.5337 67.4526 76.5311 67.4388 76.4846C67.4308 76.4575 67.4441 76.4284 67.4584 76.4026C67.5012 76.3222 67.5431 76.2408 67.5864 76.1604C67.382 76.0688 67.2022 75.9233 67.068 75.7413C67.0225 75.6797 66.9819 75.5923 67.0255 75.5257C67.0581 75.4762 67.1235 75.4634 67.1689 75.4253C67.2428 75.3644 67.2499 75.2469 67.2114 75.1621C67.1725 75.0765 67.0969 75.0168 67.0247 74.96C66.9647 74.9127 66.8956 74.8617 66.8185 74.8741C66.7224 74.8894 66.6243 74.9965 66.5476 74.9404C66.5257 74.9246 66.514 74.8991 66.5044 74.8731C66.4545 74.7362 66.474 74.5735 66.5546 74.4475C66.5789 74.4104 66.6077 74.3726 66.6067 74.329C66.6051 74.2922 66.5812 74.2609 66.5571 74.234C66.4737 74.1396 66.3827 74.053 66.2847 73.9743C66.2418 73.9398 66.1881 73.9051 66.1332 73.9196C66.0991 73.9284 66.068 73.956 66.0328 73.9562C65.9713 73.956 65.9453 73.8725 65.9633 73.81C65.9803 73.7481 66.0223 73.6942 66.0336 73.6314C66.0523 73.5172 65.9615 73.4177 65.8633 73.3649C65.7656 73.3122 65.6527 73.2821 65.5719 73.2056C65.5168 73.1523 65.4792 73.0799 65.415 73.038C65.2823 72.9529 65.0705 73.0252 64.975 72.899C65.0507 72.7479 64.9682 72.5729 64.8863 72.4314C64.831 72.3355 64.7924 72.0817 64.7078 72.1583C64.6707 72.1925 64.6623 72.2498 64.6285 72.2883C64.5446 72.3879 64.3893 72.2952 64.3237 72.1869C64.2576 72.0785 64.1886 71.9385 64.0631 71.9421" stroke="#221D1E" stroke-width="0.625" stroke-miterlimit="10" stroke-linecap="round" stroke-linejoin="round"/>
<path d="M62.3671 74.314C62.4479 74.2462 62.5832 74.2797 62.621 74.3752C62.6476 74.4423 62.6317 74.5223 62.66 74.5882C62.716 74.7141 62.8965 74.7136 62.989 74.8145C62.9668 74.8227 62.9492 74.8419 62.9421 74.8658C63.0785 74.9009 63.0402 75.2162 63.1175 75.3367C63.212 75.4844 63.3971 75.5644 63.5703 75.5326C63.5025 75.6107 63.5129 75.7385 63.5805 75.8116C63.6481 75.8848 63.7563 75.9072 63.8548 75.8888C63.9533 75.8696 64.0437 75.8153 64.1249 75.7542C64.1793 75.9344 64.2119 76.1227 64.2228 76.3126C64.2271 76.3945 64.2285 76.4795 64.2583 76.5546C64.2881 76.6295 64.3529 76.6956 64.4338 76.6957C64.4021 76.7871 64.399 76.8943 64.4488 76.9726C64.4994 77.0518 64.6121 77.0889 64.6919 77.0365C64.725 77.0154 64.7496 76.9825 64.7816 76.9584C64.8126 76.9347 64.8594 76.9225 64.8876 76.9479C64.904 76.9616 64.9109 76.9834 64.9165 77.0035C64.9641 77.1744 64.9878 77.3539 64.9856 77.5343C64.9839 77.6454 64.9731 77.7587 65.0005 77.8643C65.0291 77.9694 65.1091 78.0689 65.2164 78.0756C65.1687 78.1592 65.1253 78.2752 65.1927 78.3373C65.2354 78.3761 65.3024 78.3687 65.3609 78.3599C65.4494 78.3458 65.5259 78.3489 65.6155 78.3342C65.5717 78.5999 65.406 78.7938 65.3945 79.0619C65.3929 79.097 65.3918 79.1323 65.4034 79.1644C65.439 79.2618 65.5644 79.2766 65.6665 79.2758C65.6198 79.3942 65.5726 79.5155 65.5613 79.6413C65.5494 79.7677 65.5792 79.9025 65.666 79.9869C65.6745 79.995 65.684 80.0031 65.6946 80.0071C65.7456 80.0237 65.7862 79.9478 65.8401 79.9434C65.8508 80.075 65.8218 80.2111 65.7575 80.3296C65.719 80.4014 65.6665 80.4694 65.6569 80.5498C65.647 80.6418 65.6967 80.7267 65.7442 80.8039C65.7569 80.8252 65.772 80.8476 65.7943 80.858C65.8193 80.8695 65.8463 80.8651 65.8738 80.8608C65.9248 80.853 65.9764 80.8438 66.0279 80.8361C65.9599 80.9407 65.8763 81.036 65.7815 81.1155C65.7471 81.1452 65.7112 81.1725 65.6867 81.2105C65.6384 81.2829 65.6415 81.3756 65.6468 81.4606C65.6523 81.5567 65.6772 81.6759 65.7687 81.6925C65.7508 81.736 65.6921 81.7337 65.6505 81.7533C65.5995 81.7774 65.5749 81.8382 65.5585 81.893C65.5338 81.9738 65.5921 81.9155 65.5815 81.9994C65.5778 82.0297 65.5743 82.0616 65.5809 82.0908C65.6019 82.185 65.7051 82.2515 65.7951 82.2781C65.7147 82.3371 65.6308 82.4 65.5869 82.4908C65.5435 82.5818 65.5584 82.7089 65.6436 82.7533C65.6188 82.8598 65.478 82.8808 65.398 82.9561C65.3381 83.0118 65.3149 83.098 65.2974 83.1792C65.2801 83.256 65.2636 83.3337 65.2486 83.4116C65.3834 83.4634 65.53 83.4833 65.676 83.4697C65.5667 83.6015 65.4325 83.712 65.2831 83.7913C65.2565 83.8054 65.228 83.8191 65.2099 83.8449C65.1955 83.8654 65.19 83.891 65.1852 83.916C65.1476 84.095 65.1032 84.2765 65.0081 84.4334C64.9473 84.5354 64.8659 84.623 64.8 84.7235C64.7344 84.8226 64.6828 84.938 64.6954 85.0544C64.6381 85.0589 64.5803 85.07 64.5236 85.0865C64.4848 85.0978 64.4458 85.1134 64.4159 85.1424C64.3773 85.1803 64.3608 85.2366 64.352 85.2897C64.342 85.3537 64.3412 85.4215 64.3653 85.48C64.3942 85.5483 64.4534 85.5972 64.5126 85.6394C64.5703 85.6792 64.6305 85.7157 64.6924 85.7474C64.6729 85.7751 64.6372 85.7854 64.6054 85.7831C64.5735 85.7808 64.5441 85.7663 64.5153 85.7542C64.4053 85.7087 64.2872 85.6869 64.1702 85.6683C64.1374 85.6629 64.1021 85.6578 64.0714 85.6734C64.0411 85.689 64.0216 85.7205 64.0042 85.7508C63.9828 85.7878 63.9603 85.8291 63.9691 85.8696C63.9731 85.891 63.9864 85.9094 63.9987 85.9269C64.0656 86.0236 64.1317 86.1193 64.1986 86.216C64.2101 86.2326 64.2219 86.2508 64.2286 86.2704C64.2357 86.2967 64.2333 86.325 64.229 86.3523C64.216 86.4328 64.3315 86.5869 64.2989 86.6619C64.2767 86.7136 64.2263 86.8461 64.1743 86.8729C64.1361 86.8932 64.0127 86.8182 63.9679 86.8019C63.8949 86.7758 63.8198 86.7538 63.7438 86.7375C63.7222 86.7325 63.6985 86.7278 63.6781 86.734C63.6485 86.7424 63.6278 86.7685 63.6107 86.7937C63.5343 86.9028 63.4761 87.0259 63.4396 87.1534C63.434 87.1739 63.4282 87.1958 63.4328 87.2165C63.4368 87.2341 63.4468 87.2483 63.4568 87.2625C63.5335 87.3711 63.6103 87.4797 63.6865 87.5882C63.6241 87.6229 63.5618 87.6561 63.4994 87.6908C63.4856 87.6981 63.4722 87.7055 63.4626 87.7171C63.4437 87.7384 63.439 87.7685 63.4365 87.7969C63.4254 87.8873 63.4143 87.9777 63.4031 88.0681C63.31 88.0143 63.2246 87.9463 63.1521 87.8665C63.096 87.9044 63.0381 87.9472 63.0131 88.0109C62.9869 88.0789 63.004 88.154 63.0179 88.2242C63.0474 88.3766 63.048 88.5574 62.9377 88.6704C62.8256 88.6106 62.7136 88.55 62.6007 88.4893C62.5836 88.4798 62.566 88.471 62.547 88.4708C62.5286 88.47 62.5103 88.478 62.4942 88.4871C62.3667 88.5546 62.2739 88.6897 62.2573 88.8345C62.2402 88.9785 62.3 89.1271 62.4103 89.2139C62.3678 89.243 62.3118 89.2832 62.2697 89.3124C62.1933 89.2201 62.1094 89.1361 62.0168 89.0603C62.013 89.0567 62.0085 89.0538 62.0028 89.0529C61.9971 89.0519 61.9903 89.0552 61.9853 89.0588C61.9478 89.0806 61.9086 89.1036 61.8803 89.1381C61.836 89.1942 61.8271 89.2702 61.8214 89.3415C61.8173 89.3836 61.8142 89.4251 61.8109 89.4681C61.8063 89.5168 61.7968 89.5743 61.7548 89.5968C61.7398 89.6054 61.7224 89.6077 61.7064 89.6102C61.5694 89.6288 61.5562 90.0802 61.4195 90.0997C61.3917 90.1032 61.3616 90.1087 61.343 90.1307C61.3093 90.1718 61.3328 90.2467 61.2896 90.2766C61.2721 90.2665 61.2579 90.2516 61.2481 90.2329C61.1174 90.3271 60.9397 90.2719 60.8129 90.3721C60.7147 90.4485 60.6827 90.6036 60.7429 90.7087C60.7733 90.7613 60.8258 90.8189 60.7991 90.8772C60.7785 90.9223 60.7198 90.9356 60.6742 90.9216C60.6292 90.9067 60.5935 90.8728 60.5543 90.8461C60.445 90.7713 60.3014 90.7507 60.1722 90.791C60.043 90.8317 59.9305 90.9342 59.8751 91.0612C59.8117 91.0488 59.7469 91.0357 59.6823 91.0466C59.6177 91.0574 59.5524 91.0979 59.5297 91.1622C59.526 91.1738 59.5231 91.1861 59.5147 91.196C59.4912 91.2216 59.4528 91.2024 59.4218 91.1917C59.3415 91.162 59.3847 91.2791 59.3259 91.347C59.2674 91.4154 59.3763 91.578 59.3554 91.6651C59.3332 91.7543 59.3151 91.8487 59.258 91.9212C59.2301 91.9564 59.1955 91.9842 59.1601 92.0108C59.0256 92.1108 58.8798 92.1953 58.7264 92.2596C58.6497 92.292 58.5473 92.3135 58.5001 92.2475C58.4745 92.2113 58.4749 92.1615 58.457 92.1201C58.4103 92.0127 58.2465 92.0153 58.1616 92.1001C58.0772 92.185 58.0569 92.3156 58.0599 92.4342C58.0606 92.4954 58.0655 92.564 58.026 92.6115C58.0114 92.6297 57.9914 92.6427 57.9708 92.6526C57.9255 92.6738 57.8716 92.682 57.8291 92.6577C57.7702 92.6255 57.7519 92.5484 57.7032 92.5012C57.654 92.454 57.5786 92.4436 57.5125 92.4669C57.447 92.4898 57.2774 92.4671 57.2415 92.5284C57.1822 92.4927 57.1169 92.458 57.0461 92.465C56.8621 92.4815 56.7742 92.7548 56.59 92.782C56.5327 92.7901 56.4759 92.7724 56.4196 92.765C56.3037 92.7478 56.1805 92.7719 56.0752 92.831C56.0598 92.8393 56.044 92.8496 56.034 92.8641C55.9985 92.9166 56.0435 93.0003 55.9999 93.0457C55.9562 93.0911 55.8881 93.0463 55.8418 93.0087C55.7202 92.9095 55.5492 92.8612 55.4007 92.9224C55.3351 92.9492 55.269 93.0228 55.2999 93.0872C55.3205 93.1305 55.3819 93.1557 55.3714 93.2044C55.3624 93.2435 55.3148 93.2546 55.2766 93.2559C55.0952 93.2621 54.913 93.2198 54.7543 93.1338C54.6553 93.0807 54.5614 93.0098 54.4503 92.9972C54.374 92.9887 54.2848 93.0172 54.2553 93.0906C54.2513 93.1007 54.2481 93.112 54.2405 93.1196C54.2228 93.1392 54.1936 93.1298 54.1687 93.1234C54.048 93.0908 53.905 93.1885 53.885 93.3171C53.8323 93.2015 53.5398 92.803 53.439 92.7296C53.3283 92.7269 53.2179 92.7247 53.1071 92.7219C53.0928 92.8642 53.0553 93.0048 53.0001 93.1372C52.919 93.1601 52.8495 93.074 52.8306 92.9915C52.8118 92.9084 52.8171 92.815 52.7719 92.745C52.7094 92.6453 52.5606 92.6302 52.4568 92.6921C52.354 92.7545 52.2933 92.8749 52.2735 92.9958C52.0197 92.7118 51.3946 92.4291 51.0901 92.2016C51.0028 92.1362 50.9749 92.2529 50.8673 92.2829C50.8148 92.2976 50.7616 92.3449 50.7128 92.323C50.6641 92.3007 50.6647 92.231 50.6447 92.1805C50.5993 92.0621 50.3966 92.0737 50.3549 92.1975C50.4257 92.0651 50.2773 91.9002 50.1338 91.926C49.99 91.9508 49.8896 92.1005 49.8623 92.2476C49.7223 92.2823 49.6104 92.1334 49.5823 91.9913C49.5542 91.8492 49.5673 91.693 49.4953 91.5695C49.4235 91.4449 49.2776 91.3825 49.1349 91.3723C49.0717 91.5025 49.0088 91.6337 48.9446 91.7647C48.8497 91.7098 48.809 91.5921 48.7823 91.4819C48.7555 91.3723 48.7315 91.2538 48.6502 91.1775C48.5697 91.1024 48.4117 91.1054 48.3668 91.2126C48.2919 91.1891 48.3224 91.0748 48.3125 90.9941C48.2976 90.858 48.1278 90.7962 47.9996 90.8425C47.8723 90.8894 47.7811 91.0059 47.6971 91.1162C47.6629 90.941 47.6661 90.7574 47.7064 90.5802C47.6 90.502 47.4267 90.5411 47.3564 90.6605C47.3279 90.7087 47.3038 90.7757 47.2496 90.7828C47.2237 90.7861 47.2003 90.7736 47.1794 90.7606C46.9656 90.6303 47.0788 90.2693 47.161 90.02C47.13 89.9346 47.0083 89.9203 46.9301 89.9715C46.8525 90.0223 46.8083 90.112 46.7692 90.1972C46.7655 90.058 46.7617 89.9163 46.7118 89.7888C46.6628 89.6615 46.5579 89.5494 46.4243 89.5337C46.4213 89.6094 46.4181 89.689 46.3809 89.7559C46.3441 89.8229 46.2619 89.872 46.1951 89.8439C46.1227 89.8135 46.1041 89.7139 46.1238 89.634C46.1422 89.5534 46.1877 89.4805 46.2032 89.3999C46.2435 89.188 46.0293 88.982 45.8257 89.037C45.8624 88.9295 45.8256 88.8026 45.7391 88.7378C45.6526 88.6734 45.5214 88.6763 45.4323 88.7443C45.3937 88.7729 45.3559 88.8153 45.3097 88.808C45.2784 88.8026 45.2563 88.7752 45.237 88.7488C45.1678 88.6539 45.0978 88.5595 45.028 88.464C45.0633 88.3968 45.0989 88.3194 45.1342 88.2522C45.146 88.2297 45.158 88.2057 45.1546 88.1817C45.1519 88.1622 45.1391 88.1461 45.1261 88.1313C45.0702 88.0674 45.0005 88.0159 44.9239 87.98C44.8898 88.022 44.8553 88.0659 44.8212 88.1079C44.7932 88.1435 44.7492 88.1825 44.7112 88.1629C44.6734 88.1418 44.6813 88.0844 44.695 88.0417C44.7211 87.9545 44.7452 87.8611 44.7242 87.7734C44.7033 87.6856 44.6221 87.6099 44.5349 87.6294C44.4867 87.6399 44.4478 87.6753 44.4049 87.6983C44.3619 87.7228 44.3034 87.7332 44.2694 87.698C44.3346 87.6106 44.3998 87.5232 44.4649 87.4363C44.4791 87.417 44.4935 87.3968 44.4995 87.3734C44.5061 87.3471 44.4994 87.3201 44.4903 87.2948C44.4365 87.1511 44.2875 87.0667 44.2312 86.9246C44.2156 86.8851 44.2079 86.8425 44.1875 86.8052C44.1374 86.7106 44.0086 86.6738 43.9131 86.7259C43.8701 86.5705 43.9022 86.4017 43.9068 86.2387C43.9109 86.0749 43.8723 85.8922 43.7383 85.811C43.6684 85.8688 43.5626 85.8712 43.4948 85.8171C43.5418 85.6744 43.6934 85.5631 43.6815 85.4157C43.6733 85.3178 43.5927 85.2476 43.5185 85.1881C43.6337 85.146 43.658 84.9751 43.5952 84.8733C43.5317 84.7706 43.4147 84.7202 43.3041 84.6754C43.3362 84.5788 43.3682 84.4824 43.3994 84.3865C43.4106 84.3544 43.4206 84.3206 43.4194 84.2872C43.4168 84.2448 43.3935 84.207 43.3748 84.1685C43.2649 83.9356 43.3359 83.6464 43.4538 83.4084C43.465 83.3852 43.4772 83.3599 43.471 83.3353C43.4643 83.3083 43.4389 83.2923 43.4145 83.2795C43.309 83.2221 43.2026 83.1655 43.097 83.1082C43.1592 83.0889 43.1956 83.0057 43.2114 82.9412C43.2271 82.8767 43.2265 82.8087 43.2394 82.7437C43.2575 82.6508 43.3056 82.5643 43.3732 82.498C43.4241 82.4489 43.4899 82.4067 43.5093 82.3383C43.5253 82.2812 43.5035 82.2208 43.4672 82.1772C43.4309 82.1335 43.3811 82.1047 43.3327 82.076C43.3466 82.0141 43.4046 81.975 43.4531 81.9351C43.5444 81.8595 43.615 81.7568 43.6527 81.6435C43.546 81.4046 43.2114 81.3735 43.0645 81.1597C43.1201 81.1755 43.1786 81.1918 43.237 81.1816C43.2955 81.1713 43.353 81.1263 43.3586 81.0652C43.3614 81.0391 43.355 81.0108 43.3696 80.9888C43.384 80.9684 43.4119 80.9648 43.4365 80.9586C43.5275 80.9338 43.5905 80.8328 43.5832 80.7379C43.5759 80.6431 43.5067 80.5622 43.4203 80.5317C43.4021 80.5258 43.3811 80.5193 43.3753 80.5007C43.3712 80.4897 43.3742 80.4761 43.3769 80.4641C43.3945 80.3969 43.4114 80.3303 43.429 80.2631C43.4375 80.2292 43.448 80.1925 43.4746 80.1696C43.497 80.1498 43.5273 80.1444 43.5537 80.1318C43.6418 80.0889 43.6779 79.9768 43.7527 79.9117C43.8178 79.8561 43.9197 79.8235 43.9336 79.7388C43.9462 79.6575 43.6512 79.6677 43.5821 79.6312C43.6613 79.4894 43.8461 79.4366 43.9227 79.2929C43.9358 79.267 43.9465 79.2378 43.9401 79.2094C43.9343 79.1819 43.9142 79.1609 43.8952 79.1416C43.7922 79.0419 43.6694 78.964 43.5356 78.9131C43.61 78.8635 43.5383 78.7439 43.5644 78.6567C43.5825 78.5955 43.637 78.5551 43.68 78.5091C43.7818 78.4005 43.828 78.2533 43.9017 78.1231C43.9141 78.1015 43.9271 78.0808 43.9465 78.0656C43.9885 78.0342 44.0442 78.0449 44.0946 78.0392C44.1927 78.0296 44.2799 77.9607 44.3371 77.8765C44.3944 77.7923 44.4261 77.6935 44.4574 77.5976C44.3652 77.5307 44.2673 77.4717 44.1648 77.4223C44.2444 77.3234 44.3841 77.3029 44.4776 77.2181C44.5365 77.1644 44.5752 77.0859 44.5787 77.0061C44.4713 76.9463 44.3554 76.9027 44.235 76.8777C44.3728 76.8016 44.5364 76.7793 44.6843 76.8163C44.707 76.8215 44.7315 76.8292 44.7525 76.818C44.7702 76.8091 44.7798 76.7908 44.7901 76.7733C44.8271 76.7049 44.8639 76.6379 44.9009 76.5696C44.9169 76.5391 44.9351 76.5044 44.928 76.4715C44.922 76.4454 44.9024 76.4253 44.8833 76.4073C44.7927 76.3215 44.7028 76.2366 44.6122 76.1508C44.7294 76.016 44.9141 75.9455 44.9756 75.7771C45.0101 75.6839 44.9806 75.5809 44.9931 75.4819C45.0151 75.3167 45.1505 75.1916 45.276 75.0825C45.2888 75.072 45.3018 75.0601 45.3182 75.0548C45.3469 75.0455 45.3767 75.0571 45.4051 75.0596C45.4778 75.0657 45.5444 75.014 45.6018 74.9652C45.7455 74.8444 45.8974 74.7087 45.9358 74.524C45.9442 74.4863 45.9463 74.4468 45.963 74.4119C45.9926 74.3527 46.0561 74.3211 46.1119 74.2861C46.1834 74.2411 46.2494 74.1849 46.305 74.1196C46.3442 74.0737 46.3786 74.0212 46.3892 73.9616C46.3996 73.9022 46.3811 73.8356 46.3324 73.8047C46.3992 73.8062 46.4658 73.8268 46.521 73.8632C46.5728 73.7943 46.6241 73.7246 46.6759 73.6557C46.6881 73.6393 46.7004 73.6229 46.7043 73.6036C46.7172 73.5475 46.6621 73.5059 46.6278 73.4634C46.5441 73.3587 46.5848 73.1737 46.7052 73.1088C46.7766 73.1678 46.8821 73.1668 46.9712 73.1358C47.0603 73.1048 47.1399 73.0464 47.2211 72.9957C47.3407 72.9225 47.4699 72.8628 47.5703 72.7628C47.6707 72.6629 47.7352 72.5076 47.6832 72.3802C47.7056 72.4591 47.84 72.4386 47.9137 72.4036C47.988 72.3679 48.042 72.3001 48.1092 72.2508C48.2216 72.1675 48.3614 72.1405 48.4901 72.0873C48.6174 72.0339 48.7483 71.9323 48.7627 71.7931C48.8671 71.8649 49.0109 71.8747 49.1284 71.8182C49.246 71.7616 49.3348 71.6421 49.3547 71.5111C49.3253 71.4966 49.3408 71.4439 49.3725 71.4314C49.4037 71.4189 49.4377 71.4326 49.4696 71.4438C49.587 71.4853 49.7158 71.4941 49.8407 71.469C49.888 71.4592 49.938 71.4423 49.9671 71.4022C50.0108 71.3408 49.9909 71.2461 50.0446 71.1959C50.1341 71.2786 50.2865 71.1894 50.3428 71.0755C50.399 70.9617 50.4096 70.8277 50.4798 70.7213C50.5178 70.8692 50.6435 70.9763 50.783 71.0296C50.9224 71.083 51.0755 71.0898 51.2252 71.0962C51.2711 71.0986 51.3192 71.0999 51.3624 71.0827C51.5026 71.0277 51.5142 70.8216 51.4574 70.6823C51.5975 70.7845 51.7667 70.8914 51.9345 70.8343C51.9964 70.8129 52.0507 70.771 52.1133 70.754C52.2006 70.7294 52.2985 70.7581 52.3568 70.8253C52.414 70.7056 52.4743 70.5813 52.5736 70.4945C52.6734 70.4077 52.8243 70.3693 52.93 70.4391C53.0077 70.4911 53.0435 70.587 53.0961 70.6658C53.1487 70.7446 53.2471 70.811 53.333 70.7669C53.4357 70.7146 53.4275 70.5635 53.4016 70.4515C53.4794 70.4401 53.5508 70.4828 53.62 70.5179C53.868 70.6415 54.1636 70.669 54.4366 70.5947C54.4805 70.582 54.5532 70.6096 54.5219 70.645C54.5687 70.7265 54.6924 70.7366 54.7812 70.7019C54.8249 70.6848 54.8631 70.652 54.9084 70.6462C54.9906 70.6355 55.0528 70.7085 55.1207 70.7551C55.2435 70.8403 55.4383 70.8261 55.5264 70.6954C55.5728 70.7702 55.6191 70.8457 55.665 70.9205C55.6775 70.9409 55.6908 70.9616 55.7103 70.9744C55.7354 70.9918 55.7683 70.9936 55.799 70.9994C55.8867 71.0161 55.9663 71.0654 56.055 71.0779C56.1442 71.0912 56.2558 71.0477 56.2725 70.956C56.3151 70.9646 56.3363 71.0101 56.3626 71.0447C56.4227 71.1255 56.5289 71.1571 56.6302 71.1517C56.7305 71.1469 56.8279 71.1099 56.9229 71.0732C56.9565 71.1518 56.9951 71.2357 57.0708 71.2726C57.1534 71.312 57.2565 71.2826 57.3402 71.3186C57.4245 71.3532 57.4731 71.4579 57.449 71.5498" stroke="#221D1E" stroke-width="0.625" stroke-miterlimit="10" stroke-linecap="round" stroke-linejoin="round"/>
<path d="M40.7985 84.0502C40.5168 83.9975 40.3167 83.6836 40.3775 83.3915C40.4239 83.3961 40.4709 83.4016 40.5167 83.3909C40.7039 83.3481 40.7573 83.0693 40.6526 82.9104C40.5479 82.7515 40.3549 82.6861 40.1755 82.6305C40.176 82.5347 40.1854 82.4221 40.2629 82.3664C40.3344 82.3151 40.4363 82.3335 40.5051 82.2802C40.5688 82.2306 40.5831 82.134 40.5575 82.0583C40.5319 81.9825 40.4769 81.9239 40.4231 81.8671C40.5292 81.7857 40.6476 81.6668 40.612 81.5407C40.5829 81.44 40.2371 81.4398 40.2626 81.3352C40.293 81.2101 40.521 81.155 40.4688 81.0421C40.4526 81.0067 40.4132 80.9918 40.3827 80.9692C40.2857 80.8976 40.2771 80.7508 40.3085 80.629C40.34 80.5071 40.4019 80.3933 40.4185 80.2689C40.4482 80.0463 40.3349 79.7916 40.4736 79.6137C40.5866 79.6384 40.748 79.6324 40.7719 79.5146C40.7892 79.4277 40.7089 79.3611 40.6614 79.2893C40.589 79.1792 40.5964 79.0183 40.6788 78.9094C40.7613 78.8005 40.9115 78.7516 41.0345 78.794C40.8845 78.6756 40.8478 78.4313 40.9553 78.2626C41.0321 78.1421 41.1718 78.0549 41.1949 77.9141C41.2153 77.7896 41.1344 77.6804 41.071 77.5755C41.0083 77.4716 40.963 77.3263 41.0414 77.2281C41.0806 77.1791 41.1431 77.1552 41.1811 77.1044C41.31 76.9347 41.0611 76.6675 41.1907 76.4987C41.298 76.3589 41.5382 76.461 41.6699 76.3443C41.773 76.2533 41.7479 76.0909 41.7406 75.955C41.7333 75.8191 41.7996 75.6367 41.931 75.647C41.9588 75.6493 41.9882 75.6595 42.0128 75.6446C42.0381 75.629 42.0431 75.594 42.045 75.5639C42.0548 75.4118 42.0626 75.2571 42.1151 75.1136C42.1675 74.97 42.2768 74.8367 42.4209 74.7974C42.5696 74.7572 42.52 74.4987 42.3836 74.4358C42.5282 74.3935 42.6428 74.2694 42.7125 74.1317C42.7822 73.9941 42.8143 73.8404 42.8459 73.6896C42.8875 73.7002 42.9293 73.7095 42.9709 73.7202C43.053 73.5161 43.1349 73.3135 43.217 73.1095C43.287 73.1324 43.3605 73.1568 43.4349 73.144C43.5092 73.1312 43.583 73.0703 43.5857 72.9939C43.5884 72.9121 43.5136 72.8495 43.5087 72.768C43.4992 72.5945 43.7767 72.5521 43.8459 72.39C43.8668 72.341 43.8653 72.286 43.8725 72.2324C43.9041 71.9796 44.1488 71.7674 44.3953 71.78C44.4851 71.5522 44.5913 71.3034 44.8046 71.1894C44.9329 71.1209 45.0962 71.103 45.1807 70.9823C45.2113 70.9394 45.2274 70.8873 45.2614 70.8472C45.3281 70.7692 45.4592 70.7628 45.5262 70.8363C45.6032 70.6542 45.7258 70.4956 45.8464 70.3398C45.8869 70.2871 45.9275 70.2345 45.9687 70.1827C46.0169 70.1207 46.072 70.0537 46.1464 70.0355C46.2803 70.0022 46.3868 70.1362 46.4565 70.2535C46.5783 70.123 46.5994 69.8829 46.5965 69.7059C46.6406 69.6455 46.7246 69.6205 46.7902 69.6466C46.8559 69.6727 46.8991 69.7476 46.8901 69.8207C46.9782 69.7196 46.987 69.5734 47.0356 69.4483C47.0837 69.3222 47.2264 69.2028 47.3344 69.2717C47.3847 69.3036 47.4072 69.3659 47.4544 69.4026C47.5291 69.4614 47.6565 69.4262 47.6979 69.3364C47.7422 69.2417 47.7065 69.1026 47.7936 69.0493C47.8265 69.0296 47.8659 69.0301 47.9041 69.0288C48.0732 69.0225 48.2426 68.9584 48.3775 68.8484C48.4149 68.8713 48.4512 68.8948 48.4882 68.9169C48.5598 68.8458 48.5294 68.7121 48.5975 68.6382C48.6243 68.6099 48.6618 68.5948 48.6976 68.5809C48.8962 68.505 49.1014 68.4271 49.3109 68.432C49.3846 68.4343 49.458 68.4457 49.5311 68.4335C49.6953 68.4058 49.8178 68.2617 49.9258 68.1281C50.0107 68.2031 50.0795 68.2974 50.1271 68.4019C50.1936 68.2782 50.2598 68.1537 50.3264 68.03C50.3428 68 50.3604 67.968 50.3879 67.9482C50.4225 67.9234 50.4652 67.9213 50.5063 67.9206C50.6402 67.916 50.7754 67.9118 50.9093 67.9073C50.9843 67.9045 51.0697 67.9072 51.1147 67.9664C51.1293 67.9848 51.1384 68.0084 51.1561 68.0227C51.207 68.0624 51.2816 68.0062 51.3092 67.9446C51.3358 67.8835 51.3433 67.8102 51.3906 67.7632C51.4879 67.6644 51.647 67.7607 51.7795 67.74C51.8455 67.7296 51.9044 67.6899 51.9655 67.6604C52.1369 67.5777 52.3303 67.5762 52.5163 67.575C52.6593 67.5743 52.8361 67.5975 52.8804 67.7357C52.9748 67.609 53.0876 67.5386 53.182 67.412C53.1768 67.4956 53.2724 67.5487 53.3529 67.5392C53.4344 67.5291 53.5059 67.48 53.5822 67.4477C53.7739 67.3691 54.0038 67.4117 54.1477 67.5558C54.4726 67.4048 54.8867 67.5388 55.0551 67.8482C55.0663 67.6636 55.2836 67.5679 55.4632 67.5512C55.624 67.5367 55.8187 67.5735 55.8682 67.7285C55.8785 67.7592 55.8817 67.7924 55.8973 67.8201C55.945 67.8996 56.0685 67.8766 56.1462 67.8195C56.2238 67.7623 56.2896 67.6811 56.3818 67.6621C56.4981 67.6387 56.6065 67.732 56.646 67.8451C56.6846 67.9573 56.67 68.0827 56.6556 68.2028C56.7175 68.0746 56.7799 67.9464 56.8416 67.8196C57.0378 67.8345 57.2198 67.9468 57.3212 68.1158C57.343 68.1514 57.3662 68.1933 57.4075 68.1978C57.4813 68.2063 57.5135 68.0929 57.5822 68.0593C57.6912 68.0073 57.7836 68.1817 57.9021 68.1724C57.9475 68.1685 57.9869 68.1377 58.0295 68.1212C58.1397 68.0778 58.2623 68.1292 58.3441 68.212C58.4256 68.2932 58.477 68.4015 58.541 68.4981C58.5654 68.5356 58.5955 68.574 58.6392 68.5843C58.7116 68.6016 58.7768 68.534 58.8444 68.4973C58.943 68.4436 59.0714 68.4587 59.1506 68.5327C59.2301 68.6075 59.2569 68.736 59.2137 68.8415" stroke="#221D1E" stroke-width="0.625" stroke-miterlimit="10" stroke-linecap="round" stroke-linejoin="round"/>
<path d="M59.1445 68.9416C60.3253 69.4937 61.4666 70.1237 62.6073 70.7543C62.7236 70.8185 62.8407 70.8834 62.9483 70.9629C63.0419 71.0316 63.128 71.1113 63.2122 71.1906C63.4937 71.4524 63.7752 71.7143 64.0557 71.9767" stroke="#221D1E" stroke-width="0.25" stroke-miterlimit="10" stroke-linecap="round" stroke-linejoin="round"/>
<path d="M58.9219 69.1014C59.412 69.3103 59.8345 69.6472 60.2923 69.9199C60.9247 70.2984 61.6231 70.5539 62.2653 70.9135C62.9068 71.2714 63.4899 71.7322 63.9902 72.2736" stroke="#221D1E" stroke-width="0.125" stroke-miterlimit="10" stroke-linecap="round" stroke-linejoin="round"/>
<path d="M58.6035 69.6404C58.8507 69.7909 59.0751 69.9748 59.3107 70.1431C59.4912 70.2711 59.6776 70.3894 59.8639 70.5077C60.1689 70.7004 60.4729 70.893 60.7779 71.0857C60.9953 71.2236 61.2142 71.3617 61.4382 71.4885C61.6437 71.6062 61.8541 71.714 62.0594 71.8332C62.5859 72.1401 63.0691 72.516 63.5509 72.8916" stroke="#221D1E" stroke-width="0.125" stroke-miterlimit="10" stroke-linecap="round" stroke-linejoin="round"/>
<path d="M58.7866 69.383C59.0948 69.6112 59.4039 69.8404 59.7311 70.0406C60.1477 70.2959 60.5906 70.5045 61.0176 70.7402C61.299 70.8963 61.5732 71.0642 61.8474 71.232C62.0704 71.3685 62.2928 71.5057 62.5159 71.6423C62.9668 71.9185 63.4258 72.2021 63.7612 72.6159" stroke="#221D1E" stroke-width="0.125" stroke-miterlimit="10" stroke-linecap="round" stroke-linejoin="round"/>
<path d="M58.4165 69.9376C58.8349 70.1848 59.253 70.4335 59.6714 70.6807C59.7594 70.7325 59.8459 70.7841 59.9288 70.8435C59.999 70.8939 60.0649 70.9497 60.1338 71.0022C60.2486 71.0911 60.3681 71.1725 60.488 71.254C60.645 71.3606 60.8014 71.4679 60.9589 71.5745C61.5038 71.9454 62.0487 72.3162 62.6064 72.6672C62.8445 72.8168 63.0864 72.9633 63.2896 73.1583" stroke="#221D1E" stroke-width="0.125" stroke-miterlimit="10" stroke-linecap="round" stroke-linejoin="round"/>
<path d="M58.2363 70.2463C59.0706 70.722 59.953 71.1145 60.7438 71.6591C61.5388 72.206 62.234 72.9014 63.085 73.354" stroke="#221D1E" stroke-width="0.125" stroke-miterlimit="10" stroke-linecap="round" stroke-linejoin="round"/>
<path d="M58.0732 70.4725C58.8141 70.9564 58.9946 71.0685 59.7803 71.4746C59.8962 71.5348 60.5471 71.9734 60.6579 72.0443C60.7732 72.1181 61.1599 72.3806 61.2677 72.4653C61.8636 72.9314 62.2447 73.1519 62.8406 73.6179" stroke="#221D1E" stroke-width="0.125" stroke-miterlimit="10" stroke-linecap="round" stroke-linejoin="round"/>
<path d="M57.9111 70.6541C58.4369 71.0384 58.9645 71.4232 59.5241 71.7562C60.1145 72.1071 60.5301 72.2938 61.259 72.8267C61.4148 72.9407 61.7038 73.1764 61.8502 73.3041C61.9438 73.3857 62.5449 73.737 62.6475 73.8072" stroke="#221D1E" stroke-width="0.125" stroke-miterlimit="10" stroke-linecap="round" stroke-linejoin="round"/>
<path d="M57.7388 70.8949C57.8945 71.0317 58.0594 71.1564 58.2314 71.2693C58.4779 71.431 58.7392 71.5685 58.9888 71.7255C59.2099 71.8647 59.4218 72.02 59.6328 72.1743C60.5351 72.8333 61.4454 73.4844 62.408 74.0507" stroke="#221D1E" stroke-width="0.125" stroke-miterlimit="10" stroke-linecap="round" stroke-linejoin="round"/>
<path d="M64.323 71.8597C63.7587 72.7 63.0874 73.467 62.334 74.1345C62.3118 74.1544 62.2872 74.1747 62.2586 74.1768C62.2319 74.1792 62.2075 74.1638 62.185 74.1486C61.7 73.8249 61.2408 73.4605 60.7411 73.1618C60.187 72.8312 59.5841 72.5815 59.0613 72.2028C58.7651 71.9879 58.4939 71.7315 58.1621 71.5762C57.9626 71.4831 57.7421 71.4268 57.5648 71.294C57.5339 71.2706 57.5364 71.2071 57.575 71.2005C57.806 70.7625 58.1729 70.4077 58.4075 69.9717C58.4534 69.8865 58.4936 69.7973 58.547 69.7148C58.5878 69.65 58.6365 69.5904 58.6796 69.5267C58.759 69.4082 58.8193 69.2774 58.8924 69.1556C58.9666 69.0332 59.0564 68.9164 59.1787 68.8454C59.2622 68.7975 59.3377 68.7576 59.4242 68.7909C59.8183 68.9405 60.1688 69.1819 60.5399 69.3795C61.3091 69.7883 62.1772 70.0134 62.8786 70.5319C63.3819 70.9043 63.7935 71.5211 64.323 71.8597Z" stroke="#221D1E" stroke-width="0.375" stroke-miterlimit="10" stroke-linecap="round" stroke-linejoin="round"/>
<g opacity="0.96">
<path d="M29.2396 81.1688C28.3206 80.5867 27.5603 79.7416 27.0771 78.7637" stroke="#221D1E" stroke-width="0.625" stroke-miterlimit="10" stroke-linecap="round" stroke-linejoin="round"/>
<path d="M31.5273 75.5544C32.3879 76.1756 33.2019 76.8687 33.9543 77.6217C33.9871 77.6548 34.0227 77.6921 34.0311 77.7378" stroke="#221D1E" stroke-width="0.625" stroke-miterlimit="10" stroke-linecap="round" stroke-linejoin="round"/>
<path d="M28.9458 81.0136C29.4473 80.5366 30.0058 80.1234 30.5619 79.7111C30.671 79.6302 30.7813 79.5489 30.8904 79.468C31.3073 79.1591 31.7242 78.8503 32.1689 78.5829C32.2989 78.5051 32.4428 78.3262 32.5687 78.2407C32.7389 78.1248 32.8855 78.0937 33.0413 77.9594C33.2599 77.7724 33.5534 77.6338 33.7715 77.4457" stroke="#221D1E" stroke-width="0.625" stroke-miterlimit="10" stroke-linecap="round" stroke-linejoin="round"/>
<path d="M28.6165 80.7683C29.1181 80.2913 29.6765 79.8781 30.2326 79.4658C30.3417 79.3849 30.452 79.3035 30.5611 79.2226C30.978 78.9138 31.3949 78.605 31.8396 78.3375C31.9696 78.2597 32.1031 78.1846 32.2278 78.0994C32.3981 77.9836 32.5551 77.8488 32.7121 77.714C32.9306 77.5271 33.1487 77.339 33.3672 77.152" stroke="#221D1E" stroke-width="0.25" stroke-miterlimit="10" stroke-linecap="round" stroke-linejoin="round"/>
<path d="M28.3328 80.4299C28.8344 79.9529 29.3928 79.5397 29.9489 79.1274C30.058 79.0465 30.1683 78.9652 30.2774 78.8843C30.6944 78.5754 31.1112 78.2666 31.556 77.9992C31.6859 77.9213 31.8195 77.8462 31.9441 77.7611C32.1144 77.6452 32.2714 77.5104 32.4284 77.3757C32.6469 77.1887 32.865 77.0006 33.0836 76.8136" stroke="#221D1E" stroke-width="0.25" stroke-miterlimit="10" stroke-linecap="round" stroke-linejoin="round"/>
<path d="M27.9974 80.1202C28.4989 79.6431 29.0574 79.23 29.6134 78.8177C29.7226 78.7368 29.8329 78.6555 29.942 78.5745C30.3589 78.2657 30.7758 77.9569 31.2205 77.6895C31.3505 77.6116 31.484 77.5365 31.6087 77.4514C31.779 77.3355 31.936 77.2007 32.0929 77.0659C32.3115 76.879 32.5296 76.6909 32.7482 76.5039" stroke="#221D1E" stroke-width="0.25" stroke-miterlimit="10" stroke-linecap="round" stroke-linejoin="round"/>
<path d="M27.7357 79.8099C28.2372 79.3328 28.7956 78.9197 29.3517 78.5074C29.4609 78.4265 29.5712 78.3452 29.6804 78.2642C30.0972 77.9554 30.5141 77.6466 30.9589 77.3792C31.0888 77.3013 31.2223 77.2262 31.347 77.1411C31.5173 77.0252 31.6743 76.8904 31.8312 76.7557C32.0498 76.5687 32.2119 76.4373 32.43 76.2492" stroke="#221D1E" stroke-width="0.25" stroke-miterlimit="10" stroke-linecap="round" stroke-linejoin="round"/>
<path d="M27.4291 79.445C27.9306 78.9679 28.1906 78.8754 28.7467 78.4631C28.8558 78.3822 29.2675 78.066 29.3778 77.9846C29.7947 77.6759 30.2313 77.3968 30.6761 77.1294C30.806 77.0516 30.9396 76.9765 31.0642 76.8913C31.2345 76.7755 31.4515 76.5694 31.6073 76.435C31.8258 76.248 31.8998 76.1862 32.1183 75.9993" stroke="#221D1E" stroke-width="0.25" stroke-miterlimit="10" stroke-linecap="round" stroke-linejoin="round"/>
<path d="M27.1738 79.0829C27.6753 78.6058 28.2898 78.2767 28.8459 77.8644C28.9551 77.7834 29.2945 77.6153 29.4037 77.5344C29.8206 77.2255 30.1775 76.992 30.6222 76.7246C30.7522 76.6468 30.8987 76.5196 31.0234 76.4345C31.1937 76.3187 31.7025 75.91 31.8595 75.7753" stroke="#221D1E" stroke-width="0.25" stroke-miterlimit="10" stroke-linecap="round" stroke-linejoin="round"/>
<path d="M21.793 56.6698C21.832 56.7127 21.8543 56.7681 21.8751 56.8227C21.8909 56.8671 21.9063 56.9105 21.921 56.9554" stroke="#221D1E" stroke-width="0.625" stroke-miterlimit="10" stroke-linecap="round" stroke-linejoin="round"/>
<path d="M21.9189 56.9549C22.1852 57.7696 22.1724 58.6388 22.2341 59.4881" stroke="#221D1E" stroke-width="0.625" stroke-miterlimit="10" stroke-linecap="round" stroke-linejoin="round"/>
<path d="M27.5143 64.1378C27.8712 63.4017 28.5591 62.9056 29.2029 62.4108C29.9237 61.8557 30.6195 61.2673 31.2857 60.6474C31.321 60.6138 31.3591 60.5766 31.3678 60.5274C31.3762 60.4771 31.3517 60.4266 31.3241 60.3824" stroke="#221D1E" stroke-width="0.625" stroke-miterlimit="10" stroke-linecap="round" stroke-linejoin="round"/>
<path d="M24.9914 61.7661C25.0664 61.2749 25.1826 60.7926 25.3353 60.3238C25.4175 60.0708 25.512 59.8227 25.5942 59.5697C25.9998 58.3226 26.1351 56.9334 26.9006 55.8847" stroke="#221D1E" stroke-width="0.625" stroke-miterlimit="10" stroke-linecap="round" stroke-linejoin="round"/>
<path d="M30.0495 70.5937C31.1334 70.4147 32.2287 70.2934 33.33 70.2331C33.7756 70.2087 34.2234 70.1941 34.671 70.2229C35.1804 70.256 35.6891 70.346 36.1993 70.3591C36.7095 70.3722 37.2333 70.3017 37.6596 70.0384" stroke="#221D1E" stroke-width="0.625" stroke-miterlimit="10" stroke-linecap="round" stroke-linejoin="round"/>
<path d="M11.7034 78.0462C12.9073 76.9851 12.9508 76.0882 14.4023 75.856C14.7401 75.8016 14.7423 75.8113 15.0766 75.7358C15.3954 75.6645 15.7065 75.5683 16.0173 75.4709C16.4273 75.3421 16.6959 75.2702 17.1063 75.1427" stroke="#221D1E" stroke-width="0.625" stroke-miterlimit="10" stroke-linecap="round" stroke-linejoin="round"/>
<path d="M16.3434 76.393C16.1314 77.6108 15.9197 78.8522 16.0933 80.0934C16.1879 80.7691 16.3957 81.427 16.6269 82.0766" stroke="#221D1E" stroke-width="0.625" stroke-miterlimit="10" stroke-linecap="round" stroke-linejoin="round"/>
<path d="M19.8519 81.4527C21.7881 81.0376 22.0711 78.6091 23.3358 77.1079" stroke="#221D1E" stroke-width="0.625" stroke-miterlimit="10" stroke-linecap="round" stroke-linejoin="round"/>
<path d="M22.6536 84.9348C22.6136 84.6453 22.567 84.5882 22.5368 84.4704C22.5101 84.3697 22.4926 84.2616 22.4268 84.1796" stroke="#221D1E" stroke-width="0.625" stroke-miterlimit="10" stroke-linecap="round" stroke-linejoin="round"/>
<path d="M26.3145 78.0658C26.3232 78.0904 26.3315 78.1137 26.3402 78.1382C26.844 79.5249 27.7471 80.7563 28.2096 82.1563" stroke="#221D1E" stroke-width="0.625" stroke-miterlimit="10" stroke-linecap="round" stroke-linejoin="round"/>
<path d="M10.4165 80.2028C10.3627 80.151 10.2916 80.1211 10.2223 80.0997C9.97537 80.0219 8.88571 79.6275 8.64134 79.6934" stroke="#221D1E" stroke-width="0.625" stroke-miterlimit="10" stroke-linecap="round" stroke-linejoin="round"/>
<path d="M14.5465 64.7968C14.6427 64.5574 14.7383 64.3168 14.8344 64.0774C14.8679 63.9944 14.9022 63.9098 14.9576 63.8401C15.0576 63.7151 15.2136 63.6517 15.3627 63.5908C16.2614 63.2184 17.0217 62.3059 17.7738 61.695C19.031 62.7001 20.6893 63.6915 22.257 63.7232C22.7054 63.7321 23.165 63.6949 23.5636 63.5044C24.2482 63.1766 24.641 62.4607 24.9928 61.7843C25.6598 62.6363 26.5592 63.3741 27.4335 64.0077C27.476 64.0386 27.5221 64.0722 27.5388 64.1228C27.5559 64.1746 27.5382 64.2283 27.5205 64.278C27.2337 65.1075 27.2343 66.0362 27.4499 66.9119C27.6664 67.7862 28.0903 68.6089 28.6234 69.3467C28.9928 69.8573 29.445 70.353 30.0351 70.5535C30.3489 70.6602 30.5165 70.9874 30.6018 71.3083C30.687 71.6293 30.6524 71.9639 30.6321 72.2909C30.5954 72.867 29.8288 73.2081 29.9595 73.7787C30.0914 74.3487 31.1268 75.1513 31.5325 75.5793C30.8482 76.2069 30.057 76.8186 29.2774 77.3222C29.0668 77.4577 28.8522 77.5893 28.6376 77.7208C28.1814 78.0003 27.7256 78.2808 27.2694 78.5602C27.1499 78.6343 27.03 78.6257 27.0837 78.7618C27.0276 78.5488 26.8145 78.5037 26.638 78.3691C26.5624 78.3118 26.4804 78.266 26.4114 78.2011C26.2988 78.0951 26.234 77.9497 26.1708 77.8091C26.0784 77.6012 25.9877 77.394 25.8953 77.1861C25.6917 76.7244 25.4373 77.7411 24.9757 77.5475C24.6689 77.4198 24.0854 76.8354 23.7885 76.9608C23.4916 77.0861 23.4486 77.0133 23.1978 77.213C22.9113 77.0242 22.6096 76.8592 22.296 76.7234C22.1842 76.675 21.467 77.3801 21.3489 77.388C20.1025 77.4657 21.2773 76.2044 19.5938 75.9876C18.8806 75.8953 17.7594 75.4535 17.1038 75.1356C17.2775 74.9777 17.4995 74.9632 17.5966 74.7484C17.8545 74.1738 17.0008 74.1592 16.8887 73.5228C16.8493 73.3013 16.8121 72.7646 16.6965 72.5689C16.4654 72.1776 16.1336 71.6549 15.7707 71.3841C15.4936 71.1774 15.9218 70.0331 15.6995 69.7662C15.2777 69.2597 14.9603 69.3608 14.5389 68.8556C14.9732 68.6511 15.0133 68.6052 15.1557 68.1414C15.2812 67.7298 15.1044 67.2808 15.0419 66.8466C14.9902 66.4834 15.0191 66.1179 14.9792 65.7546C14.94 65.3896 14.8298 65.0355 14.5465 64.7968Z" stroke="#221D1E" stroke-width="0.625" stroke-miterlimit="10" stroke-linecap="round" stroke-linejoin="round"/>
<path d="M37.3635 71.7875C37.5971 71.536 38.7296 70.8976 38.7807 71.4623C38.8172 71.8677 38.7685 72.4547 38.6025 72.8151C38.3596 73.3435 37.7088 73.4488 37.9654 73.9929C38.0509 74.1743 38.2324 74.2966 38.3303 74.4723C38.5656 74.8938 38.2396 75.3768 37.9311 75.7208C37.391 76.3221 37.1424 76.8381 36.6024 77.4395C36.4133 77.6501 36.4983 77.8633 36.2132 77.8963C35.9636 77.9259 35.4129 77.8547 35.165 77.7929C35.0123 77.7551 34.4111 77.8559 34.1818 77.7467C34.0901 77.703 34.0186 77.6942 34.0115 77.7073C33.8179 78.0827 32.9832 78.3284 32.4917 78.7006C31.4211 79.513 30.3506 80.3254 29.2812 81.1373C29.3349 82.13 28.8271 83.0291 28.3349 83.8646C27.9706 84.4837 27.4681 85.1796 26.74 85.1268C26.4165 85.1038 26.1193 84.9293 25.8165 84.8012C25.1782 84.5325 24.5987 85.7505 23.7903 85.8999C23.5574 85.9434 22.7747 84.9427 22.7217 84.9563C22.5421 85.0018 22.7555 85.1139 22.6113 85.2036C22.3501 85.4477 22.279 85.0337 21.6948 85.3009C21.3865 85.4419 20.9262 86.8031 20.5823 86.815C20.0049 86.8347 18.7049 86.3078 18.1293 86.34C17.8188 86.3572 17.7877 86.4475 17.4761 86.4093C17.1555 86.3722 16.3235 86.6365 16.0425 86.4669C14.7788 85.71 15.0115 85.2378 14.1513 84.7585C14.0855 84.7213 14.0128 84.664 13.56 84.7873C13.3938 84.8329 13.2817 84.8241 13.1149 84.7691C12.9273 84.707 12.799 84.4686 12.6203 84.3795C11.1584 83.652 10.2899 82.0006 8.82919 81.2732C8.54522 81.1321 8.23762 81.0245 8.00034 80.8116C7.77058 80.6052 7.6285 80.3202 7.49284 80.0422C7.1913 79.4272 6.89055 78.8106 6.58901 78.1955C6.41124 77.8325 6.26877 77.3174 6.59658 77.1126C5.95958 76.271 5.88139 75.0541 6.40825 74.1904C6.02941 74.2331 5.76534 73.8047 5.60958 73.4444C5.27711 72.6759 4.94424 71.9062 4.61059 71.1382C4.4035 70.6592 4.19013 70.1444 4.27651 69.6414C4.34853 69.2197 4.47284 68.6571 4.68143 68.2908C5.07944 67.5966 5.29183 67.529 5.19444 66.7124C5.12924 66.1672 5.0248 64.8913 5.29966 64.4343C5.41702 64.2399 6.21748 63.8499 6.25904 63.6233C6.25904 63.6233 6.50921 62.9936 6.92154 62.5575C7.13345 62.3334 7.31742 62.0271 7.45577 61.7477C7.4307 61.2119 6.99394 60.1503 7.03961 59.3038C7.07334 58.6748 8.40596 58.0639 8.77406 57.5698C9.92541 56.0208 10.708 56.0016 12.8995 56.2284C12.8995 56.2284 13.3001 55.0281 13.2937 54.3897C13.2918 54.2219 13.2842 54.0417 13.3734 53.9047C13.4387 53.8039 13.5478 53.7414 13.6576 53.6918C14.4769 53.3253 15.5518 53.585 16.1622 54.2967C16.6301 53.4961 17.6794 53.3109 18.6085 53.2014C19.4431 53.1032 20.5461 53.1647 20.8387 53.9763C21.271 53.408 22.0051 53.1824 22.6949 52.987C23.086 52.8754 23.4901 52.7633 23.9003 52.816C24.3105 52.8687 24.7336 53.1313 24.8518 53.534C25.6671 52.6059 27.196 52.6093 28.3235 53.2238C29.4511 53.8384 30.2571 54.9226 30.9621 56.0072C32.1124 55.7624 33.4301 56.4277 33.9643 57.5231C33.8906 58.1138 34.157 58.7518 34.6364 59.1286C35.0699 59.1691 35.3612 59.6299 35.4667 60.0594C35.5722 60.4889 35.5726 60.9479 35.7811 61.3422C36.0353 61.8241 36.6892 62.4769 36.9666 62.9466C37.2643 63.4511 36.9981 64.1024 37.1517 64.6635C37.4061 65.5965 38.2052 65.6754 38.5639 66.5767C38.8768 67.3639 38.7144 67.7901 38.7104 68.6243C38.708 69.2712 40.0816 70.0087 38.483 71.1682" stroke="#221D1E" stroke-width="0.625" stroke-miterlimit="10" stroke-linecap="round" stroke-linejoin="round"/>
<path d="M16.5792 55.0604C17.2403 55.0146 17.9315 55.3076 18.3784 55.8253C18.6497 55.6067 18.9886 55.4338 19.3426 55.484C19.6675 55.5301 19.9424 55.7529 20.2198 55.9381C20.6296 56.2116 21.0807 56.4204 21.5506 56.5529C21.6369 56.5774 21.7297 56.6022 21.7917 56.6695" stroke="#221D1E" stroke-width="0.625" stroke-miterlimit="10" stroke-linecap="round" stroke-linejoin="round"/>
<path d="M21.792 56.6696C22.3691 56.3604 22.6701 56.0322 22.9618 55.4416C23.1679 55.0235 23.0932 54.3224 23.4465 54.0231C23.6574 53.8441 24.5128 53.8372 24.786 53.7742C24.8893 53.7506 24.8171 53.5144 24.8114 53.4059" stroke="#221D1E" stroke-width="0.625" stroke-miterlimit="10" stroke-linecap="round" stroke-linejoin="round"/>
<path d="M34.1196 75.6858C34.0466 75.6171 34.0539 75.5013 34.0826 75.4082C34.2428 74.8945 34.7927 74.645 35.29 74.451C35.5507 74.3491 35.8102 74.2475 36.0714 74.1467C36.3748 74.0283 36.6917 73.8998 36.8853 73.6388C37.1612 73.2656 37.105 72.7381 37.1965 72.2752C37.2963 71.7726 37.576 71.3362 37.8775 70.9316C38.007 70.7565 38.1445 70.5813 38.2209 70.3751C38.2973 70.169 38.3048 69.9202 38.1826 69.7282C38.0061 69.4501 37.6437 69.3843 37.3274 69.3152C37.0115 69.2472 36.6465 69.0929 36.5765 68.7743" stroke="#221D1E" stroke-width="0.625" stroke-miterlimit="10" stroke-linecap="round" stroke-linejoin="round"/>
<path d="M36.564 73.9465C36.6603 74.3096 36.7619 74.6839 36.987 74.9881C37.1054 75.1473 37.2542 75.2812 37.3837 75.4312C37.5133 75.5811 37.6281 75.7561 37.6547 75.9492" stroke="#221D1E" stroke-width="0.625" stroke-miterlimit="10" stroke-linecap="round" stroke-linejoin="round"/>
<path d="M30.6243 67.3958C31.1652 66.9785 31.8343 66.755 32.5101 66.6172C33.1856 66.4782 33.8787 66.4184 34.5567 66.2904C34.6994 66.2633 34.8436 66.233 34.9894 66.2442C35.2187 66.2613 35.4336 66.3782 35.63 66.5056C36.0137 66.7571 36.3851 67.0997 36.4819 67.5453C36.5575 67.8945 36.4525 68.2527 36.4981 68.606C36.5363 68.9014 36.86 69.0362 37.0807 69.243" stroke="#221D1E" stroke-width="0.625" stroke-miterlimit="10" stroke-linecap="round" stroke-linejoin="round"/>
<path d="M16.625 82.0756C16.6935 82.2683 16.764 82.4589 16.8348 82.6506C16.8609 82.7203 16.8898 82.7943 16.9495 82.8398C17.0048 82.8806 17.0746 82.8887 17.1409 82.8981C17.5688 82.9604 17.9862 83.1406 18.3331 83.4142C18.4374 83.4969 18.5382 83.5888 18.6572 83.6461C18.8809 83.7549 19.1379 83.7279 19.3791 83.7076C19.9703 83.6604 20.5694 83.6764 21.1627 83.7534C21.3115 83.7728 21.4643 83.7958 21.6083 83.7619C21.9075 83.6907 22.0867 83.4009 22.2437 83.1373C22.6849 82.3952 22.4211 82.606 22.96 81.9357" stroke="#221D1E" stroke-width="0.625" stroke-miterlimit="10" stroke-linecap="round" stroke-linejoin="round"/>
<path d="M7.23153 65.4565C7.75384 65.0483 8.04814 64.4831 8.20429 63.8288C8.32538 63.9476 8.51859 64.0697 8.63539 63.9583C8.67574 63.9203 8.69216 63.8631 8.7067 63.808C8.83892 63.3228 8.98972 62.8269 9.31493 62.452C9.38571 62.3703 9.4648 62.2934 9.51766 62.1983C9.55469 62.1325 9.57823 62.0583 9.60696 61.9876C9.7122 61.733 9.88989 61.5198 10.057 61.3024C10.1287 61.2085 10.2018 61.1075 10.2103 60.9873C10.2188 60.8672 10.072 60.4878 10.7026 60.4911" stroke="#221D1E" stroke-width="0.625" stroke-miterlimit="10" stroke-linecap="round" stroke-linejoin="round"/>
<path d="M10.063 72.0703C9.15926 71.9378 8.18876 71.7172 7.56064 71.0262C7.7223 70.8713 7.74632 70.6101 7.68142 70.3871C7.61658 70.1641 7.47515 69.9697 7.33698 69.7807C7.41085 69.6044 7.66754 69.5578 7.72294 69.3737C7.74345 69.3058 7.73217 69.2335 7.71857 69.162C7.53647 68.2255 6.94064 67.3887 6.78355 66.4485C6.73711 66.1702 6.95723 65.5038 7.22838 65.4573" stroke="#221D1E" stroke-width="0.625" stroke-miterlimit="10" stroke-linecap="round" stroke-linejoin="round"/>
<path d="M9.93224 75.6744C9.58906 76.0057 9.2447 76.3374 8.90152 76.6686C8.86734 76.7018 8.8305 76.7386 8.82523 76.7866C8.82162 76.8207 8.83247 76.855 8.84411 76.8877C9.04462 77.4439 9.3442 77.9649 9.51003 78.5308C9.62582 78.9264 9.6811 79.3514 9.91596 79.6941C10.079 79.9308 10.3147 80.1061 10.525 80.3023C10.786 80.5449 11.0134 80.8258 11.197 81.1315C11.4122 81.4891 11.5722 81.8874 11.8661 82.1852C11.9667 82.2879 12.0841 82.3776 12.2211 82.4157C12.4854 82.4899 12.748 82.3569 13.013 82.3155C13.2081 82.2841 13.4093 82.3035 13.6091 82.3114C14.225 82.3369 14.84 82.2601 15.4233 82.0868" stroke="#221D1E" stroke-width="0.625" stroke-miterlimit="10" stroke-linecap="round" stroke-linejoin="round"/>
<path d="M16.6751 55.0568C16.3744 55.1019 15.77 55.3866 15.8053 55.9031C15.8182 56.0946 15.8359 56.2884 15.8053 56.4756C15.753 56.7942 15.4709 57.017 15.3734 57.3228C15.302 57.5468 15.3332 57.8082 15.2143 58.0097C15.2003 58.0331 15.1836 58.0562 15.1587 58.0676C15.0997 58.0939 15.0325 58.0454 14.9674 58.0396" stroke="#221D1E" stroke-width="0.625" stroke-miterlimit="10" stroke-linecap="round" stroke-linejoin="round"/>
<path d="M15.3748 82.1056C15.3894 82.0728 15.4302 82.0583 15.4663 82.0639C15.5024 82.0694 15.5353 82.0879 15.5681 82.1065C15.7075 82.1883 15.8555 82.2684 16.0146 82.2802C16.1228 82.289 16.2311 82.265 16.3383 82.2821C16.4788 82.3044 16.6027 82.3943 16.7199 82.4801" stroke="#221D1E" stroke-width="0.625" stroke-miterlimit="10" stroke-linecap="round" stroke-linejoin="round"/>
<path d="M9.43553 76.0445C9.36396 75.7067 9.38413 75.3534 9.49121 75.0337C9.50889 74.98 9.53046 74.9223 9.51209 74.867C9.47607 74.7548 9.32851 74.7428 9.21808 74.7057C9.01213 74.6368 8.87283 74.3968 8.91716 74.1889C8.94544 74.0578 9.03256 73.9517 9.11629 73.8509C9.29026 73.6417 9.46655 73.4315 9.67134 73.2534C9.92422 73.0332 10.2379 72.8361 10.3173 72.5052C10.3527 72.3571 10.3167 72.1672 10.1788 72.0938" stroke="#221D1E" stroke-width="0.625" stroke-miterlimit="10" stroke-linecap="round" stroke-linejoin="round"/>
<path d="M15.3068 57.712C15.0466 57.6967 14.2512 57.6836 14.0713 57.8647C13.9226 58.015 13.8952 58.2483 13.8762 58.4643C13.8585 58.6732 13.8404 58.8809 13.8217 59.0902C13.8153 59.1608 13.8074 59.2347 13.765 59.2892C13.7109 59.3585 13.6138 59.3773 13.5248 59.3892C13.1406 59.439 12.749 59.4494 12.3584 59.4186C11.9166 59.3838 11.4319 59.3063 11.0712 59.5477C11.2157 59.7581 11.5901 59.9025 11.5458 60.1471C11.5001 60.3989 11.0857 60.349 10.856 60.4491C10.8071 60.4705 10.7559 60.4926 10.7022 60.4894C10.6007 60.4847 10.5199 60.3977 10.4532 60.3175" stroke="#221D1E" stroke-width="0.625" stroke-miterlimit="10" stroke-linecap="round" stroke-linejoin="round"/>
<path d="M34.6046 66.3063C34.8121 66.1325 34.9904 65.9243 35.1325 65.6921C35.2268 65.5362 35.3069 65.3551 35.2737 65.1695C35.2498 65.0359 35.1695 64.917 35.0808 64.8117C34.5343 64.1586 33.6808 63.8871 32.9273 63.5051C32.7669 63.4239 32.6077 63.3345 32.4855 63.2015C32.4643 63.1788 32.445 63.1541 32.4381 63.1237C32.4277 63.0761 32.4534 63.0301 32.4777 62.9912C32.5311 62.905 32.5876 62.8165 32.6699 62.7596C32.8271 62.651 33.0407 62.679 33.2344 62.6878C33.5469 62.7017 33.8596 62.6536 34.1492 62.5479C34.2434 62.0446 33.952 61.5061 34.0593 61.006C34.1021 60.8052 34.2073 60.6243 34.2486 60.4228C34.2921 60.2126 34.2636 59.9924 34.2506 59.7746C34.23 59.4398 34.2134 59.0088 34.2673 58.6804" stroke="#221D1E" stroke-width="0.625" stroke-miterlimit="10" stroke-linecap="round" stroke-linejoin="round"/>
<path d="M15.3071 57.7127C15.0469 57.6974 14.2516 57.6843 14.0718 57.8654C13.923 58.0156 13.8957 58.249 13.8766 58.4649C13.8589 58.6738 13.8409 58.8815 13.8221 59.0908C13.8157 59.1614 13.8078 59.2352 13.7655 59.2898C13.7113 59.359 13.6142 59.3778 13.5252 59.3897C13.1411 59.4396 12.7495 59.4499 12.359 59.4192C11.9171 59.3843 11.4324 59.3068 11.0718 59.5482C11.2163 59.7586 11.5907 59.903 11.5464 60.1476C11.5006 60.3993 11.0863 60.3495 10.8566 60.4495C10.8077 60.4709 10.7565 60.4931 10.7028 60.4898C10.6013 60.4851 10.5205 60.3981 10.4538 60.3179C10.2625 60.09 9.94307 59.8235 9.88199 59.5374C9.82328 59.2689 9.8424 58.9609 9.86663 58.6931C9.91746 58.1344 10.0899 57.5929 10.3786 57.1232" stroke="#221D1E" stroke-width="0.625" stroke-miterlimit="10" stroke-linecap="round" stroke-linejoin="round"/>
<path d="M14.2996 67.3729C13.5444 67.0114 12.7075 66.8961 11.8857 66.8345C11.0644 66.7741 10.237 66.7633 9.42557 66.5942C8.61414 66.425 7.80259 66.0783 7.2316 65.4553C7.75364 65.0473 8.04782 64.4822 8.2039 63.8281C8.32493 63.9468 8.5181 64.0689 8.6348 63.9576C8.67515 63.9196 8.6916 63.8625 8.70608 63.8073C8.83825 63.3222 8.98899 62.8265 9.31406 62.4517C9.38481 62.37 9.46386 62.2932 9.51674 62.1981C9.55376 62.1323 9.5773 62.0581 9.60596 61.9874C9.71116 61.7329 9.88882 61.5198 10.0558 61.3025C10.1275 61.2086 10.2005 61.1076 10.209 60.9875" stroke="#221D1E" stroke-width="0.625" stroke-miterlimit="10" stroke-linecap="round" stroke-linejoin="round"/>
<path d="M16.1536 72.5025C15.4839 72.2961 14.7793 72.3311 14.0874 72.3391C12.7455 72.3548 11.3987 72.2644 10.0614 72.0679C9.15803 71.9355 8.18785 71.715 7.55993 71.0242C7.72154 70.8694 7.74555 70.6083 7.68072 70.3854C7.61585 70.1625 7.47447 69.9681 7.33635 69.7792C7.41024 69.6029 7.66686 69.5563 7.72218 69.3723C7.74273 69.3044 7.73145 69.2322 7.71785 69.1607C7.53583 68.2244 6.94013 67.388 6.78309 66.4482C6.73667 66.17 6.95672 65.5038 7.22784 65.4573" stroke="#221D1E" stroke-width="0.625" stroke-miterlimit="10" stroke-linecap="round" stroke-linejoin="round"/>
</g>
<path d="M69.8502 58.2352C69.4405 58.1252 69.0311 58.0153 68.6016 57.9C61.719 55.6121 57.9978 51.352 55.0275 47.9264C53.3173 45.9544 51.8431 44.2608 50.2311 43.6026C47.6152 42.5354 46.2438 42.9396 42.9211 43.9142C39.9161 44.8389 36.8577 45.5798 33.7631 46.1326C23.3897 47.971 16.9584 43.1548 15.3566 41.1372C12.2073 37.1806 5.97983 23.5152 18.3612 13.0867C31.4221 2.07885 54.9783 11.1176 56.0156 11.4818C75.0451 16.1084 86.4033 21.9576 90.6738 29.3692C92.9275 33.1924 93.3113 37.5222 91.8932 42.5051C89.8776 49.602 86.2903 54.6892 81.5344 57.2206C77.92 59.0703 73.7282 59.4342 69.8502 58.2352Z" fill="white"/>
<path d="M69.8502 58.2352C69.4405 58.1252 69.0311 58.0153 68.6016 57.9C61.719 55.6121 57.9978 51.352 55.0275 47.9264C53.3173 45.9544 51.8431 44.2608 50.2311 43.6026C47.6152 42.5354 46.2438 42.9396 42.9211 43.9142C39.9161 44.8389 36.8577 45.5798 33.7631 46.1326C23.3897 47.971 16.9584 43.1548 15.3567 41.1372C12.2073 37.1805 5.97983 23.5152 18.3612 13.0867C31.4221 2.07885 54.9783 11.1176 56.0156 11.4818C75.0451 16.1084 86.4033 21.9576 90.6738 29.3692C92.9275 33.1924 93.3113 37.5222 91.8932 42.5051C89.8776 49.602 86.2903 54.6892 81.5344 57.2206C77.92 59.0703 73.7282 59.4342 69.8502 58.2352ZM49.3208 42.2425C49.7547 42.3609 50.1804 42.5074 50.5952 42.6811C52.4216 43.4184 53.9668 45.2062 55.7856 47.2931C58.6848 50.6245 62.2849 54.7773 68.9531 56.986C70.9084 57.7327 72.9981 58.0608 75.0876 57.9494C77.1771 57.8378 79.2199 57.2892 81.0851 56.3382C85.5495 53.9754 89.0755 48.9575 90.9848 42.2184C92.3333 37.4956 91.9624 33.4374 89.8586 29.8153C85.687 22.6343 74.5347 16.9368 55.7648 12.38L55.7048 12.3638C55.455 12.2968 31.8288 2.96041 18.9765 13.7883C5.14953 25.4592 15.9966 40.3864 16.1096 40.5241C16.2225 40.6614 21.8036 47.2557 33.5903 45.2174C36.6785 44.676 39.732 43.952 42.7349 43.049C45.4844 42.1351 47.1233 41.6525 49.3208 42.2425Z" fill="#221D1E"/>
<path d="M23.3437 44.2151C20.652 43.5997 18.2125 42.1736 16.3535 40.1285C13.9921 37.1881 7.61804 24.1913 19.6882 14.3658C24.9326 10.0884 32.8529 8.53517 42.5611 9.86514C47.0562 10.4985 51.4714 11.6085 55.7327 13.1762C74.2121 17.6979 85.1482 23.2839 89.2391 30.3252C91.2995 33.8715 91.6725 37.8013 90.3847 42.3367C88.6154 48.5125 85.2019 53.11 80.7453 55.2821C76.8935 57.155 72.4284 57.1576 67.8341 55.2806C63.2401 53.4035 59.7584 49.9691 56.6564 46.9156C54.4252 44.7289 52.5003 42.8392 50.7366 42.1081C48.1253 41.0637 46.057 41.5918 42.2981 42.5564C40.0058 43.1211 37.2192 43.8532 33.3461 44.4442C30.0342 45.0876 26.6228 45.0094 23.3437 44.2151ZM50.1967 12.4193C42.7049 10.4079 28.8717 8.08874 20.2802 15.115C7.28913 25.7015 16.9923 39.4203 17.0856 39.5527C17.5772 40.1566 22.1499 45.3964 33.21 43.5924C37.051 42.9606 39.8451 42.2411 42.0819 41.6831C45.8989 40.7019 48.2091 40.1101 51.1093 41.2749C53.0403 42.0616 55.0445 44.0155 57.3419 46.2737C60.3827 49.2358 63.8199 52.6366 68.2197 54.44C72.6194 56.2434 76.7587 56.2178 80.3499 54.4787C84.5592 52.3904 87.7978 48.0464 89.4876 42.128C90.7031 37.8627 90.361 34.1772 88.4424 30.8624C84.4903 24.0621 73.7153 18.5945 55.5031 14.1551L55.4332 14.1363C53.7183 13.4743 51.9704 12.901 50.1967 12.4193Z" fill="#221D1E"/>
<path d="M6.41593 26.5291C6.10041 26.4584 5.80172 26.3259 5.53764 26.1389C5.27349 25.9521 5.04873 25.7145 4.87657 25.4402C4.06536 24.1496 4.65735 22.0559 5.1088 20.5679L5.25872 20.0073C5.85558 17.7753 12.0087 18.3867 13.2428 18.5356C13.368 18.551 13.4819 18.6153 13.5597 18.7147C13.6376 18.814 13.673 18.9403 13.658 19.0655C13.6403 19.1897 13.5752 19.3024 13.4768 19.3799C13.3784 19.4575 13.2537 19.4937 13.1292 19.4815C10.0146 19.1172 6.43208 19.3033 6.17784 20.254L6.02527 20.8246C5.66929 22.1558 5.17948 23.9874 5.725 24.9491C5.84914 25.1363 6.01086 25.2953 6.19975 25.4162C6.38872 25.5369 6.60061 25.6172 6.8221 25.6515C8.21917 25.9913 9.64974 26.1741 11.0873 26.1957C11.15 26.1928 11.2127 26.202 11.2717 26.2233C11.331 26.2444 11.3853 26.2773 11.4317 26.3195C11.478 26.362 11.5156 26.4132 11.5422 26.4702C11.5686 26.5272 11.5837 26.5887 11.5865 26.6518C11.5897 26.7138 11.5803 26.776 11.5593 26.8342C11.5382 26.8927 11.5056 26.9466 11.4634 26.9921C11.4211 27.0377 11.3703 27.0745 11.3139 27.1004C11.2573 27.126 11.1962 27.14 11.1342 27.1415C9.60205 27.1513 8.07411 26.9786 6.5823 26.6276L6.41593 26.5291Z" fill="#221D1E"/>
<path d="M94.0784 50.0647L93.9185 50.0217C92.4509 49.58 91.0416 48.9638 89.7199 48.1866C89.6658 48.155 89.6188 48.1129 89.582 48.0623C89.5451 48.0119 89.5189 47.9544 89.5049 47.8932C89.4912 47.832 89.4902 47.7688 89.5017 47.7075C89.5134 47.6458 89.5375 47.5872 89.5729 47.5356C89.6065 47.4826 89.6504 47.4366 89.7019 47.4006C89.7534 47.3645 89.8112 47.339 89.8727 47.3257C89.934 47.3124 89.9974 47.3111 90.0591 47.3222C90.1207 47.3333 90.1797 47.3567 90.2325 47.391C91.4878 48.1121 92.8205 48.6894 94.2046 49.1118C94.4149 49.1944 94.6401 49.2321 94.8657 49.2224C95.0913 49.2128 95.3126 49.156 95.5151 49.0559C96.5076 48.5071 96.9674 46.6674 97.3135 45.3336L97.466 44.763C97.7337 43.7621 94.7349 41.8844 91.8312 40.6113C91.7173 40.5594 91.6277 40.4657 91.5808 40.3492C91.5343 40.2327 91.5342 40.1025 91.5811 39.9862C91.6306 39.8702 91.724 39.7785 91.841 39.7315C91.958 39.6845 92.0887 39.6858 92.2048 39.7352C93.3479 40.2246 98.9817 42.7777 98.3849 45.0097L98.2349 45.5703C97.8334 47.0717 97.2821 49.1335 96.0051 49.9063C95.7118 50.0632 95.3895 50.1585 95.0582 50.1857C94.7268 50.2129 94.3933 50.1717 94.0784 50.0647Z" fill="#221D1E"/>
<path d="M64.692 23.1882L64.5221 23.1425C64.4222 23.0658 64.3566 22.9524 64.3397 22.8272C64.3231 22.702 64.3567 22.5754 64.433 22.4749C64.9515 21.7775 68.9504 18.4742 69.4031 18.1022C69.4505 18.0611 69.5055 18.03 69.5653 18.0108C69.6251 17.9915 69.688 17.9844 69.7505 17.9902C69.8129 17.9961 69.8736 18.0142 69.9287 18.0442C69.9842 18.074 70.0328 18.1147 70.0719 18.1638C70.1521 18.261 70.1909 18.3861 70.1791 18.5116C70.1677 18.6371 70.107 18.7531 70.0104 18.8339C68.3241 20.2157 65.5374 22.5892 65.1911 23.0433C65.1309 23.1132 65.0517 23.1643 64.9631 23.1901C64.8743 23.2158 64.7804 23.2152 64.692 23.1882Z" fill="#221D1E"/>
<path d="M51.2736 41.898C51.1824 41.8736 51.101 41.8219 51.0401 41.7499C50.9789 41.6781 50.941 41.5892 50.9316 41.4951C51.1369 39.9569 51.4509 38.4353 51.871 36.9416C51.9036 36.8184 51.9833 36.7133 52.0929 36.6485C52.2022 36.5836 52.3327 36.5642 52.456 36.5945C52.5765 36.6296 52.6789 36.7097 52.7415 36.8186C52.8041 36.9273 52.8224 37.0563 52.7925 37.1781C52.4047 38.5682 52.0988 39.9798 51.8762 41.4058C51.8841 41.5316 51.8431 41.6556 51.7612 41.7519C51.6797 41.848 51.5639 41.9088 51.4386 41.921L51.2736 41.898Z" fill="#221D1E"/>
<path d="M16.8529 22.8098L14.4756 22.1716C14.4152 22.1554 14.3587 22.1274 14.3091 22.0895C14.2595 22.0512 14.2178 22.0038 14.1865 21.9495C14.1552 21.8952 14.1351 21.8354 14.1269 21.7732C14.1189 21.7112 14.123 21.6481 14.1391 21.5877C14.1741 21.4673 14.2543 21.3647 14.3627 21.302C14.4715 21.2391 14.5999 21.2209 14.7218 21.2509L17.0991 21.8892C17.2184 21.924 17.3195 22.0043 17.3806 22.1129C17.4415 22.2213 17.4578 22.3498 17.4254 22.47C17.4107 22.5305 17.3843 22.5873 17.3472 22.6373C17.3103 22.6869 17.2638 22.7292 17.2104 22.7608C17.1571 22.7924 17.0981 22.813 17.0367 22.8215C16.9753 22.8299 16.9126 22.8259 16.8529 22.8098Z" fill="#221D1E"/>
<path d="M53.3396 42.9038C53.2269 42.8738 53.1293 42.8026 53.0664 42.7045C53.0034 42.6061 52.9796 42.4875 52.9998 42.3725L53.515 38.7241C53.5228 38.662 53.5429 38.6017 53.5741 38.5475C53.6056 38.4933 53.6474 38.4458 53.6975 38.4082C53.7476 38.3706 53.8046 38.3436 53.8654 38.3286C53.9262 38.3136 53.9894 38.3108 54.051 38.321C54.1133 38.3286 54.1732 38.3489 54.2273 38.3801C54.2814 38.4117 54.3288 38.4536 54.3663 38.5038C54.4039 38.554 54.4311 38.6112 54.446 38.6721C54.461 38.733 54.4635 38.7963 54.4534 38.858L53.9381 42.5064C53.9304 42.5694 53.9102 42.63 53.8789 42.6848C53.8475 42.7397 53.8055 42.7877 53.7552 42.8262C53.7051 42.8647 53.6478 42.8928 53.5868 42.909C53.5258 42.9248 53.4619 42.9287 53.3994 42.9198L53.3396 42.9038Z" fill="#221D1E"/>
<path d="M55.7574 42.7479C55.6461 42.7189 55.5497 42.6495 55.4865 42.5532C55.4233 42.4572 55.3976 42.3408 55.4151 42.2269L55.6771 40.3663C55.7039 40.2501 55.7734 40.148 55.8716 40.0804C55.9697 40.0131 56.0896 39.9848 56.2076 40.0019C56.3255 40.0186 56.4328 40.0791 56.5083 40.1714C56.584 40.2638 56.6221 40.3811 56.6154 40.5003L56.3534 42.3609C56.3353 42.4852 56.2689 42.5975 56.1683 42.673C56.0679 42.7486 55.9417 42.7813 55.8174 42.764L55.7574 42.7479Z" fill="#221D1E"/>
<path d="M49.8536 40.1649C49.7411 40.136 49.6432 40.0665 49.5785 39.97C49.5136 39.8736 49.486 39.7567 49.5011 39.6412L49.7733 37.7834C49.7914 37.659 49.8578 37.5467 49.9582 37.4712C50.0588 37.3957 50.1849 37.363 50.3093 37.3802C50.4322 37.4008 50.5428 37.4682 50.6175 37.5682C50.6924 37.668 50.726 37.7932 50.7116 37.9173L50.4496 39.7779C50.4402 39.8402 50.4187 39.9001 50.3863 39.9543C50.3537 40.0082 50.3108 40.0551 50.2602 40.0925C50.2093 40.1297 50.1517 40.1565 50.0904 40.1713C50.0291 40.1859 49.9657 40.1883 49.9037 40.1784L49.8536 40.1649Z" fill="#221D1E"/>
<path d="M38.4618 14.9868C38.3717 14.9638 38.29 14.9151 38.2267 14.8467C38.1634 14.7783 38.1209 14.693 38.1045 14.6014C38.0874 14.4757 38.1199 14.3483 38.1955 14.2463C38.2707 14.1443 38.3825 14.0757 38.5076 14.0552C39.307 13.9481 40.7468 12.6075 41.4706 11.7825C41.5567 11.691 41.6748 11.6364 41.8003 11.6299C41.9258 11.6238 42.0486 11.6662 42.1433 11.7488C42.2371 11.8317 42.2943 11.948 42.3028 12.0726C42.3116 12.1975 42.2711 12.3207 42.1899 12.4157C41.9651 12.6557 40.0427 14.8 38.6495 15.0053C38.5865 15.0093 38.523 15.0029 38.4618 14.9868Z" fill="#221D1E"/>
<path d="M43.5556 14.7123C43.472 14.6869 43.396 14.6406 43.3344 14.5782C43.2487 14.4843 43.2026 14.3606 43.2066 14.2334C43.2109 14.1062 43.2644 13.9855 43.3559 13.8973L44.7671 12.6241C44.8618 12.5401 44.9855 12.4963 45.1119 12.5023C45.2382 12.5079 45.3573 12.563 45.4439 12.6556C45.5275 12.7483 45.5716 12.8705 45.5661 12.9955C45.5605 13.1205 45.5066 13.2383 45.4152 13.3236L44.0041 14.5968C43.9447 14.652 43.8729 14.6914 43.7943 14.7117C43.7161 14.7317 43.634 14.7322 43.5556 14.7123Z" fill="#221D1E"/>
<path d="M68.6916 22.2878C68.6061 22.2627 68.53 22.2125 68.4735 22.1435C68.4296 22.0989 68.3953 22.0456 68.3726 21.9875C68.3497 21.929 68.3387 21.8668 68.3406 21.804C68.3424 21.7416 68.3567 21.68 68.3827 21.6228C68.4088 21.566 68.4458 21.5148 68.492 21.4728L69.9031 20.1996C69.996 20.1156 70.1179 20.0717 70.2424 20.0772C70.3672 20.0824 70.485 20.1368 70.57 20.2284C70.6126 20.2736 70.6459 20.3272 70.6676 20.3857C70.6893 20.4441 70.6991 20.5063 70.6964 20.5685C70.6937 20.6308 70.6786 20.6918 70.652 20.7482C70.6254 20.8046 70.5876 20.855 70.5413 20.8964L69.1302 22.1696C69.072 22.2236 69.0019 22.2625 68.9256 22.2834C68.8491 22.3039 68.7688 22.3055 68.6916 22.2878Z" fill="#221D1E"/>
<path d="M46.3889 14.6475C46.3054 14.6217 46.2294 14.5755 46.1681 14.5131C46.0821 14.4195 46.0363 14.2956 46.0403 14.1683C46.0443 14.0411 46.0978 13.9204 46.1894 13.8322L47.6004 12.5593C47.6913 12.476 47.8104 12.4311 47.9334 12.434C48.0564 12.4372 48.1734 12.4878 48.2601 12.5752C48.3436 12.6682 48.3874 12.7903 48.3823 12.9152C48.3768 13.0402 48.3225 13.1582 48.2311 13.2434L46.8202 14.5167C46.7643 14.5716 46.6957 14.6125 46.6207 14.6352C46.5454 14.6579 46.466 14.6621 46.3889 14.6475Z" fill="#221D1E"/>
<path d="M13.7329 24.1056C13.6109 24.0728 13.5069 23.9929 13.4439 23.8836C13.381 23.7739 13.3638 23.644 13.3965 23.5218C13.4291 23.3998 13.5089 23.2956 13.618 23.2324C13.7273 23.169 13.8572 23.1519 13.9792 23.1847L15.7626 23.4813C15.8242 23.4903 15.8837 23.512 15.9369 23.5446C15.9901 23.5771 16.0363 23.6199 16.0725 23.6707C16.109 23.7215 16.1348 23.7792 16.1486 23.8401C16.162 23.9012 16.1634 23.9642 16.1524 24.0257C16.1312 24.1492 16.0625 24.2597 15.9607 24.3328C15.8589 24.4058 15.7326 24.4357 15.6088 24.4162L13.8227 24.1297L13.7329 24.1056Z" fill="#221D1E"/>
<path d="M87.6953 41.2608C87.5836 41.229 87.4878 41.1573 87.425 41.0596C87.3626 40.9616 87.3377 40.8446 87.3554 40.7295C87.363 40.6671 87.3837 40.607 87.4157 40.5529C87.4478 40.4989 87.4907 40.4517 87.5417 40.4153C87.5929 40.3785 87.651 40.3528 87.7125 40.3398C87.7739 40.3268 87.8374 40.3265 87.8987 40.339L89.6851 40.6255C89.8084 40.6468 89.9186 40.7159 89.9916 40.8176C90.0644 40.9195 90.0943 41.0462 90.0748 41.1702C90.0656 41.2318 90.0443 41.2912 90.0117 41.3448C89.9792 41.3981 89.9362 41.4443 89.8856 41.4806C89.8348 41.5172 89.7775 41.5431 89.7166 41.5566C89.6558 41.5704 89.5927 41.5716 89.5313 41.5606L87.7451 41.2742L87.6953 41.2608Z" fill="#221D1E"/>
<path d="M89.97 40.0467L89.8799 40.0226L88.8026 39.4867C88.7426 39.4618 88.6878 39.4249 88.6423 39.378C88.597 39.3309 88.5618 39.2752 88.5387 39.214C88.5156 39.153 88.5054 39.0876 88.5086 39.0225C88.5118 38.9571 88.5286 38.8932 88.5573 38.8346C88.5863 38.7761 88.6269 38.724 88.6768 38.6818C88.7266 38.6398 88.7845 38.6082 88.8469 38.5894C88.9095 38.5706 88.9751 38.5648 89.0398 38.5725C89.1046 38.5801 89.1672 38.6012 89.2233 38.6342L90.3006 39.17C90.4134 39.2262 90.499 39.3246 90.5393 39.444C90.5796 39.5636 90.5711 39.6939 90.5157 39.8071C90.4671 39.9047 90.3857 39.9823 90.286 40.0261C90.1863 40.0698 90.0744 40.0772 89.97 40.0467Z" fill="#221D1E"/>
</g>
<defs>
<clipPath id="clip0_13161_339">
<rect width="100" height="100" fill="white" transform="translate(0.200195)"/>
</clipPath>
</defs>
</svg>
