<svg width="100" height="100" viewBox="0 0 100 100" fill="none" xmlns="http://www.w3.org/2000/svg">
<rect width="100" height="100" fill="white"/>
<mask id="mask0_13161_263" style="mask-type:luminance" maskUnits="userSpaceOnUse" x="25" y="2" width="50" height="96">
<path d="M74.9998 2.42422H25.1802V97.5755H74.9998V2.42422Z" fill="white"/>
</mask>
<g mask="url(#mask0_13161_263)">
<path d="M29.373 26.6299L29.4867 26.7103L29.373 26.6327V26.6299Z" fill="#221D1E"/>
<path d="M61.75 2.6044L61.8193 2.72634L61.75 2.60717V2.6044Z" fill="#221D1E"/>
<path d="M28.456 58.5491C28.448 58.6052 28.451 58.6624 28.4654 58.7171C28.4796 58.7721 28.5048 58.8234 28.5392 58.8684C28.6059 58.9587 28.7054 59.0195 28.8163 59.0378H28.8301C29.1544 59.1211 37.2355 61.1676 50.0389 61.1676C62.8423 61.1676 70.9262 59.0822 71.2061 58.9989H71.2255C71.282 58.9909 71.3366 58.972 71.3862 58.9434C71.4353 58.9134 71.4777 58.8737 71.5109 58.8268C71.5439 58.779 71.5675 58.7251 71.5802 58.6685C71.5913 58.6127 71.5913 58.5549 71.5802 58.4991C71.4805 58.1353 67.5757 43.4625 70.4939 27.8705V27.8539C70.516 27.7853 70.516 27.7114 70.4939 27.6428C67.7059 22.2335 64.4663 17.0908 63.3827 15.3636L63.0862 14.8888L63.0668 14.8582V14.8193L62.7897 3.01774C62.7908 3.00388 62.7908 2.98994 62.7897 2.97609V2.97886C62.7777 2.92538 62.7561 2.87454 62.7259 2.82891L62.6899 2.79559C62.6619 2.75997 62.6292 2.72822 62.5929 2.70118C62.4884 2.61687 62.3584 2.57092 62.2243 2.57092C62.0902 2.57092 61.9602 2.61687 61.8557 2.70118C59.5112 4.06116 57.6938 6.1747 56.6983 8.69919C55.6034 11.082 55.0694 13.6853 55.1381 16.3077C55.16 16.4349 55.2293 16.549 55.3321 16.6271C55.4291 16.7009 55.5483 16.7393 55.6702 16.7354L55.7034 16.7104H55.7506C55.8154 16.7159 55.8805 16.7073 55.9418 16.6854C56.0036 16.6635 56.0609 16.6307 56.1108 16.5882C56.1596 16.5446 56.1992 16.4918 56.2272 16.4327C56.2571 16.3749 56.2743 16.3116 56.2771 16.2466C56.1579 14.4334 56.5542 12.0425 57.4327 9.77938C58.3112 7.51623 59.6498 5.35584 61.4567 4.04239L61.6701 3.88689V4.15069L61.9306 14.7027V14.7749L61.8751 14.8166C58.2361 17.6076 54.2934 19.9765 50.122 21.8781L50.0638 21.9031L50.0084 21.8781C45.8354 19.9873 41.8882 17.6315 38.2415 14.8554L38.1833 14.8138V14.7416L38.441 4.18957V3.91188L38.6544 4.06738C40.4363 5.37528 41.7777 7.53011 42.6451 9.79604C43.5125 12.0619 43.9088 14.45 43.7952 16.2578C43.7924 16.3277 43.8065 16.3972 43.8367 16.4605C43.8647 16.5268 43.9068 16.5863 43.9606 16.6343C44.0144 16.6823 44.0781 16.7179 44.1471 16.7381C44.2156 16.752 44.2862 16.752 44.355 16.7381H44.3882C44.5127 16.7476 44.6365 16.712 44.7374 16.6382C44.8341 16.5663 44.9037 16.4635 44.9342 16.3466C45.0145 13.7361 44.4938 11.1423 43.4127 8.76583C42.4558 6.2842 40.7005 4.19312 38.4244 2.82336L38.3994 2.8067L38.3828 2.78448C38.3576 2.74827 38.3279 2.71559 38.2941 2.6873C38.1935 2.59888 38.0619 2.55398 37.9283 2.56234H37.9034C37.7693 2.54862 37.6354 2.58744 37.5293 2.67063C37.4999 2.69365 37.4727 2.7197 37.4489 2.74838L37.3741 2.82614C37.34 2.87129 37.3164 2.92344 37.3048 2.97886C37.2909 3.03634 37.2909 3.09632 37.3048 3.1538C37.3037 3.16488 37.3037 3.17605 37.3048 3.18713V3.21212V3.25655L37.0277 14.9027V14.9193L37.0055 14.9526C36.4124 15.8634 33.1534 20.9284 29.4759 26.6959C29.4287 26.767 29.4091 26.8528 29.4204 26.9375C31.8315 41.5187 28.9133 56.2388 28.5059 58.3242C28.492 58.4019 28.4782 58.4602 28.4726 58.5019C28.4671 58.5435 28.4588 58.538 28.456 58.5491ZM29.6865 58.177C30.274 55.3307 32.879 41.1161 30.5761 26.9764V26.9236L30.6038 26.8792C33.7825 21.8809 36.6369 17.4657 37.6928 15.8273L37.7731 15.7024L37.8923 15.7912C41.5862 18.5728 45.5888 20.917 49.82 22.7778C49.9871 22.8444 50.1736 22.8444 50.341 22.7778C54.5669 20.9145 58.5654 18.5714 62.2576 15.794L62.3795 15.6996L62.4599 15.8301C62.5957 16.055 62.7675 16.3327 62.967 16.6632C64.3305 18.8846 67.0297 23.261 69.4048 27.8455L69.4269 27.8872V27.9344C66.7831 42.0796 69.7207 55.4001 70.4024 58.177L70.4357 58.3158L70.2943 58.3464C63.6374 59.7045 56.8571 60.3615 50.0638 60.3068C43.2625 60.3587 36.4739 59.7017 29.8084 58.3464L29.6726 58.3186L29.6865 58.177Z" fill="#221D1E"/>
<path d="M46.5884 28.1708C46.6095 28.2005 46.6369 28.2252 46.6688 28.243C48.0281 28.9505 49.544 29.3021 51.0752 29.2648H51.1057C51.1428 29.2648 51.1797 29.2573 51.2137 29.2426C51.2481 29.2285 51.2791 29.2079 51.3052 29.1815C51.3315 29.1554 51.3523 29.1243 51.3662 29.0899C51.3806 29.0557 51.3881 29.0188 51.3881 28.9816C51.3881 28.9444 51.3806 28.9075 51.3662 28.8733C51.3523 28.8389 51.3315 28.8078 51.3052 28.7817C51.2791 28.7553 51.2481 28.7347 51.2137 28.7206C51.1797 28.7059 51.1428 28.6984 51.1057 28.6984C49.6735 28.7311 48.2551 28.4099 46.9764 27.7626C46.9096 27.7259 46.8315 27.7159 46.7575 27.7348C46.6829 27.752 46.6184 27.7978 46.5774 27.8625C46.5588 27.8942 46.5466 27.9289 46.5413 27.9653C46.5344 28.0011 46.5344 28.0378 46.5413 28.0736C46.5505 28.1088 46.5665 28.1419 46.5884 28.1708Z" fill="#221D1E"/>
<path d="M48.9243 26.0994H48.9465C51.7117 25.7776 54.3636 24.8112 56.6895 23.2781C56.7433 23.2343 56.779 23.1721 56.7893 23.1032C56.8012 23.0338 56.7862 22.9621 56.7477 22.9033C56.7117 22.8427 56.6543 22.798 56.587 22.7783C56.5227 22.7533 56.4515 22.7533 56.3874 22.7783C54.1477 24.25 51.6014 25.1886 48.9437 25.5218H48.9243C48.8875 25.5218 48.8514 25.5293 48.8176 25.5438C48.7838 25.5579 48.7531 25.5787 48.7276 25.6051C48.6863 25.6434 48.658 25.6937 48.6461 25.7487C48.6339 25.8037 48.6392 25.8611 48.6605 25.9133C48.6818 25.9656 48.7184 26.0097 48.7655 26.0405C48.8127 26.0714 48.8681 26.0869 48.9243 26.0855V26.0994Z" fill="#221D1E"/>
<path d="M34.0682 94.9089L34.0931 94.7731L34.0654 94.9089H34.0682Z" fill="#221D1E"/>
<path d="M69.8672 73.6166L69.8977 73.636L69.9836 73.6886L69.8672 73.6166Z" fill="#221D1E"/>
<path d="M74.4708 82.5189C73.0463 78.6785 71.8159 75.6656 71.0343 73.7857C70.9667 73.6593 70.857 73.561 70.724 73.508C70.5882 73.4566 70.4385 73.4566 70.3027 73.508H70.2806C70.2201 73.5163 70.1625 73.538 70.1115 73.5719C70.0605 73.6049 70.017 73.6485 69.984 73.6996C69.9524 73.7521 69.9325 73.8107 69.9258 73.8718C69.9175 73.9315 69.9233 73.9923 69.9425 74.0495C70.724 75.9128 71.9461 78.9589 73.3622 82.7632C73.7898 83.9012 73.9298 85.1277 73.7699 86.3331C73.6097 87.5386 73.1547 88.6854 72.4449 89.672C70.8201 91.8971 68.4155 93.4238 65.7134 93.9456C59.4226 95.3479 53.7497 96.2115 51.7904 96.4864L51.6657 96.503L51.638 96.3781L50.6764 92.0462C50.6625 92.0143 50.6459 91.9835 50.6265 91.9546L50.6071 91.9213V91.8796C50.5822 90.4745 50.427 88.4197 50.3106 87.0257V87.0118C50.3108 86.9515 50.2986 86.8918 50.2745 86.8369C50.2507 86.7827 50.2169 86.7338 50.1748 86.6925C50.131 86.6516 50.0792 86.6203 50.0223 86.6008C49.9653 86.5825 49.9051 86.575 49.845 86.5786C49.7857 86.5847 49.7283 86.6025 49.6759 86.6314C49.6236 86.6608 49.5773 86.7005 49.5401 86.748C49.5047 86.796 49.4792 86.8507 49.4653 86.9091C49.4515 86.9674 49.4495 87.0276 49.4598 87.0868C49.6532 88.6165 49.7513 90.1569 49.7535 91.6991V91.763L49.7036 91.8046C49.6288 91.8688 49.5701 91.9496 49.5318 92.0407L48.5591 96.3614L48.5286 96.4864L48.4039 96.4697C46.464 96.192 40.7828 95.3312 34.4809 93.9289C31.7753 93.4124 29.3654 91.8885 27.7356 89.6637C27.0278 88.6768 26.5738 87.5302 26.4136 86.3256C26.2537 85.121 26.3926 83.8956 26.8183 82.7577C28.1706 79.0811 29.2431 76.4931 30.0385 74.5799C30.1106 74.4077 30.1798 74.2383 30.2463 74.0745C30.2657 74.0173 30.2716 73.9565 30.263 73.8968C30.2558 73.8368 30.2361 73.779 30.2048 73.7274C30.1718 73.6755 30.1286 73.631 30.0773 73.5969C30.0266 73.563 29.9687 73.5411 29.9082 73.533C29.77 73.4911 29.6217 73.4969 29.487 73.5497C29.354 73.6033 29.2434 73.7013 29.1739 73.8273C28.3425 75.7711 27.2339 78.5147 25.7291 82.5327C25.2561 83.7698 25.0962 85.1052 25.2638 86.4195C25.4318 87.7335 25.922 88.9856 26.6908 90.0635C28.4805 92.5202 31.1321 94.2069 34.1123 94.7842C37.9921 95.6172 41.6752 96.292 44.38 96.7474C45.7324 96.9751 46.8409 97.1501 47.6196 97.2695L48.5231 97.4027L48.7642 97.4361H48.8279H48.8639C48.9995 97.4624 49.1397 97.4391 49.2594 97.3702C49.3789 97.3014 49.4697 97.1917 49.5152 97.0612L49.9337 95.2396H50.2108L50.6293 97.0612C50.6686 97.1745 50.7434 97.2717 50.8427 97.3389C50.9444 97.4075 51.0669 97.4391 51.1891 97.4277H51.3969H51.4634L51.7045 97.3944L52.608 97.2639C53.3839 97.15 54.4925 96.9862 55.8393 96.7557C58.5386 96.3059 62.2133 95.645 66.1097 94.7758C69.0908 94.1985 71.7435 92.5122 73.5341 90.0552C74.3017 88.9767 74.7911 87.7246 74.9585 86.4106C75.1259 85.0966 74.966 83.7615 74.4929 82.5244L74.4708 82.5189Z" fill="#221D1E"/>
<path d="M72.3423 89.5862L72.4448 89.661L72.334 89.5834L72.3423 89.5862Z" fill="#221D1E"/>
<path d="M30.1021 74.5996V74.6024L30.1686 74.6273L30.1021 74.5996Z" fill="#221D1E"/>
<path d="M70.0282 71.9142C70.0421 71.8595 70.0421 71.8023 70.0282 71.7476L68.892 67.4824V67.4629C68.8876 67.4271 68.8801 67.3919 68.8698 67.3574C68.8471 67.2974 68.8141 67.2422 68.7728 67.1936C68.7285 67.1472 68.6758 67.1094 68.6176 67.0825C68.5786 67.065 68.5376 67.0528 68.4957 67.0464C68.4395 67.0328 68.3815 67.0264 68.3239 67.027H68.3017C56.1476 65.5247 43.8552 65.5247 31.7012 67.027H31.679C31.6133 67.0231 31.5479 67.0306 31.485 67.0492C31.4562 67.055 31.4282 67.0642 31.4019 67.077C31.3437 67.1039 31.291 67.1417 31.2467 67.188L31.23 67.2102C31.1807 67.2644 31.1422 67.3274 31.1164 67.3963L30.0938 71.7643C30.0799 71.819 30.0799 71.8762 30.0938 71.9309C30.1079 71.9856 30.1368 72.0356 30.1769 72.0753C30.2756 72.1808 30.4078 72.2485 30.5511 72.2669C36.9777 73.1757 43.4598 73.6331 49.9502 73.6359C54.7681 73.6314 59.5827 73.3793 64.3748 72.8806H64.4662L64.5106 72.9611C65.4645 74.7172 66.1492 76.6071 66.5419 78.5675C66.5519 78.6347 66.5866 78.6961 66.6389 78.7397C66.6847 78.7791 66.742 78.8024 66.8024 78.8063H66.8218H66.8412H66.8634C66.9008 78.8011 66.9369 78.7886 66.9693 78.7689C67.0017 78.7494 67.0297 78.7233 67.0519 78.6925C67.0743 78.663 67.0909 78.6297 67.1004 78.5939C67.1101 78.5581 67.1123 78.5209 67.1073 78.4842C66.724 76.5765 66.0708 74.7335 65.1674 73.0111L65.0732 72.8306L65.2755 72.8084C66.7165 72.6473 68.1548 72.4621 69.5904 72.253C69.7359 72.2422 69.8714 72.1744 69.9673 72.0642C69.9986 72.0195 70.0194 71.9681 70.0282 71.9142ZM36.6701 67.3741C45.531 66.5688 54.4466 66.5688 63.3078 67.3741V67.6518C54.4524 68.5778 45.5252 68.5778 36.6701 67.6518V67.3741ZM68.6371 71.5393C56.297 73.2249 43.786 73.2249 31.4462 71.5393L31.2965 71.5171L31.3326 71.3699L32.1085 68.1155L32.139 67.9933L32.2637 68.01C44.0379 69.6344 55.9786 69.6344 67.753 68.01L67.8749 67.9933L67.9054 68.1127L68.7562 71.3533L68.7978 71.506L68.6371 71.5393Z" fill="#221D1E"/>
<path d="M36.6843 67.5099L36.6704 67.3741L36.6843 67.5127V67.5099Z" fill="#221D1E"/>
<path d="M69.5848 72.3891L69.5737 72.2505L69.5848 72.3863V72.3891Z" fill="#221D1E"/>
<path d="M69.6207 81.7275C69.6468 81.7542 69.6775 81.7755 69.7119 81.7902C69.7463 81.805 69.7831 81.8125 69.8202 81.8125C69.8577 81.8125 69.8945 81.805 69.9286 81.7902C69.963 81.7755 69.994 81.7542 70.0198 81.7275C70.0456 81.7014 70.0658 81.6706 70.0796 81.637C70.0935 81.6031 70.1004 81.5667 70.1002 81.5303C69.9222 78.7493 69.0884 76.0502 67.667 73.6552C67.6495 73.6213 67.6251 73.5916 67.5954 73.5677C67.5661 73.5439 67.5317 73.5264 67.4951 73.5164C67.4225 73.4967 67.3452 73.5055 67.279 73.5414C67.246 73.5591 67.2169 73.5838 67.1933 73.6133C67.1701 73.643 67.1531 73.6771 67.1432 73.7135C67.1365 73.7502 67.1365 73.7879 67.1432 73.8246C67.1479 73.8618 67.1604 73.8976 67.1792 73.9301C68.5402 76.2452 69.3516 78.8426 69.5514 81.522C69.5487 81.5592 69.5534 81.5964 69.5653 81.6317C69.5772 81.667 69.5961 81.6994 69.6207 81.7275Z" fill="#221D1E"/>
<path d="M36.8193 93.3319C36.8748 93.3311 36.9291 93.3138 36.9745 93.2819C37.0164 93.2508 37.0496 93.2097 37.0715 93.1625C37.089 93.0903 37.0793 93.014 37.0438 92.9487C37.0067 92.8818 36.9452 92.8321 36.872 92.8099C34.8484 92.262 32.9232 91.4 31.1659 90.2552C31.1362 90.2327 31.1021 90.2163 31.0658 90.2071C31.0298 90.1982 30.9921 90.1966 30.9553 90.2024C30.8968 90.2066 30.8411 90.2293 30.7962 90.2674C30.7516 90.3054 30.72 90.3565 30.7061 90.4137C30.6923 90.4709 30.6967 90.5309 30.7192 90.5853C30.7416 90.6395 30.7807 90.6853 30.8306 90.7161C32.6449 91.901 34.6383 92.7851 36.7334 93.3347L36.8193 93.3319Z" fill="#221D1E"/>
<path d="M31.3213 66.9579L31.3795 67.0826L31.3324 66.9801L31.3213 66.9579Z" fill="#221D1E"/>
</g>
</svg>
