<svg width="100" height="100" viewBox="0 0 100 100" fill="none" xmlns="http://www.w3.org/2000/svg">
<rect width="100" height="100" fill="white"/>
<path d="M59.3268 11.9757C59.3268 11.9757 59.232 1.86516 30.2198 3.10516C8.88747 3.96359 4.33656 10.5449 5.5692 14.1695C5.85353 14.9326 6.32769 15.6003 6.89633 15.982C10.594 18.6525 20.6441 22.6585 33.9174 21.8955C47.191 21.1324 59.1372 17.5081 59.3268 11.9757Z" stroke="#221D1E" stroke-width="0.666249" stroke-linecap="round" stroke-linejoin="round"/>
<path d="M29.2715 19.0344V16.8405L34.2965 15.6958L34.6759 18.6527" stroke="#221D1E" stroke-width="0.666249" stroke-linecap="round" stroke-linejoin="round"/>
<path d="M10.2148 17.4131C10.2148 17.4131 16.1879 12.5484 29.2717 12.0716C42.2607 11.5946 50.1302 14.1698 53.8278 16.2683" stroke="#221D1E" stroke-width="0.333125" stroke-linecap="round" stroke-linejoin="round"/>
<path d="M61.223 95.6271C61.223 95.6271 79.0472 86.0886 83.9775 82.655C91.6571 77.4089 99.9057 69.5873 93.9326 54.6124C89.2869 42.9755 81.1331 39.8279 75.6342 39.1602C71.747 38.6834 62.9295 40.1139 54.681 42.5941C43.588 45.9324 39.0371 48.6032 39.0371 48.6032" stroke="#221D1E" stroke-width="0.666249" stroke-linecap="round" stroke-linejoin="round"/>
<path fill-rule="evenodd" clip-rule="evenodd" d="M16.2733 26.5571C16.2742 26.5018 16.275 26.4471 16.2756 26.3926C16.33 26.4105 16.3898 26.4295 16.4554 26.4505L16.6264 25.9047C16.4503 25.8488 16.3165 25.8044 16.2272 25.7739C16.1825 25.7589 16.149 25.7471 16.1267 25.7393L16.1021 25.7307L16.0964 25.7287L16.0949 25.7281H16.0946L15.723 25.5936L15.7141 25.9911C15.7104 26.1697 15.7072 26.3561 15.7047 26.5499L16.2733 26.5571ZM50.6992 25.9983L50.7003 25.6103L50.3315 25.7238C50.1451 25.7811 49.9593 25.8373 49.7734 25.8926L49.9344 26.4413C49.9991 26.422 50.0641 26.4027 50.1291 26.3831L50.1285 26.5442L50.6974 26.5465C50.698 26.3684 50.6986 26.2313 50.6989 26.1389L50.6992 26.0337V26.0072V26.0006V25.9989V25.9983ZM48.6625 26.2094C48.2865 26.3126 47.9117 26.4111 47.5387 26.505L47.677 27.0604C48.0538 26.9653 48.4323 26.8656 48.812 26.7616L48.6625 26.2094ZM18.8606 26.5318C18.4422 26.4266 18.0672 26.3264 17.7387 26.2345L17.5864 26.7861C17.9197 26.8792 18.2994 26.9806 18.7228 27.0871L18.8606 26.5318ZM46.4128 26.7766C46.0351 26.8636 45.6586 26.9463 45.2841 27.0243L45.3998 27.5849C45.778 27.5057 46.1583 27.4224 46.5399 27.3346L46.4128 26.7766ZM21.1197 27.0448C20.7183 26.9627 20.338 26.8806 19.9801 26.7991L19.8547 27.3576C20.2166 27.4397 20.6009 27.523 21.0063 27.6056L21.1197 27.0448ZM44.1445 27.2505C43.7626 27.3222 43.3823 27.3896 43.0041 27.4527L43.0971 28.0173C43.4791 27.9536 43.8631 27.8856 44.249 27.813L44.1445 27.2505ZM23.3923 27.4616C22.9986 27.3974 22.6183 27.3314 22.2521 27.2643L22.1502 27.8274C22.5201 27.8951 22.9038 27.9617 23.3012 28.0265L23.3923 27.4616ZM41.8631 27.6316C41.4771 27.688 41.0934 27.7405 40.7123 27.7883L40.783 28.3563C41.1678 28.3076 41.5552 28.2549 41.9449 28.1979L41.8631 27.6316ZM25.6864 27.7897C25.2935 27.7413 24.9104 27.69 24.5376 27.6367L24.4574 28.2034C24.8337 28.2572 25.2202 28.3088 25.6168 28.3578L25.6864 27.7897ZM50.6866 28.8287C50.6888 28.4061 50.6908 28.0236 50.6926 27.6863L50.1236 27.6837C50.1219 28.0207 50.1202 28.403 50.1179 28.8256L50.6866 28.8287ZM15.6978 27.6961C15.6975 28.059 15.6992 28.4404 15.7027 28.8382L16.2713 28.8336C16.2682 28.4373 16.2664 28.0573 16.2664 27.6964L15.6978 27.6961ZM27.9916 28.0308C27.5993 27.9971 27.2145 27.9605 26.8377 27.9211L26.779 28.4903C27.1592 28.53 27.5475 28.5672 27.9435 28.6009L27.9916 28.0308ZM39.5604 27.9222C39.1739 27.9631 38.7899 28 38.4088 28.0328L38.4575 28.6032C38.842 28.5698 39.2297 28.5326 39.6202 28.4911L39.5604 27.9222ZM30.3057 28.1849C29.9137 28.1662 29.5274 28.144 29.1475 28.1187L29.11 28.6896C29.4934 28.7152 29.8831 28.7377 30.2788 28.7564L30.3057 28.1849ZM37.256 28.1213C36.866 28.1472 36.4792 28.1691 36.0964 28.1872L36.123 28.759C36.5096 28.7406 36.8998 28.7184 37.2935 28.6922L37.256 28.1213ZM32.6238 28.2518C32.233 28.2477 31.8467 28.2402 31.4659 28.2293L31.4496 28.8014C31.8341 28.8123 32.2235 28.8201 32.6181 28.8241L32.6238 28.2518ZM34.9376 28.231C34.5476 28.242 34.1617 28.2489 33.78 28.2523L33.7852 28.8247C34.1703 28.8212 34.56 28.814 34.9534 28.8031L34.9376 28.231ZM15.7155 29.9763C15.7207 30.3445 15.727 30.7233 15.7344 31.1124L16.3031 31.1015C16.2959 30.7132 16.2896 30.3353 16.2842 29.9683L15.7155 29.9763ZM50.6728 31.1107C50.6754 30.7132 50.678 30.333 50.68 29.9729L50.1113 29.9694C50.109 30.3295 50.1067 30.7095 50.1042 31.107L50.6728 31.1107ZM15.7582 32.248C15.7665 32.6196 15.7757 32.9986 15.7857 33.3841L16.3543 33.3694C16.3443 32.9842 16.3352 32.6057 16.3269 32.2347L15.7582 32.248ZM50.6565 33.3783C50.6596 32.9897 50.6625 32.6115 50.6651 32.2448L50.0961 32.2408C50.0936 32.6072 50.0907 32.9854 50.0875 33.374L50.6565 33.3783ZM15.8166 34.5216C15.8272 34.8964 15.8384 35.2763 15.8501 35.6606L16.4188 35.643C16.407 35.2593 16.3959 34.8797 16.3853 34.5055L15.8166 34.5216ZM50.6373 35.6511C50.6407 35.2648 50.6442 34.8854 50.6473 34.5135L50.0784 34.5086C50.0752 34.8805 50.0721 35.2599 50.0684 35.6459L50.6373 35.6511ZM15.8862 36.8004C15.8982 37.1752 15.9108 37.5534 15.924 37.9342L16.4923 37.9146C16.4795 37.5341 16.4669 37.1562 16.4546 36.7817L15.8862 36.8004ZM50.6152 37.9302C50.6193 37.5459 50.623 37.166 50.6267 36.7912L50.0578 36.7857C50.054 37.1602 50.0503 37.5401 50.0463 37.9241L50.6152 37.9302ZM15.9635 39.0703C15.977 39.4477 15.991 39.827 16.005 40.2075L16.5734 40.1862C16.5593 39.806 16.5456 39.4269 16.5321 39.0498L15.9635 39.0703ZM50.5901 40.2012C50.5944 39.8193 50.5989 39.4399 50.6029 39.0637L50.0343 39.0573C50.03 39.4333 50.0257 39.8126 50.0211 40.1943L50.5901 40.2012ZM16.048 41.3448C16.0623 41.723 16.0769 42.1015 16.0918 42.4806L16.6604 42.4579C16.6455 42.0793 16.6306 41.7006 16.6163 41.3229L16.048 41.3448ZM50.5611 42.4763C50.5663 42.0963 50.5712 41.7173 50.576 41.3402L50.0071 41.333C50.0025 41.7098 49.9974 42.0886 49.9922 42.4685L50.5611 42.4763ZM16.1373 43.6173C16.1525 43.9966 16.1679 44.3754 16.1837 44.7537L16.752 44.7298C16.7363 44.3521 16.7208 43.9733 16.7057 43.5939L16.1373 43.6173ZM50.5411 43.9048C50.5425 43.8077 50.544 43.7103 50.5451 43.6132L49.9765 43.6049C49.9742 43.7688 49.9716 43.9327 49.9693 44.0969C50.1571 44.0332 50.3478 43.969 50.5411 43.9048ZM16.2309 45.8883C16.2467 46.2691 16.263 46.6485 16.279 47.0259L16.8474 47.0011C16.8314 46.624 16.815 46.2449 16.7993 45.8641L16.2309 45.8883ZM16.328 48.1631C16.3446 48.5448 16.3612 48.9236 16.3778 49.2986L16.9462 49.2733C16.9296 48.8982 16.913 48.5197 16.8964 48.138L16.328 48.1631ZM16.4282 50.4318C16.4451 50.8155 16.4623 51.1946 16.4792 51.5685L17.0472 51.5426C17.0306 51.1687 17.0135 50.7899 16.9963 50.4062L16.4282 50.4318ZM16.5307 52.7069C16.5482 53.0935 16.5656 53.4729 16.5828 53.8444L17.1509 53.8179C17.134 53.4463 17.1165 53.067 17.0991 52.6807L16.5307 52.7069ZM16.6349 54.9808C16.653 55.3706 16.6704 55.7497 16.6873 56.1169L17.2557 56.0901C17.2388 55.7231 17.2213 55.3441 17.2033 54.9543L16.6349 54.9808ZM16.74 57.253C16.7583 57.6505 16.7758 58.0302 16.7924 58.3894L17.3605 58.3632C17.3442 58.0037 17.3267 57.624 17.3084 57.2265L16.74 57.253ZM16.844 59.5218C16.8629 59.9426 16.8798 60.3234 16.8941 60.6593L17.4624 60.6345C17.4481 60.2984 17.4312 59.917 17.412 59.4958L16.844 59.5218ZM16.9396 61.7965C16.9456 61.972 16.949 62.1053 16.9505 62.1955L16.9508 62.2157L16.7177 62.4499L17.1311 62.6063C17.3058 62.6722 17.4802 62.7368 17.6546 62.8001L17.8478 62.262C17.7382 62.222 17.6282 62.1817 17.5185 62.1408C17.5165 62.0486 17.5131 61.9262 17.508 61.777L16.9396 61.7965ZM18.6971 63.1648C19.051 63.2835 19.4037 63.397 19.7553 63.5053L19.922 62.9583C19.575 62.8514 19.2265 62.7394 18.8772 62.6218L18.6971 63.1648ZM20.8179 63.8184C21.175 63.9187 21.5306 64.0137 21.8851 64.1039L22.0245 63.5491C21.6746 63.4601 21.3233 63.3662 20.9708 63.2671L20.8179 63.8184ZM22.9651 64.3643C23.3279 64.4472 23.6889 64.5247 24.0483 64.5973L24.1602 64.0362C23.8055 63.9645 23.449 63.8878 23.0908 63.8063L22.9651 64.3643ZM25.1335 64.803C25.5005 64.8681 25.8653 64.9277 26.2281 64.9827L26.3128 64.417C25.9549 64.3626 25.5944 64.3035 25.2319 64.2393L25.1335 64.803ZM27.3262 65.136C27.6952 65.1827 28.0617 65.2247 28.4254 65.2621L28.4832 64.6927C28.1239 64.6558 27.7619 64.6143 27.3975 64.5682L27.3262 65.136Z" fill="#221D1E"/>
<path fill-rule="evenodd" clip-rule="evenodd" d="M59.8004 12.0879C59.8093 11.8246 59.6046 11.604 59.3429 11.5948C59.0815 11.5856 58.8619 11.7915 58.8527 12.0548L59.3266 12.0715C58.8527 12.0548 58.8527 12.0545 58.8527 12.0548V12.0557V12.058L58.8524 12.0669L58.8513 12.1023L58.8461 12.2429C58.8418 12.3665 58.8355 12.5491 58.8272 12.7862C58.8103 13.2597 58.7854 13.9496 58.7536 14.8138C58.6898 16.5422 58.5982 18.9679 58.4856 21.7571C58.2603 27.3365 57.9525 34.3677 57.6206 40.1821V40.1833C57.5917 40.7133 57.5596 41.2479 57.525 41.7854C57.8471 41.699 58.1695 41.6143 58.4911 41.5314C58.5186 41.0973 58.5438 40.6655 58.5672 40.2366C58.8994 34.4141 59.2078 27.3765 59.4328 21.796C59.5453 19.0053 59.6372 16.5784 59.7011 14.8492C59.7329 13.9845 59.7578 13.2943 59.7747 12.8202C59.783 12.5831 59.7896 12.4002 59.7939 12.2763L59.7987 12.1358L59.7999 12.1L59.8002 12.0908L59.8004 12.0888V12.0882C59.8004 12.0879 59.8004 12.0879 59.3266 12.0715L59.8004 12.0879ZM58.5672 40.2366V40.2357L58.0939 40.2095L58.5672 40.2366ZM29.8459 77.1749C29.7371 76.8417 29.6343 76.5113 29.5378 76.1837C23.7649 75.5347 19.7451 73.1505 16.8635 70.0936C13.4548 66.4777 11.6085 61.8883 10.3825 57.9984C9.94839 56.5956 9.44874 53.1715 8.94481 48.7619C8.44344 44.3731 7.94323 39.0636 7.49885 33.9324C7.05475 28.8019 6.66678 23.8527 6.38961 20.1861C6.25131 18.3529 6.1405 16.8403 6.06434 15.786C6.02654 15.2589 5.99705 14.8464 5.9773 14.5658C5.96727 14.4255 5.95983 14.3181 5.95468 14.2458L5.94895 14.164L5.94752 14.1435L5.94723 14.1383L5.94695 14.1369C5.94695 14.1366 5.94695 14.1366 5.47422 14.1697L5.94695 14.1366C5.92862 13.8739 5.70213 13.6757 5.441 13.6941C5.17979 13.7126 4.98291 13.9404 5.00118 14.2031L5.47422 14.1697C5.00118 14.2031 5.0012 14.2031 5.0012 14.2034L5.00129 14.2049L5.00166 14.21L5.00312 14.2308L5.00888 14.3129C5.01395 14.3855 5.02153 14.4929 5.03147 14.6335C5.05137 14.9146 5.08077 15.3277 5.11885 15.8551C5.19499 16.9103 5.30577 18.4237 5.44444 20.2584C5.72132 23.9271 6.10958 28.8799 6.55425 34.0151C6.99892 39.1494 7.49999 44.4693 8.00307 48.8708C8.50329 53.2498 9.01095 56.7762 9.47766 58.2833L9.47823 58.2856C10.7172 62.2167 12.6161 66.9743 16.1755 70.7501C19.2836 74.0469 23.6346 76.5709 29.8459 77.1749Z" fill="#221D1E"/>
<path fill-rule="evenodd" clip-rule="evenodd" d="M38.8217 48.1784C46.2508 44.2949 59.2049 47.2941 67.7131 64.125C72.9859 74.5408 72.8607 88.6856 61.4821 96.0264C60.3127 96.8091 58.3193 97.3414 55.9213 97.4713C53.5035 97.6024 50.6173 97.3281 47.6261 96.4424C41.6361 94.6685 35.2134 90.4378 31.3082 82.096C26.1743 71.2345 27.4771 63.018 30.3793 57.3741C33.2618 51.7688 37.6973 48.7456 38.8217 48.1784ZM66.8682 64.5576C58.5017 48.0071 46.049 45.4724 39.2558 49.0265L39.2492 49.0299V49.0297C38.282 49.5162 34.0011 52.4065 31.2214 57.8122C28.4589 63.1848 27.1544 71.0876 32.1649 81.6869L32.1657 81.6887C35.9401 89.7522 42.1271 93.8196 47.8938 95.5272C50.7805 96.3822 53.5591 96.6443 55.8703 96.519C58.1982 96.3928 59.9957 95.8769 60.9601 95.2302L60.967 95.2256C71.7707 88.2584 72.0244 74.7436 66.8685 64.5579L66.8682 64.5576Z" fill="#221D1E"/>
<path d="M58.4733 71.1134L56.4822 71.9718L53.3535 67.8705L55.9133 66.3444" stroke="#221D1E" stroke-width="0.666249" stroke-linecap="round" stroke-linejoin="round"/>
<path d="M62.55 92.5749C54.9652 93.5286 45.2944 90.8577 39.4161 79.1258C33.5381 67.3935 36.3822 53.4677 45.1997 48.6033" stroke="#221D1E" stroke-width="0.333125" stroke-linecap="round" stroke-linejoin="round"/>
<path d="M74.4964 75.4054C74.4964 75.4054 75.6342 58.7134 58.8525 47.6489C58.8525 47.6489 76.6771 41.6397 78.6682 41.5444C78.6682 41.5444 94.0274 47.6489 92.8898 68.0609C92.8898 67.9655 78.4783 73.6886 74.4964 75.4054Z" stroke="#221D1E" stroke-width="0.399751" stroke-dasharray="0.8 0.8"/>
</svg>
