<svg width="101" height="100" viewBox="0 0 101 100" fill="none" xmlns="http://www.w3.org/2000/svg">
<g clip-path="url(#clip0_13161_229)">
<rect width="100" height="100" transform="translate(0.603516)" fill="white"/>
<mask id="mask0_13161_229" style="mask-type:luminance" maskUnits="userSpaceOnUse" x="-15" y="-16" width="131" height="132">
<path d="M115.907 -15.2944H-14.7007V115.232H115.907V-15.2944Z" fill="white"/>
</mask>
<g mask="url(#mask0_13161_229)">
<path d="M20.957 30.0941C24.4168 28.3536 33.1529 27.6575 36.9586 28.3536C41.7159 29.2237 62.9073 19.652 72.8539 20.9573" stroke="#221D1E" stroke-width="0.333125" stroke-dasharray="0.81 0.81"/>
<path d="M27.8767 44.0171C37.3912 41.4065 43.8782 42.2766 47.7706 42.2766C53.5406 42.2766 75.0165 33.2623 83.6659 33.2623M28.3092 14.4311C30.3274 16.8966 35.2288 23.6549 38.6887 30.9642C42.1485 38.2738 51.663 49.9633 55.1228 54.024M47.7706 9.64507C52.5279 12.6906 58.2365 20.9463 60.3124 26.6134C63.5 35.3153 71.5569 44.0171 75.8814 47.9327M27.0118 45.3221C25.5701 47.6426 23.379 53.5888 26.1469 58.81M19.2273 30.0941C18.074 31.9796 16.0269 37.3167 17.0647 43.5819M23.9843 63.1608C21.9661 63.1608 18.1892 65.5974 19.2273 75.3436M14.0374 47.0626C12.8842 48.2229 10.5776 52.2835 10.5776 59.2449M26.1469 63.1608H28.3092M15.7675 46.6274C16.4882 46.6274 18.1027 46.7144 18.7947 47.0626L15.7675 46.6274Z" stroke="#221D1E" stroke-width="0.333125" stroke-dasharray="0.81 0.81"/>
<path d="M39.8678 65.1934C41.1963 64.0277 42.44 62.7195 45.5615 62.1766C48.3641 61.6888 56.4503 59.6672 62.5795 58.5046C73.5038 56.4324 76.7345 53.4211 81.5158 51.8078C83.8832 51.0092 85.7741 51.5532 88.1708 52.5337C90.5677 53.5144 93.7023 54.0663 94.2877 56.1791C94.8726 58.292 92.6773 62.1766 92.6773 62.1766C92.6773 62.1766 91.9075 67.4075 85.4845 70.947C79.0619 74.4866 67.9057 76.5272 67.9057 76.5272L56.6412 80.3794L51.2667 83.083L43.779 84.2483L41.2601 86.6247L38.5834 85.3567L36.642 80.966M36.642 80.966C36.642 80.966 39.47 78.8855 45.0412 77.314C50.6126 75.7432 75.464 68.8746 79.9088 66.0604C84.3547 63.2464 86.3891 60.9853 86.2974 59.9C86.2065 58.8147 79.9088 58.5046 79.9088 58.5046M36.642 80.966C36.642 80.966 32.2403 83.8236 37.6629 83.8236M79.9088 58.5046C80.7246 57.9193 82.278 56.5767 82.7623 56.1791L79.9088 58.5046ZM79.9088 58.5046C77.1877 60.4571 70.2754 64.9412 63.4376 66.3981C56.5995 67.855 49.566 69.4128 46.0453 71.1838C39.6037 74.424 35.9992 73.9923 34.0432 71.6881C31.2255 68.368 20.1977 49.3998 16.9343 43.1856C13.0234 38.1757 11.0745 33.8084 10.2661 31.8448C9.18269 29.5974 10.2171 19.4733 11.0745 18.0931C12.1011 17.1778 16.9343 14.2742 25.7721 14.2742C31.8866 14.2742 57.2966 6.36501 61.3507 7.0796C64.5942 7.6512 68.6556 13.4585 70.4314 16.3169C70.9854 17.7459 73.9432 22.6862 79.4963 29.0305C85.0493 35.3746 94.3026 45.6364 96.9087 51.3774C99.5157 57.1183 97.6472 60.9982 95.5499 65.1285C94.313 67.5646 92.6201 69.7852 90.5434 71.7927C88.5274 73.7418 85.4845 75.008 85.4845 75.008L44.6859 89.8494C31.0489 97.7038 25.3037 87.9282 25.3037 87.9282L19.1957 75.2279L11.8385 62.1766L5.17684 49.3754C3.9467 47.0116 3.17439 44.4141 3.24133 41.7468C3.35334 37.288 4.1011 31.7796 6.48812 29.9784C8.16526 28.7131 9.66448 29.8715 9.8956 30.1936" stroke="#221D1E" stroke-width="0.666249"/>
<path d="M91.9029 45.5708C84.3606 44.1254 74.5736 49.2044 66.6768 51.9196C58.78 54.6348 45.0776 55.7372 45.0776 55.7372C45.0776 55.7372 38.4323 55.389 34.9048 60.8887C31.3776 66.3887 33.5209 70.8441 33.5209 70.8441M13.1309 19.2755C18.9897 28.4722 26.7666 47.3665 34.9048 55.7372M6.71729 34.2581C12.5758 43.4548 23.4816 63.1198 30.0836 72.8206" stroke="#221D1E" stroke-width="0.399751" stroke-dasharray="0.8 0.8"/>
<path d="M25.4432 88.1425C25.4432 88.1425 24.4253 84.1423 26.2402 80.0427C28.0551 75.9434 31.2715 75.0281 33.1133 75.0281C34.9549 75.0281 37.2306 74.7488 39.2302 73.5843" stroke="#221D1E" stroke-width="0.399751" stroke-dasharray="0.8 0.8"/>
</g>
</g>
<defs>
<clipPath id="clip0_13161_229">
<rect width="100" height="100" fill="white" transform="translate(0.603516)"/>
</clipPath>
</defs>
</svg>
