<svg width="100" height="100" viewBox="0 0 100 100" fill="none" xmlns="http://www.w3.org/2000/svg">
<g clip-path="url(#clip0_13161_239)">
<rect width="100" height="100" fill="white"/>
<mask id="mask0_13161_239" style="mask-type:luminance" maskUnits="userSpaceOnUse" x="-16" y="-16" width="132" height="132">
<path d="M115.304 -15.2944H-15.3042V115.232H115.304V-15.2944Z" fill="white"/>
</mask>
<g mask="url(#mask0_13161_239)">
<path d="M39.2742 65.1966C40.5716 64.0655 41.8691 62.7602 44.983 62.1511C47.7509 61.6289 55.8815 59.6275 62.0224 58.4964C72.9209 56.408 76.2077 53.4492 80.965 51.796C83.3003 51.0129 85.2032 51.535 87.6252 52.4921C90.047 53.4492 93.1609 54.0584 93.7664 56.1468C94.3719 58.2352 92.1228 62.1511 92.1228 62.1511C92.1228 62.1511 91.3444 67.372 84.9438 70.9399C78.5433 74.5076 67.3852 76.509 67.3852 76.509L56.1409 80.3376L50.7781 83.0352L43.253 84.1665L40.7448 86.5159L38.0634 85.2106L36.1605 80.8598M79.3217 58.4964C80.1001 57.8873 81.657 56.582 82.176 56.1468L79.3217 58.4964ZM79.3217 58.4964C76.6403 60.4106 69.7207 64.9356 62.8876 66.4149C56.0544 67.8941 49.0483 69.4606 45.5018 71.2009C39.1012 74.4206 35.4685 73.9854 33.4791 71.723C30.6248 68.4163 19.6398 49.4466 16.353 43.1811C12.4606 38.1342 10.4713 33.7834 9.69285 31.8689C8.56839 29.6066 9.60633 19.5124 10.4713 18.1201C11.5092 17.1631 16.353 14.2915 25.1755 14.2915C31.3167 14.2915 56.6599 6.37286 60.7252 7.069C63.9254 7.67813 67.9907 13.4211 69.8072 16.2929C70.3262 17.6852 73.3534 22.6452 78.8891 28.9974C84.4248 35.3496 93.68 45.6177 96.2746 51.3608C98.8695 57.1041 97.053 61.0197 94.8907 65.1096C93.68 67.5462 91.9499 69.8086 89.874 71.81C87.8846 73.7245 84.8574 75.0298 84.8574 75.0298L44.0314 89.9096C30.3651 97.7411 24.6565 87.9952 24.6565 87.9952L18.6018 75.2037L11.2499 62.1511L4.5896 49.3594C3.37868 47.01 2.60021 44.3994 2.68672 41.7018C2.77321 37.2641 3.55166 31.695 5.97355 29.9545C7.61694 28.6492 9.17386 29.8675 9.34687 30.1287M79.3217 58.4964C79.3217 58.4964 85.6358 58.8443 85.7223 59.8887C85.8087 60.9328 83.8193 63.1951 79.3217 66.0669C74.9103 68.8515 49.9997 75.7259 44.464 77.2921C38.9283 78.8584 36.074 80.9468 36.074 80.9468M37.0253 83.8183C31.5761 83.8183 35.9875 80.9468 35.9875 80.9468" stroke="#221D1E" stroke-width="0.666249"/>
<path d="M91.2578 45.5307C83.733 44.0514 73.9588 49.1854 66.0013 51.8829C58.1301 54.5805 44.3774 55.7115 44.3774 55.7115C44.3774 55.7115 37.7174 55.3636 34.1709 60.8457C30.7978 66.4148 32.9601 70.8526 32.9601 70.8526M12.5471 19.2514C18.4289 28.4752 26.127 47.3579 34.344 55.7115M6.14648 34.2183C12.0281 43.4423 22.9266 63.1081 29.5003 72.7671" stroke="#221D1E" stroke-width="0.399751" stroke-dasharray="0.8 0.8"/>
<path d="M24.8295 88.1689C24.8295 88.1689 23.7914 84.1661 25.6079 80.0762C27.4244 75.9864 30.6246 75.0293 32.441 75.0293C34.2575 75.0293 36.5928 74.7683 38.5822 73.55" stroke="#221D1E" stroke-width="0.399751" stroke-dasharray="0.8 0.8"/>
<path d="M34.2573 26.9957C34.2573 26.9957 37.9768 34.1313 41.0905 39.1782C42.4744 41.4406 43.6854 43.2681 44.4638 43.8772C44.4638 43.8772 46.9723 43.442 49.9995 42.6589C52.8538 41.9628 56.2272 41.0927 58.5627 40.0483C63.1468 38.0469 68.596 37.438 68.596 37.438C68.596 37.438 62.5415 30.3894 58.9085 20.4695C58.9085 20.4695 51.4699 22.9061 48.0101 24.3854C44.4638 25.9516 39.1011 27.5179 34.2573 26.9957Z" stroke="#221D1E" stroke-width="0.333125"/>
<path d="M34.5166 27.1702C34.5166 27.1702 42.1282 30.8251 52.4211 32.5653C60.0327 33.8706 68.4227 37.3513 68.4227 37.3513" stroke="#221D1E" stroke-width="0.333125" stroke-dasharray="0.15 0.8"/>
<path d="M40.917 26.6479C40.917 26.6479 47.8366 28.8233 52.2478 29.6066C57.4376 30.5637 65.7411 33.5223 65.7411 33.5223" stroke="#221D1E" stroke-width="0.333125" stroke-dasharray="0.15 0.8"/>
<path d="M46.0205 25.2557C46.0205 25.2557 51.0372 26.474 54.9295 27.0832C58.9084 27.692 62.714 28.8234 62.714 28.8234" stroke="#221D1E" stroke-width="0.333125" stroke-dasharray="0.15 0.8"/>
<path d="M51.6426 23.1671C51.6426 23.1671 55.2753 24.2115 56.7457 24.3854C58.2161 24.4724 60.8975 25.1685 60.8975 25.1685" stroke="#221D1E" stroke-width="0.333125" stroke-dasharray="0.15 0.8"/>
<path d="M36.9385 32.0431C36.9385 32.0431 42.7336 34.1315 46.5395 35.0016C50.3454 35.8717 58.9948 37.6992 62.4546 38.8305" stroke="#221D1E" stroke-width="0.333125" stroke-dasharray="0.15 0.8"/>
<path d="M39.3608 36.2196C39.3608 36.2196 45.1559 37.8729 48.1831 38.482C51.2106 39.0912 56.8328 40.8316 56.8328 40.8316" stroke="#221D1E" stroke-width="0.333125" stroke-dasharray="0.15 0.8"/>
<path d="M41.2632 39.5269C41.2632 39.5269 45.3285 39.9621 51.6426 42.2245" stroke="#221D1E" stroke-width="0.333125" stroke-dasharray="0.15 0.8"/>
<path d="M58.8221 20.8177C58.8221 20.8177 56.2272 27.2572 50.9509 33.3482C47.0588 37.8732 43.9448 44.4864 43.9448 44.4864" stroke="#221D1E" stroke-width="0.333125" stroke-dasharray="0.15 0.8"/>
<path d="M52.5944 22.8189C52.5944 22.8189 49.3075 28.475 47.0587 31.0856C44.4638 34.2183 41.4365 39.7005 41.4365 39.7005" stroke="#221D1E" stroke-width="0.333125" stroke-dasharray="0.15 0.8"/>
<path d="M46.1937 25.1683C46.1937 25.1683 44.7233 28.3878 42.6474 30.7374C40.5715 32.9998 38.9282 35.6974 38.9282 35.6974" stroke="#221D1E" stroke-width="0.333125" stroke-dasharray="0.15 0.8"/>
<path d="M40.9175 26.6479C40.9175 26.6479 39.5336 28.9972 38.7552 29.6934C37.9768 30.3895 36.939 31.9557 36.939 31.9557" stroke="#221D1E" stroke-width="0.333125" stroke-dasharray="0.15 0.8"/>
<path d="M61.1575 25.8647C58.3896 30.5635 58.9951 29.6934 56.7463 32.7391C54.9298 35.1755 50.6916 40.4836 49.2212 43.007" stroke="#221D1E" stroke-width="0.333125" stroke-dasharray="0.15 0.8"/>
<path d="M62.9739 29.084C62.9739 29.084 59.6005 34.4792 58.1301 36.3066C56.6598 38.2208 54.3242 41.6145 54.3242 41.6145" stroke="#221D1E" stroke-width="0.333125" stroke-dasharray="0.15 0.8"/>
<path d="M65.3958 33.0871C63.9251 35.5237 63.7522 35.7846 60.4653 39.4393" stroke="#221D1E" stroke-width="0.333125" stroke-dasharray="0.15 0.8"/>
</g>
</g>
<defs>
<clipPath id="clip0_13161_239">
<rect width="100" height="100" fill="white"/>
</clipPath>
</defs>
</svg>
