<svg width="100" height="100" viewBox="0 0 100 100" fill="none" xmlns="http://www.w3.org/2000/svg">
<rect width="100" height="100" fill="white"/>
<path d="M32.5937 95.1398C32.884 90.9996 33.2046 87.2012 33.5272 83.3778L33.5319 83.3226L33.5324 83.3166C34.1163 76.3991 34.7075 69.3936 35.1191 60.5475C35.3576 55.4117 35.5795 50.7044 36.1582 46.0894C36.74 41.4502 37.6827 36.886 39.3636 32.0446C39.7081 31.0527 39.9374 29.6876 40.0885 28.2221C40.2984 26.1887 40.3561 23.9791 40.3613 22.2881C40.3463 20.3706 39.9384 18.5647 39.5335 16.7726C38.7266 13.2003 37.9315 9.68014 40.0995 5.24826L40.1397 5.16599L40.2064 5.1082C40.2209 5.09561 40.2362 5.08382 40.2524 5.07263C40.2809 5.09496 41.1876 5.13008 41.2124 5.15871C41.2313 5.18071 41.2486 5.20349 41.2636 5.22716C42.1978 6.51729 42.9537 7.11905 43.8884 7.86272C44.5366 8.37851 45.2678 8.96022 46.2058 9.87998C46.9037 10.5644 48.1984 11.943 48.8231 12.6133L48.9163 12.7142C49.7416 13.6071 50.2525 14.2521 50.2952 14.2521C50.3379 14.2521 50.849 13.6068 51.6743 12.714L52.3675 11.9664C52.9922 11.296 53.6869 10.5644 54.3848 9.87998C55.3228 8.96032 56.0537 8.37858 56.7019 7.86282C57.6364 7.11905 58.3926 6.51736 59.3271 5.22716C59.342 5.20349 59.359 5.18071 59.378 5.15871C59.4027 5.13008 60.3097 5.09496 60.3382 5.07263C60.3542 5.08382 60.3694 5.09561 60.3839 5.1082L60.4509 5.16599L60.4911 5.24826C62.6588 9.68014 61.8637 13.2006 61.0569 16.7726C60.652 18.5647 60.2441 20.3706 60.2291 22.2881C60.2343 23.9791 60.292 26.1887 60.5018 28.2223C60.653 29.6876 60.8823 31.0529 61.2267 32.0446C62.9079 36.886 63.8503 41.4502 64.4321 46.0894C65.0109 50.7044 65.2327 55.4119 65.4715 60.5475C65.8829 69.3972 66.4745 76.4044 67.0587 83.3249L67.059 83.3277C67.3831 87.1677 67.705 90.9811 67.9967 95.1398C68.0394 95.7478 67.6552 96.3272 66.9266 96.8543C66.2654 97.3324 65.2947 97.7879 64.0937 98.1941C63.0913 98.533 61.8305 98.4618 60.4756 98.3853L60.4724 98.3851C59.4117 98.3251 58.2901 98.2617 57.2463 98.3964C56.3522 98.5118 55.4417 98.8211 54.533 99.1302C53.2852 99.5545 52.0408 99.9775 50.7291 99.951C49.4454 99.9249 48.2441 99.4061 47.0965 98.9105C46.2138 98.529 45.365 98.1626 44.6043 98.084C43.3063 97.9503 41.985 98.0108 40.7457 98.0675L40.741 98.0677L40.738 98.0679C39.2159 98.1377 37.8134 98.202 36.6518 97.9076C35.481 97.6107 34.5501 97.2102 33.8878 96.7995C33.0053 96.2526 32.5592 95.6324 32.5937 95.1398Z" fill="white"/>
<path d="M32.5937 95.1395C32.8854 90.9794 33.2077 87.1644 33.5319 83.3223C34.1159 76.4029 34.7074 69.3959 35.1191 60.5472C35.3576 55.4114 35.5795 50.7041 36.1582 46.0891C36.74 41.4499 37.6827 36.8858 39.3636 32.0443C39.7081 31.0524 39.9374 29.6873 40.0885 28.2218C40.2984 26.1884 40.3561 23.9788 40.3613 22.2878C40.3463 20.3703 39.9384 18.5644 39.5335 16.7723C38.7266 13.2001 37.9315 9.67988 40.0995 5.248L40.1397 5.16572L40.2064 5.10793C40.2209 5.09534 40.2362 5.08355 40.2524 5.07236C40.2357 4.24446 40.2104 2.09683 40.3888 1.73931C40.4455 1.62592 40.5124 1.53779 40.5844 1.46999C40.7487 1.31511 40.9328 1.26147 41.0942 1.25571C41.2496 1.25013 41.3907 1.29568 41.4679 1.33435C41.5251 1.36299 41.5748 1.39986 41.6093 1.4355C41.8543 1.67601 47.1118 6.82205 50.2952 9.93786C53.4788 6.8217 58.7363 1.67601 58.9811 1.4355C59.0156 1.39986 59.0655 1.36299 59.1227 1.33435V1.33258C59.1984 1.29471 59.3385 1.25003 59.4964 1.25571C59.6575 1.26147 59.8419 1.31501 60.006 1.46999C60.0802 1.53982 60.1479 1.62823 60.2033 1.73931L60.2018 1.74001C60.3799 2.09948 60.355 4.24499 60.3382 5.07236C60.3542 5.08355 60.3694 5.09534 60.3839 5.10793L60.4509 5.16572L60.4911 5.248C62.6588 9.67988 61.8637 13.2003 61.0569 16.7723C60.652 18.5644 60.244 20.3703 60.2291 22.2878C60.2343 23.9788 60.292 26.1884 60.5018 28.2221C60.653 29.6873 60.8823 31.0526 61.2267 32.0443C62.9079 36.8858 63.8503 41.4499 64.4321 46.0891C65.0109 50.7041 65.2327 55.4116 65.4715 60.5472C65.8829 69.3969 66.4745 76.4042 67.0587 83.3246C67.383 87.1656 67.7049 90.9799 67.9967 95.1395C68.0394 95.7475 67.6552 96.3269 66.9266 96.854C66.2654 97.3321 65.2947 97.7877 64.0937 98.1939C63.0905 98.533 61.8285 98.4614 60.4724 98.3848C59.4117 98.3248 58.2901 98.2615 57.2462 98.3961C56.3522 98.5115 55.4417 98.8209 54.533 99.13C53.2852 99.5542 52.0408 99.9772 50.7291 99.9507C49.4454 99.9247 48.2441 99.4058 47.0965 98.9102C46.2138 98.5288 45.365 98.1623 44.6043 98.0837C43.3046 97.9498 41.9817 98.0107 40.741 98.0675C39.2177 98.1373 37.8141 98.2019 36.6518 97.9073C35.481 97.6104 34.5501 97.21 33.8878 96.7992C33.0053 96.2523 32.5592 95.6321 32.5937 95.1395ZM46.3409 18.232C46.0971 18.0403 45.6292 17.6038 45.1886 16.8026C45.1344 16.7037 45.1706 16.5798 45.269 16.5258C45.3677 16.4714 45.4914 16.5075 45.5456 16.6061C46.0052 17.4421 46.4768 17.8313 46.6514 17.9562C47.6246 17.0824 48.4597 16.2502 49.0677 15.644C49.3777 15.3348 49.634 15.0793 49.8388 14.9001C49.4566 14.595 48.9241 14.019 48.2708 13.3122C47.5102 12.4897 46.5697 11.4722 45.5878 10.5092C44.6893 9.62812 43.9739 9.05889 43.3396 8.5542C42.4131 7.81708 41.6535 7.21249 40.726 5.98229C38.902 9.97587 39.6421 13.2539 40.393 16.5786C40.77 18.2473 41.1497 19.9278 41.2276 21.7334C42.4086 21.2118 43.5947 20.4364 44.698 19.5884C44.3515 19.4582 43.8347 19.1962 43.2305 18.6728C43.1455 18.5992 43.1363 18.4705 43.2097 18.3854C43.2832 18.3003 43.4116 18.2911 43.4965 18.3647C44.2639 19.0295 44.8454 19.2287 45.0842 19.2863C45.2566 19.1491 45.4267 19.0104 45.5938 18.8713C45.2176 18.6923 44.2998 18.1987 43.53 17.3282C43.4555 17.2439 43.4635 17.1155 43.5474 17.0409C43.6314 16.9663 43.7598 16.9743 43.8342 17.0584C44.764 18.1094 45.9193 18.5712 45.9225 18.5724C45.9283 18.5747 45.9337 18.5774 45.939 18.5802C46.0751 18.464 46.209 18.3477 46.3409 18.232ZM54.5957 18.5344C54.8942 18.3692 55.7565 17.8618 56.5661 17.0912C56.6475 17.0136 56.7761 17.0168 56.8536 17.0984C56.931 17.1798 56.9278 17.3089 56.8463 17.3865C56.1049 18.0924 55.3193 18.5874 54.9269 18.8147C55.0955 18.9556 55.2671 19.096 55.441 19.2355C55.4487 19.2347 55.4567 19.2345 55.465 19.235C55.4665 19.235 56.006 19.2687 56.8478 18.4846C56.93 18.408 57.0589 18.4125 57.1353 18.4951C57.212 18.5774 57.2073 18.7063 57.1251 18.7832C56.6085 19.2642 56.1666 19.4765 55.8666 19.5696C56.9775 20.4254 58.1725 21.2085 59.3628 21.7341C59.4407 19.928 59.8204 18.2475 60.1973 16.5786C60.9482 13.2539 61.6884 9.97587 59.8644 5.98229C58.9369 7.21256 58.1772 7.81715 57.2507 8.5543C56.6165 9.05897 55.9011 9.62819 55.0026 10.5092C54.0206 11.4721 53.0804 12.4895 52.3198 13.312C51.6656 14.0198 51.1325 14.5965 50.7503 14.9013C50.9549 15.0806 51.2107 15.3356 51.5202 15.6442C52.1089 16.2312 52.9108 17.0299 53.8448 17.8731C54.1997 17.612 55.102 16.9082 55.7412 16.061C55.8089 15.9709 55.9368 15.9531 56.0265 16.0209C56.1162 16.0887 56.1342 16.2169 56.0665 16.3067C55.4365 17.1417 54.5657 17.8418 54.1548 18.1502C54.2992 18.2778 54.446 18.406 54.5957 18.5344ZM50.9259 10.555L52.3675 11.9661C52.9922 11.2957 53.6869 10.5642 54.3848 9.87971C55.3228 8.96005 56.0537 8.37831 56.7019 7.86256C57.6364 7.11878 58.3926 6.51709 59.327 5.2269C59.342 5.20322 59.359 5.18044 59.378 5.15844C59.4027 5.12981 59.4295 5.10445 59.4579 5.08213C59.4747 4.38913 59.5081 2.66738 59.4372 2.22343C58.4907 3.1507 53.845 7.69776 50.9259 10.555ZM48.2229 11.966L49.6647 10.555C46.7453 7.69776 42.0999 3.1507 41.1532 2.22343C41.0825 2.66738 41.1157 4.38913 41.1324 5.08213C41.1609 5.10445 41.1876 5.12981 41.2124 5.15844C41.2313 5.18044 41.2486 5.20322 41.2636 5.2269C42.1978 6.51702 42.9537 7.11878 43.8884 7.86246C44.5366 8.37824 45.2678 8.95995 46.2058 9.87971C46.9037 10.5642 47.5981 11.2957 48.2229 11.966ZM50.2952 11.1721L48.8231 12.6131L48.9163 12.7139C49.7416 13.6068 50.2525 14.2518 50.2952 14.2518C50.3379 14.2518 50.849 13.6066 51.6743 12.7138L51.7675 12.6131L50.2952 11.1721ZM59.349 22.246C56.0982 20.8774 52.8271 17.6173 51.1857 15.9814C50.7491 15.5463 50.4903 15.2297 50.3834 15.1229C50.3516 15.1324 50.3222 15.1374 50.2952 15.1374C50.2675 15.1374 50.2375 15.1321 50.205 15.1221C50.0986 15.2282 49.8396 15.5451 49.4022 15.9811C47.7615 17.6168 44.4917 20.8761 41.2413 22.2453L41.2416 22.2818V22.2853C41.2363 24.0053 41.1779 26.2517 40.9653 28.3119C40.8079 29.8375 40.5651 31.2707 40.1957 32.3349C38.54 37.103 37.6103 41.6094 37.035 46.1963C36.4567 50.808 36.2364 55.484 35.9991 60.5852C35.584 69.511 34.9944 76.4965 34.4122 83.3949C34.0849 87.2712 33.76 91.1203 33.4739 95.1983C33.4614 95.3748 33.7647 95.6857 34.3505 96.0489C34.9407 96.4148 35.7858 96.7757 36.8659 97.0495C37.9086 97.3136 39.2487 97.2523 40.7033 97.1854C41.9752 97.1271 43.3316 97.0648 44.694 97.2055C45.595 97.2983 46.502 97.6898 47.4453 98.0973C48.5186 98.5608 49.6422 99.0461 50.7463 99.0687C51.8994 99.0919 53.0732 98.693 54.2499 98.293C55.1959 97.9714 56.1441 97.649 57.1356 97.5208C58.2657 97.3752 59.4247 97.4407 60.5208 97.5028C61.7905 97.5746 62.9718 97.6415 63.8139 97.3566C64.9325 96.9784 65.8232 96.564 66.412 96.138C66.8836 95.7971 67.1359 95.4764 67.1164 95.1983C66.8304 91.1213 66.5054 87.2727 66.1784 83.3972C65.5962 76.498 65.0064 69.512 64.5912 60.5852C64.3539 55.484 64.1336 50.808 63.5553 46.1963C62.9801 41.6094 62.0503 37.103 60.3947 32.3349C60.0252 31.2707 59.7824 29.8377 59.6251 28.3119C59.4125 26.2517 59.354 24.0053 59.3488 22.2853V22.2818L59.349 22.246Z" fill="#221D1E"/>
</svg>
