<svg width="29" height="29" viewBox="0 0 29 29" fill="none" xmlns="http://www.w3.org/2000/svg">
<g clip-path="url(#clip0)">
<rect width="29" height="29" fill="white"/>
<path d="M22.5421 17.6316C21.9931 17.0484 21.3123 16.7172 20.575 16.6802C19.8437 16.6435 19.1274 16.8992 18.4992 17.4234L16.5337 19.0581C16.3829 18.9736 16.2319 18.8944 16.0868 18.8157C15.8777 18.7061 15.6802 18.6027 15.5128 18.4952C13.8045 17.3752 12.2724 15.9503 10.8257 14.1336C10.1259 13.2292 9.66302 12.4742 9.33746 11.7151C9.84565 11.3279 10.319 10.9224 10.7797 10.5329C10.9538 10.3875 11.1283 10.2367 11.3024 10.0914C12.6089 9.00139 12.6837 7.50853 11.4928 6.29336L9.9447 4.71366C9.76891 4.53427 9.58744 4.3491 9.41788 4.16454C9.07818 3.80637 8.7212 3.43633 8.35122 3.08765C7.80089 2.53186 7.1252 2.21737 6.39981 2.18101C5.67441 2.14465 4.95877 2.3894 4.33778 2.88649C4.33157 2.89168 4.33157 2.89168 4.32534 2.89687L2.2094 4.67809C1.41312 5.34247 0.936156 6.17692 0.79123 7.16556C0.568206 8.76103 1.00473 10.2795 1.34818 11.2761C2.19119 13.7229 3.51867 16.0178 5.54573 18.5074C8.00614 21.5084 11.0259 23.9322 14.5253 25.7087C15.8629 26.3755 17.6528 27.1751 19.6862 27.398C19.8107 27.4098 19.9412 27.4218 20.0602 27.4277C21.4337 27.4966 22.61 27.0989 23.5592 26.2385C23.5656 26.2279 23.5778 26.223 23.5843 26.2123C23.9109 25.8821 24.2832 25.5871 24.6746 25.2711C24.9416 25.0589 25.215 24.836 25.4831 24.6018C26.1 24.066 26.4422 23.4229 26.4761 22.7478C26.5102 22.0672 26.2278 21.3983 25.6547 20.8193L22.5421 17.6316ZM24.381 23.5176C24.375 23.5173 24.3748 23.5228 24.381 23.5176C24.1376 23.7366 23.8893 23.9331 23.622 24.1509C23.2186 24.4717 22.8082 24.8089 22.4195 25.1911C21.7892 25.7537 21.0676 25.9982 20.1401 25.9517C20.051 25.9472 19.9558 25.9425 19.8668 25.9325C18.1062 25.7396 16.497 25.0208 15.2935 24.4157C12.0035 22.7432 9.15546 20.4601 6.83545 17.6311C4.92098 15.2738 3.66987 13.1202 2.88428 10.836C2.39981 9.44158 2.25103 8.36669 2.39056 7.36677C2.48221 6.7276 2.77644 6.20863 3.29278 5.77782L5.41412 4.00787C5.71812 3.77001 6.03418 3.64829 6.33742 3.66349C6.71201 3.68227 7.00479 3.90603 7.18626 4.0912C7.19193 4.09698 7.1976 4.10277 7.20326 4.10855C7.55028 4.43958 7.87891 4.78069 8.22428 5.14463C8.39979 5.32951 8.58126 5.51468 8.76245 5.70532L10.3106 7.28504C10.9117 7.89841 10.8848 8.43627 10.2253 8.98646C10.0449 9.13699 9.87042 9.2878 9.69028 9.43284C9.16717 9.87981 8.6695 10.295 8.13075 10.6972C8.11832 10.7076 8.10614 10.7125 8.09966 10.7232C7.56465 11.1695 7.63668 11.6353 7.72802 11.9536C7.73314 11.9704 7.73826 11.987 7.74339 12.0038C8.11822 12.969 8.66824 13.888 9.51891 14.9925L9.52458 14.9984C11.0721 16.9467 12.7294 18.4878 14.5822 19.6977C14.8189 19.8526 15.0628 19.9803 15.2952 20.1021C15.5042 20.2115 15.7017 20.3149 15.8692 20.4224C15.8924 20.4345 15.9153 20.4522 15.9386 20.4644C16.136 20.5679 16.3241 20.6213 16.5203 20.6311C17.0139 20.6559 17.3373 20.3859 17.4431 20.2977L19.5706 18.5225C19.7822 18.3461 20.1145 18.1371 20.4892 18.1559C20.8578 18.1744 21.1502 18.4037 21.3253 18.5995C21.3309 18.6053 21.3309 18.6053 21.3366 18.6111L24.4611 21.7995C25.0455 22.3899 25.0166 22.9663 24.381 23.5176Z" fill="#221D1E" stroke="#221D1E" stroke-width="0.5"/>
<path d="M15.9992 7.35551C17.5449 7.67508 18.9259 8.42658 20.0033 9.52601C21.0807 10.6254 21.7466 11.9684 21.9421 13.4197C21.9894 13.7852 22.3156 14.0547 22.7021 14.0741C22.7497 14.0764 22.7916 14.0731 22.8394 14.07C23.2826 14.0261 23.5932 13.6565 23.5423 13.2468C23.3084 11.4909 22.496 9.86003 21.1974 8.53493C19.8989 7.20982 18.2218 6.30043 16.3518 5.90958C15.9151 5.82167 15.4914 6.07004 15.394 6.46682C15.2966 6.8636 15.5625 7.26759 15.9992 7.35551Z" fill="#221D1E" stroke="#221D1E" stroke-width="0.5"/>
<path d="M28.6493 13.2883C28.2637 10.3968 26.9316 7.71644 24.7882 5.52915C22.6446 3.34186 19.888 1.85014 16.8088 1.2061C16.3783 1.11299 15.9543 1.36686 15.8569 1.76363C15.7652 2.16621 16.0376 2.55951 16.4739 2.65291C19.223 3.22539 21.6892 4.56499 23.6062 6.51534C25.5228 8.47116 26.7141 10.8693 27.0556 13.4505C27.1028 13.816 27.429 14.0855 27.8155 14.1049C27.8631 14.1073 27.905 14.1038 27.9528 14.1007C28.3899 14.0621 28.7065 13.6928 28.6493 13.2883Z" fill="#221D1E" stroke="#221D1E" stroke-width="0.5"/>
</g>
<defs>
<clipPath id="clip0">
<rect width="29" height="29" fill="white"/>
</clipPath>
</defs>
</svg>
