<svg width="100" height="100" viewBox="0 0 100 100" fill="none" xmlns="http://www.w3.org/2000/svg">
<rect width="100" height="100" fill="white"/>
<path d="M2.98096 50.765V78.4498L50.973 92.1107L96.9998 78.4498V50.765L50.973 63.7818L2.98096 50.765Z" stroke="#221D1E" stroke-width="0.866666" stroke-miterlimit="10"/>
<path d="M5.02051 49.1035L20.1976 44.3075" stroke="#221D1E" stroke-width="0.866666" stroke-miterlimit="10"/>
<path d="M50.9717 63.7809V92.1098" stroke="#221D1E" stroke-width="0.866666" stroke-miterlimit="10"/>
<path d="M77.1343 56.5593V84.3474" stroke="#221D1E" stroke-width="0.866666" stroke-miterlimit="10"/>
<path d="M25.5591 84.3471V56.8855L36.357 21.5673L60.0114 12.2738" stroke="#221D1E" stroke-width="0.866666" stroke-miterlimit="10"/>
<path d="M9.146 74.5126L15.9392 76.6121V68.6059L9.146 66.2733V71.9839" stroke="#221D1E" stroke-width="0.866666" stroke-miterlimit="10"/>
<path d="M92.9292 63.7809L84.6665 66.2723" stroke="#221D1E" stroke-width="0.866666" stroke-miterlimit="10"/>
<path d="M92.7319 71.8531L84.46 74.3446" stroke="#221D1E" stroke-width="0.866666" stroke-miterlimit="10"/>
<path d="M23.2188 45.3534L50.9717 53.3501L78.9861 44.3081V17.9107L49.989 9.29797L23.2188 17.9107V45.3534Z" stroke="#221D1E" stroke-width="0.866666" stroke-miterlimit="10"/>
<path d="M23.2188 17.9099L51.1027 25.6639L78.9861 17.9099" stroke="#221D1E" stroke-width="0.866666" stroke-miterlimit="10"/>
<path d="M50.9717 53.3497V26.8961" stroke="#221D1E" stroke-width="0.866666" stroke-miterlimit="10"/>
<path d="M77.1348 56.5592L65.0455 21.7917L38.9209 12.8617" stroke="#221D1E" stroke-width="0.866666" stroke-miterlimit="10"/>
<path d="M46.7804 46.7056L36.5439 43.505" stroke="#221D1E" stroke-width="0.866666" stroke-miterlimit="10"/>
<path d="M46.781 40.1269L40.6147 38.4658" stroke="#221D1E" stroke-width="0.866666" stroke-miterlimit="10"/>
<path d="M96.9994 50.765L81.0835 46.7059" stroke="#221D1E" stroke-width="0.866666" stroke-miterlimit="10"/>
</svg>
