<svg width="63" height="18" viewBox="0 0 63 18" fill="none" xmlns="http://www.w3.org/2000/svg">
<rect y="0.210938" width="62.995" height="17.58" rx="1.67" fill="black"/>
<g clip-path="url(#clip0_3067_10616)">
<path d="M14.961 5.33789H13.7388V11.5356H14.961V5.33789Z" fill="white"/>
<path d="M12.3348 5.6847H11.1126V11.8823H12.3348V5.6847Z" fill="white"/>
<path d="M9.70869 6.07187H8.4865V12.2707H9.70869V6.07187Z" fill="white"/>
<path d="M7.08254 6.46335H5.86035L5.86036 12.6629H7.08255L7.08254 6.46335Z" fill="white"/>
<path d="M47.2406 8.63962L45.2727 6.45164H44.1222V11.5176H45.3234V8.28541L47.12 10.2004H47.342L49.1078 8.28541V11.5176H50.309V6.45164H49.1585L47.2406 8.63962Z" fill="white"/>
<path d="M56.0316 6.45164L53.0544 9.74432V6.45164H51.8532V11.5176H52.9537L55.9309 8.2249V11.5176H57.132V6.45164H56.0316Z" fill="white"/>
<path d="M37.6524 8.30534C37.6524 9.1119 38.0934 9.74727 38.7705 10.0137L37.5009 11.5176H38.9712L40.126 10.1494H41.3757V11.5176H42.5769V6.45164H39.5188C38.3787 6.45164 37.6524 7.23164 37.6524 8.30534ZM41.3765 7.5674V9.06541H39.7416C39.1961 9.06541 38.9035 8.76138 38.9035 8.31567C38.9035 7.86995 39.2064 7.56592 39.7416 7.56592L41.3765 7.5674Z" fill="white"/>
<path d="M32.0706 7.46483C31.9971 9.2071 31.6295 10.3317 30.9098 10.3317H30.7297V11.5478L30.9216 11.5582C32.3646 11.6386 33.1622 10.3723 33.2931 7.60651H35.1911V11.5176H36.3901V6.45164H32.111L32.0706 7.46483Z" fill="white"/>
<path d="M27.549 6.38086C25.9243 6.38086 24.7555 7.50548 24.7555 8.9843C24.7555 10.514 26.0273 11.5988 27.549 11.5988C29.1339 11.5988 30.3652 10.4535 30.3652 8.9843C30.3652 7.51507 29.1339 6.38086 27.549 6.38086ZM27.549 10.3827C26.6308 10.3827 26.0052 9.78497 26.0052 8.9843C26.0052 8.16372 26.6315 7.58222 27.549 7.58222C28.4664 7.58222 29.1133 8.19028 29.1133 8.9843C29.1133 9.77832 28.4576 10.3827 27.549 10.3827Z" fill="white"/>
<path d="M23.4816 6.46119H19.2422L19.2018 7.47438C19.1415 8.93402 18.7607 10.3221 18.041 10.342L17.708 10.3523V12.6626L18.9195 12.6602V11.5183H23.128V12.6602H24.3498V10.342H23.4816V6.46119ZM22.2804 10.342H19.7171C20.1508 9.68377 20.3831 8.73109 20.4235 7.61681H22.2804V10.342Z" fill="white"/>
</g>
<defs>
<clipPath id="clip0_3067_10616">
<rect width="51.275" height="7.325" fill="white" transform="translate(5.86035 5.33789)"/>
</clipPath>
</defs>
</svg>
