<svg width="100" height="100" viewBox="0 0 100 100" fill="none" xmlns="http://www.w3.org/2000/svg">
<rect width="99.9979" height="100" fill="white"/>
<path d="M34.2957 78.64H32.4112L28.6422 91.04H71.3579L67.5888 78.64H34.2957ZM34.2957 78.64C35.1333 78.02 36.1802 76.16 39.9493 76.16C42.5117 76.16 45 73.5 44.9746 72.44V58.8H55.0254V72.44C55.0254 73.5 57.4883 76.16 60.0508 76.16C63.8198 76.16 64.8668 78.02 65.7043 78.64M24.8731 9.2H75.1269M24.8731 9.2L26.1923 16.64M24.8731 9.2C23.4854 9.2 22.3604 8.08967 22.3604 6.72V5.48C22.3604 4.11033 23.4854 3 24.8731 3H75.1269C76.5146 3 77.6396 4.11033 77.6396 5.48V6.72C77.6396 8.08967 76.5146 9.2 75.1269 9.2M75.1269 9.2L68.1521 48.5375C67.1001 54.471 61.8798 58.8 55.7767 58.8H44.2233C38.1202 58.8 32.9 54.471 31.8479 48.5375L30.9193 43.3M26.1923 16.64C24.2868 14.3667 18.779 10.1377 14.1942 14.16C8.54061 19.12 15.4505 27.8 16.7069 29.04C17.712 30.032 26.6006 38.96 30.9193 43.3M26.1923 16.64L30.9193 43.3M73.8077 16.64C75.7132 14.3667 81.221 10.1377 85.8058 14.16C91.4594 19.12 84.5495 27.8 83.2931 29.04C82.288 30.032 73.3994 38.96 69.0807 43.3M47.4873 54.46C41.3842 54.46 36.164 50.131 35.1119 44.1975M31.4532 18.5L34.2957 39.58M77.6396 96V93.04C77.6396 91.9354 76.7442 91.04 75.6396 91.04H24.3604C23.2559 91.04 22.3604 91.9354 22.3604 93.04V96H77.6396Z" stroke="#221D1E" stroke-linecap="round" stroke-linejoin="round"/>
</svg>
