<svg width="100" height="100" viewBox="0 0 100 100" fill="none" xmlns="http://www.w3.org/2000/svg">
<rect width="100" height="100" fill="white"/>
<path d="M87.4317 66.8126C93.3064 61.8192 96.9998 54.5955 96.9998 46.5585C96.9998 31.4954 84.0281 19.2849 68.026 19.2849C52.0237 19.2849 39.0522 31.4954 39.0522 46.5585C39.0522 61.6213 52.0237 73.8317 68.026 73.8317C72.2652 73.8317 76.2891 72.9735 79.9175 71.4357L91.6037 76.7163L87.4317 66.8126Z" stroke="#221D1E" stroke-width="0.866666" stroke-miterlimit="10"/>
<path d="M38.0667 59.1796C34.512 61.3938 30.2472 62.683 25.6672 62.683C22.373 62.683 19.2458 62.0161 16.4273 60.8195L7.34804 64.9196L10.5908 57.2238C6.02388 53.3473 3.15381 47.7347 3.15381 41.4906C3.15381 29.7877 13.2327 20.3018 25.664 20.3018C32.4553 20.3018 38.5424 23.1319 42.6691 27.6083" stroke="#221D1E" stroke-width="0.866666" stroke-miterlimit="10"/>
<path d="M58.8862 40.1415C58.8862 35.1705 63.2219 31.2045 68.3449 31.7693C72.2754 32.2031 75.4252 35.3716 75.814 39.2801C76.1836 42.9653 74.1556 46.2261 71.0959 47.7127C69.6531 48.4147 68.8238 49.9496 69.1322 51.513L69.5597 53.6794" stroke="#221D1E" stroke-width="0.933334" stroke-miterlimit="10" stroke-linecap="round"/>
<path d="M71.2183 59.3173L71.3889 60.1182" stroke="#221D1E" stroke-width="0.933334" stroke-miterlimit="10" stroke-linecap="round"/>
<path d="M16.7773 34.8706L34.9263 38.7345" stroke="#221D1E" stroke-width="0.866666" stroke-miterlimit="10" stroke-linecap="round"/>
<path d="M15.7271 39.7396L33.876 43.6035" stroke="#221D1E" stroke-width="0.866666" stroke-miterlimit="10" stroke-linecap="round"/>
<path d="M14.6729 44.6088L32.825 48.4726" stroke="#221D1E" stroke-width="0.866666" stroke-miterlimit="10" stroke-linecap="round"/>
</svg>
