<svg width="100" height="100" viewBox="0 0 100 100" fill="none" xmlns="http://www.w3.org/2000/svg">
<rect width="100" height="100" fill="white"/>
<path d="M98.0728 53.1464V81.5348L48.861 95.5429L1.66462 81.5348V53.1464L48.861 66.494L98.0728 53.1464Z" stroke="#221D1E" stroke-width="0.988191" stroke-miterlimit="10"/>
<path d="M95.981 51.443L80.4182 46.5251" stroke="#221D1E" stroke-width="0.988191" stroke-miterlimit="10"/>
<path d="M48.8628 66.4939V95.5428" stroke="#221D1E" stroke-width="0.988191" stroke-miterlimit="10"/>
<path d="M76.52 87.5819V59.4224L65.4477 23.2067L53.5446 18.3162" stroke="#221D1E" stroke-width="0.988191" stroke-miterlimit="10"/>
<path d="M73.5552 88.5437V59.4225L62.438 23.8172L51.0738 19.3045" stroke="#221D1E" stroke-width="0.988191" stroke-miterlimit="10"/>
<path d="M77.3208 47.5965L48.8626 55.7963L20.1362 46.5246V19.4563L49.8702 10.6248L77.3208 19.4563V47.5965Z" stroke="#221D1E" stroke-width="0.988191" stroke-miterlimit="10"/>
<path d="M77.3208 19.4568L48.7282 27.4078L20.1362 19.4568" stroke="#221D1E" stroke-width="0.988191" stroke-miterlimit="10"/>
<path d="M48.8628 55.797V28.6711" stroke="#221D1E" stroke-width="0.988191" stroke-miterlimit="10"/>
<path d="M20.0586 58.4039V87.5823" stroke="#221D1E" stroke-width="0.988191" stroke-miterlimit="10"/>
<path d="M20.0582 59.0876L32.4547 23.4366L60.4619 13.9349" stroke="#221D1E" stroke-width="0.988191" stroke-miterlimit="10"/>
<path d="M23.0229 58.8984V88.5708" stroke="#221D1E" stroke-width="0.988191" stroke-miterlimit="10"/>
<path d="M23.0226 60.0764L35.4191 24.4254L63.9204 14.9237" stroke="#221D1E" stroke-width="0.988191" stroke-miterlimit="10"/>
<path d="M1.66501 53.1463L17.9854 48.9841" stroke="#221D1E" stroke-width="0.988191" stroke-miterlimit="10"/>
<path d="M68.4304 4.38787C65.1585 0.0253561 56.5238 6.85171 51.107 12.3708L51.1069 15.7973C52.64 17.637 57.3618 21.3163 63.9847 21.3163C70.6076 21.3163 69.1972 14.9259 67.6641 12.3708C68.7884 11.1443 71.5083 8.49168 68.4304 4.38787Z" fill="white" stroke="#221D1E" stroke-width="0.988191"/>
<path d="M32.0067 4.38787C35.2786 0.0253561 43.9132 6.85171 49.3301 12.3708V16.1865C47.797 18.0261 43.0752 21.7055 36.4523 21.7055C29.8295 21.7055 31.2399 14.9259 32.773 12.3708C31.6487 11.1443 28.9287 8.49168 32.0067 4.38787Z" fill="white" stroke="#221D1E" stroke-width="0.988191"/>
<path d="M54.5328 13.8698C54.5328 15.6827 52.6505 17.3284 50.086 17.3284C47.5215 17.3284 45.6391 15.6827 45.6391 13.8698C45.6391 12.0568 47.5215 10.4111 50.086 10.4111C52.6505 10.4111 54.5328 12.0568 54.5328 13.8698Z" fill="white" stroke="#221D1E" stroke-width="0.988191"/>
<path d="M54.0908 13.5964C55.7261 13.2897 59.7938 12.1246 61.7562 9.91699" stroke="#221D1E" stroke-width="0.988191"/>
<path d="M54.397 15.4363C55.5212 15.743 58.199 16.1722 59.916 15.4363" stroke="#221D1E" stroke-width="0.988191"/>
<path d="M45.8119 15.1297C44.8921 15.6407 42.2552 16.5401 39.0664 16.0495" stroke="#221D1E" stroke-width="0.988191"/>
<path d="M46.1186 13.597C44.5855 13.4948 41.1514 12.7385 39.6797 10.5309" stroke="#221D1E" stroke-width="0.988191"/>
</svg>
