<svg width="100" height="101" viewBox="0 0 100 101" fill="none" xmlns="http://www.w3.org/2000/svg">
<rect width="99.9979" height="100" transform="translate(0 0.625)" fill="white"/>
<path d="M53.7638 73.305C52.9486 73.7253 52.0313 74.1084 51.0013 74.4442C42.1992 77.3138 38.1594 74.1089 40.1681 71.8582C41.8513 69.9721 44.6682 70.5251 45.8143 71.6411C46.4994 72.3082 44.7535 73.1042 44.1216 72.3253C43.6825 71.7839 43.6064 68.3964 47.4257 68.0336C50.9585 67.6979 49.7328 75.3251 43.6663 79.654" stroke="#221D1E" stroke-width="0.814001" stroke-linecap="round" stroke-linejoin="round"/>
<path d="M32.4981 46.3385C28.4671 45.0261 26.3757 46.8071 25.2959 47.462C23.7743 48.3862 20.9614 50.6662 17.8469 53.4027C14.964 55.9358 11.8227 58.8599 9.20761 61.4622C6.22653 64.4286 4.86641 65.8631 3.02434 67.9544C-1.25527 72.8133 6.16174 73.0908 13.4582 75.2585C23.4245 78.2195 32.0244 80.0408 46.4928 84.1201C52.483 85.8089 57.1584 85.1717 60.9133 80.816C63.9172 77.3315 73.7348 66.6259 76.5942 62.5624C77.6359 61.0822 77.9207 60.2703 77.1306 59.1333" stroke="#221D1E" stroke-width="0.814001"/>
<path d="M41.1921 79.6751C35.5448 78.5937 35.9353 73.0164 37.2871 70.363C42.1064 63.3035 52.5623 63.6134 53.9588 70.363C55.1282 76.0149 48.2513 81.0268 41.1921 79.6751Z" stroke="#221D1E" stroke-width="0.814001"/>
<path d="M44.0372 15.7986C35.8506 15.8733 34.7993 16.3958 33.3091 17.8272C31.462 19.6015 32.3643 23.987 32.4231 30.4339C32.4693 35.4977 32.6341 38.974 32.6758 43.5483C32.7073 47.0006 32.8046 50.1779 32.8699 52.2781C33.1128 60.0956 36.9619 59.5517 43.4058 59.4929L81.8508 59.1423C94.3808 59.028 92.93 56.7934 92.8648 49.6436C92.8351 46.3858 92.7674 38.6499 92.6936 30.9752C92.69 30.6084 92.687 30.2444 92.6846 29.8843C92.6611 26.3783 92.6226 23.1982 92.6035 21.1014C92.5414 14.2901 86.0863 15.4151 81.4524 15.4574L44.0372 15.7986Z" stroke="#221D1E" stroke-width="0.814001"/>
<path d="M38.7354 22.3207C38.7354 22.3207 55.4023 22.1687 65.6242 22.0754M38.7679 25.9414C48.642 25.8514 52.6122 25.8152 66.5223 25.6883M38.8007 29.4847C38.8007 29.4847 55.4676 29.3327 65.6896 29.2395M38.8332 33.1055C48.7074 33.0154 52.6775 32.9792 66.5876 32.8524M77.0527 21.9712L86.3367 21.8865M80.6839 32.7238L86.435 32.6714" stroke="#221D1E" stroke-width="0.520961" stroke-linecap="round" stroke-linejoin="round" stroke-dasharray="1.03 1.03"/>
<path d="M66.7838 42.1013C68.3768 37.8956 72.5606 36.4651 76.4546 37.0804C78.3748 37.3839 80.4512 38.265 81.5042 39.6083C81.7674 39.9439 82.0012 40.3092 82.2077 40.6929C83.1258 42.3985 83.5041 44.4676 83.5173 45.9134C83.5277 47.0525 83.0315 49.399 81.4398 51.2978C80.0748 52.926 77.9043 54.225 74.5568 54.1509C67.3057 53.9905 64.7472 47.4781 66.7838 42.1013Z" stroke="#221D1E" stroke-width="0.814001"/>
<path d="M83.0033 48.0645C82.2181 48.4174 81.3325 48.6999 80.3355 48.8966C71.8161 50.5771 67.7923 45.5735 69.6963 43.152C71.2919 41.1228 74.0553 42.464 75.2021 44.1475C75.8876 45.1539 74.2034 45.7769 73.5671 44.6397C73.1248 43.8494 72.9654 39.5062 76.6842 39.9038C80.1241 40.2716 79.1196 49.7356 73.307 53.8963" stroke="#221D1E" stroke-width="0.814001" stroke-linecap="round" stroke-linejoin="round"/>
<path d="M32.5477 39.6255C32.5477 39.6255 57.4274 39.3986 63.4777 39.3434M32.6602 51.9935C38.5046 51.9402 49.6867 51.8382 57.92 51.7631M81.4754 50.8682L88.7114 50.8022M81.5399 39.1787L92.8092 39.0759" stroke="#221D1E" stroke-width="0.431421" stroke-linecap="round" stroke-linejoin="round"/>
<path d="M12.8055 58.0295L29.5524 62.3846M5.26595 65.9558L30.3033 72.5979M54.0755 69.0075L67.7636 72.5979M50.7404 77.8004L61.1403 80.4668" stroke="#221D1E" stroke-width="0.431421" stroke-linecap="round" stroke-linejoin="round"/>
</svg>
