<svg width="100" height="100" viewBox="0 0 100 100" fill="none" xmlns="http://www.w3.org/2000/svg">
<rect width="100" height="100" transform="matrix(-1 0 0 1 100 0)" fill="white"/>
<path d="M5.66284 71.442L96.0886 70.8344C96.0886 70.8344 96.7975 71.5433 96.7975 74.3786C96.7975 77.2139 94.5697 78.834 94.5697 78.834L5.66284 79.2391C5.66284 79.2391 3.94141 77.7202 3.94141 75.0874C3.94141 72.4546 5.66284 71.442 5.66284 71.442Z" fill="white"/>
<path d="M6.16914 63.5436L95.3798 63.0373C95.3798 63.0373 97 64.9182 97 66.4802C97 68.0422 96.0886 70.8344 96.0886 70.8344L5.66284 71.442C5.66284 71.442 4.44096 68.5054 4.75149 66.1764C4.78084 65.9563 4.81731 65.7543 4.85928 65.5689C5.26142 63.7927 6.16914 63.5436 6.16914 63.5436Z" fill="white"/>
<path d="M6.16914 63.5436L95.3798 63.0373C94.6507 62.2273 91.0256 59.8645 89.3042 58.7844C63.0439 58.5481 10.0778 58.2781 8.29562 59.0882C6.51343 59.8983 5.26215 63.7462 4.85928 65.5689C5.26142 63.7927 6.16914 63.5436 6.16914 63.5436Z" fill="white"/>
<path d="M5.66284 71.442L96.0886 70.8345M5.66284 71.442C5.66284 71.442 3.94141 72.4546 3.94141 75.0874C3.94141 77.7202 5.66284 79.2391 5.66284 79.2391L94.5697 78.834C94.5697 78.834 96.7975 77.2139 96.7975 74.3786C96.7975 71.5433 96.0886 70.8345 96.0886 70.8345M5.66284 71.442C5.66284 71.442 4.44096 68.5054 4.75149 66.1764C4.78084 65.9563 4.81731 65.7543 4.85928 65.5689M96.0886 70.8345C96.0886 70.8345 97 68.0422 97 66.4802C97 64.9182 95.3798 63.0373 95.3798 63.0373M95.3798 63.0373L6.16914 63.5436C6.16914 63.5436 5.26142 63.7927 4.85928 65.5689M95.3798 63.0373C94.6507 62.2273 91.0256 59.8645 89.3042 58.7844C63.0439 58.5481 10.0778 58.2781 8.29562 59.0882C6.51343 59.8983 5.26215 63.7462 4.85928 65.5689" stroke="#221D1E" stroke-width="0.80369" stroke-linejoin="round"/>
<path d="M7.28308 58.2781C6.63501 57.549 4.5828 56.4216 3.6377 55.9491C4.27901 55.5103 5.35913 54.5112 6.16921 54.0251C7.18182 53.4175 8.94617 51.3161 10.1184 49.8734C11.4348 48.2532 15.1814 45.5192 16.7003 45.0129C18.2192 44.5066 82.0135 46.0255 82.4185 46.0255C82.8236 46.0255 87.4816 49.2658 88.798 50.1772C89.7399 50.8293 94.0635 54.0251 94.9749 54.3289C95.7039 54.5719 96.4263 55.6115 96.2912 55.9491C95.8524 55.9491 94.2458 56.1111 92.9496 56.7591C91.3295 57.5692 91.4307 57.5692 87.7853 59.8982C83.4311 62.6801 72.5962 63.7461 69.2546 63.7461C66.9256 63.7461 49.5088 63.6449 45.0533 63.7461C40.5979 63.8474 18.4218 63.3411 16.5991 63.0373C14.7764 62.7335 8.09317 59.1894 7.28308 58.2781Z" fill="white" stroke="#221D1E" stroke-width="0.80369" stroke-linejoin="round"/>
<path d="M3.84033 55.9491C4.4479 55.7466 6.06807 55.4023 7.68824 55.6453C9.71345 55.9491 27.5353 56.5566 29.8643 55.9491C32.1933 55.3416 56.5972 55.9491 57.5085 55.9491C58.4199 55.9491 70.4699 56.2529 71.5837 55.9491C72.6976 55.6453 87.988 56.5567 89.0006 56.2529C90.0132 55.9491 91.0258 55.4428 92.3422 55.5441C93.3953 55.6251 95.4813 55.8479 96.3926 55.9491" stroke="#221D1E" stroke-width="0.80369" stroke-linejoin="round" stroke-dasharray="1.24 1.24"/>
<path d="M6.47313 38.9373C6.06808 38.5323 5.39301 38.0935 5.15674 37.8234C5.39301 37.4521 7.14145 35.8387 11.4349 32.3553C16.8017 28.0011 20.5187 26.7338 27.2316 24.862C37.7627 21.9255 68.3434 23.5456 72.9002 24.3557C76.7935 25.0479 82.1149 27.5607 84.3426 29.115C86.9349 30.9236 89.9119 33.773 90.5195 34.3806C91.1271 34.9881 94.4687 36.6083 94.975 36.9121C95.4813 37.2158 96.3926 37.2158 95.9876 37.9247C95.5826 38.6335 90.0132 42.4814 86.4691 44.6079C82.925 46.7344 73.5077 46.9369 71.9888 46.9369C70.4699 46.9369 41.6106 46.8356 36.2438 46.9369C30.877 47.0381 18.8269 46.1268 17.2068 45.9243C15.5866 45.7217 9.40969 40.9625 9.10591 40.4562C8.80212 39.9499 6.97943 39.4436 6.47313 38.9373Z" fill="white" stroke="#221D1E" stroke-width="0.80369" stroke-linejoin="round"/>
<path d="M5.25781 37.8237C22.6071 37.8912 58.0956 37.9857 61.255 37.8237C65.2042 37.6211 71.9886 37.8237 74.7227 37.8237C77.4567 37.8237 85.6588 37.8237 88.0891 37.8237C90.0333 37.8237 94.2997 37.8237 96.1899 37.8237" stroke="#221D1E" stroke-width="0.80369" stroke-linejoin="round" stroke-dasharray="1.24 1.24"/>
<path d="M31.3831 21.1155L75.229 21.318C75.229 21.318 75.5328 22.232 75.5328 22.8369C75.5328 23.4418 75.229 24.3558 75.229 24.3558L74.5202 24.3494L30.6743 23.9508C30.6743 23.9508 30.5359 22.8447 30.6743 22.3306C30.8127 21.8165 31.3831 21.1155 31.3831 21.1155Z" fill="white"/>
<path d="M30.6743 23.9508C33.3408 24.8284 39.1802 27.7177 41.2054 32.2542C42.0155 32.1191 45.2558 31.039 47.8886 30.0264C50.595 28.9855 59.9386 23.647 74.7227 25.976L74.5202 24.3494L30.6743 23.9508Z" fill="white"/>
<path d="M30.6743 23.9508C30.6743 23.9508 30.5359 22.8447 30.6743 22.3306C30.8127 21.8165 31.3831 21.1155 31.3831 21.1155L75.229 21.318C75.229 21.318 75.5328 22.232 75.5328 22.8369C75.5328 23.4418 75.229 24.3558 75.229 24.3558L74.5202 24.3494M30.6743 23.9508C33.3408 24.8284 39.1802 27.7177 41.2054 32.2542C42.0155 32.1191 45.2558 31.039 47.8886 30.0264C50.595 28.9855 59.9386 23.647 74.7227 25.976L74.5202 24.3494M30.6743 23.9508L74.5202 24.3494" stroke="#221D1E" stroke-width="0.80369" stroke-linejoin="round"/>
</svg>
