<svg width="27" height="25" viewBox="0 0 27 25" fill="none" xmlns="http://www.w3.org/2000/svg">
    <path d="M20.8829 15.587C20.3622 15.0866 19.7343 14.819 19.0687 14.819C18.4085 14.819 17.7751 15.0816 17.233 15.582L15.537 17.1426C15.3974 17.0733 15.2578 17.0088 15.1237 16.9445C14.9305 16.8553 14.748 16.7711 14.5923 16.6818C13.0036 15.7504 11.5597 14.5366 10.175 12.966C9.50407 12.1832 9.05322 11.5243 8.7258 10.8555C9.16592 10.4839 9.57384 10.0974 9.97107 9.72579C10.1213 9.58707 10.2716 9.44339 10.4219 9.30467C11.5491 8.26423 11.5491 6.91661 10.4219 5.87616L8.9566 4.5236C8.79021 4.37 8.61846 4.21146 8.45744 4.05292C8.1354 3.74575 7.79726 3.42865 7.44838 3.13139C6.92775 2.65576 6.30513 2.40308 5.65032 2.40308C4.99549 2.40308 4.36215 2.65576 3.82541 3.13139C3.82005 3.13634 3.82005 3.13634 3.81468 3.14129L1.98979 4.84068C1.30276 5.47486 0.910941 6.24776 0.825063 7.14452C0.696249 8.59122 1.15785 9.93884 1.51209 10.8207C2.3816 12.9859 3.6805 14.9924 5.61811 17.1426C7.96901 19.7338 10.7976 21.78 14.0288 23.2218C15.2632 23.7618 16.911 24.401 18.752 24.5099C18.8647 24.5149 18.9828 24.5198 19.0902 24.5198C20.33 24.5198 21.3713 24.1086 22.1872 23.2911C22.1924 23.2812 22.2032 23.2763 22.2086 23.2664C22.4877 22.9543 22.8097 22.6719 23.1479 22.3696C23.3787 22.1665 23.6148 21.9535 23.8456 21.7305C24.377 21.2202 24.6561 20.6257 24.6561 20.0162C24.6561 19.4019 24.3717 18.8123 23.8295 18.3169L20.8829 15.587ZM22.8043 20.804C22.799 20.804 22.799 20.809 22.8043 20.804C22.595 21.0121 22.3803 21.2003 22.1495 21.4085C21.8007 21.7156 21.4464 22.0377 21.1137 22.3994C20.5715 22.9344 19.9328 23.1872 19.0956 23.1872C19.0151 23.1872 18.9292 23.1872 18.8486 23.1822C17.2546 23.088 15.7731 22.5133 14.6621 22.0228C11.6242 20.6653 8.9566 18.738 6.73988 16.2954C4.90962 14.2592 3.68587 12.3764 2.87539 10.3551C2.37623 9.12135 2.19374 8.16018 2.27425 7.25352C2.32793 6.67384 2.56945 6.19326 3.01494 5.78203L4.84521 4.09255C5.10821 3.86465 5.38731 3.74079 5.66105 3.74079C5.99919 3.74079 6.27292 3.92906 6.44468 4.0876C6.45005 4.09255 6.45542 4.09751 6.46078 4.10246C6.78819 4.38487 7.09949 4.67719 7.42691 4.98931C7.59329 5.14786 7.76505 5.30641 7.9368 5.4699L9.40209 6.82247C9.97107 7.34765 9.97107 7.83318 9.40209 8.35836C9.24644 8.50204 9.09616 8.64572 8.9405 8.78444C8.48964 9.21053 8.06025 9.60689 7.59329 9.99334C7.58256 10.0032 7.57182 10.0082 7.56646 10.0181C7.10486 10.4442 7.19074 10.8603 7.28736 11.1428C7.29272 11.1577 7.29809 11.1725 7.30346 11.1873C7.68454 12.0395 8.22128 12.8422 9.03711 13.7984L9.04248 13.8034C10.5239 15.4879 12.0857 16.8008 13.8087 17.8066C14.0288 17.9354 14.2542 18.0394 14.4689 18.1385C14.6621 18.2277 14.8446 18.3119 15.0002 18.4011C15.0217 18.411 15.0432 18.4258 15.0647 18.4358C15.2471 18.52 15.4188 18.5596 15.596 18.5596C16.0415 18.5596 16.3206 18.302 16.4118 18.2178L18.2474 16.5233C18.43 16.3549 18.7198 16.1517 19.058 16.1517C19.3908 16.1517 19.6644 16.345 19.8309 16.5134C19.8362 16.5184 19.8362 16.5184 19.8416 16.5233L22.799 19.2533C23.3518 19.7586 23.3518 20.2788 22.8043 20.804Z" fill="#221D1E" stroke="#221D1E" stroke-width="0.5"/>
    <path d="M14.5276 6.62897C15.9339 6.84696 17.2113 7.46132 18.231 8.40267C19.2508 9.34403 19.911 10.5232 20.1525 11.8213C20.2116 12.1482 20.5176 12.3761 20.8665 12.3761C20.9094 12.3761 20.947 12.3712 20.9899 12.3663C21.387 12.3068 21.65 11.9599 21.5857 11.5934C21.2958 10.0228 20.4907 8.59094 19.2616 7.45636C18.0325 6.32179 16.4813 5.57862 14.7799 5.31108C14.3827 5.25163 14.0124 5.49439 13.9425 5.85607C13.8728 6.21775 14.1304 6.56951 14.5276 6.62897Z" fill="#221D1E" stroke="#221D1E" stroke-width="0.5"/>
    <path d="M26.1862 11.4003C25.7085 8.81408 24.388 6.4607 22.3592 4.58791C20.3303 2.71511 17.7809 1.49631 14.9791 1.05536C14.5873 0.990955 14.217 1.23868 14.1471 1.60035C14.0828 1.96699 14.3458 2.30884 14.7429 2.37325C17.2441 2.76466 19.5253 3.8596 21.3395 5.52926C23.1536 7.20387 24.3344 9.30952 24.7584 11.6184C24.8174 11.9453 25.1234 12.1732 25.4723 12.1732C25.5152 12.1732 25.5528 12.1682 25.5957 12.1633C25.9875 12.1088 26.2559 11.7619 26.1862 11.4003Z" fill="#221D1E" stroke="#221D1E" stroke-width="0.5"/>
</svg>
