<svg width="101" height="100" viewBox="0 0 101 100" fill="none" xmlns="http://www.w3.org/2000/svg">
<rect width="100" height="100" transform="translate(0.375)" fill="white"/>
<path d="M92.5704 57.5001C93.8338 58.9294 94.9958 60.2581 95.938 61.4694C97.762 63.814 96.764 65.5256 96.346 66.8921C95.2987 70.3201 94.7334 69.1974 82.3474 69.3161C76.8754 69.3681 66.8466 69.4461 52.5183 72.8327C39.9889 75.7947 31.547 79.7367 31.547 79.7367C29.2024 80.7787 24.2969 84.4821 19.9984 84.0914C14.6579 83.7001 12.9216 78.5174 12.9216 78.5174L10.1862 72.0047C10.1862 72.0047 3.79709 57.0471 3.547 54.9617C3.26639 52.6233 3.33505 49.7677 6.375 48.2422" stroke="#221D1E" stroke-width="0.866667" stroke-miterlimit="10"/>
<path d="M4.34863 49.5624C4.59873 51.6478 11.0211 67.3072 11.0211 67.3072L13.7565 73.8199C13.7565 73.8199 15.4928 79.0032 20.8333 79.3939C25.1318 79.7846 30.0373 76.0812 32.3819 75.0392C32.3819 75.0392 40.8239 71.0979 53.3533 68.1359C67.6815 64.7491 77.7101 64.671 83.1821 64.6189C95.5681 64.5004 95.8277 65.9285 96.875 62.5001" stroke="#221D1E" stroke-width="0.333333" stroke-miterlimit="10" stroke-dasharray="0.81 0.81"/>
<path d="M14.0414 67.3904C15.4755 72.3724 21.6145 73.753 25.6343 71.1677C26.025 70.907 33.7102 66.3482 42.0466 64.0036C50.3831 61.659 64.06 58.4025 75.3923 57.8815C86.7249 57.3604 93.2376 57.8815 95.1916 57.2302C100.743 54.7254 94.6769 38.5188 88.0276 38.343C85.1189 33.6511 84.8036 34.9029 83.9896 30.267C83.2336 25.8618 82.0656 22.7356 78.5196 19.586C76.8263 18.8044 75.1329 18.5439 73.4396 18.8044C62.0801 21.5086 61.4547 25.8408 42.8319 28.3132C32.3249 29.7081 26.1566 28.3132 23.5515 28.3132C20.9463 28.3132 11.8283 27.6619 8.57194 29.225C3.5935 31.8132 4.41151 37.6369 4.27344 41.469C4.64858 45.2283 14.0414 67.3904 14.0414 67.3904Z" stroke="#221D1E" stroke-width="0.866667" stroke-miterlimit="10"/>
<path d="M13.2621 59.7053C13.2621 59.7053 16.3883 52.1504 24.0735 49.9361C31.7587 47.7217 34.6243 46.6796 35.4058 43.1627C36.1874 39.6457 32.0661 36.4167 26.8089 35.4775C23.1617 34.8263 15.7371 33.7842 12.0899 36.9103C10.0605 38.6493 7.9216 42.9022 7.66113 46.4191L13.2621 59.7053Z" stroke="#221D1E" stroke-width="0.866667" stroke-miterlimit="10"/>
<path d="M88.0293 38.3432C88.0293 38.3432 82.428 38.0827 76.5667 38.7339C70.7053 39.3852 64.7133 35.217 65.4948 31.0488C66.2763 26.8806 71.096 26.2293 73.9613 25.8385C76.8273 25.4477 79.9387 25.5103 83.2033 26.7816" stroke="#221D1E" stroke-width="0.866667" stroke-miterlimit="10"/>
<path opacity="0.06" d="M21.9867 72.4033C21.9867 72.4033 24.0448 72.2132 25.8384 71.1126C27.632 70.0119 30.4208 68.6533 30.4208 68.6533L35.45 66.3774C43.8334 63.0572 54.082 61.0043 62.942 59.3514C72.8792 57.5499 84.2158 57.8326 94.2638 57.4926L95.3972 57.2568L96.1472 56.8452L96.7765 55.8853L97.1945 54.3613L97.2698 52.0843C97.1725 51.661 96.8412 50.3715 96.4352 50.2243C96.4352 50.2243 95.5858 49.6447 95.2498 49.4493C94.8238 49.2005 93.7905 48.8618 93.3138 48.7329C92.7672 48.5857 87.0892 48.0555 82.8438 48.6482C67.1712 50.8391 65.3232 52.1859 62.6672 54.8874C62.5135 55.0438 60.4854 50.6502 62.7974 47.5019C57.2941 46.9053 54.1172 49.0012 52.5619 49.6355C56.1218 50.9094 56.7666 54.9213 56.7106 55.5727C40.4519 51.7392 32.8228 53.8011 28.5907 55.1063C25.376 56.0976 21.17 58.6753 19.4076 63.4584C17.4433 69.3379 17.769 70.1366 19.0806 72.3286L20.7662 72.5879L21.9762 72.4359L21.9867 72.4033Z" fill="url(#paint0_linear_13161_73)"/>
<path d="M35.501 36.8086C35.501 36.8086 35.5192 36.6783 35.5908 36.4517" stroke="#221D1E" stroke-width="0.333333" stroke-miterlimit="10"/>
<path d="M35.8691 35.7703C36.7796 33.9063 39.8732 30.0976 50.0919 29.1245C57.2377 28.5202 61.1181 30.3282 62.5119 31.18" stroke="#221D1E" stroke-width="0.333333" stroke-miterlimit="10" stroke-dasharray="0.81 0.81"/>
<path d="M62.8203 31.3794C63.0196 31.5161 63.116 31.5995 63.116 31.5995" stroke="#221D1E" stroke-width="0.333333" stroke-miterlimit="10"/>
<path d="M40.2246 43.8135C40.2246 43.8135 40.3393 43.8734 40.5567 43.975" stroke="#221D1E" stroke-width="0.333333" stroke-miterlimit="10"/>
<path d="M41.2363 44.2744C43.8024 45.3477 50.9066 47.7379 58.5905 45.2461C63.9154 43.274 65.5827 40.1817 66.0777 38.7958" stroke="#221D1E" stroke-width="0.333333" stroke-miterlimit="10" stroke-dasharray="0.82 0.82"/>
<path d="M66.1924 38.4412C66.2575 38.212 66.2758 38.0817 66.2758 38.0817" stroke="#221D1E" stroke-width="0.333333" stroke-miterlimit="10"/>
<path d="M97.1875 52.4139C97.2068 52.2875 97.2175 52.1651 97.2202 52.0465" stroke="#221D1E" stroke-width="0.333333" stroke-miterlimit="10"/>
<path d="M97.1275 51.3189C95.2181 44.7891 64.4967 50.4488 62.9089 54.7225C61.7822 55.7372 61.3667 50.1361 62.3709 48.0859" stroke="#221D1E" stroke-width="0.333333" stroke-miterlimit="10" stroke-dasharray="0.81 0.81"/>
<path d="M62.5586 47.7675C62.6367 47.6594 62.7227 47.5708 62.8139 47.5031" stroke="#221D1E" stroke-width="0.333333" stroke-miterlimit="10"/>
<path d="M18.8196 72.1899C17.8752 70.9886 18.068 69.7393 18.068 69.7393C18.8769 49.6188 44.6196 52.3568 56.5354 55.5377C56.7269 55.6002 56.9184 55.5194 56.8689 55.3227C56.495 53.8235 55.3358 50.4902 52.263 49.5276" stroke="#221D1E" stroke-width="0.333333" stroke-miterlimit="10" stroke-dasharray="0.81 0.81"/>
<path d="M77.3927 38.6033C77.3067 38.5134 77.222 38.4248 77.1387 38.335" stroke="#221D1E" stroke-width="0.333333" stroke-miterlimit="10"/>
<path d="M76.6374 37.7852C72.6647 33.3122 71.4874 29.2247 71.4874 29.2247C71.4874 29.2247 71.2267 27.9221 69.5334 28.1826C68.1708 28.3923 67.0143 29.1074 66.3604 29.592" stroke="#221D1E" stroke-width="0.333333" stroke-miterlimit="10" stroke-dasharray="0.82 0.82"/>
<path d="M66.0678 29.8209C65.8881 29.9681 65.7891 30.0618 65.7891 30.0618" stroke="#221D1E" stroke-width="0.333333" stroke-miterlimit="10"/>
<path d="M84.2507 31.6997C84.2507 31.6997 84.1413 31.6372 83.916 31.546" stroke="#221D1E" stroke-width="0.333333" stroke-miterlimit="10"/>
<path d="M83.2167 31.3153C81.7334 30.9049 78.5874 30.4764 73.3721 31.7751" stroke="#221D1E" stroke-width="0.333333" stroke-miterlimit="10" stroke-dasharray="0.81 0.81"/>
<path d="M73.0139 31.8661C72.8959 31.8973 72.7772 31.9287 72.6572 31.9612" stroke="#221D1E" stroke-width="0.333333" stroke-miterlimit="10"/>
<path d="M30.327 36.5184C30.327 36.5184 30.1928 36.4989 29.9609 36.4716" stroke="#221D1E" stroke-width="0.333333" stroke-miterlimit="10"/>
<path d="M29.219 36.3927C27.751 36.2521 25.1979 36.1114 23.9423 36.6493C23.0305 37.1704 21.9885 39.3847 21.5977 41.0781C22.3297 42.6464 24.7407 46.9722 25.6643 48.6173" stroke="#221D1E" stroke-width="0.333333" stroke-miterlimit="10" stroke-dasharray="0.82 0.82"/>
<path d="M25.8477 48.9429C25.9636 49.1487 26.0287 49.2646 26.0287 49.2646" stroke="#221D1E" stroke-width="0.333333" stroke-miterlimit="10"/>
<path d="M23.9434 36.6492L24.1309 36.9683" stroke="#221D1E" stroke-width="0.333333" stroke-miterlimit="10"/>
<path d="M24.4951 37.5854L30.134 47.1567" stroke="#221D1E" stroke-width="0.333333" stroke-miterlimit="10" stroke-dasharray="0.79 0.79"/>
<path d="M30.3135 47.4658L30.5011 47.7836" stroke="#221D1E" stroke-width="0.333333" stroke-miterlimit="10"/>
<path d="M21.5209 41.0883C21.5209 41.0883 21.3894 41.0909 21.1523 41.1026" stroke="#221D1E" stroke-width="0.333333" stroke-miterlimit="10"/>
<path d="M20.3832 41.1499C17.6048 41.3518 10.5175 42.1985 8.05176 45.6451" stroke="#221D1E" stroke-width="0.333333" stroke-miterlimit="10" stroke-dasharray="0.85 0.85"/>
<path d="M7.8396 45.968C7.7758 46.0736 7.71587 46.1817 7.66113 46.2911" stroke="#221D1E" stroke-width="0.333333" stroke-miterlimit="10"/>
<path d="M13.3748 31.9996C20.0021 31.9996 25.3746 26.6271 25.3746 19.9997C25.3746 13.3724 20.0021 7.99988 13.3748 7.99988C6.74749 7.99988 1.375 13.3724 1.375 19.9997C1.375 26.6271 6.74749 31.9996 13.3748 31.9996Z" fill="url(#paint1_linear_13161_73)"/>
<rect x="3.24219" y="9.99988" width="20" height="20" rx="10" stroke="#4F6FC1" stroke-width="0.75"/>
<mask id="path-34-inside-1_13161_73" fill="white">
<path d="M14.2984 14.5765H13.9093L13.9092 14.2688H14.2984L13.3945 13.365C12.7264 13.4879 12.7516 13.4865 12.7251 13.4865C12.6524 13.4865 12.5878 13.4348 12.5741 13.3607C12.5586 13.2772 12.6137 13.197 12.6972 13.1815L13.1306 13.1011L12.8339 12.8044C12.3417 12.8947 12.3703 12.8924 12.3449 12.8924C12.2722 12.8924 12.2076 12.8407 12.1939 12.7667C12.1784 12.6832 12.2336 12.6029 12.3171 12.5874L12.57 12.5405L12.2052 12.1757C12.1452 12.1156 12.1452 12.0183 12.2052 11.9582C12.2653 11.8981 12.3627 11.8982 12.4227 11.9582L12.7875 12.323L12.8345 12.07C12.85 11.9866 12.9302 11.9315 13.0137 11.9469C13.0972 11.9624 13.1524 12.0426 13.1369 12.1261L13.0514 12.5869L13.3481 12.8836L13.4285 12.4502C13.444 12.3667 13.5242 12.3115 13.6078 12.327C13.6913 12.3425 13.7464 12.4228 13.7309 12.5063L13.612 13.1475L14.5159 14.0514V12.7731L13.9784 12.4038C13.9084 12.3557 13.8906 12.26 13.9387 12.19C13.9868 12.12 14.0826 12.1022 14.1526 12.1503L14.5159 12.4V11.9803L14.1296 11.7149C14.0596 11.6668 14.0419 11.5711 14.09 11.5011C14.1381 11.4311 14.2338 11.4133 14.3038 11.4614L14.5159 11.6071V11.0912C14.5159 11.0062 14.5847 10.9374 14.6697 10.9374C14.7546 10.9374 14.8235 11.0062 14.8235 11.0912V11.6071L15.0355 11.4614C15.1055 11.4133 15.2013 11.4311 15.2494 11.5011C15.2975 11.5711 15.2797 11.6668 15.2097 11.7149L14.8235 11.9803V12.3999L15.1868 12.1503C15.2568 12.1022 15.3525 12.12 15.4006 12.19C15.4487 12.26 15.4309 12.3557 15.3609 12.4038L14.8235 12.7731V14.0514L15.7274 13.1475L15.6084 12.5063C15.5929 12.4228 15.6481 12.3425 15.7316 12.327C15.8148 12.3115 15.8953 12.3667 15.9108 12.4502L15.9912 12.8836L16.288 12.5869L16.2025 12.1261C16.187 12.0426 16.2422 11.9624 16.3257 11.9469C16.4092 11.9313 16.4894 11.9865 16.5049 12.07L16.5518 12.323L16.9167 11.9582C16.9768 11.8981 17.0741 11.8982 17.1342 11.9582C17.1942 12.0183 17.1942 12.1156 17.1342 12.1757L16.7693 12.5405L17.0223 12.5875C17.1058 12.6029 17.1609 12.6832 17.1454 12.7667C17.1299 12.8504 17.0495 12.9053 16.9662 12.8899L16.5055 12.8044L16.2087 13.1012L16.6421 13.1816C16.7256 13.197 16.7808 13.2773 16.7653 13.3608C16.7498 13.4444 16.6694 13.4994 16.586 13.484L15.9449 13.365L15.041 14.2689H16.3193L16.6885 13.7314C16.7366 13.6614 16.8324 13.6436 16.9024 13.6917C16.9724 13.7398 16.9902 13.8356 16.9421 13.9056L16.6924 14.2689H17.1121L17.3775 13.8827C17.4256 13.8127 17.5213 13.7949 17.5913 13.843C17.6613 13.8911 17.6791 13.9868 17.631 14.0568L17.4853 14.2689H18.0012C18.0862 14.2689 18.155 14.3377 18.155 14.4227C18.155 14.5076 18.0862 14.5765 18.0012 14.5765H17.4853L17.631 14.7885C17.6791 14.8586 17.6613 14.9543 17.5913 15.0024C17.5217 15.0503 17.4258 15.0331 17.3775 14.9627L17.1121 14.5765H16.6924L16.9421 14.9398C16.9901 15.0098 16.9724 15.1055 16.9024 15.1537C16.8326 15.2016 16.7368 15.1842 16.6885 15.114L16.3193 14.5765H15.041L15.9449 15.4804L16.586 15.3614C16.6696 15.3459 16.7498 15.4011 16.7653 15.4846C16.7808 15.5681 16.7256 15.6484 16.6421 15.6638L16.2087 15.7442L16.5055 16.041L16.9662 15.9555C17.0497 15.9399 17.1299 15.9951 17.1454 16.0786C17.1609 16.1622 17.1058 16.2424 17.0223 16.2579L16.7693 16.3048L17.1341 16.6697C17.1942 16.7297 17.1942 16.8271 17.1341 16.8872C17.0741 16.9472 16.9767 16.9472 16.9166 16.8872L16.5518 16.5223L16.5049 16.7753C16.4911 16.8493 16.4265 16.9011 16.3538 16.9011C16.2573 16.9011 16.185 16.8135 16.2025 16.7192L16.2879 16.2585L15.9912 15.9617L15.9108 16.3952C15.8953 16.4788 15.8149 16.5338 15.7316 16.5183C15.6481 16.5028 15.5929 16.4226 15.6084 16.3391L15.7274 15.6979L14.8235 14.794V16.0722L15.3609 16.4415C15.4309 16.4896 15.4487 16.5854 15.4006 16.6554C15.3523 16.7257 15.2565 16.7429 15.1868 16.695L14.8235 16.4454V16.865L15.2097 17.1304C15.2797 17.1785 15.2975 17.2742 15.2494 17.3442C15.201 17.4146 15.1052 17.4318 15.0355 17.3839L14.8234 17.2382V17.7542C14.8234 17.8391 14.7546 17.908 14.6697 17.908C14.5847 17.908 14.5159 17.8391 14.5159 17.7542V17.2382L14.3038 17.3839L14.1296 17.1304L14.5159 16.865V16.4454L14.1525 16.695V16.3391L14.5159 16.0722V14.7939L14.2151 15.0946L14.0809 14.794L14.2984 14.5765Z"/>
</mask>
<path d="M14.2984 14.5765H13.9093L13.9092 14.2688H14.2984L13.3945 13.365C12.7264 13.4879 12.7516 13.4865 12.7251 13.4865C12.6524 13.4865 12.5878 13.4348 12.5741 13.3607C12.5586 13.2772 12.6137 13.197 12.6972 13.1815L13.1306 13.1011L12.8339 12.8044C12.3417 12.8947 12.3703 12.8924 12.3449 12.8924C12.2722 12.8924 12.2076 12.8407 12.1939 12.7667C12.1784 12.6832 12.2336 12.6029 12.3171 12.5874L12.57 12.5405L12.2052 12.1757C12.1452 12.1156 12.1452 12.0183 12.2052 11.9582C12.2653 11.8981 12.3627 11.8982 12.4227 11.9582L12.7875 12.323L12.8345 12.07C12.85 11.9866 12.9302 11.9315 13.0137 11.9469C13.0972 11.9624 13.1524 12.0426 13.1369 12.1261L13.0514 12.5869L13.3481 12.8836L13.4285 12.4502C13.444 12.3667 13.5242 12.3115 13.6078 12.327C13.6913 12.3425 13.7464 12.4228 13.7309 12.5063L13.612 13.1475L14.5159 14.0514V12.7731L13.9784 12.4038C13.9084 12.3557 13.8906 12.26 13.9387 12.19C13.9868 12.12 14.0826 12.1022 14.1526 12.1503L14.5159 12.4V11.9803L14.1296 11.7149C14.0596 11.6668 14.0419 11.5711 14.09 11.5011C14.1381 11.4311 14.2338 11.4133 14.3038 11.4614L14.5159 11.6071V11.0912C14.5159 11.0062 14.5847 10.9374 14.6697 10.9374C14.7546 10.9374 14.8235 11.0062 14.8235 11.0912V11.6071L15.0355 11.4614C15.1055 11.4133 15.2013 11.4311 15.2494 11.5011C15.2975 11.5711 15.2797 11.6668 15.2097 11.7149L14.8235 11.9803V12.3999L15.1868 12.1503C15.2568 12.1022 15.3525 12.12 15.4006 12.19C15.4487 12.26 15.4309 12.3557 15.3609 12.4038L14.8235 12.7731V14.0514L15.7274 13.1475L15.6084 12.5063C15.5929 12.4228 15.6481 12.3425 15.7316 12.327C15.8148 12.3115 15.8953 12.3667 15.9108 12.4502L15.9912 12.8836L16.288 12.5869L16.2025 12.1261C16.187 12.0426 16.2422 11.9624 16.3257 11.9469C16.4092 11.9313 16.4894 11.9865 16.5049 12.07L16.5518 12.323L16.9167 11.9582C16.9768 11.8981 17.0741 11.8982 17.1342 11.9582C17.1942 12.0183 17.1942 12.1156 17.1342 12.1757L16.7693 12.5405L17.0223 12.5875C17.1058 12.6029 17.1609 12.6832 17.1454 12.7667C17.1299 12.8504 17.0495 12.9053 16.9662 12.8899L16.5055 12.8044L16.2087 13.1012L16.6421 13.1816C16.7256 13.197 16.7808 13.2773 16.7653 13.3608C16.7498 13.4444 16.6694 13.4994 16.586 13.484L15.9449 13.365L15.041 14.2689H16.3193L16.6885 13.7314C16.7366 13.6614 16.8324 13.6436 16.9024 13.6917C16.9724 13.7398 16.9902 13.8356 16.9421 13.9056L16.6924 14.2689H17.1121L17.3775 13.8827C17.4256 13.8127 17.5213 13.7949 17.5913 13.843C17.6613 13.8911 17.6791 13.9868 17.631 14.0568L17.4853 14.2689H18.0012C18.0862 14.2689 18.155 14.3377 18.155 14.4227C18.155 14.5076 18.0862 14.5765 18.0012 14.5765H17.4853L17.631 14.7885C17.6791 14.8586 17.6613 14.9543 17.5913 15.0024C17.5217 15.0503 17.4258 15.0331 17.3775 14.9627L17.1121 14.5765H16.6924L16.9421 14.9398C16.9901 15.0098 16.9724 15.1055 16.9024 15.1537C16.8326 15.2016 16.7368 15.1842 16.6885 15.114L16.3193 14.5765H15.041L15.9449 15.4804L16.586 15.3614C16.6696 15.3459 16.7498 15.4011 16.7653 15.4846C16.7808 15.5681 16.7256 15.6484 16.6421 15.6638L16.2087 15.7442L16.5055 16.041L16.9662 15.9555C17.0497 15.9399 17.1299 15.9951 17.1454 16.0786C17.1609 16.1622 17.1058 16.2424 17.0223 16.2579L16.7693 16.3048L17.1341 16.6697C17.1942 16.7297 17.1942 16.8271 17.1341 16.8872C17.0741 16.9472 16.9767 16.9472 16.9166 16.8872L16.5518 16.5223L16.5049 16.7753C16.4911 16.8493 16.4265 16.9011 16.3538 16.9011C16.2573 16.9011 16.185 16.8135 16.2025 16.7192L16.2879 16.2585L15.9912 15.9617L15.9108 16.3952C15.8953 16.4788 15.8149 16.5338 15.7316 16.5183C15.6481 16.5028 15.5929 16.4226 15.6084 16.3391L15.7274 15.6979L14.8235 14.794V16.0722L15.3609 16.4415C15.4309 16.4896 15.4487 16.5854 15.4006 16.6554C15.3523 16.7257 15.2565 16.7429 15.1868 16.695L14.8235 16.4454V16.865L15.2097 17.1304C15.2797 17.1785 15.2975 17.2742 15.2494 17.3442C15.201 17.4146 15.1052 17.4318 15.0355 17.3839L14.8234 17.2382V17.7542C14.8234 17.8391 14.7546 17.908 14.6697 17.908C14.5847 17.908 14.5159 17.8391 14.5159 17.7542V17.2382L14.3038 17.3839L14.1296 17.1304L14.5159 16.865V16.4454L14.1525 16.695V16.3391L14.5159 16.0722V14.7939L14.2151 15.0946L14.0809 14.794L14.2984 14.5765Z" fill="#4F6FC1" stroke="#4F6FC1" stroke-width="0.0957474" mask="url(#path-34-inside-1_13161_73)"/>
<path fill-rule="evenodd" clip-rule="evenodd" d="M14.5081 18.5755C14.5081 18.5728 14.508 18.57 14.5078 18.5672L14.5081 18.5729L14.5081 18.5755ZM14.3827 22.218C14.7105 22.5347 14.9698 22.91 15.1503 23.3198L15.3485 23.9067C15.4119 24.1697 15.445 24.4409 15.445 24.7154C15.445 25.6673 15.0666 26.555 14.3784 27.2171C13.7242 27.8465 12.8756 28.1879 11.9742 28.1879C11.9281 28.1879 11.8818 28.187 11.8354 28.1852C10.0239 28.115 8.55913 26.6397 8.50175 24.8273C8.4706 23.8434 8.85558 22.9 9.56215 22.2181L9.61732 22.1648V15.495C9.61732 14.1965 10.674 13.1398 11.9725 13.1398C13.1174 13.1398 14.0745 13.9619 14.2843 15.0471L14.2966 15.1105L14.2972 15.1174C14.3019 15.1737 14.3068 15.2557 14.3128 15.3564L14.3129 15.3577C14.3172 15.4299 14.3219 15.5105 14.3275 15.595V16.1769L14.3274 16.1807L14.3271 16.1859V18.5685L14.3274 18.5737L14.3275 18.5775L14.3276 22.1648L14.3827 22.218ZM14.0872 18.5715L14.0877 18.5646V16.1898L14.0872 16.1829C14.0869 16.1798 14.0868 16.1766 14.0868 16.1734V15.495C14.0868 14.3289 13.1385 13.3806 11.9725 13.3806C10.8064 13.3806 9.85809 14.3289 9.85809 15.495V22.2191C9.85809 22.2533 9.84353 22.2859 9.81805 22.3088C9.10439 22.9484 8.71212 23.8637 8.7424 24.8197C8.79578 26.5071 10.158 27.8793 11.8447 27.9446C12.7312 27.979 13.5722 27.6586 14.2115 27.0436C14.8512 26.4281 15.2042 25.6006 15.2042 24.7153C15.2042 23.7992 14.8113 22.9222 14.1268 22.3088C14.1014 22.2859 14.0868 22.2534 14.0868 22.2191V18.581C14.0868 18.5778 14.0869 18.5746 14.0872 18.5715ZM12.8377 15.4949V22.9282L12.931 22.9797C13.5587 23.3264 13.9551 23.9892 13.9551 24.7153C13.9551 25.8084 13.0655 26.698 11.9724 26.698C10.8793 26.698 9.98975 25.8084 9.98975 24.7153C9.98975 23.9892 10.3862 23.3264 11.0139 22.9797L11.1071 22.9282V15.4949C11.1071 15.0179 11.4954 14.6296 11.9724 14.6296C12.4494 14.6296 12.8377 15.0179 12.8377 15.4949ZM11.3479 19.1191H12.5969V15.4949C12.5969 15.1503 12.3169 14.8703 11.9724 14.8703C11.6279 14.8703 11.3479 15.1503 11.3479 15.4949V19.1191ZM13.7143 24.7153C13.7143 24.0228 13.304 23.3962 12.6691 23.1187C12.6253 23.0995 12.5969 23.0562 12.5969 23.0084V19.3598H11.3479V23.0084C11.3479 23.0562 11.3196 23.0996 11.2757 23.1187C10.6409 23.3962 10.2305 24.0228 10.2305 24.7153C10.2305 25.676 11.0118 26.4572 11.9724 26.4572C12.933 26.4572 13.7143 25.676 13.7143 24.7153Z" fill="#4F6FC1"/>
<path d="M14.2911 15.0618L14.2914 15.0632M14.5078 18.5672C14.508 18.57 14.5081 18.5728 14.5081 18.5755L14.5081 18.5729L14.5078 18.5672ZM15.1503 23.3198C14.9698 22.91 14.7105 22.5347 14.3827 22.218L14.3276 22.1648L14.3275 18.5775L14.3274 18.5737L14.3271 18.5685V16.1859L14.3274 16.1807L14.3275 16.1769V15.595C14.3219 15.5105 14.3172 15.4299 14.3129 15.3577L14.3128 15.3564C14.3068 15.2557 14.3019 15.1737 14.2972 15.1174L14.2966 15.1105L14.2843 15.0471C14.0745 13.9619 13.1174 13.1398 11.9725 13.1398C10.674 13.1398 9.61732 14.1965 9.61732 15.495V22.1648L9.56215 22.2181C8.85558 22.9 8.4706 23.8434 8.50175 24.8273C8.55913 26.6397 10.0239 28.115 11.8354 28.1852C11.8818 28.187 11.9281 28.1879 11.9742 28.1879C12.8756 28.1879 13.7242 27.8465 14.3784 27.2171C15.0666 26.555 15.445 25.6673 15.445 24.7154C15.445 24.4409 15.4119 24.1697 15.3485 23.9067L15.1503 23.3198ZM14.0877 18.5646L14.0872 18.5715C14.0869 18.5746 14.0868 18.5778 14.0868 18.581V22.2191C14.0868 22.2534 14.1014 22.2859 14.1268 22.3088C14.8113 22.9222 15.2042 23.7992 15.2042 24.7153C15.2042 25.6006 14.8512 26.4281 14.2115 27.0436C13.5722 27.6586 12.7312 27.979 11.8447 27.9446C10.158 27.8793 8.79578 26.5071 8.7424 24.8197C8.71212 23.8637 9.10439 22.9484 9.81805 22.3088C9.84353 22.2859 9.85809 22.2533 9.85809 22.2191V15.495C9.85809 14.3289 10.8064 13.3806 11.9725 13.3806C13.1385 13.3806 14.0868 14.3289 14.0868 15.495V16.1734C14.0868 16.1766 14.0869 16.1798 14.0872 16.1829L14.0877 16.1898V18.5646ZM12.8377 22.9282V15.4949C12.8377 15.0179 12.4494 14.6296 11.9724 14.6296C11.4954 14.6296 11.1071 15.0179 11.1071 15.4949V22.9282L11.0139 22.9797C10.3862 23.3264 9.98975 23.9892 9.98975 24.7153C9.98975 25.8084 10.8793 26.698 11.9724 26.698C13.0655 26.698 13.9551 25.8084 13.9551 24.7153C13.9551 23.9892 13.5587 23.3264 12.931 22.9797L12.8377 22.9282ZM12.5969 19.1191H11.3479V15.4949C11.3479 15.1503 11.6279 14.8703 11.9724 14.8703C12.3169 14.8703 12.5969 15.1503 12.5969 15.4949V19.1191ZM12.6691 23.1187C13.304 23.3962 13.7143 24.0228 13.7143 24.7153C13.7143 25.676 12.933 26.4572 11.9724 26.4572C11.0118 26.4572 10.2305 25.676 10.2305 24.7153C10.2305 24.0228 10.6409 23.3962 11.2757 23.1187C11.3196 23.0996 11.3479 23.0562 11.3479 23.0084V19.3598H12.5969V23.0084C12.5969 23.0562 12.6253 23.0995 12.6691 23.1187Z" stroke="#4F6FC1" stroke-width="0.269531"/>
<defs>
<linearGradient id="paint0_linear_13161_73" x1="58.204" y1="65.5417" x2="56.658" y2="52.556" gradientUnits="userSpaceOnUse">
<stop stop-opacity="0.3"/>
<stop offset="0.9366" stop-opacity="0"/>
</linearGradient>
<linearGradient id="paint1_linear_13161_73" x1="13.3747" y1="7.99988" x2="13.3747" y2="31.9996" gradientUnits="userSpaceOnUse">
<stop stop-color="#F2F7FF"/>
<stop offset="1" stop-color="#A9D4FF"/>
</linearGradient>
</defs>
</svg>
