<svg width="101" height="100" viewBox="0 0 101 100" fill="none" xmlns="http://www.w3.org/2000/svg">
<rect width="100" height="100" transform="translate(0.375)" fill="white"/>
<path d="M42.5752 24.3973C50.7158 28.8519 68.2993 43.4039 59.8332 63.3015C58.5861 66.2297 55.9257 69.8351 53.6464 70.726" stroke="#221D1E" stroke-width="0.333333" stroke-miterlimit="10" stroke-dasharray="0.81 0.81"/>
<path d="M86.4659 75.3181C85.1001 75.0322 85.5868 75.607 80.9901 73.8825C75.5567 71.8435 74.1618 70.5637 69.8438 71.9875C65.5287 73.4118 58.1201 75.4334 54.0774 76.6036C50.0347 77.7737 47.861 77.9728 45.0018 78.3046C42.1427 78.6375 40.7043 79.1398 39.9779 79.2521C39.2513 79.3644 38.8441 78.2995 38.9291 77.1692C39.0111 76.0399 39.1048 75.1251 39.6087 74.8882C40.1126 74.6513 44.2988 74.6626 50.2837 71.043C61.3893 64.3246 59.4676 39.9141 42.8605 26.7484C42.0167 26.0783 41.6124 25.8183 41.5773 25.5093C41.5421 25.2002 42.506 23.2765 43.8886 23.184C45.2714 23.0944 50.4214 24.0563 52.809 24.1285C55.1965 24.2007 57.9735 24.2528 62.1041 24.065C66.2347 23.8744 70.5 23.4556 70.9658 23.4988C71.6923 23.5653 74.0359 24.7351 74.2146 25.5093C74.4137 26.3815 73.5906 29.6051 74.1882 33.8656C74.7917 38.1839 75.4566 42.5917 76.8687 47.219C78.2832 51.8463 78.6788 52.765 78.6705 52.8718" stroke="#221D1E" stroke-width="0.229805" stroke-miterlimit="10"/>
<path d="M49.6261 71.9303C46.5815 73.0072 43.2662 73.0687 40.4341 71.3549C38.2423 70.0282 36.6006 67.8932 35.5208 65.5752C35.0434 64.5519 34.6651 63.4667 34.4671 62.3519C34.4176 62.0718 33.9956 62.1897 34.045 62.4699C34.4496 64.72 35.5179 66.8993 36.8917 68.6952C38.6178 70.9513 41.0395 72.6444 43.8657 73.0572C45.8509 73.3491 47.8564 73.0218 49.7396 72.3546C50.0044 72.267 49.8909 71.8386 49.6261 71.9303Z" fill="#221D1E" stroke="#221D1E" stroke-width="0.4"/>
<path d="M25.888 86.4207C26.8518 81.0463 27.8259 75.675 28.831 70.3125C29.7534 65.3961 30.6733 60.4713 31.7533 55.5953C31.9445 54.737 32.1383 53.8817 32.3578 53.032C32.4845 52.5396 32.624 51.9807 32.8023 51.5488C32.9057 51.2982 32.5723 51.0793 32.4664 51.3299C32.022 52.4013 31.7998 53.6138 31.5414 54.7514C31.0634 56.8509 30.6345 58.9621 30.2108 61.076C29.11 66.5856 28.0868 72.1148 27.0766 77.645C26.5495 80.5312 26.0276 83.4194 25.5108 86.3087C25.4643 86.5764 25.8389 86.6915 25.888 86.4207Z" fill="#221D1E" stroke="#221D1E" stroke-width="0.333333"/>
<path d="M35.2867 80.7852C36.1161 82.335 36.8939 83.9106 37.6173 85.5112C38.4658 87.3861 39.2382 89.3041 39.7359 91.3065C39.7984 91.5616 40.1928 91.4533 40.1303 91.1982C39.6353 89.2044 38.8656 87.2912 38.0225 85.422C37.2828 83.7812 36.4887 82.1662 35.6402 80.5819C35.5151 80.3489 35.1615 80.5551 35.2867 80.7852Z" fill="#221D1E" stroke="#221D1E" stroke-width="0.333333"/>
<path d="M29.1758 67.3297C30.0655 70.1216 31.1348 72.8798 32.439 75.4958C32.5606 75.7392 32.917 75.5238 32.7982 75.2804C31.5079 72.6955 30.4551 69.9742 29.5764 67.2164C29.4935 66.9556 29.0929 67.069 29.1758 67.3297Z" fill="#221D1E" stroke="#221D1E" stroke-width="0.333333"/>
<path d="M86.1955 75.819C86.2006 77.8913 85.957 79.913 85.7211 81.94C85.456 84.2091 85.2504 86.4813 85.2466 88.7966C85.2466 89.0861 85.5155 89.0861 85.5155 88.7966C85.5186 86.4455 85.7356 84.147 86.0057 81.8421C86.2398 79.8499 86.4707 77.8586 86.4657 75.819C86.4638 75.5306 86.1955 75.5306 86.1955 75.819Z" fill="#221D1E" stroke="#221D1E" stroke-width="0.333333"/>
<path d="M85.2579 40.5154C86.1158 43.2628 87.2308 45.9139 88.718 48.3516C89.7689 50.0732 91.0089 51.6516 92.1121 53.3322C93.229 55.0362 94.1627 56.8601 94.4641 58.9266C94.793 61.1743 94.4473 63.536 93.5363 65.5966C92.3741 68.2302 90.3402 70.285 87.8601 71.5418C87.6178 71.6647 87.8296 72.0418 88.0719 71.922C90.3037 70.7906 92.2066 69.0135 93.4407 66.7482C94.5281 64.7519 95.0826 62.4311 94.99 60.1308C94.9043 57.927 94.1745 55.9336 93.0763 54.0746C92.051 52.3443 90.7972 50.7776 89.696 49.0999C87.935 46.4196 86.629 43.488 85.6618 40.3955C85.578 40.1325 85.1742 40.2464 85.2579 40.5154Z" fill="#221D1E" stroke="#221D1E" stroke-width="0.333333"/>
<path d="M76.92 22.4029C79.8902 22.8116 82.9277 23.4305 85.6573 24.7426C86.9951 25.3853 88.288 26.2174 89.2423 27.3932C89.8714 28.1662 90.2783 29.102 90.5954 30.0468C91.4172 32.502 91.7282 35.1378 91.925 37.7144C92.135 40.4776 92.1728 43.2556 92.081 46.0276C92.0402 47.2805 91.9709 48.5331 91.8526 49.78C91.7782 50.5767 91.6997 51.3852 91.509 52.1611C91.4407 52.4395 91.8587 52.558 91.9281 52.2796C92.3573 50.5292 92.4032 48.6368 92.4817 46.8451C92.6061 44.0434 92.5888 41.2299 92.4063 38.4311C92.2339 35.7479 91.9423 33.0114 91.1694 30.4318C90.8778 29.4545 90.5087 28.4713 89.9459 27.6212C89.1648 26.4396 88.0218 25.5451 86.8166 24.8551C83.8107 23.1345 80.292 22.4266 76.9139 21.9616C76.6427 21.9202 76.6458 22.3644 76.92 22.4029Z" fill="#221D1E" stroke="#221D1E" stroke-width="0.333333"/>
<path d="M65.6416 9.91288C65.248 11.3839 64.9002 12.8659 64.705 14.3697C64.464 16.2405 64.4702 18.125 64.6592 19.9984C64.6837 20.2568 65.126 20.265 65.1168 19.9984C65.0711 18.5763 65.0223 17.1514 64.9766 15.7292C64.827 15.7483 64.6775 15.7646 64.5281 15.7836C64.8606 16.8388 65.9648 17.6572 66.8953 18.2989C68.3016 19.2724 69.8696 20.0583 71.4865 20.7191C71.7518 20.8279 71.9837 20.477 71.7183 20.3655C70.193 19.7402 68.7104 19.006 67.3651 18.1086C66.456 17.5022 65.2938 16.7001 64.9704 15.6749C64.9033 15.4573 64.5129 15.4955 64.5219 15.7292C64.5678 17.1514 64.6165 18.5763 64.6623 19.9984C64.8148 19.9984 64.9674 19.9984 65.1199 19.9984C64.9369 18.1575 64.9277 16.3085 65.1534 14.4702C65.3395 12.9692 65.6934 11.49 66.0839 10.0216C66.151 9.76601 65.7086 9.65729 65.6416 9.91288Z" fill="#221D1E" stroke="#221D1E" stroke-width="0.333333"/>
<path d="M35.5828 19.4953C36.3248 19.1119 37.152 18.8987 37.9194 18.5762C38.8348 18.1926 39.7643 17.7605 40.5147 17.0635C41.9019 15.773 42.6751 13.8251 43.1782 11.9776C43.4625 10.9246 43.6586 9.85024 43.7922 8.76363C43.8292 8.47454 43.4 8.47756 43.3658 8.76363C43.1356 10.6477 42.7007 12.5559 41.9104 14.2664C41.5182 15.1156 41.0264 15.9252 40.3811 16.5796C39.6592 17.31 38.7239 17.7513 37.8086 18.1379C37.007 18.4757 36.1457 18.7009 35.3696 19.1027C35.1223 19.2305 35.3384 19.6231 35.5828 19.4953Z" fill="#221D1E" stroke="#221D1E" stroke-width="0.333333"/>
<path d="M6.43208 85.2063C7.76263 81.1376 8.37723 76.8224 8.95412 72.5946C9.62949 67.6546 10.1338 62.6914 10.6933 57.7369C10.9426 55.5342 11.1456 53.352 11.2209 51.1377C11.3021 48.7288 11.3339 46.3169 11.5108 43.9108C11.6702 41.7111 11.9457 39.5114 12.6472 37.4133C13.4124 35.1264 14.4212 32.9092 15.7402 30.8897C17.062 28.8615 18.7172 27.0307 20.7057 25.6447C22.9987 24.0465 25.6656 23.073 28.231 22.0095C28.9006 21.7334 29.5702 21.4544 30.2399 21.1784C30.4949 21.0737 30.3819 20.6495 30.1239 20.757C27.5063 21.8409 24.7988 22.8201 22.2972 24.1656C20.1144 25.3396 18.2186 26.9378 16.6648 28.8702C13.8009 32.4415 11.8993 36.9368 11.3136 41.4787C10.7166 46.1048 11.0296 50.789 10.5223 55.4209C9.97737 60.419 9.44105 65.42 8.80626 70.4064C8.23521 74.8934 7.62932 79.4376 6.40319 83.799C6.28135 84.2325 6.15091 84.6629 6.01176 85.0871C5.92487 85.3572 6.34519 85.4702 6.43208 85.2063Z" fill="#221D1E" stroke="#221D1E" stroke-width="0.333333"/>
<path d="M40.1368 75.6027C38.3629 75.6826 36.0468 75.9389 33.5372 76.2981L33.2027 76.4231C32.871 76.545 32.7239 76.9431 32.8912 77.2635L34.4084 80.1669C34.518 80.378 34.743 80.503 34.9766 80.4757L40.0734 79.9232" stroke="#221D1E" stroke-miterlimit="10"/>
<path d="M61.9846 52.8717C64.5318 54.3188 65.7384 51.8261 66.7351 49.2842C72.4036 53.7815 75.1054 51.2831 75.2161 50.194C75.2161 50.194 75.3593 50.6389 76.2154 51.6094C77.1364 52.6522 78.4572 52.9815 78.4654 52.8717C78.4747 52.7619 78.078 51.8434 76.6728 47.219C75.2657 42.5916 74.6041 38.1838 74.0066 33.8656C73.415 29.6022 74.2339 26.3787 74.0328 25.5092C73.858 24.738 71.5235 23.5682 70.8007 23.4988C70.3373 23.4555 66.091 23.8772 61.9846 24.065C57.8751 24.2556 55.1152 24.2007 52.737 24.1285C50.3617 24.0563 45.2381 23.0944 43.8625 23.184C42.4869 23.2735 41.5309 25.1972 41.5631 25.5092C41.598 25.8182 41.9973 26.0782 42.8395 26.7484C59.3644 39.914 61.2763 64.3216 50.2248 71.043C44.2706 74.6626 40.1087 74.6503 39.6045 74.8872C39.1032 75.1241 39.01 76.0399 38.9284 77.1692C38.8468 78.2985 39.249 79.3644 39.9717 79.2521C40.6945 79.1398 42.1255 78.6364 44.97 78.3046C47.8145 77.9728 49.9741 77.7737 53.999 76.6036C58.0209 75.4335 65.3886 73.4118 69.6845 71.9875C73.9775 70.5636 75.3645 71.8435 80.7741 73.8825C85.3472 75.607 85.3874 75.2977 86.7483 75.5835L86.8039 75.607C87.1017 75.119 87.9145 71.5403 87.623 71.2513C82.508 66.1818 77.8565 52.9006 77.8565 52.9006" stroke="#221D1E" stroke-width="0.333333" stroke-miterlimit="10" stroke-dasharray="0.81 0.81"/>
<path d="M78.4654 52.8717C78.4747 52.7619 78.078 51.8434 76.6728 47.219C75.2657 42.5916 74.6041 38.1838 74.0066 33.8656C73.415 29.6022 74.2339 26.3787 74.0328 25.5092C73.858 24.738 71.5235 23.5682 70.8007 23.4988C70.3373 23.4555 66.091 23.8772 61.9846 24.065C57.8751 24.2556 55.1152 24.2007 52.737 24.1285C50.3617 24.0563 45.2381 23.0944 43.8625 23.184C42.4869 23.2735 41.5309 25.1972 41.5631 25.5092C41.598 25.8182 41.9973 26.0782 42.8395 26.7484C59.3644 39.914 61.2763 64.3216 50.2248 71.043C44.2706 74.6626 40.1087 74.6503 39.6045 74.8872C39.1032 75.1241 39.01 76.0399 38.9284 77.1692C38.8468 78.2985 39.249 79.3644 39.9717 79.2521C40.6945 79.1398 42.1255 78.6364 44.97 78.3046C47.8145 77.9728 49.9741 77.7737 53.999 76.6036C58.0209 75.4335 65.3886 73.4118 69.6845 71.9875C73.9775 70.5636 75.3645 71.8435 80.7741 73.8825C85.3472 75.607 85.3874 75.2977 86.7483 75.5835L86.8039 75.607C87.1017 75.119 87.9145 71.5403 87.623 71.2513C82.508 66.1818 77.8565 52.9006 77.8565 52.9006" stroke="#221D1E" stroke-width="0.866667" stroke-miterlimit="10" stroke-linecap="round" stroke-linejoin="round"/>
<path d="M42.2624 25.6164C36.6343 23.1715 37.1737 23.1775 34.5153 22.1824C32.1443 21.2965 30.6357 20.6972 29.3168 20.7237C28.2736 20.1686 32.8586 17.6351 34.9034 18.4678C35.5169 18.7188 37.2775 19.5603 38.8393 20.2247C41.2577 21.2523 43.7947 22.7109 43.7947 22.7109" stroke="#221D1E" stroke-miterlimit="10"/>
<path d="M70.6162 24.1112C71.3277 22.9527 72.2189 20.7124 72.8657 20.74C73.0625 20.7492 75.2304 21.8402 76.5768 22.3091C76.7577 22.3704 76.7378 22.7504 76.6305 22.919L74.1956 26.8356" stroke="#221D1E" stroke-miterlimit="10"/>
<path d="M65.544 31.9445C66.6136 31.179 67.3096 30.0641 68.3676 30.6637C68.9948 31.0191 69.397 31.6355 69.397 32.2597C69.397 34.2431 66.2061 32.9913 65.2006 33.3986C64.4062 33.7204 63.1251 34.1507 62.2838 34.1507C61.0574 34.1507 60.8628 33.3498 60.8628 32.2597C60.8628 31.2368 62.8014 31.1535 62.8014 31.1535C62.8014 31.1535 64.3977 32.5652 64.7975 32.9905" stroke="#221D1E" stroke-width="0.666667" stroke-linecap="round" stroke-linejoin="round"/>
<path d="M64.5205 34.1507C64.5205 35.3698 64.5205 36.5891 64.5205 37.8082" stroke="#221D1E" stroke-width="0.666667" stroke-linecap="round" stroke-linejoin="round"/>
<path d="M65.7397 34.1507C66.7955 35.0987 67.245 35.5259 68.1781 36.589" stroke="#221D1E" stroke-width="0.666667" stroke-linecap="round" stroke-linejoin="round"/>
</svg>
