<svg width="101" height="100" viewBox="0 0 101 100" fill="none" xmlns="http://www.w3.org/2000/svg">
<rect width="100" height="100" transform="translate(0.375)" fill="white"/>
<path d="M92.5704 57.5001C93.8338 58.9294 94.9958 60.2581 95.938 61.4694C97.762 63.814 96.764 65.5256 96.346 66.8921C95.2987 70.3201 94.7334 69.1974 82.3474 69.3161C76.8754 69.3681 66.8466 69.4461 52.5183 72.8327C39.9889 75.7947 31.547 79.7367 31.547 79.7367C29.2024 80.7787 24.2969 84.4821 19.9984 84.0914C14.6579 83.7001 12.9216 78.5174 12.9216 78.5174L10.1862 72.0047C10.1862 72.0047 3.79709 57.0471 3.547 54.9617C3.26639 52.6233 3.33505 49.7677 6.375 48.2422" stroke="#221D1E" stroke-width="0.866667" stroke-miterlimit="10"/>
<path d="M4.34863 49.5624C4.59873 51.6478 11.0211 67.3072 11.0211 67.3072L13.7565 73.8199C13.7565 73.8199 15.4928 79.0032 20.8333 79.3939C25.1318 79.7846 30.0373 76.0812 32.3819 75.0392C32.3819 75.0392 40.8239 71.0979 53.3533 68.1359C67.6815 64.7491 77.7101 64.671 83.1821 64.6189C95.5681 64.5004 95.8277 65.9285 96.875 62.5001" stroke="#221D1E" stroke-width="0.333333" stroke-miterlimit="10" stroke-dasharray="0.81 0.81"/>
<path d="M14.0414 67.3904C15.4755 72.3724 21.6145 73.753 25.6343 71.1677C26.025 70.907 33.7102 66.3482 42.0466 64.0036C50.3831 61.659 64.06 58.4025 75.3923 57.8815C86.7249 57.3604 93.2376 57.8815 95.1916 57.2302C100.743 54.7254 94.6769 38.5188 88.0276 38.343C85.1189 33.6511 84.8036 34.9029 83.9896 30.267C83.2336 25.8618 82.0656 22.7356 78.5196 19.586C76.8263 18.8044 75.1329 18.5439 73.4396 18.8044C62.0801 21.5086 61.4547 25.8408 42.8319 28.3132C32.3249 29.7081 26.1566 28.3132 23.5515 28.3132C20.9463 28.3132 11.8283 27.6619 8.57194 29.225C3.5935 31.8132 4.41151 37.6369 4.27344 41.469C4.64858 45.2283 14.0414 67.3904 14.0414 67.3904Z" stroke="#221D1E" stroke-width="0.866667" stroke-miterlimit="10"/>
<path d="M13.2621 59.7053C13.2621 59.7053 16.3883 52.1504 24.0735 49.9361C31.7587 47.7217 34.6243 46.6796 35.4058 43.1627C36.1874 39.6457 32.0661 36.4167 26.8089 35.4775C23.1617 34.8263 15.7371 33.7842 12.0899 36.9103C10.0605 38.6493 7.9216 42.9022 7.66113 46.4191L13.2621 59.7053Z" stroke="#221D1E" stroke-width="0.866667" stroke-miterlimit="10"/>
<path d="M88.0293 38.3432C88.0293 38.3432 82.428 38.0827 76.5667 38.7339C70.7053 39.3852 64.7133 35.217 65.4948 31.0488C66.2763 26.8806 71.096 26.2293 73.9613 25.8385C76.8273 25.4477 79.9387 25.5103 83.2033 26.7816" stroke="#221D1E" stroke-width="0.866667" stroke-miterlimit="10"/>
<path opacity="0.06" d="M21.9867 72.4033C21.9867 72.4033 24.0448 72.2132 25.8384 71.1126C27.632 70.0119 30.4208 68.6533 30.4208 68.6533L35.45 66.3774C43.8334 63.0572 54.082 61.0043 62.942 59.3514C72.8792 57.5499 84.2158 57.8326 94.2638 57.4926L95.3972 57.2568L96.1472 56.8452L96.7765 55.8853L97.1945 54.3613L97.2698 52.0843C97.1725 51.661 96.8412 50.3715 96.4352 50.2243C96.4352 50.2243 95.5858 49.6447 95.2498 49.4493C94.8238 49.2005 93.7905 48.8618 93.3138 48.7329C92.7672 48.5857 87.0892 48.0555 82.8438 48.6482C67.1712 50.8391 65.3232 52.1859 62.6672 54.8874C62.5135 55.0438 60.4854 50.6502 62.7974 47.5019C57.2941 46.9053 54.1172 49.0012 52.5619 49.6355C56.1218 50.9094 56.7666 54.9213 56.7106 55.5727C40.4519 51.7392 32.8228 53.8011 28.5907 55.1063C25.376 56.0976 21.17 58.6753 19.4076 63.4584C17.4433 69.3379 17.769 70.1366 19.0806 72.3286L20.7662 72.5879L21.9762 72.4359L21.9867 72.4033Z" fill="url(#paint0_linear_13161_34)"/>
<path d="M35.501 36.8086C35.501 36.8086 35.5192 36.6783 35.5908 36.4517" stroke="#221D1E" stroke-width="0.333333" stroke-miterlimit="10"/>
<path d="M35.8691 35.7703C36.7796 33.9063 39.8732 30.0976 50.0919 29.1245C57.2377 28.5202 61.1181 30.3282 62.5119 31.18" stroke="#221D1E" stroke-width="0.333333" stroke-miterlimit="10" stroke-dasharray="0.81 0.81"/>
<path d="M62.8203 31.3794C63.0196 31.5161 63.116 31.5995 63.116 31.5995" stroke="#221D1E" stroke-width="0.333333" stroke-miterlimit="10"/>
<path d="M40.2246 43.8135C40.2246 43.8135 40.3393 43.8734 40.5567 43.975" stroke="#221D1E" stroke-width="0.333333" stroke-miterlimit="10"/>
<path d="M41.2363 44.2744C43.8024 45.3477 50.9066 47.7379 58.5905 45.2461C63.9154 43.274 65.5827 40.1817 66.0777 38.7958" stroke="#221D1E" stroke-width="0.333333" stroke-miterlimit="10" stroke-dasharray="0.82 0.82"/>
<path d="M66.1924 38.4412C66.2575 38.212 66.2758 38.0817 66.2758 38.0817" stroke="#221D1E" stroke-width="0.333333" stroke-miterlimit="10"/>
<path d="M97.1875 52.4139C97.2068 52.2875 97.2175 52.1651 97.2202 52.0465" stroke="#221D1E" stroke-width="0.333333" stroke-miterlimit="10"/>
<path d="M97.1275 51.3189C95.2181 44.7891 64.4967 50.4488 62.9089 54.7225C61.7822 55.7372 61.3667 50.1361 62.3709 48.0859" stroke="#221D1E" stroke-width="0.333333" stroke-miterlimit="10" stroke-dasharray="0.81 0.81"/>
<path d="M62.5586 47.7675C62.6367 47.6594 62.7227 47.5708 62.8139 47.5031" stroke="#221D1E" stroke-width="0.333333" stroke-miterlimit="10"/>
<path d="M18.8196 72.1899C17.8752 70.9886 18.068 69.7393 18.068 69.7393C18.8769 49.6188 44.6196 52.3568 56.5354 55.5377C56.7269 55.6002 56.9184 55.5194 56.8689 55.3227C56.495 53.8235 55.3358 50.4902 52.263 49.5276" stroke="#221D1E" stroke-width="0.333333" stroke-miterlimit="10" stroke-dasharray="0.81 0.81"/>
<path d="M77.3927 38.6033C77.3067 38.5134 77.222 38.4248 77.1387 38.335" stroke="#221D1E" stroke-width="0.333333" stroke-miterlimit="10"/>
<path d="M76.6374 37.7852C72.6647 33.3122 71.4874 29.2247 71.4874 29.2247C71.4874 29.2247 71.2267 27.9221 69.5334 28.1826C68.1708 28.3923 67.0143 29.1074 66.3604 29.592" stroke="#221D1E" stroke-width="0.333333" stroke-miterlimit="10" stroke-dasharray="0.82 0.82"/>
<path d="M66.0678 29.8209C65.8881 29.9681 65.7891 30.0618 65.7891 30.0618" stroke="#221D1E" stroke-width="0.333333" stroke-miterlimit="10"/>
<path d="M84.2507 31.6997C84.2507 31.6997 84.1413 31.6372 83.916 31.546" stroke="#221D1E" stroke-width="0.333333" stroke-miterlimit="10"/>
<path d="M83.2167 31.3153C81.7334 30.9049 78.5874 30.4764 73.3721 31.7751" stroke="#221D1E" stroke-width="0.333333" stroke-miterlimit="10" stroke-dasharray="0.81 0.81"/>
<path d="M73.0139 31.8661C72.8959 31.8973 72.7772 31.9287 72.6572 31.9612" stroke="#221D1E" stroke-width="0.333333" stroke-miterlimit="10"/>
<path d="M30.327 36.5184C30.327 36.5184 30.1928 36.4989 29.9609 36.4716" stroke="#221D1E" stroke-width="0.333333" stroke-miterlimit="10"/>
<path d="M29.219 36.3927C27.751 36.2521 25.1979 36.1114 23.9423 36.6493C23.0305 37.1704 21.9885 39.3847 21.5977 41.0781C22.3297 42.6464 24.7407 46.9722 25.6643 48.6173" stroke="#221D1E" stroke-width="0.333333" stroke-miterlimit="10" stroke-dasharray="0.82 0.82"/>
<path d="M25.8477 48.9429C25.9636 49.1487 26.0287 49.2646 26.0287 49.2646" stroke="#221D1E" stroke-width="0.333333" stroke-miterlimit="10"/>
<path d="M23.9434 36.6492L24.1309 36.9683" stroke="#221D1E" stroke-width="0.333333" stroke-miterlimit="10"/>
<path d="M24.4951 37.5854L30.134 47.1567" stroke="#221D1E" stroke-width="0.333333" stroke-miterlimit="10" stroke-dasharray="0.79 0.79"/>
<path d="M30.3135 47.4658L30.5011 47.7836" stroke="#221D1E" stroke-width="0.333333" stroke-miterlimit="10"/>
<path d="M21.5209 41.0883C21.5209 41.0883 21.3894 41.0909 21.1523 41.1026" stroke="#221D1E" stroke-width="0.333333" stroke-miterlimit="10"/>
<path d="M20.3832 41.1499C17.6048 41.3518 10.5175 42.1985 8.05176 45.6451" stroke="#221D1E" stroke-width="0.333333" stroke-miterlimit="10" stroke-dasharray="0.85 0.85"/>
<path d="M7.8396 45.968C7.7758 46.0736 7.71587 46.1817 7.66113 46.2911" stroke="#221D1E" stroke-width="0.333333" stroke-miterlimit="10"/>
<path d="M12.9317 33.1134C19.3143 33.1134 24.4885 27.9393 24.4885 21.5568C24.4885 15.1741 19.3143 10 12.9317 10C6.54912 10 1.375 15.1741 1.375 21.5568C1.375 27.9393 6.54912 33.1134 12.9317 33.1134Z" fill="url(#paint1_linear_13161_34)"/>
<path d="M12.875 30.9998C18.1216 30.9998 22.375 26.7465 22.375 21.4999C22.375 16.2531 18.1216 11.9998 12.875 11.9998C7.62829 11.9998 3.375 16.2531 3.375 21.4999C3.375 26.7465 7.62829 30.9998 12.875 30.9998Z" stroke="url(#paint2_linear_13161_34)"/>
<path d="M10.2844 24.5565C9.75341 24.5565 9.26433 24.4307 8.81715 24.1793C8.37557 23.9277 8.02341 23.5839 7.7607 23.148C7.50356 22.7119 7.375 22.2284 7.375 21.6974C7.375 21.1663 7.50356 20.6829 7.7607 20.2468C8.02341 19.8109 8.37557 19.4671 8.81715 19.2156C9.26433 18.9641 9.75341 18.8383 10.2844 18.8383C10.7931 18.8383 11.2542 18.9529 11.6679 19.1821C12.0871 19.4113 12.4169 19.7214 12.6573 20.1126L11.9865 20.6074C11.7909 20.3 11.5505 20.0652 11.2654 19.903C10.9803 19.7355 10.6562 19.6516 10.2928 19.6516C9.91831 19.6516 9.57734 19.741 9.26991 19.9198C8.96806 20.0933 8.73051 20.3364 8.55723 20.6493C8.38395 20.9623 8.2973 21.3117 8.2973 21.6974C8.2973 22.0831 8.38395 22.4325 8.55723 22.7454C8.73051 23.0585 8.96806 23.3045 9.26991 23.4834C9.57734 23.6566 9.91831 23.7432 10.2928 23.7432C10.6562 23.7432 10.9803 23.6621 11.2654 23.5001C11.5505 23.3324 11.7909 23.0949 11.9865 22.7873L12.6573 23.282C12.4225 23.6734 12.0955 23.9836 11.6763 24.2128C11.2626 24.442 10.7987 24.5565 10.2844 24.5565Z" fill="#735B42"/>
<path d="M15.0439 24.5565C14.7029 24.5565 14.3955 24.4841 14.1216 24.3387C13.8477 24.1876 13.6326 23.9752 13.476 23.7014C13.3195 23.422 13.2412 23.1005 13.2412 22.7373V20.3477H14.1132V22.8043C14.1132 23.0893 14.1999 23.3185 14.3731 23.4917C14.552 23.6594 14.7756 23.7433 15.0439 23.7433C15.301 23.7433 15.5162 23.6594 15.6895 23.4917C15.8628 23.3185 15.9495 23.0893 15.9495 22.8043V20.3477H16.8298V22.7373C16.8298 23.1005 16.7515 23.422 16.595 23.7014C16.4385 23.9752 16.2233 24.1876 15.9495 24.3387C15.6812 24.4841 15.3793 24.5565 15.0439 24.5565Z" fill="#735B42"/>
<path d="M17.5911 19.6294H17.0171V19.1223H17.5911V18.5306H18.1616V19.1223H18.7322V19.6294H18.1616V20.2211H17.5911V19.6294Z" fill="#735B42"/>
<defs>
<linearGradient id="paint0_linear_13161_34" x1="58.204" y1="65.5417" x2="56.658" y2="52.556" gradientUnits="userSpaceOnUse">
<stop stop-opacity="0.3"/>
<stop offset="0.9366" stop-opacity="0"/>
</linearGradient>
<linearGradient id="paint1_linear_13161_34" x1="12.9317" y1="10" x2="12.9317" y2="33.1134" gradientUnits="userSpaceOnUse">
<stop stop-color="#FFFAF2"/>
<stop offset="1" stop-color="#F1DDB7"/>
</linearGradient>
<linearGradient id="paint2_linear_13161_34" x1="2.88225" y1="13.3951" x2="24.0169" y2="24.7899" gradientUnits="userSpaceOnUse">
<stop stop-color="#DAC5A5"/>
<stop offset="0.380208" stop-color="#AB8F76"/>
<stop offset="1" stop-color="#735B42"/>
</linearGradient>
</defs>
</svg>
