<svg width="101" height="100" viewBox="0 0 101 100" fill="none" xmlns="http://www.w3.org/2000/svg">
<rect width="100" height="100" transform="translate(0.375)" fill="white"/>
<path d="M44.2191 72.4358C44.9105 73.4037 45.9591 73.1421 47.9299 73.1421C50.8229 72.618 61.7127 68.2826 75.9376 62.4696C89.3163 57.0018 98.2186 55.2952 98.2186 55.2952C97.6151 54.1883 96.9844 53.4446 96.145 52.7535M44.2191 72.4358C44.7008 70.666 46.9325 70.0189 48.725 69.3431C61.8307 64.4018 81.3266 57.3273 81.3266 57.3273C81.3266 57.3273 91.5051 53.9875 96.145 52.7535M44.2191 72.4358C37.783 60.3113 23.4431 34.7362 21.9192 32.789C20.3954 30.8419 20.3672 29.4379 20.5435 28.9794C20.5788 27.78 20.7553 25.4025 21.1785 25.4871C21.6018 25.5719 30.5969 21.9244 35.0414 20.0901C44.6009 17.7267 63.8256 12.9999 64.2489 12.9999C64.778 12.9999 67.7411 13.529 68.8107 14.164C69.8806 14.7989 73.2435 19.0319 73.773 20.0901C74.3025 21.1484 82.1582 30.1434 83.2974 31.6249C84.4366 33.1064 98.2186 51.6256 98.2186 52.2606C97.8573 52.3161 97.1199 52.494 96.145 52.7535" stroke="black" stroke-width="0.666667"/>
<path d="M35.6829 85.8618C36.5018 86.9146 39.7186 85.4873 43.6393 83.1163C46.2384 81.742 54.9443 76.0244 58.3197 73.5686C61.12 71.5309 66.0333 68.4077 78.1599 61.6149M35.6829 85.8618C36.2019 84.7538 38.164 82.1874 39.7284 81.0817C41.6838 79.6996 57.0066 70.0943 57.0066 70.0943M35.6829 85.8618C25.8812 76.2518 6.87211 54.0925 4.83066 52.6975C2.78921 51.3024 2.47222 48.7612 2.50166 48.2707C2.17252 47.1169 1.55996 45.567 2.50166 44.5653C3.44335 43.5637 12.052 39.6369 15.7337 36.5442C18.274 34.9879 18.5636 34.6664 21.9676 32.5882" stroke="black" stroke-width="0.666667"/>
<path d="M4.56201 46.897C4.56201 46.897 32.3145 75.1588 35.6518 81.4744M45.7153 67.7235C38.0414 55.2677 32.9601 41.8153 23.4938 27.1672" stroke="#221D1E" stroke-width="0.333333" stroke-miterlimit="10" stroke-dasharray="0.81 0.81"/>
</svg>
