<svg width="101" height="100" viewBox="0 0 101 100" fill="none" xmlns="http://www.w3.org/2000/svg">
<rect width="100" height="100" transform="translate(0.375)" fill="white"/>
<path d="M7.64878 58.0215C7.64878 58.0215 7.23325 59.5893 7.47498 60.5023C7.71678 61.4153 9.69578 65.9187 9.69578 65.9187L14.6913 77.4824C14.6913 77.4824 15.4972 79.1384 18.425 80.0111C21.3528 80.8837 25.264 80.5537 25.264 80.5537C25.264 80.5537 32.977 80.6797 41.5085 79.7351C50.0401 78.7911 58.0679 77.4471 63.7345 75.9991C69.4011 74.5511 86.7025 68.7997 91.5718 65.3571C92.0945 64.8055 93.0931 59.5368 93.0931 59.5368C93.0931 59.5368 88.5865 48.9999 79.6791 47.8867C78.6818 47.2268 77.5451 48.8457 77.5451 48.8457C77.5451 48.8457 61.768 45.774 44.2215 49.0896C8.01772 55.9337 7.64878 58.0215 7.64878 58.0215Z" fill="white" stroke="#221D1E" stroke-width="0.866667" stroke-miterlimit="10"/>
<path d="M11.9805 56.2647C11.9805 56.2647 8.97713 56.4987 9.21893 57.4117C9.46073 58.3247 10.4215 61.2247 10.4215 61.2247L15.417 72.7883C15.417 72.7883 16.2229 74.4443 19.1507 75.317C22.0785 76.1897 25.9898 75.8597 25.9898 75.8597C25.9898 75.8597 33.7027 75.9857 42.2343 75.0417C50.7657 74.097 58.7935 72.753 64.4602 71.305C70.1271 69.857 87.6578 63.5581 92.5271 60.1153C93.0498 59.5637 92.8025 58.6848 92.8025 58.6848C92.8025 58.6848 88.7211 50.5273 80.2011 44.8859C79.2038 44.226 78.2705 44.1517 78.2705 44.1517C78.2705 44.1517 63.512 42.6834 45.9655 45.999C9.76167 52.8431 11.9805 56.2647 11.9805 56.2647Z" stroke="#221D1E" stroke-width="0.333333" stroke-miterlimit="10" stroke-dasharray="0.81 0.81"/>
<path d="M15.7146 64.856L8.99769 48.9049C8.99769 48.9049 8.49395 48.6531 7.99022 44.0354C7.48655 39.4177 5.89106 33.6251 11.2644 30.0991C16.6376 26.5732 23.7726 25.7333 27.6348 27.5806C31.4969 29.4279 30.594 29.9732 32.5874 30.4139C34.5808 30.8547 40.8986 31.2325 45.0126 30.3724C49.1266 29.5123 54.0163 28.3991 57.794 26.0695C62.4231 19.9999 70.8412 17.6111 76.6832 19.7946C79.2505 19.9747 89.8425 32.3444 90.2619 32.5547C90.2619 32.5547 92.9692 35.7243 92.4025 38.5777C92.1505 41.7473 91.8359 42.7119 91.9199 43.3C92.0045 43.8881 92.8232 45.0843 92.8012 46.7C92.7799 48.3156 92.5712 51.6954 91.5205 52.3251C83.1379 58.8556 38.1521 68.7545 23.2601 67.3832C15.9085 66.7071 15.7146 64.856 15.7146 64.856Z" fill="white" stroke="#221D1E" stroke-width="0.866667" stroke-miterlimit="10"/>
<path d="M15.9131 65.2265C15.9131 65.2265 11.5611 47.5074 23.3113 43.1869C31.2181 40.2805 37.8369 43.4488 43.5627 46.7267C44.6381 47.3424 45.8545 47.6686 47.0924 47.6623C51.4243 47.6371 60.8637 45.7835 66.437 43.8618C67.509 43.4929 68.4017 42.7373 68.9583 41.7501C70.6397 38.7719 73.9397 32.8723 83.9437 32.8723C92.321 32.8723 92.309 36.4485 92.309 36.4485" fill="white"/>
<path d="M15.9131 65.2265C15.9131 65.2265 11.5611 47.5074 23.3113 43.1869C31.2181 40.2805 37.8369 43.4488 43.5627 46.7267C44.6381 47.3424 45.8545 47.6686 47.0924 47.6623C51.4243 47.6371 60.8637 45.7835 66.437 43.8618C67.509 43.4929 68.4017 42.7373 68.9583 41.7501C70.6397 38.7719 73.9397 32.8723 83.9437 32.8723C92.321 32.8723 92.309 36.4485 92.309 36.4485" stroke="#221D1E" stroke-width="0.866667" stroke-miterlimit="10"/>
<path d="M40.8471 49.0484C40.7338 49.0824 40.6205 49.1164 40.5059 49.1504" stroke="#221D1E" stroke-width="0.333333" stroke-miterlimit="10"/>
<path d="M39.8093 49.363C34.4273 51.0278 27.2897 53.7414 20.1309 57.8416" stroke="#221D1E" stroke-width="0.333333" stroke-miterlimit="10" stroke-dasharray="0.79 0.79"/>
<path d="M19.8134 58.0233C19.7101 58.0825 19.6081 58.143 19.5049 58.2022" stroke="#221D1E" stroke-width="0.333333" stroke-miterlimit="10"/>
<path d="M89.1942 43.9452C89.0755 43.9326 88.9575 43.9188 88.8389 43.9062" stroke="#221D1E" stroke-width="0.333333" stroke-miterlimit="10"/>
<path d="M88.1196 43.8278C83.5662 43.3405 78.9896 42.9665 74.4076 43.1264C73.3822 43.1616 72.2062 43.3769 71.1436 43.2586" stroke="#221D1E" stroke-width="0.333333" stroke-miterlimit="10" stroke-dasharray="0.79 0.79"/>
<path d="M70.7851 43.2041C70.6678 43.1814 70.5518 43.1538 70.4385 43.1198" stroke="#221D1E" stroke-width="0.333333" stroke-miterlimit="10"/>
<path d="M53.936 50.4784C53.9697 50.0394 53.3982 49.6376 52.6596 49.5809C51.9209 49.5242 51.2948 49.8342 51.2612 50.2732C51.2275 50.7122 51.799 51.114 52.5376 51.1707C53.2762 51.2274 53.9023 50.9174 53.936 50.4784Z" stroke="#221D1E" stroke-width="0.333333" stroke-miterlimit="10"/>
<path d="M50.3316 52.177C50.3736 51.6297 49.8313 51.1419 49.1204 51.0874C48.4095 51.0328 47.7992 51.4322 47.7572 51.9794C47.7152 52.5266 48.2574 53.0144 48.9684 53.069C49.6792 53.1236 50.2896 52.7242 50.3316 52.177Z" stroke="#221D1E" stroke-width="0.333333" stroke-miterlimit="10"/>
<path d="M62.9975 48.6704C63.0374 48.2739 62.4402 47.8892 61.6637 47.8111C60.8871 47.733 60.2253 47.9913 60.1855 48.3878C60.1456 48.7844 60.7428 49.1692 61.5193 49.2472C62.2959 49.3252 62.9577 49.067 62.9975 48.6704Z" stroke="#221D1E" stroke-width="0.333333" stroke-miterlimit="10"/>
<path d="M67.4317 48.666C67.4677 48.1936 66.913 47.766 66.1924 47.7106C65.4717 47.6554 64.8582 47.9934 64.822 48.4658C64.7857 48.938 65.3405 49.3658 66.0611 49.421C66.7817 49.4764 67.395 49.1383 67.4317 48.666Z" stroke="#221D1E" stroke-width="0.333333" stroke-miterlimit="10"/>
<path d="M52.7324 55.5372C52.7727 55.0121 52.337 54.5506 51.7593 54.5062C51.1815 54.4619 50.6805 54.8516 50.6403 55.3766C50.6 55.9016 51.0357 56.3632 51.6134 56.4075C52.1911 56.4518 52.6921 56.0622 52.7324 55.5372Z" stroke="#221D1E" stroke-width="0.333333" stroke-miterlimit="10"/>
<path d="M55.9597 53.4291C55.9944 52.9776 55.5547 52.5757 54.9777 52.5314C54.4006 52.4871 53.9047 52.8173 53.8701 53.2688C53.8355 53.7203 54.2751 54.1222 54.8522 54.1665C55.4293 54.2107 55.9251 53.8806 55.9597 53.4291Z" stroke="#221D1E" stroke-width="0.333333" stroke-miterlimit="10"/>
<path d="M63.4528 51.4536C63.4914 50.95 62.9667 50.4992 62.2807 50.4466C61.5948 50.3939 61.0075 50.7594 60.9688 51.263C60.9302 51.7665 61.4549 52.2173 62.1409 52.27C62.8268 52.3226 63.4141 51.957 63.4528 51.4536Z" stroke="#221D1E" stroke-width="0.333333" stroke-miterlimit="10"/>
<path d="M68.0823 52.185C68.123 51.6538 67.6017 51.1805 66.9177 51.128C66.2339 51.0756 65.6465 51.4638 65.6057 51.995C65.565 52.5263 66.0863 52.9995 66.7704 53.052C67.4537 53.1044 68.0417 52.7163 68.0823 52.185Z" stroke="#221D1E" stroke-width="0.333333" stroke-miterlimit="10"/>
<path d="M60.1238 43.1868C60.1238 43.1868 55.7579 39.7138 57.1016 32.2842L60.1238 43.1868Z" fill="white"/>
<path d="M60.1238 43.1868C60.1238 43.1868 55.7579 39.7138 57.1016 32.2842" stroke="#221D1E" stroke-width="0.333333" stroke-miterlimit="10"/>
<path d="M56.8471 44.2886C56.8471 44.2886 51.3113 39.545 54.2492 31.9894L56.8471 44.2886Z" fill="white"/>
<path d="M56.8471 44.2886C56.8471 44.2886 51.3113 39.545 54.2492 31.9894" stroke="#221D1E" stroke-width="0.333333" stroke-miterlimit="10"/>
<path d="M46.0206 45.5485C46.0206 45.5485 45.6428 40.5115 37.877 35.1382L46.0206 45.5485Z" fill="white"/>
<path d="M46.0206 45.5485C46.0206 45.5485 45.6428 40.5115 37.877 35.1382" stroke="#221D1E" stroke-width="0.333333" stroke-miterlimit="10"/>
<path d="M49.3701 44.9393C49.3701 44.9393 48.5478 40.343 42.084 35.7467L49.3701 44.9393Z" fill="white"/>
<path d="M49.3701 44.9393C49.3701 44.9393 48.5478 40.343 42.084 35.7467" stroke="#221D1E" stroke-width="0.333333" stroke-miterlimit="10"/>
</svg>
