<svg width="100" height="100" viewBox="0 0 100 100" fill="none" xmlns="http://www.w3.org/2000/svg">
<rect width="100" height="100" fill="white"/>
<path d="M3.07959 45.1827V68.8154L43.4116 80.8245L71.9511 69.7696V46.3199L42.8442 56.9992L3.07959 45.1827Z" stroke="#221D1E" stroke-width="0.860928" stroke-miterlimit="10"/>
<path d="M6.1875 43.5929L32.6974 36.0947L72.5292 46.2628" stroke="#221D1E" stroke-width="0.860928" stroke-miterlimit="10"/>
<path d="M8.85059 65.1924L15.4491 67.1008V58.9661L8.85059 56.9324V63.5443" stroke="#221D1E" stroke-width="0.860928" stroke-miterlimit="10"/>
<path d="M42.8447 56.9989V80.8245" stroke="#221D1E" stroke-width="0.860928" stroke-miterlimit="10"/>
<path d="M32.6968 36.0947V49.0577" stroke="#221D1E" stroke-width="0.860928" stroke-miterlimit="10"/>
<path d="M84.7067 56.2385L90.1603 49.058C96.2495 88.8342 49.001 101.412 21.9141 87.187" stroke="#221D1E" stroke-width="0.860928" stroke-miterlimit="10"/>
<path d="M97.5177 53.7613L90.1592 49.058" stroke="#221D1E" stroke-width="0.860928" stroke-miterlimit="10"/>
<path d="M66.8142 59.0913L58.061 62.0212" stroke="#221D1E" stroke-width="0.860928" stroke-miterlimit="10"/>
<path d="M86.1014 15.6335L45.2594 8M86.1014 15.6335L68.0849 17.6672L61.7462 32.6642L71.9519 46.3214L86.1014 15.6335ZM45.2594 8L32.6968 36.0953L21.9141 22.8717L28.0317 10.8431L45.2594 8Z" stroke="#221D1E" stroke-width="0.860928" stroke-miterlimit="10"/>
<path d="M66.8147 65.703L55.5317 69.7124" stroke="#221D1E" stroke-width="0.860928" stroke-miterlimit="10"/>
</svg>
