<svg width="100" height="100" viewBox="0 0 100 100" fill="none" xmlns="http://www.w3.org/2000/svg">
<rect width="100" height="100" fill="white"/>
<path d="M49.3235 42.7924C47.1531 36.1075 57.6542 20.5701 71.5475 22.2982C75.6466 22.8077 78.9303 26.6308 79.9801 30.6388C80.6274 33.1161 82.2828 39.6437 73.6712 49.2776" stroke="#221D1E" stroke-width="0.860928" stroke-miterlimit="10" stroke-linecap="round"/>
<path d="M49.5399 43.2177C50.3413 44.1714 52.0066 43.8045 52.7732 42.823C53.5421 41.8418 53.6617 40.5156 53.7463 39.2697C54.0026 35.5088 54.1943 31.6159 52.8627 28.0898C52.3002 26.6041 47.6134 14.825 38.6184 16.0958C20.4189 18.6705 26.0564 38.0484 26.9922 40.2211" stroke="#221D1E" stroke-width="0.860928" stroke-miterlimit="10" stroke-linecap="round"/>
<path d="M32.1797 59.4689C33.8696 62.3905 43.0839 77.6982 43.7236 79.8281C44.9133 78.2323 64.1702 59.2514 67.5729 54.6367" stroke="#221D1E" stroke-width="0.860928" stroke-miterlimit="10" stroke-linecap="round"/>
<path d="M59.312 68.4463C63.5855 71.036 68.7177 63.0575 69.6014 61.8064" stroke="#221D1E" stroke-width="0.860928" stroke-miterlimit="10" stroke-linecap="round"/>
<path d="M63.9028 71.0632C64.4603 72.6289 64.6593 72.8834 65.1597 73.3581C66.3469 74.4844 68.4251 74.4743 69.6027 73.3355" stroke="#221D1E" stroke-width="0.860928" stroke-miterlimit="10" stroke-linecap="round"/>
<path d="M26.917 71.7328C27.4745 73.2909 27.6735 73.5432 28.1739 74.0149C29.361 75.1363 31.4393 75.1265 32.6168 73.9926" stroke="#221D1E" stroke-width="0.860928" stroke-miterlimit="10" stroke-linecap="round"/>
<path d="M83.3668 83.9058C81.0076 82.9796 75.412 81.8133 72.7739 75.6257C71.0638 71.6152 70.7006 67.1752 69.9288 62.8802C69.1572 58.5876 67.9901 54.2026 65.2472 50.8187C64.7221 50.172 64.1443 49.5676 63.6517 48.896C63.1365 48.1969 58.0715 41.6641 61.3021 39.4691C64.7942 37.0969 68.7515 43.592 70.108 45.3149C71.462 47.0381 72.6369 48.8311 74.3963 50.1347C76.156 51.4382 77.9032 52.3047 80.0093 51.7154C81.4947 51.2983 82.8967 49.8274 82.4432 48.3466C80.5943 48.6162 79.4819 50.539 78.9189 52.327C78.3637 54.0951 78.075 55.9481 78.0625 57.8033" stroke="#221D1E" stroke-width="0.860928" stroke-miterlimit="10" stroke-linecap="round"/>
<path d="M83.9419 41.7965C87.1604 43.7392 89.9175 46.4462 91.9265 49.6302C94.8609 54.2823 96.1421 59.8136 96.6205 65.2997C97.0981 70.7861 96.8221 76.3073 96.8988 81.8134" stroke="#221D1E" stroke-width="0.860928" stroke-miterlimit="10" stroke-linecap="round"/>
<path d="M15.5654 59.4238C16.9964 56.4446 25.9616 42.6179 31.201 40.5202C31.4674 40.4128 31.7585 40.3129 32.0348 40.3931C32.2813 40.4655 32.4628 40.6726 32.6221 40.8747C33.802 42.3758 34.5263 44.4283 33.8544 46.2187C33.6004 46.8932 33.1698 47.4825 32.7814 48.0893C32.2963 48.8434 31.8732 49.6375 31.4622 50.434C29.108 55.0263 27.2185 59.8608 25.8374 64.8352C24.8243 68.4811 24.0728 72.2319 22.4996 75.6705C20.9267 79.1087 18.3729 82.2974 14.8486 83.6516" stroke="#221D1E" stroke-width="0.860928" stroke-miterlimit="10" stroke-linecap="round"/>
<path d="M26.917 62.9617C27.0563 63.7008 29.7943 69.0322 31.7703 71.0277C33.8587 73.1378 35.932 71.4444 36.6239 70.628" stroke="#221D1E" stroke-width="0.860928" stroke-miterlimit="10" stroke-linecap="round"/>
<path d="M3 70.1913C5.40433 65.7266 5.65319 60.4649 6.27548 55.4283C6.89766 50.3914 8.13488 45.05 11.8706 41.6315C14.1455 39.5512 17.1024 38.42 19.9823 37.3336" stroke="#221D1E" stroke-width="0.860928" stroke-miterlimit="10" stroke-linecap="round"/>
</svg>
