<svg width="101" height="100" viewBox="0 0 101 100" fill="none" xmlns="http://www.w3.org/2000/svg">
<g clip-path="url(#clip0_13161_191)">
<path d="M124.25 -23.625H-23V123.625H124.25V-23.625Z" fill="white"/>
<path d="M31.9996 41.0723C31.843 44.4254 32.1692 47.8047 32.965 51.0666" stroke="#221D1E" stroke-width="0.866667" stroke-miterlimit="10" stroke-linecap="round"/>
<path d="M32.731 50.5058C35.2622 60.8002 41.6555 64.1403 46.2352 65.419C47.2919 65.7061 49.3274 65.5495 50.4103 65.3538C51.1409 65.2233 51.8325 64.9232 52.4979 64.597C57.0776 62.392 61.2528 59.078 63.4708 54.6288C65.454 50.6493 65.7411 46.1218 65.9889 41.7118" stroke="#221D1E" stroke-width="0.866667" stroke-miterlimit="10" stroke-linecap="round"/>
<path d="M47.0176 48.992C47.9831 49.6052 49.34 49.6052 50.3186 49.005" stroke="#221D1E" stroke-width="0.866667" stroke-miterlimit="10" stroke-linecap="round"/>
<path d="M46.9458 57.69C47.9113 58.3032 49.2682 58.3032 50.2468 57.7031" stroke="#221D1E" stroke-width="0.866667" stroke-miterlimit="10" stroke-linecap="round"/>
<path d="M42.3467 53.3763C44.2124 54.0679 49.6011 55.8163 54.8461 53.2067" stroke="#221D1E" stroke-width="0.866667" stroke-miterlimit="10" stroke-linecap="round"/>
<path d="M54.2593 41.4375C55.3161 42.8858 57.4951 43.525 59.2435 42.8988C60.0785 42.5987 61.1354 42.2856 61.8791 41.7636" stroke="#221D1E" stroke-width="0.866667" stroke-miterlimit="10" stroke-linecap="round"/>
<path d="M53.0327 37.4583C54.207 36.6232 55.603 36.0361 57.0774 35.9448C58.5388 35.8535 60.0783 36.271 61.1352 37.2234" stroke="#221D1E" stroke-width="0.866667" stroke-miterlimit="10" stroke-linecap="round"/>
<path d="M43.2989 41.7118C42.242 43.16 40.0631 43.7994 38.3148 43.1731C37.4798 42.873 36.4229 42.5599 35.6792 42.0379" stroke="#221D1E" stroke-width="0.866667" stroke-miterlimit="10" stroke-linecap="round"/>
<path d="M44.5253 37.1847C43.3511 36.3497 41.955 35.7625 40.4807 35.6712C39.0194 35.5798 37.4797 35.9973 36.4229 36.9499" stroke="#221D1E" stroke-width="0.866667" stroke-miterlimit="10" stroke-linecap="round"/>
<path d="M66.3326 39.4243C69.5979 39.4243 70.229 41.4505 70.5683 42.8596C70.6988 43.3946 70.751 43.9556 70.7249 44.5036C70.6596 46.3433 69.5115 50.7142 65.9756 50.0096" stroke="#221D1E" stroke-width="0.866667" stroke-miterlimit="10" stroke-linecap="round"/>
<path d="M31.9997 41.0724C29.2075 39.6111 27.7071 43.1469 27.6288 44.5952C27.6027 45.1431 27.6419 45.7042 27.7593 46.2392C28.1507 48.0396 30.9951 51.3276 32.4303 50.7797" stroke="#221D1E" stroke-width="0.866667" stroke-miterlimit="10" stroke-linecap="round"/>
<path d="M65.9987 41.1315C65.9987 34.5173 65.2009 32.6099 62.7277 29.1734C60.2545 25.7368 56.1769 23.4817 52.1797 24.0339" stroke="#221D1E" stroke-width="0.866667" stroke-miterlimit="10" stroke-linecap="round"/>
<path d="M49.5488 14.9505C49.8881 17.5209 50.0186 20.1173 49.9273 22.7007" stroke="#221D1E" stroke-width="0.866667" stroke-miterlimit="10" stroke-linecap="round"/>
<path d="M68.8197 39.9505C74.678 29.9039 67.7368 11.2069 51.8188 12.0158" stroke="#221D1E" stroke-width="0.866667" stroke-miterlimit="10" stroke-linecap="round"/>
<path d="M48.6189 11.5271C42.7997 8.93072 19.1121 15.8122 27.86 41.9661" stroke="#221D1E" stroke-width="0.866667" stroke-miterlimit="10" stroke-linecap="round"/>
<path d="M47.6824 23.5495C43.5986 23.5103 39.7235 25.5588 36.9313 28.3378C34.1262 31.13 31.9863 36.4143 31.9863 40.7199" stroke="#221D1E" stroke-width="0.866667" stroke-miterlimit="10" stroke-linecap="round"/>
<path d="M65.9756 50.3232C68.9817 59.1302 79.4429 63.8273 81.8185 72.817" stroke="#221D1E" stroke-width="0.866667" stroke-miterlimit="10" stroke-linecap="round"/>
<path d="M32.4428 51.3668C31.5397 54.4068 29.8419 57.2903 27.4758 59.8084C25.489 61.9352 23.0506 63.7749 20.9374 65.8233C18.8241 67.8718 16.9818 70.2203 16.5303 72.8168" stroke="#221D1E" stroke-width="0.866667" stroke-miterlimit="10" stroke-linecap="round"/>
<path d="M52.2236 78.8749C53.6458 77.1923 55.7856 76.0438 58.0689 75.7562" stroke="#221D1E" stroke-width="0.866667" stroke-miterlimit="10" stroke-linecap="round"/>
<path d="M45.334 78.8749C43.9119 77.1923 41.772 76.0438 39.4888 75.7562" stroke="#221D1E" stroke-width="0.866667" stroke-miterlimit="10" stroke-linecap="round"/>
<path d="M85.429 83.0929C80.7681 74.8489 71.6325 76.9555 62.998 73.5822C60.4408 72.8124 57.9408 71.0709 56.7275 63.2317" stroke="#221D1E" stroke-width="0.866667" stroke-miterlimit="10" stroke-linecap="round"/>
<path d="M11.4453 83.0673C16.1069 74.8223 25.2423 76.9299 33.8768 73.556C36.434 72.7862 38.9956 72.0041 40.3021 63.1382" stroke="#221D1E" stroke-width="0.866667" stroke-miterlimit="10" stroke-linecap="round"/>
<path d="M79.3867 39.8355C85.3494 39.8355 86.2103 47.7553 86.2103 47.7553C86.2103 40.6705 92.8905 39.8355 92.8905 39.8355C86.1317 39.8355 86.1317 31.3155 86.1317 31.3155C86.1317 40.2269 79.3867 39.8355 79.3867 39.8355Z" stroke="#221D1E" stroke-width="0.866667" stroke-miterlimit="10" stroke-linejoin="round"/>
<path d="M4.625 54.8694C8.91763 54.8694 9.17856 60.6886 9.17856 60.6886C9.17856 54.8694 13.6408 54.8694 13.6408 54.8694C9.30902 54.8694 9.13939 48.6066 9.13939 48.6066C9.12643 54.8303 4.625 54.8694 4.625 54.8694Z" stroke="#221D1E" stroke-width="0.866667" stroke-miterlimit="10" stroke-linejoin="round"/>
<path d="M91.3174 62.9456C94.9191 62.9456 95.138 67.829 95.138 67.829C95.138 62.9456 98.8831 62.9456 98.8831 62.9456C95.248 62.9456 95.1056 57.69 95.1056 57.69C95.0948 62.9129 91.3174 62.9456 91.3174 62.9456Z" stroke="#221D1E" stroke-width="0.866667" stroke-miterlimit="10" stroke-linejoin="round"/>
</g>
<defs>
<clipPath id="clip0_13161_191">
<rect width="100" height="100" fill="white" transform="translate(0.375)"/>
</clipPath>
</defs>
</svg>
