<svg width="101" height="100" viewBox="0 0 101 100" fill="none" xmlns="http://www.w3.org/2000/svg">
<rect width="100" height="100" transform="translate(0.375)" fill="white"/>
<mask id="mask0_13161_141" style="mask-type:luminance" maskUnits="userSpaceOnUse" x="0" y="0" width="100" height="100">
<path d="M0.86998 0.847168H99.8799V99.8571H0.86998V0.847168Z" fill="white"/>
</mask>
<g mask="url(#mask0_13161_141)">
<path d="M14.4558 63.3854L16.8882 61.6437L22.5676 62.1377L24.1666 64.2809L29.5145 64.6906L31.6408 63.2856L37.231 63.8428L37.9025 68.1044L32.3667 67.5229L30.3206 68.9454L24.9562 68.5211L23.3705 66.4169L17.7313 65.922L15.2935 67.6403L9.93319 67.1382L8.31595 64.9832L5.14232 64.5662L4.07275 60.3845L7.42051 60.7067L9.05382 62.8669L14.4558 63.3854Z" fill="white" stroke="black" stroke-width="0.326733" stroke-miterlimit="10" stroke-linejoin="round"/>
<path d="M95.086 48.1647L38.0943 68.0917C38.0943 68.0917 37.5439 64.7796 37.4873 63.4865L94.8487 43.8955L95.2795 47.8703C95.2907 47.9992 95.2143 48.121 95.0906 48.164L95.086 48.1647Z" fill="white" stroke="black" stroke-width="0.326733" stroke-miterlimit="10" stroke-linejoin="round"/>
<path d="M8.7026 58.5644L14.0969 59.0695L16.5501 57.3404L22.1521 57.8666L23.8149 59.8747L29.2165 60.381L31.3345 58.8908L36.7831 59.1916L37.3888 63.8312L31.6347 63.2529L29.5755 64.6844L24.1772 64.2574L22.5814 62.1399L16.9064 61.6418L14.4533 63.371L9.0589 62.8658L7.43141 60.6971L4.3203 60.3955L3.74658 56.0943L6.89716 56.384L8.69995 58.5624L8.7026 58.5644Z" fill="white" stroke="black" stroke-width="0.326733" stroke-miterlimit="10" stroke-linejoin="round"/>
<path d="M84.8259 40.3004L80.9971 39.9702L79.3342 37.9621L73.7323 37.436L69.3545 38.9739L65.8313 38.5966L64.0793 36.4795L60.9287 36.1898" stroke="black" stroke-width="0.361017" stroke-miterlimit="10" stroke-linejoin="round"/>
<path d="M94.7514 43.772L37.3984 63.8253C37.3984 63.8253 36.8445 60.4921 36.7876 59.1909L94.5126 39.4756L94.946 43.4756C94.9573 43.6054 94.8806 43.7279 94.756 43.7712L94.7514 43.772Z" fill="white" stroke="black" stroke-width="0.326733" stroke-miterlimit="10" stroke-linejoin="round"/>
<path d="M88.5036 38.9974L31.3447 58.8838L36.7832 59.1915L94.5082 39.4763L88.5036 38.9974Z" fill="white" stroke="black" stroke-width="0.326733" stroke-miterlimit="10" stroke-linejoin="round"/>
<path d="M73.693 37.4587L16.5342 57.3451L22.0934 57.8335L79.3427 37.9676L73.693 37.4587Z" stroke="#221D1E" stroke-width="0.363212" stroke-miterlimit="10" stroke-linecap="round" stroke-linejoin="round" stroke-dasharray="0.89 0.89"/>
<path d="M6.87305 56.3853L64.06 36.4575" stroke="#221D1E" stroke-width="0.326733" stroke-miterlimit="10" stroke-linecap="round" stroke-linejoin="round" stroke-dasharray="0.89 0.89"/>
<path d="M60.924 36.1852L3.76514 56.0716" stroke="black" stroke-width="0.326733" stroke-miterlimit="10" stroke-linejoin="round"/>
<path d="M8.65967 58.5365L65.8466 38.6086" stroke="#221D1E" stroke-opacity="0.5" stroke-width="0.326733" stroke-miterlimit="10" stroke-linecap="round" stroke-linejoin="round" stroke-dasharray="0.89 0.89"/>
<path d="M23.7959 59.8628L80.9828 39.9349" stroke="#221D1E" stroke-opacity="0.5" stroke-width="0.326733" stroke-miterlimit="10" stroke-linecap="round" stroke-linejoin="round" stroke-dasharray="0.89 0.89"/>
<path d="M54.9711 29.4668C54.9711 29.4668 76.7637 29.6168 89.4646 30.1437C92.7527 30.2801 93.4263 33.6754 93.4263 33.6754L35.6353 53.1939L30.365 52.9174L28.2472 54.4076L22.8456 53.9013L21.1826 51.893L15.5806 51.3669L13.1275 53.0961L7.73316 52.5909L7.7305 52.589L5.92771 50.4106L2.49241 50.0865C2.49241 50.0865 1.66301 46.8344 3.03016 45.9456C3.24388 45.8066 3.45732 45.7085 3.61591 45.6574L54.9711 29.4668Z" fill="white" stroke="black" stroke-width="0.851485" stroke-linecap="round" stroke-linejoin="round"/>
<path d="M8.40069 69.4862L8.44452 69.0627L8.45333 69.0638L8.40069 69.4862ZM3.22632 56.4369L3.17041 56.0148L4.01452 55.903L4.07044 56.325L3.22632 56.4369ZM39.8509 72.225C39.3409 72.3886 38.4594 72.4562 37.3685 72.4696C36.2578 72.4833 34.8724 72.4401 33.3175 72.357C30.2067 72.1907 26.3945 71.8631 22.6976 71.5005C18.9995 71.1378 15.4124 70.7399 12.75 70.4327C11.4187 70.2791 10.3185 70.1481 9.55094 70.0555C9.16716 70.0092 8.86656 69.9726 8.66184 69.9474C8.55948 69.9348 8.48109 69.9251 8.42826 69.9186C8.40185 69.9153 8.38183 69.9129 8.36839 69.9112C8.36167 69.9104 8.3566 69.9097 8.3532 69.9093C8.3515 69.9091 8.35022 69.9089 8.34936 69.9088C8.34893 69.9088 8.34958 69.9088 8.34936 69.9088C8.34914 69.9088 8.34804 69.9087 8.40069 69.4862C8.45333 69.0637 8.45313 69.0638 8.45333 69.0638C8.45354 69.0638 8.45414 69.0638 8.45456 69.0638C8.45539 69.0639 8.45664 69.0641 8.45831 69.0643C8.46165 69.0647 8.46665 69.0653 8.47331 69.0662C8.48662 69.0678 8.50652 69.0703 8.5328 69.0735C8.58537 69.0801 8.66349 69.0897 8.76557 69.1023C8.96974 69.1273 9.26975 69.1639 9.6529 69.2102C10.4192 69.3026 11.518 69.4334 12.8477 69.5868C15.5071 69.8936 19.0891 70.2911 22.7806 70.6531C26.4732 71.0151 30.2707 71.3415 33.3629 71.5067C34.9095 71.5894 36.274 71.6315 37.358 71.6182C38.4617 71.6046 39.2197 71.5332 39.5909 71.4142L39.8509 72.225ZM8.35688 69.9097C8.01117 69.8739 7.59016 69.7621 7.13944 69.399C6.69918 69.0442 6.25407 68.4689 5.8123 67.5489C4.93204 65.7157 4.0181 62.4134 3.22632 56.4369L4.07044 56.325C4.85945 62.2807 5.76 65.4729 6.57988 67.1803C6.98817 68.0306 7.36453 68.4868 7.67364 68.7359C7.97229 68.9765 8.22855 69.0403 8.44452 69.0627L8.35688 69.9097ZM39.5909 71.4142C39.8033 71.3461 40.0771 71.2419 40.3034 71.1521C40.4154 71.1077 40.5135 71.0677 40.5836 71.0388C40.6186 71.0244 40.6466 71.0128 40.6656 71.0048C40.6752 71.0009 40.6825 70.9978 40.6874 70.9957C40.6898 70.9947 40.6916 70.9939 40.6928 70.9935C40.6934 70.9932 40.6938 70.9931 40.6941 70.9929C40.6941 70.9929 40.6944 70.9928 40.8599 71.385C41.0254 71.7773 41.0254 71.7773 41.0254 71.7773C41.0251 71.7774 41.0238 71.778 41.0231 71.7783C41.0216 71.7789 41.0195 71.7798 41.0169 71.7809C41.0115 71.7831 41.0036 71.7864 40.9935 71.7907C40.9734 71.7991 40.9442 71.8112 40.9079 71.8261C40.8352 71.8561 40.7336 71.8975 40.6175 71.9436C40.3878 72.0347 40.0919 72.1478 39.8509 72.225L39.5909 71.4142Z" fill="black"/>
<path d="M3.61608 45.6571C3.45749 45.7082 2.86492 45.9388 3.03033 45.9453C3.03033 45.9453 32.4166 48.7127 36.4571 48.3868C40.4976 48.061 88.1975 31.0256 88.1975 31.0256" stroke="#221D1E" stroke-width="0.326733" stroke-miterlimit="10" stroke-linecap="round" stroke-linejoin="round" stroke-dasharray="0.89 0.89"/>
<path d="M36.7729 59.1781C37.1439 62.7226 37.8923 68.7359 38.3261 69.8973C38.8019 71.174 39.7279 71.7847 41.0155 71.3331L92.9148 53.1263L92.9102 53.0824C95.241 52.3096 95.4448 50.2132 95.2058 47.6659L94.2556 39.3545" stroke="black" stroke-width="0.851485" stroke-miterlimit="10"/>
<path d="M86.4148 18.5684H85.3716V24.4782H86.4148V18.5684Z" fill="black"/>
<path d="M75.2516 21.5233C75.2516 19.7176 74.0311 18.4976 72.2259 18.4976C70.4208 18.4976 69.2002 19.7176 69.2002 21.5233C69.2002 23.329 70.4208 24.549 72.2259 24.549C74.0311 24.549 75.2516 23.329 75.2516 21.5233ZM72.2259 23.5651C71.0374 23.5651 70.2435 22.7669 70.2435 21.5233C70.2435 20.2797 71.0374 19.4809 72.2259 19.4809C73.4144 19.4809 74.2077 20.2797 74.2077 21.5233C74.2077 22.7669 73.4144 23.5651 72.2259 23.5651Z" fill="black"/>
<path d="M90.4593 18.4976C88.6542 18.4976 87.4336 19.7176 87.4336 21.5233C87.4336 23.329 88.6542 24.549 90.4593 24.549C91.2975 24.549 91.9759 24.2646 92.4327 23.7685H92.4467L92.6718 24.4812H93.4851V21.5233C93.4851 19.7176 92.2645 18.4976 90.4593 18.4976ZM90.4593 23.5651C89.2708 23.5651 88.4776 22.7657 88.4776 21.5233C88.4776 20.2809 89.2708 19.4809 90.4593 19.4809C91.6479 19.4809 92.4424 20.2797 92.4424 21.5233C92.4424 22.7669 91.6297 23.5651 90.4593 23.5651Z" fill="black"/>
<path d="M82.0677 18.4976C81.2362 18.4976 80.6407 18.9393 80.3805 19.3302H80.3732C80.0307 18.7911 79.3892 18.4976 78.6389 18.4976C78.078 18.4966 77.5395 18.7182 77.1417 19.1136H77.1327L76.9602 18.569H76.1475V24.4813H77.1932V20.3385C77.1932 19.8325 77.6827 19.4809 78.4186 19.4809C79.1938 19.4809 79.644 19.8652 79.644 20.4921V24.4813H80.6873V20.4056C80.6873 19.855 81.1199 19.4809 81.8879 19.4809C82.6559 19.4809 83.1133 19.8786 83.1133 20.4921V24.4813H84.1566V20.4268C84.1572 19.2129 83.2864 18.4976 82.0677 18.4976Z" fill="black"/>
<path d="M67.1329 21.2335L65.7163 20.8504C65.4209 20.7699 65.2545 20.6949 65.1384 20.5998C65.083 20.5551 65.039 20.498 65.0096 20.4332C64.9801 20.3683 64.9662 20.2976 64.969 20.2265C64.969 20.0347 65.0524 19.8597 65.2539 19.7175C65.4808 19.5571 65.7744 19.4809 66.2827 19.4809C66.9103 19.4809 67.522 19.6921 68.057 20.0104L68.3735 19.0955C67.8555 18.7396 67.087 18.4969 66.2948 18.4969C65.4155 18.4969 64.9744 18.6507 64.5399 18.9751C64.3444 19.1219 64.1855 19.3119 64.0755 19.5302C63.9655 19.7485 63.9074 19.9893 63.9057 20.2338C63.9057 20.6652 64.0122 20.9732 64.2318 21.2316C64.4352 21.47 64.7481 21.6625 65.2957 21.815L66.7607 22.2241C67.0209 22.2972 67.1796 22.356 67.2914 22.4425C67.3581 22.4914 67.4113 22.5562 67.4466 22.6308C67.4817 22.7056 67.4977 22.7879 67.493 22.8703C67.493 23.0864 67.3629 23.2625 67.179 23.3745C66.9949 23.4864 66.6209 23.5681 66.1278 23.5681C65.4252 23.5681 64.6203 23.2825 64.0999 22.9799L63.7822 23.8967C64.1199 24.1387 65.1257 24.5484 66.132 24.5484C66.9303 24.5484 67.4985 24.411 67.9305 24.051C68.3269 23.7206 68.552 23.3084 68.552 22.7542C68.5496 22.011 68.0963 21.4961 67.1329 21.2335Z" fill="black"/>
</g>
</svg>
