<svg width="100" height="100" viewBox="0 0 100 100" fill="none" xmlns="http://www.w3.org/2000/svg">
<path d="M92.1954 57.5C93.4588 58.9293 94.6208 60.258 95.563 61.4693C97.387 63.8139 96.389 65.5255 95.971 66.892C94.9237 70.32 94.3584 69.1973 81.9724 69.316C76.5004 69.368 66.4716 69.446 52.1433 72.8326C39.6139 75.7946 31.172 79.7366 31.172 79.7366C28.8274 80.7786 23.9219 84.482 19.6234 84.0913C14.2829 83.7 12.5466 78.5173 12.5466 78.5173L9.81121 72.0046C9.81121 72.0046 3.42209 57.047 3.172 54.9616C2.89139 52.6232 2.96005 49.7676 6 48.2421" stroke="#221D1E" stroke-width="0.866667" stroke-miterlimit="10"/>
<path d="M3.97363 49.5623C4.22373 51.6477 10.6461 67.3071 10.6461 67.3071L13.3815 73.8198C13.3815 73.8198 15.1178 79.0031 20.4583 79.3938C24.7568 79.7845 29.6623 76.0811 32.0069 75.0391C32.0069 75.0391 40.4489 71.0978 52.9783 68.1358C67.3065 64.749 77.3351 64.6709 82.8071 64.6188C95.1931 64.5003 95.4527 65.9284 96.5 62.5" stroke="#221D1E" stroke-width="0.333333" stroke-miterlimit="10" stroke-dasharray="0.81 0.81"/>
<path d="M13.6664 67.3902C15.1005 72.3722 21.2395 73.7528 25.2593 71.1675C25.65 70.9068 33.3352 66.348 41.6716 64.0034C50.0081 61.6588 63.685 58.4023 75.0173 57.8813C86.3499 57.3602 92.8626 57.8813 94.8166 57.23C100.368 54.7252 94.3019 38.5186 87.6526 38.3428C84.7439 33.6509 84.4286 34.9027 83.6146 30.2668C82.8586 25.8616 81.6906 22.7354 78.1446 19.5858C76.4513 18.8042 74.7579 18.5437 73.0646 18.8042C61.7051 21.5084 61.0797 25.8406 42.4569 28.313C31.9499 29.7079 25.7816 28.313 23.1765 28.313C20.5713 28.313 11.4533 27.6617 8.19694 29.2248C3.2185 31.813 4.03651 37.6368 3.89844 41.4689C4.27358 45.2282 13.6664 67.3902 13.6664 67.3902Z" stroke="#221D1E" stroke-width="0.866667" stroke-miterlimit="10"/>
<path d="M12.8871 59.7052C12.8871 59.7052 16.0133 52.1503 23.6985 49.936C31.3837 47.7216 34.2493 46.6795 35.0308 43.1626C35.8124 39.6456 31.6911 36.4166 26.4339 35.4774C22.7867 34.8262 15.3621 33.7841 11.7149 36.9102C9.68547 38.6492 7.5466 42.9021 7.28613 46.419L12.8871 59.7052Z" stroke="#221D1E" stroke-width="0.866667" stroke-miterlimit="10"/>
<path d="M87.6543 38.3431C87.6543 38.3431 82.053 38.0826 76.1917 38.7338C70.3303 39.3851 64.3383 35.2169 65.1198 31.0487C65.9013 26.8805 70.721 26.2292 73.5863 25.8384C76.4523 25.4476 79.5637 25.5102 82.8283 26.7815" stroke="#221D1E" stroke-width="0.866667" stroke-miterlimit="10"/>
<path opacity="0.06" d="M21.6117 72.4033C21.6117 72.4033 23.6698 72.2132 25.4634 71.1126C27.257 70.0119 30.0458 68.6533 30.0458 68.6533L35.075 66.3774C43.4584 63.0572 53.707 61.0043 62.567 59.3514C72.5042 57.5499 83.8408 57.8326 93.8888 57.4926L95.0222 57.2568L95.7722 56.8452L96.4015 55.8853L96.8195 54.3613L96.8948 52.0843C96.7975 51.661 96.4662 50.3715 96.0602 50.2243C96.0602 50.2243 95.2108 49.6447 94.8748 49.4493C94.4488 49.2005 93.4155 48.8618 92.9388 48.7329C92.3922 48.5857 86.7142 48.0555 82.4688 48.6482C66.7962 50.8391 64.9482 52.1859 62.2922 54.8874C62.1385 55.0438 60.1104 50.6502 62.4224 47.5019C56.9191 46.9053 53.7422 49.0012 52.1869 49.6355C55.7468 50.9094 56.3916 54.9213 56.3356 55.5727C40.0769 51.7392 32.4478 53.8011 28.2157 55.1063C25.001 56.0976 20.795 58.6753 19.0326 63.4584C17.0683 69.3379 17.394 70.1366 18.7056 72.3286L20.3912 72.5879L21.6012 72.4359L21.6117 72.4033Z" fill="url(#paint0_linear_440_5063)"/>
<path d="M35.126 36.8087C35.126 36.8087 35.1442 36.6784 35.2158 36.4518" stroke="#221D1E" stroke-width="0.333333" stroke-miterlimit="10"/>
<path d="M35.4941 35.7704C36.4046 33.9064 39.4982 30.0977 49.7169 29.1246C56.8627 28.5203 60.7431 30.3283 62.1369 31.1801" stroke="#221D1E" stroke-width="0.333333" stroke-miterlimit="10" stroke-dasharray="0.81 0.81"/>
<path d="M62.4453 31.3794C62.6446 31.5161 62.741 31.5995 62.741 31.5995" stroke="#221D1E" stroke-width="0.333333" stroke-miterlimit="10"/>
<path d="M39.8496 43.8135C39.8496 43.8135 39.9643 43.8734 40.1817 43.975" stroke="#221D1E" stroke-width="0.333333" stroke-miterlimit="10"/>
<path d="M40.8613 44.2743C43.4274 45.3476 50.5316 47.7378 58.2155 45.246C63.5404 43.2739 65.2077 40.1816 65.7027 38.7957" stroke="#221D1E" stroke-width="0.333333" stroke-miterlimit="10" stroke-dasharray="0.82 0.82"/>
<path d="M65.8174 38.4413C65.8825 38.2121 65.9008 38.0818 65.9008 38.0818" stroke="#221D1E" stroke-width="0.333333" stroke-miterlimit="10"/>
<path d="M96.8125 52.414C96.8318 52.2876 96.8425 52.1652 96.8452 52.0466" stroke="#221D1E" stroke-width="0.333333" stroke-miterlimit="10"/>
<path d="M96.7525 51.3189C94.8431 44.7891 64.1217 50.4488 62.5339 54.7225C61.4072 55.7372 60.9917 50.1361 61.9959 48.0859" stroke="#221D1E" stroke-width="0.333333" stroke-miterlimit="10" stroke-dasharray="0.81 0.81"/>
<path d="M62.1836 47.7676C62.2617 47.6595 62.3477 47.5709 62.4389 47.5032" stroke="#221D1E" stroke-width="0.333333" stroke-miterlimit="10"/>
<path d="M18.4446 72.1899C17.5002 70.9886 17.693 69.7393 17.693 69.7393C18.5019 49.6188 44.2446 52.3568 56.1604 55.5377C56.3519 55.6002 56.5434 55.5194 56.4939 55.3227C56.12 53.8235 54.9608 50.4902 51.888 49.5276" stroke="#221D1E" stroke-width="0.333333" stroke-miterlimit="10" stroke-dasharray="0.81 0.81"/>
<path d="M77.0177 38.6033C76.9317 38.5134 76.847 38.4248 76.7637 38.335" stroke="#221D1E" stroke-width="0.333333" stroke-miterlimit="10"/>
<path d="M76.2624 37.7852C72.2897 33.3122 71.1124 29.2247 71.1124 29.2247C71.1124 29.2247 70.8517 27.9221 69.1584 28.1826C67.7958 28.3923 66.6393 29.1074 65.9854 29.592" stroke="#221D1E" stroke-width="0.333333" stroke-miterlimit="10" stroke-dasharray="0.82 0.82"/>
<path d="M65.6928 29.821C65.5131 29.9682 65.4141 30.0619 65.4141 30.0619" stroke="#221D1E" stroke-width="0.333333" stroke-miterlimit="10"/>
<path d="M83.8757 31.6996C83.8757 31.6996 83.7663 31.6371 83.541 31.5459" stroke="#221D1E" stroke-width="0.333333" stroke-miterlimit="10"/>
<path d="M82.8417 31.3152C81.3584 30.9048 78.2124 30.4763 72.9971 31.775" stroke="#221D1E" stroke-width="0.333333" stroke-miterlimit="10" stroke-dasharray="0.81 0.81"/>
<path d="M72.6389 31.866C72.5209 31.8972 72.4022 31.9285 72.2822 31.961" stroke="#221D1E" stroke-width="0.333333" stroke-miterlimit="10"/>
<path d="M29.952 36.5185C29.952 36.5185 29.8178 36.499 29.5859 36.4717" stroke="#221D1E" stroke-width="0.333333" stroke-miterlimit="10"/>
<path d="M28.844 36.3927C27.376 36.2521 24.8229 36.1114 23.5673 36.6493C22.6555 37.1704 21.6135 39.3847 21.2227 41.0781C21.9547 42.6464 24.3657 46.9722 25.2893 48.6173" stroke="#221D1E" stroke-width="0.333333" stroke-miterlimit="10" stroke-dasharray="0.82 0.82"/>
<path d="M25.4727 48.9429C25.5886 49.1487 25.6537 49.2646 25.6537 49.2646" stroke="#221D1E" stroke-width="0.333333" stroke-miterlimit="10"/>
<path d="M23.5684 36.6492L23.7559 36.9683" stroke="#221D1E" stroke-width="0.333333" stroke-miterlimit="10"/>
<path d="M24.1201 37.5854L29.759 47.1567" stroke="#221D1E" stroke-width="0.333333" stroke-miterlimit="10" stroke-dasharray="0.79 0.79"/>
<path d="M29.9385 47.4658L30.1261 47.7836" stroke="#221D1E" stroke-width="0.333333" stroke-miterlimit="10"/>
<path d="M21.1459 41.0884C21.1459 41.0884 21.0144 41.091 20.7773 41.1027" stroke="#221D1E" stroke-width="0.333333" stroke-miterlimit="10"/>
<path d="M20.0082 41.1499C17.2298 41.3518 10.1425 42.1985 7.67676 45.6451" stroke="#221D1E" stroke-width="0.333333" stroke-miterlimit="10" stroke-dasharray="0.85 0.85"/>
<path d="M7.4646 45.968C7.4008 46.0736 7.34087 46.1817 7.28613 46.2911" stroke="#221D1E" stroke-width="0.333333" stroke-miterlimit="10"/>
<path d="M12.8897 33.1135C19.2723 33.1135 24.4465 27.9394 24.4465 21.5569C24.4465 15.1742 19.2723 10.0001 12.8897 10.0001C6.50713 10.0001 1.33301 15.1742 1.33301 21.5569C1.33301 27.9394 6.50713 33.1135 12.8897 33.1135Z" fill="#D9D9D9"/>
<path d="M12.8897 33.1135C19.2723 33.1135 24.4465 27.9394 24.4465 21.5569C24.4465 15.1742 19.2723 10.0001 12.8897 10.0001C6.50713 10.0001 1.33301 15.1742 1.33301 21.5569C1.33301 27.9394 6.50713 33.1135 12.8897 33.1135Z" fill="url(#paint1_linear_440_5063)"/>
<path d="M12.8905 31.8279C7.22415 31.8279 2.61914 27.223 2.61914 21.5566C2.61914 15.8903 7.22415 11.2853 12.8905 11.2853C18.5568 11.2853 23.1619 15.8903 23.1619 21.5566C23.1619 27.223 18.5568 31.8279 12.8905 31.8279ZM12.8905 11.7983C7.50716 11.7983 3.13212 16.1733 3.13212 21.5566C3.13212 26.9399 7.50716 31.315 12.8905 31.315C18.2738 31.315 22.6489 26.9399 22.6489 21.5566C22.6489 16.1733 18.2679 11.7983 12.8905 11.7983Z" fill="#796295"/>
<path d="M24.4405 21.5569C24.4405 27.9366 19.2696 33.1135 12.8838 33.1135C6.49817 33.1135 1.33301 27.9366 1.33301 21.5569C1.33301 15.1771 6.50406 10.0001 12.8897 10.0001C19.2754 10.0001 24.4465 15.1712 24.4465 21.5569H24.4405ZM2.68326 21.5569C2.68326 27.1936 7.25289 31.7633 12.8897 31.7633C18.5266 31.7633 23.0963 27.1936 23.0963 21.5569C23.0963 15.92 18.5266 11.3504 12.8897 11.3504C7.25289 11.3504 2.68326 15.92 2.68326 21.5569Z" fill="url(#paint2_linear_440_5063)"/>
<path d="M12.8899 31.3215C7.50294 31.3215 3.125 26.9436 3.125 21.5568C3.125 16.1698 7.50294 11.7919 12.8899 11.7919C18.2768 11.7919 22.6547 16.1698 22.6547 21.5568C22.6547 26.9436 18.2768 31.3215 12.8899 31.3215ZM12.8899 12.2796C7.77201 12.2796 3.61268 16.4389 3.61268 21.5568C3.61268 26.6747 7.77201 30.8338 12.8899 30.8338C18.0077 30.8338 22.167 26.6747 22.167 21.5568C22.167 16.4389 18.0022 12.2796 12.8899 12.2796Z" fill="url(#paint3_linear_440_5063)"/>
<path d="M12.8905 31.8279C7.22415 31.8279 2.61914 27.223 2.61914 21.5566C2.61914 15.8903 7.22415 11.2853 12.8905 11.2853C18.5568 11.2853 23.1619 15.8903 23.1619 21.5566C23.1619 27.223 18.5568 31.8279 12.8905 31.8279ZM12.8905 11.7983C7.50716 11.7983 3.13212 16.1733 3.13212 21.5566C3.13212 26.9399 7.50716 31.315 12.8905 31.315C18.2738 31.315 22.6489 26.9399 22.6489 21.5566C22.6489 16.1733 18.2679 11.7983 12.8905 11.7983Z" fill="url(#paint4_linear_440_5063)"/>
<path d="M10.2984 24.8275C9.72064 24.8275 9.18849 24.6906 8.70194 24.4171C8.22148 24.1434 7.83831 23.7693 7.55247 23.295C7.27269 22.8205 7.13281 22.2944 7.13281 21.7167C7.13281 21.1388 7.27269 20.6129 7.55247 20.1384C7.83831 19.6641 8.22148 19.29 8.70194 19.0164C9.18849 18.7427 9.72064 18.6058 10.2984 18.6058C10.8519 18.6058 11.3536 18.7305 11.8037 18.9799C12.2598 19.2293 12.6186 19.5667 12.8802 19.9924L12.1503 20.5307C11.9375 20.1962 11.676 19.9408 11.3658 19.7643C11.0556 19.5821 10.7029 19.4908 10.3075 19.4908C9.90006 19.4908 9.52907 19.588 9.19457 19.7826C8.86614 19.9713 8.60767 20.2358 8.41913 20.5763C8.2306 20.9169 8.13632 21.297 8.13632 21.7167C8.13632 22.1364 8.2306 22.5165 8.41913 22.857C8.60767 23.1976 8.86614 23.4653 9.19457 23.6599C9.52907 23.8484 9.90006 23.9426 10.3075 23.9426C10.7029 23.9426 11.0556 23.8544 11.3658 23.6781C11.676 23.4956 11.9375 23.2372 12.1503 22.9026L12.8802 23.4408C12.6247 23.8667 12.2689 24.2042 11.8128 24.4536C11.3627 24.703 10.858 24.8275 10.2984 24.8275Z" fill="#735B42"/>
<path d="M15.477 24.8274C15.106 24.8274 14.7715 24.7486 14.4735 24.5904C14.1755 24.426 13.9414 24.195 13.7711 23.897C13.6008 23.593 13.5156 23.2432 13.5156 22.848V20.248H14.4644V22.9209C14.4644 23.231 14.5587 23.4804 14.7472 23.6689C14.9418 23.8513 15.1851 23.9426 15.477 23.9426C15.7568 23.9426 15.9909 23.8513 16.1795 23.6689C16.368 23.4804 16.4623 23.231 16.4623 22.9209V20.248H17.4202V22.848C17.4202 23.2432 17.335 23.593 17.1647 23.897C16.9944 24.195 16.7603 24.426 16.4623 24.5904C16.1704 24.7486 15.8419 24.8274 15.477 24.8274Z" fill="#735B42"/>
<path d="M18.2486 19.4666H17.624V18.9149H18.2486V18.2711H18.8693V18.9149H19.4901V19.4666H18.8693V20.1104H18.2486V19.4666Z" fill="#735B42"/>
<defs>
<linearGradient id="paint0_linear_440_5063" x1="57.829" y1="65.5417" x2="56.283" y2="52.556" gradientUnits="userSpaceOnUse">
<stop stop-opacity="0.3"/>
<stop offset="0.9366" stop-opacity="0"/>
</linearGradient>
<linearGradient id="paint1_linear_440_5063" x1="12.8897" y1="10.0001" x2="12.8897" y2="33.1135" gradientUnits="userSpaceOnUse">
<stop stop-color="#FFFAF2"/>
<stop offset="1" stop-color="#F1DDB7"/>
</linearGradient>
<linearGradient id="paint2_linear_440_5063" x1="1.33301" y1="22.6946" x2="24.4465" y2="22.902" gradientUnits="userSpaceOnUse">
<stop stop-color="#FFFAF2"/>
<stop offset="1" stop-color="#F1DDB7"/>
</linearGradient>
<linearGradient id="paint3_linear_440_5063" x1="2.61851" y1="13.2261" x2="24.3423" y2="24.9386" gradientUnits="userSpaceOnUse">
<stop stop-color="#DAC5A5"/>
<stop offset="0.380208" stop-color="#AB8F76"/>
<stop offset="1" stop-color="#735B42"/>
</linearGradient>
<linearGradient id="paint4_linear_440_5063" x1="2.61914" y1="13.226" x2="24.3429" y2="24.9385" gradientUnits="userSpaceOnUse">
<stop stop-color="#DAC5A5"/>
<stop offset="0.380208" stop-color="#AB8F76"/>
<stop offset="1" stop-color="#735B42"/>
</linearGradient>
</defs>
</svg>
