<svg width="101" height="29" viewBox="0 0 101 29" fill="none" xmlns="http://www.w3.org/2000/svg">
<path d="M35.3246 1.22021C32.3171 1.22021 29.3095 1.22021 26.3019 1.22021C25.0356 1.22021 23.9275 1.54111 23.2943 2.66424C22.8194 3.46648 22.3446 4.26872 22.028 5.07096C20.9199 8.76126 19.8118 12.4516 18.7038 16.3023C18.7038 16.6232 18.3872 16.7836 18.2289 16.9441C18.0706 16.7836 17.754 16.4628 17.754 16.3023C17.1209 14.2165 16.646 12.2911 16.0128 10.2053C15.3796 8.11947 14.7465 6.03365 14.1133 3.94783C13.4801 2.1829 12.0555 1.38066 10.1559 1.38066C7.14835 1.38066 4.29905 1.38066 1.29147 1.38066C0.658294 1.38066 0.5 1.54111 0.5 2.1829C0.5 10.5262 0.5 18.8695 0.5 27.2128C0.5 27.8545 0.816597 28.015 1.44977 28.015C3.82418 28.015 6.19859 28.015 8.573 28.015C9.52276 28.015 9.52275 28.015 9.52275 27.0523C9.52275 22.3993 9.52275 17.9068 9.52275 13.2538C9.52275 12.9329 9.68105 12.612 9.68105 12.2911C9.83934 12.612 10.1559 12.7725 10.3142 13.0933C11.7389 17.7463 13.3218 22.3993 14.7464 27.2128C14.9047 27.8545 15.2213 28.015 15.8545 28.015C17.4374 28.015 19.0204 28.015 20.7616 28.015C22.028 28.015 22.028 28.015 22.3446 26.8919C23.7692 22.2389 25.3521 17.5859 26.7768 13.0933C26.7768 12.7725 26.9351 12.612 27.0934 12.4516C27.2517 12.4516 27.2517 12.4516 27.41 12.4516C27.41 12.7725 27.41 13.0934 27.41 13.4142C27.41 18.0672 27.41 22.5598 27.41 27.2128C27.41 27.8545 27.5683 28.1754 28.3597 28.1754C30.8924 28.1754 33.2668 28.1754 35.7995 28.1754C36.4327 28.1754 36.591 28.015 36.591 27.3732C36.591 19.0299 36.591 10.6866 36.591 2.34335C36.1161 1.54111 35.9578 1.22021 35.3246 1.22021Z" fill="#c1bfbd"/>
<path d="M67.2991 1.22018C64.7664 1.22018 62.2337 1.22018 59.701 1.22018C59.3844 1.22018 58.9095 1.22018 58.5929 1.38063C57.3266 1.86197 56.3768 2.66421 55.7436 3.78735C54.1607 6.9963 52.736 10.2053 51.1531 13.4142C50.6782 14.3769 50.2034 15.3396 49.7285 16.3023C49.5702 16.4627 49.4119 16.6232 49.2536 16.6232C49.0953 16.4627 49.0953 16.3023 48.937 15.9814C48.937 15.8209 48.937 15.5 48.937 15.3396C48.937 10.847 48.937 6.35451 48.937 1.70152C48.937 1.05973 48.7787 0.738838 47.9872 0.899286C45.4545 0.899286 42.9218 0.899286 40.3891 0.899286C39.756 0.899286 39.5977 1.05973 39.5977 1.70152C39.5977 10.0448 39.5977 18.3881 39.5977 26.7314C39.5977 27.3732 39.756 27.5336 40.3891 27.5336C42.7635 27.5336 45.2962 27.5336 47.6707 27.5336C49.8868 27.5336 51.3114 26.5709 52.2612 24.6456C53.5275 21.9179 54.7939 19.0299 56.2185 16.1418C56.8517 14.8582 57.3266 13.5747 57.9598 12.2911C58.118 12.1306 58.2763 11.9702 58.4346 11.8097C58.5929 11.9702 58.7512 12.2911 58.7512 12.4515C58.7512 12.612 58.7512 12.9329 58.7512 13.0933C58.7512 17.5859 58.7512 22.0784 58.7512 26.5709C58.7512 27.2127 58.9095 27.5336 59.701 27.5336C62.2337 27.5336 64.6081 27.5336 67.1408 27.5336C68.0906 27.5336 68.0905 27.5336 68.0905 26.5709C68.0905 22.3993 68.0905 18.2276 68.0905 14.056C68.0905 9.88436 68.0905 5.71272 68.0905 1.70152C68.0905 1.54108 67.9323 1.22018 67.2991 1.22018Z" fill="#c1bfbd"/>
<path d="M100.384 9.24256C99.5928 4.42912 95.6354 1.38062 90.7283 1.38062C87.7207 1.38062 84.7131 1.38062 81.7056 1.38062C78.5397 1.38062 75.3738 1.38062 72.0496 1.38062C71.0999 1.38062 71.0999 1.38062 71.2582 2.3433C71.5748 3.62688 72.0496 5.07091 72.6828 6.3545C74.7406 10.0448 77.7482 12.4515 82.1804 12.612C87.879 12.7724 93.7359 12.612 99.5928 12.612C100.226 12.612 100.384 12.2911 100.384 11.8097C100.384 10.847 100.543 10.0448 100.384 9.24256Z" fill="#c1bfbd"/>
<path d="M72.524 13.8955C71.8908 13.8955 71.5742 14.056 71.5742 14.6977C71.5742 18.8694 71.5742 23.041 71.5742 27.0522C71.5742 27.694 71.7325 27.8545 72.3657 27.8545C74.7401 27.8545 77.1145 27.8545 79.4889 27.8545C80.1221 27.8545 80.4387 27.694 80.4387 27.0522C80.4387 24.9664 80.4387 22.8806 80.4387 20.7948C80.4387 20.153 80.597 19.9925 81.3884 19.9925C84.2377 19.9925 87.087 19.9925 89.9363 19.9925C92.9439 19.9925 95.4766 19.0298 97.6927 17.1045C98.6425 16.3022 99.2756 15.3395 99.7505 13.8955C99.4339 13.8955 99.2756 13.8955 98.959 13.8955C90.0946 13.8955 81.2301 13.8955 72.524 13.8955Z" fill="#c1bfbd"/>
</svg>
