<svg width="100" height="18" viewBox="0 0 100 18" fill="none" xmlns="http://www.w3.org/2000/svg">
<path fill-rule="evenodd" clip-rule="evenodd" d="M67.0909 4.0544C68.2777 3.73265 69.6008 3.85804 70.6534 4.52127C70.6447 5.01437 70.6316 5.50851 70.6633 6.00153C69.9761 5.53683 69.1547 5.22264 68.3136 5.28596C67.7323 5.30447 67.1389 5.55213 66.7898 6.02987C66.263 6.65928 66.1146 7.4992 66.0415 8.29332C65.9793 9.28377 66.0284 10.2895 66.2542 11.2582C66.4374 12.0272 66.9403 12.7929 67.7355 13.022C68.7456 13.2936 69.8517 12.9772 70.6589 12.3347C70.6349 12.8333 70.648 13.3328 70.648 13.8314C69.3641 14.6211 67.6406 14.7826 66.3175 14.0037C65.303 13.4441 64.6801 12.3675 64.4205 11.2657C64.09 9.68083 64.0987 7.99007 64.6409 6.45419C65.0358 5.33175 65.9433 4.40019 67.0909 4.0544ZM0.896054 5.36668C1.62583 4.46455 2.81703 4.06318 3.94705 4.03368C4.92663 3.9977 5.90725 4.02602 6.88787 4.01732C6.88677 7.47191 6.89115 10.9265 6.88573 14.3822C6.28248 14.3801 5.68039 14.3768 5.07827 14.3844C5.10331 11.3978 5.07603 8.41219 5.09133 5.42666C4.32991 5.44191 3.51727 5.38194 2.83009 5.77351C2.25301 6.09318 2.03055 6.79781 2.05776 7.42286C2.02617 8.14823 2.41231 8.8311 2.95334 9.29247C3.47259 9.72008 4.04307 10.079 4.59721 10.4596C3.71907 11.7632 2.85187 13.0722 1.98142 14.3789C1.31928 14.3855 0.656056 14.3691 -0.00488281 14.391C0.825162 13.2346 1.57128 12.0206 2.40679 10.8698C1.65094 10.3582 0.920076 9.731 0.545957 8.87688C0.0800843 7.74573 0.178275 6.37244 0.896054 5.36668ZM23.4333 7.94205C23.9373 7.23198 24.7783 6.75962 25.6564 6.75851C26.5956 6.67131 27.6668 6.96357 28.1904 7.80573C28.9038 8.81035 28.7957 10.1041 28.8132 11.2713C27.393 11.2713 25.9727 11.2723 24.5525 11.2713C24.547 11.9977 24.8983 12.8278 25.6564 13.0362C26.7134 13.2642 27.8642 12.9969 28.7467 12.3839C28.7161 12.8769 28.7368 13.3711 28.7314 13.8652C27.7879 14.4619 26.6207 14.5862 25.5309 14.4629C24.594 14.3255 23.6438 13.8183 23.2174 12.9402C22.8138 12.2278 22.7494 11.3901 22.7363 10.5884C22.7102 9.66447 22.949 8.72963 23.4333 7.94205ZM24.9921 8.51691C24.6049 8.88997 24.5907 9.46266 24.5525 9.96223C25.376 9.96767 26.1996 9.95131 27.0243 9.971C26.9926 9.46045 26.985 8.91293 26.6796 8.47765C26.2444 8.00858 25.4012 8.01845 24.9921 8.51691ZM38.0219 7.14465C38.7254 6.72581 39.5751 6.71926 40.3682 6.77491C40.7903 6.81089 41.244 6.84687 41.603 7.09342C41.6793 7.59188 41.5932 8.11226 41.6466 8.61725C41.0205 8.2137 40.246 8.0566 39.5119 8.17655C38.9861 8.28462 38.5661 8.69255 38.3578 9.17464C38.096 9.90991 38.1146 10.7116 38.2029 11.4763C38.2891 12.0752 38.5934 12.7132 39.1781 12.9642C39.9897 13.2696 41.0085 13.1344 41.6641 12.5485C41.5986 13.047 41.6368 13.5511 41.6379 14.0528C41.026 14.5109 40.2111 14.5262 39.4792 14.4979C38.5857 14.4837 37.6902 14.1073 37.1055 13.4234C36.3834 12.4635 36.2525 11.1971 36.3518 10.0342C36.4445 8.89546 36.9888 7.7152 38.0219 7.14465ZM8.38777 6.8807C8.97897 6.8807 9.56909 6.8807 10.1604 6.8807C10.1604 7.87113 10.1604 8.86269 10.1604 9.85319C10.9479 9.86078 11.7355 9.83682 12.5219 9.86738C12.5471 8.87146 12.5262 7.87662 12.5329 6.8807C13.1241 6.8807 13.7142 6.8807 14.3054 6.8807C14.3043 9.38083 14.3087 11.881 14.3032 14.3822C13.712 14.3789 13.1208 14.3778 12.5295 14.3822C12.5383 13.3372 12.5262 12.2933 12.5361 11.2483C11.7442 11.2385 10.9523 11.2461 10.1604 11.244C10.1581 12.2901 10.1636 13.3361 10.1581 14.3822C9.5626 14.3724 8.96805 14.3942 8.37357 14.368C8.40627 11.8734 8.37796 9.37652 8.38777 6.8807ZM16.3125 6.8949C18.0425 6.86212 19.7736 6.89051 21.5048 6.8807C21.5059 8.90854 21.5026 10.9363 21.5069 12.9642C21.7731 12.9642 22.0404 12.9631 22.3076 12.95C22.2858 14.0005 22.2924 15.0509 22.3043 16.1014C21.7557 16.0992 21.2081 16.0861 20.6594 16.1101C20.6648 15.5297 20.6463 14.9484 20.6714 14.368C19.3363 14.3877 18 14.3877 16.6659 14.368C16.691 14.9484 16.6725 15.5297 16.6768 16.1111C16.1293 16.0872 15.5806 16.0992 15.033 16.1014C15.045 15.0509 15.0515 13.9993 15.0297 12.9489C15.2162 12.9565 15.4038 12.9642 15.5915 12.9697C15.9842 12.0849 16.1467 11.1174 16.2089 10.1575C16.3049 9.07327 16.3376 7.98351 16.3125 6.8949ZM17.8495 8.26277C17.8287 9.84116 17.7687 11.4675 17.2189 12.9642C18.06 12.9642 18.901 12.9511 19.742 12.9718C19.7115 11.401 19.754 9.82808 19.7202 8.25734C19.0974 8.28351 18.4723 8.27474 17.8495 8.26277ZM30.0131 6.8807C30.0142 9.38083 30.0109 11.881 30.0142 14.3811C30.6054 14.3811 31.1956 14.3746 31.7857 14.3855C31.7802 13.1768 31.7976 11.9693 31.7758 10.7618C32.6758 11.953 33.5255 13.1813 34.409 14.3844C35.0734 14.3778 35.7388 14.3757 36.4031 14.3855C35.4432 13.0667 34.5094 11.7283 33.5572 10.4041C34.3894 9.22488 35.2228 8.04677 36.0736 6.8807C35.4704 6.8807 34.8683 6.8807 34.2662 6.87966C33.4393 8.06424 32.5983 9.24013 31.7715 10.4248C31.802 9.24341 31.778 8.06209 31.7857 6.8807C31.1944 6.8807 30.6044 6.8807 30.0131 6.8807ZM71.8174 6.88292C73.7634 6.8807 75.7104 6.87632 77.6575 6.88509C77.6564 9.38626 77.6433 11.8886 77.6641 14.3899C77.0663 14.3691 76.4675 14.3833 75.8697 14.3801C75.8991 12.3413 75.8697 10.3015 75.885 8.26166C75.1192 8.27802 74.3524 8.27696 73.5877 8.26277C73.6019 10.3026 73.5768 12.3435 73.6008 14.3844C73.0031 14.3789 72.4042 14.3724 71.8075 14.3899C71.8316 11.8875 71.813 9.38521 71.8174 6.88292ZM79.861 6.8807C81.5528 6.8807 83.2436 6.8807 84.9355 6.8807C84.9442 9.37979 84.9169 11.8788 84.9496 14.3778C84.3508 14.3866 83.7508 14.368 83.1531 14.3899C83.1836 12.3468 83.14 10.3026 83.1749 8.25951C82.5662 8.27913 81.9575 8.27802 81.3499 8.25951C81.3412 9.18452 81.2834 10.1084 81.2496 11.0323C81.1907 11.8472 81.182 12.6893 80.8765 13.4605C80.738 13.791 80.5438 14.1302 80.2133 14.3004C79.7061 14.5557 79.1018 14.5589 78.5662 14.3953C78.5422 13.8859 78.5607 13.3765 78.5509 12.8671C78.7604 12.9609 78.9894 12.9674 79.2163 12.9729C79.5992 12.6751 79.6036 12.1591 79.6549 11.7185C79.7421 10.1073 79.7955 8.49402 79.861 6.8807ZM86.4332 6.88398C86.9971 6.87742 87.561 6.88181 88.1261 6.8807C88.1272 8.29874 88.1228 9.71681 88.1283 11.136C88.1293 11.3181 88.1119 11.5003 88.0824 11.6803C88.1522 11.4883 88.2428 11.3051 88.3508 11.1305C89.1951 9.71576 90.0142 8.28679 90.864 6.87528C91.3865 6.88619 91.9112 6.87853 92.4348 6.8807C92.4359 9.38194 92.4326 11.8832 92.4369 14.3844C91.8588 14.3746 91.2807 14.3822 90.7037 14.3801C90.7505 12.8137 90.6742 11.244 90.744 9.67866C89.8517 11.257 88.9213 12.8125 88.0169 14.3833C87.4858 14.3801 86.9556 14.3713 86.4255 14.3899C86.4473 11.8886 86.432 9.38626 86.4332 6.88398ZM93.4569 8.26383C93.4841 7.80134 93.4623 7.33887 93.4765 6.87632C95.4542 6.88398 97.4329 6.88398 99.4116 6.87632C99.4203 7.34101 99.4105 7.80684 99.4214 8.27146C98.7309 8.26494 98.0416 8.28462 97.3521 8.26062C97.3325 10.3015 97.3489 12.3446 97.3434 14.3866C96.7533 14.3746 96.1632 14.3801 95.5741 14.3822C95.5665 12.3457 95.573 10.308 95.5709 8.27146C94.8651 8.26708 94.1605 8.28023 93.4569 8.26383Z" fill="black"/>
<path d="M56.7296 7.06016L56.6487 6.95222C60.7747 3.68605 60.3163 3.20017 60.3163 3.20017C59.9118 2.76828 59.4803 2.39038 59.0219 2.06647C58.3746 1.60758 57.6735 1.22968 56.9184 0.986744C53.7901 -0.146966 50.0686 0.743807 47.8303 3.20017C44.8369 6.41234 44.7829 11.5141 47.8033 14.7802C50.9855 18.2083 56.406 18.4243 59.8309 15.2661L59.8848 15.2121L59.9388 15.1581L59.9657 15.1311C60.0197 15.0771 60.0736 15.0231 60.1006 14.9691C61.0714 13.7275 59.6151 10.3533 56.7296 7.06016ZM59.3724 14.3483C59.1567 14.5642 58.2398 14.5913 56.7566 13.8084C55.3812 13.0796 53.8441 11.8379 52.3878 10.3263C52.1451 10.5153 56.1903 7.33011 56.0015 7.49207C57.269 8.94969 58.3477 10.5423 58.914 11.865C59.5882 13.4035 59.5612 14.1593 59.3724 14.3483Z" fill="black" fill-opacity="0.86"/>
</svg>
