<svg width="315" height="202" viewBox="0 0 315 202" fill="none" xmlns="http://www.w3.org/2000/svg">
<g clip-path="url(#clip0_171_151)">
<path d="M135.939 172.727C136.055 171.996 136.449 168.877 136.247 168.248C135.294 165.272 136.558 162.607 137.369 159.936C139.511 152.865 143.758 147.029 148.615 141.593C149.31 140.815 150.022 140.057 150.882 139.117C151.091 139.789 151.945 140.557 152.097 140.888M201.226 188.015C198.793 189.1 196.314 190.097 193.947 191.312C192.606 192 193.093 193.129 193.854 194.188M206.394 190.024C207.655 190.289 208.916 190.55 210.466 190.875C210.221 189.521 210.052 188.584 209.883 187.647" stroke="#3C3C3B" stroke-miterlimit="10" stroke-linecap="round" stroke-linejoin="round"/>
<path d="M126.042 200.478C127.605 196.267 131.15 185.098 132.968 180.99C134.202 178.322 135 175.455 135.94 172.727M108.418 228.004C108.435 224.641 108.441 221.277 108.484 217.914C108.491 217.354 108.564 216.739 108.809 216.252C112.159 209.645 117.167 202.633 124.526 201.511M127.77 224.147C129.406 224.68 130.793 225.521 130.915 228.004C130.66 228.004 130.405 228.004 130.154 228.004C127.502 224.078 120.905 224.078 118.333 228.004C118.207 228.004 118.078 228.004 117.952 228.004C117.982 226.62 118.753 225.025 119.796 224.717M125.685 200.607C125.245 200.759 124.811 201.127 124.526 201.508C122.59 204.096 120.646 206.678 118.796 209.327C116.181 213.071 115.317 217.179 116.641 221.618C117.485 224.442 118.955 225.091 121.861 224.571C123.95 224.197 126.112 224.25 128.244 224.121C129.25 224.061 130.425 224.333 131.213 223.896C132.021 223.445 133.133 222.671 133.044 221.479C132.786 220.708 131.644 220.562 130.882 220.403C129.839 220.188 128.711 220.38 127.661 220.178C126.956 220.042 126.32 219.536 125.655 219.195C125.725 218.973 125.794 218.751 125.864 218.533C126.585 218.45 127.357 218.169 128.019 218.328C129.598 218.705 131.147 219.241 132.673 219.814C133.779 220.228 134.841 220.443 135.546 219.307C136.354 218.013 135.229 217.364 134.345 217.017C132.892 216.444 131.339 216.106 129.81 215.746C128.33 215.395 126.655 215.56 125.304 213.802C126.248 213.627 126.877 213.408 127.502 213.412C130.621 213.425 133.309 214.507 135.566 216.702C136.003 217.129 136.695 217.735 137.291 217.556C137.92 217.242 138.125 216.315 138.062 215.749C137.973 214.954 137.579 214.067 137.039 213.471C134.954 211.164 131.948 211.141 129.194 210.495C128.581 210.353 128.012 210.012 127.426 209.76C127.962 209.108 128.373 208.84 128.76 208.867C132.465 209.128 135.907 209.939 138.195 213.289C138.529 213.779 139.082 214.431 139.81 214.335C140.466 214.375 140.989 213.19 140.654 212.462C140.045 210.998 139.39 209.353 138.248 208.357C136.5 206.837 134.365 205.742 132.316 204.6C131.74 204.278 130.899 204.364 130.18 204.388M177.115 154.583C176.43 154.772 175.695 154.855 175.069 155.162C168.895 158.201 161.778 157.185 157.229 149.697C156.703 148.83 155.134 144.655 154.684 143.748M139.247 209.532C139.433 208.857 140.135 207.251 140.439 206.635C145.017 197.38 149.758 188.197 154.144 178.851C155.405 176.163 156.008 173.038 156.283 170.056C156.634 166.216 156.346 162.319 156.346 158.45C156.346 157.791 156.435 155.335 156.508 153.974M185.321 166.368C185.798 166.934 185.967 167.325 185.967 167.613C185.967 167.964 185.718 168.166 185.473 168.348C177.565 174.296 165.542 177.742 155.299 175.677M183.272 70.8061C185.609 65.3274 192.773 63.058 197.182 60.0158C197.599 59.7278 204.432 56.0996 204.889 55.8877M211.023 182.807C210.646 180.583 210.291 178.355 209.887 176.134C209.285 172.827 208.683 169.516 207.997 166.226C207.895 165.729 207.342 164.955 206.978 164.945C203.065 164.815 196.788 164.786 192.922 165.209C189.198 165.617 188.367 167.599 188.698 171.287C189.088 175.637 188.959 180.03 189.204 184.396C189.343 186.849 189.618 189.322 190.161 191.709C190.416 192.831 191.459 193.771 192.117 194.811C192.25 195.016 192.26 195.297 192.458 196.032M195.775 139.584C199.668 145.106 204.356 156.238 205.571 162.76C205.849 164.246 206.395 164.898 207.898 165.199C212.407 166.11 216.763 167.457 220.146 170.844C220.501 171.198 221.328 172.135 221.653 172.519M208.494 71.5193C208.1 72.7011 208.255 71.4531 207.269 75.793C206.173 80.6096 207.156 85.4229 206.64 90.1898C205.779 98.1247 204.756 106.043 203.631 113.945C202.959 118.659 203.148 123.287 203.998 127.945C204.396 130.119 204.667 132.337 204.733 134.545C204.809 137.025 203.677 138.266 201.284 138.813C199.566 139.206 191.942 140.024 189.8 140.239M213.711 64.8754C217.16 61.1611 220.421 57.2681 223.758 53.4513M239.701 21.493C237.311 23.6712 234.993 25.9454 232.471 27.9548C225.764 33.3011 218.249 37.6674 213.923 45.6554C212.317 48.6182 209.285 50.8129 206.872 53.3288C205.518 54.739 204.151 56.2618 204.531 58.3043M242.316 12.6708C242.217 10.6118 241.919 7.79465 241.925 5.72567C241.929 5.10663 241.836 4.45449 241.631 3.87187C241.078 2.29944 241.939 1.09777 242.836 0.127834C243.127 -0.189961 244.799 0.124524 245.169 0.634321C246.762 2.82579 248.126 5.18609 249.523 7.51328C249.969 8.2548 250.257 9.09232 250.645 9.9464C251.33 9.51605 251.856 9.01949 252.479 8.82749C253.555 8.49645 254.74 9.61205 254.386 10.9759C253.406 14.7497 252.194 18.4706 250.973 22.1782C250.751 22.8502 250.125 23.4593 249.549 23.936C247.139 25.9388 244.676 27.882 242.233 29.845M178.979 53.0507L178.942 53.0838C181.888 55.7024 183.745 58.9664 183.924 62.8958C184.05 65.6732 182.246 67.6164 179.955 68.9736C178.598 69.778 177.085 70.3143 175.668 71.0227C174.923 71.3935 174.238 71.8768 173.523 72.3105C173.636 72.5588 173.943 73.2937 174.056 73.5419M155.879 72.3701C153.747 73.5188 153.926 74.8462 155.025 76.124C155.832 77.0642 157.09 77.8885 158.285 78.1665C160.169 78.6002 162.168 78.534 163.43 78.6267C164.658 79.6165 165.456 80.2752 166.273 80.9108C169.127 83.1288 171.971 85.36 174.854 87.5382C176.575 88.8392 178.237 90.3023 180.15 91.2292C182.087 92.1661 184.275 92.8811 186.404 93.0566C188.824 93.2552 190.333 91.4212 190.459 88.9649C190.677 84.6979 188.84 80.9406 187.49 77.0642C187.115 75.9883 186.688 74.9224 186.384 73.8233C183.348 68.5433 181.875 71.2081 174.026 73.4724M149.328 56.4836C148.963 59.7807 153.466 63.591 153.866 64.2199C156.071 67.676 158.59 70.599 163.013 71.2876M154.277 74.0252C154.753 72.6779 155.779 72.1582 157.253 72.1781C158.593 72.1946 159.941 71.8967 161.321 71.5954M138.9 70.4434C139.115 70.0661 139.827 68.2321 140.376 67.9408C142.584 66.759 142.498 64.9085 141.998 62.9752C140.479 57.0861 142.687 52.3854 146.702 48.3301C148.391 46.6253 150.291 45.1092 152.214 43.6592C154.667 41.8087 157.402 40.8553 160.583 41.246C162.37 41.4644 164.257 41.001 166.015 41.3122C168.647 41.7789 171.471 45.1058 171.49 47.9296M153.429 96.3868C156.561 97.7374 157.65 98.0817 154.571 100.343M150.883 139.117C150.155 138.319 148.454 134.641 148.616 133.493C148.996 130.811 149.503 128.094 150.42 125.554C152.999 118.401 155.15 111.214 154.571 103.471M109.908 188.71C110.699 189.355 111.487 189.997 112.668 190.961C112.457 190.06 112.284 189.623 112.261 189.176C112.172 187.273 112.069 185.363 112.092 183.459C112.102 182.668 112.414 181.88 112.586 181.089C113.87 179.226 115.684 179.166 117.634 179.636C118.875 179.934 119.792 179.672 120.901 178.842C121.855 178.126 133.17 176.776 134.709 176.468M140.433 71.9C139.82 70.8076 139.115 70.2581 137.897 70.3375C135.434 70.4964 133.385 72.5256 133.143 74.9886C132.779 78.6962 134.679 81.1459 137.625 82.9467C140.237 84.5456 143.137 85.7539 144.786 89.3059C145.233 87.7567 145.574 86.8264 145.769 85.8698C146.428 82.619 145.12 79.7919 143.773 76.9847M145.59 90.2957C148.493 84.827 156.826 80.7618 163.013 80.3447C162.466 80.0005 160.424 80.7056 157.272 80.1594C151.549 78.4777 147.004 76.2366 144.067 70.738C143.789 70.215 143.001 69.9634 142.72 69.7681C140.214 71.559 140.641 72.4263 141.724 73.9855M155.402 175.296C156.935 175.551 159.378 175.895 161.288 175.895C170.15 175.902 177.846 173.164 184.884 168.113C185.301 167.811 185.467 166.63 185.242 166.06C184.374 163.875 183.401 161.773 183.669 159.307C184.269 153.765 184.788 148.217 185.351 142.672C185.358 142.603 185.536 142.553 185.636 142.494C187.374 143.814 188.463 143.801 189.208 141.861C190.677 138.041 191.882 134.079 189.055 130.235C188.86 129.971 188.824 129.507 188.873 129.156C189.327 125.929 188.767 122.833 187.708 119.801C185.728 114.134 182.746 109.274 176.592 107.45C165.313 104.11 153.886 111.919 152.899 123.568C152.635 126.693 152.582 129.838 152.426 133.115C150.817 132.344 150.46 133.241 150.691 134.446C151.218 137.177 151.85 139.892 152.515 142.593C152.615 143.003 153.161 144.39 154.73 143.838" stroke="#3C3C3B" stroke-miterlimit="10" stroke-linecap="round" stroke-linejoin="round"/>
<path d="M70.7188 213.362C71.3808 208.519 71.8079 203.626 72.801 198.853C73.3009 196.456 74.4992 194.026 75.969 192.043C79.9547 186.664 87.2342 187.068 91.0179 192.543C95.0136 198.326 95.7882 204.729 94.8745 211.462C94.1264 216.987 93.2293 222.489 92.3984 228.004" stroke="#3C3C3B" stroke-miterlimit="10" stroke-linecap="round" stroke-linejoin="round"/>
<path d="M221.655 172.519C225.707 176.352 228.177 181.006 228.925 186.545C229.484 190.683 230.1 194.817 230.497 198.972C230.699 201.084 230.464 203.236 230.461 205.367C230.461 205.761 230.484 206.308 230.729 206.533C235.704 211.088 237.631 217.321 239.981 223.31C240.581 224.839 240.998 226.438 241.501 228.004" stroke="#3C3C3B" stroke-miterlimit="10" stroke-linecap="round" stroke-linejoin="round"/>
<path d="M242.232 29.8516C242.232 29.8516 242.291 29.7788 242.291 29.7821C241.96 30.0436 241.563 30.2555 241.312 30.5766C236.813 36.2804 232.311 41.9808 227.862 47.721C227.19 48.5883 226.769 49.6476 226.23 50.6176C225.405 51.561 224.581 52.5045 223.753 53.4479C220.417 57.2648 217.156 61.1578 213.706 64.872C211.892 66.8251 210.151 68.9041 208.493 71.5159C207.423 66.9311 205.262 62.1873 204.533 58.2976C204.149 56.2585 205.52 54.7324 206.874 53.3222C209.287 50.8063 212.319 48.6115 213.925 45.6487C218.252 37.6608 225.766 33.2944 232.473 27.9481C234.995 25.9354 237.313 23.6645 239.703 21.4863C241.441 19.904 242.298 15.0013 242.318 12.6675" stroke="#3C3C3B" stroke-miterlimit="10" stroke-linecap="round" stroke-linejoin="round"/>
<path d="M95.3313 169.023C96.1026 169.202 96.8971 169.311 97.6386 169.572C101.393 170.903 105.18 171.079 109.059 170.162C111.36 169.619 112.919 168.361 113.631 166.087C115.816 159.112 116.488 152.239 112.837 145.44C111.618 143.169 111.105 140.527 109.933 138.223C109.003 136.393 107.699 134.701 106.325 133.155C104.246 130.821 101.594 130.662 98.5225 130.904C95.2319 131.166 92.6664 132.523 90.0943 134.224L90.134 134.264M108.897 182.946C109.4 180.109 109.503 172.863 109.712 169.983M94.8546 184.525C96.6521 185.701 98.4364 186.892 100.224 188.077M110.685 182.635C109.993 183.311 109.377 184.092 108.586 184.618C108.116 184.933 107.338 185.025 106.769 184.9C106.05 184.744 105.382 184.297 104.719 183.926C102.015 182.403 99.3302 180.841 96.619 179.331M74.0654 187.952L74.1019 187.988C77.5711 184.433 78.1372 179.924 78.028 175.313C77.8823 169.099 77.4619 162.892 77.2136 156.679C76.9686 150.604 77.6936 144.639 79.5143 138.836C81.2556 133.284 84.3276 128.915 90.3723 127.425C91.0443 127.259 91.7428 127.153 92.4347 127.11C94.8811 126.955 97.3307 126.849 99.7771 126.707C102.402 126.554 106.181 126.742 107.637 128.798" stroke="#3C3C3B" stroke-miterlimit="10" stroke-linecap="round" stroke-linejoin="round"/>
<path d="M100.223 188.078C98.4324 186.892 96.6514 185.697 94.8539 184.525C92.9769 183.297 90.5173 182.847 92.6028 178.914C93.4404 177.789 95.7245 178.832 96.6216 179.331C99.3328 180.841 102.018 182.4 104.722 183.926C105.384 184.3 106.05 184.744 106.771 184.9C107.341 185.022 108.119 184.933 108.589 184.618C109.376 184.092 109.996 183.311 110.687 182.635C111.336 182.139 111.988 181.639 112.637 181.139L112.588 181.086C112.415 181.877 112.104 182.665 112.094 183.456C112.071 185.36 112.174 187.27 112.263 189.173C112.283 189.62 112.458 190.057 112.67 190.958C111.492 189.994 110.701 189.352 109.909 188.706L109.982 188.773C109.343 188.372 108.704 187.972 108.066 187.568C107.946 188.309 107.728 189.051 107.735 189.789C107.744 190.785 107.923 191.782 108.032 192.778C107.847 192.874 107.665 192.974 107.48 193.07C106.642 192.57 105.805 192.073 104.967 191.573C103.385 190.411 101.802 189.246 100.223 188.078Z" stroke="#3C3C3B" stroke-miterlimit="10" stroke-linecap="round" stroke-linejoin="round"/>
<path d="M60.2939 221.34C60.4727 219.493 60.5488 217.632 60.8468 215.805C63.3163 200.723 65.7494 185.631 68.3547 170.572C70.3343 159.135 72.6416 147.751 76.8491 136.883C77.9548 134.029 79.4577 131.195 81.3711 128.828C82.7614 127.11 84.9761 125.505 87.0914 125.025C92.3814 123.83 97.8998 122.807 103.064 125.521C105.083 126.581 107.248 127.994 108.463 129.832C112.608 136.088 115.998 142.835 117.464 150.237C118.98 157.897 118.02 165.54 115.676 172.969C114.803 175.74 113.654 178.421 112.631 181.142" stroke="#3C3C3B" stroke-miterlimit="10" stroke-linecap="round" stroke-linejoin="round"/>
<path d="M143.837 70.4433C143.244 68.5829 142.824 67.0734 142.274 65.1997" stroke="#3C3C3B" stroke-miterlimit="10" stroke-linecap="round" stroke-linejoin="round"/>
<path d="M90.1291 134.264L90.0894 134.224C88.1694 137.2 86.4844 140.243 85.9911 143.854C84.9351 151.567 85.3589 158.959 89.4108 165.938C90.907 168.513 91.877 171.483 92.592 174.396C93.3104 177.319 92.4662 180.136 90.4303 182.728" stroke="#3C3C3B" stroke-miterlimit="10" stroke-linecap="round" stroke-linejoin="round"/>
<path d="M65.2695 219.192C65.5708 216.249 65.6403 213.263 66.2262 210.376C67.0704 206.225 68.1297 202.1 69.3843 198.055C71.2414 192.06 75.2635 188.147 81.3579 186.369C83.9963 185.598 89.6405 183.671 90.425 182.728" stroke="#3C3C3B" stroke-miterlimit="10" stroke-linecap="round" stroke-linejoin="round"/>
<path d="M74.1025 187.989L74.0654 187.952" stroke="#3C3C3B" stroke-miterlimit="10" stroke-linecap="round" stroke-linejoin="round"/>
<path d="M149.326 56.4836C149.277 53.6267 150.806 52.1337 152.18 50.5414C152.988 49.6046 153.825 48.6578 154.424 47.5886C156.106 44.5728 160.635 42.8945 163.872 44.4239C168.275 46.5028 172.612 48.734 176.918 51.0115C177.733 51.4419 178.276 52.382 178.944 53.0871L178.981 53.054" stroke="#3C3C3B" stroke-miterlimit="10" stroke-linecap="round" stroke-linejoin="round"/>
<path d="M226.23 50.6177C226.767 49.6478 227.19 48.5884 227.862 47.7211C232.312 41.9809 236.814 36.2772 241.312 30.5767C241.567 30.2556 241.965 30.0437 242.292 29.7822" stroke="#3C3C3B" stroke-miterlimit="10" stroke-linecap="round" stroke-linejoin="round"/>
<path d="M143.854 104.878L143.891 104.921C147.45 103.395 151.008 101.869 154.57 100.346L154.537 100.306" stroke="#3C3C3B" stroke-miterlimit="10" stroke-linecap="round" stroke-linejoin="round"/>
<path d="M104.965 191.577C105.802 192.076 106.64 192.573 107.477 193.073C107.663 192.977 107.845 192.878 108.03 192.782C107.924 191.785 107.742 190.792 107.732 189.792C107.726 189.054 107.944 188.313 108.063 187.571C108.702 187.972 109.341 188.372 109.98 188.776" stroke="#3C3C3B" stroke-miterlimit="10" stroke-linecap="round" stroke-linejoin="round"/>
<path d="M143.894 104.921C137.028 108.331 127.246 111.128 119.841 112.959C116.037 113.899 112.386 115.428 108.642 116.626C104.666 117.901 100.707 119.265 96.6551 120.238C95.1753 120.592 93.4341 120.016 91.8385 119.718C89.6867 119.314 87.5582 118.785 85.4263 118.268C84.2776 117.99 83.1454 117.633 81.9802 116.934C82.9203 116.65 83.8605 116.365 85.2939 115.928C83.2613 114.604 81.5598 114.498 79.9642 115.378C78.4249 116.229 77.5211 115.62 76.2334 114.223C77.2762 114.134 77.9746 113.962 78.6433 114.038C81.8378 114.399 84.943 114.322 88.0183 113.141C89.0743 112.737 90.425 112.813 91.5803 113.021C94.0167 113.458 96.3009 113.084 98.3963 111.932C103.061 109.363 107.586 106.526 112.297 104.05C116.491 101.846 120.774 99.7469 125.19 98.0453C127.991 96.9628 131.182 96.9231 134.056 95.983C136.605 95.1488 138.962 93.7352 141.388 92.5402C142.239 92.1231 143.004 91.5272 143.864 91.1333C145.132 90.554 146.231 90.3189 146.751 92.2158C146.973 93.0169 147.903 93.626 148.512 94.3212L148.446 94.2516C149.25 94.7515 150.012 95.354 150.872 95.7248C151.67 96.069 152.597 96.0955 153.421 96.3901" stroke="#3C3C3B" stroke-miterlimit="10" stroke-linecap="round" stroke-linejoin="round"/>
<path d="M143.765 76.9781C145.116 79.7886 146.423 82.6156 145.764 85.8664C145.569 86.8264 145.231 87.7566 144.781 89.3026C143.133 85.7506 140.233 84.5389 137.621 82.9434C134.675 81.1425 132.778 78.6928 133.139 74.9852C133.38 72.5223 135.426 70.493 137.892 70.3341C139.111 70.2547 139.819 70.8042 140.428 71.8966C141.428 73.6842 142.547 75.1772 143.695 76.8821C143.699 76.8854 143.765 76.9781 143.765 76.9781Z" stroke="#3C3C3B" stroke-miterlimit="10" stroke-linecap="round" stroke-linejoin="round"/>
<path d="M185.966 167.613L188.343 167.56" stroke="#3C3C3B" stroke-miterlimit="10" stroke-linecap="round" stroke-linejoin="round"/>
</g>
<defs>
<clipPath id="clip0_171_151">
<rect width="315" height="202" fill="white"/>
</clipPath>
</defs>
</svg>
