<svg width="315" height="202" viewBox="0 0 315 202" fill="none" xmlns="http://www.w3.org/2000/svg">
<path d="M146.93 178.81C151.93 177.46 156.92 176.09 161.92 174.74C162.27 174.64 162.66 174.67 163.03 174.65C163.03 174.74 163.03 174.83 163.04 174.92C157.95 176.36 152.85 177.79 147.76 179.22M136.19 179.25C134.26 179.91 128.4 180.73 127.38 179.75C127.85 179.55 131.15 179.28 131.55 179.2C132.53 179 133.54 178.95 134.5 178.68C136 178.25 136.97 176.83 137.02 175.54C137.12 172.81 137.28 170.08 137.51 167.35C137.58 166.59 137.45 166.22 136.71 166.03C135.45 165.7 134.18 165.35 132.95 164.93C132.07 164.63 131.52 164.83 131.23 165.72C130.37 168.36 129.49 170.99 128.65 173.65C128.41 174.39 128.29 175.18 128.11 175.95C127.96 175.94 127.82 175.94 127.67 175.93C127.61 175.52 127.43 175.09 127.51 174.72C127.81 173.23 128.13 171.74 128.56 170.28C129.01 168.75 129.59 167.26 130.16 165.63C129.73 165.49 129.38 165.33 129.02 165.25C125.53 164.5 122.03 163.81 118.55 163C117.48 162.75 116.75 162.55 116.42 162.1C116.22 161.26 116.24 161.42 116.22 160.56C116.2 159.95 116.09 159.34 115.92 158.76C114.67 154.64 114.9 150.51 115.86 146.37C116.81 142.3 117.01 138.19 116.2 134.06C115.84 132.18 115.61 130.27 115.25 128.39C114.59 124.94 114.38 121.36 112.36 118.3C112.31 118.23 112.41 118.07 112.49 117.68C112.89 117.99 113.28 118.15 113.45 118.45C113.88 119.2 114.38 119.97 114.56 120.79C115.3 124.19 115.88 127.62 116.61 131.02C117.82 136.6 117.91 142.13 116.51 147.71C115.75 150.72 115.6 153.81 116.37 156.9C116.71 158.25 116.83 159.65 117.16 161C117.25 161.39 117.66 161.91 118.02 162C121.91 162.95 125.82 163.83 129.73 164.7C130.03 164.77 130.54 164.78 130.67 164.6C131.47 163.59 132.41 163.83 133.4 164.14C134.01 164.33 134.62 164.47 135.45 164.69C135.33 162.66 135.18 160.85 135.13 159.03C134.99 154.25 133.84 149.76 131.67 145.48C128.46 139.15 125.39 132.75 122.22 126.4C121.55 125.06 121.56 123.95 122.63 122.84C123.28 122.17 123.83 121.4 124.6 120.45C122.82 120.2 121.33 119.97 119.83 119.79C118.59 119.64 117.88 119 117.61 117.77C116.98 114.89 116.3 112.02 115.6 108.99C114.77 109.35 113.81 109.71 112.9 110.2C110.28 111.61 107.61 112.79 104.65 113.37C100.91 114.1 98.5199 116.58 97.6499 120.17C97.0399 122.71 96.7599 125.43 96.9399 128.04C97.6199 138.34 98.3999 148.63 99.4299 158.9C99.8699 163.29 100.97 167.63 101.78 171.98C102.07 173.55 103.03 174.53 104.54 174.97C106.71 175.6 108.85 176.49 111.07 176.77C115.37 177.33 122.78 177.77 127.49 178.16C127.5 178.65 127.9 178.71 127.56 178.86C123.07 178.97 113.92 178.51 109.52 177.48C107.71 177.06 105.94 176.49 103.95 175.94C103.51 177.6 103.08 179.23 102.65 180.85C102.4 181.79 102.72 182.13 103.72 182.23C107.4 182.59 111.07 183.05 114.75 183.48C115.17 183.53 120.13 184.08 120.54 184.17C120.52 184.31 120.5 184.44 120.48 184.58C120.08 184.58 115.13 184.21 114.73 184.16C106.5 183.35 98.2699 182.49 90.0299 181.74C86.3099 181.4 82.5599 181 78.8399 181.13C73.3499 181.32 70.2599 184.63 69.9099 190.1C69.7699 192.27 69.6999 194.44 69.5599 196.61C69.5299 197.02 69.3499 197.41 69.2399 197.81C68.8399 197.56 68.6599 197.33 68.6799 197.12C68.8899 193.9 68.9799 190.68 69.4099 187.49C69.5799 186.22 69.6199 185.09 69.3799 183.83C66.5799 168.86 63.7699 153.88 61.1299 138.88C60.1799 133.49 59.6499 128.02 58.9199 122.59C58.9199 121.98 58.9199 121.37 58.9199 120.76C59.2599 118.28 60.3899 116.4 62.6899 115.18C63.2199 114.89 63.5499 113.83 63.5999 113.1C63.7199 111.47 64.0999 110.79 65.6699 110.4C66.5099 110.19 67.3899 110.1 68.2399 109.96C74.4399 109.01 80.6399 108.07 86.8399 107.14C87.3099 107.07 96.9499 105.61 97.4199 105.58C97.1199 105.98 98.0799 106.05 87.3299 107.62C83.0799 108.35 78.8399 109.08 74.5799 109.79C71.7899 110.26 68.9899 110.69 66.1999 111.18C65.1799 111.35 64.2699 111.77 64.4799 113.03C64.7499 114.63 64.0099 115.64 62.6899 116.3C60.7299 117.28 60.0399 118.98 59.9499 121C59.8999 121.95 59.9399 122.92 60.0699 123.87C60.7699 129.13 61.3399 134.43 62.2599 139.65C64.7699 153.84 67.4299 168 70.0399 182.17C70.1499 182.79 70.3399 183.39 70.4799 183.94C71.9199 182.98 73.1599 181.93 74.5799 181.27C75.6999 180.75 75.8899 180.21 75.6699 179.1C74.1899 171.85 72.7299 164.59 71.3199 157.33C69.0399 145.53 66.7999 133.73 64.5699 121.92C64.2899 120.43 63.6599 116.33 63.4799 114.82C63.5799 114.8 63.6899 114.78 63.7999 114.77C63.8999 115.13 64.5899 118.06 64.6599 118.43C66.8499 129.49 69.0099 140.56 71.2099 151.61C73.0299 160.79 74.8999 169.96 76.7199 179.15C76.8899 180.04 77.1799 180.35 78.1699 180.26C79.9399 180.11 81.7399 180.04 83.5099 180.2C89.0999 180.7 94.6899 181.3 100.28 181.9C101.25 182 101.66 181.77 101.84 180.74C102.11 179.3 102.57 177.88 103.06 176.49C103.29 175.84 103.2 175.55 102.66 175.09C102.03 174.55 101.36 173.82 101.17 173.05C100.33 169.77 99.3499 166.48 98.9899 163.13C98.0899 154.91 97.4599 146.66 96.8099 138.41C96.6499 136.38 96.2999 134.5 95.1999 132.73C94.5399 131.67 94.0999 130.46 93.6199 129.29C91.7399 124.7 91.7299 120.14 93.8599 115.61C94.6899 113.84 95.5199 112.06 96.2999 110.26C96.6499 109.43 97.0699 108.55 97.1299 107.68C97.6199 100.79 98.8499 94.03 100.47 87.34C100.63 86.66 101.09 86.04 101.41 85.39C101.55 85.45 101.7 85.5 101.84 85.56C100.25 91.82 98.9199 98.13 98.2899 104.57C100.15 100.21 101.48 95.66 103.59 91.4C103.76 91.89 103.75 92.33 103.61 92.73C102.03 97.2 100.51 101.7 98.8099 106.13C97.3299 109.99 95.5799 113.74 94.0599 117.58C91.9899 122.81 93.5799 127.59 96.1699 132.2C96.1499 130.58 96.2199 128.86 95.6199 127.42C94.6599 125.13 94.2699 122.84 94.9799 120.55C95.8299 117.78 96.8799 115.03 98.1399 112.43C99.4099 109.82 101.22 107.46 102.52 104.86C104.54 100.82 106.33 96.66 108.22 92.56C108.63 91.68 109.07 90.82 109.49 89.95C109.65 90.03 109.81 90.1 109.98 90.18C109.86 90.66 109.76 91.16 109.61 91.62C107.69 97.34 105.17 102.78 101.95 107.89C99.4799 111.8 97.1999 115.82 96.0399 120.35C95.7599 121.43 95.7299 122.57 95.5899 123.69C95.7099 123.71 95.8399 123.72 95.9599 123.74C96.0099 123.54 96.0699 123.35 96.0999 123.15C96.9199 117.12 99.5599 113 106.61 112.06C107.1 111.99 107.69 111.83 108.04 111.51C111.88 107.97 115.88 104.59 118.96 100.31C121.65 96.59 122.81 92.61 121.41 88C120.52 85.07 120.74 82.06 121.78 79.13C122.51 77.04 123.88 75.77 126.09 75.46C127.59 75.25 129.09 74.97 130.61 74.79C134.77 74.32 138.34 72.72 142.33 70.98C143.57 70.36 144.71 69.78 145.69 69.61C147.11 69.36 146.63 69.75 147.09 69.75C145.48 70.58 143.29 71.26 141.67 72C139.47 73.01 137.29 74.18 134.98 74.78C132.13 75.52 129.15 75.76 126.22 76.18C124.32 76.45 123.18 77.53 122.56 79.28C121.55 82.13 121.37 85.03 122.25 87.89C123.62 92.33 122.7 96.29 120.23 100.06C117.89 103.64 114.8 106.5 111.65 109.33C111.31 109.64 110.97 109.96 110.63 110.27C111.5 110.18 112.17 109.85 112.85 109.58C114.65 108.88 116.35 108.27 117.16 106.1C117.73 104.57 119.36 103.91 121.11 104.21C122.81 104.5 123.26 105.83 123.69 107.29C124.24 109.2 124.67 111.28 125.74 112.89C129.17 118.06 131.12 123.78 132.73 129.69C133.5 132.49 134.4 135.28 135.52 137.96C136.47 140.23 138.2 141.88 140.64 142.71C141.7 143.06 142.17 142.79 142.05 141.7C141.72 138.68 141.5 135.63 140.94 132.66C140 127.71 138.66 122.83 137.8 117.87C137.29 114.88 136.75 111.98 135.26 109.3C134.09 107.19 134.25 105.02 135.35 102.92C135.89 101.89 136.53 100.92 137.16 99.87C134.21 97.84 131.31 95.85 128.47 93.9C127.86 95.82 127.4 97.73 126.66 99.52C125.92 101.34 123.58 103.97 121.5 104.6C121.5 104.27 122.83 102.97 123.02 102.8C125.5 100.59 126.56 97.69 127.11 94.54C127.61 91.65 128.12 88.76 126.41 86.04C126.18 85.68 126.12 85.22 126.02 84.8C125.03 80.62 126.75 78.08 130.98 77.56C132.83 77.33 134.71 77.28 136.58 77.12C140.56 76.79 144.01 75.35 146.58 72.17C147.34 71.1 146.7 70.04 146.86 69.68C147.06 69.84 147.22 69.67 147.41 69.84C147.22 70.2 148.09 71.24 147.07 72.64C146.18 73.86 144.99 74.87 143.77 75.76C141.08 77.71 137.89 78.01 134.7 78.25C133.06 78.37 131.39 78.48 129.78 78.81C127.9 79.19 126.81 80.41 126.9 82.32C126.97 83.89 127.54 85.43 127.9 86.98C128.14 87.98 128.75 89.05 128.57 89.97C128.14 92.16 129.25 93.39 130.82 94.38C134.38 96.65 137.97 98.85 141.58 101.05C142.21 101.44 142.89 101.75 143.59 101.98C145.08 102.48 145.95 101.84 146.04 100.27C146.08 99.66 146.05 99.02 146.27 98.48C146.57 97.75 147.11 97.15 147.77 97.57C147.49 98.68 147.14 99.6 147.03 100.55C146.8 102.53 145.51 103.55 143.57 102.96C142.42 102.62 141.32 102.03 140.25 101.46C137.47 99.98 137.52 99.98 136.06 102.86C135.53 103.91 135.57 104.77 136.17 105.77C137.27 107.59 138.92 108.78 140.68 109.84C142.58 110.99 144.52 112.05 146.42 113.2C146.9 113.49 148.1 114.31 148.53 114.69C148.44 114.81 148.73 115.29 148.64 115.41C144.69 112.8 138.69 110.9 135.39 107.08C135.59 108.03 135.98 108.83 136.27 109.67C137 111.8 138.09 113.89 138.32 116.07C138.89 121.48 140.32 126.67 141.66 131.89C142.29 134.32 142.85 136.85 142.89 139.34C142.93 142.3 143.51 145.12 144.1 147.96C144.33 149.07 144.56 150.18 144.72 151.3C145.37 155.87 146.01 160.44 146.59 165.02C146.71 165.96 147.05 166.29 148 166.2C149.65 166.05 151.31 165.91 152.96 165.93C154.18 165.95 154.48 165.44 154.55 164.32C155.67 148.28 153.88 132.59 148.99 117.26C148.73 116.43 148.68 115.53 148.53 114.67C149.56 114.87 150.67 114.89 151.6 115.31C153.82 116.3 154.76 118.37 155.71 120.48C158.76 127.3 160.86 134.31 161.28 141.84C161.43 144.54 162.2 147.23 162.95 149.85C163.29 151.04 163.09 150.63 163.66 151.96C163.72 152.16 163.77 152.37 163.87 152.72C164.06 153 164.02 153 164.51 153.18C165.08 153.42 166.19 153.26 168.14 154.74C169.76 155.97 171.17 157.46 172.71 158.79C173.23 159.24 173.83 159.73 174.48 159.9C177.98 160.85 181.37 160.34 184.7 159.01C186.19 158.41 187.63 158.39 189.02 159.46C189.41 159.76 190.22 159.85 190.7 159.67C194.42 158.26 197.49 159.45 200.05 162.12C201.06 163.17 201.89 163.32 203.21 162.95C212.13 160.41 221.07 157.94 230 155.46C230.25 155.39 230.52 155.41 230.78 155.39C230.82 155.53 230.85 155.68 230.88 155.83C221.36 158.94 211.62 161.38 202 164.13C202.34 165.41 202.97 165.71 204.09 165.54C209.33 164.74 214.51 165.09 219.6 166.61C220.51 166.88 221.58 167.03 221.59 168.31C221.6 169.54 220.66 169.98 219.69 170.35C219.48 170.43 219.27 170.48 219.07 170.55C209.58 173.59 200.08 176.62 190.59 179.68C187.16 180.78 183.7 181.13 180.16 180.34C177.44 179.73 174.71 179.16 172.02 178.45C171.08 178.2 170.15 177.73 169.37 177.14C168.49 176.46 168.65 175.93 169.72 175.65C171.28 175.25 172.86 174.92 174.43 174.58C175.76 174.29 177.09 174.02 178.78 173.67C176.28 172.25 174.05 171.54 171.59 172.14C169.64 172.61 167.73 173.21 165.82 173.79C163.38 174.53 161.01 174.48 158.74 173.23C157.29 172.43 155.76 172.32 154.17 172.61C149.12 173.55 144.07 174.51 139.03 175.48C138.68 175.55 138.21 175.71 138.04 175.98C137.35 177.06 136.79 178.17 136.19 179.25ZM170.27 177.15C171.65 177.54 172.7 177.92 173.9 178.21C175.85 178.68 177.81 179.07 179.76 179.55C183.2 180.4 186.57 180.19 189.93 179.11C199.62 175.98 209.32 172.88 219.02 169.76C219.31 169.67 219.64 169.59 219.85 169.39C220.17 169.09 220.57 168.72 220.63 168.33C220.66 168.12 220.1 167.68 219.74 167.57C214.74 166.17 209.66 165.61 204.49 166.39C204.01 166.46 203.59 166.92 203.02 167.27C202.26 166.27 201.44 165.1 200.54 164.01C198.87 161.99 196.94 160.28 194.16 160.13C193.12 160.07 192.07 160.36 190.69 160.53C193.9 162.95 196.74 165.09 199.57 167.23C199.46 167.37 199.36 167.51 199.26 167.66C198.89 167.41 198.53 167.16 198.16 166.92C194.88 164.71 191.59 162.52 188.31 160.29C187.28 159.59 186.22 159.44 185.1 159.93C181.01 161.72 176.85 161.63 172.56 160.66C168.58 159.76 165.06 161.42 163.38 164.83C164.29 164.73 165.06 164.64 165.85 164.56C168.75 164.3 171.65 163.77 174.53 163.87C177.15 163.96 179.77 164.65 182.36 165.24C184.49 165.72 185.82 167.22 186.86 169.11C188.4 171.9 187.83 171.39 190.63 170.77C192.11 170.44 193.57 169.96 195.04 169.56C195.3 169.49 195.58 169.49 195.85 169.46C195.88 169.59 195.92 169.72 195.95 169.84C194.71 170.25 193.46 170.67 192.22 171.07C190.99 171.47 189.77 171.86 188.17 172.36C187.87 171.97 187.11 171.32 186.73 170.5C185.34 167.49 182.97 166.12 179.78 165.45C175.08 164.46 170.49 164.61 165.79 165.41C157.23 166.87 148.56 167.2 139.89 167.35C138.7 167.37 138.13 167.7 138.09 168.94C138.04 170.42 137.88 171.89 137.8 173.37C137.78 173.75 137.85 174.14 137.89 174.75C139.58 174.44 141.18 174.15 142.78 173.84C146.54 173.12 150.31 172.39 154.06 171.65C155.74 171.32 157.39 171.43 158.88 172.29C161.08 173.56 163.34 173.61 165.7 172.94C166.54 172.7 167.38 172.49 168.2 172.18C171.86 170.78 175.39 170.9 178.92 172.73C180.26 173.42 181.87 173.58 183.43 174.2C182.56 174.2 181.69 174.19 180.82 174.21C180.05 174.22 179.27 174.15 178.53 174.31C176.24 174.79 173.98 175.37 171.71 175.91C170.77 176.18 169.04 176.26 170.27 177.15ZM123.42 123.27C122.56 124.17 122.52 124.97 123.08 126.07C126.36 132.6 129.56 139.17 132.83 145.71C134.77 149.59 135.86 153.67 136.06 157.99C136.15 159.91 136.34 161.82 136.4 163.73C136.43 164.63 136.64 165.21 137.62 165.4C137.99 165.47 138.31 165.85 138.66 166.07C138.89 166.21 139.16 166.4 139.39 166.38C139.53 166.37 139.73 166.01 139.76 165.79C139.84 165.14 139.88 164.49 139.89 163.84C140.03 156.29 139 148.91 136.56 141.75C136.46 141.47 136.41 141.13 136.22 140.91C133.67 137.85 133 134.03 131.86 130.39C130.63 126.45 129.27 122.55 127.87 118.67C127.46 117.54 126.78 116.49 126.1 115.49C124.42 113 123.21 110.34 122.67 107.37C122.48 106.35 122.16 105.37 120.99 105.12C119.71 104.85 118.68 105.38 117.91 106.39C116.76 107.89 116.65 109.63 117 111.38C117.43 113.51 117.92 115.64 118.56 117.71C118.72 118.22 119.47 118.76 120.04 118.89C121.47 119.22 122.96 119.33 124.43 119.54C124.89 119.61 125.33 119.72 126.2 119.91C125.12 121.24 124.33 122.32 123.42 123.27ZM159.01 133.05C157.56 128.23 155.67 123.54 153.82 118.86C153.12 117.08 151.51 116.12 149.31 115.51C154.65 131.99 156.6 148.58 155.17 165.76C157.48 165.53 159.58 165.33 161.68 165.09C161.92 165.06 162.2 164.78 162.33 164.54C164.29 160.74 167.45 159.15 171.65 159.43C171.77 159.43 171.9 159.39 172.2 159.34C171.96 159.01 171.81 158.71 171.58 158.51C170.44 157.56 169.32 156.6 168.13 155.74C166.19 154.34 165.4 154.51 163.02 153.7C160.43 148.02 160.75 138.83 159.01 133.05ZM140.2 154.85C140.65 158.24 140.6 161.71 140.64 165.14C140.65 166.21 140.93 166.53 141.96 166.42C142.86 166.32 143.78 166.31 144.7 166.34C145.65 166.37 146.05 166.07 145.88 165.05C144.78 158.49 143.71 151.92 142.64 145.35C142.48 144.35 142.14 143.8 140.95 143.65C139.84 143.52 138.78 142.86 137.85 142.49C138.65 146.59 139.65 150.69 140.2 154.85Z" fill="#3C3C3B"/>
<path d="M146.93 178.81C151.93 177.46 156.92 176.09 161.92 174.74C162.27 174.64 162.66 174.67 163.03 174.65C163.03 174.74 163.03 174.83 163.04 174.92C157.95 176.36 152.85 177.79 147.76 179.22M136.19 179.25C134.26 179.91 128.4 180.73 127.38 179.75C127.85 179.55 131.15 179.28 131.55 179.2C132.53 179 133.54 178.95 134.5 178.68C136 178.25 136.97 176.83 137.02 175.54C137.12 172.81 137.28 170.08 137.51 167.35C137.58 166.59 137.45 166.22 136.71 166.03C135.45 165.7 134.18 165.35 132.95 164.93C132.07 164.63 131.52 164.83 131.23 165.72C130.37 168.36 129.49 170.99 128.65 173.65C128.41 174.39 128.29 175.18 128.11 175.95C127.96 175.94 127.82 175.94 127.67 175.93C127.61 175.52 127.43 175.09 127.51 174.72C127.81 173.23 128.13 171.74 128.56 170.28C129.01 168.75 129.59 167.26 130.16 165.63C129.73 165.49 129.38 165.33 129.02 165.25C125.53 164.5 122.03 163.81 118.55 163C117.48 162.75 116.75 162.55 116.42 162.1C116.22 161.26 116.24 161.42 116.22 160.56C116.2 159.95 116.09 159.34 115.92 158.76C114.67 154.64 114.9 150.51 115.86 146.37C116.81 142.3 117.01 138.19 116.2 134.06C115.84 132.18 115.61 130.27 115.25 128.39C114.59 124.94 114.38 121.36 112.36 118.3C112.31 118.23 112.41 118.07 112.49 117.68C112.89 117.99 113.28 118.15 113.45 118.45C113.88 119.2 114.38 119.97 114.56 120.79C115.3 124.19 115.88 127.62 116.61 131.02C117.82 136.6 117.91 142.13 116.51 147.71C115.75 150.72 115.6 153.81 116.37 156.9C116.71 158.25 116.83 159.65 117.16 161C117.25 161.39 117.66 161.91 118.02 162C121.91 162.95 125.82 163.83 129.73 164.7C130.03 164.77 130.54 164.78 130.67 164.6C131.47 163.59 132.41 163.83 133.4 164.14C134.01 164.33 134.62 164.47 135.45 164.69C135.33 162.66 135.18 160.85 135.13 159.03C134.99 154.25 133.84 149.76 131.67 145.48C128.46 139.15 125.39 132.75 122.22 126.4C121.55 125.06 121.56 123.95 122.63 122.84C123.28 122.17 123.83 121.4 124.6 120.45C122.82 120.2 121.33 119.97 119.83 119.79C118.59 119.64 117.88 119 117.61 117.77C116.98 114.89 116.3 112.02 115.6 108.99C114.77 109.35 113.81 109.71 112.9 110.2C110.28 111.61 107.61 112.79 104.65 113.37C100.91 114.1 98.5199 116.58 97.6499 120.17C97.0399 122.71 96.7599 125.43 96.9399 128.04C97.6199 138.34 98.3999 148.63 99.4299 158.9C99.8699 163.29 100.97 167.63 101.78 171.98C102.07 173.55 103.03 174.53 104.54 174.97C106.71 175.6 108.85 176.49 111.07 176.77C115.37 177.33 122.78 177.77 127.49 178.16C127.5 178.65 127.9 178.71 127.56 178.86C123.07 178.97 113.92 178.51 109.52 177.48C107.71 177.06 105.94 176.49 103.95 175.94C103.51 177.6 103.08 179.23 102.65 180.85C102.4 181.79 102.72 182.13 103.72 182.23C107.4 182.59 111.07 183.05 114.75 183.48C115.17 183.53 120.13 184.08 120.54 184.17C120.52 184.31 120.5 184.44 120.48 184.58C120.08 184.58 115.13 184.21 114.73 184.16C106.5 183.35 98.2699 182.49 90.0299 181.74C86.3099 181.4 82.5599 181 78.8399 181.13C73.3499 181.32 70.2599 184.63 69.9099 190.1C69.7699 192.27 69.6999 194.44 69.5599 196.61C69.5299 197.02 69.3499 197.41 69.2399 197.81C68.8399 197.56 68.6599 197.33 68.6799 197.12C68.8899 193.9 68.9799 190.68 69.4099 187.49C69.5799 186.22 69.6199 185.09 69.3799 183.83C66.5799 168.86 63.7699 153.88 61.1299 138.88C60.1799 133.49 59.6499 128.02 58.9199 122.59C58.9199 121.98 58.9199 121.37 58.9199 120.76C59.2599 118.28 60.3899 116.4 62.6899 115.18C63.2199 114.89 63.5499 113.83 63.5999 113.1C63.7199 111.47 64.0999 110.79 65.6699 110.4C66.5099 110.19 67.3899 110.1 68.2399 109.96C74.4399 109.01 80.6399 108.07 86.8399 107.14C87.3099 107.07 96.9499 105.61 97.4199 105.58C97.1199 105.98 98.0799 106.05 87.3299 107.62C83.0799 108.35 78.8399 109.08 74.5799 109.79C71.7899 110.26 68.9899 110.69 66.1999 111.18C65.1799 111.35 64.2699 111.77 64.4799 113.03C64.7499 114.63 64.0099 115.64 62.6899 116.3C60.7299 117.28 60.0399 118.98 59.9499 121C59.8999 121.95 59.9399 122.92 60.0699 123.87C60.7699 129.13 61.3399 134.43 62.2599 139.65C64.7699 153.84 67.4299 168 70.0399 182.17C70.1499 182.79 70.3399 183.39 70.4799 183.94C71.9199 182.98 73.1599 181.93 74.5799 181.27C75.6999 180.75 75.8899 180.21 75.6699 179.1C74.1899 171.85 72.7299 164.59 71.3199 157.33C69.0399 145.53 66.7999 133.73 64.5699 121.92C64.2899 120.43 63.6599 116.33 63.4799 114.82C63.5799 114.8 63.6899 114.78 63.7999 114.77C63.8999 115.13 64.5899 118.06 64.6599 118.43C66.8499 129.49 69.0099 140.56 71.2099 151.61C73.0299 160.79 74.8999 169.96 76.7199 179.15C76.8899 180.04 77.1799 180.35 78.1699 180.26C79.9399 180.11 81.7399 180.04 83.5099 180.2C89.0999 180.7 94.6899 181.3 100.28 181.9C101.25 182 101.66 181.77 101.84 180.74C102.11 179.3 102.57 177.88 103.06 176.49C103.29 175.84 103.2 175.55 102.66 175.09C102.03 174.55 101.36 173.82 101.17 173.05C100.33 169.77 99.3499 166.48 98.9899 163.13C98.0899 154.91 97.4599 146.66 96.8099 138.41C96.6499 136.38 96.2999 134.5 95.1999 132.73C94.5399 131.67 94.0999 130.46 93.6199 129.29C91.7399 124.7 91.7299 120.14 93.8599 115.61C94.6899 113.84 95.5199 112.06 96.2999 110.26C96.6499 109.43 97.0699 108.55 97.1299 107.68C97.6199 100.79 98.8499 94.03 100.47 87.34C100.63 86.66 101.09 86.04 101.41 85.39C101.55 85.45 101.7 85.5 101.84 85.56C100.25 91.82 98.9199 98.13 98.2899 104.57C100.15 100.21 101.48 95.66 103.59 91.4C103.76 91.89 103.75 92.33 103.61 92.73C102.03 97.2 100.51 101.7 98.8099 106.13C97.3299 109.99 95.5799 113.74 94.0599 117.58C91.9899 122.81 93.5799 127.59 96.1699 132.2C96.1499 130.58 96.2199 128.86 95.6199 127.42C94.6599 125.13 94.2699 122.84 94.9799 120.55C95.8299 117.78 96.8799 115.03 98.1399 112.43C99.4099 109.82 101.22 107.46 102.52 104.86C104.54 100.82 106.33 96.66 108.22 92.56C108.63 91.68 109.07 90.82 109.49 89.95C109.65 90.03 109.81 90.1 109.98 90.18C109.86 90.66 109.76 91.16 109.61 91.62C107.69 97.34 105.17 102.78 101.95 107.89C99.4799 111.8 97.1999 115.82 96.0399 120.35C95.7599 121.43 95.7299 122.57 95.5899 123.69C95.7099 123.71 95.8399 123.72 95.9599 123.74C96.0099 123.54 96.0699 123.35 96.0999 123.15C96.9199 117.12 99.5599 113 106.61 112.06C107.1 111.99 107.69 111.83 108.04 111.51C111.88 107.97 115.88 104.59 118.96 100.31C121.65 96.59 122.81 92.61 121.41 88C120.52 85.07 120.74 82.06 121.78 79.13C122.51 77.04 123.88 75.77 126.09 75.46C127.59 75.25 129.09 74.97 130.61 74.79C134.77 74.32 138.34 72.72 142.33 70.98C143.57 70.36 144.71 69.78 145.69 69.61C147.11 69.36 146.63 69.75 147.09 69.75C145.48 70.58 143.29 71.26 141.67 72C139.47 73.01 137.29 74.18 134.98 74.78C132.13 75.52 129.15 75.76 126.22 76.18C124.32 76.45 123.18 77.53 122.56 79.28C121.55 82.13 121.37 85.03 122.25 87.89C123.62 92.33 122.7 96.29 120.23 100.06C117.89 103.64 114.8 106.5 111.65 109.33C111.31 109.64 110.97 109.96 110.63 110.27C111.5 110.18 112.17 109.85 112.85 109.58C114.65 108.88 116.35 108.27 117.16 106.1C117.73 104.57 119.36 103.91 121.11 104.21C122.81 104.5 123.26 105.83 123.69 107.29C124.24 109.2 124.67 111.28 125.74 112.89C129.17 118.06 131.12 123.78 132.73 129.69C133.5 132.49 134.4 135.28 135.52 137.96C136.47 140.23 138.2 141.88 140.64 142.71C141.7 143.06 142.17 142.79 142.05 141.7C141.72 138.68 141.5 135.63 140.94 132.66C140 127.71 138.66 122.83 137.8 117.87C137.29 114.88 136.75 111.98 135.26 109.3C134.09 107.19 134.25 105.02 135.35 102.92C135.89 101.89 136.53 100.92 137.16 99.87C134.21 97.84 131.31 95.85 128.47 93.9C127.86 95.82 127.4 97.73 126.66 99.52C125.92 101.34 123.58 103.97 121.5 104.6C121.5 104.27 122.83 102.97 123.02 102.8C125.5 100.59 126.56 97.69 127.11 94.54C127.61 91.65 128.12 88.76 126.41 86.04C126.18 85.68 126.12 85.22 126.02 84.8C125.03 80.62 126.75 78.08 130.98 77.56C132.83 77.33 134.71 77.28 136.58 77.12C140.56 76.79 144.01 75.35 146.58 72.17C147.34 71.1 146.7 70.04 146.86 69.68C147.06 69.84 147.22 69.67 147.41 69.84C147.22 70.2 148.09 71.24 147.07 72.64C146.18 73.86 144.99 74.87 143.77 75.76C141.08 77.71 137.89 78.01 134.7 78.25C133.06 78.37 131.39 78.48 129.78 78.81C127.9 79.19 126.81 80.41 126.9 82.32C126.97 83.89 127.54 85.43 127.9 86.98C128.14 87.98 128.75 89.05 128.57 89.97C128.14 92.16 129.25 93.39 130.82 94.38C134.38 96.65 137.97 98.85 141.58 101.05C142.21 101.44 142.89 101.75 143.59 101.98C145.08 102.48 145.95 101.84 146.04 100.27C146.08 99.66 146.05 99.02 146.27 98.48C146.57 97.75 147.11 97.15 147.77 97.57C147.49 98.68 147.14 99.6 147.03 100.55C146.8 102.53 145.51 103.55 143.57 102.96C142.42 102.62 141.32 102.03 140.25 101.46C137.47 99.98 137.52 99.98 136.06 102.86C135.53 103.91 135.57 104.77 136.17 105.77C137.27 107.59 138.92 108.78 140.68 109.84C142.58 110.99 144.52 112.05 146.42 113.2C146.9 113.49 148.1 114.31 148.53 114.69C148.44 114.81 148.73 115.29 148.64 115.41C144.69 112.8 138.69 110.9 135.39 107.08C135.59 108.03 135.98 108.83 136.27 109.67C137 111.8 138.09 113.89 138.32 116.07C138.89 121.48 140.32 126.67 141.66 131.89C142.29 134.32 142.85 136.85 142.89 139.34C142.93 142.3 143.51 145.12 144.1 147.96C144.33 149.07 144.56 150.18 144.72 151.3C145.37 155.87 146.01 160.44 146.59 165.02C146.71 165.96 147.05 166.29 148 166.2C149.65 166.05 151.31 165.91 152.96 165.93C154.18 165.95 154.48 165.44 154.55 164.32C155.67 148.28 153.88 132.59 148.99 117.26C148.73 116.43 148.68 115.53 148.53 114.67C149.56 114.87 150.67 114.89 151.6 115.31C153.82 116.3 154.76 118.37 155.71 120.48C158.76 127.3 160.86 134.31 161.28 141.84C161.43 144.54 162.2 147.23 162.95 149.85C163.29 151.04 163.09 150.63 163.66 151.96C163.72 152.16 163.77 152.37 163.87 152.72C164.06 153 164.02 153 164.51 153.18C165.08 153.42 166.19 153.26 168.14 154.74C169.76 155.97 171.17 157.46 172.71 158.79C173.23 159.24 173.83 159.73 174.48 159.9C177.98 160.85 181.37 160.34 184.7 159.01C186.19 158.41 187.63 158.39 189.02 159.46C189.41 159.76 190.22 159.85 190.7 159.67C194.42 158.26 197.49 159.45 200.05 162.12C201.06 163.17 201.89 163.32 203.21 162.95C212.13 160.41 221.07 157.94 230 155.46C230.25 155.39 230.52 155.41 230.78 155.39C230.82 155.53 230.85 155.68 230.88 155.83C221.36 158.94 211.62 161.38 202 164.13C202.34 165.41 202.97 165.71 204.09 165.54C209.33 164.74 214.51 165.09 219.6 166.61C220.51 166.88 221.58 167.03 221.59 168.31C221.6 169.54 220.66 169.98 219.69 170.35C219.48 170.43 219.27 170.48 219.07 170.55C209.58 173.59 200.08 176.62 190.59 179.68C187.16 180.78 183.7 181.13 180.16 180.34C177.44 179.73 174.71 179.16 172.02 178.45C171.08 178.2 170.15 177.73 169.37 177.14C168.49 176.46 168.65 175.93 169.72 175.65C171.28 175.25 172.86 174.92 174.43 174.58C175.76 174.29 177.09 174.02 178.78 173.67C176.28 172.25 174.05 171.54 171.59 172.14C169.64 172.61 167.73 173.21 165.82 173.79C163.38 174.53 161.01 174.48 158.74 173.23C157.29 172.43 155.76 172.32 154.17 172.61C149.12 173.55 144.07 174.51 139.03 175.48C138.68 175.55 138.21 175.71 138.04 175.98C137.35 177.06 136.79 178.17 136.19 179.25ZM170.27 177.15C171.65 177.54 172.7 177.92 173.9 178.21C175.85 178.68 177.81 179.07 179.76 179.55C183.2 180.4 186.57 180.19 189.93 179.11C199.62 175.98 209.32 172.88 219.02 169.76C219.31 169.67 219.64 169.59 219.85 169.39C220.17 169.09 220.57 168.72 220.63 168.33C220.66 168.12 220.1 167.68 219.74 167.57C214.74 166.17 209.66 165.61 204.49 166.39C204.01 166.46 203.59 166.92 203.02 167.27C202.26 166.27 201.44 165.1 200.54 164.01C198.87 161.99 196.94 160.28 194.16 160.13C193.12 160.07 192.07 160.36 190.69 160.53C193.9 162.95 196.74 165.09 199.57 167.23C199.46 167.37 199.36 167.51 199.26 167.66C198.89 167.41 198.53 167.16 198.16 166.92C194.88 164.71 191.59 162.52 188.31 160.29C187.28 159.59 186.22 159.44 185.1 159.93C181.01 161.72 176.85 161.63 172.56 160.66C168.58 159.76 165.06 161.42 163.38 164.83C164.29 164.73 165.06 164.64 165.85 164.56C168.75 164.3 171.65 163.77 174.53 163.87C177.15 163.96 179.77 164.65 182.36 165.24C184.49 165.72 185.82 167.22 186.86 169.11C188.4 171.9 187.83 171.39 190.63 170.77C192.11 170.44 193.57 169.96 195.04 169.56C195.3 169.49 195.58 169.49 195.85 169.46C195.88 169.59 195.92 169.72 195.95 169.84C194.71 170.25 193.46 170.67 192.22 171.07C190.99 171.47 189.77 171.86 188.17 172.36C187.87 171.97 187.11 171.32 186.73 170.5C185.34 167.49 182.97 166.12 179.78 165.45C175.08 164.46 170.49 164.61 165.79 165.41C157.23 166.87 148.56 167.2 139.89 167.35C138.7 167.37 138.13 167.7 138.09 168.94C138.04 170.42 137.88 171.89 137.8 173.37C137.78 173.75 137.85 174.14 137.89 174.75C139.58 174.44 141.18 174.15 142.78 173.84C146.54 173.12 150.31 172.39 154.06 171.65C155.74 171.32 157.39 171.43 158.88 172.29C161.08 173.56 163.34 173.61 165.7 172.94C166.54 172.7 167.38 172.49 168.2 172.18C171.86 170.78 175.39 170.9 178.92 172.73C180.26 173.42 181.87 173.58 183.43 174.2C182.56 174.2 181.69 174.19 180.82 174.21C180.05 174.22 179.27 174.15 178.53 174.31C176.24 174.79 173.98 175.37 171.71 175.91C170.77 176.18 169.04 176.26 170.27 177.15ZM123.42 123.27C122.56 124.17 122.52 124.97 123.08 126.07C126.36 132.6 129.56 139.17 132.83 145.71C134.77 149.59 135.86 153.67 136.06 157.99C136.15 159.91 136.34 161.82 136.4 163.73C136.43 164.63 136.64 165.21 137.62 165.4C137.99 165.47 138.31 165.85 138.66 166.07C138.89 166.21 139.16 166.4 139.39 166.38C139.53 166.37 139.73 166.01 139.76 165.79C139.84 165.14 139.88 164.49 139.89 163.84C140.03 156.29 139 148.91 136.56 141.75C136.46 141.47 136.41 141.13 136.22 140.91C133.67 137.85 133 134.03 131.86 130.39C130.63 126.45 129.27 122.55 127.87 118.67C127.46 117.54 126.78 116.49 126.1 115.49C124.42 113 123.21 110.34 122.67 107.37C122.48 106.35 122.16 105.37 120.99 105.12C119.71 104.85 118.68 105.38 117.91 106.39C116.76 107.89 116.65 109.63 117 111.38C117.43 113.51 117.92 115.64 118.56 117.71C118.72 118.22 119.47 118.76 120.04 118.89C121.47 119.22 122.96 119.33 124.43 119.54C124.89 119.61 125.33 119.72 126.2 119.91C125.12 121.24 124.33 122.32 123.42 123.27ZM159.01 133.05C157.56 128.23 155.67 123.54 153.82 118.86C153.12 117.08 151.51 116.12 149.31 115.51C154.65 131.99 156.6 148.58 155.17 165.76C157.48 165.53 159.58 165.33 161.68 165.09C161.92 165.06 162.2 164.78 162.33 164.54C164.29 160.74 167.45 159.15 171.65 159.43C171.77 159.43 171.9 159.39 172.2 159.34C171.96 159.01 171.81 158.71 171.58 158.51C170.44 157.56 169.32 156.6 168.13 155.74C166.19 154.34 165.4 154.51 163.02 153.7C160.43 148.02 160.75 138.83 159.01 133.05ZM140.2 154.85C140.65 158.24 140.6 161.71 140.64 165.14C140.65 166.21 140.93 166.53 141.96 166.42C142.86 166.32 143.78 166.31 144.7 166.34C145.65 166.37 146.05 166.07 145.88 165.05C144.78 158.49 143.71 151.92 142.64 145.35C142.48 144.35 142.14 143.8 140.95 143.65C139.84 143.52 138.78 142.86 137.85 142.49C138.65 146.59 139.65 150.69 140.2 154.85Z" stroke="#3C3C3B" stroke-width="0.1726" stroke-miterlimit="10" stroke-linecap="round" stroke-linejoin="round"/>
<path d="M230.04 137.76C231.97 145.51 234.41 153.07 237.87 160.29C239.95 164.62 241.67 169.09 241.98 173.97C242.1 175.93 241.7 176.5 239.81 176.87C233.26 178.15 226.67 178.35 220.06 177.42C219.62 177.36 219.18 177.32 218.75 177.27C218.71 177.45 218.67 177.63 218.63 177.81C219.49 178.02 220.36 178.4 221.22 178.42C225.35 178.49 229.5 178.62 233.62 178.41C236.42 178.27 239.27 177.88 241.97 177.13C246.48 175.87 247.77 173.75 247.33 169.12C246.88 164.4 245.5 159.92 243.93 155.47C242.17 150.46 240.43 145.44 238.71 140.43C238.56 139.99 236.65 133.34 236.35 132.98C229.04 131.88 229.61 136.03 230.04 137.76ZM239.83 141.46C241.79 146.86 243.8 152.25 245.71 157.66C247.15 161.73 248.15 165.91 248.48 170.25C248.74 173.67 247.32 176.03 244.26 177.3C242.39 178.08 240.39 178.86 238.4 178.98C232.71 179.33 227.01 179.36 221.31 179.45C220.46 179.47 219.49 179.33 218.8 178.91C218.2 178.55 217.72 177.72 217.56 177.01C217.48 176.64 218.12 175.92 218.6 175.64C224.85 172.02 231.57 170.2 238.81 170.33C239.31 170.34 239.81 170.33 240.59 170.33C240.05 168.61 239.69 167.09 239.11 165.66C237.03 160.45 234.83 155.28 232.78 150.06C232.33 148.91 231.89 148.66 230.72 149.03C225.21 150.8 219.71 152.64 214.13 154.16C210.11 155.26 206 156.14 201.88 156.68C198.19 157.16 196.26 154.55 197.01 150.92C199.37 139.5 201.63 128.05 204.02 116.64C204.92 112.34 206.01 108.08 207.1 103.83C207.79 101.14 209.49 99.51 212.37 99.13C225.99 97.37 239.66 96.44 253.36 95.68C255.67 95.55 256.41 96.48 255.91 98.68C255.15 102.03 254.47 105.41 253.61 108.74C251.01 118.86 248.35 128.96 245.69 139.06C245.58 139.5 244.52 144.29 244.31 144.7C244.19 144.65 243.86 144.13 243.75 144.08C243.83 143.63 244.85 139.25 244.96 138.81C246.4 133.25 247.89 127.7 249.27 122.12C251.23 114.22 253.12 106.3 255 98.39C255.35 96.92 255.02 96.56 253.51 96.62C251.73 96.69 249.94 96.78 248.16 96.93C236.54 97.93 224.92 98.97 213.29 99.94C210.41 100.18 208.6 101.52 207.9 104.36C207.14 107.44 206.21 110.49 205.57 113.59C202.97 126.16 200.45 138.75 197.9 151.34C197.31 154.24 198.98 156.18 201.94 155.83C204.18 155.57 206.45 155.27 208.62 154.65C216.11 152.5 223.55 150.2 231.02 148C231.87 147.75 231.86 147.36 231.67 146.67C231.02 144.41 230.42 142.14 229.82 139.86C229.52 138.73 229.2 137.59 229.05 136.42C229.02 131.24 235.37 131.77 236.72 132.79C237.01 133.64 239.53 140.62 239.83 141.46ZM234.08 176.75C235.93 176.54 237.78 176.22 239.63 175.96C240.65 175.82 241.11 175.31 241.08 174.21C240.99 171.24 240.97 171.16 238.01 171.2C231.95 171.26 226.22 172.64 220.84 175.43C220.47 175.62 220.12 175.85 219.75 176.06C224.56 177.12 229.31 177.29 234.08 176.75Z" fill="#3C3C3B" stroke="#3C3C3B" stroke-width="0.1726" stroke-miterlimit="10" stroke-linecap="round" stroke-linejoin="round"/>
<path d="M135.93 58.1C135 57.59 131.56 55.69 130.56 55.47C125.95 54.43 120.14 57.54 118.53 61.96C117.34 65.23 116.33 68.57 115.35 71.9C113.79 77.2 112.32 82.53 110.79 87.84C110.67 88.28 110.11 90.16 109.87 90.56C109.69 90.47 109.66 90.04 109.48 89.94C112.68 80.2 114.68 68.91 118.78 59.06C118.19 59.54 117.82 59.8 117.5 60.11C114.8 62.66 113.21 65.91 111.96 69.31C109.55 75.89 107.26 82.51 104.89 89.1C104.71 89.61 103.85 92.23 103.6 92.71C103.49 92.65 103.11 92.66 103 92.61C103 92.36 103.73 89.88 103.81 89.66C104.54 87.58 105.28 85.52 106.03 83.45C107.76 78.66 109.44 73.86 111.25 69.1C112.87 64.87 114.89 60.88 118.9 58.32C119.11 58.19 119.29 57.97 119.42 57.75C121.52 54.33 124.79 52.95 128.57 52.46C129.75 52.31 130.93 52.24 132.11 52.14C128.96 50.14 125.68 49.82 122.3 51.25C118.16 53.01 115.36 56.27 112.89 59.85C108.52 66.18 105.62 73.21 103.3 80.5C103.17 80.91 101.64 86.59 101.46 86.98C101.3 86.94 100.75 86.95 100.58 86.91C100.77 86.08 102.35 80.3 102.54 79.72C104.62 73.33 107.07 67.1 110.66 61.38C113.13 57.44 115.87 53.74 119.94 51.29C123.38 49.22 127.17 48.37 130.75 50.34C133.27 51.72 135.84 52.61 138.55 53.31C138.63 53.33 138.71 53.38 138.79 53.41C143.95 55.37 148.08 58.84 152.13 62.41C154.13 64.17 155.53 66.39 156.42 68.87C156.76 69.82 156.86 70.91 156.85 71.93C156.84 72.96 155.67 73.9 154.73 74.14C155.56 73.03 156.47 71.8 156.02 70.4C155.09 67.48 153.5 64.95 151.17 62.94C149.15 61.21 147.1 59.52 144.98 57.94C141.95 55.69 138.66 53.91 134.84 53.4C130.51 52.82 126.31 53.08 122.52 55.57C122.17 55.8 121.87 56.1 121.54 56.38C122.16 56.36 122.58 56.14 123.01 55.94C125.18 54.96 127.44 54.3 129.84 54.56C131.39 54.73 136.39 56.55 137.86 58.21C137.88 58.23 135.93 58.1 135.93 58.1Z" fill="#3C3C3B" stroke="#3C3C3B" stroke-width="0.1726" stroke-miterlimit="10" stroke-linecap="round" stroke-linejoin="round"/>
<path d="M147.76 179.22C139.97 181.41 107.7 190.61 99.9298 192.88C92.6598 195 85.4198 197.21 78.1598 199.36C77.6798 199.5 77.1498 199.47 76.6398 199.51C76.6098 199.31 76.5798 199.11 76.5498 198.91C86.2598 196.04 95.9798 193.18 105.91 190.25C99.7198 189.51 93.8498 188.78 87.9698 188.12C85.6398 187.86 83.2898 187.65 80.9398 187.64C78.5298 187.63 77.7598 188.5 77.6898 190.88C77.6398 192.57 77.6698 194.27 77.6098 195.97C77.5898 196.41 77.3798 196.83 77.2598 197.26C77.1298 197.24 76.9898 197.22 76.8598 197.2C76.7898 196.84 76.6698 196.48 76.6698 196.12C76.6798 194.16 76.6598 192.2 76.7798 190.24C76.9198 187.97 77.9198 186.9 80.1998 186.75C81.7998 186.65 83.4298 186.74 85.0198 186.92C90.7298 187.58 96.4198 188.34 102.13 189.01C105.68 189.42 109.19 189.66 112.71 188.46C115.74 187.42 143.82 179.63 146.92 178.8" fill="#3C3C3B"/>
<path d="M147.76 179.22C139.97 181.41 107.7 190.61 99.9298 192.88C92.6598 195 85.4198 197.21 78.1598 199.36C77.6798 199.5 77.1498 199.47 76.6398 199.51C76.6098 199.31 76.5798 199.11 76.5498 198.91C86.2598 196.04 95.9798 193.18 105.91 190.25C99.7198 189.51 93.8498 188.78 87.9698 188.12C85.6398 187.86 83.2898 187.65 80.9398 187.64C78.5298 187.63 77.7598 188.5 77.6898 190.88C77.6398 192.57 77.6698 194.27 77.6098 195.97C77.5898 196.41 77.3798 196.83 77.2598 197.26C77.1298 197.24 76.9898 197.22 76.8598 197.2C76.7898 196.84 76.6698 196.48 76.6698 196.12C76.6798 194.16 76.6598 192.2 76.7798 190.24C76.9198 187.97 77.9198 186.9 80.1998 186.75C81.7998 186.65 83.4298 186.74 85.0198 186.92C90.7298 187.58 96.4198 188.34 102.13 189.01C105.68 189.42 109.19 189.66 112.71 188.46C115.74 187.42 143.82 179.63 146.92 178.8" stroke="#3C3C3B" stroke-width="0.1726" stroke-miterlimit="10"/>
<path d="M200.62 156.33C200.7 155.64 201.07 153.45 201.15 153C202.86 143.66 204.56 134.33 206.32 125C207.77 117.31 209.32 109.64 211.83 102.2C212.19 101.12 212.8 100.65 213.88 100.56C225.78 99.63 237.67 98.67 249.56 97.75C250.61 97.67 254.19 97.52 255.25 97.52C255.26 97.63 255.27 97.74 255.28 97.84C254.62 97.92 251.43 98.24 250.77 98.29C238.71 99.32 226.65 100.36 214.59 101.33C213.11 101.45 212.39 102.09 212.09 103.45C210.43 110.92 208.61 118.36 207.11 125.86C205.3 134.96 203.77 144.1 202.1 153.23C202.02 153.67 201.69 155.71 201.6 156.34C201.46 156.3 200.76 156.36 200.62 156.33Z" fill="#3C3C3B" stroke="#3C3C3B" stroke-width="0.1726" stroke-miterlimit="10"/>
<path d="M155.43 92.47C155.41 92.31 155.35 92.13 155.39 91.98C156.19 89.35 155.38 86.97 154.48 84.5C153.89 82.88 153.82 81.04 153.72 79.29C153.65 77.91 154.01 76.52 154 75.13C153.98 72.14 152.57 70.87 149.63 70.36C148.85 70.23 147.34 69.87 146.79 69.66C147.68 69.54 149.41 69.63 150.31 69.79C151.57 70.02 152.68 70.44 153.52 71.37C154.82 72.81 155.15 74.57 154.88 76.37C154.34 79.94 154.43 83.39 156.09 86.68C156.32 87.14 156.38 87.69 156.46 88.2C156.69 89.73 156.27 91.14 155.81 92.55C155.7 92.52 155.57 92.49 155.43 92.47Z" fill="#3C3C3B" stroke="#3C3C3B" stroke-width="0.1726" stroke-miterlimit="10" stroke-linecap="round" stroke-linejoin="round"/>
<path d="M133.76 56.26C139.6 57.07 148.9 65.8 147.05 69.74C146 65.66 143.2 62 139.67 60.18C138.02 59.33 137.28 58.72 135.58 57.93C135.14 57.72 133.75 57.03 133.36 56.72L133.76 56.26Z" fill="#3C3C3B" stroke="#3C3C3B" stroke-width="0.1726" stroke-miterlimit="10" stroke-linecap="round" stroke-linejoin="round"/>
<path d="M149.37 90.95C152.32 90.28 152.32 90.29 151.39 87.32C151.28 86.99 151.2 86.65 151.12 86.31C150.59 84.08 151.26 81.62 152.94 79.89C151.33 82.71 151.48 85.56 152.68 88.44C152.86 88.87 152.96 89.37 152.97 89.84C152.98 90.2 152.89 90.64 152.68 90.93C152.23 91.55 149.29 91.98 148.17 91.5C148.69 91.26 149.02 91.03 149.37 90.95Z" fill="#3C3C3B"/>
<path d="M149.71 92.23C149.96 93.02 150.17 93.77 149.9 94.27C149.53 94.98 148.8 95.51 148.17 96.17C147.76 95.69 147.28 95.12 146.68 94.42C148.03 94.19 149.7 94.41 149.71 92.23Z" fill="#3C3C3B"/>
<path d="M128.11 175.92C127.75 178.21 127.44 179.55 132.9 179.49C132.07 180.58 127.77 180.23 127.38 179.74C127.01 179.27 127.47 175.49 127.51 174.69C127.68 174.67 127.94 175.95 128.11 175.92Z" fill="#3C3C3B" stroke="#3C3C3B" stroke-width="0.1726" stroke-miterlimit="10" stroke-linejoin="round"/>
<path d="M240.3 145.2C240.53 144.24 242.71 144.74 243.66 143.98C243.8 144.48 244.45 144.12 244.45 144.74C244.22 145.7 240.96 145.34 240.74 146.3C240.52 146.25 240.51 145.24 240.3 145.2Z" fill="#3C3C3B"/>
<path d="M189.41 169.62C190.6 169.16 191.11 168.25 190.5 167.43C189.74 166.42 188.74 165.6 187.68 164.53C189.06 165.12 190.31 165.66 191.57 166.2C192.93 166.79 194.33 167.28 195.62 168C196.84 168.68 197.93 169.59 199.22 170.23C198.7 168.93 197.62 168.16 196.49 167.58C193.82 166.22 191.08 165 188.36 163.74C187.72 163.44 186.98 163.17 186.54 164.01C186.1 164.85 186.64 165.39 187.3 165.83C187.91 166.25 188.56 166.61 189.08 167.12C189.36 167.4 189.62 168.08 189.48 168.3C189.29 168.6 188.69 168.68 188.26 168.78C188.04 168.83 187.78 168.73 187.29 168.67C187.75 170.13 188.6 169.95 189.41 169.62ZM172.01 168.89C172.53 168.93 173.06 168.95 173.57 168.88C177.38 168.34 180.66 169.42 183.56 171.92C184.52 172.74 185.66 173.34 186.85 173.84C184.33 171.73 181.99 169.37 178.8 168.25C177.2 167.69 171.85 167.9 170.83 168.56C171.34 168.7 171.66 168.85 172.01 168.89Z" fill="white"/>
<path d="M188.26 168.81C188.7 168.71 189.29 168.63 189.48 168.33C189.62 168.1 189.36 167.43 189.08 167.15C188.57 166.64 187.91 166.27 187.3 165.86C186.64 165.41 186.1 164.88 186.54 164.04C186.98 163.2 187.71 163.47 188.36 163.77C191.08 165.03 193.82 166.25 196.49 167.61C197.63 168.19 198.7 168.96 199.22 170.26C197.93 169.62 196.84 168.7 195.62 168.03C194.34 167.31 192.93 166.82 191.57 166.23C190.31 165.69 189.05 165.15 187.68 164.56C188.74 165.62 189.74 166.44 190.5 167.46C191.11 168.28 190.6 169.19 189.41 169.65C188.59 169.97 187.74 170.15 187.28 168.72C187.77 168.75 188.03 168.85 188.26 168.81Z" fill="#3C3C3B"/>
<path d="M178.8 168.25C181.98 169.36 184.33 171.73 186.85 173.84C185.66 173.34 184.51 172.74 183.56 171.92C180.66 169.43 177.38 168.34 173.57 168.88C173.06 168.95 172.53 168.93 172.01 168.89C171.68 168.86 171.35 168.72 170.84 168.57C171.85 167.9 177.2 167.69 178.8 168.25Z" fill="#3C3C3B"/>
<path d="M158.25 64.15C161.03 63.85 163.91 63.85 166.54 63.03C172.62 61.13 177.05 56.87 180.79 51.87C182.07 50.16 181.98 49.69 180.25 48.38C176.61 45.63 174.01 42.17 173.2 37.61C171.66 28.93 174.55 21.82 181.14 16.13C187.06 11.02 194.07 8.16 201.62 6.55C208.14 4.79 219.19 4.61 227.02 7.17C234.79 9.72 242.09 12.69 247.56 19C254.69 27.23 254.85 36.28 248.02 44.75C244.18 49.51 239.35 53.03 233.77 55.38C217.64 62.18 200.72 59.02 192.86 55.84C189.91 54.64 187.33 54.81 184.83 56.81C183.52 57.86 182.13 58.83 180.71 59.75C175.98 62.81 165.35 65.86 158.25 64.15Z" stroke="#3C3C3B" stroke-miterlimit="10"/>
<path d="M208.01 13.51C214.72 13.51 221.41 15.84 226.68 20C228.12 21.14 229.48 22.43 230.42 24.01C233.08 28.43 231.86 34.6 228.11 38.16C224.36 41.71 218.6 42.71 213.64 41.28C208.68 39.84 204.53 36.22 201.79 31.84C200.42 29.65 199.34 27.17 199.39 24.59C199.49 19.47 204.39 15.23 209.5 15C214.61 14.78 219.48 17.98 222.17 22.33C223.46 24.42 224.34 26.84 224.24 29.3C224.14 31.76 222.95 34.24 220.85 35.52C218.59 36.9 215.7 36.73 213.14 36.05C208.48 34.81 204.24 32.03 201.25 28.24C199.37 25.85 197.94 22.7 198.87 19.79C200 16.26 204.39 14.56 207.99 15.43C211.6 16.29 214.44 19.09 216.56 22.13C218.79 25.33 220.49 29.24 219.77 33.08C218.86 38 213.96 41.56 208.97 41.9C203.98 42.24 199.09 39.86 195.42 36.47C193.71 34.89 192.19 33.04 191.41 30.85C190.63 28.66 190.68 26.09 191.94 24.14C193.02 22.48 194.84 21.43 196.74 20.89C202.21 19.31 208.59 21.89 211.44 26.82C214.29 31.75 213.32 38.57 209.22 42.51C205.12 46.46 198.27 47.16 193.45 44.12C190.91 42.52 188.97 40.03 187.87 37.23C186.33 33.31 186.54 28.49 189.24 25.25C191.8 22.18 196.17 21.03 200.11 21.68C204.05 22.32 207.58 24.54 210.55 27.22C215.38 31.59 219.08 37.76 218.71 44.27C218.59 46.42 217.83 48.8 215.89 49.76C214.48 50.46 212.76 50.21 211.31 49.57C206.77 47.57 204.49 41.84 205.86 37.08C207.24 32.32 211.78 28.81 216.69 28.08C221.52 27.36 226.75 29.26 229.68 33.17C232.6 37.08 232.86 42.9 229.97 46.84C227.08 50.78 221.13 52.22 216.93 49.73C215.58 48.93 214.44 47.79 213.48 46.55C210.24 42.4 208.94 36.09 212.19 31.96C213.51 30.29 215.4 29.17 217.31 28.24C220.54 26.67 224.55 25.58 227.56 27.52C230.85 29.63 231.26 34.56 229.46 38.02C228.47 39.92 226.85 41.59 224.78 42.11C222.76 42.62 220.58 41.95 218.91 40.72C217.24 39.49 216.01 37.74 215.01 35.92C211.58 29.72 210.37 22.45 206.69 16.4C206.02 15.31 205.25 14.23 204.17 13.55C201.6 11.94 198.23 13.01 195.54 14.42C191.16 16.73 186.95 20.25 185.89 25.09C185.15 28.45 186.08 32.04 187.91 34.95C189.74 37.87 192.4 40.17 195.27 42.08C199.52 44.91 204.47 46.99 209.57 46.82C214.67 46.64 219.88 43.84 221.88 39.14C222.93 36.66 223.04 33.86 222.72 31.19C221.99 25.09 214.18 14.73 214.3 15.66C214.42 16.59 224.25 21.19 228.05 25.03C230.91 27.92 233.87 31.6 233.07 35.58C232.59 37.97 230.8 39.88 228.89 41.4C221.3 47.43 210.42 49.01 201.43 45.37C197.77 43.89 194.32 41.48 192.49 37.98C190.31 33.8 190.8 28.51 193.23 24.47C195.66 20.43 199.82 17.6 204.32 16.2C208.82 14.8 213.65 14.74 218.33 15.36C214.25 14.16 210.12 12.95 205.87 12.72C201.62 12.49 197.17 13.34 193.77 15.9C189.47 19.14 187.4 24.85 187.93 30.2C188.45 35.56 191.33 40.51 195.24 44.21C197.11 45.98 199.25 47.52 201.66 48.42C204.37 49.43 207.35 49.6 210.23 49.26C220.41 48.08 229.63 39.84 231.03 29.69C231.44 26.72 231.2 23.61 229.94 20.89C227.38 15.38 221.04 12.46 214.97 12.16C211.77 12 208.49 12.45 205.63 13.91C202.77 15.37 200.39 17.88 199.51 20.96C198.59 24.18 199.36 27.67 200.67 30.76C203.72 37.95 209.77 43.82 217.05 46.64C220.7 48.06 224.7 48.73 228.57 48.12C232.44 47.5 236.15 45.52 238.46 42.36C241.14 38.7 241.67 33.58 239.81 29.44C238.09 25.62 234.53 22.81 230.59 21.4C226.64 19.99 222.33 19.88 218.17 20.41" stroke="#3C3C3B" stroke-miterlimit="10"/>
</svg>
