<svg width="486" height="372" viewBox="0 0 486 372" fill="none" xmlns="http://www.w3.org/2000/svg">
<path d="M184.116 371.846C285.801 371.846 368.232 288.876 368.232 186.529C368.232 84.1811 285.801 1.21191 184.116 1.21191C82.4316 1.21191 0 84.1811 0 186.529C0 288.876 82.4316 371.846 184.116 371.846Z" fill="#E3AEB8"/>
<mask id="mask0_65_6652" style="mask-type:luminance" maskUnits="userSpaceOnUse" x="30" y="0" width="456" height="372">
<path d="M485.998 0.154907H30.9668V371.509H485.998V0.154907Z" fill="white"/>
</mask>
<g mask="url(#mask0_65_6652)">
<path d="M283.059 -27.7533C283.059 -27.7533 267.688 49.1979 322.495 54.0013C377.35 58.8048 373.46 74.2238 387.918 120.385C402.328 166.546 436.001 197.336 442.773 208.912C449.498 220.441 479.328 275.296 473.563 295.47C473.563 295.47 478.367 309.881 438.931 303.156C399.494 296.431 331.189 275.248 309.045 262.759L304.242 260.838C304.242 260.838 301.36 281.06 301.36 285.864C301.36 290.667 294.635 318.575 320.622 342.64C346.608 366.705 376.438 385.919 384.123 415.749C391.809 445.578 396.612 535.979 382.202 557.162C367.792 578.345 107.06 557.162 107.06 557.162C107.06 557.162 144.575 434.962 158.025 403.26L154.182 350.326C154.182 350.326 142.654 293.549 136.89 283.942C136.89 283.942 123.44 308.007 117.628 307.047C111.864 306.086 78.1916 287.785 67.624 273.375C67.624 273.375 63.7812 248.349 61.8598 243.545C59.9384 238.742 55.135 218.519 51.2922 211.794C47.4495 205.07 42.646 207.952 43.6067 195.463C44.5674 182.974 49.3709 192.581 45.5281 187.777C43.3665 185.087 46.4888 164.673 59.9384 156.026C73.3881 147.38 70.506 147.38 70.506 147.38C70.506 147.38 68.5847 139.695 86.8378 116.59C105.427 93.1014 142.654 74.2719 152.261 54.0494C152.261 54.0494 155.143 36.757 171.523 34.7876C171.523 34.7876 176.326 3.0368 170.562 -14.2556C164.702 -31.596 237.81 -76.8444 283.059 -27.7533ZM335.945 187.729C335.945 187.729 329.22 203.1 329.22 208.912L355.206 210.834C355.206 210.834 336.905 190.611 335.945 187.729Z" fill="#FFFBFA"/>
</g>
<mask id="mask1_65_6652" style="mask-type:luminance" maskUnits="userSpaceOnUse" x="30" y="0" width="456" height="372">
<path d="M485.998 0.154907H30.9668V371.509H485.998V0.154907Z" fill="white"/>
</mask>
<g mask="url(#mask1_65_6652)">
<path d="M127.094 240.663C127.094 240.663 127.238 244.362 127.814 250.558C128.15 253.68 128.535 257.427 129.495 261.702C130.6 265.881 131.849 270.444 133.242 275.392C138.814 295.182 146.452 320.496 154.762 342.496C154.762 342.496 151.976 330.68 146.74 312.09C144.146 302.82 140.928 291.82 137.133 279.811C136.172 276.833 135.212 273.759 134.203 270.637C133.194 267.514 132.137 264.344 131.081 261.126C130.12 257.955 129.447 254.545 128.823 251.135C128.199 247.676 127.622 244.17 127.094 240.663Z" fill="#3C3C3B"/>
</g>
<mask id="mask2_65_6652" style="mask-type:luminance" maskUnits="userSpaceOnUse" x="30" y="0" width="456" height="372">
<path d="M485.998 0.154907H30.9668V371.509H485.998V0.154907Z" fill="white"/>
</mask>
<g mask="url(#mask2_65_6652)">
<path d="M154.424 350.182C154.424 350.182 154.136 378.282 158.555 400.282C158.555 400.282 158.987 377.081 154.424 350.182Z" fill="#3C3C3B"/>
</g>
<mask id="mask3_65_6652" style="mask-type:luminance" maskUnits="userSpaceOnUse" x="30" y="0" width="456" height="372">
<path d="M485.998 0.154907H30.9668V371.509H485.998V0.154907Z" fill="white"/>
</mask>
<g mask="url(#mask3_65_6652)">
<path d="M148.561 36.6616C148.561 36.6616 148.512 36.5655 148.897 37.2861C148.897 37.3341 148.945 37.3821 148.561 36.6616Z" fill="#563E3D"/>
</g>
<mask id="mask4_65_6652" style="mask-type:luminance" maskUnits="userSpaceOnUse" x="30" y="0" width="456" height="372">
<path d="M485.998 0.154907H30.9668V371.509H485.998V0.154907Z" fill="white"/>
</mask>
<g mask="url(#mask4_65_6652)">
<path d="M99.3255 105.014C99.3255 105.014 94.0417 109.817 87.1727 116.014C85.3955 117.647 83.5221 119.376 81.6488 121.298C80.7361 122.258 79.8234 123.315 78.9588 124.42C78.0942 125.525 77.3257 126.725 76.6051 127.974C75.8846 129.223 75.3082 130.52 74.7318 131.817C74.2034 133.114 73.627 134.459 73.1947 135.804C72.7143 137.149 72.282 138.494 71.8497 139.839C71.4174 141.184 71.1292 142.529 70.793 143.826C70.793 143.826 70.9371 143.489 71.1292 142.865C71.3694 142.241 71.6576 141.28 72.1379 140.127C72.6183 138.974 73.1947 137.533 73.8672 135.9C74.5397 134.267 75.4043 132.394 76.413 130.424C76.9414 129.463 77.4698 128.407 78.1422 127.446C78.7667 126.437 79.5352 125.429 80.3518 124.42C81.985 122.402 83.9544 120.481 86.0199 118.416C90.2469 114.381 94.8102 109.913 99.3255 105.014Z" fill="#3C3C3B"/>
</g>
<mask id="mask5_65_6652" style="mask-type:luminance" maskUnits="userSpaceOnUse" x="30" y="0" width="456" height="372">
<path d="M485.998 0.154907H30.9668V371.509H485.998V0.154907Z" fill="white"/>
</mask>
<g mask="url(#mask5_65_6652)">
<path d="M170.365 -13.3433C170.365 -13.3433 170.557 -10.7974 170.845 -6.57041C171.182 -2.34338 171.662 3.66092 171.902 10.5779C172.094 17.4948 171.902 25.4205 170.365 33.3462C168.876 41.2719 166.09 49.1976 161.719 55.9704C161.719 55.9704 162.055 55.5861 162.727 54.8656C163.4 54.1451 164.361 53.0403 165.417 51.5032C166.522 49.9661 167.771 48.0448 168.972 45.643C169.596 44.4422 170.173 43.1452 170.749 41.7522C171.326 40.3592 171.854 38.8221 172.334 37.237C174.304 30.8004 175.313 22.7786 174.832 14.1324C174.496 5.39016 172.719 -3.88048 170.365 -13.3433Z" fill="#3C3C3B"/>
</g>
<mask id="mask6_65_6652" style="mask-type:luminance" maskUnits="userSpaceOnUse" x="30" y="0" width="456" height="372">
<path d="M485.998 0.154907H30.9668V371.509H485.998V0.154907Z" fill="white"/>
</mask>
<g mask="url(#mask6_65_6652)">
<path d="M207.023 77.2978C207.023 77.2978 207.312 76.8175 207.936 75.9529C208.561 75.0882 209.473 73.8874 210.866 72.5904C212.211 71.2935 214.036 69.9005 216.294 68.7477C218.552 67.5949 221.242 66.6822 224.268 66.1058C227.294 65.5294 230.608 65.1931 234.067 64.8089C237.573 64.4246 241.224 63.9923 244.875 63.5119C252.224 62.5032 259.813 61.2063 266.826 59.5731C266.826 59.5731 259.333 59.6692 247.517 60.6299C244.586 60.8701 241.368 61.1583 237.91 61.5425C234.451 61.9268 230.801 62.263 226.91 62.9836C223.067 63.7041 218.936 64.8569 215.237 67.2586C211.635 69.6123 208.657 73.1669 207.023 77.2978Z" fill="#3C3C3B"/>
</g>
<mask id="mask7_65_6652" style="mask-type:luminance" maskUnits="userSpaceOnUse" x="30" y="0" width="456" height="372">
<path d="M485.998 0.154907H30.9668V371.509H485.998V0.154907Z" fill="white"/>
</mask>
<g mask="url(#mask7_65_6652)">
<path d="M283.872 -27.6085C283.872 -27.6085 283.296 -25.0627 282.623 -20.6916C281.951 -16.3204 281.134 -10.124 280.798 -2.82275C280.606 0.827864 280.51 4.71865 280.606 8.80158C280.654 12.8845 280.942 17.1596 281.759 21.4827C282.527 25.7577 283.92 30.1289 286.13 33.9716C287.235 35.893 288.628 37.6703 290.165 39.1593C291.702 40.6964 293.575 41.8493 295.401 42.7619C295.401 42.7619 294.968 42.4257 294.2 41.7532C293.816 41.465 293.383 40.9846 292.855 40.4563C292.326 39.9759 291.798 39.3035 291.222 38.5829C290.597 37.8624 290.069 36.9498 289.492 36.0371C289.204 35.5568 288.916 35.0284 288.628 34.5C288.388 33.9236 288.099 33.3472 287.811 32.7708C286.754 30.369 285.89 27.487 285.265 24.2206C284.977 22.5875 284.689 20.8582 284.497 19.081C284.305 17.3037 284.113 15.4303 284.016 13.4609C283.824 9.57014 283.728 5.34311 283.632 0.923937C283.536 -7.81833 283.584 -17.4733 283.872 -27.6085Z" fill="#3C3C3B"/>
</g>
<mask id="mask8_65_6652" style="mask-type:luminance" maskUnits="userSpaceOnUse" x="30" y="0" width="456" height="372">
<path d="M485.998 0.154907H30.9668V371.509H485.998V0.154907Z" fill="white"/>
</mask>
<g mask="url(#mask8_65_6652)">
<path d="M254.589 162.992C254.589 162.992 254.493 162.848 254.253 162.607C254.013 162.367 253.725 161.983 253.436 161.455C252.812 160.398 252.428 158.62 252.476 156.363C252.476 155.258 252.572 154.009 252.668 152.616C252.764 151.271 252.716 149.734 252.524 148.101C252.38 147.284 252.187 146.468 251.947 145.651C251.659 144.835 251.419 143.97 250.987 143.153C250.266 141.472 249.209 139.935 248.008 138.35C245.607 135.276 242.581 132.49 239.41 129.8C236.24 127.062 232.926 124.372 230.044 121.25C224.231 114.957 219.812 107.032 217.314 98.8176C217.314 98.8176 217.411 99.394 217.555 100.403C217.699 101.46 217.987 102.997 218.515 104.918C219.524 108.761 221.59 114.333 225.817 120.193C227.93 123.123 230.62 126.053 233.742 128.743C236.864 131.481 240.275 134.171 243.493 137.245C246.664 140.319 249.642 143.97 250.746 148.533C251.323 150.791 251.227 153.289 251.467 155.883C251.611 157.179 251.755 158.476 252.236 159.773C252.716 161.118 253.484 162.271 254.589 162.992Z" fill="#3C3C3B"/>
<path d="M213.171 101.508C213.171 101.508 212.787 101.844 212.067 102.468C211.73 102.805 211.346 103.237 210.914 103.765C210.529 104.342 210.049 104.966 209.665 105.783C209.232 106.551 208.896 107.464 208.56 108.473C208.272 109.481 208.032 110.634 207.888 111.835C207.791 113.036 207.743 114.333 207.839 115.726C207.936 117.071 208.128 118.512 208.464 119.905C209.088 122.787 210.289 125.765 211.874 128.599C213.46 131.433 215.477 134.219 217.783 136.717C220.136 139.215 222.634 141.472 224.652 144.066C225.66 145.363 226.525 146.756 227.053 148.293C227.582 149.782 227.678 151.463 227.245 153.049C227.245 153.049 227.39 152.664 227.678 151.896C227.726 151.512 227.918 151.031 227.918 150.407C227.966 149.782 227.966 149.11 227.822 148.341C227.582 146.804 226.813 144.979 225.66 143.106C224.459 141.232 222.874 139.359 221.097 137.341C219.272 135.372 217.494 133.21 215.765 130.665C214.084 128.119 212.403 125.333 211.202 122.163C210.001 118.992 209.232 115.534 209.232 111.883C209.329 108.281 210.433 104.438 213.171 101.508Z" fill="#3C3C3B"/>
<path d="M223.881 148.053C223.881 148.053 223.256 147.525 222.151 146.612C221.047 145.651 219.365 144.306 217.204 142.721C216.147 141.905 214.898 141.088 213.553 140.175C212.256 139.263 210.767 138.35 209.182 137.389C206.012 135.468 202.409 133.451 198.422 131.529C190.449 127.59 180.986 123.94 171.043 120.914C166.095 119.376 161.003 117.983 155.912 116.687C153.414 116.062 150.628 115.246 147.842 116.062C146.449 116.446 145.296 117.407 144.624 118.56C143.903 119.713 143.711 121.202 144.383 122.259C144.432 122.259 144.047 121.634 144.335 120.481C144.48 119.905 144.816 119.28 145.392 118.656C145.969 118.08 146.785 117.503 147.794 117.311C148.851 117.071 150.052 117.167 151.348 117.455C152.645 117.743 154.038 118.272 155.624 118.848C158.746 119.953 162.252 121.202 166.143 122.595C173.925 125.333 183.147 128.503 193.042 132.538C195.54 133.547 198.038 134.603 200.584 135.756C203.13 136.861 205.724 138.11 208.317 139.359C210.911 140.656 213.505 142.001 216.099 143.442C217.396 144.21 218.693 144.931 219.99 145.699C221.287 146.468 222.584 147.236 223.881 148.053Z" fill="#3C3C3B"/>
<path d="M145.506 126.102C145.506 126.102 147.331 127.254 150.501 129.128C153.672 130.953 158.235 133.499 163.567 136.285C168.899 139.119 175.047 142.193 181.388 145.363C187.728 148.534 194.309 151.656 200.361 154.97C200.361 154.97 200.025 154.682 199.353 154.154C198.68 153.625 197.719 152.857 196.374 151.944C193.732 150.071 189.842 147.573 184.894 144.787C179.947 142.001 173.99 138.927 167.314 135.757C160.637 132.634 153.191 129.464 145.506 126.102Z" fill="#3C3C3B"/>
<path d="M142.377 124.083C142.377 124.083 141.32 123.362 139.399 122.45C138.438 121.969 137.237 121.489 135.796 121.153C134.355 120.816 132.578 120.624 130.8 121.201C128.975 121.777 127.294 123.362 126.669 125.38C125.997 127.397 126.189 129.703 127.006 131.72C127.822 133.786 129.359 135.419 130.944 136.764C132.578 138.109 134.403 139.117 136.132 140.078C136.132 140.078 135.268 139.406 133.875 138.301C132.482 137.1 130.32 135.419 128.783 132.729C128.062 131.384 127.534 129.703 127.582 127.973C127.63 126.196 128.255 124.323 129.792 123.17C131.281 121.969 133.49 121.681 135.7 122.017C137.909 122.305 140.167 123.122 142.377 124.083Z" fill="#3C3C3B"/>
<path d="M142.605 143.442C142.605 143.442 143.038 143.778 143.854 144.45C144.671 145.123 145.824 146.036 147.361 147.188C150.387 149.494 154.758 152.616 159.946 156.075C165.134 159.533 171.186 163.328 177.43 167.123C183.723 170.869 190.256 174.616 196.5 178.123C196.5 178.123 195.107 176.922 192.465 174.904C189.823 172.887 185.981 170.101 181.129 166.834C176.278 163.568 170.417 159.869 163.885 155.979C157.4 152.136 150.339 147.957 142.605 143.442Z" fill="#3C3C3B"/>
<path d="M130.322 136.14C130.322 136.14 130.082 136.284 129.65 136.572C129.217 136.861 128.641 137.341 128.016 138.061C127.44 138.782 126.816 139.839 126.431 141.088C125.999 142.336 125.807 143.826 125.855 145.411C125.903 146.996 126.287 148.677 127.008 150.31C127.728 151.943 128.833 153.432 130.034 154.825C132.532 157.563 135.702 159.629 138.728 161.406C138.728 161.406 138.008 160.782 136.807 159.773C135.558 158.716 133.781 157.227 131.859 155.162C130.898 154.105 129.938 152.952 129.073 151.559C128.209 150.166 127.488 148.629 127.152 146.852C126.768 145.074 126.719 143.153 127.2 141.28C127.584 139.31 128.641 137.437 130.322 136.14Z" fill="#3C3C3B"/>
<path d="M145.506 164.577C145.506 164.577 170.051 184.56 192.195 196.76C192.195 196.76 172.069 180.092 145.506 164.577Z" fill="#3C3C3B"/>
<path d="M134.198 162.656C134.247 162.656 133.574 162.944 133.046 164.145C132.517 165.297 132.421 167.267 133.238 169.476C133.43 170.005 133.622 170.581 133.862 171.206C134.15 171.782 134.439 172.407 134.727 173.031C135.399 174.232 136.216 175.529 137.225 176.73C138.233 177.979 139.386 179.227 140.683 180.38C141.98 181.581 143.421 182.734 144.958 183.839C148.032 186.048 151.491 188.162 154.997 190.323C158.504 192.533 162.155 194.839 165.853 197.144C169.552 199.498 173.251 201.948 176.805 204.445C180.36 206.991 183.818 209.633 186.892 212.659C186.892 212.659 186.556 212.227 185.932 211.362C185.307 210.546 184.298 209.297 182.953 207.856C180.216 204.926 175.94 201.083 170.224 196.904C167.39 194.839 164.22 192.677 160.762 190.467C157.351 188.21 153.508 186.048 149.618 183.743C145.775 181.389 141.788 178.891 138.474 175.433C136.84 173.703 135.399 171.734 134.295 169.524C133.718 168.42 133.286 167.267 133.142 166.066C133.046 164.913 133.238 163.568 134.198 162.656Z" fill="#3C3C3B"/>
<path d="M185.732 212.707C185.732 212.707 187.654 213.956 190.92 215.926C194.235 217.847 198.942 220.585 204.85 223.083C206.339 223.707 207.876 224.284 209.461 224.86C211.095 225.389 212.776 225.917 214.505 226.301C218.012 227.118 221.758 227.646 225.553 227.646C227.474 227.646 229.396 227.502 231.269 227.214C233.094 226.926 234.968 226.637 236.793 226.349C240.444 225.821 244.142 225.629 247.505 227.118C247.505 227.118 247.121 226.878 246.352 226.445C245.535 226.013 244.335 225.533 242.605 225.196C240.924 224.86 238.811 224.764 236.409 224.86C234.007 224.956 231.317 225.292 228.435 225.34C227.715 225.34 226.994 225.34 226.225 225.389C225.457 225.34 224.688 225.34 223.92 225.292C222.335 225.148 220.75 225.004 219.068 224.716C218.252 224.62 217.387 224.428 216.523 224.236C215.658 224.092 214.793 223.899 213.929 223.659C212.199 223.227 210.422 222.699 208.597 222.122C201.392 219.817 193.754 216.262 185.732 212.707Z" fill="#3C3C3B"/>
<path d="M274.266 191.236C274.266 191.236 275.515 192.149 277.82 193.782C278.925 194.647 280.462 195.463 282.191 196.568C283.921 197.673 286.034 198.682 288.388 199.883C290.79 200.939 293.383 202.188 296.361 203.197C297.803 203.773 299.388 204.302 300.973 204.782C302.558 205.31 304.239 205.791 305.968 206.271C307.698 206.751 309.475 207.232 311.348 207.616C313.174 208.048 315.095 208.433 317.064 208.769C320.955 209.537 325.086 210.114 329.361 210.642C337.911 211.699 347.086 212.371 356.597 212.996C361.352 213.332 366.204 213.668 371.055 214.149C375.955 214.581 380.854 215.254 385.802 215.974C390.701 216.791 395.697 217.655 400.548 218.952C402.998 219.481 405.4 220.297 407.801 220.97C410.155 221.786 412.557 222.555 414.863 223.515C419.522 225.341 423.989 227.598 428.216 230.24C432.491 232.786 436.286 236.004 439.889 239.271C439.889 239.271 439.024 238.31 437.391 236.581C436.958 236.148 436.526 235.62 435.998 235.092C435.469 234.611 434.845 234.035 434.22 233.459C433.548 232.882 432.876 232.21 432.107 231.537C431.29 230.913 430.426 230.24 429.561 229.568C427.784 228.079 425.574 226.83 423.269 225.245C420.819 223.9 418.225 222.363 415.247 221.066C413.806 220.345 412.221 219.721 410.636 219.096C409.05 218.424 407.369 217.847 405.592 217.271C403.863 216.647 402.037 216.118 400.212 215.59C398.339 215.013 396.417 214.581 394.448 214.101C390.509 213.14 386.33 212.371 381.959 211.699C377.588 211.026 373.073 210.45 368.365 210.018C358.95 209.153 348.959 208.721 338.536 208C333.348 207.616 328.016 207.184 322.636 206.559C317.256 205.935 311.781 205.118 306.305 203.869C300.829 202.669 295.305 201.179 289.925 199.066C284.593 197.048 279.309 194.455 274.266 191.236Z" fill="#3C3C3B"/>
<path d="M246.545 228.03C246.545 228.03 248.418 229.375 251.877 231.776C253.606 232.977 255.72 234.562 258.265 236.196C260.811 237.877 263.789 239.75 267.056 241.912C270.418 243.929 274.069 246.139 278.056 248.589C282.09 250.942 286.51 253.344 291.169 255.938C295.924 258.388 300.872 261.125 306.204 263.671C308.894 264.968 311.584 266.313 314.37 267.658C317.156 269.003 320.038 270.252 322.968 271.597C328.828 274.287 334.976 276.785 341.317 279.427C347.706 281.876 354.238 284.518 361.059 286.824C367.832 289.274 374.845 291.435 381.906 293.645C389.063 295.662 396.316 297.776 403.714 299.457C407.412 300.418 411.111 301.186 414.858 301.955C418.604 302.723 422.351 303.492 426.146 304.068C433.687 305.413 441.277 306.326 448.962 307.094C452.853 307.335 456.792 307.383 460.683 306.71C464.574 306.038 468.512 304.549 471.394 301.715C474.373 298.929 475.766 294.99 476.102 291.291C476.486 287.544 476.054 283.846 475.573 280.243C475.573 280.243 475.573 280.724 475.621 281.636C475.621 282.549 475.669 283.942 475.621 285.719C475.573 287.496 475.429 289.706 474.853 292.204C474.277 294.654 473.124 297.392 470.818 299.601C468.512 301.763 465.246 303.3 461.355 303.828C457.464 304.405 453.093 304.164 448.434 303.492C443.775 302.723 438.731 301.859 433.399 300.898C428.115 299.793 422.543 298.736 416.731 297.247C413.849 296.527 410.823 295.902 407.845 295.086C404.819 294.269 401.744 293.453 398.622 292.636C395.452 291.82 392.33 290.811 389.063 289.85C385.845 288.889 382.531 287.929 379.216 286.824C375.902 285.719 372.491 284.71 369.081 283.558C365.67 282.405 362.212 281.204 358.705 280.003C351.741 277.457 344.535 274.911 337.282 272.029C333.632 270.588 329.981 269.195 326.282 267.61C322.632 266.073 318.837 264.584 315.138 262.903C311.392 261.27 307.645 259.588 303.85 257.907C300.103 256.178 296.261 254.401 292.466 252.623C288.671 250.75 284.876 248.877 280.986 247.003C277.191 245.034 273.348 243.065 269.457 241.047C265.663 238.982 261.82 236.868 257.929 234.755C254.23 232.497 250.388 230.239 246.545 228.03Z" fill="#3C3C3B"/>
<path d="M300.061 43.4338C300.061 43.4338 300.109 43.578 300.253 43.9142C300.397 44.2024 300.541 44.6827 300.877 45.2592C301.502 46.412 302.606 48.0932 304.576 49.7744C306.545 51.4556 309.331 53.0888 312.934 54.2416C316.488 55.4424 320.859 55.9708 325.567 56.0189C330.322 56.1149 335.51 55.7787 340.938 56.3551C346.318 56.8835 351.89 58.7568 356.885 62.3114C361.929 65.7698 366.348 70.7174 370.047 76.4815C373.745 82.2937 376.531 88.9225 378.741 96.2237C380.951 103.477 382.68 111.258 384.745 119.328C386.763 127.35 389.309 135.804 393.199 143.826C397.042 151.896 401.846 159.533 407.033 166.93C412.221 174.328 417.841 181.485 423.269 188.69C434.173 203.1 444.26 218.471 453.195 234.371C462.129 250.27 470.007 266.698 476.635 283.078C476.635 283.078 475.963 280.868 474.714 276.737C474.041 274.672 473.273 272.126 472.216 269.1C471.207 266.073 469.959 262.663 468.518 258.82C467.028 254.977 465.347 250.75 463.378 246.139C461.36 241.576 459.151 236.58 456.557 231.393C451.417 220.921 444.981 209.297 436.911 197.048C432.924 190.9 428.457 184.655 423.797 178.315C419.138 171.926 414.287 165.393 409.675 158.428C405.112 151.463 400.741 144.066 397.378 136.044C393.968 128.071 391.662 119.232 389.213 110.058C386.763 100.883 384.169 91.3242 379.558 82.0535C377.252 77.4422 374.418 73.0711 371.056 69.0362C367.693 65.0013 363.658 61.3507 359.047 58.5167C354.436 55.6346 349.104 53.8573 343.628 53.2809C338.2 52.7525 332.868 53.3289 327.68 53.6652C322.493 54.0495 317.257 54.1455 312.261 52.6565C307.218 51.2635 302.414 48.3333 300.061 43.4338Z" fill="#3C3C3B"/>
<path d="M302.234 143.97C302.234 143.97 302.763 144.547 303.771 145.555C304.78 146.612 306.221 148.149 307.999 150.119C311.553 154.057 316.405 159.822 321.352 166.931C323.85 170.485 326.348 174.376 328.797 178.555C331.295 182.734 333.841 187.153 336.675 191.524C338.116 193.686 339.557 195.895 341.19 197.961C342.775 200.074 344.553 202.092 346.378 204.013C348.251 205.887 350.221 207.664 352.334 209.153C354.4 210.69 356.705 211.939 358.963 212.996C358.963 212.996 358.435 212.611 357.474 211.891C356.994 211.555 356.369 211.122 355.697 210.498C355.024 209.921 354.208 209.297 353.391 208.48C352.575 207.712 351.614 206.799 350.701 205.791C349.74 204.782 348.78 203.629 347.771 202.38C346.762 201.083 345.754 199.738 344.697 198.201C343.64 196.712 342.583 195.079 341.527 193.35C339.365 189.891 337.155 186.048 334.754 181.869C332.352 177.738 329.71 173.271 326.54 168.852C320.247 160.014 312.033 151.271 302.234 143.97Z" fill="#3C3C3B"/>
<path d="M253.998 162.848C253.998 162.848 264.758 180.188 275.71 192.245C275.71 192.245 266.967 177.834 253.998 162.848Z" fill="#3C3C3B"/>
</g>
<mask id="mask9_65_6652" style="mask-type:luminance" maskUnits="userSpaceOnUse" x="30" y="0" width="456" height="372">
<path d="M485.998 0.154907H30.9668V371.509H485.998V0.154907Z" fill="white"/>
</mask>
<g mask="url(#mask9_65_6652)">
<path d="M336.372 186.818C336.372 186.818 334.499 189.411 332.625 193.446C330.752 197.433 329.023 202.957 328.975 208.097C328.975 208.097 330.079 205.695 331.52 201.852C332.913 198.01 334.787 192.774 336.372 186.818Z" fill="#3C3C3B"/>
</g>
<mask id="mask10_65_6652" style="mask-type:luminance" maskUnits="userSpaceOnUse" x="30" y="0" width="456" height="372">
<path d="M485.998 0.154907H30.9668V371.509H485.998V0.154907Z" fill="white"/>
</mask>
<g mask="url(#mask10_65_6652)">
<path d="M152.443 250.367C152.443 250.367 152.635 251.327 152.924 253.153C153.068 254.065 153.308 255.17 153.548 256.467C153.788 257.764 154.173 259.205 154.557 260.838C154.941 262.471 155.373 264.297 155.95 266.218C156.526 268.139 157.055 270.253 157.823 272.414C158.544 274.576 159.264 276.93 160.129 279.331C160.993 281.733 161.858 284.231 162.867 286.825C164.836 291.965 166.95 297.488 169.159 303.253C170.216 306.135 171.321 309.065 172.474 312.043C173.53 315.021 174.635 318.047 175.596 321.121C176.653 324.196 177.517 327.318 178.382 330.44C178.862 331.977 179.151 333.61 179.535 335.195C179.919 336.781 180.351 338.366 180.592 339.951L181.456 344.754C181.696 346.34 181.84 347.973 182.033 349.558L182.321 351.96L182.417 354.361C182.465 355.946 182.561 357.532 182.609 359.117C182.609 359.117 182.657 358.3 182.753 356.763C182.801 355.994 182.849 355.034 182.897 353.881C182.945 353.305 182.945 352.68 182.993 352.056C182.993 351.383 182.945 350.711 182.945 349.99C182.897 348.501 182.849 346.868 182.753 345.091C182.561 343.313 182.321 341.392 182.081 339.326C181.84 337.261 181.36 335.099 180.928 332.746C180.544 330.392 179.823 328.038 179.247 325.493C178.622 322.947 177.758 320.353 176.989 317.663C176.076 314.973 175.164 312.187 174.107 309.305C172.041 303.589 169.64 297.585 167.046 291.34C165.749 288.218 164.452 285 163.107 281.781C161.762 278.515 160.465 275.2 159.168 271.79C158.496 270.109 157.919 268.38 157.295 266.602C156.67 264.873 156.046 263.096 155.518 261.319C154.413 257.764 153.452 254.113 152.443 250.367Z" fill="#3C3C3B"/>
</g>
<mask id="mask11_65_6652" style="mask-type:luminance" maskUnits="userSpaceOnUse" x="30" y="0" width="456" height="372">
<path d="M485.998 0.154907H30.9668V371.509H485.998V0.154907Z" fill="white"/>
</mask>
<g mask="url(#mask11_65_6652)">
<path d="M170.755 34.8361C170.755 34.8361 170.515 34.8361 169.986 34.8361C169.458 34.8361 168.738 34.8361 167.729 34.9802C165.807 35.2684 162.877 35.9889 159.851 38.2945C158.362 39.3993 156.873 40.9845 155.672 42.9058C154.471 44.8272 153.511 46.9888 152.406 49.1023C150.244 53.3293 147.122 57.6524 143.327 62.0716C141.454 64.2812 139.388 66.5388 137.323 68.7964C135.209 71.054 133 73.3597 130.694 75.6653C126.083 80.2766 121.183 84.936 116.092 89.5953C105.908 98.914 95.0526 108.281 85.3496 117.743C85.3496 117.743 88.3277 115.918 93.5635 112.412C98.7993 108.905 106.245 103.814 114.987 96.8485C123.681 89.8835 133.72 81.0932 143.087 69.7571C145.441 66.9231 147.746 63.993 149.908 60.7266C152.07 57.5083 154.039 54.0018 155.48 50.2071C156.921 46.4123 157.882 42.8098 160.524 40.0718C163.021 37.3339 166.672 35.3164 170.755 34.8361Z" fill="#3C3C3B"/>
</g>
<mask id="mask12_65_6652" style="mask-type:luminance" maskUnits="userSpaceOnUse" x="30" y="0" width="456" height="372">
<path d="M485.998 0.154907H30.9668V371.509H485.998V0.154907Z" fill="white"/>
</mask>
<g mask="url(#mask12_65_6652)">
<path d="M295.687 145.555C295.687 145.555 295.399 145.747 294.823 146.131C294.246 146.515 293.43 147.044 292.469 147.812C291.989 148.197 291.412 148.581 290.884 149.109C290.355 149.59 289.683 150.118 289.106 150.694C288.53 151.319 287.858 151.895 287.233 152.616C286.609 153.336 285.936 154.057 285.312 154.873C284.015 156.459 282.814 158.332 281.661 160.301C280.556 162.319 279.5 164.48 278.683 166.738C278.251 167.891 277.914 169.044 277.578 170.245C277.29 171.445 277.002 172.646 276.858 173.847C276.666 175.048 276.521 176.249 276.473 177.45C276.377 178.651 276.425 179.851 276.473 181.004C276.473 181.004 276.521 180.716 276.618 180.14C276.714 179.563 276.81 178.747 277.098 177.738C277.29 176.681 277.626 175.432 278.011 173.991C278.203 173.271 278.443 172.502 278.683 171.686C278.923 170.869 279.259 170.052 279.548 169.188C280.172 167.459 280.989 165.585 281.949 163.616C282.91 161.694 284.063 159.629 285.36 157.611C286.032 156.603 286.705 155.546 287.473 154.537C288.242 153.529 289.058 152.52 289.875 151.463C290.74 150.454 291.604 149.446 292.613 148.485C293.622 147.476 294.63 146.564 295.687 145.555Z" fill="#3C3C3B"/>
</g>
<mask id="mask13_65_6652" style="mask-type:luminance" maskUnits="userSpaceOnUse" x="30" y="0" width="456" height="372">
<path d="M485.998 0.154907H30.9668V371.509H485.998V0.154907Z" fill="white"/>
</mask>
<g mask="url(#mask13_65_6652)">
<path d="M133.62 185.087C133.62 185.087 133.38 184.655 132.948 183.838C132.708 183.454 132.467 182.974 132.131 182.397C131.795 181.821 131.507 181.148 131.17 180.428C130.834 179.707 130.402 178.891 130.066 177.978C129.729 177.066 129.249 176.153 128.913 175.096C128.577 174.039 128.096 172.983 127.76 171.782C127.424 170.581 126.991 169.38 126.703 168.083C126.367 166.786 126.031 165.489 125.791 164.096C125.502 162.751 125.31 161.31 125.07 159.869C124.878 158.428 124.734 156.939 124.638 155.402C124.59 153.865 124.446 152.376 124.446 150.791C124.398 149.254 124.494 147.669 124.542 146.083C124.638 144.498 124.734 142.913 124.926 141.376C125.022 140.607 125.118 139.791 125.214 139.022C125.358 138.254 125.454 137.485 125.598 136.669C125.791 135.083 126.223 133.594 126.463 132.009C126.463 132.009 126.271 132.394 125.887 133.066C125.55 133.739 124.926 134.747 124.446 136.092C124.157 136.765 123.869 137.533 123.533 138.35C123.245 139.214 122.957 140.127 122.668 141.136C122.332 142.145 122.14 143.249 121.9 144.402C121.612 145.555 121.516 146.804 121.323 148.101C121.131 149.398 121.131 150.791 121.035 152.184C121.035 153.625 121.035 155.114 121.131 156.651C121.275 158.188 121.371 159.773 121.708 161.358C121.948 162.991 122.38 164.625 122.812 166.258C123.293 167.891 123.821 169.572 124.542 171.205C124.878 172.022 125.262 172.839 125.646 173.655C126.079 174.472 126.511 175.24 126.943 176.105C127.376 176.921 127.904 177.69 128.384 178.459C128.865 179.275 129.393 179.996 130.018 180.764C130.978 182.301 132.323 183.694 133.62 185.087Z" fill="#3C3C3B"/>
</g>
<mask id="mask14_65_6652" style="mask-type:luminance" maskUnits="userSpaceOnUse" x="30" y="0" width="456" height="372">
<path d="M485.998 0.154907H30.9668V371.509H485.998V0.154907Z" fill="white"/>
</mask>
<g mask="url(#mask14_65_6652)">
<path d="M136.688 114.573C136.688 114.573 136.928 114.284 137.312 113.756C137.696 113.228 138.273 112.411 139.041 111.498C139.425 111.018 139.81 110.49 140.29 109.961C140.77 109.433 141.251 108.809 141.827 108.184C142.932 106.983 144.181 105.638 145.622 104.245C147.015 102.852 148.6 101.459 150.281 100.066C151.962 98.6733 153.74 97.2803 155.661 95.9353C159.408 93.2454 163.539 90.7956 167.574 88.5861C167.574 88.5861 167.285 88.6341 166.709 88.7782C166.181 88.9223 165.316 89.0664 164.307 89.4026C163.251 89.6908 162.002 90.1232 160.609 90.6996C159.888 90.9397 159.168 91.324 158.351 91.6603C157.534 91.9965 156.766 92.4769 155.901 92.9092C154.22 93.8218 152.443 94.9746 150.617 96.3196C148.84 97.6646 147.015 99.2497 145.286 101.075C144.421 101.988 143.556 102.948 142.788 104.005C141.971 105.014 141.203 106.119 140.482 107.223C139.762 108.376 139.041 109.529 138.417 110.778C137.792 111.979 137.264 113.276 136.688 114.573Z" fill="#3C3C3B"/>
</g>
<mask id="mask15_65_6652" style="mask-type:luminance" maskUnits="userSpaceOnUse" x="30" y="0" width="456" height="372">
<path d="M485.998 0.154907H30.9668V371.509H485.998V0.154907Z" fill="white"/>
</mask>
<g mask="url(#mask15_65_6652)">
<path d="M181.264 227.694C181.264 227.694 181.504 227.838 181.936 228.127C182.368 228.415 183.041 228.799 183.906 229.231C184.338 229.472 184.818 229.712 185.347 229.952C185.875 230.192 186.451 230.432 187.076 230.672C188.325 231.153 189.766 231.585 191.399 231.921C192.984 232.258 194.713 232.498 196.539 232.594C198.364 232.642 200.285 232.594 202.159 232.306C205.953 231.777 209.748 230.384 212.822 228.319C212.822 228.319 211.91 228.559 210.277 228.991C209.46 229.183 208.451 229.424 207.298 229.616C206.722 229.76 206.098 229.808 205.473 229.904C204.801 230.048 204.128 230.048 203.408 230.144C201.967 230.288 200.381 230.384 198.7 230.432C197.019 230.432 195.194 230.384 193.32 230.24C192.36 230.144 191.399 230.048 190.438 229.904C189.478 229.76 188.469 229.568 187.46 229.376C186.451 229.135 185.395 228.943 184.386 228.655C183.377 228.415 182.32 228.031 181.264 227.694Z" fill="#3C3C3B"/>
</g>
<mask id="mask16_65_6652" style="mask-type:luminance" maskUnits="userSpaceOnUse" x="30" y="0" width="456" height="372">
<path d="M485.998 0.154907H30.9668V371.509H485.998V0.154907Z" fill="white"/>
</mask>
<g mask="url(#mask16_65_6652)">
<path d="M305.302 261.798C305.302 261.798 305.062 262.999 304.485 265.16C303.909 267.322 302.996 270.444 301.795 274.335C300.642 278.274 299.153 282.981 298.097 288.601C297.808 289.994 297.664 291.483 297.52 293.068C297.424 294.557 297.376 296.095 297.376 297.68C297.328 300.85 297.424 304.212 297.953 307.671C298.961 314.732 302.084 321.841 306.407 328.278C310.778 334.714 316.158 340.574 321.73 346.243C332.874 357.627 345.411 368.386 358.044 377.177C358.044 377.177 355.21 374.343 350.166 369.299C345.17 364.255 337.965 356.906 329.415 347.684C325.188 343.072 320.481 337.981 315.869 332.457C311.306 326.885 306.839 320.64 304.053 313.291C302.708 309.64 301.843 305.749 301.459 301.57C301.267 299.505 301.123 297.391 301.027 295.23C300.931 293.02 300.931 291.051 301.171 288.841C301.603 284.518 302.42 280.099 303.236 275.584C304.053 271.117 304.966 266.505 305.302 261.798Z" fill="#3C3C3B"/>
</g>
<mask id="mask17_65_6652" style="mask-type:luminance" maskUnits="userSpaceOnUse" x="30" y="0" width="456" height="372">
<path d="M485.998 0.154907H30.9668V371.509H485.998V0.154907Z" fill="white"/>
</mask>
<g mask="url(#mask17_65_6652)">
<path d="M113.293 180.668C113.293 180.668 113.917 180.813 115.118 181.005C116.319 181.197 118.048 181.581 120.21 182.061C121.315 182.302 122.468 182.638 123.764 182.926C125.061 183.214 126.406 183.647 127.847 184.031C130.73 184.895 133.948 185.904 137.358 187.105C144.179 189.507 151.817 192.629 159.742 195.895C163.681 197.529 167.716 199.162 171.751 200.699C173.768 201.467 175.738 202.14 177.083 203.581C177.755 204.253 178.14 205.214 178.14 206.223C178.188 207.183 177.803 208.288 176.843 208.865C176.795 208.817 177.467 208.769 178.14 207.856C178.476 207.424 178.716 206.751 178.812 205.935C178.86 205.118 178.764 204.157 178.188 203.197C177.659 202.284 176.795 201.419 175.786 200.699C174.777 199.978 173.576 199.402 172.375 198.777C169.974 197.529 167.188 196.088 164.113 194.598C157.965 191.62 150.52 188.258 141.922 185.52C139.76 184.847 137.55 184.175 135.293 183.599C133.035 183.022 130.681 182.494 128.28 182.061C125.878 181.629 123.428 181.293 120.93 181.053C119.682 180.957 118.433 180.861 117.184 180.765C115.839 180.765 114.542 180.716 113.293 180.668Z" fill="#3C3C3B"/>
</g>
<mask id="mask18_65_6652" style="mask-type:luminance" maskUnits="userSpaceOnUse" x="30" y="0" width="456" height="372">
<path d="M485.998 0.154907H30.9668V371.509H485.998V0.154907Z" fill="white"/>
</mask>
<g mask="url(#mask18_65_6652)">
<path d="M173.972 210.594C173.972 210.594 172.242 210.017 169.408 209.009C166.526 208 162.491 206.607 157.736 205.118C152.98 203.581 147.505 201.948 141.74 200.603C136.024 199.258 129.972 198.153 124.256 198.057C124.256 198.057 124.64 198.153 125.313 198.297C125.985 198.441 126.994 198.681 128.291 199.017C130.837 199.69 134.535 200.699 139.002 201.948C143.47 203.244 148.801 204.782 154.71 206.319C160.57 207.856 167.055 209.489 173.972 210.594Z" fill="#3C3C3B"/>
</g>
<mask id="mask19_65_6652" style="mask-type:luminance" maskUnits="userSpaceOnUse" x="30" y="0" width="456" height="372">
<path d="M485.998 0.154907H30.9668V371.509H485.998V0.154907Z" fill="white"/>
</mask>
<g mask="url(#mask19_65_6652)">
<path d="M177.007 210.931C177.007 210.931 178.016 211.219 179.601 211.94C180.37 212.276 181.33 212.756 182.291 213.381C183.252 214.005 184.261 214.87 184.837 216.023C185.413 217.175 185.558 218.616 184.981 219.913C184.405 221.21 183.3 222.363 181.907 223.084C180.562 223.804 178.881 224.14 177.248 224.236C175.566 224.332 173.885 224.236 172.252 224.188C172.252 224.188 173.069 224.429 174.558 224.669C176.047 224.909 178.304 225.341 181.09 224.621C182.483 224.236 183.924 223.42 185.029 222.123C185.606 221.45 186.086 220.682 186.326 219.769C186.614 218.857 186.662 217.848 186.374 216.887C186.134 215.926 185.654 215.014 184.933 214.293C184.261 213.573 183.444 212.996 182.579 212.564C180.946 211.747 178.977 211.219 177.007 210.931Z" fill="#3C3C3B"/>
</g>
<mask id="mask20_65_6652" style="mask-type:luminance" maskUnits="userSpaceOnUse" x="30" y="0" width="456" height="372">
<path d="M485.998 0.154907H30.9668V371.509H485.998V0.154907Z" fill="white"/>
</mask>
<g mask="url(#mask20_65_6652)">
<path d="M166.433 222.699C166.433 222.699 158.94 221.114 149.141 219C144.097 217.943 138.333 216.791 132.329 215.878C126.325 214.965 120.08 214.245 114.172 214.245C114.172 214.245 120.416 215.59 129.543 217.511C134.25 218.472 139.87 219.577 146.115 220.585C152.359 221.546 159.228 222.459 166.433 222.699Z" fill="#3C3C3B"/>
</g>
<mask id="mask21_65_6652" style="mask-type:luminance" maskUnits="userSpaceOnUse" x="30" y="0" width="456" height="372">
<path d="M485.998 0.154907H30.9668V371.509H485.998V0.154907Z" fill="white"/>
</mask>
<g mask="url(#mask21_65_6652)">
<path d="M178.105 224.908C178.105 224.908 178.153 225.149 178.201 225.533C178.249 225.965 178.249 226.541 178.153 227.31C177.913 228.799 177 230.769 175.223 232.402C174.359 233.218 173.254 233.939 172.005 234.419C170.756 234.948 169.411 235.236 167.97 235.428C165.136 235.812 162.062 235.668 159.18 235.716C159.18 235.716 159.9 235.86 161.245 236.1C162.542 236.292 164.463 236.629 166.865 236.533C168.066 236.485 169.411 236.389 170.756 236.004C172.101 235.62 173.59 234.996 174.839 233.987C176.088 232.978 177.241 231.633 177.865 230.048C178.586 228.463 178.73 226.541 178.105 224.908Z" fill="#3C3C3B"/>
</g>
<mask id="mask22_65_6652" style="mask-type:luminance" maskUnits="userSpaceOnUse" x="30" y="0" width="456" height="372">
<path d="M485.998 0.154907H30.9668V371.509H485.998V0.154907Z" fill="white"/>
</mask>
<g mask="url(#mask22_65_6652)">
<path d="M153.22 233.986C153.22 233.986 127.665 228.222 106.818 227.934C106.77 227.934 127.81 232.881 153.22 233.986Z" fill="#3C3C3B"/>
</g>
<mask id="mask23_65_6652" style="mask-type:luminance" maskUnits="userSpaceOnUse" x="30" y="0" width="456" height="372">
<path d="M485.998 0.154907H30.9668V371.509H485.998V0.154907Z" fill="white"/>
</mask>
<g mask="url(#mask23_65_6652)">
<path d="M161.443 238.935C161.395 238.935 161.587 239.559 161.155 240.472C160.722 241.385 159.569 242.393 157.888 243.018C157.024 243.354 156.063 243.69 155.054 243.93C153.997 244.171 152.845 244.315 151.596 244.411C149.146 244.555 146.36 244.315 143.382 243.786C140.404 243.306 137.233 242.537 133.871 241.865C130.461 241.192 126.954 240.616 123.351 240.184C119.749 239.751 116.05 239.415 112.352 239.415C108.653 239.415 105.002 239.703 101.592 240.616C101.592 240.616 102.072 240.616 102.889 240.568C103.753 240.568 105.002 240.568 106.635 240.616C109.854 240.76 114.513 241.289 120.133 242.201C122.967 242.682 126.041 243.21 129.356 243.786C132.67 244.363 136.129 245.083 139.875 245.708C143.622 246.284 147.705 246.764 151.884 246.092C153.949 245.756 156.063 245.083 157.936 244.074C158.897 243.594 159.81 242.922 160.53 242.057C161.251 241.192 161.731 239.992 161.443 238.935Z" fill="#3C3C3B"/>
</g>
<mask id="mask24_65_6652" style="mask-type:luminance" maskUnits="userSpaceOnUse" x="30" y="0" width="456" height="372">
<path d="M485.998 0.154907H30.9668V371.509H485.998V0.154907Z" fill="white"/>
</mask>
<g mask="url(#mask24_65_6652)">
<path d="M102.154 241.192C102.154 241.192 100.328 240.567 97.3503 239.558C94.3241 238.55 90.049 237.157 85.2936 235.139C80.5382 233.17 75.2544 230.48 70.6431 226.685C69.4902 225.724 68.3855 224.716 67.2807 223.659C66.1759 222.554 65.1191 221.449 63.9663 220.393C62.8135 219.336 61.5646 218.327 60.2196 217.511C58.8746 216.742 57.3856 216.166 55.8965 216.021C55.8965 216.021 56.2808 216.166 56.9532 216.406C57.6257 216.694 58.5384 217.222 59.5951 218.039C60.6519 218.856 61.8047 220.056 63.1017 221.497C64.3506 222.938 65.6955 224.716 67.4728 226.541C68.3374 227.454 69.2981 228.366 70.3549 229.231C71.4116 230.096 72.5645 230.96 73.7653 231.777C75.0142 232.593 76.3111 233.362 77.7041 234.082C79.0972 234.803 80.5382 235.475 82.0273 236.052C88.0796 238.598 94.9485 240.087 102.154 241.192Z" fill="#3C3C3B"/>
</g>
<mask id="mask25_65_6652" style="mask-type:luminance" maskUnits="userSpaceOnUse" x="30" y="0" width="456" height="372">
<path d="M485.998 0.154907H30.9668V371.509H485.998V0.154907Z" fill="white"/>
</mask>
<g mask="url(#mask25_65_6652)">
<path d="M116.613 179.948C116.613 179.948 116.276 179.9 115.604 179.756C114.979 179.66 114.019 179.516 112.866 179.227C112.289 179.083 111.665 178.987 110.944 178.747C110.272 178.555 109.503 178.363 108.783 178.075C108.014 177.786 107.198 177.546 106.381 177.21C105.565 176.874 104.652 176.538 103.787 176.105C102.01 175.337 100.185 174.328 98.3594 173.223C97.4468 172.647 96.5341 172.022 95.6215 171.398C94.7088 170.725 93.7962 170.101 92.9316 169.332C92.0189 168.66 91.2023 167.843 90.3377 167.075C89.5211 166.258 88.6565 165.49 87.8879 164.625C87.0713 163.808 86.3028 162.944 85.5823 162.031C84.8137 161.167 84.1893 160.254 83.4688 159.341C83.4688 159.341 83.6129 159.629 83.853 160.11C84.1412 160.59 84.4294 161.359 85.0059 162.223C85.5342 163.136 86.2548 164.241 87.1194 165.394C87.5517 166.018 88.0801 166.594 88.6084 167.267C89.1368 167.939 89.8093 168.564 90.4338 169.236C91.0582 169.909 91.8268 170.533 92.5953 171.206C93.4119 171.83 94.2285 172.503 95.1411 173.127C96.9664 174.376 98.9839 175.577 101.193 176.586C102.298 177.066 103.499 177.546 104.7 177.931C105.901 178.363 107.15 178.699 108.447 178.987C109.744 179.227 111.041 179.516 112.434 179.612C113.875 179.948 115.22 179.948 116.613 179.948Z" fill="#3C3C3B"/>
</g>
<mask id="mask26_65_6652" style="mask-type:luminance" maskUnits="userSpaceOnUse" x="30" y="0" width="456" height="372">
<path d="M485.998 0.154907H30.9668V371.509H485.998V0.154907Z" fill="white"/>
</mask>
<g mask="url(#mask26_65_6652)">
<path d="M52.1638 214.677C52.1638 214.677 51.5874 215.157 51.2031 215.637C51.2031 215.637 51.6835 215.205 52.1638 214.677Z" fill="#563E3D"/>
</g>
<mask id="mask27_65_6652" style="mask-type:luminance" maskUnits="userSpaceOnUse" x="30" y="0" width="456" height="372">
<path d="M485.998 0.154907H30.9668V371.509H485.998V0.154907Z" fill="white"/>
</mask>
<g mask="url(#mask27_65_6652)">
<path d="M50.3301 210.738C50.3301 210.738 50.4742 211.074 50.8104 211.651C51.0986 212.275 51.579 213.14 52.1074 214.293C52.6357 215.446 53.2602 216.935 53.9327 218.616C54.5571 220.345 55.2776 222.362 55.9501 224.572C57.2951 229.087 58.544 234.611 59.6488 240.952C60.2252 244.122 60.7055 247.485 61.2339 251.039C61.7623 254.594 62.3387 258.292 62.9151 262.183C63.5396 266.074 64.5003 270.445 66.8539 274.384C69.1596 278.275 72.3299 281.589 75.7403 284.519C79.1508 287.449 82.7534 289.995 86.356 292.733C89.9585 295.423 93.6572 298.113 97.3559 300.851C101.151 303.541 105.282 306.327 110.373 307.48C112.919 308.008 115.561 308.104 118.251 307.287C120.941 306.423 122.91 304.694 124.591 302.916C127.906 299.266 130.115 295.135 132.085 290.956C133.958 286.777 135.495 282.454 136.744 278.227C136.744 278.227 136.264 279.283 135.303 281.253C134.342 283.222 132.901 286.104 130.836 289.611C129.779 291.34 128.626 293.309 127.137 295.279C125.696 297.248 124.063 299.362 121.998 301.139C120.941 302.004 119.836 302.868 118.635 303.349L117.722 303.733L116.81 303.925C116.522 304.021 116.185 304.069 115.801 304.069C115.465 304.117 115.081 304.117 114.744 304.117C111.862 304.069 108.884 302.964 105.906 301.235C102.928 299.506 100.046 297.152 96.8755 294.702C93.7052 292.301 90.4389 289.755 87.0765 287.161C83.666 284.567 80.1595 281.973 76.9412 279.091C73.7709 276.161 70.9369 272.847 69.2557 268.908C67.5745 264.921 66.95 260.118 65.8933 255.218C64.8845 250.367 63.8758 245.371 62.5789 240.327C61.33 235.284 59.7929 230.192 57.8715 225.245C55.9501 220.057 53.4523 215.205 50.3301 210.738Z" fill="#3C3C3B"/>
</g>
<mask id="mask28_65_6652" style="mask-type:luminance" maskUnits="userSpaceOnUse" x="30" y="0" width="456" height="372">
<path d="M485.998 0.154907H30.9668V371.509H485.998V0.154907Z" fill="white"/>
</mask>
<g mask="url(#mask28_65_6652)">
<path d="M49.2734 166.594C49.2734 166.594 51.2428 164.769 54.5572 161.551C56.1904 159.917 58.1598 157.996 60.4174 155.787C61.5222 154.682 62.6751 153.481 63.924 152.232C65.1248 150.983 66.3257 149.878 67.7187 149.638C69.1117 149.35 70.8409 149.734 72.6662 150.311C74.5396 150.887 76.7492 151.463 78.8627 151.8C81.0242 152.136 83.2819 152.232 85.5395 152.232C87.7971 152.136 90.1027 151.896 92.3604 151.367C94.618 150.935 96.8276 150.167 98.9891 149.302C100.046 148.87 101.103 148.341 102.159 147.861C103.168 147.284 104.177 146.756 105.138 146.084C106.098 145.459 107.059 144.835 107.924 144.066C108.836 143.394 109.653 142.625 110.469 141.809C112.103 140.271 113.496 138.494 114.744 136.765C114.744 136.765 114.312 137.149 113.544 137.822C113.159 138.158 112.679 138.638 112.055 139.071C111.43 139.551 110.806 140.127 109.989 140.656C109.172 141.232 108.308 141.857 107.251 142.433C106.242 143.057 105.09 143.682 103.889 144.306C102.64 144.883 101.295 145.507 99.8538 146.036C98.4127 146.612 96.8276 147.044 95.1944 147.477C93.5612 147.909 91.784 148.245 89.9587 148.437C88.1333 148.629 86.212 148.774 84.2425 148.725C83.2338 148.725 82.2731 148.677 81.2164 148.581C80.2077 148.533 79.1989 148.341 78.1422 148.197C77.0854 148.053 76.0767 147.765 75.0199 147.525C73.9632 147.236 72.8584 146.9 71.6095 146.66C70.3606 146.42 68.9676 146.276 67.5265 146.564C66.0375 146.852 64.6925 147.717 63.7318 148.629C62.7231 149.59 62.0026 150.551 61.186 151.463C60.4174 152.424 59.6009 153.385 58.8323 154.345C55.614 158.332 52.4437 162.367 49.2734 166.594Z" fill="#3C3C3B"/>
</g>
<mask id="mask29_65_6652" style="mask-type:luminance" maskUnits="userSpaceOnUse" x="30" y="0" width="456" height="372">
<path d="M485.998 0.154907H30.9668V371.509H485.998V0.154907Z" fill="white"/>
</mask>
<g mask="url(#mask29_65_6652)">
<path d="M115.464 140.464C115.464 140.464 115.512 140.56 115.608 140.704C115.704 140.848 115.897 141.088 116.041 141.376C116.377 142.001 116.809 142.961 116.953 144.258C117.097 145.507 116.953 147.092 116.377 148.726C115.801 150.359 114.84 152.04 113.399 153.529C111.958 155.018 110.084 156.267 108.019 157.42C105.953 158.573 103.648 159.581 101.39 160.782C99.0846 161.983 96.7789 163.376 94.8095 165.201C92.8401 166.979 91.303 169.284 90.7266 171.686C90.7266 171.686 90.8706 171.398 91.1589 170.869C91.4951 170.341 91.9274 169.572 92.696 168.756C93.4165 167.891 94.4252 166.979 95.7221 166.066C97.0191 165.153 98.5562 164.241 100.381 163.328C102.159 162.415 104.224 161.599 106.386 160.542C108.547 159.485 110.853 158.236 113.015 156.411C114.071 155.498 115.08 154.442 115.897 153.193C116.713 151.944 117.29 150.551 117.626 149.062C117.962 147.573 118.01 146.036 117.722 144.499C117.338 142.961 116.569 141.52 115.464 140.464Z" fill="#3C3C3B"/>
</g>
<mask id="mask30_65_6652" style="mask-type:luminance" maskUnits="userSpaceOnUse" x="30" y="0" width="456" height="372">
<path d="M485.998 0.154907H30.9668V371.509H485.998V0.154907Z" fill="white"/>
</mask>
<g mask="url(#mask30_65_6652)">
<path d="M47.1164 171.301C47.1164 171.301 46.9723 171.542 46.6841 172.022C46.3959 172.502 46.0116 173.127 45.6273 174.039C44.7627 175.769 43.7059 178.362 43.0334 181.533C42.361 184.703 42.0247 188.45 42.457 192.244C42.8413 196.039 44.0902 199.834 45.9636 203.004C45.9636 203.004 45.8675 201.995 45.6753 200.41C45.4832 198.777 45.243 196.375 45.147 193.493C45.0029 190.611 45.0509 187.249 45.3391 183.502C45.6273 179.707 46.2037 175.624 47.1164 171.301Z" fill="#3C3C3B"/>
</g>
</svg>
