<svg width="138" height="43" viewbox="0 0 138 43" fill="none" xmlns="http://www.w3.org/2000/svg">
<mask id="mask0" mask-type="alpha" maskUnits="userSpaceOnUse" x="0" y="0" width="138" height="43">
<rect x="0.133789" y="0.563965" width="137.714" height="41.9589" fill="url(#paint0_linear)"/>
</mask>
<g mask="url(#mask0)">
<path opacity="0.8" fill-rule="evenodd" clip-rule="evenodd" d="M21.2364 36.8565C30.2612 36.8565 37.5773 29.9703 37.5773 21.4759C37.5773 12.9814 30.2612 6.09521 21.2364 6.09521C12.2116 6.09521 4.89551 12.9814 4.89551 21.4759C4.89551 29.9703 12.2116 36.8565 21.2364 36.8565ZM125.678 21.4798C125.678 14.3385 130.849 8.33398 137.858 6.60208C136.525 6.27137 135.126 6.09521 133.682 6.09521C124.657 6.09521 117.341 12.9814 117.341 21.4759C117.341 29.9703 124.657 36.8565 133.682 36.8565C135.12 36.8565 136.514 36.6817 137.843 36.3535C130.841 34.6165 125.678 28.6156 125.678 21.4798ZM67.9002 36.0737C67.3222 36.5815 66.2395 36.8565 64.4362 36.8565C55.4114 36.8565 48.0953 29.9703 48.0953 21.4759C48.0953 12.9814 55.4114 6.09521 64.4362 6.09521C66.2708 6.09521 67.3596 6.3798 67.9298 6.90464C73.0198 8.95508 76.6852 14.7075 76.6852 21.4832C76.6852 28.2721 73.0056 34.0337 67.9002 36.0737ZM88.4424 21.4727C88.4424 13.1125 95.5289 6.3102 104.356 6.09717V36.8482C95.5289 36.6351 88.4424 29.8328 88.4424 21.4727Z" fill="url(#paint1_linear)"/>
</g>
<defs>
<linearGradient id="paint0_linear" x1="31.2704" y1="93.5665" x2="155.988" y2="107.364" gradientUnits="userSpaceOnUse">
<stop stop-color="#F0C9D1"/>
<stop offset="0.75864" stop-color="#4E79C0"/>
</linearGradient>
<linearGradient id="paint1_linear" x1="34.958" y1="74.278" x2="154.314" y2="91.6672" gradientUnits="userSpaceOnUse">
<stop stop-color="#F0C9D1"/>
<stop offset="0.75864" stop-color="#4E79C0"/>
</linearGradient>
</defs>
</svg>
