<svg width="59" height="300" viewBox="0 0 59 300" fill="none" xmlns="http://www.w3.org/2000/svg">
<g style="mix-blend-mode:multiply" opacity="0.3">
<path d="M8.43876 0.216797L15.1325 201.474H43.6922L49.9396 0.216797H8.43876ZM9.33126 291.615C14.6862 296.97 21.3799 299.648 29.4123 299.648C37.4447 299.648 44.1384 296.97 49.4934 291.615C54.8484 286.26 57.5258 279.567 57.5258 271.534C57.5258 263.502 54.8484 256.808 49.4934 251.453C44.1384 246.098 37.4447 243.421 29.4123 243.421C21.3799 243.421 14.6862 246.098 9.33126 251.453C3.97631 256.808 1.29883 263.502 1.29883 271.534C1.29883 279.567 3.97631 286.26 9.33126 291.615Z" fill="url(#paint0_linear_386_11898)"/>
</g>
<defs>
<linearGradient id="paint0_linear_386_11898" x1="-353.782" y1="-290.958" x2="-519.261" y2="56.5442" gradientUnits="userSpaceOnUse">
<stop offset="0.0365419" stop-color="#FFE9ED"/>
<stop offset="0.75864" stop-color="#B5D0FE"/>
</linearGradient>
</defs>
</svg>
