<svg width="138" height="138" viewBox="0 0 138 138" fill="none" xmlns="http://www.w3.org/2000/svg">
<path d="M55.8195 120.78C85.6705 120.78 109.87 96.5807 109.87 66.7296C109.87 36.8788 85.6705 12.6797 55.8195 12.6797C25.9685 12.6797 1.76953 36.8788 1.76953 66.7296C1.76953 96.5807 25.9685 120.78 55.8195 120.78Z" stroke="#4F6FC1" stroke-width="1.15" stroke-miterlimit="10"/>
<path d="M45.4832 65.4031C45.4868 65.2899 45.4939 65.1695 45.5469 65.0705C45.6885 64.7981 46.0565 64.7591 46.3608 64.7555C46.8951 64.7485 47.4294 64.7414 47.9637 64.7344C48.0415 64.7344 48.1229 64.7344 48.1937 64.7662C48.2715 64.8051 48.3246 64.8794 48.3706 64.9502C48.5582 65.2404 48.6997 65.5694 48.6962 65.9162C48.6891 66.4434 48.3424 66.9034 47.9885 67.2962C47.8469 67.4519 47.6948 67.6075 47.5179 67.7208C47.1004 67.9862 45.8902 68.2941 45.6354 67.7208C45.5328 67.4872 45.6779 67.0662 45.6672 66.8185C45.6461 66.3372 45.4691 65.8914 45.4832 65.4031Z" fill="#4F6FC1"/>
<path d="M66.3602 65.7566C66.3636 65.6435 66.3708 65.5232 66.4238 65.424C66.5654 65.1516 66.9334 65.1126 67.2376 65.1092C67.7719 65.102 68.3063 65.095 68.8406 65.0879C68.9185 65.0879 68.9998 65.0879 69.0706 65.1197C69.1485 65.1586 69.2015 65.233 69.2475 65.3037C69.4351 65.5939 69.5766 65.923 69.5731 66.2697C69.5659 66.797 69.2192 67.257 68.8654 67.6497C68.7238 67.8055 68.5716 67.9612 68.3948 68.0743C67.9772 68.3397 66.7671 68.6476 66.5123 68.0743C66.4096 67.8408 66.5548 67.4197 66.5442 67.172C66.5229 66.6908 66.3459 66.245 66.3602 65.7566Z" fill="#4F6FC1"/>
<path opacity="0.23" d="M81.3891 45.3275C80.8728 42.7108 80.2029 40.0275 78.5283 37.8454C76.9606 35.7964 74.8161 34.1465 72.5367 32.8559C67.4291 29.9552 61.6747 29.4187 55.846 29.4319C50.65 29.4452 44.998 29.9464 40.6346 32.9135C35.9177 36.1157 33.6057 41.2827 31.9543 46.3964C30.489 50.938 28.2282 57.7061 32.452 61.4183C32.8847 63.0372 35.7921 62.8686 35.8711 60.9216C36.0851 55.5684 38.8204 50.6542 43.3094 47.4387C45.4818 45.8819 48.5846 43.4248 51.4221 43.5313C53.2968 43.6023 55.4553 43.2918 57.5346 43.11C57.2463 40.1118 56.7159 37.1314 56.6089 34.1155C56.5345 31.9821 60.0048 31.991 60.0838 34.1155C60.1908 37.1003 60.7118 40.0497 61.0048 43.0213C63.5774 43.2297 65.6892 44.8973 68.0524 46.117C70.5736 47.4165 73.9547 49.6002 75.1177 51.9864C76.3877 54.5942 77.5839 58.2206 78.5283 60.9216C79.2492 62.9928 79.3004 63.8532 80.6867 61.6711C82.1009 59.4447 82.2915 56.4864 82.2776 53.9539C82.2636 51.0577 81.9473 48.1661 81.3891 45.3275Z" fill="#4F6FC1"/>
<path opacity="0.23" d="M79.8161 106.641C76.715 107.141 73.593 105.16 71.9377 102.435C70.2825 99.7098 69.855 96.3898 69.8634 93.1811C69.8675 91.1403 70.9697 90.6996 71.9377 88.9156C73.1488 86.6781 77.174 80.8998 77.1153 78.3414C77.4841 78.1061 75.441 80.6755 75.8014 80.928C77.1153 77.3454 80.4279 84.2394 82.695 85.9636C83.8977 86.8791 85.0962 87.8117 86.1354 88.9156C89.1904 92.1585 90.6237 96.6166 91.8095 100.95C92.1993 102.371 93.6202 102.392 93.4987 103.864C93.3771 105.336 90.52 107.948 89.2294 108.616C87.9009 109.304 87.4053 109.302 85.9552 108.942C81.8191 107.916 77.7208 106.752 73.66 105.456" fill="#4F6FC1"/>
<path opacity="0.23" d="M37.389 106.39C40.2009 106.85 43.0317 105.03 44.5326 102.526C46.0336 100.021 46.4211 96.9706 46.4135 94.0221C46.4097 92.1468 43.8487 90.6171 42.9709 88.9777C41.8728 86.9216 39.53 85.7727 39.5832 83.4217C38.6782 86.5119 38.8802 82.1057 38.5534 82.3376C37.3621 79.0456 36.8343 85.8055 34.7785 87.3898C33.688 88.2312 32.6012 89.0882 31.6589 90.1024C28.8889 93.0824 27.5893 97.179 26.514 101.161C26.1606 102.467 22.3472 107.153 22.4574 108.505C22.5676 109.857 24.7632 109.894 27.8106 109.521C30.4903 109.193 30.5075 108.835 31.8223 108.505C35.5727 107.562 39.2889 106.492 42.9709 105.301" fill="#4F6FC1"/>
<path d="M63.9469 117.708C65.9848 115.193 68.6874 113.62 71.8423 113.106C72.9159 112.933 72.4582 111.265 71.3956 111.438C67.99 111.991 64.955 113.765 62.7535 116.487C62.0616 117.34 63.2549 118.568 63.9469 117.708Z" fill="#4F6FC1" stroke="#4F6FC1" stroke-width="0.320341"/>
<path d="M54.2442 116.487C52.0429 113.77 49.0078 111.996 45.6022 111.438C44.5397 111.265 44.082 112.933 45.1554 113.106C48.3103 113.62 51.0131 115.187 53.0509 117.708C53.7429 118.568 54.9308 117.34 54.2442 116.487Z" fill="#4F6FC1" stroke="#4F6FC1" stroke-width="0.320341"/>
<path d="M35.6489 65.1338C35.5018 70.2042 36.3899 75.7581 37.3435 80.7119C37.5723 81.9074 39.2182 81.3321 38.9894 80.1364C38.0684 75.342 37.1964 70.0325 37.3435 65.1338C37.3763 63.9137 35.687 63.9137 35.6489 65.1338Z" fill="#4F6FC1" stroke="#4F6FC1" stroke-width="0.320341"/>
<path d="M37.4187 80.6598C39.4513 85.9202 42.361 90.8571 47.2486 93.7801C50.5561 95.7606 55.9778 98.0365 59.8302 97.328C62.9252 96.7591 66.0747 94.4775 68.543 92.592C70.9024 90.7901 73.0493 88.6927 74.782 86.2494C79.0322 80.2637 79.8441 73.0787 80.2364 65.9048C80.2964 64.7947 78.6072 64.7947 78.5472 65.9048C78.204 72.1806 77.61 78.5065 74.2644 83.9621C72.5588 86.7402 70.254 89.1333 67.693 91.097C65.4208 92.843 62.4621 94.9963 59.6504 95.5541C56.2884 96.2179 51.2754 94.1261 48.3385 92.4246C43.7232 89.7526 40.9551 85.128 39.0481 80.2023C38.6557 79.176 37.0156 79.6222 37.4187 80.6598Z" fill="#4F6FC1" stroke="#4F6FC1" stroke-width="0.320341"/>
<path d="M80.2236 63.9918C84.7735 65.7713 83.9996 77.0118 78.4581 76.2141C77.3955 76.0635 76.9324 77.7258 78.0114 77.8821C85.8141 79.0089 87.3453 64.929 80.6758 62.3239C79.6569 61.9278 79.2155 63.6013 80.2236 63.9918Z" fill="#4F6FC1" stroke="#4F6FC1" stroke-width="0.320341"/>
<path d="M33.5123 62.3123C27.8781 63.9078 28.3467 75.0981 33.8229 76.5708C34.8745 76.8553 35.3268 75.1874 34.2697 74.9029C30.4663 73.882 30.0141 65.096 33.9591 63.9803C35.0053 63.6846 34.564 62.0166 33.5123 62.3123Z" fill="#4F6FC1" stroke="#4F6FC1" stroke-width="0.320341"/>
<path d="M79.9116 71.639C80.184 70.4062 80.8651 69.3742 81.9113 68.6991C82.8321 68.1079 81.9822 66.6073 81.0558 67.2041C79.65 68.1079 78.6474 69.5137 78.2769 71.1815C78.0426 72.2638 79.6718 72.7268 79.9116 71.639Z" fill="#4F6FC1" stroke="#4F6FC1" stroke-width="0.320341"/>
<path d="M37.3261 69.7419C36.8466 67.8955 35.6643 66.3392 34.0296 65.4187C33.076 64.8832 32.2205 66.3782 33.1741 66.9137C34.4437 67.6278 35.3209 68.7713 35.6969 70.205C35.9748 71.276 37.6041 70.8186 37.3261 69.7419Z" fill="#4F6FC1" stroke="#4F6FC1" stroke-width="0.320341"/>
<path d="M54.72 76.1445C56.2204 77.0822 58.1064 77.0857 59.6137 76.1622C60.5444 75.5925 59.6916 74.124 58.7575 74.6973C57.7455 75.3165 56.5849 75.3059 55.5799 74.6796C54.6457 74.0957 53.793 75.5642 54.72 76.1445Z" fill="#4F6FC1" stroke="#4F6FC1" stroke-width="0.320341"/>
<path d="M64.7346 67.1979C66.847 64.4379 70.4245 65.4075 72.8943 67.067C73.8036 67.6792 74.6565 66.2072 73.7506 65.6022C70.3678 63.3269 65.9589 62.8245 63.2661 66.3416C62.6009 67.2086 64.0765 68.0578 64.7346 67.1979Z" fill="#4F6FC1" stroke="#4F6FC1" stroke-width="0.320341"/>
<path d="M62.9309 61.8326C65.5848 59.9254 69.1055 59.0514 71.816 61.3903C72.6405 62.1016 73.8471 60.9056 73.0155 60.1907C69.7495 57.3706 65.4043 57.9721 62.0746 60.3677C61.1935 60.9976 62.0428 62.4696 62.9309 61.8326Z" fill="#4F6FC1" stroke="#4F6FC1" stroke-width="0.320341"/>
<path d="M65.1481 65.3712C65.0208 67.1688 65.003 69.4157 67.1862 69.8651C69.8755 70.4171 70.4699 66.5567 70.1656 64.6883C69.9922 63.6126 68.3539 64.0691 68.5273 65.1412C68.6371 65.8205 68.5238 68.4603 67.4128 68.1737C66.3936 67.9118 66.7971 66.0967 66.8501 65.3712C66.9244 64.2814 65.2259 64.285 65.1481 65.3712Z" fill="#4F6FC1" stroke="#4F6FC1" stroke-width="0.320341"/>
<path d="M51.3263 65.9862C48.6336 62.469 44.2282 62.9714 40.8419 65.2467C39.9396 65.8517 40.7887 67.3237 41.6982 66.7116C44.168 65.052 47.7454 64.0824 49.8579 66.8424C50.516 67.6989 51.9916 66.8567 51.3263 65.9862Z" fill="#4F6FC1" stroke="#4F6FC1" stroke-width="0.320341"/>
<path d="M52.5199 60.011C49.1901 57.619 44.8449 57.0139 41.5789 59.834C40.7509 60.5489 41.9574 61.7448 42.7784 61.0336C45.4819 58.6982 49.0097 59.5687 51.6634 61.4759C52.5517 62.1163 53.4009 60.6443 52.5199 60.011Z" fill="#4F6FC1" stroke="#4F6FC1" stroke-width="0.320341"/>
<path d="M47.7435 65.0166C47.7965 65.7421 48.2 67.5573 47.1808 67.8192C46.0698 68.1022 45.9531 65.4661 46.0662 64.7866C46.2397 63.7181 44.6048 63.2581 44.428 64.3338C44.1237 66.2021 44.7145 70.0625 47.4074 69.5105C49.5905 69.0646 49.5728 66.8178 49.4455 65.0166C49.3641 63.9339 47.6657 63.9233 47.7435 65.0166Z" fill="#4F6FC1" stroke="#4F6FC1" stroke-width="0.320341"/>
<path d="M79.7659 63.0394C79.6355 58.07 78.2456 53.0162 74.6646 49.1331C71.3705 45.5637 66.2804 43.3709 61.1194 43.8533C59.9867 43.9579 59.9754 45.5806 61.1194 45.4727C65.8593 45.0307 70.3867 46.9942 73.4013 50.2768C76.6581 53.8225 77.8617 58.5254 77.9809 63.0394C78.0071 64.0784 79.7957 64.0818 79.7659 63.0394Z" fill="#4F6FC1" stroke="#4F6FC1" stroke-width="0.320341"/>
<path d="M57.3896 34.5485C57.7929 37.7569 57.9451 40.9653 57.8531 44.1972C57.8212 45.2397 59.5232 45.2397 59.5516 44.1972C59.6436 40.9686 59.4915 37.7569 59.0881 34.5485C58.9606 33.5297 57.2622 33.5161 57.3896 34.5485Z" fill="#4F6FC1" stroke="#4F6FC1" stroke-width="0.320341"/>
<path d="M82.5327 64.848C88.6825 53.8701 83.8985 37.6226 72.5542 31.415C69.0405 29.492 65.0385 28.6925 61.0082 28.8645C59.9183 28.9118 59.9148 30.5311 61.0082 30.4839C69.773 30.1094 76.9278 35.0147 80.6538 42.3997C83.9693 48.9683 85.0669 56.5458 81.3799 63.1312C80.8667 64.0489 82.0196 65.7691 82.5327 64.848Z" fill="#4F6FC1" stroke="#4F6FC1" stroke-width="0.320341"/>
<path d="M58.0856 27.774C53.3583 25.6925 46.9324 27.7133 42.6367 29.8455C35.6553 33.3135 30.6696 39.5684 29.0844 46.9297C27.7964 52.9113 28.589 59.085 30.2698 64.9215C30.5599 65.9268 32.1983 65.4984 31.9082 64.4897C29.4029 55.7924 29.0526 46.0053 34.7813 38.3539C38.4402 33.4721 44.2362 30.0613 50.4036 28.9379C52.5303 28.5499 55.1912 28.2733 57.2293 29.1707C58.2166 29.6059 59.08 28.2091 58.0856 27.774Z" fill="#4F6FC1" stroke="#4F6FC1" stroke-width="0.320341"/>
<path d="M55.9639 43.2149C44.7789 43.3297 38.3707 53.0661 34.3652 61.7499C33.9299 62.6945 35.3913 63.5211 35.8301 62.5663C39.5702 54.4627 45.4299 44.9422 55.9639 44.8342C57.0573 44.8208 57.0573 43.2015 55.9639 43.2149Z" fill="#4F6FC1" stroke="#4F6FC1" stroke-width="0.320341"/>
<path d="M49.3028 84.7484C54.457 86.7719 59.988 86.9253 65.012 84.4459C66.0587 83.9296 65.1422 82.362 64.0956 82.8783C59.4996 85.1483 54.4617 84.8321 49.7866 82.9992C48.6981 82.5713 48.2282 84.325 49.3028 84.7484Z" fill="#4F6FC1" stroke="#4F6FC1" stroke-width="0.320341"/>
<g opacity="0.23">
<path d="M55.9027 89.6616C53.949 89.0522 52.2418 87.4707 51.3254 85.4053C51.0974 84.8889 50.9114 84.3121 51.009 83.7445C51.13 83.0374 51.665 82.5165 52.2139 82.1582C53.963 81 56.0749 80.8603 58.0984 80.772C58.6566 80.7488 59.2196 80.7254 59.7637 80.8557C60.7034 81.0837 61.5082 81.7442 62.2851 82.3862C62.5409 82.6002 62.8108 82.8281 62.9549 83.1538C63.0479 83.3631 63.0806 83.6003 63.1084 83.8329C63.1968 84.6237 63.2061 85.4703 62.8805 86.1774C62.499 87.0194 61.7268 87.5171 60.9965 87.973C60.3871 88.3498 59.7684 88.7313 59.094 88.8987C58.731 88.987 58.3589 89.0104 57.9915 89.0243C56.5261 89.0801 55.0515 88.9638 53.6048 88.6847" fill="#4F6FC1"/>
<path d="M55.9027 89.6616C53.949 89.0522 52.2418 87.4707 51.3254 85.4053C51.0974 84.8889 50.9114 84.3121 51.009 83.7445C51.13 83.0374 51.665 82.5165 52.2139 82.1582C53.963 81 56.0749 80.8603 58.0984 80.772C58.6566 80.7488 59.2196 80.7254 59.7637 80.8557C60.7034 81.0837 61.5082 81.7442 62.2851 82.3862C62.5409 82.6002 62.8108 82.8281 62.9549 83.1538C63.0479 83.3631 63.0806 83.6003 63.1084 83.8329C63.1968 84.6237 63.2061 85.4703 62.8805 86.1774C62.499 87.0194 61.7268 87.5171 60.9965 87.973C60.3871 88.3498 59.7684 88.7313 59.094 88.8987C58.731 88.987 58.3589 89.0104 57.9915 89.0243C56.5261 89.0801 55.0515 88.9638 53.6048 88.6847" stroke="#4F6FC1" stroke-width="0.320341"/>
</g>
<path d="M45.2758 39.7521C39.3149 43.3308 34.9849 48.1585 32.8205 53.7052C32.4945 54.5397 34.1998 54.8585 34.5261 54.0297C36.5519 48.8449 40.6119 44.2471 46.189 40.8952C47.0721 40.3636 46.1696 39.2119 45.2758 39.7521Z" fill="#4F6FC1" stroke="#4F6FC1" stroke-width="0.320341"/>
<path d="M80.2136 63.032C80.8831 58.0293 82.0481 50.8994 78.4617 46.4005C77.8791 45.6724 76.3772 46.3397 76.9634 47.0705C80.358 51.3286 79.0951 58.7839 78.4617 63.5209C78.3459 64.3709 80.0978 63.8765 80.2136 63.032Z" fill="#4F6FC1" stroke="#4F6FC1" stroke-width="0.320341"/>
<path d="M78.2904 78.6139C81.884 90.499 93.1344 96.2773 96.0336 108.496C96.3808 109.953 98.2715 109.33 97.9243 107.868C94.9883 95.5023 83.7666 89.8466 80.1811 77.986C79.7524 76.5733 77.8575 77.1865 78.2904 78.6139Z" fill="#4F6FC1" stroke="#4F6FC1" stroke-width="0.320341"/>
<path d="M38.7805 80.6381C35.5186 91.5712 25.3064 96.8866 22.6746 108.127C22.3595 109.467 20.6434 108.894 20.9583 107.549C23.6236 96.1738 33.8097 90.9712 37.0643 80.0605C37.4535 78.761 39.1734 79.3251 38.7805 80.6381Z" fill="#4F6FC1" stroke="#4F6FC1" stroke-width="0.320341"/>
<path d="M45.9714 92.6094C45.9883 95.1688 45.8817 97.8641 45.0583 100.418C43.7386 104.507 40.5641 107.947 36.592 109.588C36.3871 109.673 36.0302 109.765 35.6374 109.857C35.2175 109.956 34.6775 110.072 34.0544 110.203C33.2646 110.368 32.3288 110.557 31.3194 110.761C30.7376 110.879 26.9352 111.299 26.3184 111.425" stroke="#4F6FC1" stroke-width="1.725" stroke-linecap="round" stroke-linejoin="round"/>
<path fill-rule="evenodd" clip-rule="evenodd" d="M70.2731 91.0245C70.2565 93.5659 70.3809 96.5564 71.1181 98.8423C72.2902 102.475 75.1236 105.544 78.6514 107.002C78.6515 107.002 78.6519 107.003 78.6526 107.003C78.6533 107.003 78.6544 107.004 78.6557 107.004L78.6684 107.009C78.6795 107.013 78.6944 107.018 78.7136 107.024C78.7522 107.036 78.8025 107.051 78.8655 107.068C78.9916 107.103 79.1553 107.143 79.3553 107.19C79.7549 107.284 80.2791 107.398 80.8988 107.527C81.684 107.691 82.6101 107.879 83.6151 108.082C84.1979 108.2 84.8073 108.323 85.4311 108.45C88.8015 109.137 92.6091 109.942 94.6766 110.6C101.381 112.732 104.164 117.105 106.902 121.407C107.222 121.91 107.542 122.411 107.867 122.908L106.496 123.804C106.163 123.294 105.839 122.787 105.52 122.287C102.772 117.983 100.295 114.104 94.1805 112.16C92.2153 111.535 88.5062 110.748 85.104 110.054C84.487 109.928 83.8808 109.806 83.299 109.688C82.2895 109.484 81.3537 109.295 80.5639 109.13C79.9409 108.999 79.4008 108.883 78.981 108.784C78.5881 108.692 78.2315 108.6 78.0266 108.516C74.0545 106.874 70.8798 103.434 69.5602 99.3448C68.7353 96.7866 68.6194 93.5625 68.6362 91.0137L70.2731 91.0245Z" fill="#4F6FC1"/>
<path d="M94.1805 112.16C100.295 114.104 102.772 117.983 105.52 122.287C105.839 122.787 106.163 123.294 106.496 123.804L107.867 122.908C107.542 122.411 107.222 121.91 106.902 121.407C104.164 117.105 101.381 112.732 94.6766 110.6C92.6091 109.942 88.8015 109.137 85.4311 108.45C84.8073 108.323 84.1979 108.2 83.6151 108.082C82.6101 107.879 81.684 107.691 80.8988 107.527C80.2791 107.398 79.7549 107.284 79.3553 107.19C79.1553 107.143 78.9916 107.103 78.8655 107.068C78.8025 107.051 78.7522 107.036 78.7136 107.024C78.6944 107.018 78.6795 107.013 78.6684 107.009L78.6557 107.004C78.6544 107.004 78.6533 107.003 78.6526 107.003C78.6519 107.003 78.6516 107.002 78.6515 107.002C75.1237 105.544 72.2902 102.475 71.1181 98.8423C70.3809 96.5564 70.2565 93.5659 70.2731 91.0245L68.6362 91.0137C68.6194 93.5625 68.7351 96.7864 69.56 99.3447C70.8797 103.434 74.0542 106.874 78.0263 108.515C78.2313 108.6 78.5881 108.692 78.981 108.784C79.4008 108.883 79.9409 108.999 80.5639 109.13C81.3537 109.295 82.2895 109.484 83.299 109.688C83.8808 109.806 84.487 109.928 85.104 110.054C88.5062 110.748 92.2153 111.535 94.1805 112.16ZM94.1805 112.16L94.4286 111.38" stroke="#4F6FC1" stroke-width="0.320341" stroke-miterlimit="10"/>
<path d="M112.697 124.85C125.921 124.85 136.641 114.13 136.641 100.906C136.641 87.6814 125.921 76.9609 112.697 76.9609C99.4724 76.9609 88.752 87.6814 88.752 100.906C88.752 114.13 99.4724 124.85 112.697 124.85Z" fill="white" stroke="#221D1E" stroke-width="2.3"/>
<path d="M97.1348 111.425L103.998 106.652" stroke="white" stroke-width="6.9" stroke-miterlimit="10" stroke-linecap="round"/>
<path d="M129.421 92.3718L108.482 106.629C107.843 107.064 106.982 106.916 106.521 106.293L105.222 104.53C104.726 103.86 104.882 102.901 105.561 102.421L126.343 87.7812" fill="white"/>
<path d="M129.421 92.3718L108.482 106.629C107.843 107.064 106.982 106.916 106.521 106.293L105.222 104.53C104.726 103.86 104.882 102.901 105.561 102.421L126.343 87.7812" stroke="white" stroke-width="6.9" stroke-miterlimit="10" stroke-linecap="round"/>
<path opacity="0.4" d="M117.335 93.8881L104.074 102.82L107.182 107.434L120.443 98.5022L117.335 93.8881Z" fill="url(#paint0_linear_386_11914)"/>
<path d="M125.202 95.0791L108.15 106.961C107.511 107.397 106.65 107.249 106.189 106.626L104.89 104.863C104.394 104.193 104.55 103.234 105.228 102.753L122.127 90.832" stroke="#221D1E" stroke-width="1.61" stroke-miterlimit="10" stroke-linecap="round"/>
<path d="M121.477 88.4473L127.031 96.6365" stroke="#221D1E" stroke-width="1.61" stroke-miterlimit="10" stroke-linecap="round"/>
<path d="M120.875 94.9342L126.783 90.709" stroke="#221D1E" stroke-width="1.61" stroke-miterlimit="10" stroke-linecap="round"/>
<path d="M125.014 87.8203L128.71 93.3493" stroke="#221D1E" stroke-width="1.61" stroke-miterlimit="10" stroke-linecap="round"/>
<path d="M117.26 94.2578L120.167 98.5887" stroke="#221D1E" stroke-width="1.61" stroke-miterlimit="10" stroke-linecap="round"/>
<path d="M110.453 102.438L111.735 104.462" stroke="#221D1E" stroke-width="1.61" stroke-miterlimit="10" stroke-linecap="round"/>
<path d="M114.559 99.4824L115.887 101.451" stroke="#221D1E" stroke-width="1.61" stroke-miterlimit="10" stroke-linecap="round"/>
<path d="M97.1348 111.425L103.998 106.652" stroke="#221D1E" stroke-width="1.61" stroke-miterlimit="10" stroke-linecap="round"/>
<path d="M104.546 105.344L104.019 105.709C103.679 105.946 103.591 106.417 103.823 106.761L103.863 106.82C104.083 107.144 104.513 107.243 104.851 107.042L105.508 106.652" stroke="#221D1E" stroke-width="1.61" stroke-miterlimit="10" stroke-linecap="round"/>
<path d="M40.9928 87.1035C40.7937 88.1829 40.6083 89.0855 40.0547 90.0482C39.2014 91.5319 35.1152 95.7596 35.1152 103.347" stroke="#4F6FC1" stroke-width="1.38" stroke-linecap="round" stroke-linejoin="round"/>
<path d="M74.5918 85.1348C74.7909 86.2142 74.9762 87.1169 75.5299 88.0795C76.3832 89.5633 80.4693 93.7908 80.4693 101.378" stroke="#4F6FC1" stroke-width="1.725" stroke-linecap="round" stroke-linejoin="round"/>
<defs>
<linearGradient id="paint0_linear_386_11914" x1="98.0963" y1="103.541" x2="100.576" y2="109.89" gradientUnits="userSpaceOnUse">
<stop offset="0.0365419" stop-color="#9DC2FF"/>
<stop offset="0.75864" stop-color="#B5D0FE"/>
</linearGradient>
</defs>
</svg>
