<svg width="138" height="138" viewBox="0 0 138 138" fill="none" xmlns="http://www.w3.org/2000/svg">
<path d="M55.7746 122.164C85.6007 122.164 109.78 97.9855 109.78 68.1593C109.78 38.3331 85.6007 14.1543 55.7746 14.1543C25.9484 14.1543 1.76953 38.3331 1.76953 68.1593C1.76953 97.9855 25.9484 122.164 55.7746 122.164Z" stroke="#4F6FC1" stroke-width="1.15" stroke-miterlimit="10"/>
<g opacity="0.23">
<path d="M55.7001 47.2434C50.227 46.8984 44.9572 49.0654 41.2389 53.1246C39.4413 55.0868 36.6325 57.8685 36.4667 60.6555C36.3543 62.4992 35.83 64.5746 35.4394 66.5908C32.4113 65.9977 29.4313 65.1675 26.371 64.7525C25.3653 64.6177 24.7607 65.2754 24.6109 66.0516C24.092 65.7821 23.5516 65.5504 23.0059 65.3616C22.5458 65.2052 21.984 65.2484 21.5078 65.4587C21.556 64.8118 21.6095 64.1648 21.679 63.518C22.198 58.4345 23.268 52.9629 26.7135 49.0007C30.4371 44.7205 35.9209 42.9954 41.2924 41.9065C46.0593 40.9416 53.1749 39.4321 56.54 43.9496C58.1451 44.5426 57.685 47.3728 55.7001 47.2434Z" fill="#4F6FC1"/>
<path d="M80.0495 68.8978C79.6001 67.0111 78.1181 65.2537 76.0636 64.181C75.55 63.9114 74.9668 63.6796 74.373 63.712C73.624 63.7497 73.0408 64.1918 72.6128 64.6662C71.2485 66.1756 70.9062 68.127 70.628 70.003C70.553 70.5205 70.4727 71.0434 70.5584 71.5609C70.7082 72.4611 71.3127 73.2805 71.912 74.073C72.1099 74.3371 72.3186 74.6067 72.6449 74.7738C72.8536 74.8816 73.0997 74.9409 73.3351 74.9894C74.1483 75.1565 75.0257 75.2481 75.7908 75.0271C76.7002 74.7577 77.2888 74.0946 77.8292 73.4584C78.2786 72.9302 78.7279 72.3965 78.9633 71.7819C79.0864 71.4531 79.1507 71.108 79.1987 70.7684C79.3913 69.4046 79.4127 68.0245 79.2576 66.6445" fill="#4F6FC1"/>
</g>
<path d="M51.7321 85.1009C59.6716 85.439 71.5252 86.3883 78.1807 81.7404C80.9681 79.7975 83.3274 77.3499 85.3016 74.6752C87.4524 71.7684 88.1586 69.3914 87.2652 65.8841C85.8259 60.2118 82.0167 54.5192 76.6291 51.5115C71.1561 48.4583 65.378 47.1159 59.0221 46.7122C58.3694 46.6718 58.3694 47.6307 59.0221 47.671C70.9207 48.433 81.9953 53.1112 85.842 64.6325C86.3984 66.303 86.9013 68.1198 86.6177 69.8658C86.3074 71.7533 85.1144 73.3227 83.9374 74.8418C81.9204 77.4408 79.4861 79.8025 76.6452 81.5941C70.3589 85.5607 59.0023 84.3664 51.7315 84.0585C51.0682 84.0283 51.0794 85.0707 51.7321 85.1009Z" fill="#4F6FC1" stroke="#4F6FC1" stroke-width="0.805"/>
<path d="M66.6643 67.3329C67.2154 68.4596 67.0389 69.7048 66.2951 70.6913C65.8993 71.2142 66.7821 71.7263 67.1726 71.2088C68.141 69.9258 68.2427 68.2439 67.5417 66.8153C67.2529 66.2278 66.3754 66.7453 66.6643 67.3329Z" fill="#4F6FC1" stroke="#4F6FC1" stroke-width="0.805"/>
<path d="M74.0739 62.417C75.4274 67.2957 75.1545 72.3037 72.4527 76.6809C72.105 77.2416 72.9877 77.7591 73.3302 77.1984C76.1657 72.6056 76.4814 67.2795 75.0583 62.1421C74.8763 61.5114 73.8972 61.781 74.0739 62.417Z" fill="#4F6FC1" stroke="#4F6FC1" stroke-width="0.805"/>
<path d="M56.0941 73.7151C58.4963 76.2056 57.33 79.6611 55.5003 82.1085C55.1258 82.6152 55.9657 83.1004 56.3403 82.6044C58.4588 79.7688 59.4861 75.8282 56.7789 73.0251C56.3456 72.5668 55.6554 73.2622 56.0941 73.7151Z" fill="#4F6FC1" stroke="#4F6FC1" stroke-width="0.805"/>
<path d="M51.6919 71.1054C49.2041 73.9409 48.0807 77.8869 50.3652 81.2129C50.7343 81.7521 51.617 81.24 51.2425 80.6954C49.2202 77.7521 50.21 74.3344 52.4088 71.8277C52.8423 71.3371 52.1253 70.6094 51.6919 71.1054Z" fill="#4F6FC1" stroke="#4F6FC1" stroke-width="0.805"/>
<path d="M58.2808 62.6851C61.5443 60.4371 61.2661 56.3617 59.7306 53.1057C59.4631 52.5343 58.6231 53.0357 58.8906 53.6017C60.1747 56.324 60.576 59.9196 57.7886 61.8441C57.275 62.1945 57.7618 63.0408 58.2808 62.6851Z" fill="#4F6FC1" stroke="#4F6FC1" stroke-width="0.805"/>
<path d="M53.1476 62.915C51.505 60.0148 51.1574 56.4676 53.7254 53.9879C54.2016 53.5297 53.4793 52.8074 53.0084 53.2656C50.1087 56.0634 50.3976 60.128 52.2701 63.4325C52.5965 64.0039 53.474 63.4918 53.1476 62.915Z" fill="#4F6FC1" stroke="#4F6FC1" stroke-width="0.805"/>
<path d="M71.238 49.1989C72.0673 46.0884 69.0766 43.3499 66.257 42.6005C63.1112 41.7651 59.2484 42.1693 57.6435 45.3822C57.3492 45.9698 58.2266 46.4873 58.5208 45.8998C59.8316 43.269 62.7956 42.9294 65.369 43.4523C67.6587 43.9159 71.0079 46.0776 70.2536 48.9293C70.0877 49.5654 71.0668 49.8404 71.238 49.1989Z" fill="#4F6FC1" stroke="#4F6FC1" stroke-width="0.805"/>
<path d="M65.7331 47.2088C64.5401 46.8098 63.6146 45.9634 63.0581 44.8314C62.7692 44.2384 61.8917 44.7613 62.1806 45.349C62.8495 46.7182 64.0318 47.7155 65.4603 48.1952C66.0862 48.4055 66.3537 47.4136 65.7331 47.2088Z" fill="#4F6FC1" stroke="#4F6FC1" stroke-width="0.805"/>
<path d="M52.2663 84.0696C43.6152 82.9604 34.1027 77.7991 36.0128 68.0014C36.1358 67.3759 35.1567 67.1025 35.0337 67.7333C32.99 78.2301 42.9197 83.941 52.2663 85.1396C52.9136 85.2184 52.9082 84.1484 52.2663 84.0696Z" fill="#4F6FC1" stroke="#4F6FC1" stroke-width="0.805"/>
<path d="M25.5579 65.15C28.768 65.867 32.0048 66.3468 35.2897 66.5893C35.9424 66.6379 35.9371 65.6137 35.2897 65.5652C32.0958 65.3279 28.95 64.8589 25.8254 64.1581C25.1888 64.0179 24.916 65.0045 25.5579 65.15Z" fill="#4F6FC1" stroke="#4F6FC1" stroke-width="0.805"/>
<path d="M20.8704 63.619C18.8909 57.6677 23.7433 49.9212 27.7345 46.0129C36.3053 37.6249 48.5623 38.3957 59.0057 42.4173C59.6155 42.6544 59.883 41.6625 59.2784 41.4308C48.482 37.2691 35.8505 36.6545 27.023 45.2852C22.7643 49.4468 17.7994 57.5814 19.8967 63.8886C20.1 64.514 21.079 64.2444 20.8704 63.619Z" fill="#4F6FC1" stroke="#4F6FC1" stroke-width="0.805"/>
<path d="M33.0202 53.6184C37.5784 48.6697 43.3672 45.349 49.9157 43.9259C50.5524 43.7857 50.2849 42.7992 49.6428 42.9394C42.9393 44.4002 36.9632 47.8287 32.298 52.8961C31.8538 53.3759 32.5707 54.0982 33.0202 53.6184Z" fill="#4F6FC1" stroke="#4F6FC1" stroke-width="0.805"/>
<path d="M35.8798 63.4289C37.1103 53.2512 47.0561 48.5505 55.6322 45.7311C56.2529 45.5263 55.9854 44.5397 55.3594 44.7446C46.2696 47.7311 36.1526 52.7391 34.8633 63.4289C34.7883 64.0812 35.8049 64.0758 35.8798 63.4289Z" fill="#4F6FC1" stroke="#4F6FC1" stroke-width="0.805"/>
<path d="M68.47 44.0389C70.7652 43.4404 73.0603 42.8421 75.3555 42.2437C77.5544 41.6723 79.7747 41.1117 82.0538 41.0254C86.0932 40.869 90.1003 41.9904 93.6314 43.9364C95.6591 45.0522 97.5208 46.4377 99.2008 48.0334C99.6342 48.443 100.292 47.7853 99.8589 47.3703C96.8467 44.5078 93.2248 42.2814 89.255 41.0631C87.2755 40.4594 85.2103 40.109 83.1399 40.0767C80.8822 40.0389 78.6673 40.4432 76.4791 40.9877C73.7185 41.6723 70.9739 42.4162 68.2239 43.1331C67.6461 43.2895 67.8922 44.1897 68.47 44.0389Z" fill="#4F6FC1" stroke="#4F6FC1" stroke-width="0.805"/>
<path d="M75.1063 51.1808C78.3752 50.34 81.7511 50.1027 85.1056 50.4531C85.6994 50.5178 85.6941 49.5798 85.1056 49.5205C81.6709 49.1594 78.2041 49.4235 74.8602 50.2806C74.2825 50.4262 74.5231 51.3264 75.1063 51.1808Z" fill="#4F6FC1" stroke="#4F6FC1" stroke-width="0.805"/>
<path opacity="0.23" d="M44.1697 84.5684C45.7249 84.3788 42.1733 84.3881 46.079 84.1886C46.3702 83.99 46.5516 82.5812 47.2855 83.8903C47.8741 83.858 46.8358 84.2696 47.4243 84.1886C47.435 83.9623 48.8761 84.1005 48.7852 83.8903C48.4642 83.1626 48.1893 84.7626 47.4243 84.5684C43.3996 82.1613 45.1734 84.3107 43.9161 83.8903C40.4333 82.7151 39.87 82.399 37.8584 79.3047C35.8414 76.2104 34.8945 72.426 35.2101 68.7334C35.2369 68.4477 35.2583 68.1405 35.1085 67.8978C34.8891 67.5421 34.4023 67.4936 33.985 67.4828C30.561 67.4288 27.1048 67.8386 23.7342 67.2294C22.6268 67.0299 21.4177 66.7388 20.4279 67.2834C19.7805 67.6391 19.3632 68.2967 18.9674 68.9275C18.4804 69.7146 18.1434 70.8304 17.8492 71.7091C17.1002 73.9193 16.7631 78.7926 17.7956 78.8411C18.9674 84.5684 19.5335 85.0281 21.2632 84.5684C21.4611 84.5038 27.1897 83.8903 27.4358 83.8903C29.5545 83.928 31.3366 82.2815 33.2627 83.1117C34.108 82.3624 37.0933 81.573 37.8584 82.8237C39.7362 85.8911 40.7165 79.255 41.4387 82.8237C41.6848 84.0205 44.2714 83.0483 44.1697 84.5684Z" fill="#4F6FC1"/>
<path opacity="0.23" d="M72.1145 49.4989C71.9273 49.4019 71.7292 49.3048 71.5955 49.1431C71.3815 48.8898 71.3441 48.534 71.2906 48.2052C71.0498 46.7065 70.2473 45.2995 69.0703 44.3453C69.9851 43.9572 70.9054 43.5907 71.8684 43.3588C73.0186 43.0839 74.201 43.0192 75.3674 42.8467C77.7053 42.5072 79.9577 41.7578 82.2689 41.278C84.5801 40.7982 87.0197 40.588 89.2668 41.3158C90.9682 41.871 92.4607 42.9276 93.9214 43.9734C94.8469 44.6365 95.7725 45.2942 96.698 45.9572C97.1956 46.313 97.7145 46.6903 97.9927 47.2402C98.1586 47.5744 98.2281 47.9517 98.2549 48.3237C98.3566 49.9248 97.6342 51.5635 96.3771 52.5501C95.43 53.2993 94.253 53.6659 93.1028 54.0218C90.9146 54.7009 88.9778 54.1619 86.7577 54.7333C85.2061 55.1322 81.4825 54.6794 80.0379 53.736C76.7155 51.5635 75.715 51.321 72.1145 49.4989Z" fill="#4F6FC1"/>
<path d="M20.2996 64.5611C19.3954 65.4183 18.4591 66.1352 17.6834 67.1433C16.1532 69.1325 15.2812 71.5206 15.0886 74.0273C14.6759 79.3993 15.8548 85.5981 16.8272 85.2738C17.0039 85.8883 17.8599 85.8937 17.6834 85.2738C15.0886 80.4092 15.7092 73.6338 16.8274 70.6689C17.4908 68.9169 18.6037 67.359 19.9893 66.1137C20.3157 65.8172 20.6848 65.5692 21.0058 65.2673C21.4659 64.8307 20.7651 64.1245 20.2996 64.5611Z" fill="#4F6FC1" stroke="#4F6FC1" stroke-width="0.805"/>
<path d="M79.3194 54.8323C85.7715 56.9292 92.5769 57.8025 99.3446 57.4036C99.9385 57.3712 99.9439 56.4333 99.3446 56.471C92.6517 56.8646 85.9481 56.0073 79.5655 53.9319C78.9983 53.7433 78.7577 54.649 79.3194 54.8323Z" fill="#4F6FC1" stroke="#4F6FC1" stroke-width="0.805"/>
<path d="M94.3762 57.4838C95.3713 57.3059 96.2434 56.6159 96.9925 55.9744C98.1587 54.9771 99.186 53.818 100.154 52.6267C101.294 51.2242 101.876 50.3769 102.995 48.1425C103.263 47.6088 102.678 47.0372 102.405 47.5762C101.465 49.432 101.271 49.7661 99.6139 51.8289C98.7045 52.9609 97.7361 54.0661 96.6554 55.0363C95.9438 55.6779 95.0985 56.4056 94.1301 56.5835C93.547 56.6913 93.7931 57.5916 94.3762 57.4838Z" fill="#4F6FC1" stroke="#4F6FC1" stroke-width="0.805"/>
<path d="M106.369 79.5079C108.257 78.3273 110.183 77.2115 112.152 76.1657C112.682 75.8853 112.211 75.0767 111.687 75.357C109.723 76.4028 107.792 77.5188 105.903 78.6992C105.395 79.0173 105.861 79.826 106.369 79.5079Z" fill="#4F6FC1" stroke="#4F6FC1" stroke-width="0.805"/>
<path d="M110.916 103.558C113.671 103.843 116.608 103.698 119.299 103.029C119.878 102.884 119.632 101.984 119.053 102.129C116.437 102.776 113.591 102.9 110.916 102.625C110.322 102.56 110.328 103.493 110.916 103.558Z" fill="#4F6FC1" stroke="#4F6FC1" stroke-width="0.805"/>
<path d="M75.7246 82.3398C81.3255 80.6804 89.7763 80.5602 95.5899 80.5602C98.1586 80.5602 100.738 80.284 103.127 81.2071C105.331 82.0585 107.697 82.6514 109.904 83.5975" stroke="#4F6FC1" stroke-width="1.725" stroke-linecap="round" stroke-linejoin="round"/>
<path d="M12.0848 99.7449C11.1796 90.3908 8.55643 87.5923 11.1077 86.8965C13.4339 86.2621 14.4828 86.6914 16.7857 85.9877C18.6148 85.4289 37.3322 80.9979 47.8763 83.7916" stroke="#4F6FC1" stroke-width="1.725" stroke-linecap="round" stroke-linejoin="round"/>
<path d="M25.1152 106.63C28.2575 105.202 31.9935 105.249 35.3942 105.098C38.5694 104.957 42.1015 105.323 45.2231 104.802C47.5466 104.415 49.7263 103.544 51.9585 102.834C54.8994 101.898 57.4168 102.834 60.4094 102.834C73.8571 102.834 87.4051 102.581 100.794 102.581" stroke="#4F6FC1" stroke-width="1.725" stroke-linecap="round" stroke-linejoin="round"/>
<path d="M32.3379 92.4404C35.3442 89.9161 36.4993 87.9016 40.1165 86.4393C41.3269 85.95 46.7767 83.7701 51.0223 84.6273" stroke="#4F6FC1" stroke-width="1.725" stroke-linecap="round" stroke-linejoin="round"/>
<path d="M66.498 84.9219C71.1198 84.9219 84.1489 88.5784 86.1746 90.4559" stroke="#4F6FC1" stroke-width="1.725" stroke-linecap="round" stroke-linejoin="round"/>
<path d="M112.697 121.983C125.921 121.983 136.641 111.263 136.641 98.0385C136.641 84.8142 125.921 74.0938 112.697 74.0938C99.4724 74.0938 88.752 84.8142 88.752 98.0385C88.752 111.263 99.4724 121.983 112.697 121.983Z" fill="white" stroke="#221D1E" stroke-width="2.3"/>
<path opacity="0.4" fill-rule="evenodd" clip-rule="evenodd" d="M102.678 115.817L112.315 98.1575L102.721 80.162C105.956 78.4159 109.707 77.5214 113.656 77.7609C124.906 78.4435 133.497 88.0717 132.848 99.2663C132.197 110.461 122.549 118.982 111.3 118.3C108.173 118.11 105.252 117.23 102.678 115.817Z" fill="url(#paint0_linear_386_11971)"/>
<path d="M121.692 113.964L119.664 110.374M105.722 85.7014L103.693 82.1113" stroke="#221D1E" stroke-width="1.56149" stroke-linecap="round"/>
<path d="M128.283 107.234L124.77 105.161M100.621 90.9164L97.1074 88.8438" stroke="#221D1E" stroke-width="1.56149" stroke-linecap="round"/>
<path d="M130.695 98.0391H126.637M98.7526 98.0391H94.6953" stroke="#221D1E" stroke-width="1.56149" stroke-linecap="round"/>
<path d="M128.283 88.8438L124.77 90.9164M100.621 105.161L97.1074 107.234" stroke="#221D1E" stroke-width="1.56149" stroke-linecap="round"/>
<path d="M121.692 82.1113L119.664 85.7013M105.722 110.374L103.693 113.964" stroke="#221D1E" stroke-width="1.56149" stroke-linecap="round"/>
<path d="M112.699 79.6484V83.7938M112.699 112.283V116.429" stroke="#221D1E" stroke-width="1.56149" stroke-linecap="round"/>
<path d="M107.592 89.2676L112.421 98.1146L108.354 105.789" stroke="#221D1E" stroke-width="2.3"/>
<defs>
<linearGradient id="paint0_linear_386_11971" x1="88.9455" y1="136.994" x2="65.6428" y2="105.568" gradientUnits="userSpaceOnUse">
<stop offset="0.0365419" stop-color="#9DC2FF"/>
<stop offset="0.75864" stop-color="#B5D0FE"/>
</linearGradient>
</defs>
</svg>
