<svg width="64" height="64" viewBox="0 0 64 64" fill="none" xmlns="http://www.w3.org/2000/svg">
<path d="M63.5993 31.9996C63.5993 49.4518 49.4515 63.5996 31.9995 63.5996C14.5474 63.5996 0.399673 49.4518 0.399673 31.9996C0.399673 14.5475 14.5474 0.399673 31.9995 0.399673C49.4515 0.399673 63.5993 14.5475 63.5993 31.9996Z" fill="#93B7E1" stroke="white" stroke-width="0.799347"/>
<rect x="3.14712" y="3.50137" width="56.9985" height="56.9985" rx="28.4992" stroke="white" stroke-width="0.8"/>
<mask id="path-3-inside-1_11822_885" fill="white">
<path d="M30.5913 18.1415H31.9443L31.5622 18.6976C31.436 18.8812 31.4826 19.1322 31.6662 19.2583C31.849 19.3839 32.1002 19.3387 32.227 19.1543L32.9229 18.1415H34.0234L33.3688 19.0942C33.2426 19.2778 33.2892 19.5289 33.4728 19.655C33.6556 19.7806 33.9068 19.7354 34.0336 19.551L35.002 18.1415H38.354L35.9837 20.5118L34.3024 20.1999C34.0834 20.1594 33.8729 20.3039 33.8323 20.5228C33.7917 20.7418 33.9363 20.9523 34.1552 20.9929L35.2918 21.2037L34.5135 21.9818L33.3054 21.7577C33.0863 21.7171 32.876 21.8616 32.8353 22.0806C32.7947 22.2996 32.9393 22.5101 33.1583 22.5507L33.8216 22.6737L32.8649 23.6304C32.7074 23.788 32.7074 24.0433 32.8649 24.2008C33.0225 24.3583 33.2777 24.3582 33.4352 24.2008L34.3919 23.2441L34.515 23.9075C34.5557 24.1268 34.7666 24.2709 34.9851 24.2304C35.204 24.1898 35.3487 23.9793 35.308 23.7603L35.0839 22.5521L35.862 21.774L36.0728 22.9106C36.1089 23.1047 36.2783 23.2403 36.4688 23.2403C36.4932 23.2403 36.518 23.2381 36.5429 23.2335C36.7618 23.1929 36.9065 22.9825 36.8658 22.7635L36.5539 21.082L38.9242 18.7117V22.0638L37.5148 23.0322C37.3312 23.1583 37.2846 23.4094 37.4107 23.593C37.5368 23.7765 37.788 23.8231 37.9715 23.697L38.9242 23.0424V24.1428L37.9114 24.8387C37.7278 24.9649 37.6812 25.2159 37.8073 25.3995C37.9335 25.583 38.1846 25.6296 38.3681 25.5035L38.9242 25.1215V26.4745C38.9242 26.6973 39.1047 26.8778 39.3275 26.8778C39.5502 26.8778 39.7308 26.6973 39.7308 26.4745V25.1214L40.2869 25.5035C40.4697 25.629 40.7209 25.5839 40.8476 25.3994C40.9738 25.2159 40.9272 24.9648 40.7436 24.8387L39.7308 24.1429V23.0424L40.6835 23.6971C40.8664 23.8226 41.1176 23.7774 41.2443 23.593C41.3704 23.4094 41.3238 23.1584 41.1403 23.0323L39.7308 22.0639V18.7118L42.1011 21.0821L41.7892 22.7636C41.7486 22.9826 41.8932 23.193 42.1121 23.2336C42.3307 23.2742 42.5415 23.1301 42.5822 22.9107L42.793 21.7741L43.5711 22.5522L43.347 23.7605C43.3011 24.0077 43.4907 24.2373 43.744 24.2373C43.9345 24.2373 44.104 24.1017 44.14 23.9076L44.2631 23.2442L45.2198 24.2009C45.3774 24.3584 45.6326 24.3583 45.7901 24.2009C45.9476 24.0433 45.9476 23.788 45.7901 23.6305L44.8335 22.6738L45.4969 22.5507C45.7158 22.5102 45.8605 22.2997 45.8198 22.0807C45.7792 21.8617 45.5686 21.7169 45.3498 21.7578L44.1416 21.9819L43.3635 21.2037L44.5 20.9929C44.7189 20.9523 44.8636 20.7419 44.8229 20.5229C44.7823 20.3039 44.5719 20.1593 44.3529 20.2L42.6715 20.5118L40.3012 18.1415H43.6533L44.6217 19.551C44.7482 19.7352 44.9993 19.7808 45.1824 19.6551C45.366 19.5289 45.4126 19.2779 45.2865 19.0943L44.6319 18.1415H45.7323L46.4283 19.1544C46.555 19.3388 46.8064 19.384 46.989 19.2584C47.1726 19.1323 47.2192 18.8812 47.0931 18.6976L46.711 18.1415H48.064C48.2867 18.1415 48.4672 17.961 48.4672 17.7382C48.4672 17.5155 48.2867 17.335 48.064 17.335H46.711L47.0931 16.7789C47.2192 16.5953 47.1726 16.3443 46.989 16.2181C46.8054 16.0919 46.5544 16.1386 46.4283 16.3222L45.7323 17.335H44.6319L45.2865 16.3822C45.4126 16.1987 45.366 15.9476 45.1824 15.8215C44.9988 15.6953 44.7478 15.7419 44.6217 15.9255L43.6533 17.335H40.3012L42.6715 14.9647L44.3529 15.2766C44.5714 15.3172 44.7823 15.173 44.8229 14.9536C44.8636 14.7346 44.7189 14.5242 44.5 14.4836L43.3635 14.2728L44.1416 13.4947L45.3497 13.7187C45.5682 13.7593 45.779 13.6151 45.8198 13.3957C45.8604 13.1767 45.7158 12.9663 45.4968 12.9257L44.8335 12.8026L45.7902 11.8459C45.9477 11.6883 45.9477 11.433 45.7902 11.2755C45.6327 11.1182 45.3774 11.118 45.2199 11.2755L44.2632 12.2323L44.1401 11.5689C44.0995 11.3498 43.8891 11.205 43.6701 11.2459C43.4511 11.2865 43.3065 11.497 43.3471 11.716L43.5712 12.9242L42.7931 13.7023L42.5822 12.5657C42.5415 12.3467 42.3306 12.2019 42.1121 12.2428C41.8932 12.2834 41.7486 12.4938 41.7892 12.7128L42.1011 14.3943L39.7308 16.7646V13.4125L41.1403 12.4441C41.3238 12.318 41.3704 12.0669 41.2443 11.8833C41.1182 11.6998 40.8671 11.6532 40.6835 11.7793L39.7308 12.4339V11.3336L40.7437 10.6376C40.9272 10.5115 40.9738 10.2604 40.8477 10.0769C40.7216 9.89329 40.4704 9.84673 40.2869 9.97282L39.7308 10.355V9.0019C39.7308 8.77914 39.5503 8.59863 39.3275 8.59863C39.1048 8.59863 38.9243 8.77914 38.9243 9.0019V10.355L38.3681 9.97287C38.1845 9.84673 37.9335 9.89334 37.8074 10.0769C37.6812 10.2605 37.7278 10.5115 37.9114 10.6377L38.9243 11.3336V12.434L37.9715 11.7794C37.788 11.6532 37.5369 11.6998 37.4108 11.8834C37.2846 12.067 37.3312 12.318 37.5148 12.4442L38.9243 13.4125V16.7646L36.554 14.3943L36.8659 12.7128C36.9065 12.4938 36.7619 12.2834 36.5429 12.2428C36.3238 12.2021 36.1135 12.3467 36.0729 12.5657L35.862 13.7023L35.084 12.9242L35.3081 11.716C35.3487 11.497 35.2041 11.2865 34.9851 11.2459C34.7661 11.2054 34.5557 11.3499 34.5151 11.5689L34.392 12.2323L33.4353 11.2755C33.2778 11.1182 33.0225 11.118 32.8649 11.2755C32.7075 11.4331 32.7075 11.6884 32.8649 11.8459L33.8216 12.8026L33.1582 12.9256C32.9393 12.9662 32.7946 13.1767 32.8353 13.3957C32.8713 13.5898 33.0407 13.7254 33.2313 13.7254C33.2979 13.7254 33.2229 13.7315 34.5135 13.4945L35.2916 14.2726L34.1551 14.4834C33.9361 14.524 33.7915 14.7345 33.8321 14.9535C33.8682 15.1476 34.0376 15.2832 34.2282 15.2832C34.2978 15.2832 34.2318 15.2871 35.9836 14.9645L38.3538 17.3348H35.0018L34.0334 15.9253C33.9073 15.7418 33.6563 15.6952 33.4726 15.8213C33.2891 15.9474 33.2425 16.1985 33.3686 16.3821L34.0232 17.3348H32.9227L32.2268 16.322C32.1007 16.1384 31.8495 16.0918 31.6661 16.218C31.4825 16.3441 31.4359 16.5952 31.562 16.7787L31.9441 17.3348H30.5913C30.3685 17.3348 30.188 17.5153 30.188 17.7381C30.188 17.9608 30.3685 18.1415 30.5913 18.1415Z"/>
</mask>
<path d="M30.5913 18.1415H31.9443L31.5622 18.6976C31.436 18.8812 31.4826 19.1322 31.6662 19.2583C31.849 19.3839 32.1002 19.3387 32.227 19.1543L32.9229 18.1415H34.0234L33.3688 19.0942C33.2426 19.2778 33.2892 19.5289 33.4728 19.655C33.6556 19.7806 33.9068 19.7354 34.0336 19.551L35.002 18.1415H38.354L35.9837 20.5118L34.3024 20.1999C34.0834 20.1594 33.8729 20.3039 33.8323 20.5228C33.7917 20.7418 33.9363 20.9523 34.1552 20.9929L35.2918 21.2037L34.5135 21.9818L33.3054 21.7577C33.0863 21.7171 32.876 21.8616 32.8353 22.0806C32.7947 22.2996 32.9393 22.5101 33.1583 22.5507L33.8216 22.6737L32.8649 23.6304C32.7074 23.788 32.7074 24.0433 32.8649 24.2008C33.0225 24.3583 33.2777 24.3582 33.4352 24.2008L34.3919 23.2441L34.515 23.9075C34.5557 24.1268 34.7666 24.2709 34.9851 24.2304C35.204 24.1898 35.3487 23.9793 35.308 23.7603L35.0839 22.5521L35.862 21.774L36.0728 22.9106C36.1089 23.1047 36.2783 23.2403 36.4688 23.2403C36.4932 23.2403 36.518 23.2381 36.5429 23.2335C36.7618 23.1929 36.9065 22.9825 36.8658 22.7635L36.5539 21.082L38.9242 18.7117V22.0638L37.5148 23.0322C37.3312 23.1583 37.2846 23.4094 37.4107 23.593C37.5368 23.7765 37.788 23.8231 37.9715 23.697L38.9242 23.0424V24.1428L37.9114 24.8387C37.7278 24.9649 37.6812 25.2159 37.8073 25.3995C37.9335 25.583 38.1846 25.6296 38.3681 25.5035L38.9242 25.1215V26.4745C38.9242 26.6973 39.1047 26.8778 39.3275 26.8778C39.5502 26.8778 39.7308 26.6973 39.7308 26.4745V25.1214L40.2869 25.5035C40.4697 25.629 40.7209 25.5839 40.8476 25.3994C40.9738 25.2159 40.9272 24.9648 40.7436 24.8387L39.7308 24.1429V23.0424L40.6835 23.6971C40.8664 23.8226 41.1176 23.7774 41.2443 23.593C41.3704 23.4094 41.3238 23.1584 41.1403 23.0323L39.7308 22.0639V18.7118L42.1011 21.0821L41.7892 22.7636C41.7486 22.9826 41.8932 23.193 42.1121 23.2336C42.3307 23.2742 42.5415 23.1301 42.5822 22.9107L42.793 21.7741L43.5711 22.5522L43.347 23.7605C43.3011 24.0077 43.4907 24.2373 43.744 24.2373C43.9345 24.2373 44.104 24.1017 44.14 23.9076L44.2631 23.2442L45.2198 24.2009C45.3774 24.3584 45.6326 24.3583 45.7901 24.2009C45.9476 24.0433 45.9476 23.788 45.7901 23.6305L44.8335 22.6738L45.4969 22.5507C45.7158 22.5102 45.8605 22.2997 45.8198 22.0807C45.7792 21.8617 45.5686 21.7169 45.3498 21.7578L44.1416 21.9819L43.3635 21.2037L44.5 20.9929C44.7189 20.9523 44.8636 20.7419 44.8229 20.5229C44.7823 20.3039 44.5719 20.1593 44.3529 20.2L42.6715 20.5118L40.3012 18.1415H43.6533L44.6217 19.551C44.7482 19.7352 44.9993 19.7808 45.1824 19.6551C45.366 19.5289 45.4126 19.2779 45.2865 19.0943L44.6319 18.1415H45.7323L46.4283 19.1544C46.555 19.3388 46.8064 19.384 46.989 19.2584C47.1726 19.1323 47.2192 18.8812 47.0931 18.6976L46.711 18.1415H48.064C48.2867 18.1415 48.4672 17.961 48.4672 17.7382C48.4672 17.5155 48.2867 17.335 48.064 17.335H46.711L47.0931 16.7789C47.2192 16.5953 47.1726 16.3443 46.989 16.2181C46.8054 16.0919 46.5544 16.1386 46.4283 16.3222L45.7323 17.335H44.6319L45.2865 16.3822C45.4126 16.1987 45.366 15.9476 45.1824 15.8215C44.9988 15.6953 44.7478 15.7419 44.6217 15.9255L43.6533 17.335H40.3012L42.6715 14.9647L44.3529 15.2766C44.5714 15.3172 44.7823 15.173 44.8229 14.9536C44.8636 14.7346 44.7189 14.5242 44.5 14.4836L43.3635 14.2728L44.1416 13.4947L45.3497 13.7187C45.5682 13.7593 45.779 13.6151 45.8198 13.3957C45.8604 13.1767 45.7158 12.9663 45.4968 12.9257L44.8335 12.8026L45.7902 11.8459C45.9477 11.6883 45.9477 11.433 45.7902 11.2755C45.6327 11.1182 45.3774 11.118 45.2199 11.2755L44.2632 12.2323L44.1401 11.5689C44.0995 11.3498 43.8891 11.205 43.6701 11.2459C43.4511 11.2865 43.3065 11.497 43.3471 11.716L43.5712 12.9242L42.7931 13.7023L42.5822 12.5657C42.5415 12.3467 42.3306 12.2019 42.1121 12.2428C41.8932 12.2834 41.7486 12.4938 41.7892 12.7128L42.1011 14.3943L39.7308 16.7646V13.4125L41.1403 12.4441C41.3238 12.318 41.3704 12.0669 41.2443 11.8833C41.1182 11.6998 40.8671 11.6532 40.6835 11.7793L39.7308 12.4339V11.3336L40.7437 10.6376C40.9272 10.5115 40.9738 10.2604 40.8477 10.0769C40.7216 9.89329 40.4704 9.84673 40.2869 9.97282L39.7308 10.355V9.0019C39.7308 8.77914 39.5503 8.59863 39.3275 8.59863C39.1048 8.59863 38.9243 8.77914 38.9243 9.0019V10.355L38.3681 9.97287C38.1845 9.84673 37.9335 9.89334 37.8074 10.0769C37.6812 10.2605 37.7278 10.5115 37.9114 10.6377L38.9243 11.3336V12.434L37.9715 11.7794C37.788 11.6532 37.5369 11.6998 37.4108 11.8834C37.2846 12.067 37.3312 12.318 37.5148 12.4442L38.9243 13.4125V16.7646L36.554 14.3943L36.8659 12.7128C36.9065 12.4938 36.7619 12.2834 36.5429 12.2428C36.3238 12.2021 36.1135 12.3467 36.0729 12.5657L35.862 13.7023L35.084 12.9242L35.3081 11.716C35.3487 11.497 35.2041 11.2865 34.9851 11.2459C34.7661 11.2054 34.5557 11.3499 34.5151 11.5689L34.392 12.2323L33.4353 11.2755C33.2778 11.1182 33.0225 11.118 32.8649 11.2755C32.7075 11.4331 32.7075 11.6884 32.8649 11.8459L33.8216 12.8026L33.1582 12.9256C32.9393 12.9662 32.7946 13.1767 32.8353 13.3957C32.8713 13.5898 33.0407 13.7254 33.2313 13.7254C33.2979 13.7254 33.2229 13.7315 34.5135 13.4945L35.2916 14.2726L34.1551 14.4834C33.9361 14.524 33.7915 14.7345 33.8321 14.9535C33.8682 15.1476 34.0376 15.2832 34.2282 15.2832C34.2978 15.2832 34.2318 15.2871 35.9836 14.9645L38.3538 17.3348H35.0018L34.0334 15.9253C33.9073 15.7418 33.6563 15.6952 33.4726 15.8213C33.2891 15.9474 33.2425 16.1985 33.3686 16.3821L34.0232 17.3348H32.9227L32.2268 16.322C32.1007 16.1384 31.8495 16.0918 31.6661 16.218C31.4825 16.3441 31.4359 16.5952 31.562 16.7787L31.9441 17.3348H30.5913C30.3685 17.3348 30.188 17.5153 30.188 17.7381C30.188 17.9608 30.3685 18.1415 30.5913 18.1415Z" fill="white" stroke="#93B7E1" stroke-width="0.236825" mask="url(#path-3-inside-1_11822_885)"/>
<path fill-rule="evenodd" clip-rule="evenodd" d="M38.904 28.6282C38.9039 28.6209 38.9036 28.6136 38.9033 28.6063C38.9035 28.6113 38.9037 28.6164 38.9039 28.6214L38.904 28.6282ZM38.5752 38.18C39.4347 39.0103 40.1148 39.9945 40.5881 41.0692L41.1078 42.6082C41.274 43.2978 41.3607 44.0091 41.3607 44.7288C41.3607 47.225 40.3686 49.553 38.5638 51.2892C36.8483 52.9397 34.6232 53.8348 32.2593 53.8349C32.1383 53.8349 32.017 53.8325 31.8953 53.8278C27.1449 53.6438 23.3039 49.775 23.1534 45.0224C23.0717 42.4423 24.0813 39.9683 25.9341 38.18L26.0788 38.0404V20.5499C26.0788 17.1449 28.8497 14.374 32.2547 14.374C35.2572 14.374 37.767 16.5298 38.3171 19.3756L38.3493 19.5418L38.3508 19.5598C38.3632 19.7074 38.3761 19.9225 38.3918 20.1865L38.3919 20.1879L38.3919 20.1882L38.392 20.1901C38.4032 20.3793 38.4158 20.5907 38.4305 20.8122V22.3381C38.4304 22.3414 38.4302 22.3448 38.43 22.3481L38.4292 22.3619V28.6097L38.43 28.6234C38.4302 28.6267 38.4304 28.6301 38.4305 28.6334L38.4306 38.0404L38.5752 38.18ZM37.8002 28.6177L37.8016 28.5996V22.3719L37.8002 22.3538C37.7996 22.3457 37.7992 22.3374 37.7992 22.3289V20.5499C37.7992 17.4922 35.3124 15.0054 32.2547 15.0054C29.197 15.0054 26.7101 17.4922 26.7101 20.5499V38.1828C26.7101 38.2726 26.672 38.358 26.6051 38.4179C24.7337 40.0951 23.705 42.4955 23.7845 45.0024C23.9244 49.4273 27.4966 53.0256 31.9196 53.1968C34.2442 53.287 36.4498 52.4468 38.1261 50.8341C39.8036 49.2203 40.7293 47.0501 40.7293 44.7287C40.7293 42.3263 39.6992 40.0266 37.9042 38.4179C37.8374 38.3581 37.7992 38.2726 37.7992 38.1829V28.6426C37.7992 28.6341 37.7996 28.6258 37.8002 28.6177ZM34.5236 20.5497V40.0423L34.7682 40.1774C36.4143 41.0865 37.4538 42.8245 37.4538 44.7286C37.4538 47.5951 35.121 49.9278 32.2546 49.9278C29.3881 49.9278 27.0554 47.5951 27.0554 44.7286C27.0554 42.8245 28.0949 41.0865 29.7409 40.1774L29.9855 40.0423V20.5497C29.9855 19.2989 31.0038 18.2806 32.2546 18.2806C33.5054 18.2806 34.5236 19.2989 34.5236 20.5497ZM30.6169 30.0535H33.8923V20.5497C33.8923 19.6462 33.1581 18.912 32.2546 18.912C31.3511 18.912 30.6169 19.6462 30.6169 20.5497V30.0535ZM36.8224 44.7286C36.8224 42.9128 35.7463 41.2695 34.0815 40.5419C33.9666 40.4916 33.8923 40.378 33.8923 40.2526V30.6849H30.6169V40.2526C30.6169 40.3781 30.5426 40.4916 30.4276 40.5419C28.7628 41.2695 27.6868 42.9128 27.6868 44.7286C27.6868 47.2478 29.7355 49.2964 32.2546 49.2964C34.7736 49.2964 36.8224 47.2478 36.8224 44.7286ZM23.2376 25.8013H19.3308C19.1565 25.8013 19.0151 25.6599 19.0151 25.4856C19.0151 25.3112 19.1565 25.1699 19.3308 25.1699H23.2376C23.4119 25.1699 23.5533 25.3112 23.5533 25.4856C23.5533 25.6599 23.4119 25.8013 23.2376 25.8013ZM23.2375 20.9182H21.2841C21.1097 20.9182 20.9684 20.7768 20.9684 20.6025C20.9684 20.4281 21.1098 20.2868 21.2841 20.2868H23.2375C23.4118 20.2868 23.5532 20.4281 23.5532 20.6025C23.5532 20.7768 23.4118 20.9182 23.2375 20.9182ZM23.2376 34.937C23.4119 34.937 23.5533 35.0784 23.5533 35.2527C23.5533 35.427 23.4119 35.5684 23.2376 35.5684H19.3308C19.1565 35.5684 19.0151 35.427 19.0151 35.2527C19.0151 35.0784 19.1565 34.937 19.3308 34.937H23.2376ZM21.2841 30.0535H23.2375C23.4118 30.0535 23.5532 30.1948 23.5532 30.3691C23.5532 30.5435 23.4118 30.6848 23.2375 30.6848H21.2841C21.1098 30.6848 20.9684 30.5435 20.9684 30.3691C20.9684 30.1948 21.1098 30.0535 21.2841 30.0535Z" fill="white"/>
<path fill-rule="evenodd" clip-rule="evenodd" d="M37.8016 28.5996L37.8002 28.6177C37.7996 28.6258 37.7992 28.6341 37.7992 28.6426V38.1829C37.7992 38.2726 37.8374 38.3581 37.9042 38.4179C39.6992 40.0266 40.7293 42.3263 40.7293 44.7287C40.7293 47.0501 39.8036 49.2203 38.1261 50.8341C36.4498 52.4468 34.2442 53.287 31.9196 53.1968C27.4966 53.0256 23.9244 49.4273 23.7845 45.0024C23.705 42.4955 24.7337 40.0951 26.6051 38.4179C26.672 38.358 26.7101 38.2726 26.7101 38.1828V20.5499C26.7101 17.4922 29.197 15.0054 32.2547 15.0054C35.3124 15.0054 37.7992 17.4922 37.7992 20.5499V22.3289C37.7992 22.3374 37.7996 22.3457 37.8002 22.3538L37.8016 22.3719V28.5996ZM34.5236 20.5497V40.0423L34.7682 40.1774C36.4143 41.0865 37.4538 42.8245 37.4538 44.7286C37.4538 47.5951 35.121 49.9278 32.2546 49.9278C29.3881 49.9278 27.0554 47.5951 27.0554 44.7286C27.0554 42.8245 28.0949 41.0865 29.7409 40.1774L29.9855 40.0423V20.5497C29.9855 19.2989 31.0038 18.2806 32.2546 18.2806C33.5054 18.2806 34.5236 19.2989 34.5236 20.5497Z" fill="#93B7E1"/>
<path d="M34.0815 40.5419C35.7463 41.2695 36.8224 42.9128 36.8224 44.7286C36.8224 47.2478 34.7736 49.2964 32.2546 49.2964C29.7355 49.2964 27.6868 47.2478 27.6868 44.7286C27.6868 42.9128 28.7628 41.2695 30.4276 40.5419C30.5426 40.4916 30.6169 40.3781 30.6169 40.2526V30.6849H33.8923V40.2526C33.8923 40.378 33.9666 40.4916 34.0815 40.5419Z" fill="#93B7E1"/>
<path d="M33.8923 30.0535H30.6169V20.5497C30.6169 19.6462 31.3511 18.912 32.2546 18.912C33.1581 18.912 33.8923 19.6462 33.8923 20.5497V30.0535Z" fill="#93B7E1"/>
</svg>
