<svg id="Слой_1" data-name="Слой 1" xmlns="http://www.w3.org/2000/svg" viewBox="0 0 100 43"><defs><style>.cls-1{fill:#3c3c3b;}</style></defs><title>1</title><g id="lM8FOj"><path class="cls-1" d="M86.07,21.3v9.52c0,.23,0,.25.28.25.45,0,.91,0,1.36,0,.05,0,.09,0,.14.06l-.13.06H73.91c0-.12,0-.12.11-.12h2.17L76,30.42q-.75-2.4-1.48-4.78c0-.16-.12-.2-.29-.2H69c-.15,0-.22,0-.26.17-.48,1.7-1,3.4-1.47,5.1-.11.36-.11.36.32.36h1.71c.08,0,.17,0,.12.12H58.63s-.05,0-.08-.06a.47.47,0,0,1,.09-.06.48.48,0,0,1,.12,0h2.09c-.05-.16-.09-.31-.13-.46l-1.56-5a.16.16,0,0,0-.19-.14H53.56c-.11,0-.16,0-.18.13l-1.5,5.17c-.09.33-.09.33.29.33h1.75a.35.35,0,0,1,.14.06.35.35,0,0,1-.14.06H49.53a.35.35,0,0,1-.14-.06.47.47,0,0,1,.15-.06c.6,0,1.19,0,1.79,0,.25,0,.29,0,.36-.25.16-.5.31-1,.46-1.52.77-2.67,1.55-5.35,2.33-8L57,12.63c.13-.42.25-.85.38-1.28l0-.14c0,.12.08.21.11.29l4.83,14.84,1.5,4.59c0,.11.09.14.21.14.86,0,1.71,0,2.56,0,.29,0,.33,0,.4-.27.18-.58.35-1.17.52-1.76.7-2.39,1.39-4.78,2.09-7.17l3.06-10.49a.27.27,0,0,1,.08-.13c0,.13.09.27.14.4l4.95,15.18c.44,1.37.89,2.73,1.33,4.1,0,.11.09.14.21.14h3.67c.25,0,.26,0,.26-.24V12.15c0-.23,0-.24-.27-.24H81.33a.08.08,0,0,1,0-.07.07.07,0,0,1,0,0h7.12a12.05,12.05,0,0,1,3.17.36,3.91,3.91,0,0,1,2.43,1.68,4.16,4.16,0,0,1,.55,1.69,5.87,5.87,0,0,1-.1,2.36A4.43,4.43,0,0,1,91.16,21c-.39.11-.8.16-1.2.24l-.1,0c.6.11,1.21.2,1.82.34a4.51,4.51,0,0,1,1.94.87A2.23,2.23,0,0,1,94.46,24a5.49,5.49,0,0,1,0,.58c0,1.52,0,3,0,4.56a10.43,10.43,0,0,0,.15,1.58c.1.54.49.78,1.18.66a.87.87,0,0,0,.59-.46,2.59,2.59,0,0,0,.34-1.2c0-.82,0-1.65.07-2.47,0-.12,0-.12.13-.12v.48c0,.7,0,1.4,0,2.1a3.53,3.53,0,0,1-.23,1,1.58,1.58,0,0,1-1.42,1A3.61,3.61,0,0,1,93,31.28a2.48,2.48,0,0,1-1.2-1.76,4.54,4.54,0,0,1-.07-.82c0-1.48,0-3,0-4.46a2.55,2.55,0,0,0-.5-1.56,3.28,3.28,0,0,0-2.09-1.23,8.2,8.2,0,0,0-1.31-.14c-.52,0-1,0-1.57,0Zm0-.13h2.14a3.92,3.92,0,0,0,1.59-.35,3.14,3.14,0,0,0,1.6-1.77,6.69,6.69,0,0,0,.4-2.38A7,7,0,0,0,91.4,14a3,3,0,0,0-2.76-2c-.76-.07-1.54,0-2.3-.05a.24.24,0,0,0-.27.26v9ZM53.46,25.31h5.61L56.19,16h0C55.26,19.13,54.36,22.21,53.46,25.31ZM71.53,16h0l-2.7,9.27h5.61Q73,20.66,71.53,16Z"/><path class="cls-1" d="M12.05,21.06a9.39,9.39,0,0,1,2.41.57,4.67,4.67,0,0,1,3.28,4.2,5,5,0,0,1-.46,2.61,4.59,4.59,0,0,1-3,2.3,11,11,0,0,1-3.23.45H4a.12.12,0,0,1-.07-.07s0,0,.06-.05a.48.48,0,0,1,.12,0h1.6c.25,0,.27,0,.27-.24V12.14c0-.21,0-.23-.26-.23H3.93a.06.06,0,0,1,0-.11h6.52a10.92,10.92,0,0,1,3.42.48,4.08,4.08,0,0,1,3.05,3.53,4.6,4.6,0,0,1-.23,2.32,4.32,4.32,0,0,1-3,2.58C13.14,20.85,12.57,20.94,12.05,21.06Zm-3.41.05v9.72c0,.21,0,.24.26.24h1.92a3.67,3.67,0,0,0,1.63-.37,3.62,3.62,0,0,0,1.78-2,7,7,0,0,0,.43-2.83,6.65,6.65,0,0,0-.46-2.32,3.76,3.76,0,0,0-2.86-2.28A14.21,14.21,0,0,0,8.64,21.11Zm0-9.18V21c.54,0,1.08,0,1.61,0a3.65,3.65,0,0,0,3.56-2.39,6,6,0,0,0,.34-2.36,5.66,5.66,0,0,0-.5-2.24,3.48,3.48,0,0,0-3-2c-.65-.06-1.3,0-1.95-.05Z"/><path class="cls-1" d="M48.27,21.67l.08.09s0,0,0,.07v9.35H36.15a.59.59,0,0,1,.06-.14l6.33-13.13,2.79-5.78c.09-.2.08-.22-.17-.22H39.93a1.86,1.86,0,0,0-1.2.44,4.51,4.51,0,0,0-1.27,1.72,10.76,10.76,0,0,0-.83,2.86,23.33,23.33,0,0,0-.28,4.17.32.32,0,0,1,0,.14s-.05.05-.07.05a.1.1,0,0,1-.07-.06.34.34,0,0,1,0-.1V11.79H48.63l-.08.16q-2.61,5.43-5.24,10.87c-1.3,2.68-2.6,5.37-3.89,8.05-.08.17-.06.2.14.2h5.08A2,2,0,0,0,46,30.5a4.79,4.79,0,0,0,1.27-1.9,11.66,11.66,0,0,0,.74-3,26.39,26.39,0,0,0,.2-3.77V21.7Z"/><path class="cls-1" d="M26.07,11.25l.15.43,4.36,13.39c.64,1.94,1.27,3.89,1.9,5.83,0,.13.1.17.25.17.7,0,1.39,0,2.09,0a.35.35,0,0,1,.13.05s-.09.07-.13.07H27.19c-.07-.12,0-.11.11-.11h2.16a.49.49,0,0,0,0-.14q-.83-2.67-1.64-5.34c0-.12-.1-.15-.23-.15H22.22c-.14,0-.2,0-.23.16-.5,1.74-1,3.47-1.51,5.21-.07.24-.05.26.23.26h1.84c.08,0,.17,0,.12.11H18c0-.11,0-.11.11-.11h1.79c.28,0,.32,0,.39-.27.21-.68.41-1.37.61-2.06l4-13.58c.37-1.26.73-2.53,1.1-3.79a.61.61,0,0,1,.05-.12Zm-4,14.06h5.61L24.81,16h0Z"/><path class="cls-1" d="M59.89,11.84l-.31,0v0h1v0l-.26,0v.86h1v-.86l-.28,0v0h1v0l-.3,0v1.87l.3,0v0h-1v0l.28,0v-.94h-1v.94l.26,0v0h-1v0h.31Z"/><path class="cls-1" d="M65.28,14.57V12.63l-.18,0a.72.72,0,0,1,.54,0,.66.66,0,0,1,.84.17.57.57,0,0,1,0,.76.68.68,0,0,1-.83.13v.88h.19v0H65.1v0Zm.34-1.41c0,.1,0,.21,0,.31s.07.23.22.26a.31.31,0,0,0,.35-.11,1,1,0,0,0,0-.91.34.34,0,0,0-.36-.1c-.13,0-.22.11-.2.25S65.62,13.06,65.62,13.16Z"/><path class="cls-1" d="M63.63,13.65a.35.35,0,0,1-.55,0,.66.66,0,0,1-.62.1.29.29,0,0,1-.25-.23.28.28,0,0,1,.18-.31,3.41,3.41,0,0,1,.46-.1c.11,0,.23,0,.22-.17s-.07-.32-.22-.35-.19,0-.19.15,0,.14-.07.15-.17,0-.18,0a.19.19,0,0,1,0-.19.64.64,0,0,1,.6-.09.38.38,0,0,1,.33.33c0,.21,0,.43,0,.64S63.43,13.74,63.63,13.65Zm-.56-.52-.24,0c-.23,0-.31.12-.3.33a.22.22,0,0,0,.24.24.26.26,0,0,0,.29-.23C63.07,13.38,63.07,13.26,63.07,13.13Z"/><path class="cls-1" d="M68.14,13.12h-1a2.92,2.92,0,0,0,.06.44.31.31,0,0,0,.4.18,2.24,2.24,0,0,0,.44-.19.67.67,0,0,1-.77.2.6.6,0,0,1-.44-.74.71.71,0,0,1,.8-.45A.53.53,0,0,1,68.14,13.12Zm-.94-.06h.61c0-.28,0-.45-.25-.46S67.21,12.73,67.2,13.06Z"/><path class="cls-1" d="M64.31,13.71l.19,0v0h-.71v0l.18,0V12.63l-.2,0c.34-.06.51,0,.56.09a.39.39,0,0,1,.43-.12c.11,0,.18.12.14.22a.24.24,0,0,1-.19.1c-.09,0-.15,0-.13-.14a.25.25,0,0,0,0-.12s-.12,0-.15,0a.38.38,0,0,0-.11.18C64.3,13.13,64.31,13.42,64.31,13.71Z"/><path class="cls-1" d="M69.92,13.72V13.4h0a.59.59,0,0,1,0,.08.49.49,0,0,0,.56.25c.08,0,.18-.11.19-.18a.26.26,0,0,0-.12-.21,1.15,1.15,0,0,0-.34-.13C70,13.13,70,13,70,12.86a.41.41,0,0,1,.44-.3l.39,0v.25a.4.4,0,0,0-.38-.23.39.39,0,0,0-.24.12c0,.1,0,.19.12.24l.22.07a1.57,1.57,0,0,1,.23.09.31.31,0,0,1,.22.29.33.33,0,0,1-.23.32.77.77,0,0,1-.54,0A2.16,2.16,0,0,0,69.92,13.72Z"/><path class="cls-1" d="M68.93,12.67c0,.18-.06.36-.07.54s0,.33,0,.5l.19,0v0h-.71v0l.18,0V12.63l-.17,0v0h.47s.07.06.11.1Z"/><path class="cls-1" d="M68.93,12.68a.22.22,0,0,1,.27-.12.51.51,0,0,1,.24.13s0,.14,0,.16a.26.26,0,0,1-.21,0s0-.09,0-.14a.29.29,0,0,1,0-.09l-.2,0Z"/><path class="cls-1" d="M69.71,12.57l.29-.2,0,0h-.08c-.11,0-.18-.08-.15-.18a.25.25,0,0,1,.18-.11.15.15,0,0,1,.16.17.54.54,0,0,1-.33.39Z"/></g></svg>