<svg width="64" height="53" viewBox="0 0 64 53" fill="none" xmlns="http://www.w3.org/2000/svg">
<g clip-path="url(#clip0)">
<path d="M63.9 37.1C63.8 36.7 63.5 36.5 63.1 36.5C63.1 36.5 59.6 36.5 57.2 34.3L60.2 32.8C60.6 32.6 60.7 32.2 60.6 31.8C60.5 31.4 60.1 31.2 59.8 31.2C59.1 31.2 54.9 30.3 49.2 26.8C48.9 26.1 48.5 25.3 48.1 24.6C47.7 23.8 47.3 23 47 22.3C45.8 19.8 45.3 17.7 45.2 17.6C45 17.2 44.7 17 44.4 17C44 17 43.7 17.2 43.6 17.6C43.6 17.6 43 19.7 41.7 21.9C41.7 22 41.6 22 41.6 22.1C37.5 19.7 34.6 18.4 31.9 17.8C31.5 16.8 30.9 15.7 30.3 14.5C29.9 13.7 29.5 12.9 29.2 12.2C28 9.7 27.5 7.6 27.4 7.5C27.3 7.2 27 7 26.6 7C26.2 7 25.9 7.2 25.8 7.6C25.8 7.6 25.2 9.7 23.9 11.9C23.4 12.7 22.9 13.6 22.3 14.4C20.9 16.6 19.6 18.5 19.6 19.9C11.6 22.7 0.999995 27.3 0.399995 27.6C-4.85778e-06 27.8 -0.200005 28.2 -0.100005 28.6C-4.88758e-06 28.9 0.299995 29.2 0.699995 29.2C0.799995 29.2 12.6 29.8 19.1 39.8C24.6 48.2 29.1 52.2 32.9 52.2C33 52.2 33 52.2 33.1 52.2C33.2 52.2 33.3 52.2 33.4 52.1L63.3 38.1C63.8 37.9 63.9 37.5 63.9 37.1ZM43.1 22.7C43.6 21.8 44 21 44.3 20.2C44.6 21 45 21.9 45.4 22.9C45.7 23.6 46.1 24.3 46.4 25C46.4 25.1 46.5 25.2 46.5 25.2C46.9 26.1 47.4 27 47.8 27.8C48.2 28.7 48.4 29.4 48.4 29.9C48.4 32.4 46.3 34.4 43.7 34.4C41.1 34.4 39 32.4 39 29.9C39 29 40.3 27 41.5 25.2C41.7 24.9 41.9 24.6 42.1 24.2C42.4 23.7 42.7 23.3 43 22.8C43 22.8 43 22.8 43.1 22.7ZM23.8 15.3C24.3 14.5 24.9 13.6 25.4 12.7C25.9 11.8 26.3 11 26.6 10.2C26.9 11 27.3 11.9 27.7 12.9C28.1 13.7 28.5 14.5 28.9 15.3C29.3 16.1 29.7 16.9 30 17.6C30.3 18.2 30.5 18.8 30.7 19.3C30.8 19.5 30.8 19.8 30.8 19.9C30.8 22.4 28.7 24.4 26.1 24.4C23.9 24.4 22 22.9 21.5 21C21.4 20.7 21.4 20.3 21.4 20C21.4 19.8 21.5 19.6 21.6 19.3C21.9 18.2 22.9 16.7 23.8 15.3ZM19.9 21.5C20.6 24.1 23.1 26 26 26C29.5 26 32.4 23.3 32.4 19.9C32.4 19.8 32.4 19.7 32.4 19.6C34.7 20.2 37.2 21.4 40.7 23.5C40.5 23.8 40.3 24.1 40.1 24.4C38.6 26.7 37.4 28.6 37.4 29.9C37.4 33.3 40.3 36 43.8 36C47.3 36 50.2 33.3 50.2 29.9C50.2 29.7 50.2 29.4 50.1 29.1C53.1 30.8 55.7 31.8 57.5 32.3L32.3 45.1C31.6 44.9 29.9 44.3 28.4 43.1C26.8 41.8 24.6 39.4 22.6 37.3C20.8 35.4 19.3 33.7 18.3 32.9C14.3 29.7 9.59999 27.8 5 27.4C8.9 25.8 14.9 23.3 19.9 21.5ZM33 50.5C30.8 50.5 26.9 48.4 20.6 38.8C18.3 35.3 15.5 32.9 12.7 31.2C14.3 32 15.9 33 17.4 34.2C18.3 34.9 19.9 36.6 21.6 38.4C23.6 40.5 25.8 43 27.5 44.4C29.7 46.2 32.2 46.8 32.3 46.9C32.4 46.9 32.4 46.9 32.5 46.9C32.6 46.9 32.8 46.9 32.9 46.8L55.6 35C57 36.5 58.8 37.3 60.3 37.6L33 50.5Z" fill="#828383"/>
<path d="M38.2 15.3C41.1 15.3 43.4 13.1 43.4 10.3C43.4 9.3 42.6 7.7 41.7 6C41.4 5.4 41.1 4.8 40.8 4.2C39.9 2.3 39.4 0.6 39.4 0.6C39.4 0.2 39 0 38.7 0C38.3 0 38 0.2 37.9 0.6C37.9 0.6 37.5 2.2 36.4 4C36 4.6 35.6 5.3 35.2 6C34 7.7 33 9.3 33 10.4C33 13.1 35.4 15.3 38.2 15.3ZM36.6 6.8C37 6.1 37.5 5.4 37.9 4.8C38.2 4.2 38.5 3.7 38.7 3.2C38.9 3.7 39.1 4.3 39.4 4.9C39.7 5.5 40 6.1 40.3 6.8C41 8.1 41.8 9.7 41.8 10.4C41.8 12.2 40.2 13.7 38.2 13.7C36.2 13.7 34.6 12.2 34.6 10.4C34.7 9.8 35.7 8.1 36.6 6.8Z" fill="#828383"/>
</g>
<defs>
<clipPath id="clip0">
<rect width="63.9" height="52.1" fill="white"/>
</clipPath>
</defs>
</svg>
