<svg width="40" height="65" viewBox="0 0 40 65" fill="none" xmlns="http://www.w3.org/2000/svg">
<g clip-path="url(#clip0)">
<path d="M15.6002 64.3C15.5002 63.6 15.4002 62.9 15.4002 62.2C15.5002 58.9 15.6002 58.3 15.7002 55C15.8002 52.5 15.0002 50.4 13.1002 48.7C12.7002 48.3 12.3002 47.9 11.9002 47.5C9.20017 44.6 5.60017 42.3 5.60017 37.7C3.80017 41.8 7.50017 44.1 8.50017 47.4C6.40017 45.9 4.60017 44 4.20017 41.6C3.80017 39.2 4.10017 36.6 4.10017 34.1C1.70017 38.7 2.90017 43.1 5.50017 47.3C2.70017 45.4 2.00017 42.5 1.20017 39.7C1.40017 43.4 1.40017 47.1 4.60017 49.9C5.70017 50.9 6.70017 52.1 8.00017 52.9C9.40017 53.9 10.0002 55.3 9.90017 56.9C9.80017 59.7 9.70017 60 9.50017 62.8C9.50017 63.3 9.20017 63.8 9.10017 64.2C8.90017 64.2 8.70017 64.2 8.50017 64.1C8.40017 63.5 8.30017 62.9 8.30017 62.3C8.40017 59.8 8.50017 59.9 8.60017 57.3C8.70017 55.8 8.30017 54.5 6.90017 53.6C6.30017 53.2 5.80017 52.6 5.20017 52.1C0.20017 48 -1.09983 43 0.50017 37C1.60017 32.9 2.50017 28.8 2.30017 24.5C2.00017 18.6 4.10017 13.5 9.00017 9.60001C9.60017 9.10001 10.0002 8.30001 10.2002 7.60001C11.4002 3.10001 15.1002 8.69483e-06 19.6002 -0.0999913C24.1002 -0.199991 28.0002 2.80001 29.4002 7.40001C29.6002 8.10001 29.9002 9.00001 30.5002 9.50001C36.1002 14 37.8002 19.9 37.3002 26.6C37.0002 30.4 38.3002 33.9 39.2002 37.4C40.6002 42.6 40.0002 47.8 35.5002 51C30.3002 54.7 31.0002 56.7 31.4002 61.5C31.5002 62.4 31.4002 63.3 31.4002 64.2C31.2002 64.2 30.9002 64.2 30.7002 64.3C30.6002 63.8 30.4002 63.3 30.3002 62.9C30.2002 59.9 29.9002 59.5 30.0002 56.5C30.0002 55.4 30.8002 54.3 31.5002 53.3C32.2002 52.4 33.2002 51.6 34.2002 50.9C37.7002 48.4 38.2002 44.6 38.8002 40.9C38.9002 40.4 38.7002 39.8 38.5002 39.3C38.0002 42.4 37.2002 45.2 34.3002 47.3C37.0002 43 37.9002 38.7 35.5002 34C36.4002 39.2 36.2002 44 31.2002 47.4C32.3002 44.3 35.9002 42 34.3002 38C34.2002 38.3 33.9002 38.5 33.9002 38.8C33.9002 41.8 31.8002 43.7 29.8002 45.7C23.1002 52.5 24.2002 50.1 24.2002 59.3C24.2002 61.3 24.3002 60.7 24.4002 62.8C24.4002 63.3 24.3002 63.9 24.2002 64.4C23.9002 64.4 23.6002 64.4 23.3002 64.4C23.1002 60.1 23.0002 58.5 22.8002 53.9C20.9002 55 19.1002 55.4 17.1002 53.8C16.9002 58.5 16.6002 60.1 16.4002 64.4C16.2002 64.3 15.9002 64.3 15.6002 64.3ZM16.0002 31.2C15.4002 30.8 15.1002 30.6 14.7002 30.4C13.7002 29.9 12.8002 29.1 11.7002 28.8C8.20017 27.8 5.00017 30.4 5.60017 33.7C5.90017 35.4 7.00017 37.1 7.20017 38.8C7.50017 41 8.70017 42.5 10.2002 44C12.5002 46.5 14.7002 49.2 16.8002 51.8C18.3002 53.8 21.7002 53.7 23.2002 51.8C25.1002 49.4 27.0002 47 29.1002 44.8C30.9002 42.9 32.8002 41.2 32.9002 38.4C32.9002 37.9 33.3002 37.4 33.5002 36.8C33.9002 35.1 34.3002 33.4 34.7002 31.6C34.8002 31.3 34.6002 30.7 34.3002 30.5C31.7002 28 28.4002 27.9 25.5002 30.3C25.1002 30.6 24.7002 30.8 24.0002 31.3C24.9002 27.6 28.8002 26.8 34.3002 28.7C34.9002 25.6 32.5002 20.7 29.2002 18.6C23.7002 15.2 17.9002 15.1 12.2002 18.1C7.60017 20.4 6.00017 24.4 5.50017 29C11.1002 26.8 15.5002 27.7 16.0002 31.2ZM3.50017 29.1C3.70017 29.1 3.90017 29.1 4.10017 29.1C6.00017 19.5 10.9002 15.1 19.8002 15C28.8002 15 33.8002 19.3 35.9002 28.8C36.1002 26.6 36.2002 24.3 36.1002 22.1C35.6002 14.1 28.9002 7.60001 20.6002 6.90001C13.6002 6.30001 5.90017 12 4.30017 19.4C3.60017 22.6 3.70017 25.9 3.50017 29.1ZM27.9002 7.90001C27.8002 4.20001 24.0002 1.20001 20.1002 1.20001C16.0002 1.10001 12.1002 4.20001 11.9002 8.10001C13.2002 7.30001 14.4002 6.70001 15.3002 5.90001C18.2002 3.10001 21.6002 3.10001 24.6002 5.90001C25.5002 6.70001 26.6002 7.10001 27.9002 7.90001ZM22.1002 5.80001C22.1002 5.70001 22.1002 5.50001 22.1002 5.40001C20.6002 5.40001 19.2002 5.40001 17.7002 5.40001C17.7002 5.50001 17.7002 5.70001 17.7002 5.80001C19.2002 5.80001 20.6002 5.80001 22.1002 5.80001Z" fill="#828383"/>
<path d="M15.3001 33.6C13.7001 36.2 8.8001 36 6.1001 33.5C6.3001 32.9 6.6001 32.3 7.0001 31.4C9.2001 34.2 11.9001 35.1 15.3001 33.6Z" fill="#828383"/>
<path d="M24.2998 33.6C27.5998 34.8 30.3998 34.5 32.3998 31.2C32.8998 32.2 33.1998 32.8 33.4998 33.4C30.7998 35.9 26.0998 36.2 24.2998 33.6Z" fill="#828383"/>
<path d="M22.3999 46.3C22.0999 46.1 21.8999 45.8 21.5999 45.9C19.7999 46 17.9999 46.3 16.0999 46.4C15.4999 46.4 14.8999 46.1 14.3999 45.8C17.9999 44.5 21.5999 44.4 25.1999 45.6C25.1999 45.8 25.1999 46 25.2999 46.2C24.1999 46.2 23.2999 46.2 22.3999 46.3Z" fill="#828383"/>
<path d="M22.2998 46.3C22.8998 48.2 21.2998 48.3 20.0998 48.5C18.2998 48.8 17.2998 48 17.2998 46.1C19.0998 48 20.7998 47.4 22.2998 46.3C22.3998 46.3 22.2998 46.3 22.2998 46.3Z" fill="#828383"/>
<path d="M18.2 40.5C19.3 40.5 20.4 40.5 21.5 40.5C21.6 40.6 21.6 40.8 21.7 40.9C21.2 41.2 20.7 41.7 20.2 41.7C19.5 41.7 18.7 41.3 18 41.1C18 41 18.1 40.8 18.2 40.5Z" fill="#828383"/>
</g>
<defs>
<clipPath id="clip0">
<rect width="40" height="64.4" fill="white"/>
</clipPath>
</defs>
</svg>
