<svg width="55" height="68" viewBox="0 0 55 68" fill="none" xmlns="http://www.w3.org/2000/svg">
<g clip-path="url(#clip0)">
<path d="M54.6 39.2C54.6 38.8 54.5 38.5 54.5 38.1C54.2 36.7 53.7 35.3 53 34C52.3 32.7 51.4 31.6 50.3 30.6C50 30.3 49.8 30.1 49.5 29.9C49.2 29.7 48.9 29.5 48.6 29.3C48 28.9 47.5 28.6 47 28.2C46.5 27.7 46 27.2 45.5 26.6C46.4 26.7 47.7 27.1 49.8 27.8C52.8 28.8 49.3 19.7 46.3 19.6C45.1 19.6 44.2 20.9 43.5 22.5C43.5 22.3 43.4 22.2 43.4 22C43.6 13.2 38.8 1.70003 22 0.200033C17 -0.199967 11.3 1.40003 5.7 4.80003C3.9 5.90003 0.5 8.00003 0.8 12.3C0.5 13.2 0.3 14.2 0.2 15.2C0.1 16.5 0.1 17.8 0.2 19.2C0.3 20.8 0.6 22.1 1.1 23.2C1.3 23.8 1.6 24.5 2 25.1C2.3 25.6 2.6 26.1 2.6 26.6C2.7 27 2.6 27.4 2.3 28.1L0.9 31.7C0.8 32 0.6 32.4 0.6 32.9C0.5 33.6 1.1 34.3 1.6 34.5C2.2 34.8 2.8 34.9 3.4 35.1C3.5 35.1 3.6 35.2 3.8 35.2C3.9 35.2 3.9 35.2 4 35.2C4 35.3 4 35.4 4 35.5C4 35.8 3.9 36.1 3.8 36.3V36.4C3.7 36.7 3.6 37.3 3.8 37.9C4.1 38.6 4.7 38.8 5 39C4.9 39 4.9 39 5 39C5 39.2 5 39.4 5 39.7C5.1 40.1 5.3 40.5 5.6 40.7C5.9 40.9 6.2 41 6.5 41.1C6.6 41.1 6.8 41.1 6.9 41.2V41.3C6.9 41.4 7 41.6 7 41.8C7 41.9 7.1 42.1 7.1 42.2C7.1 42.3 7.2 42.4 7.2 42.6C7.4 43.3 7.6 44.1 8.4 44.7C8.9 45 9.4 45.1 9.9 45.1C10.3 45.1 10.6 45 10.9 45C11 45 11.1 45 11.2 44.9C12.6 44.6 14 44 15.2 43.4L15.7 43.2C17.8 42.3 18.8 42.8 19.2 43.3C20 44.1 21.3 46.5 21.2 53.6H22.2C22.4 46.4 21 43.6 19.9 42.5C19.1 41.7 17.6 41.4 15.4 42.2C15 42.3 14.6 42.5 14.2 42.6C13.2 43 12.2 43.4 11.1 43.5C10.7 43.6 9.7 43.7 9.4 43.4C9.2 43.1 9.1 42.6 9 42L8.9 41.7C8.9 41.6 8.8 41.5 8.8 41.4C8.7 41.1 8.7 40.8 8.5 40.4C8.2 39.8 7.3 39.5 6.9 39.5C6.8 39.5 6.8 39.5 6.8 39.5C6.8 39.5 6.8 39.4 7 38.8V38.7C7 38.4 7 38.2 6.9 38C6.8 37.8 6.6 37.7 6.4 37.6C5.9 37.5 5.5 37.3 5.4 37.2V37.1H5.3C5.3 37 5.4 36.9 5.4 36.8C5.5 36.5 5.6 36.1 5.6 35.7C5.6 35.3 5.7 34.8 5.4 34.2C5.1 33.5 4.1 33.2 3.9 33.2H3.8C3.2 33.1 2.6 33 2.3 32.8C2.3 32.5 2.6 31.9 2.8 31.4C2.9 31 3.1 30.7 3.2 30.4L3.9 28.6C4.2 28 4.4 27.1 4.3 26.3C4.2 25.5 3.7 24.8 3.3 24.2C2.9 23.7 2.6 23.1 2.4 22.6C1.8 21.4 1.6 20.1 1.4 19C1.2 17.7 1.1 16.4 1.1 15.2C1.1 15.1 1.1 14.9 1.1 14.8C1.2 15.1 1.2 15.4 1.4 15.7C2.6 18.3 5 19.9 8.1 20.8C10.1 21.4 15.8 24 17.7 25.8C18.7 26.7 19.3 28 19.7 29.4C20.2 30.7 20.3 32.1 20.3 33.6C20.3 33.8 20.3 34 20.3 34.2C20.3 35 20.9 35.5 21.1 34.9C21.1 34.5 21.2 34 21.2 33.6C21.2 32.1 21.2 30.6 20.7 29.1C20.3 27.6 19.7 26.1 18.6 25C12.4 19.2 4.6 20 3.8 16.1C3.8 15.9 3.8 15.9 4 16C5.8 16.5 9.3 17.2 15.1 17.7C20.5 18.1 23.9 21.4 27.1 24.7C29.9 27.5 32.7 30.2 36.4 30.2C37.5 30.2 38.8 29.9 40.2 29.3C39.8 30.3 39.3 31.2 38.6 31.9C38 32.7 37 33.3 36 33.7C35.5 33.9 34.9 34 34.3 34.1C33.7 34.2 33.1 34.2 32.6 34.2C31.5 34.1 30.4 33.7 29.4 33.1C27.4 31.9 25.5 30.1 24 28.3C23.7 28 23.3 28 23 28.2C22.7 28.5 22.7 28.9 22.9 29.2C24.6 31.2 26.5 33 28.7 34.3C29.8 35 31.1 35.5 32.5 35.6C32.8 35.6 33.2 35.6 33.5 35.6C33.6 36.7 34 40.5 36.2 42.4C35.2 43.4 34.3 44.3 33.4 45.4C32.3 46.6 31.2 48 30.4 49.5C29.6 51.1 29.1 52.7 28.9 54.5C28.8 56.2 29 58 29.5 59.7C30 61.4 30.8 62.9 31.9 64.3L33.8 66.7L33.1 63.7C33 63.3 33 62.7 33.1 62.2C33.2 61.7 33.3 61.2 33.6 60.7C34.1 59.7 34.9 58.9 35.7 58.2C36.6 57.5 37.6 56.9 38.7 56.4C39.8 55.9 40.9 55.5 42.1 55C44.4 54 46.6 52.6 48.1 50.6C49.7 48.6 50.5 46 50.2 43.4C50.2 43.2 50 43 49.8 43C49.6 43 49.4 43.2 49.4 43.4V43.5C49.6 45.7 48.8 48.2 47.4 49.9C46 51.7 43.9 53 41.7 53.9L40 54.5C39.4 54.7 38.8 54.9 38.3 55.2C37.2 55.7 36 56.3 35 57.1C33.6 58.2 32.3 59.7 31.9 61.6C30.8 59.5 30.2 57 30.4 54.7C30.6 53.1 31.1 51.7 31.7 50.3C32.5 48.9 33.4 47.7 34.5 46.5C35.6 45.3 36.7 44.1 37.9 42.9C39.1 41.7 40.3 40.6 41.4 39.3C42.5 38 43.5 36.3 43.6 34.5C43.7 32.7 43.2 31 42.6 29.4C42.6 29.3 42.5 29.2 42.4 29.1C43.3 28.1 43.7 27.4 44.2 27.1C44.8 28 45.5 28.7 46.3 29.4C46.9 29.9 47.6 30.3 48.1 30.6C48.4 30.8 48.7 30.9 48.9 31.1C49.2 31.3 49.4 31.5 49.7 31.7C50.7 32.6 51.6 33.6 52.3 34.7C53 35.9 53.5 37.1 53.7 38.4C53.8 38.7 53.8 39.1 53.8 39.4C53.9 39.7 53.9 40.1 53.9 40.4C53.9 40.7 53.9 41.1 53.9 41.4L53.8 42.4C53.4 45.1 52 47.5 50.4 49.7C50.3 49.8 50.3 50 50.4 50.1C50.5 50.2 50.7 50.2 50.8 50.1C52.6 47.9 54 45.4 54.5 42.6L54.7 41.5C54.7 41.1 54.7 40.8 54.7 40.4C54.6 39.9 54.6 39.5 54.6 39.2ZM28 23.8C24.8 20.6 21.1 17 15.3 16.6C7.8 16 2.7 15.4 2.2 12.5C1.8 8.80003 4.7 7.00003 6.5 5.90003C6.8 5.70003 7.1 5.50003 7.5 5.40003C7.7 5.20003 8 5.00003 8.3 4.90003C13 2.40003 17.7 1.30003 21.8 1.60003C36.4 2.70003 41.6 13.2 41.8 20.1L41.7 21.6C41.6 23.7 41.3 25.9 40.7 27.9C35 30.8 31.9 27.7 28 23.8ZM40.1 38.2C39.1 39.4 37.9 40.5 36.8 41.7C34.8 40 34.5 36.4 34.4 35.5C34.4 35.5 34.4 35.5 34.5 35.5C35.2 35.4 35.8 35.3 36.5 35.1C37.8 34.7 39 33.9 39.9 32.9C40.5 32.2 41 31.4 41.4 30.6C41.8 31.9 42.1 33.1 42 34.3C41.9 35.7 41.1 37 40.1 38.2Z" fill="#828383"/>
<path d="M33.8 67.1L31.5 64.3C30.4 62.9 29.6 61.4 29.1 59.6C28.6 57.9 28.4 56.1 28.5 54.4C28.7 52.8 29.2 51.1 30 49.4C30.8 48 31.9 46.5 33.1 45.3C33.9 44.4 34.8 43.5 35.8 42.4C33.7 40.4 33.3 36.9 33.2 35.7C32.9 35.7 32.6 35.7 32.4 35.7C31.2 35.6 29.9 35.2 28.5 34.4C26.4 33.2 24.6 31.5 22.6 29.2C22.5 29 22.4 28.8 22.4 28.6C22.4 28.4 22.5 28.2 22.7 28C22.9 27.9 23.1 27.8 23.3 27.8C23.5 27.8 23.7 27.9 23.9 28.1C25.7 30.2 27.5 31.8 29.3 32.9C30.5 33.6 31.5 33.9 32.5 34C33 34 33.6 34 34.2 33.9C34.8 33.8 35.3 33.7 35.9 33.5C37 33.1 37.9 32.5 38.7 31.7C39.2 31.1 39.7 30.4 40.1 29.4C38.9 29.9 37.7 30.1 36.6 30.1C32.8 30.1 30.1 27.4 27.2 24.5C24 21.3 20.6 18 15.2 17.6C9.5 17.3 6 16.6 4 16.1C4.4 17.9 6.4 18.7 9.3 19.7C12.1 20.7 15.6 22 18.8 24.9C19.7 25.8 20.4 27.1 20.9 29C21.3 30.5 21.4 32 21.4 33.5C21.4 33.8 21.3 34.1 21.3 34.5V34.9C21.2 35.3 20.9 35.3 20.9 35.3C20.6 35.3 20.3 34.8 20.3 34.2C20.3 34.1 20.3 34 20.3 33.9C20.3 33.8 20.3 33.7 20.3 33.6C20.2 32.1 20.1 30.8 19.7 29.5C19.2 27.9 18.6 26.8 17.7 26C15.8 24.2 10 21.6 8.1 21C4.6 19.9 2.4 18.3 1.3 15.8C1.3 15.8 1.3 15.7 1.2 15.7C1.2 16.8 1.3 17.9 1.5 19.1C1.7 20.2 1.9 21.5 2.5 22.6C2.8 23.1 3.1 23.7 3.4 24.2C3.8 24.8 4.2 25.5 4.4 26.3C4.5 27.1 4.2 28 4 28.6L3.3 30.4C3.2 30.7 3.1 31.1 2.9 31.4C2.8 31.8 2.5 32.3 2.5 32.6C2.8 32.8 3.4 32.8 3.9 32.9H4C4.2 32.9 5.2 33.1 5.6 33.9C5.9 34.5 5.8 35.1 5.8 35.4C5.7 35.8 5.6 36.2 5.5 36.5V36.6V36.7H5.6V36.8C5.8 36.9 6.1 37 6.5 37.1C6.8 37.2 7 37.3 7.1 37.6C7.2 37.8 7.3 38.1 7.2 38.3V38.4C7.1 38.7 7.1 38.9 7 38.9C7.5 38.9 8.4 39.2 8.7 39.9C8.9 40.3 9 40.6 9 40.9C9 41 9 41.1 9.1 41.2V42C9.2 42.5 9.3 43.1 9.6 43.2C9.9 43.5 10.9 43.3 11.2 43.3C12.3 43.2 13.2 42.8 14.3 42.4C14.7 42.2 15.1 42.1 15.5 42C18.3 40.9 19.7 41.9 20.2 42.3C21.4 43.4 22.7 46.3 22.6 53.5V53.6H21.3V53.5C21.5 46.5 20.2 44.1 19.4 43.3C18.7 42.6 17.5 42.5 16 43.2L15.5 43.4C14.3 44 12.9 44.6 11.5 44.9C11.4 44.9 11.3 44.9 11.2 45C10.9 45.1 10.5 45.1 10.2 45.1C9.6 45.1 9.1 45 8.7 44.7C7.8 44 7.6 43.2 7.4 42.5C7.4 42.4 7.3 42.2 7.3 42.1C7.3 42 7.2 41.8 7.2 41.7C7.2 41.6 7.1 41.3 7.1 41.3C7.1 41.3 7 41.3 6.8 41.3C6.4 41.2 6.1 41.1 5.8 40.9C5.5 40.7 5.2 40.2 5.1 39.8C5.1 39.6 5 39.4 5.1 39.2H5C4.6 39 4 38.8 3.7 38.1C3.4 37.4 3.6 36.9 3.7 36.5V36.4C3.8 36.1 3.9 35.8 3.9 35.6C3.9 35.5 3.9 35.4 3.9 35.4C3.9 35.4 3.9 35.4 3.8 35.4C3.7 35.4 3.6 35.3 3.5 35.3H3.4C2.9 35.2 2.3 35.1 1.6 34.7C1.1 34.5 0.5 33.7 0.6 33C0.6 32.5 0.8 32.1 0.9 31.7L2.3 28.1C2.6 27.4 2.7 27.1 2.6 26.7C2.5 26.2 2.3 25.8 2 25.3C1.6 24.7 1.3 24 1.1 23.4C0.6 22.3 0.4 20.9 0.2 19.4C0.1 18 0.1 16.7 0.2 15.4C0.3 14.4 0.4 13.4 0.8 12.5C0.5 8.10002 4 6.00002 5.8 4.90002C11.2 1.30002 17 -0.399984 22 0.100016C38.3 1.50002 43.8 12.4 43.5 22.1C43.5 22.1 43.5 22.1 43.5 22.2C44.3 20.4 45.3 19.5 46.3 19.6C47.9 19.7 49.5 21.9 50.4 24.1C51 25.5 51.4 27.3 50.8 27.9C50.6 28.1 50.2 28.2 49.8 28C47.9 27.4 46.7 27 45.8 26.8C46.2 27.3 46.6 27.7 47 28.1C47.4 28.5 47.8 28.7 48.3 29L48.6 29.2C49 29.4 49.3 29.6 49.5 29.8C49.8 30.1 50.1 30.3 50.3 30.5C51.4 31.5 52.4 32.7 53 33.9C53.7 35.2 54.2 36.6 54.5 38C54.5 38.2 54.6 38.5 54.6 38.7C54.6 38.8 54.6 38.9 54.6 39.1C54.6 39.4 54.7 39.8 54.6 40.2C54.6 40.3 54.6 40.4 54.6 40.6C54.6 40.8 54.6 41.1 54.6 41.3L54.4 42.4C53.9 44.9 52.7 47.4 50.6 50C50.4 50.2 50.2 50.2 50 50.1C49.8 50 49.8 49.7 49.9 49.5C51.8 47 52.9 44.6 53.3 42.3L53.4 41.3C53.4 41.1 53.4 40.9 53.4 40.7C53.4 40.6 53.4 40.5 53.4 40.3C53.4 40 53.4 39.6 53.3 39.3C53.3 39.2 53.3 39.1 53.3 38.9C53.3 38.7 53.3 38.5 53.2 38.3C52.9 37.1 52.5 35.8 51.8 34.6C51.2 33.5 50.3 32.5 49.3 31.6C49.1 31.4 48.8 31.2 48.5 31C48.3 30.8 48 30.6 47.7 30.5C47.6 30.4 47.5 30.4 47.4 30.3C46.9 30 46.3 29.7 45.9 29.3C45.2 28.7 44.5 28 43.8 27.1C43.6 27.3 43.3 27.6 43.1 27.9C42.9 28.2 42.6 28.5 42.2 28.9C42.3 29 42.3 29 42.3 29.1C42.8 30.7 43.3 32.4 43.3 34.3C43.2 36.5 41.9 38.3 41.1 39.2C40.2 40.2 39.3 41.2 38.4 42.1C38.1 42.4 37.9 42.6 37.6 42.9C36.4 44.1 35.3 45.3 34.2 46.5C33.1 47.7 32.1 49 31.4 50.3C30.7 51.8 30.2 53.3 30.1 54.7C29.9 56.8 30.4 59.2 31.4 61.3C31.9 59.7 33 58.2 34.5 57.1C35.5 56.3 36.7 55.7 37.8 55.2C38.2 55 38.6 54.9 38.9 54.7C39.1 54.6 39.3 54.6 39.5 54.5L41.2 53.9C43.7 52.9 45.6 51.6 46.8 49.9C48.3 48.1 49 45.8 48.8 43.6V43.5C48.8 43.2 49 42.9 49.3 42.9C49.6 42.9 49.9 43.1 49.9 43.4C50.2 45.9 49.4 48.6 47.8 50.7C46.4 52.5 44.5 54 41.8 55.2C41.3 55.4 40.8 55.6 40.4 55.8C39.7 56.1 39.1 56.3 38.5 56.6C37.6 57.1 36.5 57.6 35.5 58.4C34.5 59.2 33.8 60 33.4 60.9C33.2 61.3 33 61.8 32.9 62.4C32.8 62.9 32.8 63.4 32.9 63.9L33.8 67.1ZM33.5 35.4V35.5C33.6 36.6 34 40.3 36.2 42.3L36.3 42.4L36.2 42.5C35.1 43.6 34.3 44.5 33.4 45.5C32.2 46.8 31.2 48.2 30.4 49.6C29.6 51.3 29.1 52.9 28.9 54.5C28.8 56.2 29 57.9 29.5 59.6C30 61.3 30.8 62.8 31.9 64.2L33.5 66.1L32.9 63.6C32.8 63.2 32.8 62.5 32.9 62C33 61.4 33.2 60.9 33.4 60.4C33.8 59.5 34.6 58.6 35.6 57.8C36.5 57 37.6 56.5 38.6 56C39.2 55.7 39.9 55.5 40.5 55.2C41 55 41.4 54.8 41.9 54.6C44.6 53.4 46.5 52 47.8 50.2C49.4 48.2 50.1 45.6 49.8 43.1C49.8 42.9 49.6 42.8 49.5 42.9C49.3 42.9 49.2 43.1 49.2 43.2V43.3C49.4 45.6 48.7 48 47.1 49.8C45.8 51.4 43.9 52.8 41.4 53.8L39.7 54.4C39.5 54.5 39.3 54.6 39.1 54.6C38.7 54.7 38.3 54.9 38 55C36.9 55.5 35.8 56.1 34.7 56.9C33.8 57.6 32.2 59.1 31.6 61.3L31.5 61.6L31.3 61.3C30.1 59.1 29.6 56.6 29.8 54.3C29.9 52.9 30.4 51.3 31.2 49.8C32 48.4 32.9 47.2 34.1 45.9C35.2 44.7 36.3 43.5 37.5 42.3C37.8 42 38 41.8 38.3 41.5C39.2 40.6 40.1 39.7 41 38.7C41.8 37.8 43 36.1 43.2 33.9C43.3 32.1 42.8 30.4 42.2 28.8C42.2 28.7 42.1 28.6 42.1 28.6L42 28.5L42.1 28.4C42.5 28 42.8 27.6 43 27.3C43.3 26.9 43.6 26.6 43.9 26.4L44 26.3L44.1 26.4C44.8 27.3 45.4 28.1 46.2 28.7C46.6 29.1 47.2 29.4 47.7 29.7C47.8 29.8 47.9 29.8 48 29.9C48.3 30.1 48.6 30.3 48.8 30.4C49.1 30.6 49.4 30.8 49.6 31C50.7 31.9 51.5 33 52.2 34.1C52.9 35.3 53.4 36.6 53.6 37.8C53.6 38 53.7 38.2 53.7 38.4C53.7 38.5 53.7 38.6 53.7 38.8C53.8 39.1 53.8 39.5 53.8 39.8C53.8 39.9 53.8 40 53.8 40.2C53.8 40.4 53.8 40.6 53.8 40.8L53.7 41.8C53.3 44.2 52.2 46.7 50.3 49.2C50.2 49.3 50.3 49.4 50.3 49.4C50.4 49.5 50.5 49.4 50.5 49.4C52.6 46.9 53.8 44.4 54.2 41.9L54.4 40.8C54.4 40.6 54.4 40.3 54.4 40.1C54.4 40 54.4 39.9 54.4 39.7C54.4 39.3 54.4 39 54.4 38.6C54.4 38.5 54.4 38.3 54.4 38.2C54.4 38 54.4 37.7 54.3 37.5C54.1 36.1 53.6 34.8 52.9 33.5C52.2 32.3 51.3 31.2 50.2 30.2C50 30 49.7 29.8 49.4 29.5C49.1 29.3 48.8 29.1 48.5 28.9L48.2 28.7C47.7 28.4 47.3 28.1 46.8 27.8C46.3 27.4 45.8 26.8 45.3 26.2L45.1 26H45.4C46.3 26.1 47.6 26.5 49.8 27.3C50.1 27.4 50.4 27.4 50.6 27.2C51 26.8 50.8 25.3 50.1 23.7C49.2 21.6 47.7 19.4 46.2 19.3C46.2 19.3 46.2 19.3 46.1 19.3C45.1 19.3 44.3 20.2 43.4 22.1V23L43.3 22.7C43.3 22.6 43.2 22.4 43.2 22.3V22.2C43.5 12.6 38.1 1.80002 22 0.400016C17 -0.099984 11.3 1.50002 5.8 4.90002C4 6.00002 0.6 8.00002 0.9 12.3C0.6 13.2 0.4 14.2 0.3 15.2C0.2 16.5 0.2 17.8 0.3 19.2C0.4 20.7 0.7 22 1.1 23.2C1.3 23.8 1.6 24.4 2 25.1C2.3 25.7 2.6 26.1 2.6 26.6C2.7 27.1 2.6 27.5 2.3 28.1L0.9 31.7C0.8 32 0.6 32.4 0.6 32.9C0.5 33.5 1 34.2 1.5 34.4C2.1 34.7 2.7 34.8 3.2 34.9H3.3C3.4 34.9 3.5 34.9 3.6 35C3.7 35 3.7 35 3.8 35H3.9V35.1C3.9 35.2 3.9 35.3 3.9 35.5C3.9 35.8 3.8 36.1 3.7 36.3V36.4C3.6 36.7 3.5 37.2 3.7 37.8C4 38.4 4.5 38.7 4.9 38.8C5 38.8 5 38.9 5.1 38.9H5.2V39C5.2 39.2 5.2 39.4 5.2 39.7C5.3 40.1 5.5 40.4 5.8 40.6C6 40.8 6.3 40.9 6.6 41C7 41 7 41.1 7 41.1V41.2C7.1 41.3 7.1 41.4 7.2 41.7C7.2 41.8 7.3 41.9 7.3 42.1C7.3 42.2 7.4 42.3 7.4 42.5C7.6 43.1 7.8 43.9 8.6 44.6C9 44.8 9.5 45 10 45C10.3 45 10.7 44.9 11 44.9C11.1 44.9 11.2 44.9 11.4 44.8C12.8 44.5 14.2 43.9 15.4 43.3L15.9 43.1C18 42.2 19 42.7 19.6 43.2C20.4 44 21.7 46.5 21.6 53.5H22.4C22.5 46.4 21.2 43.7 20.1 42.6C19.7 42.2 18.4 41.3 15.7 42.4C15.3 42.5 14.9 42.7 14.5 42.8C13.4 43.2 12.5 43.6 11.4 43.7C10.7 43.8 9.9 43.8 9.6 43.5C9.1 43.2 9 42.7 8.8 42L8.7 41.7C8.7 41.6 8.6 41.5 8.6 41.4C8.5 41.1 8.5 40.8 8.3 40.4C8 39.8 7.2 39.5 6.8 39.5C6.6 39.5 6.5 39.4 6.6 39.3C6.6 39.2 6.6 39 6.8 38.6V38.5C6.9 38.3 6.8 38.1 6.7 37.9C6.6 37.7 6.4 37.6 6.3 37.6C5.8 37.5 5.4 37.3 5.2 37.2L5.1 37.1V37H5V36.9C5 36.8 5 36.8 5.1 36.7V36.6C5.2 36.3 5.3 35.9 5.3 35.6C5.3 35.2 5.4 34.7 5.1 34.2C5 33.6 4.1 33.4 4 33.4H3.9C3.3 33.3 2.7 33.2 2.3 33H2.2V32.9C2.2 32.6 2.5 32 2.7 31.5C2.8 31.1 3 30.8 3.1 30.5L3.8 28.7C4.1 28.1 4.3 27.2 4.1 26.4C4 25.6 3.5 24.9 3.2 24.4C2.8 23.9 2.5 23.3 2.3 22.8C1.7 21.6 1.5 20.3 1.3 19.2C1 17.7 1 16.4 1 15.2V13.6L1.2 14.7C1.3 15.1 1.4 15.3 1.5 15.6C2.6 18 4.7 19.6 8.2 20.6C10.3 21.2 16 23.9 17.9 25.6C18.8 26.4 19.4 27.6 19.9 29.2C20.4 30.5 20.5 31.9 20.5 33.4C20.5 33.5 20.5 33.6 20.5 33.7C20.5 33.8 20.5 33.9 20.5 34C20.5 34.5 20.7 34.8 20.9 34.8C21 34.8 21 34.7 21.1 34.6V34.3C21.1 34 21.2 33.7 21.2 33.4C21.2 31.9 21.1 30.4 20.7 29C20.2 27.1 19.5 25.8 18.7 25C15.6 22.1 12.1 20.9 9.3 19.9C6.5 18.9 4.3 18.1 3.9 16.1C3.9 16 3.9 15.9 3.9 15.8C4 15.7 4.1 15.8 4.2 15.8C6.1 16.3 9.7 17 15.3 17.4C20.8 17.8 24.1 21.1 27.4 24.4C30.2 27.2 32.9 29.9 36.6 29.9C37.8 29.9 39 29.6 40.3 29.1L40.6 29L40.5 29.3C40 30.4 39.5 31.3 38.9 32C38.2 32.9 37.2 33.5 36 33.9C35.4 34.1 34.8 34.2 34.3 34.3C33.9 34.4 33.2 34.4 32.5 34.4C31.5 34.3 30.4 33.9 29.2 33.3C27.3 32.2 25.5 30.6 23.7 28.5C23.6 28.4 23.5 28.3 23.3 28.3C23.1 28.3 23 28.3 22.9 28.4C22.8 28.5 22.7 28.6 22.7 28.8C22.7 29 22.7 29.1 22.8 29.2C24.7 31.5 26.6 33.1 28.6 34.3C30 35.1 31.2 35.5 32.4 35.6C32.7 35.6 33 35.6 33.3 35.6L33.5 35.4ZM36.8 41.9C34.7 40.1 34.3 36.6 34.3 35.5V35.4H34.5C35.2 35.3 35.8 35.2 36.5 35C37.8 34.6 39 33.8 39.9 32.8C40.5 32.2 40.9 31.4 41.4 30.5L41.5 30.2L41.6 30.5C42.1 32 42.3 33.2 42.2 34.3C42.1 35.7 41.5 37 40.3 38.4C39.5 39.4 38.5 40.3 37.6 41.2C37.3 41.3 37.1 41.6 36.8 41.9ZM34.5 35.6C34.6 36.5 35 39.9 36.8 41.5C37 41.3 37.2 41.1 37.4 40.9C38.3 40 39.2 39.1 40 38.1C41.1 36.8 41.7 35.5 41.8 34.2C41.8 33.2 41.7 32.2 41.3 30.8C40.9 31.6 40.4 32.3 39.9 32.8C39 33.8 37.8 34.6 36.4 35.1C35.8 35.4 35.2 35.5 34.5 35.6ZM36.5 29.2C33.2 29.2 30.7 26.8 27.8 23.9C24.6 20.7 21 17.1 15.2 16.7C8.1 16.2 2.6 15.5 2 12.5C1.6 8.80002 4.6 6.90002 6.4 5.80002C6.6 5.70002 6.8 5.60002 7 5.40002C7.1 5.30002 7.2 5.30002 7.3 5.20002C7.6 5.00002 7.8 4.90002 8.1 4.70002C12.8 2.20002 17.5 1.00002 21.7 1.40002C28.2 1.90002 33.6 4.40002 37.2 8.50002C40 11.7 41.7 15.9 41.9 20L41.8 21.6C41.7 24.1 41.4 26.1 40.8 27.9V28C39.2 28.8 37.8 29.2 36.5 29.2ZM20.4 1.70002C16.6 1.70002 12.4 2.80002 8.3 5.10002C8.1 5.10002 7.8 5.30002 7.5 5.50002C7.4 5.50002 7.3 5.60002 7.2 5.70002C7 5.80002 6.8 5.90002 6.6 6.00002C4.7 7.10002 2 8.90002 2.4 12.5C2.9 15.3 8.3 16 15.4 16.5C21.2 16.9 24.9 20.6 28.2 23.8C32.1 27.7 35.2 30.7 40.8 27.9C41.3 26.1 41.6 24.1 41.7 21.7L41.8 20.2C41.6 16.2 40 12.1 37.2 8.90002C33.6 4.80002 28.3 2.40002 21.9 1.90002C21.4 1.70002 20.9 1.70002 20.4 1.70002Z" fill="#828383"/>
</g>
<defs>
<clipPath id="clip0">
<rect width="54.8" height="67.1" fill="white"/>
</clipPath>
</defs>
</svg>
