<svg width="82" height="82" viewBox="0 0 82 82" fill="none" xmlns="http://www.w3.org/2000/svg">
<path d="M66.4999 54.1C66.3999 54 66.2999 54 66.1999 53.9C64.4999 52.9 63.6999 52.1 62.3999 48.7C61.0999 45.2 59.7999 41.6 58.5999 38.1C57.2999 34.5 55.8999 30.7 54.5999 27C53.6999 24.4 51.2999 16.3 50.3999 15.9C49.9999 15.7 47.2999 16.2 47.1999 22.1C46.7999 21.9 43.1999 19.9 40.1999 18.4C38.4999 17.6 37.4999 17.8 37.1999 18.8C36.6999 20.4 36.9999 21.2 37.4999 22.3L31.8999 20.7C31.2999 20.5 30.6999 20.9 30.6999 21.6C30.7999 23.6 31.4999 25 31.4999 25L28.6999 24.7C27.7999 24.6 27.2999 25.1 27.1999 26.2C27.0999 28 28.1999 29.3 28.1999 29.3C28.1999 29.3 25.7999 29.3 22.7999 32.1C22.7999 32.1 22.6999 32 22.5999 31.9C22.3999 31.7 22.0999 31.5 21.7999 31.2C19.2999 29.4 16.9999 29.1 14.5999 30.3C12.2999 31.5 11.2999 33.5 11.3999 36.4C11.4999 39.8 12.9999 42.8 15.9999 45.5C17.1999 46.6 18.4999 47.6 19.8999 48.7C20.4999 49.1 20.9999 49.6 21.5999 50C21.4999 50 21.4999 50.1 21.3999 50.1C21.0999 50.3 20.7999 50.4 20.5999 50.7L20.4999 51C20.0999 51.4 18.4999 53 19.8999 54.4C26.3999 59.4 33.4999 63.2 43.7999 64.6L44.5999 64.7C49.0999 65.3 53.7999 65.8 57.8999 68.3C59.1999 69.1 60.1999 68.2 58.9999 67.4C56.4999 65.7 52.8999 64.7 51.0999 64.3C46.1999 63.2 45.0999 64.4 35.7999 61.6C29.6999 59.9 27.1999 58 23.7999 55.4C22.9999 54.8 22.1999 54.2 21.3999 53.7C20.8999 53.4 20.7999 52.7 21.1999 52.2C21.8999 51.3 22.8999 51.2 24.0999 51.7C24.2999 51.8 24.5999 51.9 24.7999 52C25.9999 52.5 27.2999 53 28.2999 53.8C29.7999 54.9 31.4999 55.3 33.6999 55C34.4999 54.9 35.3999 54.8 36.2999 54.7C40.7999 54.4 40.7999 54.3 42.1999 50C42.3999 49.4 42.6999 48.4 42.7999 47.7C43.2999 44.5 42.6999 43.4 41.7999 40.3C41.3999 39 41.6999 37.6 40.1999 34.6C39.3999 33 37.2999 31.9 37.0999 31.8C34.4999 30.6 33.3999 30.9 30.3999 29.6C29.1999 29.1 28.4999 27.9 28.5999 26.6C28.5999 26.3 28.9999 26.1 29.2999 26.1C29.6999 26.2 30.0999 26.2 30.3999 26.3C31.6999 26.6 32.9999 26.8 34.1999 27.1C34.9999 27.3 35.8999 27.4 36.6999 27.6C38.7999 27.9 40.8999 28.3 42.3999 29.4C43.7999 30.5 44.6999 32.4 45.4999 34.2C45.8999 35 46.2999 35.9 46.6999 36.7C47.0999 37.4 47.5999 38.2 47.9999 38.9C48.1999 39.2 48.3999 39.5 48.5999 39.9C48.8999 40.4 49.5999 40.1 49.4999 39.5C49.2999 38.9 45.7999 31.8 44.2999 29.3C43.7999 28.5 42.8999 27.8 41.9999 27.5C40.2999 27 38.3999 26.6 36.6999 26.2C35.8999 26 35.1999 25.9 34.3999 25.7C32.7999 25.3 31.9999 24.4 31.6999 22.7C31.6999 22.4 31.8999 22.2 32.1999 22.3C33.1999 22.6 34.1999 22.8 35.0999 23.1C38.4999 24 41.6999 24.9 44.8999 25.9C45.6999 26.1 46.5999 26.9 46.8999 27.6C47.7999 29.3 48.5999 31.2 49.3999 32.9C49.7999 33.7 51.3999 36.9 51.6999 37.4C51.9999 38.1 52.6999 37.5 52.4999 36.9C52.2999 36.3 48.6999 28 48.3999 27.4C47.8999 26.3 46.9999 25 44.5999 24.4C44.0999 24.3 41.1999 23.4 40.7999 23.2C40.6999 23.2 40.4999 23.1 40.3999 23.1C39.4999 22.8 38.8999 22.3 38.4999 21.6C38.1999 21 38.0999 20.4 38.1999 19.6C38.1999 19.2 38.5999 19 38.9999 19.2C39.3999 19.4 39.7999 19.7 40.1999 19.9C41.5999 20.7 43.0999 21.5 44.5999 22.2C48.7999 24 50.5999 26.1 51.8999 29.9C52.3999 31.4 53.3999 34 53.7999 34.8C54.1999 35.7 55.0999 35.3 54.7999 34.6C54.5999 33.9 54.2999 33.1 53.9999 32.3C53.3999 30.4 52.6999 28.5 51.8999 26.6C51.4999 25.6 50.6999 24.5 49.6999 23.5C48.9999 22.8 48.5999 21.5 48.5999 20.2C48.6999 19.1 48.9999 18.1 49.5999 17.5C50.0999 17 50.4999 19.3 50.7999 20.1L52.5999 25.1C55.6999 33.8 58.7999 42.7 61.9999 51.5C62.5999 53.2 64.7999 55.2 66.7999 55.5C67.2999 55.8 68.3999 55.3 66.4999 54.1ZM28.7999 44.8C28.3999 45.2 27.9999 45.5 27.5999 45.8C23.0999 49.6 23.0999 49.6 18.5999 45.8C18.1999 45.4 17.6999 45 17.1999 44.6C14.9999 42.7 13.4999 40.3 13.0999 37.5C12.5999 34.7 13.4999 32.6 15.4999 31.5C16.1999 31.2 16.8999 31 17.5999 31C19.0999 31 20.6999 31.7 21.9999 33.1C22.1999 33.3 22.3999 33.5 22.5999 33.8C22.6999 33.9 22.7999 34.1 22.8999 34.2L22.9999 34.3L23.0999 34.2C23.4999 33.9 23.7999 33.6 24.1999 33.3C24.8999 32.7 25.4999 32.1 26.2999 31.7C27.8999 30.8 29.7999 30.8 31.1999 31.7C32.6999 32.6 33.4999 34.2 33.4999 36.1C33.1999 39.5 31.6999 42.4 28.7999 44.8ZM30.5999 53.3C29.0999 52.5 27.5999 51.7 25.9999 50.8C25.4999 50.5 24.9999 50.2 24.3999 50C34.1999 43 36.7999 37.7 33.3999 31.8C36.6999 32.1 39.2999 34.4 39.9999 37.5C40.0999 38 40.1999 38.5 40.2999 39C40.4999 40.1 40.6999 41.2 41.0999 42.3C42.0999 45.2 41.7999 48.2 39.9999 51.6C39.6999 52.3 38.6999 53 37.8999 53.1C36.2999 53.4 34.4999 53.5 32.8999 53.5C32.5999 53.5 32.1999 53.5 31.8999 53.5C31.4999 53.7 30.9999 53.5 30.5999 53.3Z" fill="#818182"/>
</svg>
