<svg width="30" height="30" viewBox="0 0 30 30" fill="none" xmlns="http://www.w3.org/2000/svg">
<g clip-path="url(#clip0_2976_285)">
<path d="M30.0006 14.9997C30.0006 23.2841 23.2848 30 15.0003 30C6.71586 30 0 23.2841 0 14.9997C0 6.71586 6.71586 0 15.0003 0C23.2848 0 30.0006 6.71586 30.0006 14.9997Z" fill="#F7F0E9"/>
<path fill-rule="evenodd" clip-rule="evenodd" d="M17.5618 7.91525C17.8249 9.30599 18.3559 8.95027 18.2861 9.62657C18.2381 10.092 18.0739 10.1595 17.8157 10.3753C17.6432 10.5193 17.265 10.7829 17.0434 10.8587C17.2408 10.5146 17.4433 10.1925 17.5538 9.67972C17.6123 9.408 17.5613 9.23035 17.4371 9.04842C17.2489 8.77284 17.2592 8.81591 16.9268 8.70084C16.4537 8.58812 16.1993 8.66591 15.8337 8.94063L15.6353 9.0857C15.5974 9.1262 15.6027 9.11399 15.5691 9.17313C15.7307 9.12042 15.7397 9.07842 15.9659 9.04992C15.9554 9.07777 15.9239 9.09535 15.9559 9.15685C15.9679 9.17999 16.0913 9.22606 16.0446 9.33235C16.1348 9.19885 16.1162 9.31392 16.1627 9.31757C16.2462 9.32399 16.2094 9.29549 16.356 9.26635C16.3596 9.27214 16.3566 9.32078 16.4635 9.37478C16.6234 8.65862 17.1128 8.78313 17.2864 8.98242C17.7083 9.4665 17.4017 10.2242 17.097 10.6982C16.8006 11.1594 16.5501 11.1478 16.0744 12.0442C16.0204 11.8207 15.9409 11.7283 15.9002 11.5074C15.8614 11.297 15.8204 11.0653 15.7724 10.8632C15.7163 10.6267 15.6214 10.5326 15.4791 10.4222C15.3377 10.3125 15.2155 10.1758 15.0199 10.1257L14.9603 10.1344C14.9721 10.1544 15.0149 10.1884 15.0451 10.2124C14.9856 10.2255 15.0484 10.1962 14.971 10.2322C14.8829 10.2733 14.9309 10.2928 14.8356 10.3695L14.7188 10.4642C14.6127 10.5422 14.7379 10.4644 14.5913 10.467C14.6809 10.6582 14.6091 10.7439 14.3819 10.721C14.1336 10.6957 13.8473 10.6655 13.6358 10.5459L13.171 10.3059C13.0717 10.2416 12.8956 10.0841 12.7784 10.062C12.8275 10.1302 12.8382 10.1383 12.9106 10.1974C13.3574 10.5611 13.049 10.3198 13.4885 10.5392C13.9486 10.769 14.0568 10.6695 14.4306 10.8015C14.3928 11.0651 14.4456 10.9215 14.5859 11.2355C14.6601 11.4013 14.59 11.3745 14.5868 11.5492C14.731 11.616 14.7081 11.6471 14.6862 11.7838C14.8075 11.7995 14.8988 11.7693 14.9881 11.7341C15.2112 11.6154 15.5389 11.5346 15.7647 11.7015C15.9807 11.861 15.91 12.2328 15.8256 12.5098L15.8359 12.6789C15.951 12.5047 15.9077 12.5109 16.0967 12.3986C16.8505 11.9501 17.1351 12.272 17.3826 12.3116C17.6747 12.3249 17.5667 12.2332 17.7675 12.2135C17.9271 12.1978 17.8483 12.2203 17.937 12.1558L17.9721 12.1308C18.0077 12.1057 18.2494 12.1951 18.4382 12.2203C18.6549 12.2493 18.6739 12.2958 18.8554 12.3616C19.1473 12.4672 19.4758 12.4132 19.8148 12.4316C19.902 12.4267 19.8581 12.467 19.8815 12.4025C19.5452 12.2956 19.5902 12.3581 19.1756 12.1908L18.6632 11.9998C18.6401 11.9904 18.6022 11.9748 18.576 11.9585L18.5346 11.9289C18.5284 11.9242 18.5196 11.9156 18.5147 11.9118C18.5096 11.9077 18.501 11.9002 18.4948 11.8935C18.3887 11.8993 18.063 11.723 17.8804 11.6754C17.4705 11.5685 16.8469 11.669 16.5379 11.9499C16.4271 12.0508 16.2983 12.2587 16.0279 12.3241C16.0487 12.1368 16.4374 11.5584 16.5417 11.4326C16.7265 11.2102 17.0166 10.9436 17.2986 10.7756L17.7321 10.503C18.141 10.2277 18.4946 9.73372 18.6272 9.29314C18.6054 9.16778 18.7732 8.83263 18.8194 8.67448C18.8767 8.47905 18.8659 8.47326 18.7541 8.37404C18.6512 8.28254 18.6491 8.23819 18.6401 8.05775C18.5113 7.97611 18.4513 8.06268 18.3821 8.00632C18.3465 7.97697 18.2501 7.65489 17.9732 7.86146C17.8991 7.91696 17.9854 7.89746 17.868 7.85846C17.8583 7.86918 17.7433 7.87861 17.8358 7.97589L17.6659 7.83768C17.664 7.82996 17.6556 7.8306 17.6511 7.82632C17.5455 7.85139 17.568 7.77018 17.5618 7.91525Z" fill="#567869"/>
<path fill-rule="evenodd" clip-rule="evenodd" d="M13.6514 18.8119C13.6801 18.6786 13.7288 18.522 13.8179 18.4392L14.0133 18.772L13.6514 18.8119ZM11.8469 18.1047L11.7929 18.1103C11.7172 18.3113 11.8503 18.3049 11.9716 18.3152C12.0382 18.5547 12.1381 18.55 12.3286 18.7302C12.4109 18.8082 12.3948 18.7613 12.4231 18.8895C12.4424 19.0583 12.5114 18.9503 12.56 19.1277L12.7132 19.1288C12.7705 19.2508 12.8639 19.2709 12.8765 19.4494C12.8971 19.7361 12.8956 19.62 13.0032 19.7378C13.0229 19.7595 13.0184 19.7451 13.0467 19.7968L13.3578 20.3286C13.4433 20.2954 13.4371 20.2909 13.439 20.2894L13.4798 20.2215C13.481 20.217 13.4813 20.2091 13.4819 20.1977C13.4828 20.1857 13.4828 20.1806 13.4836 20.1722L13.4778 20.1244C13.3409 20.0614 13.1883 19.6348 13.301 19.3024C13.3334 19.2073 13.3248 19.2788 13.3488 19.1674C13.364 19.0973 13.3231 19.0485 13.4952 19.038C13.6355 19.0296 13.4776 19.06 13.5766 19.0446L13.6865 18.9938C13.837 18.933 14.0172 18.9428 14.1471 19.0575C14.3279 19.2175 14.3654 19.1567 14.4363 19.4218C14.5362 19.7957 14.4672 19.7209 14.4081 19.9275L14.3703 20.1218L14.5851 20.2142C14.5797 20.2228 14.5746 20.25 14.5733 20.2581L14.5675 20.3303C14.5677 20.34 14.5842 20.4349 14.5848 20.4364C14.6164 20.514 14.575 20.4306 14.6159 20.4872L14.7057 20.6141C14.7904 20.7594 14.8801 20.8101 15.0706 20.8586C15.1536 21.0101 15.5247 21.1046 15.7204 21.1337C15.85 21.153 15.9284 21.1114 16.0542 21.0786C16.1693 21.0484 16.2805 21.069 16.4029 21.0681L16.5651 20.8592C16.6065 20.7819 16.603 20.7799 16.6727 20.7386C16.7134 20.7141 16.7192 20.7206 16.7528 20.7004C16.8778 20.6261 16.7818 20.6908 16.8133 20.6514C16.7462 20.4756 16.7839 20.5669 16.6523 20.5219L16.3506 20.3841C16.3442 20.3813 16.26 20.4178 16.2415 20.3059L16.1496 20.391C16.1614 20.5187 16.264 20.5494 16.3174 20.6593C16.3707 20.7686 16.285 20.7189 16.3223 20.8616C16.3227 20.8635 16.3495 20.919 16.3555 20.9421C16.1899 20.7182 15.7459 20.8984 15.6942 20.9029C15.7577 20.9464 15.6799 20.8667 15.5897 20.8367C15.5009 20.8069 15.4731 20.835 15.3801 20.7703C15.2768 20.6985 15.2873 20.5369 15.1621 20.4289L15.2022 20.4008C15.2451 20.3691 15.2738 20.4437 15.2294 20.3745C15.1999 20.325 15.1984 20.3391 15.1639 20.2802C15.1366 20.2335 15.1227 20.196 15.1021 20.1495C15.3966 20.097 15.3166 20.1176 15.5481 20.2448C15.6745 20.2551 15.6972 20.253 15.7202 20.3676L15.8427 20.3693L15.673 20.1966C15.5087 20.0256 15.208 19.824 14.953 19.8767L14.9266 19.7642C14.9273 19.762 14.9305 19.7539 14.9316 19.7522C14.9836 19.6703 15.2459 19.8238 15.3212 19.5396L15.2296 19.5083C15.2365 19.5049 15.2466 19.4998 15.25 19.498C15.253 19.4965 15.265 19.4903 15.2684 19.4888L15.3055 19.4715C15.2168 19.3645 15.3081 19.5081 14.953 19.5083C14.9142 19.4526 14.9279 19.4959 14.953 19.4468C14.8328 19.4766 14.9459 19.4395 14.8525 19.5002L14.7383 19.5696L14.6757 19.3699C14.6691 19.3153 14.668 19.2844 14.6509 19.2137C14.5855 18.9437 14.6558 19.1172 14.6551 18.9432C14.6596 18.8393 14.6749 18.819 14.7391 18.7725L14.6901 18.6983C14.6496 18.8535 14.6509 18.684 14.6461 18.8635L14.5834 18.8327C14.5752 18.8292 14.5658 18.8241 14.5576 18.8213C14.4644 18.7894 14.6136 18.7881 14.4779 18.825C14.3695 18.8543 14.4486 18.8524 14.3513 18.8252C14.3328 18.7075 14.2814 18.5785 14.2782 18.4502L14.1642 18.0158C14.164 18.0094 14.1648 18.0002 14.1648 17.9933C14.1646 17.986 14.1646 17.9755 14.1644 17.9684L14.1552 17.8825C14.0733 17.8581 14.0129 17.8952 13.9709 17.9509L13.9478 17.9824C13.855 18.1502 14.0245 18.1433 13.7806 18.2352L13.7738 18.1345C13.8614 18.2742 13.8539 18.163 13.8635 18.1583C13.801 18.04 13.7868 18.1026 13.756 17.9858C13.7416 17.9303 13.756 17.8877 13.6598 17.8007C13.657 17.7981 13.649 17.7931 13.6465 17.791L13.6272 17.7749C13.6261 17.7739 13.622 17.7683 13.6212 17.767C13.5944 17.7226 13.619 17.7466 13.6077 17.7184C13.5623 17.6069 13.5505 17.6641 13.4988 17.5405C13.4521 17.4385 13.3981 17.2913 13.2843 17.2469C13.1287 17.1863 13.3953 17.2681 13.2505 17.2437L13.222 17.2405C13.1489 17.2154 13.0968 17.1342 13.0507 17.0684C13.024 17.0838 13.0248 17.0819 12.974 17.0988C13.0486 17.1398 12.9946 17.0907 13.0293 17.1766L12.9033 17.2315C13.0475 17.3286 12.9485 17.3787 12.905 17.5448C12.9562 17.6243 12.9974 17.6614 13.0368 17.7466L13.0737 17.9704C13.0722 17.977 13.0645 18.0008 13.0632 17.9963C13.0617 17.9918 13.0561 18.0147 13.0507 18.0227L12.9644 17.9719C12.9577 17.968 12.9507 17.9631 12.944 17.959C12.8812 17.9226 12.8885 17.9271 12.836 17.9048L12.8253 17.9369C12.787 18.0711 12.7627 18.1024 12.8926 18.1892C12.8881 18.1943 12.881 18.2016 12.8785 18.2044L12.811 18.2749C12.8937 18.3314 12.89 18.3342 12.9374 18.4304C12.9738 18.5046 12.991 18.5243 13.0111 18.597C13.0878 18.8736 13.0409 18.6975 13.2635 18.8616C13.2355 18.9966 13.1969 19.0437 13.0252 19.0817C12.994 18.9372 12.9254 18.8134 12.8455 18.7032C12.7405 18.5588 12.8045 18.6503 12.6468 18.5412L12.2817 18.2224C12.0894 18.0752 12.152 18.1581 12.1102 17.8514C11.9634 18.1219 12.0509 17.9286 11.8469 18.1047Z" fill="#A64B54"/>
<path fill-rule="evenodd" clip-rule="evenodd" d="M11.6966 15.8716C11.9428 15.9286 12.2248 16.4534 12.3538 16.7164C12.3463 16.7202 12.3356 16.723 12.33 16.7252L12.1837 16.7804L12.254 17.0003C12.2589 17.008 12.2662 17.0106 12.2688 17.0239C12.2711 17.0372 12.2797 17.0417 12.2831 17.0472L12.3585 17.167C12.4303 17.1246 12.4672 17.1192 12.4678 16.9817C12.5949 16.9727 12.564 17.0082 12.6551 17.0633L12.8973 17.1764C12.8945 17.1638 12.8866 17.1342 12.8836 17.14L12.8319 17.0232C13.0246 16.9742 13.1422 16.7211 13.3661 17.0442L13.6239 17.1741C13.7075 17.1576 13.5176 17.1169 13.6597 17.1732C13.7163 17.1957 13.6949 17.2397 13.7103 17.2992L13.6449 17.2729C13.6394 17.2692 13.6284 17.2604 13.6203 17.2542C13.6501 17.4985 13.6126 17.2649 13.5819 17.4537L13.6036 17.5337C13.6805 17.5352 13.61 17.5275 13.5999 17.5142L13.4988 17.5405C13.5504 17.6642 13.5622 17.607 13.6076 17.7184C13.619 17.7467 13.5944 17.7227 13.6211 17.767C13.622 17.7683 13.6261 17.7739 13.6271 17.775L13.6464 17.791C13.649 17.7932 13.6569 17.7981 13.6597 17.8007C13.7559 17.8877 13.7416 17.9303 13.7559 17.9858C13.7868 18.1026 13.8009 18.04 13.8635 18.1583C13.8539 18.163 13.8614 18.2743 13.7737 18.1345L13.7806 18.2353C14.0244 18.1433 13.8549 18.1502 13.9477 17.9824L13.9709 17.9509C14.0129 17.8952 14.0733 17.8581 14.1552 17.8825L14.1644 17.9685C14.1646 17.9755 14.1646 17.986 14.1648 17.9933C14.1648 18.0002 14.1639 18.0094 14.1642 18.0158L14.2782 18.4502L14.4312 18.4675C14.4237 18.3623 14.4282 18.4215 14.4093 18.3503L14.3748 18.2076C14.3757 18.201 14.3799 18.1815 14.3821 18.1757C14.4215 18.076 14.5173 18.1575 14.4316 18.0263C14.4586 18.0726 14.4667 18.0917 14.5109 18.1369L14.6379 18.1785C14.642 18.177 14.6549 18.1731 14.6594 18.1714C14.8636 18.0921 14.5314 18.1611 14.767 18.1498L15.0972 18.0484C15.1947 17.9833 15.1825 18.0165 15.2185 18.0664C15.1291 18.2393 15.1282 18.0985 14.9832 18.4326C14.9806 18.4384 14.9772 18.447 14.9748 18.4525L14.9392 18.531C14.8469 18.6323 14.8486 18.45 14.7961 18.7406C14.7742 18.8608 14.8409 18.7425 14.7153 18.8749L14.6551 18.9433C14.6557 19.1173 14.5854 18.9437 14.6508 19.2137C14.6679 19.2844 14.669 19.3153 14.6757 19.3699L14.7382 19.5696L14.8525 19.5002C14.9459 19.4396 14.8327 19.4766 14.953 19.4469C14.9026 19.3277 15.0147 19.377 14.846 19.3243C14.9227 18.9874 15.4124 18.768 15.5221 18.6045C15.557 18.5526 15.566 18.5252 15.6012 18.4776C15.6721 18.522 15.665 18.5153 15.7107 18.588C15.6644 18.666 15.614 18.675 15.5853 18.813L15.7743 18.8681C15.7373 18.7791 15.6961 18.7757 15.7508 18.6915C15.8266 18.792 15.7688 18.7549 15.8735 18.8134L15.902 18.7721C15.9057 18.7661 15.9235 18.7395 15.928 18.7313L16.0383 18.5134C16.0859 18.4585 16.045 18.5488 16.0683 18.4843C16.0227 18.4403 15.986 18.418 15.9355 18.3733C16.0356 18.2275 16.0484 18.3713 16.0698 18.1405C16.0812 18.0193 16.0313 17.9916 16.0336 17.8264L16.1376 17.8442C16.0583 17.691 15.8264 17.5969 15.68 17.4945C15.3277 17.2482 15.4649 17.1773 15.3826 16.9911C15.2148 16.975 14.8038 17.0519 14.6772 17.1154C14.516 17.1962 14.3491 17.3843 14.2497 17.5131C14.2677 17.1882 14.1507 17.0245 13.9861 16.8546C13.7626 16.624 13.709 16.6182 13.3393 16.6126C13.1831 16.645 12.9941 16.7151 12.8508 16.6932C12.7837 16.8089 12.6243 16.7914 12.4985 16.7764C12.3913 16.6392 12.2803 16.393 12.1803 16.2366C12.0967 16.1063 11.8284 15.8391 11.8147 15.8033C11.6117 15.79 11.7287 15.7553 11.6966 15.8716Z" fill="#BC7B7C"/>
<path fill-rule="evenodd" clip-rule="evenodd" d="M11.0857 19.3864C10.9871 19.3294 10.9779 19.3386 10.8739 19.3011C10.9335 19.2797 11.0077 19.3107 11.0295 19.0587C11.0434 18.8965 10.9547 18.9852 11.0188 18.84C11.0784 18.8702 10.9348 18.8787 11.1174 18.8637L11.1523 19.0879C11.3021 18.91 11.4161 18.9983 11.4992 19.0172C11.5286 19.0238 11.5097 19.0195 11.5815 19.0204C11.654 19.021 11.6977 19.0234 11.7615 19.0437C11.835 19.0673 11.8599 19.0864 11.9175 19.1325L12.0187 19.2205C12.0234 19.2246 12.03 19.2308 12.0348 19.2349C12.1406 19.3264 12.2111 19.3315 12.2375 19.5253C12.1513 19.5225 11.8068 19.4076 11.6949 19.3617L11.3647 19.2627C11.307 19.2492 11.2224 19.2261 11.1656 19.263C11.2447 19.3909 11.1665 19.2893 11.2592 19.3088L11.3203 19.3152C11.3816 19.3356 11.4373 19.4299 11.4682 19.4922C11.2183 19.5173 11.3666 19.4357 11.2841 19.5499C11.2132 19.6478 11.259 19.648 11.0565 19.6564C11.0745 19.5383 11.099 19.4963 11.0857 19.3864ZM11.4144 18.2284C11.3717 18.2837 11.3143 18.3267 11.256 18.388C11.1802 18.4679 11.1718 18.5057 11.0893 18.5777C10.9959 18.6859 10.8967 18.8768 10.797 18.9317C10.7447 19.0238 10.8229 18.952 10.6929 18.9981C10.6993 19.0039 10.7094 19.0035 10.7122 19.0152L10.7994 19.1537C10.8067 19.147 10.8169 19.1265 10.8206 19.1327C10.8521 19.1873 10.8232 19.1185 10.9029 19.0497C10.9078 19.0587 10.9209 19.081 10.9234 19.086C10.9489 19.1346 10.9282 19.092 10.9509 19.1402C10.9305 19.1479 10.9727 19.095 10.9198 19.165C10.7835 19.3452 10.8559 19.1468 10.7604 19.3549C10.8579 19.4254 10.7323 19.3652 10.8255 19.4295C10.8307 19.4329 10.8386 19.4382 10.8439 19.4412L10.9292 19.4637C10.9039 19.6277 10.9046 19.4715 10.8649 19.5392C10.9759 19.6065 10.9466 19.6371 11.0572 19.677C11.1652 19.716 11.1412 19.6566 11.2331 19.734L11.3327 19.8458C11.5074 19.8315 11.4377 19.8047 11.553 19.7914C11.5922 19.7869 11.747 19.7588 11.841 19.8218C11.8965 19.759 11.864 19.7792 11.8848 19.7042C11.9765 19.9084 11.9415 19.6928 12.0219 19.8458C11.9364 19.93 12.1267 19.8469 11.9966 19.8437C11.9182 19.8418 12.0238 19.7974 11.9441 19.8458C11.9681 19.8945 11.9938 19.9491 12.0176 19.99C12.065 19.9817 12.0311 19.9952 12.0703 19.968L12.1245 19.9219C12.129 19.9178 12.1365 19.9088 12.1428 19.9026C12.2013 19.9858 12.218 19.968 12.3052 19.9851C12.4511 20.0138 12.3403 19.9461 12.4361 20.092C12.4331 19.948 12.3725 20.0344 12.5506 19.9615C12.5154 19.8435 12.5083 19.812 12.4389 19.7522C12.4378 19.7511 12.3894 19.7177 12.3828 19.7125C12.378 19.7162 12.3701 19.7162 12.3686 19.7235C12.3671 19.7308 12.357 19.7329 12.3549 19.7346L12.23 19.8107C12.1867 19.674 12.1481 19.6155 12.317 19.6322C12.3877 19.6393 12.4312 19.6915 12.5703 19.6459C12.4796 19.509 12.5103 19.5799 12.4777 19.5572L12.4393 19.5364C12.4651 19.468 12.437 19.4745 12.4775 19.4215L12.5756 19.387C12.5795 19.387 12.5889 19.3877 12.5928 19.3881C12.7091 19.3986 12.8383 19.4528 12.8056 19.5985C12.7466 19.8602 12.8439 19.7376 12.7203 19.8107C12.8773 19.8966 12.8615 19.8874 12.9133 19.9911C12.9487 20.0616 12.9948 20.0835 12.9952 20.2039C12.9952 20.2129 12.9928 20.2414 12.9924 20.2495L12.8043 20.2896C12.7201 20.3121 12.7578 20.3036 12.7134 20.3321C12.8351 20.3342 12.776 20.3196 12.8418 20.3621C12.6667 20.4214 12.6161 20.4617 12.5341 20.5868C12.4636 20.6944 12.3862 20.8071 12.3504 20.9571C12.2895 21.2128 12.3553 21.1399 12.1573 21.2846C12.0382 21.3718 11.9771 21.4789 11.862 21.5184L11.8087 21.6669C11.7598 21.7687 11.7928 21.6589 11.7384 21.7843C11.8796 21.6525 12.1475 21.3261 12.3455 21.255C12.4985 21.7804 13.0516 22.1244 13.1227 22.3181C13.1414 22.3689 13.1401 22.4015 13.1527 22.437C13.1883 22.5388 13.2187 22.6063 13.4673 22.4964C13.3269 22.3408 13.442 22.3022 13.4793 22.269C13.4846 22.2643 13.4949 22.2577 13.4994 22.2538C13.5039 22.2502 13.5146 22.2459 13.5196 22.2392L13.3593 22.2707C13.1784 22.0076 13.2517 22.1548 13.1583 22.0372L12.9534 21.7357C12.8178 21.6285 12.7715 21.5229 12.7158 21.327C12.6121 20.9623 12.6823 21.0866 12.6836 20.7983L12.8986 20.8624C12.9046 20.8663 12.9256 20.8834 12.9328 20.8905C12.9418 20.7167 13.049 20.8125 12.9082 20.5725C13.0649 20.4793 13.0852 20.5136 13.1786 20.4006C13.2558 20.3074 13.2866 20.4761 13.2172 20.2952C13.3794 20.3781 13.3685 20.3618 13.5487 20.4004C13.7626 20.4463 13.7452 20.3927 13.8978 20.4364C13.8344 20.3655 13.8644 20.3876 13.8387 20.3368C13.9297 20.2118 14.0607 20.2099 14.2704 20.1568C14.3304 20.3595 14.2505 20.3531 14.3907 20.4988C14.4119 20.5208 14.431 20.5408 14.4505 20.559C14.6028 20.7 14.7198 20.6764 14.8739 21.1558C14.9088 21.2646 14.9131 21.1926 14.8319 21.3167L14.9043 21.3804C14.9641 21.1695 14.9905 21.2556 14.893 21.012C15.0029 20.9824 14.9748 21.0386 14.998 20.9837C15.0185 20.9351 15.0112 20.958 14.9838 20.9809C14.9838 20.7345 14.9677 20.9546 15.0706 20.8586C14.8801 20.8101 14.7903 20.7593 14.7057 20.6141L14.6159 20.4872C14.575 20.4306 14.6163 20.514 14.5848 20.4364C14.5842 20.4349 14.5677 20.34 14.5675 20.3303L14.5732 20.2581C14.5745 20.25 14.5797 20.2228 14.585 20.2142L14.3703 20.1218L14.408 19.9275C14.3217 19.9723 14.4007 19.9225 14.3285 19.9866C13.9747 20.3012 14.1907 20.1051 13.8984 20.2039C13.7416 20.257 13.8963 20.3143 13.6951 20.2883C13.5547 20.2701 13.6694 20.244 13.4836 20.1722C13.4827 20.1805 13.4827 20.1857 13.4819 20.1977C13.4812 20.2091 13.481 20.217 13.4797 20.2215L13.439 20.2894C13.4371 20.2909 13.4433 20.2954 13.3578 20.3286L13.0466 19.7968C13.0183 19.7451 13.0228 19.7595 13.0031 19.7378C12.8956 19.62 12.8971 19.7361 12.8765 19.4494C12.8638 19.2709 12.7704 19.2507 12.7132 19.1288L12.56 19.1277L12.605 19.248C12.5212 19.2175 12.3995 19.1927 12.3206 19.1635C12.1777 19.1104 12.321 19.1136 12.1104 19.0069C12.1102 18.8738 12.0845 18.7414 12.2259 18.7431C12.3688 18.7448 12.2625 18.7427 12.335 18.8108C12.3622 18.8363 12.3566 18.8324 12.3845 18.8579C12.3885 18.8614 12.4005 18.8794 12.4035 18.8736C12.4065 18.868 12.4166 18.8841 12.4231 18.8894C12.3948 18.7613 12.4108 18.8082 12.3285 18.7302C12.138 18.55 12.0382 18.5547 11.9715 18.3152C11.8503 18.3049 11.7172 18.3113 11.7928 18.1103C11.5937 18.1206 11.5689 18.1784 11.4144 18.2284Z" fill="#BC6B6B"/>
<path fill-rule="evenodd" clip-rule="evenodd" d="M12.41 14.6421C12.3712 14.7873 12.2021 14.8351 12.2533 15.067C12.2715 15.1495 12.2493 15.0168 12.2694 15.1426C12.2988 15.3252 12.3671 15.2449 12.366 15.3713C12.6065 15.5839 12.584 15.5982 12.6798 15.9797C12.7188 16.1344 12.8471 16.5525 12.8508 16.6932C12.9941 16.7151 13.1831 16.645 13.3394 16.6127C13.4062 16.5402 13.6143 16.5029 13.7478 16.3701C13.8359 16.2824 13.9869 16.1144 14.0247 15.9707C14.0377 15.8442 13.9964 15.8416 13.9882 15.7041C13.9779 15.5239 14.0324 15.5459 13.9407 15.406C13.8202 15.1701 13.4041 15.3421 13.2821 15.475C13.0869 15.688 13.0981 15.8957 12.9616 16.0718C12.8623 15.7049 12.7361 15.3773 12.6393 14.9789C12.5394 14.5681 12.8681 14.1164 13.0331 14.0618C13.2528 14.0399 13.2397 13.9034 13.223 13.7095C13.1017 13.6422 13.2466 13.7872 13.1409 13.6902C13.0803 13.6345 13.1426 13.7041 13.1223 13.6227C13.0801 13.6621 13.1874 13.6552 13.0454 13.6548C12.7623 14.0755 13.0754 13.7504 12.7233 14.2081C12.6909 14.2501 12.6892 14.2632 12.6571 14.2988C12.5904 14.3718 12.6534 14.3189 12.5731 14.371C12.5458 13.1114 12.9271 13.6051 12.7908 12.8424L12.7715 12.8028C12.6571 12.6067 12.6356 12.4949 12.4513 12.4053C12.2988 12.3311 12.1033 12.4704 12.0399 12.605C11.8873 12.9282 12.2786 13.391 12.4687 13.4913L12.41 14.6421Z" fill="#757B56"/>
<path fill-rule="evenodd" clip-rule="evenodd" d="M13.9032 11.6278C14.0092 11.6599 13.9921 11.6672 14.0752 11.7692L14.1262 11.8307C14.1736 11.9083 14.1117 11.9597 14.0328 12.0712L14.0808 12.0909L14.1325 12.0324C14.4061 11.6938 14.072 11.8202 14.0615 11.5309C14.2287 11.4379 14.4348 11.4229 14.5868 11.5491C14.59 11.3745 14.66 11.4013 14.5859 11.2354C14.4455 10.9215 14.3928 11.0651 14.4305 10.8015C14.0568 10.6695 13.9486 10.7689 13.4885 10.5392C13.049 10.3198 13.3574 10.5611 12.9106 10.1974C12.8381 10.1383 12.8274 10.1301 12.7784 10.062C12.8956 10.084 13.0717 10.2415 13.1709 10.3058L13.6357 10.5458C13.8472 10.6654 14.1335 10.6956 14.3819 10.7209C14.609 10.7438 14.6808 10.6581 14.5913 10.467C14.7378 10.4644 14.6127 10.5422 14.7188 10.4642L14.8355 10.3695C14.9309 10.2928 14.8829 10.2733 14.971 10.2321C15.0483 10.1961 14.9855 10.2255 15.0451 10.2124C15.0149 10.1884 14.972 10.1543 14.9603 10.1344L14.9223 10.074C14.639 10.1286 14.3669 10.0148 14.1241 10.0202C13.8412 10.0264 13.8235 10.2546 13.5112 10.3035C13.571 10.1046 13.5822 10.1496 13.6591 10.0787C13.8018 9.94733 13.7545 9.98247 13.7872 9.99683C13.5779 9.99426 13.0996 10.0142 12.9592 9.92632C12.7237 9.85325 12.0995 9.65203 11.8642 9.81275C12.0783 9.98247 12.3789 9.84275 12.6172 10.2148C12.8531 10.5827 12.7593 10.5373 13.1122 10.9223L13.3306 10.8784C13.4028 11.0179 13.4054 11.0541 13.4109 11.2633C13.4547 11.2931 13.8693 11.5843 13.9032 11.6278Z" fill="#82A58D"/>
<path fill-rule="evenodd" clip-rule="evenodd" d="M14.9043 21.3804C14.9157 21.5293 14.8553 21.6448 14.8246 21.7796C14.9123 21.8293 14.8814 21.812 14.9448 21.881C15.0711 22.0183 15.1448 22.034 15.1555 22.2888C15.1474 22.283 15.1373 22.2763 15.1306 22.2721L14.8767 22.1026C14.8381 22.0736 14.8566 22.0816 14.8096 22.0672C14.8191 22.1589 14.851 22.1788 14.8998 22.2277C14.8763 22.3012 14.8677 22.2763 14.8482 22.3096C14.773 22.4364 14.8428 22.1812 14.8308 22.3434C14.8244 22.4293 14.8503 22.3771 14.8527 22.3805C14.9785 22.5575 14.9406 22.4572 15.0383 22.556L15.0931 22.631C15.0216 22.6567 15.0055 22.6183 14.9538 22.6558C14.9009 22.6944 14.9108 22.7236 14.9056 22.7431C15.3565 23.0465 15.2836 23.0231 15.5406 23.3392C15.8273 23.6919 15.8526 23.5263 15.8663 24.0813C15.868 24.1486 15.8571 24.1042 15.8751 24.1717C15.8929 24.2386 15.8819 24.2133 15.9156 24.2549L16.1344 23.3334C16.2055 23.0469 16.2002 22.6378 16.1599 22.3396C16.1222 22.061 16.0165 21.7271 15.9998 21.4974C15.7759 21.561 15.7094 21.608 15.4379 21.5351C15.2129 21.4745 15.1469 21.3988 14.9776 21.3144L14.9043 21.3804Z" fill="#A7BBB7"/>
<path fill-rule="evenodd" clip-rule="evenodd" d="M16.2102 18.9173C16.2042 18.9225 16.1961 18.9233 16.1935 18.9338C16.1909 18.9441 16.1804 18.9467 16.177 18.9501C16.0486 19.0841 16.0156 19.077 15.9706 19.1738C16.0962 19.2276 16.1946 19.239 16.3154 19.3129C16.4804 19.4136 16.4406 19.4423 16.5919 19.5418C16.4768 19.5793 17.161 19.6236 17.2632 19.596C17.35 19.8034 17.2191 19.5853 17.4278 19.7638C17.4803 19.8086 17.4145 19.7754 17.4705 19.8105C17.526 19.8452 17.5502 19.8321 17.6385 19.8321C17.6046 19.9213 17.6055 19.9288 17.628 20.0274C17.6794 19.9446 17.7492 19.8422 17.9023 19.938C17.8682 20.1225 17.9059 19.9305 17.7861 20.1006C17.7756 20.1156 17.7778 20.1317 17.7452 20.1786C17.6515 20.1851 17.5727 20.1771 17.5032 20.2196L17.256 20.5209C17.2615 20.5241 17.2688 20.5254 17.2718 20.532C17.275 20.5397 17.2879 20.5389 17.292 20.5393C17.2975 20.5399 17.338 20.5393 17.3483 20.5391C17.737 20.4682 17.8418 19.8615 19.1089 19.8881C19.0781 19.8576 19.092 19.8675 19.0455 19.8386C18.9681 19.7904 18.8882 19.7882 18.7283 19.6907C18.4354 19.5116 18.372 19.4108 18.0415 19.2737C17.7582 19.1561 17.4857 18.6825 17.0087 18.6535C16.5548 18.6259 16.4558 18.8944 16.2102 18.9173Z" fill="#949D86"/>
<path fill-rule="evenodd" clip-rule="evenodd" d="M14.6862 11.7838L14.4271 12.0536C14.4246 12.0484 14.416 12.0654 14.4104 12.0711C14.3554 12.3405 14.3931 12.3019 14.4415 12.537L14.5358 13.8789C14.5478 14.0124 14.5358 14.0632 14.6007 14.132C14.6275 13.9869 14.6401 14.1202 14.6449 13.9824C14.6476 13.9074 14.6157 13.8967 14.6166 13.8665C14.6224 13.8618 14.6322 13.8483 14.6352 13.8543C14.6382 13.86 14.65 13.8444 14.6543 13.8423C14.8319 13.752 14.7353 13.8412 14.8283 13.752C14.8949 13.9091 14.7981 13.7938 14.953 13.8626C15.0156 13.7593 15.0227 13.8506 15.0235 13.7649C15.1459 13.8352 15.3107 14.0231 15.2744 13.5562L15.2564 13.5322C15.1832 13.3815 15.2749 13.4949 15.2365 13.3271C15.136 13.2302 15.0197 12.9347 14.8911 12.7892C14.7764 12.6596 14.7726 12.7151 14.6922 12.5263C14.6254 12.3697 14.5874 12.3915 14.524 12.2674C14.5696 12.1419 14.6984 12.0975 14.7998 12.0636C14.9363 12.1918 15.073 12.3521 15.0837 12.5968C15.0882 12.6986 15.1041 12.7511 15.1347 12.8874L15.2108 13.1765C15.2123 13.172 15.2159 13.1934 15.2198 13.2013C15.346 13.2195 15.2569 13.2294 15.3827 13.242C15.415 13.1338 15.382 13.0282 15.5856 13.1216C15.6902 13.1694 15.7032 13.3194 15.7202 13.355L15.7617 13.2892C15.7658 13.2845 15.7731 13.2763 15.777 13.2718L15.8123 13.2373C15.8929 13.2506 15.8916 13.2534 15.9413 13.2853C15.9214 13.0395 15.831 12.9401 15.8359 12.6789L15.8256 12.5098C15.6229 12.2904 16.0851 11.8794 14.9882 11.7341C14.8988 11.7692 14.8075 11.7994 14.6862 11.7838Z" fill="#CA8C92"/>
<path fill-rule="evenodd" clip-rule="evenodd" d="M14.4929 15.6295C14.347 15.5489 14.2535 15.2309 14.3864 15.017C14.4284 14.9491 14.3821 14.9723 14.4685 14.9377L14.677 14.9144C14.8533 15.1218 14.7578 15.0783 14.926 15.2435C14.9091 15.3479 14.8973 15.3638 14.8848 15.46L14.7689 15.3286C14.5255 15.4973 14.5576 15.5673 14.4929 15.6295ZM13.9407 15.406C14.0324 15.5459 13.978 15.5238 13.9882 15.7041C13.9964 15.8416 14.0377 15.8442 14.0247 15.9706C14.1563 16.0064 14.0643 15.9586 14.2246 16.1553C14.3819 16.3484 14.6315 16.4622 14.8214 16.6326C14.9178 16.7189 15.0571 16.9304 15.2733 16.8544C15.4763 16.783 15.4718 16.5764 15.4806 16.3366C15.3651 16.3673 15.3893 16.3838 15.2886 16.3011C15.4332 16.2423 15.3597 15.8466 15.2967 15.6983C15.2483 15.5845 15.2526 15.6856 15.2337 15.565C15.2095 15.4103 15.2948 15.6526 15.2421 15.4433C15.2076 15.3065 15.2532 15.3983 15.1396 15.3275C15.1053 15.3061 15.0779 15.2952 15.0346 15.2742C15.0436 15.2035 14.9641 15.0166 15.1066 15.1503C14.9843 14.9926 14.9963 14.6763 15.0066 14.4494C14.8752 14.3954 14.9716 14.3868 14.6965 14.348L14.2803 14.816C14.1254 15.0153 14.1106 15.0404 14.0452 15.2534C13.994 15.4203 14.0195 15.3721 13.9407 15.406Z" fill="#C48B8B"/>
<path fill-rule="evenodd" clip-rule="evenodd" d="M11.8391 20.4006L12.2323 20.3927C12.1841 20.4885 11.9867 20.7371 11.9042 20.7851L11.8391 20.4006ZM10.6569 19.5896L10.8739 20.0434C11.0132 20.1073 11.0484 20.1833 11.2464 20.2641C11.4124 20.3316 11.4592 20.4017 11.5873 20.5416C11.8509 20.8288 11.951 20.9227 11.7617 21.4425C11.5849 21.9285 11.3634 22.0974 11.3224 22.214C11.2022 22.5547 11.0137 22.7994 11.0312 23.1198C11.2241 22.8532 11.3383 22.4203 11.5312 22.1015C11.5811 22.019 11.7131 21.8486 11.7384 21.7843C11.7928 21.659 11.7598 21.7687 11.8087 21.6669L11.862 21.5184C11.9349 21.2651 12.0341 21.0013 12.162 20.7971C12.23 20.6891 12.3127 20.5811 12.3798 20.4934C12.4895 20.3501 12.5055 20.3766 12.7134 20.3321C12.7578 20.3036 12.72 20.3121 12.8043 20.2896L12.9924 20.2496C12.9928 20.2414 12.9952 20.2129 12.9952 20.2039C12.9948 20.0835 12.9487 20.0616 12.9133 19.9911C12.8615 19.8874 12.8773 19.8966 12.7203 19.8107C12.8439 19.7376 12.7466 19.8602 12.8055 19.5985C12.8383 19.4528 12.7091 19.3986 12.5928 19.3881C12.5889 19.3877 12.5795 19.387 12.5756 19.387L12.4775 19.4215C12.437 19.4745 12.465 19.468 12.4393 19.5364L12.4777 19.5572C12.5103 19.5799 12.4796 19.509 12.5703 19.6459C12.4312 19.6916 12.3877 19.6393 12.317 19.6322C12.1481 19.6155 12.1867 19.674 12.23 19.8107L12.3549 19.7346C12.357 19.7329 12.3671 19.7308 12.3686 19.7235C12.3701 19.7162 12.378 19.7162 12.3828 19.7126C12.3894 19.7177 12.4378 19.7511 12.4389 19.7522C12.5083 19.812 12.5154 19.8435 12.5505 19.9616C12.3725 20.0344 12.4331 19.9481 12.4361 20.0921C12.3403 19.9461 12.4511 20.0138 12.3052 19.9851C12.218 19.968 12.2012 19.9858 12.1427 19.9026C12.1365 19.9088 12.129 19.9178 12.1245 19.9219L12.0703 19.968C12.0311 19.9952 12.065 19.9817 12.0176 19.9901C11.9938 19.9491 11.9681 19.8945 11.9441 19.8458C12.0238 19.7974 11.9182 19.8418 11.9966 19.8437C12.1267 19.8469 11.9364 19.9301 12.0219 19.8458C11.9415 19.6928 11.9765 19.9084 11.8847 19.7042C11.864 19.7792 11.8965 19.7591 11.841 19.8218C11.747 19.7588 11.5922 19.7869 11.553 19.7914C11.4377 19.8047 11.5074 19.8315 11.3327 19.8458L11.2331 19.734C11.1412 19.6566 11.1652 19.716 11.0572 19.677C10.9466 19.6371 10.9759 19.6065 10.8649 19.5392C10.9046 19.4715 10.9039 19.6277 10.9292 19.4638L10.8439 19.4413C10.8386 19.4383 10.8306 19.4329 10.8255 19.4295C10.7323 19.3652 10.8579 19.4254 10.7604 19.3549C10.8559 19.1468 10.7835 19.3453 10.9198 19.165C10.9727 19.095 10.9305 19.1479 10.9509 19.1402C10.9281 19.092 10.9489 19.1346 10.9234 19.086C10.9209 19.081 10.9078 19.0588 10.9029 19.0498C10.8231 19.1185 10.8521 19.1873 10.8206 19.1327C10.8169 19.1265 10.8066 19.147 10.7994 19.1537L10.7121 19.0153C10.7094 19.0035 10.6993 19.0039 10.6929 18.9981C10.6866 19.0075 10.5656 19.0408 10.5109 19.1402C10.5954 19.3585 10.6605 19.1693 10.6569 19.5896Z" fill="#A7575A"/>
<path fill-rule="evenodd" clip-rule="evenodd" d="M14.953 19.4469C14.9279 19.496 14.9142 19.4527 14.953 19.5084C15.3081 19.5082 15.2168 19.3646 15.3055 19.4715C15.3057 19.4715 15.9578 19.2857 16.1505 19.4383C16.2034 19.4805 16.1723 19.4897 16.2792 19.5875C16.3463 19.6492 16.3729 19.7349 16.4166 19.7977C16.4337 19.8223 16.4997 19.8982 16.5 19.8982C16.546 19.9792 16.5657 20.2104 16.4565 20.3456C16.3324 20.237 16.3605 20.2098 16.1505 20.2449C16.1742 20.0857 16.1091 20.1395 16.0075 20.021L15.526 19.644C15.4598 19.611 15.3959 19.6035 15.3212 19.5397C15.2459 19.8238 14.9836 19.6704 14.9316 19.7522C14.9305 19.754 14.9273 19.7621 14.9266 19.7642L14.953 19.8767C15.208 19.824 15.5087 20.0257 15.673 20.1967L15.8427 20.3694C15.8997 20.4165 15.9452 20.49 16.0159 20.5057C16.1584 20.537 16.107 20.4566 16.1496 20.391L16.2415 20.306C16.26 20.4178 16.3442 20.3814 16.3506 20.3842L16.6523 20.522C16.7839 20.567 16.7462 20.4757 16.8133 20.6514C16.9513 20.64 16.8544 20.6563 16.8887 20.613C16.8598 20.5018 16.8212 20.451 16.803 20.3595C16.7239 19.9629 16.7453 19.9715 16.6105 19.602C16.5868 19.5371 16.6043 19.6115 16.5919 19.5418C16.4406 19.4424 16.4805 19.4137 16.3155 19.3129C16.1946 19.239 16.0962 19.2277 15.9707 19.1739C16.0157 19.077 16.0487 19.0841 16.177 18.9502C16.1805 18.9467 16.191 18.9442 16.1935 18.9339C16.1961 18.9234 16.2042 18.9225 16.2102 18.9174C16.3287 18.6733 16.3821 18.6979 16.3592 18.3414C16.3444 18.1134 16.302 17.9179 16.1376 17.8442L16.0337 17.8264C16.0313 17.9916 16.0812 18.0193 16.0699 18.1406C16.0485 18.3714 16.0356 18.2276 15.9355 18.3733C15.9861 18.4181 16.0227 18.4404 16.0684 18.4843C16.045 18.5488 16.086 18.4586 16.0384 18.5134L15.928 18.7314C15.9235 18.7395 15.9057 18.7661 15.9021 18.7721L15.8736 18.8134C15.7688 18.7549 15.8267 18.792 15.7508 18.6915C15.6962 18.7757 15.7373 18.7792 15.7744 18.8681L15.5854 18.813C15.6141 18.675 15.6644 18.666 15.7107 18.588C15.6651 18.5154 15.6722 18.522 15.6012 18.4776C15.5661 18.5252 15.5571 18.5526 15.5222 18.6045C15.4124 18.768 14.9228 18.9874 14.8461 19.3243C15.0147 19.377 14.9026 19.3277 14.953 19.4469Z" fill="#993A45"/>
<path fill-rule="evenodd" clip-rule="evenodd" d="M16.5895 12.5955C16.8529 12.485 16.9819 12.4076 17.2855 12.5126L17.193 12.6733C17.1313 12.6551 17.142 12.6401 17.095 12.6375C16.8735 12.6255 17.16 12.6487 16.8808 12.6847C16.837 12.6903 16.8769 12.6712 16.816 12.6948L16.7657 12.7286C16.7445 12.75 16.7222 12.8253 16.6337 12.905C16.576 12.9568 16.5135 13.0055 16.4702 13.0764L16.3868 13.2065C16.0542 13.6301 16.279 13.4493 16.1157 13.6751C16.06 13.7521 16.0349 13.8093 16.0577 13.8971C16.1633 13.937 16.1633 13.8999 16.2182 13.8699C16.2822 13.8348 16.2424 13.8616 16.2985 13.8359C16.4509 13.7656 16.425 13.7056 16.5471 13.6207C16.5025 13.5614 16.483 13.5129 16.4157 13.5136L16.6825 13.0831C16.7517 12.9151 16.5981 13.1559 16.7166 13.0233L16.779 12.9774C16.7817 12.9753 16.7892 12.9695 16.7922 12.9671L16.8724 12.8986C16.879 12.8932 16.8977 12.8761 16.9041 12.8718C16.9894 12.8145 16.9853 12.8546 16.9875 12.8546C17.0706 12.8525 17.1083 12.6804 17.3072 12.881C17.2948 13.0415 17.3068 12.8733 17.2753 12.983C17.25 13.0711 17.2851 13.169 17.2834 13.3057L16.9425 13.2699C16.8428 13.2541 16.9365 13.271 16.851 13.2421C16.858 13.2907 16.8625 13.3151 16.8623 13.3329C16.8591 13.5106 16.947 13.2982 16.8445 13.3764C16.783 13.4231 16.6898 13.3348 16.7145 13.4909C16.774 13.4645 16.8321 13.4182 16.9003 13.4866C17.0003 13.5869 16.9431 13.5866 16.8274 13.682C16.7269 13.7647 16.7194 13.7928 16.6026 13.8245C16.6551 13.8284 16.7177 13.9529 16.7552 14.0013L16.7892 14.0469C16.7498 14.0737 16.8595 14.1144 16.662 14.0904L16.75 14.2113C16.5912 14.2027 16.6341 14.2263 16.5437 14.1594C16.5846 14.1886 16.5951 14.2595 16.533 14.3058C16.4571 14.3622 16.3467 14.3148 16.2735 14.2981C16.294 14.3637 16.2865 14.3506 16.3292 14.3889C16.4515 14.4029 16.4451 14.3954 16.5572 14.474C16.8278 14.5794 16.7325 14.4297 16.9986 14.6124C17.13 14.7029 17.1094 14.6465 17.163 14.633L17.2052 14.6202C17.211 14.6187 17.22 14.6167 17.2258 14.6157C17.2892 14.603 17.2238 14.6193 17.3053 14.6062L17.4964 14.5471C17.5506 14.5203 17.6121 14.4579 17.7758 14.4659L17.814 14.5974C17.9717 14.5475 17.8708 14.6084 17.9441 14.5218L17.9513 14.5683C17.9921 14.5229 17.9807 14.5582 18.0128 14.4693C18.0426 14.3862 18.0353 14.3868 18.0349 14.3084L18.0253 14.1543C18.0248 14.1423 18.0238 14.1382 18.0214 14.1307C17.9818 14.1429 17.9633 14.1794 17.8901 14.1905C17.7229 14.2162 17.8579 14.2124 17.7713 14.1723L17.8174 14.3669C17.5285 14.384 17.6691 14.2955 17.4889 14.2842C17.5198 14.3347 17.52 14.2814 17.5024 14.3907L17.4889 14.4457C17.2485 14.3369 17.2821 14.3765 17.1145 14.4046L16.9553 14.2004C16.9746 14.1907 17.01 14.1787 17.0151 14.1768L17.1563 14.1294C17.161 14.1281 17.1713 14.1262 17.1756 14.1251L17.2457 14.0231C17.3046 13.7842 17.529 13.8811 17.6584 13.7169L17.7043 13.6021C17.7064 13.5716 17.6614 13.5481 17.7135 13.4403C17.7756 13.3113 17.736 13.4126 17.7332 13.2481C17.733 13.2446 17.7334 13.2352 17.7336 13.2324C17.7379 13.1422 17.7615 13.2493 17.7452 13.2043C17.6539 13.1662 17.5748 13.1334 17.5851 13.0057C17.5943 12.89 17.6661 12.8975 17.6976 12.8188C17.6458 12.603 17.2778 12.276 16.8735 12.4093C16.765 12.4449 16.648 12.5113 16.5895 12.5955Z" fill="#C48384"/>
<path fill-rule="evenodd" clip-rule="evenodd" d="M12.9592 9.92636C13.0996 10.0142 13.5779 9.99429 13.7872 9.99686C13.7545 9.9825 13.8018 9.94736 13.6591 10.0787C13.5822 10.1496 13.571 10.1046 13.5112 10.3035C13.8235 10.2546 13.8412 10.0264 14.1241 10.0202C14.3669 10.0149 14.639 10.1286 14.9223 10.074L14.9603 10.1344L15.0198 10.1256C15.1701 10.008 15.6424 10.1076 15.9921 9.87214L16.0997 9.77099C15.8982 9.58413 16.1121 9.57428 15.8952 9.65742C15.8918 9.65892 15.883 9.66149 15.8794 9.66278L15.8067 9.68035C15.7336 9.69685 15.8264 9.71957 15.7424 9.68999C15.7831 9.54813 15.766 9.74207 15.8114 9.58778C15.8622 9.41527 15.7549 9.42685 15.5622 9.38506C15.5929 9.29099 15.5611 9.3407 15.5479 9.23034C15.4126 9.28177 15.2193 9.44163 15.1049 9.5327C15.0166 9.60321 15.0884 9.55842 14.9669 9.61006C14.8248 9.67071 14.7753 9.73671 14.6639 9.77335C14.5156 9.822 14.3873 9.837 14.2169 9.84342C14.3048 9.73842 14.252 9.783 14.4518 9.73735C14.5238 9.72085 14.5799 9.68999 14.6489 9.65956C14.7693 9.60642 14.9221 9.58071 15.0342 9.52906C15.1953 9.45427 15.1128 9.46885 15.2646 9.35613C15.2701 9.35206 15.2781 9.34756 15.2836 9.34349C15.5127 9.17377 15.5556 9.01091 15.5751 8.99012L15.5031 8.92326C15.4716 8.88662 15.4876 8.92026 15.4641 8.86176C15.5395 8.68969 15.4956 8.57268 15.4658 8.41882C15.2258 8.52961 15.2963 8.62904 14.9478 8.88619C14.6575 9.10048 14.3474 9.55285 14.2038 9.64735C13.742 9.95079 13.9492 9.95593 13.4804 9.95271C13.3104 9.95164 13.1285 9.94393 12.9592 9.92636Z" fill="#A6CAA5"/>
<path fill-rule="evenodd" clip-rule="evenodd" d="M9.37073 17.146C9.39623 17.1895 9.92617 17.8137 10.0168 17.8635C10.1115 17.8905 10.1724 17.9663 10.2532 18.039C10.2577 18.0433 10.2645 18.0493 10.269 18.0533L10.3183 18.0951C10.607 18.337 10.4366 18.3295 10.5963 18.4369L10.613 18.394C10.6138 18.3411 10.6061 18.34 10.6055 18.3377C10.5555 18.1909 10.5714 18.4258 10.5633 18.2505C10.6695 18.2218 10.6252 18.2526 10.7045 18.2985L10.8326 18.3593C10.9198 18.4078 10.9492 18.486 10.9955 18.5245C11.0572 18.576 10.994 18.5479 11.0893 18.5777C11.1718 18.5057 11.1802 18.468 11.2561 18.388C11.3143 18.3268 11.3718 18.2837 11.4144 18.2284C11.0973 17.4154 10.4203 16.4881 9.40009 16.4031L9.43759 16.4324C9.44423 16.4371 9.46801 16.4536 9.47594 16.4586C9.68852 16.5917 9.50637 16.4251 9.88995 16.7185L9.93024 16.7462C10.0087 16.7894 10.1548 16.7858 10.2056 16.978C10.2217 17.0387 10.208 17.0492 10.1983 17.116C10.2328 17.1209 10.2384 17.1207 10.272 17.1278C10.3944 17.1537 10.35 17.1649 10.3912 17.2236C10.4853 17.358 10.491 17.2997 10.6046 17.385C10.8898 17.5995 10.8388 17.7484 10.875 17.8221C10.8015 17.8296 10.7962 17.8317 10.7497 17.8545C10.712 17.8174 10.7107 17.8122 10.6764 17.77C10.5305 17.5902 10.5671 17.7267 10.4383 17.5793C10.3342 17.46 10.445 17.4705 10.2956 17.4574C10.292 17.457 10.215 17.4593 10.2054 17.4565C10.0757 17.4175 10.146 17.3172 10.0708 17.2137L9.91845 17.0841C9.86617 17.0492 9.85867 17.0438 9.79845 17.0097L9.76781 17.176C9.65873 17.1627 9.67995 17.1497 9.55309 17.1473C9.4093 17.1447 9.4798 17.1696 9.37073 17.146Z" fill="#778967"/>
<path fill-rule="evenodd" clip-rule="evenodd" d="M12.254 17.0003C12.2202 17.1349 12.1728 17.1527 12.0944 17.2658C12.0618 17.3127 12.0474 17.3339 12.0061 17.392C11.9654 17.4492 11.9956 17.4349 11.9373 17.4835C11.8972 17.5469 11.9688 17.5054 11.8507 17.5525C11.9199 17.6841 11.8548 17.9207 11.8469 18.1047C12.0509 17.9286 11.9634 18.1219 12.1102 17.8515C12.152 18.1581 12.0894 18.0752 12.2817 18.2224L12.6468 18.5413C12.8045 18.6503 12.7405 18.5588 12.8455 18.7033C12.9254 18.8134 12.994 18.9373 13.0252 19.0817C13.1969 19.0438 13.2355 18.9966 13.2635 18.8616C13.0409 18.6975 13.0878 18.8736 13.0111 18.597C12.991 18.5243 12.9738 18.5046 12.9374 18.4305C12.89 18.3342 12.8937 18.3315 12.811 18.2749L12.8785 18.2044C12.881 18.2016 12.8881 18.1943 12.8926 18.1892C12.7627 18.1024 12.787 18.0711 12.8253 17.937L12.836 17.9048C12.8885 17.9271 12.8812 17.9226 12.944 17.959C12.9507 17.9631 12.9577 17.968 12.9644 17.9719L13.0507 18.0227C13.0561 18.0147 13.0617 17.9918 13.0632 17.9963C13.0645 18.0008 13.0722 17.977 13.0737 17.9704L13.0368 17.7467C12.9974 17.6614 12.9562 17.6243 12.905 17.5448C12.9485 17.3787 13.0475 17.3286 12.9033 17.2315L13.0293 17.1767C12.9946 17.0907 13.0486 17.1398 12.974 17.0989C13.0248 17.0819 13.024 17.0839 13.0507 17.0684C13.0968 17.1342 13.1489 17.2154 13.222 17.2405L13.2505 17.2437C13.3953 17.2682 13.1287 17.1863 13.2843 17.2469C13.3981 17.2913 13.4521 17.4385 13.4988 17.5405L13.6 17.5142C13.61 17.5274 13.6805 17.5352 13.6036 17.5337L13.582 17.4537C13.6126 17.2649 13.6501 17.4985 13.6203 17.2542C13.6285 17.2604 13.6394 17.2692 13.645 17.2729L13.7103 17.2992C13.6949 17.2397 13.7163 17.1957 13.6598 17.1732C13.5177 17.1169 13.7075 17.1576 13.624 17.1741L13.3662 17.0442C13.1422 16.7211 13.0246 16.9742 12.832 17.0232L12.8836 17.14C12.8866 17.1342 12.8945 17.1638 12.8973 17.1764L12.6552 17.0633C12.5641 17.0082 12.5949 16.9727 12.4679 16.9817C12.4672 17.1192 12.4304 17.1246 12.3586 17.167L12.2832 17.0472C12.2797 17.0417 12.2712 17.0372 12.2688 17.0239C12.2662 17.0106 12.2589 17.008 12.254 17.0003Z" fill="#CA9898"/>
<path fill-rule="evenodd" clip-rule="evenodd" d="M16.0268 15.0288C16.0007 15.098 15.9863 15.0991 15.9707 15.1259C15.9492 15.1625 15.9709 15.0807 15.9385 15.1823C15.9975 15.2365 16.0219 15.2395 16.0731 15.2817C15.9885 15.3108 15.9499 15.2483 16.0054 15.5005C16.179 15.5656 16.2381 15.6597 16.3264 15.8009L16.4809 16.0173C16.5156 16.0801 16.4995 16.1924 16.6425 16.348L16.7271 16.4526C16.7599 16.5006 16.7243 16.4851 16.7773 16.5169C16.8694 16.5717 16.8265 16.5203 16.8336 16.5147C16.8347 16.5349 16.8293 16.6084 16.8293 16.6096L16.9309 16.8698C16.8171 16.9141 16.9118 16.9525 16.7286 16.9101C16.6095 16.8822 16.5377 16.8882 16.4803 16.8164C16.4254 16.7474 16.4779 16.7851 16.402 16.7106C16.192 16.5042 16.2664 16.4498 16.1112 16.4187C15.9921 16.3951 15.9595 16.4742 15.8545 16.3673C15.726 16.2361 15.8479 16.2513 15.753 16.072C15.7418 16.051 15.6921 15.9779 15.6829 15.9629C15.6792 15.9571 15.6745 15.9496 15.6709 15.9436C15.4105 15.5232 15.7208 15.7248 15.5509 15.6179C15.4532 15.6408 15.484 15.5735 15.4967 15.6824C15.46 15.7143 15.484 15.6828 15.5084 15.7795C15.4817 15.8082 15.5219 15.9323 15.3824 15.796L15.4628 16.0236C15.5918 16.1776 15.5685 15.9852 15.5753 16.1463L15.5614 16.2237C15.5601 16.2286 15.5539 16.2518 15.5528 16.2473C15.5517 16.2423 15.5481 16.2644 15.5429 16.2715C15.5541 16.507 15.8993 16.8145 16.0845 16.9041C16.2938 17.005 16.7278 17.1362 16.9474 17.1983C17.0021 17.1299 17.0327 17.0515 17.0841 16.9752C17.1538 16.8724 17.4186 16.6416 17.5554 16.4185C17.5708 16.3287 17.6184 16.2548 17.5761 16.1796C17.5001 16.0435 17.3453 16.372 17.298 16.4157C17.2958 16.4179 17.2868 16.4239 17.2849 16.4254C17.2828 16.4271 17.2716 16.4386 17.2701 16.4341C17.2684 16.4294 17.2598 16.4404 17.2541 16.4425L17.1621 16.3746C17.1628 16.2638 17.1739 16.3034 17.1915 16.1948C17.1396 16.1592 17.0179 16.0878 17.0063 16.0184C16.9727 15.8181 17.0503 16.1026 17.0175 15.9612C16.8424 16.0135 16.626 15.6773 16.5418 15.5555C16.446 15.4175 16.2115 15.1405 16.0635 15.1083L16.0887 15.073C16.1605 14.9757 16.2049 14.9913 16.3337 14.9958L16.2825 14.893C16.282 14.8923 16.2771 14.8957 16.2767 14.8934C16.2763 14.8902 16.2739 14.8975 16.2724 14.8996C16.4389 14.9129 16.3056 14.9107 16.3596 14.8675C16.1678 14.8705 16.1325 14.765 16.1151 14.8542C16.1132 14.8642 16.144 14.9568 16.0847 15.011C15.9109 15.1703 16.2201 15.0316 16.0268 15.0288Z" fill="#AB4F50"/>
<path fill-rule="evenodd" clip-rule="evenodd" d="M10.874 20.0434L10.6569 19.5896C10.598 19.6753 10.6402 19.5947 10.3725 19.4231C10.2744 19.3601 10.3299 19.3766 10.2165 19.3974C10.0676 19.4248 10.0678 19.4638 10.0132 19.4854C9.88501 19.4006 9.82673 19.3108 9.69601 19.2651C9.60494 19.2332 9.56315 19.2377 9.49436 19.1912C9.42965 19.1475 9.44936 19.1265 9.34865 19.0935C9.41186 19.1061 9.46394 19.1228 9.56272 19.1196C9.56208 19.1183 9.52887 19.0491 9.52244 19.0363C9.50658 19.0041 9.52737 19.0241 9.48365 18.9773L9.40929 18.8884C9.2055 18.6641 9.3075 18.9516 9.07478 18.5458C9.24772 18.564 9.16886 18.5764 9.30236 18.5186C9.53229 18.4193 9.43072 18.3827 9.5803 18.5543L9.7063 18.4322C9.8713 18.4431 10.0762 18.5171 10.1359 18.6495C10.1413 18.645 10.1479 18.6293 10.1505 18.6347C10.1563 18.6458 10.1559 18.6041 10.2587 18.5796L10.4027 18.6581C10.5028 18.7161 10.4456 18.6945 10.5223 18.7601C10.5917 18.8192 10.7184 18.8837 10.797 18.9317C10.8967 18.8768 10.9959 18.6859 11.0893 18.5777C10.994 18.5479 11.0572 18.576 10.9955 18.5245C10.9492 18.486 10.9198 18.4078 10.8326 18.3593L10.7045 18.2985C10.6252 18.2526 10.6695 18.2218 10.5632 18.2505C10.5714 18.4258 10.5555 18.1909 10.6055 18.3377C10.6061 18.34 10.6138 18.3411 10.613 18.394L10.5962 18.4369C10.4366 18.3295 10.607 18.337 10.3183 18.0951L10.269 18.0533C10.2645 18.0493 10.2577 18.0433 10.2532 18.039C10.1724 17.9663 10.1115 17.8905 10.0168 17.8635C10.0524 17.9378 10.6612 18.5876 10.7546 18.7451C10.6419 18.7106 10.5669 18.6521 10.4548 18.6053C10.3445 18.5593 10.2324 18.5237 10.1186 18.4843C9.72623 18.3478 8.92864 18.2235 8.54291 18.3475C8.33034 18.4159 7.97997 18.3814 7.84454 18.5573C7.95576 18.7264 8.78271 18.9306 9.01864 19.0281L10.1274 19.6384C10.2448 19.7081 10.3567 19.7599 10.4863 19.8302C10.5958 19.8896 10.7612 20.0002 10.874 20.0434Z" fill="#74A37C"/>
<path fill-rule="evenodd" clip-rule="evenodd" d="M17.5617 7.91524C17.568 7.77016 17.5455 7.85138 17.6511 7.8263C17.6556 7.83059 17.664 7.82995 17.6659 7.83766L17.8358 7.97588C17.7432 7.87859 17.8583 7.86916 17.868 7.85845C17.9854 7.89745 17.899 7.91695 17.9732 7.86145C18.25 7.65487 18.3465 7.97695 18.382 8.00631C18.4513 8.06267 18.5113 7.97609 18.6401 8.05774C18.6645 7.72195 18.5462 7.73823 18.4397 7.51987C18.37 7.37694 18.3163 7.09429 18.381 6.92843C18.384 6.66035 18.3124 6.53092 18.2985 6.31127C18.2848 6.09527 18.3878 5.93776 18.3778 5.74512L18.1592 5.90155C18.0818 5.96219 18.0452 6.03119 17.9933 6.13127C17.9372 6.23991 17.9209 6.31363 17.8776 6.41413C17.803 6.58728 17.2785 7.26786 17.5137 7.83273C17.5485 7.91588 17.523 7.86638 17.5617 7.91524Z" fill="#779A86"/>
<path fill-rule="evenodd" clip-rule="evenodd" d="M18.6272 9.29317C18.7766 9.25888 18.9518 8.89501 19.2889 8.78573C20.0349 8.54401 20.1536 9.25524 21.0894 9.23767C21.3399 9.23295 22.0036 9.25824 22.1559 9.13909C22.0291 9.07652 21.585 8.92844 21.233 8.75101C20.5967 8.43 20.4999 8.21228 19.7434 8.40365C19.548 8.45293 19.2609 8.64794 19.1179 8.76044C18.9508 8.89223 18.6739 9.10952 18.6272 9.29317Z" fill="#699679"/>
<path fill-rule="evenodd" clip-rule="evenodd" d="M17.5553 16.4185C17.6363 16.3632 17.6273 16.377 17.6862 16.2572C17.7784 16.0697 17.8767 15.9214 17.7878 15.6854C17.7248 15.5187 17.4863 15.1859 17.338 15.0889L17.2697 15.1013C16.9129 15.0638 17.1032 15.2468 16.7566 15.1174C16.5829 15.0522 16.6356 15.1171 16.4603 15.0959C16.3726 15.0852 16.2327 15.0895 16.0887 15.073L16.0634 15.1084C16.2115 15.1405 16.4459 15.4176 16.5417 15.5556C16.6259 15.6773 16.8424 16.0135 17.0174 15.9612C17.0502 16.1027 16.9726 15.8181 17.0063 16.0184C17.0179 16.0879 17.1396 16.1592 17.1914 16.1948C17.1739 16.3035 17.1627 16.2638 17.1621 16.3746L17.254 16.4425C17.2598 16.4404 17.2684 16.4295 17.2701 16.4342C17.2716 16.4387 17.2827 16.4271 17.2849 16.4254C17.2868 16.4239 17.2958 16.4179 17.2979 16.4157C17.3453 16.372 17.5 16.0435 17.5761 16.1796C17.6183 16.2548 17.5707 16.3287 17.5553 16.4185Z" fill="#D39394"/>
<path fill-rule="evenodd" clip-rule="evenodd" d="M10.1925 15.7726C10.3957 15.8646 10.6856 16.0424 10.9719 15.9856C11.1579 15.9488 11.1883 15.8909 11.3248 15.8176C11.5143 15.7158 11.4931 15.8335 11.6966 15.8716C11.7288 15.7553 11.6118 15.79 11.8147 15.8033C11.8096 15.7951 11.8012 15.7746 11.798 15.7801L11.6833 15.6548C11.6493 15.6258 11.666 15.64 11.6315 15.6153C11.5188 15.5352 11.5378 15.5954 11.4978 15.4248C11.4564 15.2476 11.3366 15.0674 11.2434 14.9761L10.8768 14.8951C10.7216 14.8634 10.703 14.9296 10.572 14.972C10.662 15.0764 10.7122 15.0961 10.676 15.1681C10.6175 15.2838 10.4743 15.1898 10.3599 15.1655C10.412 15.266 10.391 15.2082 10.4773 15.311C10.481 15.3153 10.487 15.3278 10.4904 15.3305L10.5928 15.3119C10.5922 15.3243 10.5896 15.3858 10.5879 15.3938C10.5748 15.4527 10.5827 15.4214 10.5656 15.4523C10.458 15.4139 10.436 15.3453 10.3835 15.2768C10.3185 15.1925 10.3554 15.238 10.2887 15.1857C10.2112 15.125 10.2645 15.1741 10.1912 15.0974L10.1612 15.0648C10.1565 15.0601 10.1501 15.0541 10.1454 15.0496L9.93452 14.8055C9.86059 14.7355 9.8803 14.7415 9.79866 14.6609C9.84194 14.8167 9.92466 14.9335 10.0117 15.0282C9.95937 15.0265 9.89059 15.0085 9.87602 15.0078L9.82673 15.0076C9.7678 15.0138 9.78087 15.014 9.75537 15.0288C9.76287 15.0344 9.77594 15.0293 9.78109 15.0398C9.81752 15.1158 9.88823 14.9982 10.0663 15.101C10.158 15.154 10.3271 15.406 10.3303 15.4152C10.3532 15.4818 10.3475 15.4902 10.3297 15.565C10.2851 15.7508 10.2637 15.5427 10.1925 15.7726Z" fill="#F5DAD9"/>
<path fill-rule="evenodd" clip-rule="evenodd" d="M16.5895 12.5956C16.4337 12.6416 16.2795 12.7916 16.1875 12.9187C16.0508 13.1073 16.0452 13.2571 15.9454 13.4362L15.9413 13.2854C15.8916 13.2534 15.8929 13.2506 15.8123 13.2374L15.7769 13.2719C15.7731 13.2764 15.7658 13.2845 15.7617 13.2892L15.7202 13.355C15.7032 13.3194 15.6902 13.1694 15.5856 13.1216C15.382 13.0282 15.415 13.1339 15.3826 13.2421C15.2569 13.2294 15.346 13.2196 15.2198 13.2014L15.2365 13.3271C15.2749 13.4949 15.1831 13.3816 15.2564 13.5322L15.3295 13.496C15.3586 13.6182 15.3286 13.5597 15.4133 13.6083L15.3745 13.5374L15.5222 13.5333C15.4497 13.4679 15.4707 13.4729 15.4231 13.2886C15.6482 13.3784 15.5545 13.4731 15.6312 13.6164C15.6587 13.6677 15.6906 13.7184 15.7202 13.7656C15.7662 13.6974 15.7577 13.4637 15.7853 13.3659L15.9017 13.4774C15.9059 13.4814 15.9143 13.4889 15.9207 13.4947C15.9053 13.5819 15.8894 13.6861 15.8944 13.7495C15.9017 13.8449 15.9289 13.8459 15.9366 13.9561C15.9447 14.0712 15.9959 14.174 16.1192 14.203C16.0874 14.222 16.0877 14.2835 16.0988 14.1742C16.1052 14.1117 16.0926 14.1575 16.1284 14.0872C16.3847 14.2321 16.2585 14.2705 16.2458 14.3684L16.3292 14.389C16.2865 14.3506 16.294 14.3637 16.2735 14.2981C16.3467 14.3148 16.4571 14.3622 16.533 14.3058C16.5951 14.2595 16.5846 14.1886 16.5437 14.1595C16.6341 14.2263 16.5912 14.2027 16.75 14.2113L16.662 14.0904C16.8595 14.1145 16.7498 14.0737 16.7892 14.0469L16.7552 14.0013C16.7177 13.9529 16.6551 13.8284 16.6026 13.8245C16.7194 13.7928 16.7269 13.7647 16.8274 13.682C16.9431 13.5867 17.0003 13.5869 16.9003 13.4866C16.8321 13.4182 16.774 13.4645 16.7145 13.4909C16.6881 13.5303 16.723 13.4911 16.6757 13.5329C16.6598 13.5466 16.6437 13.5573 16.6257 13.5699C16.5992 13.5882 16.5741 13.6021 16.5471 13.6207C16.425 13.7056 16.4509 13.7656 16.2985 13.8359C16.2424 13.8616 16.2822 13.8348 16.2182 13.8699C16.1633 13.8999 16.1633 13.937 16.0577 13.8972C16.0349 13.8093 16.06 13.7521 16.1157 13.6752C16.279 13.4493 16.0542 13.6302 16.3868 13.2065L16.4702 13.0764C16.5135 13.0055 16.576 12.9569 16.6337 12.905C16.7222 12.8253 16.7445 12.7501 16.7657 12.7286L16.816 12.6948C16.8769 12.6712 16.837 12.6903 16.8808 12.6847C17.16 12.6487 16.8735 12.6256 17.095 12.6376C17.142 12.6401 17.1313 12.6551 17.193 12.6733L17.2855 12.5126C16.9819 12.4076 16.8529 12.485 16.5895 12.5956Z" fill="#A95B63"/>
<path fill-rule="evenodd" clip-rule="evenodd" d="M14.6007 14.132C14.6076 14.2507 14.6292 14.2664 14.6965 14.348C14.9716 14.3868 14.8752 14.3954 15.0066 14.4494C14.9963 14.6763 14.9843 14.9926 15.1066 15.1503C14.9641 15.0166 15.0436 15.2035 15.0346 15.2742C15.0779 15.2952 15.1054 15.3061 15.1396 15.3275C15.2532 15.3983 15.2076 15.3065 15.2421 15.4433C15.2948 15.6526 15.2095 15.4103 15.2337 15.565C15.2526 15.6856 15.2483 15.5845 15.2967 15.6983C15.3597 15.8465 15.4332 16.2423 15.2886 16.3011C15.3893 16.3838 15.3651 16.3673 15.4806 16.3366L15.4842 16.2336C15.5207 16.3199 15.4688 16.2198 15.5429 16.2715C15.5481 16.2644 15.5517 16.2423 15.5528 16.2473C15.5539 16.2518 15.5601 16.2286 15.5614 16.2237L15.5753 16.1463C15.5684 15.9852 15.5918 16.1776 15.4628 16.0236L15.3824 15.796C15.5219 15.9323 15.4817 15.8082 15.5084 15.7795C15.484 15.6828 15.46 15.7143 15.4967 15.6824C15.484 15.5735 15.4532 15.6408 15.5509 15.6179C15.496 15.5215 15.5736 15.5879 15.457 15.5198L15.5076 15.505C15.5142 15.5024 15.5262 15.4994 15.5339 15.4962L15.5867 15.4726C15.5937 15.4694 15.6047 15.464 15.6128 15.4583C15.5564 15.3434 15.5828 15.4017 15.5974 15.3775C15.6719 15.3946 15.6891 15.3344 15.8427 15.305C15.8843 15.3796 15.9454 15.4407 16.0054 15.5005C15.9499 15.2482 15.9885 15.3108 16.0731 15.2817C16.0219 15.2395 15.9975 15.2365 15.9385 15.1822C15.9709 15.0807 15.9492 15.1625 15.9707 15.1259C15.9863 15.0991 16.0007 15.098 16.0268 15.0288C15.7922 14.9703 15.9465 15.0202 15.7506 15.0149C15.7433 14.8904 15.7643 14.9163 15.8455 14.8842L15.8091 14.6371C15.9137 14.5357 15.8532 14.6437 15.8672 14.5477C15.8764 14.4834 15.8316 14.4787 15.8965 14.4078L15.7202 14.5059L15.5766 14.3598C15.5751 14.3538 15.5663 14.3568 15.562 14.3538C15.5847 14.2747 15.5723 14.2269 15.5474 14.1498L15.3717 14.1363C15.3194 14.2115 15.3404 14.2096 15.2753 14.2512C15.3677 14.4037 15.3143 14.2329 15.3524 14.4005C15.6422 14.3992 15.8252 14.704 15.7047 14.9236C15.5779 15.1546 15.6066 15.2178 15.4133 15.2431C15.3319 15.1672 15.2723 15.0415 15.2442 14.8932C15.2007 14.6637 15.2633 14.608 15.3308 14.4496C15.2633 14.3967 15.0741 14.4102 15.1347 14.2272C15.2029 14.0214 15.163 14.3062 15.2123 14.0169C15.2129 14.012 15.2136 14.0028 15.2151 13.9981C15.244 13.8971 15.2905 13.9936 15.3109 13.8067L15.2744 13.5562C15.3107 14.0232 15.1459 13.8352 15.0235 13.7649C15.0226 13.8506 15.0156 13.7594 14.953 13.8626C14.7981 13.7939 14.8949 13.9091 14.8283 13.7521C14.7353 13.8412 14.8319 13.7521 14.6543 13.8423C14.65 13.8444 14.6382 13.8601 14.6352 13.8543C14.6322 13.8483 14.6224 13.8618 14.6166 13.8665C14.6157 13.8967 14.6476 13.9074 14.6449 13.9824C14.6401 14.1202 14.6275 13.9869 14.6007 14.132Z" fill="#AC6364"/>
<path fill-rule="evenodd" clip-rule="evenodd" d="M13.8978 20.4364L13.8841 20.4394C14.0491 20.5592 13.9745 20.5691 14.041 20.7703L14.0362 20.7804C14.0525 20.7997 14.0815 20.8335 14.0952 20.8547C14.1286 20.8093 14.1215 20.7517 14.2514 20.7911C14.4153 20.8408 14.287 20.7928 14.4007 20.9272C14.4592 20.8087 14.4676 20.8301 14.5242 20.8305C14.7593 21.2092 14.68 21.4224 14.4751 21.6978C14.3341 21.8872 14.1573 21.9697 14.0011 22.082C13.9685 22.1053 13.9473 22.1263 13.9068 22.1581C13.8421 22.2118 13.7855 22.274 13.7037 22.2738C13.5597 22.2736 13.5841 22.1885 13.5196 22.2393C13.5147 22.2459 13.5039 22.2502 13.4994 22.2538C13.4949 22.2577 13.4847 22.2643 13.4793 22.2691C13.442 22.3023 13.3269 22.3408 13.4673 22.4964C13.6432 22.4898 13.6989 22.5168 13.8492 22.5254C14.03 22.5356 14.0827 22.4733 14.2139 22.4649C14.2876 22.3756 14.3071 22.3957 14.3965 22.3263C14.4715 22.2678 14.5109 22.2163 14.5692 22.1617C14.7046 22.0348 14.756 21.9856 14.8246 21.7796C14.8553 21.6448 14.9157 21.5293 14.9043 21.3804L14.8319 21.3168C14.9131 21.1927 14.9088 21.2647 14.8739 21.1558C14.7198 20.6765 14.6028 20.7 14.4505 20.559C14.431 20.5408 14.4119 20.5209 14.3907 20.4988C14.2505 20.3531 14.3305 20.3595 14.2705 20.1568C14.0607 20.2099 13.9297 20.2119 13.8387 20.3368C13.8644 20.3876 13.8344 20.3655 13.8978 20.4364Z" fill="#99484A"/>
<path fill-rule="evenodd" clip-rule="evenodd" d="M10.6569 19.5896C10.6605 19.1693 10.5954 19.3586 10.5109 19.1402C10.5656 19.0408 10.6867 19.0076 10.6929 18.9981C10.8229 18.9521 10.7447 19.0238 10.797 18.9317C10.7184 18.8837 10.5917 18.8192 10.5223 18.7601C10.4456 18.6945 10.5028 18.7161 10.4027 18.6581L10.2587 18.5796C10.1559 18.6041 10.1563 18.6458 10.1505 18.6347C10.1479 18.6293 10.1413 18.645 10.1359 18.6495C10.0761 18.517 9.87128 18.4431 9.70628 18.4322L9.58028 18.5543C9.4307 18.3827 9.53228 18.4193 9.30234 18.5185C9.16884 18.5764 9.2477 18.564 9.07477 18.5458C9.30749 18.9516 9.20548 18.6641 9.40927 18.8884L9.48363 18.9773C9.52735 19.0241 9.50656 19.0041 9.52242 19.0363C9.52885 19.0491 9.56206 19.1183 9.56271 19.1196C9.46392 19.1228 9.41185 19.1061 9.34863 19.0935C9.44935 19.1265 9.42963 19.1475 9.49435 19.1912C9.56314 19.2377 9.60492 19.2332 9.696 19.2651C9.82671 19.3108 9.885 19.4006 10.0131 19.4854C10.0678 19.4638 10.0676 19.4248 10.2165 19.3974C10.3299 19.3766 10.2744 19.3601 10.3725 19.4231C10.6402 19.5947 10.5979 19.6753 10.6569 19.5896Z" fill="#588669"/>
<path fill-rule="evenodd" clip-rule="evenodd" d="M12.9534 21.7357C12.9601 21.7278 12.9798 21.7173 12.983 21.7138C13.0329 21.66 13.0359 21.7404 13.0203 21.6258C13.2312 21.807 12.9839 21.5664 13.0962 21.6864L13.3882 22.1776C13.3934 22.169 13.3983 22.1452 13.3994 22.1499C13.4002 22.1542 13.4075 22.1296 13.4084 22.1225C13.4332 21.9045 13.328 22.0642 13.3985 21.8088C13.3994 21.8055 13.4015 21.7968 13.4024 21.7935L13.4189 21.7151C13.5408 21.7413 13.5264 21.6348 13.5569 21.7818C13.5779 21.8844 13.4643 21.8752 13.6642 21.9935L13.6289 21.4719L13.5869 21.3148C13.4358 21.278 13.4034 21.033 13.3874 20.8987C13.3767 20.8089 13.3642 20.8502 13.3893 20.7675L13.481 20.6059C13.5744 20.5031 13.5451 20.4892 13.5723 20.4523L13.6308 20.5286C13.6509 20.5397 13.8682 20.5097 13.8841 20.4394L13.8978 20.4364C13.7452 20.3927 13.7626 20.4463 13.5487 20.4004C13.3685 20.3619 13.3794 20.3782 13.2172 20.2952C13.2867 20.4761 13.2558 20.3074 13.1787 20.4007C13.0852 20.5136 13.0649 20.4793 12.9082 20.5725C13.049 20.8125 12.9419 20.7167 12.9329 20.8905C12.9256 20.8835 12.9046 20.8663 12.8986 20.8625L12.6836 20.7984C12.6824 21.0866 12.6121 20.9623 12.7158 21.327C12.7715 21.5229 12.8178 21.6285 12.9534 21.7357Z" fill="#D7A9A9"/>
<path fill-rule="evenodd" clip-rule="evenodd" d="M15.2564 13.5322L15.2744 13.5562L15.3108 13.8067C15.2905 13.9936 15.244 13.8972 15.215 13.9981C15.2135 14.0028 15.2129 14.012 15.2123 14.0169C15.163 14.3062 15.2028 14.0214 15.1347 14.2272C15.074 14.4102 15.2632 14.3967 15.3308 14.4496L15.3524 14.4005C15.3143 14.233 15.3676 14.4037 15.2753 14.2512C15.3404 14.2096 15.3194 14.2115 15.3717 14.1363L15.5474 14.1498C15.5723 14.227 15.5847 14.2747 15.562 14.3538C15.5663 14.3568 15.575 14.3538 15.5765 14.3598L15.7201 14.506L15.8965 14.4078C15.8315 14.4787 15.8763 14.4835 15.8671 14.5477C15.8532 14.6437 15.9136 14.5357 15.809 14.6371L15.8455 14.8842C15.7643 14.9163 15.7433 14.8904 15.7505 15.0149C15.9464 15.0203 15.7921 14.9703 16.0268 15.0288C16.2201 15.0316 15.9108 15.1703 16.0846 15.011C16.144 14.9568 16.1131 14.8643 16.1151 14.8542C16.1324 14.765 16.1678 14.8705 16.3596 14.8675L16.5484 14.8752C16.5162 14.6909 16.5541 14.809 16.4628 14.6913C16.6669 14.578 16.5514 14.6566 16.5571 14.474C16.4451 14.3954 16.4515 14.4029 16.3291 14.389L16.2458 14.3684C16.2584 14.2705 16.3846 14.2321 16.1283 14.0872C16.0926 14.1575 16.1052 14.1117 16.0988 14.1742C16.0876 14.2835 16.0874 14.222 16.1191 14.203C15.9959 14.174 15.9447 14.0712 15.9366 13.9561C15.9288 13.8459 15.9016 13.8449 15.8943 13.7495C15.8894 13.6861 15.9053 13.5819 15.9207 13.4947C15.9143 13.4889 15.9059 13.4814 15.9016 13.4774L15.7853 13.3659C15.7576 13.4636 15.7662 13.6974 15.7201 13.7656C15.6905 13.7184 15.6586 13.6677 15.6312 13.6164C15.5545 13.4731 15.6481 13.3784 15.4231 13.2886C15.4707 13.4729 15.4497 13.4679 15.5221 13.5333L15.3745 13.5374L15.4133 13.6083C15.3286 13.5597 15.3586 13.6182 15.3295 13.496L15.2564 13.5322Z" fill="#99484A"/>
<path fill-rule="evenodd" clip-rule="evenodd" d="M11.8507 17.5525C11.9688 17.5054 11.8972 17.5469 11.9373 17.4835C11.9321 17.4214 11.8771 17.3699 11.8779 17.2829C11.879 17.1764 11.8955 17.1259 11.8771 16.9945C11.7948 16.4069 11.0675 16.1425 10.8219 16.3026C10.6665 16.4039 10.7735 16.6274 10.8129 16.7496C10.866 16.9144 10.9115 17.038 11.0004 17.1689C11.0568 17.2517 11.21 17.4049 11.3448 17.4462C11.5125 17.4979 11.5188 17.4467 11.6394 17.4563C11.7744 17.4668 11.8083 17.5785 11.8261 17.5455C11.8297 17.5386 11.8421 17.5514 11.8507 17.5525Z" fill="#EFDDE2"/>
<path fill-rule="evenodd" clip-rule="evenodd" d="M15.4658 8.41882C15.4956 8.57268 15.5395 8.68968 15.4641 8.86175C15.4877 8.92026 15.4716 8.88661 15.5031 8.92326L15.5751 8.99011C15.5556 9.0109 15.5127 9.17376 15.2837 9.34348C15.2781 9.34755 15.2702 9.35205 15.2646 9.35612C15.1129 9.46884 15.1954 9.45427 15.0342 9.52905C14.9221 9.5807 14.7694 9.60641 14.6489 9.65956C14.5799 9.68999 14.5238 9.72085 14.4518 9.73735C14.2521 9.78299 14.3048 9.73842 14.2169 9.84342C14.3873 9.83699 14.5156 9.82199 14.6639 9.77335C14.7754 9.7367 14.8249 9.6707 14.9669 9.61006C15.0884 9.55841 15.0167 9.6032 15.1049 9.5327C15.2194 9.44162 15.4127 9.28176 15.5479 9.23033C15.5612 9.34069 15.5929 9.29098 15.5622 9.38505C15.7549 9.42684 15.8622 9.41527 15.8115 9.58777C15.766 9.74206 15.7832 9.54813 15.7425 9.68999C15.8265 9.71956 15.7337 9.69684 15.8067 9.68034L15.8794 9.66277C15.883 9.66149 15.8918 9.65891 15.8952 9.65741C16.1121 9.57427 15.8982 9.58413 16.0997 9.77099C16.2441 9.70606 16.4072 9.56827 16.4635 9.37477C16.3566 9.32076 16.3596 9.27212 16.356 9.26633C16.2094 9.29548 16.2462 9.32398 16.1627 9.31755C16.1162 9.31391 16.1348 9.19883 16.0446 9.33234C16.0913 9.22605 15.9679 9.17998 15.9559 9.15683C15.924 9.09533 15.9555 9.07776 15.966 9.0499C15.7397 9.0784 15.7307 9.1204 15.5691 9.17312C15.6027 9.11397 15.5974 9.12619 15.6353 9.08569L15.8337 8.94061C16.1993 8.66589 16.4537 8.58811 16.9268 8.70082C16.8503 8.63375 16.3825 8.36653 16.2825 8.32839C16.0277 8.2311 15.6998 8.33931 15.4658 8.41882Z" fill="#74A37C"/>
<path fill-rule="evenodd" clip-rule="evenodd" d="M9.37069 17.146C9.47977 17.1696 9.40926 17.1447 9.55305 17.1473C9.67991 17.1497 9.6587 17.1627 9.76777 17.176L9.79842 17.0097C9.85863 17.0438 9.86613 17.0492 9.91842 17.0841L10.0708 17.2137C10.146 17.3172 10.0757 17.4175 10.2054 17.4565C10.215 17.4593 10.2919 17.457 10.2956 17.4574C10.4449 17.4705 10.3341 17.46 10.4383 17.5793C10.5671 17.7268 10.5304 17.5902 10.6764 17.77C10.7106 17.8123 10.7119 17.8174 10.7497 17.8545C10.7962 17.8318 10.8015 17.8296 10.875 17.8221C10.8388 17.7484 10.8898 17.5995 10.6046 17.385C10.491 17.2997 10.4852 17.358 10.3911 17.2236C10.35 17.1649 10.3944 17.1537 10.272 17.1278C10.2384 17.1207 10.2328 17.121 10.1983 17.116C10.2079 17.0492 10.2216 17.0387 10.2056 16.978C10.1548 16.7858 10.0086 16.7894 9.9302 16.7462L9.88992 16.7185C9.50634 16.4252 9.68848 16.5917 9.47591 16.4586C9.46798 16.4537 9.44419 16.4372 9.43755 16.4324L9.40005 16.4031C9.10754 16.4097 8.79275 16.3577 8.49446 16.4044L8.33331 16.4234C8.55896 16.5312 8.72932 16.6214 8.92261 16.7339C9.09597 16.8349 9.29505 17.1175 9.37069 17.146Z" fill="#4A5B47"/>
<path fill-rule="evenodd" clip-rule="evenodd" d="M15.5508 15.6179C15.7208 15.7248 15.4105 15.5231 15.6708 15.9436C15.6745 15.9496 15.6792 15.9571 15.6828 15.9629C15.692 15.9779 15.7418 16.0509 15.7529 16.0719C15.8478 16.2513 15.7259 16.2361 15.8545 16.3672C15.9595 16.4742 15.9921 16.3951 16.1112 16.4187C16.2663 16.4497 16.192 16.5042 16.402 16.7105C16.4779 16.7851 16.4253 16.7474 16.4802 16.8164C16.5376 16.8882 16.6094 16.8822 16.7286 16.91C16.9118 16.9525 16.8171 16.9141 16.9309 16.8697L16.8293 16.6096C16.8293 16.6083 16.8346 16.5348 16.8336 16.5147C16.8265 16.5202 16.8694 16.5717 16.7772 16.5168C16.7243 16.4851 16.7599 16.5005 16.7271 16.4525L16.6424 16.3479C16.4995 16.1924 16.5156 16.0801 16.4808 16.0173L16.3263 15.8009C16.2381 15.6596 16.1789 15.5656 16.0053 15.5004C15.9453 15.4406 15.8843 15.3796 15.8427 15.305C15.689 15.3344 15.6719 15.3946 15.5973 15.3774C15.5828 15.4016 15.5564 15.3434 15.6128 15.4582C15.6046 15.464 15.5937 15.4694 15.5866 15.4726L15.5339 15.4961C15.5262 15.4994 15.5142 15.5024 15.5075 15.5049L15.457 15.5197C15.5735 15.5879 15.496 15.5214 15.5508 15.6179Z" fill="#C48384"/>
<path fill-rule="evenodd" clip-rule="evenodd" d="M10.1925 15.7726C10.2637 15.5427 10.2851 15.7508 10.3297 15.565C10.3475 15.4902 10.3533 15.4818 10.3303 15.4152C10.3271 15.406 10.158 15.154 10.0663 15.101C9.88825 14.9982 9.81754 15.1158 9.78111 15.0398C9.77597 15.0293 9.76289 15.0344 9.75539 15.0288C9.78089 15.014 9.76782 15.0138 9.82675 15.0076L9.87604 15.0078C9.89061 15.0085 9.9594 15.0265 10.0117 15.0282C9.92468 14.9335 9.84197 14.8167 9.79868 14.6609C9.88033 14.7415 9.86061 14.7355 9.93454 14.8055L10.1454 15.0496C10.1501 15.0541 10.1565 15.0601 10.1613 15.0648L10.1913 15.0974C10.2645 15.1741 10.2112 15.125 10.2888 15.1857C10.3554 15.238 10.3185 15.1925 10.3835 15.2768C10.436 15.3453 10.4581 15.4139 10.5656 15.4523C10.5828 15.4214 10.5748 15.4527 10.5879 15.3938C10.5896 15.3858 10.5922 15.3243 10.5928 15.3119L10.4904 15.3305C10.487 15.3278 10.481 15.3153 10.4773 15.311C10.391 15.2082 10.412 15.266 10.3599 15.1655C10.4743 15.1898 10.6175 15.2838 10.676 15.1681C10.7122 15.0961 10.6621 15.0764 10.5721 14.972C10.703 14.9296 10.7216 14.8634 10.8768 14.8951L11.2434 14.9761C11.0962 14.7719 10.7868 14.5919 10.4246 14.554C10.0425 14.5141 9.73032 14.677 9.53596 14.8754C9.50553 15.205 9.61846 15.2384 9.78668 15.4088C9.91911 15.5431 10.0123 15.6741 10.1925 15.7726Z" fill="#F6E8E5"/>
<path fill-rule="evenodd" clip-rule="evenodd" d="M16.8132 20.6514C16.7817 20.6908 16.8777 20.6261 16.7528 20.7005C16.7191 20.7206 16.7134 20.7142 16.6726 20.7386C16.603 20.78 16.6064 20.7819 16.5651 20.8593C16.762 20.8282 17.2028 20.7093 17.3483 20.5391C17.338 20.5393 17.2975 20.54 17.2919 20.5393C17.2879 20.5389 17.275 20.5398 17.2718 20.532C17.2688 20.5254 17.2615 20.5241 17.2559 20.5209L17.5032 20.2196C17.5727 20.1772 17.6515 20.1851 17.7452 20.1787C17.7777 20.1317 17.7756 20.1157 17.7861 20.1007C17.9059 19.9305 17.8682 20.1225 17.9022 19.938C17.7492 19.8422 17.6794 19.9447 17.6279 20.0274C17.6054 19.9288 17.6046 19.9213 17.6384 19.8322C17.5502 19.8322 17.5259 19.8452 17.4704 19.8105C17.4145 19.7754 17.4803 19.8086 17.4278 19.7638C17.2191 19.5853 17.35 19.8035 17.2632 19.596C17.161 19.6237 16.4768 19.5793 16.5918 19.5418C16.6043 19.6115 16.5867 19.5371 16.6105 19.602C16.7453 19.9715 16.7239 19.9629 16.8029 20.3595C16.8211 20.451 16.8597 20.5018 16.8886 20.613C16.8544 20.6563 16.9512 20.64 16.8132 20.6514Z" fill="#A7AA94"/>
<path fill-rule="evenodd" clip-rule="evenodd" d="M12.038 15.3241L12.3661 15.3713C12.3671 15.2448 12.2988 15.3252 12.2694 15.1426C12.2493 15.0168 12.2716 15.1495 12.2534 15.067C12.2021 14.8351 12.3712 14.7873 12.41 14.642L12.4214 14.6215C11.9986 14.4434 12.3266 14.6474 11.9703 14.2124C11.9006 14.1273 11.8608 14.0598 11.7676 13.9779C11.6673 13.8901 11.471 13.8333 11.3941 13.9242C11.3566 13.9687 11.3411 14.2595 11.3428 14.2831C11.3488 14.3622 11.3454 14.3703 11.4189 14.4457C11.423 14.3058 11.4163 14.2985 11.3782 14.1697C11.4457 14.0776 11.5081 14.0847 11.4862 14.0161C11.5811 14.1301 11.5719 14.3682 11.7579 14.5878C11.7543 14.5953 11.7468 14.597 11.7444 14.6084C11.7384 14.6367 11.6398 14.7065 11.6332 14.7882C11.6248 14.8906 11.5948 14.8207 11.7543 15.0082C11.8321 15.0995 11.8025 15.0177 11.8837 15.1587C11.9015 15.1893 11.9257 15.2279 11.942 15.2444C11.9465 15.2491 11.9534 15.2547 11.9583 15.2592C11.9636 15.2641 11.9709 15.2697 11.9763 15.2744L12.038 15.3241Z" fill="#868959"/>
<path fill-rule="evenodd" clip-rule="evenodd" d="M16.5572 14.474C16.5514 14.6566 16.6669 14.5779 16.4629 14.6913C16.5542 14.8089 16.5163 14.6908 16.5484 14.8751L16.3596 14.8674C16.3056 14.9107 16.4389 14.9128 16.2724 14.8996C16.2739 14.8974 16.2762 14.8901 16.2767 14.8933C16.2771 14.8957 16.282 14.8923 16.2825 14.8929L16.3337 14.9958C16.2049 14.9913 16.1605 14.9756 16.0887 15.0729C16.2327 15.0894 16.3727 15.0851 16.4603 15.0959C16.6356 15.1171 16.5829 15.0521 16.7567 15.1173C17.1032 15.2467 16.9129 15.0637 17.2697 15.1012L17.3381 15.0888L17.3113 15.026C17.565 14.9786 17.9096 14.7813 17.9514 14.5683L17.9441 14.5218C17.8708 14.6083 17.9717 14.5475 17.814 14.5974L17.7759 14.4658C17.6121 14.4579 17.5506 14.5203 17.4964 14.5471L17.3053 14.6062C17.2238 14.6193 17.2892 14.603 17.2258 14.6156C17.22 14.6167 17.211 14.6186 17.2052 14.6201L17.163 14.633C17.1094 14.6465 17.13 14.7028 16.9986 14.6124C16.7325 14.4296 16.8278 14.5794 16.5572 14.474Z" fill="#AC6364"/>
<path fill-rule="evenodd" clip-rule="evenodd" d="M12.9121 11.2498C12.7368 11.5513 12.8611 11.778 12.9761 12.0675C13.0623 12.2844 12.8458 12.6217 12.7715 12.8028L12.7908 12.8424C12.8855 12.7608 12.899 12.6369 12.9871 12.5409C13.076 12.4436 13.1615 12.3791 13.2513 12.2838C13.5781 11.937 13.5982 12.1661 14.0328 12.0712C14.1117 11.9598 14.1736 11.9083 14.1262 11.8308L14.0752 11.7693C13.9921 11.6673 14.0092 11.66 13.9032 11.6278C13.6826 11.7594 13.2322 12.1524 13.0606 12.3493C13.1244 11.9632 13.4086 11.8363 13.3784 11.3201C13.0762 11.1041 13.2845 11.2466 12.9121 11.2498Z" fill="#949B67"/>
<path fill-rule="evenodd" clip-rule="evenodd" d="M18.0349 14.3084C18.144 14.1927 18.0304 14.0148 18.1296 13.6175C17.6132 13.2172 17.9198 13.2556 17.7692 12.92L17.6976 12.8188C17.6661 12.8975 17.5943 12.89 17.5851 13.0057C17.5748 13.1334 17.6539 13.1662 17.7452 13.2044C17.7615 13.2494 17.7379 13.1422 17.7336 13.2324C17.7334 13.2352 17.733 13.2446 17.7332 13.2481C17.736 13.4126 17.7756 13.3113 17.7135 13.4403C17.6614 13.5481 17.7064 13.5716 17.7043 13.6021L17.6584 13.7169C17.529 13.8811 17.3046 13.7842 17.2457 14.0232L17.1756 14.1252C17.1713 14.1262 17.161 14.1282 17.1563 14.1294L17.0151 14.1768C17.01 14.1787 16.9746 14.1907 16.9553 14.2004L17.1145 14.4046C17.2821 14.3765 17.2485 14.3369 17.4889 14.4457L17.5024 14.3907C17.52 14.2814 17.5198 14.3347 17.4889 14.2842C17.6691 14.2955 17.5285 14.384 17.8174 14.3669L17.7713 14.1723C17.8579 14.2124 17.7229 14.2162 17.8901 14.1905C17.9633 14.1794 17.9818 14.1429 18.0214 14.1307C18.0238 14.1382 18.0248 14.1423 18.0253 14.1543L18.0349 14.3084Z" fill="#DBA4A3"/>
<path fill-rule="evenodd" clip-rule="evenodd" d="M13.0454 13.6548C13.1874 13.6552 13.0801 13.6621 13.1223 13.6226C13.1426 13.7041 13.0803 13.6344 13.1409 13.6901C13.2466 13.7872 13.1017 13.6421 13.223 13.7094C13.2397 13.9034 13.2528 14.0399 13.0331 14.0617C13.1752 14.2072 13.6025 14.0671 13.7397 13.9383C14.6855 13.0503 13.3593 12.8709 13.0454 13.6548Z" fill="#949B67"/>
<path fill-rule="evenodd" clip-rule="evenodd" d="M13.6289 21.4719L13.6642 21.9935C13.4643 21.8752 13.5779 21.8844 13.5569 21.7817C13.5264 21.6347 13.5408 21.7412 13.4189 21.7151L13.4024 21.7935C13.4015 21.7967 13.3994 21.8055 13.3985 21.8087C13.328 22.0642 13.4332 21.9045 13.4084 22.1225C13.4075 22.1295 13.4002 22.1542 13.3994 22.1499C13.3983 22.1452 13.3934 22.169 13.3882 22.1775L13.0961 21.6864C12.9839 21.5664 13.2312 21.807 13.0203 21.6257C13.0359 21.7404 13.0329 21.66 12.983 21.7138C12.9798 21.7172 12.9601 21.7277 12.9534 21.7357L13.1583 22.0372C13.2517 22.1548 13.1784 22.0076 13.3593 22.2707L13.5196 22.2392C13.5841 22.1885 13.5597 22.2735 13.7037 22.2737C13.7855 22.274 13.8421 22.2118 13.9068 22.158C13.895 22.0772 13.9242 22.1237 13.88 22.083L13.9203 22.0565C13.9246 22.0528 13.9332 22.0464 13.9377 22.0421C13.9415 22.038 13.9484 22.031 13.9522 22.0267L13.9848 21.965C13.9863 21.9624 13.9902 21.9547 13.9917 21.9521L14.0292 21.8338C14.0294 21.83 14.0287 21.8207 14.0292 21.8165C14.0345 21.7667 14.0817 21.6463 14.0984 21.5917C14.1307 21.4856 14.0922 21.4984 14.0939 21.4108L14.1554 21.3802C14.1151 21.2582 14.0337 21.2194 14.036 21.0928C14.0377 21.0101 14.0815 20.9357 14.0362 20.7804L14.041 20.7703C13.885 20.7195 13.823 20.9462 13.8007 21.0772C13.7864 21.1631 13.7804 21.2364 13.7675 21.3075C13.7506 21.4022 13.7598 21.4464 13.7564 21.5606C13.634 21.5066 13.712 21.5977 13.6289 21.4719Z" fill="#C48B8B"/>
<path fill-rule="evenodd" clip-rule="evenodd" d="M17.3826 12.3117C17.4366 12.3811 17.3999 12.3479 17.4921 12.3997C17.8195 12.5844 18.1472 12.6762 18.5417 12.6487C18.7834 12.6318 19.6978 12.5609 19.8148 12.4317C19.4758 12.4132 19.1473 12.4672 18.8554 12.3616C18.6739 12.2958 18.6548 12.2493 18.4382 12.2204C18.2494 12.1951 18.0077 12.1057 17.9721 12.1308L17.9369 12.1559C17.8482 12.2204 17.9271 12.1979 17.7674 12.2135C17.5666 12.2332 17.6746 12.3249 17.3826 12.3117Z" fill="#82A58D"/>
<path fill-rule="evenodd" clip-rule="evenodd" d="M12.038 15.3241L11.9763 15.2744C11.9709 15.2697 11.9636 15.2641 11.9583 15.2592C11.9533 15.2547 11.9465 15.2491 11.942 15.2444C11.9257 15.2279 11.9015 15.1893 11.8837 15.1587C11.8025 15.0176 11.832 15.0995 11.7543 15.0082C11.5948 14.8207 11.6248 14.8906 11.6332 14.7881C11.6398 14.7065 11.7384 14.6366 11.7444 14.6084C11.7468 14.597 11.7543 14.5953 11.7579 14.5878C11.5719 14.3681 11.5811 14.1301 11.4862 14.0161C11.508 14.0846 11.4457 14.0776 11.3782 14.1697C11.4163 14.2985 11.423 14.3058 11.4189 14.4457C11.3454 14.3703 11.3488 14.3621 11.3428 14.2831C11.3411 14.2595 11.3565 13.9687 11.394 13.9241C11.471 13.8333 11.6673 13.8901 11.7675 13.9779C11.8608 14.0598 11.9006 14.1273 11.9703 14.2123C12.3266 14.6474 11.9985 14.4433 12.4213 14.6214C12.32 14.2865 12.2403 14.1073 12.0009 13.931C11.8033 13.7857 11.5329 13.5819 11.3107 13.9636C11.1435 14.2503 11.3407 15.2429 12.038 15.3241Z" fill="#97A867"/>
<path fill-rule="evenodd" clip-rule="evenodd" d="M14.9043 21.3804L14.9776 21.3144C15.1469 21.3988 15.2129 21.4745 15.4379 21.5351C15.7094 21.608 15.7758 21.561 15.9998 21.4974C16.1138 21.4275 16.3553 21.1832 16.4028 21.0682C16.2805 21.069 16.1693 21.0484 16.0542 21.0787C15.9284 21.1114 15.85 21.153 15.7203 21.1337C15.5247 21.1046 15.1535 21.0101 15.0706 20.8586C14.9677 20.9546 14.9838 20.7345 14.9838 20.9809C15.0112 20.958 15.0185 20.9351 14.9979 20.9837C14.9748 21.0386 15.0029 20.9824 14.8929 21.012C14.9904 21.2557 14.9641 21.1695 14.9043 21.3804Z" fill="#C37D82"/>
<path fill-rule="evenodd" clip-rule="evenodd" d="M14.0362 20.7804C14.0814 20.9357 14.0377 21.0101 14.036 21.0928C14.0337 21.2195 14.1151 21.2582 14.1554 21.3802L14.0939 21.4108C14.0922 21.4985 14.1307 21.4856 14.0984 21.5917C14.0817 21.6463 14.0345 21.7668 14.0292 21.8165C14.0287 21.8208 14.0294 21.83 14.0292 21.8338L13.9916 21.9521C13.9901 21.9547 13.9863 21.9624 13.9848 21.965L13.9522 22.0267C13.9484 22.031 13.9415 22.038 13.9377 22.0421C13.9332 22.0464 13.9246 22.0528 13.9203 22.0565L13.88 22.083C13.9241 22.1238 13.895 22.0773 13.9068 22.158C13.9473 22.1263 13.9685 22.1053 14.0011 22.082C14.1573 21.9697 14.3341 21.8872 14.4751 21.6978C14.68 21.4224 14.7592 21.2092 14.5242 20.8305C14.4676 20.8301 14.4592 20.8087 14.4007 20.9272C14.2869 20.7928 14.4153 20.8408 14.2514 20.7911C14.1215 20.7517 14.1286 20.8093 14.0952 20.8547C14.0814 20.8335 14.0525 20.7997 14.0362 20.7804Z" fill="#B7736D"/>
<path fill-rule="evenodd" clip-rule="evenodd" d="M15.3055 19.4715L15.2684 19.4888C15.265 19.4903 15.253 19.4966 15.25 19.4981C15.2465 19.4998 15.2365 19.5049 15.2296 19.5083L15.3211 19.5396C15.3959 19.6035 15.4598 19.611 15.526 19.644L16.0075 20.0209C16.1091 20.1394 16.1742 20.0856 16.1504 20.2449C16.3604 20.2097 16.3324 20.2369 16.4564 20.3456C16.5657 20.2104 16.546 19.9791 16.4999 19.8981C16.4997 19.8981 16.4337 19.8223 16.4166 19.7976C16.3729 19.7348 16.3463 19.6491 16.2792 19.5874C16.1723 19.4897 16.2033 19.4805 16.1504 19.4383C15.9578 19.2857 15.3057 19.4715 15.3055 19.4715Z" fill="#B46B6C"/>
<path fill-rule="evenodd" clip-rule="evenodd" d="M13.4682 19.6617C13.5033 19.5062 13.502 19.5334 13.5749 19.4494L13.6758 19.3322C13.717 19.3045 13.6934 19.3238 13.7437 19.3019C14.0431 19.1723 13.9638 19.2546 14.0017 19.2914L14.0307 19.3251C14.117 19.4065 14.2006 19.4016 14.2883 19.6004C14.227 19.7205 14.3045 19.561 14.2441 19.6521C14.225 19.681 14.2152 19.666 14.2608 19.7751C14.0249 19.7674 14.144 19.9549 13.7564 19.9821L13.6077 19.8115C13.546 19.7432 13.5232 19.7374 13.4682 19.6617ZM13.4778 20.1244C13.6053 20.1557 13.4902 20.1387 13.6169 20.2015C13.6685 20.227 13.675 20.2386 13.7339 20.2172C13.8554 20.1726 13.6636 20.1833 14.0137 20.1096C14.1809 20.0745 14.0975 20.0635 14.2017 19.9555C14.3416 19.81 14.5055 19.8518 14.3262 19.4687C14.3024 19.4174 14.2872 19.381 14.2531 19.3294C14.1614 19.1901 14.0135 19.1337 13.8295 19.171C13.6724 19.2029 13.6537 19.2008 13.5723 19.2908C13.4497 19.2516 13.4746 19.1584 13.3897 19.2863C13.2142 19.5509 13.4442 19.8657 13.4778 20.1244Z" fill="#EBC98F"/>
<path fill-rule="evenodd" clip-rule="evenodd" d="M10.874 19.3011C10.9779 19.3386 10.9871 19.3294 11.0857 19.3864C11.099 19.4963 11.0745 19.5383 11.0565 19.6564C11.259 19.6481 11.2132 19.6478 11.2841 19.5499C11.3666 19.4357 11.2183 19.5173 11.4682 19.4923C11.4373 19.4299 11.3816 19.3356 11.3203 19.3153L11.2593 19.3088C11.1665 19.2893 11.2447 19.3909 11.1656 19.263C11.2224 19.2261 11.307 19.2493 11.3647 19.2628L11.6949 19.3618C11.8068 19.4076 12.1513 19.5225 12.2375 19.5253C12.2111 19.3315 12.1406 19.3264 12.0348 19.2349C12.0301 19.2308 12.0234 19.2246 12.0187 19.2205L11.9176 19.1325C11.8599 19.0864 11.8351 19.0673 11.7616 19.0438C11.6977 19.0234 11.654 19.021 11.5815 19.0204C11.5098 19.0195 11.5286 19.0238 11.4993 19.0172C11.4161 18.9983 11.3021 18.91 11.1523 19.0879L11.1174 18.8638C10.9348 18.8788 11.0784 18.8702 11.0188 18.84C10.9548 18.9853 11.0435 18.8965 11.0295 19.0588C11.0077 19.3108 10.9335 19.2797 10.874 19.3011Z" fill="#CD9393"/>
<path fill-rule="evenodd" clip-rule="evenodd" d="M14.2782 18.4502C14.2814 18.5785 14.3328 18.7076 14.3513 18.8252C14.4486 18.8524 14.3695 18.8543 14.4779 18.825C14.6136 18.7881 14.4644 18.7894 14.5576 18.8213C14.5658 18.8241 14.5752 18.8293 14.5834 18.8327L14.6461 18.8636C14.6509 18.684 14.6496 18.8535 14.6901 18.6983L14.7391 18.7725C14.6748 18.819 14.6596 18.8393 14.6551 18.9433L14.7154 18.8749C14.8409 18.7425 14.7743 18.8608 14.7961 18.7406C14.8486 18.45 14.8469 18.6323 14.9393 18.531L14.9749 18.4525C14.9772 18.447 14.9806 18.4384 14.9832 18.4326C15.1283 18.0985 15.1291 18.2393 15.2185 18.0664C15.1825 18.0165 15.1947 17.9833 15.0972 18.0484L14.767 18.1498C14.5315 18.1611 14.8636 18.0921 14.6594 18.1714C14.6549 18.1731 14.6421 18.177 14.638 18.1785L14.5109 18.1369C14.4668 18.0917 14.4586 18.0726 14.4316 18.0263C14.5173 18.1575 14.4216 18.076 14.3821 18.1757C14.38 18.1815 14.3757 18.201 14.3748 18.2076L14.4093 18.3503C14.4282 18.4215 14.4237 18.3623 14.4312 18.4675L14.2782 18.4502Z" fill="#B76668"/>
<path fill-rule="evenodd" clip-rule="evenodd" d="M19.6573 10.7012C19.8159 10.8677 20.0942 10.872 20.2982 10.8289C20.5582 10.7743 20.7875 10.825 20.9064 10.641C20.3038 10.5688 20.6484 10.5565 20.2702 10.4481C19.8671 10.3326 20.0387 10.1438 19.7616 10.1172C19.7876 10.2808 19.8004 10.2088 19.8225 10.2902C19.8733 10.476 19.7589 10.4117 19.7104 10.5636C19.6416 10.7798 19.7957 10.5902 19.6573 10.7012Z" fill="#A6CAA5"/>
<path fill-rule="evenodd" clip-rule="evenodd" d="M15.2294 20.3745C15.2738 20.4437 15.245 20.3691 15.2022 20.4008L15.1621 20.4289C15.2873 20.5369 15.2768 20.6985 15.38 20.7703C15.473 20.835 15.5009 20.8069 15.5896 20.8367C15.6798 20.8667 15.7576 20.9464 15.6942 20.9029C15.7458 20.8984 16.1898 20.7182 16.3555 20.9421C16.3495 20.919 16.3227 20.8635 16.3223 20.8615C16.285 20.7188 16.3707 20.7685 16.3173 20.6592C16.264 20.5493 16.1613 20.5187 16.1496 20.391C16.1069 20.4565 16.1583 20.5369 16.0158 20.5056C15.9451 20.49 15.8997 20.4165 15.8427 20.3693L15.7201 20.3676C15.6972 20.253 15.6745 20.2551 15.548 20.2448L15.6721 20.4698C15.628 20.6104 15.3376 20.4156 15.2294 20.3745Z" fill="#BB747B"/>
<path fill-rule="evenodd" clip-rule="evenodd" d="M19.6573 10.7012C19.7957 10.5902 19.6416 10.7798 19.7104 10.5636C19.7588 10.4117 19.8733 10.476 19.8225 10.2902C19.8004 10.2087 19.7876 10.2807 19.7616 10.1172C19.4192 9.98331 19.9751 9.93959 19.1565 9.93124C18.948 9.92909 18.8492 9.90809 18.7405 10.0084C19.3528 10.0872 18.9715 10.2812 19.5416 10.6266C19.6142 10.6705 19.5866 10.63 19.6573 10.7012Z" fill="#588669"/>
<path fill-rule="evenodd" clip-rule="evenodd" d="M13.4778 20.1244C13.4441 19.8658 13.2142 19.551 13.3897 19.2863C13.4746 19.1584 13.4497 19.2516 13.5723 19.2908C13.6537 19.2008 13.6724 19.203 13.8294 19.171C14.0135 19.1338 14.1614 19.1901 14.2531 19.3294C14.2872 19.3811 14.3024 19.4175 14.3262 19.4687C14.5055 19.8518 14.3416 19.8101 14.2016 19.9556C14.0975 20.0636 14.1809 20.0745 14.0137 20.1096C13.6636 20.1834 13.8554 20.1726 13.7339 20.2172C13.6749 20.2386 13.6685 20.2271 13.6169 20.2016C13.4902 20.1388 13.6053 20.1557 13.4778 20.1244ZM13.4778 20.1244L13.4836 20.1722C13.6694 20.244 13.5547 20.2701 13.6951 20.2884C13.8963 20.3143 13.7416 20.2571 13.8984 20.2039C14.1907 20.1051 13.9747 20.3012 14.3285 19.9866C14.4007 19.9226 14.3217 19.9723 14.408 19.9275C14.4672 19.7209 14.5362 19.7957 14.4363 19.4218C14.3654 19.1567 14.3279 19.2175 14.147 19.0575C14.0171 18.9428 13.8369 18.933 13.6865 18.9938L13.5766 19.0446C13.4776 19.06 13.6355 19.0296 13.4951 19.038C13.3231 19.0485 13.364 19.0973 13.3488 19.1674C13.3248 19.2788 13.3333 19.2073 13.301 19.3024C13.1883 19.6348 13.3408 20.0614 13.4778 20.1244Z" fill="#C8948B"/>
<path fill-rule="evenodd" clip-rule="evenodd" d="M13.4681 19.6618C13.5232 19.7375 13.5459 19.7432 13.6076 19.8116L13.7564 19.9822C14.144 19.955 14.0249 19.7675 14.2608 19.7752C14.2152 19.6661 14.225 19.6811 14.2441 19.6522C14.3045 19.5611 14.2269 19.7205 14.2882 19.6005C14.2006 19.4017 14.117 19.4066 14.0307 19.3252L14.0017 19.2915C13.9638 19.2547 14.0431 19.1724 13.7437 19.302C13.6934 19.3239 13.7169 19.3046 13.6758 19.3322L13.5749 19.4495C13.502 19.5335 13.5033 19.5062 13.4681 19.6618Z" fill="#E7B230"/>
<path fill-rule="evenodd" clip-rule="evenodd" d="M13.6289 21.4719C13.712 21.5977 13.634 21.5066 13.7564 21.5606C13.7598 21.4464 13.7506 21.4023 13.7675 21.3075C13.7804 21.2364 13.7864 21.1631 13.8007 21.0772C13.823 20.9462 13.8849 20.7195 14.041 20.7703C13.9745 20.5691 14.0491 20.5592 13.8841 20.4395C13.8682 20.5097 13.6509 20.5397 13.6308 20.5286L13.5723 20.4523C13.5451 20.4892 13.5744 20.5031 13.481 20.606L13.3893 20.7675C13.3642 20.8502 13.3767 20.8089 13.3874 20.8987C13.4034 21.033 13.4358 21.278 13.5869 21.3148L13.6289 21.4719Z" fill="#BC6B6B"/>
<path fill-rule="evenodd" clip-rule="evenodd" d="M14.2139 22.4649C14.3752 22.415 14.4554 22.4874 14.5737 22.5553L14.9056 22.7431C14.9107 22.7236 14.9009 22.6944 14.9538 22.6558C15.0055 22.6183 15.0215 22.6567 15.0931 22.631L15.0382 22.556C14.9405 22.4572 14.9785 22.5575 14.8527 22.3805C14.8503 22.377 14.8244 22.4293 14.8308 22.3434C14.8428 22.1812 14.773 22.4364 14.8482 22.3095C14.8677 22.2763 14.8762 22.3012 14.8998 22.2277C14.851 22.1788 14.819 22.1589 14.8096 22.0672C14.8565 22.0815 14.8381 22.0736 14.8767 22.1025L15.1306 22.272C15.1372 22.2763 15.1473 22.283 15.1555 22.2888C15.1447 22.034 15.071 22.0183 14.9448 21.881C14.8814 21.812 14.9122 21.8293 14.8246 21.7796C14.756 21.9855 14.7046 22.0348 14.5692 22.1617C14.5109 22.2163 14.4714 22.2678 14.3964 22.3263C14.3071 22.3957 14.2876 22.3755 14.2139 22.4649Z" fill="#C9D8D5"/>
<path fill-rule="evenodd" clip-rule="evenodd" d="M16.5471 13.6207C16.5741 13.6021 16.5991 13.5882 16.6257 13.57C16.6437 13.5573 16.6598 13.5466 16.6756 13.5329C16.723 13.4911 16.6881 13.5303 16.7144 13.4909C16.6898 13.3349 16.783 13.4232 16.8445 13.3765C16.9469 13.2982 16.8591 13.5106 16.8623 13.333C16.8625 13.3152 16.858 13.2907 16.8509 13.2421C16.9364 13.271 16.8428 13.2541 16.9424 13.27L17.2834 13.3057C17.2851 13.169 17.2499 13.0711 17.2752 12.983C17.3067 12.8733 17.2947 13.0415 17.3072 12.881C17.1083 12.6804 17.0706 12.8525 16.9874 12.8547C16.9853 12.8547 16.9894 12.8146 16.9041 12.8718C16.8977 12.8761 16.879 12.8932 16.8724 12.8986L16.7922 12.9672C16.7892 12.9695 16.7817 12.9753 16.7789 12.9774L16.7166 13.0233C16.5981 13.1559 16.7517 12.9151 16.6825 13.0831L16.4157 13.5136C16.483 13.513 16.5025 13.5614 16.5471 13.6207Z" fill="#D49B9B"/>
<path fill-rule="evenodd" clip-rule="evenodd" d="M15.3308 14.4496C15.2633 14.6079 15.2007 14.6637 15.2442 14.8932C15.2723 15.0415 15.3319 15.1672 15.4133 15.2431C15.6066 15.2178 15.5779 15.1546 15.7047 14.9236C15.8252 14.704 15.6421 14.3992 15.3524 14.4005L15.3308 14.4496Z" fill="#E7B230"/>
<path fill-rule="evenodd" clip-rule="evenodd" d="M15.2365 13.3272L15.2198 13.2014C15.2159 13.1935 15.2123 13.172 15.2108 13.1765L15.1347 12.8875C15.1041 12.7512 15.0882 12.6987 15.0837 12.5969C15.073 12.3522 14.9363 12.1919 14.7998 12.0637C14.6984 12.0976 14.5696 12.1419 14.524 12.2675C14.5874 12.3916 14.6253 12.3697 14.6922 12.5264C14.7726 12.7152 14.7764 12.6597 14.8911 12.7893C15.0196 12.9348 15.136 13.2303 15.2365 13.3272Z" fill="#E7EAE8"/>
<path fill-rule="evenodd" clip-rule="evenodd" d="M11.8621 21.5184C11.9771 21.4789 12.0382 21.3718 12.1574 21.2846C12.3554 21.1399 12.2896 21.2128 12.3504 20.9571C12.3862 20.8071 12.4636 20.6944 12.5341 20.5868C12.6162 20.4617 12.6667 20.4214 12.8418 20.3621C12.776 20.3196 12.8352 20.3342 12.7134 20.3321C12.5056 20.3766 12.4895 20.3501 12.3798 20.4934C12.3127 20.5811 12.23 20.6891 12.1621 20.7971C12.0341 21.0013 11.9349 21.2651 11.8621 21.5184Z" fill="#E6F1F3"/>
<path fill-rule="evenodd" clip-rule="evenodd" d="M14.0808 12.0909C14.1687 12.0909 14.1766 12.0901 14.2694 12.0731C14.4391 12.0419 14.3277 12.0024 14.4104 12.0712C14.416 12.0654 14.4245 12.0485 14.4271 12.0536L14.6862 11.7839C14.708 11.6471 14.731 11.6161 14.5867 11.5492C14.4348 11.423 14.2287 11.438 14.0615 11.531C14.072 11.8203 14.4061 11.6939 14.1325 12.0324L14.0808 12.0909Z" fill="#E6E4DA"/>
<path fill-rule="evenodd" clip-rule="evenodd" d="M14.4929 15.6295C14.5576 15.5673 14.5255 15.4972 14.7689 15.3286L14.8848 15.46C14.8973 15.3637 14.909 15.3479 14.926 15.2435C14.7578 15.0783 14.8533 15.1218 14.677 14.9144L14.4685 14.9377C14.3821 14.9722 14.4284 14.9491 14.3864 15.017C14.2535 15.2309 14.347 15.5489 14.4929 15.6295Z" fill="#D8B8B8"/>
<path fill-rule="evenodd" clip-rule="evenodd" d="M14.9881 11.7341C16.0851 11.8794 15.6228 12.2904 15.8255 12.5098C15.91 12.2327 15.9807 11.8609 15.7647 11.7015C15.5388 11.5346 15.2112 11.6153 14.9881 11.7341Z" fill="#E6F1F3"/>
<path fill-rule="evenodd" clip-rule="evenodd" d="M12.56 19.1278C12.5114 18.9503 12.4424 19.0583 12.4231 18.8895C12.4166 18.8841 12.4066 18.8681 12.4036 18.8736C12.4006 18.8794 12.3886 18.8614 12.3845 18.858C12.3566 18.8325 12.3622 18.8363 12.335 18.8108C12.2626 18.7427 12.3689 18.7448 12.2259 18.7431C12.0845 18.7414 12.1102 18.8738 12.1104 19.0069C12.3211 19.1136 12.1777 19.1104 12.3206 19.1636C12.3995 19.1927 12.5212 19.2176 12.605 19.248L12.56 19.1278Z" fill="#D7A9A9"/>
<path fill-rule="evenodd" clip-rule="evenodd" d="M15.2294 20.3745C15.3376 20.4157 15.628 20.6105 15.6721 20.4699L15.548 20.2449C15.3166 20.1176 15.3965 20.097 15.1021 20.1495C15.1227 20.196 15.1366 20.2335 15.1638 20.2802C15.1983 20.3392 15.1998 20.325 15.2294 20.3745Z" fill="#DAC7C7"/>
<path fill-rule="evenodd" clip-rule="evenodd" d="M11.8391 20.4006L11.9043 20.7851C11.9868 20.7371 12.1841 20.4885 12.2323 20.3927L11.8391 20.4006Z" fill="#E6F1F3"/>
<path fill-rule="evenodd" clip-rule="evenodd" d="M13.6514 18.8119L14.0133 18.7721L13.8179 18.4393C13.7287 18.522 13.6801 18.6786 13.6514 18.8119Z" fill="#E6F1F3"/>
</g>
<defs>
<clipPath id="clip0_2976_285">
<rect width="30.0001" height="30" fill="white"/>
</clipPath>
</defs>
</svg>
