<svg width="30" height="30" viewBox="0 0 30 30" fill="none" xmlns="http://www.w3.org/2000/svg">
<g clip-path="url(#clip0_592_2254)">
<path fill-rule="evenodd" clip-rule="evenodd" d="M14.7918 0.207947C23.0761 0.207947 29.7921 6.92392 29.7921 15.2082C29.7921 23.4925 23.0761 30.2085 14.7918 30.2085C6.50749 30.2085 -0.208496 23.4925 -0.208496 15.2082C-0.208496 6.92392 6.50749 0.207947 14.7918 0.207947Z" fill="#F7F0E9"/>
<path fill-rule="evenodd" clip-rule="evenodd" d="M15.0121 18.458L15.1053 18.5018L15.1331 18.3084C15.1351 18.3 15.1373 18.2944 15.1395 18.286C15.1418 18.2778 15.1443 18.2719 15.1466 18.2638C15.1553 18.2332 15.1541 18.2433 15.1648 18.1964C15.1825 18.1204 15.1628 18.1442 15.1971 18.055C15.2521 17.911 15.1578 17.9901 15.3082 17.941C15.2948 18.1515 15.2504 18.0788 15.231 18.1995C15.208 18.1664 15.2263 18.1782 15.2608 18.158L15.2779 18.3727C15.331 18.2947 15.37 17.0126 15.4255 16.8114C15.4491 16.7258 15.469 16.6576 15.4912 16.5846L15.7898 15.6609C16.0523 15.302 16.0323 15.508 16.4735 15.3471C16.7539 15.245 16.9992 15.2646 17.2973 15.0774C17.4864 14.9587 17.6548 14.8911 17.8331 14.7679L18.052 14.6068C18.2833 14.3609 18.1527 14.4645 18.1426 14.3382C18.1359 14.2523 18.1376 14.3283 18.1654 14.2789L18.1993 14.2172C18.2431 14.0617 18.2299 14.0308 18.3613 13.909C18.4365 13.8394 18.5737 13.6315 18.6574 13.6528C18.7615 13.6792 18.7087 13.6629 18.7121 13.7201C18.7183 13.8274 18.6936 13.776 18.6666 13.8638C18.8232 13.8596 18.7969 13.8349 18.8682 13.73C18.9004 13.6825 18.8827 13.7092 18.9007 13.6862C18.9041 13.682 18.9089 13.6764 18.9122 13.6719L18.9476 13.6287C19.0062 13.5543 19.0528 13.5133 19.0719 13.4156C19.0888 13.3286 19.0795 13.2498 19.061 13.1729C19.1527 13.1779 19.0826 13.1754 19.1306 13.1639C19.1367 13.1622 19.1449 13.1608 19.1516 13.1588L19.2246 13.1294C19.2316 13.1265 19.2507 13.1181 19.2574 13.1159C19.2964 13.1035 19.3206 13.1044 19.3214 13.1041C19.4059 13.0867 19.3548 13.1072 19.4197 13.0541L19.4811 12.9991C19.4749 12.9952 19.4051 12.9551 19.3997 12.9534C19.3526 12.9393 19.2591 13.0045 19.1718 13.0278C19.123 13.0409 19.1053 13.0415 19.0438 13.0732C18.9498 13.1221 18.7306 13.3514 18.6346 13.2091C18.56 13.0985 18.734 12.8916 18.8159 12.7434L18.9872 12.4771C18.9883 12.4751 18.9922 12.469 18.9933 12.4673C19.0399 12.3831 18.9773 12.4673 19.0074 12.3856C19.0453 12.2826 19.0391 12.3693 19.1008 12.309C19.1979 12.2144 19.0172 12.403 19.1219 12.2834C19.1252 12.2798 19.13 12.2733 19.1334 12.2694L19.4348 11.8498C19.4845 11.774 19.5446 11.7207 19.583 11.6278C19.5768 11.6233 19.5586 11.6191 19.5625 11.6171C19.5664 11.6155 19.5471 11.6093 19.5426 11.6068C19.487 11.5767 19.4519 11.5666 19.4359 11.5026L19.4502 11.289C19.3099 11.3123 19.3461 11.4521 19.2215 11.4838C19.2049 11.488 19.13 11.4906 19.0913 11.4976C19.0916 11.4294 19.0812 11.4426 19.1081 11.3988C19.1435 11.3413 19.1957 11.3354 19.2398 11.1686C19.2956 10.9567 19.3054 11.0047 19.3773 10.8178C19.2981 10.8285 19.2369 11.023 19.1516 11.0943L18.9709 11.2105C18.8976 11.25 18.9479 11.2152 18.9201 11.2557C18.8954 11.2913 18.8943 11.3014 18.8805 11.3283L18.5617 11.9551C18.4929 11.9399 18.3955 11.9767 18.4241 11.8223C18.4351 11.7642 18.4208 11.8231 18.4435 11.7667C18.4668 11.7086 18.5361 11.6037 18.4424 11.5167C18.3374 11.6171 18.2959 11.6463 18.1988 11.726L18.0335 11.8919C17.9956 11.9298 18.018 11.9065 17.9922 11.9281C17.6467 12.2178 17.5311 12.5588 17.3197 12.9528C17.1671 13.238 17.084 13.6138 16.9074 13.8765C16.8575 13.9509 16.8493 14.0064 16.7761 13.9913C16.6714 13.7811 16.8488 13.2267 16.7449 12.9722C16.7421 12.9657 16.7379 12.9562 16.7332 12.9489C16.6911 12.9854 16.6998 12.9677 16.6686 13.0205C16.6203 13.1013 16.6181 13.1802 16.5645 13.2677L16.4749 13.3811C16.4679 13.3963 16.5041 13.4555 16.5187 13.5285C16.4674 13.5122 16.4497 13.5049 16.4014 13.5374L16.359 13.5944C16.3573 13.5972 16.354 13.6037 16.3523 13.6065C16.3506 13.6096 16.3464 13.6157 16.3447 13.6188C16.3427 13.6219 16.3383 13.6281 16.336 13.6315C16.2616 13.7485 16.226 13.8754 16.176 14.0036C16.1743 14.0075 16.1715 14.0148 16.1701 14.0188C16.1687 14.0224 16.1665 14.0297 16.1654 14.0334C16.1491 14.0828 16.1606 14.0519 16.1569 14.0631C16.1541 14.0727 16.1511 14.0873 16.1367 14.1204L16.0657 14.2632C15.9911 14.4266 15.7522 15.3393 15.6083 15.3755C15.5302 15.3951 15.5937 15.3932 15.5165 15.3713C15.4887 15.2843 15.5572 14.8728 15.5575 14.7314C15.5577 14.4524 15.6085 13.9876 15.5339 13.7086C15.4848 13.5256 15.4702 13.2921 15.4289 13.1173C15.3989 12.9904 15.3593 12.6065 15.4227 12.4864L15.4845 12.3943C15.6321 12.1931 15.7775 12.0603 15.9582 11.9003C16.0509 11.8184 16.1331 11.7089 16.2344 11.6371C16.2889 11.5986 16.2939 11.611 16.3562 11.554L16.5782 11.3174C16.6223 11.2728 16.6849 11.2085 16.7101 11.1361C16.7051 11.1316 16.6894 11.1265 16.6939 11.1249C16.7438 11.1035 16.6678 11.1061 16.6633 11.1021C16.6369 11.0808 16.6495 11.1103 16.6167 11.0586C16.6526 10.9972 16.6467 11.0025 16.6992 10.9455C16.7873 10.8498 16.7873 10.8922 16.7559 10.776C16.514 10.7106 16.5816 10.9831 16.4289 10.9812C16.3916 10.8352 16.6004 10.6528 16.7079 10.643C16.7141 10.6831 16.709 10.6795 16.7225 10.721C16.7245 10.7274 16.7273 10.7345 16.7295 10.7412L16.7466 10.7827C16.7491 10.7892 16.7534 10.7982 16.7556 10.8035C16.7578 10.8086 16.7626 10.8164 16.7649 10.8237C16.9641 10.8243 16.8609 10.8265 16.9613 10.7614C16.9523 10.7796 16.9546 10.8369 16.9936 10.8681C16.9549 10.8613 16.933 10.8807 16.9215 10.9242C16.9204 10.9278 16.9184 10.9379 16.9204 10.9447C17.0483 10.977 17.1822 10.7836 17.2532 10.7095C17.2569 10.7056 17.2625 10.7005 17.2658 10.6969L17.6849 10.0875C17.7273 10.0098 17.8339 9.78498 17.8415 9.69461C17.7856 9.72885 17.6664 9.8122 17.6358 9.67749C17.6223 9.6177 17.7115 9.51105 17.7388 9.4712C17.8878 9.25116 18.0938 8.5394 18.0688 8.26547C18.0576 8.14142 18.025 8.2694 18.0525 8.15293C18.0534 8.149 18.0568 8.14198 18.0582 8.13777C18.0873 8.04684 18.1236 7.9458 18.0677 7.86834C17.9052 7.97527 17.7862 8.1577 17.6919 8.34237C17.6894 8.34743 17.6866 8.35444 17.6843 8.35978L17.3826 8.84813C17.3077 8.96545 17.2608 9.12458 17.1236 9.07687C17.1221 8.95254 17.1671 8.85122 17.2207 8.73109C17.2658 8.63005 17.347 8.50348 17.3711 8.41366C17.2254 8.45913 17.0276 8.74625 16.9602 8.88461C16.9335 8.93934 16.9276 8.97162 16.8943 9.02382L16.6411 9.46502C16.5807 9.55708 16.5482 9.66008 16.5162 9.776C16.453 10.0061 16.3464 10.1855 16.2861 10.4246C16.2546 10.5498 16.2235 10.6758 16.125 10.7131C16.0335 10.6542 16.0784 10.5787 16.1191 10.4524C16.2044 10.1877 16.352 9.58992 16.2515 9.34013C16.1805 9.3957 16.1067 9.52649 16.05 9.61125C15.8805 9.86413 15.7118 10.3199 15.6141 10.6219C15.4747 11.0522 15.2992 11.5189 15.3422 11.9851C15.352 12.0931 15.3806 12.1066 15.2883 12.1462C15.2277 12.0971 15.1373 11.5459 15.0786 11.3326C15.0292 11.1529 14.9782 11.1237 14.993 10.9037C15.004 10.742 14.9947 10.5517 14.9919 10.3856C14.9888 10.2178 14.977 10.0926 14.9776 9.93794C14.9784 9.76786 14.9655 9.6149 14.9397 9.45324C14.9321 9.4044 14.9327 9.4058 14.9184 9.34967C14.853 9.09034 14.846 8.81277 14.7904 8.54361C14.7376 8.28933 14.6425 7.91015 14.6958 7.67833C14.7113 7.61097 14.7483 7.58346 14.7924 7.5234L15.448 6.9298C15.5774 6.82006 15.5914 6.79929 15.7037 6.67047C15.8791 6.4698 16.0492 6.27951 16.164 6.06508L15.9961 5.96152C16.0107 5.87844 16.0267 5.82427 16.1286 5.8282C16.1224 5.9472 16.0859 5.89051 16.1328 6.02972C16.1873 6.00642 16.1878 5.96966 16.2097 5.93626L16.2872 5.83157C16.2891 5.82876 16.2939 5.82287 16.2959 5.82006C16.2981 5.81697 16.3029 5.8108 16.3051 5.80743C16.3074 5.80378 16.3119 5.79733 16.3141 5.7934L16.3495 5.72913C16.3635 5.69994 16.3756 5.66682 16.386 5.63567C16.409 5.56578 16.4253 5.49898 16.4376 5.41872C16.3136 5.45352 16.2611 5.62612 16.1502 5.73334C15.9832 5.69517 15.9947 5.61406 16.1137 5.30561C16.1881 5.11251 16.2847 5.00249 16.3273 4.77151C16.1589 4.81726 16.2653 4.87058 16.1146 4.85964C16.1216 4.7788 16.1157 4.82596 16.1384 4.77768C16.1859 4.67664 16.2504 4.5888 16.3486 4.66514L16.3767 4.45801L16.0074 4.72857C15.8011 4.91352 15.6958 5.19026 15.5401 5.41759C15.4559 5.54052 15.3529 5.67412 15.3391 5.86693C15.3158 6.19503 15.3006 5.92952 15.1974 6.28708C15.0876 6.66766 15.1061 6.84869 14.8592 7.20429C14.7752 7.32497 14.5886 7.44033 14.553 7.52144C14.4314 7.50067 14.4109 7.22057 14.3259 7.00025C14.2821 6.88658 14.2386 6.83578 14.2016 6.73474C14.1654 6.63595 14.1398 6.54361 14.0963 6.42966C13.931 5.99744 13.986 6.06873 13.9058 5.82511C13.853 5.66429 13.8047 5.74793 13.6683 5.26519L13.5513 4.92587C13.5487 4.92026 13.5459 4.91324 13.5434 4.90763L13.5165 4.85374C13.242 4.3028 13.37 4.4552 12.9349 4.04375L12.3641 3.56606C12.3256 3.54221 12.3478 3.54585 12.2844 3.52649C12.3012 3.60115 12.3307 3.69517 12.3542 3.78245C12.4157 4.01204 12.4303 4.40496 12.5906 4.57897C12.6675 4.66233 12.6908 4.74148 12.7921 4.83746C12.9476 4.98509 13.0132 5.08192 13.2218 5.1751C13.2942 5.20766 13.3955 5.30954 13.4674 5.38812L13.7216 5.74288C13.7668 5.81922 13.7688 5.86974 13.814 5.95983C13.9661 6.26295 13.9153 6.44594 14.0214 6.70415C14.1179 6.93962 14.1564 7.16836 14.2549 7.3943C14.4483 7.83718 14.526 8.32694 14.6184 8.80378L14.6767 9.06087C14.6837 9.10802 14.6891 9.14563 14.6958 9.19503L14.7084 9.29578C14.7469 9.71032 14.814 10.1928 14.7306 10.6303C14.6481 10.6475 14.617 10.6216 14.5614 10.5835C14.375 10.4549 14.2549 10.4459 14.2002 10.1765C14.1398 9.88097 14.1025 9.59946 14.0214 9.32918C13.9377 9.05105 13.757 8.40665 13.6599 8.17033C13.4466 7.65223 13.5243 7.64942 13.4264 7.40496C13.3239 7.14872 13.018 6.65672 12.8011 6.48158C12.7264 6.42124 12.7497 6.45043 12.6804 6.37212C12.6335 6.31936 12.6127 6.28652 12.5608 6.23628L12.2715 6.01232C12.2501 5.9952 12.2288 5.98004 12.1985 5.9545C12.0172 5.80154 11.9585 5.63286 11.7 5.53323L11.7803 6.0721C11.7823 6.07883 11.7842 6.08585 11.7862 6.0923C11.8718 6.38391 11.8513 6.37269 12.0657 6.63735L12.2077 6.8543C12.2928 6.96881 12.2656 6.96966 12.3674 7.07911C12.4808 7.20036 12.6621 7.3101 12.7404 7.44931C12.7076 7.35725 12.6442 7.30392 12.6798 7.21018C12.7772 7.19783 12.8013 7.23685 12.844 7.31712C12.8676 7.36146 12.9189 7.47653 12.9321 7.53126C13.0183 7.88377 13.1123 7.80098 13.0918 7.93233C13.0351 7.96432 13.0023 7.96937 12.924 7.88461L12.8092 7.71594C12.7519 7.63875 12.7531 7.69292 12.675 7.59413C12.4752 7.34125 12.3043 7.30757 12.029 7.16415C12.0065 7.15237 11.9627 7.12879 11.9369 7.1243C11.8973 7.11756 11.9105 7.11616 11.8681 7.12402C11.6057 7.17145 12.0276 7.68731 12.0713 7.74456C12.1561 7.85571 12.4457 8.12093 12.5729 8.17482C12.567 8.0808 12.5445 8.06227 12.5502 8.00502C12.7124 7.97808 13.0514 8.4058 12.7671 8.22646C12.6655 8.16219 12.7264 8.17314 12.576 8.16079C12.6094 8.29326 12.6686 8.3202 12.7747 8.39851C12.8732 8.4712 13.0346 8.53266 13.0859 8.65195C13.1968 8.91015 12.7306 8.60872 12.6217 8.55063C12.3399 8.40019 12.3944 8.3769 12.2431 8.28849C12.1836 8.25369 12.2364 8.27614 12.1553 8.24667C12.2041 8.43668 12.3029 8.56522 12.3728 8.73502C12.4497 8.92194 12.5499 9.19447 12.6947 9.30729C12.7458 9.34743 12.741 9.34125 12.787 9.39374C12.8923 9.51442 12.8578 9.46138 12.9804 9.56157C13.0601 9.62669 13.0514 9.657 13.1774 9.72071C13.3068 9.78554 13.2055 9.70864 13.2818 9.79564C13.3851 9.91324 13.5586 10.0143 13.6644 10.1288L13.9055 10.3735C13.9102 10.3769 13.9164 10.3811 13.9215 10.3842C13.9265 10.3876 13.933 10.3912 13.938 10.3946C14.1544 10.531 14.16 10.6365 14.43 10.7592L14.5819 10.8689C14.6574 10.9725 14.7042 11.167 14.7761 11.2949C14.855 11.4356 14.8853 11.675 14.9369 11.8523C15.0775 12.3384 14.9782 12.2933 15.1148 12.7016C15.1772 12.8874 15.1791 13.1145 15.2468 13.2963C15.29 13.4123 15.2745 13.3152 15.2799 13.4386C15.2869 13.5995 15.2751 13.8206 15.3228 13.9725L15.3133 14.2096C15.3091 14.4024 15.3015 14.6385 15.313 14.8877C15.3225 15.0917 15.2875 15.3752 15.2743 15.5868C15.2656 15.7258 15.2605 15.7805 15.2372 15.8992C15.2198 15.9887 15.2291 15.9688 15.2007 16.0429L15.1306 16.1585C14.679 15.8035 14.8847 16.0098 14.7853 15.9458C14.6386 15.8515 14.8479 15.849 14.601 15.46C14.5069 15.3115 14.5218 15.3935 14.5111 15.2082C14.4954 14.9419 14.3992 14.671 14.2956 14.4288C14.1965 14.1967 14.1059 13.9747 14.1171 13.6904C14.1224 13.5576 14.0744 13.5032 14.08 13.3904C14.1003 12.9851 14.0587 12.4906 13.9147 12.1018C13.8721 11.9865 13.8112 11.925 13.7665 11.8377L13.6209 11.6006C13.5726 11.504 13.5111 11.4271 13.402 11.3808C13.4185 11.5178 13.4457 11.6233 13.4696 11.7448C13.5212 12.0067 13.5131 12.1546 13.6324 12.4097C13.675 12.5009 13.7536 12.6208 13.6436 12.6769C13.4884 12.508 13.3747 11.7204 13.1264 11.33L12.091 9.6904C12.0461 9.65419 12.043 9.65335 12.0031 9.62332C11.8482 9.50825 11.9827 9.50853 11.7949 9.45464C11.8387 9.68254 11.9271 9.89668 11.9852 10.1249C12.0031 10.1956 12.0233 10.2601 12.0607 10.3356C12.0952 10.4052 12.2976 11.099 12.283 11.1504L12.2212 11.1686C12.1583 11.1176 12.0705 10.7451 12.0301 10.6337C11.9341 10.3699 11.7365 10.0345 11.5302 9.84897C11.5167 9.8369 11.4772 9.80406 11.4758 9.80266C11.4441 9.77123 11.4572 9.78526 11.4303 9.74653L11.3175 9.60255C11.3057 9.58795 11.2914 9.56382 11.27 9.54445C11.2296 9.5074 11.2698 9.54361 11.2249 9.51302C11.0834 9.41731 11.3237 9.59469 11.1934 9.49449L11.0826 9.34658C11.064 9.54193 11.1216 9.625 11.1575 9.78582C11.3186 10.5026 11.178 10.1712 11.535 11.0317C11.588 11.1597 11.6484 11.3014 11.7205 11.385C11.7839 11.4588 11.7761 11.4414 11.8249 11.5402C11.8822 11.6559 11.9784 11.7418 12.0638 11.8386L12.2976 12.1423C12.338 12.2018 12.3826 12.2388 12.3823 12.3073C12.2515 12.3651 12.0461 11.9214 11.8594 11.7375C11.7264 11.6065 11.6588 11.6202 11.4393 11.3525C11.3596 11.2554 11.3949 11.2399 11.27 11.1936C11.3152 11.5206 11.4427 11.7954 11.5619 12.087C11.6099 12.204 11.6071 12.1712 11.668 12.2666L11.8317 12.54C11.8923 12.6407 11.9689 12.7771 12.064 12.8473L12.4761 13.156C12.6947 13.3034 12.9195 13.6741 13.0349 13.7709C13.0831 13.8116 13.1519 13.8563 13.1081 13.9469C12.9953 13.9374 13.0323 13.8905 12.954 13.8029C12.6975 13.5164 12.4188 13.1919 12.068 13.028C11.9759 12.9851 11.7775 12.8425 11.661 12.8142C11.6613 12.9531 11.7994 13.0662 11.8614 13.1832C11.8982 13.2523 11.9209 13.2989 11.965 13.3592C12.0239 13.4403 12.0357 13.4277 12.1017 13.5299C12.1808 13.6517 12.2529 13.7524 12.3655 13.8361C12.5361 13.9626 12.5608 14.1207 12.6475 14.1925C12.6868 14.2251 12.6529 14.1959 12.6964 14.2228C12.7859 14.2784 12.7222 14.2155 12.7795 14.2893C12.8454 14.3744 12.8881 14.4538 12.977 14.5318C12.981 14.5355 12.9869 14.54 12.9905 14.5436C12.9944 14.547 13.0003 14.5517 13.0043 14.5551L13.4525 14.9744C13.4716 14.9955 13.4738 14.996 13.4895 15.0162C13.6501 15.2225 13.581 15.1395 13.8145 15.282L14.7475 16.1874C14.7957 16.2879 14.8768 16.3236 14.94 16.4617C15.1485 16.9172 15.0141 17.4274 15.0374 17.9127C15.0531 18.2478 15.0517 18.1232 15.0121 18.458Z" fill="#A2AEC3"/>
<path fill-rule="evenodd" clip-rule="evenodd" d="M15.3102 24.5492L15.301 24.3671L15.1225 24.3707C15.1393 24.5097 15.0899 24.3932 15.2064 24.435L15.07 24.5243C15.0197 24.5635 15.0186 24.5925 14.9622 24.6424L14.9288 24.5428C14.9263 24.5372 14.9209 24.5282 14.9187 24.5237C14.9164 24.5189 14.9122 24.5102 14.908 24.5043C14.7899 24.6469 14.7104 24.5529 14.7183 24.7334C14.5345 24.6789 14.6417 24.7129 14.553 24.7381C14.482 24.6318 14.5962 24.6208 14.3832 24.6399C14.4357 24.5391 14.4935 24.6197 14.4264 24.4796L14.3978 24.5083C14.3941 24.5125 14.3767 24.5318 14.3722 24.5377C14.2611 24.6873 14.3708 24.6949 14.2137 24.7061C14.2319 24.4218 14.3147 24.6927 14.272 24.435C14.228 24.4347 14.2605 24.4664 14.2664 24.3514C14.2701 24.2837 14.2676 24.1956 14.2662 24.1246L14.338 24.0772C14.3955 24.0264 14.3217 24.0053 14.3748 23.84C14.3111 23.7586 14.2948 23.7909 14.2622 23.7106C14.3026 23.6517 14.3728 23.6115 14.4023 23.6531C14.5289 23.5664 14.4289 23.707 14.4435 23.5832C14.443 23.3497 14.4135 23.2784 14.464 23.0205C14.5064 22.8044 14.5757 22.0943 14.6338 21.9281L14.8143 20.8465C14.8553 20.691 14.9131 20.5105 14.9622 20.3508C15.1354 19.7898 15.3627 19.5419 15.3866 19.4844L15.4009 19.4215C15.4915 19.2944 15.4929 19.2444 15.3664 19.2349C15.1811 19.2969 15.2434 19.012 15.2589 18.8717C15.2816 18.6646 15.3001 18.563 15.2779 18.3727L15.2608 18.158C15.2263 18.1782 15.2081 18.1664 15.2311 18.1995C15.2504 18.0788 15.2948 18.1515 15.3083 17.941C15.1578 17.9902 15.2521 17.911 15.1971 18.055C15.1629 18.1442 15.1825 18.1204 15.1648 18.1964C15.1542 18.2433 15.1553 18.2332 15.1466 18.2638C15.1443 18.2719 15.1418 18.2778 15.1396 18.286C15.1373 18.2944 15.1351 18.3 15.1331 18.3084L15.1053 18.5018L15.0122 18.458C14.9914 18.5313 14.9998 18.6486 14.9903 18.7345C14.979 18.8366 14.9496 18.8661 14.9397 18.9857L14.8738 19.5484C14.8289 20.016 14.7354 20.1675 14.5928 20.5605C14.5103 20.6977 14.5025 20.6845 14.5025 20.8644C14.4261 20.865 14.4385 20.8498 14.4009 20.8905V20.7353C14.2771 20.7465 14.3419 20.7606 14.2743 20.7221C14.2743 20.7218 14.3184 20.6343 14.249 20.5282C14.1511 20.5739 14.2193 20.547 14.1724 20.5751C14.1682 20.5776 14.1348 20.5992 14.1182 20.6056C14.2016 20.7067 14.2013 20.6666 14.2549 20.8072C14.4663 21.3634 14.2305 22.5428 14.2291 23.064C14.228 23.4201 14.1365 23.5243 14.1368 23.9949C14.137 24.2332 14.0986 24.8206 14.0411 25.0238C13.9995 25.1709 13.8853 25.3084 13.807 25.4308L13.6658 25.499C13.6142 25.4412 13.6201 25.4134 13.5766 25.3539C13.4211 25.1409 13.4724 25.3825 13.2838 24.879C13.2473 24.7819 13.2378 24.5854 13.251 24.4701C13.274 24.2708 13.2701 24.2195 13.2653 24.0199L13.3397 23.3988C13.3512 23.1998 13.2687 22.3592 13.2406 22.2571L13.0439 21.5801C12.8713 21.0901 12.9869 21.2551 12.7189 20.8271L12.4915 20.4869C12.4216 20.3923 12.363 20.2854 12.2754 20.1903C12.1853 20.092 12.2075 20.1731 12.148 20.0612C12.0781 19.9295 11.9459 19.6806 11.7938 19.6419C11.7854 19.9736 11.8482 19.8041 11.7932 20.144C11.7741 20.2627 11.7991 20.3662 11.7843 20.4718L11.7722 20.735C11.766 20.7384 11.7489 20.7418 11.7525 20.7432C11.8025 20.7628 11.7191 20.7564 11.7124 20.7592L11.6509 20.787C11.7612 20.9486 12.0262 20.941 11.9338 21.1232C11.8409 21.1639 11.7643 21.0738 11.6835 21.023C11.5855 20.9618 11.5053 20.9408 11.5297 20.787C11.5909 20.76 11.5752 20.7839 11.6341 20.7479C11.5923 20.5854 11.5398 20.5245 11.4918 20.3946C11.4045 20.1591 11.2645 19.929 11.1643 19.6915C11.0818 19.4959 11.1303 19.4934 10.9768 19.3713C11.0113 19.2192 11.0194 19.2792 10.9613 19.1762C10.9588 19.1715 10.9549 19.1647 10.9524 19.1594C10.9103 19.0749 10.9047 18.9975 10.8266 18.9447C10.7697 19.1094 10.7966 19.3702 10.6678 19.4617C10.5889 19.4201 10.6133 19.387 10.4971 19.3121C10.4258 19.2663 10.3512 19.2256 10.2732 19.1802C10.1946 19.1347 10.1413 19.0853 10.0517 19.0407C9.96752 18.9986 9.87715 18.9708 9.81484 18.9222L9.64223 18.7875C9.48759 18.6887 9.33266 18.6087 9.19261 18.4951C9.12637 18.4415 8.98969 18.3079 8.96555 18.4535C8.95489 18.5181 8.98941 18.584 9.01327 18.648C9.10224 18.8888 9.26923 19.46 9.29168 19.7028C9.30712 19.8686 9.41293 20.0614 9.50022 20.1981C9.53193 20.2481 9.58498 20.2826 9.59452 20.3595L9.58441 20.4308C9.52267 20.4117 9.56337 20.4274 9.52211 20.387L9.38851 20.2332C9.33659 20.1664 9.25576 20.0511 9.16819 20.0064C9.16931 20.1193 9.20833 20.215 9.21534 20.3241C9.22545 20.4869 9.18475 20.6713 9.2378 20.8234L9.44745 21.3112C9.4946 21.41 9.50274 21.3808 9.52884 21.4695C9.70594 21.3932 9.51846 21.3982 9.69415 21.3741C9.70173 21.5981 9.67479 21.4154 9.62118 21.5888C9.66777 21.6744 9.6731 21.6486 9.71436 21.7392C9.78425 21.8914 9.90493 22.0738 10.0329 22.1903C10.1398 22.2877 10.6066 22.4656 10.6077 22.611C10.4971 22.6629 10.0411 22.2388 9.53362 22.1973L9.50471 22.311C9.43679 22.3042 9.41349 22.2776 9.35399 22.3157C9.50807 22.5026 9.58666 22.7875 9.80502 23.071C9.97538 23.2919 9.96443 23.4067 10.2167 23.6099L10.5283 23.886C10.5631 23.9166 10.5443 23.9003 10.567 23.9228L10.6908 24.0556C10.8196 24.2108 11.1011 24.3292 11.2948 24.4255L11.8098 24.7258C11.979 24.8215 11.8665 24.6856 12.1977 24.8712L12.5653 25.0452C12.8449 25.1939 12.9706 25.2503 13.2487 25.4549C13.3254 25.5111 13.3155 25.5077 13.377 25.5824C13.3815 25.5882 13.3953 25.6045 13.4 25.6104L13.4371 25.6511C13.4994 25.7272 13.4592 25.6534 13.4949 25.751L13.5078 25.7929C13.5502 25.9436 13.4775 25.9977 13.4388 26.1501C13.4099 26.2644 13.3576 26.5313 13.4337 26.6253C13.4811 26.6542 13.7085 26.7235 13.736 26.7117L13.7548 26.6741C13.7562 26.6694 13.7604 26.6601 13.7621 26.6539L13.784 26.5178C13.8115 26.3466 13.8578 26.1833 13.9487 26.0224C13.9939 25.9419 13.9908 25.957 14.0304 25.8644L14.2827 25.4016C14.5412 25.0059 14.4809 24.9217 14.8822 24.7454L14.9875 24.6966C15.1 24.6433 15.2019 24.6158 15.3102 24.5492Z" fill="#8CA1BC"/>
<path fill-rule="evenodd" clip-rule="evenodd" d="M16.5557 24.5807C16.8229 24.6138 17.3141 24.4605 17.5636 24.3303C17.693 24.2627 17.6309 24.2461 17.7188 24.1973C17.8145 24.1445 17.8282 24.2018 17.9155 24.1378L17.9382 24.1153C17.9798 24.0589 17.9332 24.142 17.952 24.0766C17.9545 24.0682 17.929 24.0306 17.9888 23.9829C18.0856 23.9149 18.0224 24.0513 18.1457 23.8916C18.1409 23.8883 18.1257 23.8863 18.1291 23.8852L18.0087 23.84C18.0177 23.744 18.0286 23.7258 18.0892 23.6727L18.378 23.4777C18.3665 23.3382 18.323 23.4025 18.3472 23.309C18.3755 23.2009 18.3755 23.2787 18.4106 23.2551C18.4782 23.2096 18.4221 23.3037 18.4709 23.199C18.3073 23.1535 18.1712 23.2512 18.0926 23.0637C18.1473 22.9986 18.1151 23.0292 18.1819 22.9944L18.2829 22.9396C18.2874 22.9366 18.2927 22.9312 18.2972 22.9281C18.3014 22.9248 18.307 22.9197 18.3113 22.9166L18.3896 22.8689C18.4544 22.8369 18.4502 22.833 18.5184 22.8156C18.4791 22.7435 18.5692 22.6842 18.5835 22.6085C18.485 22.6289 18.4653 22.6674 18.3677 22.6637C18.3657 22.5812 18.3924 22.5759 18.4064 22.4937C18.4148 22.4951 18.4378 22.5024 18.444 22.5024L18.4836 22.5012C18.4906 22.5007 18.5015 22.4987 18.5077 22.4982C18.5142 22.4976 18.5248 22.4965 18.5333 22.4945L18.5588 22.3879C18.6026 22.5018 18.5414 22.4193 18.6576 22.4608C18.7241 22.3974 18.8136 22.4704 18.7651 22.3629L18.8439 22.4634L18.6301 22.5981L18.6669 22.7095C18.8914 22.7218 19.1235 22.6388 19.3098 22.5908C19.3901 22.5703 19.3873 22.5762 19.4491 22.5515C19.4973 22.5321 19.5521 22.5116 19.6003 22.4948C19.7527 22.4423 19.7724 22.3895 19.8487 22.3362C19.8094 22.2986 19.828 22.3303 19.842 22.3387C19.8428 22.339 19.8479 22.3424 19.849 22.3429L19.8973 22.3623C19.9447 22.3191 19.9332 22.4016 19.9439 22.2548C19.9596 22.2691 19.8813 22.2694 19.986 22.268C20.0432 22.2675 20.0031 22.275 20.0573 22.2515C20.1513 22.2108 20.1889 22.1667 20.2099 22.071C20.2248 22.0031 20.2352 21.9834 20.2501 21.9057C19.9352 21.9691 20.0775 21.9666 20.0654 22.0906C19.9607 22.1229 19.8779 22.2082 19.7701 22.1583C19.7878 22.1049 19.9601 22.0205 19.9411 21.9621C19.8355 21.8105 19.8518 22.0067 19.7567 21.8218C19.746 21.7558 19.778 21.762 19.8047 21.7162L19.8243 21.6845C19.8931 21.5795 20.0985 21.4367 20.1504 21.3303C20.0396 21.0494 20.2821 21.5377 20.0968 21.2585C20.0876 21.2447 20.0533 21.2736 20.0761 21.19C20.0965 21.1153 20.3932 20.8698 20.4252 20.8989C20.5063 20.9733 20.2153 21.1325 20.1861 21.2099C20.1499 21.3045 20.19 21.3056 20.2649 21.2882C20.3811 21.2616 20.5125 21.1033 20.579 21.0101C20.6256 20.9441 20.6194 20.9366 20.6697 20.8723C20.9054 20.5694 20.9585 20.4286 21.0168 20.0292C21.0264 19.9641 21.0385 19.8989 21.0488 19.8296C21.0598 19.7589 21.0682 19.6831 21.0777 19.6289C21.0895 19.5633 21.1036 19.5215 21.1125 19.4364C21.1328 19.2411 21.0651 19.144 21.0932 19.0471C21.1235 18.9427 21.254 18.847 21.1575 18.7356C21.1516 18.7418 21.1389 18.76 21.1358 18.7639L21.0309 18.8552C21.0261 18.858 21.0196 18.8616 21.0149 18.8647L20.5633 19.1072C20.3048 19.316 20.286 19.0906 19.842 19.8218C19.7791 19.9256 19.6756 20.3163 19.5473 20.3387C19.4089 20.1145 19.7233 19.6413 19.7536 19.5029C19.6144 19.5147 19.5145 19.6152 19.4193 19.6977C19.2234 19.8672 19.0665 20.0511 18.9029 20.2588L18.6576 20.552C18.2459 20.9032 17.9627 21.3688 17.9239 21.4069C17.8886 21.4417 17.835 21.4813 17.7808 21.5175C17.7 21.5717 17.6977 21.5919 17.6208 21.6329C17.5344 21.5321 17.5591 21.4347 17.5801 21.2958L17.4477 21.339L17.4687 21.4866C17.4681 21.561 17.4423 21.5678 17.4679 21.6635C17.4987 21.7794 17.6357 21.7743 17.494 21.8852C17.3337 21.8524 17.4589 21.8237 17.3584 21.8044C17.2978 21.7926 17.3385 21.8801 17.1137 21.8347L17.08 21.8897C17.0769 21.8942 17.0716 21.9012 17.0679 21.906C17.0477 21.9321 17.0469 21.9214 17.0213 21.9587C16.9621 22.044 17.0233 21.9582 16.9938 22.0805L16.8866 22.1398C16.7567 22.2408 16.7696 22.1274 16.7081 22.0314L16.5745 22.1005C16.5717 22.1041 16.5669 22.1106 16.5647 22.1142C16.5363 22.1602 16.5554 22.1647 16.5725 22.2256C16.4513 22.2007 16.412 22.2119 16.3733 22.4535C16.5195 22.3898 16.467 22.2992 16.6211 22.3014C16.613 22.4215 16.3707 22.6921 16.2433 22.6882C16.2492 22.5779 16.3149 22.5478 16.348 22.4308L16.0356 22.4238C16.03 22.4249 15.883 22.5619 15.9604 22.2756L16.0359 21.609C16.0387 21.4721 16.1358 21.0889 16.0744 20.9952C15.9952 21.028 16.0424 21.0278 15.9677 21.0665L15.4476 21.4328C15.3912 21.4796 15.3424 21.5812 15.2801 21.6259C15.2237 21.6663 15.2276 21.753 15.1052 21.842C15.0062 21.9141 14.8838 22.1644 14.7895 22.2972C14.7252 22.3876 14.6817 22.6099 14.6517 22.7348C14.6191 22.8703 14.5897 23.0236 14.5863 23.1922C14.5829 23.3545 14.625 23.6531 14.4437 23.5832C14.4291 23.707 14.529 23.5664 14.4025 23.6531C14.373 23.6115 14.3028 23.6517 14.2624 23.7106C14.295 23.7909 14.3112 23.7586 14.375 23.84C14.3219 24.0053 14.3957 24.0264 14.3382 24.0772L14.2663 24.1246C14.2677 24.1956 14.2703 24.2837 14.2666 24.3514C14.2607 24.4664 14.2282 24.4347 14.2722 24.435C14.3121 24.4732 14.327 24.4895 14.3576 24.382C14.3907 24.2646 14.3025 24.2871 14.421 24.2385C14.4263 24.2363 14.4373 24.2332 14.444 24.2279C14.398 24.1462 14.4061 24.1869 14.3935 24.1246C14.4041 24.1243 14.4232 24.135 14.4272 24.1347C14.4822 24.1322 14.4238 24.1541 14.4721 24.1176L14.5852 24.0303C14.6761 23.9714 14.7328 23.8473 14.8574 23.8916C14.9065 24.0272 14.865 24.0614 14.7073 24.0828C14.6845 24.131 14.6806 24.1019 14.68 24.2023L14.5855 24.2245C14.5773 24.2262 14.5709 24.2273 14.5627 24.2293C14.5546 24.231 14.5484 24.2318 14.5403 24.2338C14.4662 24.2523 14.545 24.2161 14.4774 24.2515C14.4131 24.2851 14.4159 24.343 14.4193 24.4061L14.4794 24.462C14.545 24.4768 14.4468 24.4221 14.5192 24.5259C14.5231 24.5316 14.5313 24.54 14.5349 24.5447C14.5389 24.5501 14.5456 24.5599 14.5532 24.5641C14.6087 24.4948 14.6464 24.4833 14.6545 24.3573C14.6461 24.3769 14.5933 24.3545 14.6834 24.3985C14.7454 24.4288 14.8024 24.4044 14.8476 24.3421C14.9149 24.2489 14.8734 24.3407 14.8577 24.3056C14.9439 24.3362 15.0665 24.2834 15.1364 24.2537L15.0407 24.1905C14.9562 24.1403 15.0412 24.2332 14.9711 24.1504C15.0373 24.0227 15.3449 23.9065 15.4659 23.9116C15.4547 23.8111 15.483 23.806 15.4151 23.7623C15.4785 23.7244 15.4106 23.8086 15.4406 23.7362C15.4569 23.7923 15.4726 23.8664 15.4914 23.9175C15.5835 23.8799 15.5422 23.9048 15.5796 23.8103L15.6433 23.6848C15.5055 23.6848 15.5178 23.7179 15.4662 23.6071C15.5055 23.5509 15.5366 23.54 15.6051 23.5287C15.6708 23.5181 15.6828 23.5257 15.7398 23.4987C15.8698 23.4373 15.9267 23.3657 16.0236 23.5035C15.9759 23.6082 16.0449 23.5127 15.9801 23.5574L15.7516 23.6463C15.5824 23.7308 15.661 23.8942 15.8456 23.8521C15.9388 23.831 15.8891 23.7856 16.1207 23.854C16.3157 23.9116 16.5554 23.6817 16.6065 23.9175L16.5327 23.9699C16.4608 24.0227 16.4743 23.9621 16.4625 24.0516C16.4311 24.2893 16.5116 24.0595 16.5425 24.1849C16.4881 24.1145 16.467 24.1069 16.3533 24.0988L16.3267 24.163C16.3253 24.1681 16.327 24.1936 16.3278 24.2023L16.0744 24.2211C16.1389 24.2745 16.1431 24.2481 16.1504 24.3573L16.3399 24.2767C16.4277 24.2509 16.4277 24.2753 16.5274 24.2632C16.6301 24.2509 16.8512 24.1903 16.9363 24.1925C16.9795 24.2686 16.9102 24.3239 16.8717 24.3901C16.7339 24.3691 16.6528 24.3991 16.5302 24.4822C16.4033 24.568 16.4735 24.4788 16.4547 24.5902L16.5557 24.5807Z" fill="#A2AEC3"/>
<path fill-rule="evenodd" clip-rule="evenodd" d="M14.1183 20.6056C14.1348 20.5992 14.1682 20.5775 14.1724 20.575C14.2193 20.547 14.1511 20.5739 14.249 20.5281C14.3184 20.6342 14.2743 20.7218 14.2743 20.7221C14.3419 20.7605 14.2771 20.7465 14.4009 20.7353V20.8905C14.4385 20.8498 14.4261 20.8649 14.5025 20.8644C14.5025 20.6845 14.5103 20.6977 14.5929 20.5604C14.5179 20.5964 14.4483 20.6449 14.3804 20.5781C14.2398 20.4397 14.2314 20.3115 14.123 20.1664C13.9619 19.9505 14.0863 19.5318 14.1306 19.3193C14.1511 19.2217 14.1601 19.1046 14.1747 19.0246C14.1932 18.925 14.2061 18.8226 14.2221 18.7285C14.2431 18.6031 14.2474 18.5453 14.2746 18.4484C14.3565 18.1568 14.2723 17.2744 14.2283 16.9716C14.2008 16.7821 14.1171 16.6449 14.0652 16.4681C13.9807 16.5568 14.0158 16.5778 14.0573 16.7024C14.091 16.8026 14.0717 16.8105 14.1491 16.8801C14.0798 16.9236 14.1455 16.8731 14.1014 16.9424C14.0613 17.0061 14.1023 16.9848 14.0461 17.0168C13.9866 16.9842 13.9591 16.7704 13.9454 16.682C13.9156 16.4903 14.0618 16.5587 13.9886 16.3525C13.9681 16.2955 13.6055 15.8363 13.5364 15.8655C13.4433 15.9048 13.4581 16.0283 13.466 16.1509C13.4713 16.2377 13.4806 16.3797 13.4994 16.4695C13.5224 16.5778 13.5426 16.646 13.5418 16.7586C13.5395 17.0507 13.8309 17.7111 14.0136 17.9514L14.0486 18.0754C13.9485 18.1201 13.9288 18.0502 13.8707 17.9399C13.7357 17.6831 13.6013 17.4355 13.5089 17.1453C13.4444 16.9424 13.3967 16.7549 13.345 16.5458C13.2816 16.2899 13.1828 16.1585 13.1345 15.9564C13.1289 15.9632 13.1152 15.9752 13.1216 15.9797L13.0891 16.0418C13.0458 16.1206 13.1216 16.0491 13.0573 16.0923C13.0004 16.0724 12.8811 15.8492 12.9131 15.7793C13.0486 15.8307 12.912 15.8419 13.0966 15.8967C13.0891 15.7614 12.9538 15.4448 12.8292 15.3718C12.7643 15.5399 12.6939 16.0791 12.7273 16.2803C12.75 16.4178 12.8174 16.4468 12.7006 16.5091C12.6512 16.463 12.578 16.2146 12.5538 16.1046C12.4404 15.5871 12.4295 15.776 12.3035 15.3847C12.2457 15.2062 12.2008 14.9969 12.1056 14.8512L11.7382 14.2991C11.6159 14.1198 11.5903 14.1683 11.5084 14.076C11.4438 14.0033 11.5502 14.1083 11.4806 14.0398L11.3192 13.92C11.1898 13.7934 11.2142 13.7538 11.0756 13.8074C11.0882 13.5919 11.0363 13.6951 10.885 13.5593L10.6338 13.3864L10.8028 13.6971C10.8112 13.7212 10.8275 13.6982 10.7927 13.7779C10.7916 13.7805 10.7859 13.7866 10.7848 13.792L11.214 14.1829C11.2931 14.2242 11.2333 14.1411 11.2886 14.2349C11.3346 14.3123 11.3332 14.5164 11.139 14.312C11.0905 14.261 10.9479 14.1554 10.8682 14.1279L10.9782 14.4703C11.0166 14.5632 11.0186 14.6749 11.1053 14.7412C11.1508 14.6791 11.1258 14.7709 11.1244 14.6834C11.1239 14.65 11.0551 14.5338 11.084 14.5037C11.1921 14.4403 11.301 14.685 11.283 14.8102C11.2125 14.8122 11.1873 14.7642 11.1182 14.7953C11.0992 14.8832 11.1968 14.9587 11.1727 15.09C10.9964 15.0796 10.9802 14.9943 10.9201 14.8703C10.9066 14.886 10.7716 14.8515 10.9816 15.0656C11.0919 15.1779 11.118 15.3109 11.2058 15.4555C11.2535 15.5335 11.2982 15.5624 11.2914 15.6836C11.2089 15.7022 11.1836 15.6741 11.1289 15.6399C11.0228 15.5739 11.0279 15.6 10.9027 15.5607C10.9134 15.618 10.976 15.703 10.9521 15.753C10.9072 15.8475 10.7511 15.5876 10.7402 15.5447C10.7034 15.4044 10.7615 15.5206 10.8185 15.4136C10.7469 15.3704 10.6366 15.2629 10.5698 15.2758C10.5432 15.3294 10.5763 15.3659 10.5965 15.4249C10.6973 15.7159 10.7871 15.9424 10.9869 16.1734C11.0753 16.2753 11.1387 16.1978 11.233 16.3084C11.3234 16.4145 11.272 16.3527 11.3736 16.4271C11.4915 16.5138 11.7166 16.6157 11.8112 16.7285C11.8822 16.8133 11.8261 16.8088 11.9092 16.8885L12.1547 17.1546C12.2053 17.2183 12.3529 17.376 12.2796 17.4493C12.2083 17.4277 12.0823 17.2172 12.036 17.1459C11.9395 16.9969 11.5333 16.735 11.3506 16.6494C11.2608 16.6076 11.2288 16.6095 11.1519 16.5759C10.9919 16.5057 11.1059 16.4964 10.9319 16.4425C10.9622 16.5514 10.9339 16.4709 10.9717 16.5683C11.0105 16.6676 11.0759 16.7238 11.1393 16.817L11.3515 17.0937C11.4065 17.1734 11.4065 17.2245 11.4738 17.3019L11.5673 17.4176C11.5917 17.4476 11.5763 17.4316 11.606 17.4599C11.6625 17.5138 11.704 17.5363 11.761 17.5826L12.18 17.9831C12.347 18.11 12.4444 18.2764 12.5971 18.4117C12.6512 18.4597 12.7758 18.5192 12.871 18.6994C12.8839 18.7238 12.8951 18.7532 12.8948 18.785L12.8575 18.9073C12.7144 18.8798 12.3678 18.1692 11.6843 17.737C11.6467 17.7131 11.6015 17.6901 11.5552 17.6646L11.3018 17.5099C11.2622 17.488 11.2962 17.4928 11.2378 17.4717L11.1721 17.4675C11.1688 17.4844 11.1702 17.4844 11.1744 17.5147C11.2193 17.8388 11.4194 18.0311 11.5488 18.2118C11.6577 18.364 11.6372 18.2876 11.7349 18.3839C11.7871 18.4353 11.7615 18.4324 11.8095 18.4897L11.9543 18.6508C12.0736 18.8158 12.118 18.7945 12.2086 18.8868L13.1643 19.8554L13.4525 20.051C13.5311 20.1083 13.5749 20.1074 13.6313 20.1366C13.7009 20.1731 13.8519 20.3755 13.912 20.4288C13.9751 20.4849 14.0282 20.483 14.0916 20.5674C14.0958 20.5731 14.1014 20.5818 14.1048 20.5862C14.1081 20.591 14.114 20.5989 14.1183 20.6056Z" fill="#A2AEC3"/>
<path fill-rule="evenodd" clip-rule="evenodd" d="M15.3865 19.4844C15.4648 19.4395 15.4674 19.3969 15.5098 19.3056C15.7848 19.2411 16.2757 19.2391 16.5305 19.279C16.7607 19.3152 16.5392 19.2961 16.6706 19.252C16.7522 19.2251 16.7842 19.2989 16.8707 19.2997C17.0896 19.3017 17.6386 19.1631 17.8289 19.057C17.9058 19.014 17.9524 18.9944 18.0262 18.9528C18.1845 18.8636 18.1213 18.8526 18.1822 18.7982C18.2297 18.7555 18.2729 18.7797 18.3562 18.7064L18.7831 18.2304L18.34 18.2184C18.2145 17.8849 18.8454 17.8936 19.1359 17.7547L19.5614 17.4676C19.5648 17.4648 19.5707 17.4597 19.5737 17.4572L19.6557 17.4022C19.748 17.3261 19.7837 17.3006 19.7823 17.1521C19.9167 17.1471 19.9928 17.0452 20.0688 16.9366L20.0958 16.8964C20.0012 16.9091 19.8499 16.954 19.7388 16.9214C19.6414 16.7188 19.8623 16.6812 20.0683 16.4962L20.6116 15.9745C20.6153 15.9705 20.6206 15.9652 20.624 15.9613L20.7107 15.8411C20.789 15.7289 20.8746 15.6758 20.94 15.5394L20.8656 15.5613C20.6961 15.6242 20.5597 15.7143 20.3857 15.7648C20.3501 15.7752 20.3186 15.7822 20.2796 15.7915C20.0366 15.8496 19.8028 15.9427 19.5833 16.0123C19.5841 16.0143 19.6167 16.0606 19.6184 16.0617C19.6852 16.1044 19.656 16.0275 19.7635 16.078C19.7478 16.19 19.4994 16.3093 19.409 16.2975C19.4054 16.2147 19.4306 16.2209 19.4823 16.1701C19.5109 16.1417 19.5027 16.1544 19.5204 16.1297C19.409 16.069 19.3175 16.1605 19.2184 16.2085L19.0335 16.3287C18.8623 16.4768 18.7278 16.6506 18.5499 16.7948C18.4766 16.8541 18.3703 16.9245 18.2934 16.97L18.0107 17.1246C17.8334 17.2153 17.4657 17.3882 17.4705 17.0359L17.645 16.8538C17.7245 16.7468 17.7284 16.785 17.7966 16.6461C17.8665 16.5041 17.9863 16.2961 17.9919 16.1647C17.9299 16.2029 17.9482 16.1754 17.8912 16.1951L17.5577 16.3755C17.4876 16.4277 17.4486 16.4982 17.3924 16.5408C17.3155 16.5992 17.249 16.5885 17.1954 16.6663L17.1702 16.7053C17.1314 16.7547 17.0548 16.7648 16.9852 16.8268L16.7172 17.1516C16.6428 17.2388 16.5844 17.224 16.5645 17.3915C16.7304 17.3679 16.6515 17.3458 16.7565 17.2408C16.814 17.1833 16.8856 17.1333 16.9616 17.1645C16.9703 17.2501 16.8109 17.3388 16.757 17.4255C16.7174 17.4895 16.7348 17.4757 16.7079 17.5369C16.6745 17.4771 16.7107 17.5105 16.6591 17.4499C16.5982 17.3789 16.6349 17.4086 16.5558 17.3823C16.512 17.4485 16.5496 17.4505 16.5406 17.5478C16.5342 17.6191 16.5437 17.5549 16.5179 17.6132C16.4994 17.6556 16.4982 17.6405 16.4851 17.6871C16.3475 17.6407 16.4794 17.65 16.3492 17.6351C16.3037 17.6798 16.2608 17.7485 16.2229 17.8072L15.8583 18.5013C15.8555 18.5066 15.8524 18.5133 15.8499 18.5184C15.7506 18.6994 15.6532 18.8911 15.4943 19.0292C15.4225 19.0921 15.4025 19.176 15.3663 19.2349C15.4929 19.2445 15.4915 19.2944 15.4009 19.4216L15.3865 19.4844Z" fill="#A2AEC3"/>
<path fill-rule="evenodd" clip-rule="evenodd" d="M15.3102 24.5492C15.498 24.5983 15.5056 24.5661 15.6094 24.5748C15.7669 24.588 15.7803 24.6236 15.9215 24.5936C16.0248 24.5717 16.2563 24.5882 16.3891 24.5997L16.5555 24.5807L16.4545 24.5902C16.4733 24.4788 16.4031 24.568 16.53 24.4821C16.6526 24.3991 16.7338 24.369 16.8716 24.3901C16.91 24.3239 16.9793 24.2686 16.9361 24.1925C16.8511 24.1903 16.6299 24.2509 16.5272 24.2632C16.4276 24.2753 16.4276 24.2509 16.3397 24.2767L16.1503 24.3572C16.143 24.2481 16.1388 24.2745 16.0742 24.2211L16.3276 24.2023C16.3268 24.1936 16.3251 24.1681 16.3265 24.163L16.3532 24.0988C16.4668 24.1069 16.4879 24.1145 16.5423 24.1849C16.5115 24.0595 16.4309 24.2893 16.4624 24.0516C16.4741 23.9621 16.4607 24.0227 16.5325 23.9699L16.6063 23.9175C16.5553 23.6817 16.3156 23.9116 16.1205 23.854C15.889 23.7855 15.9386 23.831 15.8455 23.8521C15.6608 23.8942 15.5822 23.7308 15.7514 23.6463L15.9799 23.5574C16.0447 23.5127 15.9757 23.6082 16.0234 23.5035C15.9266 23.3657 15.8696 23.4372 15.7396 23.4987C15.6827 23.5256 15.6706 23.5181 15.6049 23.5287C15.5364 23.54 15.5053 23.5509 15.466 23.607C15.5176 23.7179 15.5053 23.6848 15.6431 23.6848L15.5794 23.8102C15.5421 23.9048 15.5833 23.8798 15.4913 23.9175C15.4725 23.8664 15.4567 23.7923 15.4405 23.7361C15.4104 23.8086 15.4784 23.7244 15.4149 23.7622C15.4828 23.806 15.4545 23.8111 15.4657 23.9116C15.3448 23.9065 15.0371 24.0227 14.9709 24.1504C15.0411 24.2332 14.956 24.1403 15.0405 24.1905L15.1362 24.2537C15.0663 24.2834 14.9437 24.3362 14.8575 24.3056C14.8732 24.3407 14.9148 24.2489 14.8474 24.3421C14.8022 24.4044 14.7453 24.4288 14.6832 24.3985C14.5931 24.3544 14.6459 24.3769 14.6543 24.3572C14.6462 24.4833 14.6086 24.4948 14.553 24.5641C14.5454 24.5599 14.5387 24.5501 14.5348 24.5447C14.5311 24.54 14.523 24.5315 14.519 24.5259C14.4466 24.4221 14.5449 24.4768 14.4792 24.4619L14.4191 24.4061C14.4158 24.3429 14.413 24.2851 14.4772 24.2514C14.5449 24.2161 14.466 24.2523 14.5401 24.2338C14.5482 24.2318 14.5544 24.231 14.5625 24.2293C14.5707 24.2273 14.5771 24.2262 14.5853 24.2245L14.6799 24.2023C14.6804 24.1018 14.6844 24.131 14.7071 24.0828C14.8648 24.0614 14.9064 24.0272 14.8572 23.8916C14.7326 23.8473 14.6759 23.9713 14.585 24.0303L14.4719 24.1176C14.4236 24.154 14.482 24.1322 14.427 24.1347C14.4231 24.135 14.404 24.1243 14.3933 24.1246C14.4059 24.1869 14.3978 24.1462 14.4438 24.2279C14.4371 24.2332 14.4261 24.2363 14.4208 24.2385C14.3024 24.2871 14.3905 24.2646 14.3574 24.3819C14.3268 24.4894 14.3119 24.4732 14.2721 24.435C14.3147 24.6926 14.2319 24.4218 14.2137 24.7061C14.3709 24.6949 14.2611 24.6873 14.3723 24.5377C14.3767 24.5318 14.3942 24.5125 14.3978 24.5082L14.4264 24.4796C14.4935 24.6197 14.4357 24.5391 14.3832 24.6399C14.5962 24.6208 14.482 24.6317 14.553 24.7381C14.6417 24.7128 14.5345 24.6789 14.7183 24.7333C14.7105 24.5529 14.7899 24.6469 14.908 24.5043C14.9123 24.5102 14.9165 24.5189 14.9187 24.5237C14.921 24.5282 14.9263 24.5372 14.9288 24.5428L14.9622 24.6424C15.0186 24.5924 15.0197 24.5635 15.07 24.5242L15.2064 24.435C15.0899 24.3932 15.1393 24.5096 15.1225 24.3707L15.301 24.3671L15.3102 24.5492Z" fill="#BBBCC3"/>
<path fill-rule="evenodd" clip-rule="evenodd" d="M9.31444 18.087C9.35177 18.0328 9.32539 18.0496 9.42137 18.0558C9.41857 18.1237 9.34672 18.1799 9.46431 18.3185C9.51568 18.3791 9.64394 18.4457 9.7141 18.5068C9.86173 18.636 10.0574 18.7836 10.3094 18.7878C10.2333 18.4605 9.91197 18.3166 9.75227 18.142C9.75031 18.1395 9.74582 18.1333 9.74386 18.1308L9.64478 18.037C9.54767 17.9436 9.24428 17.6048 9.14099 17.5748L9.2395 17.8956C9.27431 17.9885 9.29367 17.9663 9.31444 18.087Z" fill="#A2AEC3"/>
</g>
<defs>
<clipPath id="clip0_592_2254">
<rect width="30.0001" height="30" fill="white"/>
</clipPath>
</defs>
</svg>
