<svg width="31" height="30" viewBox="0 0 31 30" fill="none" xmlns="http://www.w3.org/2000/svg">
<g clip-path="url(#clip0_2976_255)">
<path d="M30.8961 14.9997C30.8961 23.2841 24.1803 30 15.8958 30C7.61136 30 0.895508 23.2841 0.895508 14.9997C0.895508 6.71586 7.61136 0 15.8958 0C24.1803 0 30.8961 6.71586 30.8961 14.9997Z" fill="#E8F1F6"/>
<path d="M30.8961 14.9997C30.8961 23.2841 24.1803 30 15.8958 30C7.61136 30 0.895508 23.2841 0.895508 14.9997C0.895508 6.71586 7.61136 0 15.8958 0C24.1803 0 30.8961 6.71586 30.8961 14.9997Z" fill="#E3F3FD"/>
<path fill-rule="evenodd" clip-rule="evenodd" d="M21.0094 18.5104C20.9792 18.4752 20.9991 18.4924 20.958 18.4596C20.8298 18.3574 20.7593 18.4133 20.6503 18.2461L20.8761 18.3522C20.8813 18.3567 20.8875 18.3634 20.8924 18.3681C21.0339 18.4964 20.9479 18.4262 21.1361 18.5256C21.3821 18.6557 21.8443 19.0362 21.8081 19.2874C21.8025 19.3257 21.7826 19.3761 21.7603 19.417C21.7588 19.42 21.7337 19.4612 21.7262 19.4736C21.6251 19.6407 21.6204 19.6566 21.5306 19.5831C21.5267 19.7005 21.5171 19.6506 21.5539 19.7273C21.4969 19.7162 21.4791 19.7037 21.4436 19.7112C21.1989 19.7623 21.6227 19.6005 21.387 19.7575C21.3193 19.8025 21.2488 19.7882 21.1862 19.759C21.1815 19.7652 21.1779 19.7753 21.1751 19.7794C21.1725 19.7835 21.1669 19.7944 21.1635 19.7991C21.0939 19.894 21.1003 19.8606 21.0058 19.882L20.9314 19.9009C20.5956 20.0031 20.628 19.8501 20.424 19.8855C20.2984 19.9071 20.2146 19.8885 20.0584 19.8664C19.9581 19.852 19.6238 19.6007 19.5565 19.5692L19.3545 19.4168C19.3185 19.3808 19.3191 19.3782 19.294 19.3527C19.0204 19.0752 19.2081 19.1393 19.0669 18.9674C18.976 18.8567 18.9064 18.8444 18.8558 18.6912C18.9657 18.697 19.0182 18.7427 19.0999 18.7744L19.129 18.7465C19.1327 18.7433 19.1402 18.7362 19.1442 18.7324C19.159 18.7182 19.186 18.6929 19.1914 18.6869L19.2194 18.6527C19.2229 18.6484 19.2291 18.6381 19.2319 18.6344C19.2355 18.6293 19.2486 18.6053 19.2533 18.5963L19.5293 18.5569C19.7592 18.6117 19.6296 18.6047 19.803 18.5348C19.932 18.4829 19.9221 18.5674 19.9843 18.4461C20.0128 18.5811 19.9939 18.4853 20.0715 18.6049C20.0972 18.6447 20.091 18.6293 20.1025 18.6659C20.1051 18.6739 20.1094 18.7067 20.1158 18.7444C20.3914 18.6829 20.2148 18.6602 20.301 18.8417C20.3486 18.9417 20.5101 18.9919 20.6151 18.997C20.6181 18.9006 20.6173 18.9413 20.5731 18.8502C20.5712 18.8462 20.5633 18.8421 20.5618 18.8322C20.5603 18.8226 20.5523 18.8215 20.5502 18.8149L20.7373 18.7412C20.6794 18.6972 20.5849 18.5918 20.4988 18.5802L20.7566 18.5646L20.7881 18.475L21.0094 18.5104ZM17.7803 18.6152C17.6682 18.6321 17.4263 18.8316 17.3271 18.9077C17.2857 18.9415 17.257 18.9593 17.197 19.0049C17.1226 19.0917 17.0283 19.1517 16.9383 19.2574C16.841 19.3716 16.8029 19.4359 16.7352 19.5777C16.6308 19.7968 16.4669 20.0852 16.4474 20.3479L16.4348 20.5264L16.5344 20.4349C16.5631 20.3828 16.5625 20.2423 16.6265 20.1081C16.6587 20.041 16.6289 20.139 16.6546 20.0479C16.6548 20.0481 16.6803 20.124 16.7611 20.1141C16.8541 19.9652 16.8269 19.9804 16.8233 19.9245C16.8203 19.8801 16.7785 19.755 16.9253 19.6077C17.0112 19.447 17.4359 19.1232 17.5962 18.9938C17.5874 19.0043 17.4807 18.9559 17.6286 19.072C17.6498 19.0887 17.6832 19.0922 17.7451 19.1475C17.7325 19.3343 17.7396 19.2919 17.7805 19.3332C17.8448 19.2972 17.9658 19.1532 18.0061 19.098C18.0959 18.9741 18.1242 18.9996 18.2408 18.8929C18.2451 18.8995 18.2483 18.9098 18.2498 18.9145C18.2787 19.0002 18.3025 19.1033 18.2284 19.1781C18.3726 19.2507 18.3625 19.4172 18.4838 19.5771C18.3627 19.7794 18.3381 19.9414 18.3021 19.998C18.0426 20.0473 18.0929 20.0595 17.8966 20.154L17.7828 20.2828C17.7951 20.3496 17.7565 20.2836 17.8058 20.37C17.8399 20.4296 17.8203 20.3914 17.8566 20.4259C17.7873 20.3942 17.8278 20.397 17.773 20.4473C17.6723 20.5393 17.7098 20.4461 17.665 20.5588L17.8242 20.5905C17.9146 20.5768 17.872 20.5556 17.9371 20.5534C17.8793 20.5412 17.9052 20.562 17.8186 20.6166C17.7276 20.6741 17.7072 20.6509 17.5731 20.6646C17.6466 20.9468 17.4663 20.6715 17.4432 21.2004L17.6601 21.1249C17.6631 21.1245 17.6716 21.123 17.6772 21.1236C17.7874 21.3051 17.6082 21.4063 17.5311 21.4119C17.3712 21.4234 17.5398 21.4648 17.4837 21.3996L17.4908 21.4849H17.4884C17.5422 21.4588 17.4948 21.4641 17.5694 21.4601C17.6693 21.4547 17.6547 21.4903 17.7271 21.516C17.7308 21.5173 17.7419 21.5188 17.7447 21.5196C17.7477 21.5205 17.7567 21.5229 17.7627 21.5216C17.7906 21.3879 17.7584 21.4931 17.7179 21.3566C17.8384 21.2901 17.9434 21.3677 17.9494 21.4196C17.9324 21.5004 17.8829 21.5539 17.9084 21.6866C17.926 21.7779 17.9693 21.8407 17.9834 21.9489C18.1178 21.7972 17.9489 21.8687 18.1615 21.645C18.2476 21.5544 18.1825 21.6039 18.2845 21.5196L18.5082 21.2261C18.5967 21.1573 18.5749 21.2222 18.6666 21.0988C18.7094 21.0413 18.6644 20.967 18.7688 21.0233L18.8234 21.0819C18.8267 21.0844 18.8348 21.0896 18.8384 21.0917C18.8421 21.0941 18.8515 21.0984 18.8552 21.1003C18.859 21.1024 18.8702 21.1067 18.8734 21.1082C18.8768 21.1099 18.8869 21.1121 18.8927 21.1157C18.7673 21.1892 18.8297 21.1181 18.8717 21.3812C18.8727 21.3879 18.874 21.3966 18.8751 21.4035C18.8819 21.4472 18.8897 21.4721 18.8929 21.5278C18.9889 21.5199 18.9957 21.5055 19.0429 21.471C18.9482 21.3868 18.94 21.3351 18.9512 21.1708C19.1704 21.2747 19.1665 21.0731 19.1918 20.8701C19.2788 20.9413 19.3497 21.4031 19.3579 21.5417C19.3718 21.7849 19.3572 21.6624 19.2726 21.7862C19.366 21.9392 19.2964 21.7157 19.3414 21.8707L19.297 21.9551C19.279 21.9973 19.2777 21.9994 19.2681 22.0408C19.2499 22.1203 19.2709 22.2 19.1899 22.3057L19.1273 22.368C19.015 22.4947 19.1365 22.4338 19.0514 22.5142C18.9385 22.6224 18.7879 22.5294 18.6863 22.5418C18.6595 22.6245 18.6831 22.5707 18.6572 22.6757C18.8059 22.7542 18.8582 22.7559 19.0125 22.6498C19.1052 22.5862 19.2278 22.4945 19.3052 22.4212C19.5402 22.1987 19.5282 21.9924 19.7127 21.7532L20.0775 21.7672L20.1469 21.6806C20.1518 21.6748 20.1606 21.6658 20.1677 21.6585C19.5728 21.6034 19.7655 21.4142 19.7226 21.2323C19.702 21.1449 19.7299 21.2394 19.6688 21.1524C19.5979 21.0508 19.6568 21.1491 19.6114 21.0315L19.5385 20.7773C19.5012 20.6417 19.4661 20.6957 19.4333 20.5588L19.5812 20.4495C19.585 20.4458 19.5923 20.4377 19.5985 20.4326C19.7091 20.5643 19.737 20.6018 19.8715 20.6777C19.9487 20.7212 19.8762 20.7362 19.9628 20.7131C19.9733 20.6841 19.9789 20.7131 19.9677 20.6556C19.9517 20.5731 19.9733 20.6526 19.9474 20.6001C19.9339 20.5727 19.8814 20.4915 19.8668 20.4692C20.2185 20.4827 20.0477 20.586 20.2558 20.6038C20.3466 20.6115 20.2877 20.6481 20.3546 20.5613C20.3646 20.697 20.4248 20.7122 20.5189 20.7964C20.7126 20.97 20.6638 20.8498 20.7707 20.8221C20.7304 20.8425 20.7377 20.8151 20.7188 20.9261C20.9696 20.9573 20.8365 21.0992 21.0248 21.0028C20.9916 20.8607 20.9616 20.9106 20.8781 20.8058C20.7827 20.6858 20.8706 20.6929 20.6723 20.5181L20.4842 20.3385C20.4285 20.2894 20.4199 20.3153 20.4002 20.2335C20.4148 20.2243 20.9906 20.079 21.1517 20.3162C21.1521 20.317 21.1783 20.3631 21.1826 20.3704C21.3103 20.3796 21.2567 20.3895 21.3422 20.3432C21.3834 20.4047 21.3703 20.3978 21.4009 20.4615L21.5621 20.4244C21.6748 20.4411 21.6977 20.4653 21.7995 20.4679C21.8323 20.397 21.8145 20.4701 21.8139 20.3803C21.7397 20.2251 21.7269 20.233 21.6231 20.1838C21.6159 20.1803 21.6075 20.1778 21.6002 20.1741C21.5929 20.1705 21.5846 20.167 21.5775 20.1634C21.5319 20.1392 21.5419 20.1478 21.5121 20.1218C22.1385 19.9806 21.9774 19.885 22.3215 19.7192C22.4366 19.7905 23.0165 20.3415 23.4478 20.4585C23.4414 20.3275 23.312 20.3038 23.2095 20.2534C22.9807 20.1409 22.5277 19.8488 22.4347 19.6384C22.5298 19.5255 22.6292 19.5218 22.6858 19.4202C22.3757 19.2799 22.3451 19.2649 22.0558 19.1995C21.975 19.1811 21.9386 19.0491 21.8899 18.9657C21.6705 18.6081 21.5246 18.4099 21.1449 18.2369C20.6708 18.0207 20.4563 18.0458 19.9183 17.9644L19.7929 18.0314C19.0855 18.4112 19.2732 18.1454 18.8237 18.2446C18.8202 18.3477 18.8001 18.3722 18.7924 18.4564C18.7877 18.5082 18.7997 18.5127 18.7808 18.5669C18.7472 18.6629 18.7677 18.6259 18.7011 18.6872C18.6788 18.6529 18.6561 18.6124 18.6261 18.5794C18.3331 18.2545 18.1405 18.3456 17.8844 18.544C17.8609 18.5622 17.8298 18.5789 17.7803 18.6152Z" fill="#BC6B6B"/>
<path fill-rule="evenodd" clip-rule="evenodd" d="M15.5032 14.417L15.3114 14.4269C15.0562 14.5885 14.9681 14.3365 14.3131 15.0042C14.2329 15.0858 14.2314 15.0878 14.1793 15.2101C14.1048 15.3861 14.0881 15.5706 14.0615 15.7701C14.0623 15.9113 14.0688 15.9492 14.0034 16.0437C13.9243 16.1577 13.9895 15.9717 13.9361 16.1678C13.9192 16.2301 13.9209 16.2741 13.9074 16.3191C14.1699 16.4299 14.4491 17.0567 14.8955 17.0952C15.2949 17.1297 15.3179 17.106 15.6423 16.9797C15.8094 16.9146 16.1894 17.0061 16.3385 17.0916C16.2978 17.4094 16.2117 17.439 16.2627 17.8551C16.3777 17.9338 16.4386 17.9434 16.5781 17.9018C16.7333 17.8558 16.6531 17.8414 16.8601 17.7394C16.8682 17.7452 16.8785 17.7454 16.8826 17.7591C16.8841 17.7643 17.0703 17.976 17.29 17.991C17.6806 18.0175 17.7428 18.0805 18.0456 18.1318C18.1386 18.1474 18.1774 18.1611 18.3019 18.1639C18.1399 17.8746 18.199 17.9695 18.2712 17.8896C18.3796 18.052 18.4446 18.1742 18.6049 18.1963C18.6979 18.1191 18.6098 18.2113 18.6582 18.1165L18.7628 18.0047C18.8539 17.9835 18.715 18.0688 18.8524 17.9815C18.8264 17.8937 18.8376 17.955 18.802 17.8997L18.7422 17.7975C18.7881 17.7621 18.8005 17.7336 18.8363 17.686C18.946 17.5395 18.8946 17.6522 18.9884 17.4692C19.0487 17.3517 19.0735 17.3588 19.1785 17.2965C19.1841 17.2932 19.1918 17.2885 19.1974 17.2851C19.2029 17.2819 19.2105 17.2767 19.216 17.2735C19.378 17.1782 19.3527 17.2337 19.5094 17.1441L19.737 16.9898C19.7895 16.8992 19.7802 16.9922 19.744 16.9103C19.6212 16.8713 19.6729 16.9394 19.5415 17.0123C19.4665 17.0539 19.3787 17.0522 19.2822 17.0852C19.1421 17.1334 19.2567 17.0987 19.1359 17.1872L18.9803 17.2797C18.9053 17.3344 18.9342 17.3037 18.8851 17.368C18.8851 17.368 19.0551 17.3603 18.8147 17.2892C18.7159 17.2598 18.9563 17.2877 18.7317 17.2761L18.7523 17.3528C18.7907 17.482 18.8035 17.4625 18.7624 17.4908C18.7568 17.5641 18.736 17.4514 18.6657 17.5133C18.5727 17.5952 18.6994 17.5283 18.5421 17.6773C18.4088 17.8035 18.5044 17.7602 18.511 17.767C18.5344 17.3815 18.2916 17.613 18.2037 17.2671C18.178 17.166 18.1819 17.1259 18.1178 17.0305L18.1486 16.9971C18.1857 17.1297 18.1572 17.05 18.2712 17.0884C18.3057 17.0404 18.3494 17.0117 18.3636 16.9634C18.2622 17.0348 18.2888 17.0914 18.391 17.1612C18.5644 17.2797 18.6961 17.1255 18.7555 17.0963C18.9587 16.996 18.6638 17.1752 18.8612 17.068C18.9109 17.041 18.8984 17.1398 18.9359 16.9712C18.9527 16.8955 18.9274 16.8422 18.9109 16.7856C18.8119 16.7884 18.6314 16.7453 18.7622 16.8771L18.7165 16.8383C18.7131 16.8302 18.7009 16.8119 18.7009 16.7237C18.6179 16.7682 18.5496 16.8409 18.5311 16.7483C18.5299 16.7425 18.5344 16.6654 18.5378 16.6604L18.5601 16.6394C18.7321 16.4757 18.6068 16.5452 18.5774 16.3414C18.562 16.2338 18.6175 16.3214 18.5755 16.1712C18.619 16.1149 18.5491 16.1521 18.6488 16.1474L18.5468 16.078C18.3876 15.9837 18.4771 16.0182 18.3634 15.8513L18.247 15.958C18.2416 15.9507 18.2286 15.9719 18.2183 15.9766L18.2408 15.7746C18.1403 15.8708 18.1977 15.7889 18.1769 15.904C18.133 16.1479 18.1883 15.946 18.0644 16.1791C18.0089 16.2837 17.9995 16.231 18.0008 16.3184C18.0016 16.3647 18.0741 16.7603 17.8724 16.57C17.8677 16.7104 17.8381 16.6645 17.8754 16.7892L17.9354 17.0447C18.0023 17.328 17.9519 17.238 17.9523 17.3136L17.9583 17.3453C17.9755 17.5026 18.0357 17.2328 17.9472 17.4602C17.9438 17.4692 17.9309 17.4951 17.9277 17.49C17.9245 17.4844 17.9144 17.5122 17.9052 17.5212C17.8784 17.4081 17.8846 17.3672 17.818 17.2611L17.7355 17.1739C17.7355 17.1737 17.5926 16.8859 17.5947 16.5726C17.3935 16.5805 17.6106 16.6045 17.4046 16.6412L17.4271 16.5938C17.4565 16.5169 17.3967 16.2949 17.3508 16.1941C17.2521 16.2871 17.0693 16.4972 17.0275 16.6311C16.9574 16.855 17.0219 16.87 16.9235 17.0796C16.8625 17.2095 16.9017 17.1375 16.9212 17.1533C16.9212 16.9847 16.9405 16.9482 16.9499 16.8173C16.958 16.7046 16.951 16.5629 16.9518 16.4494C16.7988 16.5709 16.8764 16.645 16.7373 16.7717C16.6152 16.7584 16.6409 16.6844 16.6452 16.6896C16.5734 16.7477 16.6212 16.7847 16.5224 16.8419C16.5003 16.7897 16.3473 16.9611 16.6173 16.5977C16.6696 16.5272 16.7009 16.4702 16.7491 16.3941C16.8464 16.24 16.9698 16.1309 17.0138 15.9271L16.8295 16.0118C16.7911 16.0396 16.6606 16.1455 16.6285 16.1806C16.6133 15.8826 16.6443 15.9574 16.7223 15.8993C16.6488 15.853 16.7062 15.9029 16.6574 15.8221C16.5601 15.6616 16.7292 15.9565 16.6358 15.7804L16.5072 15.8174C16.3379 15.9548 16.5046 15.9121 16.322 15.9597C16.1671 15.9998 16.3557 15.8611 16.0336 15.9535L16.2029 15.4799C16.1281 15.529 16.1133 15.559 16.0165 15.5774L16.0516 15.4983C16.0544 15.4911 16.0582 15.4831 16.0606 15.4758L16.0053 15.3201C15.9014 15.2371 16.0162 15.3869 15.9882 15.2883C15.9695 15.2221 16.0392 15.2894 15.9571 15.1758L15.758 15.0543C15.8917 15.0183 15.8532 15.0837 15.8476 14.9041C15.8403 14.9071 15.8319 14.9146 15.8277 14.9168L15.7368 14.9472C15.7036 14.9438 15.6689 14.9189 15.6327 14.9011C15.6269 14.9069 15.6189 14.9146 15.6151 14.9185C15.4432 15.0923 15.5062 15.064 15.374 15.0548L15.4612 14.9465C15.4653 14.9277 15.4743 14.9251 15.4792 14.9135C15.218 14.9279 15.293 15.0162 15.1726 14.9341C15.1655 14.8733 15.1899 14.8105 15.2336 14.788C15.1835 14.7413 15.1829 14.7903 15.344 14.8004C15.428 14.6313 15.3764 14.711 15.5442 14.6521C15.6397 14.6185 15.5577 14.6765 15.6108 14.6161C15.6567 14.5643 15.6249 14.633 15.6269 14.5583C15.6312 14.3748 15.5842 14.6168 15.6018 14.4837C15.6633 14.4835 15.7647 14.4914 15.8157 14.4897C16.0201 14.4826 16.0019 14.4278 16.0317 14.3903L15.8598 14.3731C15.797 14.4717 15.8802 14.3875 15.7829 14.4158C15.7531 14.4243 15.7254 14.4273 15.6942 14.4293C15.6515 14.4318 15.5474 14.423 15.5032 14.417Z" fill="#C47B7B"/>
<path fill-rule="evenodd" clip-rule="evenodd" d="M18.1948 11.0229C18.1581 11.0606 18.1673 10.9976 18.141 11.1343L18.0801 11.0852L18.0923 11.1701C17.9462 11.2622 17.8478 11.3428 17.7276 11.4251C17.6419 11.4836 17.6181 11.4892 17.5483 11.5517C17.4677 11.6242 17.4838 11.6464 17.4058 11.6833C17.358 11.8438 17.2767 11.9677 17.2337 12.1603C17.1885 12.3611 17.194 12.5634 17.193 12.7762C17.121 12.7113 17.1205 12.6673 17.022 12.6135C17.004 12.7436 17.049 12.609 16.9279 12.7387L16.8132 12.8786C16.7897 12.6461 16.7618 12.6129 16.6309 12.5216C16.5717 12.4805 16.5169 12.3782 16.2329 12.2501C16.1183 12.1982 15.928 12.1805 15.9644 12.3071L15.9368 12.2792C15.9312 12.2801 15.9432 12.2707 15.9432 12.2735C15.9434 12.2765 15.9486 12.2625 15.9486 12.2602C15.9443 12.1672 15.9576 12.2597 15.9349 12.1871L15.7214 12.1652C15.7165 12.1657 15.7079 12.1682 15.7034 12.1689C15.5496 12.1897 15.6419 12.1303 15.4688 12.1573L15.3646 12.185C15.3569 12.1884 15.349 12.191 15.3419 12.195C15.2489 12.2465 15.283 12.2225 15.2665 12.2829C15.2273 12.4267 15.3273 12.351 15.2952 12.5025L15.145 12.3887C15.1364 12.383 15.1257 12.3757 15.1158 12.3697C15.1272 12.5625 15.1341 12.6333 15.2221 12.7792L15.2453 12.8133C15.2474 12.8169 15.2528 12.8246 15.2543 12.828C15.2686 12.8621 15.2684 12.8578 15.2339 12.9052L15.043 12.6746C14.9834 12.6298 15.0599 12.6723 14.9699 12.6281C14.9701 12.9821 14.9748 13.3471 15.2892 13.6618L15.4793 13.8088C15.5123 13.7476 15.4904 13.7686 15.5138 13.7216C15.5168 13.7154 15.5213 13.7071 15.5245 13.7008C15.5279 13.6946 15.5329 13.6869 15.5363 13.6809C15.646 13.4878 15.5504 13.5862 15.6537 13.4598L15.745 13.5733C15.8644 13.7596 15.8269 13.6666 15.958 13.7926C15.9627 13.7971 15.9689 13.8037 15.9734 13.8082L16.0624 13.8999C16.0851 13.8594 16.0992 13.8391 16.1011 13.8058C16.1014 13.8013 16.1005 13.7921 16.1003 13.7876L16.0274 13.5078L16.1264 13.4437C16.1624 13.4206 16.1794 13.4075 16.2158 13.3852C16.261 13.4199 16.2689 13.4323 16.3086 13.4698L16.3397 13.499C16.3442 13.5033 16.3512 13.5093 16.3555 13.5138L16.8117 14.0122C16.816 14.0176 16.8214 14.0249 16.8255 14.0304C16.9335 14.1776 16.8169 14.0902 16.9521 14.1667L16.9737 14.0088L17.2617 14.057C17.3753 14.075 17.332 14.1054 17.403 14.1352C17.4355 14.0752 17.4171 14.0941 17.4255 14.0675C17.4726 13.9177 17.4362 13.9466 17.4019 13.8052L17.3297 13.5028C17.3205 13.4563 17.3177 13.4118 17.3117 13.3663C17.298 13.2639 17.281 13.0633 17.269 12.9187C17.2572 12.7773 17.2778 12.5604 17.2433 12.4991C17.298 12.5248 17.2572 12.5094 17.2971 12.5297C17.364 12.5638 17.2965 12.53 17.3445 12.5507C17.353 12.6463 17.3391 12.6534 17.3425 12.7357C17.3466 12.8334 17.3663 12.8364 17.3629 12.9311L17.4874 13.0012C17.4882 13.0048 17.4919 13.0136 17.493 13.0177C17.5204 13.1214 17.5185 13.0222 17.4966 13.1816C17.5963 13.1313 17.524 13.1366 17.5804 13.098L17.6545 13.0794C17.6599 13.0781 17.673 13.0768 17.6807 13.0723L17.6522 12.4895C17.7658 12.4018 17.7225 12.5147 17.8208 12.4089L17.9762 11.943C17.992 11.8459 18.0148 11.7525 18.0409 11.6719C18.1678 11.8138 18.0711 11.7892 18.0874 11.8963C18.1575 11.8104 18.1206 11.8243 18.1695 11.7107C18.1873 11.6694 18.1847 11.688 18.2102 11.6327C18.2509 11.544 18.2518 11.397 18.2715 11.3662C18.2976 11.3889 18.3311 11.4214 18.3523 11.4463C18.3289 11.5622 18.3392 11.4859 18.2974 11.5961C18.1905 11.8777 18.048 12.2291 18.1633 12.4217L18.2428 12.4946C18.3306 12.5844 18.3032 12.584 18.3328 12.6448C18.4536 12.6371 18.4457 12.6071 18.4907 12.5904C18.4973 12.5878 18.6375 12.5456 18.6426 12.5456C18.6446 12.551 18.6441 12.5546 18.6439 12.5621C18.6437 12.57 18.6446 12.5762 18.6444 12.5792C18.6268 12.7241 18.4727 12.9847 18.6261 13.0878L18.6774 13.1156C18.7211 13.1422 18.6962 13.092 18.7198 13.1613L18.7316 13.2253L18.8805 13.1493C18.9677 13.2204 18.9287 13.1795 18.9881 13.2667C19.0607 13.1953 19.1576 13.1482 19.2787 13.004C19.3127 12.9635 19.2921 12.9862 19.3134 12.9388C19.3234 12.9161 19.2919 12.9217 19.4068 12.8092C19.4587 12.8557 19.5208 12.9065 19.5223 12.986C19.5255 13.1503 19.5232 13.0074 19.4953 13.0674C19.4278 13.2129 19.5019 13.0042 19.4696 13.1145C19.4668 13.1244 19.4713 13.2502 19.4064 13.3338C19.3284 13.2641 19.3622 13.2253 19.3146 13.1334L19.2495 13.2129C19.2126 13.3016 19.116 13.269 19.3504 13.3764L19.2827 13.4868C19.2463 13.5622 19.2986 13.4407 19.2664 13.5343C19.1696 13.8172 19.1599 13.6445 19.1674 14.0088C19.1687 14.0664 19.1304 14.0744 19.2542 14.0864L19.2487 13.7686C19.3627 13.7338 19.3352 13.8699 19.5043 13.4186L19.5427 13.182C19.5714 13.0301 19.5697 13.0072 19.6832 12.984C19.7066 13.0794 19.7089 13.1358 19.7012 13.2519C19.6922 13.3865 19.6697 13.3736 19.7492 13.4814C19.9798 12.5777 20.3327 12.6643 19.4445 11.7774L19.0916 11.3929C19.0571 11.3649 19.0914 11.3629 19.0071 11.3512C19.1687 11.2112 18.9572 11.2942 19.062 10.9044C19.0194 10.9348 19.0275 10.9254 19.0136 10.9241L18.9251 10.7286C18.7558 10.7589 18.6628 10.8542 18.5466 10.9247C18.4358 10.9922 18.3261 11.0376 18.1997 11.0957L18.1948 11.0229Z" fill="#D49B9B"/>
<path fill-rule="evenodd" clip-rule="evenodd" d="M15.8598 14.3731L16.0317 14.3903C16.0019 14.4278 16.0201 14.4826 15.8157 14.4897C15.7647 14.4914 15.6633 14.4835 15.6018 14.4837C15.5842 14.6168 15.6311 14.3748 15.6269 14.5583C15.6249 14.6331 15.6567 14.5643 15.6108 14.6161C15.5576 14.6766 15.6397 14.6185 15.5442 14.6521C15.3764 14.7111 15.428 14.6313 15.344 14.8004C15.1829 14.7903 15.1835 14.7413 15.2336 14.788C15.1899 14.8105 15.1655 14.8733 15.1726 14.9341C15.293 15.0162 15.218 14.9279 15.4792 14.9136C15.4743 14.9251 15.4653 14.9277 15.4612 14.9466L15.374 15.0548C15.5062 15.064 15.4432 15.0923 15.6151 14.9185C15.6189 14.9146 15.6269 14.9069 15.6327 14.9011C15.6689 14.9189 15.7036 14.9438 15.7368 14.9472L15.8277 14.9168C15.8319 14.9146 15.8403 14.9071 15.8476 14.9041C15.8532 15.0837 15.8917 15.0183 15.758 15.0543L15.9571 15.1759C16.0392 15.2894 15.9695 15.2221 15.9882 15.2884C16.0162 15.3869 15.9014 15.2371 16.0053 15.3201L16.0606 15.4759C16.0582 15.4831 16.0544 15.4911 16.0516 15.4984L16.0164 15.5774C16.1133 15.559 16.1281 15.529 16.2029 15.4799L16.0336 15.9535C16.3557 15.8612 16.1671 15.9998 16.322 15.9597C16.5046 15.9122 16.3379 15.9548 16.5072 15.8174L16.6357 15.7804C16.7292 15.9565 16.5601 15.6616 16.6574 15.8222C16.7062 15.9029 16.6488 15.853 16.7223 15.8993C16.6443 15.9574 16.6132 15.8826 16.6285 16.1807C16.6606 16.1455 16.7911 16.0397 16.8295 16.0118C16.723 15.802 16.8605 15.8515 17.0718 15.6394C17.0765 15.6344 17.0823 15.6276 17.0873 15.6229C17.1599 15.5562 17.1886 15.5659 17.2591 15.5271C17.3015 15.1831 17.3714 15.2596 17.4584 15.2965C17.461 15.0876 17.5103 15.3106 17.4903 15.0616C17.4421 14.4576 17.4468 14.797 17.5238 14.5591C17.5938 14.3429 17.4451 14.5098 17.51 14.3305L17.6618 14.339C17.7117 14.3401 17.6735 14.3433 17.7383 14.3243C17.761 14.3176 17.8332 14.2932 17.854 14.287C18.0072 14.2413 18.1077 14.1989 18.2941 14.2156C18.4054 14.3924 18.34 14.5062 18.4559 14.6686C18.5873 14.8527 18.5305 14.9446 18.4557 15.1656C18.6541 15.01 18.5841 14.8662 18.6852 14.8171C18.8112 14.7558 18.6912 14.7901 18.7317 14.8212C18.6351 14.7565 18.6526 14.7468 18.5813 14.6637C18.4156 14.4702 18.502 14.4655 18.5474 14.3969L18.6454 14.3403C18.6184 14.0888 18.6207 14.0232 18.5524 13.8076C18.5277 13.73 18.5273 13.7369 18.5271 13.6274C18.4527 13.676 18.4722 13.7127 18.3942 13.7277C18.3698 13.696 18.355 13.6503 18.3391 13.6304L18.2101 13.5327C18.265 13.3559 18.2748 12.8806 18.2069 12.7662C18.1846 12.8574 18.2316 12.8699 18.1242 12.9537C18.1182 12.9584 18.109 12.9631 18.1032 12.9672C17.9806 13.0509 18.0111 13.3462 18.0655 13.3627L18.0003 13.4167C17.9901 13.4264 17.9746 13.439 17.9643 13.4508L17.9144 13.5286C17.8493 13.6882 17.9631 13.8526 18.0567 13.9621C17.9581 13.952 18.1036 13.9315 17.8726 13.8395L17.8791 14.2398C17.8122 14.2015 17.8169 14.2287 17.809 14.1136C17.803 14.0283 17.8206 13.9906 17.7985 13.9025L17.6489 13.5854C17.536 13.3327 17.5375 13.4347 17.4948 13.282L17.3628 12.9312C17.3663 12.8364 17.3465 12.8334 17.3425 12.7357C17.339 12.6534 17.353 12.6464 17.3444 12.5508C17.2964 12.53 17.3639 12.5639 17.297 12.5298C17.2572 12.5094 17.2979 12.5249 17.2433 12.4992C17.2778 12.5604 17.2572 12.7773 17.269 12.9187C17.281 13.0634 17.2979 13.264 17.3116 13.3664C17.3176 13.4118 17.3204 13.4564 17.3296 13.5029L17.4018 13.8053C17.4361 13.9467 17.4726 13.9178 17.4254 14.0675C17.417 14.0941 17.4355 14.0753 17.4029 14.1353C17.332 14.1055 17.3753 14.075 17.2617 14.057L16.9737 14.0088L16.952 14.1668C16.8168 14.0903 16.9334 14.1777 16.8254 14.0305C16.8213 14.0249 16.816 14.0176 16.8117 14.0123L16.3555 13.5138C16.3512 13.5093 16.3441 13.5033 16.3396 13.499L16.3085 13.4699C16.2689 13.4324 16.2609 13.42 16.2157 13.3852C16.1793 13.4075 16.1624 13.4206 16.1264 13.4437L16.0274 13.5078L16.1002 13.7877C16.1004 13.7922 16.1013 13.8014 16.1011 13.8059C16.0992 13.8391 16.085 13.8595 16.0623 13.9L15.9734 13.8083C15.9689 13.8038 15.9627 13.7971 15.9579 13.7926C15.8268 13.6666 15.8643 13.7596 15.7449 13.5734L15.6537 13.4598C15.5504 13.5862 15.6459 13.4879 15.5362 13.681C15.5328 13.687 15.5279 13.6947 15.5244 13.7009C15.5212 13.7071 15.5167 13.7155 15.5137 13.7217C15.4904 13.7686 15.5122 13.7476 15.4792 13.8089L15.2891 13.6619C14.9748 13.3471 14.9701 12.9822 14.9698 12.6282C15.0598 12.6723 14.9833 12.6299 15.0429 12.6747L15.2339 12.9052C15.2684 12.8579 15.2686 12.8622 15.2542 12.8281C15.2527 12.8247 15.2474 12.8169 15.2452 12.8133L15.2221 12.7792C15.134 12.6333 15.1271 12.5626 15.1158 12.3697C15.1256 12.3757 15.1364 12.383 15.1449 12.3888L15.2951 12.5026C15.3273 12.3511 15.2272 12.4267 15.2664 12.2829C15.2829 12.2225 15.2489 12.2465 15.3419 12.1951C15.3489 12.191 15.3569 12.1884 15.3646 12.185L15.4687 12.1574C15.6419 12.1304 15.5495 12.1897 15.7034 12.1689C15.7079 12.1683 15.7164 12.1657 15.7214 12.1653L15.9348 12.1871C15.9575 12.2598 15.9442 12.1672 15.9485 12.2602C15.9485 12.2626 15.9434 12.2765 15.9432 12.2735C15.9432 12.2707 15.9312 12.2801 15.9367 12.2793L15.9644 12.3071C15.9279 12.1805 16.1182 12.1983 16.2329 12.2501C16.5168 12.3783 16.5717 12.4805 16.6308 12.5217C16.7617 12.6129 16.7896 12.6462 16.8132 12.8787L16.9278 12.7387C17.0489 12.6091 17.0039 12.7437 17.0219 12.6136C16.9679 12.5296 16.5052 12.1591 16.2584 12.0811C16.1577 12.0491 15.9554 12.0322 15.8847 11.9921C15.6509 11.8597 15.3571 11.3739 15.2666 11.0756L15.1961 10.8898C15.1029 11.2282 15.7128 11.9206 15.7522 12.0067C15.5165 12.0022 14.9049 12.0371 14.7821 12.161C14.6407 12.3035 14.7061 12.9444 14.7556 13.1555C14.8224 13.4414 14.9608 13.7611 15.1243 13.9493C15.2579 14.1033 15.5979 14.348 15.8598 14.3731Z" fill="#AC5B5B"/>
<path fill-rule="evenodd" clip-rule="evenodd" d="M17.3629 12.9311L17.4948 13.2819C17.5375 13.4347 17.536 13.3327 17.6489 13.5853L17.7985 13.9025C17.8206 13.9906 17.803 14.0283 17.809 14.1136C17.8169 14.2286 17.8122 14.2014 17.8791 14.2398L17.8726 13.8395C18.1036 13.9314 17.9581 13.952 18.0567 13.9621C17.9631 13.8526 17.8493 13.6882 17.9144 13.5286L17.9644 13.4508C17.9746 13.439 17.9901 13.4263 18.0004 13.4167L18.0655 13.3627C18.0111 13.3462 17.9806 13.0509 18.1032 12.9671C18.109 12.963 18.1182 12.9583 18.1242 12.9536C18.2316 12.8698 18.1846 12.8574 18.2069 12.7661C18.2749 12.8805 18.265 13.3558 18.2101 13.5326L18.3392 13.6303C18.355 13.6503 18.3698 13.6959 18.3942 13.7276C18.4722 13.7126 18.4527 13.676 18.5271 13.6273C18.5273 13.7368 18.5277 13.73 18.5524 13.8076C18.6207 14.0231 18.6184 14.0887 18.6454 14.3403L18.5474 14.3969C18.5957 14.417 18.5875 14.3951 18.6415 14.4386C18.6855 14.3846 18.6764 14.3804 18.7315 14.3242C18.9045 14.3684 18.7782 14.4247 18.9799 14.3454C18.9867 14.3429 18.994 14.3384 19.0009 14.3354C19.0077 14.3326 19.0152 14.3285 19.0223 14.3253C19.0461 14.3148 19.0628 14.3094 19.0896 14.2966C19.225 14.2323 19.2079 14.1967 19.3063 14.1056L19.5435 13.9288C19.6054 14.0677 19.4565 14.1684 19.5608 14.3339L19.6101 14.174C19.6485 14.1939 19.608 14.2398 19.7185 14.2709C20.0355 14.0433 19.7515 14.0853 20.0063 13.9411L20.0462 13.9175C20.0828 13.8939 20.0706 13.8971 20.094 13.8817L20.1533 13.8498C20.3507 13.7416 20.1298 13.7469 20.3541 13.7304C20.3957 14.0724 20.2429 13.8581 20.0548 14.1558L19.2962 14.5916C19.369 14.5869 19.528 14.5143 19.5908 14.4809L19.615 14.5211C19.6793 14.6538 19.6495 14.6461 19.6785 14.7267C19.4982 14.8953 19.2983 14.7048 19.2319 14.9439C19.234 14.9444 19.3774 14.9577 19.386 14.9585L19.5786 14.9926C19.5945 15.1595 19.5797 15.0972 19.5488 15.2124C19.7775 15.1494 19.5683 15.1803 19.8218 15.2928C19.8611 15.3102 19.8966 15.3162 19.936 15.3288L20.3198 15.4655C20.5663 15.5302 20.7167 15.4792 20.9475 15.5073C20.9466 15.2527 20.8187 15.3016 20.8224 15.1049C20.9312 15.0526 20.9938 15.1027 21.129 15.1004C21.1239 15.0914 21.1054 15.0663 21.1029 15.0605L21.0793 14.9375C21.0724 14.6276 21.0795 14.879 21.1421 14.6694C20.9897 14.6478 20.9764 14.6686 20.9192 14.5477C20.8429 14.642 20.7276 14.7059 20.5583 14.7434C20.3561 14.7879 20.1694 14.7858 20.1124 14.852C20.1139 14.8479 20.3093 14.6994 20.4158 14.6786L20.6128 14.4708C20.5065 14.4391 20.5776 14.4397 20.5001 14.4213C20.3419 14.3836 20.4855 14.4099 20.3841 14.4305C20.4962 14.417 20.6186 13.9194 20.6921 13.8622C20.7874 13.7878 20.8318 13.8564 20.8489 13.7169C20.9936 13.7831 20.9038 13.7566 20.958 13.7913C21.0819 13.8708 21.2049 13.7628 21.1626 13.9113C21.2353 13.7636 21.2623 13.5166 21.1556 13.4096L21.0574 13.5024C21.0521 13.5097 21.0446 13.52 21.0399 13.5262C21.0349 13.5326 21.0287 13.5438 21.0214 13.5513C21.0283 13.2903 20.97 13.1118 20.8476 12.9485C20.8009 13.0196 20.8056 13.0145 20.7636 13.1006L20.7538 12.8268L20.6248 12.7961C20.6089 12.6643 20.6166 12.6487 20.5697 12.5908C20.4866 12.717 20.5894 12.6467 20.4518 12.7314C20.3338 12.9712 20.2909 13.1055 20.1173 13.2915C19.98 13.4388 19.8458 13.6402 19.6476 13.7551L19.7492 13.4814C19.6697 13.3736 19.6922 13.3865 19.7012 13.2519C19.7089 13.1358 19.7065 13.0794 19.6832 12.984C19.5696 13.0072 19.5713 13.0301 19.5426 13.182L19.5043 13.4186C19.3352 13.8699 19.3626 13.7338 19.2486 13.7686L19.2542 14.0864C19.1303 14.0744 19.1687 14.0664 19.1674 14.0088C19.1599 13.6445 19.1695 13.8172 19.2664 13.5343C19.2985 13.4407 19.2462 13.5622 19.2827 13.4868L19.3504 13.3764C19.116 13.269 19.2126 13.3016 19.2495 13.2129L19.3146 13.1334C19.3622 13.2253 19.3283 13.2641 19.4063 13.3338C19.4713 13.2502 19.4667 13.1244 19.4695 13.1145C19.5019 13.0042 19.4278 13.2129 19.4953 13.0674C19.5231 13.0074 19.5255 13.1503 19.5222 12.986C19.5207 12.9065 19.4586 12.8557 19.4068 12.8092C19.2919 12.9217 19.3234 12.9161 19.3133 12.9388C19.2921 12.9862 19.3127 12.9635 19.2786 13.004C19.1575 13.1482 19.0607 13.1953 18.988 13.2667C18.9287 13.1795 18.9677 13.2204 18.8805 13.1493L18.7315 13.2253L18.7197 13.1613C18.6962 13.092 18.721 13.1422 18.6773 13.1156L18.6261 13.0878C18.4727 12.9847 18.6267 12.7241 18.6443 12.5792C18.6445 12.5762 18.6437 12.57 18.6439 12.5621C18.6441 12.5546 18.6445 12.551 18.6426 12.5456C18.6374 12.5456 18.4973 12.5878 18.4907 12.5904C18.4457 12.6071 18.4536 12.6371 18.3327 12.6448C18.3032 12.584 18.3306 12.5844 18.2427 12.4946L18.1632 12.4217C18.0479 12.2291 18.1904 11.8777 18.2974 11.5961C18.3392 11.4859 18.3289 11.5622 18.3522 11.4463C18.331 11.4214 18.2976 11.3889 18.2714 11.3661C18.2517 11.397 18.2509 11.544 18.2101 11.6327C18.1846 11.688 18.1872 11.6694 18.1694 11.7107C18.1206 11.8243 18.1574 11.8104 18.0874 11.8963C18.0711 11.7892 18.1677 11.8138 18.0409 11.6719C18.0147 11.7525 17.992 11.8459 17.9761 11.943L17.8208 12.4089C17.7224 12.5147 17.7657 12.4018 17.6521 12.4895L17.6806 13.0723C17.6729 13.0768 17.6599 13.0781 17.6545 13.0794L17.5804 13.098C17.524 13.1366 17.5962 13.1313 17.4966 13.1816C17.5184 13.0222 17.5204 13.1214 17.4929 13.0177C17.4919 13.0136 17.4882 13.0048 17.4873 13.0012L17.3629 12.9311Z" fill="#BC6B6B"/>
<path fill-rule="evenodd" clip-rule="evenodd" d="M12.083 12.3491C12.0474 12.4025 12.1316 12.38 12.0013 12.395C12.0204 12.5148 12.1194 12.4275 12.3917 12.4773C12.5263 12.5017 12.6478 12.5351 12.7603 12.5679C13.0035 12.6386 13.2367 12.7329 13.4473 12.8336C13.6741 12.9421 14.0396 13.2341 14.2599 13.4032C14.3272 13.4548 14.3315 13.4473 14.3958 13.5157L14.4691 13.6248C14.4759 13.6057 14.5278 13.6336 14.4185 13.5536C14.3769 13.5232 14.3621 13.5181 14.3073 13.4767C14.2445 13.4289 14.1753 13.3805 14.0754 13.3385C13.9323 13.2785 13.6501 13.2286 13.4724 13.2073C12.5405 13.0955 12.1777 13.5911 11.3126 14.03C11.1574 14.1086 10.995 14.2197 10.8351 14.2902C10.6594 14.3675 10.4376 14.4183 10.2896 14.5025C10.3114 14.5291 10.3046 14.5539 10.4186 14.5737L11.0304 14.6116C11.3072 14.6208 11.5802 14.6002 11.8592 14.5994C13.1265 14.5953 13.1649 13.6895 14.3105 13.7624C14.7401 13.7896 14.8019 13.9409 15.0965 14.222C15.1869 14.3082 15.2034 14.3577 15.3114 14.4269L15.5032 14.417C15.368 14.1354 14.5259 13.6773 14.4851 13.1358C14.4241 12.3219 14.7179 11.6522 14.393 11.0919C14.2966 10.9256 14.1749 10.7717 14.0602 10.6539C13.9723 10.5634 13.6543 10.4023 13.5234 10.3725C13.6033 10.5806 13.8236 10.6959 13.859 11.0302C13.9314 11.7165 13.5718 11.6767 14.0233 12.6279C14.0926 12.7734 14.2968 13.1981 14.3101 13.3211L13.3599 12.6763C12.9999 12.4813 12.54 12.4117 12.083 12.3491Z" fill="#97A867"/>
<path fill-rule="evenodd" clip-rule="evenodd" d="M20.9475 15.5073C20.7167 15.4793 20.5663 15.5303 20.3198 15.4656C20.07 15.4555 19.8175 15.3976 19.5514 15.4287C19.6221 15.5219 20.136 15.7248 20.3363 15.8292C20.4788 15.9034 20.4829 15.9346 20.5813 15.9899C20.6509 15.922 20.7246 15.8922 20.8013 15.85C20.9089 15.7906 20.9494 15.7686 21.0943 15.7531L21.1326 15.8191C21.2278 15.9822 21.2368 15.709 21.2796 15.9589L21.3253 15.9334C21.5308 15.8568 21.4519 15.952 21.5655 15.8466C21.7556 15.6698 21.7249 15.9224 21.984 15.8136C21.9883 15.823 22.0991 15.8403 21.9722 15.9076C22.0702 15.9036 22.068 15.91 22.1319 15.9565C22.1289 15.9653 22.1229 15.9685 22.1209 15.982L22.0365 16.1712C22.0449 16.1764 22.0999 16.2117 22.1032 16.2126C22.2285 16.2466 22.0149 16.2338 22.14 16.2119L22.1692 16.2023C22.2776 16.1787 22.3057 16.2156 22.3657 16.2364C22.3691 16.2376 22.3796 16.2409 22.3822 16.2419C22.4405 16.2614 22.3648 16.2829 22.5022 16.4185C22.5067 16.423 22.5144 16.4281 22.5189 16.4331C22.5236 16.438 22.5304 16.4442 22.5352 16.4496C22.6149 16.5452 22.5662 16.5709 22.6547 16.6107C22.8538 16.5471 22.8401 16.5134 23.2509 16.3971C23.438 16.3441 23.7217 16.2306 23.8942 16.216L24.6502 16.1509C24.9984 16.1678 24.9811 16.3701 25.2652 16.4166C25.2146 16.2366 25.187 16.2751 24.9734 16.0362C24.8332 15.8794 24.7439 15.706 24.5296 15.5286C24.4616 15.4722 24.4089 15.4613 24.3217 15.3963C24.1914 15.2991 24.0905 15.226 23.9227 15.1518C23.0743 14.7766 22.8628 14.7098 21.7999 14.7702C21.7545 14.729 21.783 14.7777 21.7686 14.7074C21.63 14.9656 21.7896 14.81 21.4905 15.2459C21.3868 15.3972 21.3349 15.526 20.9475 15.5073Z" fill="#AAC4B7"/>
<path fill-rule="evenodd" clip-rule="evenodd" d="M18.6488 16.1474C18.5492 16.1521 18.619 16.1148 18.5755 16.1712C18.6175 16.3214 18.562 16.2338 18.5775 16.3413C18.6068 16.5451 18.7322 16.4757 18.5601 16.6394L18.5378 16.6604C18.5344 16.6654 18.5299 16.7425 18.5312 16.7483C18.5496 16.8409 18.618 16.7682 18.7009 16.7236C18.7009 16.8119 18.7131 16.8301 18.7165 16.8383L18.7622 16.8771C18.6315 16.7453 18.8119 16.7884 18.9109 16.7856C18.9274 16.8421 18.9527 16.8955 18.936 16.9711C18.8985 17.1398 18.9109 17.041 18.8612 17.068C18.6638 17.1751 18.9587 16.996 18.7555 17.0963C18.6962 17.1254 18.5644 17.2797 18.391 17.1612C18.2888 17.0914 18.2622 17.0348 18.3636 16.9634C18.3495 17.0116 18.3057 17.0404 18.2712 17.0884C18.1572 17.05 18.1857 17.1297 18.1487 16.9971L18.1178 17.0305C18.1819 17.1259 18.178 17.1659 18.2037 17.2671C18.2916 17.6129 18.5344 17.3815 18.511 17.767C18.5044 17.7602 18.4088 17.8034 18.5421 17.6772C18.6994 17.5283 18.5727 17.5952 18.6657 17.5133C18.736 17.4514 18.7568 17.5641 18.7624 17.4908C18.8035 17.4625 18.7907 17.482 18.7523 17.3528L18.7318 17.2761C18.9563 17.2877 18.7159 17.2598 18.8147 17.2892C19.0551 17.3603 18.8852 17.368 18.8852 17.368C18.9342 17.3037 18.9053 17.3344 18.9803 17.2797L19.1359 17.1871C19.2568 17.0986 19.1421 17.1334 19.2823 17.0851C19.3787 17.0521 19.4666 17.0539 19.5416 17.0123C19.6729 16.9394 19.6213 16.8713 19.7441 16.9103C19.7803 16.9921 19.7895 16.8991 19.737 16.9898L19.5094 17.1441C19.3528 17.2337 19.3781 17.1781 19.2161 17.2735C19.2105 17.2767 19.203 17.2819 19.1974 17.2851C19.1918 17.2885 19.1841 17.2932 19.1786 17.2964C19.0735 17.3588 19.0487 17.3517 18.9885 17.4692C18.8946 17.6522 18.946 17.5394 18.8363 17.686C18.8005 17.7336 18.7881 17.7621 18.7422 17.7974L18.802 17.8997C18.8376 17.955 18.8265 17.8937 18.8524 17.9815C18.715 18.0687 18.8539 17.9835 18.7628 18.0047L18.6582 18.1165C18.6098 18.2112 18.6979 18.1191 18.6049 18.1962C18.4446 18.1742 18.3797 18.052 18.2712 17.8896C18.199 17.9695 18.1399 17.8746 18.3019 18.1639C18.1774 18.1611 18.1386 18.1474 18.0456 18.1317C17.7428 18.0805 17.6807 18.0175 17.29 17.991C17.0704 17.976 16.8841 17.7642 16.8826 17.7591C16.8786 17.7454 16.8683 17.7452 16.8601 17.7394C16.6531 17.8414 16.7333 17.8557 16.5781 17.9018C16.4386 17.9434 16.3778 17.9337 16.2627 17.8551C16.3776 18.1071 16.5379 18.225 16.8432 18.3985C16.9439 18.4557 17.0929 18.5292 17.2506 18.5509C17.6213 18.6017 17.7029 18.49 17.7803 18.6152C17.8298 18.579 17.8609 18.5623 17.8844 18.544C18.1405 18.3456 18.3332 18.2545 18.6261 18.5794C18.6561 18.6124 18.6788 18.6529 18.7011 18.6872C18.7677 18.6259 18.7472 18.663 18.7808 18.567C18.7997 18.5127 18.7877 18.5083 18.7924 18.4564C18.8001 18.3722 18.8203 18.3477 18.8237 18.2447C19.2733 18.1455 19.0855 18.4112 19.7929 18.0315L19.9183 17.9644C20.3081 17.5504 20.1754 17.7668 20.4579 17.3462C20.5108 17.2675 20.4636 17.335 20.5125 17.278C20.5759 17.2039 20.6554 17.1008 20.6698 17.0187C20.6565 16.8404 20.7032 16.7815 20.7024 16.6002C20.7019 16.5342 20.697 16.4562 20.682 16.4011C20.6561 16.3064 20.6569 16.4146 20.6252 16.2327C20.3766 16.2981 20.6743 16.2419 20.3578 16.4819C20.196 16.4483 20.3599 16.4691 20.2414 16.4213L20.2048 16.4157C19.9337 16.4395 19.9823 16.4061 19.7873 16.6167C19.7912 16.4922 19.77 16.4946 19.6901 16.4901C19.5623 16.4832 19.6133 16.5927 19.549 16.4637L19.4436 16.1832C19.356 16.0491 19.4518 16.3002 19.41 16.1451L19.4728 16.0238C19.7038 16.0617 19.5518 16.1733 19.7824 16.1146C19.7625 16.0523 19.7406 15.9732 19.5831 15.9355C19.4573 15.9055 19.4162 15.9981 19.3453 15.976C19.2028 15.8613 19.3978 15.9106 19.1477 15.8712L18.9707 15.8384C18.8035 15.793 18.8991 15.8238 18.8269 15.8311C18.7375 15.8401 18.8228 15.8476 18.7626 15.8273C18.667 15.7951 18.7208 15.7808 18.5453 15.7707C18.564 15.9588 18.6675 15.9436 18.7575 16.1099C18.6927 16.1609 18.8558 16.1894 18.6488 16.1474Z" fill="#DBA4A3"/>
<path fill-rule="evenodd" clip-rule="evenodd" d="M18.5475 14.3969C18.502 14.4654 18.4157 14.4701 18.5813 14.6636C18.6527 14.7468 18.6351 14.7564 18.7318 14.8211C18.6913 14.7901 18.8113 14.7558 18.6853 14.8171C18.5841 14.8661 18.6542 15.0099 18.4558 15.1655C18.4108 15.2476 18.2852 15.3142 18.1999 15.3592C18.1943 15.3622 18.1864 15.3665 18.1804 15.3693C18.1746 15.3723 18.1667 15.3764 18.1607 15.3792C18.1463 15.3856 18.0977 15.4047 18.097 15.4049C18.057 15.4203 17.9781 15.4522 17.959 15.4595C17.7983 15.5221 17.7949 15.4968 17.6777 15.4137C17.5107 15.2956 17.497 15.3577 17.4585 15.2964C17.3715 15.2596 17.3016 15.1831 17.2592 15.527C17.1887 15.5658 17.1599 15.5562 17.0873 15.6228C17.0824 15.6275 17.0766 15.6344 17.0719 15.6393C16.8606 15.8515 16.723 15.802 16.8295 16.0117L17.0138 15.9271C16.9699 16.1309 16.8464 16.24 16.7492 16.394C16.7009 16.4701 16.6697 16.5271 16.6174 16.5976C16.3474 16.961 16.5004 16.7896 16.5224 16.8419C16.6212 16.7847 16.5734 16.7476 16.6452 16.6895C16.6409 16.6844 16.6152 16.7583 16.7374 16.7716C16.8764 16.645 16.7989 16.5708 16.9519 16.4493C16.951 16.5629 16.9581 16.7045 16.9499 16.8173C16.9405 16.9482 16.9212 16.9846 16.9212 17.1533C16.9017 17.1374 16.8625 17.2094 16.9236 17.0796C17.022 16.87 16.9574 16.855 17.0275 16.631C17.0693 16.4971 17.2521 16.2871 17.3509 16.1941C17.3967 16.2948 17.4565 16.5168 17.4272 16.5938L17.4047 16.6411C17.6106 16.6045 17.3935 16.5805 17.5947 16.5725C17.5926 16.8858 17.7355 17.1736 17.7355 17.1738L17.818 17.2611C17.8847 17.3671 17.8785 17.4081 17.9052 17.5212C17.9145 17.5122 17.9245 17.4843 17.9278 17.4899C17.931 17.4951 17.9438 17.4691 17.9472 17.4601C18.0357 17.2328 17.9755 17.5026 17.9584 17.3453L17.9524 17.3136C17.952 17.2379 18.0023 17.3279 17.9355 17.0446L17.8755 16.7892C17.8382 16.6645 17.8677 16.7103 17.8725 16.57C18.0741 16.7603 18.0017 16.3647 18.0008 16.3184C17.9995 16.231 18.009 16.2837 18.0645 16.1791C18.1883 15.946 18.133 16.1478 18.177 15.904C18.1978 15.7889 18.1403 15.8707 18.2408 15.7745L18.2183 15.9766C18.2286 15.9719 18.2417 15.9507 18.247 15.958L18.3634 15.8512C18.4772 16.0182 18.3876 15.9837 18.5468 16.078L18.6488 16.1474C18.8558 16.1894 18.6928 16.1609 18.7575 16.1099C18.6675 15.9436 18.564 15.9588 18.5453 15.7707C18.7208 15.7807 18.6671 15.7951 18.7626 15.8272C18.8228 15.8476 18.7376 15.8401 18.8269 15.8311C18.8991 15.8238 18.8036 15.793 18.9707 15.8384L19.1477 15.8712C19.3978 15.9106 19.2028 15.8613 19.3453 15.976C19.4162 15.998 19.4574 15.9055 19.5831 15.9355C19.7406 15.9732 19.7625 16.0522 19.7824 16.1146C19.5519 16.1733 19.7038 16.0617 19.4728 16.0237L19.41 16.145C19.4518 16.3002 19.356 16.049 19.4436 16.1832L19.5491 16.4637C19.6134 16.5927 19.5624 16.4832 19.6901 16.49C19.77 16.4945 19.7912 16.4922 19.7874 16.6167C19.9824 16.406 19.9337 16.4395 20.2048 16.4157L20.2414 16.4213C20.3599 16.469 20.196 16.4483 20.3578 16.4819C20.6743 16.2419 20.3767 16.298 20.6252 16.2327C20.6132 16.1255 20.5841 16.0812 20.5813 15.9899C20.483 15.9346 20.4789 15.9033 20.3364 15.8292C20.136 15.7248 19.6221 15.5219 19.5514 15.4287C19.8176 15.3976 20.07 15.4554 20.3199 15.4655L19.9361 15.3288C19.8966 15.3162 19.8611 15.3102 19.8219 15.2928C19.5684 15.1803 19.7775 15.1494 19.5489 15.2124C19.5797 15.0972 19.5945 15.1595 19.5786 14.9926L19.386 14.9585C19.3774 14.9576 19.2341 14.9444 19.2319 14.9439C19.2984 14.7048 19.4983 14.8953 19.6785 14.7266C19.6496 14.6461 19.6794 14.6538 19.6151 14.5211L19.5909 14.4809C19.5281 14.5143 19.3691 14.5869 19.2962 14.5916L20.0548 14.1558C20.2429 13.8581 20.3957 14.0724 20.3542 13.7304C20.1298 13.7469 20.3507 13.7416 20.1534 13.8498L20.094 13.8817C20.0707 13.8971 20.0829 13.8939 20.0462 13.9175L20.0064 13.9411C19.7516 14.0853 20.0355 14.0433 19.7186 14.2708C19.608 14.2398 19.6485 14.1939 19.6101 14.174L19.5609 14.3338C19.4565 14.1684 19.6054 14.0677 19.5435 13.9288L19.3063 14.1056C19.2079 14.1967 19.2251 14.2323 19.0896 14.2966C19.0628 14.3094 19.0461 14.3148 19.0223 14.3253C19.0153 14.3285 19.0078 14.3326 19.0009 14.3353C18.9941 14.3383 18.9868 14.3428 18.9799 14.3454C18.7783 14.4247 18.9045 14.3684 18.7316 14.3242C18.6765 14.3804 18.6855 14.3846 18.6416 14.4386C18.5876 14.3951 18.5957 14.417 18.5475 14.3969Z" fill="#8D5252"/>
<path fill-rule="evenodd" clip-rule="evenodd" d="M20.6698 17.0187C20.6554 17.1008 20.5759 17.2039 20.5125 17.278C20.4636 17.335 20.5108 17.2675 20.4579 17.3462C20.1754 17.7668 20.3081 17.5504 19.9183 17.9644C20.4564 18.0458 20.6709 18.0208 21.1449 18.237C21.5246 18.4099 21.6705 18.6081 21.89 18.9658C21.8966 18.9619 21.9077 18.9503 21.9116 18.9572L22.1053 18.9375C22.6138 18.9443 22.8489 19.0073 23.3171 19.3179C23.4161 19.3834 23.3831 19.3905 23.4986 19.4344C23.4178 19.2429 23.3375 19.2015 23.183 18.8083C23.0651 18.5083 23.0255 18.4071 22.8894 18.1513C22.7463 17.8821 22.7675 17.1561 22.2557 16.9223C22.1083 16.894 22.0603 16.9705 21.911 17.0192C21.771 17.0648 21.6617 17.0622 21.5087 17.0796C21.153 17.1203 21.0624 17.0264 20.8181 16.9163C20.7182 16.9679 20.7744 16.9649 20.6698 17.0187Z" fill="#8A9A83"/>
<path fill-rule="evenodd" clip-rule="evenodd" d="M9.64135 10.017C9.69771 10.2906 9.72835 10.2077 9.61328 10.4323C9.47721 10.6978 9.90857 10.9397 10.1977 11.3501C9.59228 11.0623 9.85114 11.2539 9.46992 10.8587C9.30791 10.6905 8.89926 10.4889 8.57654 10.482C8.30911 10.4764 7.44959 10.7565 7.07287 10.8677C6.89201 10.9211 6.68393 10.9176 6.52643 10.9622C6.61172 11.1047 7.75988 11.3246 8.02432 11.3179C8.65497 11.3019 8.88212 10.7803 9.66557 11.1868C9.71892 11.2144 9.76457 11.2256 9.84171 11.2552C10.4224 11.4778 10.3867 11.6066 10.6697 11.8393C10.908 12.0354 11.5691 12.4098 12.0013 12.395C12.1316 12.38 12.0474 12.4025 12.083 12.3491C11.8196 12.3077 11.4969 12.203 11.3882 12.0103C11.3175 11.8847 11.3139 11.6936 11.3604 11.5588C11.418 11.3912 11.4761 11.3443 11.6358 11.3182C11.6087 11.2224 11.6621 11.2468 11.6079 11.2314C11.6778 11.1611 11.6508 11.1643 11.745 11.0919C11.8188 11.0353 11.82 11.0325 11.8935 10.9609C11.9608 10.8958 11.9741 10.8806 12.0285 10.8199L12.1633 10.6635C12.0168 10.6804 11.8807 10.7629 11.7738 10.833C11.4137 11.0687 11.5307 11.0617 11.3375 11.3094C11.354 11.5102 11.237 11.5194 11.2721 11.7825C11.3021 12.0067 11.3469 12.0384 11.4247 12.1796C11.061 12.0905 10.9744 11.9904 10.8461 11.7879C10.7284 11.6023 10.5287 11.3222 10.6421 11.0552C11.0585 10.0731 10.7634 9.89227 10.7927 9.30126C10.5954 9.28047 10.6569 9.27897 10.5709 9.44569C10.569 9.44933 10.5645 9.45747 10.5626 9.46112L10.509 9.57469C10.506 9.49626 10.4932 9.49754 10.4779 9.43069C10.4662 9.43411 10.4542 9.44204 10.4449 9.44676L10.3447 9.49712C10.3147 9.50183 10.2403 9.44954 10.1775 9.52047C10.1304 9.57362 10.1554 9.53826 10.1704 9.57469C10.149 9.41912 10.1704 9.48919 10.0888 9.48597C9.98593 9.48169 10.0498 9.47976 9.98679 9.54298C9.8805 9.64969 10.0179 9.59826 9.78685 9.59248L9.78621 9.88134C9.67199 9.92355 9.63128 9.9002 9.64135 10.017Z" fill="#7A8657"/>
<path fill-rule="evenodd" clip-rule="evenodd" d="M17.197 19.005C17.257 18.9593 17.2857 18.9415 17.3271 18.9077L16.8764 18.9066C16.9225 18.7249 16.9626 18.7463 16.8464 18.5785C16.663 18.3141 16.2833 18.2001 15.9565 18.1474C15.6871 18.1041 15.3492 18.1611 15.1034 18.1109C14.8696 18.0632 14.6546 17.9187 14.4991 17.8347L14.9478 18.5438C15.0918 18.7129 15.0271 18.8121 15.3845 19.2707C15.1516 19.1434 15.2508 19.1076 14.8932 19.138C14.354 19.1839 14.4262 19.4078 14.0353 20.0053C13.9758 20.0963 13.9329 20.1353 13.8843 20.2208C14.0094 20.1728 14.1626 20.0891 14.3019 20.0614C14.4558 20.0308 14.6947 20.0603 14.867 20.0481C15.2922 20.0181 15.8313 19.7479 15.5446 19.482L15.4085 19.3622C15.4696 19.3268 15.505 19.335 15.5746 19.3534C15.7822 19.4083 15.9265 19.4421 16.1761 19.4391L16.0058 19.7372C15.9453 19.8362 15.9003 19.8047 15.8088 19.9086L15.6556 20.1233C15.6524 20.13 15.6483 20.1375 15.6457 20.1446L15.6267 20.2206C15.6016 20.4092 15.6918 20.4992 15.5009 20.6085L15.4381 20.6417C15.4334 20.6443 15.4233 20.6483 15.4169 20.6533C15.4467 20.7062 15.3914 20.8069 15.4237 20.9839C15.4769 21.2724 15.6719 21.4324 15.8729 21.6382L15.9481 21.7087C15.8345 21.3004 15.8872 21.4134 15.8339 21.1699C15.8071 21.0482 15.7621 21.0079 15.7904 20.8832C15.8163 20.769 15.8581 20.7431 15.7818 20.6203C15.8497 20.5721 15.8637 20.5646 15.8635 20.4913C15.8635 20.4874 15.8609 20.4784 15.8607 20.4748C15.8605 20.4713 15.8581 20.463 15.8581 20.4596C15.8532 20.2202 16.0133 20.0728 16.0557 19.8733C16.078 19.7683 16.1371 19.7218 16.1993 19.6174C16.2873 19.4691 16.2168 19.4845 16.3619 19.3872C16.7935 19.0977 16.3814 18.9758 17.197 19.005Z" fill="#8A9A83"/>
<path fill-rule="evenodd" clip-rule="evenodd" d="M21.0095 18.5104L20.7881 18.475L20.7566 18.5646L20.4988 18.5802C20.5849 18.5918 20.6794 18.6972 20.7373 18.7412L20.5502 18.8149C20.5524 18.8215 20.5603 18.8226 20.5618 18.8322C20.5633 18.8421 20.5712 18.8462 20.5732 18.8502C20.6173 18.9413 20.6182 18.9006 20.6152 18.997C20.5101 18.9919 20.3486 18.9417 20.301 18.8417C20.2149 18.6602 20.3914 18.6829 20.1159 18.7444C20.1094 18.7067 20.1051 18.6739 20.1026 18.6659C20.091 18.6293 20.0972 18.6447 20.0715 18.6049C19.9939 18.4853 20.0128 18.5811 19.9843 18.4461C19.9221 18.5674 19.932 18.4829 19.803 18.5348C19.6296 18.6047 19.7593 18.6117 19.5293 18.5569L19.2533 18.5963C19.2486 18.6053 19.2356 18.6293 19.2319 18.6344C19.2291 18.6381 19.2229 18.6484 19.2195 18.6527L19.1914 18.687C19.186 18.693 19.1591 18.7182 19.1443 18.7324C19.1402 18.7362 19.1327 18.7433 19.1291 18.7465L19.0999 18.7744C19.0183 18.7427 18.9658 18.697 18.8558 18.6912C18.9064 18.8445 18.976 18.8567 19.0669 18.9675C19.2081 19.1393 19.0204 19.0752 19.2941 19.3528C19.3191 19.3783 19.3185 19.3808 19.3545 19.4168L19.5566 19.5692C19.6238 19.6007 19.9581 19.852 20.0584 19.8664C20.2146 19.8885 20.2984 19.9071 20.424 19.8855C20.628 19.8501 20.5957 20.0031 20.9314 19.9009L21.0058 19.882C21.1003 19.8606 21.0939 19.894 21.1635 19.7991C21.167 19.7944 21.1725 19.7835 21.1751 19.7794C21.1779 19.7753 21.1815 19.7653 21.1862 19.759C21.2488 19.7882 21.3193 19.8025 21.387 19.7575C21.6227 19.6005 21.1989 19.7623 21.4436 19.7113C21.4792 19.7038 21.497 19.7162 21.554 19.7273C21.5171 19.6506 21.5267 19.7005 21.5306 19.5831C21.6204 19.6566 21.6251 19.6408 21.7262 19.4736C21.7337 19.4612 21.7588 19.42 21.7603 19.417C21.7826 19.3761 21.8025 19.3257 21.8081 19.2874C21.8443 19.0362 21.3821 18.6557 21.1361 18.5256C20.9479 18.4262 21.0339 18.4964 20.8925 18.3681C20.8875 18.3634 20.8813 18.3567 20.8762 18.3522L20.6503 18.2462C20.7594 18.4133 20.8299 18.3574 20.958 18.4596C20.9992 18.4924 20.9792 18.4752 21.0095 18.5104Z" fill="#E3B3B4"/>
<path fill-rule="evenodd" clip-rule="evenodd" d="M20.0775 21.7672C20.1542 21.8081 20.5417 21.9213 20.6962 21.9052C20.8239 21.8919 20.8978 21.8396 21.0322 21.8334C21.152 21.8281 21.267 21.8632 21.3703 21.8773C21.5833 21.8223 22.1932 20.6332 21.8139 20.3803C21.8146 20.4701 21.8323 20.397 21.7995 20.468C21.6978 20.4654 21.6748 20.4412 21.5621 20.4245L21.401 20.4615C21.3703 20.3979 21.3834 20.4047 21.3422 20.3432C21.2567 20.3895 21.3103 20.3797 21.1826 20.3705C21.1783 20.3632 21.1522 20.3171 21.1517 20.3162C20.9906 20.079 20.4148 20.2243 20.4002 20.2335C20.4199 20.3154 20.4285 20.2895 20.4842 20.3385L20.6724 20.5181C20.8706 20.693 20.7827 20.6859 20.8781 20.8059C20.9617 20.9107 20.9917 20.8608 21.0249 21.0028C20.8365 21.0993 20.9696 20.9574 20.7189 20.9261C20.7377 20.8151 20.7305 20.8425 20.7707 20.8222C20.6638 20.8498 20.7127 20.97 20.5189 20.7965C20.4249 20.7122 20.3647 20.697 20.3546 20.5614C20.2877 20.6482 20.3467 20.6115 20.2558 20.6038C20.0477 20.586 20.2185 20.4827 19.8669 20.4692C19.8814 20.4915 19.9339 20.5727 19.9474 20.6002C19.9734 20.6527 19.9517 20.5732 19.9678 20.6557C19.9789 20.7131 19.9734 20.6842 19.9629 20.7131C19.8763 20.7362 19.9487 20.7212 19.8716 20.6777C19.737 20.6019 19.7091 20.5644 19.5986 20.4326C19.5924 20.4377 19.5851 20.4459 19.5812 20.4495L19.4333 20.5588C19.4661 20.6957 19.5013 20.6417 19.5386 20.7774L19.6114 21.0315C19.6569 21.1492 19.5979 21.0508 19.6689 21.1524C19.7299 21.2394 19.7021 21.1449 19.7226 21.2323C19.7655 21.4143 19.5729 21.6035 20.1677 21.6586C20.1607 21.6658 20.1519 21.6748 20.1469 21.6806L20.0775 21.7672Z" fill="#D89DA1"/>
<path fill-rule="evenodd" clip-rule="evenodd" d="M13.9075 16.3191C13.921 16.2741 13.9192 16.2301 13.9362 16.1678C13.9895 15.9717 13.9244 16.1577 14.0035 16.0437C14.0688 15.9492 14.0624 15.9113 14.0615 15.7701C12.3266 15.7388 13.2005 15.2789 12.4818 14.9969C11.9403 14.7845 11.2841 15.0085 11.9004 15.4851C12.0376 15.5911 12.1558 15.6295 12.3624 15.6479L12.3153 15.6691C12.293 15.6771 12.2913 15.6796 12.2675 15.6863L11.8944 15.7499C11.61 15.8157 11.6958 15.8309 11.4982 15.7032C10.9228 15.3318 10.5392 15.8084 11.0261 16.0225L11.072 16.0418C11.1423 16.0756 11.1058 16.0553 11.138 16.0793L10.9314 16.2276C10.5671 16.3996 10.58 16.1011 10.1074 16.2953C10.1053 16.5209 10.1449 16.4766 10.2294 16.6041C10.6252 16.5835 10.6217 16.3825 10.8847 16.3223C10.7895 16.5265 10.548 16.783 10.5362 17.0346C10.6665 17.074 10.6607 17.1072 10.8223 17.0982C10.8607 16.9767 10.8973 17.0217 10.8485 16.8475C10.8129 16.7207 10.7655 16.6971 10.8127 16.5692C10.8525 16.4611 11.0544 16.2027 11.1313 16.1479C11.3302 16.0064 11.3503 16.1753 11.663 15.9449C11.7907 15.8508 12.0528 15.811 12.2636 15.7956C12.1083 16.0304 11.9551 16.0381 11.7691 16.2351C11.3184 16.7121 11.7808 17.1897 12.1308 16.6279C12.2767 16.3936 12.1629 16.2638 12.1203 16.0793C12.2403 15.9306 12.4458 15.7606 12.7087 15.7836C12.9155 15.8016 13.3424 15.8504 13.5269 15.9158C13.2969 15.9657 12.8853 16.3285 13.1804 16.5981C13.4922 16.8833 13.8297 16.5462 13.9075 16.3191Z" fill="#938E55"/>
<path fill-rule="evenodd" clip-rule="evenodd" d="M20.4519 12.7314C20.5894 12.6468 20.4866 12.717 20.5697 12.5908C20.6167 12.6487 20.6089 12.6643 20.6248 12.7961L20.7538 12.8268L20.7637 13.1006C20.8057 13.0145 20.8009 13.0196 20.8477 12.9485C20.97 13.1118 21.0283 13.2903 21.0215 13.5513C21.0287 13.5438 21.035 13.5326 21.0399 13.5262C21.0446 13.52 21.0521 13.5097 21.0574 13.5024L21.1556 13.4096C21.2623 13.5166 21.2353 13.7636 21.1627 13.9113C21.2049 13.7628 21.0819 13.8708 20.958 13.7913C20.9038 13.7566 20.9936 13.7831 20.8489 13.7169C20.8318 13.8564 20.7874 13.7879 20.6921 13.8622C20.6186 13.9194 20.4962 14.417 20.3842 14.4305C20.4855 14.4099 20.3419 14.3836 20.5001 14.4213C20.5777 14.4397 20.5065 14.4391 20.6128 14.4708L20.4159 14.6787C20.3094 14.6994 20.1139 14.8479 20.1124 14.852C20.1694 14.7858 20.3561 14.7879 20.5584 14.7434C20.7277 14.7059 20.843 14.642 20.9192 14.5477C20.9765 14.6686 20.9897 14.6478 21.1421 14.6694C21.0795 14.879 21.0724 14.6277 21.0793 14.9375L21.1029 15.0605C21.1055 15.0663 21.1239 15.0914 21.129 15.1004C20.9938 15.1027 20.9312 15.0526 20.8224 15.1049C20.8187 15.3016 20.9467 15.2527 20.9475 15.5073C21.335 15.526 21.3868 15.3972 21.4905 15.2459C21.7897 14.81 21.63 14.9656 21.7687 14.7074C21.96 14.0656 21.7586 14.2006 21.6086 13.6608C21.5713 13.5266 21.5703 13.4221 21.513 13.2969C21.4155 13.0831 21.273 13.0175 21.1517 12.7383C21.0763 12.5638 20.9987 12.2055 20.8794 12.0883C20.6559 12.1297 20.4992 12.4693 20.4519 12.7314Z" fill="#D49B9B"/>
<path fill-rule="evenodd" clip-rule="evenodd" d="M9.64137 10.017C9.63129 9.9002 9.67201 9.92355 9.78623 9.88134L9.78687 9.59247C10.0179 9.59826 9.88052 9.64969 9.9868 9.54297C10.0498 9.47976 9.98595 9.48169 10.0888 9.48597C10.1705 9.48919 10.149 9.41911 10.1705 9.57469C10.1555 9.53826 10.1304 9.57362 10.1775 9.52047C10.2403 9.44954 10.3147 9.50183 10.3447 9.49712L10.445 9.44676C10.4542 9.44204 10.4662 9.43411 10.478 9.43068C10.4932 9.49754 10.506 9.49626 10.509 9.57469L10.5626 9.46111C10.5645 9.45747 10.569 9.44933 10.571 9.44568C10.6569 9.27897 10.5954 9.28047 10.7927 9.30125C10.7698 8.6901 10.4115 8.32752 10.0635 8.05623C9.6223 7.71251 9.87344 7.90472 9.54644 7.59165C9.32915 7.38378 9.13885 7.33043 8.86456 7.26764C8.89585 7.4065 9.11978 7.62165 9.2025 7.84751C9.2865 8.07787 9.27215 8.34466 9.39215 8.57502C9.90109 9.55262 9.306 9.59033 9.64137 10.017Z" fill="#9DB369"/>
<path fill-rule="evenodd" clip-rule="evenodd" d="M16.4474 20.3479C16.4429 20.3572 16.4382 20.3604 16.4365 20.3767L16.4185 20.4354C16.4165 20.4461 16.4146 20.4538 16.4129 20.466C16.3951 20.6004 16.4358 20.7011 16.4894 20.802C16.6319 20.8258 16.6452 20.7795 16.8093 20.7821C16.6169 20.9152 15.8232 21.0341 16.4202 21.7348C16.6244 21.9746 16.6373 22.0053 16.9711 21.8677C17.3086 21.7288 17.2398 21.7458 17.4417 21.5377L17.4908 21.485L17.4837 21.3997C17.5398 21.4648 17.3712 21.4235 17.5311 21.4119C17.6082 21.4063 17.7874 21.3052 17.6772 21.1237C17.6716 21.123 17.6631 21.1245 17.6601 21.125L17.4432 21.2004C17.4663 20.6715 17.6466 20.9469 17.5731 20.6647C17.7072 20.651 17.7276 20.6741 17.8186 20.6167C17.9052 20.562 17.8793 20.5412 17.9371 20.5535C17.872 20.5556 17.9146 20.5768 17.8242 20.5905L17.665 20.5588C17.7098 20.4461 17.6723 20.5393 17.773 20.4474C17.8278 20.397 17.7873 20.3942 17.8566 20.4259C17.8203 20.3914 17.8399 20.4296 17.8058 20.37C17.7565 20.2837 17.7951 20.3497 17.7828 20.2828L17.8966 20.154C17.7571 20.217 17.8161 20.2138 17.6682 20.1847L17.7072 20.0355C17.7093 20.0304 17.7138 20.0227 17.7158 20.0179C17.7421 19.9564 17.7411 19.8909 17.8158 19.8531C17.7805 19.8229 17.7106 19.8461 17.6772 19.8684C17.7004 19.8855 17.7342 19.8062 17.6894 19.962C17.6742 20.0149 17.6549 20.0237 17.6268 20.0679C17.4676 20.0113 17.5206 20.0396 17.4601 19.8919C17.3845 19.9982 17.4355 20.0066 17.3493 20.1855C17.2778 20.3347 17.2641 20.3227 17.0751 20.2828C17.1046 20.4935 17.1721 20.4615 17.1721 20.4615L17.1363 20.4362C17.0416 20.5526 17.1406 20.4534 16.9906 20.4982C16.9829 20.5005 16.9302 20.5228 16.9216 20.5284L16.789 20.4152C16.6808 20.2524 16.8593 20.1699 16.9004 20.0696C16.9628 19.9174 16.8408 20.0224 17.0069 19.7336C16.8723 19.6862 16.8914 19.7616 16.9253 19.6078C16.7785 19.755 16.8203 19.8802 16.8233 19.9245C16.8269 19.9804 16.8541 19.9652 16.7611 20.1142C16.6803 20.124 16.6548 20.0482 16.6546 20.0479C16.6289 20.139 16.6587 20.0411 16.6265 20.1082C16.5625 20.2423 16.5631 20.3829 16.5344 20.4349L16.4348 20.5265L16.4474 20.3479Z" fill="#D39394"/>
<path fill-rule="evenodd" clip-rule="evenodd" d="M20.5813 15.9899C20.5841 16.0812 20.6132 16.1255 20.6252 16.2327C20.6569 16.4146 20.6561 16.3064 20.682 16.4011C20.697 16.4562 20.7019 16.5342 20.7024 16.6002C20.7032 16.7815 20.6565 16.8404 20.6698 17.0187C20.7744 16.9649 20.7182 16.9679 20.8181 16.9163C21.0624 17.0264 21.153 17.1203 21.5087 17.0796C21.6617 17.0622 21.771 17.0648 21.911 17.0191C22.0603 16.9705 22.1083 16.894 22.2558 16.9223C22.29 16.7864 22.3822 16.8006 22.5455 16.7058C22.5913 16.6793 22.5607 16.7028 22.6029 16.6668C22.6498 16.6268 22.6168 16.6649 22.6548 16.6107C22.5663 16.5708 22.6149 16.5451 22.5352 16.4496C22.5305 16.4442 22.5236 16.438 22.5189 16.4331C22.5144 16.4281 22.5067 16.423 22.5022 16.4185C22.3648 16.2828 22.4405 16.2614 22.3822 16.2419C22.3796 16.2408 22.3691 16.2376 22.3657 16.2363C22.3057 16.2156 22.2776 16.1787 22.1692 16.2023L22.14 16.2119C22.0149 16.2338 22.2285 16.2466 22.1032 16.2126C22.1 16.2117 22.0449 16.1763 22.0365 16.1712L22.121 15.982C22.1229 15.9685 22.1289 15.9653 22.1319 15.9565C22.068 15.91 22.0702 15.9035 21.9723 15.9076C22.0991 15.8403 21.9883 15.823 21.984 15.8135C21.725 15.9224 21.7556 15.6698 21.5655 15.8465C21.452 15.952 21.5308 15.8568 21.3253 15.9333L21.2797 15.9588C21.2368 15.709 21.2278 15.9822 21.1327 15.8191L21.0943 15.7531C20.9494 15.7685 20.9089 15.7906 20.8014 15.85C20.7247 15.8922 20.6509 15.922 20.5813 15.9899Z" fill="#D9DCD6"/>
<path fill-rule="evenodd" clip-rule="evenodd" d="M17.4885 21.485C17.3569 21.7038 17.5165 22.0295 17.8935 22.2001C18.0465 22.2693 18.1646 22.3274 18.3006 22.4039C18.6289 22.5884 18.5085 22.5986 18.6572 22.6758C18.6831 22.5708 18.6596 22.6246 18.6863 22.5419C18.7879 22.5294 18.9386 22.6224 19.0515 22.5142C19.1366 22.4339 19.0151 22.4947 19.1274 22.3681L19.1899 22.3057C19.2709 22.2001 19.2499 22.1203 19.2681 22.0408C19.2778 21.9995 19.2791 21.9973 19.2971 21.9551L19.3414 21.8707C19.2964 21.7158 19.3661 21.9393 19.2726 21.7863C19.3573 21.6624 19.3719 21.785 19.3579 21.5418C19.3498 21.4031 19.2789 20.9413 19.1919 20.8702C19.1666 21.0731 19.1704 21.2748 18.9512 21.1708C18.9401 21.3352 18.9482 21.3868 19.0429 21.471C18.9958 21.5055 18.9889 21.5199 18.8929 21.5278C18.8897 21.4721 18.882 21.4473 18.8751 21.4035C18.8741 21.3967 18.8728 21.3879 18.8717 21.3813C18.8297 21.1181 18.7673 21.1893 18.8927 21.1158C18.8869 21.1121 18.8769 21.11 18.8734 21.1083C18.8702 21.1068 18.8591 21.1025 18.8552 21.1003C18.8516 21.0984 18.8421 21.0941 18.8385 21.0918C18.8349 21.0896 18.8267 21.0845 18.8235 21.0819L18.7689 21.0234C18.6645 20.967 18.7095 21.0414 18.6666 21.0988C18.5749 21.2223 18.5968 21.1573 18.5083 21.2261L18.2846 21.5197C18.1826 21.6039 18.2477 21.5544 18.1615 21.6451C17.949 21.8688 18.1178 21.7972 17.9835 21.9489C17.9693 21.8407 17.9261 21.7779 17.9085 21.6866C17.883 21.554 17.9325 21.5004 17.9494 21.4196C17.9434 21.3678 17.8384 21.2902 17.718 21.3566C17.7585 21.4931 17.7906 21.3879 17.7628 21.5216C17.7568 21.5229 17.7478 21.5205 17.7448 21.5197C17.742 21.5188 17.7308 21.5173 17.7272 21.516C17.6548 21.4903 17.6693 21.4548 17.5695 21.4601C17.4949 21.4642 17.5423 21.4588 17.4885 21.485Z" fill="#DBA4A3"/>
<path fill-rule="evenodd" clip-rule="evenodd" d="M11.3375 11.3094C11.5308 11.0617 11.4137 11.0687 11.7738 10.833C11.8807 10.7629 12.0168 10.6804 12.1633 10.6635L12.0285 10.8199C11.9741 10.8806 11.9608 10.8958 11.8935 10.9609C11.82 11.0325 11.8188 11.0353 11.745 11.0919C11.6508 11.1643 11.6778 11.1611 11.6079 11.2314C11.6621 11.2468 11.6088 11.2224 11.6358 11.3182C11.966 11.3484 12.0045 11.4189 12.3114 11.2547C13.0991 10.8332 13.1144 10.0881 13.4664 9.75877C13.3829 9.72234 12.9971 9.93084 12.8405 9.97498C12.3841 10.1031 12.3678 10.1586 12.1464 10.2315C11.5777 10.4188 11.4253 10.608 11.3375 11.3094Z" fill="#ADC48E"/>
<path fill-rule="evenodd" clip-rule="evenodd" d="M16.9253 19.6078C16.8914 19.7616 16.8723 19.6862 17.0069 19.7335C16.8408 20.0224 16.9628 19.9174 16.9004 20.0695C16.8593 20.1698 16.6808 20.2523 16.789 20.4152L16.9216 20.5283C16.9302 20.5228 16.9829 20.5005 16.9906 20.4981C17.1406 20.4533 17.0416 20.5526 17.1363 20.4362L17.1721 20.4615C17.1721 20.4615 17.1046 20.4934 17.0751 20.2828C17.2641 20.3226 17.2778 20.3346 17.3493 20.1855C17.4355 20.0065 17.3845 19.9982 17.4601 19.8919C17.5206 20.0396 17.4676 20.0113 17.6268 20.0678C17.6549 20.0237 17.6742 20.0149 17.6894 19.962C17.7342 19.8062 17.7004 19.8855 17.6772 19.8683C17.7106 19.846 17.7805 19.8229 17.8158 19.8531C17.7411 19.8908 17.7421 19.9564 17.7158 20.0179C17.7138 20.0226 17.7093 20.0303 17.7072 20.0355L17.6682 20.1846C17.8161 20.2138 17.7571 20.217 17.8966 20.154C18.0929 20.0595 18.0426 20.0473 18.3021 19.998C18.3381 19.9414 18.3627 19.7794 18.4838 19.5771C18.3625 19.4173 18.3726 19.2507 18.2284 19.1781C18.3025 19.1033 18.2787 19.0002 18.2498 18.9145C18.2483 18.9098 18.2451 18.8995 18.2408 18.8929C18.1242 18.9996 18.0959 18.9741 18.0061 19.098C17.9658 19.1532 17.8448 19.2972 17.7805 19.3332C17.7396 19.2919 17.7325 19.3343 17.7451 19.1475C17.6832 19.0922 17.6498 19.0887 17.6286 19.072C17.4807 18.9559 17.5874 19.0043 17.5962 18.9938C17.4359 19.1232 17.0112 19.447 16.9253 19.6078Z" fill="#E2ACAC"/>
<path fill-rule="evenodd" clip-rule="evenodd" d="M17.4057 11.6833C17.4837 11.6465 17.4676 11.6242 17.5482 11.5518C17.6181 11.4892 17.6419 11.4836 17.7276 11.4251C17.8478 11.3428 17.9461 11.2623 18.0923 11.1701L18.0801 11.0853C18.0349 10.9607 17.9564 10.7927 17.8992 10.6507C17.845 10.5163 17.7396 10.3421 17.7049 10.2309C17.6153 9.94415 17.5673 9.49779 17.4124 9.26721C17.3731 9.28221 17.3262 9.24707 17.266 9.49243C17.0614 10.3275 17.0279 10.845 17.4057 11.6833Z" fill="#5B8775"/>
<path fill-rule="evenodd" clip-rule="evenodd" d="M9.37799 12.5221C9.37735 12.8947 9.30406 12.7445 9.1847 12.9444C9.07113 13.1349 9.17356 13.1829 8.96827 13.373C8.82234 13.5082 8.80519 13.4701 8.65326 13.6702C8.50112 13.871 8.50261 13.8065 8.27075 13.9314C8.29282 13.9501 8.28254 13.9563 8.34854 13.9749C8.4169 13.9942 8.37169 13.9861 8.44026 13.9812C8.68669 13.9632 8.83884 13.8959 9.06084 13.8556C9.53592 13.769 9.91372 13.2284 10.0129 12.8409C10.0731 12.6063 9.94629 12.4713 10.4092 12.2628C10.3963 12.2516 10.3927 12.146 10.1188 12.2437L9.37799 12.5221Z" fill="#A7BA77"/>
<path fill-rule="evenodd" clip-rule="evenodd" d="M18.1948 11.0229L18.1997 11.0957C18.3261 11.0377 18.4358 10.9922 18.5466 10.9247C18.6628 10.8542 18.7558 10.7589 18.9251 10.7287L19.0136 10.9241C19.0275 10.9254 19.0194 10.9348 19.062 10.9044C19.0999 10.7525 19.1321 10.5956 19.1805 10.419C19.2309 10.2349 19.4081 9.72021 19.5294 9.54171C19.6213 9.40628 19.7332 9.29506 19.7959 9.18127C19.4006 9.28906 18.9193 9.57128 18.6984 9.78707C18.5046 9.97608 18.1513 10.6018 18.1948 11.0229Z" fill="#4A5B47"/>
<path fill-rule="evenodd" clip-rule="evenodd" d="M17.4584 15.2965C17.497 15.3577 17.5107 15.2956 17.6777 15.4137C17.7949 15.4968 17.7983 15.5221 17.959 15.4595C17.9781 15.4522 18.0569 15.4203 18.097 15.4049C18.0977 15.4047 18.1463 15.3856 18.1607 15.3792C18.1667 15.3764 18.1746 15.3723 18.1804 15.3693C18.1864 15.3665 18.1943 15.3622 18.1999 15.3592C18.2852 15.3142 18.4107 15.2476 18.4557 15.1655C18.5305 14.9446 18.5873 14.8527 18.456 14.6686C18.34 14.5061 18.4054 14.3924 18.2942 14.2156C18.1077 14.1989 18.0072 14.2413 17.854 14.2869C17.8332 14.2931 17.761 14.3176 17.7383 14.3242C17.6736 14.3433 17.7117 14.3401 17.6618 14.339L17.5101 14.3304C17.4451 14.5098 17.5939 14.3429 17.5238 14.5591C17.4469 14.7969 17.4421 14.4575 17.4904 15.0616C17.5103 15.3106 17.461 15.0875 17.4584 15.2965Z" fill="#DAAC67"/>
</g>
<defs>
<clipPath id="clip0_2976_255">
<rect width="30.0001" height="30" fill="white" transform="translate(0.895508)"/>
</clipPath>
</defs>
</svg>
