<svg id="Слой_1" data-name="Слой 1" xmlns="http://www.w3.org/2000/svg" viewBox="0 0 100 43"><defs><style>.cls-1{fill:#3c3c3b;}</style></defs><title>1</title><g id="EVlY9F"><path class="cls-1" d="M25.11,26.43l1.81-2.66c1.17.51,2.28,1.11,3.46,1.5a17,17,0,0,0,8.7.55,7.23,7.23,0,0,0,1.84-.71,2.41,2.41,0,0,0,.84-.81,1.34,1.34,0,0,0-.53-2.09,6.86,6.86,0,0,0-2-.62c-1.3-.16-2.61-.18-3.91-.29-1.64-.15-3.29-.28-4.92-.53A8.44,8.44,0,0,1,28.05,20a4,4,0,0,1-.88-6.57,8.29,8.29,0,0,1,4.45-2,20.54,20.54,0,0,1,11.11,1.05c.85.34,1.65.82,2.54,1.27l-1.93,2.69a11.31,11.31,0,0,0-4.71-2,14.59,14.59,0,0,0-7.16.25,4.55,4.55,0,0,0-1.5.81,1,1,0,0,0,.27,1.75,9.87,9.87,0,0,0,3.52.71c2.3.2,4.61.34,6.91.6a6.68,6.68,0,0,1,3.19,1.27,4.64,4.64,0,0,1,0,7.3A9.26,9.26,0,0,1,39,29a23.12,23.12,0,0,1-11.44-1.35C26.72,27.29,26,26.85,25.11,26.43Z"/><path class="cls-1" d="M96.69,24.28l1.81,2.51a23,23,0,0,1-2.74,1.41,13.9,13.9,0,0,1-10.17.09A6.67,6.67,0,0,1,82,19.14a6.6,6.6,0,0,1,3.71-3.33,11.65,11.65,0,0,1,9,.12,6.74,6.74,0,0,1,4.16,5.78c.07.49.08,1,.11,1.48a1.31,1.31,0,0,1,0,.22H85.32A2.41,2.41,0,0,0,86.5,25a8.57,8.57,0,0,0,2.44.9,11.36,11.36,0,0,0,6.12-.74C95.61,24.91,96.11,24.59,96.69,24.28Zm-1.87-3.73A2.63,2.63,0,0,0,93.53,19a7,7,0,0,0-4.79-.79,5.12,5.12,0,0,0-2.45,1,2.59,2.59,0,0,0-1,1.4Z"/><path class="cls-1" d="M24,28.73H20.32v-.55c0-2.1,0-4.2,0-6.3a11.31,11.31,0,0,0-.28-2.15,1.68,1.68,0,0,0-1.34-1.31,8.83,8.83,0,0,0-6.77,1,.82.82,0,0,0-.28.61c0,2.69,0,5.39,0,8.08v.56H8.11V15.42h3.42v.9l.59-.27a12.11,12.11,0,0,1,8.38-.53,4.36,4.36,0,0,1,3.41,4.3c.05.55.06,1.12.06,1.68,0,2.21,0,4.43,0,6.64Z"/><path class="cls-1" d="M66.22,24.76l2.43-4.4c.86-1.55,1.72-3.09,2.56-4.65a.63.63,0,0,1,.65-.38c1.14,0,2.28,0,3.48,0a3.5,3.5,0,0,1-.18.38q-4.75,8.36-9.5,16.71a.61.61,0,0,1-.62.36c-1.14,0-2.29,0-3.53,0l1.36-2.26c.37-.62.73-1.25,1.13-1.86a.62.62,0,0,0,0-.76q-3.41-6.06-6.79-12.14L57,15.33h2.46c.56,0,1.24-.18,1.65.08s.61.94.88,1.45l4.07,7.59C66.08,24.53,66.13,24.59,66.22,24.76Z"/><path class="cls-1" d="M55.85,25.67l.82,2.9c-1.24.18-2.44.42-3.64.51a8.4,8.4,0,0,1-2.45-.19A3,3,0,0,1,48.13,26c-.11-1.58-.08-3.16-.1-4.75,0-1,0-1.94,0-2.94H45.86v-3H48V12h3.56v3.29H55.8v3H51.62c0,.2,0,.34,0,.49v5.84c0,1.12.36,1.51,1.46,1.44C54,26,54.86,25.82,55.85,25.67Z"/><path class="cls-1" d="M6.32,28.72H2.62v-17h3.7Z"/><path class="cls-1" d="M80.07,28.7H76.54V11.52h3.53Z"/></g></svg>