<svg width="50" height="50" viewBox="0 0 50 50" fill="none" xmlns="http://www.w3.org/2000/svg">
<g clip-path="url(#clip0)">
<path d="M39.6001 49.3C38.8001 49.1 38.0001 49 37.2001 48.7C34.1001 47.5 31.0001 47.5 27.8001 48C23.3001 48.7 18.9001 48.7 14.5001 48C11.4001 47.5 8.30006 47.5 5.20006 48.7C4.40006 49 3.40006 49.2 2.50006 49.2C1.10006 49.3 0.300058 48.2 0.500058 46.6C0.600058 45.8 0.900058 45.1 1.10006 44.3C1.20006 43.8 1.30006 43.2 1.30006 42.7C0.500058 38.2 5.82337e-05 33.7 0.400058 29.2C0.600058 27 1.00006 24.8 1.30006 22.6C1.40006 22 1.20006 21.4 1.10006 20.8C0.900058 20 0.600058 19.2 0.500058 18.4C0.300058 17 1.10006 15.9 2.40006 15.9C3.30006 15.9 4.20006 16.1 5.10006 16.4C8.20006 17.6 11.4001 17.6 14.5001 17.1C18.9001 16.5 23.3001 16.5 27.8001 17.1C30.9001 17.6 34.0001 17.6 37.1001 16.5C38.0001 16.2 38.9001 16 39.8001 16C41.1001 15.9 41.9001 17 41.8001 18.5C41.7001 19.2 41.6001 19.9 41.4001 20.4C41.0001 21.3 40.9001 22.2 41.1001 23.1C41.9001 27.2 42.3001 31.3 42.0001 35.5C41.8001 37.9 41.4001 40.3 41.1001 42.7C41.0001 43.3 41.2001 43.9 41.3001 44.4C41.4001 45.1 41.7001 45.7 41.8001 46.3C42.0001 48.2 41.2001 49.2 39.6001 49.3ZM39.2001 48.2C40.6001 48.3 41.1001 47.7 40.9001 46.5C40.8001 45.9 40.6001 45.3 40.4001 44.8C40.0001 44 40.0001 43.3 40.1001 42.5C40.5001 39.9 40.9001 37.3 41.1001 34.7C41.3001 31 41.0001 27.2 40.3001 23.6C40.0001 22.3 39.9001 21.1 40.6001 19.9C40.8001 19.5 40.9001 19 40.9001 18.6C41.0001 17.5 40.6001 16.9 39.6001 17C38.9001 17.1 38.3001 17.2 37.6001 17.4C34.2001 18.8 30.7001 18.6 27.2001 18.1C23.1001 17.5 19.1001 17.5 15.1001 18.1C11.6001 18.6 8.10006 18.8 4.70006 17.4C4.10006 17.1 3.50006 17 3.00006 16.9C1.80006 16.7 1.30006 17.4 1.50006 18.7C1.60006 19.2 1.70006 19.7 1.90006 20.2C2.30006 21.1 2.30006 22 2.20006 23C1.80006 26.2 1.40006 29.3 1.20006 32.5C1.00006 35.9 1.50006 39.2 2.20006 42.5C2.40006 43.3 2.30006 44 2.00006 44.8C1.70006 45.4 1.60006 46.1 1.50006 46.7C1.40006 47.7 1.80006 48.3 2.70006 48.2C3.50006 48.1 4.20006 48 5.00006 47.7C7.20006 46.9 9.50006 46.5 11.8001 46.7C13.7001 46.9 15.6001 47 17.5001 47.3C21.4001 47.8 25.3001 47.3 29.2001 46.8C31.8001 46.5 34.4001 46.5 37.0001 47.5C37.6001 47.8 38.6001 48 39.2001 48.2Z" fill="#828383"/>
<path d="M0 32.8C0 31.6 0.1 30.4 0.2 29.2C0.3 28 0.5 26.7 0.7 25.5C0.8 24.5 1 23.5 1.1 22.6C1.2 22.1 1 21.6 0.9 21V20.9C0.8 20.6 0.7 20.3 0.7 20C0.6 19.5 0.4 19 0.4 18.6C0.3 17.8 0.5 17 1 16.5C1.4 16.1 1.9 15.9 2.5 15.9C3.6 15.9 4.5 16.1 5.2 16.4C8.6 17.7 12 17.5 14.5 17.1C18.9 16.5 23.4 16.5 27.8 17.1C31.6 17.7 34.4 17.5 37 16.5C37.8 16.2 38.8 16 39.8 15.9C40.4 15.9 41 16.1 41.4 16.5C41.9 17 42.1 17.7 42 18.6C41.9 19.2 41.8 20 41.5 20.6C41.1 21.4 41 22.2 41.2 23.2C42.1 27.7 42.4 31.7 42.1 35.6C42 37.1 41.8 38.6 41.6 40C41.5 40.9 41.3 41.9 41.2 42.8C41.1 43.3 41.3 43.9 41.4 44.4V44.5C41.5 44.8 41.5 45.1 41.6 45.4C41.7 45.7 41.8 46.1 41.9 46.5C42.1 47.5 41.9 48.3 41.5 48.9C41.1 49.4 40.5 49.7 39.6 49.7C39.3 49.6 39.1 49.6 38.8 49.5C38.2 49.4 37.7 49.3 37.1 49C33.8 47.7 30.4 47.9 27.8 48.3C23.4 49 18.8 49 14.4 48.3C10.7 47.8 7.8 48 5.2 49C4.4 49.3 3.4 49.5 2.5 49.6C1.8 49.6 1.3 49.4 0.9 49C0.4 48.5 0.2 47.7 0.3 46.8C0.4 46.3 0.5 45.9 0.6 45.4C0.7 45.1 0.8 44.8 0.9 44.5V44.4C1 43.9 1.1 43.4 1 43C0.3 38.9 0 35.7 0 32.8ZM1.5 22.2C1.5 22.3 1.5 22.4 1.5 22.5C1.4 23.5 1.2 24.5 1.1 25.4C0.9 26.6 0.7 27.9 0.6 29.1C0.2 33.1 0.5 37.2 1.5 42.6C1.6 43.1 1.5 43.7 1.4 44.2V44.3C1.3 44.6 1.2 45 1.1 45.3C1 45.7 0.8 46.2 0.8 46.6C0.7 47.4 0.9 48.1 1.3 48.5C1.5 48.8 1.9 49 2.5 49C3.4 49 4.3 48.8 5.1 48.5C7.8 47.5 10.7 47.3 14.5 47.8C18.9 48.4 23.4 48.4 27.8 47.8C30.4 47.4 33.9 47.1 37.3 48.5C37.8 48.7 38.4 48.8 38.9 48.9C39.1 49 39.4 49 39.6 49.1C40.3 49.1 40.8 48.8 41.2 48.4C41.6 47.9 41.7 47.2 41.6 46.3C41.5 46 41.4 45.6 41.3 45.3C41.2 45 41.1 44.7 41.1 44.4V44.3C41 43.7 40.9 43.1 40.9 42.6C41 41.7 41.1 40.7 41.3 39.8C41.5 38.4 41.7 36.9 41.8 35.4C42.1 31.6 41.8 27.5 40.9 23.1C40.7 22 40.8 21.1 41.2 20.2C41.5 19.6 41.6 18.8 41.6 18.3C41.7 17.5 41.5 16.9 41.1 16.5C40.8 16.2 40.3 16 39.8 16C38.8 16 37.9 16.2 37.1 16.5C34.4 17.5 31.5 17.7 27.7 17.2C23.3 16.6 18.9 16.6 14.5 17.2C11.9 17.7 8.4 18 5 16.6C4.3 16.3 3.4 16.2 2.4 16.1C1.9 16.1 1.5 16.3 1.2 16.6C0.8 17 0.7 17.6 0.7 18.3C0.8 18.8 0.9 19.2 1 19.7C1.1 20 1.2 20.3 1.3 20.7V20.8C1.4 21.3 1.5 21.8 1.5 22.2ZM0.9 33.9C0.9 33.4 0.9 32.9 0.9 32.4C1 29.6 1.4 26.8 1.7 24.1L1.9 22.9C2 21.9 2 21.1 1.6 20.3C1.4 19.9 1.3 19.4 1.2 18.8C1.1 18 1.2 17.5 1.6 17.1C1.8 16.9 2.2 16.6 3 16.8C3.6 16.9 4.2 17 4.8 17.2C8.3 18.6 12 18.4 15.1 17.9C19.1 17.3 23.2 17.3 27.3 17.9C30.6 18.4 34.1 18.6 37.6 17.2C38.2 17 38.8 16.8 39.6 16.8C40.1 16.8 40.5 16.9 40.8 17.1C41.1 17.4 41.2 17.9 41.2 18.6V18.7C41.2 19.1 41.1 19.7 40.9 20C40.3 21.1 40.3 22.2 40.6 23.6C41.4 27.6 41.7 31.3 41.4 34.8C41.3 36.9 40.9 39.1 40.6 41.2C40.5 41.7 40.5 42.2 40.4 42.7C40.3 43.5 40.3 44.2 40.6 44.8C40.9 45.4 41 46 41.1 46.6C41.2 47.3 41.1 47.8 40.8 48.1C40.5 48.4 40 48.6 39.2 48.6C39 48.6 38.8 48.5 38.6 48.4C38.1 48.3 37.4 48.1 36.8 47.9C34.1 46.9 31.4 47 29.1 47.3C28.6 47.3 28.2 47.4 27.7 47.5C24.3 47.9 20.9 48.3 17.4 47.8C15.4 47.5 13.5 47.4 11.7 47.2C9.5 47 7.2 47.3 5 48.2C4.3 48.5 3.4 48.6 2.7 48.7C2.3 48.7 1.9 48.6 1.6 48.3C1.3 48 1.2 47.5 1.3 46.9C1.4 46.2 1.6 45.5 1.8 44.9C2 44 2.1 43.3 2 42.5C1.3 39.3 0.9 36.5 0.9 33.9ZM2.4 21.9C2.4 22.2 2.4 22.6 2.3 23L2.1 24.2C1.8 26.9 1.4 29.7 1.3 32.5C1.1 35.4 1.5 38.6 2.3 42.5C2.5 43.3 2.4 44.1 2 44.9C1.8 45.5 1.6 46.1 1.5 46.8C1.4 47.3 1.5 47.6 1.7 47.9C2 48 2.2 48 2.5 48C3.2 47.9 4 47.8 4.7 47.5C7 46.7 9.3 46.3 11.6 46.5C13.3 46.6 15.3 46.8 17.3 47.1C20.7 47.5 24.2 47.2 27.5 46.8C28 46.7 28.4 46.7 28.9 46.6C31.1 46.4 34 46.2 36.8 47.3C37.4 47.5 38.1 47.7 38.6 47.8C38.8 47.9 39 47.9 39.2 47.9C39.8 47.9 40.3 47.8 40.5 47.6C40.7 47.4 40.8 47 40.7 46.4C40.6 45.8 40.4 45.3 40.2 44.7C39.9 44 39.8 43.3 39.9 42.4C40 41.9 40 41.4 40.1 40.9C40.4 38.8 40.7 36.7 40.9 34.6C41.1 31.1 40.8 27.5 40.1 23.5C39.9 22.3 39.7 21 40.5 19.6C40.7 19.3 40.7 18.8 40.8 18.4V18.3C40.9 17.7 40.8 17.4 40.6 17.1C40.4 16.9 40.1 16.8 39.7 16.9C38.9 17 38.3 17.1 37.8 17.3C34.2 18.8 30.7 18.5 27.3 18C23.2 17.4 19.2 17.4 15.2 18C12 18.5 8.3 18.7 4.7 17.3C4.2 17.1 3.6 17 3 16.9C2.5 16.8 2.2 16.9 1.9 17.1C1.6 17.4 1.6 17.8 1.7 18.5C1.8 19.1 1.9 19.6 2.1 19.9C2.3 20.7 2.4 21.3 2.4 21.9Z" fill="#828383"/>
<path d="M35.2002 39.8V39.7C37.1002 32.2 35.8002 25.5 35.7002 25.4C35.6002 25.1 35.8002 24.8 36.2002 24.7C36.5002 24.6 36.8002 24.8 36.9002 25.2C37.0002 25.5 38.3002 32.3 36.3002 40C36.2002 40.3 35.9002 40.5 35.6002 40.4C35.4002 40.3 35.2002 40.1 35.2002 39.8Z" fill="#828383"/>
<path d="M4.7002 33.3C4.7002 30.9 4.9002 28.1 5.6002 25.2C5.7002 24.9 6.0002 24.7 6.3002 24.8C6.6002 24.9 6.8002 25.2 6.7002 25.5C5.0002 33 6.4002 39.7 6.5002 39.8C6.6002 40.1 6.4002 40.4 6.0002 40.5C5.7002 40.6 5.4002 40.4 5.3002 40C5.3002 39.8 4.7002 37.2 4.7002 33.3Z" fill="#828383"/>
<path d="M44.9999 10.5L45.4999 7.89996L45.9999 10.5C46.0999 10.8 46.2999 11 46.4999 11L49.0999 11.5L46.5999 12C46.2999 12.1 46.0999 12.3 46.0999 12.5L45.5999 15.1L44.9999 12.6C44.8999 12.3 44.6999 12.1 44.4999 12.1L41.8999 11.6L44.4999 11.1C44.7999 11 44.9999 10.8 44.9999 10.5Z" fill="#828383"/>
<path d="M45.4998 15.7L44.8998 12.6C44.8998 12.4 44.6998 12.2 44.3998 12.1L41.2998 11.5L44.3998 10.9C44.5998 10.9 44.7998 10.7 44.8998 10.4L45.4998 7.29999L46.0998 10.4C46.0998 10.6 46.2998 10.8 46.5998 10.9L49.6998 11.5L46.5998 12.1C46.3998 12.1 46.1998 12.3 46.0998 12.6L45.4998 15.7ZM42.3998 11.5L44.4998 11.9C44.7998 12 45.0998 12.2 45.0998 12.5L45.4998 14.6L45.8998 12.5C45.9998 12.2 46.1998 11.9 46.4998 11.9L48.5998 11.5L46.4998 11.1C46.1998 11 45.8998 10.8 45.8998 10.5L45.4998 8.39999L45.0998 10.5C44.9998 10.8 44.7998 11.1 44.4998 11.1L42.3998 11.5Z" fill="#828383"/>
<path d="M32.9003 3.1L33.4003 0.5L33.9003 3.1C34.0003 3.4 34.2003 3.6 34.4003 3.6L37.0003 4.1L34.4003 4.6C34.2003 4.7 34.0003 5 33.9003 5.2L33.4003 7.8L32.9003 5.2C32.8003 4.9 32.6003 4.7 32.4003 4.7L29.8003 4.2L32.4003 3.7C32.7003 3.6 32.9003 3.4 32.9003 3.1Z" fill="#828383"/>
<path d="M33.4002 8.4L32.8002 5.3C32.8002 5.1 32.6002 4.9 32.3002 4.8L29.2002 4.2L32.3002 3.6C32.5002 3.6 32.7002 3.4 32.8002 3.1L33.4002 0L34.0002 3.1C34.0002 3.3 34.2002 3.5 34.5002 3.6L37.6002 4.2L34.5002 4.8C34.3002 4.8 34.1002 5 34.0002 5.3L33.4002 8.4ZM30.3002 4.2L32.4002 4.6C32.7002 4.7 33.0002 4.9 33.0002 5.2L33.4002 7.3L33.8002 5.2C33.9002 4.9 34.1002 4.6 34.4002 4.6L36.5002 4.2L34.4002 3.8C34.1002 3.7 33.8002 3.5 33.8002 3.2L33.4002 1L33.0002 3.2C32.9002 3.5 32.7002 3.8 32.4002 3.8L30.3002 4.2Z" fill="#828383"/>
</g>
<defs>
<clipPath id="clip0">
<rect width="49.7" height="49.5" fill="white"/>
</clipPath>
</defs>
</svg>
