<svg width="59" height="61" viewBox="0 0 59 61" fill="none" xmlns="http://www.w3.org/2000/svg">
<g clip-path="url(#clip0)">
<path d="M51.2999 38.8C51.0999 38 50.3999 37.4 50.1999 37.2C49.7999 36.9 49.6999 36.7 49.7999 36.4C49.7999 36.2 49.8999 36.1 49.8999 35.9C49.8999 35.8 49.8999 35.7 49.8999 35.6C50.6999 30.8 50.5999 26.7 49.7999 22.9C48.4999 17.1 45.6999 13 41.1999 10.4C37.3999 8.20001 32.8999 7.50001 27.9999 8.40001C22.5999 9.30001 18.4999 12.2 15.8999 17C13.6999 20.9 12.7999 25.5 13.0999 30.9C13.1999 32.3 13.2999 33.7 13.4999 35.1C13.5999 35.7 13.5999 36.3 13.6999 36.9C12.4999 37.4 11.8999 38.4 11.8999 40C11.8999 40.7 11.8999 41.4 12.0999 42C12.8999 45.5 14.4999 47.7 17.0999 49.1C17.1999 49.2 17.2999 49.2 17.3999 49.3C17.4999 49.1 17.4999 49 17.5999 48.8C17.5999 48.7 17.5999 48.6 17.5999 48.6C17.5999 48.5 17.5999 48.3 17.5999 48.2C17.3999 47.6 16.9999 47.3 16.5999 46.9C15.8999 46.4 15.4999 45.8 15.0999 45.2C13.8999 43.3 13.3999 41.7 13.4999 39.9C13.4999 39.5 13.5999 39.1 13.7999 38.9C13.8999 38.7 14.0999 38.5 14.3999 38.5C14.5999 38.5 14.7999 38.6 14.9999 38.9C15.0999 39 15.0999 39.1 15.1999 39.3C15.2999 39.5 15.6999 40.6 16.3999 40.4C16.9999 40.1 16.8999 39.5 16.7999 39.3L16.6999 39.2C16.4999 38.7 16.2999 38 15.8999 37.7C15.3999 37.3 15.2999 36.8 15.1999 36.2L15.0999 35.7C14.6999 32.7 14.2999 29.6 14.6999 26.5C15.3999 20.6 17.2999 16.4 20.7999 13.4C23.6999 10.9 27.1999 9.70001 31.5999 9.70001H31.6999C36.6999 9.70001 40.6999 11.4 43.6999 14.7C46.0999 17.3 47.5999 20.6 48.2999 25C48.7999 28.1 48.6999 31.5 48.0999 35.6C48.0999 35.7 48.0999 35.9 48.0999 36.1C48.0999 36.3 48.0999 36.5 47.9999 36.7C47.8999 36.9 47.7999 37 47.6999 37.2C47.5999 37.3 47.4999 37.4 47.4999 37.5L47.2999 37.9C46.9999 38.4 46.7999 38.7 46.4999 39.2C46.3999 39.5 46.2999 40.2 46.8999 40.4C47.5999 40.6 47.8999 39.8 47.8999 39.8C47.9999 39.7 48.4999 38.7 48.7999 38.7C49.1999 38.9 49.4999 39.3 49.5999 39.6C49.8999 41 49.5999 42.5 48.6999 44.3C48.0999 45.6 47.2999 46.5 46.2999 47.3C46.3999 46.9 46.4999 46.5 46.5999 46.1C46.5999 45.8 46.6999 45 46.1999 44.8C45.5999 44.6 45.1999 45.5 45.1999 45.8C44.5999 48 43.6999 50.6 42.1999 52.8C39.5999 56.7 35.9999 58.7 31.6999 58.7C27.2999 58.7 23.6999 56.7 21.0999 52.7C20.7999 52.2 20.4999 51.8 20.1999 51.2C19.9999 51.5 19.8999 51.8 19.6999 52.2C19.5999 52.5 19.4999 52.6 19.2999 52.7C19.5999 53.2 19.8999 53.8 20.2999 54.3C22.5999 57.5 25.7999 59.5 29.4999 60.1C30.1999 60.2 30.8999 60.3 31.6999 60.3C34.5999 60.3 37.3999 59.4 39.8999 57.6C42.1999 55.9 43.9999 53.5 45.5999 50C45.6999 49.7 45.8999 49.5 46.0999 49.4C49.4999 47.9 52.0999 42.8 51.2999 38.8Z" fill="#828383"/>
<path d="M27.6998 51.4L27.2998 51.5L27.5998 51.8C28.7998 53 30.3998 53.6 32.1998 53.6C32.2998 53.6 32.4998 53.6 32.5998 53.6C34.1998 53.5 35.6998 52.8 36.5998 51.7L36.7998 51.4L36.3998 51.3C33.4998 50.8 30.5998 50.9 27.6998 51.4Z" fill="#828383"/>
<path d="M35.3999 48.5C34.5999 47.8 33.7999 47.6 32.9999 48.1C32.3999 48.5 31.7999 48.5 31.0999 48.1C30.3999 47.7 29.5999 47.7 28.8999 48.4C28.4999 48.7 28.1999 49.1 27.7999 49.4C27.5999 49.6 27.3999 49.7 27.2999 49.9L26.8999 50.3H37.4999L36.4999 49.4C36.0999 49.1 35.7999 48.8 35.3999 48.5Z" fill="#828383"/>
<path d="M46.8998 34.4C46.9998 34.5 47.0998 34.5 47.1998 34.5C47.2998 34.5 47.3998 34.5 47.4998 34.5C48.1998 34.3 48.0998 33.7 47.9998 33.3V33.2C46.3998 27.3 40.8998 23 34.2998 22.4C34.2998 22.4 33.5998 22.3 33.3998 23.1C33.2998 23.3 33.3998 23.5 33.4998 23.7C33.6998 24 34.0998 24 34.3998 24C39.8998 24.4 44.8998 28.3 46.3998 33.6V33.7C46.4998 33.9 46.5998 34.3 46.8998 34.4Z" fill="#828383"/>
<path d="M58.4002 54.5L57.0002 54.1C56.4002 53.9 56.0002 53.5 55.8002 52.9L55.4002 51.5C55.3002 51.2 55.1002 51 54.8002 51C54.5002 51 54.3002 51.2 54.2002 51.5L53.8002 52.9C53.6002 53.5 53.2002 53.9 52.6002 54.1L51.2002 54.5C50.9002 54.6 50.7002 54.8 50.7002 55.1C50.7002 55.4 50.9002 55.6 51.2002 55.7L52.6002 56.1C53.2002 56.3 53.6002 56.7 53.8002 57.3L54.2002 58.7C54.3002 59 54.5002 59.2 54.8002 59.2C55.1002 59.2 55.3002 59 55.4002 58.7L55.8002 57.3C56.0002 56.7 56.4002 56.3 57.0002 56.1L58.4002 55.7C58.7002 55.6 58.9002 55.4 58.9002 55.1C58.9002 54.8 58.7002 54.6 58.4002 54.5ZM54.9002 56.9C54.6002 56 54.0002 55.4 53.1002 55.1C54.0002 54.8 54.6002 54.2 54.9002 53.3C55.2002 54.2 55.8002 54.8 56.7002 55.1C55.8002 55.4 55.1002 56 54.9002 56.9Z" fill="#828383"/>
<path d="M6.8 28.4C6.8 28.1 6.6 27.9 6.3 27.8L5.2 27.5C4.8 27.4 4.4 27 4.3 26.6L4 25.5C3.9 25.2 3.7 25 3.4 25C3.1 25 2.9 25.2 2.8 25.5L2.5 26.6C2.4 27 2 27.4 1.6 27.5L0.5 27.8C0.2 27.9 0 28.1 0 28.4C0 28.7 0.2 29 0.5 29L1.6 29.3C2 29.4 2.4 29.8 2.5 30.2L2.8 31.3C2.9 31.6 3.1 31.8 3.4 31.8C3.7 31.8 3.9 31.6 4 31.3L4.3 30.2C4.4 29.7 4.8 29.4 5.2 29.3L6.4 29C6.6 29 6.8 28.7 6.8 28.4ZM3.4 29.7C3.2 29.1 2.7 28.7 2.2 28.5C2.8 28.3 3.2 27.8 3.4 27.3C3.6 27.9 4.1 28.3 4.6 28.5C4.1 28.7 3.6 29.1 3.4 29.7Z" fill="#828383"/>
<path d="M57.1999 5.89998L56.0999 5.59998C55.6999 5.49998 55.2999 5.09998 55.1999 4.69998L54.8999 3.59998C54.7999 3.29998 54.5999 3.09998 54.2999 3.09998C53.9999 3.09998 53.7999 3.29998 53.6999 3.59998L53.3999 4.69998C53.2999 5.09998 52.8999 5.49998 52.4999 5.59998L51.3999 5.89998C51.0999 5.99998 50.8999 6.19998 50.8999 6.49998C50.8999 6.79998 51.0999 6.99998 51.3999 7.09998L52.4999 7.39998C52.8999 7.49998 53.2999 7.89998 53.3999 8.29998L53.6999 9.39998C53.7999 9.69998 53.9999 9.89998 54.2999 9.89998C54.5999 9.89998 54.7999 9.69998 54.8999 9.39998L55.1999 8.29998C55.2999 7.89998 55.6999 7.49998 56.0999 7.39998L57.1999 7.09998C57.4999 6.99998 57.6999 6.79998 57.6999 6.49998C57.6999 6.19998 57.4999 5.99998 57.1999 5.89998ZM54.2999 7.79998C54.0999 7.19998 53.5999 6.79998 53.0999 6.59998C53.6999 6.39998 54.0999 5.89998 54.2999 5.39998C54.4999 5.99998 54.9999 6.39998 55.4999 6.59998C54.9999 6.79998 54.4999 7.19998 54.2999 7.79998Z" fill="#828383"/>
<path d="M46.6 2C46 2 45.5 2.5 45.5 3.1C45.5 3.7 46 4.2 46.6 4.2C47.2 4.2 47.7 3.7 47.7 3.1C47.7 2.5 47.2 2 46.6 2Z" fill="#828383"/>
<path d="M16.1999 57.3C15.9999 57.3 15.8999 57.2 15.7999 57.1C15.5999 56.9 15.5999 56.5 15.7999 56.3C20.4999 51.9 19.3999 47.2 18.1999 41.7C17.6999 39.5 17.1999 37.3 17.0999 35C16.7999 30.2 20.8999 24.1 28.7999 22.2C36.4999 20.4 38.6999 15.1 38.7999 15.1C38.8999 14.8 39.2999 14.7 39.4999 14.8C39.7999 14.9 39.8999 15.3 39.7999 15.5C39.6999 15.7 37.3999 21.4 28.9999 23.3C20.7999 25.2 17.9999 31.4 18.1999 34.9C18.2999 37.1 18.7999 39.3 19.2999 41.5C20.4999 47.1 21.6999 52.3 16.4999 57.2C16.4999 57.3 16.3999 57.3 16.1999 57.3Z" fill="#828383"/>
<path d="M41.1 11.8H41C40.7 11.7 40.5 11.4 40.6 11.1C41.7 6.80002 39.8 4.40002 38 3.10002C34.7 0.700016 29.2 0.600016 25.8 2.90002C23.2 4.60002 22.1 7.40002 22.8 10.9C22.9 11.2 22.7 11.5 22.4 11.6C22.1 11.7 21.8 11.5 21.7 11.2C20.8 7.00002 22 3.80002 25.1 1.80002C29 -0.699984 34.9 -0.599984 38.6 2.10002C41.5 4.20002 42.6 7.50002 41.7 11.3C41.6 11.6 41.4 11.8 41.1 11.8Z" fill="#828383"/>
<path d="M28.6 38.6C27.2 40.8 22.9 40.7 20.5 38.5C20.7 38 20.9 37.5 21.3 36.6C23.3 39.2 25.6 39.9 28.6 38.6Z" fill="#828383"/>
<path d="M34.8999 38.7C37.7999 39.8 40.1999 39.5 41.9999 36.6C42.3999 37.5 42.6999 38 42.9999 38.5C40.5999 40.7 36.4999 40.9 34.8999 38.7Z" fill="#828383"/>
<path d="M29.8 34.4C27.9 33.8 26.3 33.4 24.6 33.3C23.8 33.2 22.9 33.3 22.1 33.5C21.2 33.6 20.4 34 19.5 34.2C20 33.4 21.5 32 24.6 32C27.7 32 29.2 33.6 29.8 34.4Z" fill="#828383"/>
<path d="M33.7998 34.4C35.6998 33.8 37.2998 33.4 38.9998 33.3C39.7998 33.2 40.6998 33.3 41.4998 33.5C42.3998 33.6 43.1998 34 44.0998 34.2C43.5998 33.4 42.0998 32 38.9998 32C35.8998 32 34.2998 33.6 33.7998 34.4Z" fill="#828383"/>
</g>
<defs>
<clipPath id="clip0">
<rect width="58.9" height="60.1" fill="white"/>
</clipPath>
</defs>
</svg>
