<svg width="315" height="202" viewBox="0 0 315 202" fill="none" xmlns="http://www.w3.org/2000/svg">
<path d="M61.8008 162.95C65.0308 162.95 68.2608 162.95 71.4908 162.95" stroke="#3C3C3B" stroke-miterlimit="10" stroke-linecap="round" stroke-linejoin="round"/>
<path d="M148.07 104.38C146.93 104.77 146.01 105.41 144.78 105.45C142.55 105.52 140.99 106.87 139.36 108.12C139.03 108.37 138.68 108.58 137.97 108.59C138.41 106.96 138.73 105.29 139.32 103.72C140.23 101.27 139.87 99.11 138.52 96.91C137.6 95.41 135.43 90.3 134.61 88.48" stroke="#3C3C3B" stroke-miterlimit="10" stroke-linecap="round" stroke-linejoin="round"/>
<path d="M179.55 97.4299C180.4 96.4099 183.26 95.9699 184.93 97.0199C187.37 98.1299 188.101 100.34 188.141 102.78C188.281 111.22 186.201 118.95 180.591 125.49C179.181 127.13 177.84 128.85 176.29 130.35C173.5 133.05 170.361 133.22 167.521 130.58C164.151 127.44 161.05 124.03 159.36 119.58C158.48 117.25 157.29 115.04 156.23 112.78C155.11 110.39 151.531 105.55 149.021 104.46" stroke="#3C3C3B" stroke-miterlimit="10" stroke-linecap="round" stroke-linejoin="round"/>
<path d="M171.241 85.01C172.291 89.83 174.641 93.87 178.541 96.92C179.171 97.41 180.071 97.55 180.851 97.86" stroke="#3C3C3B" stroke-miterlimit="10" stroke-linecap="round" stroke-linejoin="round"/>
<path d="M151.041 85.24C152.261 87.32 153.931 88.81 156.171 89.7C156.521 89.84 156.771 90.59 156.821 91.08C157.001 92.89 157.061 94.72 157.181 96.54C157.331 98.83 158.341 99.58 160.571 99.07C166.021 97.84 171.11 90.59 171 85" stroke="#3C3C3B" stroke-miterlimit="10" stroke-linecap="round" stroke-linejoin="round"/>
<path d="M141.8 75.58C142.18 79.06 141.011 81.86 141.031 86.05C141.031 86.47 142.211 86.81 142.631 86.77C143.911 86.63 144.67 86.06 145.49 84.99" stroke="#3C3C3B" stroke-miterlimit="10" stroke-linecap="round" stroke-linejoin="round"/>
<path d="M156.42 69.12C155.89 69.09 155.65 69.83 155.82 70.34C156.14 71.29 156.4 72.05 156.6 72.82C157.3 75.43 157.16 77.92 155.21 80C153.27 82.08 150.88 82.93 148.11 82C145.21 81.03 143.53 78.98 143.18 75.9C143.13 75.47 143.13 74.23 143.07 73.35" stroke="#3C3C3B" stroke-miterlimit="10" stroke-linecap="round" stroke-linejoin="round"/>
<path d="M153.061 50.45C156.701 53.26 160.801 55.6199 163.341 59.5799C164.721 61.7299 165.481 64.2799 166.501 66.6599C166.741 67.2099 166.751 67.9099 167.111 68.3399C170.071 71.8999 171.401 76.0599 171.851 80.5799C171.881 80.8799 171.991 81.1699 172.201 81.4399C173.281 78.7499 172.761 76.1899 171.391 73.2899C172.051 73.6199 172.391 73.71 172.621 73.92C175.541 76.54 176.491 80.8299 174.991 84.6099C174.851 84.9699 174.661 85.31 174.511 85.67C174.181 86.47 173.541 87.4199 174.641 88.0099C175.801 88.6299 176.611 87.73 177.021 86.83C178.401 83.8 179.861 80.7699 179.191 77.2599C179.121 76.8799 179.141 76.4899 179.141 76.0999C179.141 76.0299 179.271 75.9499 179.531 75.6599C180.451 78.4799 180.201 81.2099 180.011 83.8999C179.811 86.6999 178.521 89.0799 176.621 91.0699C177.851 92.4599 178.991 92.7099 180.141 91.6699C180.971 90.9099 181.671 89.8999 182.141 88.8799C183.421 86.1099 183.871 83.1599 183.611 80.1099" stroke="#3C3C3B" stroke-miterlimit="10" stroke-linecap="round" stroke-linejoin="round"/>
<path d="M150.541 48.59C151.421 48.62 152.051 48.15 152.831 48.06C166.121 46.46 177.161 52.94 182.021 65.44C183.741 69.87 185.131 74.47 186.251 79.1C187.521 84.37 186.951 89.5199 183.481 93.9699C182.881 94.7499 181.891 95.37 180.951 95.68C180.381 95.87 179.571 95.33 178.891 94.79" stroke="#3C3C3B" stroke-miterlimit="10" stroke-linecap="round" stroke-linejoin="round"/>
<path d="M134.121 59.39C129.191 64.18 127.941 69.9699 129.361 76.5199C129.431 76.8199 129.571 77.1099 129.751 77.5899C132.271 75.8199 133.201 73.2999 133.811 70.6499C134.441 67.8899 134.841 65.0799 135.501 62.3299C135.791 61.1299 136.481 60.0199 137.281 58.9299C135.101 63.8999 137.151 67.4399 140.791 70.6299C141.311 70.2399 141.721 69.8899 142.181 69.5999C145.061 67.7899 145.061 67.7999 143.531 64.7399C142.461 62.6099 141.381 60.4799 140.321 58.3399C140.091 57.8699 139.931 57.3599 139.701 56.7699C142.851 59.8099 145.881 62.7399 148.911 65.6599C149.031 65.5699 149.151 65.48 149.271 65.39C148.201 61.27 145.711 58.0299 142.481 55.1499C144.621 54.9599 149.031 58.2299 154.131 63.6299C155.211 62.2499 155.191 60.1999 153.811 58.3399C152.701 56.8599 151.321 55.5699 150.191 54.0499C155.841 57.4599 160.511 62.1099 165.731 66.7099" stroke="#3C3C3B" stroke-miterlimit="10" stroke-linecap="round" stroke-linejoin="round"/>
<path d="M129.901 92.0999C125.471 81.5699 126.651 72.2199 127.201 67.8399C127.591 64.7199 128.981 61.9899 131.131 59.7199C134.031 56.6599 136.951 53.6099 140.011 50.6999C141.061 49.6999 142.461 48.9599 143.841 48.4699C144.811 48.1199 150.381 48.5899 150.551 48.5999" stroke="#3C3C3B" stroke-miterlimit="10" stroke-linecap="round" stroke-linejoin="round"/>
<path d="M89.8203 141.37C93.4903 137.22 100.79 127.68 104.31 123.4C104.61 123.03 106.94 121.56 107.61 121.37" stroke="#3C3C3B" stroke-miterlimit="10" stroke-linecap="round" stroke-linejoin="round"/>
<path d="M112.55 161.29C109.77 162.95 87.5405 170.19 84.6905 170.36C79.0405 170.71 75.0105 162.02 78.2405 157.83C80.1305 155.37 82.0805 152.94 83.8705 150.4C85.9005 147.5 87.7805 144.49 89.8305 141.36" stroke="#3C3C3B" stroke-miterlimit="10" stroke-linecap="round" stroke-linejoin="round"/>
<path d="M104.001 153.17C106.941 150.31 106.311 145.7 107.211 143.92C110.181 139.37 113.601 135.26 117.961 131.97C118.741 131.38 119.241 130.43 119.871 129.64C120.801 128.48 122.741 127.23 123.121 126.76C123.591 126.17 124.391 125.3 124.541 125.17C126.941 122.91 129.971 121.81 127.841 121.24" stroke="#3C3C3B" stroke-miterlimit="10" stroke-linecap="round" stroke-linejoin="round"/>
<path d="M134.5 119.59C129.94 123.05 120.82 131.45 117.11 135.86C116.4 136.71 115.691 137.64 114.781 138.23C111.991 140.04 110.43 142.7 108.99 145.57C106.88 149.76 104.41 153.74 100.23 156.25" stroke="#3C3C3B" stroke-miterlimit="10" stroke-linecap="round" stroke-linejoin="round"/>
<path d="M154.141 109.62C150.821 110.82 142.5 114.599 139.511 116.49C137.851 117.54 135.841 118.6 134.501 119.59" stroke="#3C3C3B" stroke-miterlimit="10" stroke-linecap="round" stroke-linejoin="round"/>
<path d="M114.23 114.44C116.29 111.07 118.44 111.7 120.92 114.69C122.23 116.27 123.49 117.91 124.93 119.37C127.08 121.55 128.5 121.77 131.18 120.33C133.63 119.02 136.1 117.7 138.31 116.05C139.82 114.92 140.94 113.26 142.17 111.78C143.12 110.63 143.83 109.24 144.91 108.24C145.96 107.28 149.25 105.68 149.01 104.45" stroke="#3C3C3B" stroke-miterlimit="10" stroke-linecap="round" stroke-linejoin="round"/>
<path d="M135.611 90.76C133.541 89.38 126.541 95.7699 125.571 98.5399C124.671 101.14 122.591 103.66 121.811 106.29C121.001 109 118.711 110.38 116.421 112.13C115.361 112.95 114.281 114.05 113.791 115.26C112.631 118.15 110.661 119.99 107.601 121.35C110.621 122.9 113.611 124.52 116.671 125.97" stroke="#3C3C3B" stroke-miterlimit="10" stroke-linecap="round" stroke-linejoin="round"/>
<path d="M142.98 96.49C142.98 94.89 142.98 93.35 142.98 91.81C142.98 90.29 142.98 88.77 142.98 87.61" stroke="#3C3C3B" stroke-miterlimit="10" stroke-linecap="round" stroke-linejoin="round"/>
<path d="M165.091 122.49C165.431 123.11 165.911 123.65 166.321 124.23C165.611 118.34 162.891 113.67 158.461 109.98M160.551 108.28C163.691 111.18 166.821 114.1 170.001 116.95C170.841 117.7 171.861 118.25 172.801 118.9C172.941 118.73 173.071 118.56 173.211 118.39C172.271 117.32 171.381 116.21 170.391 115.18C168.581 113.3 166.591 111.59 164.921 109.6M162.801 104.66C163.071 104.99 163.321 105.32 163.601 105.64C164.661 106.87 165.691 106.73 166.411 105.25C166.581 104.9 166.711 104.53 166.781 104.15C167.221 102.01 168.501 100.49 170.251 99.25" stroke="#3C3C3B" stroke-miterlimit="10" stroke-linecap="round" stroke-linejoin="round"/>
<path d="M139.771 100.33C141.941 103.48 147.02 105.77 151.25 103.47C152.91 102.57 154.56 101.66 156.29 100.91" stroke="#3C3C3B" stroke-miterlimit="10" stroke-linecap="round" stroke-linejoin="round"/>
<path d="M137.641 75.2099C140.121 75.6099 142.721 74.47 143.911 72.17C145.701 68.69 149.601 67.2899 153.271 68.7699C153.711 68.9499 154.201 69.1099 154.671 69.1099C157.811 69.1599 160.951 69.15 164.101 69.18C164.731 69.19 166.911 68.89 167.591 68.95" stroke="#3C3C3B" stroke-miterlimit="10" stroke-linecap="round" stroke-linejoin="round"/>
<path d="M137.781 75.23C134.621 74.49 132.011 76.17 130.751 78.96C129.291 82.19 130.841 86.53 134.021 88.11C136.041 89.11 138.701 88.08 139.231 85.83C139.991 82.62 140.471 78.12 139.581 75.21" stroke="#3C3C3B" stroke-miterlimit="10" stroke-linecap="round" stroke-linejoin="round"/>
<path d="M152.541 92.76C149.821 91.99 145.841 93.56 144.681 95.84C147.501 94.73 150.021 93.75 152.541 92.76Z" stroke="#3C3C3B" stroke-miterlimit="10" stroke-linecap="round" stroke-linejoin="round"/>
<path d="M157.841 116.11C154.571 123.82 148.941 136.29 148.471 144.47C148.121 150.57 147.871 156.69 147.051 162.73C146.381 167.66 144.951 172.48 143.801 177.34C143.641 178.03 143.151 178.64 142.811 179.29M122.381 180.02C122.151 177.55 121.891 175.08 121.691 172.61C121.481 170.06 121.251 167.52 121.161 164.97C121.071 162.45 121.141 159.91 121.141 157C117.931 158.6 115.231 159.94 112.531 161.28" stroke="#3C3C3B" stroke-miterlimit="10" stroke-linecap="round" stroke-linejoin="round"/>
<path d="M217.451 177.36C216.241 174.93 215.291 172.37 214.111 169.92C210.941 163.38 207.541 156.94 204.521 150.33C200.231 140.92 196.231 131.36 194.791 121.02C194.081 115.92 193.961 110.74 193.591 105.59C193.511 104.43 193.571 103.25 193.411 102.1C193.191 100.5 191.561 98.55 189.781 97.98" stroke="#3C3C3B" stroke-miterlimit="10" stroke-linecap="round" stroke-linejoin="round"/>
<path d="M239.45 162.82C236.42 165.92 232.661 167.92 228.771 169.42C229.081 171.03 229.241 172.52 229.681 173.92" stroke="#3C3C3B" stroke-miterlimit="10" stroke-linecap="round" stroke-linejoin="round"/>
<path d="M218.061 134.71C218.381 135.82 218.691 136.94 219.031 138.05C221.211 145.16 223.381 152.27 225.581 159.37C226.061 160.93 227.181 170.48 228.771 169.41" stroke="#3C3C3B" stroke-miterlimit="10" stroke-linecap="round" stroke-linejoin="round"/>
<path d="M218.061 134.71C217.451 132.14 216.811 127.24 216.691 124.99C216.571 124.96 216.441 124.93 216.321 124.9C215.961 126.66 215.601 128.42 215.181 130.44C212.791 127.08 211.791 123.51 211.521 119.73C211.301 116.69 211.491 113.6 211.081 110.59C210.831 108.75 210.001 106.89 209.051 105.26" stroke="#3C3C3B" stroke-miterlimit="10" stroke-linecap="round" stroke-linejoin="round"/>
<path d="M185.581 97.36C186.801 97.63 190.291 97.83 191.271 98.47C192.661 99.38 194.081 99.59 195.631 99.8C198.431 100.19 201.231 100.69 203.981 101.33C210.151 102.75 216.291 104.28 222.441 105.77C222.871 105.87 223.291 106.03 223.711 106.18C225.941 106.97 226.421 107.95 225.821 110.27C225.221 112.57 224.281 114.88 224.201 117.2C224.091 120.32 224.671 123.46 224.961 126.6" stroke="#3C3C3B" stroke-miterlimit="10" stroke-linecap="round" stroke-linejoin="round"/>
<path d="M252.2 171.3C250.85 167.19 249.43 163.11 248.26 158.95C247.17 155.07 245.46 151.63 242.54 148.81C240.3 146.65 238.72 144.03 238.03 140.98C237.02 136.55 235.12 132.5 233 128.53C232.81 128.18 227.58 108.18 225.65 107.38" stroke="#3C3C3B" stroke-miterlimit="10" stroke-linecap="round" stroke-linejoin="round"/>
<path d="M71.2012 162.85C71.7012 169.81 76.6412 172.99 82.7612 173.59" stroke="#3C3C3B" stroke-miterlimit="10" stroke-linecap="round" stroke-linejoin="round"/>
</svg>
