<svg width="285" height="175" viewBox="0 0 285 175" fill="none" xmlns="http://www.w3.org/2000/svg">
<path d="M157.029 48.7228H153.041C153.041 48.7103 153.029 48.6853 153.004 48.6729H157.004C157.017 48.6853 157.029 48.7103 157.029 48.7228Z" fill="#E3AEB8"/>
<path d="M14.2429 88.8113V88.8239L14.2178 88.8113H14.2429Z" fill="#E3AEB8"/>
<path d="M157.021 48.6724H157.008C156.522 47.5853 156.011 46.4981 155.463 45.4234V45.4109C154.915 44.3362 154.366 43.2864 153.781 42.2492C153.781 42.2367 153.781 42.2367 153.781 42.2367C152.048 39.0876 150.079 36.0634 147.936 33.1767C147.936 33.1642 147.936 33.1642 147.936 33.1642C147.388 32.4394 146.839 31.7146 146.291 31.0023C145.444 29.9526 144.559 28.9154 143.674 27.8907C142.777 26.866 141.854 25.8788 140.907 24.9165C133.505 17.3186 124.632 11.0829 114.837 6.80905C105.054 2.52274 94.3744 0.210881 83.6447 0.0109363C72.9025 -0.164015 62.0855 1.76045 52.0037 5.75934C41.9345 9.73324 32.588 15.7066 24.7993 23.342C17.0355 30.9898 10.7173 40.1748 6.46775 50.2845C5.67019 52.184 4.94739 54.1459 4.29937 56.1204C3.21518 59.3695 2.33038 62.6811 1.65744 66.0426C0.58571 71.4161 0.012462 76.8896 0 82.3756C0 83.0504 0.0124604 83.7377 0.0373844 84.4125C0.0373844 84.4125 0.0373844 84.4126 0.0373844 84.425C0.0747702 85.8372 0.162002 87.2618 0.27416 88.6739C2.62947 84.9499 5.69511 81.0385 9.63309 77.477C9.6954 76.1648 9.82002 74.8777 9.96957 73.578C10.5428 68.5419 11.6519 63.5808 13.2097 58.7697C15.4528 51.934 18.6555 45.4233 22.6808 39.475C25.1233 35.926 27.8649 32.5769 30.8807 29.4778C37.7099 22.4797 45.8725 16.6938 54.8825 12.7699C63.88 8.8085 73.7125 6.67159 83.6322 6.45915C93.5519 6.2717 103.521 8.04621 112.831 11.6952C122.102 15.3692 130.751 20.8552 137.954 27.8907C138.714 28.6405 139.462 29.4028 140.209 30.1651C140.92 30.9524 141.655 31.7646 142.365 32.5769C143.163 33.4892 143.923 34.4264 144.671 35.3761C145.419 36.3259 146.141 37.3006 146.839 38.2878C149.157 41.5744 151.251 45.036 153.008 48.66C153.02 48.6724 153.045 48.6974 153.045 48.7099H153.058H157.008H157.021C157.033 48.7099 157.021 48.6849 157.021 48.6724Z" fill="#E3AEB8"/>
<path d="M143.913 130.287H143.876C143.876 130.3 143.863 130.325 143.838 130.337C142.006 132.599 140.037 134.761 137.956 136.798C130.753 143.834 122.105 149.332 112.833 152.994C103.524 156.655 93.5542 158.417 83.6345 158.242C78.9239 158.117 74.2382 157.592 69.6646 156.643C68.5804 156.418 67.5336 156.168 66.4619 155.893C66.4619 155.905 66.4744 155.905 66.4619 155.93C66.7112 157.767 67.0725 159.879 67.5959 162.291C67.6583 162.653 67.7455 163.003 67.8452 163.378C67.8327 163.391 67.8327 163.416 67.8452 163.428C73.0543 164.34 78.3506 164.765 83.6345 164.69C94.3642 164.49 105.044 162.179 114.827 157.892C124.622 153.631 133.495 147.383 140.897 139.785C143.776 136.848 146.405 133.686 148.798 130.337C148.811 130.325 148.835 130.3 148.835 130.287H148.823H143.913Z" fill="#E3AEB8"/>
<path d="M29.8396 148.27C29.6402 148.133 29.4034 147.945 29.2165 147.783C27.4344 146.383 25.6274 144.821 23.8578 143.159C23.4715 144.371 23.0727 145.508 22.649 146.608C22.5867 146.783 22.5244 146.933 22.4621 147.095V147.108C19.8326 154.006 16.9913 159.292 13.5393 163.803L13.2402 164.191L13.4272 164.653C13.477 164.778 13.5269 164.903 13.6016 165.028C15.122 168.664 16.58 173.251 16.605 173.288L17.1533 175L18.1378 173.501C18.8107 172.476 19.6083 171.226 20.4432 169.827C23.4217 164.878 27.1229 158.142 29.1542 153.281C29.3286 152.894 29.4782 152.519 29.6152 152.156C30.0265 151.057 30.4128 149.982 30.7742 148.945C30.4377 148.732 30.1387 148.507 29.8396 148.27Z" fill="#E3AEB8"/>
<path d="M34.9873 113.004C34.4265 107.968 33.8159 103.519 32.1086 99.8455C31.9591 99.5206 31.7971 99.1957 31.6351 98.8957C31.4855 98.5833 31.336 98.2834 31.1615 97.996C30.9746 97.6711 30.7876 97.3712 30.6007 97.0587C30.0025 96.1465 29.367 95.2592 28.6691 94.4345H28.6816C28.557 94.297 28.4323 94.1595 28.3077 94.0221C28.2703 93.9846 28.2579 93.9721 28.2205 93.9346C28.1582 93.8721 28.0959 93.8096 28.0336 93.7472C27.8342 93.5222 27.6098 93.2848 27.3855 93.0848C27.236 92.9474 27.0989 92.8099 26.9494 92.6725C26.912 92.635 26.8621 92.585 26.8247 92.5475C26.725 92.4475 26.6254 92.36 26.5257 92.2601C26.5132 92.2601 26.5132 92.2476 26.4883 92.2476L26.4758 92.2351H26.4633V92.2226C26.4135 92.1726 26.3636 92.1226 26.2889 92.0851C26.1643 91.9602 26.0521 91.8602 25.9275 91.7602C25.5661 91.4728 25.2172 91.1979 24.8308 90.9479C24.781 90.9104 24.7311 90.8855 24.6813 90.848C24.3822 90.648 24.0706 90.4356 23.7342 90.2731C23.7217 90.2731 23.7217 90.2606 23.6968 90.2606C23.6968 90.2606 23.6843 90.2606 23.6843 90.2481C23.6719 90.2356 23.6345 90.2106 23.622 90.2106C23.622 90.1981 23.6096 90.1981 23.6096 90.1981C23.5971 90.1857 23.5722 90.1856 23.5597 90.1607C23.5597 90.1482 23.5472 90.1482 23.5223 90.1482C23.4725 90.1107 23.4226 90.0857 23.3728 90.0482C23.3105 89.9982 23.2232 89.9482 23.136 89.9107C22.9865 89.8482 22.8245 89.7733 22.6749 89.7108C22.6624 89.7108 22.6375 89.6983 22.6251 89.6983C22.488 89.6358 22.3384 89.5608 22.2014 89.5108C22.1515 89.4733 22.1141 89.4608 22.0643 89.4483C21.9272 89.3859 21.7901 89.3234 21.678 89.2734C21.6156 89.2359 21.5533 89.2234 21.5035 89.2109C20.4567 88.7735 19.3974 88.4861 18.1761 88.3737C18.0889 88.3612 18.0017 88.3612 17.9269 88.3612C17.5904 88.3112 17.254 88.2987 16.9299 88.2737L16.9175 88.3112L15.8333 89.9107C15.8333 89.9232 15.8208 89.9232 15.8208 89.9482C14.5871 91.7727 14.0388 94.0971 13.8145 96.034C14.3877 95.9341 14.8986 95.8966 15.3348 95.8966C15.8582 95.8966 16.1822 95.9466 16.2445 95.9591C16.7181 96.0215 17.1543 96.134 17.6029 96.2715H17.6154C20.6685 97.2587 22.6874 99.8705 23.971 102.42C23.971 102.432 23.9834 102.432 23.9834 102.457C25.4415 105.369 25.9524 108.168 25.9649 108.243C27.2235 114.791 27.5226 121.489 26.8995 128.188C27.6472 129.137 28.4199 130.075 29.2424 130.987C30.7627 132.736 32.4077 134.423 34.1399 135.998C35.5481 128.2 35.8098 120.502 34.9873 113.004Z" fill="#E3AEB8"/>
<path d="M12.0471 101.995C12.0097 101.945 11.9972 101.895 11.9972 101.845C12.0595 102.27 12.1343 102.682 12.234 103.12C12.1717 102.745 12.0969 102.37 12.0471 101.995ZM12.0471 101.995C12.0097 101.945 11.9972 101.895 11.9972 101.845C12.0595 102.27 12.1343 102.682 12.234 103.12C12.1717 102.745 12.0969 102.37 12.0471 101.995ZM12.0471 101.995C12.0097 101.945 11.9972 101.895 11.9972 101.845C12.0595 102.27 12.1343 102.682 12.234 103.12C12.1717 102.745 12.0969 102.37 12.0471 101.995ZM12.0471 101.995C11.9474 101.383 11.8602 100.783 11.7979 100.171C11.8477 100.721 11.9225 101.27 11.9972 101.833C12.0595 102.258 12.1343 102.67 12.234 103.107C12.1717 102.745 12.0969 102.37 12.0471 101.995ZM12.0471 101.995C12.0097 101.945 11.9972 101.895 11.9972 101.845C12.0595 102.27 12.1343 102.682 12.234 103.12C12.1717 102.745 12.0969 102.37 12.0471 101.995ZM12.0471 101.995C12.0097 101.945 11.9972 101.895 11.9972 101.845C12.0595 102.27 12.1343 102.682 12.234 103.12C12.1717 102.745 12.0969 102.37 12.0471 101.995ZM12.0471 101.995C12.0097 101.945 11.9972 101.895 11.9972 101.845C12.0595 102.27 12.1343 102.682 12.234 103.12C12.1717 102.745 12.0969 102.37 12.0471 101.995ZM12.0471 101.995C12.0097 101.945 11.9972 101.895 11.9972 101.845C12.0595 102.27 12.1343 102.682 12.234 103.12C12.1717 102.745 12.0969 102.37 12.0471 101.995Z" fill="#E3AEB8"/>
<path d="M56.1237 108.606V111.98H57.7686C58.7033 111.98 59.5258 112.055 60.261 112.205C60.9963 112.355 61.6194 112.605 62.1303 112.942C62.6413 113.28 63.0276 113.717 63.3018 114.242C63.5635 114.767 63.7005 115.417 63.7005 116.192C63.7005 117.604 63.1896 118.653 62.1677 119.366C61.1458 120.078 59.7127 120.428 57.8434 120.428C57.5693 120.428 57.2826 120.428 56.9711 120.415C56.6595 120.403 56.348 120.378 56.0364 120.353C55.7249 120.328 55.4133 120.29 55.1142 120.253C54.8027 120.215 54.5285 120.165 54.2793 120.103V107.007H62.4668V108.594H56.1237V108.606ZM57.993 118.803C58.4914 118.803 58.965 118.766 59.4136 118.691C59.8623 118.616 60.261 118.478 60.61 118.278C60.9589 118.079 61.2331 117.816 61.4325 117.479C61.6319 117.141 61.744 116.729 61.744 116.217C61.744 115.679 61.6568 115.242 61.4699 114.892C61.2829 114.542 61.0212 114.267 60.6723 114.067C60.3233 113.867 59.8996 113.717 59.4012 113.642C58.9027 113.555 58.3294 113.517 57.6939 113.517H56.1237V118.753C56.2608 118.766 56.4352 118.778 56.6221 118.791C56.7841 118.803 56.9835 118.816 57.2203 118.816C57.4446 118.803 57.7063 118.803 57.993 118.803Z" fill="#E3AEB8"/>
<path d="M69.0588 111.817C69.0588 112.242 69.0463 112.692 69.0339 113.167C69.0089 113.642 68.984 114.129 68.9342 114.604C68.8843 115.079 68.8096 115.554 68.7223 116.029C68.6351 116.491 68.5229 116.928 68.3734 117.341C68.2363 117.753 68.0618 118.128 67.85 118.49C67.6381 118.853 67.3764 119.165 67.0773 119.44C66.7658 119.715 66.4169 119.94 66.0056 120.127C65.5944 120.315 65.1208 120.427 64.5725 120.477L64.3232 118.978C64.9463 118.853 65.4448 118.615 65.8062 118.265C66.1676 117.916 66.4542 117.503 66.6786 117.003C66.8655 116.566 67.015 116.079 67.1023 115.529C67.1895 114.979 67.2518 114.404 67.2892 113.817C67.3266 113.217 67.3515 112.629 67.3515 112.03C67.3515 111.43 67.364 110.855 67.364 110.318H73.9813V120.29H72.1992V111.817H69.0588Z" fill="#E3AEB8"/>
<path d="M80.6367 110.08C81.347 110.08 81.9452 110.168 82.4437 110.355C82.9297 110.543 83.3285 110.805 83.6276 111.143C83.9266 111.48 84.1385 111.88 84.2631 112.355C84.3877 112.817 84.45 113.329 84.45 113.892V120.128C84.3005 120.153 84.0886 120.19 83.8145 120.228C83.5403 120.278 83.2288 120.315 82.8923 120.352C82.5434 120.39 82.1695 120.427 81.7707 120.452C81.3719 120.49 80.9732 120.502 80.5744 120.502C80.0136 120.502 79.5026 120.44 79.0291 120.327C78.5555 120.215 78.1443 120.028 77.8078 119.778C77.4589 119.528 77.1972 119.203 77.0103 118.79C76.8233 118.378 76.7236 117.891 76.7236 117.316C76.7236 116.766 76.8358 116.291 77.0601 115.891C77.2844 115.491 77.5835 115.179 77.9698 114.929C78.3561 114.692 78.8048 114.504 79.3033 114.392C79.8142 114.279 80.3501 114.217 80.9109 114.217C81.0853 114.217 81.2722 114.229 81.4716 114.242C81.6586 114.254 81.8455 114.292 82.02 114.317C82.1944 114.354 82.344 114.379 82.4686 114.404C82.5932 114.429 82.6804 114.454 82.7303 114.467V113.967C82.7303 113.679 82.6929 113.379 82.6306 113.092C82.5683 112.805 82.4561 112.555 82.2817 112.33C82.1197 112.105 81.8829 111.93 81.5963 111.792C81.3096 111.655 80.9358 111.592 80.4747 111.592C79.889 111.592 79.378 111.63 78.9419 111.717C78.5057 111.805 78.1692 111.892 77.9574 111.98L77.7455 110.505C77.9698 110.405 78.3561 110.305 78.892 110.205C79.4279 110.13 80.0011 110.08 80.6367 110.08ZM80.7862 119.015C81.2099 119.015 81.5838 119.003 81.9078 118.99C82.2318 118.965 82.506 118.94 82.7178 118.89V115.916C82.5932 115.854 82.3814 115.804 82.0947 115.754C81.8081 115.704 81.4592 115.691 81.0479 115.691C80.7738 115.691 80.4996 115.704 80.2005 115.754C79.9014 115.791 79.6273 115.866 79.378 115.991C79.1288 116.116 78.9169 116.279 78.7549 116.491C78.5929 116.703 78.5057 116.978 78.5057 117.328C78.5057 117.966 78.7051 118.416 79.1163 118.665C79.5276 118.89 80.0884 119.015 80.7862 119.015Z" fill="#E3AEB8"/>
<path d="M93.1738 111.817H88.7996V120.29H87.0176V110.318H93.1738V111.817Z" fill="#E3AEB8"/>
<path d="M103.787 115.316C103.787 116.104 103.675 116.828 103.438 117.466C103.214 118.103 102.89 118.653 102.466 119.115C102.042 119.578 101.556 119.928 100.983 120.178C100.41 120.427 99.7868 120.552 99.1139 120.552C98.4409 120.552 97.8178 120.427 97.2446 120.178C96.6713 119.928 96.1729 119.578 95.7616 119.115C95.3504 118.653 95.0264 118.103 94.7896 117.466C94.5653 116.828 94.4531 116.116 94.4531 115.316C94.4531 114.542 94.5653 113.829 94.7896 113.179C95.0139 112.53 95.3379 111.98 95.7616 111.517C96.1853 111.055 96.6713 110.705 97.2446 110.455C97.8178 110.205 98.4409 110.08 99.1139 110.08C99.7868 110.08 100.41 110.205 100.983 110.455C101.556 110.705 102.055 111.055 102.466 111.517C102.877 111.98 103.201 112.53 103.438 113.179C103.663 113.817 103.787 114.529 103.787 115.316ZM101.93 115.316C101.93 114.192 101.681 113.304 101.17 112.642C100.672 111.98 99.9862 111.655 99.1139 111.655C98.2415 111.655 97.5561 111.98 97.0577 112.642C96.5592 113.304 96.2975 114.192 96.2975 115.316C96.2975 116.441 96.5467 117.328 97.0577 117.991C97.5561 118.653 98.2415 118.978 99.1139 118.978C99.9862 118.978 100.672 118.653 101.17 117.991C101.669 117.328 101.93 116.441 101.93 115.316Z" fill="#E3AEB8"/>
<path d="M112.565 110.33V111.829H109.338V120.302H107.556V111.829H104.328V110.33H112.565Z" fill="#E3AEB8"/>
<path d="M117.612 120.465C116.864 120.465 116.166 120.427 115.53 120.365C114.895 120.29 114.384 120.215 114.022 120.127V110.43C114.396 110.342 114.895 110.255 115.53 110.193C116.166 110.118 116.864 110.093 117.612 110.093C118.135 110.093 118.646 110.143 119.144 110.23C119.643 110.317 120.079 110.467 120.465 110.68C120.852 110.892 121.151 111.18 121.387 111.542C121.624 111.905 121.736 112.354 121.736 112.892C121.736 113.379 121.612 113.792 121.375 114.141C121.138 114.491 120.814 114.754 120.403 114.941C120.951 115.129 121.387 115.416 121.711 115.791C122.035 116.166 122.198 116.691 122.198 117.378C122.198 117.978 122.085 118.478 121.849 118.878C121.612 119.277 121.288 119.59 120.877 119.84C120.465 120.077 119.979 120.252 119.418 120.352C118.845 120.415 118.247 120.465 117.612 120.465ZM117.649 114.404C117.998 114.404 118.309 114.379 118.596 114.341C118.883 114.291 119.132 114.216 119.344 114.104C119.556 113.991 119.718 113.829 119.842 113.642C119.967 113.454 120.029 113.204 120.029 112.917C120.029 112.604 119.954 112.367 119.805 112.192C119.655 112.017 119.456 111.88 119.207 111.78C118.957 111.68 118.683 111.617 118.372 111.592C118.06 111.555 117.749 111.542 117.425 111.542C117.125 111.542 116.839 111.555 116.54 111.567C116.241 111.58 115.991 111.592 115.78 111.605V114.429H117.649V114.404ZM115.755 118.953C115.829 118.965 115.942 118.978 116.079 118.99C116.216 119.003 116.378 119.015 116.552 119.015C116.727 119.028 116.914 119.028 117.113 119.04C117.312 119.04 117.499 119.053 117.674 119.053C118.048 119.053 118.397 119.028 118.733 118.978C119.07 118.928 119.369 118.84 119.618 118.703C119.867 118.578 120.067 118.403 120.216 118.19C120.366 117.978 120.44 117.715 120.44 117.378C120.44 117.053 120.378 116.791 120.241 116.578C120.104 116.366 119.929 116.203 119.693 116.066C119.468 115.941 119.194 115.853 118.883 115.803C118.571 115.753 118.235 115.728 117.873 115.728H115.755V118.953Z" fill="#E3AEB8"/>
<path d="M132.877 115.316C132.877 116.104 132.765 116.828 132.528 117.466C132.304 118.103 131.98 118.653 131.556 119.115C131.145 119.578 130.646 119.928 130.073 120.178C129.5 120.427 128.877 120.552 128.204 120.552C127.531 120.552 126.908 120.427 126.334 120.178C125.761 119.928 125.263 119.578 124.851 119.115C124.44 118.653 124.116 118.103 123.879 117.466C123.655 116.828 123.543 116.116 123.543 115.316C123.543 114.542 123.655 113.829 123.879 113.179C124.104 112.53 124.428 111.98 124.851 111.517C125.263 111.055 125.761 110.705 126.334 110.455C126.908 110.205 127.531 110.08 128.204 110.08C128.877 110.08 129.5 110.205 130.073 110.455C130.646 110.705 131.145 111.055 131.556 111.517C131.967 111.98 132.291 112.53 132.528 113.179C132.765 113.817 132.877 114.529 132.877 115.316ZM131.033 115.316C131.033 114.192 130.783 113.304 130.272 112.642C129.774 111.98 129.089 111.655 128.216 111.655C127.344 111.655 126.658 111.98 126.16 112.642C125.662 113.304 125.4 114.192 125.4 115.316C125.4 116.441 125.649 117.328 126.16 117.991C126.658 118.653 127.344 118.978 128.216 118.978C129.089 118.978 129.761 118.653 130.272 117.991C130.771 117.328 131.033 116.441 131.033 115.316Z" fill="#E3AEB8"/>
<path d="M143.381 115.329C143.381 116.079 143.281 116.779 143.082 117.416C142.882 118.053 142.596 118.603 142.209 119.065C141.823 119.528 141.362 119.89 140.801 120.14C140.253 120.403 139.617 120.528 138.894 120.528C138.321 120.528 137.81 120.453 137.374 120.303C136.938 120.153 136.601 120.003 136.389 119.865V123.852H134.607V110.643C135.031 110.543 135.555 110.43 136.19 110.305C136.826 110.18 137.548 110.118 138.383 110.118C139.144 110.118 139.841 110.243 140.452 110.48C141.063 110.718 141.586 111.068 142.022 111.518C142.458 111.967 142.795 112.505 143.032 113.155C143.256 113.804 143.381 114.529 143.381 115.329ZM141.524 115.329C141.524 114.167 141.237 113.267 140.664 112.642C140.091 112.017 139.33 111.705 138.371 111.705C137.835 111.705 137.411 111.717 137.125 111.767C136.826 111.805 136.589 111.855 136.402 111.905V118.191C136.614 118.366 136.925 118.541 137.337 118.703C137.748 118.866 138.184 118.953 138.67 118.953C139.181 118.953 139.617 118.866 139.979 118.678C140.34 118.491 140.639 118.241 140.863 117.916C141.088 117.591 141.262 117.203 141.362 116.766C141.474 116.316 141.524 115.841 141.524 115.329Z" fill="#E3AEB8"/>
<path d="M153.849 110.33V120.302H152.13V112.704C151.743 113.192 151.332 113.754 150.871 114.416C150.41 115.066 149.949 115.741 149.488 116.441C149.026 117.14 148.59 117.828 148.167 118.503C147.743 119.177 147.382 119.777 147.07 120.302H145.487V110.33H147.207V117.503C147.544 116.953 147.917 116.353 148.341 115.691C148.765 115.029 149.201 114.379 149.65 113.729C150.098 113.079 150.559 112.467 151.008 111.867C151.457 111.267 151.88 110.755 152.279 110.33H153.849Z" fill="#E3AEB8"/>
<path d="M163.935 110.33V111.829H160.707V120.302H158.925V111.829H155.697V110.33H163.935Z" fill="#E3AEB8"/>
<path d="M165.214 115.329C165.214 114.442 165.338 113.679 165.6 113.017C165.862 112.355 166.198 111.817 166.61 111.38C167.033 110.943 167.519 110.618 168.068 110.405C168.616 110.193 169.177 110.08 169.75 110.08C171.083 110.08 172.118 110.505 172.828 111.342C173.538 112.18 173.9 113.454 173.9 115.166C173.9 115.241 173.9 115.341 173.9 115.466C173.9 115.591 173.9 115.704 173.887 115.804H167.083C167.158 116.841 167.457 117.628 167.98 118.166C168.504 118.703 169.314 118.965 170.423 118.965C171.046 118.965 171.569 118.915 172.006 118.803C172.429 118.69 172.753 118.59 172.965 118.49L173.214 119.99C173.003 120.103 172.616 120.228 172.08 120.352C171.545 120.477 170.921 120.54 170.236 120.54C169.364 120.54 168.616 120.402 167.993 120.14C167.357 119.878 166.846 119.515 166.435 119.053C166.024 118.59 165.725 118.041 165.525 117.416C165.301 116.778 165.214 116.079 165.214 115.329ZM172.031 114.354C172.043 113.554 171.844 112.892 171.432 112.367C171.021 111.855 170.448 111.592 169.725 111.592C169.314 111.592 168.952 111.667 168.641 111.83C168.329 111.992 168.068 112.192 167.843 112.455C167.619 112.717 167.457 113.005 167.332 113.342C167.208 113.679 167.133 114.017 167.096 114.354H172.031Z" fill="#E3AEB8"/>
<path d="M179.717 111.817C179.717 112.242 179.705 112.692 179.692 113.167C179.667 113.642 179.642 114.129 179.592 114.604C179.543 115.079 179.468 115.554 179.381 116.029C179.293 116.491 179.181 116.928 179.032 117.341C178.894 117.753 178.72 118.128 178.508 118.49C178.296 118.853 178.035 119.165 177.736 119.44C177.424 119.715 177.075 119.94 176.664 120.127C176.253 120.315 175.779 120.427 175.231 120.477L174.981 118.978C175.605 118.853 176.103 118.615 176.464 118.265C176.826 117.916 177.112 117.503 177.337 117.003C177.524 116.566 177.673 116.079 177.76 115.529C177.848 114.979 177.91 114.404 177.947 113.817C177.985 113.217 178.01 112.629 178.01 112.03C178.01 111.43 178.022 110.855 178.022 110.318H184.639V120.29H182.857V111.817H179.717Z" fill="#E3AEB8"/>
<path d="M187.308 120.09V110.33H189.09V114.141C189.189 114.116 189.326 114.091 189.501 114.066C189.675 114.041 189.862 114.016 190.062 113.991C190.261 113.966 190.461 113.941 190.685 113.929C190.897 113.916 191.109 113.916 191.295 113.916C191.844 113.916 192.355 113.979 192.841 114.104C193.327 114.229 193.75 114.416 194.112 114.679C194.473 114.941 194.76 115.278 194.984 115.691C195.196 116.103 195.308 116.603 195.308 117.178C195.308 117.778 195.208 118.29 194.997 118.715C194.797 119.14 194.498 119.477 194.112 119.752C193.726 120.015 193.277 120.215 192.741 120.34C192.218 120.465 191.619 120.527 190.971 120.527C190.336 120.527 189.713 120.49 189.102 120.427C188.492 120.327 187.893 120.227 187.308 120.09ZM191.071 119.052C191.819 119.052 192.417 118.902 192.853 118.615C193.289 118.328 193.501 117.853 193.501 117.19C193.501 116.866 193.439 116.591 193.314 116.366C193.19 116.141 193.015 115.953 192.791 115.803C192.567 115.653 192.305 115.541 192.018 115.478C191.732 115.403 191.408 115.378 191.084 115.378C190.735 115.378 190.386 115.391 190.024 115.403C189.663 115.416 189.351 115.466 189.102 115.528V118.965C189.177 118.977 189.289 118.99 189.451 119.002C189.601 119.015 189.775 119.027 189.962 119.027C190.149 119.04 190.336 119.04 190.535 119.052C190.71 119.04 190.897 119.052 191.071 119.052Z" fill="#E3AEB8"/>
<path d="M205.168 120.29H203.386V115.879H198.8V120.29H197.018V110.318H198.8V114.379H203.386V110.318H205.168V120.29Z" fill="#E3AEB8"/>
<path d="M207.851 110.33H209.633V114.142C209.845 114.092 210.169 114.042 210.58 113.992C210.991 113.942 211.39 113.917 211.776 113.917C212.3 113.917 212.798 113.979 213.272 114.104C213.745 114.229 214.156 114.416 214.518 114.679C214.879 114.941 215.153 115.279 215.365 115.691C215.577 116.104 215.677 116.603 215.677 117.178C215.677 117.778 215.577 118.29 215.365 118.715C215.166 119.14 214.879 119.478 214.505 119.753C214.131 120.015 213.695 120.215 213.172 120.34C212.648 120.465 212.075 120.527 211.452 120.527C210.854 120.527 210.243 120.49 209.633 120.427C209.022 120.352 208.424 120.252 207.851 120.115V110.33ZM211.502 115.366C211.153 115.366 210.829 115.379 210.493 115.391C210.169 115.404 209.882 115.454 209.62 115.516V118.953C209.695 118.965 209.807 118.978 209.957 118.99C210.106 119.003 210.268 119.015 210.43 119.015C210.605 119.028 210.779 119.028 210.954 119.04C211.128 119.04 211.29 119.053 211.427 119.053C212.2 119.053 212.81 118.903 213.222 118.615C213.645 118.328 213.857 117.853 213.857 117.191C213.857 116.866 213.795 116.591 213.658 116.366C213.521 116.141 213.346 115.954 213.122 115.804C212.898 115.654 212.648 115.541 212.362 115.479C212.1 115.404 211.801 115.366 211.502 115.366ZM219.278 120.29H217.496V110.318H219.278V120.29Z" fill="#E3AEB8"/>
<path d="M230.69 110.33V120.303H228.97V112.705C228.584 113.192 228.173 113.754 227.712 114.417C227.251 115.066 226.789 115.741 226.328 116.441C225.867 117.141 225.431 117.828 225.007 118.503C224.584 119.178 224.222 119.778 223.911 120.303H222.328V110.33H224.048V117.503C224.384 116.953 224.758 116.354 225.182 115.691C225.606 115.029 226.042 114.379 226.49 113.729C226.939 113.08 227.4 112.467 227.849 111.867C228.297 111.268 228.721 110.755 229.12 110.33H230.69ZM226.515 108.718C225.718 108.718 225.057 108.518 224.559 108.106C224.06 107.694 223.749 107.131 223.649 106.394L225.007 106.031C225.107 106.444 225.282 106.769 225.518 107.031C225.755 107.281 226.092 107.419 226.515 107.419C226.939 107.419 227.263 107.294 227.512 107.031C227.749 106.769 227.924 106.444 228.023 106.031L229.357 106.394C229.257 107.119 228.958 107.694 228.459 108.106C227.973 108.506 227.325 108.718 226.515 108.718Z" fill="#E3AEB8"/>
<path d="M244.826 123.839H243.106V120.352C242.358 120.34 241.648 120.215 240.988 119.99C240.327 119.765 239.741 119.428 239.243 119.003C238.744 118.578 238.346 118.053 238.047 117.428C237.747 116.816 237.61 116.104 237.61 115.304C237.61 114.517 237.76 113.804 238.047 113.179C238.333 112.567 238.732 112.03 239.243 111.605C239.741 111.18 240.327 110.843 240.988 110.618C241.648 110.393 242.358 110.268 243.106 110.255V105.706L244.826 105.394V110.243C245.561 110.255 246.271 110.38 246.944 110.605C247.617 110.83 248.203 111.167 248.701 111.592C249.2 112.017 249.599 112.542 249.898 113.167C250.184 113.792 250.334 114.492 250.334 115.291C250.334 116.079 250.184 116.791 249.898 117.416C249.599 118.041 249.2 118.565 248.701 118.99C248.203 119.415 247.617 119.753 246.944 119.978C246.271 120.202 245.574 120.327 244.826 120.34V123.839ZM239.417 115.316C239.417 115.879 239.505 116.378 239.691 116.816C239.878 117.253 240.14 117.616 240.464 117.916C240.801 118.215 241.187 118.44 241.636 118.603C242.084 118.765 242.57 118.853 243.094 118.865V111.767C242.57 111.78 242.084 111.867 241.636 112.042C241.187 112.205 240.788 112.442 240.464 112.742C240.128 113.042 239.878 113.404 239.691 113.842C239.505 114.267 239.417 114.766 239.417 115.316ZM244.826 118.853C245.349 118.84 245.835 118.753 246.284 118.59C246.733 118.428 247.131 118.203 247.455 117.903C247.792 117.603 248.041 117.241 248.228 116.803C248.415 116.366 248.502 115.866 248.502 115.304C248.502 114.754 248.415 114.267 248.228 113.829C248.041 113.392 247.779 113.029 247.455 112.73C247.119 112.43 246.733 112.192 246.284 112.03C245.835 111.867 245.349 111.767 244.826 111.755V118.853Z" fill="#E3AEB8"/>
<path d="M261.588 115.316C261.588 116.104 261.476 116.828 261.239 117.466C261.015 118.103 260.691 118.653 260.267 119.115C259.856 119.578 259.357 119.928 258.784 120.178C258.211 120.427 257.588 120.552 256.915 120.552C256.242 120.552 255.619 120.427 255.045 120.178C254.472 119.928 253.974 119.578 253.562 119.115C253.151 118.653 252.827 118.103 252.59 117.466C252.366 116.828 252.254 116.116 252.254 115.316C252.254 114.542 252.366 113.829 252.59 113.179C252.815 112.53 253.139 111.98 253.562 111.517C253.986 111.055 254.472 110.705 255.045 110.455C255.619 110.205 256.242 110.08 256.915 110.08C257.588 110.08 258.211 110.205 258.784 110.455C259.357 110.705 259.856 111.055 260.267 111.517C260.678 111.98 261.002 112.53 261.239 113.179C261.476 113.817 261.588 114.529 261.588 115.316ZM259.731 115.316C259.731 114.192 259.482 113.304 258.971 112.642C258.472 111.98 257.787 111.655 256.915 111.655C256.042 111.655 255.357 111.98 254.858 112.642C254.36 113.304 254.098 114.192 254.098 115.316C254.098 116.441 254.348 117.328 254.858 117.991C255.357 118.653 256.042 118.978 256.915 118.978C257.787 118.978 258.472 118.653 258.971 117.991C259.482 117.328 259.731 116.441 259.731 115.316Z" fill="#E3AEB8"/>
<path d="M271.853 120.29H270.071V115.879H265.485V120.29H263.703V110.318H265.485V114.379H270.071V110.318H271.853V120.29Z" fill="#E3AEB8"/>
<path d="M273.312 118.84H274.384C274.808 118.228 275.144 117.591 275.394 116.941C275.643 116.291 275.83 115.616 275.954 114.916C276.079 114.217 276.166 113.492 276.204 112.729C276.241 111.967 276.266 111.167 276.278 110.318H282.796V118.828H284.129V123.064H282.447V120.29H274.995V123.064H273.312V118.84ZM281.014 118.84V111.83H277.898C277.886 112.43 277.849 113.029 277.799 113.642C277.749 114.254 277.662 114.854 277.55 115.441C277.437 116.041 277.275 116.616 277.064 117.191C276.852 117.753 276.59 118.315 276.266 118.853H281.014V118.84Z" fill="#E3AEB8"/>
<path d="M52.6947 101.321C52.7071 101.108 52.7196 100.883 52.7196 100.621C52.7445 99.8834 52.7445 99.4335 52.7445 99.2836C52.7445 99.2711 52.7445 99.2586 52.7445 99.2461L52.6074 97.4341H54.5889C54.7883 97.4341 54.9627 97.3216 55.05 97.1467C56.0968 94.9098 57.8788 90.8734 60.5208 84.8126C63.3247 78.4144 65.4308 73.5657 66.9387 70.0042C68.9824 65.143 70.3159 61.9064 71.0013 60.1069H73.1323C74.1666 62.6937 75.2134 65.243 76.2353 67.7048C76.3475 67.9798 80.5222 77.9895 83.0021 83.9253C85.5319 89.9612 87.3638 94.285 88.5851 97.1342C88.6599 97.3216 88.8468 97.4341 89.0462 97.4341H91.0276L90.8906 99.2461C90.8906 99.2586 90.8906 99.2711 90.8906 99.2836C90.8906 99.7959 90.903 100.271 90.9155 100.746C90.9279 100.921 90.928 101.108 90.9529 101.296C90.1429 100.421 89.0586 99.8709 87.6878 99.6335C86.0927 99.3711 83.3511 99.2461 79.2885 99.2461H64.9448C61.3308 99.2461 59.2995 99.2711 58.7387 99.3086C56.0968 99.4835 54.0655 100.158 52.6947 101.321ZM70.8891 65.5179C70.6897 65.5179 70.5153 65.6304 70.428 65.8179C68.7706 69.4918 67.3499 72.7034 66.191 75.3777C64.708 78.8268 63.2998 82.2383 62.0037 85.5374C60.5955 89.1989 59.1998 92.9728 57.8788 96.7593C57.829 96.9092 57.8539 97.0842 57.9411 97.2217C58.0408 97.3591 58.1904 97.4341 58.3524 97.4341H83.5255C83.6875 97.4341 83.8495 97.3466 83.9492 97.2092C84.0489 97.0717 84.0614 96.8967 83.9991 96.7343L71.587 65.8304C71.5122 65.6429 71.3253 65.5179 71.1134 65.5179H70.8891Z" fill="#E3AEB8"/>
<path d="M130.859 99.246C130.846 99.246 130.797 99.246 130.797 99.246L128.055 99.396C126.697 95.522 125.538 92.3479 124.59 89.9486C123.955 88.3615 123.083 86.2996 121.998 83.8003C121.924 83.6128 121.737 83.5004 121.537 83.5004H106.595C106.384 83.5004 106.209 83.6253 106.122 83.8128C103.854 89.4862 102.57 92.7728 102.296 93.5601C101.735 95.0596 101.1 97.0091 100.402 99.3834L98.6322 99.2335C98.6198 99.2335 98.6073 99.2335 98.5948 99.2335C98.5824 99.2335 98.5699 99.2335 98.5574 99.2335L97.3486 99.3335L115.219 59.1946H115.904L133.09 99.396L130.859 99.246ZM114.122 65.9802C113.923 65.9802 113.736 66.1052 113.661 66.2926L107.231 81.3259C107.169 81.4884 107.181 81.6634 107.268 81.8008C107.368 81.9383 107.518 82.0258 107.692 82.0258H120.615C120.79 82.0258 120.939 81.9383 121.039 81.8008C121.126 81.6634 121.151 81.4759 121.076 81.3259L114.584 66.2926C114.509 66.1052 114.322 65.9802 114.122 65.9802Z" fill="#E3AEB8"/>
<path d="M157.1 65.8304C157.025 65.6429 156.838 65.5054 156.627 65.5054H156.103C155.904 65.5054 155.717 65.6179 155.642 65.8054C152.863 72.0911 150.283 78.2644 147.966 84.1378C145.71 89.8612 143.816 94.9973 142.345 99.4335L140.576 99.2461C140.563 99.2461 140.538 99.2461 140.526 99.2461C140.501 99.2461 140.488 99.2461 140.476 99.2461L139.292 99.3836C140.139 97.6465 141.635 94.3849 143.766 89.6238C145.81 85.0125 148.302 79.2641 151.181 72.5535C153.897 66.2177 155.592 62.0439 156.253 60.1069H158.309C159.555 63.1811 160.789 66.2052 162.01 69.1169C163.992 73.9406 166.559 80.0889 169.649 87.3994C172.204 93.4852 173.924 97.4341 174.858 99.3836C174.858 99.3836 172.889 99.2586 172.877 99.2586C172.865 99.2586 172.852 99.2586 172.84 99.2586L170.335 99.4585L157.1 65.8304Z" fill="#E3AEB8"/>
<path d="M182.36 99.2962V60.1321L184.005 60.2695C184.018 60.2695 184.068 60.2695 184.08 60.2695L186.124 60.1321V77.8147C186.124 78.0896 186.348 78.327 186.635 78.327H191.981C197.576 78.327 201.041 79.0144 203.147 80.3765C205.178 81.6886 206.213 84.0754 206.213 87.4995C206.213 90.7986 205.203 93.3854 203.197 95.1974C201.315 96.8969 198.661 98.184 194.461 99.0213C193.9 99.1338 192.716 99.2088 190.934 99.2463C189.252 99.2837 188.068 99.3087 187.744 99.3087H182.36V99.2962ZM186.622 79.5517C186.348 79.5517 186.111 79.7766 186.111 80.0641V97.3468C186.111 97.6217 186.336 97.8591 186.622 97.8591H192.442C192.455 97.8591 192.479 97.8591 192.492 97.8591C195.508 97.5717 197.9 96.5095 199.633 94.6975C201.365 92.8855 202.237 90.5611 202.237 87.7994C202.237 85.5625 201.689 83.738 200.605 82.3509C199.383 80.7889 197.988 79.9266 196.43 79.7766C194.972 79.6392 193.875 79.5642 193.065 79.5642H186.622V79.5517Z" fill="#E3AEB8"/>
<path d="M253.565 99.4708C250.761 99.4708 247.97 99.4459 244.455 99.3959C240.717 99.3459 237.115 99.2959 233.663 99.2334H233.651C228.579 99.2334 224.454 99.2584 221.388 99.3084C218.509 99.3584 216.229 99.4084 213.749 99.4583V59.9568L215.394 60.0942C215.406 60.0942 215.456 60.0942 215.456 60.0942L217.5 59.9568V96.8591C217.5 97.134 217.724 97.3714 218.011 97.3714H231.071C231.345 97.3714 231.781 97.1465 231.781 96.8591V59.9568L233.626 60.0942C233.638 60.0942 233.651 60.0942 233.663 60.0942C234.511 60.0942 234.997 60.0693 235.545 60.0068V96.8591C235.545 97.134 235.969 97.3714 236.255 97.3714H249.315C249.59 97.3714 249.826 97.1465 249.826 96.8591V59.9568L251.87 60.0942C251.883 60.0942 251.932 60.0942 251.932 60.0942L253.577 59.9568V99.4708H253.565Z" fill="#E3AEB8"/>
<path d="M263.633 99.2454V60.0938H283.036L282.911 61.2309C282.911 61.2684 282.911 61.3059 282.911 61.3309L283.024 62.3681C282.151 62.2057 281.391 62.0807 280.78 61.9932C280.008 61.8933 279.185 61.8433 278.301 61.8433H267.895C267.621 61.8433 267.384 62.0682 267.384 62.3556V77.1515C267.384 77.4265 267.608 77.6639 267.895 77.6639H277.004C277.777 77.6639 278.787 77.6264 280.008 77.5514C280.731 77.5014 281.291 77.4764 281.665 77.4514L281.553 78.4012C281.553 78.4387 281.553 78.4762 281.553 78.5136L281.665 79.5884C281.042 79.5634 280.27 79.5134 279.335 79.4259C278.026 79.3009 277.279 79.2509 276.992 79.2509H267.882C267.608 79.2509 267.371 79.4759 267.371 79.7633V96.9835C267.371 97.2585 267.596 97.4959 267.882 97.4959C269.166 97.4959 271.235 97.4584 274.039 97.3834C275.87 97.3334 278.338 97.271 278.525 97.271C279.659 97.271 280.469 97.246 280.992 97.1835C281.441 97.1335 282.239 97.021 283.36 96.8461L283.248 97.9583C283.248 97.9958 283.248 98.0208 283.248 98.0582L283.373 99.2704H263.633V99.2454Z" fill="#E3AEB8"/>
<path d="M57.9471 161.704L56.4766 161.079C55.4048 160.617 54.2708 160.129 53.0869 159.567C52.1772 159.155 51.2176 158.705 50.258 158.242C50.2082 158.205 50.1708 158.192 50.121 158.18C49.9839 158.117 49.8717 158.042 49.7346 157.993C43.5286 154.931 36.7119 151.044 31.9639 147.508V147.495C31.777 147.37 31.59 147.245 31.4031 147.071C31.266 146.983 31.1165 146.871 30.9794 146.771C30.8922 146.708 30.8049 146.633 30.7052 146.571C30.6055 146.483 30.5058 146.396 30.3937 146.321C30.0697 146.071 29.7457 145.808 29.4216 145.533C29.3593 145.471 29.2721 145.408 29.1973 145.346C28.973 145.159 28.7612 144.971 28.5244 144.784C28.3001 144.596 28.0882 144.421 27.8639 144.221C27.7767 144.171 27.6894 144.096 27.6147 144.021C26.7049 143.222 25.7703 142.384 24.8481 141.522C24.711 141.397 24.5989 141.285 24.4742 141.147C24.4244 141.11 24.3496 141.047 24.2998 140.997C24.1627 140.872 24.0505 140.76 23.9259 140.622C23.9135 140.622 23.9135 140.622 23.9135 140.61C19.3898 136.224 15.4892 131.45 12.2864 126.364C11.9624 125.851 11.6384 125.339 11.3518 124.814C11.2272 124.639 11.1275 124.477 11.0527 124.302C10.7287 123.752 10.4296 123.202 10.1181 122.652C9.79405 122.102 9.50743 121.565 9.2208 121.015C8.66001 119.941 8.174 118.928 7.72537 117.941C7.47613 117.391 7.23935 116.866 7.0275 116.342C6.80318 115.817 6.60379 115.267 6.4044 114.742C6.21747 114.217 6.03054 113.667 5.84361 113.13C5.69407 112.718 5.56945 112.33 5.46975 111.943C5.45729 111.893 5.43236 111.843 5.43236 111.805C5.07097 110.581 4.82173 109.393 4.64726 108.231C4.39803 106.619 4.28587 105.032 4.39802 103.508C4.39802 103.37 4.41048 103.233 4.41048 103.095C4.42295 102.858 4.44787 102.633 4.47279 102.42C4.47279 102.333 4.4728 102.233 4.48526 102.145C4.48526 101.958 4.49772 101.771 4.53511 101.596C4.57249 101.271 4.62234 100.946 4.67219 100.646C4.72204 100.396 4.79681 100.134 4.84666 99.8836C4.84666 99.8711 4.84665 99.8711 4.85912 99.8461C4.85912 99.8086 4.87158 99.7836 4.87158 99.7462C4.88404 99.6837 4.88404 99.6087 4.92142 99.5587C4.92142 99.5462 4.92142 99.5462 4.92142 99.5212V99.4712C4.93389 99.3713 4.97128 99.2838 4.98374 99.1963C5.02112 99.0213 5.07097 98.8339 5.12082 98.6714C5.13328 98.5465 5.17066 98.4465 5.20805 98.334C5.2579 98.1466 5.32021 97.9716 5.39498 97.7842C5.58191 97.1844 5.81869 96.597 6.06793 96.0347C6.06793 96.0347 6.08039 96.0347 6.08039 96.0222C6.1427 95.8347 6.25486 95.6598 6.32963 95.4973C6.41686 95.3099 6.51656 95.1224 6.60379 94.9475C6.64118 94.885 6.6661 94.8225 6.72841 94.76C6.74087 94.76 6.74087 94.76 6.74087 94.7475C6.75334 94.71 6.77826 94.6851 6.79072 94.6476C6.84057 94.5601 6.91534 94.4601 6.97765 94.3601C7.50105 93.6103 8.48555 92.2982 9.93114 91.136C10.9032 90.3238 12.0497 89.5865 13.3956 89.1116C13.6448 89.0116 13.919 88.9241 14.1931 88.8367H14.2056V88.8492C12.598 91.2235 11.9998 94.2227 11.8129 96.547C11.7506 97.2593 11.7132 97.9217 11.7132 98.4715V98.484C11.7132 98.9214 11.7132 99.2963 11.7257 99.5712C11.7381 99.9836 11.763 100.196 11.763 100.196C11.8253 100.808 11.9126 101.408 12.0123 102.021C12.0621 102.395 12.1244 102.77 12.1992 103.145C12.2989 103.658 12.3986 104.145 12.5232 104.645C12.6478 105.12 12.7725 105.62 12.9095 106.107C13.0342 106.582 13.1837 107.057 13.3457 107.556C13.7819 108.931 14.3177 110.381 14.9533 111.893C17.7323 118.528 21.4834 124.677 26.0694 130.25C26.2189 130.438 26.3809 130.625 26.5429 130.813C26.9292 131.287 27.353 131.762 27.7642 132.237C29.4964 134.212 31.3532 136.099 33.3098 137.848C33.4344 137.973 33.559 138.073 33.6836 138.173C33.8581 138.348 34.0076 138.473 34.1697 138.635C36.201 140.435 38.2198 142.072 40.2386 143.534C40.7122 143.871 41.1857 144.209 41.6593 144.559C42.0955 144.859 42.5441 145.159 42.9927 145.446C43.4538 145.746 43.9024 146.058 44.3635 146.333C48.0398 148.633 51.741 150.382 55.4796 151.632L55.9532 151.782L56.0155 152.157L56.0778 152.519L56.0902 152.569L57.6978 161.004L57.7103 161.042L57.9471 161.704Z" fill="#E3AEB8"/>
</svg>
