<svg width="315" height="202" viewBox="0 0 315 202" fill="none" xmlns="http://www.w3.org/2000/svg">
<g clip-path="url(#clip0_144_173)">
<path d="M165 106.927C165.901 103.39 164.715 101.501 162.891 97.0631C161.024 92.5595 159.64 88.1878 157.597 83.201C157.311 83.4206 156.762 84.0358 156.411 84.3653C152.786 87.8143 149.249 91.3513 145.448 94.5587C143.779 95.9866 141.582 96.9093 139.495 97.6782C137.122 98.5569 134.969 97.5683 133.366 95.7889C132.772 95.1298 132.707 93.9216 132.575 92.955C132.465 92.252 132.641 91.505 132.707 90.3627C131.784 90.7801 131.257 91.1975 130.707 91.2414C129.609 91.3073 128.269 91.527 127.478 90.9998C126.775 90.5384 126.336 89.1324 126.402 88.1658C126.533 86.2765 125.237 86.2765 124.095 86.0129C121.766 85.5076 120.624 84.3213 120.668 82.1465C120.69 81.6192 121.129 81.07 121.437 80.5867C121.678 80.1913 122.008 79.8837 122.315 79.5322C121.876 79.2027 121.481 78.7194 120.975 78.5656C120.031 78.28 119.042 78.258 118.076 78.0384C116.45 77.6649 115.681 76.5445 115.945 74.9628C116.208 73.425 116.626 71.8872 117.197 70.4373C118.669 66.7246 118.581 63.4952 115.571 60.3537C108.322 52.7526 107.091 43.3282 108.212 33.3984C108.629 29.6638 110.716 26.5442 112.693 23.4467C117.416 16.1312 123.48 10.2217 131.784 7.25591C144.767 2.62056 156.674 5.30072 167.307 13.7146C170.273 16.0653 172.601 19.2287 175.194 22.0407" stroke="#3C3C3B" stroke-miterlimit="10" stroke-linecap="round" stroke-linejoin="round"/>
<path d="M127.76 157.564C131.626 156.158 136.855 154.467 140.721 153.061C145.972 151.127 150.212 147.678 154.232 143.944C159.394 139.111 163.876 133.772 167.061 127.336C168.577 124.26 171.082 121.69 173.169 118.9C174.025 117.735 174.816 116.461 175.849 115.473C177.98 113.452 180.023 111.167 182.527 109.739C188.239 106.466 195.313 107.784 200.519 112.683C201.991 113.583 204.364 115.846 205.396 116.945M148.344 187.705C140.831 179.467 134.109 170.657 128.726 160.86M169.082 135.2C168.929 140.077 168.907 144.976 168.423 149.831C167.786 156.268 165.414 162.244 162.909 168.131C162.514 169.054 162.118 169.976 161.701 170.899M175.234 22.1505C177.914 25.27 178.529 28.7411 179.056 32.4537C179.913 38.539 179.276 44.6243 177.804 50.4679C175.3 60.4635 177.562 69.2509 183.054 77.6649C189.096 86.9136 194.873 96.3381 200.629 105.763C202.387 108.618 203.749 111.738 205.155 114.792C205.638 115.846 205.396 116.505 205.594 118.241C205.616 118.416 205.748 119.119 205.902 119.471C208.033 124.128 208.077 128.807 206.187 133.641C202.277 143.658 198.257 153.632 194.5 163.715C190.084 175.6 185.91 187.573 181.648 199.502C181.341 200.359 181.055 201.238 180.396 202.028" stroke="#3C3C3B" stroke-miterlimit="10" stroke-linecap="round"/>
<path d="M134.316 129.049C134.535 128.698 134.755 128.324 134.975 127.973C136.644 125.314 138.27 122.656 139.984 120.02C141.06 118.372 142.246 116.791 143.323 115.143C144.399 113.517 145.3 111.804 144.685 109.387C141.873 111.936 139.39 114.396 136.688 116.571C134.03 118.702 131.152 120.569 128.362 122.546C128.252 122.415 128.143 122.305 128.033 122.173C128.45 121.69 129.043 120.899 129.571 120.613C131.614 118.614 132.361 117.867 133.745 116.11C135.546 113.803 136.82 112.023 138.248 110.42C138.534 110.376 138.863 110.09 138.995 109.827C140.665 106.773 144.355 105.499 147.936 106.465C149.694 106.949 151.561 106.905 153.406 107.037M112.193 146.382C111.337 141.22 107.888 136.123 111.886 130.828C112.435 130.082 112.984 129.291 113.643 128.654C118.806 123.601 122.145 117.362 125.506 111.101C126.187 109.805 127.418 108.53 128.714 107.893C132.624 106.004 136.578 104.005 140.731 102.885C143.323 102.182 146.354 102.731 149.101 103.214C150.924 103.544 152.615 104.708 154.329 105.543C154.702 105.719 154.944 106.158 155.252 106.465C154.878 106.795 154.549 107.366 154.153 107.41C152.506 107.608 150.858 107.652 148.947 107.762C150.528 109.08 152.022 110.288 153.692 111.672C150.397 114.001 148.2 111.804 145.783 110.486C145.651 111.101 145.542 111.584 145.432 112.089C145.586 112.023 145.717 111.958 145.871 111.914C146.376 112.77 147.211 113.583 147.299 114.462C147.431 116.11 147.189 117.801 146.948 119.449C146.75 120.943 146.376 122.415 146.003 123.886C145.893 124.282 145.542 124.919 145.278 124.919C144.861 124.919 144.267 124.633 144.004 124.282C142.84 122.766 142.971 121.031 143.345 119.273C143.564 118.219 143.762 117.142 143.96 116.088C143.784 116.044 143.586 115.978 143.411 115.934" stroke="#3C3C3B" stroke-miterlimit="10" stroke-linecap="round" stroke-linejoin="round"/>
<path d="M128.737 156.817C130.033 155.411 132.362 152.446 133.724 151.106C142.621 142.45 149.124 132.103 155.319 121.47C157.823 117.164 162.722 113.759 164.172 108.86C164.414 108.223 164.875 107.169 165.029 106.444M128.979 161.321C127.595 158.992 121.663 145.613 122.256 142.34L134.295 129.049" stroke="#3C3C3B" stroke-miterlimit="10" stroke-linecap="round"/>
<path d="M112.193 146.382C116.829 164.528 122.804 185.201 131.46 202.358" stroke="#3C3C3B" stroke-miterlimit="10" stroke-linecap="round"/>
<path d="M148.354 187.705C150.199 190.165 153.868 194.01 155.735 196.492C153.648 191.11 159.843 175.82 161.71 170.921" stroke="#3C3C3B" stroke-miterlimit="10" stroke-linecap="round" stroke-linejoin="round"/>
</g>
<defs>
<clipPath id="clip0_144_173">
<rect width="315" height="202" fill="white"/>
</clipPath>
</defs>
</svg>
