<svg width="176" height="38" viewBox="0 0 176 38" fill="none" xmlns="http://www.w3.org/2000/svg">
<path d="M14.6914 37.4195C11.0782 37.4149 7.61425 35.9867 5.05933 33.4481C2.50441 30.9095 1.06706 27.4676 1.0625 23.8775V21.0292C1.06629 17.5 2.45482 14.1113 4.93308 11.5831C7.41134 9.05488 10.784 7.58643 14.3346 7.4897L16.5023 5.34557C19.4442 2.43043 23.42 0.779102 27.5747 0.746826H33.2659C36.8795 0.750708 40.344 2.17862 42.8995 4.71732C45.4549 7.25602 46.8926 10.6982 46.8972 14.2888V17.137C46.8928 20.6661 45.504 24.0545 43.0259 26.5825C40.5478 29.1106 37.1754 30.5792 33.6251 30.6766L31.4352 32.85C28.5011 35.7522 24.5372 37.3931 20.3973 37.4195H14.6914Z" stroke="#3C3C3B" stroke-width="0.5" stroke-miterlimit="10"/>
<path d="M14.6906 33.1435C12.2194 33.1371 9.8512 32.1588 8.10375 30.4225C6.35631 28.6862 5.37173 26.3331 5.36523 23.8776V21.0293C5.37173 18.5738 6.35631 16.2207 8.10375 14.4844C9.8512 12.7481 12.2194 11.7698 14.6906 11.7634C14.794 11.7634 14.8973 11.7634 15.0056 11.7634H16.1227L19.5305 8.37727C21.6644 6.25322 24.5536 5.04838 27.5739 5.02295H33.2651C35.7351 5.03134 38.1014 6.01049 39.8472 7.74659C41.5931 9.48269 42.5767 11.8347 42.5831 14.2889V17.1371C42.5805 19.5938 41.5972 21.9492 39.8489 23.6863C38.1006 25.4234 35.7302 26.4005 33.2578 26.4031C33.1569 26.4031 33.0511 26.4031 32.9453 26.4031H31.8282L28.3982 29.8088C26.2707 31.9187 23.395 33.1152 20.3892 33.1411L14.6906 33.1435Z" stroke="#3C3C3B" stroke-width="0.5" stroke-miterlimit="10"/>
<path d="M14.6904 28.8649C13.3595 28.8636 12.0836 28.3377 11.1425 27.4027C10.2015 26.4676 9.6722 25.1998 9.6709 23.8774V21.0292C9.6722 19.7066 10.2014 18.4385 11.1424 17.5031C12.0833 16.5676 13.3593 16.0412 14.6904 16.0393H17.9063L22.5813 11.4063C23.9037 10.082 25.6963 9.32614 27.5737 9.30127H33.2649C34.596 9.30256 35.8722 9.82837 36.8136 10.7633C37.7551 11.6983 38.2849 12.9662 38.2868 14.2887V17.137C38.2849 18.4619 37.7535 19.7318 36.8094 20.6676C35.8654 21.6033 34.586 22.1282 33.2526 22.1269H30.0342C28.5456 23.606 25.4724 26.6621 25.3592 26.7721C24.0385 28.0918 22.2495 28.8441 20.3766 28.8673L14.6904 28.8649Z" stroke="#3C3C3B" stroke-width="0.5" stroke-miterlimit="10"/>
<path d="M33.2533 13.5776H27.5744C26.8322 13.6039 26.1281 13.9109 25.606 14.4358L20.1584 19.8462C20.0017 20.001 19.8148 20.1223 19.6091 20.2026C19.4035 20.2829 19.1834 20.3205 18.9626 20.3132H14.6887C14.4988 20.3132 14.3166 20.3881 14.1824 20.5216C14.0481 20.655 13.9727 20.8359 13.9727 21.0246V23.8778C13.9727 24.0665 14.0481 24.2474 14.1824 24.3808C14.3166 24.5143 14.4988 24.5892 14.6887 24.5892H20.3823C21.1249 24.5642 21.8294 24.257 22.3507 23.7311L27.7984 18.3206C27.9549 18.1664 28.1415 18.0454 28.3467 17.9651C28.5518 17.8849 28.7713 17.8469 28.9917 17.8537H33.2656C33.4547 17.8511 33.635 17.7743 33.7673 17.6401C33.8996 17.5059 33.9731 17.3252 33.9718 17.1373V14.2891C33.9718 14.1955 33.9532 14.1027 33.9171 14.0163C33.8809 13.9298 33.828 13.8512 33.7612 13.7852C33.6945 13.7191 33.6153 13.6667 33.5281 13.6311C33.4409 13.5955 33.3476 13.5773 33.2533 13.5776Z" stroke="#3C3C3B" stroke-width="0.5" stroke-miterlimit="10"/>
<path d="M147.253 7.35791H143.011V31.2342H147.253V7.35791Z" fill="#3C3C3B"/>
<path d="M101.861 19.296C101.861 12.0006 96.8982 7.07178 89.5585 7.07178C82.2187 7.07178 77.2559 12.0006 77.2559 19.296C77.2559 26.5914 82.2187 31.5202 89.5585 31.5202C96.8982 31.5202 101.861 26.5914 101.861 19.296ZM89.5585 27.5449C84.726 27.5449 81.4978 24.3201 81.4978 19.296C81.4978 14.2718 84.726 11.0446 89.5585 11.0446C94.391 11.0446 97.6167 14.2718 97.6167 19.296C97.6167 24.3201 94.391 27.5449 89.5585 27.5449Z" fill="#3C3C3B"/>
<path d="M163.697 7.07178C156.357 7.07178 151.395 12.0006 151.395 19.296C151.395 26.5914 156.357 31.5202 163.697 31.5202C167.105 31.5202 169.863 30.3711 171.721 28.3664H171.778L172.693 31.2464H176V19.296C176 12.0006 171.037 7.07178 163.697 7.07178ZM163.697 27.5449C158.865 27.5449 155.639 24.3152 155.639 19.296C155.639 14.2767 158.865 11.0446 163.697 11.0446C168.53 11.0446 171.76 14.2718 171.76 19.296C171.76 24.3201 168.456 27.5449 163.697 27.5449Z" fill="#3C3C3B"/>
<path d="M129.575 7.07179C126.194 7.07179 123.773 8.85653 122.715 10.4359H122.686C121.293 8.25754 118.685 7.07179 115.634 7.07179C113.353 7.06773 111.164 7.96281 109.547 9.56064H109.51L108.808 7.36028H105.504V31.2464H109.756V14.509C109.756 12.4651 111.746 11.0447 114.738 11.0447C117.89 11.0447 119.721 12.5971 119.721 15.13V31.2464H123.963V14.7804C123.963 12.5556 125.722 11.0447 128.844 11.0447C131.967 11.0447 133.827 12.6509 133.827 15.13V31.2464H138.069V14.8659C138.071 9.96159 134.531 7.07179 129.575 7.07179Z" fill="#3C3C3B"/>
<path d="M68.8515 18.1249L63.0914 16.5773C61.8906 16.2522 61.214 15.949 60.7416 15.5652C60.5167 15.3842 60.3374 15.1536 60.2178 14.8918C60.0982 14.63 60.0416 14.344 60.0526 14.0567C60.0526 13.2817 60.3922 12.5751 61.2115 12.0006C62.1342 11.3527 63.3276 11.0446 65.3944 11.0446C67.946 11.0446 70.4336 11.8979 72.6087 13.1839L73.8956 9.48728C71.7893 8.04972 68.6645 7.06934 65.4436 7.06934C61.8685 7.06934 60.0748 7.69033 58.3081 9.00076C57.5135 9.59408 56.8674 10.3616 56.4201 11.2437C55.9728 12.1257 55.7365 13.0984 55.7295 14.086C55.7295 15.8292 56.1625 17.0736 57.0557 18.1176C57.8824 19.0808 59.1545 19.8583 61.3813 20.4744L67.3382 22.1271C68.3963 22.4229 69.0409 22.6601 69.4961 23.0097C69.7668 23.2072 69.9836 23.4687 70.1267 23.7706C70.2698 24.0725 70.3347 24.4051 70.3155 24.7382C70.3155 25.611 69.7865 26.3225 69.0385 26.7748C68.2905 27.2271 66.7699 27.5571 64.7645 27.5571C61.9079 27.5571 58.6354 26.4031 56.5193 25.1807L55.2275 28.8847C56.6005 29.8626 60.6899 31.5178 64.7818 31.5178C68.0272 31.5178 70.3376 30.9628 72.0944 29.5081C73.7061 28.1732 74.6214 26.5083 74.6214 24.2688C74.6116 21.2665 72.7686 19.186 68.8515 18.1249Z" fill="#3C3C3B"/>
</svg>
