<svg width="315" height="202" viewBox="0 0 315 202" fill="none" xmlns="http://www.w3.org/2000/svg">
<path d="M125.138 22.8195C125.138 20.2326 125.138 17.6244 125.138 15.5506C132.343 14.2037 139.291 13.0706 146.154 11.5527C152.973 10.0347 160.029 9.32921 166.549 6.18646C166.806 6.61405 167.127 7.08439 167.383 7.57611C169.2 11.1464 171.018 14.6954 172.771 18.2871C177.089 27.1381 181.857 35.8181 184.273 45.4601C185.064 48.667 185.47 51.9594 185.919 55.2518" stroke="#3C3C3B" stroke-width="1.37835" stroke-miterlimit="10"/>
<path d="M165.955 6.46426C167.687 5.33116 165.485 3.89875 163.775 4.00565C162.15 4.09116 160.504 4.11254 158.879 4.24082C149.557 4.96771 140.557 7.31943 131.556 9.60701C129.611 10.0987 127.537 10.5905 125.891 11.7236C125.142 12.2367 124.351 14.4173 125.313 15.358" stroke="#3C3C3B" stroke-width="1.37835" stroke-miterlimit="10"/>
<path d="M169.441 99.1862C170.852 98.6303 174.187 97.6255 175.341 96.6848C176.09 96.0648 176.752 94.8035 176.688 93.8842C176.646 93.2642 175.341 92.4945 174.465 92.2379C173.161 91.8531 170.253 91.8745 168.714 91.7035" stroke="#3C3C3B" stroke-width="1.37835" stroke-miterlimit="10"/>
<path d="M179.113 142.864C178.493 140.94 176.27 134.441 175.628 132.474C176.783 132.238 177.724 132.089 178.643 131.854C181.208 131.148 183.817 130.443 185.506 128.176C186.104 127.364 186.339 126.295 186.746 125.354C185.848 125.034 184.95 124.521 184.031 124.456C181.786 124.328 179.52 124.414 177.275 124.414C177.275 124.264 177.253 124.093 177.253 123.943C178.002 123.943 178.75 123.922 179.498 123.943C181.914 123.986 184.33 124.114 186.746 124.05C188.948 124.007 190.765 123.024 192.069 121.207C193.309 119.475 192.839 118 190.744 117.53C185.826 116.418 179.562 114.9 174.624 113.852C175.03 111.244 176.462 111.607 179.113 111.415C180.246 111.33 181.38 111.394 182.491 111.18C184.415 110.795 186.339 110.41 188.178 109.747C189.439 109.299 190.316 108.187 190.124 106.69C189.931 105.194 188.67 104.723 187.43 104.531C185.42 104.21 183.389 104.168 181.401 103.847C180.61 103.719 179.755 103.27 179.156 102.735C178.28 101.923 177.488 101.688 176.27 101.88C174.175 102.201 172.037 102.243 169.984 102.414" stroke="#3C3C3B" stroke-width="1.37835" stroke-miterlimit="10"/>
<path d="M151.297 117.145C150.014 118.705 152.666 120.907 152.217 124.2C152.046 125.483 151.832 126.445 151.426 127.834C151.169 129.416 151.019 130.421 151.19 132.281C151.233 132.666 151.661 134.034 152.024 134.312C152.259 134.505 153.093 134.291 153.35 133.992C154.354 132.88 155.466 131.747 156.15 130.421C158.181 126.423 160.063 122.318 161.966 118.235C163.034 115.947 163.911 113.553 165.172 111.372C166.797 108.55 170.41 105.75 173.382 103.74C178.577 101.816 177.145 107.353 175.071 112.078C174.387 114.152 174.002 116.632 173.446 118.748C173.061 120.202 172.591 121.805 172.869 123.195C173.767 127.77 174.173 132.345 173.788 136.963C173.532 139.978 173.403 141.538 173.04 144.553C172.976 145.045 172.698 146.862 172.463 147.396" stroke="#3C3C3B" stroke-width="1.37835" stroke-miterlimit="10"/>
<path d="M158.51 99.5281C157.954 102.393 156.158 105.514 156.073 108.4C154.448 111.223 153.315 114.9 151.177 117.273" stroke="#3C3C3B" stroke-width="1.37835" stroke-miterlimit="10"/>
<path d="M165.217 100.49C164.212 101.132 158.996 103.505 157.307 103.676" stroke="#3C3C3B" stroke-width="1.37835" stroke-miterlimit="10"/>
<path d="M165.644 103.376C164.639 104.018 158.011 107.952 156.322 108.101" stroke="#3C3C3B" stroke-width="1.37835" stroke-miterlimit="10"/>
<path d="M162.087 171.277C160.185 175.767 158.923 179.123 156.593 183.506C154.134 188.124 151.847 192.827 149.474 197.488" stroke="#3C3C3B" stroke-width="1.37835" stroke-miterlimit="10"/>
<path d="M172.572 147.118C170.883 150.881 168.146 157.102 166.564 160.716C165.004 164.307 163.486 167.942 161.968 171.533" stroke="#3C3C3B" stroke-width="1.37835" stroke-miterlimit="10"/>
<path d="M173.029 156.269C171.063 155.649 170.827 153.425 172.067 151.715" stroke="#3C3C3B" stroke-width="1.37835" stroke-miterlimit="10"/>
<path d="M181.471 151.715C179.012 149.192 174.373 148.978 172.021 151.779" stroke="#3C3C3B" stroke-width="1.37835" stroke-miterlimit="10"/>
<path d="M172.84 156.183C174.144 156.761 175.256 156.718 177.287 156.098C179.211 155.435 181.434 154.687 181.563 152.314C181.712 149.727 179.809 144.916 179.083 142.736" stroke="#3C3C3B" stroke-width="1.37835" stroke-miterlimit="10"/>
<path d="M178.197 138.011C188.609 136.728 195.407 140.085 197.503 141.325C200.902 143.356 201.65 147.247 199.512 150.582C197.738 153.34 195.557 155.777 192.671 157.487C184.846 162.148 176.294 163.602 167.358 163.303C167.144 163.303 166.952 163.196 166.46 163.067" stroke="#3C3C3B" stroke-width="1.37835" stroke-miterlimit="10"/>
<path d="M163.068 169.545C170.957 170.123 180.45 168.883 187.847 166.232C193.598 164.158 198.537 160.887 201.872 155.606C205.378 150.026 203.881 143.227 198.301 140.042C196.099 138.781 187.804 136.151 177.371 138.011" stroke="#3C3C3B" stroke-width="1.37835" stroke-miterlimit="10"/>
<path d="M160.988 91.9172C159.192 92.58 153.569 93.4993 152.308 94.4186C151.196 95.231 150.063 96.1075 149.251 97.2193C147.198 100.041 145.445 103.077 143.371 105.878C140.293 110.025 138.326 114.943 134.52 118.556C132.468 120.523 131.869 122.832 132.083 125.59C132.724 134.077 133.451 142.543 132.789 151.074C132.575 153.639 132.618 156.247 132.81 158.834C133.195 164.436 132.254 169.609 129.133 174.462C123.959 182.48 118.486 190.24 112.243 197.467" stroke="#3C3C3B" stroke-width="1.37835" stroke-miterlimit="10"/>
<path d="M167.255 108.101C167.105 107.888 165.993 103.676 165.972 103.59C165.865 103.163 165.758 102.714 165.673 102.265C163.834 93.9696 159.9 87.3207 151.605 83.9C148.698 82.7028 145.918 81.1635 143.182 79.6241C137.367 76.3317 132.086 72.4835 129.349 66.0269C126.869 60.169 126.036 53.9904 125.779 47.7263C125.458 39.5167 125.394 30.9222 125.138 22.7126" stroke="#3C3C3B" stroke-width="1.37835" stroke-miterlimit="10"/>
<path d="M185.555 50.9331C185.662 52.0021 186.047 55.6152 186.004 56.2565C186.239 59.3138 185.085 62.2 183.866 64.9579C181.365 70.6448 177.645 75.4765 173.519 80.073C171.787 81.9971 170.248 84.3061 169.264 86.7006C167.469 91.0619 169.371 101.046 170.675 105.536" stroke="#3C3C3B" stroke-width="1.37835" stroke-miterlimit="10"/>
</svg>
