<svg width="315" height="202" viewBox="0 0 315 202" fill="none" xmlns="http://www.w3.org/2000/svg">
<g clip-path="url(#clip0_173_312)">
<path d="M18.002 185.507C22.718 185.507 27.434 185.507 32.1501 185.507" stroke="#3C3C3B" stroke-miterlimit="10" stroke-linecap="round" stroke-linejoin="round"/>
<path d="M143.962 99.9908C142.298 100.56 140.955 101.495 139.159 101.553C135.903 101.655 133.625 103.626 131.245 105.451C130.763 105.817 130.252 106.123 129.215 106.138C129.858 103.758 130.325 101.319 131.187 99.0271C132.515 95.4499 131.99 92.2962 130.019 89.084C128.675 86.8939 125.507 79.4329 124.31 76.7756" stroke="#3C3C3B" stroke-miterlimit="10" stroke-linecap="round" stroke-linejoin="round"/>
<path d="M189.926 89.8431C191.167 88.3538 195.343 87.7114 197.781 89.2445C201.343 90.8652 202.409 94.092 202.468 97.6546C202.672 109.978 199.635 121.264 191.444 130.813C189.386 133.207 187.429 135.719 185.166 137.909C181.092 141.851 176.508 142.099 172.361 138.245C167.441 133.66 162.914 128.681 160.447 122.184C159.162 118.782 157.424 115.555 155.877 112.255C154.241 108.766 149.014 101.699 145.35 100.107" stroke="#3C3C3B" stroke-miterlimit="10" stroke-linecap="round" stroke-linejoin="round"/>
<path d="M177.793 71.7091C179.326 78.7467 182.757 84.6453 188.452 89.0986C189.371 89.814 190.685 90.0184 191.824 90.4711" stroke="#3C3C3B" stroke-miterlimit="10" stroke-linecap="round" stroke-linejoin="round"/>
<path d="M148.3 72.0449C150.081 75.0819 152.519 77.2574 155.79 78.5569C156.301 78.7613 156.666 79.8564 156.739 80.5718C157.002 83.2145 157.089 85.8864 157.265 88.5438C157.484 91.8873 158.958 92.9824 162.214 92.2378C170.172 90.4419 177.602 79.8563 177.441 71.6945" stroke="#3C3C3B" stroke-miterlimit="10" stroke-linecap="round" stroke-linejoin="round"/>
<path d="M134.807 57.9406C135.362 63.0216 133.654 67.1098 133.683 73.2276C133.683 73.8408 135.406 74.3373 136.019 74.2789C137.888 74.0744 138.998 73.2422 140.195 71.6799" stroke="#3C3C3B" stroke-miterlimit="10" stroke-linecap="round" stroke-linejoin="round"/>
<path d="M156.154 48.5084C155.38 48.4646 155.03 49.5451 155.278 50.2897C155.745 51.6768 156.125 52.7865 156.417 53.9107C157.439 57.7215 157.235 61.3571 154.387 64.3941C151.555 67.431 148.065 68.6721 144.021 67.3142C139.787 65.8979 137.334 62.9048 136.823 58.4077C136.75 57.7799 136.75 55.9694 136.662 54.6846" stroke="#3C3C3B" stroke-miterlimit="10" stroke-linecap="round" stroke-linejoin="round"/>
<path d="M151.248 21.2488C156.563 25.3516 162.549 28.7974 166.258 34.5793C168.273 37.7184 169.382 41.4417 170.871 44.9166C171.222 45.7197 171.236 46.7417 171.762 47.3696C176.084 52.5674 178.026 58.6413 178.683 65.2409C178.727 65.6789 178.887 66.1023 179.194 66.4966C180.771 62.569 180.012 58.8312 178.011 54.5969C178.975 55.0788 179.471 55.2102 179.807 55.5168C184.071 59.3422 185.458 65.6059 183.268 71.125C183.063 71.6506 182.786 72.1471 182.567 72.6727C182.085 73.8408 181.15 75.2278 182.757 76.0893C184.45 76.9945 185.633 75.6805 186.232 74.3664C188.246 69.9424 190.378 65.5183 189.4 60.3935C189.298 59.8386 189.327 59.2692 189.327 58.6998C189.327 58.5976 189.517 58.4807 189.896 58.0573C191.24 62.1747 190.875 66.1607 190.597 70.0883C190.305 74.1766 188.422 77.6516 185.647 80.5571C187.443 82.5866 189.108 82.9516 190.787 81.4331C191.999 80.3235 193.021 78.8488 193.707 77.3595C195.576 73.3151 196.233 69.0079 195.853 64.5546" stroke="#3C3C3B" stroke-miterlimit="10" stroke-linecap="round" stroke-linejoin="round"/>
<path d="M147.569 18.5331C148.854 18.5769 149.774 17.8907 150.913 17.7593C170.317 15.4231 186.437 24.8844 193.533 43.1354C196.044 49.6035 198.073 56.3199 199.709 63.08C201.563 70.7746 200.731 78.294 195.664 84.7913C194.788 85.9302 193.343 86.8355 191.97 87.2881C191.138 87.5655 189.955 86.777 188.963 85.9886" stroke="#3C3C3B" stroke-miterlimit="10" stroke-linecap="round" stroke-linejoin="round"/>
<path d="M123.595 34.3019C116.397 41.2956 114.572 49.7495 116.645 59.313C116.747 59.751 116.952 60.1744 117.214 60.8752C120.894 58.2909 122.252 54.6115 123.142 50.7423C124.062 46.7125 124.646 42.6097 125.61 38.5945C126.033 36.8424 127.041 35.2217 128.209 33.6302C125.026 40.8868 128.019 46.0555 133.334 50.7131C134.093 50.1437 134.691 49.6327 135.363 49.2092C139.568 46.5665 139.568 46.5811 137.334 42.1133C135.772 39.0033 134.195 35.8933 132.647 32.7688C132.312 32.0825 132.078 31.3379 131.742 30.4764C136.341 34.9151 140.765 39.1931 145.189 43.4565C145.365 43.3251 145.54 43.1937 145.715 43.0623C144.153 37.0468 140.517 32.3161 135.801 28.1111C138.926 27.8337 145.365 32.6082 152.811 40.4926C154.388 38.4777 154.359 35.4845 152.344 32.7688C150.723 30.6079 148.708 28.7244 147.058 26.505C155.308 31.4839 162.126 38.2733 169.748 44.9896" stroke="#3C3C3B" stroke-miterlimit="10" stroke-linecap="round" stroke-linejoin="round"/>
<path d="M117.433 82.0609C110.965 66.6863 112.688 53.0346 113.491 46.6395C114.06 42.0841 116.09 38.0981 119.229 34.7837C123.463 30.3158 127.727 25.8626 132.194 21.6138C133.728 20.1537 135.772 19.0733 137.787 18.3578C139.203 17.8468 147.335 18.533 147.584 18.5476" stroke="#3C3C3B" stroke-miterlimit="10" stroke-linecap="round" stroke-linejoin="round"/>
<path d="M58.9131 153.999C64.2716 147.94 74.9301 134.011 80.0696 127.761C80.5076 127.221 83.9096 125.075 84.8878 124.797" stroke="#3C3C3B" stroke-miterlimit="10" stroke-linecap="round" stroke-linejoin="round"/>
<path d="M92.1 183.084C88.041 185.507 55.5835 196.078 51.4223 196.327C43.1728 196.838 37.2887 184.15 42.0048 178.032C44.7643 174.44 47.6115 170.892 50.225 167.184C53.189 162.949 55.9339 158.554 58.9271 153.984" stroke="#3C3C3B" stroke-miterlimit="10" stroke-linecap="round" stroke-linejoin="round"/>
<path d="M79.6172 171.228C83.9098 167.052 82.99 160.321 84.3041 157.722C88.6405 151.079 93.634 145.078 99.9999 140.274C101.139 139.413 101.869 138.026 102.789 136.872C104.146 135.179 106.979 133.354 107.534 132.667C108.22 131.806 109.388 130.536 109.607 130.346C113.111 127.046 117.535 125.44 114.425 124.608" stroke="#3C3C3B" stroke-miterlimit="10" stroke-linecap="round" stroke-linejoin="round"/>
<path d="M124.149 122.198C117.491 127.25 104.175 139.515 98.7584 145.954C97.7217 147.195 96.6852 148.553 95.3565 149.414C91.2829 152.057 89.0051 155.941 86.9026 160.131C83.8218 166.249 80.2154 172.06 74.1123 175.725" stroke="#3C3C3B" stroke-miterlimit="10" stroke-linecap="round" stroke-linejoin="round"/>
<path d="M152.825 107.642C147.978 109.394 135.829 114.912 131.464 117.672C129.041 119.205 126.106 120.753 124.149 122.199" stroke="#3C3C3B" stroke-miterlimit="10" stroke-linecap="round" stroke-linejoin="round"/>
<path d="M94.5537 114.679C97.5615 109.759 100.701 110.678 104.322 115.044C106.234 117.351 108.074 119.745 110.177 121.877C113.316 125.06 115.389 125.381 119.302 123.279C122.879 121.366 126.486 119.439 129.712 117.03C131.917 115.38 133.552 112.956 135.348 110.795C136.735 109.116 137.772 107.087 139.349 105.627C140.882 104.225 145.686 101.889 145.335 100.093" stroke="#3C3C3B" stroke-miterlimit="10" stroke-linecap="round" stroke-linejoin="round"/>
<path d="M125.77 80.1045C122.747 78.0896 112.527 87.4194 111.111 91.4638C109.797 95.26 106.76 98.9394 105.621 102.779C104.438 106.736 101.095 108.751 97.7509 111.306C96.2032 112.504 94.6264 114.11 93.9109 115.876C92.2172 120.096 89.3409 122.782 84.873 124.768C89.2825 127.031 93.6481 129.397 98.1159 131.514" stroke="#3C3C3B" stroke-miterlimit="10" stroke-linecap="round" stroke-linejoin="round"/>
<path d="M136.53 88.4708C136.53 86.1347 136.53 83.8862 136.53 81.6376C136.53 79.4183 136.53 77.199 136.53 75.5053" stroke="#3C3C3B" stroke-miterlimit="10" stroke-linecap="round" stroke-linejoin="round"/>
<path d="M168.813 126.433C169.31 127.338 170.01 128.126 170.609 128.973C169.572 120.373 165.601 113.555 159.133 108.167M162.184 105.685C166.769 109.919 171.339 114.183 175.982 118.344C177.209 119.439 178.698 120.242 180.07 121.191C180.275 120.943 180.465 120.695 180.669 120.446C179.296 118.884 177.997 117.263 176.552 115.76C173.909 113.015 171.003 110.518 168.565 107.612M165.469 100.4C165.864 100.881 166.229 101.363 166.638 101.831C168.185 103.626 169.689 103.422 170.74 101.261C170.989 100.75 171.178 100.21 171.281 99.655C171.923 96.5305 173.792 94.3111 176.347 92.5006" stroke="#3C3C3B" stroke-miterlimit="10" stroke-linecap="round" stroke-linejoin="round"/>
<path d="M131.844 94.0774C135.012 98.6766 142.429 102.02 148.605 98.662C151.029 97.3479 153.438 96.0192 155.964 94.9242" stroke="#3C3C3B" stroke-miterlimit="10" stroke-linecap="round" stroke-linejoin="round"/>
<path d="M128.734 57.4003C132.355 57.9843 136.152 56.3199 137.889 52.9617C140.503 47.8806 146.197 45.8365 151.555 47.9974C152.198 48.2602 152.913 48.4938 153.599 48.4938C158.184 48.5668 162.769 48.5523 167.368 48.5961C168.288 48.6107 171.471 48.1727 172.464 48.2603" stroke="#3C3C3B" stroke-miterlimit="10" stroke-linecap="round" stroke-linejoin="round"/>
<path d="M128.938 57.4296C124.325 56.3491 120.514 58.802 118.674 62.8756C116.542 67.5917 118.806 73.9284 123.449 76.2353C126.398 77.6954 130.282 76.1915 131.056 72.9064C132.165 68.2195 132.866 61.6492 131.567 57.4004" stroke="#3C3C3B" stroke-miterlimit="10" stroke-linecap="round" stroke-linejoin="round"/>
<path d="M150.489 83.0247C146.517 81.9005 140.706 84.1928 139.013 87.5218C143.13 85.9011 146.809 84.4702 150.489 83.0247Z" stroke="#3C3C3B" stroke-miterlimit="10" stroke-linecap="round" stroke-linejoin="round"/>
<path d="M158.228 117.117C153.454 128.375 145.234 146.582 144.547 158.525C144.036 167.432 143.671 176.367 142.474 185.186C141.496 192.384 139.408 199.422 137.729 206.518C137.495 207.525 136.78 208.416 136.283 209.365M106.454 210.431C106.118 206.825 105.739 203.218 105.447 199.612C105.14 195.889 104.804 192.18 104.673 188.457C104.541 184.777 104.644 181.069 104.644 176.82C99.9567 179.156 96.0145 181.113 92.0723 183.069" stroke="#3C3C3B" stroke-miterlimit="10" stroke-linecap="round" stroke-linejoin="round"/>
<path d="M245.264 206.547C243.497 202.999 242.11 199.261 240.387 195.684C235.758 186.135 230.794 176.732 226.385 167.081C220.121 153.342 214.281 139.384 212.178 124.287C211.142 116.84 210.966 109.277 210.426 101.758C210.309 100.064 210.397 98.3409 210.163 96.6618C209.842 94.3257 207.462 91.4785 204.863 90.6463" stroke="#3C3C3B" stroke-miterlimit="10" stroke-linecap="round" stroke-linejoin="round"/>
<path d="M277.384 185.318C272.96 189.844 267.47 192.764 261.79 194.954C262.243 197.305 262.476 199.48 263.119 201.524" stroke="#3C3C3B" stroke-miterlimit="10" stroke-linecap="round" stroke-linejoin="round"/>
<path d="M246.153 144.275C246.621 145.896 247.073 147.531 247.57 149.151C250.753 159.533 253.921 169.914 257.133 180.28C257.834 182.558 259.469 196.502 261.791 194.939" stroke="#3C3C3B" stroke-miterlimit="10" stroke-linecap="round" stroke-linejoin="round"/>
<path d="M246.153 144.275C245.263 140.523 244.328 133.368 244.153 130.083C243.978 130.039 243.788 129.995 243.613 129.952C243.087 132.521 242.562 135.091 241.948 138.04C238.459 133.135 236.999 127.922 236.604 122.403C236.283 117.964 236.561 113.453 235.962 109.058C235.597 106.371 234.385 103.656 232.998 101.276" stroke="#3C3C3B" stroke-miterlimit="10" stroke-linecap="round" stroke-linejoin="round"/>
<path d="M198.73 89.741C200.512 90.1352 205.607 90.4272 207.038 91.3617C209.068 92.6904 211.141 92.997 213.404 93.3036C217.492 93.873 221.581 94.6031 225.596 95.5376C234.604 97.6109 243.569 99.8448 252.549 102.02C253.177 102.166 253.79 102.4 254.403 102.619C257.659 103.772 258.36 105.203 257.484 108.591C256.608 111.949 255.235 115.322 255.119 118.709C254.958 123.264 255.805 127.849 256.228 132.434" stroke="#3C3C3B" stroke-miterlimit="10" stroke-linecap="round" stroke-linejoin="round"/>
<path d="M296 197.699C294.029 191.698 291.956 185.741 290.248 179.667C288.656 174.002 286.159 168.979 281.896 164.862C278.625 161.708 276.319 157.883 275.311 153.43C273.836 146.961 271.062 141.048 267.967 135.252C267.689 134.741 260.053 105.539 257.235 104.371" stroke="#3C3C3B" stroke-miterlimit="10" stroke-linecap="round" stroke-linejoin="round"/>
<path d="M31.7275 185.361C32.4576 195.524 39.6704 200.167 48.606 201.043" stroke="#3C3C3B" stroke-miterlimit="10" stroke-linecap="round" stroke-linejoin="round"/>
</g>
<defs>
<clipPath id="clip0_173_312">
<rect width="315" height="202" fill="white"/>
</clipPath>
</defs>
</svg>
