<svg width="123" height="49" viewBox="0 0 123 49" fill="none" xmlns="http://www.w3.org/2000/svg">
<path d="M77.7538 27.9202V27.707H76.4853V27.7036H73.6356V27.707H72.3672V27.9202C72.9412 28.0095 73.6253 28.4392 73.6356 29.3949V46.8986C73.6288 47.8542 72.9412 48.2839 72.3672 48.3733V48.5864H73.6356H74.3644H75.7566H76.4853H77.7538V48.3733C77.1797 48.2839 76.4956 47.8542 76.4853 46.8986V29.3949C76.4956 28.4358 77.1797 28.0095 77.7538 27.9202Z" fill="#3C3C3B"/>
<path d="M114.886 31.0417C117.134 29.0204 120.18 28.1095 120.819 27.917V27.7073H114.707V27.9204C116.271 28.1748 116.161 29.2438 114.707 31.0382H114.886V31.0417Z" fill="#3C3C3B"/>
<path d="M107.511 46.8952V29.3914C107.521 28.4358 108.205 28.0061 108.779 27.9168V27.7036H107.511V27.7002H104.661V27.7036H103.393V27.9168C103.967 28.0061 104.651 28.4358 104.661 29.3914V46.8952C104.654 47.8508 103.967 48.2805 103.393 48.3699V48.583H104.661H105.39H106.782H107.511H108.779V48.3699C108.205 48.2805 107.518 47.8508 107.511 46.8952Z" fill="#3C3C3B"/>
<path d="M119.581 46.6684L109.423 36.8818L108.127 38.2156L117.367 47.2528L117.329 47.2218C117.683 47.9162 116.965 48.3528 116.635 48.3734V48.5865H118.763H118.893H120.584H121.616H122.582V48.3734C121.709 48.2634 120.505 47.5312 119.581 46.6684Z" fill="#3C3C3B"/>
<path d="M100.845 44.9599C100.838 44.953 100.828 44.9461 100.817 44.9427C100.797 44.9393 100.783 44.9461 100.769 44.9599H100.652C100.57 45.4824 99.934 47.6446 98.0193 48.0468H97.6549H97.3799H89.2984V29.3914C89.3052 28.4358 89.9927 28.0061 90.5668 27.9168V27.7036H90.4293C90.4293 27.7036 90.4293 27.7036 90.4293 27.7002C90.4259 27.6727 90.4018 27.6486 90.3709 27.6486H90.0821L86.0018 27.6143H85.713H85.7096H85.524H85.2352C85.2077 27.6143 85.1837 27.6349 85.1768 27.6624C85.1734 27.6761 85.1768 27.6899 85.1837 27.7002H85.1734V27.9133C85.524 27.9683 85.9193 28.1505 86.1737 28.5046C86.263 28.6936 86.3215 28.9171 86.349 29.1749C86.3799 29.4739 86.3937 29.7627 86.3937 30.0377C86.3971 34.5614 86.3971 39.8139 86.3902 44.9393C86.3902 45.5202 86.3662 46.1046 86.318 46.6718C86.2493 47.538 86.0396 48.1189 85.2249 48.3527C85.2249 48.3527 85.2249 48.3527 85.2215 48.3527C85.2043 48.3561 85.1871 48.3596 85.1699 48.363V48.5761H86.4384H87.1671H87.4868H89.288H100.855V48.4455V48.1086V44.9977V44.9564H100.845V44.9599Z" fill="#3C3C3B"/>
<path d="M66.4678 42.6878C66.1 39.4016 64.1578 38.5319 61.2084 37.4181C58.1078 36.2494 51.9169 35.696 52.0269 32.0419C52.1334 28.4772 55.3441 27.9135 56.8875 27.9135C59.2766 27.9135 61.6072 29.0478 63.2159 30.3163C64.3228 31.186 64.67 32.4647 64.67 32.4647L64.8797 32.4681V27.9066H64.6631C64.6631 27.9066 64.4156 30.4538 63.1472 29.6528C61.3253 28.5116 59.0394 27.4185 56.8531 27.4185C53.2162 27.4185 49.8406 28.491 49.2769 32.0041C48.8266 34.8091 50.7309 36.8922 53.5256 37.8169C55.2237 38.391 56.31 38.6213 57.96 39.1128C62.2534 40.45 63.2778 41.715 63.6387 43.7844C63.9309 45.455 62.7175 48.4319 58.29 48.4319C57.3206 48.3838 54.6772 48.1913 50.9612 45.7094C49.8544 44.8397 49.5072 43.561 49.5072 43.561L49.2975 43.5575V48.1191H49.5141C49.5141 48.1191 49.7616 45.5719 51.03 46.3728C51.415 46.6135 51.8241 46.8541 52.2469 47.081C53.6116 47.8303 55.8941 48.8616 58.3003 48.9372C64.3503 48.9303 66.8219 45.8572 66.4678 42.6878Z" fill="#3C3C3B"/>
<path d="M77.7537 0.595715V0.382591H76.4853V0.37915H73.6356V0.382591H72.3672V0.595715C72.9413 0.68509 73.6253 1.11478 73.6356 2.07041V19.5742C73.6288 20.5298 72.9413 20.9595 72.3672 21.0488V21.262H73.6356H74.3644H75.7566H76.4853H77.7537V21.0488C77.1797 20.9595 76.4956 20.5298 76.4853 19.5742V2.07041C76.4922 1.11134 77.1797 0.68509 77.7537 0.595715Z" fill="#3C3C3B"/>
<path d="M67.6204 19.5707C66.8607 21.372 65.2657 20.7635 64.5954 17.9242C64.5645 17.797 64.0076 15.8823 63.9732 15.762C63.0038 12.352 60.7866 11.2863 58.6795 11.2863C58.6795 11.2863 56.5998 11.2863 55.4929 11.2863H51.7529V0.850086H58.0091C58.8548 0.850086 62.6223 0.850087 62.6223 6.07165C62.6223 10.2345 60.0613 10.8326 60.0613 10.8326C60.0613 10.8326 60.1473 10.9082 60.7007 10.9082C61.2541 10.9082 65.386 10.2242 65.386 6.03384C65.386 0.843217 61.1098 0.37915 58.0091 0.37915H51.7529H51.1307H49.632H48.9032H47.6348V0.592274C48.2088 0.681649 48.8929 1.11134 48.9032 2.06696V19.5707C48.8963 20.5263 48.2088 20.956 47.6348 21.0454V21.2585H48.9032H49.632H51.0241H51.7529H53.0213V21.0454C52.4473 20.956 51.7632 20.5263 51.7529 19.5707V11.7435H55.9673C57.2838 11.7435 60.192 11.5063 60.8932 14.6482C60.931 14.8167 61.6838 17.7454 61.7216 17.907C62.2063 19.8457 63.272 21.5885 65.3585 21.5885C67.6135 21.5885 67.837 19.5673 67.837 19.5673L67.6204 19.5707Z" fill="#3C3C3B"/>
<path d="M5.4818 17.6729H5.30649C3.85586 20.2441 1.41867 20.856 0.779297 21.0485V21.2582H6.89118V21.045C4.79774 20.77 5.20336 19.0925 5.4818 17.6729Z" fill="#3C3C3B"/>
<path d="M22.9611 19.2027L13.5664 0.378906H13.3636L12.1673 3.36265L16.6223 12.252H7.93922L7.72266 12.7195H16.8561L20.4655 19.9211C20.7852 20.5983 20.0805 21.0211 19.7573 21.0417V21.2548H21.1358H22.0158H23.2602H23.9889H25.2573V21.0417C24.3877 20.942 23.5214 20.1205 22.9611 19.2027Z" fill="#3C3C3B"/>
<path d="M42.3072 0.37915H42.1216H39.9731V0.595715C40.6847 0.674777 41.1144 1.44821 40.7259 2.08759L35.1331 11.2863L29.5987 2.17353C29.2103 1.53415 29.805 0.674777 30.5166 0.595715V0.37915H28.5091H28.3681H25.7316H25.6559H23.7344V0.595715C24.7931 0.695402 26.2712 1.47228 26.8591 2.36259L32.8678 12.2523V19.5879C32.8506 20.5298 32.17 20.956 31.6028 21.0454V21.2585H32.8678H33.5966H34.9887H35.7175H36.9859V21.0454C36.4084 20.956 35.7175 20.5229 35.7175 19.5535V11.3413L41.19 2.34196C41.7881 1.46196 43.2525 0.695405 44.3009 0.599155V0.382591H42.3072V0.37915Z" fill="#3C3C3B"/>
<path d="M101.589 15.3631C101.221 12.0769 99.2789 11.2072 96.3295 10.0934C93.2289 8.92469 87.038 8.37124 87.148 4.71718C87.2545 1.15249 90.4651 0.588751 92.0086 0.588751C94.3976 0.588751 96.7283 1.72312 98.337 2.99156C99.4439 3.86125 99.7911 5.14 99.7911 5.14L100.001 5.14344V0.581869H99.7842C99.7842 0.581869 99.5367 3.12906 98.2683 2.32813C96.4464 1.18688 94.1605 0.09375 91.9742 0.09375C88.3373 0.09375 84.9617 1.16625 84.398 4.67937C83.9476 7.48437 85.852 9.5675 88.6467 10.4922C90.3448 11.0663 91.4311 11.2966 93.0811 11.7881C97.3745 13.1253 98.3989 14.3903 98.7598 16.4597C99.052 18.1303 97.8386 21.1072 93.4111 21.1072C92.4417 21.0591 89.7983 20.8666 86.0823 18.3847C84.9755 17.515 84.6283 16.2362 84.6283 16.2362L84.4186 16.2328V20.7944H84.6351C84.6351 20.7944 84.8827 18.2472 86.1511 19.0481C86.5361 19.2887 86.9451 19.5294 87.368 19.7562C88.7326 20.5056 91.0151 21.5369 93.4214 21.6125C99.4748 21.6091 101.946 18.5325 101.589 15.3631Z" fill="#3C3C3B"/>
</svg>
