<svg width="315" height="202" viewBox="0 0 315 202" fill="none" xmlns="http://www.w3.org/2000/svg">
<path d="M150.018 164.563C156.542 166.409 163.078 168.241 169.601 170.074M195.49 170.074C194.182 171.33 186.903 170.958 184.429 170.113C183.66 168.728 182.943 167.306 182.058 165.922M182.058 165.922C181.93 162.423 179.29 155.695 182.738 154.861L188.582 151.76C189.71 151.376 190.414 151.632 190.786 152.772C191.888 156.156 193.016 159.527 194.093 162.936C194.4 163.884 194.926 167.229 195.49 169.613C201.244 169.754 212.971 169.164 218.61 167.844C220.93 167.306 223.775 166.627 226.325 165.922M182.058 165.922C181.841 165.576 181.238 165.371 180.79 165.281C174.33 164.038 167.858 162.807 161.386 161.603C159.348 161.231 157.388 161.372 155.529 162.397C152.62 163.999 149.583 164.063 146.455 163.115C144.008 162.372 141.56 161.603 139.061 161C135.908 160.231 132.87 159.937 129.666 161.757C127.949 162.641 125.886 162.846 123.886 163.64M214.803 91.2042C214.291 91.6015 213.791 91.8065 213.573 92.191C213.022 93.1522 212.381 94.1391 212.151 95.19C211.202 99.5474 210.459 103.943 209.523 108.301C207.972 115.452 207.857 122.539 209.651 129.691C210.625 133.548 210.818 137.509 209.831 141.469C209.395 143.199 209.241 144.993 208.818 146.723C208.703 147.223 208.178 147.89 207.716 148.005C202.731 149.222 197.72 150.35 192.709 151.465C192.324 151.555 190.543 152.227 190.376 151.997M208.765 78.3293C210.946 80.0799 213.112 80.9898 214.278 81.6178C217.636 83.4248 221.058 84.9371 224.851 85.6805C229.644 86.616 232.707 89.7944 233.822 94.3954C234.604 97.6507 235.13 114.427 234.899 117.772M234.899 117.772C234.066 128.345 233.259 138.918 232.105 149.453C231.644 153.746 230.388 157.963 229.311 162.167C229.068 163.153 228.209 164.089 227.402 164.781C226.71 165.371 226.594 165.742 226.889 166.575C227.517 168.357 228.965 172.432 229.311 174.278M234.899 117.772C235.104 115.17 235.553 112.761 236.962 110.492C237.808 109.134 238.372 107.583 238.987 106.084C241.397 100.201 241.41 94.3569 238.68 88.5513C237.616 86.2828 236.552 84.0016 235.553 81.6947C235.104 80.631 234.566 79.5031 234.489 78.3881C233.861 69.5579 232.285 60.8942 230.208 52.3203M204.563 176.944C205.076 176.944 211.42 176.469 211.933 176.405C222.48 175.367 233.028 174.265 243.588 173.304C248.356 172.868 253.162 172.355 257.929 172.522C264.965 172.766 268.926 177.008 269.374 184.018C269.554 186.799 269.643 189.58 269.823 192.361M269 181.327C272.589 162.141 277.243 137.598 280.627 118.374C281.844 111.466 282.523 104.456 283.459 97.4969C283.459 96.7151 283.459 95.9333 283.459 95.1515C283.023 91.9732 281.575 89.5637 278.627 88.0002C277.948 87.6285 277.525 86.27 277.461 85.3344C277.307 83.2454 276.82 82.3739 274.808 81.8741C273.732 81.605 272.604 81.4896 271.514 81.3102C263.568 80.0927 255.623 78.888 247.677 77.6961C247.074 77.6064 234.72 75.7352 234.117 75.6968M261.569 173.075C263.466 163.784 265.76 151.324 267.567 142.02C270.489 126.897 273.36 111.774 276.218 96.6382C276.577 94.7286 277.384 89.474 277.615 87.5388M226.966 59.0103C228.991 64.739 230.157 70.7241 232.336 76.4016M236.424 103.687C237.654 100.752 238.154 97.8173 237.244 94.8824C236.155 91.3324 234.809 87.8079 233.194 84.4758C231.567 81.1308 229.247 78.1062 227.581 74.774C224.992 69.5963 222.698 64.2649 220.276 59.0103C219.75 57.8825 219.187 56.7803 218.648 55.6653M206.511 68.9427C203.064 64.1751 201.577 59.0744 203.372 53.1662C204.512 49.4111 204.23 45.5534 202.897 41.7983C201.962 39.1198 200.206 37.4921 197.374 37.0948C195.451 36.8257 193.529 36.4669 191.581 36.2362C186.249 35.6338 181.674 33.5832 176.56 31.3533M203.91 75.1072C201.731 75.4789 201.001 76.0172 200.449 77.8883C199.745 80.3362 199.193 83.0019 197.822 85.0653C193.426 91.6912 190.927 99.022 188.864 106.596C187.877 110.185 186.723 113.76 185.288 117.195M203.91 75.1072C203.91 74.6843 201.552 72.3518 201.308 72.1339C198.13 69.3016 196.771 65.5849 196.066 61.5479C195.426 57.844 194.772 54.1402 196.963 50.6542C197.258 50.1928 197.335 49.6033 197.463 49.065C198.732 43.7079 196.528 40.4526 191.107 39.7862C188.736 39.4914 186.326 39.4274 183.93 39.2223C178.829 38.7994 174.407 36.9539 171.114 32.8784C170.14 31.507 170.96 30.1485 170.755 29.6872M203.91 75.1072C205.55 74.7612 206.87 75.4404 207.857 76.7349C209.331 78.6573 209.472 80.8873 209.023 83.1301C208.472 85.8599 207.844 88.5897 207.024 91.2426C206.819 91.8963 205.858 92.5883 205.127 92.7549C203.295 93.1779 201.385 93.3188 199.501 93.588C198.912 93.6777 198.348 93.8187 197.233 94.0622C198.617 95.7667 199.629 97.1508 200.795 98.3684C201.898 99.5218 201.949 100.547 201.231 101.957C197.028 110.326 192.926 118.746 188.736 127.128C186.249 132.1 179.067 139.905 178.81 145.442M185.288 117.195C184.071 120.104 181.853 122.219 178.726 123.283C177.368 123.731 176.765 123.385 176.919 121.988M185.288 117.195C182.75 123.259 179.995 133.51 179.29 138.841C178.713 143.186 178.393 151.269 178.342 155.665M176.919 121.988C177.342 118.118 177.624 114.209 178.342 110.403C179.546 104.059 181.264 97.8045 182.366 91.4477C183.02 87.6157 183.712 83.899 185.621 80.4643C187.121 77.7602 186.916 74.9791 185.506 72.2877C184.814 70.9676 182.917 68.6095 182.11 67.2639M176.919 121.988C175.548 130.408 173.267 146.931 171.857 155.339M195.461 55.7294C195.627 58.7624 193.324 60.074 191.312 61.3428C186.749 64.252 182.148 67.0716 177.522 69.8911C176.714 70.3909 175.843 70.7882 174.946 71.083C173.036 71.7238 171.921 70.9036 171.806 68.8914C171.754 68.1097 171.793 67.2894 171.511 66.5974C171.126 65.6618 170.575 65.3414 169.934 65.3414M167.615 88.4231C175.061 85.8471 180.187 74.774 186.595 77.5701M167.615 88.4231C164.795 89.2049 162.732 90.4352 161.835 92.7165C159.464 98.7144 157.042 104.725 155.183 110.902C152.953 118.31 153.363 130.088 150.044 137.368C146.994 138.406 145.981 138.188 143.495 139.982M167.615 88.4231C160.771 109.544 158.49 132.294 160.322 154.312M180.146 78.7983C179.211 81.5281 178.342 83.1301 180.828 85.8471C177.522 87.7695 176.313 88.4231 175.984 89.6919C175.176 92.8062 173.574 118.195 173.523 121.988C173.472 125.782 173.863 141.674 173.107 145.314M118.448 145.352C117.948 145.736 115.184 145.249 114.569 145.019C109.699 144.16 104.098 147.992 101.958 150.581C100.805 151.978 99.7538 153.477 98.7798 154.759M63.0743 140.097C75.2751 144.083 87.758 147.21 100.087 150.735M96.8958 153.631C90.2699 152.631 83.7594 153.349 77.3513 155.143C76.89 155.284 76.1723 155.848 76.2107 156.117C76.2876 156.617 76.8002 157.091 77.2104 157.476C77.4795 157.732 77.9024 157.835 78.2741 157.95C90.7057 161.949 103.137 165.922 115.556 169.933C119.862 171.317 124.181 171.586 128.59 170.497C131.089 169.882 133.601 169.382 136.1 168.78C137.638 168.408 138.984 167.921 140.752 167.421C142.329 166.281 140.112 166.178 138.907 165.832C135.998 165.14 133.101 164.397 130.166 163.781M103.599 155.259C104.073 154.938 104.534 154.618 105.008 154.31C109.212 151.478 113.429 148.671 117.632 145.813C118.952 144.916 120.311 144.724 121.746 145.352C126.988 147.646 135.254 145.925 140.752 144.682M107.841 158.053C109.43 158.578 111.032 159.116 112.621 159.629C114.197 160.142 115.761 160.642 117.812 161.282C118.196 160.783 119.17 159.949 119.657 158.899C121.439 155.041 124.476 153.285 128.564 152.426C134.588 151.158 140.47 151.35 146.494 152.375C149.394 152.87 152.429 153.325 155.529 153.731M181.469 155.747C173.295 155.605 164.157 154.86 155.529 153.731M151.454 153.163C151.454 152.375 151.095 151.568 150.928 151.26C148.416 146.39 144.366 144.352 138.984 144.711C138.83 144.711 138.663 144.66 138.279 144.596C138.586 144.173 138.779 143.788 139.073 143.532C140.534 142.315 141.97 141.084 143.495 139.982M143.495 139.982C147.617 141.437 155.796 146.224 155.529 153.731" stroke="#3C3C3B" stroke-miterlimit="10" stroke-linecap="round" stroke-linejoin="round"/>
<path d="M78.814 165.486C79.4291 165.845 80.2494 166.768 80.1469 167.242C79.9418 168.152 79.3266 169.215 78.5577 169.677C77.6733 170.215 76.4302 170.395 75.3408 170.369C68.0357 170.254 60.7306 170.215 53.4382 169.767C50.8878 169.613 48.3246 168.613 45.928 167.613C42.0063 165.986 40.1864 162.961 40.5196 158.578C40.9426 153.016 42.2242 147.659 44.0697 142.443C46.5175 135.509 49.0936 128.601 51.6055 121.681C51.99 120.604 55.2196 111.659 55.5913 110.569C57.3215 109.262 65.4597 108.583 65.4212 115.221C65.229 116.721 64.8189 118.182 64.4344 119.63C63.6654 122.552 62.8965 125.461 62.0634 128.358C61.8199 129.242 61.8071 129.742 62.8964 130.062M78.814 165.486C70.8039 160.847 62.1916 158.514 52.9128 158.681C52.272 158.693 51.6312 158.681 50.6315 158.681M78.814 165.486C72.6495 166.844 65.088 167.601 58.9747 166.909C56.6038 166.639 54.2328 166.229 51.8618 165.896C50.5546 165.717 48.8244 162.103 50.6315 158.681M50.6315 158.681C51.3236 156.476 51.7849 154.528 52.5283 152.696C55.194 146.018 58.0135 139.393 60.6408 132.703C61.2176 131.229 61.397 129.588 62.8964 130.062M62.8964 130.062C72.47 132.882 82.0052 135.83 91.6044 138.585C94.3855 139.38 97.2947 139.764 100.166 140.097C103.959 140.546 106.099 138.06 105.343 134.343C102.075 118.208 98.8454 102.072 95.5133 85.9624C94.6931 81.9894 93.5012 78.0806 92.5272 74.1332C91.63 70.4935 89.3103 68.7761 85.6193 68.4685C70.7142 67.2254 55.822 65.8925 40.9297 64.6109C38.6485 64.4187 36.3544 64.3033 34.0732 64.2136C32.138 64.1367 31.715 64.5981 32.1636 66.482C34.573 76.6195 36.9952 86.7698 39.5072 96.8945C41.2758 104.046 43.1854 111.159 45.0309 118.284C45.1719 118.848 46.4791 124.462 46.5816 125.039" stroke="#3C3C3B" stroke-miterlimit="10" stroke-linecap="round" stroke-linejoin="round"/>
<path d="M191.644 11.4756C197.552 10.1427 201.397 12.2702 205.255 17.4222M218.66 55.6525C214.559 43.1696 211.176 27.0214 205.921 14.3976C203.23 10.0145 199.039 8.24592 194.194 7.61793C192.682 7.42569 187.411 6.907 185.694 7.41961M226.965 59.0744C226.965 58.754 226.029 55.5756 225.927 55.2936C224.991 52.6279 224.043 49.9878 223.082 47.3349C220.864 41.196 218.711 35.0443 216.392 28.9438C214.315 23.5226 212.867 18.5629 208.382 13.4364M230.066 51.7692C229.823 50.7055 227.798 43.2978 227.554 42.5545C224.889 34.365 221.749 26.3806 217.148 19.0498C213.982 14.0003 210.471 9.25839 205.255 6.11846C200.846 3.46553 195.989 2.37617 191.4 4.90093C188.171 6.66955 184.877 7.81017 181.404 8.7073C181.301 8.73293 181.199 8.79701 181.096 8.83546C174.483 11.3474 169.19 15.7946 164 20.3699C161.436 22.6255 159.642 25.4707 158.502 28.6491C158.066 29.8666 157.938 31.2635 157.951 32.5708C157.963 33.8908 159.463 35.0955 160.668 35.4031" stroke="#3C3C3B" stroke-miterlimit="10" stroke-linecap="round" stroke-linejoin="round"/>
<path d="M169.602 170.074C179.585 172.881 220.943 184.672 230.901 187.581C240.218 190.298 249.497 193.13 258.801 195.886M260.467 193.117C260.557 192.656 260.711 192.195 260.711 191.733C260.698 189.221 260.724 186.709 260.57 184.197C260.391 181.288 259.109 179.917 256.187 179.725C254.136 179.596 252.047 179.712 250.01 179.942C242.692 180.788 235.399 181.762 228.081 182.621C223.532 183.146 219.943 184.664 215.432 183.126" stroke="#3C3C3B" stroke-miterlimit="10" stroke-linecap="round"/>
<path d="M101.369 139.675C101.267 138.79 100.831 137.047 100.728 136.471C98.5368 124.5 96.8066 112.543 94.5509 100.586C92.6926 90.73 90.7061 80.9001 87.4893 71.3649C87.0279 69.9808 86.0924 68.6608 84.7083 68.5454" stroke="#3C3C3B" stroke-miterlimit="10" stroke-linecap="round"/>
<path d="M168.652 29.8282C167.512 29.6744 167.486 29.6231 166.333 29.8281C164.718 30.1229 163.295 30.6612 162.219 31.8531C160.553 33.6986 160.617 36.1209 160.963 38.4278C161.655 43.0031 161.052 47.258 158.925 51.4744C158.63 52.064 158.553 52.7689 158.451 53.4225C158.156 55.3833 158.694 57.1904 159.284 58.9975" stroke="#3C3C3B" stroke-miterlimit="10" stroke-linecap="round" stroke-linejoin="round"/>
<path d="M171.217 26.8933C172.562 21.6644 175.446 19.8444 179.97 17.5119C182.084 16.4226 183.033 15.6408 185.211 14.6283C185.775 14.3592 187.557 13.4749 188.057 13.0776" stroke="#3C3C3B" stroke-miterlimit="10" stroke-linecap="round" stroke-linejoin="round"/>
<path d="M167.537 56.9469C163.756 56.0882 163.756 56.101 164.948 52.2947C165.089 51.8717 165.192 51.436 165.294 51.0002C165.974 48.1423 165.115 44.9895 162.962 42.7723" stroke="#3C3C3B" stroke-linecap="round"/>
<path d="M167.103 58.5873C167.116 61.3812 169.256 61.0993 170.986 61.3941C170.217 62.2912 169.602 63.0217 169.077 63.6369" stroke="#3C3C3B" stroke-linecap="round"/>
<path d="M119.503 163.179C122.733 160.475 125.744 157.438 129.82 156.015C131.87 155.297 138.727 155.566 140.021 156.425" stroke="#3C3C3B" stroke-linecap="round"/>
<path d="M174.786 188.156C174.268 188.273 156.786 193.9 156.289 193.852C153.582 193.569 150.662 193.762 148.224 192.775C141.202 189.93 133.822 188.763 126.51 187.148C123.051 186.381 119.716 185.035 116.333 183.916C115.842 183.751 115.414 183.398 115 182.881C129.817 183.219 143.709 178.897 157.773 175.555C161.55 174.153 168.634 173.373 172.335 174.637C172.611 174.733 177.452 175.978 177.742 176.02" stroke="#3C3C3B" stroke-miterlimit="10" stroke-linecap="round" stroke-linejoin="round"/>
<path d="M170.338 189.461C176.448 187.638 182.269 185.87 188.545 184.248C190.292 183.833 195.967 182.556 198.115 182.052C197.445 181.493 197.224 181.175 196.941 181.099C193.157 180.084 181.13 177.019 177.325 176.073" stroke="#3C3C3B" stroke-miterlimit="10" stroke-linecap="round" stroke-linejoin="round"/>
</svg>
