<svg width="315" height="202" viewBox="0 0 315 202" fill="none" xmlns="http://www.w3.org/2000/svg">
<g clip-path="url(#clip0_144_78)">
<path d="M212.751 151.666C212.309 152.267 211.336 152.536 209.893 152.875C205.218 153.959 200.51 154.891 195.821 155.899C195.331 156.002 194.862 156.217 194.282 156.41C195.041 158.599 195.821 160.608 196.429 162.665C197.002 164.626 197.437 166.635 197.838 168.638C197.941 169.142 197.699 169.722 197.617 170.267C197.416 170.274 197.223 170.281 197.023 170.288C196.788 169.259 196.622 168.203 196.298 167.202C195.166 163.639 193.985 160.097 192.825 156.548C192.438 155.353 191.7 155.091 190.519 155.492C188.862 156.058 187.163 156.527 185.465 156.969C184.464 157.231 184.298 157.729 184.388 158.75C184.705 162.41 184.919 166.083 185.051 169.756C185.113 171.489 186.411 173.402 188.434 173.982C189.718 174.348 191.085 174.417 192.397 174.686C192.929 174.796 197.368 175.169 198.003 175.432C196.629 176.75 190.588 174.486 189.787 176.964C187.433 176.35 185.057 175.77 182.703 175.093C180.266 174.389 177.891 174.396 175.446 175.128C163.26 178.766 150.936 181.798 138.307 183.434C136.346 183.689 134.358 183.752 132.259 184.186C132.673 184.373 133.067 184.642 133.502 184.739C138.639 185.878 143.81 186.893 148.919 188.15C152.544 189.04 156.148 190.097 159.656 191.374C162.687 192.479 165.677 193.245 168.908 192.776C169.44 192.7 186.949 187.28 187.502 187.335C187.509 187.528 187.529 187.943 187.543 188.136C187.025 188.253 169.543 193.88 169.046 193.832C166.339 193.549 163.419 193.742 160.982 192.755C153.96 189.91 146.579 188.743 139.267 187.128C135.808 186.361 132.473 185.015 129.09 183.897C128.6 183.731 128.172 183.379 127.757 182.861C142.574 183.199 156.466 178.877 170.53 175.535C170.558 175.266 170.586 174.997 170.613 174.727C163.764 172.801 156.915 170.875 150.066 168.941C150.073 168.817 150.073 168.693 150.079 168.576C150.577 168.61 151.101 168.569 151.571 168.7C158.289 170.516 165 172.359 171.725 174.168C172.429 174.361 173.292 174.624 173.914 174.396C177.69 172.994 181.391 173.353 185.092 174.617C185.368 174.714 185.658 174.762 185.948 174.803C186.052 174.817 186.169 174.762 186.162 174.762C185.361 173.312 184.602 171.814 183.711 170.398C183.483 170.032 182.855 169.818 182.379 169.729C175.598 168.424 168.811 167.139 162.024 165.876C159.898 165.482 157.833 165.627 155.886 166.704C152.834 168.389 149.651 168.451 146.372 167.457C143.796 166.677 141.228 165.869 138.611 165.234C135.311 164.426 132.307 165.386 128.952 167.291C131.223 167.768 133.012 168.127 134.8 168.52C136.913 168.983 139.032 169.425 141.131 169.963C142.581 170.336 142.795 171.047 141.608 171.966C140.572 172.76 139.315 173.402 138.052 173.733C134.434 174.679 130.761 175.452 127.108 176.267C122.351 177.33 117.697 176.868 113.085 175.383C100.333 171.268 87.5595 167.195 74.8 163.107C74.5239 163.017 74.2408 162.941 73.9646 162.838C72.6666 162.341 71.403 161.754 71.4169 160.097C71.4307 158.378 72.8668 158.184 74.0889 157.818C80.9312 155.782 87.8978 155.312 94.9404 156.382C96.4524 156.61 97.2948 156.21 97.7505 154.49C84.8184 150.783 71.7345 147.51 58.9336 143.326C58.9819 143.133 59.0233 142.932 59.0717 142.739C59.4238 142.767 59.7897 142.746 60.1212 142.836C72.128 146.177 84.1418 149.492 96.1348 152.909C97.9093 153.413 99.0347 153.206 100.388 151.798C103.833 148.207 107.955 146.606 112.961 148.504C113.603 148.746 114.694 148.629 115.219 148.221C117.083 146.785 119.023 146.813 121.025 147.614C125.493 149.395 130.056 150.085 134.758 148.808C135.628 148.573 136.436 147.917 137.14 147.31C139.212 145.522 141.104 143.512 143.279 141.862C145.902 139.874 147.394 140.088 148.16 139.77C148.816 139.528 148.774 139.522 149.023 139.149C149.154 138.672 149.23 138.396 149.306 138.127C150.073 136.339 149.803 136.891 150.266 135.289C151.281 131.768 152.316 128.15 152.517 124.525C153.076 114.41 155.907 104.979 160.001 95.8163C161.272 92.9717 162.542 90.1961 165.525 88.8635C166.774 88.3043 168.266 88.2767 169.647 88.0074C169.446 89.1673 169.384 90.3756 169.032 91.4872C162.466 112.097 160.056 133.19 161.562 154.753C161.665 156.258 162.066 156.935 163.702 156.914C165.918 156.886 168.148 157.066 170.365 157.273C171.642 157.39 172.098 156.955 172.257 155.685C173.044 149.533 173.907 143.388 174.777 137.243C174.991 135.738 175.301 134.247 175.612 132.755C176.406 128.93 177.179 125.14 177.235 121.163C177.283 117.814 178.042 114.424 178.885 111.151C180.694 104.122 182.62 97.1558 183.38 89.8785C183.683 86.9441 185.147 84.1271 186.135 81.2686C186.528 80.1363 187.053 79.0523 187.322 77.7819C182.889 82.905 174.825 85.4665 169.509 88.974C169.384 88.8083 169.778 88.1662 169.654 88.0005C170.227 87.4896 171.835 86.3848 172.484 85.9913C175.039 84.4516 177.649 83.0155 180.204 81.4758C182.572 80.0535 184.781 78.4585 186.266 76.0074C187.08 74.668 187.129 73.5149 186.418 72.0995C184.457 68.2192 184.519 68.2261 180.784 70.2146C179.341 70.981 177.87 71.7681 176.323 72.2307C173.727 73.0178 171.987 71.6438 171.677 68.9856C171.525 67.7083 171.062 66.4724 170.682 64.9741C171.566 64.4149 172.284 65.2158 172.692 66.2031C172.988 66.9281 172.954 67.798 173.002 68.6128C173.12 70.7117 174.286 71.5748 176.289 70.905C177.228 70.5943 178.146 70.1663 178.988 69.6484C183.828 66.6864 188.662 63.7244 193.446 60.6796C195.552 59.3401 197.044 57.6899 196.464 54.7486C196.222 53.5127 197.05 52.0766 197.368 50.7302C197.851 48.6451 198.618 46.5668 198.714 44.461C198.832 41.8994 197.368 40.2562 194.841 39.7452C192.673 39.3033 190.436 39.1584 188.227 38.9926C183.932 38.675 179.644 38.2677 176.033 35.6509C174.397 34.4633 172.802 33.1031 171.601 31.4599C170.227 29.575 171.393 28.1734 171.138 27.69C171.4 27.4622 171.614 27.69 171.884 27.4691C172.091 27.9524 171.242 29.3816 172.257 30.8178C175.709 35.0985 180.349 37.0249 185.7 37.4737C188.206 37.6808 190.733 37.7498 193.225 38.0605C198.915 38.7648 201.221 42.1825 199.895 47.7958C199.764 48.362 199.674 48.9834 199.37 49.4667C197.078 53.1192 197.755 57.0064 198.431 60.8867C199.17 65.126 200.592 69.027 203.927 71.996C204.183 72.2238 205.971 73.9706 205.971 74.4194C203.175 73.5771 200.033 70.0351 199.039 67.5909C198.052 65.1743 197.423 62.6128 196.609 60.0305C192.79 62.6542 188.889 65.3331 184.926 68.0604C185.769 69.4689 186.632 70.7739 187.357 72.1548C188.834 74.9787 189.055 77.9062 187.481 80.737C185.479 84.348 184.761 88.2421 184.07 92.2605C182.917 98.9302 181.115 105.489 179.851 112.145C179.092 116.143 178.802 120.237 178.353 124.297C178.194 125.754 178.823 126.127 180.245 125.65C183.518 124.546 185.851 122.329 187.122 119.271C188.62 115.667 189.842 111.924 190.871 108.155C193.039 100.214 195.656 92.5229 200.268 85.5701C201.704 83.4021 202.277 80.6127 203.023 78.0443C203.596 76.0834 204.197 74.302 206.489 73.9085C208.836 73.508 211.032 74.3987 211.798 76.4493C212.889 79.363 215.175 80.1777 217.598 81.1236C218.516 81.4827 219.407 81.9246 220.581 82.0488C220.125 81.6277 219.67 81.1996 219.207 80.7853C214.974 76.9879 210.811 73.1421 207.67 68.3297C204.355 63.2618 203.113 57.9316 204.956 51.9661C206.137 48.1272 205.902 44.2193 204.542 40.3942C203.699 38.0329 202.167 36.583 199.619 36.224C195.676 35.6647 191.672 35.3402 187.84 34.3459C184.726 33.5381 181.799 31.957 178.843 30.6037C176.662 29.6095 173.727 28.6912 171.559 27.5796C172.167 27.5796 171.525 27.0617 173.437 27.3932C174.749 27.621 176.289 28.4012 177.953 29.2297C183.311 31.5634 188.123 33.7176 193.709 34.3528C195.746 34.5876 197.762 34.9673 199.785 35.2504C202.767 35.6647 204.597 37.377 205.584 40.1802C206.972 44.1158 207.276 48.1549 206.075 52.0973C204.197 58.2837 205.757 63.6347 209.368 68.6404C213.518 74.3849 218.896 78.9349 224.054 83.6921C224.523 84.1271 225.31 84.348 225.973 84.4378C235.446 85.7013 238.995 91.2318 240.1 99.3445C240.134 99.6138 240.224 99.8762 240.286 100.139C240.452 100.118 240.618 100.097 240.783 100.076C240.59 98.5781 240.549 97.0384 240.176 95.5885C238.615 89.4988 235.543 84.1064 232.229 78.8452C227.9 71.9752 224.51 64.6703 221.927 56.9788C221.713 56.3505 221.589 55.6876 221.423 55.0386C221.644 54.935 221.858 54.8384 222.079 54.7348C222.652 55.9017 223.246 57.0616 223.791 58.2423C226.339 63.7589 228.742 69.3515 231.455 74.7785C233.202 78.279 235.626 81.4412 237.338 84.9556C239.043 88.4562 240.452 92.1432 241.591 95.8716C242.537 98.951 242.012 102.03 240.728 105.103C239.92 107.043 240.003 109.356 239.982 111.531C243.455 105.331 245.589 98.9095 242.813 91.8808C240.77 86.7163 238.415 81.6691 236.427 76.4839C234.141 70.5322 232.104 64.4839 229.978 58.4701C229.791 57.9385 229.778 57.3516 230.005 56.6888C232.829 62.4195 234.625 68.5299 237.124 74.3918C236.268 65.7405 234.486 57.2549 232.346 48.8384C232.539 48.7624 232.733 48.6865 232.926 48.6105C233.354 49.4805 233.969 50.3091 234.19 51.2273C236.365 60.2239 238.015 69.3101 238.677 78.569C238.76 79.7497 239.32 80.9234 239.796 82.0419C240.839 84.4585 241.957 86.8474 243.076 89.2295C245.927 95.3123 245.92 101.45 243.393 107.616C242.751 109.183 242.157 110.806 241.267 112.235C239.782 114.603 239.313 117.137 239.099 119.865C238.222 130.953 237.379 142.042 236.164 153.096C235.674 157.597 234.355 162.023 233.23 166.435C232.968 167.464 232.07 168.451 231.221 169.176C230.496 169.791 230.378 170.184 230.682 171.061C231.338 172.932 231.966 174.838 232.325 176.778C232.574 178.159 233.119 178.477 234.424 178.338C241.929 177.524 249.442 176.716 256.961 176.046C259.336 175.832 261.759 175.922 264.134 176.129C265.467 176.246 265.853 175.832 266.088 174.631C268.532 162.286 271.046 149.961 273.497 137.616C276.452 122.751 279.359 107.872 282.3 93.0062C282.397 92.516 283.315 88.5805 283.453 88.0902C283.598 88.111 283.743 88.1386 283.881 88.1593C283.639 90.1892 282.79 95.699 282.41 97.7012C279.414 113.575 276.403 129.441 273.338 145.301C271.453 155.07 269.492 164.826 267.497 174.569C267.193 176.067 267.455 176.792 268.96 177.489C270.873 178.373 272.537 179.788 274.47 181.079C274.657 180.341 274.905 179.526 275.057 178.697C278.565 159.648 282.148 140.612 285.517 121.535C286.76 114.514 287.527 107.402 288.466 100.325C288.631 99.0545 288.687 97.7496 288.624 96.4723C288.493 93.7519 287.575 91.4665 284.937 90.1478C283.163 89.2571 282.176 87.9038 282.535 85.7496C282.818 84.0511 281.596 83.4919 280.229 83.2571C276.479 82.6081 272.716 82.0281 268.967 81.3929C263.25 80.4332 257.54 79.4528 251.831 78.4723C237.373 76.3527 238.664 76.2629 238.263 75.7244C238.898 75.7658 251.858 77.7197 252.486 77.8164C260.82 79.073 269.154 80.3434 277.488 81.6139C278.641 81.7934 279.814 81.9246 280.947 82.2007C283.066 82.7255 283.57 83.63 283.736 85.8256C283.812 86.806 284.247 88.2352 284.965 88.6219C288.051 90.2652 289.57 92.7922 290.033 96.1201C290.033 96.9418 290.033 97.7565 290.033 98.5781C289.059 105.883 288.341 113.229 287.064 120.479C283.508 140.647 279.738 160.78 275.969 180.907C275.651 182.605 275.699 184.124 275.934 185.83C276.514 190.111 276.645 194.447 276.921 198.769C276.942 199.052 276.707 199.356 276.169 199.694C276.017 199.155 275.768 198.624 275.734 198.078C275.547 195.165 275.451 192.244 275.264 189.33C274.795 181.984 270.631 177.524 263.257 177.275C258.259 177.103 253.211 177.641 248.213 178.097C237.138 179.105 226.077 180.265 215.009 181.349C214.477 181.404 207.821 181.908 207.283 181.908C207.255 181.729 207.228 181.549 207.2 181.363C207.759 181.238 214.422 180.506 214.988 180.437C219.932 179.857 224.869 179.243 229.819 178.76C231.165 178.628 231.594 178.166 231.255 176.902C230.668 174.72 230.095 172.532 229.501 170.302C226.829 171.04 224.44 171.8 222.01 172.366C216.093 173.747 203.796 174.375 197.755 174.223C197.306 174.023 197.831 173.94 197.851 173.284C204.183 172.76 214.132 172.173 219.918 171.42C222.901 171.034 225.773 169.846 228.694 168.997C230.73 168.403 232.015 167.077 232.408 164.971C233.499 159.116 234.977 153.289 235.564 147.386C236.938 133.584 237.994 119.747 238.905 105.904C239.14 102.403 238.76 98.7369 237.946 95.3261C236.786 90.4999 233.575 87.165 228.542 86.1846C224.565 85.4113 220.974 83.8164 217.453 81.9246C216.238 81.2755 214.94 80.7922 213.828 80.302C212.889 84.3826 211.964 88.2352 211.122 92.1086C210.756 93.7726 209.81 94.6288 208.139 94.829C206.123 95.0706 204.121 95.3814 201.725 95.7197C202.767 96.9901 203.506 98.0258 204.376 98.9302C205.805 100.422 205.819 101.913 204.922 103.715C200.655 112.242 196.533 120.852 192.217 129.358C189.304 135.11 187.757 141.144 187.571 147.572C187.502 150.016 187.301 152.447 187.143 155.181C188.254 154.884 189.083 154.691 189.897 154.435C191.23 154.021 192.494 153.69 193.564 155.05C193.75 155.284 194.427 155.271 194.834 155.181C200.088 154.007 205.336 152.82 210.569 151.549C211.053 151.432 211.605 150.727 211.729 150.203C212.171 148.387 212.337 146.509 212.793 144.693C213.835 140.543 213.621 136.394 212.606 132.341C210.721 124.843 210.853 117.407 212.475 109.908C213.462 105.338 214.243 100.725 215.237 96.1546C215.479 95.043 216.155 94.0143 216.735 93.0062C216.963 92.6127 217.488 92.3917 218.026 91.9775C218.144 92.4953 218.268 92.7162 218.206 92.806C215.492 96.921 215.216 101.733 214.325 106.366C213.842 108.893 213.538 111.455 213.048 113.982C211.964 119.54 212.24 125.057 213.511 130.532C214.795 136.097 215.113 141.641 213.428 147.186C213.193 147.959 213.048 148.787 213.02 149.602C212.993 150.748 213.014 150.541 212.751 151.666ZM138.432 170.274C135.38 169.549 132.335 168.769 129.262 168.12C128.275 167.913 127.219 168.009 126.19 167.989C125.016 167.968 123.849 167.975 122.676 167.975C124.768 167.132 126.936 166.918 128.738 165.993C133.495 163.535 138.231 163.37 143.154 165.254C144.245 165.669 145.384 165.952 146.51 166.276C149.672 167.181 152.717 167.119 155.672 165.406C157.674 164.246 159.884 164.101 162.148 164.543C167.202 165.538 172.257 166.518 177.318 167.492C179.465 167.906 181.619 168.292 183.891 168.714C183.953 167.892 184.042 167.374 184.015 166.863C183.904 164.882 183.69 162.9 183.628 160.912C183.573 159.255 182.8 158.806 181.205 158.778C169.55 158.585 157.902 158.136 146.392 156.175C140.075 155.098 133.902 154.898 127.585 156.223C123.297 157.128 120.114 158.958 118.243 163.011C117.732 164.115 116.717 164.992 116.31 165.51C114.162 164.826 112.512 164.302 110.862 163.77C109.191 163.225 107.52 162.665 105.849 162.113C105.891 161.947 105.939 161.775 105.981 161.602C106.34 161.643 106.712 161.643 107.065 161.74C109.039 162.272 110.993 162.921 112.989 163.363C116.758 164.198 115.999 164.882 118.063 161.133C119.465 158.599 121.26 156.576 124.119 155.933C127.592 155.146 131.113 154.221 134.641 154.097C138.514 153.959 142.422 154.67 146.316 155.022C147.366 155.119 148.409 155.25 149.631 155.381C147.38 150.79 142.636 148.566 137.292 149.775C131.534 151.073 125.941 151.197 120.439 148.787C118.933 148.131 117.504 148.332 116.123 149.271C111.725 152.267 107.299 155.215 102.887 158.184C102.39 158.516 101.9 158.854 101.403 159.185C101.265 158.992 101.127 158.799 100.982 158.612C104.793 155.733 108.604 152.854 112.92 149.602C111.062 149.374 109.647 148.988 108.252 149.064C104.51 149.264 101.921 151.563 99.6699 154.283C98.4547 155.754 97.3569 157.321 96.3351 158.668C95.5756 158.191 95.0094 157.577 94.3604 157.48C87.4145 156.437 80.586 157.19 73.861 159.068C73.3777 159.206 72.6182 159.807 72.6597 160.083C72.7425 160.608 73.2742 161.098 73.7091 161.505C73.9922 161.768 74.4341 161.871 74.8277 161.996C87.8633 166.187 100.906 170.357 113.935 174.562C118.45 176.019 122.979 176.295 127.605 175.155C130.215 174.513 132.86 173.996 135.476 173.36C137.078 172.974 138.494 172.456 140.351 171.938C142.008 170.744 139.674 170.633 138.432 170.274ZM199.584 94.9878C200.758 94.7392 201.352 94.5804 201.966 94.4907C203.934 94.2007 205.937 94.0626 207.863 93.6138C208.629 93.4343 209.637 92.7093 209.851 92.0258C210.708 89.2364 211.377 86.3779 211.95 83.5126C212.42 81.1651 212.261 78.8245 210.721 76.8084C209.686 75.4482 208.298 74.7439 206.579 75.103C205.004 75.4344 204.563 76.7531 204.314 78.1271C203.596 82.111 201.973 85.6944 199.709 89.0362C198.797 90.3894 197.879 91.7979 197.327 93.3169C195.442 98.5367 193.612 103.777 191.962 109.073C190.429 113.975 189.538 119.112 186.107 123.22C185.858 123.517 185.782 123.966 185.651 124.346C182.372 133.977 180.984 143.892 181.177 154.042C181.191 154.918 181.239 155.795 181.35 156.665C181.391 156.962 181.654 157.439 181.847 157.459C182.164 157.487 182.523 157.231 182.834 157.045C183.311 156.755 183.732 156.244 184.236 156.147C185.555 155.892 185.838 155.112 185.879 153.904C185.962 151.335 186.217 148.767 186.335 146.191C186.611 140.378 188.068 134.896 190.678 129.683C195.076 120.893 199.377 112.063 203.789 103.28C204.535 101.802 204.487 100.718 203.327 99.5102C202.105 98.2329 201.048 96.776 199.584 94.9878ZM150.1 140.419C146.903 141.51 145.84 141.282 143.237 143.167C141.635 144.327 140.123 145.625 138.597 146.896C138.28 147.158 138.086 147.565 137.762 148.007C138.162 148.069 138.335 148.131 138.501 148.125C144.142 147.745 148.388 149.885 151.025 154.988C151.191 155.305 151.578 155.685 151.895 155.726C154.719 156.058 157.543 156.32 160.65 156.631C158.731 133.535 161.347 111.227 168.528 89.0776C165.566 89.8923 163.398 91.1834 162.459 93.5793C159.98 99.8762 157.433 106.18 155.486 112.656C153.152 120.424 153.58 132.783 150.1 140.419ZM183.946 125.354C182.696 125.844 181.274 126.728 179.776 126.907C178.181 127.1 177.725 127.846 177.504 129.186C176.068 138.016 174.625 146.847 173.147 155.671C172.912 157.052 173.451 157.446 174.728 157.411C175.957 157.376 177.193 157.39 178.408 157.521C179.789 157.666 180.162 157.238 180.176 155.795C180.231 151.183 180.169 146.523 180.77 141.966C181.509 136.373 182.862 130.863 183.946 125.354Z" fill="#3C3C3B" stroke="#3C3C3B" stroke-width="0.172612" stroke-miterlimit="10" stroke-linecap="round" stroke-linejoin="round"/>
<path d="M51.5316 112.539C51.1312 113.029 48.5558 121.97 48.3556 122.557C46.0357 129.303 43.702 136.049 41.3337 142.78C39.2279 148.753 37.3637 154.787 36.763 161.126C36.1692 167.353 37.9022 170.205 43.9712 171.897C47.5961 172.905 51.4281 173.436 55.191 173.623C60.7353 173.906 66.3072 173.733 71.8653 173.643C73.0321 173.623 74.1921 173.112 75.352 172.829C75.2968 172.587 75.2416 172.345 75.1863 172.104C74.5995 172.166 74.0057 172.221 73.4188 172.304C64.5258 173.554 55.6743 173.277 46.8642 171.558C44.3165 171.061 43.7779 170.302 43.9436 167.664C44.3579 161.112 46.6778 155.098 49.4672 149.278C54.1208 139.57 57.4004 129.407 59.9965 118.988C60.5765 116.668 61.3429 111.082 51.5316 112.539ZM51 112.325C52.809 110.958 61.3429 110.24 61.3084 117.206C61.1081 118.767 60.6731 120.3 60.2727 121.825C59.4718 124.884 58.6571 127.936 57.7871 130.974C57.5247 131.906 57.5178 132.424 58.657 132.762C68.703 135.717 78.7076 138.817 88.7743 141.703C91.6811 142.539 94.7329 142.939 97.7501 143.291C101.72 143.761 103.971 141.144 103.177 137.25C99.7455 120.334 96.3554 103.411 92.8618 86.5091C91.9987 82.3319 90.7421 78.2376 89.7271 74.0949C88.7881 70.2698 86.3509 68.4747 82.4844 68.1502C66.8527 66.8383 51.2347 65.4436 35.6099 64.0973C33.221 63.8901 30.8183 63.7727 28.4224 63.6761C26.3925 63.5932 25.9506 64.0765 26.4201 66.0581C28.954 76.6979 31.4949 87.3446 34.1255 97.9636C35.9828 105.462 37.992 112.919 39.9252 120.396C40.0771 120.99 41.4442 126.879 41.5547 127.487C41.3959 127.549 40.9609 128.253 40.7952 128.316C40.5121 127.763 39.0898 121.321 38.9379 120.735C35.3683 107.153 31.7849 93.5724 28.2912 79.9706C27.1382 75.4965 26.2199 70.9603 25.198 66.4517C24.5283 63.4828 25.5294 62.24 28.6295 62.4126C47.0437 63.4275 65.4303 64.6772 83.7341 67.0455C87.6075 67.5495 89.8928 69.7451 90.8249 73.363C92.2956 79.0799 93.7593 84.8106 94.9676 90.5897C98.1782 105.938 101.216 121.321 104.392 136.677C105.4 141.551 102.804 145.066 97.8468 144.417C92.3025 143.692 86.7789 142.504 81.3796 141.027C73.8814 138.976 66.4867 136.511 59.0782 134.129C57.504 133.625 56.9171 133.963 56.3095 135.51C53.5547 142.532 50.5995 149.478 47.8032 156.486C47.0299 158.412 46.5397 160.449 45.8147 162.762C46.8642 162.762 47.5409 162.776 48.2106 162.762C57.9321 162.582 66.9769 165.04 75.3728 169.901C76.0149 170.274 76.8779 171.241 76.7675 171.745C76.5603 172.697 75.9044 173.809 75.1035 174.299C74.1714 174.865 72.8664 175.045 71.7272 175.024C64.0702 174.9 56.3993 174.859 48.756 174.389C46.0909 174.23 43.3982 173.174 40.885 172.131C36.7699 170.426 34.8643 167.25 35.2095 162.658C35.6514 156.824 36.9908 151.211 38.931 145.736C41.5064 138.458 44.206 131.222 46.8366 123.959C47.2509 122.833 50.6341 113.457 51 112.325ZM73.84 170.467C73.3498 170.184 72.8733 169.88 72.3762 169.625C65.1403 165.869 57.435 164.019 49.2946 163.936C45.3176 163.894 45.29 163.998 45.1726 167.989C45.1312 169.473 45.7457 170.15 47.1197 170.343C49.6053 170.688 52.084 171.116 54.5765 171.399C60.9838 172.131 67.3705 171.897 73.84 170.467Z" fill="#3C3C3B" stroke="#3C3C3B" stroke-width="0.172612" stroke-miterlimit="10" stroke-linecap="round" stroke-linejoin="round"/>
<path d="M183.891 12.0791C185.859 9.84893 192.591 7.40475 194.669 7.17C197.9 6.81787 200.931 7.70855 203.852 9.02039C204.432 9.28276 204.998 9.58656 205.826 9.60727C205.392 9.24133 204.984 8.83397 204.515 8.52327C199.419 5.18151 193.778 4.8363 187.958 5.60959C182.821 6.29314 178.402 8.68208 174.328 11.7131C171.47 13.8466 168.715 16.1182 166.002 18.4381C162.867 21.1308 160.74 24.5416 159.484 28.4634C158.876 30.3483 160.098 31.9915 161.217 33.4898C159.96 33.1722 158.386 31.9018 158.372 30.5209C158.358 29.1469 158.483 27.6831 158.945 26.4058C160.147 23.0641 162.025 20.0882 164.717 17.72C170.172 12.9145 175.723 8.24709 182.655 5.6165C182.766 5.57507 182.869 5.51293 182.98 5.48531C186.618 4.54631 190.071 3.35183 193.461 1.49453C198.28 -1.14987 203.368 -0.0106345 207.994 2.77186C213.47 6.06529 217.157 11.0434 220.471 16.3391C225.29 24.0307 228.59 32.3989 231.38 40.9949C231.635 41.782 233.755 49.5427 234.011 50.6612C233.79 50.7095 233.051 50.7026 232.83 50.7509C232.595 50.2193 230.531 42.5899 230.358 42.0375C227.237 32.2401 223.343 22.7948 217.467 14.2816C214.146 9.46919 210.383 5.07795 204.818 2.71663C200.275 0.790282 195.87 1.21835 191.631 3.91109C193.219 4.05609 194.814 4.13894 196.395 4.34608C201.477 5.00891 205.882 6.8593 208.699 11.4577C208.878 11.7477 209.12 12.0445 209.403 12.2241C214.795 15.6625 217.509 21.0272 219.684 26.7096C222.128 33.1031 224.379 39.5657 226.706 46.0007C227.714 48.7763 228.715 51.5588 229.695 54.3482C229.799 54.6381 230.786 57.9799 230.786 58.3113C230.634 58.3804 230.13 58.3735 229.978 58.4494C229.64 57.8073 228.487 54.2791 228.245 53.5956C225.069 44.7302 221.983 35.8304 218.745 26.9858C217.067 22.4081 214.927 18.0445 211.302 14.613C210.867 14.1987 210.377 13.8466 209.583 13.1976C215.092 26.4334 217.778 41.6094 222.08 54.7072C221.831 54.8315 221.803 55.4114 221.555 55.5357C221.23 54.9972 220.485 52.4632 220.319 51.8764C218.255 44.7372 216.287 37.5772 214.188 30.4518C212.862 25.9639 211.509 21.476 209.907 17.0848C207.739 11.1401 199.93 6.95596 193.737 8.35757C192.39 8.66136 187.764 11.2091 186.515 11.8996C186.508 11.8996 183.891 12.0791 183.891 12.0791Z" fill="#3C3C3B" stroke="#3C3C3B" stroke-width="0.172612" stroke-miterlimit="10" stroke-linecap="round" stroke-linejoin="round"/>
<path d="M205.238 183.758C209.402 184.87 213.648 185.761 217.715 187.155C222.444 188.771 227.167 188.453 231.938 187.901C239.609 187.004 247.266 185.982 254.937 185.091C257.077 184.842 259.266 184.725 261.413 184.856C264.472 185.05 265.825 186.486 266.011 189.544C266.17 192.168 266.143 194.806 266.156 197.443C266.156 197.926 265.991 198.417 265.894 198.9C265.714 198.928 265.535 198.948 265.355 198.976C265.19 198.396 264.907 197.823 264.886 197.236C264.81 194.957 264.844 192.672 264.782 190.394C264.693 187.204 263.664 186.037 260.419 186.044C257.27 186.058 254.108 186.341 250.973 186.693C243.075 187.577 235.183 188.557 226.863 189.551C240.216 193.487 253.279 197.339 266.336 201.192C266.294 201.461 266.253 201.731 266.212 202C265.528 201.938 264.817 201.986 264.175 201.793C254.412 198.907 244.677 195.938 234.907 193.086C224.46 190.041 213.986 187.093 203.519 184.152C202.835 183.959 202 184.048 201.303 184.228C195.027 185.85 189.206 187.618 183.096 189.441C182.46 189.634 181.646 189.413 180.941 189.185C190.173 186.334 197.457 183.607 206.074 181.853C206.094 181.687 206.122 181.528 206.143 181.363C203.132 180.541 200.115 179.726 197.105 178.905C197.091 178.753 189.455 177.027 189.441 176.875C189.655 176.384 189.717 175.963 190.083 176.053C193.887 176.999 205.915 180.065 209.698 181.079C209.982 181.155 210.203 181.473 210.872 182.032C208.725 182.536 206.978 182.951 205.231 183.365C205.231 183.496 205.231 183.627 205.238 183.758Z" fill="#3C3C3B" stroke="#3C3C3B" stroke-width="0.172612" stroke-miterlimit="10"/>
<path d="M98.2535 143.961C98.1223 143.119 97.6873 140.378 97.5769 139.784C95.326 127.522 93.2685 115.225 90.8381 102.997C88.8289 92.9096 86.3847 82.9119 84.1477 72.8659C83.7403 71.0362 82.7806 70.1732 80.7852 70.0144C64.5666 68.7094 48.3549 67.3078 32.1432 65.9269C31.2457 65.851 26.9649 65.4298 26.0742 65.3193C26.088 65.1744 26.0949 65.0294 26.1087 64.8844C27.5242 64.8844 32.3435 65.0777 33.752 65.1882C49.7427 66.431 65.7266 67.7152 81.7173 68.9718C83.1672 69.0892 83.982 69.7175 84.4722 71.1743C87.8485 81.1789 89.9267 91.4872 91.8807 101.83C94.242 114.369 96.5274 126.914 98.8266 139.466C98.937 140.081 99.441 143.015 99.5446 143.947C99.3651 143.989 98.4261 143.913 98.2535 143.961Z" fill="#3C3C3B" stroke="#3C3C3B" stroke-width="0.172612" stroke-miterlimit="10"/>
<path d="M159.766 58.2078C159.151 56.3228 158.592 54.4241 158.896 52.3666C158.999 51.6761 159.082 50.9374 159.393 50.3229C161.623 45.8902 161.754 41.2573 161.022 36.4587C160.65 34.0352 161.098 31.667 162.845 29.7338C163.964 28.491 165.462 27.9179 167.154 27.6141C168.369 27.4001 170.689 27.2758 171.89 27.4415C171.151 27.7246 169.121 28.201 168.072 28.3805C164.122 29.064 162.224 30.7694 162.203 34.7947C162.189 36.6589 162.679 38.537 162.583 40.3873C162.459 42.7418 162.362 45.2205 161.568 47.3954C160.353 50.7095 159.269 53.9063 160.346 57.4483C160.408 57.6485 160.318 57.8902 160.297 58.1111C160.111 58.1387 159.938 58.1732 159.766 58.2078Z" fill="#3C3C3B" stroke="#3C3C3B" stroke-width="0.172612" stroke-miterlimit="10" stroke-linecap="round" stroke-linejoin="round"/>
<path d="M189.973 10.0422C189.449 10.4634 187.578 11.3955 186.991 11.6717C184.712 12.735 183.718 13.5497 181.495 14.6958C176.744 17.1469 172.988 22.0698 171.573 27.552C169.081 22.2493 181.584 10.5117 189.435 9.42775L189.973 10.0422Z" fill="#3C3C3B" stroke="#3C3C3B" stroke-width="0.172612" stroke-miterlimit="10" stroke-linecap="round" stroke-linejoin="round"/>
<path d="M170.052 56.813C168.54 57.4621 164.584 56.8821 163.983 56.0467C163.707 55.66 163.583 55.0731 163.597 54.5829C163.611 53.9546 163.749 53.2849 163.99 52.7049C165.606 48.8315 165.813 44.9995 163.645 41.209C165.91 43.5289 166.807 46.843 166.096 49.8395C165.986 50.2952 165.875 50.7509 165.73 51.1928C164.481 55.1767 164.481 55.1629 168.444 56.0674C168.92 56.1778 169.355 56.4816 170.052 56.813Z" fill="#3C3C3B"/>
<path d="M172.043 60.7348C171.235 61.6807 170.586 62.4471 170.041 63.0892C169.198 62.1985 168.225 61.4874 167.721 60.5346C167.369 59.8579 167.652 58.8499 167.983 57.7866C167.997 60.7141 170.241 60.4241 172.043 60.7348Z" fill="#3C3C3B"/>
<path d="M197.838 168.645C197.886 169.722 198.514 174.803 198.01 175.432C197.485 176.088 191.7 176.557 190.588 175.093C197.934 175.169 197.513 173.367 197.03 170.288C197.258 170.329 197.603 168.603 197.838 168.645Z" fill="#3C3C3B" stroke="#3C3C3B" stroke-width="0.172612" stroke-miterlimit="10" stroke-linejoin="round"/>
<path d="M45.6286 130.463C45.3248 129.172 40.9405 129.655 40.6367 128.364C40.6367 127.535 41.5067 128.019 41.6931 127.349C42.9704 128.371 45.9048 127.694 46.2155 128.985C45.9324 129.047 45.9117 130.401 45.6286 130.463Z" fill="#3C3C3B"/>
<path d="M117.476 160.573C116.82 160.656 116.475 160.787 116.178 160.718C115.591 160.58 114.79 160.477 114.534 160.069C114.341 159.765 114.686 158.854 115.066 158.481C115.756 157.798 116.64 157.307 117.455 156.748C118.339 156.147 119.064 155.429 118.477 154.297C117.883 153.165 116.896 153.531 116.033 153.931C112.373 155.623 108.693 157.266 105.103 159.089C103.584 159.862 102.134 160.905 101.43 162.651C103.163 161.788 104.626 160.559 106.27 159.648C107.996 158.688 109.888 158.025 111.71 157.231C113.402 156.5 115.094 155.775 116.944 154.981C115.522 156.41 114.168 157.515 113.153 158.875C112.332 159.979 113.022 161.195 114.617 161.816C115.715 162.258 116.854 162.5 117.476 160.573ZM139.591 160.401C138.224 159.503 131.022 159.227 128.875 159.979C124.594 161.478 121.439 164.654 118.056 167.492C119.657 166.822 121.197 166.007 122.481 164.909C126.382 161.554 130.794 160.09 135.917 160.822C136.608 160.918 137.319 160.891 138.016 160.836C138.479 160.787 138.914 160.587 139.591 160.401Z" fill="white"/>
<path d="M117.477 160.573C116.855 162.5 115.716 162.258 114.611 161.823C113.016 161.202 112.326 159.979 113.148 158.882C114.163 157.521 115.516 156.417 116.938 154.988C115.088 155.782 113.396 156.507 111.705 157.238C109.882 158.025 107.99 158.688 106.264 159.655C104.621 160.566 103.157 161.795 101.424 162.658C102.121 160.912 103.571 159.869 105.097 159.096C108.687 157.273 112.374 155.63 116.027 153.938C116.897 153.538 117.884 153.172 118.471 154.304C119.065 155.436 118.34 156.154 117.449 156.755C116.634 157.307 115.751 157.805 115.06 158.488C114.687 158.861 114.335 159.765 114.528 160.076C114.791 160.483 115.585 160.587 116.172 160.725C116.476 160.787 116.821 160.656 117.477 160.573Z" fill="#3C3C3B"/>
<path d="M139.591 160.401C138.914 160.594 138.472 160.787 138.023 160.829C137.326 160.884 136.615 160.912 135.924 160.815C130.801 160.083 126.389 161.554 122.488 164.902C121.204 166.007 119.664 166.815 118.062 167.485C121.446 164.647 124.601 161.471 128.882 159.973C131.029 159.227 138.224 159.503 139.591 160.401Z" fill="#3C3C3B"/>
</g>
<defs>
<clipPath id="clip0_144_78">
<rect width="315" height="202" fill="white"/>
</clipPath>
</defs>
</svg>
