<svg width="357" height="46" viewBox="0 0 357 46" fill="none" xmlns="http://www.w3.org/2000/svg">
<g clip-path="url(#clip0_58_1221)">
<path d="M297.006 12.4089C290.045 12.4089 285.71 16.9625 285.71 24.3182C285.71 31.3237 290.614 36.2056 297.663 36.2056C301.013 36.2056 304.231 34.7826 306.07 32.5059L306.289 32.2213C306.464 32.0023 306.442 31.674 306.245 31.455L305.435 30.6231C305.325 30.5137 305.172 30.448 305.019 30.448C304.866 30.448 304.713 30.5356 304.603 30.645L304.34 30.9515C302.83 32.681 300.29 33.7756 297.707 33.7756C292.059 33.7756 288.534 30.4261 288.184 24.7561H306.748C307.055 24.7561 307.318 24.4933 307.318 24.1869V23.7928C307.318 23.6177 307.318 23.4644 307.34 23.2893C307.361 23.0923 307.361 22.9171 307.361 22.6982C307.296 16.656 303.049 12.4089 297.006 12.4089ZM288.184 22.4136C288.841 17.6192 292.037 14.7951 296.788 14.7951C299.218 14.7951 301.254 15.5614 302.677 17.0281C303.99 18.3636 304.734 20.2025 304.866 22.4136H288.184Z" fill="#4F78BB"/>
<path d="M344.778 12.4089C342.151 12.4089 339.327 13.3503 337.247 14.8827V13.3503C337.247 13.0438 336.984 12.7811 336.678 12.7811H335.43C335.123 12.7811 334.861 13.0438 334.861 13.3503V44.656C334.861 44.9625 335.123 45.2252 335.43 45.2252H336.678C336.984 45.2252 337.247 44.9625 337.247 44.656V34.6513C339.195 35.6583 341.625 36.2056 344.209 36.2056C351.061 36.2056 355.833 31.1704 355.833 23.9679C355.811 16.9406 351.477 12.4089 344.778 12.4089ZM353.447 24.0993C353.425 29.8131 349.66 33.7975 344.252 33.7975C341.538 33.7975 339.239 33.1407 337.247 31.7615V18.0352C338.582 16.4152 341.713 14.7733 344.778 14.7733C350.119 14.7951 353.447 18.3636 353.447 24.0993Z" fill="#4F78BB"/>
<path d="M320.981 12.4089C314.019 12.4089 309.685 16.9625 309.685 24.3182C309.685 31.3237 314.589 36.2056 321.638 36.2056C324.966 36.2056 328.184 34.7826 330.044 32.5059L330.263 32.2213C330.439 32.0023 330.417 31.674 330.22 31.455L329.388 30.6231C329.278 30.5137 329.103 30.4261 328.972 30.448C328.819 30.448 328.665 30.5356 328.556 30.645L328.293 30.9515C326.783 32.681 324.243 33.7756 321.66 33.7756C316.012 33.7756 312.487 30.4261 312.137 24.7561H330.701C331.008 24.7561 331.27 24.4933 331.27 24.1869V23.7928C331.27 23.6396 331.27 23.4863 331.292 23.3112C331.314 23.1141 331.314 22.9171 331.314 22.6982C331.314 19.7428 330.285 17.0938 328.424 15.233C326.542 13.4159 323.915 12.4089 320.981 12.4089ZM312.202 22.4136C312.859 17.6192 316.034 14.7951 320.806 14.7951C323.236 14.7951 325.272 15.5614 326.695 17.0281C327.987 18.3417 328.753 20.2025 328.884 22.4136H312.202Z" fill="#4F78BB"/>
<path d="M285.606 32.5262C285.519 32.3949 285.387 32.3073 285.234 32.2854C285.081 32.2635 284.928 32.2854 284.796 32.3949L284.468 32.6357C283.877 33.0954 282.717 33.577 281.578 33.577C279.739 33.577 278.732 32.8327 278.732 28.9359V1.59264C278.732 1.28614 278.47 1.02344 278.163 1.02344H276.915C276.609 1.02344 276.346 1.28614 276.346 1.59264V29.6365C276.346 33.8835 278.054 35.9414 281.578 35.9414C283.089 35.9414 284.709 35.4379 285.891 34.5841L286.197 34.3652C286.46 34.19 286.504 33.8397 286.351 33.577L285.606 32.5262Z" fill="#4F78BB"/>
<path d="M266.361 23.0908C266.339 23.0689 266.296 23.0689 266.274 23.047C263.384 22.1056 260.888 21.2956 260.888 18.3402C260.888 16.3261 262.881 14.7937 265.508 14.7937C267.478 14.7937 269.142 15.4066 270.214 16.5012L270.521 16.8077C270.63 16.9172 270.762 16.9829 270.937 16.9829C271.09 16.9829 271.243 16.9172 271.353 16.7858L272.185 15.8226C272.382 15.6037 272.36 15.2753 272.185 15.0564L271.966 14.8156C270.674 13.3488 268.135 12.3855 265.617 12.3855C261.37 12.3855 258.502 14.7937 258.502 18.384C258.502 23.0689 262.377 24.3167 265.486 25.3457C268.66 26.3746 270.63 27.1408 270.63 29.6584C270.63 32.5263 267.938 33.8179 265.267 33.8179C263.515 33.8179 261.042 33.0079 260.078 31.6944L259.859 31.3879C259.684 31.1252 259.334 31.0595 259.071 31.2346L258.02 31.9352C257.889 32.0228 257.802 32.1541 257.78 32.3074C257.758 32.4606 257.78 32.6138 257.867 32.7452L258.086 33.0517C259.312 34.9344 262.815 36.2041 265.311 36.2041C269.995 36.2041 273.038 33.6209 273.038 29.6146C272.995 25.2362 269.426 24.0759 266.361 23.0908Z" fill="#4F78BB"/>
<path d="M156.318 12.4089C149.356 12.4089 145.022 16.9625 145.022 24.2963C145.022 31.3018 149.926 36.1837 156.975 36.1837C160.324 36.1837 163.543 34.7607 165.381 32.484L165.6 32.1994C165.776 31.9804 165.754 31.6521 165.557 31.4331L164.747 30.6231C164.637 30.5137 164.484 30.4261 164.331 30.448C164.177 30.448 164.024 30.5356 163.915 30.645L163.652 30.9734C162.141 32.7029 159.602 33.7975 157.019 33.7975C151.371 33.7975 147.846 30.448 147.496 24.7779H166.038C166.345 24.7779 166.607 24.5152 166.607 24.2087V23.8147C166.607 23.6614 166.607 23.5082 166.629 23.3331C166.651 23.136 166.651 22.939 166.651 22.7201C166.607 16.656 162.382 12.4089 156.318 12.4089ZM147.518 22.4136C148.174 17.6192 151.371 14.7951 156.121 14.7951C158.551 14.7951 160.587 15.5614 162.01 17.0281C163.324 18.3636 164.068 20.2244 164.199 22.4136H147.518Z" fill="#4F78BB"/>
<path d="M132.128 12.4089C129.61 12.4089 126.72 13.4159 124.597 15.0141V1.61607C124.597 1.30958 124.334 1.04688 124.028 1.04688H122.758C122.452 1.04688 122.189 1.30958 122.189 1.61607V32.8123C122.189 32.9875 122.254 33.1407 122.386 33.2502L122.517 33.3596C124.75 35.2861 127.552 36.2275 131.077 36.2275C138.301 36.2275 143.161 31.3237 143.161 23.9898C143.183 16.9624 138.849 12.4089 132.128 12.4089ZM124.597 18.2103C125.954 16.5465 129.15 14.817 132.128 14.817C137.469 14.817 140.775 18.3854 140.775 24.1431C140.775 26.9671 139.856 29.3753 138.082 31.1485C136.331 32.8999 133.923 33.8413 131.121 33.8413C129.282 33.8413 127.093 33.6223 124.575 31.9585V18.2103H124.597Z" fill="#4F78BB"/>
<path d="M209.055 12.7812H207.807C207.5 12.7812 207.238 13.0439 207.238 13.3504V29.9884C205.968 31.5865 202.728 33.8195 199.422 33.8195C194.409 33.8195 192.263 31.302 192.263 25.4349V13.3504C192.263 13.0439 192.001 12.7812 191.694 12.7812H190.446C190.14 12.7812 189.877 13.0439 189.877 13.3504V25.5662C189.877 32.7249 192.964 36.2057 199.335 36.2057C202.421 36.2057 205.333 34.739 207.26 33.2285V35.2645C207.26 35.5709 207.522 35.8336 207.829 35.8336H209.077C209.383 35.8336 209.646 35.5709 209.646 35.2645V13.3723C209.646 13.0439 209.383 12.7812 209.055 12.7812Z" fill="#4F78BB"/>
<path d="M238.853 35.2397L247.763 13.5665C247.829 13.3914 247.807 13.1944 247.72 13.0411C247.61 12.8879 247.435 12.7784 247.238 12.7784H245.859C245.618 12.7784 245.421 12.9098 245.333 13.1287L237.627 32.0873L227.929 13.0849C227.841 12.8879 227.644 12.7784 227.426 12.7784H226.024C226.003 12.7784 226.003 12.7784 225.981 12.7784H216.107V7.48057C216.107 7.17409 215.845 6.91138 215.538 6.91138H214.29C213.984 6.91138 213.721 7.17409 213.721 7.48057V26.8331C213.721 32.9192 216.261 36.0059 221.296 36.0059C222.806 36.0059 224.426 35.5024 225.608 34.6486L225.915 34.4297C226.178 34.2546 226.243 33.9043 226.068 33.6416L225.346 32.547C225.258 32.4156 225.127 32.3281 224.952 32.3062C224.798 32.2843 224.623 32.3281 224.514 32.4156L224.207 32.6565C223.594 33.1162 222.456 33.5978 221.318 33.5978C217.64 33.5978 216.129 31.5181 216.129 26.3953V15.1865H226.331L236.467 34.9113L236.16 35.6338C234.015 40.8441 232.307 42.8801 230.096 42.8801C229.483 42.8801 228.761 42.683 227.754 42.2452L227.404 42.092C227.119 41.9606 226.791 42.092 226.659 42.3765L226.156 43.5149C226.09 43.6463 226.09 43.8214 226.134 43.9528C226.2 44.106 226.309 44.2155 226.44 44.2812L226.813 44.4344C228.017 44.9598 229.133 45.2225 230.206 45.2225C233.599 45.2225 235.81 42.7049 238.853 35.2397Z" fill="#4F78BB"/>
<path d="M177.031 12.4089C174.601 12.4089 172.565 13.0219 170.223 14.4887L169.894 14.6857C169.763 14.7733 169.675 14.8827 169.632 15.036C169.588 15.1892 169.632 15.3424 169.697 15.4738L170.332 16.5027C170.485 16.7654 170.836 16.853 171.098 16.6998L171.427 16.5027C173.331 15.3643 174.645 14.817 176.9 14.817C182.132 14.817 182.898 17.2252 182.964 23.0704C180.775 22.0633 178.432 21.8882 177.141 21.8882C171.689 21.8882 168.143 24.7561 168.143 29.1783C168.143 33.2721 171.164 36.0086 175.674 36.0086C178.607 36.0086 181.015 35.1548 182.964 33.3815V35.2424C182.964 35.5489 183.227 35.8116 183.533 35.8116H184.781C185.087 35.8116 185.35 35.5489 185.35 35.2424V21.6474C185.416 15.43 182.679 12.4089 177.031 12.4089ZM183.03 25.8507V29.8131C181.607 31.7177 179.614 33.6224 175.696 33.6224C172.653 33.6224 170.595 31.8272 170.595 29.1345C170.595 27.9304 170.989 26.9015 171.799 26.0915C172.959 24.9312 174.886 24.2744 177.097 24.2744C179.374 24.2744 181.366 24.8217 183.03 25.8507Z" fill="#4F78BB"/>
<path d="M297.007 12.4089C290.045 12.4089 285.71 16.9625 285.71 24.3183C285.71 31.3237 290.614 36.2057 297.663 36.2057C301.013 36.2057 304.231 34.7827 306.07 32.5059L306.289 32.2213C306.464 32.0024 306.442 31.674 306.245 31.4551L305.435 30.6232C305.326 30.5137 305.172 30.448 305.019 30.448C304.866 30.448 304.713 30.5356 304.603 30.6451L304.34 30.9516C302.83 32.681 300.29 33.7757 297.707 33.7757C292.059 33.7757 288.534 30.4262 288.184 24.7561H306.749C307.055 24.7561 307.318 24.4934 307.318 24.1869V23.7928C307.318 23.6177 307.318 23.4645 307.34 23.2893C307.362 23.0923 307.362 22.9172 307.362 22.6982C307.296 16.656 303.049 12.4089 297.007 12.4089ZM288.184 22.4136C288.841 17.6193 292.037 14.7952 296.788 14.7952C299.218 14.7952 301.254 15.5614 302.677 17.0282C303.99 18.3636 304.734 20.2025 304.866 22.4136H288.184Z" fill="#4F6FC1"/>
<path d="M344.778 12.4089C342.151 12.4089 339.327 13.3503 337.247 14.8828V13.3503C337.247 13.0438 336.984 12.7811 336.678 12.7811H335.43C335.123 12.7811 334.861 13.0438 334.861 13.3503V44.656C334.861 44.9625 335.123 45.2252 335.43 45.2252H336.678C336.984 45.2252 337.247 44.9625 337.247 44.656V34.6513C339.195 35.6584 341.625 36.2057 344.209 36.2057C351.061 36.2057 355.833 31.1705 355.833 23.968C355.811 16.9406 351.477 12.4089 344.778 12.4089ZM353.447 24.0993C353.425 29.8132 349.66 33.7975 344.252 33.7975C341.538 33.7975 339.239 33.1408 337.247 31.7616V18.0352C338.582 16.4152 341.713 14.7733 344.778 14.7733C350.119 14.7952 353.447 18.3636 353.447 24.0993Z" fill="#4F6FC1"/>
<path d="M320.981 12.4089C314.02 12.4089 309.685 16.9625 309.685 24.3183C309.685 31.3237 314.589 36.2057 321.638 36.2057C324.966 36.2057 328.184 34.7827 330.045 32.5059L330.263 32.2213C330.439 32.0024 330.417 31.674 330.22 31.4551L329.388 30.6232C329.278 30.5137 329.103 30.4262 328.972 30.448C328.819 30.448 328.665 30.5356 328.556 30.6451L328.293 30.9516C326.783 32.681 324.243 33.7757 321.66 33.7757C316.012 33.7757 312.487 30.4262 312.137 24.7561H330.701C331.008 24.7561 331.27 24.4934 331.27 24.1869V23.7928C331.27 23.6396 331.27 23.4864 331.292 23.3112C331.314 23.1142 331.314 22.9172 331.314 22.6982C331.314 19.7428 330.285 17.0939 328.425 15.233C326.542 13.416 323.915 12.4089 320.981 12.4089ZM312.202 22.4136C312.859 17.6193 316.034 14.7952 320.806 14.7952C323.236 14.7952 325.272 15.5614 326.695 17.0282C327.987 18.3417 328.753 20.2025 328.884 22.4136H312.202Z" fill="#4F6FC1"/>
<path d="M285.606 32.5289C285.519 32.3975 285.387 32.3099 285.234 32.2881C285.081 32.2662 284.928 32.288 284.796 32.3975L284.468 32.6383C283.877 33.0981 282.717 33.5797 281.578 33.5797C279.739 33.5797 278.732 32.8354 278.732 28.9386V1.59532C278.732 1.28883 278.47 1.02612 278.163 1.02612H276.915C276.609 1.02612 276.346 1.28883 276.346 1.59532V29.6391C276.346 33.8862 278.054 35.944 281.578 35.944C283.089 35.944 284.709 35.4405 285.891 34.5867L286.197 34.3678C286.46 34.1927 286.504 33.8424 286.351 33.5797L285.606 32.5289Z" fill="#4F6FC1"/>
<path d="M266.361 23.0907C266.34 23.0688 266.296 23.0688 266.274 23.0469C263.384 22.1056 260.888 21.2956 260.888 18.3401C260.888 16.3261 262.881 14.7936 265.508 14.7936C267.478 14.7936 269.142 15.4066 270.214 16.5012L270.521 16.8077C270.63 16.9171 270.762 16.9828 270.937 16.9828C271.09 16.9828 271.243 16.9171 271.353 16.7858L272.185 15.8225C272.382 15.6036 272.36 15.2752 272.185 15.0563L271.966 14.8155C270.674 13.3487 268.135 12.3855 265.617 12.3855C261.37 12.3855 258.502 14.7936 258.502 18.3839C258.502 23.0688 262.377 24.3167 265.486 25.3456C268.66 26.3745 270.63 27.1408 270.63 29.6584C270.63 32.5262 267.938 33.8179 265.267 33.8179C263.515 33.8179 261.042 33.0078 260.078 31.6943L259.859 31.3878C259.684 31.1251 259.334 31.0594 259.071 31.2346L258.021 31.9351C257.889 32.0227 257.802 32.1541 257.78 32.3073C257.758 32.4605 257.78 32.6138 257.867 32.7451L258.086 33.0516C259.312 34.9344 262.815 36.2041 265.311 36.2041C269.995 36.2041 273.039 33.6208 273.039 29.6146C272.995 25.2361 269.426 24.0759 266.361 23.0907Z" fill="#4F6FC1"/>
<path d="M156.318 12.4089C149.356 12.4089 145.022 16.9625 145.022 24.2964C145.022 31.3018 149.926 36.1838 156.975 36.1838C160.324 36.1838 163.543 34.7608 165.381 32.484L165.6 32.1994C165.776 31.9805 165.754 31.6521 165.557 31.4332L164.747 30.6232C164.637 30.5137 164.484 30.4262 164.331 30.448C164.177 30.448 164.024 30.5356 163.915 30.6451L163.652 30.9735C162.141 32.7029 159.602 33.7975 157.019 33.7975C151.371 33.7975 147.846 30.448 147.496 24.778H166.038C166.345 24.778 166.607 24.5153 166.607 24.2088V23.8147C166.607 23.6615 166.607 23.5082 166.629 23.3331C166.651 23.1361 166.651 22.9391 166.651 22.7201C166.607 16.656 162.382 12.4089 156.318 12.4089ZM147.518 22.4136C148.174 17.6193 151.371 14.7952 156.121 14.7952C158.551 14.7952 160.587 15.5614 162.01 17.0282C163.324 18.3636 164.068 20.2244 164.199 22.4136H147.518Z" fill="#4F6FC1"/>
<path d="M132.128 12.4088C129.61 12.4088 126.72 13.4159 124.597 15.014V1.61607C124.597 1.30958 124.334 1.04688 124.028 1.04688H122.758C122.452 1.04688 122.189 1.30958 122.189 1.61607V32.8123C122.189 32.9874 122.254 33.1407 122.386 33.2501L122.517 33.3596C124.75 35.2861 127.552 36.2274 131.077 36.2274C138.301 36.2274 143.161 31.3236 143.161 23.9898C143.183 16.9624 138.849 12.4088 132.128 12.4088ZM124.597 18.2102C125.954 16.5464 129.15 14.817 132.128 14.817C137.469 14.817 140.775 18.3854 140.775 24.143C140.775 26.9671 139.856 29.3752 138.082 31.1485C136.331 32.8999 133.923 33.8412 131.121 33.8412C129.282 33.8412 127.093 33.6223 124.575 31.9585V18.2102H124.597Z" fill="#4F6FC1"/>
<path d="M209.055 12.7812H207.807C207.5 12.7812 207.238 13.0439 207.238 13.3504V29.9884C205.968 31.5865 202.728 33.8195 199.422 33.8195C194.409 33.8195 192.263 31.3019 192.263 25.4349V13.3504C192.263 13.0439 192.001 12.7812 191.694 12.7812H190.446C190.14 12.7812 189.877 13.0439 189.877 13.3504V25.5662C189.877 32.7249 192.964 36.2059 199.335 36.2059C202.421 36.2059 205.333 34.739 207.26 33.2284V35.2644C207.26 35.5709 207.522 35.8337 207.829 35.8337H209.077C209.383 35.8337 209.646 35.5709 209.646 35.2644V13.3723C209.646 13.0439 209.383 12.7812 209.055 12.7812Z" fill="#4F6FC1"/>
<path d="M238.853 35.2398L247.763 13.5666C247.829 13.3914 247.807 13.1944 247.72 13.0412C247.61 12.8879 247.435 12.7785 247.238 12.7785H245.859C245.618 12.7785 245.421 12.9098 245.333 13.1287L237.627 32.0873L227.929 13.085C227.841 12.8879 227.644 12.7785 227.426 12.7785H226.024C226.003 12.7785 226.003 12.7785 225.981 12.7785H216.107V7.48057C216.107 7.17408 215.845 6.91138 215.538 6.91138H214.29C213.984 6.91138 213.721 7.17408 213.721 7.48057V26.8332C213.721 32.9192 216.261 36.006 221.296 36.006C222.806 36.006 224.426 35.5025 225.608 34.6487L225.915 34.4298C226.178 34.2546 226.243 33.9043 226.068 33.6416L225.346 32.547C225.258 32.4157 225.127 32.3281 224.952 32.3062C224.798 32.2843 224.623 32.3281 224.514 32.4157L224.207 32.6565C223.594 33.1162 222.456 33.5979 221.318 33.5979C217.64 33.5979 216.129 31.5181 216.129 26.3954V15.1866H226.331L236.467 34.9114L236.16 35.6338C234.015 40.8441 232.307 42.8801 230.096 42.8801C229.483 42.8801 228.761 42.6831 227.754 42.2452L227.404 42.092C227.119 41.9606 226.791 42.092 226.659 42.3766L226.156 43.515C226.09 43.6463 226.09 43.8215 226.134 43.9528C226.2 44.1061 226.309 44.2155 226.44 44.2812L226.813 44.4345C228.017 44.9599 229.133 45.2226 230.206 45.2226C233.599 45.2226 235.81 42.705 238.853 35.2398Z" fill="#4F6FC1"/>
<path d="M177.031 12.4089C174.601 12.4089 172.565 13.0219 170.223 14.4887L169.894 14.6857C169.763 14.7733 169.675 14.8828 169.632 15.036C169.588 15.1892 169.632 15.3425 169.697 15.4738L170.332 16.5028C170.485 16.7655 170.836 16.853 171.098 16.6998L171.427 16.5028C173.331 15.3644 174.645 14.8171 176.9 14.8171C182.132 14.8171 182.898 17.2252 182.964 23.0704C180.775 22.0634 178.432 21.8882 177.141 21.8882C171.689 21.8882 168.143 24.7561 168.143 29.1783C168.143 33.2721 171.164 36.0086 175.674 36.0086C178.607 36.0086 181.015 35.1549 182.964 33.3816V35.2424C182.964 35.5489 183.227 35.8116 183.533 35.8116H184.781C185.087 35.8116 185.35 35.5489 185.35 35.2424V21.6474C185.416 15.4301 182.679 12.4089 177.031 12.4089ZM183.03 25.8507V29.8132C181.607 31.7178 179.614 33.6224 175.696 33.6224C172.653 33.6224 170.595 31.8273 170.595 29.1345C170.595 27.9305 170.989 26.9015 171.799 26.0915C172.959 24.9312 174.886 24.2745 177.097 24.2745C179.374 24.2745 181.366 24.8218 183.03 25.8507Z" fill="#4F6FC1"/>
<path d="M297.007 12.4089C290.045 12.4089 285.71 16.9625 285.71 24.3183C285.71 31.3237 290.614 36.2057 297.663 36.2057C301.013 36.2057 304.231 34.7827 306.07 32.5059L306.289 32.2213C306.464 32.0024 306.442 31.674 306.245 31.4551L305.435 30.6232C305.326 30.5137 305.172 30.448 305.019 30.448C304.866 30.448 304.713 30.5356 304.603 30.6451L304.34 30.9516C302.83 32.681 300.29 33.7757 297.707 33.7757C292.059 33.7757 288.534 30.4262 288.184 24.7561H306.749C307.055 24.7561 307.318 24.4934 307.318 24.1869V23.7928C307.318 23.6177 307.318 23.4645 307.34 23.2893C307.362 23.0923 307.362 22.9172 307.362 22.6982C307.296 16.656 303.049 12.4089 297.007 12.4089ZM288.184 22.4136C288.841 17.6193 292.037 14.7952 296.788 14.7952C299.218 14.7952 301.254 15.5614 302.677 17.0282C303.99 18.3636 304.734 20.2025 304.866 22.4136H288.184Z" stroke="#4F6FC1" stroke-width="0.3"/>
<path d="M344.778 12.4089C342.151 12.4089 339.327 13.3503 337.247 14.8828V13.3503C337.247 13.0438 336.984 12.7811 336.678 12.7811H335.43C335.123 12.7811 334.861 13.0438 334.861 13.3503V44.656C334.861 44.9625 335.123 45.2252 335.43 45.2252H336.678C336.984 45.2252 337.247 44.9625 337.247 44.656V34.6513C339.195 35.6584 341.625 36.2057 344.209 36.2057C351.061 36.2057 355.833 31.1705 355.833 23.968C355.811 16.9406 351.477 12.4089 344.778 12.4089ZM353.447 24.0993C353.425 29.8132 349.66 33.7975 344.252 33.7975C341.538 33.7975 339.239 33.1408 337.247 31.7616V18.0352C338.582 16.4152 341.713 14.7733 344.778 14.7733C350.119 14.7952 353.447 18.3636 353.447 24.0993Z" stroke="#4F6FC1" stroke-width="0.3"/>
<path d="M320.981 12.4089C314.02 12.4089 309.685 16.9625 309.685 24.3183C309.685 31.3237 314.589 36.2057 321.638 36.2057C324.966 36.2057 328.184 34.7827 330.045 32.5059L330.263 32.2213C330.439 32.0024 330.417 31.674 330.22 31.4551L329.388 30.6232C329.278 30.5137 329.103 30.4262 328.972 30.448C328.819 30.448 328.665 30.5356 328.556 30.6451L328.293 30.9516C326.783 32.681 324.243 33.7757 321.66 33.7757C316.012 33.7757 312.487 30.4262 312.137 24.7561H330.701C331.008 24.7561 331.27 24.4934 331.27 24.1869V23.7928C331.27 23.6396 331.27 23.4864 331.292 23.3112C331.314 23.1142 331.314 22.9172 331.314 22.6982C331.314 19.7428 330.285 17.0939 328.425 15.233C326.542 13.416 323.915 12.4089 320.981 12.4089ZM312.202 22.4136C312.859 17.6193 316.034 14.7952 320.806 14.7952C323.236 14.7952 325.272 15.5614 326.695 17.0282C327.987 18.3417 328.753 20.2025 328.884 22.4136H312.202Z" stroke="#4F6FC1" stroke-width="0.3"/>
<path d="M285.606 32.5289C285.519 32.3975 285.387 32.3099 285.234 32.2881C285.081 32.2662 284.928 32.288 284.796 32.3975L284.468 32.6383C283.877 33.0981 282.717 33.5797 281.578 33.5797C279.739 33.5797 278.732 32.8354 278.732 28.9386V1.59532C278.732 1.28883 278.47 1.02612 278.163 1.02612H276.915C276.609 1.02612 276.346 1.28883 276.346 1.59532V29.6391C276.346 33.8862 278.054 35.944 281.578 35.944C283.089 35.944 284.709 35.4405 285.891 34.5867L286.197 34.3678C286.46 34.1927 286.504 33.8424 286.351 33.5797L285.606 32.5289Z" stroke="#4F6FC1" stroke-width="0.3"/>
<path d="M266.361 23.0907C266.34 23.0688 266.296 23.0688 266.274 23.0469C263.384 22.1056 260.888 21.2956 260.888 18.3401C260.888 16.3261 262.881 14.7936 265.508 14.7936C267.478 14.7936 269.142 15.4066 270.214 16.5012L270.521 16.8077C270.63 16.9171 270.762 16.9828 270.937 16.9828C271.09 16.9828 271.243 16.9171 271.353 16.7858L272.185 15.8225C272.382 15.6036 272.36 15.2752 272.185 15.0563L271.966 14.8155C270.674 13.3487 268.135 12.3855 265.617 12.3855C261.37 12.3855 258.502 14.7936 258.502 18.3839C258.502 23.0688 262.377 24.3167 265.486 25.3456C268.66 26.3745 270.63 27.1408 270.63 29.6584C270.63 32.5262 267.938 33.8179 265.267 33.8179C263.515 33.8179 261.042 33.0078 260.078 31.6943L259.859 31.3878C259.684 31.1251 259.334 31.0594 259.071 31.2346L258.021 31.9351C257.889 32.0227 257.802 32.1541 257.78 32.3073C257.758 32.4605 257.78 32.6138 257.867 32.7451L258.086 33.0516C259.312 34.9344 262.815 36.2041 265.311 36.2041C269.995 36.2041 273.039 33.6208 273.039 29.6146C272.995 25.2361 269.426 24.0759 266.361 23.0907Z" stroke="#4F6FC1" stroke-width="0.3"/>
<path d="M156.318 12.4089C149.356 12.4089 145.022 16.9625 145.022 24.2964C145.022 31.3018 149.926 36.1838 156.975 36.1838C160.324 36.1838 163.543 34.7608 165.381 32.484L165.6 32.1994C165.776 31.9805 165.754 31.6521 165.557 31.4332L164.747 30.6232C164.637 30.5137 164.484 30.4262 164.331 30.448C164.177 30.448 164.024 30.5356 163.915 30.6451L163.652 30.9735C162.141 32.7029 159.602 33.7975 157.019 33.7975C151.371 33.7975 147.846 30.448 147.496 24.778H166.038C166.345 24.778 166.607 24.5153 166.607 24.2088V23.8147C166.607 23.6615 166.607 23.5082 166.629 23.3331C166.651 23.1361 166.651 22.9391 166.651 22.7201C166.607 16.656 162.382 12.4089 156.318 12.4089ZM147.518 22.4136C148.174 17.6193 151.371 14.7952 156.121 14.7952C158.551 14.7952 160.587 15.5614 162.01 17.0282C163.324 18.3636 164.068 20.2244 164.199 22.4136H147.518Z" stroke="#4F6FC1" stroke-width="0.3"/>
<path d="M132.128 12.4088C129.61 12.4088 126.72 13.4159 124.597 15.014V1.61607C124.597 1.30958 124.334 1.04688 124.028 1.04688H122.758C122.452 1.04688 122.189 1.30958 122.189 1.61607V32.8123C122.189 32.9874 122.254 33.1407 122.386 33.2501L122.517 33.3596C124.75 35.2861 127.552 36.2274 131.077 36.2274C138.301 36.2274 143.161 31.3236 143.161 23.9898C143.183 16.9624 138.849 12.4088 132.128 12.4088ZM124.597 18.2102C125.954 16.5464 129.15 14.817 132.128 14.817C137.469 14.817 140.775 18.3854 140.775 24.143C140.775 26.9671 139.856 29.3752 138.082 31.1485C136.331 32.8999 133.923 33.8412 131.121 33.8412C129.282 33.8412 127.093 33.6223 124.575 31.9585V18.2102H124.597Z" stroke="#4F6FC1" stroke-width="0.3"/>
<path d="M209.055 12.7812H207.807C207.5 12.7812 207.238 13.0439 207.238 13.3504V29.9884C205.968 31.5865 202.728 33.8195 199.422 33.8195C194.409 33.8195 192.263 31.3019 192.263 25.4349V13.3504C192.263 13.0439 192.001 12.7812 191.694 12.7812H190.446C190.14 12.7812 189.877 13.0439 189.877 13.3504V25.5662C189.877 32.7249 192.964 36.2059 199.335 36.2059C202.421 36.2059 205.333 34.739 207.26 33.2284V35.2644C207.26 35.5709 207.522 35.8337 207.829 35.8337H209.077C209.383 35.8337 209.646 35.5709 209.646 35.2644V13.3723C209.646 13.0439 209.383 12.7812 209.055 12.7812Z" stroke="#4F6FC1" stroke-width="0.3"/>
<path d="M238.853 35.2398L247.763 13.5666C247.829 13.3914 247.807 13.1944 247.72 13.0412C247.61 12.8879 247.435 12.7785 247.238 12.7785H245.859C245.618 12.7785 245.421 12.9098 245.333 13.1287L237.627 32.0873L227.929 13.085C227.841 12.8879 227.644 12.7785 227.426 12.7785H226.024C226.003 12.7785 226.003 12.7785 225.981 12.7785H216.107V7.48057C216.107 7.17408 215.845 6.91138 215.538 6.91138H214.29C213.984 6.91138 213.721 7.17408 213.721 7.48057V26.8332C213.721 32.9192 216.261 36.006 221.296 36.006C222.806 36.006 224.426 35.5025 225.608 34.6487L225.915 34.4298C226.178 34.2546 226.243 33.9043 226.068 33.6416L225.346 32.547C225.258 32.4157 225.127 32.3281 224.952 32.3062C224.798 32.2843 224.623 32.3281 224.514 32.4157L224.207 32.6565C223.594 33.1162 222.456 33.5979 221.318 33.5979C217.64 33.5979 216.129 31.5181 216.129 26.3954V15.1866H226.331L236.467 34.9114L236.16 35.6338C234.015 40.8441 232.307 42.8801 230.096 42.8801C229.483 42.8801 228.761 42.6831 227.754 42.2452L227.404 42.092C227.119 41.9606 226.791 42.092 226.659 42.3766L226.156 43.515C226.09 43.6463 226.09 43.8215 226.134 43.9528C226.2 44.1061 226.309 44.2155 226.44 44.2812L226.813 44.4345C228.017 44.9599 229.133 45.2226 230.206 45.2226C233.599 45.2226 235.81 42.705 238.853 35.2398Z" stroke="#4F6FC1" stroke-width="0.3"/>
<path d="M177.031 12.4089C174.601 12.4089 172.565 13.0219 170.223 14.4887L169.894 14.6857C169.763 14.7733 169.675 14.8828 169.632 15.036C169.588 15.1892 169.632 15.3425 169.697 15.4738L170.332 16.5028C170.485 16.7655 170.836 16.853 171.098 16.6998L171.427 16.5028C173.331 15.3644 174.645 14.8171 176.9 14.8171C182.132 14.8171 182.898 17.2252 182.964 23.0704C180.775 22.0634 178.432 21.8882 177.141 21.8882C171.689 21.8882 168.143 24.7561 168.143 29.1783C168.143 33.2721 171.164 36.0086 175.674 36.0086C178.607 36.0086 181.015 35.1549 182.964 33.3816V35.2424C182.964 35.5489 183.227 35.8116 183.533 35.8116H184.781C185.087 35.8116 185.35 35.5489 185.35 35.2424V21.6474C185.416 15.4301 182.679 12.4089 177.031 12.4089ZM183.03 25.8507V29.8132C181.607 31.7178 179.614 33.6224 175.696 33.6224C172.653 33.6224 170.595 31.8273 170.595 29.1345C170.595 27.9305 170.989 26.9015 171.799 26.0915C172.959 24.9312 174.886 24.2745 177.097 24.2745C179.374 24.2745 181.366 24.8218 183.03 25.8507Z" stroke="#4F6FC1" stroke-width="0.3"/>
<path fill-rule="evenodd" clip-rule="evenodd" d="M100.656 10.4688C101.771 10.4688 102.852 10.6129 103.882 10.8836C98.4566 12.3105 94.4553 17.2491 94.4553 23.1222C94.4553 28.996 98.4574 33.9351 103.884 35.3613C102.853 35.6323 101.772 35.7766 100.656 35.7766C93.6675 35.7766 88.0022 30.1113 88.0022 23.1227C88.0022 16.1341 93.6675 10.4688 100.656 10.4688ZM13.5826 35.7802C20.5712 35.7802 26.2365 30.1148 26.2365 23.1263C26.2365 16.1377 20.5712 10.4723 13.5826 10.4723C6.59406 10.4723 0.928711 16.1377 0.928711 23.1263C0.928711 30.1148 6.59406 35.7802 13.5826 35.7802ZM49.7357 11.1228C53.6815 12.8067 56.5239 17.542 56.5239 23.1204C56.5239 28.6946 53.6857 33.427 49.7445 35.1142C49.3019 35.5437 48.4595 35.7766 47.0427 35.7766C46.4868 35.7766 45.9393 35.7408 45.4023 35.6712C45.2079 35.6461 45.0148 35.6166 44.8232 35.5827L44.8201 35.5821C38.8914 34.5316 34.3888 29.353 34.3888 23.1227C34.3888 16.9258 38.8432 11.7694 44.7248 10.6806L44.7431 10.6763C45.4155 10.553 46.1065 10.4829 46.8116 10.4704L46.8204 10.4707C46.8944 10.4694 46.9684 10.4688 47.0427 10.4688C48.4503 10.4688 49.2909 10.6986 49.7357 11.1228ZM65.6232 23.1252C65.6232 16.2469 71.1112 10.6503 77.9474 10.4755V35.7749C71.1112 35.6 65.6232 30.0035 65.6232 23.1252Z" fill="url(#paint0_linear_58_1221)"/>
</g>
<defs>
<linearGradient id="paint0_linear_58_1221" x1="24.2065" y1="66.5718" x2="116.846" y2="79.2728" gradientUnits="userSpaceOnUse">
<stop stop-color="#F0C9D1"/>
<stop offset="0.75864" stop-color="#4E79C0"/>
</linearGradient>
<clipPath id="clip0_58_1221">
<rect width="356" height="45" fill="white" transform="translate(0.720703 0.5)"/>
</clipPath>
</defs>
</svg>
