<svg width="315" height="202" viewBox="0 0 315 202" fill="none" xmlns="http://www.w3.org/2000/svg">
<g clip-path="url(#clip0_160_294)">
<path d="M255.707 68.333C256.432 66.5046 257.196 64.5799 257.745 62.6496C258.3 60.6967 259.154 60.6571 260.734 61.6137C267.187 65.5309 274.053 68.5311 281.412 70.2972C296.86 73.9993 311.335 71.186 325.09 63.6686C336.615 57.3682 346.533 48.9791 355.516 39.5371C367.007 27.4572 378.216 15.1112 389.475 2.81616C394.383 -2.54451 396.528 -9.2128 397.966 -16.1641C399.092 -21.5984 400.139 -27.0609 403.921 -31.8839" stroke="#3C3C3B" stroke-miterlimit="10"/>
<path d="M-69.2334 241.176C-69.2221 240.882 -69.2164 240.593 -69.2051 240.299C-68.2937 240.078 -67.3767 239.642 -66.471 239.671C-59.8763 239.886 -53.2703 240.022 -46.6925 240.503C-31.3691 241.618 -16.0739 243.231 -0.676811 242.677C14.0863 242.15 28.3172 239.495 41.3198 231.978C53.128 225.151 62.1285 215.454 69.8837 204.422C76.2972 195.297 80.5428 185.09 84.6807 174.85C88.6376 165.063 92.2887 155.151 95.9398 145.245C96.6531 143.309 97.4795 142.873 99.4438 143.422C110.799 146.603 122.409 148.449 134.161 149.1C147.848 149.858 161.389 148.59 174.657 145.024C206.855 136.369 230.319 116.687 246.542 87.9359C248.484 84.4886 250.114 80.8714 251.937 77.3561C252.492 76.2862 255.243 69.533 255.713 68.3386" stroke="#3C3C3B" stroke-miterlimit="10"/>
<path d="M-89.6572 217.786C-84.3758 197.357 -74.6225 179.169 -61.6651 162.623C-53.7005 152.456 -44.6264 143.416 -34.2957 135.622C-20.5232 125.234 -4.92805 120.508 12.1842 120.179C26.4491 119.907 40.4876 121.793 54.4469 124.402C65.3777 126.446 76.2745 128.676 87.1713 130.918C88.7563 131.246 89.3734 130.833 89.8885 129.35C94.3717 116.421 98.7588 103.452 103.519 90.6191C108.071 78.341 113.584 66.4989 121.452 55.9191C127.402 47.9205 134.58 41.4051 144.039 37.7426C153.232 34.182 162.753 33.9952 172.184 35.9821C183.663 38.4049 194.996 41.5183 206.38 44.3882C218.641 47.479 230.896 50.598 243.135 53.7906C245.155 54.3171 245.988 53.7001 246.605 51.8151C251.569 36.5539 256.641 21.3323 261.605 6.07671C265.002 -4.35594 267.866 -14.9754 272.683 -24.8986C275.084 -29.8404 278.044 -34.3632 282.963 -37.1766C288.318 -40.239 294.211 -40.5674 299.991 -39.3163C308.731 -37.42 317.454 -35.2633 325.99 -32.6028C345.378 -26.5571 364.681 -25.1137 384.086 -32.2801C386.69 -33.2424 389.26 -34.3066 391.852 -35.3086" stroke="#3C3C3B" stroke-miterlimit="10"/>
<path d="M281.44 13.0054C280.614 8.32399 279.589 -6.5806 282.046 -10.911C282.555 -11.8111 284.259 -12.6432 285.238 -12.479C285.974 -12.3545 286.806 -10.6223 286.931 -9.53547C287.197 -7.27685 286.942 -4.96164 287.044 -2.68038C287.129 -0.840657 287.152 1.07266 287.684 2.81049C290.027 10.5204 292.484 18.1962 295.02 25.8438C297.618 33.6839 300.188 41.5466 303.098 49.2734C304.887 54.0284 305.136 53.8473 310.066 52.6019C312.042 52.1038 312.8 51.3056 312.064 49.2791C308.911 40.5333 305.934 31.7196 302.651 23.0248C298.184 11.1996 293.48 -0.540633 288.918 -12.3318C288.663 -12.9941 288.42 -13.9848 288.725 -14.4773C290.197 -16.8321 291.827 -19.085 293.475 -21.3154C293.741 -21.6776 294.494 -22.0173 294.85 -21.8928C295.235 -21.7569 295.546 -21.0833 295.654 -20.5908C295.813 -19.8549 295.909 -19.0511 295.784 -18.3152C295.365 -15.8075 296.333 -13.7697 297.539 -11.6582C303.868 -0.551953 310.021 10.6505 316.4 21.7285C320.069 28.1024 323.782 34.482 327.982 40.5107C331.492 45.5487 330.49 44.66 335.602 42.0164C336.949 41.3201 337.028 40.5333 336.468 39.3502C335.335 36.9671 334.452 34.4311 333.077 32.2008C327.201 22.6908 321.206 13.2545 315.212 3.8181C311.153 -2.57282 306.981 -8.89582 302.939 -15.2981C301.303 -17.8963 300.918 -20.7719 302.028 -23.6929C303.053 -26.393 305.623 -26.9364 307.36 -24.6665C308.64 -22.9966 309.37 -20.9021 310.377 -19.0171C311.057 -17.7491 311.623 -16.3736 312.529 -15.2924C317.487 -9.3883 322.525 -3.55778 327.546 2.29537C334.651 10.5713 341.653 18.9548 350.008 26.042C354.061 29.478 352.867 28.9515 356.342 25.8325C357.514 24.7796 357.576 23.8683 356.631 22.6569C353.518 18.6661 350.75 14.347 347.302 10.6732C339.739 2.62368 331.809 -5.07485 324.099 -12.9885C322.118 -15.0207 320.34 -17.268 318.585 -19.5039C318.133 -20.0813 318.133 -21.0097 317.929 -21.7739C318.704 -21.7512 319.531 -21.8871 320.238 -21.6607C321.286 -21.3267 322.31 -20.8229 323.239 -20.2285C335.369 -12.5073 347.5 -4.79747 359.575 3.00862C362.428 4.85401 365.065 7.0277 367.816 9.02592C368.903 9.81842 369.792 9.75049 370.539 8.44287C371.4 6.94279 372.39 5.50498 373.404 4.09546C374.145 3.06522 374.185 2.17083 373.121 1.42362C371.196 0.0707141 369.334 -1.41238 367.267 -2.51055C360.095 -6.33717 352.827 -9.977 345.644 -13.7866C343.951 -14.681 342.445 -15.9434 340.86 -17.0359" stroke="#3C3C3B" stroke-miterlimit="10"/>
<path d="M264.646 51.0792C266.412 47.3261 267.878 43.4316 269.412 39.571C270.385 37.1256 271.172 34.6009 272.231 32.1951C272.531 31.5158 273.595 30.6328 274.144 30.7347C274.789 30.8535 275.491 31.8611 275.746 32.6253C276.267 34.199 276.635 35.8463 276.833 37.4935C277.416 42.2485 277.886 47.0205 278.401 51.7868C279.007 57.3965 279.092 57.4701 284.747 56.955C289.269 56.5474 289.485 56.5078 288.675 51.9339C286.371 38.937 283.869 25.974 281.435 13.0054" stroke="#3C3C3B" stroke-miterlimit="10"/>
<path d="M48.2598 134.472C48.7919 134.784 51.9562 135.372 52.4996 135.689C52.777 135.854 52.9582 136.205 53.1563 136.488C59.8642 145.952 66.5721 155.417 73.2857 164.882C73.897 165.742 74.5424 166.58 75.4424 167.786C76.6538 164.916 77.7916 162.544 78.6237 160.07C78.9237 159.187 78.8614 157.744 78.3237 157.081C73.6989 151.375 68.8987 145.811 64.2003 140.161C62.1738 137.722 60.1699 135.237 58.3811 132.621C57.9282 131.959 57.9848 130.476 58.449 129.825C58.8 129.327 60.2831 129.236 61.0642 129.514C64.2739 130.663 67.3702 132.027 69.4421 135.01C70.5459 136.601 71.8139 138.101 73.1442 139.516C76.167 142.731 79.269 145.873 82.5919 149.309" stroke="#3C3C3B" stroke-miterlimit="10"/>
<path d="M-58.868 223.379C-59.4057 222.57 -59.7963 222.106 -60.0624 221.573C-61.7209 218.228 -63.5776 214.962 -64.9136 211.492C-66.0004 208.673 -65.9382 205.599 -64.8513 202.689C-63.9343 200.221 -62.4568 198.166 -59.5585 198.036C-56.7225 197.912 -55.0357 199.842 -54.062 202.146C-51.0505 209.278 -46.6635 215.488 -41.7274 221.364C-37.046 226.934 -37.0517 226.945 -29.8116 227.834C-28.1417 228.038 -26.4605 228.185 -24.3547 228.406C-24.9265 227.302 -25.1812 226.668 -25.5492 226.113C-30.0777 219.281 -34.6289 212.465 -39.1631 205.639C-41.8463 201.597 -44.8238 197.702 -47.0994 193.44C-49.4033 189.121 -50.6373 184.337 -49.5957 179.333C-48.8485 175.745 -46.1371 174.312 -43.0916 176.265C-40.5103 177.918 -37.9574 179.984 -36.1629 182.435C-31.7816 188.424 -27.7455 194.674 -23.7547 200.935C-18.1902 209.663 -12.8126 218.511 -7.29906 227.274C-6.81791 228.038 -5.97449 229.08 -5.27256 229.102C-2.4592 229.193 0.36549 228.927 3.61472 228.774C3.22414 227.602 3.0883 226.917 2.78262 226.323C0.246632 221.381 -2.02897 216.275 -4.93857 211.565C-13.7466 197.329 -22.7867 183.245 -31.7985 169.133C-32.3986 168.193 -33.4062 167.44 -34.3685 166.823C-40.4537 162.934 -41.7444 156.034 -37.3913 150.271C-34.9063 146.983 -31.7872 144.656 -27.4738 145.358C-23.2226 146.054 -21.4734 149.462 -20.1885 153.147C-19.6224 154.777 -19.1582 156.487 -18.3148 157.97C-9.68789 173.118 -1.05534 188.272 7.72439 203.335C11.3925 209.629 15.2531 215.822 19.3118 221.868C21.5817 225.259 21.8195 225.026 25.6009 223.543C26.9424 223.017 27.3726 222.417 26.7103 221.07C24.5027 216.592 22.5271 211.984 20.1156 207.614C10.1528 189.551 0.0711521 171.55 -9.98789 153.538C-11.5446 150.747 -12.6258 147.854 -12.3088 144.605C-11.7993 139.392 -7.38399 137.11 -2.78751 139.607C0.925899 141.622 3.25812 144.905 5.22238 148.443C14.5229 165.21 23.7272 182.028 33.0163 198.801C35.6372 203.539 38.428 208.18 41.1451 212.862C41.864 214.101 42.6791 214.288 43.7773 213.218C44.7226 212.301 45.7755 211.492 46.8058 210.671C47.7794 209.895 48.2153 209.024 47.7058 207.773C46.6303 205.146 45.8718 202.35 44.5075 199.882C37.3807 186.992 30.1351 174.165 22.8667 161.355C19.8552 156.045 16.889 150.69 13.5266 145.607C10.9849 141.769 11.6529 138.633 16.0513 137.195C19.3741 136.108 22.7705 136.091 26.116 137.11C28.1821 137.739 29.7105 138.967 30.6445 141.073C32.5805 145.449 34.4145 149.92 36.8316 154.03C43.9811 166.184 51.391 178.19 58.7215 190.236C59.4235 191.391 60.3009 192.438 61.3254 193.853C62.701 191.685 63.7482 189.817 65.0106 188.107C66.0974 186.63 66.2106 185.294 65.254 183.732C59.4518 174.261 53.7967 164.701 47.8587 155.321C44.0717 149.337 39.8601 143.626 35.8976 137.756C35.5297 137.212 34.5561 136.001 35.4052 135.718C37.1317 135.265 47.6322 134.065 48.2606 134.444" stroke="#3C3C3B" stroke-miterlimit="10"/>
<path d="M195.024 50.9546C196.27 51.3735 209.408 58.3758 210.586 58.9702C218.024 62.7345 225.439 66.5442 232.883 70.2972C237.191 72.4709 237.695 72.2332 239.551 68.4292C240.174 67.1499 239.919 66.4423 238.793 65.9498C236.132 64.7837 234.559 62.927 231.785 62.1062C225.722 60.3174 222.258 58.5626 216.229 56.6719C213.303 55.7549 209.176 53.8076 206.533 52.1943C205.78 51.7358 203.549 49.2451 203.765 48.3564C203.923 47.7111 207.784 47.0827 208.667 47.1846C213.246 47.5016 217.395 51.1528 219.96 52.0868C228.858 55.3304 235.595 57.9286 244.895 59.757" stroke="#3C3C3B" stroke-miterlimit="10"/>
<path d="M182.418 50.9547C183.018 51.3509 183.737 51.634 184.201 52.1547C194.464 63.5724 204.653 75.0522 214.961 86.4246C217.797 89.5493 220.95 92.3909 224.817 94.2137C228.49 90.4946 228.547 89.6455 225.484 85.8642C225.309 85.649 225.111 85.4509 224.941 85.2358C220.13 79.094 216.099 73.8861 209.833 69.567C203.374 65.1177 204.183 63.278 196.089 57.1588C195.596 56.5531 190.281 51.6453 189.907 50.9434C190.015 50.6207 194.543 50.7679 195.024 50.9547" stroke="#3C3C3B" stroke-miterlimit="10" stroke-linecap="round" stroke-linejoin="round"/>
<path d="M115.514 133.81C116.08 129.333 116.708 124.855 117.263 120.377C118.072 113.828 118.814 107.267 119.652 100.723C119.771 99.8064 120.263 98.9403 120.586 98.0459C120.835 98.0742 121.089 98.0968 121.339 98.1195C121.633 99.0082 122.035 99.8743 122.199 100.78C122.901 104.68 123.473 108.597 124.208 112.492C125.714 120.496 127.679 128.382 131.239 135.769C131.539 136.397 132.133 137.297 132.649 137.337C134.89 137.512 137.16 137.41 139.458 137.41C139.492 137.014 139.566 136.731 139.526 136.476C139.294 135.033 139.198 133.55 138.768 132.169C135.122 120.502 131.437 108.852 127.684 97.2194C127.497 96.6364 126.603 96.0137 125.958 95.9062C124.316 95.6288 123.546 94.6948 123.739 93.2004C123.92 91.7795 124.322 90.3304 124.91 89.0284C126.082 86.4358 127.452 83.9338 128.737 81.3922C129.801 79.2864 130.758 77.1127 131.952 75.0862C132.332 74.4465 133.339 74.1861 134.058 73.7502C134.454 74.4239 135.066 75.0635 135.196 75.7881C135.394 76.8636 135.162 78.0071 135.275 79.1052C135.445 80.7921 135.456 82.5752 136.051 84.1206C137.992 89.1756 140.166 94.1457 142.26 99.1441C147.151 110.799 151.855 122.545 158.178 133.538C160.024 136.742 160.533 136.974 164.547 135.435C163.352 131.308 162.52 126.983 160.878 122.993C154.289 106.928 147.463 90.9644 140.692 74.9729C140.466 74.4408 140.058 73.8691 139.577 73.5804C136.198 71.5709 135.847 68.5877 138.683 65.8253C140.375 64.178 142.028 62.4968 143.659 60.7872C145.47 58.8909 146.387 58.9872 147.519 61.2344C153.27 72.6464 158.79 84.1829 164.852 95.4307C170.485 105.875 176.525 116.103 182.729 126.219C185.587 130.878 184.823 129.87 189.306 127.827C190.852 127.125 191.18 126.18 190.546 124.719C189.171 121.532 188.067 118.198 186.391 115.175C181.902 107.097 177.3 99.0818 172.505 91.1851C166.307 80.9733 159.888 70.8916 153.531 60.7759C152.738 59.5193 151.765 58.3815 150.593 56.8191C155.518 54.9228 160.092 53.1397 164.699 51.4641C164.892 51.3962 165.854 52.534 165.758 52.7095C166.811 54.7643 167.241 55.7719 167.875 57.4814C168.815 58.857 169.562 60.4872 170.485 61.8741C180.176 76.456 188.876 90.987 198.664 105.501C200.707 108.535 203.277 111.224 205.688 113.998C206.096 114.462 207.081 114.909 207.573 114.734C209.911 113.885 210.992 111.507 209.741 109.288C206.509 103.554 203.339 97.7459 199.592 92.3513C190.484 79.2241 181.064 66.3234 171.798 53.3038C171.441 52.8057 170.966 52.1264 171.204 51.4641C172.681 49.8734 176.796 48.2092 182.417 50.9603" stroke="#3C3C3B" stroke-miterlimit="10" stroke-linecap="round" stroke-linejoin="round"/>
</g>
<defs>
<clipPath id="clip0_160_294">
<rect width="315" height="202" fill="white"/>
</clipPath>
</defs>
</svg>
