<svg width="195" height="38" viewBox="0 0 195 38" fill="none" xmlns="http://www.w3.org/2000/svg">
<path d="M18.457 0.530762L0 18.9878L18.457 37.4449L36.914 18.9878L18.457 0.530762ZM5.65902 19.0756C7.39727 18.7683 9.0348 18.2233 10.5122 17.4433C11.3335 17.0119 12.0851 16.5186 12.767 15.9711C13.4282 17.0894 14.2418 17.8953 14.8927 18.4196L18.2039 21.7308V34.9033L16.8557 33.5551C17.3335 31.1246 17.1449 28.7742 16.2978 26.7338C14.6525 22.7691 10.6258 19.9693 5.65902 19.0756ZM26.5155 17.4459C27.9929 18.2207 29.6278 18.7683 31.3609 19.0731C28.5327 19.5793 26.0119 20.708 24.0592 22.3145C23.5478 21.3847 22.9047 20.5195 22.1324 19.7472L18.7773 16.3921V3.13687L20.2159 4.57552C19.733 7.01114 19.9241 9.36669 20.7713 11.4097C21.8147 13.9358 23.8035 16.0227 26.5155 17.4459ZM18.7747 22.3042L21.5719 25.1014C21.2413 25.6206 20.9546 26.1656 20.717 26.7338C19.8802 28.7484 19.6839 31.0678 20.141 33.4699L18.7747 34.8362V22.3042ZM18.7747 20.6848V17.9418L21.355 20.522C22.1143 21.2814 22.7394 22.1415 23.2172 23.0713C22.8685 23.4148 22.5431 23.7764 22.2435 24.1535L18.7747 20.6848ZM18.2039 3.07229V15.8212L15.4093 13.0266C15.7321 12.51 16.0137 11.9728 16.2461 11.4123C17.1036 9.34603 17.287 6.95949 16.7833 4.49286L18.2039 3.07229ZM14.7739 13.9384L18.2039 17.3684V20.1114L15.6805 17.5879L15.634 17.5466C15.0244 17.0584 14.247 16.2862 13.6452 15.1988C14.0559 14.8036 14.4304 14.3826 14.7739 13.9384ZM34.1633 18.7838C31.4772 18.7063 28.9511 18.0787 26.779 16.9396C25.9576 16.5083 25.2086 16.015 24.5319 15.4648L25.0175 14.8501L25.0433 14.8165C25.7794 13.724 26.1694 12.4506 26.1694 11.1359C26.1694 10.9216 26.1565 10.7124 26.1332 10.5032L34.4087 18.7786C34.3286 18.776 34.246 18.7812 34.1633 18.7838ZM25.0278 11.1334C25.0278 12.2156 24.7101 13.2591 24.1083 14.1579L23.6821 14.6977C22.6438 13.6723 21.838 12.4945 21.2982 11.1928C20.3735 8.96636 20.4252 6.73735 20.7067 5.06883L24.2581 8.62025C24.7566 9.35637 25.0278 10.2242 25.0278 11.1334ZM16.2952 4.98102C16.587 6.6573 16.6594 8.92762 15.7192 11.1928C15.1871 12.479 14.3942 13.6439 13.3766 14.659C13.3068 14.5066 13.2397 14.349 13.1803 14.1837C12.9091 13.4554 12.7541 12.6882 12.7205 11.9005C12.6327 9.91168 13.4231 7.91513 14.885 6.42224L16.0317 5.24446L16.2952 4.98102ZM11.5737 11.9547C11.6125 12.8613 11.7933 13.7446 12.1058 14.5866C12.222 14.8966 12.3512 15.1884 12.4906 15.4622C11.8165 16.0124 11.0675 16.5083 10.2487 16.9396C8.08431 18.0787 5.56604 18.7063 2.88246 18.7838C2.7559 18.7786 2.62934 18.776 2.50278 18.776L11.8708 9.40802C11.6383 10.2371 11.535 11.0946 11.5737 11.9547ZM2.89021 19.3572C6.62759 19.4863 10.0008 20.677 12.4597 22.6426L11.9947 23.3296C11.2612 24.417 10.8738 25.6852 10.8738 26.9972C10.8738 27.2013 10.8867 27.4053 10.9074 27.6042L2.66033 19.3572C2.73524 19.3597 2.81272 19.3597 2.89021 19.3572ZM11.9663 26.9998C11.9663 25.9073 12.2892 24.8509 12.9013 23.9443L13.2862 23.3735C14.3606 24.4066 15.2104 25.6102 15.7683 26.9559C16.6904 29.1772 16.6413 31.3984 16.3623 33.0669L12.6095 29.3141C12.1936 28.6193 11.9663 27.8263 11.9663 26.9998ZM20.6395 32.974C20.3735 31.3184 20.3425 29.1358 21.2465 26.9533C21.7605 25.7136 22.5224 24.5926 23.4807 23.6163C24.0489 24.9 24.3511 26.2999 24.3511 27.7463C24.3511 28.4436 24.1884 29.1152 23.8913 29.7221L20.6395 32.974ZM24.3253 22.8363C26.7996 20.7571 30.2684 19.4915 34.1246 19.3572C34.1685 19.3597 34.2124 19.3598 34.2537 19.3598L25.4255 28.1879C25.4359 28.0433 25.4436 27.8961 25.4436 27.7463C25.4436 26.0183 25.0562 24.3472 24.3253 22.8363Z" fill="#3C3C3B"/>
<path d="M48.1451 18.8251C47.2566 18.8251 46.2648 18.6728 45.5132 18.3292L45.4616 18.5333C45.428 18.6366 45.4099 18.6882 45.273 18.6882H44.8107C44.6402 18.6882 44.6221 18.6547 44.6221 18.5333L44.4336 14.9586C44.4336 14.8553 44.4491 14.8217 44.5705 14.8217H45.3066C45.4073 14.8217 45.4254 14.8398 45.4435 14.9586L45.4951 15.5062C45.6656 16.9758 46.5903 17.7455 48.0935 17.7455C49.3746 17.7455 50.0952 17.216 50.0952 16.2423C50.0952 15.1472 49.3772 14.8217 47.5821 13.9332C45.9911 13.13 44.6738 12.3267 44.6738 10.2242C44.6738 8.29228 46.1279 6.83813 48.6927 6.83813C49.496 6.83813 50.3509 7.02668 50.9682 7.31596L51.0199 7.12741C51.0379 7.0086 51.0534 6.97243 51.1903 6.97243H51.6501C51.8205 6.97243 51.8386 7.00602 51.8386 7.12741V10.4619C51.8386 10.5652 51.8205 10.5988 51.6836 10.5988H50.9656C50.8623 10.5988 50.8442 10.5652 50.8287 10.4619L50.8132 10.2397C50.6247 8.63063 49.9583 7.86352 48.6255 7.86352C47.6337 7.86352 47.0681 8.32586 47.0681 9.1472C47.0681 10.0357 47.923 10.5497 49.4779 11.2832C51.2394 12.1381 52.6419 12.975 52.6419 15.1472C52.6445 17.5079 50.7796 18.8251 48.1451 18.8251Z" fill="#3C3C3B"/>
<path d="M55.7928 18.4301C55.6895 18.4301 55.674 18.412 55.674 18.2777V17.6268C55.674 17.5235 55.6895 17.4899 55.7928 17.4744L56.4772 17.4228C56.9215 17.3892 56.955 17.2342 56.955 15.8653V7.98245H56.1337C54.646 7.98245 54.4239 8.63332 54.3722 10.2063L54.3567 10.7203C54.3567 10.8391 54.3386 10.8752 54.2353 10.8752H53.4992C53.3804 10.8752 53.3623 10.8417 53.3623 10.7203V7.04487C53.3623 6.94156 53.3804 6.88989 53.4837 6.88989H63.4871C63.5904 6.88989 63.6059 6.94156 63.6059 7.04487V10.7203C63.6059 10.8391 63.5904 10.8752 63.4871 10.8752H62.751C62.6476 10.8752 62.6141 10.8417 62.6141 10.7203L62.5986 10.2063C62.5469 8.63332 62.3403 7.98245 60.8371 7.98245H60.0338V15.8653C60.0338 17.2342 60.0674 17.3866 60.5116 17.4228L61.1961 17.4744C61.2994 17.4899 61.2994 17.5261 61.2994 17.6268V18.2777C61.2994 18.4146 61.2994 18.4301 61.1961 18.4301H55.7928Z" fill="#3C3C3B"/>
<path d="M95.4164 14.4498L95.2098 18.4532C95.2098 18.554 95.1917 18.6056 95.0935 18.6056H85.9942C85.8908 18.6056 85.8779 18.5875 85.8779 18.4532V17.8023C85.8779 17.699 85.8934 17.6655 85.9942 17.65L86.6967 17.5983C87.1254 17.5647 87.1564 17.4097 87.1564 16.0408V9.61213C87.1564 8.2613 87.1229 8.10632 86.6967 8.07275L85.9942 8.00301C85.8908 8.00301 85.8779 7.96944 85.8779 7.86871V7.20233C85.8779 7.08093 85.8934 7.06543 85.9942 7.06543H91.741C91.8443 7.06543 91.8624 7.08352 91.8624 7.20233V7.86871C91.8624 7.97202 91.8443 8.00301 91.741 8.00301L90.7156 8.07275C90.2688 8.08825 90.2507 8.2613 90.2507 9.61213V17.4924H92.5081C93.877 17.4924 94.2205 16.9113 94.4039 14.4498C94.422 14.3284 94.4401 14.3129 94.5408 14.3129H95.2769C95.3983 14.3103 95.4164 14.3465 95.4164 14.4498Z" fill="#3C3C3B"/>
<path d="M107.674 17.6475L107.263 17.5958C106.853 17.5287 106.7 17.4925 106.119 15.8524L102.867 6.97772C102.818 6.85632 102.782 6.84082 102.666 6.84082H100.923C100.786 6.84082 100.749 6.89248 100.713 6.97772L97.9084 14.3982C97.6346 15.1189 97.3117 16.0409 97.0715 16.5369C96.6944 17.4254 96.5084 17.5106 96.0978 17.5958L95.8782 17.6475C95.7749 17.663 95.7568 17.6811 95.7568 17.7818V18.4507C95.7568 18.585 95.7749 18.6031 95.8782 18.6031H99.7241C99.8274 18.6031 99.8403 18.585 99.8403 18.4507V17.7999C99.8403 17.6966 99.8248 17.6785 99.7241 17.6475L99.2953 17.5958C98.7994 17.5287 98.6109 17.2032 98.6109 16.7409C98.6109 16.245 98.7994 15.6303 99.0035 15.0827L99.0706 14.8942H102.477L102.8 15.8524C103.04 16.5188 103.159 16.9294 103.159 17.1852C103.159 17.5106 102.971 17.5648 102.681 17.5958L102.17 17.6475C102.067 17.6811 102.049 17.6966 102.049 17.7999V18.4507C102.049 18.585 102.067 18.6031 102.17 18.6031H107.677C107.78 18.6031 107.793 18.585 107.793 18.4507V17.7999C107.793 17.6966 107.777 17.6785 107.674 17.6475ZM99.4658 13.8145L100.801 10.1055H100.819L102.116 13.8145H99.4658Z" fill="#3C3C3B"/>
<path d="M84.9144 14.4498L84.7078 18.4532C84.7078 18.554 84.6897 18.6056 84.5916 18.6056H75.4922C75.3889 18.6056 75.376 18.5875 75.376 18.4532V17.8023C75.376 17.699 75.3915 17.6655 75.4922 17.65L76.1947 17.5983C76.6235 17.5647 76.6545 17.4097 76.6545 16.0408V9.61213C76.6545 8.2613 76.6209 8.10632 76.1947 8.07275L75.4922 8.00301C75.3889 8.00301 75.376 7.96944 75.376 7.86871V7.20233C75.376 7.08093 75.3915 7.06543 75.4922 7.06543H81.239C81.3423 7.06543 81.3604 7.08352 81.3604 7.20233V7.86871C81.3604 7.97202 81.3423 8.00301 81.239 8.00301L80.2136 8.07275C79.7668 8.08825 79.7539 8.2613 79.7539 9.61213V17.4924H82.0087C83.3776 17.4924 83.7211 16.9113 83.9097 14.4498C83.9252 14.3284 83.9433 14.3129 84.044 14.3129H84.7801C84.8963 14.3103 84.9144 14.3465 84.9144 14.4498Z" fill="#3C3C3B"/>
<path d="M74.415 15.0128L74.2264 18.4505C74.2264 18.5513 74.2083 18.6029 74.0921 18.6029H64.9437C64.8403 18.6029 64.8223 18.5848 64.8223 18.4505V17.7997C64.8223 17.6963 64.8403 17.6628 64.9437 17.6473L65.6281 17.5956C66.0724 17.562 66.1059 17.4071 66.1059 16.0382V9.60943C66.1059 8.2586 66.0569 8.10362 65.6281 8.07005L64.9437 8.00032C64.8403 8.00032 64.8223 7.96674 64.8223 7.86601V7.19963C64.8223 7.07823 64.8403 7.06274 64.9437 7.06274H73.4593C73.5807 7.06274 73.5936 7.11439 73.5936 7.21771V10.6529C73.5936 10.7562 73.5781 10.7898 73.4593 10.7898H72.7232C72.607 10.7898 72.5889 10.7536 72.5889 10.6529L72.5708 10.3791C72.4675 8.80616 72.297 8.15529 70.8274 8.15529H69.2028V12.0864H69.9053C70.7602 12.0864 70.8945 11.6757 70.9643 10.8389L70.9823 10.6322C70.9978 10.5289 71.0159 10.4979 71.1167 10.4979H71.783C71.9044 10.4979 71.9199 10.5315 71.9199 10.6503V14.5504C71.9199 14.6537 71.9018 14.6847 71.783 14.6847H71.1167C71.0133 14.6847 70.9823 14.6667 70.9823 14.5504L70.9643 14.2921C70.9126 13.4915 70.7576 13.0963 69.9053 13.0963H69.2028V17.4897H71.4938C72.9143 17.4897 73.1519 16.9447 73.3767 15.2504L73.4102 14.9947C73.4309 14.8914 73.4464 14.8604 73.5471 14.8604H74.2806C74.3995 14.8604 74.415 14.8914 74.415 15.0128Z" fill="#3C3C3B"/>
<path d="M118.778 15.2866C119.171 17.2522 119.393 17.4743 120.059 17.4743H120.385C120.488 17.4743 120.504 17.5079 120.504 17.6112V18.244C120.504 18.3473 120.488 18.3628 120.385 18.3809C119.804 18.5333 118.982 18.6728 118.383 18.6728C116.381 18.6728 116.074 17.8514 115.697 15.4081C115.408 13.4761 114.979 13.1687 114.039 13.1687H113.303V16.0408C113.303 17.4097 113.318 17.5621 113.762 17.5983L114.447 17.65C114.55 17.6655 114.568 17.7016 114.568 17.8023V18.4532C114.568 18.5901 114.55 18.6056 114.447 18.6056H109.044C108.94 18.6056 108.925 18.5875 108.925 18.4532V17.8023C108.925 17.699 108.94 17.6655 109.044 17.65L109.728 17.5983C110.172 17.5647 110.206 17.4097 110.206 16.0408V9.61213C110.206 8.2613 110.172 8.10632 109.728 8.07275L109.044 8.00559C108.94 8.00559 108.925 7.97202 108.925 7.86871V7.20233C108.925 7.08352 108.94 7.06543 109.044 7.06543H115.387C117.508 7.06543 119.269 7.81705 119.269 9.85234C119.269 11.4253 117.918 12.3138 116.157 12.5359V12.5695C117.701 12.8588 118.437 13.6104 118.778 15.2866ZM114.214 8.13732H113.308V12.1227H114.196C115.444 12.1227 116.043 11.4899 116.043 10.0874C116.043 8.53249 115.444 8.13732 114.214 8.13732Z" fill="#3C3C3B"/>
<path d="M132.506 18.5358H126.384C126.281 18.5358 126.266 18.5177 126.266 18.3834V17.7325C126.266 17.6292 126.281 17.5956 126.384 17.5801L127.069 17.5285C127.513 17.4949 127.547 17.3399 127.547 15.971V9.54229C127.547 8.19146 127.513 8.03648 127.069 8.00291L126.384 7.93577C126.281 7.93577 126.266 7.90218 126.266 7.79887V7.13249C126.266 7.01368 126.281 6.99561 126.384 6.99561H132.576C134.44 6.99561 136.473 7.61032 136.473 9.73084C136.473 11.2702 135.071 12.1406 133.327 12.3808V12.4506C135.259 12.4687 137.124 13.0498 137.124 15.2375C137.124 17.7842 134.678 18.5358 132.506 18.5358ZM131.48 8.07265H130.644V12.0735H131.465C132.73 12.0735 133.33 11.4923 133.33 10.0382C133.327 8.46524 132.694 8.07265 131.48 8.07265ZM131.447 13.1686H130.644V17.4613H131.909C133.157 17.4613 133.774 16.8285 133.774 15.2891C133.771 13.68 133.004 13.1686 131.447 13.1686Z" fill="#3C3C3B"/>
<path d="M138.511 18.5797C138.408 18.5797 138.393 18.5617 138.393 18.4273V17.7765C138.393 17.6732 138.408 17.6396 138.511 17.6241L139.196 17.5724C139.64 17.5388 139.674 17.3839 139.674 16.015V9.58624C139.674 8.23541 139.622 8.08045 139.196 8.04687L138.511 7.97971C138.408 7.97971 138.393 7.94613 138.393 7.84281V7.17645C138.393 7.05764 138.408 7.03955 138.511 7.03955H147.027C147.146 7.03955 147.164 7.0912 147.164 7.19452V10.6323C147.164 10.7356 147.148 10.7692 147.027 10.7692H146.291C146.172 10.7692 146.154 10.7356 146.154 10.6323L146.136 10.3585C146.033 8.78555 145.862 8.13468 144.393 8.13468H142.768V12.0684H143.468C144.323 12.0684 144.46 11.6577 144.527 10.8208L144.545 10.6168C144.56 10.5135 144.578 10.4799 144.682 10.4799H145.351C145.47 10.4799 145.488 10.5135 145.488 10.6323V14.5298C145.488 14.6331 145.472 14.6667 145.351 14.6667H144.682C144.581 14.6667 144.545 14.6486 144.545 14.5298L144.527 14.2741C144.475 13.4709 144.323 13.0757 143.468 13.0757H142.768V17.4691H145.059C146.479 17.4691 146.717 16.9215 146.939 15.2298L146.973 14.9741C146.991 14.8708 147.006 14.8372 147.11 14.8372H147.846C147.965 14.8372 147.983 14.8708 147.983 14.9896L147.794 18.4273C147.794 18.5307 147.776 18.5797 147.657 18.5797H138.511Z" fill="#3C3C3B"/>
<path d="M155.351 18.7193C155.247 18.7193 155.232 18.7013 155.232 18.5669V17.9161C155.232 17.8128 155.247 17.7973 155.351 17.7637L155.865 17.712C156.157 17.6784 156.343 17.6268 156.343 17.3013C156.343 17.0456 156.224 16.635 155.983 15.9686L155.661 15.0104H152.256L152.187 15.1989C151.983 15.7465 151.794 16.3612 151.794 16.8571C151.794 17.3194 151.983 17.6449 152.476 17.712L152.905 17.7637C153.008 17.7973 153.024 17.8153 153.024 17.9161V18.5669C153.024 18.7038 153.008 18.7193 152.905 18.7193H149.059C148.956 18.7193 148.938 18.7013 148.938 18.5669V17.9006C148.938 17.7973 148.956 17.7818 149.059 17.7637L149.281 17.712C149.692 17.6268 149.88 17.5416 150.255 16.6531C150.495 16.1572 150.82 15.2325 151.092 14.5145L153.897 7.09393C153.93 7.0087 153.966 6.95703 154.103 6.95703H155.847C155.965 6.95703 155.999 6.97512 156.051 7.09393L159.3 15.9686C159.881 17.6113 160.036 17.6449 160.447 17.712L160.857 17.7637C160.961 17.7973 160.976 17.8153 160.976 17.9161V18.5669C160.976 18.7038 160.961 18.7193 160.857 18.7193H155.351ZM154 10.2192H153.984L152.649 13.9307H155.299L154 10.2192Z" fill="#3C3C3B"/>
<path d="M171.483 8.05221C170.799 8.15552 170.525 8.70051 170.525 11.6088V14.2588C170.525 17.2859 169.396 18.8253 166.251 18.8253C163.241 18.8253 161.702 17.304 161.702 14.7909V9.60968C161.702 8.25884 161.684 8.10387 161.24 8.07029L160.54 8.00313C160.437 8.00313 160.437 7.96957 160.437 7.86625V7.19987C160.437 7.08106 160.437 7.06299 160.54 7.06299H165.959C166.062 7.06299 166.062 7.08106 166.062 7.19987V7.86625C166.062 7.96957 166.062 8.00313 165.959 8.00313L165.259 8.07029C164.814 8.10387 164.799 8.25884 164.799 9.60968V14.5171C164.799 16.3974 165.277 17.3556 167.005 17.3556C168.663 17.3556 169.229 16.3819 169.229 14.3466V11.6114C169.229 8.6876 169.143 8.17361 168.1 8.05479L167.638 8.00313C167.537 7.98505 167.537 7.96957 167.537 7.86625V7.19987C167.537 7.08106 167.537 7.06299 167.638 7.06299H171.724C171.827 7.06299 171.845 7.08106 171.845 7.19987V7.86625C171.845 7.96957 171.827 7.98505 171.724 8.00313L171.483 8.05221Z" fill="#3C3C3B"/>
<path d="M175.048 18.6264C174.944 18.6264 174.929 18.6083 174.929 18.474V17.8231C174.929 17.7198 174.944 17.6862 175.048 17.6707L175.732 17.6191C176.176 17.5855 176.21 17.4305 176.21 16.0616V8.17874H175.389C173.901 8.17874 173.679 8.82961 173.627 10.4026L173.612 10.9166C173.612 11.0354 173.594 11.0715 173.49 11.0715H172.754C172.635 11.0715 172.617 11.0379 172.617 10.9166V7.24116C172.617 7.13785 172.635 7.08618 172.739 7.08618H182.742C182.845 7.08618 182.861 7.13785 182.861 7.24116V10.9166C182.861 11.0354 182.845 11.0715 182.742 11.0715H182.006C181.903 11.0715 181.869 11.0379 181.869 10.9166L181.851 10.4026C181.799 8.82961 181.595 8.17874 180.089 8.17874H179.286V16.0616C179.286 17.4305 179.32 17.5829 179.764 17.6191L180.448 17.6707C180.552 17.6862 180.552 17.7224 180.552 17.8231V18.474C180.552 18.6109 180.552 18.6264 180.448 18.6264H175.048Z" fill="#3C3C3B"/>
<path d="M186.725 18.6702C186.621 18.6702 186.621 18.6521 186.621 18.5178V17.8669C186.621 17.7636 186.621 17.73 186.725 17.7145L187.425 17.6629C187.869 17.6293 187.903 17.4743 187.903 16.1054V13.6078L185.8 9.88075C184.945 8.34137 184.757 8.20448 184.33 8.11925L183.99 8.06759C183.886 8.04951 183.868 8.03402 183.868 7.9307V7.26432C183.868 7.14551 183.886 7.12744 183.99 7.12744H189.46C189.561 7.12744 189.579 7.14551 189.579 7.26432V7.9307C189.579 8.03402 189.561 8.06759 189.46 8.06759L189.016 8.11925C188.812 8.13474 188.708 8.23806 188.708 8.42661C188.708 8.64873 188.845 9.05941 189.308 9.88075L190.522 12.1046H190.537L191.136 10.9759C191.562 10.139 191.973 9.31769 191.973 8.73655C191.973 8.35946 191.785 8.17349 191.444 8.12183L191.033 8.07017C190.93 8.05209 190.93 8.0366 190.93 7.93329V7.26691C190.93 7.1481 190.93 7.13001 191.033 7.13001H194.879C194.982 7.13001 195 7.1481 195 7.26691V7.93329C195 8.0366 194.982 8.05209 194.879 8.07017L194.657 8.12183C194.228 8.18899 194.006 8.54801 193.476 9.38744C193.099 9.98666 192.673 10.7202 192.33 11.3375L190.979 13.6801V16.108C190.979 17.4769 191.012 17.6293 191.457 17.6655L192.126 17.7171C192.229 17.7326 192.244 17.7688 192.244 17.8695V18.5204C192.244 18.6573 192.229 18.6728 192.126 18.6728H186.725V18.6702Z" fill="#3C3C3B"/>
<path d="M48.6769 37.636C45.8384 37.636 44.1621 35.8744 44.1621 33.1056C44.1621 30.2671 45.8384 28.2834 48.9171 28.2834C50.7122 28.2834 52.0114 29.1203 52.0114 30.3007C52.0114 31.0187 51.4974 31.3777 50.6451 31.3777C49.7385 31.3777 49.3975 30.8999 49.3975 30.3342C49.3975 29.9752 49.4828 29.6679 49.568 29.4457C49.4156 29.3605 49.1573 29.3088 48.9533 29.3088C47.791 29.3088 47.2099 30.2154 47.2099 32.7802C47.2099 34.8155 47.7239 36.2335 49.568 36.2335C50.4049 36.2335 51.0557 35.8925 51.5336 35.4638C51.6033 35.4121 51.6524 35.4302 51.7221 35.4973L52.1509 35.9235C52.2206 35.9933 52.2361 36.0423 52.1689 36.1121C51.4122 37.0548 50.3351 37.636 48.6769 37.636Z" fill="#3C3C3B"/>
<path d="M53.2614 37.4138C53.1581 37.4138 53.1426 37.3958 53.1426 37.2615V36.6467C53.1426 36.5434 53.1581 36.5098 53.2614 36.5098L53.8942 36.4763C54.3384 36.4427 54.3539 36.2877 54.3539 34.9214V27.2607C54.3539 25.8917 54.3384 25.7394 53.8942 25.7058L53.2614 25.6722C53.1581 25.6722 53.1426 25.6386 53.1426 25.5353V24.9025C53.1426 24.7837 53.1581 24.7656 53.2614 24.7656H57.0401C57.1434 24.7656 57.1925 24.8354 57.1925 24.9722V34.924C57.1925 36.2929 57.208 36.4453 57.6548 36.4788L58.3031 36.5124C58.4064 36.5124 58.4064 36.546 58.4064 36.6493V37.264C58.4064 37.4009 58.4064 37.4164 58.3031 37.4164H53.2614V37.4138Z" fill="#3C3C3B"/>
<path d="M59.4088 37.414C59.3055 37.414 59.29 37.3959 59.29 37.2616V36.6469C59.29 36.5436 59.3055 36.51 59.4088 36.51L60.0416 36.4765C60.4859 36.4429 60.5014 36.2879 60.5014 34.9216V31.006C60.5014 29.6371 60.4859 29.4847 60.0416 29.4511L59.4088 29.4175C59.3055 29.4175 59.29 29.3839 59.29 29.2806V28.6478C59.29 28.529 59.3055 28.5109 59.4088 28.5109H63.1876C63.2909 28.5109 63.3399 28.5626 63.3399 28.6995V34.9242C63.3399 36.2931 63.3554 36.4454 63.8023 36.479L64.4506 36.5126C64.5539 36.5126 64.5539 36.5462 64.5539 36.6495V37.2642C64.5539 37.4011 64.5539 37.4166 64.4506 37.4166H59.4088V37.414ZM61.9555 27.204C61.0154 27.204 60.3128 26.6229 60.3128 25.7679C60.3128 24.9466 60.9792 24.3835 61.9039 24.3835C62.844 24.3835 63.4923 24.9466 63.4923 25.7679C63.4949 26.5893 62.8621 27.204 61.9555 27.204Z" fill="#3C3C3B"/>
<path d="M71.8887 37.414C71.7854 37.414 71.7673 37.3959 71.7673 37.2616V36.6469C71.7673 36.5436 71.7854 36.5281 71.8887 36.51L72.3485 36.4765C72.8108 36.4248 72.8263 36.2879 72.8263 34.9216V31.7757C72.8263 30.4765 72.2116 30.0839 71.4238 30.0839C70.6541 30.0839 70.1066 30.5101 69.714 31.024V34.9216C69.714 36.2905 69.7295 36.4274 70.1763 36.4765L70.6541 36.51C70.7574 36.5281 70.7574 36.5436 70.7574 36.6469V37.2616C70.7574 37.3985 70.7574 37.414 70.6541 37.414H65.7829C65.6796 37.414 65.6641 37.3959 65.6641 37.2616V36.6469C65.6641 36.5436 65.6796 36.51 65.7829 36.51L66.4157 36.4765C66.8599 36.4429 66.8754 36.2879 66.8754 34.9216V31.006C66.8754 29.6371 66.8599 29.5028 66.4157 29.4511L65.7829 29.4175C65.6796 29.3994 65.6641 29.3839 65.6641 29.2806V28.6478C65.6641 28.529 65.6796 28.5109 65.7829 28.5109H69.4092C69.5099 28.5109 69.5616 28.5626 69.5616 28.6995V29.9651H69.6132C70.228 29.1954 71.1862 28.2888 72.7927 28.2888C74.2804 28.2888 75.6494 29.0249 75.6494 31.2643V34.9242C75.6494 36.2931 75.6648 36.4455 76.1272 36.479L76.7781 36.5126C76.8788 36.5126 76.8788 36.5462 76.8788 36.6495V37.2642C76.8788 37.4011 76.8788 37.4166 76.7781 37.4166H71.8887V37.414Z" fill="#3C3C3B"/>
<path d="M77.4626 37.414C77.3592 37.414 77.3438 37.3959 77.3438 37.2616V36.6469C77.3438 36.5436 77.3592 36.51 77.4626 36.51L78.0954 36.4765C78.5396 36.4429 78.5551 36.2879 78.5551 34.9216V31.006C78.5551 29.6371 78.5396 29.4847 78.0954 29.4511L77.4626 29.4175C77.3592 29.4175 77.3438 29.3839 77.3438 29.2806V28.6478C77.3438 28.529 77.3592 28.5109 77.4626 28.5109H81.2413C81.3446 28.5109 81.3937 28.5626 81.3937 28.6995V34.9242C81.3937 36.2931 81.4091 36.4454 81.856 36.479L82.5043 36.5126C82.6076 36.5126 82.6076 36.5462 82.6076 36.6495V37.2642C82.6076 37.4011 82.6076 37.4166 82.5043 37.4166H77.4626V37.414ZM80.0093 27.204C79.0691 27.204 78.3665 26.6229 78.3665 25.7679C78.3665 24.9466 79.0329 24.3835 79.9576 24.3835C80.8977 24.3835 81.546 24.9466 81.546 25.7679C81.5486 26.5893 80.9158 27.204 80.0093 27.204Z" fill="#3C3C3B"/>
<path d="M88.3517 37.636C85.5132 37.636 83.8369 35.8744 83.8369 33.1056C83.8369 30.2671 85.5132 28.2834 88.5894 28.2834C90.3844 28.2834 91.6836 29.1203 91.6836 30.3007C91.6836 31.0187 91.1696 31.3777 90.3173 31.3777C89.4107 31.3777 89.0698 30.8999 89.0698 30.3342C89.0698 29.9752 89.155 29.6679 89.2402 29.4457C89.0879 29.3605 88.8296 29.3088 88.6255 29.3088C87.4632 29.3088 86.8821 30.2154 86.8821 32.7802C86.8821 34.8155 87.3961 36.2335 89.2402 36.2335C90.0771 36.2335 90.728 35.8925 91.2058 35.4638C91.2755 35.4121 91.3272 35.4302 91.3943 35.4973L91.8231 35.9235C91.8928 35.9933 91.9083 36.0423 91.8412 36.1121C91.0896 37.0548 90.0099 37.636 88.3517 37.636Z" fill="#3C3C3B"/>
</svg>
