<svg width="100" height="100" viewBox="0 0 100 100" fill="none" xmlns="http://www.w3.org/2000/svg">
<g clip-path="url(#clip0_386_8098)">
<path d="M49.9872 99.18C77.3732 99.18 99.5739 77.1612 99.5739 49.9996C99.5739 22.8382 77.3732 0.819336 49.9872 0.819336C22.6011 0.819336 0.400391 22.8382 0.400391 49.9996C0.400391 77.1612 22.6011 99.18 49.9872 99.18Z" stroke="#E0B370" stroke-width="1.08523" stroke-miterlimit="10"/>
<path opacity="0.23" d="M40.5818 60.6937C38.5523 58.0977 36.9822 53.9667 37.4075 50.2411C37.8328 46.5155 40.7306 49.7512 42.7812 48.1516C44.8318 46.5519 44.9798 41.0631 48.2791 39.9722C51.5784 38.8813 55.9769 39.4268 57.6266 40.5172C59.2762 41.6075 61.4754 41.6077 63.6747 46.5155C65.874 51.4233 55.4269 47.6062 50.4785 49.2422C45.5301 50.8781 42.8457 62.6328 40.5818 60.6937Z" fill="#E0B370"/>
<path d="M40.5732 39.5624C40.7634 40.3337 40.811 40.905 40.5732 41.0944C37.2018 43.7795 28.1671 34.7114 27.0571 37.0216C25.9471 39.3318 38.1757 43.2176 36.9892 45.1777C35.8028 47.1377 36.0419 52.0231 34.3994 52.3854C30.9259 53.1517 21.3568 52.3854 21.9118 54.1303C22.4668 55.8751 28.6642 54.1303 31.6242 54.1303C34.5842 54.1303 35.7867 54.6616 36.9892 57.8467C37.6471 59.5893 38.2476 60.9265 38.8026 61.9223M40.5732 39.5624C40.0089 37.2739 37.789 32.827 38.8506 32.1732C41.2392 30.7022 40.4686 35.0085 41.704 37.0216M40.5732 39.5624C41.0492 41.4927 42.3932 45.1777 41.2392 46.5621M41.704 37.0216C42.1406 37.733 42.611 38.212 43.1133 38.1596C45.0369 37.9587 45.6677 37.8924 49.0524 37.0216C50.8574 36.9583 54.677 35.2006 55.5154 28.6757C55.7455 26.8849 55.9774 22.5223 57.6115 22.9854C59.0922 23.4049 55.3407 37.0215 57.6115 38.1596C59.8823 39.2976 63.2012 41.0047 64.2493 42.9015C65.2974 44.7983 67.2188 45.9364 69.1403 45.1777C71.0618 44.4189 76.0321 40.2573 76.8262 42.9015C77.4204 44.8801 69.4897 45.7467 67.9176 48.4022C65.9499 51.7258 60.1732 51.8697 51.0291 52.3854C45.842 52.678 43.8814 65.122 41.6821 64.3949C39.4829 63.6678 35.964 72.9018 35.0843 72.0293C34.273 71.2246 37.3528 65.3731 38.8026 61.9223M41.704 37.0216C42.4024 38.1596 43.6177 39.5625 44.3083 39.5625M39.4829 59.4871C39.627 59.773 39.3177 60.6961 38.8026 61.9223" stroke="#E0B370" stroke-width="1.33056" stroke-linecap="round"/>
<ellipse cx="52.6778" cy="56.8775" rx="2.19928" ry="2.18125" stroke="#E0B370" stroke-width="1.33056" stroke-linecap="round"/>
<ellipse cx="62.5743" cy="55.7867" rx="2.19928" ry="2.18125" stroke="#E0B370" stroke-width="1.33056" stroke-linecap="round"/>
<ellipse cx="63.6739" cy="66.6932" rx="1.09964" ry="1.09062" stroke="#E0B370" stroke-width="1.33056" stroke-linecap="round"/>
<ellipse cx="68.0723" cy="60.1492" rx="1.09964" ry="1.09062" stroke="#E0B370" stroke-width="1.33056" stroke-linecap="round"/>
<ellipse cx="57.626" cy="62.8752" rx="1.64946" ry="1.63594" stroke="#E0B370" stroke-width="1.33056" stroke-linecap="round"/>
<ellipse cx="76.8711" cy="62.3299" rx="1.09964" ry="1.09062" stroke="#E0B370" stroke-width="1.33056" stroke-linecap="round"/>
<ellipse cx="53.7793" cy="72.1463" rx="1.09964" ry="1.09062" stroke="#E0B370" stroke-width="1.33056" stroke-linecap="round"/>
<ellipse cx="65.8731" cy="76.5086" rx="1.09964" ry="1.09062" stroke="#E0B370" stroke-width="1.33056" stroke-linecap="round"/>
<ellipse cx="48.8291" cy="65.0568" rx="1.64946" ry="1.63594" stroke="#E0B370" stroke-width="1.33056" stroke-linecap="round"/>
<ellipse cx="41.6817" cy="71.0555" rx="1.09964" ry="1.09062" stroke="#E0B370" stroke-width="1.33056" stroke-linecap="round"/>
</g>
<defs>
<clipPath id="clip0_386_8098">
<rect width="100" height="100" fill="white"/>
</clipPath>
</defs>
</svg>
