<svg width="102" height="102" viewBox="0 0 102 102" fill="none" xmlns="http://www.w3.org/2000/svg">
<path d="M15.7676 15.042L87.0675 86.9312" stroke="#E0B370" stroke-width="1.09428" stroke-miterlimit="10"/>
<path fill-rule="evenodd" clip-rule="evenodd" d="M50.2294 9.47266C71.2524 27.8703 24.8355 78.4475 52.5916 90.8062C32.3229 73.1634 79.4843 23.7184 50.2294 9.47266Z" fill="#E0B370" fill-opacity="0.23" stroke="#E0B370" stroke-width="1.09428" stroke-miterlimit="10"/>
<path fill-rule="evenodd" clip-rule="evenodd" d="M66.0878 26.3919C72.0538 44.6411 39.6526 78.6673 66.088 88.9202C47.0838 69.6228 80.3225 42.257 66.0878 26.3919Z" fill="#E0B370" fill-opacity="0.23" stroke="#E0B370" stroke-width="1.09428" stroke-miterlimit="10"/>
<path fill-rule="evenodd" clip-rule="evenodd" d="M41.3822 26.3917C47.3482 44.641 15.6957 78.6671 42.1311 88.9201C23.1269 69.6227 55.6169 42.2569 41.3822 26.3917Z" fill="#E0B370" fill-opacity="0.23" stroke="#E0B370" stroke-width="1.09428" stroke-miterlimit="10"/>
<path d="M51 101C78.6143 101 101 78.6142 101 51C101 23.3859 78.6143 1 51 1C23.3857 1 1 23.3859 1 51C1 78.6142 23.3857 101 51 101Z" stroke="#E0B370" stroke-width="1.09428" stroke-miterlimit="10"/>
</svg>
