<svg width="102" height="102" viewBox="0 0 102 102" fill="none" xmlns="http://www.w3.org/2000/svg">
<path d="M51 101C78.6143 101 101 78.6142 101 51C101 23.3859 78.6143 1 51 1C23.3857 1 1 23.3859 1 51C1 78.6142 23.3857 101 51 101Z" stroke="#E0B370" stroke-width="1.09428" stroke-miterlimit="10"/>
<path d="M30.8332 56.6939C27.0843 56.1965 9.40615 54.1522 6.04504 56.6939C3.94435 60.5064 4.78484 66.0132 11.9272 77.8743C19.0696 89.7354 35.0347 96.9368 51.4201 97.7841C69.9062 96.9368 78.7292 90.5826 85.4513 83.3813C96.2906 71.7694 97.2152 63.4716 97.2152 59.6591C97.2152 55.8466 83.141 53.5611 72.0068 56.6939C53.9406 61.7771 46.7983 58.8118 30.8332 56.6939Z" fill="#F7EDDE" fill-opacity="0.6"/>
<path d="M32.4336 90.4688C32.8743 90.4688 33.2986 90.5185 33.6338 90.6143C33.7967 90.6608 33.9774 90.729 34.1328 90.834C34.2648 90.9232 34.542 91.153 34.542 91.5508C34.542 91.9486 34.2648 92.1784 34.1328 92.2676C33.9774 92.3725 33.7967 92.4407 33.6338 92.4873C33.2986 92.5831 32.8743 92.6328 32.4336 92.6328C31.993 92.6328 31.5686 92.5831 31.2334 92.4873C31.0705 92.4407 30.8897 92.3725 30.7344 92.2676C30.6023 92.1783 30.3262 91.9484 30.3262 91.5508C30.3262 91.1531 30.6023 90.9232 30.7344 90.834C30.8897 90.729 31.0705 90.6608 31.2334 90.6143C31.5686 90.5185 31.993 90.4688 32.4336 90.4688Z" stroke="#E0B370" stroke-width="1.34444" stroke-miterlimit="10"/>
<path d="M50.502 90.4688C50.9426 90.4688 51.367 90.5185 51.7021 90.6143C51.8651 90.6608 52.0458 90.729 52.2012 90.834C52.3332 90.9232 52.6103 91.153 52.6104 91.5508C52.6104 91.9486 52.3332 92.1784 52.2012 92.2676C52.0458 92.3725 51.8651 92.4407 51.7021 92.4873C51.367 92.5831 50.9426 92.6328 50.502 92.6328C50.0613 92.6328 49.6369 92.5831 49.3018 92.4873C49.1388 92.4407 48.9581 92.3725 48.8027 92.2676C48.6707 92.1783 48.3945 91.9484 48.3945 91.5508C48.3945 91.1531 48.6707 90.9232 48.8027 90.834C48.9581 90.729 49.1388 90.6608 49.3018 90.6143C49.6369 90.5185 50.0613 90.4688 50.502 90.4688Z" stroke="#E0B370" stroke-width="1.34444" stroke-miterlimit="10"/>
<path d="M68.5723 90.4688C69.0129 90.4688 69.4373 90.5185 69.7725 90.6143C69.9354 90.6608 70.1161 90.729 70.2715 90.834C70.4035 90.9232 70.6806 91.153 70.6807 91.5508C70.6807 91.9486 70.4035 92.1784 70.2715 92.2676C70.1161 92.3725 69.9354 92.4407 69.7725 92.4873C69.4373 92.5831 69.0129 92.6328 68.5723 92.6328C68.1316 92.6328 67.7072 92.5831 67.3721 92.4873C67.2092 92.4407 67.0284 92.3725 66.873 92.2676C66.741 92.1783 66.4648 91.9484 66.4648 91.5508C66.4649 91.1531 66.741 90.9232 66.873 90.834C67.0284 90.729 67.2092 90.6608 67.3721 90.6143C67.7072 90.5185 68.1316 90.4688 68.5723 90.4688Z" stroke="#E0B370" stroke-width="1.34444" stroke-miterlimit="10"/>
<ellipse cx="14.0784" cy="72.5119" rx="3.07646" ry="2.05097" stroke="#E0B370" stroke-width="1.34444" stroke-miterlimit="10"/>
<ellipse cx="32.2288" cy="72.5119" rx="3.07646" ry="2.05097" stroke="#E0B370" stroke-width="1.34444" stroke-miterlimit="10"/>
<ellipse cx="50.3811" cy="72.5119" rx="3.07646" ry="2.05097" stroke="#E0B370" stroke-width="1.34444" stroke-miterlimit="10"/>
<ellipse cx="68.5315" cy="72.5119" rx="3.07646" ry="2.05097" stroke="#E0B370" stroke-width="1.34444" stroke-miterlimit="10"/>
<ellipse cx="86.6819" cy="72.5119" rx="3.07646" ry="2.05097" stroke="#E0B370" stroke-width="1.34444" stroke-miterlimit="10"/>
<ellipse cx="22.2619" cy="82.8546" rx="2.46117" ry="1.64078" stroke="#E0B370" stroke-width="1.34444" stroke-miterlimit="10"/>
<ellipse cx="40.7815" cy="82.8546" rx="2.46117" ry="1.64078" stroke="#E0B370" stroke-width="1.34444" stroke-miterlimit="10"/>
<ellipse cx="59.303" cy="82.8546" rx="2.46117" ry="1.64078" stroke="#E0B370" stroke-width="1.34444" stroke-miterlimit="10"/>
<ellipse cx="77.8225" cy="82.8546" rx="2.46117" ry="1.64078" stroke="#E0B370" stroke-width="1.34444" stroke-miterlimit="10"/>
<path d="M9.40234 53.6484H28.177C29.5198 53.6484 30.852 53.8181 32.16 54.1223C36.0143 55.0189 44.7462 56.8744 50.9961 56.8744C57.246 56.8744 65.9778 55.0189 69.8322 54.1223C71.1401 53.8181 72.4724 53.6484 73.8152 53.6484H92.5898" stroke="#E0B370" stroke-width="1.34444" stroke-miterlimit="10"/>
<path d="M13.873 63.0166L20.4998 65.3726C22.233 65.9888 24.1257 65.9888 25.8589 65.3726L29.8061 63.9693C31.5393 63.353 33.4319 63.353 35.1651 63.9693L39.1124 65.3726C40.8456 65.9888 42.7382 65.9888 44.4714 65.3726L48.4187 63.9693C50.1519 63.353 52.0445 63.353 53.7777 63.9693L57.725 65.3726C59.4582 65.9888 61.3508 65.9888 63.084 65.3726L67.0313 63.9693C68.7645 63.353 70.6571 63.353 72.3903 63.9693L76.3376 65.3726C78.0708 65.9888 79.9634 65.9888 81.6966 65.3726L88.3234 63.0166" stroke="#E0B370" stroke-width="1.34444" stroke-miterlimit="10"/>
<path d="M57.5788 35.0527C59.3025 36.7906 60.3797 39.3975 58.2252 41.5698C56.5015 43.3077 54.5624 44.9732 53.0542 46.349C51.9052 47.218 49.0899 48.4345 47.0215 46.349" stroke="#E0B370" stroke-width="1.34444" stroke-miterlimit="10" stroke-linecap="round"/>
<path d="M75.8602 14.5557L46.375 46.783C48.5296 48.883 55.8821 53.7074 61.6724 47.8692C69.2133 40.2659 79.9539 29.545 86.2021 23.8968" stroke="#E0B370" stroke-width="1.34444" stroke-miterlimit="10" stroke-linecap="round"/>
</svg>
