<svg width="103" height="103" viewBox="0 0 103 103" fill="none" xmlns="http://www.w3.org/2000/svg">
<circle cx="50" cy="50" r="49.1667" stroke="#E0B370" stroke-width="1.66667"/>
<path d="M51.2388 75.8231C50.3694 75.8583 48.6305 75.8231 47.5461 75.4468C46.3259 75.0235 44.7843 72.8807 45.0251 71.6406C45.4429 69.4824 49.174 69.0776 50.799 69.1819C52.424 69.2861 53.89 69.6951 55.0689 70.5658C55.5097 70.8911 55.7355 71.2065 55.799 71.7113C55.991 73.2508 55.3791 74.1859 53.9173 74.9911C53.0558 75.4656 52.256 75.79 51.2388 75.8231Z" fill="#F7EDDE"/>
<path d="M43.334 70.833C44.8252 71.6663 46.6892 72.4997 50.4173 72.4997C53.3998 72.4997 56.3822 71.3886 57.5007 70.833" stroke="#E0B370" stroke-width="1.33333" stroke-linecap="round"/>
<path d="M46.668 75C47.4574 75.4167 48.4443 75.8333 50.418 75.8333C51.9969 75.8333 53.5759 75.2778 54.168 75" stroke="#E0B370" stroke-width="1.33333" stroke-linecap="round"/>
<path d="M47.5 64.167C48.114 64.5837 48.8816 65.0003 50.4167 65.0003C51.6447 65.0003 52.8728 64.4448 53.3333 64.167" stroke="#E0B370" stroke-width="1.33333" stroke-linecap="round"/>
<path d="M46.1494 8.83193C47.2716 8.24503 48.4733 7.71947 49.7543 7.55509C52.35 7.22576 54.889 8.42014 56.9526 9.88215C58.5732 11.0359 60.1375 12.6219 59.9904 14.4855C59.9675 14.7739 59.8998 15.0724 59.7185 15.299C59.2874 15.8348 58.4375 15.8554 57.7231 15.8242C55.3654 15.7315 53.019 15.639 50.6722 15.5565C48.6204 15.474 46.0245 15.7725 44.0521 15.2783C42.5447 14.9075 42.2497 13.322 42.6809 12.0452C42.998 11.0871 44.891 8.83193 46.1494 8.83193Z" fill="#F7EDDE"/>
<path d="M26.2943 34.4797C26.8644 33.0294 25.7888 31.1678 26.8317 29.9744C27.5954 29.1002 30.3911 28.7813 30.789 27.7118C31.1439 26.7652 31.0578 25.7057 31.3374 24.7389C31.9502 22.6407 32.0794 20.6556 34.0687 19.596C36.8539 18.1048 41.7248 17.3535 44.8001 16.5207C47.8758 15.6873 51.2198 15.5127 54.2307 16.5516C55.5424 17.0039 56.7685 17.6728 57.9728 18.3414C60.005 19.4622 62.027 20.5833 64.0593 21.7045C66.3926 22.9905 68.7798 24.3276 70.468 26.3333C71.4679 27.5161 72.1886 28.9254 72.5648 30.3964C72.8227 31.4147 72.9197 32.4637 73.0271 33.5027C73.2102 35.498 73.4037 37.4831 73.5864 39.4785C73.8013 41.7724 74.0165 44.0557 74.1562 46.3497C74.1992 47.0488 74.1349 47.9131 73.479 48.2216C73.2316 48.3347 72.9415 48.3451 72.6618 48.3244C70.5756 48.2009 68.7476 46.8948 67.3928 45.3622C66.0377 43.8294 65.0161 42.0603 63.6935 40.5072C61.0158 37.3803 57.2416 35.3233 53.5209 33.3895C52.3597 32.7824 51.1768 32.1754 49.8864 31.8772C47.7249 31.3734 45.4563 31.7744 43.3166 32.3298C39.8108 33.235 36.155 34.6957 33.8538 37.5037C32.1333 39.6123 28.7671 48.4685 25.6062 44.0867C24.2406 42.2354 25.4983 36.4957 26.2943 34.4797Z" fill="#F7EDDE"/>
<path d="M27.6741 42.7656C29.6516 37.59 34.3154 33.3213 40.7727 33.3159C41.9646 33.3151 41.9664 31.6659 40.7727 31.667C33.4716 31.6731 28.1308 36.4583 25.8879 42.3274C25.5032 43.334 27.2916 43.7664 27.6741 42.7656Z" fill="#E0B370"/>
<path d="M45.9128 31.8806C43.964 30.0083 43.7271 27.7853 45.2965 25.5882C46.2418 24.2649 47.7347 22.9101 49.3784 22.5058C50.4676 22.2379 50.006 20.5943 48.9145 20.8625C46.5793 21.4368 44.438 23.4555 43.3189 25.4742C41.807 28.2029 42.4622 30.9565 44.6782 33.0856C45.4796 33.8556 46.715 32.6518 45.9128 31.8806Z" fill="#E0B370"/>
<path d="M47.5383 32.2292C46.7961 26.9649 53.5178 23.193 57.7234 22.5391C58.793 22.3727 58.3387 20.6788 57.2749 20.8444C51.9615 21.67 45.02 26.3675 45.912 32.6964C46.0693 33.8117 47.6944 33.3376 47.5383 32.2292Z" fill="#E0B370"/>
<path d="M50.567 32.841C54.0428 28.7294 59.995 27.7414 65.0181 28.7037C69.899 29.6388 74.8835 32.7612 74.9928 38.3418C75.0142 39.4402 76.6891 39.4439 76.6678 38.3418C76.4126 25.3136 56.3788 23.3572 49.3825 31.6327C48.6819 32.4618 49.8617 33.6756 50.567 32.841Z" fill="#E0B370"/>
<path d="M58.5823 34.5453C66.7952 32.512 75.6601 41.3872 76.5874 49.1635C76.7198 50.2721 78.46 50.2856 78.326 49.1635C77.2616 40.2388 67.5321 30.5206 58.1203 32.8505C57.0337 33.1194 57.4937 34.8146 58.5823 34.5453Z" fill="#E0B370"/>
<path d="M24.2397 51.148C21.6941 45.1519 21.6312 38.5259 25.6866 33.3127C28.9133 29.1646 33.3473 26.9543 38.3783 26.7712C39.4281 26.7326 39.4326 24.9621 38.3783 25.0006C32.6968 25.2076 27.605 27.8044 24.0932 32.6446C19.8861 38.4423 20.073 45.5527 22.8276 52.0418C23.2664 53.0759 24.6766 52.1771 24.2397 51.148Z" fill="#E0B370"/>
<path d="M26.9256 30.7182C26.0998 28.0692 28.337 24.9233 30.0523 22.9482C31.2239 21.5995 32.6257 20.4733 34.1593 19.5558C37.4902 17.5623 41.3692 16.5098 45.2184 16.1225C52.9367 15.3459 61.6129 16.8747 67.8829 21.6495C71.2303 24.198 73.5414 27.6998 74.1489 31.8757C74.308 32.97 75.9807 32.5049 75.8228 31.4173C74.5737 22.8344 66.69 17.6233 58.8238 15.5112C50.4994 13.2758 40.4406 13.5936 32.9693 18.2581C31.1504 19.3932 29.5095 20.803 28.196 22.4963C26.3253 24.9082 24.2757 28.0447 25.2516 31.1766C25.5811 32.2338 27.2574 31.7827 26.9256 30.7182Z" fill="#E0B370"/>
<path d="M37.5661 79.167C39.3623 84.7591 37.5661 89.5542 36.668 93.3337" stroke="#E0B370" stroke-width="1.66667" stroke-linecap="round"/>
<path d="M57.7711 53.7228C59.8652 56.4585 63.3875 55.4457 65.8386 53.8253C66.8362 53.1664 67.7646 54.7698 66.7736 55.4248C63.3244 57.705 58.9055 58.2285 56.1715 54.6578C55.4473 53.7118 57.0554 52.7882 57.7711 53.7228Z" fill="#E0B370"/>
<path d="M55.9448 51.0212C58.5871 49.1359 62.0534 48.2649 64.7488 50.5679C65.6506 51.3383 66.9668 50.034 66.0588 49.2579C62.7358 46.419 58.3996 47.0033 55.0097 49.4217C54.0477 50.1085 54.9718 51.7156 55.9448 51.0212Z" fill="#E0B370"/>
<path d="M44.3595 54.921C41.626 58.4916 37.209 57.9695 33.7574 55.688C32.7673 55.0334 33.6939 53.4287 34.6924 54.0888C37.1402 55.7064 40.6643 56.7237 42.7599 53.9859C43.4747 53.0522 45.0842 53.9736 44.3595 54.921Z" fill="#E0B370"/>
<path d="M45.5536 48.7296C42.1656 46.3124 37.8275 45.7276 34.505 48.5659C33.5975 49.3414 34.9127 50.6462 35.8145 49.8759C38.5053 47.5773 41.9777 48.4448 44.6186 50.3292C45.5907 51.0227 46.5167 49.417 45.5536 48.7296Z" fill="#E0B370"/>
<path d="M40.0631 15.4905C38.8542 9.97772 45.4723 7.03901 49.8755 6.65592C53.1467 6.37134 56.1452 7.23421 58.7907 9.18933C61.2191 10.9838 63.816 14.093 61.9293 17.1489C61.3872 18.0263 62.7661 18.8305 63.3058 17.9563C65.2435 14.8181 63.6389 11.471 61.201 9.14021C58.2994 6.36621 54.4968 4.82543 50.4887 5.01578C44.8012 5.28574 37.0113 9.01161 38.5255 15.9156C38.746 16.9205 40.2836 16.4955 40.0631 15.4905Z" fill="#E0B370"/>
<path d="M26.0942 51.6527C29.6247 51.0752 31.5391 47.6468 33.118 44.8587C34.1312 43.07 35.1612 41.2908 36.2078 39.5213C37.5333 37.2805 38.7668 35.2341 41.6612 35.0557C42.7756 34.9871 42.7836 33.2657 41.6612 33.335C37.729 33.5776 36.123 36.2366 34.3104 39.3169C33.2028 41.1996 32.117 43.0947 31.045 44.9977C29.8503 47.1178 28.2616 49.5629 25.6308 49.9935C24.526 50.1742 24.9947 51.8327 26.0942 51.6527Z" fill="#E0B370"/>
<path d="M63.7369 41.6709C65.9394 43.1692 67.7102 45.6874 69.2707 47.75C70.2878 49.0944 71.1163 50.8456 72.7655 51.5763C73.8305 52.0483 74.765 50.5412 73.6927 50.0659C71.8322 49.2418 70.5642 46.4331 69.3196 44.9215C67.9326 43.2367 66.5072 41.4142 64.6641 40.1609C63.7008 39.5055 62.782 41.0215 63.7369 41.6709Z" fill="#E0B370"/>
<path d="M30 52.5C30 75 42.9167 84.1667 50.4167 84.1667C57.9167 84.1667 72.5 69.5833 72.5 53.75" stroke="#E0B370" stroke-width="1.66667" stroke-linecap="round"/>
<path d="M63.334 79.167C62.2229 83.1688 62.2229 90.1652 63.334 94.167" stroke="#E0B370" stroke-width="1.66667" stroke-linecap="round"/>
<path d="M28.3334 52.0831C25.4172 51.6664 22.9167 60.8331 29.1673 64.1664" stroke="#E0B370" stroke-width="1.66667" stroke-linecap="round"/>
<path d="M73.3346 52.0831C76.2507 51.6664 78.7512 60.8331 72.5007 64.1664" stroke="#E0B370" stroke-width="1.66667" stroke-linecap="round"/>
<path d="M32.9077 59.3114C34.2977 57.4471 36.6144 59.3114 38.9311 58.5657C41.8402 57.6293 44.0277 59.6752 44.0277 61.9213C44.0277 63.4127 41.2477 63.7856 37.5411 64.5313C33.8344 65.277 31.5177 61.1756 32.9077 59.3114Z" fill="#FFE4E4"/>
<path d="M66.9399 59.3114C65.5499 57.4471 63.2333 59.3114 60.9166 58.5657C58.0075 57.6293 55.8199 59.6752 55.8199 61.9213C55.8199 63.4127 58.5999 63.7856 62.3066 64.5313C66.0133 65.277 68.3299 61.1756 66.9399 59.3114Z" fill="#FFE4E4"/>
<path d="M85.4043 65.8633C86.0741 65.5186 86.8702 65.5187 87.54 65.8623L87.6816 65.9414L88.3672 66.3486C91.8145 68.361 95.5254 70.0211 99.2422 71.2148C100.194 71.5208 100.861 72.406 100.861 73.4277V79.9082C100.861 87.8561 97.424 93.1451 94.5283 96.1768C92.8906 97.8915 91.1929 99.134 89.7939 99.9531C89.0949 100.362 88.4589 100.673 87.9307 100.885C87.4633 101.072 86.92 101.25 86.4727 101.25C86.0252 101.25 85.482 101.072 85.0146 100.885C84.4864 100.673 83.8505 100.362 83.1514 99.9531C81.7524 99.134 80.0548 97.8915 78.417 96.1768C75.5214 93.145 72.084 87.8562 72.084 79.9082V73.4287C72.0841 72.406 72.7526 71.5192 73.707 71.2148C77.7481 69.9263 81.5472 68.1942 85.2627 65.9434L85.4043 65.8633Z" fill="white" stroke="white" stroke-width="2.5" stroke-linecap="round" stroke-linejoin="round"/>
<path d="M99.6112 79.9083C99.6112 87.4598 96.3555 92.4536 93.6241 95.3133C90.524 98.5591 87.2094 100 86.4727 100C85.7361 100 82.4213 98.5591 79.3211 95.3133C76.5898 92.4535 73.334 87.4598 73.334 79.9083V73.4289C73.334 72.9606 73.6408 72.5483 74.087 72.4061C78.224 71.0869 82.1126 69.3127 85.9104 67.012C86.256 66.8027 86.6897 66.8024 87.0356 67.0112C90.7556 69.2564 94.801 71.1014 98.8595 72.4049C99.305 72.548 99.6112 72.9598 99.6112 73.4278V79.9083Z" fill="white" stroke="#E0B370" stroke-width="1.66667" stroke-linecap="round" stroke-linejoin="round"/>
<path d="M89.1895 80.7855C89.1895 80.8775 89.2641 80.9521 89.3561 80.9521H94.8343C94.9264 80.9521 95.001 81.0268 95.001 81.1188V85.8294C95.001 85.9215 94.9264 85.9961 94.8343 85.9961H89.3561C89.2641 85.9961 89.1895 86.0707 89.1895 86.1628V91.641C89.1895 91.733 89.1148 91.8076 89.0228 91.8076H84.3122C84.2201 91.8076 84.1455 91.733 84.1455 91.641V86.1628C84.1455 86.0707 84.0709 85.9961 83.9788 85.9961H78.5007C78.4086 85.9961 78.334 85.9215 78.334 85.8294V81.1188C78.334 81.0268 78.4086 80.9521 78.5007 80.9521H83.9788C84.0709 80.9521 84.1455 80.8775 84.1455 80.7855V75.3073C84.1455 75.2152 84.2201 75.1406 84.3122 75.1406H89.0228C89.1148 75.1406 89.1895 75.2152 89.1895 75.3073V80.7855Z" fill="white"/>
<path d="M89.3561 80.9521V81.7855H94.8343V80.9521V80.1188H89.3561V80.9521ZM95.001 81.1188H94.1676V85.8294H95.001H95.8343V81.1188H95.001ZM94.8343 85.9961V85.1628H89.3561V85.9961V86.8294H94.8343V85.9961ZM89.1895 86.1628H88.3561V91.641H89.1895H90.0228V86.1628H89.1895ZM89.0228 91.8076V90.9743H84.3122V91.8076V92.641H89.0228V91.8076ZM84.1455 91.641H84.9788V86.1628H84.1455H83.3122V91.641H84.1455ZM83.9788 85.9961V85.1628H78.5007V85.9961V86.8294H83.9788V85.9961ZM78.334 85.8294H79.1673V81.1188H78.334H77.5007V85.8294H78.334ZM78.5007 80.9521V81.7855H83.9788V80.9521V80.1188H78.5007V80.9521ZM84.1455 80.7855H84.9788V75.3073H84.1455H83.3122V80.7855H84.1455ZM84.3122 75.1406V75.974H89.0228V75.1406V74.3073H84.3122V75.1406ZM89.1895 75.3073H88.3561V80.7855H89.1895H90.0228V75.3073H89.1895ZM89.0228 75.1406V75.974C88.6546 75.974 88.3561 75.6755 88.3561 75.3073H89.1895H90.0228C90.0228 74.755 89.5751 74.3073 89.0228 74.3073V75.1406ZM84.1455 75.3073H84.9788C84.9788 75.6755 84.6804 75.974 84.3122 75.974V75.1406V74.3073C83.7599 74.3073 83.3122 74.755 83.3122 75.3073H84.1455ZM83.9788 80.9521V81.7855C84.5311 81.7855 84.9788 81.3378 84.9788 80.7855H84.1455H83.3122C83.3122 80.4173 83.6107 80.1188 83.9788 80.1188V80.9521ZM78.334 81.1188H79.1673C79.1673 81.487 78.8688 81.7855 78.5007 81.7855V80.9521V80.1188C77.9484 80.1188 77.5007 80.5665 77.5007 81.1188H78.334ZM78.5007 85.9961V85.1628C78.8688 85.1628 79.1673 85.4612 79.1673 85.8294H78.334H77.5007C77.5007 86.3817 77.9484 86.8294 78.5007 86.8294V85.9961ZM84.1455 86.1628H84.9788C84.9788 85.6105 84.5311 85.1628 83.9788 85.1628V85.9961V86.8294C83.6107 86.8294 83.3122 86.531 83.3122 86.1628H84.1455ZM84.3122 91.8076V90.9743C84.6804 90.9743 84.9788 91.2728 84.9788 91.641H84.1455H83.3122C83.3122 92.1932 83.7599 92.641 84.3122 92.641V91.8076ZM89.1895 91.641H88.3561C88.3561 91.2728 88.6546 90.9743 89.0228 90.9743V91.8076V92.641C89.5751 92.641 90.0228 92.1932 90.0228 91.641H89.1895ZM89.3561 85.9961V85.1628C88.8038 85.1628 88.3561 85.6105 88.3561 86.1628H89.1895H90.0228C90.0228 86.531 89.7243 86.8294 89.3561 86.8294V85.9961ZM95.001 85.8294H94.1676C94.1676 85.4612 94.4661 85.1628 94.8343 85.1628V85.9961V86.8294C95.3866 86.8294 95.8343 86.3817 95.8343 85.8294H95.001ZM94.8343 80.9521V81.7855C94.4661 81.7855 94.1676 81.487 94.1676 81.1188H95.001H95.8343C95.8343 80.5665 95.3866 80.1188 94.8343 80.1188V80.9521ZM89.3561 80.9521V80.1188C89.7243 80.1188 90.0228 80.4173 90.0228 80.7855H89.1895H88.3561C88.3561 81.3378 88.8038 81.7855 89.3561 81.7855V80.9521Z" fill="#E0B370"/>
<circle cx="37.5384" cy="60.8333" r="0.833333" fill="#E0B370"/>
<circle cx="42.4993" cy="64.1507" r="0.833333" fill="#E0B370"/>
<circle cx="34.584" cy="62.083" r="1.25" fill="#E0B370"/>
<circle cx="38.3333" cy="66.6663" r="0.833333" fill="#E0B370"/>
<circle cx="0.833333" cy="0.833333" r="0.833333" transform="matrix(-1 0 0 1 65 60)" fill="#E0B370"/>
<circle cx="0.833333" cy="0.833333" r="0.833333" transform="matrix(-1 0 0 1 61.666 63.333)" fill="#E0B370"/>
<circle cx="0.833333" cy="0.833333" r="0.833333" transform="matrix(-1 0 0 1 40.834 40.833)" fill="#E0B370"/>
<circle cx="0.833333" cy="0.833333" r="0.833333" transform="matrix(-1 0 0 1 43.334 37.5)" fill="#E0B370"/>
<circle cx="0.833333" cy="0.833333" r="0.833333" transform="matrix(-1 0 0 1 57.5 37.5)" fill="#E0B370"/>
<circle cx="0.833333" cy="0.833333" r="0.833333" transform="matrix(-1 0 0 1 66.666 64.167)" fill="#E0B370"/>
</svg>
