<svg width="100" height="100" viewBox="0 0 100 100" fill="none" xmlns="http://www.w3.org/2000/svg">
<circle cx="50" cy="50" r="49.1667" stroke="#E0B370" stroke-width="1.66667"/>
<path d="M51.2388 75.8231C50.3694 75.8583 48.6305 75.8231 47.5461 75.4468C46.3259 75.0235 44.7843 72.8807 45.0251 71.6406C45.4429 69.4824 49.174 69.0776 50.799 69.1819C52.424 69.2861 53.89 69.6951 55.0689 70.5658C55.5097 70.8911 55.7355 71.2065 55.799 71.7113C55.991 73.2508 55.3791 74.1859 53.9173 74.9911C53.0558 75.4656 52.256 75.79 51.2388 75.8231Z" fill="#F7EDDE"/>
<path d="M44.166 71.667C46.8157 73.3451 53.9581 73.1914 56.666 71.667" stroke="#E0B370" stroke-width="1.33333" stroke-linecap="round"/>
<path d="M68.332 59.166L66.6665 57.4994" stroke="#E0B370" stroke-width="1.33333" stroke-linecap="round"/>
<path d="M69.1671 54.1661L66.6669 55.0001" stroke="#E0B370" stroke-width="1.33333" stroke-linecap="round"/>
<path d="M69.166 56.249L66.666 56.249" stroke="#E0B370" stroke-width="1.33333" stroke-linecap="round"/>
<path d="M33.3359 59.166L35.0015 57.4994" stroke="#E0B370" stroke-width="1.33333" stroke-linecap="round"/>
<path d="M32.5009 54.1661L35.0011 55.0001" stroke="#E0B370" stroke-width="1.33333" stroke-linecap="round"/>
<path d="M32.502 56.25L35.002 56.25" stroke="#E0B370" stroke-width="1.33333" stroke-linecap="round"/>
<path d="M42.8855 60.6448C44.1623 60.3194 45.5893 57.916 45.6193 57.5004" stroke="#E0B370" stroke-width="1.33333" stroke-linecap="round"/>
<path d="M59.0832 60.6448C57.8064 60.3194 56.3795 57.916 56.3494 57.5004" stroke="#E0B370" stroke-width="1.33333" stroke-linecap="round"/>
<path d="M46.666 75C47.4555 75.4167 48.4423 75.8333 50.416 75.8333C51.995 75.8333 53.5739 75.2778 54.166 75" stroke="#E0B370" stroke-width="1.33333" stroke-linecap="round"/>
<path d="M48.334 65C48.7726 65.4167 49.3208 65.8333 50.4173 65.8333C51.2945 65.8333 52.1717 65.2778 52.5007 65" stroke="#E0B370" stroke-width="1.33333" stroke-linecap="round"/>
<path d="M46.1494 8.83193C47.2716 8.24503 48.4733 7.71947 49.7543 7.55509C52.35 7.22576 54.889 8.42014 56.9526 9.88215C58.5732 11.0359 60.1375 12.6219 59.9904 14.4855C59.9675 14.7739 59.8998 15.0724 59.7185 15.299C59.2874 15.8348 58.4375 15.8554 57.7231 15.8242C55.3654 15.7315 53.019 15.639 50.6722 15.5565C48.6204 15.474 46.0245 15.7725 44.0521 15.2783C42.5447 14.9075 42.2497 13.322 42.6809 12.0452C42.998 11.0871 44.891 8.83193 46.1494 8.83193Z" fill="#F7EDDE"/>
<path d="M26.2943 34.4797C26.8644 33.0294 25.7888 31.1678 26.8317 29.9744C27.5954 29.1002 30.3911 28.7813 30.789 27.7118C31.1439 26.7652 31.0578 25.7057 31.3374 24.7389C31.9502 22.6407 32.0794 20.6556 34.0687 19.596C36.8539 18.1048 41.7248 17.3535 44.8001 16.5207C47.8758 15.6873 51.2198 15.5127 54.2307 16.5516C55.5425 17.0039 56.7685 17.6728 57.9728 18.3414C60.005 19.4622 62.027 20.5833 64.0593 21.7045C66.3926 22.9905 68.7798 24.3276 70.468 26.3333C71.4679 27.5161 72.1886 28.9254 72.5648 30.3964C72.8227 31.4147 72.9197 32.4637 73.0271 33.5027C73.2102 35.498 73.4037 37.4831 73.5864 39.4785C73.8013 41.7724 74.0165 44.0557 74.1562 46.3497C74.1992 47.0488 74.1349 47.9131 73.479 48.2216C73.2316 48.3347 72.9415 48.3451 72.6618 48.3244C70.5756 48.2009 68.7476 46.8948 67.3928 45.3622C66.0377 43.8294 65.0161 42.0603 63.6935 40.5072C61.0158 37.3803 57.2416 35.3233 53.521 33.3895C52.3597 32.7824 51.1768 32.1754 49.8864 31.8772C47.7249 31.3734 45.4563 31.7744 43.3166 32.3298C39.8108 33.235 36.155 34.6957 33.8538 37.5037C32.1333 39.6123 28.7671 48.4685 25.6062 44.0867C24.2406 42.2354 25.4983 36.4957 26.2943 34.4797Z" fill="#F7EDDE"/>
<path d="M27.6741 42.7656C29.6516 37.59 34.3154 33.3213 40.7727 33.3159C41.9646 33.3151 41.9664 31.6659 40.7727 31.667C33.4716 31.6731 28.1308 36.4583 25.8879 42.3274C25.5032 43.334 27.2916 43.7664 27.6741 42.7656Z" fill="#E0B370"/>
<path d="M45.9128 31.8806C43.964 30.0083 43.7271 27.7853 45.2965 25.5882C46.2418 24.2649 47.7347 22.9101 49.3784 22.5058C50.4676 22.2379 50.006 20.5943 48.9145 20.8625C46.5793 21.4368 44.438 23.4555 43.3189 25.4742C41.807 28.2029 42.4622 30.9565 44.6782 33.0856C45.4796 33.8556 46.715 32.6518 45.9128 31.8806Z" fill="#E0B370"/>
<path d="M47.5383 32.2292C46.7961 26.9649 53.5178 23.193 57.7234 22.5391C58.793 22.3727 58.3387 20.6788 57.2749 20.8444C51.9615 21.67 45.02 26.3675 45.912 32.6964C46.0693 33.8117 47.6944 33.3376 47.5383 32.2292Z" fill="#E0B370"/>
<path d="M50.565 32.841C54.0408 28.7294 59.993 27.7414 65.0162 28.7037C69.8971 29.6388 74.8816 32.7612 74.9909 38.3418C75.0122 39.4402 76.6871 39.4439 76.6658 38.3418C76.4107 25.3136 56.3768 23.3572 49.3805 31.6327C48.6799 32.4618 49.8598 33.6756 50.565 32.841Z" fill="#E0B370"/>
<path d="M58.5823 34.5453C66.7952 32.512 75.6601 41.3872 76.5874 49.1635C76.7198 50.2721 78.46 50.2856 78.326 49.1635C77.2616 40.2388 67.5321 30.5206 58.1203 32.8505C57.0337 33.1194 57.4937 34.8146 58.5823 34.5453Z" fill="#E0B370"/>
<path d="M24.2397 51.148C21.6941 45.1519 21.6312 38.5259 25.6866 33.3127C28.9133 29.1646 33.3473 26.9543 38.3783 26.7712C39.4281 26.7326 39.4326 24.9621 38.3783 25.0006C32.6968 25.2076 27.605 27.8044 24.0932 32.6446C19.8861 38.4423 20.073 45.5527 22.8276 52.0418C23.2664 53.0759 24.6766 52.1771 24.2397 51.148Z" fill="#E0B370"/>
<path d="M26.9256 30.7182C26.0998 28.0692 28.337 24.9233 30.0523 22.9482C31.2239 21.5995 32.6257 20.4733 34.1593 19.5558C37.4902 17.5623 41.3692 16.5098 45.2184 16.1225C52.9367 15.3459 61.6129 16.8747 67.8829 21.6495C71.2303 24.198 73.5414 27.6998 74.1489 31.8757C74.308 32.97 75.9807 32.5049 75.8228 31.4173C74.5737 22.8344 66.69 17.6233 58.8238 15.5112C50.4994 13.2758 40.4406 13.5936 32.9693 18.2581C31.1504 19.3932 29.5095 20.803 28.196 22.4963C26.3253 24.9082 24.2757 28.0447 25.2516 31.1766C25.5811 32.2338 27.2574 31.7827 26.9256 30.7182Z" fill="#E0B370"/>
<path d="M37.5641 79.167C39.3603 84.7591 37.5641 89.5542 36.666 93.3337" stroke="#E0B370" stroke-width="1.66667" stroke-linecap="round"/>
<path d="M57.3913 55.501C59.2595 53.1643 62.4019 54.0294 64.5887 55.4134C65.4787 55.9762 66.307 54.6068 65.4228 54.0473C62.3456 52.0997 58.4033 51.6526 55.9643 54.7024C55.3181 55.5104 56.7528 56.2992 57.3913 55.501Z" fill="#E0B370"/>
<path d="M55.9116 51.0212C58.5539 49.1359 62.0202 48.2649 64.7156 50.5679C65.6174 51.3383 66.9336 50.034 66.0256 49.2579C62.7026 46.419 58.3664 47.0033 54.9765 49.4217C54.0145 50.1085 54.9386 51.7156 55.9116 51.0212Z" fill="#E0B370"/>
<path d="M58.1376 53.208C58.0963 53.8179 58.0336 54.4297 58.0731 55.0396C58.178 56.6814 59.2786 56.8271 59.5824 56.8926C59.8862 56.9581 60.226 56.9163 60.4676 56.7204C60.5701 56.6368 60.6503 56.5296 60.7253 56.4203C61.4515 55.3629 61.7334 54.0102 61.49 52.751" fill="#E0B370"/>
<path d="M57.596 53.6664C57.481 55.2726 57.3567 57.3981 59.3516 57.7921C61.6821 58.2515 62.1122 54.648 61.8581 53.0859C61.7628 52.4993 60.8699 52.7481 60.965 53.3324C61.1144 54.2507 60.9108 57.3189 59.3715 56.8461C58.0957 56.4545 58.4499 54.677 58.522 53.6664C58.5647 53.0717 57.6382 53.0741 57.596 53.6664Z" fill="#E0B370"/>
<path d="M45.6372 54.7026C43.1985 51.6532 39.2579 52.099 36.1786 54.0475C35.2952 54.6065 36.1218 55.977 37.0127 55.4132C39.1965 54.0318 42.3406 53.163 44.2101 55.5012C44.8479 56.2985 46.2838 55.5117 45.6372 54.7026Z" fill="#E0B370"/>
<path d="M45.5204 48.7296C42.1324 46.3124 37.7943 45.7276 34.4718 48.5659C33.5643 49.3414 34.8795 50.6462 35.7813 49.8759C38.4721 47.5773 41.9445 48.4448 44.5854 50.3292C45.5575 51.0227 46.4835 49.417 45.5204 48.7296Z" fill="#E0B370"/>
<path d="M42.9166 54.041C42.9578 54.651 43.0204 55.2633 42.9811 55.8727C42.8762 57.5144 41.7755 57.6601 41.4718 57.7261C41.168 57.7911 40.8282 57.7494 40.587 57.5534C40.4841 57.4698 40.4039 57.3626 40.3288 57.2539C39.6026 56.1963 39.3207 54.8432 39.5642 53.584" fill="#E0B370"/>
<path d="M42.5333 53.8082C42.6055 54.8187 42.9596 56.5962 41.6838 56.9879C40.1445 57.4606 39.9409 54.3926 40.0904 53.4741C40.1853 52.8907 39.293 52.6401 39.1976 53.2278C38.9427 54.7922 39.3723 58.3938 41.7037 57.9338C43.6986 57.5403 43.5742 55.415 43.4593 53.8082C43.4171 53.2173 42.4906 53.2125 42.5333 53.8082Z" fill="#E0B370"/>
<path d="M40.0631 15.4905C38.8542 9.97772 45.4723 7.03901 49.8755 6.65592C53.1467 6.37134 56.1452 7.23421 58.7907 9.18933C61.2191 10.9838 63.816 14.093 61.9293 17.1489C61.3872 18.0263 62.7661 18.8305 63.3058 17.9563C65.2435 14.8181 63.6389 11.471 61.201 9.14021C58.2994 6.36621 54.4968 4.82543 50.4887 5.01578C44.8012 5.28574 37.0113 9.01161 38.5255 15.9156C38.746 16.9205 40.2836 16.4955 40.0631 15.4905Z" fill="#E0B370"/>
<path d="M26.0942 51.6527C29.6247 51.0752 31.5391 47.6468 33.118 44.8587C34.1312 43.07 35.1612 41.2908 36.2078 39.5213C37.5333 37.2805 38.7668 35.2341 41.6612 35.0557C42.7756 34.9871 42.7836 33.2657 41.6612 33.335C37.729 33.5776 36.123 36.2366 34.3104 39.3169C33.2028 41.1996 32.117 43.0947 31.045 44.9977C29.8503 47.1178 28.2616 49.5629 25.6308 49.9935C24.526 50.1742 24.9947 51.8327 26.0942 51.6527Z" fill="#E0B370"/>
<path d="M63.7369 41.6709C65.9394 43.1692 67.7102 45.6874 69.2707 47.75C70.2878 49.0944 71.1163 50.8456 72.7655 51.5763C73.8305 52.0483 74.765 50.5412 73.6927 50.0659C71.8322 49.2418 70.5642 46.4331 69.3196 44.9215C67.9326 43.2367 66.5072 41.4142 64.6641 40.1609C63.7008 39.5055 62.782 41.0215 63.7369 41.6709Z" fill="#E0B370"/>
<path d="M30 52.5C30 75 42.9167 84.1667 50.4167 84.1667C57.9167 84.1667 72.5 69.5833 72.5 53.75" stroke="#E0B370" stroke-width="1.66667" stroke-linecap="round"/>
<path d="M63.334 79.167C62.2229 83.1688 62.2229 90.1652 63.334 94.167" stroke="#E0B370" stroke-width="1.66667" stroke-linecap="round"/>
<path d="M28.3334 52.0831C25.4172 51.6664 22.9167 60.8331 29.1673 64.1664" stroke="#E0B370" stroke-width="1.66667" stroke-linecap="round"/>
<path d="M73.3346 52.0831C76.2507 51.6664 78.7512 60.8331 72.5007 64.1664" stroke="#E0B370" stroke-width="1.66667" stroke-linecap="round"/>
</svg>
