<svg width="98" height="98" viewBox="0 0 98 98" fill="none" xmlns="http://www.w3.org/2000/svg">
<path d="M49.1225 95.0455C74.8476 95.0455 95.7017 74.1914 95.7017 48.4661C95.7017 22.7407 74.8476 1.88623 49.1225 1.88623C23.3971 1.88623 2.54248 22.7407 2.54248 48.4661C2.54248 74.1914 23.3971 95.0455 49.1225 95.0455Z" stroke="url(#paint0_linear_2222_2357)" stroke-width="3.0625" stroke-miterlimit="10"/>
<path d="M63.6341 55.0808C64.6648 57.0451 64.9536 59.3141 64.448 61.4737C63.9427 63.6333 62.6768 65.5385 60.8825 66.8418C59.0875 68.1453 56.8843 68.7588 54.6742 68.5695C52.4642 68.3811 50.3965 67.4033 48.8481 65.8157C47.2996 67.4041 45.2319 68.3811 43.0219 68.5695C40.8118 68.758 38.6086 68.1445 36.8136 66.8418C35.0186 65.5385 33.7535 63.6333 33.248 61.4737C32.7426 59.3141 33.032 57.0451 34.0628 55.0808C32.0786 54.0952 30.5149 52.4289 29.6572 50.3857C28.7995 48.3426 28.7053 46.0597 29.3914 43.9529C30.0776 41.8463 31.4981 40.0565 33.3943 38.911C35.2904 37.7653 37.5357 37.3388 39.7197 37.7109C40.0445 35.5215 41.1457 33.5213 42.8221 32.0755C44.4983 30.6296 46.638 29.834 48.8519 29.834C51.0659 29.834 53.2054 30.6289 54.8826 32.0747C56.5589 33.5205 57.6601 35.52 57.9856 37.7094C60.1695 37.3395 62.4127 37.7676 64.308 38.9149C66.2025 40.062 67.6215 41.8517 68.3062 43.9576C68.9908 46.0636 68.8959 48.3463 68.0382 50.3881C67.1804 52.4296 65.6183 54.0952 63.6341 55.0808ZM55.9095 50.2617C55.9095 48.8655 55.4959 47.5017 54.721 46.3408C53.946 45.1806 52.844 44.2754 51.5543 43.7416C50.2649 43.2078 48.8457 43.0678 47.4772 43.3396C46.1081 43.6123 44.8506 44.2838 43.8642 45.271C42.8772 46.258 42.2047 47.5147 41.9328 48.884C41.6604 50.2531 41.8004 51.6715 42.3342 52.9611C42.868 54.2506 43.7723 55.3527 44.9334 56.1284C46.0935 56.9035 47.4581 57.3177 48.8541 57.3177C50.7258 57.3177 52.5201 56.5741 53.8434 55.2516C55.1666 53.9283 55.9095 52.1332 55.9095 50.2617Z" stroke="url(#paint1_linear_2222_2357)" stroke-width="3.0625" stroke-miterlimit="10" stroke-linejoin="round"/>
<defs>
<linearGradient id="paint0_linear_2222_2357" x1="55.2898" y1="-30.9518" x2="60.7925" y2="180.399" gradientUnits="userSpaceOnUse">
<stop offset="0.167093" stop-color="#CBE5FF"/>
<stop offset="0.5" stop-color="#85B2DE"/>
<stop offset="1" stop-color="#3F7EBD"/>
</linearGradient>
<linearGradient id="paint1_linear_2222_2357" x1="51.4844" y1="16.1681" x2="53.714" y2="104.127" gradientUnits="userSpaceOnUse">
<stop offset="0.167093" stop-color="#CBE5FF"/>
<stop offset="0.5" stop-color="#85B2DE"/>
<stop offset="1" stop-color="#3F7EBD"/>
</linearGradient>
</defs>
</svg>
