<svg width="98" height="98" viewBox="0 0 98 98" fill="none" xmlns="http://www.w3.org/2000/svg">
<path d="M49.1225 96.3453C74.8476 96.3453 95.7017 75.4913 95.7017 49.7659C95.7017 24.0405 74.8476 3.18604 49.1225 3.18604C23.3971 3.18604 2.54248 24.0405 2.54248 49.7659C2.54248 75.4913 23.3971 96.3453 49.1225 96.3453Z" stroke="url(#paint0_linear_2222_2341)" stroke-width="3.0625" stroke-miterlimit="10"/>
<path fill-rule="evenodd" clip-rule="evenodd" d="M60.7848 29.5812V28.05H57.7223V29.5812V31.3188H55.9873H54.4561V34.3813H55.9873H57.7223V36.1184V37.6497H60.7848V36.1184V34.3813H62.5245H64.0558V31.3188H62.5245H60.7848V29.5812ZM70.5918 36.2191V37.7504V41.1262H73.963H75.4943V44.1887H73.963H70.5918V47.5562V49.0874H67.5293V47.5562V44.1887H64.1572H62.626V41.1262H64.1572H67.5293V37.7504V36.2191H70.5918ZM64.5815 61.9539C64.3118 62.4015 64.0252 62.8376 63.7224 63.2615C60.09 68.3462 54.1389 71.6609 47.4136 71.6609C36.352 71.6609 27.3847 62.6937 27.3847 51.632C27.3847 42.1064 34.0344 34.134 42.945 32.1035C44.0857 31.8435 45.2635 31.681 46.4691 31.625C45.9891 32.6387 45.5918 33.6991 45.2857 34.7975C44.808 36.5119 44.5526 38.319 44.5526 40.1858C44.5526 50.4205 52.2292 58.8622 62.1386 60.0672C62.9393 60.1646 63.7545 60.2147 64.5815 60.2147C64.8981 60.2147 65.213 60.2073 65.526 60.1928C65.2399 60.7971 64.9245 61.3847 64.5815 61.9539ZM47.4136 68.5984C52.4801 68.5984 57.0314 66.3777 60.1424 62.8509C49.5132 60.7811 41.4901 51.4204 41.4901 40.1858C41.4901 38.604 41.6495 37.0578 41.9535 35.5629C35.2626 37.8358 30.4472 44.1721 30.4472 51.632C30.4472 61.0023 38.0433 68.5984 47.4136 68.5984Z" fill="url(#paint1_linear_2222_2341)"/>
<defs>
<linearGradient id="paint0_linear_2222_2341" x1="55.2898" y1="-29.652" x2="60.7925" y2="181.699" gradientUnits="userSpaceOnUse">
<stop offset="0.167093" stop-color="#CBE5FF"/>
<stop offset="0.5" stop-color="#85B2DE"/>
<stop offset="1" stop-color="#3F7EBD"/>
</linearGradient>
<linearGradient id="paint1_linear_2222_2341" x1="54.6248" y1="12.6773" x2="56.9602" y2="111.629" gradientUnits="userSpaceOnUse">
<stop offset="0.167093" stop-color="#CBE5FF"/>
<stop offset="0.5" stop-color="#85B2DE"/>
<stop offset="1" stop-color="#3F7EBD"/>
</linearGradient>
</defs>
</svg>
