<svg width="100" height="101" viewBox="0 0 100 101" fill="none" xmlns="http://www.w3.org/2000/svg">
    <path fill-rule="evenodd" clip-rule="evenodd" d="M48.6735 37.9518C42.6631 38.7184 38.021 43.8883 38.021 50.1441C38.021 56.3999 42.6631 61.5699 48.6735 62.3364V61.1649C43.3124 60.4061 39.1819 55.7645 39.1819 50.1441C39.1819 44.5238 43.3124 39.8822 48.6735 39.1234V37.9518ZM43.9897 29.7908C43.9586 29.4717 43.6748 29.2383 43.3557 29.2694C43.0366 29.3005 42.8032 29.5843 42.8343 29.9034L43.2146 33.8067C43.2457 34.1257 43.5296 34.3592 43.8486 34.3281C44.1677 34.297 44.4012 34.0131 44.3701 33.6941L43.9897 29.7908ZM32.7624 35.6359C32.5103 35.4378 32.1454 35.4817 31.9474 35.7338C31.7494 35.9859 31.7932 36.3508 32.0453 36.5488L35.559 39.3088C35.8111 39.5069 36.176 39.463 36.374 39.2109C36.572 38.9588 36.5282 38.5939 36.2761 38.3959L32.7624 35.6359ZM28.5304 49.5637C28.2098 49.5637 27.95 49.8236 27.95 50.1441C27.95 50.4647 28.2098 50.7246 28.5304 50.7246H32.4039C32.7245 50.7246 32.9843 50.4647 32.9843 50.1441C32.9843 49.8236 32.7245 49.5637 32.4039 49.5637H28.5304ZM36.3031 61.5072C36.5428 61.2942 36.5644 60.9273 36.3514 60.6877C36.1385 60.4481 35.7716 60.4265 35.5319 60.6394L32.0183 63.7621C31.7787 63.975 31.757 64.3419 31.97 64.5815C32.183 64.8212 32.5499 64.8428 32.7895 64.6298L36.3031 61.5072ZM44.3402 67.6498C44.4461 67.3473 44.2867 67.0161 43.9841 66.9102C43.6815 66.8043 43.3504 66.9637 43.2445 67.2663L41.927 71.0301C41.8211 71.3326 41.9806 71.6638 42.2831 71.7697C42.5857 71.8756 42.9169 71.7162 43.0228 71.4136L44.3402 67.6498Z" fill="#A9D4FF"/>
    <path d="M48.6735 37.9518H49.1635C49.1635 37.8111 49.103 37.6771 48.9974 37.5841C48.8917 37.4911 48.7512 37.448 48.6115 37.4658L48.6735 37.9518ZM48.6735 62.3364L48.6115 62.8225C48.7512 62.8403 48.8917 62.7972 48.9973 62.7042C49.103 62.6112 49.1635 62.4772 49.1635 62.3364H48.6735ZM48.6735 61.1649H49.1635C49.1635 60.9208 48.9839 60.7139 48.7422 60.6797L48.6735 61.1649ZM48.6735 39.1234L48.7422 39.6086C48.9839 39.5744 49.1635 39.3675 49.1635 39.1234H48.6735ZM43.3557 29.2694L43.3082 28.7817L43.3557 29.2694ZM43.9897 29.7908L43.502 29.8383V29.8383L43.9897 29.7908ZM42.8343 29.9034L42.3466 29.9509V29.9509L42.8343 29.9034ZM43.2146 33.8067L43.7023 33.7592V33.7592L43.2146 33.8067ZM43.8486 34.3281L43.8011 33.8404H43.8011L43.8486 34.3281ZM44.3701 33.6941L43.8824 33.7416V33.7416L44.3701 33.6941ZM31.9474 35.7338L31.5621 35.4311L31.5621 35.4311L31.9474 35.7338ZM32.7624 35.6359L32.4598 36.0212H32.4598L32.7624 35.6359ZM32.0453 36.5488L31.7426 36.9341H31.7426L32.0453 36.5488ZM35.559 39.3088L35.2563 39.6942L35.559 39.3088ZM36.2761 38.3959L36.5788 38.0106L36.2761 38.3959ZM36.3514 60.6877L35.9852 61.0132H35.9852L36.3514 60.6877ZM36.3031 61.5072L36.6286 61.8735L36.6286 61.8735L36.3031 61.5072ZM35.5319 60.6394L35.8574 61.0057L35.8574 61.0057L35.5319 60.6394ZM32.0183 63.7621L32.3438 64.1283H32.3438L32.0183 63.7621ZM31.97 64.5815L31.6037 64.907L31.6037 64.907L31.97 64.5815ZM32.7895 64.6298L33.115 64.9961H33.115L32.7895 64.6298ZM43.9841 66.9102L44.146 66.4477L43.9841 66.9102ZM44.3402 67.6498L44.8027 67.8117L44.3402 67.6498ZM43.2445 67.2663L42.782 67.1044L43.2445 67.2663ZM41.927 71.0301L42.3895 71.1919L41.927 71.0301ZM42.2831 71.7697L42.445 71.3072L42.445 71.3072L42.2831 71.7697ZM43.0228 71.4136L43.4853 71.5755L43.0228 71.4136ZM38.511 50.1441C38.511 44.1352 42.9696 39.1733 48.7355 38.4379L48.6115 37.4658C42.3566 38.2635 37.531 43.6415 37.531 50.1441H38.511ZM48.7355 61.8504C42.9696 61.115 38.511 56.1531 38.511 50.1441H37.531C37.531 56.6468 42.3566 62.0248 48.6115 62.8225L48.7355 61.8504ZM49.1635 62.3364V61.1649H48.1835V62.3364H49.1635ZM38.6919 50.1441C38.6919 56.0092 43.0027 60.8572 48.6049 61.65L48.7422 60.6797C43.6221 59.9551 39.6719 55.5198 39.6719 50.1441H38.6919ZM48.6049 38.6382C43.0027 39.4311 38.6919 44.2791 38.6919 50.1441H39.6719C39.6719 44.7685 43.6221 40.3332 48.7422 39.6086L48.6049 38.6382ZM49.1635 39.1234V37.9518H48.1835V39.1234H49.1635ZM43.4032 29.7571C43.4529 29.7522 43.4972 29.7886 43.502 29.8383L44.4774 29.7433C44.4201 29.1549 43.8966 28.7244 43.3082 28.7817L43.4032 29.7571ZM43.322 29.8559C43.3171 29.8062 43.3535 29.7619 43.4032 29.7571L43.3082 28.7817C42.7198 28.839 42.2892 29.3625 42.3466 29.9509L43.322 29.8559ZM43.7023 33.7592L43.322 29.8559L42.3466 29.9509L42.7269 33.8542L43.7023 33.7592ZM43.8011 33.8404C43.7514 33.8453 43.7072 33.8089 43.7023 33.7592L42.7269 33.8542C42.7843 34.4426 43.3078 34.8731 43.8962 34.8158L43.8011 33.8404ZM43.8824 33.7416C43.8872 33.7913 43.8509 33.8356 43.8011 33.8404L43.8962 34.8158C44.4846 34.7585 44.9151 34.235 44.8578 33.6466L43.8824 33.7416ZM43.502 29.8383L43.8824 33.7416L44.8578 33.6466L44.4774 29.7433L43.502 29.8383ZM32.3327 36.0365C32.3636 35.9972 32.4205 35.9903 32.4598 36.0212L33.0651 35.2505C32.6002 34.8853 31.9273 34.9662 31.5621 35.4311L32.3327 36.0365ZM32.348 36.1635C32.3087 36.1326 32.3019 36.0758 32.3327 36.0365L31.5621 35.4311C31.1969 35.896 31.2777 36.5689 31.7426 36.9341L32.348 36.1635ZM35.8617 38.9235L32.348 36.1635L31.7426 36.9341L35.2563 39.6942L35.8617 38.9235ZM35.9887 38.9083C35.9578 38.9475 35.9009 38.9544 35.8617 38.9235L35.2563 39.6942C35.7212 40.0594 36.3941 39.9785 36.7593 39.5136L35.9887 38.9083ZM35.9734 38.7812C36.0127 38.8121 36.0195 38.869 35.9887 38.9083L36.7593 39.5136C37.1245 39.0487 37.0437 38.3758 36.5788 38.0106L35.9734 38.7812ZM32.4598 36.0212L35.9734 38.7812L36.5788 38.0106L33.0651 35.2505L32.4598 36.0212ZM28.44 50.1441C28.44 50.0942 28.4805 50.0537 28.5304 50.0537V49.0737C27.9392 49.0737 27.46 49.5529 27.46 50.1441H28.44ZM28.5304 50.2346C28.4805 50.2346 28.44 50.1941 28.44 50.1441H27.46C27.46 50.7353 27.9392 51.2146 28.5304 51.2146V50.2346ZM32.4039 50.2346H28.5304V51.2146H32.4039V50.2346ZM32.4943 50.1441C32.4943 50.1941 32.4538 50.2346 32.4039 50.2346V51.2146C32.9951 51.2146 33.4743 50.7353 33.4743 50.1441H32.4943ZM32.4039 50.0537C32.4538 50.0537 32.4943 50.0942 32.4943 50.1441H33.4743C33.4743 49.5529 32.9951 49.0737 32.4039 49.0737V50.0537ZM28.5304 50.0537H32.4039V49.0737H28.5304V50.0537ZM35.9852 61.0132C36.0183 61.0506 36.015 61.1077 35.9776 61.1409L36.6286 61.8735C37.0705 61.4807 37.1104 60.8041 36.7177 60.3622L35.9852 61.0132ZM35.8574 61.0057C35.8948 60.9725 35.952 60.9759 35.9852 61.0132L36.7177 60.3622C36.325 59.9203 35.6483 59.8804 35.2064 60.2732L35.8574 61.0057ZM32.3438 64.1283L35.8574 61.0057L35.2064 60.2732L31.6928 63.3958L32.3438 64.1283ZM32.3363 64.256C32.3031 64.2187 32.3065 64.1615 32.3438 64.1283L31.6928 63.3958C31.2509 63.7885 31.211 64.4651 31.6037 64.907L32.3363 64.256ZM32.464 64.2636C32.4266 64.2967 32.3695 64.2934 32.3363 64.256L31.6037 64.907C31.9965 65.3489 32.6731 65.3888 33.115 64.9961L32.464 64.2636ZM35.9776 61.1409L32.464 64.2636L33.115 64.9961L36.6286 61.8735L35.9776 61.1409ZM43.8222 67.3727C43.8694 67.3892 43.8942 67.4408 43.8777 67.488L44.8027 67.8117C44.998 67.2537 44.704 66.643 44.146 66.4477L43.8222 67.3727ZM43.707 67.4282C43.7235 67.381 43.7751 67.3562 43.8222 67.3727L44.146 66.4477C43.588 66.2524 42.9773 66.5464 42.782 67.1044L43.707 67.4282ZM42.3895 71.1919L43.707 67.4282L42.782 67.1044L41.4646 70.8682L42.3895 71.1919ZM42.445 71.3072C42.3979 71.2907 42.373 71.2391 42.3895 71.1919L41.4646 70.8682C41.2692 71.4262 41.5633 72.0369 42.1213 72.2322L42.445 71.3072ZM42.5603 71.2517C42.5438 71.2989 42.4922 71.3237 42.445 71.3072L42.1213 72.2322C42.6793 72.4275 43.2899 72.1335 43.4853 71.5755L42.5603 71.2517ZM43.8777 67.488L42.5603 71.2517L43.4853 71.5755L44.8027 67.8117L43.8777 67.488Z" fill="#AAD5FF"/>
    <path fill-rule="evenodd" clip-rule="evenodd" d="M55.2492 30.182C55.2492 29.8614 54.9893 29.6016 54.6687 29.6016C54.3481 29.6016 54.0883 29.8614 54.0883 30.182V37.6584V50.1489V62.6394V69.1544C54.0883 69.475 54.3481 69.7349 54.6687 69.7349C54.9893 69.7349 55.2492 69.475 55.2492 69.1544V64.0484L58.9049 67.7322C59.1307 67.9598 59.4982 67.9612 59.7258 67.7354C59.9533 67.5096 59.9547 67.142 59.7289 66.9145L55.2492 62.4003V51.1582L64.9039 56.7752L66.5435 62.9417C66.6259 63.2516 66.9439 63.4359 67.2537 63.3536C67.5635 63.2712 67.7479 62.9532 67.6655 62.6434L66.1127 56.8038L71.904 55.24C72.2135 55.1564 72.3966 54.8378 72.3131 54.5283C72.2295 54.2188 71.9109 54.0357 71.6014 54.1192L65.4857 55.7706L55.823 50.1489L65.4857 44.5272L71.6014 46.1786C71.9109 46.2621 72.2295 46.079 72.3131 45.7695C72.3966 45.46 72.2135 45.1414 71.904 45.0578L66.1127 43.494L67.6655 37.6544C67.7479 37.3446 67.5635 37.0266 67.2537 36.9442C66.9439 36.8619 66.6259 37.0462 66.5435 37.3561L64.9039 43.5226L55.2492 49.1397V37.8976L59.7289 33.3834C59.9547 33.1558 59.9533 32.7883 59.7258 32.5625C59.4982 32.3367 59.1307 32.3381 58.9049 32.5656L55.2492 36.2495V30.182Z" fill="#A9D4FF"/>
    <path d="M55.2492 64.0484L55.597 63.7032C55.4571 63.5623 55.2461 63.5197 55.0625 63.5953C54.879 63.671 54.7592 63.8499 54.7592 64.0484H55.2492ZM58.9049 67.7322L59.2527 67.3871L58.9049 67.7322ZM59.7258 67.7354L59.3806 67.3876L59.3806 67.3876L59.7258 67.7354ZM59.7289 66.9145L60.0767 66.5693V66.5693L59.7289 66.9145ZM55.2492 62.4003H54.7592C54.7592 62.5296 54.8103 62.6537 54.9014 62.7454L55.2492 62.4003ZM55.2492 51.1582L55.4956 50.7347C55.344 50.6465 55.1569 50.646 55.0049 50.7334C54.8529 50.8209 54.7592 50.9828 54.7592 51.1582H55.2492ZM64.9039 56.7752L65.3774 56.6493C65.3441 56.524 65.2624 56.4169 65.1503 56.3517L64.9039 56.7752ZM66.5435 62.9417L67.0171 62.8158L66.5435 62.9417ZM67.6655 62.6434L68.139 62.5175L67.6655 62.6434ZM66.1127 56.8038L65.985 56.3308C65.7245 56.4011 65.5698 56.6689 65.6392 56.9297L66.1127 56.8038ZM71.904 55.24L72.0317 55.7131L71.904 55.24ZM71.6014 54.1192L71.7291 54.5923L71.6014 54.1192ZM65.4857 55.7706L65.2393 56.1942C65.3524 56.26 65.4871 56.2778 65.6135 56.2437L65.4857 55.7706ZM55.823 50.1489L55.5766 49.7254C55.4258 49.8131 55.333 49.9745 55.333 50.1489C55.333 50.3234 55.4258 50.4847 55.5766 50.5725L55.823 50.1489ZM65.4857 44.5272L65.6135 44.0542C65.4871 44.0201 65.3524 44.0379 65.2393 44.1037L65.4857 44.5272ZM71.6014 46.1786L71.7291 45.7055L71.7291 45.7055L71.6014 46.1786ZM72.3131 45.7695L72.7861 45.8972L72.7861 45.8972L72.3131 45.7695ZM71.904 45.0578L71.7763 45.5308L71.904 45.0578ZM66.1127 43.494L65.6392 43.3681C65.5698 43.6289 65.7245 43.8967 65.985 43.9671L66.1127 43.494ZM67.6655 37.6544L68.139 37.7803L67.6655 37.6544ZM66.5435 37.3561L67.0171 37.482V37.482L66.5435 37.3561ZM64.9039 43.5226L65.1503 43.9462C65.2624 43.8809 65.3441 43.7739 65.3774 43.6485L64.9039 43.5226ZM55.2492 49.1397H54.7592C54.7592 49.315 54.8529 49.477 55.0049 49.5644C55.1569 49.6519 55.344 49.6514 55.4956 49.5632L55.2492 49.1397ZM55.2492 37.8976L54.9014 37.5524C54.8103 37.6442 54.7592 37.7683 54.7592 37.8976H55.2492ZM59.7289 33.3834L60.0767 33.7285H60.0767L59.7289 33.3834ZM59.7258 32.5625L59.3806 32.9103L59.3806 32.9103L59.7258 32.5625ZM58.9049 32.5656L58.5571 32.2205V32.2205L58.9049 32.5656ZM55.2492 36.2495H54.7592C54.7592 36.448 54.879 36.6269 55.0625 36.7025C55.2461 36.7781 55.4571 36.7355 55.597 36.5946L55.2492 36.2495ZM54.6687 30.0916C54.7187 30.0916 54.7592 30.1321 54.7592 30.182H55.7392C55.7392 29.5908 55.2599 29.1116 54.6687 29.1116V30.0916ZM54.5783 30.182C54.5783 30.1321 54.6188 30.0916 54.6687 30.0916V29.1116C54.0775 29.1116 53.5983 29.5908 53.5983 30.182H54.5783ZM54.5783 37.6584V30.182H53.5983V37.6584H54.5783ZM54.5783 50.1489V37.6584H53.5983V50.1489H54.5783ZM54.5783 62.6394V50.1489H53.5983V62.6394H54.5783ZM54.5783 69.1544V62.6394H53.5983V69.1544H54.5783ZM54.6687 69.2449C54.6188 69.2449 54.5783 69.2043 54.5783 69.1544H53.5983C53.5983 69.7456 54.0775 70.2249 54.6687 70.2249V69.2449ZM54.7592 69.1544C54.7592 69.2043 54.7187 69.2449 54.6687 69.2449V70.2249C55.2599 70.2249 55.7392 69.7456 55.7392 69.1544H54.7592ZM54.7592 64.0484V69.1544H55.7392V64.0484H54.7592ZM59.2527 67.3871L55.597 63.7032L54.9014 64.3935L58.5571 68.0774L59.2527 67.3871ZM59.3806 67.3876C59.3451 67.4227 59.2879 67.4225 59.2527 67.3871L58.5571 68.0774C58.9735 68.497 59.6513 68.4996 60.0709 68.0832L59.3806 67.3876ZM59.3811 67.2596C59.4163 67.2951 59.4161 67.3524 59.3806 67.3876L60.0709 68.0832C60.4905 67.6667 60.4931 66.989 60.0767 66.5693L59.3811 67.2596ZM54.9014 62.7454L59.3811 67.2596L60.0767 66.5693L55.597 62.0551L54.9014 62.7454ZM54.7592 51.1582V62.4003H55.7392V51.1582H54.7592ZM65.1503 56.3517L55.4956 50.7347L55.0028 51.5817L64.6575 57.1988L65.1503 56.3517ZM67.0171 62.8158L65.3774 56.6493L64.4303 56.9011L66.07 63.0677L67.0171 62.8158ZM67.1278 62.88C67.0795 62.8928 67.0299 62.8641 67.0171 62.8158L66.07 63.0677C66.2219 63.639 66.8082 63.979 67.3796 63.8271L67.1278 62.88ZM67.1919 62.7693C67.2048 62.8176 67.176 62.8672 67.1278 62.88L67.3796 63.8271C67.9509 63.6752 68.2909 63.0889 68.139 62.5175L67.1919 62.7693ZM65.6392 56.9297L67.1919 62.7693L68.139 62.5175L66.5863 56.6779L65.6392 56.9297ZM71.7763 54.767L65.985 56.3308L66.2405 57.2769L72.0317 55.7131L71.7763 54.767ZM71.84 54.656C71.853 54.7043 71.8245 54.7539 71.7763 54.767L72.0317 55.7131C72.6025 55.559 72.9402 54.9713 72.7861 54.4006L71.84 54.656ZM71.7291 54.5923C71.7773 54.5793 71.827 54.6078 71.84 54.656L72.7861 54.4006C72.632 53.8298 72.0444 53.4921 71.4736 53.6462L71.7291 54.5923ZM65.6135 56.2437L71.7291 54.5923L71.4736 53.6462L65.358 55.2976L65.6135 56.2437ZM55.5766 50.5725L65.2393 56.1942L65.7321 55.3471L56.0694 49.7254L55.5766 50.5725ZM65.2393 44.1037L55.5766 49.7254L56.0694 50.5725L65.7321 44.9508L65.2393 44.1037ZM71.7291 45.7055L65.6135 44.0542L65.358 45.0003L71.4736 46.6516L71.7291 45.7055ZM71.84 45.6418C71.827 45.69 71.7773 45.7185 71.7291 45.7055L71.4736 46.6516C72.0444 46.8057 72.632 46.468 72.7861 45.8972L71.84 45.6418ZM71.7763 45.5308C71.8245 45.5439 71.853 45.5935 71.84 45.6418L72.7861 45.8972C72.9402 45.3265 72.6025 44.7388 72.0317 44.5847L71.7763 45.5308ZM65.985 43.9671L71.7763 45.5308L72.0317 44.5847L66.2405 43.021L65.985 43.9671ZM67.1919 37.5285L65.6392 43.3681L66.5863 43.6199L68.139 37.7803L67.1919 37.5285ZM67.1278 37.4178C67.176 37.4306 67.2048 37.4802 67.1919 37.5285L68.139 37.7803C68.2909 37.2089 67.9509 36.6226 67.3796 36.4707L67.1278 37.4178ZM67.0171 37.482C67.0299 37.4337 67.0795 37.405 67.1278 37.4178L67.3796 36.4707C66.8082 36.3188 66.2219 36.6588 66.07 37.2301L67.0171 37.482ZM65.3774 43.6485L67.0171 37.482L66.07 37.2301L64.4303 43.3967L65.3774 43.6485ZM55.4956 49.5632L65.1503 43.9462L64.6575 43.0991L55.0028 48.7161L55.4956 49.5632ZM54.7592 37.8976V49.1397H55.7392V37.8976H54.7592ZM59.3811 33.0382L54.9014 37.5524L55.597 38.2427L60.0767 33.7285L59.3811 33.0382ZM59.3806 32.9103C59.4161 32.9455 59.4163 33.0028 59.3811 33.0382L60.0767 33.7285C60.4931 33.3089 60.4905 32.6311 60.0709 32.2147L59.3806 32.9103ZM59.2527 32.9108C59.2879 32.8753 59.3451 32.8751 59.3806 32.9103L60.0709 32.2147C59.6513 31.7983 58.9735 31.8009 58.5571 32.2205L59.2527 32.9108ZM55.597 36.5946L59.2527 32.9108L58.5571 32.2205L54.9014 35.9043L55.597 36.5946ZM54.7592 30.182V36.2495H55.7392V30.182H54.7592Z" fill="#AAD5FF"/>
    <path d="M50.0004 99.5C77.0623 99.5 99 77.5623 99 50.5002C99 23.4381 77.0623 1.5 50.0004 1.5C22.9382 1.5 1 23.4381 1 50.5002C1 77.5623 22.9382 99.5 50.0004 99.5Z" stroke="#AAD5FF" stroke-width="1.63333" stroke-miterlimit="10"/>
</svg>
