<svg width="98" height="99" viewBox="0 0 98 99" fill="none" xmlns="http://www.w3.org/2000/svg">
    <g clip-path="url(#clip0_2222_2389)">
        <path d="M32.1368 42.4551C32.035 45.4694 32.3087 48.4422 32.9485 51.3864C33.1172 52.1662 34.3171 51.8353 34.1453 51.0555C33.5278 48.2131 33.2763 45.358 33.3782 42.4551C33.4068 41.6562 32.1623 41.6562 32.1368 42.4551Z" fill="#A9D4FF"/>
        <path d="M35.2465 57.1922C37.8437 59.6558 40.5524 62.1894 43.9103 63.5676C45.4763 64.2106 47.2301 64.704 48.9075 64.2202C50.4926 63.7586 52.03 62.7592 53.3827 61.8329C56.2251 59.8881 58.676 57.3196 60.0796 54.143C61.6265 50.6481 61.8525 46.7714 62.0626 43.0091C62.1072 42.2102 60.8658 42.2134 60.8212 43.0091C60.6366 46.3321 60.4648 49.7601 59.252 52.8985C58.0553 55.9987 55.8432 58.5386 53.1663 60.4675C52.0236 61.2886 50.795 62.0431 49.5186 62.6319C47.6153 63.5135 45.7501 63.0552 43.9135 62.2181C40.9216 60.8526 38.4834 58.545 36.1249 56.3074C35.5456 55.7663 34.6671 56.6416 35.2465 57.1922Z" fill="#A9D4FF"/>
        <path d="M44.7861 49.9319C45.8078 50.5686 47.0969 50.5718 48.1218 49.9447C48.803 49.5277 48.1791 48.4519 47.4947 48.872C46.8295 49.2794 46.072 49.2731 45.4131 48.8593C44.7352 48.436 44.1081 49.5086 44.7861 49.9319Z" fill="#A9D4FF"/>
        <path d="M41.0873 54.8656C44.6141 56.2502 48.3985 56.3552 51.8361 54.6587C52.5522 54.3054 51.9252 53.2328 51.2091 53.5861C48.0644 55.1393 44.6172 54.9229 41.4184 53.6688C40.6736 53.376 40.3521 54.5759 41.0873 54.8656Z" fill="#A9D4FF"/>
        <path d="M55.5889 58.8567C55.2769 61.4284 54.9745 64.0321 55.3024 66.6198C55.5921 68.9115 56.5469 70.7958 57.5113 72.8583C57.8487 73.5809 58.9214 72.9507 58.584 72.2313C57.5337 69.9874 56.5914 68.0043 56.4355 65.4835C56.2986 63.2682 56.5629 61.0529 56.8302 58.8567C56.9257 58.0641 55.6843 58.0705 55.5889 58.8567Z" fill="#A9D4FF"/>
        <path d="M37.1469 59.0898C37.2774 60.4807 37.1947 61.843 36.8796 63.2021C36.6981 63.9787 37.8981 64.3129 38.0763 63.5331C38.4169 62.0658 38.5284 60.5889 38.3883 59.0898C38.315 58.3004 37.0737 58.2908 37.1469 59.0898Z" fill="#A9D4FF"/>
        <path d="M51.5814 43.407C52.985 41.5736 55.3468 42.2516 56.9923 43.337C57.6608 43.7794 58.2846 42.7036 57.6193 42.2643C55.3054 40.7365 52.3421 40.3832 50.5087 42.7799C50.0217 43.4134 51.1007 44.0341 51.5814 43.407Z" fill="#A9D4FF"/>
        <path d="M50.3497 39.8198C52.1226 38.5562 54.4461 37.9705 56.254 39.5143C56.8588 40.0299 57.7405 39.1577 57.1326 38.6358C54.9045 36.7324 51.9953 37.1239 49.7227 38.7472C49.0765 39.2087 49.6972 40.2877 50.3497 39.8198Z" fill="#A9D4FF"/>
        <path d="M52.3844 42.1541C52.3557 42.5616 52.3144 42.9722 52.3399 43.3828C52.4098 44.4841 53.1483 44.5827 53.3521 44.6241C53.5557 44.6687 53.785 44.64 53.9441 44.5095C54.0141 44.4522 54.0682 44.3822 54.1159 44.309C54.6029 43.5992 54.7907 42.692 54.6284 41.8486" fill="#A9D4FF"/>
        <path d="M52.0748 42.1529C51.9985 43.2287 51.9157 44.6547 53.2525 44.9188C54.8153 45.2276 55.1049 42.8117 54.9331 41.7645C54.8694 41.3699 54.271 41.5385 54.3347 41.9301C54.4333 42.5444 54.2997 44.6037 53.2653 44.2855C52.409 44.0212 52.6478 42.8308 52.6955 42.1529C52.7242 41.755 52.1035 41.7582 52.0748 42.1529Z" fill="#A9D4FF"/>
        <path d="M42.577 42.541C40.7437 40.1474 37.7835 40.4976 35.4663 42.0253C34.8011 42.4646 35.425 43.5404 36.0934 43.098C37.7358 42.0127 40.0975 41.3315 41.5043 43.168C41.9818 43.7951 43.0608 43.1775 42.577 42.541Z" fill="#A9D4FF"/>
        <path d="M43.3603 38.5113C41.0876 36.8911 38.1784 36.4964 35.9503 38.3998C35.3424 38.9186 36.2241 39.7939 36.8289 39.2783C38.6336 37.7377 40.9603 38.3203 42.7332 39.5839C43.3857 40.0486 44.0064 38.9727 43.3603 38.5113Z" fill="#A9D4FF"/>
        <path d="M40.7003 41.9179C40.7289 42.3253 40.7702 42.7359 40.7448 43.1466C40.6748 44.2478 39.9363 44.3465 39.7327 44.3878C39.5289 44.4324 39.2998 44.4038 39.1406 44.2733C39.0706 44.216 39.0164 44.1459 38.9687 44.0727C38.4817 43.3629 38.2939 42.4558 38.4563 41.6123" fill="#A9D4FF"/>
        <path d="M40.3874 41.9175C40.4352 42.5955 40.6739 43.7859 39.8177 44.0501C38.7864 44.3684 38.6495 42.309 38.7483 41.6948C38.8118 41.3032 38.2134 41.1345 38.1498 41.5292C37.9779 42.5796 38.2675 44.9922 39.8304 44.6835C41.1672 44.4193 41.0845 42.9934 41.0081 41.9175C40.9795 41.5197 40.3588 41.5165 40.3874 41.9175Z" fill="#A9D4FF"/>
        <path d="M61.9833 41.8183C64.988 42.9292 64.431 50.234 60.8342 49.6929C60.0513 49.5751 59.7139 50.7719 60.5033 50.8897C65.7774 51.679 66.8628 42.3021 62.3144 40.6183C61.56 40.3415 61.2386 41.5414 61.9833 41.8183Z" fill="#A9D4FF"/>
        <path d="M61.8466 46.7712C62.0248 45.9787 62.4705 45.3167 63.1579 44.8838C63.8327 44.4604 63.2088 43.3846 62.531 43.8111C61.5792 44.4095 60.8949 45.3389 60.6466 46.4402C60.4748 47.22 61.6715 47.5511 61.8466 46.7712Z" fill="#A9D4FF"/>
        <path d="M31.663 51.3042C32.2232 51.4856 32.7993 51.476 33.3754 51.3646C33.7064 51.301 33.8942 50.9062 33.8082 50.6007C33.7128 50.257 33.3754 50.1042 33.0444 50.1679C32.6847 50.2378 32.341 50.2188 31.994 50.1074C31.2301 49.8591 30.9022 51.0591 31.663 51.3042Z" fill="#A9D4FF"/>
        <path d="M31.5643 41.096C28.1936 42.3151 28.3018 46.472 29.5081 49.222C29.8296 49.9509 30.899 49.3207 30.5807 48.595C29.7245 46.6438 29.3712 43.2031 31.8921 42.2928C32.6401 42.0222 32.3186 40.8222 31.5643 41.096Z" fill="#A9D4FF"/>
        <path d="M33.2258 46.9179C32.9775 45.8166 32.2963 44.8872 31.3415 44.2888C30.6635 43.8623 30.0397 44.9349 30.7145 45.3614C31.4051 45.7943 31.8476 46.4596 32.0258 47.2489C32.2041 48.0256 33.4008 47.6978 33.2258 46.9179Z" fill="#A9D4FF"/>
        <path d="M23.0274 58.8759C22.1745 56.2881 21.6811 53.6272 21.1941 50.9504C20.9936 51.2114 20.7962 51.4755 20.5957 51.7365C23.0052 51.5837 23.8614 55.8585 24.3484 57.5931C24.7908 59.1591 26.1181 60.9034 27.2258 62.0747C27.7764 62.6572 28.6517 61.7787 28.1042 61.1962C27.2098 60.2477 26.344 58.9204 25.7234 57.765C25.5547 57.4467 25.6979 57.7873 25.561 57.3353C25.4083 56.8324 25.3001 56.3168 25.1441 55.8138C24.5043 53.7672 23.2661 50.3265 20.5925 50.4952C20.166 50.5238 19.9177 50.8676 19.9942 51.2813C20.4812 53.9582 20.9744 56.6191 21.8275 59.2069C22.0789 59.9613 23.2789 59.6366 23.0274 58.8759Z" fill="#A9D4FF"/>
        <path d="M27.1367 59.694C27.073 58.4749 27.1335 57.2431 27.1558 56.0241C27.1589 55.7948 27.1653 55.5625 27.1685 55.3333C27.1748 54.9737 27.1844 55.1774 27.1112 55.3429C27.2226 55.0819 27.4423 54.8209 27.5918 54.5853C28.257 53.5414 28.9255 52.4973 29.6034 51.4597C29.9154 50.9855 30.7302 49.4831 31.0135 49.3494C30.762 49.3176 30.5106 49.2858 30.2623 49.2508C31.5578 50.2979 30.5774 53.0193 29.9695 54.213C29.6066 54.9228 30.6793 55.5529 31.0421 54.84C31.9047 53.1498 32.9965 49.8715 31.1408 48.3722C30.9084 48.1844 30.6601 48.1463 30.3896 48.2736C29.7626 48.5728 29.2151 49.7983 28.8586 50.3362C28.0884 51.5042 27.3341 52.682 26.5797 53.8628C25.5102 55.5435 25.7903 57.7396 25.8953 59.694C25.9367 60.4865 27.1812 60.4929 27.1367 59.694Z" fill="#A9D4FF"/>
        <path d="M30.1764 60.4675C30.0427 59.258 30.1095 58.0294 30.1859 56.8199C30.2114 56.4061 30.2878 55.9796 30.2814 55.5658C30.2782 55.2921 30.0427 55.9 30.1828 55.8077C30.2814 55.744 30.3546 55.6422 30.4533 55.5753C32.0575 54.4995 33.6012 52.9303 34.9572 51.5553C34.6325 51.5139 34.3079 51.4725 33.9832 51.4312C34.276 51.8799 34.4893 52.4879 34.2442 53.029C33.9195 53.7515 34.9889 54.3849 35.3168 53.656C35.7465 52.7012 35.6288 51.689 35.0558 50.8073C34.8394 50.4763 34.3715 50.3872 34.0818 50.6832C33.3275 51.4471 32.5094 52.1505 31.701 52.8571C30.9753 53.4938 29.9377 54.1303 29.3457 54.8973C28.9956 55.3526 29.0178 55.7631 28.9732 56.3456C28.8746 57.7143 28.7791 59.1052 28.9319 60.4707C29.021 61.2537 30.2656 61.2601 30.1764 60.4675Z" fill="#A9D4FF"/>
        <path d="M33.2095 61.1934C33.0726 60.2799 33.0949 59.3219 33.0694 58.4021C33.0567 57.985 33.0981 57.5395 33.0376 57.1257C32.9548 56.5495 33.0312 56.8424 32.9135 57.0206C33.7569 55.7729 35.0014 53.9714 36.2842 53.1629C35.9786 53.0388 35.6762 52.9146 35.3706 52.7906C35.6794 54.172 35.2656 55.5215 34.6736 56.766C34.4571 57.2212 34.2312 57.5427 34.2152 58.0392C34.1866 59.0195 34.3935 60.4964 34.9441 61.3176C35.8386 62.648 37.1468 63.8098 38.2544 64.9557C39.2762 66.0093 40.2979 67.1583 41.4915 68.024C42.1407 68.4951 42.7614 67.4161 42.1185 66.9514C40.9695 66.1175 39.9859 64.9621 39.0024 63.9435C38.0539 62.9632 36.4847 61.7473 35.8672 60.4996C35.6603 60.0826 35.6603 59.4492 35.5903 58.975C35.5425 58.6472 35.4279 58.2556 35.4407 57.9215C35.4153 57.6954 35.4089 57.7305 35.4184 58.0265C35.4852 57.9023 35.5489 57.775 35.6157 57.6509C36.5993 56.2281 36.9366 54.1083 36.5674 52.4595C36.4815 52.0743 35.9818 51.8834 35.654 52.0871C34.8296 52.6028 34.1994 53.4748 33.5851 54.2101C33.0853 54.8085 32.3087 55.5119 31.965 56.2249C31.6658 56.8392 31.7994 57.549 31.8185 58.2333C31.8472 59.3251 31.844 60.4391 32.0095 61.5213C32.1305 62.3107 33.3272 61.9764 33.2095 61.1934Z" fill="#A9D4FF"/>
        <path d="M22.5438 60.8654C24.7463 64.6818 28.3621 68.2976 31.8665 70.9076C32.7259 71.5473 33.7986 72.4067 34.8585 72.6836C35.4155 72.8301 35.1482 72.585 35.3296 73.0624C35.4759 73.4412 35.53 73.8772 35.6192 74.2719C36.1571 76.6814 35.8748 75.2721 36.1899 77.7199C36.2886 78.5029 37.5331 78.5123 37.4313 77.7199C37.1225 75.3103 37.4303 76.7705 36.9178 74.3993C36.7746 73.7372 36.7142 72.7854 36.3545 72.1934C35.9343 71.506 34.8522 71.3531 34.1678 70.9553C31.666 69.5071 29.543 67.3777 27.6046 65.261C26.1818 63.711 24.6795 62.0718 23.6196 60.2384C23.2185 59.5445 22.1427 60.1715 22.5438 60.8654Z" fill="#A9D4FF"/>
        <path d="M40.0465 66.8464C41.5266 68.2436 41.9212 69.6028 42.6279 71.382C43.8055 74.3421 43.5659 73.7165 44.6163 76.7308C44.8773 77.482 46.0773 77.1573 45.813 76.3998C44.7213 73.2614 44.8368 73.7852 43.6718 70.6818C42.9653 68.8038 42.4465 67.4001 40.9218 65.9646C40.3426 65.4204 39.464 66.2957 40.0465 66.8464Z" fill="#A9D4FF"/>
        <path d="M61.0221 40.485C60.8439 33.8358 56.7569 26.1968 49.0798 26.9225C48.2904 26.9957 48.2841 28.2402 49.0798 28.1639C56.0599 27.505 59.6184 34.4692 59.7807 40.485C59.7999 41.2806 61.0443 41.2838 61.0221 40.485Z" fill="#A9D4FF"/>
        <path d="M46.5526 20.4197C46.8199 22.6795 46.925 24.9394 46.8645 27.2152C46.8422 28.0141 48.0867 28.0141 48.1058 27.2152C48.1663 24.9394 48.0644 22.6795 47.7938 20.4197C47.7016 19.6335 46.4571 19.6271 46.5526 20.4197Z" fill="#A9D4FF"/>
        <path d="M63.5368 41.7836C69.0814 31.3213 61.5092 15.8459 49.0417 16.3648C48.246 16.3966 48.2396 17.6411 49.0417 17.6061C54.9047 17.361 59.7013 20.7763 62.1904 25.974C64.4089 30.602 64.9245 36.5191 62.4673 41.1566C62.0886 41.86 63.1612 42.4902 63.5368 41.7836Z" fill="#A9D4FF"/>
        <path d="M47.2369 16.1169C44.0699 14.6718 39.8335 16.0309 36.9402 17.511C32.1976 19.9364 28.7918 24.3542 27.7002 29.5743C26.812 33.8203 27.3531 38.1936 28.4831 42.3347C28.6932 43.1049 29.8931 42.777 29.6799 42.0036C28.0247 35.9401 27.7574 29.1414 31.51 23.775C33.9418 20.2961 37.8282 17.8643 41.9787 17.0462C43.4174 16.763 45.2253 16.5561 46.613 17.1863C47.3324 17.5174 47.9626 16.4478 47.2369 16.1169Z" fill="#A9D4FF"/>
        <path d="M38.4742 23.9497C34.5433 26.9098 31.6881 30.8949 30.1794 35.5802C29.9343 36.3441 31.1343 36.6688 31.3762 35.9112C32.7767 31.5601 35.4472 27.7724 39.1012 25.0224C39.7346 24.5481 39.1139 23.4691 38.4742 23.9497Z" fill="#A9D4FF"/>
        <path d="M45.6454 26.4708C38.1018 26.6045 33.8176 33.381 31.0994 39.5494C30.7811 40.2751 31.8505 40.9086 32.172 40.1765C34.6929 34.4536 38.5761 27.8362 45.6454 27.7121C46.4411 27.6994 46.4443 26.458 45.6454 26.4708Z" fill="#A9D4FF"/>
        <path d="M75.775 74.1764C76.663 68.8036 73.5596 63.4563 70.5008 59.2899C68.9157 57.1318 67.1651 55.0852 65.2458 53.2168C64.1127 52.1123 62.8523 50.8297 61.3977 50.1421C60.6783 49.8016 60.0481 50.8742 60.7706 51.2147C62.0947 51.8418 63.2214 52.9845 64.259 53.9902C66.0511 55.7218 67.703 57.6092 69.1958 59.6049C72.1145 63.5009 75.4184 68.74 74.5749 73.8453C74.4476 74.6252 75.6444 74.9626 75.775 74.1764Z" fill="#A9D4FF"/>
        <path d="M71.7167 69.4591C68.4255 66.7345 65.8188 63.3987 63.9694 59.5506C63.6225 58.8313 62.5531 59.4584 62.8968 60.1777C64.7875 64.1149 67.477 67.5524 70.8381 70.3375C71.4493 70.8436 72.3342 69.9715 71.7167 69.4591Z" fill="#A9D4FF"/>
        <path d="M66.9392 69.4274C64.9435 69.3574 62.6326 68.498 61.2513 67.0529C60.0354 65.7829 59.2779 64.1437 58.5426 62.5681C58.2021 61.8456 57.1325 62.4759 57.47 63.1952C58.3803 65.1368 59.3606 67.1611 61.0475 68.5553C62.604 69.8444 64.9371 70.5987 66.9392 70.6687C67.7381 70.6974 67.7381 69.456 66.9392 69.4274Z" fill="#A9D4FF"/>
        <path d="M77.7133 57.1256C79.9191 56.8328 80.7179 55.1841 80.9281 53.1469C80.5429 53.2521 80.1578 53.3571 79.7695 53.4589C80.5493 55.0822 81.1891 56.8328 83.2453 56.9124C84.0441 56.941 84.0441 55.6997 83.2453 55.671C81.8193 55.6169 81.3641 53.9204 80.8421 52.835C80.5461 52.2208 79.7409 52.6027 79.6836 53.1469C79.5531 54.4137 79.1583 55.6901 77.7101 55.8811C76.9303 55.9861 76.9207 57.2307 77.7133 57.1256Z" fill="#A9D4FF"/>
        <path d="M77.8438 57.2876C78.9291 57.5773 79.6167 58.389 79.7917 59.4871C79.8904 60.0887 80.8803 60.0727 80.9885 59.4871C81.1318 58.7231 81.797 56.9152 82.7836 56.9821C83.5826 57.033 83.5794 55.7917 82.7836 55.7408C81.1254 55.6325 80.0496 57.7778 79.7917 59.1592C80.1896 59.1592 80.5907 59.1592 80.9885 59.1592C80.7434 57.6505 79.639 56.4823 78.1716 56.0941C77.4014 55.884 77.0703 57.0807 77.8438 57.2876Z" fill="#A9D4FF"/>
        <path d="M70.3926 39.5271C72.2928 39.3107 74.0211 38.4768 75.2052 36.9394C76.4592 35.3065 76.7075 33.2695 76.9081 31.2833C76.5229 31.3884 76.1377 31.4935 75.7495 31.5953C77.3186 34.8578 78.6745 39.056 82.9619 39.0465C83.7609 39.0433 83.7641 37.802 82.9619 37.8052C79.3048 37.8147 78.1398 33.7088 76.8221 30.9682C76.5293 30.3571 75.7208 30.7327 75.6635 31.2802C75.3261 34.5999 74.1835 37.8497 70.3894 38.2826C69.6064 38.375 69.5969 39.6194 70.3926 39.5271Z" fill="#A9D4FF"/>
        <path d="M70.9016 39.9218C73.5976 40.6029 75.4723 42.7259 75.8797 45.4664C75.9689 46.068 76.9746 46.0521 77.0766 45.4664C77.4457 43.3721 79.2918 38.951 81.9145 39.1929C82.7103 39.2661 82.7039 38.0247 81.9145 37.9515C78.5693 37.6395 76.354 42.4299 75.8797 45.1354C76.2776 45.1354 76.6786 45.1354 77.0766 45.1354C76.6086 41.9938 74.2979 39.4953 71.2294 38.7218C70.456 38.5277 70.125 39.7244 70.9016 39.9218Z" fill="#A9D4FF"/>
        <path d="M62.4607 41.007C62.9 36.6749 63.4251 31.3913 61.0825 27.4859C60.6719 26.8015 59.5961 27.4254 60.0099 28.1129C62.2156 31.7891 61.63 36.9232 61.2194 41.007C61.1398 41.8027 62.3812 41.7963 62.4607 41.007Z" fill="#A9D4FF"/>
        <path opacity="0.23" d="M63.5622 28.8673C63.2089 26.9893 62.7505 25.0637 61.6046 23.4976C60.532 22.0271 59.0647 20.843 57.505 19.9169C54.0102 17.8352 50.0729 17.4501 46.0847 17.4596C42.5294 17.4691 38.6621 17.8288 35.6766 19.9582C32.449 22.2563 30.8671 25.9644 29.7372 29.6343C28.7346 32.8936 27.1876 37.7507 30.0777 40.4149C30.3738 41.5767 32.3631 41.4557 32.4172 40.0584C32.5636 36.2166 34.4352 32.6899 37.5067 30.3823C38.9932 29.2651 41.1162 27.5017 43.0577 27.5782C44.3404 27.6291 45.8174 27.4063 47.2401 27.2758C47.0427 25.1242 46.6799 22.9852 46.6067 20.8208C46.5558 19.2898 48.9302 19.2962 48.9843 20.8208C49.0576 22.9629 49.414 25.0795 49.6146 27.2121C51.3748 27.3617 52.8198 28.5585 54.4367 29.4338C56.1618 30.3664 57.2154 32.4703 58.0112 34.1827C58.88 36.0542 59.2429 38.0118 59.8891 39.9502C60.3824 41.4366 62.133 42.1623 63.0816 40.5963C64.0492 38.9985 64.1797 36.8755 64.1701 35.058C64.1606 32.9795 63.9441 30.9043 63.5622 28.8673Z" fill="#A9D4FF"/>
        <path opacity="0.23" d="M63.8422 72.1614C61.4868 72.5339 59.1155 71.0601 57.8583 69.0326C56.601 67.0051 56.2763 64.5351 56.2827 62.148C56.2859 60.6297 56.4291 59.0573 57.1643 57.7301C58.0842 56.0654 59.924 54.7318 59.8794 52.8283C60.1595 52.6533 60.5192 52.8443 60.7929 53.0321C62.5626 54.248 64.3069 55.4956 66.0288 56.7784C66.9423 57.4595 67.8526 58.1534 68.642 58.9745C70.9624 61.3872 72.0509 64.7038 72.9517 67.9281C73.2477 68.9849 73.531 70.0703 73.4387 71.1651C73.3463 72.2601 72.8084 73.3773 71.8281 73.8739C70.8191 74.3863 69.6064 74.1412 68.5051 73.8739C65.3635 73.1099 62.2507 72.2442 59.1664 71.2798" fill="#A9D4FF"/>
        <path opacity="0.23" d="M45.6071 58.2268C44.2703 57.8099 43.1021 56.7277 42.475 55.3144C42.3191 54.9611 42.1918 54.5664 42.2586 54.1781C42.3414 53.6943 42.7075 53.3378 43.083 53.0928C44.2798 52.3002 45.7249 52.2047 47.1095 52.1443C47.4913 52.1283 47.8765 52.1124 48.2489 52.2016C48.8918 52.3575 49.4425 52.8095 49.974 53.2487C50.1491 53.3951 50.3337 53.5511 50.4324 53.7739C50.4961 53.9171 50.5183 54.0795 50.5374 54.2386C50.5979 54.7797 50.6043 55.359 50.3815 55.8428C50.1205 56.4189 49.5921 56.7595 49.0924 57.0714C48.6754 57.3293 48.2521 57.5902 47.7905 57.7048C47.5423 57.7652 47.2877 57.7812 47.0362 57.7907C46.0336 57.8289 45.0246 57.7494 44.0348 57.5584" fill="#A9D4FF"/>
        <path d="M48.9999 97.4111C75.4605 97.4111 96.9111 75.9605 96.9111 49.4999C96.9111 23.0394 75.4605 1.58887 48.9999 1.58887C22.5394 1.58887 1.08887 23.0394 1.08887 49.4999C1.08887 75.9605 22.5394 97.4111 48.9999 97.4111Z" stroke="#A9D4FF" stroke-width="1.6" stroke-miterlimit="10"/>
    </g>
    <defs>
        <clipPath id="clip0_2222_2389">
            <rect width="98" height="98" fill="white" transform="translate(0 0.5)"/>
        </clipPath>
    </defs>
</svg>
