<svg width="98" height="99" viewBox="0 0 98 99" fill="none" xmlns="http://www.w3.org/2000/svg">
    <mask id="mask0_2222_2532" style="mask-type:luminance" maskUnits="userSpaceOnUse" x="0" y="0" width="98" height="99">
        <path d="M97.1261 0.937012H0V98.0629H97.1261V0.937012Z" fill="white"/>
    </mask>
    <g mask="url(#mask0_2222_2532)">
        <path d="M42.6865 37.1443C42.6885 37.0792 42.6925 37.01 42.7231 36.9533C42.8042 36.7968 43.0156 36.7745 43.1904 36.7723C43.4973 36.7684 43.8042 36.7643 44.1112 36.7603C44.1558 36.7603 44.2026 36.7603 44.2432 36.7785C44.2879 36.8008 44.3185 36.8436 44.3449 36.8842C44.4524 37.0509 44.5338 37.2398 44.5319 37.4389C44.5278 37.7418 44.3285 38.006 44.1253 38.2315C44.0441 38.3211 43.9567 38.4104 43.8552 38.4755C43.6153 38.628 42.9202 38.8047 42.7739 38.4755C42.7149 38.3414 42.7982 38.0994 42.7922 37.9572C42.7799 37.6808 42.6784 37.4248 42.6865 37.1443Z" fill="#A9D4FF"/>
        <path d="M54.6773 37.3474C54.6795 37.2824 54.6834 37.2134 54.7141 37.1565C54.7953 37 55.0066 36.9776 55.1814 36.9756C55.4884 36.9716 55.7951 36.9673 56.1022 36.9634C56.1467 36.9634 56.1935 36.9634 56.2341 36.9817C56.2788 37.004 56.3092 37.0467 56.3359 37.0873C56.4435 37.254 56.5248 37.443 56.5228 37.6421C56.5187 37.9449 56.3196 38.2091 56.1162 38.4348C56.035 38.5242 55.9476 38.6136 55.8459 38.6786C55.606 38.8312 54.911 39.0079 54.7648 38.6786C54.7057 38.5446 54.7892 38.3026 54.783 38.1604C54.7708 37.884 54.6692 37.6279 54.6773 37.3474Z" fill="#A9D4FF"/>
        <path opacity="0.23" d="M63.3126 25.6129C63.0163 24.1098 62.6314 22.5688 61.6696 21.3154C60.7691 20.1385 59.5376 19.1909 58.2283 18.4497C55.2947 16.7836 51.9897 16.4755 48.642 16.483C45.6575 16.4908 42.4114 16.7786 39.9052 18.4827C37.1961 20.3219 35.8682 23.2896 34.9197 26.2267C34.078 28.8351 32.7796 32.7225 35.2056 34.8546C35.4541 35.7845 37.1239 35.6877 37.1693 34.5694C37.2921 31.4946 38.8632 28.6722 41.4415 26.8254C42.6891 25.9312 44.4713 24.52 46.101 24.581C47.1779 24.6218 48.4174 24.4437 49.6119 24.3392C49.4462 22.6171 49.1416 20.9054 49.08 19.1732C49.0373 17.9479 51.0305 17.9529 51.076 19.1732C51.1373 20.8876 51.4367 22.5814 51.6049 24.2883C53.0824 24.4079 54.2955 25.3658 55.6528 26.0663C57.1008 26.8126 57.9851 28.4964 58.6532 29.8668C59.3825 31.3647 59.6871 32.9313 60.2295 34.4828C60.6437 35.6724 62.1131 36.253 62.9092 34.9999C63.7215 33.7212 63.8311 32.0221 63.8232 30.5675C63.815 28.9041 63.6333 27.2432 63.3126 25.6129Z" fill="#A9D4FF"/>
        <path d="M53.2905 67.1856C54.4608 65.7406 56.0131 64.8371 57.8252 64.5422C58.4418 64.443 58.1788 63.4849 57.5687 63.5844C55.6125 63.9016 53.8693 64.9204 52.6052 66.4839C52.2075 66.9741 52.893 67.679 53.2905 67.1856Z" fill="#A9D4FF" stroke="#A9D4FF" stroke-width="0.298264"/>
        <path d="M47.7161 66.4839C46.4519 64.9237 44.7086 63.9047 42.7526 63.5844C42.1424 63.4849 41.8793 64.443 42.4959 64.5422C44.3081 64.8371 45.8604 65.7374 47.0308 67.1856C47.4282 67.679 48.1105 66.9741 47.7161 66.4839Z" fill="#A9D4FF" stroke="#A9D4FF" stroke-width="0.298264"/>
        <path d="M37.038 36.9894C36.9535 39.9018 37.4637 43.0916 38.0112 45.9368C38.1427 46.6235 39.088 46.293 38.9564 45.6063C38.4277 42.8527 37.9267 39.8031 38.0112 36.9894C38.0301 36.2887 37.0598 36.2887 37.038 36.9894Z" fill="#A9D4FF" stroke="#A9D4FF" stroke-width="0.298264"/>
        <path d="M38.0541 45.9069C39.2214 48.9282 40.8928 51.7637 43.7001 53.4426C45.5997 54.58 48.7137 55.8873 50.9263 55.4803C52.7038 55.1536 54.5129 53.8432 55.9306 52.7602C57.2857 51.7253 58.5188 50.5205 59.5139 49.1173C61.955 45.6794 62.4213 41.5525 62.6466 37.4323C62.6812 36.7947 61.7109 36.7947 61.6765 37.4323C61.4793 41.0367 61.1382 44.6701 59.2165 47.8035C58.2371 49.3991 56.9131 50.7736 55.4424 51.9015C54.1372 52.9044 52.4379 54.1412 50.8229 54.4615C48.892 54.8428 46.0127 53.6414 44.326 52.6641C41.6752 51.1293 40.0853 48.4731 38.9899 45.644C38.7645 45.0545 37.8227 45.3109 38.0541 45.9069Z" fill="#A9D4FF" stroke="#A9D4FF" stroke-width="0.298264"/>
        <path d="M62.6385 36.334C65.2516 37.3559 64.8073 43.8118 61.6243 43.3538C61.0142 43.2673 60.7483 44.2221 61.3679 44.3119C65.8493 44.9591 66.7289 36.872 62.8983 35.3759C62.313 35.1484 62.0595 36.1096 62.6385 36.334Z" fill="#A9D4FF" stroke="#A9D4FF" stroke-width="0.298264"/>
        <path d="M35.812 35.3697C32.5762 36.2859 32.8452 42.7131 35.9905 43.5591C36.5944 43.7224 36.8544 42.7644 36.2471 42.6011C34.0625 42.0149 33.8029 36.9685 36.0687 36.3277C36.6696 36.1579 36.4161 35.1999 35.812 35.3697Z" fill="#A9D4FF" stroke="#A9D4FF" stroke-width="0.298264"/>
        <path d="M62.4639 40.7259C62.6203 40.0179 63.0115 39.425 63.6123 39.0373C64.1413 38.6977 63.6531 37.836 63.1211 38.1786C62.3135 38.6977 61.7378 39.5052 61.5249 40.4633C61.3905 41.0847 62.3262 41.3506 62.4639 40.7259Z" fill="#A9D4FF" stroke="#A9D4FF" stroke-width="0.298264"/>
        <path d="M38.0038 39.6365C37.7283 38.5759 37.0493 37.6819 36.1105 37.1534C35.5628 36.8457 35.0714 37.7045 35.619 38.012C36.3484 38.4223 36.8521 39.079 37.0681 39.9022C37.2278 40.5176 38.1635 40.2548 38.0038 39.6365Z" fill="#A9D4FF" stroke="#A9D4FF" stroke-width="0.298264"/>
        <path d="M47.9939 43.3136C48.8556 43.8523 49.9388 43.8545 50.8046 43.3239C51.3391 42.9968 50.8492 42.1532 50.3127 42.4825C49.7315 42.8381 49.0648 42.8321 48.4877 42.4724C47.9511 42.1371 47.4614 42.9805 47.9939 43.3136Z" fill="#A9D4FF" stroke="#A9D4FF" stroke-width="0.298264"/>
        <path d="M53.7449 38.1746C54.9581 36.5893 57.0127 37.1462 58.4313 38.0994C58.9538 38.451 59.4435 37.6054 58.9232 37.2579C56.9803 35.9512 54.4481 35.6625 52.9014 37.6827C52.5193 38.1806 53.3668 38.6684 53.7449 38.1746Z" fill="#A9D4FF" stroke="#A9D4FF" stroke-width="0.298264"/>
        <path d="M52.7059 35.094C54.23 33.9986 56.2522 33.4967 57.809 34.8401C58.2825 35.2484 58.9756 34.5616 58.498 34.1511C56.6221 32.5312 54.1265 32.8768 52.2141 34.2527C51.7081 34.6144 52.1956 35.4599 52.7059 35.094Z" fill="#A9D4FF" stroke="#A9D4FF" stroke-width="0.298264"/>
        <path d="M53.9823 37.1258C53.9092 38.1582 53.8989 39.4488 55.153 39.7068C56.6975 40.024 57.039 37.8067 56.8642 36.7336C56.7645 36.1157 55.8236 36.3779 55.9232 36.9937C55.9862 37.3839 55.9213 38.9001 55.283 38.7353C54.6977 38.585 54.9295 37.5424 54.9599 37.1258C55.0027 36.4999 54.0271 36.5019 53.9823 37.1258Z" fill="#A9D4FF" stroke="#A9D4FF" stroke-width="0.298264"/>
        <path d="M46.0419 37.4789C44.4953 35.4589 41.9652 35.7476 40.0202 37.0543C39.5018 37.4018 39.9896 38.2472 40.512 37.8956C41.9304 36.9424 43.9852 36.3855 45.1985 37.9708C45.5765 38.4626 46.424 37.979 46.0419 37.4789Z" fill="#A9D4FF" stroke="#A9D4FF" stroke-width="0.298264"/>
        <path d="M46.728 34.0468C44.8154 32.673 42.3199 32.3255 40.444 33.9452C39.9685 34.3558 40.6614 35.0427 41.133 34.6342C42.6857 33.2929 44.7119 33.7927 46.2362 34.8883C46.7463 35.256 47.2341 34.4106 46.728 34.0468Z" fill="#A9D4FF" stroke="#A9D4FF" stroke-width="0.298264"/>
        <path d="M43.9852 36.9221C44.0158 37.3387 44.2474 38.3813 43.6621 38.5319C43.024 38.6944 42.9569 37.1802 43.0221 36.79C43.1215 36.1763 42.1825 35.9119 42.0809 36.5299C41.9063 37.6029 42.2456 39.8203 43.7923 39.5033C45.0461 39.2471 45.0361 37.9567 44.9628 36.9221C44.9162 36.3003 43.9405 36.2943 43.9852 36.9221Z" fill="#A9D4FF" stroke="#A9D4FF" stroke-width="0.298264"/>
        <path d="M61.8125 35.7866C61.7414 32.9324 60.9832 30.0297 59.0302 27.7995C57.2336 25.7494 54.4575 24.4899 51.6426 24.7671C51.0249 24.8271 51.0187 25.7591 51.6426 25.6971C54.2277 25.4433 56.6971 26.5709 58.3412 28.4565C60.1176 30.4928 60.774 33.1941 60.8391 35.7866C60.8533 36.3835 61.8286 36.3854 61.8125 35.7866Z" fill="#A9D4FF" stroke="#A9D4FF" stroke-width="0.298264"/>
        <path d="M49.5224 19.4228C49.7541 21.2654 49.8413 23.1082 49.7887 24.9645C49.7702 25.5632 50.7479 25.5632 50.764 24.9645C50.817 23.1101 50.7296 21.2654 50.4979 19.4228C50.4249 18.8376 49.4491 18.8298 49.5224 19.4228Z" fill="#A9D4FF" stroke="#A9D4FF" stroke-width="0.298264"/>
        <path d="M63.9681 36.825C67.5003 30.5196 64.7525 21.1878 58.237 17.6225C56.2188 16.518 53.9202 16.0588 51.6054 16.1576C50.9795 16.1847 50.9773 17.1148 51.6054 17.0877C56.6395 16.8726 60.7488 19.6899 62.889 23.9315C64.7933 27.7043 65.2424 32.5736 63.1247 36.3561C62.83 36.8831 63.6734 37.3539 63.9681 36.825Z" fill="#A9D4FF" stroke="#A9D4FF" stroke-width="0.298264"/>
        <path d="M49.9267 15.5316C47.2115 14.336 43.5206 15.4966 41.0535 16.7213C37.0435 18.7133 34.1801 22.3056 33.2696 26.5337C32.5297 29.9692 32.985 33.5153 33.9505 36.8673C34.1171 37.4448 35.0579 37.1987 34.8915 36.6194C33.4524 31.624 33.2512 26.0028 36.5416 21.6081C38.643 18.8043 41.9721 16.8453 45.5144 16.2C46.7359 15.9772 48.2641 15.8183 49.4347 16.3338C50.0018 16.5837 50.4976 15.7815 49.9267 15.5316Z" fill="#A9D4FF" stroke="#A9D4FF" stroke-width="0.298264"/>
        <path d="M48.7053 24.4004C42.2812 24.4663 38.6005 30.0584 36.3 35.046C36.05 35.5887 36.8894 36.0633 37.1413 35.515C39.2895 30.8606 42.6552 25.3925 48.7053 25.3305C49.3333 25.3227 49.3333 24.3926 48.7053 24.4004Z" fill="#A9D4FF" stroke="#A9D4FF" stroke-width="0.298264"/>
        <path d="M44.8805 47.6844C47.8409 48.8467 51.0177 48.9348 53.9033 47.5108C54.5043 47.2142 53.9781 46.3138 53.3769 46.6104C50.7372 47.9142 47.8436 47.7324 45.1585 46.6798C44.5332 46.434 44.2634 47.4413 44.8805 47.6844Z" fill="#A9D4FF" stroke="#A9D4FF" stroke-width="0.298264"/>
        <g opacity="0.23">
            <path opacity="0.23" d="M48.6756 50.5068C47.5534 50.1568 46.5728 49.2485 46.0464 48.0622C45.9155 47.7656 45.8086 47.4342 45.8648 47.1082C45.9343 46.7022 46.2416 46.4028 46.5567 46.1972C47.5614 45.5319 48.7745 45.4519 49.9367 45.4009C50.2572 45.3877 50.5806 45.3743 50.8932 45.4491C51.4328 45.58 51.8951 45.9594 52.3413 46.3281C52.4881 46.4511 52.6432 46.5819 52.726 46.7688C52.7794 46.8893 52.7982 47.0255 52.8142 47.1591C52.8649 47.6133 52.8703 48.0995 52.6832 48.5057C52.4641 48.9893 52.0206 49.2751 51.6012 49.5369C51.2512 49.7534 50.8957 49.9724 50.5084 50.0686C50.3 50.1193 50.0863 50.1327 49.8751 50.1409C49.0336 50.1727 48.1867 50.1061 47.3556 49.9458" fill="#A9D4FF"/>
            <path opacity="0.23" d="M48.6756 50.5068C47.5534 50.1568 46.5728 49.2485 46.0464 48.0622C45.9155 47.7656 45.8086 47.4342 45.8648 47.1082C45.9343 46.7022 46.2416 46.4028 46.5567 46.1972C47.5614 45.5319 48.7745 45.4519 49.9367 45.4009C50.2572 45.3877 50.5806 45.3743 50.8932 45.4491C51.4328 45.58 51.8951 45.9594 52.3413 46.3281C52.4881 46.4511 52.6432 46.5819 52.726 46.7688C52.7794 46.8893 52.7982 47.0255 52.8142 47.1591C52.8649 47.6133 52.8703 48.0995 52.6832 48.5057C52.4641 48.9893 52.0206 49.2751 51.6012 49.5369C51.2512 49.7534 50.8957 49.9724 50.5084 50.0686C50.3 50.1193 50.0863 50.1327 49.8751 50.1409C49.0336 50.1727 48.1867 50.1061 47.3556 49.9458" stroke="#A9D4FF" stroke-width="0.298264"/>
        </g>
        <path d="M42.5699 22.4109C39.1462 24.4663 36.6592 27.2391 35.416 30.4249C35.2287 30.9042 36.2083 31.0874 36.3955 30.6113C37.5591 27.6334 39.8911 24.9925 43.0943 23.0673C43.6016 22.7621 43.0833 22.1007 42.5699 22.4109Z" fill="#A9D4FF" stroke="#A9D4FF" stroke-width="0.298264"/>
        <path d="M62.8266 35.2625C63.2112 32.3891 63.6873 28.8145 61.6273 26.2305C61.2926 25.8123 60.4301 26.1956 60.7668 26.6153C62.7164 29.0609 62.1928 32.5418 61.829 35.2625C61.7625 35.7506 62.7602 35.7475 62.8266 35.2625Z" fill="#A9D4FF" stroke="#A9D4FF" stroke-width="0.298264"/>
        <path fill-rule="evenodd" clip-rule="evenodd" d="M62.3271 75.4574C58.8141 75.1589 54.3636 75.0033 50.3828 75.1004C49.2175 75.1288 47.9733 75.1487 46.6974 75.1694C43.6038 75.2193 40.3243 75.2721 37.5362 75.4542C35.5659 75.583 33.8732 75.7745 32.6822 76.0662C32.0829 76.2131 31.6463 76.3772 31.3701 76.5491C31.0891 76.7242 31.0678 76.8432 31.0678 76.887C31.0678 77.1466 30.8574 77.3571 30.5979 77.3571C30.3382 77.3571 30.1278 77.1466 30.1278 76.887C30.1278 76.3667 30.4763 75.9983 30.8731 75.7509C31.2747 75.5009 31.8244 75.3085 32.4584 75.1531C33.7337 74.8405 35.4948 74.6452 37.475 74.5161C40.2874 74.3326 43.6064 74.2789 46.7097 74.2288C47.9789 74.2084 49.2123 74.1884 50.3599 74.1604C54.3764 74.0625 58.8609 74.2193 62.4068 74.5205C64.1782 74.6713 65.7258 74.8588 66.867 75.0709C67.4358 75.1765 67.9185 75.291 68.2823 75.4151C68.4636 75.4769 68.6302 75.5462 68.7681 75.6259C68.8932 75.6979 69.057 75.8135 69.1504 75.9956C69.2691 76.2263 69.178 76.5097 68.9471 76.6282C68.7299 76.7399 68.4663 76.6661 68.3371 76.4648C68.3293 76.4592 68.3169 76.4508 68.298 76.44C68.2338 76.4028 68.13 76.3566 67.9787 76.305C67.6776 76.2022 67.246 76.0975 66.6953 75.9951C65.5976 75.7912 64.0847 75.6068 62.3271 75.4574Z" fill="#A9D4FF" stroke="#A9D4FF" stroke-width="0.298264" stroke-linecap="round"/>
        <path fill-rule="evenodd" clip-rule="evenodd" d="M43.3352 52.1543C43.345 53.6245 43.2838 55.1724 42.8107 56.639C42.0527 58.9879 40.2296 60.9634 37.948 61.9063C37.8305 61.9548 37.6254 62.0075 37.3997 62.0606C37.1586 62.1173 36.8484 62.1843 36.4906 62.2591C36.037 62.3539 35.4995 62.4627 34.9197 62.5798C34.5855 62.6474 34.2373 62.7179 33.8829 62.7902C31.929 63.1886 29.7986 63.6406 28.6698 63.9996C25.1582 65.1165 23.7355 67.3444 22.1571 69.8159C21.9736 70.1036 21.7877 70.3946 21.5961 70.6875L20.8092 70.1731C20.9959 69.8877 21.1791 69.5995 21.3629 69.3109C22.9355 66.8399 24.5342 64.3283 28.3848 63.1037C29.5721 62.7259 31.7592 62.2636 33.6951 61.8689C34.0533 61.7958 34.4033 61.7251 34.738 61.6573C35.3154 61.5405 35.8472 61.4331 36.2983 61.3387C36.6541 61.2644 36.9552 61.1992 37.1848 61.1453C37.2997 61.1183 37.3937 61.0948 37.4661 61.0749C37.5022 61.0652 37.5312 61.0567 37.5533 61.0497C37.5644 61.0462 37.5729 61.0433 37.5793 61.041L37.5866 61.0384C37.5883 61.0376 37.589 61.0374 37.589 61.0374C39.6153 60.2 41.2427 58.4368 41.9159 56.3504C42.34 55.0349 42.4045 53.614 42.3951 52.1605L43.3352 52.1543Z" fill="#A9D4FF"/>
        <path d="M37.589 61.0374L38.1196 61.2389L37.5794 61.041C37.5729 61.0433 37.5644 61.0462 37.5533 61.0497C37.5312 61.0567 37.5022 61.0652 37.4661 61.0749C37.3937 61.0948 37.2997 61.1183 37.1848 61.1453C36.9552 61.1992 36.6541 61.2644 36.2983 61.3387C35.8472 61.4331 35.3154 61.5405 34.738 61.6573C34.4033 61.7251 34.0533 61.7958 33.6951 61.8689C31.7592 62.2636 29.5723 62.7259 28.3851 63.1037C24.5344 64.3283 22.9355 66.8399 21.3629 69.3109C21.1791 69.5995 20.9959 69.8877 20.8092 70.1731L21.5961 70.6875C21.7877 70.3946 21.9736 70.1036 22.1571 69.8159C23.7355 67.3444 25.1582 65.1165 28.6698 63.9996C29.7986 63.6406 31.929 63.1886 33.8829 62.7902C34.2373 62.7179 34.5855 62.6474 34.9197 62.5798C35.4995 62.4627 36.037 62.3539 36.4906 62.2591C36.8484 62.1843 37.1586 62.1173 37.3997 62.0606C37.6254 62.0075 37.8303 61.9551 37.9479 61.9065C40.2293 60.9636 42.0527 58.9881 42.8107 56.6392C43.2835 55.1726 43.345 53.6245 43.3352 52.1543L42.3951 52.1605C42.4045 53.614 42.34 55.0349 41.9159 56.3504C41.2427 58.4368 39.6153 60.2 37.589 61.0374ZM37.589 61.0374L37.7674 61.4692" stroke="#A9D4FF" stroke-width="0.298264" stroke-miterlimit="10"/>
        <path fill-rule="evenodd" clip-rule="evenodd" d="M56.9275 51.8595C56.918 53.3191 56.9894 55.0369 57.4127 56.3496C58.086 58.4361 59.7134 60.1991 61.7396 61.0367C61.74 61.037 61.7414 61.0373 61.7422 61.0375L61.7494 61.0402C61.7558 61.0425 61.7643 61.0453 61.7754 61.0488C61.7975 61.0559 61.8265 61.0643 61.8626 61.0742C61.9351 61.094 62.0291 61.1175 62.1439 61.1445C62.3735 61.1983 62.6746 61.2636 63.0305 61.338C63.4813 61.4322 64.0134 61.5399 64.5905 61.6566C64.9254 61.7242 65.2752 61.7951 65.6336 61.868C67.5693 62.2628 69.7564 62.7252 70.9438 63.1028C74.7943 64.3275 76.393 66.839 77.966 69.3101C78.1497 69.5988 78.3334 69.8868 78.5193 70.1722L77.7322 70.6867C77.5409 70.3938 77.3549 70.1028 77.1712 69.8151C75.5931 67.3435 74.1706 65.1156 70.659 63.9989C69.5301 63.6399 67.3998 63.1876 65.4458 62.7892C65.0912 62.717 64.7431 62.6467 64.4089 62.5791C63.8292 62.4617 63.2917 62.3532 62.8382 62.2583C62.4801 62.1836 62.1701 62.1164 61.9288 62.0599C61.7034 62.0068 61.4986 61.9542 61.3807 61.9056C59.0992 60.963 57.2759 58.9871 56.518 56.6383C56.0442 55.169 55.9778 53.3172 55.9873 51.8535L56.9275 51.8595Z" fill="#A9D4FF"/>
        <path d="M70.659 63.9989C74.1706 65.1156 75.5931 67.3435 77.1712 69.8151C77.3549 70.1028 77.5409 70.3938 77.7322 70.6867L78.5193 70.1722C78.3334 69.8868 78.1497 69.5988 77.966 69.3101C76.393 66.839 74.7943 64.3275 70.9438 63.1028C69.7564 62.7252 67.5693 62.2628 65.6336 61.868C65.2752 61.7951 64.9254 61.7242 64.5905 61.6566C64.0134 61.5399 63.4813 61.4322 63.0305 61.338C62.6746 61.2636 62.3735 61.1983 62.1439 61.1445C62.0291 61.1175 61.9351 61.094 61.8626 61.0742C61.8265 61.0643 61.7975 61.0559 61.7754 61.0488C61.7643 61.0453 61.7558 61.0425 61.7494 61.0402L61.7422 61.0375C61.7414 61.0373 61.7406 61.0371 61.7403 61.0369C59.714 60.1993 58.086 58.4361 57.4127 56.3496C56.9894 55.0369 56.918 53.3191 56.9275 51.8595L55.9873 51.8535C55.9778 53.3172 56.0442 55.169 56.518 56.6383C57.2759 58.9871 59.0992 60.9627 61.3807 61.9054C61.4986 61.9539 61.7034 62.0068 61.9288 62.0599C62.1701 62.1164 62.4801 62.1836 62.8382 62.2583C63.2917 62.3532 63.8292 62.4617 64.4089 62.5791C64.7431 62.6467 65.0912 62.717 65.4458 62.7892C67.3998 63.1876 69.5301 63.6399 70.659 63.9989ZM70.659 63.9989L70.8013 63.5507" stroke="#A9D4FF" stroke-width="0.298264" stroke-miterlimit="10"/>
        <path d="M62.3581 53.3304C65.8124 51.5227 68.4864 48.5695 69.8862 44.9238C70.1353 44.2767 71.1878 44.5588 70.9361 45.2133C69.433 49.1208 66.6231 52.326 62.9071 54.2696C62.2876 54.5919 61.7363 53.6552 62.3581 53.3304Z" fill="#A9D4FF"/>
        <path d="M66.1169 45.6888C67.2952 45.1628 68.4913 44.6818 69.6719 44.1657C70.1605 43.9541 70.878 43.433 71.3866 43.8786C71.8272 44.2615 71.9808 45.2483 72.1746 45.7796C72.4666 46.5802 72.7738 47.4035 72.8268 48.262C72.8695 48.9619 71.7819 48.9595 71.739 48.262C71.7013 47.6729 71.4873 47.0964 71.2959 46.5399C71.1953 46.2453 70.9283 45.0294 70.6842 44.8883C70.6337 44.6995 70.6137 44.7144 70.6212 44.9285C70.4878 44.9865 70.3543 45.0443 70.2209 45.1049C69.954 45.2685 69.5964 45.3718 69.3019 45.4952C68.4208 45.8678 67.5369 46.2353 66.6659 46.6255C66.0338 46.9124 65.48 45.9759 66.1169 45.6888Z" fill="#A9D4FF"/>
        <path d="M36.7768 53.3304C33.3226 51.5227 30.6488 48.5695 29.2488 44.9238C28.9996 44.2767 27.9471 44.5588 28.1991 45.2133C29.702 49.1208 32.5118 52.326 36.228 54.2696C36.8474 54.5919 37.3988 53.6552 36.7768 53.3304Z" fill="#A9D4FF"/>
        <path d="M33.0158 45.6888C31.8375 45.1628 30.6417 44.6818 29.4608 44.1657C28.9725 43.9541 28.2547 43.433 27.7462 43.8786C27.3056 44.2615 27.152 45.2483 26.9581 45.7796C26.6661 46.5802 26.359 47.4035 26.3062 48.262C26.2633 48.9619 27.3508 48.9595 27.3936 48.262C27.4315 47.6729 27.6455 47.0964 27.8369 46.5399C27.9375 46.2453 28.2044 45.0294 28.4487 44.8883C28.4991 44.6995 28.5191 44.7144 28.5117 44.9285C28.6451 44.9865 28.7786 45.0443 28.9119 45.1049C29.1788 45.2685 29.5364 45.3718 29.8308 45.4952C30.7122 45.8678 31.5959 46.2353 32.467 46.6255C33.099 46.9124 33.6528 45.9759 33.0158 45.6888Z" fill="#A9D4FF"/>
        <path d="M48.6517 96.5792C74.9135 96.5792 96.2027 75.29 96.2027 49.0282C96.2027 22.7666 74.9135 1.47705 48.6517 1.47705C22.3898 1.47705 1.10046 22.7666 1.10046 49.0282C1.10046 75.29 22.3898 96.5792 48.6517 96.5792Z" stroke="#A9D4FF" stroke-width="1.63333" stroke-miterlimit="10"/>
        <path opacity="0.23" fill-rule="evenodd" clip-rule="evenodd" d="M40.3296 60.2383C41.0641 59.8308 41.7028 59.1992 42.1424 58.4656C43.0045 57.0271 43.2271 55.275 43.2226 53.5815C43.2214 52.9161 42.6598 52.3268 42.1119 51.7514C41.7725 51.3952 41.4382 51.0443 41.2455 50.6842C41.0107 50.2444 40.6768 49.8771 40.3516 49.5193C39.8036 48.9161 39.2805 48.3405 39.2997 47.493C38.9611 48.6488 38.8923 47.9787 38.8337 47.4074C38.8022 47.1014 38.7736 46.8239 38.7082 46.8705C38.3271 45.8168 38.064 46.5558 37.7016 47.5743C37.4137 48.3835 37.0629 49.3693 36.5402 49.7722C36.3805 49.8953 36.2208 50.0191 36.0629 50.1448C37.1969 51.0966 38.2919 52.1571 38.9753 53.4519C39.4089 54.2734 39.4005 55.0224 39.3648 55.9511C39.3518 56.2903 39.1802 56.6866 38.9211 56.9086C38.6455 57.145 38.2498 57.1256 37.8766 57.1074C37.7789 57.1027 37.6825 57.098 37.5905 57.098C36.2455 57.098 34.1983 56.354 33.1594 55.5339C33.0291 55.4311 32.8237 55.2897 32.5769 55.1277C32.2728 55.9638 32.024 56.8274 31.7933 57.6819C31.7075 57.9988 31.0912 58.8673 30.4127 59.8232C29.4857 61.1295 28.4426 62.5994 28.4791 63.0477C28.5123 63.4553 29.4494 63.0227 30.43 62.5699C31.3191 62.1595 32.2441 61.7325 32.5638 61.8999C33.2555 62.2633 34.0872 62.0895 34.8422 61.8999C36.9963 61.3579 39.1307 60.7437 41.2455 60.0596L40.3296 60.2383Z" fill="#A9D4FF"/>
        <path opacity="0.23" fill-rule="evenodd" clip-rule="evenodd" d="M59.8803 60.3428C59.0702 59.8993 58.3661 59.212 57.881 58.4134C56.9302 56.8482 56.6847 54.9414 56.6895 53.0984C56.6921 51.9262 56.8003 50.7124 57.3564 49.6877C57.6096 49.2196 58.1472 48.609 58.7266 47.9509C59.4393 47.1413 60.2154 46.26 60.6037 45.4829C61.1532 45.3856 61.9079 46.3723 62.6552 47.3493C63.1466 47.9919 63.6349 48.6302 64.0594 48.9531C64.1435 49.0169 64.2274 49.0811 64.3111 49.1453C64.1996 49.2302 64.0888 49.317 63.978 49.4056C62.5493 50.5484 61.0242 51.8123 60.1589 53.4517C59.7254 54.2732 59.7336 55.0223 59.7693 55.9509C59.7824 56.2901 59.9541 56.6864 60.213 56.9084C60.4887 57.1448 60.8845 57.1254 61.2576 57.1071C61.3552 57.1025 61.4516 57.0976 61.5437 57.0976C62.8887 57.0976 64.9361 56.3538 65.9748 55.5337C66.3191 55.2619 67.188 54.7213 67.9602 54.241C68.0307 54.1971 68.1007 54.1535 68.1692 54.1108C68.6286 55.2244 68.9769 56.4003 69.2945 57.5609C69.3891 57.9055 70.0688 58.8505 70.8169 59.8908C71.8394 61.3125 72.9899 62.9122 72.9495 63.4003C72.913 63.8436 71.8796 63.3729 70.798 62.8801C69.8174 62.4335 68.7974 61.9687 68.4448 62.1509C67.6818 62.5466 66.7649 62.3574 65.932 62.1509C63.5565 61.5611 61.2025 60.8929 58.8702 60.1484L59.8803 60.3428ZM60.8547 44.6344C60.8473 44.8945 60.7548 45.1809 60.6037 45.4829C60.406 45.5181 60.2348 45.6937 60.1002 46.0608C59.9733 45.9721 60.3638 45.3848 60.6373 44.9734C60.7332 44.8291 60.8149 44.7063 60.8547 44.6344ZM60.8547 44.6344C60.8552 44.6144 60.8552 44.5948 60.8548 44.5752C60.8913 44.5517 60.8866 44.5765 60.8547 44.6344Z" fill="#A9D4FF"/>
        <path fill-rule="evenodd" clip-rule="evenodd" d="M62.3704 43.8456C62.5411 43.9334 62.678 44.0966 62.7493 44.3312C63.245 45.9709 63.997 47.4028 64.8783 48.7347C64.5738 48.9438 64.2746 49.1685 63.9778 49.4061C63.9079 49.4618 63.8379 49.5181 63.7676 49.5744C62.7857 48.1324 61.9379 46.5741 61.3937 44.7735C61.322 44.5372 61.3439 44.3229 61.4339 44.1512C61.5226 43.981 61.6734 43.8621 61.842 43.8068C62.0108 43.7516 62.2014 43.7586 62.3704 43.8456ZM67.5839 54.4756C69.3182 56.6738 70.8806 58.9703 71.5824 61.9281C71.6396 62.1688 71.7656 62.3399 71.9324 62.4334C72.0975 62.5258 72.2873 62.5336 72.4561 62.4778C72.7976 62.3648 73.0588 61.9928 72.9425 61.5025C72.2005 58.3768 70.5453 55.9925 68.756 53.7431C68.5264 53.889 68.25 54.0609 67.9602 54.2414C67.8364 54.3185 67.71 54.397 67.5839 54.4756Z" fill="#A9D4FF"/>
        <path fill-rule="evenodd" clip-rule="evenodd" d="M38.9733 45.9344C39.1077 45.4853 38.8781 45.138 38.5584 45.0317C38.4018 44.9797 38.2246 44.9865 38.0675 45.0683C37.9088 45.151 37.783 45.3039 37.7177 45.5219C37.2406 47.1213 36.5015 48.5056 35.6384 49.7936C35.9706 50.0641 36.3033 50.3424 36.6273 50.632C37.5994 49.2268 38.4442 47.7084 38.9733 45.9344ZM32.954 55.3821C32.6858 55.1933 32.2943 54.9419 31.8771 54.6795C30.4056 56.6043 29.0847 58.6729 28.4648 61.3184C28.3582 61.7735 28.5972 62.122 28.9143 62.2283C29.0711 62.2809 29.2479 62.2735 29.4016 62.1863C29.5567 62.0983 29.6726 61.9379 29.725 61.7145C30.3073 59.2273 31.5428 57.2488 32.954 55.3821Z" fill="#A9D4FF"/>
    </g>
</svg>
