<svg width="98" height="99" viewBox="0 0 98 99" fill="none" xmlns="http://www.w3.org/2000/svg">
    <path d="M48.6862 96.6241C74.9478 96.6241 96.2368 75.5015 96.2368 49.4448C96.2368 23.3881 74.9478 2.26514 48.6862 2.26514C22.4243 2.26514 1.13489 23.3881 1.13489 49.4448C1.13489 75.5015 22.4243 96.6241 48.6862 96.6241Z" stroke="#A9D4FF" stroke-width="1.63333" stroke-miterlimit="10"/>
    <path d="M32.7686 39.7155C38.914 39.7155 45.0568 39.7155 51.2019 39.7155C52.1819 39.7155 52.1846 38.2031 51.2019 38.2031C45.0568 38.2031 38.914 38.2031 32.7686 38.2031C31.7886 38.2031 31.7859 39.7155 32.7686 39.7155Z" fill="#A9D4FF"/>
    <path d="M40.1776 69.4191C39.4396 66.2656 38.8584 62.3874 38.3615 58.6345C37.8646 54.8816 37.4227 51.0874 36.8397 47.4006C37.2416 47.8098 37.6542 48.2109 37.9487 47.7616C38.1696 47.4193 38.3359 46.5946 38.6529 47.0696C38.769 47.2482 39.4332 45.6889 39.5517 45.8953C39.7864 46.3088 39.4363 48.0816 39.6142 47.949C40.2717 46.4738 40.4288 47.3444 40.8368 47.0452C41.7162 52.8228 42.2627 58.7212 42.7906 64.466C42.9379 66.0634 43.087 67.8159 42.9832 68.7682C42.9048 69.4773 42.6994 69.5704 42.5039 69.6482C41.6109 69.9713 40.6766 70.2565 39.5517 68.1426" fill="#DAEDFF"/>
    <path d="M42.6413 69.8761C41.3822 66.7176 40.8945 62.8207 40.6361 59.0474C40.3775 55.2738 40.3127 51.4563 39.7507 47.7529C40.9091 48.1507 42.1052 48.5401 43.2253 48.0743C44.067 47.7198 44.9059 46.8797 45.7645 47.3476C46.0773 47.5234 48.744 47.0309 49.0544 47.2351C49.6679 47.6434 47.9456 48.3396 48.5719 48.1987C50.0072 47.8806 55.4002 48.5221 56.8355 48.2041C57.6053 54.0089 55.3073 62.1758 54.9466 67.9613C54.8479 69.5699 53.6568 70.5019 51.9973 69.1087C51.4862 69.8283 50.7848 69.9302 50.121 70.0166C47.1013 70.3781 43.9607 70.7029 41.0681 68.6102" fill="#EBF5FF"/>
    <path d="M30.9826 35.4876C32.1251 42.963 32.7992 50.5214 33.6275 58.0344C34.0391 61.7813 34.4451 65.5282 34.8973 69.2701C35.0543 70.5594 35.0137 72.214 35.7744 73.3099C36.4593 74.2957 37.5016 74.6206 38.6468 74.6501C44.1396 74.7845 49.6406 74.7496 55.1335 74.8006C55.7752 74.8058 56.4248 74.8437 57.0664 74.8193C58.8289 74.7523 59.9497 73.5704 60.2257 71.9023C60.751 68.6926 61.1246 65.453 61.5468 62.2298C62.1018 57.9965 62.6405 53.7609 63.1739 49.525C63.4447 47.3546 63.8697 45.1412 63.9752 42.9548C64.0212 41.9904 62.5107 41.9931 62.4618 42.9548C62.3833 44.5584 62.0776 46.1808 61.8798 47.7736C61.4548 51.1823 61.0243 54.5907 60.5859 57.9965C60.1337 61.502 59.679 65.0073 59.197 68.5098C59.0373 69.6729 59.1131 71.6312 58.4309 72.6249C57.865 73.4494 56.904 73.3179 56.0513 73.3099C50.6748 73.2615 45.2983 73.2131 39.9218 73.162C39.3966 73.1568 38.8255 73.2158 38.3029 73.1487C36.4377 72.9042 36.5865 70.7124 36.4107 69.2701C35.991 65.8104 35.6146 62.3427 35.233 58.8778C34.3614 50.9485 33.6465 42.9735 32.4417 35.0874C32.2957 34.1392 30.8365 34.5422 30.9826 35.4876Z" fill="#A9D4FF"/>
    <path d="M58.9226 19.6078C58.9173 19.6212 58.9497 19.5836 58.8007 19.7528C58.6384 19.9381 58.4678 20.1181 58.3027 20.3034C57.7666 20.897 57.236 21.496 56.7244 22.1085C55.3005 23.814 53.9738 25.6165 52.8829 27.553C50.533 31.7246 49.2282 36.9194 52.2549 41.123C54.7536 44.5935 59.2936 45.2811 63.1269 43.7446C64.7052 43.1134 66.2239 42.133 67.2093 40.7281C68.5088 38.8721 68.4655 36.2371 68.1324 34.1016C67.2581 28.5362 63.6846 23.6718 60.1219 19.4573C59.4911 18.7106 58.4164 19.7851 59.0443 20.5264C61.8518 23.8491 64.532 27.4806 65.9424 31.6278C66.7113 33.8867 67.2338 36.6401 66.4244 38.9689C65.9533 40.328 64.6701 41.2975 63.4356 41.9449C60.0867 43.7017 55.6442 43.417 53.3972 40.1051C50.7768 36.2425 52.2737 31.5929 54.4369 27.905C55.5359 26.0355 56.8407 24.2922 58.2539 22.6457C58.8468 21.9553 59.8377 21.2032 60.2382 20.3705C60.6607 19.4977 59.3448 18.7294 58.9226 19.6078Z" fill="#A9D4FF"/>
    <path d="M55.1339 33.427C54.5032 35.479 55.169 37.7489 56.8557 39.1078C57.611 39.7149 58.6965 38.6514 57.9332 38.0389C56.6419 37.002 56.1166 35.4173 56.6038 33.83C56.8909 32.8952 55.4181 32.4949 55.1339 33.427Z" fill="#A9D4FF"/>
    <path d="M32.9618 48.9345L35.584 47.4595C37.2004 46.5504 39.2055 46.6732 40.6969 47.7725C42.0897 48.7991 43.9396 48.9795 45.5069 48.2416L46.2453 47.8942C48.0734 47.0336 50.2139 47.1363 51.9499 48.1678L52.2999 48.3758C54.0864 49.4374 56.264 49.6303 58.212 48.8998L62.7347 47.2034" stroke="#A9D4FF" stroke-width="1.71319"/>
    <path d="M40.1072 47.7817L41.4743 61.4739" stroke="#A9D4FF" stroke-width="1.71319" stroke-linecap="round" stroke-linejoin="round"/>
</svg>
