<svg width="95" height="96" viewBox="0 0 95 96" fill="none" xmlns="http://www.w3.org/2000/svg">
<g clip-path="url(#clip0_1302_12183)">
<mask id="mask0_1302_12183" style="mask-type:luminance" maskUnits="userSpaceOnUse" x="0" y="0" width="95" height="96">
<path d="M94.7577 0.579102H0.226318V95.1105H94.7577V0.579102Z" fill="white"/>
</mask>
<g mask="url(#mask0_1302_12183)">
<path d="M41.7727 35.8186C41.7746 35.7553 41.7785 35.688 41.8082 35.6328C41.8872 35.4804 42.0929 35.4586 42.2631 35.4565C42.5618 35.4528 42.8605 35.4488 43.1593 35.4448C43.2027 35.4448 43.2483 35.4448 43.2878 35.4626C43.3313 35.4843 43.361 35.5259 43.3867 35.5654C43.4914 35.7277 43.5707 35.9116 43.5688 36.1054C43.5648 36.4002 43.3708 36.6573 43.1731 36.8768C43.094 36.9639 43.009 37.0509 42.9101 37.1142C42.6766 37.2627 42.0001 37.4347 41.8577 37.1142C41.8003 36.9838 41.8814 36.7482 41.8755 36.6098C41.8636 36.3408 41.7647 36.0916 41.7727 35.8186Z" fill="#E0B370"/>
<path d="M53.4431 36.0166C53.4452 35.9533 53.4489 35.8861 53.4788 35.8308C53.5578 35.6784 53.7635 35.6566 53.9337 35.6547C54.2324 35.6508 54.5309 35.6466 54.8299 35.6428C54.8731 35.6428 54.9187 35.6428 54.9582 35.6606C55.0017 35.6823 55.0314 35.7239 55.0573 35.7634C55.162 35.9257 55.2413 36.1096 55.2392 36.3034C55.2352 36.5982 55.0414 36.8553 54.8435 37.075C54.7644 37.1619 54.6794 37.2489 54.5805 37.3122C54.347 37.4607 53.6705 37.6327 53.5282 37.3122C53.4707 37.1818 53.552 36.9462 53.5459 36.8078C53.534 36.5388 53.4351 36.2896 53.4431 36.0166Z" fill="#E0B370"/>
<path opacity="0.23" d="M61.8483 24.5956C61.5598 23.1326 61.1853 21.6328 60.2492 20.4129C59.3727 19.2674 58.1741 18.3452 56.8998 17.6237C54.0446 16.0022 50.8279 15.7022 47.5695 15.7096C44.6648 15.7171 41.5054 15.9972 39.0661 17.6559C36.4294 19.4459 35.137 22.3344 34.2138 25.193C33.3946 27.7317 32.1309 31.5153 34.4921 33.5904C34.7339 34.4955 36.3591 34.4013 36.4033 33.3129C36.5228 30.3202 38.0519 27.5731 40.5614 25.7757C41.7757 24.9054 43.5102 23.5319 45.0964 23.5913C46.1446 23.631 47.351 23.4576 48.5135 23.3559C48.3523 21.6798 48.0558 20.0138 47.9959 18.3278C47.9543 17.1353 49.8943 17.1402 49.9385 18.3278C49.9982 19.9964 50.2896 21.6451 50.4533 23.3064C51.8913 23.4228 53.072 24.3551 54.393 25.0368C55.8025 25.7632 56.6631 27.402 57.3133 28.7359C58.0232 30.1937 58.3197 31.7185 58.8475 33.2286C59.2506 34.3864 60.6809 34.9515 61.4556 33.7318C62.2463 32.4872 62.3529 30.8335 62.3452 29.4178C62.3372 27.7989 62.1605 26.1824 61.8483 24.5956Z" fill="#E0B370"/>
<path d="M52.0938 65.058C53.2329 63.6515 54.7437 62.7722 56.5075 62.4852C57.1075 62.3886 56.8516 61.4561 56.2577 61.5529C54.3538 61.8617 52.6572 62.8533 51.4268 64.3751C51.0398 64.8521 51.707 65.5382 52.0938 65.058Z" fill="#E0B370" stroke="#E0B370" stroke-width="0.274296"/>
<path d="M46.6682 64.3751C45.4377 62.8565 43.7411 61.8647 41.8372 61.5529C41.2434 61.4561 40.9874 62.3886 41.5875 62.4852C43.3512 62.7722 44.862 63.6485 46.0011 65.058C46.388 65.5382 47.0521 64.8521 46.6682 64.3751Z" fill="#E0B370" stroke="#E0B370" stroke-width="0.274296"/>
<path d="M36.2751 35.6682C36.1928 38.5028 36.6893 41.6074 37.2223 44.3766C37.3503 45.045 38.2703 44.7234 38.1423 44.055C37.6276 41.3749 37.14 38.4068 37.2223 35.6682C37.2406 34.9863 36.2963 34.9863 36.2751 35.6682Z" fill="#E0B370" stroke="#E0B370" stroke-width="0.274296"/>
<path d="M37.2651 44.3474C38.4012 47.2881 40.0279 50.0478 42.7602 51.6819C44.6091 52.7889 47.6399 54.0613 49.7934 53.6652C51.5235 53.3472 53.2842 52.0718 54.664 51.0177C55.9829 50.0104 57.1831 48.8378 58.1516 47.4721C60.5276 44.126 60.9813 40.1094 61.2006 36.0992C61.2343 35.4787 60.2899 35.4787 60.2565 36.0992C60.0646 39.6074 59.7326 43.1436 57.8622 46.1934C56.9089 47.7464 55.6203 49.0842 54.1889 50.1819C52.9186 51.158 51.2646 52.3618 49.6928 52.6735C47.8135 53.0447 45.011 51.8753 43.3694 50.9241C40.7894 49.4304 39.2419 46.8451 38.1758 44.0916C37.9565 43.5178 37.0397 43.7674 37.2651 44.3474Z" fill="#E0B370" stroke="#E0B370" stroke-width="0.274296"/>
<path d="M61.1929 35.0298C63.7362 36.0245 63.3038 42.308 60.2058 41.8622C59.612 41.778 59.3532 42.7073 59.9563 42.7946C64.318 43.4246 65.174 35.5535 61.4457 34.0974C60.8761 33.876 60.6293 34.8115 61.1929 35.0298Z" fill="#E0B370" stroke="#E0B370" stroke-width="0.274296"/>
<path d="M35.0824 34.092C31.933 34.9839 32.1949 41.2394 35.2562 42.0627C35.844 42.2217 36.0969 41.2893 35.5059 41.1303C33.3797 40.5597 33.1269 35.6482 35.3323 35.0245C35.9171 34.8593 35.6704 33.9268 35.0824 34.092Z" fill="#E0B370" stroke="#E0B370" stroke-width="0.274296"/>
<path d="M61.0217 39.3051C61.1739 38.616 61.5547 38.039 62.1395 37.6616C62.6543 37.3311 62.1792 36.4925 61.6613 36.826C60.8754 37.3311 60.315 38.1171 60.1078 39.0495C59.977 39.6543 60.8877 39.9132 61.0217 39.3051Z" fill="#E0B370" stroke="#E0B370" stroke-width="0.274296"/>
<path d="M37.2158 38.2447C36.9477 37.2124 36.2868 36.3424 35.373 35.8279C34.8401 35.5285 34.3617 36.3643 34.8947 36.6636C35.6046 37.0629 36.0949 37.7021 36.3051 38.5034C36.4605 39.1023 37.3712 38.8465 37.2158 38.2447Z" fill="#E0B370" stroke="#E0B370" stroke-width="0.274296"/>
<path d="M46.9388 41.8235C47.7775 42.3478 48.8317 42.3499 49.6744 41.8336C50.1947 41.5152 49.7178 40.6941 49.1956 41.0145C48.63 41.3607 47.9811 41.3548 47.4194 41.0047C46.8972 40.6784 46.4206 41.4993 46.9388 41.8235Z" fill="#E0B370" stroke="#E0B370" stroke-width="0.274296"/>
<path d="M52.5364 36.8219C53.7173 35.2789 55.717 35.821 57.0977 36.7487C57.6061 37.0909 58.0828 36.2679 57.5764 35.9297C55.6854 34.6579 53.2208 34.3769 51.7155 36.3432C51.3436 36.8277 52.1685 37.3025 52.5364 36.8219Z" fill="#E0B370" stroke="#E0B370" stroke-width="0.274296"/>
<path d="M51.5252 33.8232C53.0086 32.7571 54.9768 32.2685 56.4919 33.5761C56.9529 33.9735 57.6274 33.305 57.1625 32.9055C55.3368 31.3289 52.9079 31.6652 51.0465 33.0044C50.554 33.3564 51.0286 34.1794 51.5252 33.8232Z" fill="#E0B370" stroke="#E0B370" stroke-width="0.274296"/>
<path d="M52.7667 35.8012C52.6956 36.8061 52.6856 38.0622 53.9062 38.3133C55.4094 38.622 55.7418 36.4639 55.5716 35.4195C55.4746 34.8181 54.5588 35.0733 54.6558 35.6726C54.7171 36.0525 54.6539 37.5281 54.0327 37.3678C53.463 37.2214 53.6886 36.2067 53.7182 35.8012C53.7598 35.192 52.8104 35.1939 52.7667 35.8012Z" fill="#E0B370" stroke="#E0B370" stroke-width="0.274296"/>
<path d="M45.0387 36.1448C43.5334 34.1787 41.0709 34.4596 39.1778 35.7315C38.6734 36.0697 39.1481 36.8925 39.6565 36.5503C41.037 35.6226 43.0369 35.0805 44.2178 36.6235C44.5857 37.1022 45.4106 36.6314 45.0387 36.1448Z" fill="#E0B370" stroke="#E0B370" stroke-width="0.274296"/>
<path d="M45.7072 32.8038C43.8457 31.4668 41.4168 31.1286 39.591 32.705C39.1282 33.1046 39.8026 33.7732 40.2616 33.3756C41.7728 32.0701 43.7449 32.5566 45.2285 33.6229C45.7249 33.9808 46.1997 33.158 45.7072 32.8038Z" fill="#E0B370" stroke="#E0B370" stroke-width="0.274296"/>
<path d="M43.0372 35.6028C43.067 36.0084 43.2924 37.0231 42.7227 37.1696C42.1017 37.3279 42.0364 35.8541 42.0998 35.4743C42.1966 34.877 41.2827 34.6197 41.1838 35.2211C41.0138 36.2655 41.3441 38.4237 42.8494 38.1151C44.0698 37.8657 44.06 36.6098 43.9887 35.6028C43.9433 34.9977 42.9937 34.9918 43.0372 35.6028Z" fill="#E0B370" stroke="#E0B370" stroke-width="0.274296"/>
<path d="M60.388 34.4973C60.3188 31.7194 59.5809 28.8942 57.6801 26.7236C55.9314 24.7282 53.2295 23.5024 50.4898 23.7722C49.8886 23.8306 49.8825 24.7377 50.4898 24.6774C53.0059 24.4303 55.4092 25.5278 57.0094 27.363C58.7384 29.345 59.3773 31.9741 59.4406 34.4973C59.4544 35.0783 60.4037 35.0802 60.388 34.4973Z" fill="#E0B370" stroke="#E0B370" stroke-width="0.274296"/>
<path d="M48.4267 18.5709C48.6522 20.3643 48.7371 22.1579 48.6859 23.9646C48.6679 24.5473 49.6195 24.5473 49.6352 23.9646C49.6868 22.1598 49.6017 20.3643 49.3761 18.5709C49.3051 18.0013 48.3554 17.9937 48.4267 18.5709Z" fill="#E0B370" stroke="#E0B370" stroke-width="0.274296"/>
<path d="M62.4863 35.5082C65.9242 29.3712 63.2497 20.2887 56.9082 16.8186C54.944 15.7436 52.7068 15.2967 50.4537 15.3928C49.8446 15.4192 49.8425 16.3245 50.4537 16.2981C55.3535 16.0887 59.3529 18.8308 61.436 22.9592C63.2894 26.6312 63.7265 31.3704 61.6654 35.0518C61.3785 35.5647 62.1995 36.023 62.4863 35.5082Z" fill="#E0B370" stroke="#E0B370" stroke-width="0.274296"/>
<path d="M48.82 14.7835C46.1773 13.6199 42.5851 14.7496 40.1838 15.9415C36.2809 17.8802 33.494 21.3766 32.6078 25.4918C31.8877 28.8355 32.3309 32.2869 33.2705 35.5494C33.4327 36.1114 34.3483 35.8719 34.1863 35.3081C32.7857 30.4462 32.5899 24.9751 35.7924 20.6977C37.8377 17.9689 41.0778 16.0622 44.5256 15.4341C45.7144 15.2173 47.2018 15.0626 48.3411 15.5643C48.8931 15.8075 49.3756 15.0268 48.82 14.7835Z" fill="#E0B370" stroke="#E0B370" stroke-width="0.274296"/>
<path d="M47.6309 23.4156C41.3784 23.4797 37.796 28.9224 35.557 33.7768C35.3136 34.305 36.1306 34.7669 36.3758 34.2332C38.4666 29.7032 41.7423 24.3811 47.6309 24.3208C48.2421 24.3132 48.2421 23.408 47.6309 23.4156Z" fill="#E0B370" stroke="#E0B370" stroke-width="0.274296"/>
<path d="M43.9084 46.0777C46.7897 47.2089 49.8817 47.2947 52.6902 45.9087C53.2752 45.62 52.763 44.7437 52.1778 45.0324C49.6087 46.3014 46.7924 46.1244 44.179 45.0999C43.5704 44.8608 43.3078 45.841 43.9084 46.0777Z" fill="#E0B370" stroke="#E0B370" stroke-width="0.274296"/>
<g opacity="0.23">
<path opacity="0.23" d="M47.6022 48.8245C46.51 48.4838 45.5556 47.5998 45.0432 46.4452C44.9158 46.1565 44.8118 45.8339 44.8665 45.5167C44.9341 45.1215 45.2332 44.8302 45.5399 44.63C46.5177 43.9824 47.6984 43.9045 48.8296 43.855C49.1415 43.8421 49.4563 43.8291 49.7605 43.9019C50.2858 44.0293 50.7357 44.3986 51.17 44.7574C51.3129 44.8771 51.4638 45.0045 51.5443 45.1864C51.5963 45.3036 51.6147 45.4361 51.6302 45.5662C51.6795 46.0082 51.6848 46.4815 51.5028 46.8768C51.2895 47.3476 50.8579 47.6257 50.4497 47.8805C50.109 48.0911 49.763 48.3044 49.386 48.398C49.1831 48.4473 48.9752 48.4604 48.7697 48.4683C47.9506 48.4993 47.1263 48.4345 46.3175 48.2785" fill="#E0B370"/>
<path opacity="0.23" d="M47.6022 48.8245C46.51 48.4838 45.5556 47.5998 45.0432 46.4452C44.9158 46.1565 44.8118 45.8339 44.8665 45.5167C44.9341 45.1215 45.2332 44.8302 45.5399 44.63C46.5177 43.9824 47.6984 43.9045 48.8296 43.855C49.1415 43.8421 49.4563 43.8291 49.7605 43.9019C50.2858 44.0293 50.7357 44.3986 51.17 44.7574C51.3129 44.8771 51.4638 45.0045 51.5443 45.1864C51.5963 45.3036 51.6147 45.4361 51.6302 45.5662C51.6795 46.0082 51.6848 46.4815 51.5028 46.8768C51.2895 47.3476 50.8579 47.6257 50.4497 47.8805C50.109 48.0911 49.763 48.3044 49.386 48.398C49.1831 48.4473 48.9752 48.4604 48.7697 48.4683C47.9506 48.4993 47.1263 48.4345 46.3175 48.2785" stroke="#E0B370" stroke-width="0.274296"/>
</g>
<path d="M41.6592 21.4793C38.327 23.4798 35.9064 26.1785 34.6964 29.2793C34.5141 29.7457 35.4676 29.924 35.6498 29.4606C36.7823 26.5623 39.052 23.992 42.1697 22.1181C42.6633 21.8211 42.1589 21.1774 41.6592 21.4793Z" fill="#E0B370" stroke="#E0B370" stroke-width="0.274296"/>
<path d="M61.3745 33.9873C61.7489 31.1907 62.2123 27.7115 60.2072 25.1966C59.8815 24.7896 59.042 25.1626 59.3697 25.5712C61.2673 27.9515 60.7576 31.3393 60.4035 33.9873C60.3388 34.4624 61.3099 34.4594 61.3745 33.9873Z" fill="#E0B370" stroke="#E0B370" stroke-width="0.274296"/>
<path fill-rule="evenodd" clip-rule="evenodd" d="M60.8893 73.1088C57.4701 72.8182 53.1385 72.6667 49.264 72.7613C48.1298 72.7889 46.9189 72.8084 45.6771 72.8284C42.6661 72.877 39.4741 72.9284 36.7605 73.1056C34.8429 73.2309 33.1954 73.4173 32.0362 73.7013C31.453 73.8442 31.028 74.004 30.7591 74.1713C30.4857 74.3417 30.4649 74.4575 30.4649 74.5001C30.4649 74.7529 30.2602 74.9576 30.0076 74.9576C29.7548 74.9576 29.55 74.7529 29.55 74.5001C29.55 73.9938 29.8892 73.6351 30.2755 73.3944C30.6663 73.1511 31.2013 72.9638 31.8184 72.8125C33.0596 72.5083 34.7737 72.3183 36.701 72.1926C39.4382 72.0139 42.6685 71.9617 45.689 71.913C46.9244 71.8931 48.1247 71.8736 49.2417 71.8464C53.1509 71.7511 57.5156 71.9037 60.9668 72.1969C62.6909 72.3436 64.1971 72.5261 65.3079 72.7325C65.8615 72.8354 66.3313 72.9467 66.6854 73.0676C66.8618 73.1277 67.024 73.1952 67.1582 73.2727C67.28 73.3428 67.4394 73.4553 67.5303 73.6325C67.6458 73.8571 67.5572 74.1329 67.3324 74.2483C67.121 74.357 66.8644 74.2851 66.7387 74.0893C66.7311 74.0838 66.719 74.0756 66.7007 74.0651C66.6381 74.0289 66.5372 73.9839 66.3899 73.9337C66.0968 73.8336 65.6767 73.7317 65.1407 73.6321C64.0723 73.4336 62.5999 73.2542 60.8893 73.1088Z" fill="#E0B370" stroke="#E0B370" stroke-width="0.274296" stroke-linecap="round"/>
<path fill-rule="evenodd" clip-rule="evenodd" d="M42.4043 50.4277C42.4137 51.8586 42.3542 53.3652 41.8938 54.7926V54.7928C41.1561 57.079 39.3815 59.0015 37.161 59.9193L37.1608 59.9194C37.0464 59.9667 36.847 60.0178 36.6273 60.0694C36.3926 60.1246 36.0907 60.1898 35.7424 60.2626C35.301 60.3549 34.7779 60.4607 34.2135 60.5747C33.8883 60.6405 33.5493 60.7092 33.2045 60.7795C31.3027 61.1673 29.2292 61.6072 28.1306 61.9566C24.7127 63.0437 23.328 65.2121 21.7919 67.6175C21.6132 67.8975 21.4323 68.1807 21.2459 68.4658L20.48 67.9652C20.6617 67.6875 20.84 67.4069 21.0188 67.1259C22.5495 64.7211 24.1054 62.2765 27.8532 61.0846H27.8534C29.009 60.7169 31.1374 60.2669 33.0216 59.8828C33.3703 59.8117 33.711 59.7429 34.0367 59.6769C34.5986 59.5633 35.1163 59.4587 35.5553 59.3668C35.9016 59.2944 36.1947 59.2311 36.4182 59.1785C36.5299 59.1522 36.6214 59.1293 36.6919 59.1101C36.7271 59.1006 36.7553 59.0923 36.7768 59.0855C36.7876 59.0821 36.7959 59.0793 36.8021 59.077L36.8091 59.0745C36.8108 59.0738 36.8116 59.0736 36.8116 59.0736C38.7837 58.2585 40.3677 56.5424 41.0228 54.5117C41.4357 53.2313 41.4985 51.8484 41.4892 50.4338L42.4043 50.4277ZM36.8116 59.0736H36.8114L36.9852 59.4939L36.8116 59.0736Z" fill="#E0B370"/>
<path d="M36.8116 59.0736L37.3279 59.2696L36.8021 59.077C36.7959 59.0793 36.7876 59.0821 36.7768 59.0855C36.7553 59.0923 36.7271 59.1006 36.6919 59.1101C36.6214 59.1293 36.5299 59.1522 36.4182 59.1785C36.1947 59.2311 35.9016 59.2944 35.5553 59.3668C35.1163 59.4587 34.5986 59.5633 34.0367 59.6769C33.711 59.7429 33.3703 59.8117 33.0216 59.8828C31.1374 60.2669 29.009 60.7169 27.8534 61.0846C24.1056 62.2765 22.5495 64.7211 21.0188 67.126C20.84 67.4069 20.6617 67.6875 20.48 67.9652L21.2459 68.4658C21.4323 68.1807 21.6132 67.8975 21.7919 67.6175C23.328 65.2121 24.7127 63.0437 28.1306 61.9566C29.2292 61.6072 31.3027 61.1673 33.2045 60.7795C33.5493 60.7092 33.8883 60.6405 34.2135 60.5747C34.7779 60.4607 35.301 60.3549 35.7425 60.2626C36.0907 60.1898 36.3926 60.1246 36.6273 60.0694C36.847 60.0178 37.0464 59.9667 37.1608 59.9194C39.3813 59.0017 41.1561 57.079 41.8938 54.7928C42.354 53.3654 42.4137 51.8586 42.4043 50.4277L41.4892 50.4338C41.4985 51.8484 41.4357 53.2313 41.0228 54.5117C40.3677 56.5424 38.7837 58.2585 36.8116 59.0736ZM36.8116 59.0736L36.9852 59.4939" stroke="#E0B370" stroke-width="0.274296" stroke-miterlimit="10"/>
<path fill-rule="evenodd" clip-rule="evenodd" d="M55.6336 50.1414C55.6244 51.562 55.6939 53.2339 56.1059 54.5115C56.7612 56.5423 58.3452 58.2582 60.3173 59.0734C60.3173 59.0734 60.3175 59.0734 60.3179 59.0736C60.3182 59.0738 60.319 59.074 60.3197 59.0742L60.3267 59.0768C60.333 59.0791 60.3413 59.0818 60.3521 59.0852C60.3736 59.0922 60.4018 59.1003 60.437 59.1099C60.5075 59.1292 60.599 59.1521 60.7107 59.1784C60.9342 59.2307 61.2273 59.2943 61.5736 59.3667C62.0124 59.4584 62.5303 59.5631 63.092 59.6767C63.4179 59.7425 63.7584 59.8115 64.1072 59.8824C65.9913 60.2668 68.1199 60.7168 69.2757 61.0843C73.0233 62.2764 74.5792 64.7207 76.1101 67.1258C76.2887 67.4068 76.4674 67.6871 76.6489 67.9649L75.8828 68.4657C75.6966 68.1806 75.5157 67.8974 75.3368 67.6174C73.8007 65.2117 72.4162 63.0434 68.9983 61.9565C67.8997 61.6071 65.8262 61.1669 63.9244 60.7792C63.5794 60.7088 63.2406 60.6404 62.9152 60.5746C62.351 60.4604 61.8279 60.3547 61.3864 60.2625C61.038 60.1897 60.7363 60.1243 60.5014 60.0692C60.2819 60.0176 60.0827 59.9664 59.9679 59.9191V59.9189C57.7474 59.0014 55.9728 57.0786 55.2351 54.7925C54.774 53.3624 54.7093 51.5601 54.7186 50.1355L55.6336 50.1414Z" fill="#E0B370"/>
<path d="M68.9983 61.9565C72.4162 63.0434 73.8007 65.2117 75.3368 67.6174C75.5157 67.8974 75.6966 68.1806 75.8828 68.4657L76.6489 67.9649C76.4674 67.6871 76.2887 67.4068 76.1101 67.1258C74.5792 64.7207 73.0233 62.2764 69.2757 61.0843C68.1199 60.7168 65.9913 60.2668 64.1072 59.8824C63.7584 59.8115 63.4179 59.7425 63.092 59.6767C62.5303 59.5631 62.0124 59.4584 61.5736 59.3667C61.2273 59.2943 60.9342 59.2307 60.7107 59.1784C60.599 59.1521 60.5075 59.1292 60.437 59.1099C60.4018 59.1003 60.3736 59.0922 60.3521 59.0852C60.3413 59.0818 60.333 59.0791 60.3267 59.0768L60.3197 59.0742C60.319 59.074 60.3182 59.0738 60.3179 59.0736C60.3175 59.0734 60.3173 59.0734 60.3173 59.0734C58.3452 58.2582 56.7612 56.5423 56.1059 54.5115C55.6939 53.2339 55.6244 51.562 55.6336 50.1414L54.7186 50.1355C54.7093 51.5601 54.774 53.3624 55.2351 54.7925C55.9728 57.0786 57.7474 59.0014 59.9679 59.9189V59.9191C60.0827 59.9664 60.2819 60.0176 60.5014 60.0692C60.7363 60.1243 61.038 60.1897 61.3864 60.2625C61.8279 60.3547 62.351 60.4604 62.9152 60.5746C63.2406 60.6404 63.5794 60.7088 63.9244 60.7792C65.8262 61.1669 67.8997 61.6071 68.9983 61.9565ZM68.9983 61.9565L69.1369 61.5203" stroke="#E0B370" stroke-width="0.274296" stroke-miterlimit="10"/>
<path d="M60.9188 51.5726C64.2809 49.8132 66.8833 46.9389 68.2457 43.3906C68.4883 42.7608 69.5126 43.0353 69.2676 43.6723C67.8046 47.4755 65.0698 50.595 61.4531 52.4868C60.8501 52.8004 60.3136 51.8888 60.9188 51.5726Z" fill="#E0B370"/>
<path d="M64.5779 44.1353C65.7248 43.6233 66.8888 43.1552 68.038 42.6529C68.5134 42.447 69.2119 41.9397 69.7068 42.3734C70.1356 42.7461 70.2852 43.7065 70.4738 44.2236C70.758 45.0029 71.0569 45.8042 71.1085 46.6398C71.1501 47.321 70.0916 47.3185 70.0498 46.6398C70.0131 46.0664 69.8048 45.5052 69.6185 44.9636C69.5206 44.677 69.2608 43.4934 69.0232 43.3562C68.974 43.1724 68.9545 43.187 68.9619 43.3953C68.832 43.4516 68.7021 43.508 68.5723 43.567C68.3125 43.7262 67.9644 43.8267 67.6778 43.9468C66.8202 44.3094 65.96 44.6671 65.1122 45.047C64.497 45.3262 63.958 44.4147 64.5779 44.1353Z" fill="#E0B370"/>
<path d="M36.021 51.5726C32.6591 49.8132 30.0567 46.9389 28.6941 43.3906C28.4515 42.7608 27.4272 43.0353 27.6724 43.6723C29.1352 47.4755 31.87 50.595 35.4869 52.4868C36.0897 52.8004 36.6264 51.8888 36.021 51.5726Z" fill="#E0B370"/>
<path d="M32.3602 44.1353C31.2134 43.6233 30.0495 43.1552 28.9002 42.6529C28.4249 42.447 27.7263 41.9397 27.2313 42.3734C26.8025 42.7461 26.653 43.7065 26.4643 44.2236C26.1802 45.0029 25.8812 45.8042 25.8298 46.6398C25.788 47.321 26.8466 47.3185 26.8882 46.6398C26.9251 46.0664 27.1334 45.5052 27.3196 44.9636C27.4176 44.677 27.6773 43.4934 27.9152 43.3562C27.9642 43.1724 27.9836 43.187 27.9764 43.3953C28.1063 43.4516 28.2362 43.508 28.3659 43.567C28.6257 43.7262 28.9737 43.8267 29.2604 43.9468C30.1181 44.3094 30.9782 44.6671 31.8261 45.047C32.4412 45.3262 32.9802 44.4147 32.3602 44.1353Z" fill="#E0B370"/>
<path d="M47.5786 93.6665C73.139 93.6665 93.8597 72.9458 93.8597 47.3855C93.8597 21.8253 73.139 1.10449 47.5786 1.10449C22.0183 1.10449 1.29761 21.8253 1.29761 47.3855C1.29761 72.9458 22.0183 93.6665 47.5786 93.6665Z" stroke="#E0B370" stroke-width="0.984701" stroke-miterlimit="10"/>
<path opacity="0.23" fill-rule="evenodd" clip-rule="evenodd" d="M39.479 58.296C40.1938 57.8993 40.8154 57.2847 41.2433 56.5706C42.0824 55.1706 42.299 53.4652 42.2947 51.817C42.2935 51.1694 41.747 50.5958 41.2136 50.0358C40.8833 49.6891 40.5579 49.3476 40.3704 48.9971C40.1418 48.5691 39.8168 48.2116 39.5003 47.8633C38.967 47.2763 38.4578 46.7161 38.4766 45.8912C38.147 47.0161 38.0801 46.3638 38.023 45.8078C37.9924 45.51 37.9646 45.2399 37.9009 45.2852C37.5299 44.2598 37.2739 44.979 36.9211 45.9702C36.6409 46.7579 36.2995 47.7173 35.7907 48.1095C35.6353 48.2293 35.4799 48.3498 35.3262 48.4721C36.4299 49.3985 37.4957 50.4306 38.1608 51.6909C38.5828 52.4904 38.5747 53.2194 38.5399 54.1234C38.5272 54.4535 38.3603 54.8392 38.1081 55.0553C37.8398 55.2853 37.4547 55.2664 37.0915 55.2487C36.9964 55.2441 36.9026 55.2396 36.813 55.2396C35.5039 55.2396 33.5114 54.5155 32.5003 53.7173C32.3734 53.6172 32.1736 53.4796 31.9333 53.3219C31.6374 54.1356 31.3952 54.9762 31.1706 55.8079C31.0872 56.1163 30.4873 56.9616 29.8269 57.8919C28.9247 59.1634 27.9095 60.594 27.945 61.0304C27.9773 61.427 28.8894 61.006 29.8438 60.5653C30.7091 60.1658 31.6094 59.7502 31.9206 59.9132C32.5939 60.267 33.4032 60.0977 34.1381 59.9132C36.2346 59.3857 38.3121 58.7879 40.3704 58.122L39.479 58.296Z" fill="#E0B370"/>
<path opacity="0.23" fill-rule="evenodd" clip-rule="evenodd" d="M58.508 58.3979C57.7196 57.9663 57.0342 57.2974 56.5621 56.5202C55.6367 54.9967 55.3977 53.1409 55.4024 51.347C55.4049 50.2062 55.5102 49.0248 56.0515 48.0275C56.298 47.5718 56.8211 46.9776 57.3851 46.3371C58.0788 45.5491 58.8341 44.6913 59.212 43.935C59.7469 43.8403 60.4814 44.8006 61.2087 45.7515C61.6871 46.377 62.1624 46.9982 62.5755 47.3124C62.6573 47.3746 62.739 47.437 62.8205 47.4996C62.712 47.5822 62.604 47.6667 62.4962 47.753C61.1057 48.8652 59.6214 50.0953 58.7791 51.6909C58.3573 52.4905 58.3652 53.2195 58.4 54.1234C58.4127 54.4535 58.5798 54.8392 58.8318 55.0553C59.1001 55.2854 59.4854 55.2665 59.8484 55.2487H59.8486C59.9437 55.2442 60.0373 55.2395 60.1269 55.2395C61.436 55.2395 63.4287 54.5155 64.4396 53.7173C64.7748 53.4528 65.6205 52.9267 66.372 52.4591C66.4407 52.4164 66.5087 52.374 66.5755 52.3324C67.0226 53.4163 67.3616 54.5607 67.6707 55.6904C67.7628 56.0258 68.4243 56.9456 69.1524 57.958C70.1476 59.3417 71.2674 60.8987 71.2281 61.3738C71.1926 61.8052 70.1867 61.3471 69.134 60.8675C68.1797 60.4328 67.1869 59.9804 66.8437 60.1577C66.1011 60.5429 65.2087 60.3587 64.398 60.1577C62.086 59.5838 59.7949 58.9334 57.5248 58.2087L58.508 58.3979ZM59.4563 43.1092C59.4491 43.3624 59.3591 43.641 59.212 43.935C59.0196 43.9692 58.853 44.1402 58.722 44.4975C58.5985 44.4111 58.9785 43.8395 59.2447 43.4391C59.3381 43.2986 59.4175 43.1792 59.4563 43.1092ZM59.4563 43.1092C59.4569 43.0897 59.4569 43.0706 59.4565 43.0515C59.492 43.0287 59.4873 43.0529 59.4563 43.1092Z" fill="#E0B370"/>
<path fill-rule="evenodd" clip-rule="evenodd" d="M60.9319 42.341C61.0981 42.4264 61.2314 42.5852 61.3007 42.8136V42.8138C61.7832 44.4097 62.5151 45.8031 63.3729 47.0995C63.0764 47.3029 62.7853 47.5217 62.4964 47.7529C62.4283 47.8071 62.3603 47.862 62.2918 47.9168C61.3361 46.5132 60.511 44.9965 59.9813 43.2441C59.9115 43.014 59.9329 42.8055 60.0204 42.6384C60.1068 42.4727 60.2535 42.357 60.4176 42.3031C60.5819 42.2495 60.7674 42.2563 60.9319 42.341ZM66.0061 52.687C67.6941 54.8265 69.2147 57.0616 69.8978 59.9404V59.9406C69.9536 60.1749 70.0761 60.3413 70.2385 60.4322C70.3992 60.5222 70.5839 60.5297 70.7482 60.4755C71.0806 60.3655 71.3349 60.0034 71.2216 59.5262C70.4994 56.484 68.8884 54.1634 67.1469 51.9741C66.9235 52.1161 66.6544 52.2834 66.3724 52.459C66.2519 52.5341 66.1288 52.6105 66.0061 52.687Z" fill="#E0B370"/>
<path fill-rule="evenodd" clip-rule="evenodd" d="M38.1588 44.3746C38.2896 43.9374 38.0662 43.5994 37.755 43.496C37.6026 43.4453 37.4302 43.4519 37.2772 43.5315C37.1227 43.6121 37.0002 43.7609 36.9367 43.973C36.4724 45.5297 35.753 46.877 34.913 48.1307C35.2363 48.3938 35.5601 48.6648 35.8755 48.9467C36.8216 47.579 37.6438 46.1011 38.1588 44.3746ZM32.3003 53.5698C32.0392 53.3861 31.6583 53.1414 31.2522 52.886C29.82 54.7594 28.5344 56.7727 27.9311 59.3476C27.8273 59.7906 28.0598 60.1297 28.3686 60.2331C28.5211 60.2844 28.6932 60.2772 28.8427 60.1923C28.9938 60.1067 29.1065 59.9505 29.1575 59.7331C29.7243 57.3123 30.9268 55.3867 32.3003 53.5698Z" fill="#E0B370"/>
</g>
</g>
<defs>
<clipPath id="clip0_1302_12183">
<rect width="94.7205" height="94.7205" fill="white" transform="translate(0.0466309 0.477051)"/>
</clipPath>
</defs>
</svg>
