<svg width="154" height="154" viewBox="0 0 154 154" fill="none" xmlns="http://www.w3.org/2000/svg">
<path d="M52.7394 73.8045C52.4887 72.5958 52.0653 71.3042 52.5568 70.1719C53.025 69.0924 54.1746 68.5128 55.2088 67.9517C55.5006 67.7939 55.8115 67.6055 55.9255 67.2941C56.1541 66.669 55.4173 66.0794 54.7532 66.0446C54.0891 66.0098 53.4315 66.2763 52.7701 66.2083C51.2531 66.0526 50.4956 64.3597 49.8247 62.9905C49.0561 61.4207 48.0263 59.9791 46.7911 58.7423C46.192 60.147 45.5935 61.5522 44.9949 62.9572C44.8745 63.2391 44.741 63.5379 44.4855 63.7078C44.2748 63.8472 44.0131 63.8783 43.7624 63.9058C41.9053 64.1074 40.0484 64.3096 38.1915 64.5112C37.6836 65.5922 38.7388 66.7219 39.0503 67.8752C39.2181 68.4965 39.1626 69.1537 39.1061 69.795C38.8534 72.657 38.601 75.519 38.3487 78.3804C39.52 78.4596 40.7103 78.2242 41.7633 77.7053C43.9778 76.6137 47.2139 72.8924 49.6627 75.5152C50.3044 76.2025 50.5653 77.0893 51.5544 77.3838C53.7112 78.0257 52.9933 75.027 52.7394 73.8045Z" fill="#F8EEDE"/>
<mask id="mask0_1323_3415" style="mask-type:luminance" maskUnits="userSpaceOnUse" x="0" y="0" width="154" height="154">
<path d="M0.860901 0.9375H153.555V153.632H0.860901V0.9375Z" fill="white"/>
</mask>
<g mask="url(#mask0_1323_3415)">
<path d="M62.6301 46.726C70.9605 50.6738 77.4815 58.0318 80.2779 66.8313C80.9647 68.9889 81.1776 70.4886 79.6442 72.2593C77.946 74.2187 76.1075 76.1102 74.2016 77.8662C73.2536 78.7369 72.2764 79.5691 71.2506 80.3478C70.0556 81.2573 68.3286 82.1282 69.7316 83.599C70.5879 84.4938 72.7357 84.8954 73.9212 85.1131C75.7206 85.4469 77.5251 85.4225 79.3297 85.1324C80.4957 84.9436 81.2985 85.9694 80.805 87.0529C80.0696 88.659 79.107 90.1346 77.8638 91.3971C77.4137 91.8521 74.2114 93.8982 74.2065 94.1062C74.1872 94.648 76.543 95.2771 76.9589 95.3592C77.767 95.5189 78.6135 95.5333 79.436 95.5333C81.942 95.5287 84.3802 95.0883 86.7748 94.3725C88.3906 93.8885 89.0777 96.4088 87.4714 96.8929C83.2967 98.141 75.7352 99.7617 72.4068 95.8091C71.3911 94.5997 71.1443 93.1968 72.4505 92.1178C73.5826 91.1843 74.9611 90.6327 76.0208 89.5541C77.1187 88.4367 77.9075 87.1546 78.5555 85.7419C79.049 86.3805 79.5376 87.019 80.0312 87.6625C76.2529 88.2721 68.8173 88.2867 66.7467 84.1649C65.9099 82.5008 66.5775 80.8704 67.8788 79.6708C70.0025 77.7065 72.3778 76.1005 74.4242 74.0202C75.3532 73.0719 76.4755 72.1045 77.2494 71.0258C78.4007 69.4149 78.0525 68.273 77.4234 66.5122C76.5381 64.0355 75.2998 61.6794 73.8098 59.512C70.6603 54.9355 66.3308 51.3557 61.3187 48.9853C59.7951 48.2643 61.1156 46.0102 62.6301 46.726Z" fill="#221D1E"/>
<path d="M76.529 97.8789C70.9944 106.833 61.658 112.677 51.218 113.868C51.5277 113.122 51.8324 112.382 52.1421 111.637C61.2855 119.992 75.2372 121.637 86.9446 119.305C98.5115 116.997 109.531 110.742 115.525 100.303C122.53 88.0973 122.085 71.6249 116.004 59.1391C110.504 47.8427 100.156 39.4396 88.0376 36.1937C75.0582 32.7156 60.8353 35.5359 51.1987 45.1919C50.0086 46.382 48.1607 44.5387 49.3508 43.3437C68.7403 23.9109 102.067 31.5835 115.937 53.6433C123.861 66.25 125.646 83.5063 119.884 97.313C114.868 109.339 103.959 117.404 91.6323 120.863C85.464 122.595 78.8945 123.315 72.5039 122.691C64.6331 121.927 56.1476 118.841 50.2795 113.485C49.3603 112.643 50.1684 111.376 51.2036 111.255C60.6903 110.171 69.2482 104.662 74.2553 96.5584C75.1596 95.1313 77.4189 96.4423 76.529 97.8789Z" fill="#221D1E"/>
<path d="M100.2 67.4655C95.7691 70.4987 90.5445 71.9016 85.1892 71.4955C83.5249 71.3696 83.5105 68.7573 85.1892 68.8832C90.1332 69.2603 94.7919 68.0076 98.8844 65.2112C100.273 64.2535 101.579 66.5173 100.2 67.4655Z" fill="#221D1E"/>
<path d="M97.3509 68.0363C98.7053 68.6602 99.9244 69.5456 100.955 70.6196C102.121 71.829 100.277 73.6818 99.1069 72.4675C98.2118 71.5388 97.1961 70.8325 96.0301 70.2907C95.3916 69.9957 95.2318 69.0716 95.561 68.5054C95.948 67.8476 96.7075 67.7364 97.3509 68.0363Z" fill="#221D1E"/>
<path d="M92.9878 70.8023C92.8232 71.8086 92.6586 72.8148 92.4991 73.8211C92.3877 74.5177 91.5219 74.9049 90.8928 74.7354C90.1528 74.5323 89.8673 73.826 89.9788 73.1294C90.1431 72.1231 90.3077 71.1168 90.4671 70.1106C90.5785 69.414 91.4443 69.0271 92.0734 69.1963C92.8137 69.3996 93.0989 70.1057 92.9878 70.8023Z" fill="#221D1E"/>
<path d="M87.1246 71.9349C86.5489 72.8444 86.0264 73.7926 85.6102 74.7894C85.3393 75.4374 84.7444 75.9065 84.0041 75.7034C83.3897 75.5343 82.8189 74.7506 83.0898 74.0974C83.5979 72.8881 84.1687 71.727 84.8702 70.619C85.7601 69.1968 88.0243 70.5079 87.1246 71.9349Z" fill="#221D1E"/>
<path d="M52.6976 71.585C53.9021 74.4248 54.894 78.1643 55.068 81.2508C55.1261 82.2959 53.9311 82.8038 53.1041 82.378C50.9465 81.2701 49.3402 78.8706 47.7824 77.0856C47.5793 76.8532 47.1969 76.2049 46.897 76.0986C46.0117 75.7795 45.0589 77.0517 44.4396 77.5788C42.7947 78.9674 41.0339 80.1911 39.1762 81.275C38.5279 81.6521 37.372 81.3525 37.2556 80.4959C36.8009 77.1482 36.8638 73.912 37.4782 70.5885C37.783 68.9388 40.3034 69.6354 39.9986 71.2851C39.4715 74.12 39.3842 76.9452 39.776 79.8042C39.1374 79.5431 38.4988 79.2817 37.8554 79.0255C40.3132 77.5886 42.2576 75.7404 44.4927 74.0232C45.7989 73.0218 47.2553 72.9977 48.5565 74.0861C50.661 75.8375 51.9234 78.8416 54.4197 80.1285C53.7665 80.5057 53.1087 80.8783 52.4557 81.2554C52.3153 78.7448 51.2754 74.8697 50.4432 72.9107C49.7949 71.3721 52.0444 70.0418 52.6976 71.585Z" fill="#221D1E"/>
<path d="M50.7826 70.0617C53.1481 67.967 56.2298 66.7042 58.4503 64.4404C58.76 65.1852 59.0647 65.9255 59.3744 66.6703C56.7136 66.772 53.9996 65.9933 51.3631 65.7514C50.5456 65.6739 51.3146 65.8482 50.7679 65.7756C50.1052 65.6885 49.6362 65.5532 49.1814 65.0353C48.4992 64.2565 48.2283 62.9263 47.875 61.9924C47.2944 60.4688 46.7139 58.9449 46.1333 57.4207C46.9267 57.5224 47.725 57.629 48.5184 57.7307C47.5461 59.0655 46.6995 60.4444 45.9932 61.9344C45.529 62.9116 45.2193 63.8504 44.1935 64.3436C42.9069 64.9629 41.0489 64.6386 39.6802 64.634C37.7596 64.6242 35.8439 64.6145 33.9233 64.6001C34.3004 63.9469 34.673 63.2891 35.0505 62.6358C36.1728 64.4212 37.5177 65.9206 39.2108 67.1883C40.5411 68.1848 39.2398 70.4538 37.8903 69.4427C35.8292 67.9041 34.1603 66.1335 32.7912 63.9518C32.2592 63.1101 32.9509 61.9826 33.9184 61.9878C35.1955 61.9924 36.4776 62.0022 37.7547 62.0071C39.0898 62.0165 40.7832 62.2972 42.0698 62.0312C43.9373 61.6491 45.1127 57.9726 46.2546 56.405C46.9414 55.4616 48.2283 55.6259 48.6394 56.7147C49.0602 57.8226 49.4813 58.9303 49.907 60.0382C50.115 60.5894 50.3663 61.1364 50.5407 61.7023C50.5746 61.8183 50.8018 63.1535 50.7924 63.144C50.9035 63.2503 52.7514 63.3181 52.8965 63.3373C54.9915 63.618 57.241 64.1307 59.3598 64.0486C60.516 64.0049 61.0531 65.4952 60.2839 66.2788C58.0536 68.5525 54.9817 69.8055 52.6158 71.9001C51.3775 73.0224 49.5247 71.1794 50.7826 70.0617Z" fill="#221D1E"/>
</g>
</svg>
