<svg width="154" height="154" viewBox="0 0 154 154" fill="none" xmlns="http://www.w3.org/2000/svg">
<g clip-path="url(#clip0_1323_3465)">
<mask id="mask0_1323_3465" style="mask-type:luminance" maskUnits="userSpaceOnUse" x="-4" y="-3" width="161" height="161">
<path d="M156.495 -2.44482H-3.1853V157.236H156.495V-2.44482Z" fill="white"/>
</mask>
<g mask="url(#mask0_1323_3465)">
<path d="M40.9757 108.348C38.1017 108.358 35.2326 108.363 32.3583 108.373C31.9863 108.373 31.5785 108.358 31.3086 108.098C31.0637 107.858 31.0129 107.486 30.9822 107.145C30.7325 104.704 30.5492 102.003 32.0118 100.051C32.6183 99.2408 33.4691 98.6445 34.3611 98.1808C37.913 96.3461 42.4387 96.652 45.7306 98.9402C46.9078 99.7607 47.9473 100.816 49.2621 101.381C50.5211 101.921 51.9275 101.957 53.2934 101.977C58.5424 102.054 63.7915 101.967 69.0303 101.723C69.7437 101.687 70.4674 101.651 71.1451 101.417C71.9403 101.142 72.618 100.617 73.3365 100.173C75.6909 98.7259 78.6775 98.2115 81.2509 99.2002C83.8243 100.189 85.8121 102.828 85.6949 105.621C85.654 106.584 85.3484 107.578 84.6397 108.22C84.176 108.643 83.58 108.878 82.9835 109.061C80.5017 109.826 77.8619 109.831 75.268 109.831C62.6395 109.826 50.0114 109.821 37.3781 109.815" fill="#F8EEDE"/>
<path d="M128.609 45.2922H106.803C101.38 45.1852 96.906 47.4275 93.7718 51.6268C89.5981 57.2427 84.9453 65.0859 82.759 68.8467C81.9689 70.2075 80.4758 71.0433 78.8503 71.0433H73.9631C73.066 71.0433 72.1843 70.7884 71.4405 70.3094C71.4405 70.3094 66.6347 67.9142 62.0787 66.7677C59.7649 66.1864 52.9769 66.3956 52.9769 66.3956C43.1106 66.3956 35.1096 72.4753 35.1096 81.8268" stroke="#221D1E" stroke-width="2.01638" stroke-miterlimit="10" stroke-linecap="round" stroke-linejoin="round"/>
<path d="M126.846 109.524H107.394C101.971 109.631 96.391 108.587 93.2568 104.393C89.083 98.7767 80.4705 89.9297 78.8449 89.9297H73.9574C73.0607 89.9297 72.1792 90.1846 71.4351 90.6636L67.6842 93.0997C66.2011 94.0578 64.4379 94.5774 62.6441 94.5774H54.8468H52.9869C43.1208 94.5774 35.1199 89.2163 35.1199 79.8647" stroke="#221D1E" stroke-width="2.01638" stroke-miterlimit="10" stroke-linecap="round" stroke-linejoin="round"/>
<path d="M118.335 54.731C118.335 54.731 118.998 57.1057 126.576 59.4961" stroke="#221D1E" stroke-width="2.01638" stroke-miterlimit="10" stroke-linecap="round" stroke-linejoin="round"/>
<path d="M118.635 102.839C118.635 102.839 119.297 100.464 126.875 98.0739" stroke="#221D1E" stroke-width="2.01638" stroke-miterlimit="10" stroke-linecap="round" stroke-linejoin="round"/>
<path d="M121.752 81.3373H122.542C123.408 81.3373 124.116 80.6644 124.116 79.844C124.116 79.0235 123.408 78.351 122.542 78.351H121.752C120.885 78.351 120.177 79.0235 120.177 79.844C120.177 80.6644 120.885 81.3373 121.752 81.3373Z" fill="#F8EEDE"/>
<path d="M82.1707 79.844C82.1707 79.0235 82.8787 78.351 83.7451 78.351H85.3199C86.1863 78.351 86.8947 79.0235 86.8947 79.844C86.8947 80.6644 86.1863 81.3373 85.3199 81.3373H83.7451C82.8634 81.3373 82.1707 80.6644 82.1707 79.844ZM91.6697 79.844C91.6697 79.0235 92.3781 78.351 93.2445 78.351H94.8193C95.6854 78.351 96.394 79.0235 96.394 79.844C96.394 80.6644 95.6854 81.3373 94.8193 81.3373H93.2445C92.3628 81.3373 91.6697 80.6644 91.6697 79.844ZM101.174 79.844C101.174 79.0235 101.883 78.351 102.749 78.351H104.339C105.205 78.351 105.914 79.0235 105.914 79.844C105.914 80.6644 105.205 81.3373 104.339 81.3373H102.749C101.883 81.3373 101.174 80.6644 101.174 79.844ZM110.673 79.844C110.673 79.0235 111.382 78.351 112.248 78.351H113.823C114.689 78.351 115.398 79.0235 115.398 79.844C115.398 80.6644 114.689 81.3373 113.823 81.3373H112.248C111.382 81.3373 110.673 80.6644 110.673 79.844Z" fill="#F8EEDE"/>
<path d="M75.032 81.3373H75.8221C76.6886 81.3373 77.3966 80.6644 77.3966 79.844C77.3966 79.0235 76.6886 78.351 75.8221 78.351H75.032C74.1659 78.351 73.4573 79.0235 73.4573 79.844C73.4573 80.6644 74.1659 81.3373 75.032 81.3373Z" fill="#F8EEDE"/>
<g style="mix-blend-mode:multiply">
<g style="mix-blend-mode:multiply">
<path d="M121.755 81.3373H122.545C123.411 81.3373 124.12 80.6647 124.12 79.8443C124.12 79.0235 123.411 78.351 122.545 78.351H121.755C120.889 78.351 120.18 79.0235 120.18 79.8443C120.18 80.6647 120.889 81.3373 121.755 81.3373Z" fill="#F8EEDE"/>
</g>
<g style="mix-blend-mode:multiply">
<path d="M82.1736 79.8443C82.1736 79.0235 82.8819 78.351 83.7484 78.351H85.3231C86.1896 78.351 86.8979 79.0235 86.8979 79.8443C86.8979 80.6647 86.1896 81.3373 85.3231 81.3373H83.7484C82.8666 81.3373 82.1736 80.6647 82.1736 79.8443ZM91.673 79.8443C91.673 79.0235 92.3813 78.351 93.2474 78.351H94.8225C95.6886 78.351 96.397 79.0235 96.397 79.8443C96.397 80.6647 95.6886 81.3373 94.8225 81.3373H93.2474C92.366 81.3373 91.673 80.6647 91.673 79.8443ZM101.177 79.8443C101.177 79.0235 101.886 78.351 102.752 78.351H104.342C105.208 78.351 105.917 79.0235 105.917 79.8443C105.917 80.6647 105.208 81.3373 104.342 81.3373H102.752C101.886 81.3373 101.177 80.6647 101.177 79.8443ZM110.677 79.8443C110.677 79.0235 111.385 78.351 112.251 78.351H113.826C114.692 78.351 115.401 79.0235 115.401 79.8443C115.401 80.6647 114.692 81.3373 113.826 81.3373H112.251C111.385 81.3373 110.677 80.6647 110.677 79.8443Z" fill="#F8EEDE"/>
</g>
<g style="mix-blend-mode:multiply">
<path d="M75.032 81.3373H75.8221C76.6886 81.3373 77.3966 80.6647 77.3966 79.8443C77.3966 79.0235 76.6886 78.351 75.8221 78.351H75.032C74.1659 78.351 73.4573 79.0235 73.4573 79.8443C73.4573 80.6647 74.1659 81.3373 75.032 81.3373Z" fill="#F8EEDE"/>
</g>
</g>
<path d="M107.393 109.524H21.7415" stroke="#221D1E" stroke-width="2.01638" stroke-miterlimit="10" stroke-linecap="round" stroke-linejoin="round"/>
<path d="M88.0783 109.524C88.3996 104.902 87.9914 97.2169 81.5809 92.6915C80.48 91.9171 78.9461 91.6823 76.4692 91.759C73.2995 91.8558 71.8726 92.1259 71.2712 92.6404" stroke="#221D1E" stroke-width="1.97887" stroke-miterlimit="10" stroke-linecap="round" stroke-linejoin="round"/>
<path d="M41.473 91.5093C36.1221 89.9802 31.5409 91.0401 30.1903 92.2633C25.2572 96.7276 25.7056 106.614 25.6904 108.53" stroke="#221D1E" stroke-width="1.97887" stroke-miterlimit="10" stroke-linecap="round" stroke-linejoin="round"/>
<path d="M44.2322 92.9474C48.839 95.6945 47.4018 100.459 50.9439 100.459H66.1966C66.9458 100.459 67.5574 99.9292 67.5727 99.272C67.5727 99.272 66.7267 96.7136 71.2674 92.6469" stroke="#221D1E" stroke-width="1.97887" stroke-miterlimit="10" stroke-linecap="round" stroke-linejoin="round"/>
</g>
</g>
<defs>
<clipPath id="clip0_1323_3465">
<rect width="153" height="153" fill="white" transform="matrix(-1 0 0 1 153.155 0.895508)"/>
</clipPath>
</defs>
</svg>
