<svg width="154" height="154" viewBox="0 0 154 154" fill="none" xmlns="http://www.w3.org/2000/svg">
<g clip-path="url(#clip0_1323_3432)">
<mask id="mask0_1323_3432" style="mask-type:luminance" maskUnits="userSpaceOnUse" x="0" y="0" width="154" height="154">
<path d="M153.143 0.650024H0.448242V153.345H153.143V0.650024Z" fill="white"/>
</mask>
<g mask="url(#mask0_1323_3432)">
<path d="M40.229 117.777C44.6892 117.777 47.4948 114.704 47.4948 109.77C47.4948 104.837 44.6892 101.752 40.229 101.752C35.7578 101.752 32.9631 104.837 32.9631 109.77C32.9631 114.704 35.7578 117.777 40.229 117.777ZM40.229 115.66C37.2841 115.66 35.4246 113.381 35.4246 109.77C35.4246 106.148 37.2841 103.87 40.229 103.87C43.1741 103.87 45.0224 106.148 45.0224 109.77C45.0224 113.381 43.1741 115.66 40.229 115.66Z" fill="#221D1E"/>
<path d="M54.4769 117.728C56.5831 117.728 58.2276 116.879 58.9694 115.396C59.0659 115.17 59.1307 114.955 59.1307 114.772C59.1307 114.192 58.7218 113.827 58.1632 113.827C57.8303 113.827 57.5937 113.945 57.346 114.235C56.4866 115.407 55.6911 115.847 54.4228 115.847C52.5743 115.847 51.4135 114.557 51.4135 112.494V112.44H58.249C58.9694 112.44 59.3991 112.01 59.3991 111.258C59.3991 108.174 57.3249 106.002 54.3153 106.002C51.1124 106.002 49.0706 108.324 49.0706 111.914C49.0706 115.568 51.0696 117.728 54.4769 117.728ZM51.4242 110.817C51.5427 109.055 52.7032 107.872 54.3046 107.872C55.9171 107.872 57.0238 109.044 57.0775 110.817H51.4242Z" fill="#221D1E"/>
<path d="M62.456 117.744C63.1333 117.744 63.6167 117.282 63.6167 116.519V113.5L64.6486 112.532L68.3994 117.175C68.7112 117.605 68.9693 117.744 69.3993 117.744C70.0226 117.744 70.4846 117.315 70.4846 116.724C70.4846 116.433 70.4202 116.218 70.1731 115.907L66.3362 111.156L69.8293 107.846C70.1301 107.566 70.2266 107.351 70.2266 107.018C70.2266 106.47 69.7859 106.029 69.2163 106.029C68.8728 106.029 68.6251 106.148 68.335 106.459L63.6381 111.059H63.6167V103.052C63.6167 102.289 63.1333 101.827 62.456 101.827C61.7789 101.827 61.2952 102.289 61.2952 103.052V116.519C61.2952 117.282 61.7789 117.744 62.456 117.744Z" fill="#221D1E"/>
<path d="M76.5 117.728C79.7349 117.728 81.8632 115.503 81.8632 111.86C81.8632 108.227 79.7243 106.002 76.5 106.002C73.2754 106.002 71.1367 108.227 71.1367 111.86C71.1367 115.503 73.2647 117.728 76.5 117.728ZM76.5 115.815C74.6832 115.815 73.501 114.375 73.501 111.86C73.501 109.355 74.6832 107.915 76.5 107.915C78.3161 107.915 79.4986 109.355 79.4986 111.86C79.4986 114.375 78.3271 115.815 76.5 115.815Z" fill="#221D1E"/>
<path d="M84.7774 112.274H89.9256C90.5706 112.274 91.0544 111.875 91.0544 111.22C91.0544 110.575 90.5706 110.177 89.9256 110.177H84.7774C84.1324 110.177 83.6597 110.575 83.6597 111.22C83.6597 111.875 84.1324 112.274 84.7774 112.274Z" fill="#221D1E"/>
<path d="M94.0985 114.829C94.0985 116.699 95.0657 117.634 96.9683 117.634H97.0862C98.2259 117.634 98.763 117.28 98.763 116.581C98.763 116.033 98.4296 115.765 97.7635 115.7L97.5806 115.689C96.7426 115.624 96.4308 115.216 96.4308 114.313V108.068H97.7525C98.3544 108.068 98.7203 107.725 98.7203 107.155C98.7203 106.585 98.3544 106.231 97.7525 106.231H96.4308V104.554C96.4308 103.813 95.9684 103.318 95.27 103.318C94.5606 103.318 94.0985 103.813 94.0985 104.554V106.231H93.2816C92.6797 106.231 92.3145 106.574 92.3145 107.155C92.3145 107.725 92.6797 108.068 93.2816 108.068H94.0985V114.829Z" fill="#221D1E"/>
<path d="M104.875 117.728C106.982 117.728 108.626 116.879 109.368 115.396C109.464 115.17 109.529 114.955 109.529 114.772C109.529 114.192 109.121 113.827 108.562 113.827C108.229 113.827 107.992 113.945 107.745 114.235C106.885 115.407 106.09 115.847 104.822 115.847C102.972 115.847 101.812 114.557 101.812 112.494V112.44H108.648C109.368 112.44 109.798 112.01 109.798 111.258C109.798 108.174 107.723 106.002 104.714 106.002C101.511 106.002 99.4688 108.324 99.4688 111.914C99.4688 115.568 101.468 117.728 104.875 117.728ZM101.823 110.817C101.941 109.055 103.102 107.872 104.703 107.872C106.315 107.872 107.422 109.044 107.476 110.817H101.823Z" fill="#221D1E"/>
<path d="M112.175 117.717C112.573 117.717 112.83 117.578 113.089 117.18L115.69 113.354H115.743L118.344 117.201C118.57 117.546 118.838 117.717 119.247 117.717C119.881 117.717 120.354 117.298 120.354 116.697C120.354 116.46 120.279 116.234 120.107 115.987L117.129 111.795L120.118 107.733C120.311 107.485 120.386 107.259 120.386 106.991C120.386 106.421 119.924 106.002 119.269 106.002C118.871 106.002 118.613 106.174 118.334 106.615L115.84 110.301H115.797L113.25 106.582C112.97 106.153 112.734 106.002 112.293 106.002C111.659 106.002 111.175 106.432 111.175 107.002C111.175 107.27 111.25 107.496 111.412 107.722L114.4 111.87L111.369 116.009C111.186 116.266 111.1 116.492 111.1 116.739C111.1 117.309 111.552 117.717 112.175 117.717Z" fill="#221D1E"/>
<path d="M76.5874 28.5949C74.9463 28.5949 73.6071 29.9406 73.6071 31.6027C73.6071 33.4604 74.6702 35.2683 75.9125 36.9846C78.2384 35.2298 79.6047 33.2536 79.6047 31.6027C79.6047 29.9406 78.2549 28.5949 76.5874 28.5949ZM90.8518 32.4187C89.7763 32.4187 88.7828 32.9904 88.2603 33.9184C87.2983 35.534 87.3426 37.6338 87.5579 39.7392C90.4469 39.3886 92.628 38.3619 93.4483 36.9146C94.2646 35.4854 93.7772 33.6485 92.3473 32.8175C91.8941 32.5537 91.3753 32.4187 90.8518 32.4187ZM62.3389 32.4187C61.8225 32.4187 61.3036 32.5537 60.8434 32.8233C59.4139 33.6485 58.9265 35.4854 59.7535 36.9146C60.6773 38.5286 62.5071 39.5599 64.4287 40.4074C65.5739 37.7355 65.7681 35.3547 64.9475 33.9139C64.4122 32.984 63.4184 32.4187 62.3389 32.4187ZM77.1164 42.0503C76.0047 42.5292 75.3448 43.2695 75.3448 44.1004C75.3448 44.7876 75.9082 45.3528 76.5874 45.3528C77.2935 45.3528 77.8462 44.7876 77.8462 44.1004C77.8462 43.5501 77.6016 42.8856 77.1164 42.0503ZM68.0142 44.2098C67.295 45.18 67.1069 46.1484 67.5165 46.855C67.7443 47.249 68.1428 47.4912 68.5963 47.4912C68.8177 47.4912 69.0287 47.4328 69.2224 47.3293C69.8111 46.979 70.039 46.2113 69.6927 45.6081C69.4062 45.1381 68.8727 44.6846 68.0142 44.2098ZM85.561 44.6782C84.8751 44.6782 83.9684 44.8404 83.5188 45.6124C83.353 45.9038 83.3084 46.2388 83.3949 46.5637C83.4709 46.8865 83.6816 47.1562 83.9684 47.3293C84.5465 47.6475 85.3496 47.4328 85.6786 46.8651C85.9449 46.3844 86.0798 45.6946 86.0627 44.7121C85.8963 44.6846 85.717 44.6782 85.561 44.6782ZM96.2762 47.9346C98.9337 49.0624 101.347 49.2633 102.768 48.447C103.478 48.0421 103.97 47.4008 104.17 46.6272C104.388 45.8506 104.278 45.0453 103.883 44.349C103.08 42.9784 101.174 42.4553 99.7753 43.2484C98.1623 44.1823 97.141 46.0131 96.2762 47.9346ZM51.9245 42.8535C50.8449 42.8535 49.8579 43.4252 49.3284 44.349C48.9134 45.0407 48.8037 45.8506 49.0251 46.6226C49.2255 47.4008 49.7233 48.0421 50.4189 48.4428C51.3913 49.0038 52.5618 49.267 54.112 49.267C54.8138 49.267 55.5272 49.2151 56.2271 49.1387C55.8668 46.2498 54.8565 44.0794 53.4197 43.2484C52.9668 42.9888 52.4369 42.8535 51.9245 42.8535ZM61.2062 50.6278C61.0819 51.8384 61.394 52.7762 62.1132 53.1879C62.6849 53.5168 63.5009 53.3021 63.8405 52.7176C63.992 52.4366 64.0408 52.098 63.948 51.773C63.8616 51.4542 63.6566 51.1842 63.3702 51.0218C62.8745 50.7371 62.1407 50.5689 61.2062 50.6278ZM90.6561 50.7961C90.3605 50.7961 90.0737 50.8721 89.8315 51.0178C89.5405 51.1842 89.3402 51.4499 89.2537 51.7684C89.1713 52.098 89.222 52.4366 89.3716 52.7283C89.7112 53.3018 90.4997 53.5168 91.0775 53.1812C91.5585 52.9115 92.0059 52.3713 92.4933 51.5137C91.8667 51.0492 91.2235 50.7961 90.6561 50.7961ZM58.5276 59.5904C59.0233 60.702 59.7699 61.3393 60.5948 61.3393C61.2926 61.3393 61.8475 60.7884 61.8475 60.0992C61.8475 59.4074 61.2926 58.8468 60.5948 58.8468C60.061 58.8468 59.376 59.0825 58.5276 59.5904ZM92.6066 58.8468C91.9149 58.8468 91.3478 59.4074 91.3478 60.0992C91.3478 60.7884 91.9149 61.3393 92.6066 61.3393C93.1465 61.3393 93.8157 61.1137 94.6695 60.6052C94.1818 59.4939 93.4272 58.8468 92.6066 58.8468ZM48.0968 57.1063C46.4394 57.1063 45.0957 58.4455 45.0957 60.0992C45.0957 61.7568 46.4394 63.0996 48.0968 63.0996C49.9654 63.0996 51.7623 62.0265 53.4643 60.7948C51.7245 58.4687 49.7544 57.1063 48.0968 57.1063ZM99.7335 59.4074C101.481 61.7397 103.447 63.0996 105.098 63.0996C106.752 63.0996 108.095 61.7568 108.095 60.0992C108.095 58.4455 106.752 57.1063 105.098 57.1063C103.225 57.1063 101.433 58.1755 99.7335 59.4074ZM60.7047 68.6931C61.6704 69.4059 62.6363 69.6105 63.3598 69.1845C63.9648 68.8385 64.1697 68.0671 63.8301 67.4633C63.4948 66.9008 62.6849 66.6852 62.1132 67.0208C61.6432 67.2905 61.1827 67.8347 60.7047 68.6931ZM90.4579 66.8479C90.0044 66.8479 89.593 67.0901 89.3674 67.4743C89.036 68.0671 89.2363 68.8345 89.8315 69.1845C90.3165 69.4544 91.0397 69.5726 91.9845 69.5726C92.1302 68.3581 91.7967 67.4297 91.0775 67.0208C90.8732 66.9066 90.6726 66.8479 90.4579 66.8479ZM67.139 75.4905C68.0243 75.5659 69.1255 75.5393 69.6927 74.5835C70.028 73.9953 69.8111 73.2171 69.212 72.873C68.6406 72.5419 67.8521 72.7591 67.5165 73.3311C67.2468 73.8011 67.1219 74.5034 67.139 75.4905ZM84.5776 72.7047C84.3773 72.7047 84.1562 72.7636 83.9684 72.873C83.3805 73.2171 83.1802 73.9846 83.5188 74.5835C83.7891 75.0644 84.329 75.5118 85.1939 75.9919C85.911 75.0095 86.1006 74.0435 85.6786 73.3311C85.4575 72.9426 85.0379 72.7047 84.5776 72.7047ZM52.6208 71.23C51.7477 71.23 50.9967 71.4095 50.4189 71.7446C48.9827 72.5755 48.4809 74.4106 49.3284 75.8426C50.1148 77.2242 52.0179 77.7366 53.4197 76.9475C55.0358 76.0197 56.054 74.1849 56.9252 72.2613C55.3479 71.5931 53.8842 71.23 52.6208 71.23ZM96.9789 71.0632C97.3203 73.9571 98.3452 76.1232 99.7918 76.96C101.174 77.7467 103.09 77.2132 103.883 75.8426C104.7 74.4106 104.198 72.5694 102.772 71.7446C101.817 71.1881 100.65 70.935 99.0961 70.935C98.4002 70.935 97.6746 70.9878 96.9789 71.0632ZM76.5874 74.8531C75.9082 74.8531 75.3448 75.4101 75.3448 76.0957C75.3448 76.6525 75.5894 77.3106 76.0954 78.1626C77.2028 77.6771 77.8462 76.9267 77.8462 76.0957C77.8462 75.4101 77.2935 74.8531 76.5874 74.8531ZM77.7534 80.4949L77.7638 80.5114C78.9029 79.8056 80.151 79.1939 81.4843 78.6705C82.3043 78.3459 83.0553 77.9302 83.7091 77.4514C82.9582 76.975 82.2454 76.3718 81.7919 75.5873C80.8891 74.0328 81.419 72.0527 82.9688 71.1439C84.5297 70.2708 86.5581 70.8525 87.4065 72.3334C88.195 73.6832 88.0392 75.3133 87.0244 76.8736C87.2712 76.975 87.5304 77.0825 87.79 77.1924L87.8111 77.1967C88.4606 76.0197 89.2363 74.8641 90.1162 73.7415C90.6689 73.0458 91.116 72.3059 91.4406 71.5552C90.3605 71.5232 89.5237 71.3121 88.8274 70.9182C87.2815 70.0154 86.7584 68.0286 87.6379 66.4684C88.5196 64.9729 90.5972 64.4226 92.0774 65.281C93.4272 66.0588 94.1064 67.554 93.9989 69.4059C94.2792 69.3784 94.5599 69.3405 94.8298 69.303L94.857 69.2984C94.8256 67.9587 94.9056 66.5713 95.1377 65.1561C95.258 64.2766 95.2833 63.4184 95.1865 62.6085C94.4038 63.0242 93.5072 63.3427 92.6066 63.3427C90.8076 63.3427 89.3567 61.8915 89.3567 60.0992C89.3567 58.3105 90.8076 56.8489 92.6066 56.8489C94.1607 56.8489 95.4941 57.798 96.3376 59.4557C96.5464 59.2935 96.7682 59.1204 96.9853 58.9539L97.0064 58.9475C96.3101 57.7938 95.6944 56.5456 95.171 55.2123C94.8399 54.3859 94.431 53.6347 93.9461 52.9876C93.4758 53.7385 92.8708 54.4617 92.0774 54.9106C90.5443 55.784 88.5028 55.2059 87.6379 53.7174C87.2073 52.9665 87.098 52.0915 87.3158 51.2496C87.5414 50.4061 88.0914 49.7165 88.8274 49.2844C90.129 48.5289 91.8077 48.6791 93.3683 49.6829C93.4758 49.4298 93.5765 49.1705 93.6865 48.9066L93.6908 48.8895C92.5144 48.2424 91.3582 47.4643 90.2365 46.5784C89.5405 46.0277 88.8002 45.5806 88.0658 45.2563C88.0392 46.1484 87.8725 47.0697 87.4065 47.8692C86.5581 49.354 84.4854 49.9208 82.9792 49.0624C81.419 48.1496 80.8891 46.1627 81.7983 44.6147C82.5471 43.2802 84.0487 42.5903 85.911 42.6874C85.8795 42.4321 85.841 42.1578 85.8099 41.8922L85.797 41.8668C84.4912 41.9028 83.0553 41.8121 81.6636 41.6011C80.7673 41.4661 79.8963 41.4496 79.1243 41.5361C79.5292 42.32 79.8478 43.1934 79.8478 44.1004C79.8478 45.8928 78.3966 47.3464 76.5874 47.3464C74.8052 47.3464 73.3479 45.8928 73.3479 44.1004C73.3479 42.5417 74.3031 41.2029 75.9605 40.3759C75.7983 40.1606 75.6316 39.9395 75.4691 39.7178H75.4648L75.4547 39.7013C74.3031 40.4031 73.0571 41.0236 71.7385 41.548C70.9142 41.8711 70.1568 42.2824 69.5033 42.7631C70.2497 43.2319 70.9771 43.8262 71.4202 44.6147C72.3126 46.1694 71.7727 48.156 70.2225 49.0566C69.7247 49.3433 69.1695 49.4948 68.5963 49.4948C67.4404 49.4948 66.3563 48.8621 65.7849 47.8582C65.0007 46.5154 65.1625 44.885 66.1834 43.3284C65.9345 43.2273 65.6756 43.1134 65.4114 43.0102V43.0163L65.3946 43.0062C64.7475 44.1823 63.9648 45.3427 63.0788 46.4559C62.5288 47.1562 62.0686 47.8964 61.7568 48.6364C62.8303 48.6791 63.6777 48.8895 64.3697 49.2905C65.1103 49.7165 65.6502 50.4061 65.8817 51.2496C66.097 52.0915 65.9898 52.9665 65.5574 53.7174C64.6989 55.2233 62.6321 55.7901 61.1308 54.9152C59.7699 54.1328 59.0889 52.6416 59.1922 50.7903C58.9265 50.8172 58.6418 50.8556 58.3658 50.8935L58.3487 50.8975C58.3658 52.243 58.2751 53.6307 58.064 55.0398C57.9333 55.9193 57.9288 56.7878 58.0198 57.5873C58.8086 57.1717 59.6881 56.8489 60.5948 56.8489C62.3832 56.8489 63.857 58.3105 63.857 60.0992C63.857 61.8915 62.3832 63.3427 60.5948 63.3427C59.0364 63.3427 57.7077 62.3935 56.877 60.7466C56.6553 60.8984 56.4375 61.0691 56.2164 61.2419L56.2018 61.2544C56.8913 62.4039 57.5177 63.6673 58.0305 64.9894C58.3551 65.8102 58.7707 66.567 59.2575 67.215C59.726 66.4641 60.3309 65.7339 61.1198 65.281C62.5945 64.4226 64.6818 64.9729 65.5574 66.4641C66.4534 68.046 65.9071 70.0277 64.3593 70.9182C63.0514 71.6627 61.3729 71.5125 59.8399 70.5175C59.726 70.7722 59.6182 71.0214 59.5043 71.285H59.5153L59.5043 71.3021C60.6773 71.9538 61.8475 72.7313 62.9549 73.6068C63.6566 74.1675 64.3969 74.6171 65.1353 74.9295C65.1732 74.0435 65.3317 73.1155 65.7849 72.3266C66.6433 70.8485 68.716 70.2808 70.2225 71.1439C71.7592 72.0356 72.3126 74.0267 71.4202 75.5873C70.6442 76.9157 69.1152 77.5638 67.295 77.5109C67.3222 77.7806 67.3604 78.0551 67.3915 78.3355V78.352C68.7481 78.3355 70.1358 78.4112 71.5335 78.628C72.4408 78.7679 73.2993 78.7743 74.0985 78.6815C73.6832 77.8923 73.3479 77.0131 73.3479 76.0957C73.3479 74.3199 74.8052 72.8498 76.5874 72.8498C78.3966 72.8498 79.8478 74.3199 79.8478 76.0957C79.8478 77.6603 78.8986 78.9954 77.241 79.8307C77.4028 80.0518 77.5766 80.2631 77.7534 80.4949ZM65.6267 80.4738C62.7438 80.8299 60.5798 81.8447 59.7535 83.2809C58.9265 84.7175 59.4139 86.5538 60.8434 87.3848C62.2375 88.1739 64.159 87.6593 64.9521 86.2777C65.8817 84.6647 65.8649 82.5746 65.6267 80.4738ZM88.7663 79.7778C87.6233 82.4604 87.4229 84.8525 88.2603 86.2777C89.0531 87.6593 90.9532 88.184 92.3583 87.3744C93.7772 86.5538 94.2646 84.7175 93.4483 83.2703C92.5144 81.6673 90.6836 80.6363 88.7663 79.7778ZM77.2935 83.2284C74.9734 84.9722 73.6071 86.9484 73.6071 88.61C73.6071 90.2469 74.9463 91.5903 76.5874 91.5903C78.2549 91.5903 79.6047 90.2469 79.6047 88.61C79.6047 86.7376 78.5358 84.9386 77.2935 83.2284ZM76.5874 93.6037C73.8453 93.6037 71.5992 91.3478 71.5992 88.61C71.5992 86.2884 73.23 83.7827 76.0918 81.6355C75.8087 81.2559 75.5241 80.8852 75.2645 80.5114C74.0286 80.7755 72.6791 80.8198 71.2474 80.6088C70.0179 80.4253 68.807 80.3452 67.6407 80.3495C67.8896 82.7514 67.8896 85.1936 66.6916 87.288C65.3671 89.572 62.166 90.4451 59.8503 89.112C57.4652 87.7415 56.6553 84.6647 58.0198 82.2726C59.1818 80.2735 61.8368 78.9301 65.401 78.4934C65.3418 78.0273 65.2871 77.5638 65.2321 77.0996C64.0301 76.7218 62.8156 76.0573 61.7125 75.1784C60.7423 74.4106 59.7324 73.725 58.7112 73.1432C57.718 75.3656 56.5029 77.477 54.4131 78.6815C52.0873 80.0099 48.9134 79.1451 47.5843 76.8504C46.2137 74.476 47.0172 71.4095 49.4255 70.0112C51.4227 68.8492 54.4131 69.0177 57.7077 70.4201C57.8848 69.9901 58.064 69.5516 58.2519 69.1466C57.3998 68.1978 56.6867 67.0358 56.1789 65.7238C55.7104 64.5633 55.1812 63.4627 54.5759 62.4525C52.6315 63.8716 50.5054 65.0975 48.0968 65.0975C45.3385 65.0975 43.103 62.8574 43.103 60.0992C43.103 57.3403 45.3385 55.1048 48.0968 55.1048C50.4189 55.1048 52.924 56.7185 55.0737 59.5904C55.4444 59.2993 55.8115 59.0236 56.2018 58.7539C55.9187 57.518 55.8833 56.1407 56.0879 54.7487C56.2818 53.5064 56.3621 52.302 56.3471 51.1357C55.6136 51.2053 54.8666 51.2667 54.112 51.2667C52.2158 51.2667 50.6825 50.91 49.4255 50.174C48.2635 49.5116 47.4286 48.4321 47.0826 47.1461C46.7533 45.8506 46.9244 44.5008 47.5889 43.3458C48.8963 41.0612 52.0873 40.1817 54.4085 41.5147C56.4375 42.6767 57.7874 45.3385 58.2097 48.896C58.6797 48.8309 59.1372 48.7756 59.5907 48.7338C59.9914 47.5296 60.6394 46.3252 61.5143 45.2178C62.3013 44.2351 62.9759 43.2319 63.5494 42.2107C61.3454 41.2172 59.2199 39.9984 58.0198 37.919C56.6553 35.5272 57.4652 32.4672 59.8399 31.0899C62.1621 29.7443 65.357 30.6198 66.6815 32.914C67.8411 34.9287 67.6792 37.9041 66.2763 41.2029C66.7169 41.3907 67.1604 41.57 67.5708 41.7572C68.5099 40.9097 69.6927 40.2027 71.0046 39.6839C72.1541 39.2267 73.2401 38.6911 74.2503 38.0983C72.8394 36.1267 71.5992 34.0113 71.5992 31.6027C71.5992 28.844 73.8453 26.598 76.5874 26.598C79.3564 26.598 81.6083 28.844 81.6083 31.6027C81.6083 33.9139 79.9782 36.4193 77.1164 38.5787C77.4028 38.9568 77.6838 39.3342 77.9537 39.7013C79.1732 39.4481 80.5285 39.4103 81.9543 39.621C83.1802 39.7978 84.3773 39.8949 85.5714 39.8741C85.3182 37.461 85.3182 35.0041 86.5227 32.914C87.8554 30.6198 91.0397 29.7613 93.3454 31.0899C95.743 32.4672 96.5593 35.5272 95.1756 37.919C94.02 39.9331 91.3692 41.2933 87.8111 41.7257C87.8661 42.1896 87.9207 42.6431 87.9565 43.0856C89.1713 43.4741 90.3815 44.1343 91.4935 45.0071C92.4613 45.7917 93.4651 46.4669 94.4903 47.0319C95.4791 44.8404 96.6942 42.7253 98.7712 41.5147C101.1 40.1756 104.295 41.0566 105.613 43.3458C106.281 44.5054 106.461 45.8552 106.108 47.1461C105.748 48.4428 104.938 49.5162 103.765 50.174C101.789 51.3259 98.7712 51.1677 95.5048 49.7651C95.3212 50.2082 95.1484 50.6342 94.9499 51.0602C95.8019 52.0005 96.504 53.1711 97.0228 54.483C97.4806 55.6383 98.0166 56.735 98.6258 57.7391C100.575 56.3343 102.696 55.1048 105.098 55.1048C107.859 55.1048 110.088 57.3403 110.088 60.0992C110.088 62.8574 107.859 65.0975 105.098 65.0975C102.793 65.0975 100.29 63.4734 98.1305 60.6052C97.7463 60.8858 97.3734 61.179 97.0128 61.4423C97.276 62.6736 97.3038 64.0509 97.0928 65.4603C96.9199 66.6898 96.8396 67.8936 96.85 69.0663C97.5906 68.9841 98.3452 68.9313 99.0961 68.9313C100.979 68.9313 102.524 69.2877 103.776 70.0112C106.168 71.3928 106.988 74.4592 105.613 76.8504C104.284 79.1405 101.1 80.0099 98.7776 78.6879C96.7682 77.5253 95.4241 74.8641 94.9917 71.3021C94.5177 71.361 94.0642 71.4202 93.6107 71.4682C93.2204 72.6729 92.5623 73.8811 91.6874 74.9948C90.9047 75.9669 90.2301 76.9646 89.6587 77.9913C91.8606 78.9786 93.9778 80.1935 95.1756 82.2726C96.5593 84.6647 95.743 87.7415 93.3454 89.112C91.0397 90.4451 87.8447 89.5827 86.5227 87.288C85.371 85.2629 85.5268 82.2936 86.9316 78.9954C86.4952 78.8229 86.0627 78.6283 85.6407 78.4491C84.7025 79.2968 83.5256 80.0099 82.2179 80.5288C81.0583 80.9826 79.9678 81.5155 78.964 82.1144C80.3727 84.0695 81.6083 86.1913 81.6083 88.61C81.6083 91.3478 79.3564 93.6037 76.5874 93.6037Z" fill="#221D1E"/>
<path d="M65.4673 59.4941C65.5644 57.7604 66.0558 56.13 66.8339 54.7047H70.672C70.3367 56.2063 70.1639 57.8322 70.126 59.4941" fill="#F8EEDE"/>
<path d="M70.9356 66.7102C71.3369 68.1739 71.8802 69.4859 72.5239 70.5551C70.5203 69.7659 68.8202 68.4225 67.561 66.7102" fill="#F8EEDE"/>
<path d="M70.126 60.6711C70.1639 62.3392 70.3367 63.9696 70.6662 65.4777H66.8339C66.0558 64.035 65.558 62.4112 65.4673 60.6711" fill="#F8EEDE"/>
<path d="M67.561 53.5018C68.8202 51.7812 70.5203 50.425 72.5239 49.6365C71.8802 50.7053 71.3369 52.0295 70.9356 53.5018" fill="#F8EEDE"/>
<path d="M80.6833 49.6365C82.6763 50.4232 84.3932 51.7794 85.6502 53.5024H82.2818C81.8768 52.0277 81.3369 50.7053 80.6833 49.6365Z" fill="#F8EEDE"/>
<path d="M85.6502 66.7102C84.3932 68.4225 82.6763 69.7659 80.6833 70.5551C81.3369 69.4859 81.8768 68.1739 82.2818 66.7102" fill="#F8EEDE"/>
<path d="M87.9733 60.6711C87.8768 62.4112 87.4019 64.035 86.5984 65.4777H82.771C83.0889 63.9696 83.2724 62.3392 83.321 60.6711" fill="#F8EEDE"/>
<path d="M86.5984 54.7047C87.398 56.13 87.8783 57.7604 87.9757 59.4941H83.321C83.2724 57.8359 83.0889 56.2063 82.771 54.7047" fill="#F8EEDE"/>
<path d="M74.3544 49.0935C74.8733 48.9967 75.4095 48.9206 75.9492 48.8892V53.5375H72.0286C72.6128 51.5714 73.433 50.0554 74.3544 49.0935Z" fill="#F8EEDE"/>
<path d="M71.1367 59.4941C71.1813 57.7455 71.3688 56.13 71.6895 54.7047H75.9264V59.4941" fill="#F8EEDE"/>
<path d="M71.6867 65.478C71.3685 64.0457 71.1813 62.4219 71.1367 60.6711H75.9264V65.478" fill="#F8EEDE"/>
<path d="M75.9492 71.3369C75.4095 71.306 74.8733 71.2297 74.3544 71.1432C73.433 70.1773 72.6128 68.6546 72.0286 66.7102H75.9492" fill="#F8EEDE"/>
<path d="M81.0229 66.7102C80.4516 68.6607 79.6206 70.1773 78.7072 71.1496C78.2015 71.2361 77.6615 71.306 77.0984 71.3372V66.7102" fill="#F8EEDE"/>
<path d="M81.8961 60.6711C81.8585 62.4155 81.6493 64.0451 81.3354 65.4777H77.0984V60.6711" fill="#F8EEDE"/>
<path d="M81.3354 54.7047C81.6493 56.13 81.8606 57.7494 81.8982 59.4941H77.0984V54.7047" fill="#F8EEDE"/>
<path d="M77.0984 48.8892C77.6597 48.9224 78.1929 48.9988 78.7053 49.0953C79.6188 50.0551 80.4455 51.5778 81.0233 53.5393H77.0984" fill="#F8EEDE"/>
</g>
</g>
<defs>
<clipPath id="clip0_1323_3432">
<rect width="153" height="153" fill="white" transform="matrix(-1 0 0 1 153.309 0.895508)"/>
</clipPath>
</defs>
</svg>
