<svg width="169" height="56" viewBox="0 0 169 56" fill="none" xmlns="http://www.w3.org/2000/svg">
<g clip-path="url(#clip0)">
<mask id="mask0" mask-type="alpha" maskUnits="userSpaceOnUse" x="-3" y="0" width="167" height="56">
<path d="M163.938 0.509766H-2.0625V55.5098H163.938V0.509766Z" fill="#C4C4C4"/>
</mask>
<g mask="url(#mask0)">
<g style="mix-blend-mode:multiply">
<g style="mix-blend-mode:multiply">
<path d="M72.2691 20.407C73.2231 20.947 74.2851 21.217 75.4371 21.217C76.5891 21.217 77.6331 20.947 78.6051 20.407C79.5771 19.867 80.3331 19.129 80.9091 18.193C81.4851 17.257 81.7731 16.213 81.7731 15.061C81.7731 13.927 81.4851 12.883 80.9091 11.947C80.3331 11.011 79.5771 10.255 78.6051 9.715C77.6331 9.175 76.5891 8.905 75.4371 8.905C74.2851 8.905 73.2231 9.175 72.2691 9.715C71.2971 10.255 70.5411 11.011 69.9831 11.947C69.4071 12.883 69.1371 13.927 69.1371 15.061C69.1371 16.213 69.4071 17.257 69.9831 18.193C70.5411 19.129 71.2971 19.867 72.2691 20.407ZM77.3991 18.481C76.8231 18.805 76.1751 18.967 75.4551 18.967C74.7171 18.967 74.0691 18.805 73.4931 18.481C72.9171 18.157 72.4491 17.689 72.1251 17.095C71.8011 16.501 71.6391 15.817 71.6391 15.061C71.6391 14.305 71.8011 13.639 72.1251 13.045C72.4491 12.451 72.9171 11.983 73.4931 11.659C74.0691 11.335 74.7171 11.155 75.4551 11.155C76.1751 11.155 76.8231 11.335 77.3991 11.659C77.9751 12.001 78.4431 12.469 78.7671 13.063C79.0911 13.657 79.2711 14.323 79.2711 15.061C79.2711 15.817 79.0911 16.501 78.7671 17.095C78.4431 17.689 77.9751 18.157 77.3991 18.481ZM83.8309 9.121V21.001H88.7629C89.5369 21.001 90.2209 20.857 90.8329 20.551C91.4449 20.245 91.9129 19.813 92.2549 19.255C92.5789 18.715 92.7589 18.067 92.7589 17.347C92.7589 16.627 92.5789 16.015 92.2549 15.475C91.9129 14.935 91.4449 14.521 90.8329 14.233C90.2209 13.945 89.5369 13.783 88.7629 13.783H86.2609V11.317H91.7509V9.121H83.8309ZM88.6369 18.913H86.2609V15.781H88.6369C89.1769 15.781 89.5909 15.925 89.8969 16.213C90.1849 16.501 90.3469 16.879 90.3469 17.347C90.3469 17.833 90.1849 18.211 89.8969 18.499C89.5909 18.787 89.1769 18.913 88.6369 18.913ZM94.7469 9.121V21.001H99.337C100.165 21.001 100.921 20.839 101.587 20.515C102.235 20.191 102.757 19.741 103.117 19.147C103.477 18.571 103.675 17.887 103.675 17.095C103.675 16.339 103.477 15.673 103.117 15.079C102.757 14.503 102.235 14.035 101.587 13.711C100.921 13.387 100.165 13.207 99.337 13.207H97.177V9.121H94.7469ZM99.337 18.859H97.177V15.331H99.337C99.913 15.331 100.363 15.511 100.687 15.835C101.011 16.159 101.191 16.591 101.191 17.113C101.191 17.653 101.011 18.067 100.687 18.391C100.363 18.715 99.913 18.859 99.337 18.859ZM105.565 9.121V21.001H107.995V9.121H105.565ZM119.834 9.121H117.404V14.467C116.828 14.719 116.126 14.827 115.334 14.827C114.398 14.827 113.714 14.611 113.282 14.161C112.85 13.729 112.634 13.045 112.634 12.109V9.121H110.204V12.343C110.204 13.873 110.618 15.043 111.446 15.835C112.274 16.645 113.444 17.041 114.938 17.041C115.838 17.041 116.666 16.915 117.404 16.627V21.001H119.834V9.121ZM122.573 9.121V21.001H125.003V15.871H130.259V21.001H132.689V9.121H130.259V13.675H125.003V9.121H122.573ZM142.407 19.453L143.073 21.001H145.683L140.391 8.905H139.581L134.271 21.001H136.881L137.547 19.453H142.407ZM139.977 13.441L141.561 17.455H138.393L139.977 13.441ZM155.946 9.121H151.752C150.852 9.121 150.042 9.301 149.358 9.625C148.674 9.949 148.134 10.417 147.756 11.011C147.36 11.623 147.18 12.307 147.18 13.081C147.18 13.891 147.396 14.611 147.828 15.223C148.26 15.853 148.872 16.321 149.628 16.645L146.586 21.001H149.196L151.968 17.059H153.516V21.001H155.946V9.121ZM153.516 11.263V14.917H151.68C151.068 14.917 150.582 14.755 150.222 14.431C149.844 14.107 149.664 13.657 149.664 13.099C149.664 12.559 149.844 12.109 150.222 11.767C150.582 11.443 151.068 11.263 151.68 11.263H153.516ZM69.8211 33.121V45.001H72.2511V35.317H77.3271V45.001H79.7571V33.121H69.8211ZM84.9254 44.407C85.8794 44.947 86.9414 45.217 88.0934 45.217C89.2454 45.217 90.2894 44.947 91.2614 44.407C92.2334 43.867 92.9894 43.129 93.5654 42.193C94.1414 41.257 94.4294 40.213 94.4294 39.061C94.4294 37.927 94.1414 36.883 93.5654 35.947C92.9894 35.011 92.2334 34.255 91.2614 33.715C90.2894 33.175 89.2454 32.905 88.0934 32.905C86.9414 32.905 85.8794 33.175 84.9254 33.715C83.9534 34.255 83.1974 35.011 82.6394 35.947C82.0634 36.883 81.7934 37.927 81.7934 39.061C81.7934 40.213 82.0634 41.257 82.6394 42.193C83.1974 43.129 83.9534 43.867 84.9254 44.407ZM90.0554 42.481C89.4794 42.805 88.8314 42.967 88.1114 42.967C87.3734 42.967 86.7254 42.805 86.1494 42.481C85.5734 42.157 85.1054 41.689 84.7814 41.095C84.4574 40.501 84.2954 39.817 84.2954 39.061C84.2954 38.305 84.4574 37.639 84.7814 37.045C85.1054 36.451 85.5734 35.983 86.1494 35.659C86.7254 35.335 87.3734 35.155 88.1114 35.155C88.8314 35.155 89.4794 35.335 90.0554 35.659C90.6314 36.001 91.0994 36.469 91.4234 37.063C91.7474 37.657 91.9274 38.323 91.9274 39.061C91.9274 39.817 91.7474 40.501 91.4234 41.095C91.0994 41.689 90.6314 42.157 90.0554 42.481ZM107.366 42.805H105.782V33.121H97.52V35.083C97.52 37.315 97.394 39.043 97.178 40.303C96.9443 41.563 96.5663 42.391 96.0623 42.805H95.1083V47.539H97.538V45.001H104.936V47.539H107.366V42.805ZM99.5 39.925C99.68 38.701 99.77 37.153 99.806 35.317H103.352V42.805H98.708C99.068 42.121 99.32 41.149 99.5 39.925ZM118.959 33.121H116.367L113.577 39.583L110.553 33.121H107.835L112.263 42.229C111.867 42.733 111.309 42.985 110.589 42.985C110.247 42.985 109.923 42.967 109.635 42.931V45.001C110.067 45.145 110.517 45.199 110.985 45.199C111.669 45.199 112.263 45.091 112.731 44.839C113.199 44.587 113.577 44.245 113.901 43.795C114.225 43.363 114.549 42.769 114.909 42.013L118.959 33.121ZM120.569 33.121V45.001H135.671V33.121H133.241V42.805H129.335V33.121H126.905V42.805H122.999V33.121H120.569ZM145.917 45.001H148.851L143.703 38.719L148.257 33.121H145.359L140.823 38.629V33.121H138.393V45.001H140.823V38.809L145.917 45.001ZM157.454 43.453L158.12 45.001H160.73L155.438 32.905H154.628L149.318 45.001H151.928L152.594 43.453H157.454ZM155.024 37.441L156.608 41.455H153.44L155.024 37.441Z" fill="#4F6FC1"/>
</g>
</g>
<g style="mix-blend-mode:multiply">
<g style="mix-blend-mode:multiply">
<path fill-rule="evenodd" clip-rule="evenodd" d="M26.7349 29.7359L36.4154 39.4163L37.9322 37.8995L28.2516 28.2191L37.9264 18.5445L36.4096 17.0277L26.7349 26.7024L17.0592 17.0268L15.5424 18.5436L25.2181 28.2191L15.5365 37.9005L17.0533 39.4173L26.7349 29.7359Z" fill="#4F6FC1"/>
</g>
<g style="mix-blend-mode:multiply">
<g style="mix-blend-mode:multiply">
<path d="M26.7332 53.0177C40.4275 53.0177 51.5289 41.9163 51.5289 28.222C51.5289 14.5277 40.4275 3.4263 26.7332 3.4263C13.0389 3.4263 1.9375 14.5277 1.9375 28.222C1.9375 41.9163 13.0389 53.0177 26.7332 53.0177Z" stroke="#4F6FC1" stroke-width="2.14503"/>
</g>
</g>
</g>
</g>
</g>
<defs>
<clipPath id="clip0">
<rect width="169" height="56" fill="white"/>
</clipPath>
</defs>
</svg>
