<svg width="175" height="64" viewbox="0 0 175 64" fill="none" xmlns="http://www.w3.org/2000/svg">
<g clip-path="url(#clip0)">
<path d="M30.9661 9.19879C25.334 9.19879 21.8271 12.8827 21.8271 18.816C21.8271 24.4836 25.7945 28.4332 31.4975 28.4332C34.2073 28.4332 36.8108 27.282 38.2986 25.44L38.4757 25.2097C38.6174 25.0326 38.5997 24.767 38.4403 24.5899L37.785 23.9345C37.6964 23.846 37.5724 23.7751 37.4485 23.7928C37.3245 23.7928 37.2005 23.8637 37.1119 23.9522L36.8994 24.2179C35.6773 25.6171 33.6228 26.5027 31.5329 26.5027C26.9634 26.5027 24.1119 23.7928 23.8285 19.2056H38.8299C39.0779 19.2056 39.2904 18.9931 39.2904 18.7451V18.4263C39.2904 18.3024 39.2904 18.1784 39.3081 18.0367C39.3258 17.8773 39.3258 17.7179 39.3258 17.5408C39.2904 12.6348 35.8722 9.19879 30.9661 9.19879ZM23.8462 17.2928C24.3776 13.4141 26.9634 11.1293 30.8067 11.1293C32.7727 11.1293 34.4198 11.7492 35.5711 12.9359C36.6337 14.0162 37.2359 15.5217 37.3422 17.2928H23.8462Z" fill="#4F6FC1" stroke="#4F6FC1" stroke-width="0.4"/>
<path d="M11.3944 9.19872C9.35762 9.19872 7.01974 10.0134 5.30175 11.3064V0.467084C5.30175 0.219127 5.08922 0.0065918 4.84126 0.0065918H3.81401C3.56605 0.0065918 3.35352 0.219127 3.35352 0.467084V25.7056C3.35352 25.8473 3.40665 25.9713 3.51292 26.0598L3.61918 26.1484C5.42573 27.707 7.69277 28.4685 10.5443 28.4685C16.389 28.4685 20.3209 24.5012 20.3209 18.568C20.3386 12.8827 16.8318 9.19872 11.3944 9.19872ZM5.30175 13.8922C6.39985 12.5461 8.98569 11.147 11.3944 11.147C15.716 11.147 18.3904 14.0339 18.3904 18.6919C18.3904 20.9767 17.6465 22.9249 16.2119 24.3595C14.795 25.7764 12.8467 26.538 10.5797 26.538C9.09195 26.538 7.32083 26.3609 5.28404 25.0149V13.8922H5.30175Z" fill="#4F6FC1" stroke="#4F6FC1" stroke-width="0.4"/>
<path d="M125.232 36.2079C119.6 36.2079 116.093 39.8918 116.093 45.8428C116.093 51.5104 120.06 55.46 125.763 55.46C128.473 55.46 131.076 54.3088 132.564 52.4668L132.741 52.2366C132.883 52.0594 132.865 51.7938 132.706 51.6167L132.051 50.9436C131.962 50.8551 131.838 50.8019 131.714 50.8019C131.59 50.8019 131.466 50.8728 131.378 50.9613L131.165 51.2093C129.943 52.6085 127.888 53.4941 125.799 53.4941C121.229 53.4941 118.378 50.7842 118.094 46.197H133.113C133.361 46.197 133.574 45.9845 133.574 45.7365V45.4177C133.574 45.276 133.574 45.1521 133.591 45.0104C133.609 44.851 133.609 44.7093 133.609 44.5322C133.556 39.6439 130.12 36.2079 125.232 36.2079ZM118.094 44.3019C118.625 40.4232 121.211 38.1384 125.055 38.1384C127.021 38.1384 128.668 38.7583 129.819 39.945C130.882 41.0253 131.484 42.5131 131.59 44.3019H118.094Z" fill="#4F6FC1" stroke="#4F6FC1" stroke-width="0.4"/>
<path d="M163.874 36.2079C161.748 36.2079 159.464 36.9695 157.781 38.2093V36.9695C157.781 36.7215 157.569 36.509 157.321 36.509H156.311C156.063 36.509 155.851 36.7215 155.851 36.9695V62.2965C155.851 62.5445 156.063 62.757 156.311 62.757H157.321C157.569 62.757 157.781 62.5445 157.781 62.2965V54.2025C159.357 55.0172 161.323 55.46 163.413 55.46C168.957 55.46 172.818 51.3864 172.818 45.5594C172.8 39.8741 169.293 36.2079 163.874 36.2079ZM170.887 45.6657C170.87 50.2883 167.823 53.5118 163.449 53.5118C161.253 53.5118 159.393 52.9804 157.781 51.8646V40.7597C158.861 39.449 161.394 38.1207 163.874 38.1207C168.195 38.1384 170.887 41.0253 170.887 45.6657Z" fill="#4F6FC1" stroke="#4F6FC1" stroke-width="0.4"/>
<path d="M144.623 36.2079C138.991 36.2079 135.484 39.8918 135.484 45.8428C135.484 51.5104 139.451 55.46 145.154 55.46C147.846 55.46 150.45 54.3088 151.955 52.4668L152.132 52.2366C152.274 52.0594 152.256 51.7938 152.097 51.6167L151.424 50.9436C151.335 50.8551 151.194 50.7842 151.087 50.8019C150.963 50.8019 150.84 50.8728 150.751 50.9613L150.538 51.2093C149.316 52.6085 147.262 53.4941 145.172 53.4941C140.602 53.4941 137.751 50.7842 137.468 46.197H152.487C152.735 46.197 152.947 45.9845 152.947 45.7365V45.4177C152.947 45.2937 152.947 45.1698 152.965 45.0281C152.983 44.8687 152.983 44.7093 152.983 44.5322C152.983 42.1411 152.15 39.9981 150.645 38.4926C149.122 37.0226 146.996 36.2079 144.623 36.2079ZM137.521 44.3019C138.052 40.4232 140.62 38.1384 144.481 38.1384C146.447 38.1384 148.094 38.7583 149.246 39.945C150.29 41.0076 150.91 42.5131 151.017 44.3019H137.521Z" fill="#4F6FC1" stroke="#4F6FC1" stroke-width="0.4"/>
<path d="M116 52.4848C115.929 52.3785 115.823 52.3076 115.699 52.2899C115.575 52.2722 115.451 52.2899 115.345 52.3785L115.079 52.5733C114.601 52.9453 113.662 53.3349 112.741 53.3349C111.254 53.3349 110.439 52.7327 110.439 49.5801V27.4588C110.439 27.2108 110.226 26.9983 109.978 26.9983H108.969C108.721 26.9983 108.508 27.2108 108.508 27.4588V50.1469C108.508 53.5829 109.89 55.2477 112.741 55.2477C113.963 55.2477 115.274 54.8404 116.23 54.1496L116.478 53.9725C116.691 53.8308 116.726 53.5474 116.602 53.3349L116 52.4848Z" fill="#4F6FC1" stroke="#4F6FC1" stroke-width="0.4"/>
<path d="M100.435 44.8515C100.417 44.8338 100.381 44.8338 100.364 44.8161C98.0258 44.0545 96.0067 43.3992 96.0067 41.0082C96.0067 39.3788 97.6184 38.139 99.7438 38.139C101.338 38.139 102.684 38.6349 103.552 39.5204L103.8 39.7684C103.888 39.857 103.994 39.9101 104.136 39.9101C104.26 39.9101 104.384 39.857 104.473 39.7507L105.146 38.9714C105.305 38.7943 105.287 38.5286 105.146 38.3515L104.969 38.1567C103.924 36.97 101.869 36.1907 99.8324 36.1907C96.3964 36.1907 94.0762 38.139 94.0762 41.0436C94.0762 44.8338 97.2111 45.8434 99.7261 46.6758C102.294 47.5082 103.888 48.1281 103.888 50.1649C103.888 52.4851 101.71 53.53 99.549 53.53C98.1321 53.53 96.1307 52.8747 95.3514 51.812L95.1743 51.5641C95.0326 51.3516 94.7492 51.2984 94.5367 51.4401L93.6866 52.0069C93.5803 52.0777 93.5095 52.184 93.4917 52.308C93.474 52.4319 93.4917 52.5559 93.5626 52.6622L93.7397 52.9101C94.7315 54.4333 97.5653 55.4606 99.5844 55.4606C103.375 55.4606 105.836 53.3706 105.836 50.1295C105.801 46.5872 102.914 45.6485 100.435 44.8515Z" fill="#4F6FC1" stroke="#4F6FC1" stroke-width="0.4"/>
<path d="M73.6312 9.49988H72.6217C72.3737 9.49988 72.1612 9.71241 72.1612 9.96037V23.4209C71.134 24.7138 68.5127 26.5204 65.8383 26.5204C61.7824 26.5204 60.0467 24.4836 60.0467 19.737V9.96037C60.0467 9.71241 59.8342 9.49988 59.5862 9.49988H58.5767C58.3287 9.49988 58.1162 9.71241 58.1162 9.96037V19.8432C58.1162 25.6348 60.6135 28.4509 65.7675 28.4509C68.2647 28.4509 70.6203 27.2642 72.1789 26.0422V27.6893C72.1789 27.9373 72.3915 28.1498 72.6394 28.1498H73.649C73.8969 28.1498 74.1095 27.9373 74.1095 27.6893V9.97808C74.1095 9.71241 73.8969 9.49988 73.6312 9.49988Z" fill="#4F6FC1" stroke="#4F6FC1" stroke-width="0.4"/>
<path d="M97.7378 27.6713L104.946 10.1371C104.999 9.99545 104.982 9.83605 104.911 9.71207C104.822 9.5881 104.681 9.49954 104.521 9.49954H103.405C103.211 9.49954 103.051 9.60581 102.98 9.78292L96.7459 25.1208L88.8999 9.7475C88.829 9.5881 88.6696 9.49954 88.4925 9.49954H87.359C87.3413 9.49954 87.3413 9.49954 87.3236 9.49954H79.3358V5.21342C79.3358 4.96546 79.1233 4.75293 78.8753 4.75293H77.8658C77.6178 4.75293 77.4053 4.96546 77.4053 5.21342V20.8701C77.4053 25.7939 79.4598 28.2912 83.5334 28.2912C84.7554 28.2912 86.0661 27.8838 87.0225 27.1931L87.2704 27.0159C87.483 26.8743 87.5361 26.5909 87.3944 26.3783L86.8099 25.4928C86.7391 25.3865 86.6328 25.3157 86.4911 25.298C86.3672 25.2802 86.2255 25.3157 86.1369 25.3865L85.889 25.5813C85.393 25.9533 84.4721 26.3429 83.5511 26.3429C80.5756 26.3429 79.3535 24.6604 79.3535 20.5159V11.4478H87.6069L95.8072 27.4056L95.5593 27.9901C93.8236 32.2053 92.4421 33.8525 90.6533 33.8525C90.1574 33.8525 89.5729 33.6931 88.7582 33.3389L88.4748 33.2149C88.2445 33.1086 87.9789 33.2149 87.8726 33.4451L87.4653 34.3661C87.4121 34.4724 87.4121 34.6141 87.4475 34.7203C87.5007 34.8443 87.5892 34.9329 87.6955 34.986L87.9966 35.11C88.9707 35.535 89.874 35.7476 90.7418 35.7476C93.4871 35.7476 95.2759 33.7108 97.7378 27.6713Z" fill="#4F6FC1" stroke="#4F6FC1" stroke-width="0.4"/>
<path d="M47.724 9.19818C45.758 9.19818 44.1109 9.6941 42.2158 10.8807L41.9501 11.0402C41.8438 11.111 41.773 11.1996 41.7376 11.3235C41.7021 11.4475 41.7376 11.5715 41.7907 11.6778L42.3043 12.5102C42.4283 12.7227 42.7117 12.7936 42.9242 12.6696L43.1899 12.5102C44.7308 11.5892 45.7934 11.1464 47.6177 11.1464C51.8507 11.1464 52.4706 13.0947 52.5237 17.8236C50.7526 17.0088 48.8575 16.8672 47.8125 16.8672C43.4024 16.8672 40.5332 19.1873 40.5332 22.765C40.5332 26.077 42.9774 28.2909 46.6259 28.2909C48.9992 28.2909 50.9474 27.6002 52.5237 26.1656V27.671C52.5237 27.919 52.7362 28.1315 52.9842 28.1315H53.9937C54.2417 28.1315 54.4542 27.919 54.4542 27.671V16.6723C54.5074 11.6423 52.2935 9.19818 47.724 9.19818ZM52.5768 20.0729V23.2786C51.4256 24.8195 49.8139 26.3604 46.6436 26.3604C44.1817 26.3604 42.5169 24.9081 42.5169 22.7296C42.5169 21.7555 42.8357 20.923 43.491 20.2677C44.4297 19.329 45.9883 18.7977 47.7771 18.7977C49.6191 18.7977 51.2308 19.2405 52.5768 20.0729Z" fill="#4F6FC1" stroke="#4F6FC1" stroke-width="0.4"/>
<path fill-rule="evenodd" clip-rule="evenodd" d="M76.9425 44.9011C76.9425 40.0993 80.2138 36.0616 84.6494 34.8951C83.8069 34.6736 82.9225 34.5555 82.0105 34.5555C76.2968 34.5555 71.665 39.1873 71.665 44.901C71.665 50.6146 76.2968 55.2464 82.0105 55.2464C82.9223 55.2464 83.8067 55.1284 84.649 54.9069C80.2137 53.7403 76.9425 49.7027 76.9425 44.9011ZM10.822 55.2488C16.5356 55.2488 21.1674 50.617 21.1674 44.9034C21.1674 39.1898 16.5356 34.558 10.822 34.558C5.10837 34.558 0.476562 39.1898 0.476562 44.9034C0.476562 50.617 5.10837 55.2488 10.822 55.2488ZM40.3796 35.0904C43.6042 36.4681 45.9268 40.3386 45.9268 44.8981C45.9268 49.4504 43.6115 53.316 40.3948 54.6993C40.0349 55.0548 39.3449 55.2476 38.179 55.2476C37.8085 55.2476 37.4425 55.2282 37.082 55.1902C36.8548 55.1664 36.6299 55.1354 36.4074 55.0972L36.3924 55.0939C31.5302 54.2475 27.8336 50.0065 27.8336 44.9022C27.8336 39.8566 31.4457 35.6546 36.2252 34.741L36.2788 34.7281C36.8429 34.6239 37.423 34.5655 38.0151 34.5569L38.0377 34.5577C38.0847 34.5571 38.1318 34.5568 38.179 34.5568C39.3286 34.5568 40.0156 34.7443 40.3796 35.0904ZM53.3703 44.9028C53.3703 39.2785 57.8584 34.7025 63.4485 34.5608V55.2448C57.8584 55.1031 53.3703 50.5271 53.3703 44.9028Z" fill="url(#paint0_linear)"/>
</g>
<defs>
<linearGradient id="paint0_linear" x1="19.5078" y1="80.4225" x2="95.2465" y2="90.8067" gradientUnits="userSpaceOnUse">
<stop stop-color="#F0C9D1"/>
<stop offset="0.75864" stop-color="#4E79C0"/>
</linearGradient>
<clipPath id="clip0">
<rect x="0.476562" y="0.0065918" width="174.129" height="63.4189" fill="white"/>
</clipPath>
</defs>
</svg>
