<svg width="241" height="56" viewBox="0 0 241 56" fill="none" xmlns="http://www.w3.org/2000/svg">
<g style="mix-blend-mode:multiply">
<g style="mix-blend-mode:multiply">
<path fill-rule="evenodd" clip-rule="evenodd" d="M26.7349 29.7359L36.4154 39.4163L37.9322 37.8995L28.2516 28.2191L37.9264 18.5445L36.4096 17.0277L26.7349 26.7023L17.0592 17.0268L15.5424 18.5436L25.2181 28.2191L15.5365 37.9005L17.0533 39.4173L26.7349 29.7359Z" fill="#4F6FC1"/>
</g>
<g style="mix-blend-mode:multiply">
<g style="mix-blend-mode:multiply">
<path d="M26.7332 53.0177C40.4275 53.0177 51.5289 41.9163 51.5289 28.222C51.5289 14.5277 40.4275 3.4263 26.7332 3.4263C13.0389 3.4263 1.9375 14.5277 1.9375 28.222C1.9375 41.9163 13.0389 53.0177 26.7332 53.0177Z" stroke="#4F6FC1" stroke-width="2.14503"/>
</g>
</g>
</g>
<g style="mix-blend-mode:multiply">
<g style="mix-blend-mode:multiply">
<path d="M72.4146 20.407C73.3686 20.947 74.4306 21.217 75.5826 21.217C76.7346 21.217 77.7786 20.947 78.7506 20.407C79.7226 19.867 80.4786 19.129 81.0545 18.193C81.6305 17.257 81.9185 16.213 81.9185 15.061C81.9185 13.927 81.6305 12.883 81.0545 11.947C80.4786 11.011 79.7226 10.255 78.7506 9.715C77.7786 9.175 76.7346 8.905 75.5826 8.905C74.4306 8.905 73.3686 9.175 72.4146 9.715C71.4426 10.255 70.6866 11.011 70.1286 11.947C69.5526 12.883 69.2826 13.927 69.2826 15.061C69.2826 16.213 69.5526 17.257 70.1286 18.193C70.6866 19.129 71.4426 19.867 72.4146 20.407ZM77.5446 18.481C76.9686 18.805 76.3206 18.967 75.6006 18.967C74.8626 18.967 74.2146 18.805 73.6386 18.481C73.0626 18.157 72.5946 17.689 72.2706 17.095C71.9466 16.501 71.7846 15.817 71.7846 15.061C71.7846 14.305 71.9466 13.639 72.2706 13.045C72.5946 12.451 73.0626 11.983 73.6386 11.659C74.2146 11.335 74.8626 11.155 75.6006 11.155C76.3206 11.155 76.9686 11.335 77.5446 11.659C78.1206 12.001 78.5886 12.469 78.9126 13.063C79.2366 13.657 79.4166 14.323 79.4166 15.061C79.4166 15.817 79.2366 16.501 78.9126 17.095C78.5886 17.689 78.1206 18.157 77.5446 18.481Z" fill="#4F6FC1"/>
</g>
<g style="mix-blend-mode:multiply">
<path d="M83.9765 9.121V21.001H86.4065V16.807H88.4405C89.2685 16.807 90.0065 16.645 90.6545 16.321C91.3025 15.997 91.8065 15.547 92.1665 14.971C92.5265 14.395 92.7245 13.711 92.7245 12.955C92.7245 12.199 92.5265 11.533 92.1665 10.957C91.8065 10.381 91.3025 9.931 90.6545 9.607C90.0065 9.283 89.2685 9.121 88.4405 9.121H83.9765ZM88.4405 14.683H86.4065V11.263H88.4405C88.9805 11.263 89.4305 11.425 89.7545 11.731C90.0785 12.055 90.2405 12.451 90.2405 12.955C90.2405 13.477 90.0785 13.891 89.7545 14.215C89.4305 14.539 88.9985 14.683 88.4405 14.683Z" fill="#4F6FC1"/>
</g>
<g style="mix-blend-mode:multiply">
<path d="M97.3455 11.317V21.001H99.7755V11.317H103.592V9.121H93.5475V11.317H97.3455Z" fill="#4F6FC1"/>
</g>
<g style="mix-blend-mode:multiply">
<path d="M107.413 20.407C108.367 20.947 109.429 21.217 110.581 21.217C111.733 21.217 112.777 20.947 113.749 20.407C114.721 19.867 115.477 19.129 116.053 18.193C116.629 17.257 116.917 16.213 116.917 15.061C116.917 13.927 116.629 12.883 116.053 11.947C115.477 11.011 114.721 10.255 113.749 9.715C112.777 9.175 111.733 8.905 110.581 8.905C109.429 8.905 108.367 9.175 107.413 9.715C106.441 10.255 105.685 11.011 105.127 11.947C104.551 12.883 104.281 13.927 104.281 15.061C104.281 16.213 104.551 17.257 105.127 18.193C105.685 19.129 106.441 19.867 107.413 20.407ZM112.543 18.481C111.967 18.805 111.319 18.967 110.599 18.967C109.861 18.967 109.213 18.805 108.637 18.481C108.061 18.157 107.593 17.689 107.269 17.095C106.945 16.501 106.783 15.817 106.783 15.061C106.783 14.305 106.945 13.639 107.269 13.045C107.593 12.451 108.061 11.983 108.637 11.659C109.213 11.335 109.861 11.155 110.599 11.155C111.319 11.155 111.967 11.335 112.543 11.659C113.119 12.001 113.587 12.469 113.911 13.063C114.235 13.657 114.415 14.323 114.415 15.061C114.415 15.817 114.235 16.501 113.911 17.095C113.587 17.689 113.119 18.157 112.543 18.481Z" fill="#4F6FC1"/>
</g>
<g style="mix-blend-mode:multiply">
<path d="M118.975 9.121V21.001H121.405V11.317H126.481V21.001H128.911V9.121H118.975Z" fill="#4F6FC1"/>
</g>
<g style="mix-blend-mode:multiply">
<path d="M131.631 9.121V21.001H139.839V18.805H134.061V15.799H138.147V13.729H134.061V11.317H139.623V9.121H131.631Z" fill="#4F6FC1"/>
</g>
<g style="mix-blend-mode:multiply">
<path d="M153.127 18.805H151.543V9.121H143.281V11.083C143.281 13.315 143.155 15.043 142.939 16.303C142.705 17.563 142.327 18.391 141.823 18.805H140.869V23.539H143.299V21.001H150.697V23.539H153.127V18.805ZM145.261 15.925C145.441 14.701 145.531 13.153 145.567 11.317H149.113V18.805H144.469C144.829 18.121 145.081 17.149 145.261 15.925Z" fill="#4F6FC1"/>
</g>
<g style="mix-blend-mode:multiply">
<path d="M165.11 8.905H164.3L157.352 16.411V9.121H154.922V21.217H155.714L162.68 13.639V21.001H165.11V8.905Z" fill="#4F6FC1"/>
</g>
<g style="mix-blend-mode:multiply">
<path d="M176.95 9.121H174.52V14.467C173.944 14.719 173.242 14.827 172.45 14.827C171.514 14.827 170.83 14.611 170.398 14.161C169.966 13.729 169.75 13.045 169.75 12.109V9.121H167.32V12.343C167.32 13.873 167.734 15.043 168.562 15.835C169.39 16.645 170.56 17.041 172.054 17.041C172.954 17.041 173.782 16.915 174.52 16.627V21.001H176.95V9.121Z" fill="#4F6FC1"/>
</g>
<g style="mix-blend-mode:multiply">
<path d="M179.69 9.121V21.001H187.898V18.805H182.12V15.799H186.206V13.729H182.12V11.317H187.682V9.121H179.69Z" fill="#4F6FC1"/>
</g>
<g style="mix-blend-mode:multiply">
<path d="M192.087 20.407C193.059 20.947 194.121 21.217 195.291 21.217C196.425 21.217 197.451 20.965 198.387 20.443C199.305 19.921 200.025 19.201 200.547 18.265L198.711 16.969C197.865 18.301 196.731 18.967 195.309 18.967C194.571 18.967 193.905 18.805 193.329 18.481C192.753 18.157 192.285 17.689 191.961 17.095C191.637 16.519 191.475 15.835 191.475 15.079C191.475 14.323 191.637 13.657 191.961 13.063C192.285 12.469 192.753 12.001 193.329 11.659C193.905 11.335 194.571 11.155 195.309 11.155C196.731 11.155 197.865 11.821 198.711 13.153L200.547 11.857C200.007 10.939 199.287 10.219 198.369 9.697C197.451 9.175 196.425 8.905 195.309 8.905C194.139 8.905 193.076 9.175 192.104 9.715C191.132 10.255 190.377 11.011 189.819 11.947C189.243 12.883 188.973 13.927 188.973 15.061C188.973 16.213 189.243 17.257 189.801 18.193C190.359 19.129 191.115 19.867 192.087 20.407Z" fill="#4F6FC1"/>
</g>
<g style="mix-blend-mode:multiply">
<path d="M210.135 21.001H213.07L207.921 14.719L212.475 9.121H209.577L205.042 14.629V9.121H202.611V21.001H205.042V14.809L210.135 21.001Z" fill="#4F6FC1"/>
</g>
<g style="mix-blend-mode:multiply">
<path d="M221.671 19.453L222.337 21.001H224.947L219.656 8.905H218.846L213.536 21.001H216.145L216.811 19.453H221.671ZM219.242 13.441L220.826 17.455H217.658L219.242 13.441Z" fill="#4F6FC1"/>
</g>
<g style="mix-blend-mode:multiply">
<path d="M235.211 9.121H231.017C230.117 9.121 229.307 9.301 228.623 9.625C227.939 9.949 227.399 10.417 227.021 11.011C226.625 11.623 226.445 12.307 226.445 13.081C226.445 13.891 226.661 14.611 227.093 15.223C227.525 15.853 228.137 16.321 228.893 16.645L225.851 21.001H228.461L231.233 17.059H232.781V21.001H235.211V9.121ZM232.781 11.263V14.917H230.945C230.333 14.917 229.847 14.755 229.487 14.431C229.109 14.107 228.929 13.657 228.929 13.099C228.929 12.559 229.109 12.109 229.487 11.767C229.847 11.443 230.333 11.263 230.945 11.263H232.781Z" fill="#4F6FC1"/>
</g>
<g style="mix-blend-mode:multiply">
<path d="M69.9666 33.121V45.001H72.3966V35.317H77.4726V45.001H79.9026V33.121H69.9666Z" fill="#4F6FC1"/>
</g>
<g style="mix-blend-mode:multiply">
<path d="M85.0705 44.407C86.0245 44.947 87.0865 45.217 88.2385 45.217C89.3905 45.217 90.4345 44.947 91.4065 44.407C92.3785 43.867 93.1345 43.129 93.7105 42.193C94.2865 41.257 94.5745 40.213 94.5745 39.061C94.5745 37.927 94.2865 36.883 93.7105 35.947C93.1345 35.011 92.3785 34.255 91.4065 33.715C90.4345 33.175 89.3905 32.905 88.2385 32.905C87.0865 32.905 86.0245 33.175 85.0705 33.715C84.0985 34.255 83.3425 35.011 82.7845 35.947C82.2085 36.883 81.9385 37.927 81.9385 39.061C81.9385 40.213 82.2085 41.257 82.7845 42.193C83.3425 43.129 84.0985 43.867 85.0705 44.407ZM90.2005 42.481C89.6245 42.805 88.9765 42.967 88.2565 42.967C87.5185 42.967 86.8705 42.805 86.2945 42.481C85.7185 42.157 85.2505 41.689 84.9265 41.095C84.6025 40.501 84.4405 39.817 84.4405 39.061C84.4405 38.305 84.6025 37.639 84.9265 37.045C85.2505 36.451 85.7185 35.983 86.2945 35.659C86.8705 35.335 87.5185 35.155 88.2565 35.155C88.9765 35.155 89.6245 35.335 90.2005 35.659C90.7765 36.001 91.2445 36.469 91.5685 37.063C91.8925 37.657 92.0725 38.323 92.0725 39.061C92.0725 39.817 91.8925 40.501 91.5685 41.095C91.2445 41.689 90.7765 42.157 90.2005 42.481Z" fill="#4F6FC1"/>
</g>
<g style="mix-blend-mode:multiply">
<path d="M107.512 42.805H105.928V33.121H97.6655V35.083C97.6655 37.315 97.5395 39.043 97.3235 40.303C97.0895 41.563 96.7115 42.391 96.2075 42.805H95.2535V47.539H97.6835V45.001H105.082V47.539H107.512V42.805ZM99.6455 39.925C99.8255 38.701 99.9155 37.153 99.9515 35.317H103.498V42.805H98.8535C99.2135 42.121 99.4655 41.149 99.6455 39.925Z" fill="#4F6FC1"/>
</g>
<g style="mix-blend-mode:multiply">
<path d="M119.104 33.121H116.512L113.723 39.583L110.699 33.121H107.98L112.408 42.229C112.012 42.733 111.454 42.985 110.734 42.985C110.392 42.985 110.069 42.967 109.781 42.931V45.001C110.213 45.145 110.662 45.199 111.13 45.199C111.814 45.199 112.408 45.091 112.876 44.839C113.344 44.587 113.722 44.245 114.046 43.795C114.37 43.363 114.695 42.769 115.055 42.013L119.104 33.121Z" fill="#4F6FC1"/>
</g>
<g style="mix-blend-mode:multiply">
<path d="M120.715 33.121V45.001H135.817V33.121H133.387V42.805H129.481V33.121H127.051V42.805H123.145V33.121H120.715Z" fill="#4F6FC1"/>
</g>
<g style="mix-blend-mode:multiply">
<path d="M146.063 45.001H148.997L143.849 38.719L148.403 33.121H145.505L140.969 38.629V33.121H138.539V45.001H140.969V38.809L146.063 45.001Z" fill="#4F6FC1"/>
</g>
<g style="mix-blend-mode:multiply">
<path d="M157.6 43.453L158.266 45.001H160.876L155.584 32.905H154.774L149.464 45.001H152.074L152.74 43.453H157.6ZM155.17 37.441L156.754 41.455H153.586L155.17 37.441Z" fill="#4F6FC1"/>
</g>
</g>
</svg>
