<svg width="274" height="89" viewBox="0 0 274 89" fill="none" xmlns="http://www.w3.org/2000/svg">
<path d="M186.913 87.5892L186.913 88.0892L187.121 88.0892L187.267 87.9428L186.913 87.5892ZM273.892 3.27785C273.892 1.80509 272.698 0.611191 271.225 0.611191C269.752 0.611191 268.558 1.80509 268.558 3.27785C268.558 4.75062 269.752 5.94452 271.225 5.94452C272.698 5.94452 273.892 4.75062 273.892 3.27785ZM186.913 87.0892L6.10328e-05 87.0892L6.10375e-05 88.0892L186.913 88.0892L186.913 87.0892ZM187.267 87.9428L271.578 3.63141L270.871 2.9243L186.56 87.2357L187.267 87.9428Z" fill="#211D1E" fill-opacity="0.5"/>
</svg>
