<svg width="27" height="25" viewbox="0 0 27 25" fill="none" xmlns="http://www.w3.org/2000/svg">
<g clip-path="url(#clip0)">
<path d="M21.5371 15.6059C21.0048 15.0943 20.3628 14.8208 19.6823 14.8208C19.0074 14.8208 18.3598 15.0892 17.8056 15.6008L16.0716 17.1964C15.9289 17.1255 15.7862 17.0596 15.649 16.9938C15.4515 16.9026 15.2649 16.8165 15.1058 16.7253C13.4815 15.773 12.0053 14.532 10.5896 12.9263C9.90364 12.126 9.4427 11.4523 9.10796 10.7685C9.55793 10.3886 9.97498 9.99346 10.3811 9.61356C10.5347 9.47173 10.6884 9.32484 10.842 9.18301C11.9944 8.11928 11.9944 6.7415 10.842 5.67777L9.34392 4.29493C9.17381 4.1379 8.99821 3.97581 8.83359 3.81372C8.50434 3.49967 8.15863 3.17548 7.80194 2.87156C7.26966 2.38529 6.63311 2.12695 5.96364 2.12695C5.29416 2.12695 4.64664 2.38529 4.09789 2.87156C4.09241 2.87663 4.09241 2.87663 4.08692 2.88169L2.22118 4.61911C1.51878 5.26748 1.11819 6.05768 1.03039 6.97451C0.898693 8.45359 1.37062 9.83137 1.73279 10.733C2.62176 12.9466 3.94973 14.998 5.93071 17.1964C8.33423 19.8456 11.2261 21.9376 14.5296 23.4116C15.7917 23.9637 17.4764 24.6172 19.3586 24.7286C19.4738 24.7337 19.5945 24.7387 19.7043 24.7387C20.9719 24.7387 22.0365 24.3183 22.8706 23.4825C22.876 23.4724 22.887 23.4673 22.8925 23.4572C23.1779 23.1381 23.5071 22.8494 23.8528 22.5404C24.0888 22.3327 24.3302 22.1149 24.5662 21.8869C25.1094 21.3652 25.3948 20.7574 25.3948 20.1343C25.3948 19.5062 25.104 18.9034 24.5497 18.3969L21.5371 15.6059ZM23.5016 20.9397C23.4961 20.9397 23.4961 20.9448 23.5016 20.9397C23.2876 21.1525 23.0681 21.3449 22.8321 21.5577C22.4755 21.8717 22.1133 22.201 21.7731 22.5708C21.2188 23.1178 20.5658 23.3762 19.7098 23.3762C19.6275 23.3762 19.5397 23.3762 19.4573 23.3711C17.8276 23.2748 16.313 22.6873 15.1771 22.1858C12.0712 20.7979 9.34392 18.8275 7.07759 16.3302C5.20636 14.2484 3.95522 12.3235 3.12661 10.2569C2.61627 8.99559 2.4297 8.01291 2.51201 7.08595C2.56689 6.4933 2.81382 6.00196 3.26928 5.58153L5.14051 3.85424C5.4094 3.62124 5.69475 3.4946 5.97461 3.4946C6.32032 3.4946 6.60018 3.68709 6.77578 3.84918C6.78127 3.85424 6.78676 3.85931 6.79224 3.86437C7.12698 4.1531 7.44525 4.45196 7.77999 4.77107C7.9501 4.93317 8.1257 5.09526 8.3013 5.26241L9.79938 6.64526C10.3811 7.18219 10.3811 7.67859 9.79938 8.21552C9.64025 8.36242 9.4866 8.50931 9.32746 8.65114C8.86651 9.08676 8.42751 9.49199 7.9501 9.88709C7.93913 9.89722 7.92815 9.90229 7.92267 9.91242C7.45074 10.348 7.53854 10.7735 7.63732 11.0623C7.6428 11.0775 7.64829 11.0926 7.65378 11.1078C8.04339 11.9791 8.59214 12.7997 9.42623 13.7773L9.43172 13.7824C10.9463 15.5046 12.5431 16.8469 14.3046 17.8752C14.5296 18.0069 14.7601 18.1132 14.9796 18.2146C15.1771 18.3057 15.3637 18.3918 15.5228 18.483C15.5448 18.4931 15.5667 18.5083 15.5887 18.5185C15.7752 18.6046 15.9508 18.6451 16.1319 18.6451C16.5874 18.6451 16.8727 18.3817 16.966 18.2956L18.8427 16.5632C19.0293 16.391 19.3256 16.1833 19.6714 16.1833C20.0116 16.1833 20.2914 16.3809 20.4616 16.5531C20.467 16.5582 20.467 16.5582 20.4725 16.5632L23.4961 19.3543C24.0613 19.8709 24.0613 20.4028 23.5016 20.9397Z" fill="#4F6FC1"/>
<path d="M15.0395 6.44761C16.4772 6.67048 17.7832 7.29859 18.8258 8.26101C19.8684 9.22343 20.5434 10.429 20.7903 11.7561C20.8507 12.0904 21.1635 12.3234 21.5202 12.3234C21.5641 12.3234 21.6025 12.3184 21.6464 12.3133C22.0524 12.2525 22.3213 11.8979 22.2555 11.5231C21.9591 9.91738 21.136 8.45349 19.8794 7.29352C18.6228 6.13355 17.0369 5.37375 15.2974 5.10022C14.8913 5.03944 14.5127 5.28764 14.4413 5.65741C14.37 6.02718 14.6334 6.38682 15.0395 6.44761Z" fill="#4F6FC1"/>
<path d="M26.959 11.3257C26.4706 8.68156 25.1206 6.27551 23.0464 4.3608C20.9721 2.44609 18.3656 1.20001 15.5011 0.749195C15.1005 0.683345 14.7219 0.936613 14.6505 1.30638C14.5847 1.68122 14.8536 2.03073 15.2596 2.09658C17.8168 2.49675 20.149 3.61619 22.0038 5.32322C23.8585 7.03531 25.0658 9.18809 25.4993 11.5486C25.5596 11.8829 25.8724 12.1159 26.2291 12.1159C26.273 12.1159 26.3114 12.1108 26.3553 12.1057C26.7559 12.05 27.0303 11.6954 26.959 11.3257Z" fill="#4F6FC1"/>
</g>
<defs>
<clipPath id="clip0">
<rect x="0.988281" y="0.73877" width="26" height="24" fill="white"/>
</clipPath>
</defs>
</svg>
