<svg width="680" height="455" viewBox="0 0 680 455" fill="none" xmlns="http://www.w3.org/2000/svg">
<g clip-path="url(#clip0)">
<path opacity="0.51" d="M354.3 223.9C371.9 231.1 380.3 246.9 383.3 256.9C384.3 256.9 385.4 257.4 386.3 258.3C391.9 264.1 402 265.9 409.7 264.5C416.4 263.3 419.8 257.7 421.8 251.7C419.3 241.3 418.3 224.4 426.9 209.4C429.2 206.7 422.7 194.5 386.4 200.9C351.4 207.2 345.5 220.3 354.3 223.9Z" fill="url(#paint0_linear)"/>
<path opacity="0.51" d="M354.3 223.9C371.9 231.1 380.3 246.9 383.3 256.9C384.3 256.9 385.4 257.4 386.3 258.3C391.9 264.1 402 265.9 409.7 264.5C416.4 263.3 419.8 257.7 421.8 251.7C419.3 241.3 418.3 224.4 426.9 209.4C429.2 206.7 422.7 194.5 386.4 200.9C351.4 207.2 345.5 220.3 354.3 223.9Z" fill="url(#paint1_linear)"/>
<path opacity="0.51" d="M673.9 232.3C671.4 228.8 664.8 219.1 633.7 215.3C608.2 212.2 552.7 217.7 528.5 222.2C506.8 227.4 454.1 234.9 429.6 257.9C426.3 265.4 421 271.8 412.3 273.6C401.4 275.9 389.5 270.4 379.7 265C379.7 265 379.4 264.9 379.2 264.8C378.9 264.7 378.5 264.6 378.1 264.5C309 248.7 270.6 248.4 233.8 251.4C214.3 253 185.2 257.9 160.3 272.5C160.3 272.5 120.1 290.5 107.9 344C101.8 364.3 106.2 383.2 109.7 387.6C125.8 392.3 143.3 389.9 166 376.4C202.3 354.8 259.9 333.9 259.9 333.9C259.9 333.9 315.1 318.8 361.7 307.4C402.1 298.1 432.8 293.8 459.9 289.9C486.9 285.9 522.4 282.9 585.9 282.6C654.9 282.3 659.4 281.5 668 274.2C674.3 268.8 680.6 241.7 673.9 232.3Z" fill="url(#paint2_linear)"/>
<path opacity="0.35" d="M139.4 237.1C139.4 237.1 127.3 241.8 131 254.5C134.7 267.2 149.4 266.7 164.2 260C202.5 242.7 286.3 242.4 318.4 245.8C349.8 249.1 351.7 229.3 329.2 223.2C284.6 210.9 199.1 209.6 139.4 237.1Z" fill="#9CE6D4"/>
<path opacity="0.35" d="M608.5 161.7C626.7 162.4 645.7 179.1 645.3 191.2C644.9 203.3 627.3 207 611.9 203.4C605 201.8 588.8 201.1 579.2 202C548.6 204.9 536.4 207.5 527.5 209.6C480.3 220.9 466.2 228.7 458.5 233C449.9 237.9 431.1 235.4 441.5 217.4C465.4 175.7 543.2 159.1 608.5 161.7Z" fill="#9CE6D4"/>
<path d="M102 77.9998C86.8 77.9998 71.2 80.1998 71.4 92.3998C71.7 112 102.4 112.5 119.2 111.5C144.7 110 214.2 96.9998 221.8 95.5998C230.9 93.8998 237 80.1998 218.8 77.6998C199.1 74.9998 117.3 77.8998 102 77.9998Z" fill="#DAF3F9"/>
<path d="M479.9 14.6002C495.5 7.70023 512.7 5.10023 518.5 20.2002C526.2 40.4002 493.6 50.1002 478.9 52.7002C456.7 56.6002 407 64.3002 397 63.5002C387 62.7002 373.4 52.3002 388.8 47.5002C404 42.7002 468.1 19.8002 479.9 14.6002Z" fill="#DAF3F9"/>
<path opacity="0.42" d="M70 298.4C70 298.4 85.3 263.8 114.3 243.4C133.8 229.7 153.1 225.5 153.1 225.5L186.9 214.9L195.6 211.6C195.6 211.6 150.4 137.3 148 130.5C160.3 126.6 184.8 127.7 198.9 131.7C186.5 124.8 153.7 116.9 113.3 116.9C66.5 116.9 49 144.7 40.1 164.7C29.6 188.5 29.6 202.4 29.6 202.4L70 298.4Z" fill="#E4C5FF"/>
<path opacity="0.42" d="M448.8 84.4998C448.8 84.4998 453.3 61.4998 499.5 55.0998C556.6 47.0998 574.7 61.4998 574.7 61.4998L579.4 78.6998L580.7 91.5998L582.8 99.9998L588.2 113.1L604.9 137.8L609.7 143.7L608.4 144.6C608.4 144.6 562.2 142.3 532.5 146.7C528.1 141.6 515.6 127.4 504.4 109.1C498.2 99.0998 492.8 87.5998 488.5 76.0998C484.2 64.3998 458.2 75.3998 448.8 84.4998Z" fill="#E4C5FF"/>
<path d="M447.3 92.8C447.3 92.8 447.7 87.9 449.7 83.6C450.4 82.8 451.1 82.3 452 81.5C455.6 78.5 465.9 72.3 473.6 70.8C481.4 69.3 487.3 69.8 489.4 75.2C492.1 82.2 498.1 97.3 505.5 108.6C512.9 120 526.6 138.2 533.3 145.7C525.4 146.3 498.8 151.6 467.9 130.2C455.3 121.3 449.9 110.8 447.9 103.2C446.4 97.1 447.3 92.8 447.3 92.8Z" fill="#D1B7E9"/>
<path d="M170.8 128C162.9 128 154.7 128.5 148.1 130.6C150.4 137.7 189.4 201.8 195.2 211.6C201.8 207.8 230.5 201.7 231.3 171.2C230.3 147.9 205.6 134.7 197.8 131.5C193.1 129.8 180.1 127.9 170.8 128Z" fill="#D1B7E9"/>
<path opacity="0.24" d="M672.2 317.6C671.2 321.3 669.8 324.7 668.8 327.9C661.2 352.6 657.2 344.5 567.8 345.4C528.3 345.8 456 346.3 352.7 370.8C262.3 392.2 201.5 420.6 201.5 420.6C184.6 428.1 149.2 454.8 118.2 452C79.7 449.2 67.2 411.8 67.2 411.8L47.5 364.8C47.5 364.8 3.59998 256.3 1.79998 241.2C0.199983 228 -0.500017 212.7 9.49998 201.4C4.89998 215.7 11.2 231.4 20.2 261.9L79.7 409.2C79.7 409.2 90.5 435.1 122.5 437.5C154.4 439.9 191.1 410.3 205 405.9C219 401.4 275.7 371 398.8 348.1C521.9 325.3 623.6 333.1 623.6 333.1C623.6 333.1 656.7 335.8 667.5 325.5L672.2 317.6Z" fill="#8CB5E9"/>
<path opacity="0.44" d="M658.7 279.9C641.6 283.4 595.6 280.3 518.9 283.8C437.2 287.6 338.5 311.1 278.4 328C218.3 344.9 162.9 377.8 160 379.7C131 398.4 86.7 388.4 76.4 352.4C76.4 352.4 33.7 251.7 14.8 196.6C-0.800027 207.9 -0.200026 226 1.69997 241.2C3.49997 256.2 47.4 364.8 47.4 364.8L67.1 411.8C67.1 411.8 79.6 449.2 118.1 452C149.1 454.8 184.5 428.1 201.4 420.6C201.4 420.6 262.3 392.2 352.6 370.8C455.9 346.4 528.3 345.8 567.7 345.4C657 344.5 661.1 352.6 668.7 327.9C671.7 318 678.9 305.7 665.8 288.8C663.7 285.9 661.2 282.9 658.7 279.9Z" fill="#8CB5E9"/>
<path opacity="0.67" d="M30.5 201.1C30.5 201.1 32.3 170.8 55.3 140.5C64.5 128.5 81.2 119 104.8 117.6C104.8 117.6 123.5 115 160.5 120.7C187.5 124.9 195.3 129.5 200.1 132.4C192.3 127.4 158 125.1 148.6 130.3C142.5 133.7 135.6 145 130.5 162.6C36.5 167.6 30.5 201.1 30.5 201.1Z" fill="url(#paint3_linear)"/>
<path opacity="0.34" d="M581.6 90.6999L580.3 77.7999L575.6 60.5999C575.6 60.5999 557.5 46.1999 500.4 54.1999C454.2 60.6999 449.7 83.5999 449.7 83.5999C459.1 74.4999 485.1 63.3999 489.4 75.1999C492.2 82.5999 495.4 90.0999 499.1 97.1999C499.6 96.7999 500.1 96.5999 500.8 96.3999C501.7 96.1999 502.6 95.8999 503.4 95.6999C503.9 95.2999 504.5 94.9999 505.3 94.7999C509.2 93.8999 513.1 93.1999 516.9 92.2999C517.1 92.2999 517.2 92.1999 517.4 92.1999C522.7 90.9999 528.1 89.9999 533.4 89.2999C534 89.1999 534.5 89.1999 534.9 89.2999C537.9 88.7999 540.9 88.3999 543.9 88.2999C556.7 87.7999 569.6 88.6999 581.7 92.4999L581.6 90.6999Z" fill="url(#paint4_linear)"/>
<path opacity="0.22" d="M453.3 133.7C454.8 165.2 410.6 198.4 363.2 201.1C283.7 205.7 224 172.2 224 132.1C224 102 256.8 76.6 319 68.4C403 57.4 451.2 90.5 453.3 133.7Z" fill="#EA78B4"/>
<path d="M15.6 197.5C0.500003 208.8 1.2 226.7 3 241.7C4.8 256.7 48.7 365.3 48.7 365.3L68.4 412.3C68.4 412.3 80.9 449.7 119.4 452.5C150.4 455.3 185.8 428.6 202.7 421.1C202.7 421.1 263.6 392.7 353.9 371.3C457.2 346.9 529.6 346.3 569 345.9C658.3 345 662.4 353.1 670 328.4C673 318.5 680.2 306.2 667.1 289.3C664.7 286.2 662.1 283 659.4 279.7" stroke="#C8C8C8" stroke-width="2" stroke-miterlimit="10"/>
<path d="M9.89999 200.4C-3.00001 223 77.2 400.4 77.2 400.4C77.2 400.4 87.6 434.1 122.4 435.9C152.7 438.7 191.3 410.8 207.9 403.5C207.9 403.5 265.1 377.4 353.5 356.5C454.6 332.6 525.3 331.5 563.9 331.1C651.3 330.3 666.2 338 673.6 313.8" stroke="#C8C8C8" stroke-width="0.9921" stroke-miterlimit="10"/>
<path d="M76.5 352.4C86.8 388.3 131.1 398.3 160.1 379.7C162.9 377.8 218.3 344.9 278.5 328C338.7 311.1 437.3 287.6 519 283.8C600.7 280 647.7 283.8 661.8 279.1C701.8 261 658.1 144.1 610.1 142.8C589.1 108.9 586.9 118 581 84.5C575.6 52.7 567.1 30.2 541.6 7.40001C529.4 1.80001 517.2 -0.0999923 505 1.80001C422.9 21.3 383.2 42.7 274.7 61C230.5 65.7 163.9 70.4 145.1 70.4C126.3 70.4 60.6 65.7 37.1 77C1.19997 95.7 7.09998 137.7 6.09998 165.3C6.69998 170.9 9.99997 182.2 14.9 196.5C33.8 251.7 76.5 352.4 76.5 352.4Z" stroke="#C8C8C8" stroke-width="2.2677" stroke-miterlimit="10"/>
<path opacity="0.06" d="M217.6 152.8C217.4 152.4 217.1 152 216.8 151.6C217.1 152.8 217.5 154.1 217.8 155.1C217.8 154.3 217.7 153.6 217.6 152.8Z" fill="url(#paint5_linear)" stroke="#C8C8C8" stroke-width="2.8346" stroke-miterlimit="10"/>
<path d="M225.9 121.2C225.9 121.2 226 120.3 226.5 118.6" stroke="#C8C8C8" stroke-width="0.9921" stroke-miterlimit="10"/>
<path d="M228.5 113.7C235.1 100.2 257.4 72.8002 331.1 65.7002C382.6 61.3002 410.6 74.4002 420.7 80.5002" stroke="#C8C8C8" stroke-width="0.9921" stroke-miterlimit="10" stroke-dasharray="5.65 5.65"/>
<path d="M422.9 82C424.3 83 425 83.6 425 83.6" stroke="#C8C8C8" stroke-width="0.9921" stroke-miterlimit="10"/>
<path d="M265.3 182.3C265.3 182.3 266.1 182.7 267.7 183.5" stroke="#C8C8C8" stroke-width="0.9921" stroke-miterlimit="10"/>
<path d="M272.6 185.6C291.1 193.3 342.3 210.6 397.8 192.6C436.2 178.4 448.2 156.1 451.8 146.1" stroke="#C8C8C8" stroke-width="0.9921" stroke-miterlimit="10" stroke-dasharray="5.72 5.72"/>
<path d="M452.6 143.5C453.1 141.8 453.2 140.9 453.2 140.9" stroke="#C8C8C8" stroke-width="0.9921" stroke-miterlimit="10"/>
<path d="M422.4 253.8C422.2 253 422.1 252.1 421.9 251.2" stroke="#C8C8C8" stroke-width="0.9921" stroke-miterlimit="10"/>
<path d="M421.2 245.3C420.4 234.4 421.4 220.8 424.9 213.4" stroke="#C8C8C8" stroke-width="0.9921" stroke-miterlimit="10" stroke-dasharray="6.27 6.27"/>
<path d="M426.4 210.8C427 210 427.6 209.4 428.2 208.9" stroke="#C8C8C8" stroke-width="0.9921" stroke-miterlimit="10"/>
<path d="M676.1 244.3C676.2 243.4 676.3 242.5 676.3 241.7" stroke="#C8C8C8" stroke-width="0.9921" stroke-miterlimit="10"/>
<path d="M675.7 236.4C662.5 192.2 465.5 225.7 433 255.5" stroke="#C8C8C8" stroke-width="0.9921" stroke-miterlimit="10" stroke-dasharray="5.75 5.75"/>
<path d="M431.1 257.4C430.5 258.1 430 258.8 429.6 259.6" stroke="#C8C8C8" stroke-width="0.9921" stroke-miterlimit="10"/>
<path d="M383.7 259.6C379.8 247.6 370.9 229.4 352.1 223.5" stroke="#C8C8C8" stroke-width="0.9921" stroke-miterlimit="10" stroke-dasharray="5.67 5.67"/>
<path d="M110.9 387C104.1 378.3 105.5 369.3 105.5 369.3C111.3 224.1 297 243.9 382.9 266.8" stroke="#C8C8C8" stroke-width="0.9921" stroke-miterlimit="10" stroke-dasharray="5.67 5.67"/>
<path d="M582.8 94.8998C582.8 94.8998 582 94.3998 580.4 93.7998" stroke="#C8C8C8" stroke-width="0.9921" stroke-miterlimit="10"/>
<path d="M575.4 92.0999C564.7 89.0999 542 85.9999 504.4 95.3999" stroke="#C8C8C8" stroke-width="0.9921" stroke-miterlimit="10" stroke-dasharray="5.66 5.66"/>
<path d="M501.8 96.1001C500.9 96.3001 500.1 96.6001 499.2 96.8001" stroke="#C8C8C8" stroke-width="0.9921" stroke-miterlimit="10"/>
<path d="M193.9 129.6C193.9 129.6 192.9 129.5 191.3 129.3" stroke="#C8C8C8" stroke-width="0.9921" stroke-miterlimit="10"/>
<path d="M185.9 128.7C175.3 127.7 156.9 126.7 147.8 130.6C141.2 134.4 133.7 150.3 130.9 162.6C136.2 173.9 153.6 205.1 160.2 217" stroke="#C8C8C8" stroke-width="0.9921" stroke-miterlimit="10" stroke-dasharray="5.72 5.72"/>
<path d="M161.6 219.3C162.4 220.8 162.9 221.6 162.9 221.6" stroke="#C8C8C8" stroke-width="0.9921" stroke-miterlimit="10"/>
<path d="M130.4 162.6C130.4 162.6 129.5 162.6 127.7 162.7" stroke="#C8C8C8" stroke-width="0.9921" stroke-miterlimit="10"/>
<path d="M122.2 163.1C102.2 164.6 51.1 170.7 33.3 195.5" stroke="#C8C8C8" stroke-width="0.9921" stroke-miterlimit="10" stroke-dasharray="5.91 5.91"/>
<path d="M31.8 197.8C31.3 198.6 30.9 199.3 30.5 200.1" stroke="#C8C8C8" stroke-width="0.9921" stroke-miterlimit="10"/>
<path opacity="0.02" d="M523.4 132.3C525.2 134.8 527.1 137.4 529.6 139.3C533.7 142.6 539.1 143.8 544.3 144C549.5 144.2 554.7 143.3 559.9 142.6C576 140.5 592.5 140.5 608.6 142.5C602.7 133.4 596.8 124.4 590.9 115.4C587.2 109.7 583.5 104 581.8 97.3999C581.5 96.0999 581.2 94.7999 580.3 93.7999C579.3 92.5999 577.6 92.2999 576.1 92.0999C561 89.5999 545.6 89.2999 530.4 91.1999C522.7 92.0999 515 93.5999 507.5 95.6999C504.9 96.3999 501.3 96.8999 501.3 100.1C501.3 102.7 506.1 107.6 507.6 109.8C512.7 117.4 518 124.9 523.4 132.3Z" fill="url(#paint6_linear)" stroke="#C8C8C8" stroke-width="2.8346" stroke-miterlimit="10"/>
<path d="M70.9 296.9C70.9 296.9 93.4 242.4 148.9 226.4C204.3 210.4 225 202.9 230.6 177.5C236.2 152.1 206.5 128.8 168.6 122C142.3 117.3 88.8 109.8 62.4 132.3C47.8 144.8 32.3 175.5 30.5 200.9L70.9 296.9Z" stroke="#9D9D9D" stroke-width="1.4173" stroke-miterlimit="10"/>
<path d="M610.1 142.8C610.1 142.8 569.7 140.9 527.4 145.6C485.1 150.3 441.9 120.2 447.6 90.0998C453.2 59.9998 488 55.2999 508.7 52.4999C529.4 49.6999 551.8 50.0999 575.3 59.2999" stroke="#9D9D9D" stroke-width="1.4173" stroke-miterlimit="10"/>
<path d="M168.6 110.6C177.326 110.6 184.4 103.526 184.4 94.8C184.4 86.0739 177.326 79 168.6 79C159.874 79 152.8 86.0739 152.8 94.8C152.8 103.526 159.874 110.6 168.6 110.6Z" stroke="#221D1E" stroke-width="0.7444"/>
<path d="M172.1 97.9998V96.6998H170.8V93.8998H169.3V96.6998H166.5L169.1 90.2998H167.6L164.6 97.4998V97.9998H169.2V99.5998H170.7V97.9998H172.1Z" fill="#221D1E"/>
<path d="M446.9 64.1C455.626 64.1 462.7 57.0261 462.7 48.3C462.7 39.5739 455.626 32.5 446.9 32.5C438.174 32.5 431.1 39.5739 431.1 48.3C431.1 57.0261 438.174 64.1 446.9 64.1Z" stroke="#221D1E" stroke-width="0.7444"/>
<path d="M450.4 51.4002V50.1002H449.1V47.3002H447.6V50.1002H444.8L447.4 43.7002H446L443 50.9002V51.3002H447.6V53.0002H449.1V51.4002H450.4Z" fill="#221D1E"/>
<path d="M358.8 157.2C367.526 157.2 374.6 150.126 374.6 141.4C374.6 132.674 367.526 125.6 358.8 125.6C350.074 125.6 343 132.674 343 141.4C343 150.126 350.074 157.2 358.8 157.2Z" stroke="#221D1E" stroke-width="0.7444"/>
<path d="M361 141.3C360.5 140.8 359.9 140.5 359.3 140.4L361.5 137.4V137H355.7V138.4H359.1L356.9 141.3V141.7H357.9C358.6 141.7 359.1 141.8 359.5 142.1C359.9 142.4 360.1 142.8 360.1 143.3C360.1 143.8 359.9 144.3 359.6 144.6C359.2 144.9 358.8 145.1 358.2 145.1C357.7 145.1 357.3 145 357 144.7C356.6 144.5 356.3 144.1 356.1 143.7L355.1 144.4C355.4 145 355.8 145.5 356.4 145.9C357 146.3 357.6 146.4 358.4 146.4C359 146.4 359.6 146.3 360.1 146C360.6 145.7 361 145.4 361.3 144.9C361.6 144.4 361.8 143.9 361.8 143.3C361.7 142.4 361.5 141.8 361 141.3Z" fill="#221D1E"/>
<path d="M207 180.4C215.726 180.4 222.8 173.326 222.8 164.6C222.8 155.874 215.726 148.8 207 148.8C198.274 148.8 191.2 155.874 191.2 164.6C191.2 173.326 198.274 180.4 207 180.4Z" stroke="#221D1E" stroke-width="0.7444"/>
<path d="M210.2 168.1H206.3L207.9 166.4C208.5 165.7 209 165.1 209.4 164.6C209.7 164.1 209.9 163.5 209.9 162.9C209.9 162.4 209.8 161.9 209.5 161.4C209.2 161 208.9 160.6 208.4 160.4C207.9 160.1 207.4 160 206.8 160C206.2 160 205.6 160.1 205.1 160.4C204.6 160.7 204.3 161.1 204 161.5C203.7 161.9 203.6 162.4 203.6 162.9C203.6 163.2 203.6 163.4 203.7 163.7H205.2C205.1 163.4 205.1 163.2 205.1 163C205.1 162.5 205.2 162.1 205.5 161.8C205.8 161.5 206.2 161.3 206.6 161.3C207.1 161.3 207.4 161.5 207.7 161.8C208 162.1 208.1 162.5 208.1 163C208.1 163.4 208 163.8 207.7 164.2C207.5 164.6 207.1 165 206.6 165.6L203.3 169.1V169.4H209.9V168.1H210.2Z" fill="#221D1E"/>
<path d="M435.7 330.2C444.426 330.2 451.5 323.126 451.5 314.4C451.5 305.674 444.426 298.6 435.7 298.6C426.974 298.6 419.9 305.674 419.9 314.4C419.9 323.126 426.974 330.2 435.7 330.2Z" stroke="#221D1E" stroke-width="0.7444"/>
<path d="M478.9 125.1C487.626 125.1 494.7 118.026 494.7 109.3C494.7 100.574 487.626 93.5 478.9 93.5C470.174 93.5 463.1 100.574 463.1 109.3C463.1 118.026 470.174 125.1 478.9 125.1Z" stroke="#221D1E" stroke-width="0.7444"/>
<path d="M482.1 112.8H478.2L479.8 111.1C480.4 110.4 480.9 109.8 481.3 109.3C481.6 108.8 481.8 108.2 481.8 107.6C481.8 107.1 481.7 106.6 481.4 106.1C481.1 105.7 480.8 105.3 480.3 105.1C479.8 104.9 479.3 104.7 478.7 104.7C478.1 104.7 477.5 104.8 477 105.1C476.5 105.4 476.2 105.8 475.9 106.2C475.6 106.6 475.5 107.1 475.5 107.6C475.5 107.9 475.5 108.1 475.6 108.4H477.1C477 108.1 477 107.9 477 107.7C477 107.2 477.1 106.8 477.4 106.5C477.7 106.2 478.1 106 478.5 106C479 106 479.3 106.2 479.6 106.5C479.9 106.8 480 107.2 480 107.7C480 108.1 479.9 108.5 479.6 108.9C479.4 109.3 479 109.7 478.5 110.3L475.2 113.8V114.1H481.8V112.8H482.1Z" fill="#221D1E"/>
<path d="M296.1 296.8C304.826 296.8 311.9 289.726 311.9 281C311.9 272.274 304.826 265.2 296.1 265.2C287.374 265.2 280.3 272.274 280.3 281C280.3 289.726 287.374 296.8 296.1 296.8Z" stroke="#221D1E" stroke-width="0.7444"/>
<path d="M297.7 280.1C297.2 279.8 296.7 279.7 296.2 279.7C296 279.7 295.9 279.7 295.8 279.7L298 276.5H296.2L293.9 279.8C293.6 280.3 293.3 280.6 293.2 280.9C293 281.2 292.9 281.4 292.8 281.8C292.7 282.1 292.6 282.4 292.6 282.8C292.6 283.4 292.7 284 293 284.5C293.3 285 293.7 285.4 294.2 285.6C294.7 285.8 295.3 286 295.8 286C296.4 286 296.9 285.9 297.4 285.6C297.9 285.3 298.3 284.9 298.6 284.5C298.9 284 299 283.5 299 282.9C299 282.3 298.9 281.8 298.6 281.3C298.5 280.7 298.1 280.4 297.7 280.1ZM297.2 284.1C296.8 284.5 296.4 284.6 295.9 284.6C295.4 284.6 294.9 284.4 294.6 284.1C294.2 283.7 294.1 283.3 294.1 282.8C294.1 282.3 294.3 281.8 294.6 281.5C294.9 281.1 295.4 281 295.9 281C296.4 281 296.8 281.2 297.2 281.5C297.5 281.8 297.7 282.3 297.7 282.8C297.7 283.3 297.5 283.8 297.2 284.1Z" fill="#221D1E"/>
<path d="M279.321 219.796C280.719 211.183 274.87 203.067 266.256 201.669C257.643 200.271 249.527 206.12 248.129 214.734C246.731 223.347 252.58 231.463 261.194 232.861C269.807 234.259 277.923 228.41 279.321 219.796Z" stroke="#221D1E" stroke-width="0.7444"/>
<path d="M519.173 193.926C522.512 185.864 518.684 176.621 510.622 173.282C502.56 169.942 493.317 173.77 489.977 181.833C486.638 189.895 490.466 199.137 498.528 202.477C506.59 205.816 515.833 201.988 519.173 193.926Z" stroke="#221D1E" stroke-width="0.7444"/>
<path d="M559.2 132.9C567.926 132.9 575 125.826 575 117.1C575 108.374 567.926 101.3 559.2 101.3C550.474 101.3 543.4 108.374 543.4 117.1C543.4 125.826 550.474 132.9 559.2 132.9Z" stroke="#221D1E" stroke-width="0.7444"/>
<path d="M559.2 112.6H558.7L555.5 113.7L555.9 115L557.8 114.4V121.9H559.3V112.6H559.2Z" fill="#221D1E"/>
<path d="M114.9 217.9C123.626 217.9 130.7 210.826 130.7 202.1C130.7 193.374 123.626 186.3 114.9 186.3C106.174 186.3 99.1 193.374 99.1 202.1C99.1 210.826 106.174 217.9 114.9 217.9Z" stroke="#221D1E" stroke-width="0.7444"/>
<path d="M114.9 197.6H114.4L111.2 198.7L111.6 200L113.5 199.4V206.9H115V197.6H114.9Z" fill="#221D1E"/>
<path d="M15.6 197.5C0.500003 208.8 1.2 226.7 3 241.7C4.8 256.7 48.7 365.3 48.7 365.3L68.4 412.3C68.4 412.3 80.9 449.7 119.4 452.5C150.4 455.3 185.8 428.6 202.7 421.1C202.7 421.1 263.6 392.7 353.9 371.3C457.2 346.9 529.6 346.3 569 345.9C658.3 345 662.4 353.1 670 328.4C673 318.5 680.2 306.2 667.1 289.3C664.7 286.2 662.1 283 659.4 279.7" stroke="#C8C8C8" stroke-width="2" stroke-miterlimit="10"/>
<path d="M9.89999 200.4C-3.00001 223 77.2 400.4 77.2 400.4C77.2 400.4 87.6 434.1 122.4 435.9C152.7 438.7 191.3 410.8 207.9 403.5C207.9 403.5 265.1 377.4 353.5 356.5C454.6 332.6 525.3 331.5 563.9 331.1C651.3 330.3 666.2 338 673.6 313.8" stroke="#C8C8C8" stroke-width="0.9921" stroke-miterlimit="10"/>
<path d="M76.5 352.4C86.8 388.3 131.1 398.3 160.1 379.7C162.9 377.8 218.3 344.9 278.5 328C338.7 311.1 437.3 287.6 519 283.8C600.7 280 647.7 283.8 661.8 279.1C701.8 261 658.1 144.1 610.1 142.8C589.1 108.9 586.9 118 581 84.5C575.6 52.7 567.1 30.2 541.6 7.40001C529.4 1.80001 517.2 -0.0999923 505 1.80001C422.9 21.3 383.2 42.7 274.7 61C230.5 65.7 163.9 70.4 145.1 70.4C126.3 70.4 60.6 65.7 37.1 77C1.19997 95.7 7.09998 137.7 6.09998 165.3C6.69998 170.9 9.99997 182.2 14.9 196.5C33.8 251.7 76.5 352.4 76.5 352.4Z" stroke="#C8C8C8" stroke-width="2.2677" stroke-miterlimit="10"/>
<path opacity="0.06" d="M217.6 152.8C217.4 152.4 217.1 152 216.8 151.6C217.1 152.8 217.5 154.1 217.8 155.1C217.8 154.3 217.7 153.6 217.6 152.8Z" fill="url(#paint7_linear)" stroke="#C8C8C8" stroke-width="2.8346" stroke-miterlimit="10"/>
<path d="M225.9 121.2C225.9 121.2 226 120.3 226.5 118.6" stroke="#C8C8C8" stroke-width="0.9921" stroke-miterlimit="10"/>
<path d="M228.5 113.7C235.1 100.2 257.4 72.8002 331.1 65.7002C382.6 61.3002 410.6 74.4002 420.7 80.5002" stroke="#C8C8C8" stroke-width="0.9921" stroke-miterlimit="10" stroke-dasharray="5.65 5.65"/>
<path d="M422.9 82C424.3 83 425 83.6 425 83.6" stroke="#C8C8C8" stroke-width="0.9921" stroke-miterlimit="10"/>
<path d="M265.3 182.3C265.3 182.3 266.1 182.7 267.7 183.5" stroke="#C8C8C8" stroke-width="0.9921" stroke-miterlimit="10"/>
<path d="M272.6 185.6C291.1 193.3 342.3 210.6 397.8 192.6C436.2 178.4 448.2 156.1 451.8 146.1" stroke="#C8C8C8" stroke-width="0.9921" stroke-miterlimit="10" stroke-dasharray="5.72 5.72"/>
<path d="M452.6 143.5C453.1 141.8 453.2 140.9 453.2 140.9" stroke="#C8C8C8" stroke-width="0.9921" stroke-miterlimit="10"/>
<path d="M422.4 253.8C422.2 253 422.1 252.1 421.9 251.2" stroke="#C8C8C8" stroke-width="0.9921" stroke-miterlimit="10"/>
<path d="M421.2 245.3C420.4 234.4 421.4 220.8 424.9 213.4" stroke="#C8C8C8" stroke-width="0.9921" stroke-miterlimit="10" stroke-dasharray="6.27 6.27"/>
<path d="M426.4 210.8C427 210 427.6 209.4 428.2 208.9" stroke="#C8C8C8" stroke-width="0.9921" stroke-miterlimit="10"/>
<path d="M676.1 244.3C676.2 243.4 676.3 242.5 676.3 241.7" stroke="#C8C8C8" stroke-width="0.9921" stroke-miterlimit="10"/>
<path d="M675.7 236.4C662.5 192.2 465.5 225.7 433 255.5" stroke="#C8C8C8" stroke-width="0.9921" stroke-miterlimit="10" stroke-dasharray="5.75 5.75"/>
<path d="M431.1 257.4C430.5 258.1 430 258.8 429.6 259.6" stroke="#C8C8C8" stroke-width="0.9921" stroke-miterlimit="10"/>
<path d="M383.7 259.6C379.8 247.6 370.9 229.4 352.1 223.5" stroke="#C8C8C8" stroke-width="0.9921" stroke-miterlimit="10" stroke-dasharray="5.67 5.67"/>
<path d="M110.9 387C104.1 378.3 105.5 369.3 105.5 369.3C111.3 224.1 297 243.9 382.9 266.8" stroke="#C8C8C8" stroke-width="0.9921" stroke-miterlimit="10" stroke-dasharray="5.67 5.67"/>
<path d="M582.8 94.8998C582.8 94.8998 582 94.3998 580.4 93.7998" stroke="#C8C8C8" stroke-width="0.9921" stroke-miterlimit="10"/>
<path d="M575.4 92.0999C564.7 89.0999 542 85.9999 504.4 95.3999" stroke="#C8C8C8" stroke-width="0.9921" stroke-miterlimit="10" stroke-dasharray="5.66 5.66"/>
<path d="M501.8 96.1001C500.9 96.3001 500.1 96.6001 499.2 96.8001" stroke="#C8C8C8" stroke-width="0.9921" stroke-miterlimit="10"/>
<path d="M193.9 129.6C193.9 129.6 192.9 129.5 191.3 129.3" stroke="#C8C8C8" stroke-width="0.9921" stroke-miterlimit="10"/>
<path d="M185.9 128.7C175.3 127.7 156.9 126.7 147.8 130.6C141.2 134.4 133.7 150.3 130.9 162.6C136.2 173.9 153.6 205.1 160.2 217" stroke="#C8C8C8" stroke-width="0.9921" stroke-miterlimit="10" stroke-dasharray="5.72 5.72"/>
<path d="M161.6 219.3C162.4 220.8 162.9 221.6 162.9 221.6" stroke="#C8C8C8" stroke-width="0.9921" stroke-miterlimit="10"/>
<path d="M130.4 162.6C130.4 162.6 129.5 162.6 127.7 162.7" stroke="#C8C8C8" stroke-width="0.9921" stroke-miterlimit="10"/>
<path d="M122.2 163.1C102.2 164.6 51.1 170.7 33.3 195.5" stroke="#C8C8C8" stroke-width="0.9921" stroke-miterlimit="10" stroke-dasharray="5.91 5.91"/>
<path d="M31.8 197.8C31.3 198.6 30.9 199.3 30.5 200.1" stroke="#C8C8C8" stroke-width="0.9921" stroke-miterlimit="10"/>
<path opacity="0.02" d="M523.4 132.3C525.2 134.8 527.1 137.4 529.6 139.3C533.7 142.6 539.1 143.8 544.3 144C549.5 144.2 554.7 143.3 559.9 142.6C576 140.5 592.5 140.5 608.6 142.5C602.7 133.4 596.8 124.4 590.9 115.4C587.2 109.7 583.5 104 581.8 97.3999C581.5 96.0999 581.2 94.7999 580.3 93.7999C579.3 92.5999 577.6 92.2999 576.1 92.0999C561 89.5999 545.6 89.2999 530.4 91.1999C522.7 92.0999 515 93.5999 507.5 95.6999C504.9 96.3999 501.3 96.8999 501.3 100.1C501.3 102.7 506.1 107.6 507.6 109.8C512.7 117.4 518 124.9 523.4 132.3Z" fill="url(#paint8_linear)" stroke="#C8C8C8" stroke-width="2.8346" stroke-miterlimit="10"/>
<g opacity="0.79">
<path opacity="0.79" d="M531.7 144C499.6 107.8 491.1 79.7001 491.1 79.7001C491.1 79.7001 489 69.2001 475.3 71.3001C464.3 73.0001 455 78.8001 449.7 82.7001" stroke="#BAB8B8" stroke-width="0.9921" stroke-miterlimit="10" stroke-dasharray="5.72 5.72"/>
</g>
<path d="M439.5 309.9V310.4L435 319.7H432.8L436.8 311.7H432.6V309.9H439.5Z" fill="#221D1E"/>
<path d="M506.8 186.9C507.3 187.1 507.7 187.5 508 188C508.3 188.5 508.5 189 508.5 189.7C508.5 190.4 508.3 191 508 191.5C507.7 192 507.2 192.4 506.6 192.7C506 193 505.4 193.1 504.7 193.1C503.9 193.1 503.1 192.9 502.5 192.5C501.9 192.1 501.4 191.6 501.1 190.9L502.5 189.9C502.8 190.3 503.1 190.7 503.5 190.9C503.8 191.1 504.3 191.2 504.7 191.2C505.2 191.2 505.6 191.1 506 190.8C506.3 190.5 506.5 190.2 506.5 189.7C506.5 189.2 506.3 188.9 506 188.7C505.7 188.5 505.2 188.3 504.5 188.3H502.2V183H508V184.8H504.1V186.6C504.5 186.5 504.8 186.5 505.2 186.5C505.8 186.5 506.3 186.6 506.8 186.9Z" fill="#221D1E"/>
<path d="M396.4 223C396.9 223.2 397.3 223.6 397.6 224.1C397.9 224.6 398.1 225.1 398.1 225.8C398.1 226.5 397.9 227.1 397.6 227.6C397.3 228.1 396.8 228.5 396.2 228.8C395.6 229.1 395 229.2 394.3 229.2C393.5 229.2 392.7 229 392.1 228.6C391.5 228.2 391 227.7 390.7 227L392.1 226C392.4 226.4 392.7 226.8 393.1 227C393.4 227.2 393.9 227.3 394.3 227.3C394.8 227.3 395.2 227.2 395.6 226.9C395.9 226.6 396.1 226.3 396.1 225.8C396.1 225.3 395.9 225 395.6 224.8C395.3 224.6 394.8 224.4 394.1 224.4H391.8V219.1H397.6V220.9H393.7V222.7C394.1 222.6 394.4 222.6 394.8 222.6C395.4 222.6 395.9 222.7 396.4 223Z" fill="#221D1E"/>
<path d="M265.3 216C265.8 216.2 266.2 216.6 266.5 217.1C266.8 217.6 267 218.1 267 218.8C267 219.5 266.8 220.1 266.5 220.6C266.2 221.1 265.7 221.5 265.1 221.8C264.5 222.1 263.9 222.2 263.2 222.2C262.4 222.2 261.6 222 261 221.6C260.4 221.2 259.9 220.7 259.6 220L261 219C261.3 219.4 261.6 219.8 262 220C262.3 220.2 262.8 220.3 263.2 220.3C263.7 220.3 264.1 220.2 264.5 219.9C264.8 219.6 265 219.3 265 218.8C265 218.3 264.8 218 264.5 217.8C264.2 217.6 263.7 217.4 263 217.4H260.7V212.1H266.5V213.9H262.6V215.7C263 215.6 263.3 215.6 263.7 215.6C264.3 215.7 264.8 215.8 265.3 216Z" fill="#221D1E"/>
<path d="M409.425 230.463C412.765 222.4 408.936 213.158 400.874 209.818C392.812 206.479 383.569 210.307 380.23 218.369C376.89 226.431 380.719 235.674 388.781 239.013C396.843 242.353 406.086 238.525 409.425 230.463Z" stroke="#221D1E" stroke-width="0.7444"/>
</g>
<defs>
<linearGradient id="paint0_linear" x1="401.063" y1="278.984" x2="383.951" y2="186.776" gradientUnits="userSpaceOnUse">
<stop offset="0.1229" stop-color="#9CE6D4" stop-opacity="0.44"/>
<stop offset="0.2998" stop-color="#ACEADB" stop-opacity="0.5602"/>
<stop offset="0.6433" stop-color="#D5F4ED" stop-opacity="0.7937"/>
<stop offset="0.9468" stop-color="white"/>
</linearGradient>
<linearGradient id="paint1_linear" x1="401.063" y1="278.984" x2="383.951" y2="186.776" gradientUnits="userSpaceOnUse">
<stop offset="0.1229" stop-color="#9CE6D4" stop-opacity="0.44"/>
<stop offset="0.2998" stop-color="#ACEADB" stop-opacity="0.5602"/>
<stop offset="0.6433" stop-color="#D5F4ED" stop-opacity="0.7937"/>
<stop offset="0.9468" stop-color="white"/>
</linearGradient>
<linearGradient id="paint2_linear" x1="386.238" y1="281.737" x2="369.126" y2="189.528" gradientUnits="userSpaceOnUse">
<stop stop-color="#8CB5E9" stop-opacity="0.44"/>
<stop offset="0.187" stop-color="#A5C5EE" stop-opacity="0.5506"/>
<stop offset="0.7032" stop-color="#E6EFFA" stop-opacity="0.8559"/>
<stop offset="0.9468" stop-color="white"/>
</linearGradient>
<linearGradient id="paint3_linear" x1="71.89" y1="107.188" x2="143.291" y2="205.313" gradientUnits="userSpaceOnUse">
<stop offset="0.00558659" stop-color="#D4BEE9"/>
<stop offset="1" stop-color="#EDDCFC"/>
</linearGradient>
<linearGradient id="paint4_linear" x1="499.955" y1="56.4138" x2="541.604" y2="107.952" gradientUnits="userSpaceOnUse">
<stop stop-color="#D4BEE9"/>
<stop offset="1" stop-color="#EDDCFC"/>
</linearGradient>
<linearGradient id="paint5_linear" x1="217.794" y1="153.058" x2="216.895" y2="153.65" gradientUnits="userSpaceOnUse">
<stop stop-opacity="0.3"/>
<stop offset="1" stop-opacity="0"/>
</linearGradient>
<linearGradient id="paint6_linear" x1="501.324" y1="117.044" x2="608.556" y2="117.044" gradientUnits="userSpaceOnUse">
<stop stop-opacity="0.3"/>
<stop offset="1" stop-opacity="0"/>
</linearGradient>
<linearGradient id="paint7_linear" x1="217.794" y1="153.058" x2="216.895" y2="153.65" gradientUnits="userSpaceOnUse">
<stop stop-opacity="0.3"/>
<stop offset="1" stop-opacity="0"/>
</linearGradient>
<linearGradient id="paint8_linear" x1="501.324" y1="117.044" x2="608.556" y2="117.044" gradientUnits="userSpaceOnUse">
<stop stop-opacity="0.3"/>
<stop offset="1" stop-opacity="0"/>
</linearGradient>
<clipPath id="clip0">
<rect width="680" height="455" fill="white"/>
</clipPath>
</defs>
</svg>
