<svg width="30" height="30" viewbox="0 0 30 30" fill="none" xmlns="http://www.w3.org/2000/svg">
<path d="M3.49699 23.972L3.74286 23.292L3.34525 22.687C1.46928 19.828 0.7108 16.3787 1.21436 12.9964C1.71792 9.61419 3.44832 6.53546 6.07578 4.34695C8.70325 2.15845 12.0441 1.01317 15.4616 1.12939C18.8792 1.24561 22.1345 2.61519 24.6072 4.97713C27.0799 7.33907 28.5972 10.5282 28.8698 13.9369C29.1425 17.3455 28.1514 20.7353 26.0856 23.4603C24.0197 26.1852 21.0234 28.0548 17.6678 28.7128C14.3122 29.3707 10.8318 28.771 7.88987 27.028L7.35781 26.711L6.76236 26.8801L1.93923 28.2515L3.49507 23.972H3.49699Z" fill="" stroke="#4F6FC1" stroke-width="1.5"/>
<path d="M19.5959 22.2264C18.9774 22.3233 18.1958 22.364 17.3326 22.0735C16.8127 21.8951 16.145 21.6606 15.2903 21.263C11.9133 19.6981 9.63259 16.1864 9.21858 15.5489C9.1916 15.5074 9.17255 15.4781 9.16164 15.4623L10.5923 7.81289C10.6162 7.81362 10.641 7.81315 10.6666 7.81266C10.8781 7.8086 11.1457 7.80346 11.4079 8.46874M19.5959 22.2264C20.2874 22.1143 21.7197 21.2953 22.0222 20.3982M19.5959 22.2264L19.5158 21.7329C19.5162 21.7328 19.5167 21.7327 19.5171 21.7326M19.5959 22.2264L19.5185 21.7324C19.518 21.7325 19.5176 21.7326 19.5171 21.7326M22.0222 20.3982C22.3144 19.4993 22.3229 18.7313 22.2261 18.5682C22.1577 18.4357 21.9816 18.3467 21.7223 18.2156C21.6659 18.187 21.6054 18.1565 21.5413 18.1231C21.1845 17.9294 19.4174 16.9983 19.0912 16.8776C18.765 16.74 18.522 16.6822 18.2756 17.0645M22.0222 20.3982L21.5467 20.2436C21.547 20.2426 21.5473 20.2417 21.5476 20.2407M22.0222 20.3982L21.5484 20.2384C21.5481 20.2392 21.5479 20.24 21.5476 20.2407M18.2756 17.0645C18.0412 17.4519 17.3581 18.3185 17.1457 18.5682M18.2756 17.0645L18.7034 17.3234C18.702 17.3258 18.7006 17.3281 18.6991 17.3305M18.2756 17.0645L18.6959 17.3354C18.697 17.3337 18.6981 17.3321 18.6991 17.3305M17.1457 18.5682C16.9334 18.8282 16.7312 18.8605 16.3727 18.6651M17.1457 18.5682L17.5329 18.8846C17.5319 18.8859 17.5308 18.8873 17.5297 18.8886M17.1457 18.5682L17.5266 18.8921C17.5276 18.891 17.5286 18.8898 17.5297 18.8886M16.3727 18.6651C16.3143 18.6343 16.236 18.5982 16.1402 18.5539C15.633 18.3199 14.6331 17.8585 13.4842 16.7553C12.691 15.9715 12.0188 15.0742 11.4894 14.0928M16.3727 18.6651L16.1393 19.1073C16.1384 19.1068 16.1376 19.1064 16.1367 19.1059M16.3727 18.6651L16.1334 19.1041C16.1345 19.1047 16.1356 19.1053 16.1367 19.1059M11.4894 14.0928C11.277 13.7037 11.4639 13.5015 11.6423 13.3163C11.7485 13.2001 11.8684 13.043 11.9888 12.885C12.0534 12.8004 12.1181 12.7155 12.181 12.6367C12.3226 12.4626 12.3882 12.3197 12.4696 12.1423C12.4907 12.0963 12.5129 12.0479 12.5378 11.9961M11.4894 14.0928L11.0493 14.3301C11.6022 15.3552 12.3043 16.2923 13.1327 17.1109L13.1327 17.111L13.1379 17.1159C14.3556 18.2853 15.4404 18.7832 15.9354 19.0104C16.0209 19.0496 16.0888 19.0808 16.1367 19.1059M11.4894 14.0928L11.0505 14.3323C10.8919 14.0418 10.8488 13.7468 10.947 13.4641C11.0272 13.233 11.1888 13.066 11.271 12.9811C11.2732 12.9787 11.2754 12.9764 11.2776 12.9742C11.3689 12.8737 11.4627 12.7504 11.5699 12.6095C11.6371 12.5212 11.7095 12.4259 11.7899 12.325L11.7932 12.321L11.7932 12.321C11.8921 12.1994 11.9291 12.1193 12.0036 11.9577C12.0264 11.9084 12.0526 11.8514 12.0852 11.7834M12.5378 11.9961C12.5869 11.8903 12.6104 11.7743 12.6063 11.6577C12.6022 11.541 12.5705 11.427 12.514 11.3249C12.4281 11.1532 11.8544 9.64348 11.5218 8.76843C11.4794 8.65686 11.4409 8.5556 11.4079 8.46874M12.5378 11.9961L12.0843 11.7854C12.0846 11.7847 12.0849 11.7841 12.0852 11.7834M12.5378 11.9961L12.087 11.7798C12.0864 11.781 12.0858 11.7822 12.0852 11.7834M11.4079 8.46874L10.9406 8.64657C10.9409 8.64753 10.9413 8.64849 10.9416 8.64945M11.4079 8.46874L10.9427 8.65206C10.9423 8.65119 10.942 8.65032 10.9416 8.64945M10.9416 8.64945C10.9743 8.73533 11.0123 8.83533 11.0542 8.94547C11.1993 9.32725 11.3907 9.83094 11.5674 10.2913C11.7877 10.8653 12.0041 11.4232 12.0668 11.5485L12.0715 11.558L12.0766 11.5672C12.095 11.6004 12.1053 11.6375 12.1066 11.6754C12.1079 11.7126 12.1006 11.7495 12.0852 11.7834M10.9416 8.64945C10.8448 8.40444 10.7715 8.33005 10.7512 8.3131M10.7512 8.3131C10.7493 8.31292 10.7469 8.31274 10.744 8.31258C10.7317 8.3119 10.7163 8.31183 10.6877 8.31235C10.6848 8.3124 10.6816 8.31246 10.678 8.31254C10.6536 8.31303 10.6146 8.31381 10.5769 8.31265L10.5636 8.31224L10.5504 8.31113C10.3764 8.29651 10.1592 8.29591 9.92163 8.2959C9.81057 8.30131 9.70186 8.33001 9.60257 8.38019C9.50078 8.43162 9.41128 8.5044 9.34018 8.59357L9.33465 8.6005L9.32888 8.60724C9.30791 8.63171 9.28481 8.65805 9.25996 8.68639C8.90587 9.09024 8.19531 9.90065 8.19531 11.4864C8.19531 12.3241 8.48358 13.1756 8.81273 13.8699C9.13045 14.54 9.46861 15.0275 9.56551 15.1672C9.56806 15.1709 9.57043 15.1743 9.57264 15.1775L9.57303 15.1781C9.58601 15.1969 9.60746 15.2297 9.63714 15.2752C10.0719 15.9413 12.273 19.3137 15.5005 20.8094L15.5012 20.8097C16.3315 21.1959 16.9795 21.4237 17.4935 21.6001C18.2512 21.8548 18.943 21.8224 19.5171 21.7326M10.7512 8.3131C10.7555 8.31349 10.7572 8.31385 10.7572 8.31385C10.7572 8.31385 10.7536 8.31312 10.7488 8.31073C10.7479 8.31028 10.7472 8.3099 10.7467 8.3096M10.7512 8.3131C10.7491 8.31138 10.7476 8.31025 10.7467 8.3096M19.5171 21.7326C19.7644 21.6921 20.225 21.5011 20.6721 21.1944C21.1264 20.8827 21.4483 20.5322 21.5476 20.2407M21.5476 20.2407C21.6812 19.8291 21.7484 19.4517 21.7717 19.1666C21.7834 19.0231 21.7834 18.9108 21.7776 18.8344C21.777 18.8262 21.7763 18.8188 21.7757 18.8122M21.7757 18.8122C21.7989 18.8275 21.8073 18.8352 21.8074 18.8351C21.8075 18.835 21.8033 18.8309 21.7973 18.8228C21.7941 18.8184 21.7904 18.8129 21.7865 18.8062C21.7849 18.8031 21.7834 18.8001 21.782 18.7973C21.7722 18.7769 21.7689 18.7644 21.7688 18.7645C21.7687 18.7645 21.7723 18.7785 21.7757 18.8122ZM21.7757 18.8122C21.7652 18.8053 21.7518 18.7969 21.7347 18.7869C21.6904 18.761 21.6351 18.732 21.5612 18.6945C21.542 18.6847 21.5213 18.6742 21.4996 18.6632C21.4422 18.6343 21.3773 18.6014 21.3102 18.5664L21.3028 18.5626L21.3028 18.5625C21.1285 18.4679 20.6008 18.1884 20.0755 17.9173C19.5314 17.6364 19.0442 17.3933 18.9178 17.3466L18.9072 17.3427L18.8969 17.3383C18.8215 17.3065 18.7726 17.2888 18.7365 17.2793M18.7365 17.2793C18.7384 17.2771 18.7402 17.275 18.7419 17.2732C18.7528 17.2608 18.7585 17.2566 18.7583 17.2568C18.7532 17.2605 18.7358 17.2698 18.714 17.2724C18.7082 17.2731 18.7048 17.273 18.7048 17.273C18.7048 17.273 18.7139 17.2735 18.7353 17.279C18.7357 17.2791 18.7361 17.2792 18.7365 17.2793ZM18.7365 17.2793C18.7267 17.291 18.7141 17.3076 18.6991 17.3305M18.6991 17.3305C18.4404 17.7549 17.7471 18.6323 17.5297 18.8886M17.5297 18.8886C17.3844 19.0653 17.1778 19.2436 16.8796 19.2831C16.6004 19.3201 16.3456 19.2194 16.1367 19.1059M10.7467 8.3096C10.7459 8.30916 10.7455 8.30889 10.7455 8.30887L10.7467 8.3096Z" fill="#4F6FC1" stroke="#4F6FC1"/>
</svg>
