<svg width="315" height="202" viewBox="0 0 315 202" fill="none" xmlns="http://www.w3.org/2000/svg">
<g clip-path="url(#clip0_160_477)">
<path d="M98.5821 79.7217C98.11 80.9081 104.901 81.9621 105.116 82.0869C109.037 84.3698 113.286 84.8643 117.722 84.5122C124.625 83.9652 131.306 82.4816 137.728 79.8915C138.892 79.4219 140.033 78.8525 141.09 78.1831C144.391 76.0926 144.946 72.8032 142.538 69.7061C140.096 66.5591 136.749 65.1004 133.005 64.0789" stroke="#3C3C3B" stroke-miterlimit="10" stroke-linecap="round" stroke-linejoin="round"/>
<path d="M100.54 83.9227C100.5 84.5496 100.292 85.2165 99.9825 85.7635C99.5504 86.5353 99.8726 86.8949 100.515 87.1772C101.206 87.4794 101.911 87.7466 102.82 88.1163C102.922 87.5019 103.022 86.8475 103.142 86.1956" stroke="#3C3C3B" stroke-miterlimit="10" stroke-linecap="round" stroke-linejoin="round"/>
<path d="M139.566 66.8987C140.743 65.8223 143.198 69.1691 144.212 70.2756C144.454 70.5403 145.039 70.6053 145.451 70.5753C147.049 70.4529 147.464 70.7976 147.906 72.3611C148.038 72.8307 148.59 73.2927 149.063 73.53C149.587 73.7922 150.379 73.6124 150.806 73.9446C151.473 74.4641 152.262 75.2009 152.377 75.9427C152.482 76.6121 151.882 77.5387 151.335 78.0982C151.038 78.4004 150.159 78.3155 149.617 78.1531C148.875 77.9334 147.656 78.268 147.516 79.0248C147.177 80.8731 146.83 82.7313 146.7 84.5996C146.595 86.1132 146.1 87.3595 145.164 88.5184C144.814 88.953 144.547 89.5549 144.489 90.1044C144.06 94.283 142.196 97.6173 138.263 99.2133C127.95 103.404 117.725 103.899 107.896 97.6923C107.169 97.2327 106.398 96.7007 105.936 96.0088C105.496 95.352 105.194 94.4153 105.266 93.6436C105.386 92.3623 105.079 91.4631 104.027 90.7563C103.108 90.1419 102.307 89.3501 101.45 88.6433C101.258 88.4834 101.01 88.1787 100.858 88.2162C99.4018 88.5858 99.3318 87.2196 98.7549 86.5328C98.62 86.3729 98.7499 85.9208 98.8598 85.6436C99.1695 84.8693 99.6141 84.14 99.8563 83.3458" stroke="#3C3C3B" stroke-miterlimit="10" stroke-linecap="round" stroke-linejoin="round"/>
<path d="M139.973 40.019C138.197 42.3144 135.547 45.9385 133.874 48.3087C132.732 49.9247 131.606 51.6106 130.849 53.4214C130.037 55.3571 130.487 57.3078 131.663 59.126C132.495 60.4148 133.03 61.8909 133.791 63.2297" stroke="#3C3C3B" stroke-miterlimit="10" stroke-linecap="round" stroke-linejoin="round"/>
<path d="M153.14 24.4162C152.805 24.4911 152.47 24.6235 152.135 24.6335C148.769 24.7309 146.521 26.3569 145.217 29.459C144.053 32.2239 142.784 34.9463 141.5 37.6563C141.116 38.4705 140.521 39.1873 139.974 40.019C139.87 40.094 140.042 42.9613 139.937 43.0362C140.289 44.782 140.761 46.5504 138.963 48.1938" stroke="#3C3C3B" stroke-miterlimit="10" stroke-linecap="round" stroke-linejoin="round"/>
<path d="M154.637 22.2158C154.282 21.9111 153.982 21.519 153.74 21.1143C151.727 17.77 147.946 17.5027 145.745 20.7821C144.611 22.4706 143.882 24.5061 143.307 26.4818C142.353 29.7637 142.031 34.232 141.494 37.6563" stroke="#3C3C3B" stroke-miterlimit="10" stroke-linecap="round" stroke-linejoin="round"/>
<path d="M125.443 62.875C127.514 63.0624 130.334 63.0549 133.009 64.0789" stroke="#3C3C3B" stroke-miterlimit="10" stroke-linecap="round" stroke-linejoin="round"/>
<path d="M153.141 24.4162C153.59 22.3881 156.522 20.3375 156.755 20.1752C161.745 16.671 168.716 12.2676 174.568 10.3095" stroke="#3C3C3B" stroke-miterlimit="10" stroke-linecap="round" stroke-linejoin="round"/>
<path d="M115.076 65.0055C116.632 64.7308 120.686 63.6393 121.795 63.3496C122.911 63.0574 124.1 63.0374 125.444 62.875C125.269 62.363 125.172 61.9109 124.969 61.5138C123.009 57.6574 123.686 54.0583 125.849 50.5017C127.629 47.5694 129.403 44.6147 130.894 41.5301C132.869 37.4439 134.346 33.108 134.81 28.5923C135.322 23.602 138.06 20.2152 141.731 17.2579C146.572 13.3591 152.029 10.8015 158.131 9.6576C160.761 9.16556 163.223 8.33634 165.574 7.00009C169.263 4.90207 172.744 6.18836 174.44 10.0772C174.508 10.2296 174.605 10.3694 174.57 10.3095C177.592 9.97979 180.477 9.35039 183.352 9.40284C196.03 9.63012 205.569 15.5071 212.315 26.0896C215.432 30.98 217.02 36.4199 217.859 42.122C218.162 44.1826 218.042 46.9625 219.168 48.3787" stroke="#3C3C3B" stroke-miterlimit="10" stroke-linecap="round" stroke-linejoin="round"/>
<path d="M92.3049 96.0288C91.7229 93.3738 91.1884 88.5459 91.0161 85.8334C90.8313 82.9461 91.3433 80.1887 93.0816 77.781C93.4588 77.2565 93.8609 76.6371 94.4029 76.3673C95.9814 75.5781 96.416 74.1195 96.8656 72.6383C97.2227 71.457 97.9096 70.6078 98.9986 69.9659C99.5755 69.6262 100.08 68.9643 100.345 68.3324C100.897 67.0261 102.578 66.9612 103.894 66.4941" stroke="#3C3C3B" stroke-miterlimit="10" stroke-linecap="round" stroke-linejoin="round"/>
<path d="M97.2783 84.3623C96.509 82.8487 96.7038 81.7048 97.4556 80.8531C98.3273 79.8665 99.3863 78.9699 100.523 78.308C102.358 77.239 104.357 76.4473 106.225 75.4232C106.999 74.9986 107.646 74.3093 108.278 73.6699C108.475 73.4701 108.6 72.8756 108.473 72.7532C108.245 72.5334 107.771 72.3861 107.459 72.461C105.77 72.8706 104.084 73.3077 102.426 73.8297C100.892 74.3118 99.3888 74.8937 97.8877 75.4682C93.9414 76.9818 93.6791 76.2649 91.9033 79.8665" stroke="#3C3C3B" stroke-miterlimit="10" stroke-linecap="round" stroke-linejoin="round"/>
<path d="M102.82 88.1138C108.423 90.1668 116.702 92.9442 122.437 91.8877C127.904 90.8787 133.187 88.8131 138.504 87.0673C140.64 86.3679 142.673 85.3364 144.706 84.3573C145.825 83.8178 146.866 82.9586 147.041 81.7473" stroke="#3C3C3B" stroke-miterlimit="10" stroke-linecap="round" stroke-linejoin="round"/>
<path d="M147.518 79.0248C147.311 79.1997 145.39 81.1254 145.203 81.3202C144.736 81.8097 144.284 82.3167 143.827 82.8163C143.487 82.2718 143.15 81.7223 142.805 81.1803C142.763 81.1129 142.678 81.0704 142.316 80.7707C142.123 82.0095 140.557 82.017 140.512 83.5231C140.492 84.1575 139.871 85.1741 139.349 85.2989C138.564 85.4888 137.625 85.0567 136.756 84.8693C136.449 84.8019 136.069 84.5097 135.874 84.6121C135.665 84.722 135.487 85.2065 135.55 85.4663C135.814 86.5453 135.62 87.397 134.516 87.8091C133.532 88.1762 132.632 88.0788 132.063 86.845C131.628 87.2321 131.304 87.5618 130.936 87.839C130.529 88.1463 130.112 88.5609 129.648 88.6408C129.213 88.7157 128.659 88.4909 128.276 88.2287C128.154 88.1438 128.436 87.5168 128.481 87.1297C128.541 86.6252 128.551 86.1157 128.584 85.6061C127.814 85.6461 126.593 85.4088 126.363 85.781C125.746 86.7825 125.137 87.3445 123.941 86.9774C124.078 89.7248 123.663 90.6664 122.345 90.6214C121.093 90.5765 120.736 89.8571 121.181 88.7057C119.947 88.8631 118.843 89.0604 117.731 89.1303C116.745 89.1953 115.786 89.1878 116.018 87.6392C116.068 87.3045 115.261 86.845 114.849 86.4404C114.599 86.9149 114.185 87.372 114.14 87.8665C114.082 88.4909 114.402 89.1403 114.412 89.7822C114.424 90.6464 114.035 91.3482 113.071 91.3957C112.139 91.4407 111.65 90.8337 111.485 89.977C111.397 89.525 111.407 89.0554 111.375 88.6283C110.898 88.456 110.503 88.3111 109.904 88.0938C110.198 87.7291 110.443 87.5543 110.491 87.337C110.551 87.0548 110.453 86.7401 110.423 86.4404C110.089 86.5278 109.726 86.5627 109.429 86.7226C109.282 86.8 109.304 87.1472 109.167 87.2971C108.737 87.7691 108.21 88.6158 107.833 88.5609C107.236 88.4734 106.652 87.834 106.21 87.307C105.895 86.9299 105.885 86.313 105.618 85.8759C105.443 85.5912 105.066 85.3339 104.746 85.2815" stroke="#3C3C3B" stroke-miterlimit="10" stroke-linecap="round" stroke-linejoin="round"/>
<path d="M121.962 93.8484C128.9 93.8484 135.664 92.9492 141.926 89.7223" stroke="#3C3C3B" stroke-miterlimit="10" stroke-linecap="round" stroke-linejoin="round"/>
<path d="M95.4043 76.3465C98.1692 75.4599 103.62 72.3786 106.412 71.5893C107.236 71.3571 108.22 71.4095 109.067 71.6068C110.441 71.929 111.607 71.4145 112.024 70.0583C112.391 68.8669 112.029 68.4398 110.818 68.6071C110.391 68.6671 109.951 68.7345 109.524 68.7045C106.514 68.4997 101.851 69.1366 98.999 69.9659" stroke="#3C3C3B" stroke-miterlimit="10" stroke-linecap="round" stroke-linejoin="round"/>
<path d="M106 91.643C106.944 93.0691 108.345 92.5321 109.549 92.8343C109.574 92.7294 109.599 92.6245 109.622 92.5196C108.415 92.2274 107.206 91.9352 106 91.643Z" stroke="#3C3C3B" stroke-miterlimit="10" stroke-linecap="round" stroke-linejoin="round"/>
<path d="M186.821 39.5894C187.106 40.019 187.373 40.4561 187.675 40.8732C191.307 45.916 194.709 51.1461 198.633 55.9491C204.095 62.6353 205.906 70.0108 204.212 78.3804C203.868 80.0813 203.635 81.8097 203.433 83.5381C202.921 87.9115 203.496 92.135 206.635 95.0648C209.93 98.1394 213.349 100.927 216.93 103.669C220.305 106.252 223.382 109.151 223.284 113.355C223.182 117.821 222.523 122.277 222.098 126.735" stroke="#3C3C3B" stroke-miterlimit="10" stroke-linecap="round" stroke-linejoin="round"/>
<path d="M182.565 56.5335C185.995 60.9393 190.286 64.6808 192.211 70.0083C193.657 74.0071 193.29 75.7229 190.183 78.6077C188.909 79.7916 187.601 80.9405 186.389 82.1844C185.063 83.5431 184.314 85.224 184.391 87.1372C184.476 89.2152 184.554 91.3183 184.938 93.3539C185.707 97.4325 188.223 100.06 192.179 101.306C197.087 102.85 202.087 102.997 207.157 102.393C209.563 102.106 211.983 101.953 214.515 101.728" stroke="#3C3C3B" stroke-miterlimit="10" stroke-linecap="round" stroke-linejoin="round"/>
<path d="M186.514 61.7286C183.896 58.152 181.126 54.6802 178.324 51.246C174.912 47.0674 172.42 42.3643 169.992 37.5838C168.526 34.6965 166.832 31.8392 164.764 29.3641C162.691 26.8814 159.886 25.1705 156.435 25.0181C156.035 25.0007 153.522 24.671 153.138 24.4162" stroke="#3C3C3B" stroke-miterlimit="10" stroke-linecap="round" stroke-linejoin="round"/>
<path d="M150.433 97.2552C146.916 103.934 143.762 114.424 142.952 121.8C142.558 125.386 141.784 129.065 142.231 132.569C142.608 135.522 144.371 138.349 145.805 141.084C146.187 141.813 147.641 141.946 148.557 142.44C150.318 143.389 152.059 144.376 153.78 145.395C158.45 148.16 163.253 148.23 168.174 146.157C171.353 144.815 174.36 143.202 177 140.922C178.007 140.052 179.416 139.613 180.317 138.669C181.321 137.617 182.193 136.303 182.713 134.947C185.775 126.95 188.619 118.867 191.754 110.897C192.773 108.307 194.794 104.908 196.265 102.278" stroke="#3C3C3B" stroke-miterlimit="10" stroke-linecap="round" stroke-linejoin="round"/>
<path d="M140.485 132.332C140.575 131.573 140.99 129.14 141.02 128.703C141.457 122.359 142.064 116.023 143.797 109.891C144.631 106.946 148.273 99.558 149.464 96.7207" stroke="#3C3C3B" stroke-miterlimit="10" stroke-linecap="round" stroke-linejoin="round"/>
<path d="M190.036 124.397C185.523 132.39 178.125 146.756 172.825 155.835C170.639 159.579 168.074 163.106 165.611 166.685C164.27 168.636 162.899 170.531 162.854 173.036C162.849 173.291 162.594 173.538 162.457 173.791C162.142 173.546 161.72 173.366 161.533 173.049C159.11 168.925 156.647 164.822 154.34 160.633C147.159 147.588 141.022 134.058 135.372 120.278C131.701 111.327 134.943 104.216 140.485 101.149C141.909 100.362 142.144 97.1528 142.725 95.5817" stroke="#3C3C3B" stroke-miterlimit="10" stroke-linecap="round" stroke-linejoin="round"/>
<path d="M197.933 102.508C195.54 105.515 185.899 128.91 184.45 134.633" stroke="#3C3C3B" stroke-miterlimit="10" stroke-linecap="round" stroke-linejoin="round"/>
<path d="M104.226 141.871C104.48 145.078 105.31 153.482 105.577 156.689C105.612 157.104 105.582 157.521 105.582 157.938" stroke="#3C3C3B" stroke-miterlimit="10" stroke-linecap="round" stroke-linejoin="round"/>
<path d="M80.6289 181.908C80.9261 182.88 81.1609 183.874 81.5356 184.815C82.3848 186.951 83.1365 189.149 84.238 191.149C85.4544 193.357 87.1578 193.869 89.573 193.11C94.0088 191.719 97.6454 189.046 100.787 185.722C106.495 179.683 112.054 173.503 116.847 166.695C120.801 161.078 126.438 153.48 130.37 147.845" stroke="#3C3C3B" stroke-miterlimit="10" stroke-linecap="round" stroke-linejoin="round"/>
<path d="M222.096 126.73C220.635 141.061 219.765 155.428 219.466 169.834C219.341 175.851 217.428 181.548 215.524 187.203" stroke="#3C3C3B" stroke-miterlimit="10" stroke-linecap="round" stroke-linejoin="round"/>
<path d="M209.043 149.174C211.468 150.82 215.404 153.747 217.08 156.192C217.17 156.322 218.057 157.189 218.721 156.859" stroke="#3C3C3B" stroke-miterlimit="10" stroke-linecap="round" stroke-linejoin="round"/>
<path d="M98.4396 91.3282C98.3671 94.9873 100.198 97.8621 102.471 100.417C106.257 104.671 110.169 108.819 114.13 112.91C118.413 117.331 122.147 122.074 124.03 128.049C125.182 131.698 126.338 135.347 127.51 138.988C131.956 152.815 136.496 166.615 140.827 180.477C142.995 187.42 147.016 192.958 152.526 197.541C153.862 198.652 155.161 199.816 156.557 200.848C158.603 202.359 160.761 202.366 162.881 200.973C163.641 200.473 164.422 199.954 165.037 199.294C168.594 195.465 172.755 192.391 177.17 189.673C183.762 185.62 188.857 180.115 193.053 173.713C199.085 164.509 205.069 155.276 211.076 146.057C211.291 145.73 211.473 145.362 211.75 145.103" stroke="#3C3C3B" stroke-miterlimit="10" stroke-linecap="round" stroke-linejoin="round"/>
<path d="M107.564 106.004C106.205 107.016 104.242 108.287 102.998 109.211" stroke="#3C3C3B" stroke-miterlimit="10" stroke-linecap="round" stroke-linejoin="round"/>
<path d="M102.998 109.211C102.661 109.459 103.785 112.219 103.742 113.235C103.7 114.232 103.567 115.226 103.462 116.222C102.558 124.807 103.385 133.341 104.227 141.873C104.244 142.048 104.324 142.218 104.454 142.667C104.661 142.056 104.791 141.741 104.874 141.414C107.091 132.435 111.033 122.232 115.079 113.905" stroke="#3C3C3B" stroke-miterlimit="10" stroke-linecap="round" stroke-linejoin="round"/>
<path d="M219.076 48.2563C223.724 54.7452 228.66 55.0749 232.046 67.1235C232.171 69.8859 231.932 72.6758 231.684 75.4382C231.337 79.3295 230.695 83.1984 230.44 87.0947C230.268 89.7297 231.12 92.2199 232.386 94.5777C235.84 101.007 236.39 107.456 232.291 113.867C231.752 114.709 231.312 115.618 230.745 116.437C227.141 121.632 225.962 127.429 226.374 133.461" stroke="#3C3C3B" stroke-miterlimit="10" stroke-linecap="round" stroke-linejoin="round"/>
<path d="M220.101 152.553C220.967 150.373 224.946 147.578 225.79 145.387C227.002 142.24 227.391 138.993 226.747 135.647C225.978 131.65 225.618 127.624 226.352 123.585C226.71 121.622 227.321 119.702 227.639 117.733C228.688 111.222 229.402 104.696 227.486 98.2043C226.834 95.9939 226.153 93.791 225.426 91.6055C223.727 86.4978 224.057 81.4326 225.508 76.3299C226.415 73.1429 227.029 69.8959 226.402 66.5416C225.9 63.8541 224.607 61.6137 222.134 60.4798C217.079 58.1645 214.916 54.1732 214.489 48.8358C214.271 46.1208 213.694 43.4258 213.157 40.7459C212.952 39.7218 212.398 38.7652 212.006 37.7787" stroke="#3C3C3B" stroke-miterlimit="10" stroke-linecap="round" stroke-linejoin="round"/>
<path d="M92.3053 96.0288C92.4052 96.6133 92.6599 97.2227 92.5775 97.7822C91.9406 102.171 91.3112 106.561 90.5419 110.927C87.5448 127.931 84.4352 144.915 81.5129 161.932C80.7487 166.373 80.5064 170.903 80.0243 175.392C79.9969 175.644 80.1092 180.112 80.6338 181.913" stroke="#3C3C3B" stroke-miterlimit="10" stroke-linecap="round" stroke-linejoin="round"/>
<path d="M178.027 75.8004C178.027 76.3099 178.122 76.8394 178.012 77.3239C176.746 82.9337 173.456 86.5453 167.642 87.4394C163.091 88.1388 158.513 88.6633 153.945 89.2652C153.54 89.3176 153.138 89.3751 152.441 89.4725C152.881 89.7897 153.033 89.9296 153.211 90.022C159.24 93.2365 159.512 98.0269 157.137 102.842C156.88 103.362 156.088 103.966 155.598 103.921C155.109 103.876 154.497 103.142 154.277 102.578C153.355 100.984 153.355 100.984 152.913 100.018C152.219 98.1119 149.372 96.1562 147.366 96.2536C145.89 96.3261 143.797 96.9155 142.323 97.0254" stroke="#3C3C3B" stroke-miterlimit="10" stroke-linecap="round" stroke-linejoin="round"/>
<path d="M152.441 89.4725C151.799 89.5624 150.236 89.8272 149.786 89.8971C148.512 90.0944 145.66 90.6639 144.394 90.9012" stroke="#3C3C3B" stroke-miterlimit="10" stroke-linecap="round" stroke-linejoin="round"/>
<path d="M135.67 76.1475C135.483 76.5047 135.293 76.8644 135.106 77.2215C134.559 76.9218 133.914 76.7095 133.51 76.2749C133.35 76.1026 133.725 75.4332 133.857 74.9911C133.969 75.0361 134.082 75.0835 134.194 75.1285C134.296 75.5931 134.399 76.0601 134.499 76.5247C134.786 76.3523 135.071 76.1825 135.358 76.0102C135.463 76.0576 135.565 76.1026 135.67 76.1475Z" stroke="#3C3C3B" stroke-miterlimit="10" stroke-linecap="round" stroke-linejoin="round"/>
<path d="M130.41 70.0358C129.808 70.4729 129.428 70.9424 129.188 70.88C128.769 70.7701 128.439 70.3305 128.069 70.0308C128.312 69.7386 128.606 69.1716 128.786 69.2041C129.266 69.294 129.695 69.6437 130.41 70.0358Z" stroke="#3C3C3B" stroke-miterlimit="10" stroke-linecap="round" stroke-linejoin="round"/>
<path d="M123.895 72.8407C124.532 72.983 125.172 73.1229 125.911 73.2877C125.773 72.9955 125.691 72.8257 125.611 72.6558C125.676 72.5634 125.743 72.4685 125.808 72.3761C126.158 72.6533 126.508 72.9331 126.86 73.2103C126.485 73.4501 126.096 73.9121 125.743 73.8847C125.057 73.8347 124.387 73.51 123.713 73.3002C123.77 73.1479 123.833 72.9955 123.895 72.8407Z" stroke="#3C3C3B" stroke-miterlimit="10" stroke-linecap="round" stroke-linejoin="round"/>
<path d="M116.96 79.1472C116.49 79.402 116.041 79.7392 115.538 79.864C115.381 79.904 114.889 79.377 114.892 79.1147C114.897 78.7376 115.216 78.3655 115.404 77.9908C115.529 78.0458 115.656 78.0982 115.781 78.1532C115.798 78.5078 115.813 78.8625 115.836 79.3071C116.173 79.0848 116.438 78.9099 116.705 78.7351C116.79 78.8725 116.875 79.0098 116.96 79.1472Z" stroke="#3C3C3B" stroke-miterlimit="10" stroke-linecap="round" stroke-linejoin="round"/>
<path d="M115.243 74.9037C115.328 75.3533 115.583 75.8703 115.441 76.2325C115.341 76.4897 114.706 76.5372 114.309 76.6795C114.257 76.5671 114.207 76.4547 114.154 76.3399C114.364 75.8978 114.576 75.4582 114.786 75.0161C114.939 74.9786 115.091 74.9412 115.243 74.9037Z" stroke="#3C3C3B" stroke-miterlimit="10" stroke-linecap="round" stroke-linejoin="round"/>
<path d="M109.819 80.2612C109.342 80.3461 108.865 80.471 108.385 80.476C108.318 80.476 108.24 79.9115 108.168 79.6093C108.71 79.6093 109.254 79.6093 109.796 79.6093C109.804 79.8266 109.811 80.0439 109.819 80.2612Z" stroke="#3C3C3B" stroke-miterlimit="10" stroke-linecap="round" stroke-linejoin="round"/>
<path d="M106.155 93.3788C106.46 93.6036 106.755 93.8434 107.074 94.0457C107.472 94.2955 107.866 94.6152 108.306 94.7251C111.081 95.4169 113.836 96.3485 116.655 96.6557C122.01 97.2377 127.415 97.6698 132.77 96.6008C136.594 95.8365 139.936 94.228 142.079 90.7313" stroke="#3C3C3B" stroke-miterlimit="10" stroke-linecap="round" stroke-linejoin="round"/>
<path d="M103.142 86.1956C103.519 84.5247 104.595 85.259 104.748 85.2839C105.07 85.3364 105.444 85.5936 105.619 85.8784C105.887 86.313 105.897 86.9324 106.211 87.3095C106.653 87.839 107.238 88.4759 107.835 88.5633C108.214 88.6183 108.741 87.7716 109.168 87.2995C109.306 87.1497 109.286 86.8025 109.431 86.7251C109.728 86.5677 110.09 86.5303 110.425 86.4428C110.455 86.7426 110.552 87.0598 110.492 87.3395C110.445 87.5568 110.202 87.7316 109.905 88.0963C110.505 88.3136 110.899 88.4585 111.376 88.6308C111.409 89.0579 111.399 89.5274 111.486 89.9795C111.654 90.8337 112.143 91.4431 113.072 91.3982C114.036 91.3507 114.426 90.6489 114.413 89.7847C114.404 89.1428 114.081 88.4934 114.141 87.869C114.189 87.377 114.601 86.9174 114.851 86.4428C115.263 86.845 116.069 87.307 116.019 87.6417C115.787 89.1903 116.749 89.1953 117.733 89.1328C118.844 89.0604 119.948 88.8656 121.182 88.7082C120.74 89.8571 121.097 90.579 122.346 90.6239C123.662 90.6714 124.079 89.7273 123.942 86.9798C125.138 87.347 125.748 86.7875 126.365 85.7835C126.595 85.4113 127.816 85.6486 128.585 85.6086C128.553 86.1157 128.543 86.6277 128.483 87.1322C128.435 87.5168 128.156 88.1462 128.278 88.2312C128.663 88.4934 129.215 88.7182 129.649 88.6433C130.111 88.5634 130.531 88.1487 130.938 87.8415C131.303 87.5643 131.63 87.2346 132.064 86.8475C132.634 88.0813 133.533 88.1787 134.517 87.8116C135.621 87.3994 135.816 86.5477 135.551 85.4688C135.489 85.209 135.666 84.7245 135.876 84.6146C136.071 84.5122 136.448 84.8044 136.757 84.8718C137.627 85.0616 138.566 85.4912 139.35 85.3014C139.872 85.1765 140.496 84.16 140.514 83.5256C140.559 82.022 142.122 82.012 142.317 80.7732C142.679 81.0729 142.764 81.1154 142.807 81.1828C143.151 81.7248 143.489 82.2718 143.828 82.8188C144.285 82.3192 144.737 81.8122 145.205 81.3227" stroke="#3C3C3B" stroke-miterlimit="10" stroke-linecap="round" stroke-linejoin="round"/>
<path d="M144.706 84.3573C142.672 85.3364 140.639 86.3679 138.504 87.0673C133.186 88.8131 127.904 90.8787 122.437 91.8877" stroke="#3C3C3B" stroke-miterlimit="10" stroke-linecap="round" stroke-linejoin="round"/>
<path d="M102.511 66.8887C107.466 65.4651 112.284 64.0364 117.474 65.4801C117.991 65.6249 118.421 66.077 118.893 66.3842C118.498 66.8163 118.183 67.4607 117.696 67.6405C116.405 68.1201 113.533 68.9068 112.069 68.9068" stroke="#3C3C3B" stroke-miterlimit="10" stroke-linecap="round" stroke-linejoin="round"/>
<path d="M136.326 64.3212C135.974 64.1164 135.769 63.4944 135.677 63.0274C134.99 59.5806 136.369 53.1642 137.805 50.1595C137.955 49.8473 138.812 48.506 138.959 48.1913" stroke="#3C3C3B" stroke-miterlimit="10" stroke-linecap="round" stroke-linejoin="round"/>
<path d="M106 91.643C107.209 91.9352 108.415 92.2274 109.624 92.5196C109.599 92.6245 109.574 92.7294 109.552 92.8343C108.343 92.5321 106.944 93.0666 106 91.643Z" stroke="#3C3C3B" stroke-miterlimit="10" stroke-linecap="round" stroke-linejoin="round"/>
</g>
<defs>
<clipPath id="clip0_160_477">
<rect width="315" height="202" fill="white"/>
</clipPath>
</defs>
</svg>
