<svg width="497" height="319" viewBox="0 0 497 319" fill="none" xmlns="http://www.w3.org/2000/svg">
<path d="M214.676 317.979C301.792 317.979 372.414 246.901 372.414 159.222C372.414 71.5429 301.792 0.464844 214.676 0.464844C127.559 0.464844 56.9375 71.5429 56.9375 159.222C56.9375 246.901 127.559 317.979 214.676 317.979Z" fill="#E3AEB8"/>
<mask id="mask0_65_4048" style="mask-type:luminance" maskUnits="userSpaceOnUse" x="6" y="0" width="487" height="319">
<path d="M492.013 0.185913H6.0127V318.256H492.013V0.185913Z" fill="white"/>
</mask>
<g mask="url(#mask0_65_4048)">
<path d="M175.477 59.1123C175.477 59.1123 156.715 51.2833 140.038 60.1778C123.361 69.026 110.297 113.359 97.2799 126.423C84.2625 139.441 48.2676 189.518 42.5233 194.753C36.7789 199.988 23.7615 214.025 23.7615 214.025C23.7615 214.025 16.998 222.873 18.5267 229.127C20.1018 235.381 23.2056 246.313 42.0137 242.144C42.0137 242.144 80.7652 232.585 86 230.5C91.2348 228.415 135.927 218.585 149.5 216.5C149.5 216.5 158.337 215.044 168.76 212.913L152.592 178.493L142.679 186.322L99 193.5C99 193.5 106.256 182.153 112 178.493C117.744 174.833 161.821 138.244 166.5 132.5C171.179 126.756 168.251 123.18 178.674 116.417C189.004 109.7 196.324 74.2607 175.477 59.1123Z" fill="#FFFBFA"/>
</g>
<mask id="mask1_65_4048" style="mask-type:luminance" maskUnits="userSpaceOnUse" x="6" y="0" width="487" height="319">
<path d="M492.013 0.185913H6.0127V318.256H492.013V0.185913Z" fill="white"/>
</mask>
<g mask="url(#mask1_65_4048)">
<path d="M375.694 89.8724C375.694 89.8724 400.2 131.612 406.454 139.95C412.708 148.289 448.193 190.538 448.193 190.538C448.193 190.538 464.87 209.809 467.465 213.469C470.059 217.128 478.953 227.552 471.124 236.4C463.295 245.248 451.853 241.079 447.637 240.569C443.468 240.059 391.5 225.5 391.5 225.5C391.5 225.5 344.075 214.99 342.5 215.5C340.925 216.01 330.295 218.703 320.381 212.959C310.468 207.215 336.039 180.624 336.039 180.624L339.19 179.558L352.207 187.897C352.207 187.897 365.224 189.472 371.478 190.491C377.732 191.557 398.579 195.17 398.579 195.17C398.579 195.17 385.561 179.003 382.921 176.918C380.327 174.833 363.649 162.325 360.499 160.241C357.349 158.156 333.679 139.848 329 131C324.321 122.152 345.907 93.4858 345.907 93.4858L375.694 89.8724Z" fill="#FFFBFA"/>
</g>
<mask id="mask2_65_4048" style="mask-type:luminance" maskUnits="userSpaceOnUse" x="6" y="0" width="487" height="319">
<path d="M492.013 0.185913H6.0127V318.256H492.013V0.185913Z" fill="white"/>
</mask>
<g mask="url(#mask2_65_4048)">
<path d="M327.612 119.474C327.612 119.474 327.844 136.615 334.7 148.891C341.556 161.121 347.208 184.423 335.209 198.367C323.211 212.311 310.472 202.999 310.472 202.999L327.612 119.474Z" fill="white"/>
</g>
<mask id="mask3_65_4048" style="mask-type:luminance" maskUnits="userSpaceOnUse" x="6" y="0" width="487" height="319">
<path d="M492.013 0.185913H6.0127V318.256H492.013V0.185913Z" fill="white"/>
</mask>
<g mask="url(#mask3_65_4048)">
<path d="M376.153 96.4971C373.975 88.7144 367.119 51.2835 329.457 58.0933C329.457 58.0933 305.923 66.3392 292.813 51.2835C292.813 51.2835 287.856 49.8474 285.633 36.4593C283.455 23.1176 282.251 -4.81662 284.892 -13.8038C287.578 -22.7909 217.232 -22.8146 217 -8.5C217 -8.5 223 9.12625 223 14.5C223 19.8274 229.76 31.6984 213.5 55.0001C213.5 55.0001 210.493 65.3664 186.218 61.7067C180.937 60.9192 175.61 57.4447 171.95 56.7499C171.765 57.6764 172.599 61.2434 172.274 62.1699C190.527 93.0227 192.102 69.5357 152.447 168.116L149.992 182.662C150.779 185.766 151.243 189.75 151.289 194.753L164.168 210.643C164.168 210.643 167 212 168.5 214C168.5 214 167.722 233.155 168 237C168.232 240.891 171.813 258.308 174.5 268.5C177.187 278.692 176.141 278.441 173.5 284C170.813 289.605 160.5 308.5 160.5 308.5C160.5 308.5 163.658 311.262 148.093 334.146C141.792 343.412 130.86 352.677 130.86 352.677C130.86 352.677 134.519 347.025 128.219 356.985C91.205 408.777 100.192 460.846 102.972 516.715C103.342 517.039 105.381 525.47 105.751 525.795C105.751 525.795 132.064 622.661 167.04 674.36L171.996 696.689L215.774 656.525C215.774 656.525 219.248 628.637 224.483 577.123C233.1 492.811 215.079 433.978 215.079 433.978C215.079 433.978 313.428 383.39 314.308 378.573C316.717 365.323 322 327.5 322 327.5L331.588 265.5L336 206C336 206 327.743 168.718 328.252 131.01C328.345 130.963 378.33 104.233 376.153 96.4971Z" fill="#FFFBFA"/>
</g>
<mask id="mask4_65_4048" style="mask-type:luminance" maskUnits="userSpaceOnUse" x="1" y="0" width="487" height="319">
<path d="M487.013 0.185913H1.0127V318.256H487.013V0.185913Z" fill="white"/>
</mask>
<g mask="url(#mask4_65_4048)">
<path d="M219.293 -1.8988C219.293 -1.8988 219.663 0.278492 220.405 3.9382C220.775 5.74489 221.192 7.96851 221.655 10.4701C221.841 11.7209 222.072 13.0643 222.258 14.4077C222.397 15.7975 222.674 17.2336 222.721 18.7623C222.767 19.5035 222.813 20.2911 222.906 21.0786C222.952 21.8661 222.952 22.6537 222.952 23.4412C223.045 25.0626 222.906 26.684 222.86 28.3517C222.813 29.1856 222.674 30.0194 222.582 30.8533C222.489 31.6871 222.443 32.5673 222.211 33.4012C221.887 35.1152 221.563 36.8293 221.053 38.497C220.775 39.3308 220.636 40.211 220.266 41.0449C219.941 41.8787 219.617 42.7126 219.293 43.5464C219.015 44.3803 218.598 45.2142 218.227 46.0017L217.069 48.4106C216.235 49.9857 215.262 51.5144 214.382 53.0895C213.363 54.5256 212.39 56.008 211.371 57.4904C211.371 57.4904 212.622 56.1006 214.753 53.6917C215.262 53.0432 215.772 52.3019 216.374 51.5144C216.93 50.6806 217.625 49.8467 218.181 48.8275C218.737 47.8084 219.385 46.7429 220.034 45.5848C220.636 44.4266 221.146 43.1295 221.748 41.7861C222.35 40.4426 222.721 38.9602 223.23 37.4315C223.647 35.9027 223.972 34.2814 224.296 32.5673C224.481 30.8533 224.805 29.0929 224.805 27.2862C224.805 26.3597 224.898 25.4795 224.852 24.5067C224.805 23.5802 224.759 22.6537 224.713 21.6808C224.666 20.708 224.528 19.7815 224.435 18.8087C224.342 17.8358 224.203 16.863 224.018 15.8902C223.694 13.9445 223.277 11.9988 222.767 10.0068C222.258 8.01484 221.702 6.02285 221.099 4.03085C220.544 2.17784 219.941 0.139515 219.293 -1.8988Z" fill="#3C3C3B"/>
</g>
<mask id="mask5_65_4048" style="mask-type:luminance" maskUnits="userSpaceOnUse" x="6" y="0" width="487" height="319">
<path d="M492.013 0.185913H6.0127V318.256H492.013V0.185913Z" fill="white"/>
</mask>
<g mask="url(#mask5_65_4048)">
<path d="M286.74 -22.4674C286.74 -22.4674 286.509 -21.8652 286.092 -20.707C285.907 -20.1511 285.629 -19.4563 285.397 -18.5761C285.165 -17.7422 284.841 -16.7694 284.61 -15.6576C284.378 -14.5458 284.054 -13.3413 283.822 -12.0442C283.637 -10.7007 283.312 -9.31099 283.127 -7.78225C282.71 -4.72477 282.432 -1.29669 282.293 2.40934C282.015 9.82141 282.34 18.299 283.544 26.9155C283.868 29.0928 284.193 31.2238 284.656 33.4011C285.073 35.532 285.675 37.7093 286.185 39.794C286.694 41.8786 287.204 44.0559 288.084 46.0942C288.918 48.0862 290.261 50.0319 292.068 51.051C292.068 51.0047 291.605 50.7268 290.956 49.9855C290.308 49.2443 289.52 47.9472 288.918 46.1405C288.316 44.3339 287.945 42.0176 287.528 39.2844C287.065 36.5512 286.509 33.54 286.092 30.1119C285.212 23.3021 284.517 15.2415 284.332 6.30068C284.285 4.07706 284.285 1.76079 284.285 -0.555483C284.332 -2.87175 284.424 -5.28068 284.563 -7.6896C284.702 -10.0985 284.934 -12.5538 285.258 -15.009C285.629 -17.5106 286.092 -20.0122 286.74 -22.4674Z" fill="#3C3C3B"/>
</g>
<mask id="mask6_65_4048" style="mask-type:luminance" maskUnits="userSpaceOnUse" x="6" y="0" width="487" height="319">
<path d="M492.013 0.185913H6.0127V318.256H492.013V0.185913Z" fill="white"/>
</mask>
<g mask="url(#mask6_65_4048)">
<path d="M289.669 48.5968C289.669 48.5968 289.901 48.9211 290.317 49.477C290.549 49.7549 290.781 50.1255 291.105 50.5425C291.383 50.9594 291.8 51.3763 292.263 51.8859C292.68 52.3492 293.19 52.9051 293.746 53.4146C294.348 53.9242 294.904 54.5728 295.645 55.0824C296.386 55.5919 297.081 56.2405 297.961 56.7501C298.795 57.2597 299.675 57.8619 300.694 58.2788C301.204 58.5104 301.667 58.7884 302.177 59.02C302.686 59.2053 303.242 59.437 303.752 59.6223C304.817 60.0855 305.976 60.3171 307.134 60.6877C308.338 60.9194 309.543 61.2436 310.793 61.3363C311.396 61.3826 312.044 61.4753 312.693 61.5216C313.341 61.5216 313.943 61.5216 314.592 61.5679C315.889 61.6142 317.14 61.4289 318.437 61.3363C319.688 61.1047 320.985 60.9657 322.236 60.5951C322.838 60.4098 323.487 60.2708 324.089 60.0855C324.691 59.8539 325.247 59.6686 325.849 59.437C327.007 59.02 328.119 58.3715 329.185 57.8619C329.185 57.8619 328.86 57.9545 328.304 58.0935C327.748 58.2325 326.915 58.5568 325.803 58.7884C325.247 58.9274 324.645 59.0664 323.996 59.2053C323.348 59.3443 322.606 59.437 321.819 59.5759C321.031 59.7149 320.197 59.7612 319.317 59.8539C318.437 59.9465 317.511 59.9929 316.538 59.9929C315.565 60.0392 314.546 59.9465 313.48 59.9002C312.415 59.9002 311.349 59.6686 310.191 59.5296C309.079 59.298 307.921 59.159 306.763 58.7884C306.161 58.6494 305.605 58.4641 305.003 58.3252C304.4 58.1398 303.845 57.9082 303.242 57.7229C302.64 57.5376 302.038 57.2597 301.482 57.028C300.88 56.7501 300.277 56.5648 299.675 56.1942C299.073 55.8699 298.517 55.592 297.915 55.2677C297.359 54.8971 296.757 54.5728 296.155 54.2022C295.552 53.8779 295.043 53.4146 294.44 52.9977C293.885 52.5808 293.282 52.1639 292.773 51.7006C291.707 50.7278 290.688 49.6623 289.669 48.5968Z" fill="#3C3C3B"/>
</g>
<mask id="mask7_65_4048" style="mask-type:luminance" maskUnits="userSpaceOnUse" x="6" y="0" width="487" height="319">
<path d="M492.013 0.185913H6.0127V318.256H492.013V0.185913Z" fill="white"/>
</mask>
<g mask="url(#mask7_65_4048)">
<path d="M179.41 71.574C179.41 71.574 186.127 73.9366 195.022 77.0867C204.148 80.2368 215.776 84.3598 226.338 87.5099C226.338 87.5099 221.196 85.0547 212.718 81.8119C204.287 78.5691 192.52 74.5851 179.41 71.574Z" fill="#3C3C3B"/>
</g>
<mask id="mask8_65_4048" style="mask-type:luminance" maskUnits="userSpaceOnUse" x="6" y="0" width="487" height="319">
<path d="M492.013 0.185913H6.0127V318.256H492.013V0.185913Z" fill="white"/>
</mask>
<g mask="url(#mask8_65_4048)">
<path d="M323.53 69.0255C323.53 69.0255 323.021 68.8866 322.048 68.6549C321.538 68.5623 320.936 68.4233 320.241 68.377C319.5 68.2843 318.712 68.238 317.74 68.1917C315.887 68.1453 313.617 68.3307 311.115 68.8402C308.613 69.3035 305.88 70.091 303.008 71.1102C297.264 73.1022 290.824 75.7427 284.385 78.8929C277.946 82.043 271.553 85.749 265.901 89.733C265.901 89.733 267.523 88.9455 270.395 87.5094C273.267 86.0733 277.436 84.0813 282.579 81.7187C287.721 79.3561 293.836 76.6692 300.692 73.8897C304.12 72.4999 307.687 71.0639 311.486 70.0447C315.238 68.9329 319.361 68.377 323.53 69.0255Z" fill="#3C3C3B"/>
</g>
<mask id="mask9_65_4048" style="mask-type:luminance" maskUnits="userSpaceOnUse" x="10" y="0" width="487" height="319">
<path d="M496.013 0.185913H10.0127V318.256H496.013V0.185913Z" fill="white"/>
</mask>
<g mask="url(#mask9_65_4048)">
<path d="M333.744 237.419C333.744 237.419 333.373 241.125 332.725 247.333C332.401 250.436 332.03 254.235 331.567 258.451C331.15 262.713 330.594 267.484 329.992 272.58C329.714 275.128 329.297 277.768 328.973 280.502C328.556 283.188 328.231 286.014 327.768 288.84C327.351 291.666 326.888 294.538 326.332 297.457C325.869 300.375 325.22 303.294 324.711 306.305C324.062 309.27 323.553 312.281 322.858 315.246L321.885 319.739L320.819 324.186C320.171 327.151 319.337 330.116 318.642 333.035C317.901 335.953 317.113 338.825 316.372 341.697C316.372 341.697 316.65 341.003 317.16 339.659C317.438 338.964 317.762 338.13 318.132 337.158C318.503 336.185 318.966 335.027 319.43 333.73C320.31 331.135 321.468 327.985 322.58 324.279C323.136 322.426 323.784 320.434 324.34 318.349C324.896 316.218 325.544 313.995 326.1 311.632C326.656 309.27 327.305 306.814 327.814 304.22C328.37 301.626 328.88 298.939 329.39 296.16C329.899 293.38 330.316 290.462 330.779 287.497C331.15 284.486 331.567 281.428 331.891 278.278C332.586 271.978 333.049 265.353 333.327 258.543C333.559 251.641 333.698 244.599 333.744 237.419Z" fill="#3C3C3B"/>
</g>
<mask id="mask10_65_4048" style="mask-type:luminance" maskUnits="userSpaceOnUse" x="0" y="0" width="487" height="319">
<path d="M486.013 0.185913H0.0126953V318.256H486.013V0.185913Z" fill="white"/>
</mask>
<g mask="url(#mask10_65_4048)">
<path d="M168.402 218.796C168.402 218.796 168.309 219.723 168.124 221.437C167.938 223.151 167.707 225.652 167.521 228.849C167.197 235.195 166.919 244.275 168.633 254.745C169.143 257.478 169.93 260.026 170.718 262.759C171.552 265.4 172.386 268.133 173.266 270.912C173.683 272.209 173.868 273.553 174.007 274.896C174.1 276.24 173.961 277.537 173.683 278.88C173.08 281.521 171.691 284.161 170.301 286.895C168.865 289.628 167.66 292.593 166.456 295.419C165.251 298.244 163.954 301.07 162.611 303.803C159.878 309.27 156.681 314.551 153.438 319.554C153.438 319.554 153.948 318.952 154.921 317.886C155.847 316.775 157.283 315.107 158.951 312.883C160.619 310.66 162.611 307.88 164.649 304.498C165.668 302.784 166.688 300.978 167.707 298.986C168.726 296.994 169.791 294.863 170.811 292.685C171.876 290.508 173.08 288.331 174.378 285.922C175.628 283.513 176.925 280.78 177.296 277.583C177.481 276.008 177.389 274.387 177.157 272.765C176.879 271.19 176.416 269.569 175.906 268.179C174.98 265.307 173.961 262.342 172.988 259.331C172.525 257.849 172.015 256.274 171.644 254.791C171.32 253.262 170.996 251.641 170.718 250.02C170.162 246.777 169.745 243.441 169.421 240.013C168.726 233.157 168.448 226.069 168.402 218.796Z" fill="#3C3C3B"/>
</g>
<mask id="mask11_65_4048" style="mask-type:luminance" maskUnits="userSpaceOnUse" x="6" y="0" width="487" height="319">
<path d="M492.013 0.185913H6.0127V318.256H492.013V0.185913Z" fill="white"/>
</mask>
<g mask="url(#mask11_65_4048)">
<path d="M245.571 221.807C245.571 221.807 245.2 222.548 244.505 223.891C244.181 224.586 243.764 225.42 243.254 226.393C242.837 227.412 242.374 228.57 241.865 229.867C241.633 230.516 241.309 231.211 241.077 231.952C240.845 232.693 240.614 233.481 240.382 234.268C240.15 235.056 239.873 235.89 239.595 236.77C239.363 237.65 239.131 238.53 238.9 239.503C238.436 241.356 237.973 243.348 237.603 245.433C237.417 246.498 237.186 247.564 237 248.629C236.815 249.741 236.676 250.853 236.491 252.011C236.12 254.281 235.842 256.69 235.611 259.099C235.333 261.554 235.147 264.056 234.916 266.603C234.499 271.746 234.174 277.027 233.897 282.447C233.758 285.134 233.619 287.867 233.48 290.554C233.341 293.241 233.155 295.974 233.016 298.707C232.785 301.394 232.646 304.127 232.321 306.768C232.09 309.454 231.673 312.049 231.349 314.689C231.349 314.689 231.534 314.041 231.905 312.79C232.09 312.188 232.275 311.4 232.553 310.474C232.831 309.547 233.016 308.482 233.294 307.323C233.526 306.119 233.85 304.822 234.082 303.34C234.313 301.857 234.591 300.282 234.869 298.568C235.333 295.14 235.842 291.249 236.259 286.94C236.676 282.632 237.047 277.953 237.417 272.95C237.788 267.947 238.112 262.573 238.622 257.014C238.853 254.235 239.178 251.409 239.502 248.49C239.873 245.618 240.243 242.653 240.799 239.688C240.938 238.947 241.031 238.206 241.17 237.465C241.355 236.724 241.494 235.982 241.679 235.241C242.05 233.759 242.281 232.23 242.745 230.748C243.208 229.265 243.532 227.736 244.042 226.254C244.505 224.772 245.015 223.289 245.571 221.807Z" fill="#3C3C3B"/>
</g>
<mask id="mask12_65_4048" style="mask-type:luminance" maskUnits="userSpaceOnUse" x="6" y="0" width="487" height="319">
<path d="M492.013 0.185913H6.0127V318.256H492.013V0.185913Z" fill="white"/>
</mask>
<g mask="url(#mask12_65_4048)">
<path d="M215.817 57.8607C215.817 57.8607 215.539 58.046 215.076 58.3703C214.844 58.5556 214.52 58.7409 214.195 58.9725C213.825 59.1578 213.362 59.3895 212.898 59.6211C212.435 59.899 211.879 60.0843 211.231 60.2696C210.628 60.5013 209.98 60.7329 209.239 60.8719C208.544 61.0572 207.756 61.2425 206.969 61.3815C206.181 61.5204 205.347 61.7057 204.467 61.7521C203.587 61.8447 202.66 61.9837 201.734 62.03C200.807 62.1227 199.834 62.169 198.815 62.169C197.842 62.2153 196.823 62.2153 195.804 62.169C194.785 62.169 193.766 62.0763 192.7 62.0763C190.616 61.9374 188.485 61.7521 186.4 61.4278C185.335 61.2888 184.315 61.0572 183.296 60.8719C182.787 60.7329 182.277 60.6402 181.768 60.5013C181.304 60.316 180.795 60.177 180.285 59.9917C180.285 59.9917 180.517 60.1307 180.98 60.3623C181.443 60.5939 182.092 60.8719 183.018 61.2425C183.482 61.4278 183.991 61.5204 184.547 61.7057C185.103 61.891 185.705 62.03 186.354 62.169C187.002 62.308 187.697 62.4933 188.485 62.5859C189.226 62.7249 190.013 62.8639 190.894 62.9565C191.728 63.0492 192.608 63.1418 193.534 63.1881C194.461 63.2808 195.387 63.3271 196.406 63.3271C197.379 63.3734 198.398 63.3271 199.464 63.2808C200.529 63.2808 201.595 63.0955 202.707 63.0028C203.818 62.8639 204.93 62.6786 206.042 62.4469C207.154 62.2153 208.312 61.9374 209.47 61.5204C210.026 61.3351 210.628 61.1498 211.138 60.8719C211.694 60.5939 212.25 60.4086 212.806 60.0843C213.315 59.7601 213.871 59.4358 214.381 59.0652C214.89 58.6946 215.353 58.2776 215.817 57.8607Z" fill="#563E3D"/>
</g>
<mask id="mask13_65_4048" style="mask-type:luminance" maskUnits="userSpaceOnUse" x="6" y="0" width="487" height="319">
<path d="M492.013 0.185913H6.0127V318.256H492.013V0.185913Z" fill="white"/>
</mask>
<g mask="url(#mask13_65_4048)">
<path d="M331.312 57.352C331.312 57.352 331.776 57.3057 332.656 57.2594C333.536 57.1668 334.88 57.1204 336.547 57.1668C338.261 57.2594 340.346 57.3984 342.709 57.9543C345.071 58.4639 347.712 59.2977 350.491 60.5948C353.271 61.8919 356.143 63.6986 358.83 66.1076C361.517 68.5165 363.972 71.4813 365.964 75.141C368.002 78.7544 369.855 82.831 371.847 87.1856C372.866 89.3629 373.886 91.5402 374.951 93.8102C376.063 96.0338 377.175 98.3501 378.379 100.666C380.788 105.299 383.429 109.978 386.254 114.749C387.691 117.112 389.173 119.474 390.655 121.883C392.23 124.246 393.805 126.609 395.427 129.064C397.002 131.473 398.716 133.835 400.43 136.244C402.144 138.607 403.812 141.108 405.665 143.425C409.278 148.15 412.892 153.014 416.783 157.693C418.729 160.056 420.628 162.418 422.574 164.781C424.519 167.143 426.558 169.413 428.55 171.776C432.58 176.408 436.61 181.041 440.826 185.488C444.995 189.935 449.118 194.429 453.426 198.691C457.688 202.953 461.95 207.168 466.166 211.291C466.166 211.291 462.413 206.474 455.511 198.042C453.797 195.911 451.851 193.595 449.813 191.001C447.728 188.407 445.505 185.627 443.096 182.616C440.687 179.605 438.093 176.408 435.452 172.98C432.765 169.552 429.939 165.939 426.928 162.14C424.01 158.295 420.952 154.311 417.756 150.142C414.652 145.926 411.409 141.572 408.074 137.032C404.831 132.446 401.403 127.767 398.114 122.81C397.28 121.559 396.446 120.355 395.566 119.104C394.732 117.853 393.944 116.556 393.111 115.305C391.443 112.757 389.775 110.163 388.154 107.476C384.818 102.195 381.761 96.5897 378.611 90.8453C375.461 85.101 372.681 79.0324 368.79 73.1027C365.037 67.0341 359.108 62.1699 352.483 59.4367C345.905 56.5645 338.354 55.7307 331.312 57.352Z" fill="#3C3C3B"/>
</g>
<mask id="mask14_65_4048" style="mask-type:luminance" maskUnits="userSpaceOnUse" x="6" y="0" width="487" height="319">
<path d="M492.013 0.185913H6.0127V318.256H492.013V0.185913Z" fill="white"/>
</mask>
<g mask="url(#mask14_65_4048)">
<path d="M199.431 222.641C199.431 222.641 199.894 222.641 200.728 222.641C201.562 222.687 202.812 222.595 204.341 222.502C205.129 222.409 205.963 222.317 206.889 222.178C207.816 222.039 208.788 221.807 209.808 221.622C210.827 221.39 211.939 221.066 213.05 220.788C214.162 220.417 215.367 220.047 216.571 219.583C217.776 219.074 219.026 218.657 220.231 218.008C220.833 217.684 221.482 217.406 222.084 217.082C222.686 216.758 223.288 216.387 223.937 216.016C225.188 215.321 226.392 214.441 227.597 213.561C228.801 212.681 229.913 211.662 231.071 210.643C232.09 209.531 233.248 208.465 234.128 207.215L235.518 205.362L236.676 203.37C237.51 202.072 238.02 200.636 238.576 199.247C239.132 197.857 239.41 196.374 239.78 194.985C239.78 194.985 239.641 195.309 239.317 195.957C239.178 196.282 238.993 196.699 238.761 197.162C238.529 197.625 238.344 198.181 238.02 198.737C237.695 199.293 237.325 199.941 236.908 200.636C236.537 201.331 236.028 202.026 235.472 202.814C234.916 203.555 234.406 204.389 233.665 205.13C232.924 205.871 232.322 206.798 231.442 207.539C230.561 208.326 229.774 209.207 228.755 209.994C227.782 210.782 226.763 211.615 225.651 212.357C225.095 212.727 224.539 213.144 223.937 213.515C223.335 213.885 222.732 214.256 222.13 214.627C220.926 215.414 219.582 216.016 218.239 216.758C216.849 217.36 215.459 218.101 213.977 218.657C212.494 219.305 210.966 219.815 209.437 220.325C208.649 220.556 207.862 220.788 207.028 221.066C206.194 221.251 205.407 221.483 204.573 221.714C202.905 222.085 201.191 222.409 199.431 222.641Z" fill="#3C3C3B"/>
</g>
<mask id="mask15_65_4048" style="mask-type:luminance" maskUnits="userSpaceOnUse" x="6" y="0" width="487" height="319">
<path d="M492.013 0.185913H6.0127V318.256H492.013V0.185913Z" fill="white"/>
</mask>
<g mask="url(#mask15_65_4048)">
<path d="M321.489 213.329C321.489 213.329 321.211 213.468 320.748 213.699C320.284 213.931 319.543 214.302 318.663 214.719C318.2 214.904 317.736 215.182 317.18 215.367C316.625 215.599 316.069 215.877 315.42 216.108C314.169 216.618 312.733 217.127 311.204 217.591C309.676 218.1 308.008 218.517 306.248 218.888C304.487 219.258 302.634 219.629 300.781 219.814C297.029 220.324 293.091 220.417 289.339 220.278C289.339 220.278 289.571 220.324 290.034 220.417C290.497 220.509 291.146 220.694 292.026 220.787C292.906 220.926 293.925 221.065 295.176 221.158C295.778 221.204 296.473 221.204 297.168 221.25C297.863 221.297 298.604 221.25 299.392 221.25C300.967 221.204 302.634 221.019 304.441 220.741C306.248 220.417 308.147 219.953 310.046 219.351C311.019 219.027 311.992 218.703 312.965 218.239C313.938 217.822 314.911 217.359 315.883 216.849C316.856 216.34 317.829 215.784 318.756 215.182C319.636 214.672 320.562 213.977 321.489 213.329Z" fill="#3C3C3B"/>
</g>
<mask id="mask16_65_4048" style="mask-type:luminance" maskUnits="userSpaceOnUse" x="6" y="0" width="487" height="319">
<path d="M492.013 0.185913H6.0127V318.256H492.013V0.185913Z" fill="white"/>
</mask>
<g mask="url(#mask16_65_4048)">
<path d="M346.832 93.5322C346.832 93.5322 346.183 94.0881 344.979 95.061C344.377 95.5706 343.682 96.2191 342.848 96.9603C342.06 97.7478 341.087 98.628 340.115 99.6935C339.095 100.713 338.076 101.917 336.965 103.261C335.899 104.604 334.741 106.086 333.675 107.754C332.61 109.422 331.498 111.229 330.572 113.267C329.599 115.259 328.811 117.482 328.163 119.845C327.607 122.208 327.19 124.709 327.144 127.35C327.144 129.944 327.421 132.677 328.07 135.318C329.367 140.645 331.869 145.648 334.324 150.605C335.575 153.107 336.779 155.562 337.845 158.11C338.91 160.658 339.837 163.252 340.578 165.893C341.319 168.533 341.782 171.22 342.014 173.953C342.199 176.686 342.107 179.42 341.782 182.06C341.782 182.06 341.968 181.365 342.246 180.068C342.524 178.771 342.848 176.825 342.941 174.277C343.033 171.73 342.848 168.626 342.107 165.105C341.412 161.584 340.161 157.647 338.401 153.57C336.64 149.447 334.417 145.139 332.564 140.46C331.637 138.097 330.85 135.642 330.294 133.048C329.784 130.454 329.599 127.767 329.738 124.987C330.155 119.474 332.1 113.776 335.112 108.449C338.169 103.214 342.199 98.1648 346.832 93.5322Z" fill="#3C3C3B"/>
</g>
<mask id="mask17_65_4048" style="mask-type:luminance" maskUnits="userSpaceOnUse" x="6" y="0" width="487" height="319">
<path d="M492.013 0.185913H6.0127V318.256H492.013V0.185913Z" fill="white"/>
</mask>
<g mask="url(#mask17_65_4048)">
<path d="M251.463 178.771C251.463 178.771 251.509 179.28 251.509 180.207C251.556 180.67 251.556 181.272 251.602 181.921C251.648 182.616 251.648 183.403 251.834 184.237C251.972 185.117 252.158 186.044 252.343 187.063C252.482 188.128 252.899 189.147 253.223 190.306C253.409 190.861 253.594 191.464 253.779 192.066C254.011 192.668 254.289 193.224 254.567 193.873C255.076 195.123 255.632 196.374 256.373 197.625C256.744 198.273 257.115 198.876 257.439 199.571C257.809 200.219 258.273 200.821 258.69 201.47C259.153 202.119 259.57 202.721 260.033 203.369C260.543 203.972 261.052 204.574 261.562 205.222C262.581 206.473 263.739 207.631 264.944 208.836C266.148 209.994 267.445 211.059 268.742 212.125C270.132 213.144 271.475 214.163 272.958 215.043C274.394 215.97 275.923 216.757 277.451 217.499L279.814 218.471C280.602 218.796 281.435 219.027 282.223 219.259C283.844 219.722 285.512 220 287.087 220.093C287.087 220.093 286.67 220 285.929 219.769C285.558 219.676 285.095 219.537 284.539 219.305C284.03 219.074 283.381 218.888 282.686 218.564C282.038 218.24 281.296 217.869 280.463 217.499C279.675 217.035 278.841 216.572 277.915 216.062C277.035 215.507 276.108 214.904 275.135 214.256C274.209 213.561 273.143 212.866 272.124 212.032C271.151 211.198 269.993 210.411 268.974 209.392C267.908 208.419 266.797 207.492 265.777 206.334C265.268 205.778 264.712 205.269 264.156 204.666C263.647 204.064 263.137 203.462 262.627 202.86C261.516 201.655 260.635 200.265 259.57 198.968C259.06 198.273 258.643 197.532 258.18 196.837C257.717 196.096 257.207 195.401 256.837 194.614C256.049 193.039 255.123 191.464 254.474 189.75C254.15 188.916 253.733 188.036 253.409 187.155C253.131 186.275 252.853 185.349 252.575 184.469C252.436 184.005 252.25 183.542 252.158 183.079L251.88 181.643C251.88 180.67 251.648 179.697 251.463 178.771Z" fill="#3C3C3B"/>
</g>
<mask id="mask18_65_4048" style="mask-type:luminance" maskUnits="userSpaceOnUse" x="6" y="0" width="487" height="319">
<path d="M492.013 0.185913H6.0127V318.256H492.013V0.185913Z" fill="white"/>
</mask>
<g mask="url(#mask18_65_4048)">
<path d="M167.14 212.912C167.14 212.912 167.325 213.098 167.649 213.422C167.974 213.746 168.437 214.256 169.132 214.858C169.78 215.46 170.568 216.155 171.494 216.896C172.467 217.638 173.579 218.425 174.83 219.12C177.331 220.602 180.528 221.853 183.909 222.409C187.291 223.011 190.858 222.965 194.101 222.594C194.101 222.594 193.221 222.502 191.738 222.409C190.21 222.27 188.032 222.085 185.438 221.575C184.79 221.483 184.095 221.297 183.4 221.158C182.705 221.019 181.964 220.788 181.223 220.602C179.74 220.139 178.211 219.583 176.636 218.888C175.061 218.147 173.486 217.313 171.865 216.294C170.336 215.275 168.715 214.163 167.14 212.912Z" fill="#3C3C3B"/>
</g>
<mask id="mask19_65_4048" style="mask-type:luminance" maskUnits="userSpaceOnUse" x="6" y="0" width="487" height="319">
<path d="M492.013 0.185913H6.0127V318.256H492.013V0.185913Z" fill="white"/>
</mask>
<g mask="url(#mask19_65_4048)">
<path d="M162.505 90.2893C162.505 90.2893 162.875 91.0305 163.616 92.4203C164.311 93.81 165.377 95.802 166.581 98.3499C167.786 100.898 169.129 104.048 170.148 107.754C171.167 111.414 171.723 115.676 171.029 120.123C170.38 124.57 168.481 129.156 166.118 133.696C163.709 138.236 161.022 143.008 158.613 148.011C157.409 150.512 156.251 153.06 155.232 155.701C154.212 158.341 153.286 160.982 152.591 163.715C151.85 166.448 151.387 169.228 151.155 171.961C150.923 174.741 151.109 177.474 151.479 180.114C151.479 180.114 151.479 179.419 151.479 178.122C151.433 177.474 151.525 176.686 151.618 175.713C151.664 174.787 151.803 173.675 152.035 172.471C152.174 171.266 152.545 169.923 152.869 168.487C153.286 167.051 153.703 165.522 154.259 163.854C154.815 162.233 155.463 160.472 156.251 158.666C156.992 156.859 157.872 154.96 158.799 153.014C160.698 149.123 162.968 144.907 165.469 140.413C167.925 135.92 170.704 131.056 172.279 125.311C173.067 122.485 173.53 119.382 173.437 116.278C173.345 113.174 172.65 110.07 171.631 107.059C169.592 101.129 166.118 95.6631 162.505 90.2893Z" fill="#3C3C3B"/>
</g>
<mask id="mask20_65_4048" style="mask-type:luminance" maskUnits="userSpaceOnUse" x="6" y="0" width="487" height="319">
<path d="M492.013 0.185913H6.0127V318.256H492.013V0.185913Z" fill="white"/>
</mask>
<g mask="url(#mask20_65_4048)">
<path d="M328.5 126.5C328.5 126.5 327.259 127.61 328 129C328.371 129.695 327.34 129.851 327.942 130.824C328.545 131.797 329.193 132.955 330.073 134.159C330.907 135.364 331.834 136.707 332.946 138.051C334.011 139.44 335.262 140.876 336.605 142.359C337.995 143.841 339.431 145.37 341.053 146.945C342.628 148.52 344.388 150.095 346.195 151.67C348.001 153.245 349.947 154.867 351.939 156.488C353.931 158.11 356.016 159.731 358.1 161.352C362.316 164.641 366.763 167.977 371.118 171.451C375.472 174.879 379.595 178.771 383.533 182.801C387.517 186.831 391.316 191.001 395.207 194.892C395.207 194.892 393.632 192.529 390.621 188.406C389.138 186.368 387.285 183.866 384.969 181.041C382.699 178.215 379.966 175.111 376.677 171.961C373.341 168.811 369.496 165.661 365.373 162.418C361.204 159.175 356.757 155.84 352.124 152.273C349.808 150.512 347.492 148.659 345.129 146.76C343.925 145.787 342.813 144.814 341.608 143.795C340.45 142.776 339.292 141.71 338.134 140.691C335.864 138.514 333.548 136.337 331.463 133.881C329.24 131.472 329 130 328.5 126.5Z" fill="#3C3C3B"/>
</g>
<mask id="mask21_65_4048" style="mask-type:luminance" maskUnits="userSpaceOnUse" x="6" y="0" width="487" height="319">
<path d="M492.013 0.185913H6.0127V318.256H492.013V0.185913Z" fill="white"/>
</mask>
<g mask="url(#mask21_65_4048)">
<path d="M181.131 60.8254C181.131 60.8254 179.232 60.0841 175.758 58.6944C174.878 58.4164 173.858 58.0922 172.747 57.7679C171.635 57.4436 170.477 56.9804 169.133 56.7487C167.79 56.4708 166.4 56.0538 164.871 55.8222C163.342 55.6369 161.675 55.3126 159.961 55.22C156.486 54.942 152.549 55.0347 148.333 55.7296C144.164 56.5171 139.717 58.0458 135.501 60.6864C131.285 63.2806 127.348 66.9866 124.198 71.4802C121.047 75.9738 118.592 80.9306 115.952 85.9337C113.311 90.9369 110.624 96.079 107.613 101.221C104.648 106.363 101.405 111.598 97.9773 116.833C96.3096 119.473 94.4566 122.068 92.6962 124.708C90.9359 127.349 89.0365 129.989 87.1835 132.63C83.4775 137.957 79.4935 143.192 75.6021 148.566C71.5718 153.847 67.5415 159.174 63.4649 164.502C59.2956 169.736 55.2653 175.157 51.096 180.391C46.973 185.672 42.8037 190.907 38.7271 196.096C34.6041 201.284 30.5738 206.426 26.5898 211.568C26.5898 211.568 31.3614 206.843 39.7463 198.273C43.9619 194.011 48.8724 188.545 54.663 182.337C57.5816 179.233 60.5001 175.759 63.6965 172.145C65.2716 170.339 66.893 168.486 68.5607 166.54C70.1821 164.594 71.8498 162.602 73.5638 160.518C75.2779 158.479 76.9919 156.348 78.7523 154.217C80.5126 152.04 82.2267 149.77 84.0334 147.5C87.6468 142.96 91.1675 138.05 94.8272 133C98.3942 127.858 102.054 122.577 105.575 116.879C109.142 111.274 112.524 105.298 115.766 99.0902C119.055 92.8826 121.928 86.3043 125.078 79.9578C125.912 78.429 126.653 76.8076 127.579 75.3252C128.459 73.7965 129.386 72.3604 130.451 71.0169C132.582 68.2837 135.084 65.8748 137.956 63.8365C140.828 61.7982 144.071 60.2231 147.546 59.204L148.843 58.787C149.26 58.6481 149.723 58.6017 150.186 58.5091C151.066 58.3238 151.993 58.0922 152.873 57.9532C154.726 57.7216 156.533 57.4436 158.432 57.4436C165.937 57.073 173.673 58.4628 181.131 60.8254Z" fill="#3C3C3B"/>
</g>
<mask id="mask22_65_4048" style="mask-type:luminance" maskUnits="userSpaceOnUse" x="10" y="0" width="487" height="319">
<path d="M496.013 0.185913H10.0127V318.256H496.013V0.185913Z" fill="white"/>
</mask>
<g mask="url(#mask22_65_4048)">
<path d="M173 118.5C173 118.5 173.019 117.064 172 118.5C171.768 118.871 172.324 121.037 172 121.5C171.676 121.917 172.417 123.537 172 124C171.212 124.973 170.718 126.516 169.606 127.674C169.051 128.276 168.495 128.878 167.892 129.527C167.29 130.129 166.595 130.778 165.947 131.473C164.603 132.816 163.075 134.206 161.5 135.688C159.878 137.124 158.164 138.653 156.265 140.182C154.412 141.757 152.466 143.332 150.381 144.953C142.182 151.531 132.453 158.573 122.771 166.541C120.363 168.533 117.954 170.618 115.684 172.888C113.414 175.157 111.283 177.52 109.291 179.975C105.307 184.886 101.74 190.028 98.4043 195.031C98.4043 195.031 100.582 192.761 104.38 188.684C108.225 184.608 113.599 178.632 121.196 172.471C124.995 169.413 129.35 166.17 133.936 162.696C138.522 159.175 143.433 155.377 148.389 151.207C150.891 149.123 153.393 146.945 155.894 144.629C158.396 142.313 160.851 139.904 163.26 137.31C165.669 134.715 168.031 132.029 170.162 129.064C172.432 126.145 171.379 121.789 173 118.5Z" fill="#3C3C3B"/>
</g>
<mask id="mask23_65_4048" style="mask-type:luminance" maskUnits="userSpaceOnUse" x="6" y="0" width="487" height="319">
<path d="M492.013 0.185913H6.0127V318.256H492.013V0.185913Z" fill="white"/>
</mask>
<g mask="url(#mask23_65_4048)">
<path d="M296.768 191.231C296.768 191.231 296.86 191.324 296.999 191.417C297.185 191.556 297.462 191.648 297.833 191.741C298.621 191.88 299.732 191.787 300.937 191.648C302.141 191.556 303.577 191.602 305.014 191.648C306.496 191.695 308.025 191.741 309.461 191.509C309.461 191.509 307.978 191.417 305.662 191.139C304.504 191.046 303.068 190.907 301.539 191.046C300.752 191.092 299.964 191.324 299.177 191.417C298.389 191.556 297.509 191.695 296.768 191.231Z" fill="#3C3C3B"/>
<path d="M303.01 182.43C303.01 182.43 303.38 182.662 304.075 182.801C304.77 182.94 305.789 182.847 306.901 182.801C309.125 182.708 311.765 184.144 314.313 184.608C314.313 184.608 313.943 184.469 313.433 184.237C312.877 184.005 312.09 183.588 311.117 183.218C310.144 182.801 308.893 182.338 307.457 182.291C306.716 182.291 306.021 182.384 305.28 182.523C304.538 182.616 303.797 182.662 303.01 182.43Z" fill="#3C3C3B"/>
<path d="M304.446 173.026C304.446 173.026 304.771 173.257 305.419 173.443C306.068 173.628 307.041 173.628 308.106 173.582C309.171 173.582 310.376 173.86 311.58 174.23C312.785 174.601 314.036 175.064 315.24 175.388C315.24 175.388 314.916 175.203 314.453 174.971C313.943 174.693 313.202 174.323 312.229 173.952C311.256 173.582 310.098 173.165 308.708 173.118C307.318 173.118 305.882 173.628 304.446 173.026Z" fill="#3C3C3B"/>
<path d="M312.338 164.919C312.338 164.919 312.431 165.012 312.662 165.151C312.847 165.29 313.218 165.475 313.681 165.614C314.562 165.938 315.951 165.938 317.341 166.355C318.777 166.818 320.352 167.467 321.974 168.208C323.595 168.903 325.309 169.644 327.023 170.061C327.023 170.061 325.031 168.996 322.9 167.884C321.603 167.235 320.074 166.494 318.268 165.938C317.804 165.799 317.341 165.66 316.831 165.567C316.322 165.475 315.812 165.475 315.349 165.429C314.33 165.429 313.264 165.475 312.338 164.919Z" fill="#3C3C3B"/>
<path d="M310.99 165.197C310.99 165.197 310.387 165.197 309.322 165.197C308.256 165.197 306.681 165.105 304.689 164.919C302.697 164.734 300.335 164.41 297.648 163.947C294.961 163.483 291.996 162.881 288.753 162.279C285.511 161.677 282.036 161.074 278.423 160.611C276.616 160.333 274.624 160.194 272.725 160.333C270.779 160.426 268.88 160.75 266.98 160.982C265.081 161.26 263.182 161.445 261.282 161.445C259.522 161.445 257.576 160.565 255.353 160.982C254.797 161.121 254.195 161.491 253.917 162.047C253.639 162.603 253.592 163.159 253.685 163.715C253.963 164.873 254.797 165.614 255.584 166.124C257.252 167.189 259.105 167.699 260.912 168.162C260.912 168.162 260.448 168.023 259.615 167.653C258.781 167.282 257.484 166.819 256.14 165.846C255.492 165.336 254.704 164.688 254.519 163.808C254.38 163.391 254.472 162.881 254.658 162.51C254.843 162.14 255.26 161.955 255.77 161.862C256.835 161.769 258.086 162.094 259.476 162.418C260.124 162.557 260.958 162.696 261.699 162.696C262.44 162.742 263.228 162.696 264.016 162.696C267.166 162.557 270.455 161.862 273.929 161.816C275.643 161.769 277.45 162.047 279.349 162.279C281.249 162.51 283.148 162.788 285.14 163.066C289.078 163.622 293.247 164.364 297.555 164.873C301.91 165.429 306.45 165.661 310.99 165.197Z" fill="#3C3C3B"/>
<path d="M260.068 175.667C260.068 175.667 259.605 175.667 258.771 175.713C257.937 175.76 256.687 175.76 255.158 176.13C254.787 176.269 254.37 176.362 254 176.732C253.815 176.871 253.676 177.242 253.722 177.474C253.722 177.705 253.722 177.937 253.722 178.169C253.768 179.141 254.185 180.207 254.973 181.041C256.501 182.708 258.864 183.589 261.319 184.33C262.524 184.654 263.821 185.025 265.118 185.395C266.415 185.766 267.758 186.137 269.148 186.507C271.928 187.202 274.846 187.758 277.765 188.268C283.648 189.287 289.763 190.121 295.415 191.371C295.415 191.371 294.025 190.862 291.384 190.121C288.79 189.379 284.992 188.499 280.313 187.573C277.95 187.109 275.448 186.6 272.715 186.044C271.372 185.766 269.982 185.442 268.546 185.071C267.11 184.747 265.674 184.33 264.145 183.913C262.616 183.542 261.088 183.218 259.605 182.708C258.123 182.199 256.594 181.597 255.482 180.485C254.973 179.929 254.509 179.28 254.37 178.493C254.278 178.122 254.278 177.659 254.278 177.335C254.324 177.103 254.648 176.871 255.019 176.686C256.501 176.038 258.308 175.899 260.068 175.667Z" fill="#3C3C3B"/>
<path d="M296.248 191.278C296.248 191.278 296.387 191.278 296.572 191.278C296.804 191.278 297.082 191.371 297.499 191.417C297.916 191.51 298.379 191.417 298.935 191.371C299.537 191.325 300.139 191.278 300.742 191.232C301.39 191.139 302.039 191.047 302.734 191.093C303.428 191.139 304.17 191.371 304.911 191.464C306.44 191.695 308.015 191.741 309.497 191.695C309.497 191.695 309.08 191.649 308.432 191.556C307.737 191.464 306.764 191.325 305.559 191.139C304.957 191.047 304.309 190.908 303.614 190.769C302.873 190.63 302.085 190.583 301.298 190.722C300.51 190.908 299.676 190.954 298.842 191.139C298.425 191.186 297.962 191.325 297.545 191.325C297.128 191.278 296.665 191.232 296.248 191.278Z" fill="#3C3C3B"/>
<path d="M262.071 175.574C262.071 175.574 263.415 175.759 265.685 176.13C267.955 176.5 271.105 177.103 274.811 177.844C276.664 178.215 278.656 178.585 280.74 178.909C282.779 179.234 284.91 179.743 287.087 180.253C291.395 181.272 295.935 182.43 300.29 182.013C300.29 182.013 300.012 182.013 299.502 181.967C298.993 181.967 298.205 181.874 297.232 181.735C295.24 181.504 292.461 180.809 289.079 179.882C287.365 179.419 285.512 178.909 283.474 178.446C281.435 177.983 279.258 177.751 276.988 177.334C272.356 176.686 267.352 175.852 262.071 175.574Z" fill="#3C3C3B"/>
<path d="M302.656 182.244C302.656 182.244 303.027 182.429 303.768 182.476C304.463 182.568 305.482 182.429 306.64 182.383C307.752 182.337 309.049 182.661 310.346 183.078C311.643 183.495 312.987 184.004 314.284 184.236C314.284 184.236 313.913 184.097 313.404 183.866C312.709 183.588 311.875 183.217 310.995 182.846C309.976 182.476 308.725 181.966 307.242 181.92C305.76 181.874 304.278 182.522 302.656 182.244Z" fill="#3C3C3B"/>
<path d="M261.884 168.393C261.884 168.393 263.227 168.764 265.636 169.134C267.999 169.505 271.427 169.69 275.365 169.644C277.356 169.644 279.441 169.551 281.618 169.737C283.796 169.875 286.019 170.2 288.336 170.57C292.875 171.312 297.601 172.377 302.048 172.794C302.048 172.794 300.89 172.516 298.851 172.099C296.813 171.636 293.895 170.895 290.281 170.107C286.668 169.366 282.267 168.532 277.403 168.764C272.539 168.949 267.304 169.227 261.884 168.393Z" fill="#3C3C3B"/>
<path d="M303.763 172.795C303.763 172.795 304.087 173.027 304.782 173.166C305.477 173.305 306.45 173.166 307.561 173.166C308.673 173.166 309.924 173.397 311.175 173.768C312.426 174.138 313.723 174.602 314.973 174.833C314.973 174.833 313.306 174.185 311.777 173.582C310.804 173.212 309.553 172.841 308.164 172.795C307.469 172.749 306.728 172.888 305.986 172.98C305.245 173.073 304.504 173.119 303.763 172.795Z" fill="#3C3C3B"/>
<path d="M260.36 168.022C260.36 168.022 259.527 167.651 257.951 167.512C257.164 167.42 256.237 167.373 255.265 167.142C254.245 166.91 253.087 166.632 251.744 166.54C251.42 166.54 251.049 166.493 250.725 166.54C250.354 166.586 249.891 166.632 249.52 166.91C248.686 167.466 248.455 168.485 248.547 169.273C248.64 170.107 248.872 170.894 249.381 171.589C249.891 172.284 250.447 172.747 251.049 173.257C252.3 174.23 253.782 174.924 255.311 175.202C256.84 175.527 258.322 175.619 259.758 175.619C259.758 175.619 259.017 175.48 257.72 175.156C256.423 174.785 254.523 174.369 252.67 173.071C252.207 172.747 251.744 172.377 251.327 171.96C250.91 171.496 250.447 171.079 250.169 170.57C249.891 170.06 249.706 169.412 249.752 168.856C249.798 168.254 250.03 167.883 250.539 167.744C251.142 167.605 251.929 167.605 252.717 167.698C253.504 167.744 254.292 167.883 255.172 167.929C256.932 168.115 258.6 167.698 260.36 168.022Z" fill="#3C3C3B"/>
<path d="M311.49 164.873C311.49 164.873 311.861 165.058 312.602 165.151C313.343 165.29 314.501 165.244 315.799 165.475C316.447 165.661 317.096 165.985 317.79 166.402C318.485 166.773 319.227 167.282 320.06 167.792C321.636 168.811 323.396 169.969 325.295 171.22C329.048 173.768 333.356 176.64 337.896 179.558C340.166 180.994 342.482 182.431 344.798 183.82C345.956 184.515 347.115 185.164 348.319 185.812C349.477 186.461 350.682 187.063 351.84 187.573C351.84 187.573 350.728 186.831 348.782 185.442C346.837 184.052 344.011 181.967 340.536 179.512C337.062 177.057 332.846 174.231 328.121 171.266C325.758 169.784 323.257 168.301 320.57 166.865C319.18 166.217 317.883 165.429 316.262 165.012C314.548 164.734 313.019 165.197 311.49 164.873Z" fill="#3C3C3B"/>
<path d="M263.673 185.348C263.673 185.348 263.766 185.487 263.951 185.811C264.136 186.135 264.414 186.598 264.831 187.154C265.619 188.266 266.962 189.887 269.093 191.323C271.224 192.76 274.142 193.964 277.57 194.844C280.952 195.678 284.751 196.605 288.828 197.577C290.866 198.041 292.997 198.55 295.128 199.06C297.305 199.477 299.158 200.45 300.965 201.886C302.772 203.275 304.486 204.943 306.431 206.426C307.404 207.167 308.423 207.908 309.581 208.51C310.693 209.066 311.805 209.576 312.963 210.085C317.549 212.077 322.46 213.513 327.417 214.162C332.373 214.81 337.377 214.718 342.148 214.394C342.148 214.394 341.546 214.394 340.341 214.347C339.183 214.301 337.423 214.255 335.246 214.116C330.845 213.838 324.405 213.143 317.132 210.317C315.326 209.622 313.426 208.834 311.527 207.862C310.554 207.398 309.628 206.935 308.748 206.333C307.867 205.731 306.987 205.036 306.107 204.295C304.347 202.859 302.633 201.191 300.502 199.755C299.436 199.06 298.278 198.411 296.981 198.041C295.684 197.67 294.479 197.485 293.228 197.16C288.225 196.049 282.944 194.937 277.524 193.825C274.837 193.223 272.15 192.482 269.695 191.092C267.379 189.841 265.248 187.803 263.673 185.348Z" fill="#3C3C3B"/>
<path d="M315.245 164.687C315.245 164.687 310.89 161.907 304.683 158.201C303.108 157.275 301.44 156.302 299.726 155.283C298.846 154.819 298.012 154.217 296.946 153.8C295.927 153.383 294.491 153.291 293.518 154.171C292.546 155.005 292.268 156.255 292.268 157.414C292.268 158.572 292.731 159.73 293.426 160.564C294.815 162.324 296.715 163.343 298.197 164.779C298.197 164.779 297.549 163.945 296.113 162.648C295.418 162 294.538 161.212 293.843 160.147C293.472 159.591 293.194 158.989 293.101 158.294C292.962 157.599 293.009 156.811 293.287 156.116C293.518 155.422 294.028 154.773 294.769 154.541C295.51 154.31 296.344 154.541 297.178 154.958C298.012 155.375 298.892 155.931 299.819 156.441C300.745 156.95 301.672 157.46 302.644 158.016C306.536 160.147 310.798 162.417 315.245 164.687Z" fill="#3C3C3B"/>
<path d="M349.382 187.526C349.382 187.526 349.938 187.572 351.003 187.665C352.069 187.757 353.597 187.896 355.543 188.128C359.434 188.591 364.855 189.471 371.155 190.815C374.305 191.463 377.687 192.205 381.207 192.946C384.728 193.641 388.434 194.243 392.187 194.753C399.738 195.725 407.567 196.281 414.886 196.142C414.886 196.142 412.987 195.957 409.605 195.633C406.223 195.262 401.313 194.706 395.383 193.872C392.418 193.455 389.175 192.946 385.701 192.297C382.227 191.695 378.567 190.908 374.676 190.166C370.784 189.425 366.708 188.73 362.492 188.221C358.276 187.757 353.875 187.479 349.382 187.526Z" fill="#3C3C3B"/>
<path d="M342.292 215.653C342.385 215.283 346.276 216.024 352.947 217.506C359.571 218.989 368.883 221.212 379.723 223.945C385.143 225.335 390.934 226.818 396.956 228.439C402.978 230.06 409.232 231.774 415.486 233.766C418.636 234.739 421.694 235.805 424.844 237.009C427.994 238.121 431.191 239.094 434.387 240.02C440.78 241.827 447.173 243.402 453.427 244.653C453.427 244.653 450.23 243.68 444.579 242.012C441.753 241.132 438.325 240.067 434.341 238.723C432.349 238.075 430.264 237.333 428.04 236.5C425.817 235.712 423.547 234.739 421.045 233.766C416.088 231.913 410.622 230.199 404.692 228.532C398.763 226.864 392.462 225.196 385.792 223.621C379.121 222.046 372.126 220.471 364.852 219.035C361.239 218.34 357.533 217.645 353.781 216.997C351.881 216.672 350.028 216.394 348.083 216.116C347.11 215.977 346.183 215.838 345.211 215.746C344.747 215.699 344.238 215.653 343.774 215.607C343.311 215.561 342.848 215.422 342.292 215.653Z" fill="#3C3C3B"/>
</g>
<mask id="mask24_65_4048" style="mask-type:luminance" maskUnits="userSpaceOnUse" x="6" y="0" width="487" height="319">
<path d="M492.013 0.185913H6.0127V318.256H492.013V0.185913Z" fill="white"/>
</mask>
<g mask="url(#mask24_65_4048)">
<path d="M416.039 196.05C416.039 196.05 418.077 196.56 421.552 197.208C425.026 197.857 429.937 198.598 435.588 199.664C441.24 200.729 447.587 202.165 453.655 204.898C459.724 207.585 465.468 211.523 469.499 216.897C469.499 216.897 469.313 216.526 468.943 215.785C468.757 215.414 468.526 214.997 468.201 214.488C467.877 213.978 467.507 213.376 467.043 212.774C466.117 211.523 464.866 210.04 463.245 208.558C462.411 207.817 461.531 207.029 460.511 206.288C459.492 205.547 458.381 204.806 457.176 204.111C454.767 202.721 451.988 201.378 448.93 200.358C445.873 199.293 442.491 198.505 438.924 197.949C431.882 196.652 424.1 196.467 416.039 196.05Z" fill="#3C3C3B"/>
</g>
<mask id="mask25_65_4048" style="mask-type:luminance" maskUnits="userSpaceOnUse" x="6" y="0" width="487" height="319">
<path d="M492.013 0.185913H6.0127V318.256H492.013V0.185913Z" fill="white"/>
</mask>
<g mask="url(#mask25_65_4048)">
<path d="M455.14 242.561C455.14 242.561 456.39 242.7 458.475 242.746C459.541 242.793 460.791 242.746 462.274 242.561C463.71 242.376 465.378 241.959 466.953 241.079C468.528 240.198 470.056 238.855 471.168 237.141C472.326 235.473 473.16 233.527 473.623 231.489C474.087 229.451 474.272 227.274 473.994 225.189C473.716 223.104 472.836 221.066 471.4 219.676C471.4 219.676 471.539 219.908 471.77 220.278C472.002 220.695 472.326 221.344 472.558 222.178C473.068 223.892 473.253 226.486 472.604 229.543C472.28 231.072 471.77 232.694 470.983 234.361C470.195 235.983 469.13 237.604 467.601 238.901C466.119 240.198 464.173 241.125 462.042 241.634C459.865 242.19 457.502 242.376 455.14 242.561Z" fill="#3C3C3B"/>
</g>
<mask id="mask26_65_4048" style="mask-type:luminance" maskUnits="userSpaceOnUse" x="6" y="0" width="487" height="319">
<path d="M492.013 0.185913H6.0127V318.256H492.013V0.185913Z" fill="white"/>
</mask>
<g mask="url(#mask26_65_4048)">
<path d="M194.924 191.278C194.924 191.278 194.554 191.603 193.766 191.603C193.025 191.649 192.006 191.417 190.755 191.186C189.504 191 188.022 191 186.54 191.139C185.474 191.232 184.223 191.371 182.139 191.603C182.139 191.603 183.621 191.834 185.984 191.695C187.142 191.649 188.532 191.556 190.014 191.649C190.755 191.695 191.543 191.834 192.377 191.881C192.794 191.881 193.21 191.881 193.674 191.834C194.183 191.742 194.6 191.556 194.924 191.278Z" fill="#3C3C3B"/>
<path d="M188.684 182.477C188.684 182.477 188.314 182.616 187.619 182.662C186.924 182.709 185.997 182.477 184.839 182.385C183.681 182.246 182.291 182.57 181.041 183.033C179.79 183.496 178.585 184.145 177.381 184.701C177.381 184.701 177.705 184.654 178.307 184.469C178.91 184.33 179.697 184.006 180.716 183.682C181.735 183.357 182.894 182.94 184.237 182.848C184.886 182.801 185.627 182.894 186.368 182.894C187.156 182.94 187.989 182.848 188.684 182.477Z" fill="#3C3C3B"/>
<path d="M187.23 173.073C187.23 173.073 186.86 173.258 186.211 173.304C185.563 173.397 184.636 173.258 183.524 173.165C182.412 173.073 181.115 173.304 179.864 173.768C178.614 174.184 177.456 174.833 176.344 175.435C176.344 175.435 176.714 175.343 177.224 175.157C177.873 174.926 178.706 174.648 179.54 174.37C180.513 174.045 181.671 173.721 182.968 173.629C183.617 173.582 184.312 173.629 185.053 173.629C185.794 173.629 186.582 173.49 187.23 173.073Z" fill="#3C3C3B"/>
<path d="M179.347 164.966C179.347 164.966 178.884 165.29 177.957 165.429C177.494 165.522 176.938 165.522 176.336 165.568C175.687 165.614 174.992 165.614 174.205 165.8C172.722 166.17 171.055 166.819 169.433 167.606C167.812 168.394 166.237 169.274 164.708 170.154C164.708 170.154 166.468 169.645 169.063 168.533C170.36 167.977 171.888 167.328 173.649 166.68C174.112 166.541 174.529 166.356 174.946 166.263C175.409 166.17 175.872 166.078 176.382 166.031C177.401 165.846 178.513 165.707 179.347 164.966Z" fill="#3C3C3B"/>
<path d="M180.701 165.151C180.701 165.151 181.303 165.197 182.369 165.29C183.434 165.383 185.056 165.429 187.048 165.383C189.04 165.336 191.449 165.151 194.182 164.873C196.915 164.549 199.926 164.086 203.169 163.622C206.412 163.113 209.886 162.65 213.5 162.233C215.353 162.001 217.067 161.862 218.92 161.955C220.773 162.047 222.626 162.325 224.571 162.557C226.517 162.788 228.509 162.927 230.501 162.835C231.613 162.742 232.539 162.464 233.466 162.279C234.392 162.094 235.319 161.908 236.153 162.047C236.523 162.14 236.848 162.279 237.033 162.603C237.218 162.881 237.311 163.344 237.265 163.715C237.172 164.503 236.523 165.244 235.828 165.8C234.346 166.958 232.586 167.699 230.825 168.348C230.825 168.348 231.289 168.255 232.169 167.977C233.049 167.699 234.346 167.328 235.921 166.402C236.662 165.939 237.589 165.336 237.959 164.132C238.191 163.53 238.098 162.881 237.867 162.233C237.589 161.538 236.801 161.121 236.106 161.028C234.717 160.796 233.373 161.167 232.03 161.352C231.335 161.491 230.733 161.584 229.991 161.538C229.297 161.538 228.555 161.491 227.814 161.445C224.803 161.213 221.514 160.426 217.808 160.333C216.881 160.333 215.955 160.333 214.982 160.472C214.055 160.565 213.129 160.704 212.156 160.796C210.257 161.074 208.311 161.352 206.319 161.677C202.335 162.325 198.259 163.205 193.997 163.947C189.688 164.595 185.241 165.151 180.701 165.151Z" fill="#3C3C3B"/>
<path d="M231.618 175.62C231.618 175.62 232.081 175.667 232.915 175.759C233.749 175.852 235 175.991 236.436 176.454C236.76 176.593 237.177 176.732 237.409 177.01C237.64 177.195 237.501 177.659 237.501 178.122C237.362 179.002 236.992 179.836 236.297 180.531C234.861 181.92 232.591 182.708 230.182 183.31C228.977 183.635 227.68 183.912 226.337 184.237C225.04 184.607 223.696 184.932 222.353 185.256C219.62 185.904 216.747 186.46 213.783 187.016C207.946 188.128 201.831 189.379 196.364 191.371C196.364 191.371 197.847 191 200.441 190.491C203.081 189.935 206.88 189.333 211.605 188.591C213.968 188.221 216.516 187.804 219.249 187.202C220.639 186.924 222.029 186.599 223.465 186.229C224.901 185.858 226.383 185.441 227.866 185.024C229.348 184.607 230.923 184.237 232.498 183.635C234.027 183.032 235.648 182.337 236.853 180.948C237.409 180.253 237.918 179.419 238.011 178.492C238.103 178.029 238.057 177.612 238.011 177.103C237.826 176.454 237.27 176.269 236.899 176.13C235.139 175.62 233.378 175.713 231.618 175.62Z" fill="#3C3C3B"/>
<path d="M195.434 191.324C195.434 191.324 195.341 191.278 195.11 191.278C194.878 191.278 194.554 191.278 194.183 191.324C193.813 191.371 193.349 191.232 192.794 191.139C192.238 191.046 191.635 190.954 191.033 190.861C190.385 190.722 189.69 190.583 188.902 190.676C188.161 190.722 187.42 190.954 186.679 191.046C185.196 191.324 183.621 191.51 182.139 191.741C182.139 191.741 182.602 191.741 183.204 191.741C183.899 191.741 184.872 191.695 186.123 191.556C186.725 191.51 187.42 191.371 188.115 191.232C188.81 191.093 189.551 191.046 190.292 191.185C191.079 191.324 191.913 191.371 192.794 191.463C193.21 191.463 193.674 191.556 194.137 191.51C194.554 191.417 194.971 191.324 195.434 191.324Z" fill="#3C3C3B"/>
<path d="M229.569 175.62C229.569 175.62 228.226 175.666 225.956 175.898C223.686 176.13 220.443 176.546 216.737 177.149C214.838 177.427 212.892 177.751 210.807 178.075C208.723 178.4 206.545 178.909 204.414 179.465C200.106 180.577 195.752 181.967 191.443 182.106C191.443 182.106 191.721 182.106 192.231 182.152C192.74 182.198 193.528 182.198 194.547 182.106C196.539 182.013 199.411 181.503 202.886 180.669C204.6 180.253 206.499 179.789 208.491 179.372C210.483 178.955 212.707 178.677 214.977 178.214C219.47 177.427 224.381 176.361 229.569 175.62Z" fill="#3C3C3B"/>
<path d="M189.034 182.245C189.034 182.245 188.617 182.338 187.922 182.338C187.227 182.338 186.254 182.106 185.096 182.013C183.891 181.921 182.548 182.199 181.251 182.708C179.954 183.172 178.703 183.774 177.452 184.283C177.452 184.283 177.776 184.237 178.379 184.052C178.981 183.866 179.815 183.588 180.834 183.264C181.853 182.94 183.104 182.523 184.447 182.43C185.837 182.245 187.458 182.801 189.034 182.245Z" fill="#3C3C3B"/>
<path d="M229.816 168.44C229.816 168.44 228.426 168.718 226.017 168.857C223.654 169.043 220.272 169.043 216.335 168.904C214.389 168.857 212.258 168.718 210.035 168.857C207.811 168.996 205.541 169.32 203.225 169.737C198.639 170.618 194.052 171.915 189.651 172.841C189.651 172.841 190.809 172.749 192.894 172.424C194.979 172.1 197.944 171.544 201.557 170.896C205.17 170.293 209.479 169.506 214.25 169.645C219.114 169.737 224.488 169.784 229.816 168.44Z" fill="#3C3C3B"/>
<path d="M187.93 172.841C187.93 172.841 187.56 173.026 186.865 173.073C186.17 173.119 185.244 172.934 184.132 172.841C182.974 172.795 181.677 172.98 180.426 173.397C179.175 173.814 177.924 174.37 176.72 174.833C176.72 174.833 177.044 174.787 177.6 174.602C178.156 174.463 178.99 174.185 180.009 173.86C181.028 173.536 182.186 173.212 183.53 173.119C184.178 173.073 184.919 173.119 185.661 173.165C186.402 173.304 187.236 173.258 187.93 172.841Z" fill="#3C3C3B"/>
<path d="M231.296 167.977C231.296 167.977 232.176 167.792 233.751 167.884C234.122 167.884 234.585 167.931 235.002 167.931C235.465 167.931 235.975 167.931 236.531 167.884C237.596 167.792 238.754 167.606 239.959 167.606C240.561 167.606 241.21 167.653 241.534 167.931C241.858 168.162 241.997 168.672 241.951 169.274C241.904 169.876 241.673 170.478 241.349 170.988C240.978 171.451 240.468 172.007 239.912 172.47C238.847 173.397 237.596 174.092 236.206 174.601C234.817 175.111 233.381 175.482 231.944 175.806C231.944 175.806 232.686 175.806 234.029 175.713C235.326 175.574 237.411 175.389 239.588 174.092C240.144 173.768 240.654 173.397 241.163 172.934C241.395 172.702 241.673 172.47 241.904 172.193C242.136 171.961 242.414 171.59 242.599 171.266C242.97 170.571 243.202 169.784 243.155 168.857C243.109 168.394 243.016 167.931 242.692 167.467C242.368 167.05 241.858 166.772 241.395 166.633C240.468 166.448 239.681 166.587 238.847 166.68C238.013 166.819 237.226 167.004 236.392 167.143C234.817 167.467 233.01 167.328 231.296 167.977Z" fill="#3C3C3B"/>
<path d="M180.233 164.919C180.233 164.919 179.816 165.012 179.075 165.058C178.333 165.104 177.268 164.919 175.832 165.012C175.137 165.104 174.349 165.382 173.608 165.753C172.821 166.077 172.033 166.494 171.199 166.911C169.532 167.791 167.679 168.857 165.687 170.015C161.749 172.331 157.394 175.157 152.993 178.215C150.77 179.743 148.546 181.318 146.369 182.893C145.303 183.681 144.238 184.469 143.126 185.302C142.061 186.09 140.995 186.924 139.93 187.619C139.93 187.619 141.18 187.109 143.265 185.905C145.396 184.7 148.361 182.94 151.974 180.67C155.588 178.4 159.85 175.667 164.482 172.563C166.798 171.034 169.207 169.413 171.755 167.791C173.006 167.05 174.303 166.124 175.647 165.614C177.036 165.243 178.704 165.475 180.233 164.919Z" fill="#3C3C3B"/>
<path d="M228.039 185.395C228.039 185.395 227.946 185.534 227.714 185.858C227.529 186.136 227.205 186.599 226.788 187.109C225.908 188.174 224.518 189.657 222.341 190.954C220.163 192.251 217.291 193.27 213.909 194.011C210.528 194.66 206.683 195.494 202.606 196.374C200.568 196.837 198.437 197.254 196.259 197.764C195.194 197.949 193.943 198.319 192.878 198.829C191.812 199.339 190.793 200.034 189.82 200.728C187.921 202.164 186.16 203.832 184.307 205.268C183.381 206.009 182.408 206.704 181.389 207.214C180.323 207.77 179.212 208.279 178.1 208.789C173.653 210.827 168.927 212.356 164.063 213.19C159.199 214.07 154.289 214.302 149.471 214.394C149.471 214.394 150.073 214.441 151.277 214.487C152.436 214.533 154.196 214.626 156.42 214.58C160.867 214.533 167.399 214.116 174.95 211.43C176.849 210.781 178.748 209.993 180.694 209.067C181.667 208.604 182.686 208.14 183.659 207.492C184.632 206.843 185.512 206.148 186.438 205.407C188.245 203.925 189.959 202.303 191.905 201.006C192.878 200.358 193.943 199.802 195.009 199.431C196.12 199.107 197.418 198.829 198.668 198.551C203.671 197.347 208.86 196.096 214.28 194.799C216.967 194.104 219.746 193.177 222.202 191.602C224.564 190.166 226.603 187.943 228.039 185.395Z" fill="#3C3C3B"/>
<path d="M176.395 164.641C176.395 164.641 181.027 162.325 187.327 158.85C188.902 157.97 190.616 157.044 192.377 156.071C193.257 155.608 194.137 155.005 195.017 154.681C195.898 154.31 196.87 154.31 197.565 154.866C198.26 155.422 198.584 156.441 198.584 157.414C198.584 158.433 198.306 159.406 197.704 160.24C196.546 161.954 194.693 163.205 193.442 164.826C193.442 164.826 194.183 164.085 195.712 162.927C196.453 162.325 197.38 161.63 198.26 160.472C198.677 159.916 199.094 159.221 199.233 158.433C199.418 157.646 199.418 156.766 199.14 155.839C198.862 154.959 198.214 154.033 197.148 153.662C196.083 153.291 194.971 153.616 194.045 154.079C193.118 154.542 192.284 155.052 191.358 155.561C190.431 156.071 189.505 156.627 188.578 157.183C184.733 159.453 180.61 161.954 176.395 164.641Z" fill="#3C3C3B"/>
<path d="M142.311 187.618C142.311 187.618 141.709 187.618 140.69 187.618C139.624 187.618 138.049 187.664 136.104 187.757C132.166 187.942 126.653 188.545 120.307 189.656C117.11 190.212 113.728 190.907 110.208 191.556C106.687 192.204 103.027 192.853 99.2749 193.409C91.8165 194.567 84.0802 195.493 76.7607 196.235C76.7607 196.235 78.6601 196.281 82.0882 196.142C85.5162 196.049 90.4267 195.771 96.449 195.076C99.4602 194.752 102.749 194.289 106.224 193.733C109.698 193.177 113.404 192.39 117.249 191.556C121.094 190.768 125.124 189.934 129.294 189.193C133.509 188.498 137.818 187.942 142.311 187.618Z" fill="#3C3C3B"/>
<path d="M149.293 216.7C149.339 216.7 149.107 216.607 148.644 216.653C148.181 216.653 147.44 216.7 146.513 216.839C144.66 217.024 142.02 217.441 138.638 217.997C131.921 219.109 122.47 220.915 111.584 223.371C106.117 224.621 100.28 226.011 94.258 227.586C88.1894 229.161 81.9354 230.922 75.6815 233.006C72.5314 234.026 69.3812 235.23 66.3238 236.481C63.2663 237.685 60.1162 238.797 56.966 239.863C50.7121 241.993 44.4118 243.939 38.2969 245.792C38.2969 245.792 41.5397 245.144 47.284 243.708C50.1562 243.013 53.6769 242.086 57.7072 240.928C59.7456 240.326 61.8765 239.677 64.1465 238.936C66.4164 238.195 68.779 237.268 71.2343 236.434C76.1448 234.72 81.6575 233.145 87.5408 231.478C93.4241 229.856 99.7244 228.189 106.395 226.521C113.02 224.853 119.969 223.139 127.149 221.425C130.762 220.591 134.376 219.757 138.082 218.877C139.935 218.46 141.788 218.09 143.687 217.673C144.614 217.487 145.587 217.302 146.513 217.117C147.393 216.839 148.412 216.561 149.293 216.7Z" fill="#3C3C3B"/>
</g>
<mask id="mask27_65_4048" style="mask-type:luminance" maskUnits="userSpaceOnUse" x="6" y="0" width="487" height="319">
<path d="M492.013 0.185913H6.0127V318.256H492.013V0.185913Z" fill="white"/>
</mask>
<g mask="url(#mask27_65_4048)">
<path d="M75.6476 196.189C75.6476 196.189 73.5629 196.281 70.0422 196.467C66.5215 196.652 61.5647 196.791 55.7277 197.486C49.937 198.181 43.2198 199.478 36.9195 202.628C35.3445 203.416 33.8157 204.296 32.3796 205.269C30.9436 206.288 29.5075 207.353 28.2567 208.558C26.9596 209.762 25.8014 211.106 24.7823 212.495C23.7631 213.885 22.9293 215.368 22.2344 216.896C22.2344 216.896 22.5123 216.572 22.9756 215.923C23.2072 215.599 23.5315 215.229 23.9021 214.765C24.2727 214.302 24.7359 213.793 25.2455 213.283C26.311 212.217 27.6545 210.967 29.3685 209.716C30.2024 209.067 31.1289 208.419 32.1943 207.817C33.2135 207.168 34.3253 206.566 35.4834 205.964C40.2086 203.555 46.1846 201.609 53.0871 200.265C59.9896 198.876 67.7259 197.996 75.6476 196.189Z" fill="#3C3C3B"/>
</g>
<mask id="mask28_65_4048" style="mask-type:luminance" maskUnits="userSpaceOnUse" x="6" y="0" width="487" height="319">
<path d="M492.013 0.185913H6.0127V318.256H492.013V0.185913Z" fill="white"/>
</mask>
<g mask="url(#mask28_65_4048)">
<path d="M36.5341 242.653C36.5341 242.653 35.2833 242.561 33.1987 242.329C32.1795 242.19 30.9287 242.051 29.539 241.727C28.1955 241.403 26.7131 240.893 25.3233 240.013C22.5438 238.253 20.4128 234.963 19.3937 231.165C18.8841 229.265 18.5598 227.273 18.5598 225.328C18.6062 223.336 19.0231 221.39 20.1349 219.722C20.1349 219.722 19.9496 219.908 19.6253 220.278C19.301 220.649 18.8841 221.251 18.4672 222.085C17.6333 223.799 17.1237 226.579 17.6333 229.868C17.8649 231.535 18.3282 233.296 19.1621 235.102C19.9959 236.863 21.2004 238.716 23.0071 240.106C24.7674 241.542 27.0374 242.422 29.3537 242.7C31.7626 242.978 34.1252 242.839 36.5341 242.653Z" fill="#3C3C3B"/>
</g>
<mask id="mask29_65_4048" style="mask-type:luminance" maskUnits="userSpaceOnUse" x="6" y="0" width="487" height="319">
<path d="M492.013 0.185913H6.0127V318.256H492.013V0.185913Z" fill="white"/>
</mask>
<g mask="url(#mask29_65_4048)">
<path d="M257.52 125.959C257.52 125.959 256.872 126.978 255.806 128.831C254.787 130.684 253.397 133.325 252.1 136.614C249.413 143.146 247.143 152.411 247.467 161.305C247.467 161.305 247.514 160.888 247.653 160.193C247.745 159.452 247.931 158.433 248.162 157.136C248.626 154.588 249.367 151.067 250.386 147.315C252.378 139.718 255.76 131.24 257.52 125.959Z" fill="#3C3C3B"/>
</g>
<mask id="mask30_65_4048" style="mask-type:luminance" maskUnits="userSpaceOnUse" x="6" y="0" width="486" height="319">
<path d="M492 0H6V318.07H492V0Z" fill="white"/>
</mask>
<g mask="url(#mask30_65_4048)">
<path d="M225.555 130.036C225.555 130.036 226.064 130.962 226.944 132.537C227.825 134.112 229.029 136.336 230.373 139.023C233.059 144.396 236.024 151.577 238.618 158.711C238.618 158.711 238.572 158.387 238.479 157.738C238.387 157.136 238.202 156.209 238.016 155.144C237.553 152.967 236.812 149.955 235.607 146.759C233.337 140.273 229.122 133.278 225.555 130.036Z" fill="#3C3C3B"/>
</g>
</svg>
