<svg width="168" height="100" viewBox="0 0 168 100" fill="none" xmlns="http://www.w3.org/2000/svg">
<g clip-path="url(#clip0_105_139)">
<path d="M89.7264 27.8416H87.4476C87.4476 27.8344 87.4405 27.8201 87.4263 27.813H89.7122C89.7193 27.8201 89.7264 27.8344 89.7264 27.8416Z" fill="white"/>
<path d="M8.13398 50.7495V50.7567L8.11963 50.7495H8.13398Z" fill="white"/>
<path d="M89.7217 27.8128H89.7146C89.4369 27.1916 89.1449 26.5703 88.8316 25.9562V25.9491C88.5182 25.3349 88.2049 24.7351 87.8702 24.1424C87.8702 24.1353 87.8702 24.1353 87.8702 24.1353C86.8804 22.3358 85.7552 20.6077 84.5304 18.9581C84.5304 18.951 84.5304 18.951 84.5304 18.951C84.2171 18.5368 83.9037 18.1227 83.5904 17.7156C83.1062 17.1158 82.6006 16.5231 82.095 15.9375C81.5823 15.352 81.0553 14.7879 80.5141 14.238C76.2841 9.89637 71.2139 6.33307 65.6167 3.89089C60.0266 1.44156 53.9238 0.120503 47.7925 0.00624931C41.6541 -0.093723 35.473 1.00597 29.712 3.29105C23.9582 5.56185 18.6173 8.97519 14.1666 13.3383C9.73018 17.7085 6.11977 22.957 3.69146 28.734C3.23571 29.8194 2.82269 30.9405 2.45239 32.0688C1.83285 33.9254 1.32725 35.8178 0.942713 37.7387C0.330297 40.8092 0.00272659 43.9369 -0.00439453 47.0718C-0.00439453 47.4574 0.00272572 47.8501 0.016968 48.2357C0.016968 48.2357 0.016968 48.2357 0.016968 48.2429C0.0383313 49.0498 0.0881782 49.8639 0.152268 50.6708C1.49816 48.5428 3.24996 46.3077 5.50023 44.2726C5.53584 43.5228 5.60705 42.7873 5.6925 42.0446C6.02007 39.1668 6.65385 36.3319 7.54399 33.5827C8.82579 29.6766 10.6559 25.9562 12.956 22.5571C14.3518 20.5291 15.9184 18.6154 17.6417 16.8444C21.5441 12.8455 26.2084 9.53932 31.357 7.29709C36.4985 5.03343 42.117 3.81234 47.7854 3.69094C53.4538 3.58383 59.1507 4.59783 64.4702 6.68297C69.7683 8.78239 74.7104 11.9172 78.8264 15.9375C79.2608 16.366 79.688 16.8016 80.1153 17.2372C80.5212 17.6871 80.9414 18.1512 81.3473 18.6154C81.803 19.1367 82.2374 19.6722 82.6647 20.2149C83.0919 20.7576 83.505 21.3146 83.9037 21.8788C85.2283 23.7568 86.4246 25.7348 87.4287 27.8057C87.4358 27.8128 87.4501 27.8271 87.4501 27.8342H87.4572H89.7146H89.7217C89.7288 27.8342 89.7217 27.82 89.7217 27.8128Z" fill="white"/>
<path d="M82.2319 74.4497H82.2105C82.2105 74.4568 82.2034 74.4711 82.1892 74.4783C81.1424 75.7708 80.0172 77.0061 78.828 78.1701C74.712 82.1904 69.7699 85.3324 64.4718 87.4247C59.1523 89.517 53.4554 90.5238 47.787 90.4239C45.0952 90.3525 42.4177 90.0525 39.8042 89.5098C39.1847 89.3813 38.5865 89.2385 37.9741 89.0814C37.9741 89.0885 37.9812 89.0885 37.9741 89.1028C38.1165 90.1525 38.3231 91.3593 38.6221 92.7375C38.6577 92.9446 38.7076 93.1445 38.7646 93.3588C38.7574 93.3659 38.7574 93.3802 38.7646 93.3873C41.7412 93.9086 44.7677 94.1514 47.787 94.1085C53.9183 93.9943 60.0211 92.6732 65.6112 90.2239C71.2084 87.7889 76.2786 84.2184 80.5086 79.8768C82.1536 78.1987 83.6561 76.392 85.0234 74.4783C85.0305 74.4711 85.0447 74.4568 85.0447 74.4497H85.0376H82.2319Z" fill="white"/>
<path d="M17.0483 84.7258C16.9344 84.6472 16.7991 84.5401 16.6923 84.4473C15.6739 83.6475 14.6414 82.7549 13.6302 81.8052C13.4094 82.4978 13.1816 83.1477 12.9394 83.7761C12.9038 83.876 12.8682 83.9617 12.8326 84.0545V84.0617C11.3301 88.0035 9.70644 91.0241 7.73389 93.6019L7.56299 93.8233L7.66981 94.0875C7.69829 94.1589 7.72677 94.2303 7.7695 94.3017C8.63828 96.3797 9.47145 99.0004 9.48569 99.0218L9.79902 100L10.3616 99.1432C10.7461 98.5577 11.2019 97.8436 11.679 97.0438C13.3809 94.216 15.4959 90.3671 16.6567 87.5893C16.7564 87.3679 16.8418 87.1537 16.9201 86.9466C17.1551 86.3182 17.3759 85.7041 17.5824 85.1114C17.3901 84.99 17.2192 84.8615 17.0483 84.7258Z" fill="white"/>
<path d="M19.987 64.5742C19.6665 61.6964 19.3176 59.1543 18.342 57.0548C18.2565 56.8692 18.164 56.6835 18.0714 56.5121C17.9859 56.3336 17.9005 56.1622 17.8008 55.998C17.694 55.8123 17.5871 55.6409 17.4803 55.4624C17.1385 54.9411 16.7753 54.4341 16.3766 53.9628H16.3837C16.3125 53.8843 16.2413 53.8057 16.17 53.7272C16.1487 53.7058 16.1416 53.6986 16.1202 53.6772C16.0846 53.6415 16.049 53.6058 16.0134 53.5701C15.8994 53.4415 15.7713 53.3059 15.6431 53.1916C15.5576 53.1131 15.4793 53.0345 15.3938 52.956C15.3725 52.9345 15.344 52.906 15.3226 52.8846C15.2657 52.8274 15.2087 52.7774 15.1517 52.7203C15.1446 52.7203 15.1446 52.7132 15.1304 52.7132L15.1232 52.706H15.1161V52.6989C15.0876 52.6703 15.0592 52.6418 15.0164 52.6203C14.9452 52.5489 14.8811 52.4918 14.8099 52.4347C14.6034 52.2704 14.404 52.1133 14.1833 51.9705C14.1548 51.9491 14.1263 51.9348 14.0978 51.9134C13.9269 51.7991 13.7489 51.6778 13.5566 51.5849C13.5495 51.5849 13.5495 51.5778 13.5352 51.5778C13.5352 51.5778 13.5281 51.5778 13.5281 51.5706C13.521 51.5635 13.4996 51.5492 13.4925 51.5492C13.4925 51.5421 13.4854 51.5421 13.4854 51.5421C13.4783 51.5349 13.464 51.5349 13.4569 51.5207C13.4569 51.5135 13.4498 51.5135 13.4355 51.5135C13.4071 51.4921 13.3786 51.4778 13.3501 51.4564C13.3145 51.4278 13.2646 51.3993 13.2148 51.3778C13.1293 51.3421 13.0368 51.2993 12.9513 51.2636C12.9442 51.2636 12.9299 51.2564 12.9228 51.2564C12.8445 51.2207 12.759 51.1779 12.6807 51.1493C12.6522 51.1279 12.6309 51.1208 12.6024 51.1136C12.524 51.0779 12.4457 51.0422 12.3816 51.0136C12.346 50.9922 12.3104 50.9851 12.2819 50.9779C11.6837 50.728 11.0784 50.5638 10.3806 50.4995C10.3307 50.4924 10.2809 50.4924 10.2382 50.4924C10.0459 50.4638 9.85361 50.4567 9.66846 50.4424L9.66135 50.4638L9.04181 51.3778C9.04181 51.385 9.03468 51.385 9.03468 51.3993C8.32969 52.4418 8.01636 53.77 7.88818 54.8769C8.21576 54.8197 8.50772 54.7983 8.75696 54.7983C9.05605 54.7983 9.2412 54.8269 9.27681 54.834C9.54741 54.8697 9.79664 54.934 10.053 55.0125H10.0601C11.8048 55.5767 12.9584 57.0691 13.6919 58.5259C13.6919 58.533 13.699 58.533 13.699 58.5473C14.5322 60.2111 14.8242 61.8107 14.8313 61.8535C15.5505 65.5953 15.7214 69.4228 15.3654 73.2503C15.7926 73.7931 16.2341 74.3286 16.7041 74.8499C17.5729 75.8496 18.5129 76.8136 19.5027 77.7134C20.3074 73.2575 20.457 68.8587 19.987 64.5742Z" fill="white"/>
<path d="M6.87826 58.2828C6.8569 58.2542 6.84977 58.2257 6.84977 58.1971C6.88538 58.4399 6.92811 58.6756 6.98508 58.9255C6.94947 58.7113 6.90674 58.497 6.87826 58.2828ZM6.87826 58.2828C6.8569 58.2542 6.84977 58.2257 6.84977 58.1971C6.88538 58.4399 6.92811 58.6756 6.98508 58.9255C6.94947 58.7113 6.90674 58.497 6.87826 58.2828ZM6.87826 58.2828C6.8569 58.2542 6.84977 58.2257 6.84977 58.1971C6.88538 58.4399 6.92811 58.6756 6.98508 58.9255C6.94947 58.7113 6.90674 58.497 6.87826 58.2828ZM6.87826 58.2828C6.82129 57.9329 6.77145 57.5901 6.73584 57.2402C6.76432 57.5544 6.80705 57.8686 6.84977 58.19C6.88538 58.4328 6.92811 58.6684 6.98508 58.9183C6.94947 58.7113 6.90674 58.497 6.87826 58.2828ZM6.87826 58.2828C6.8569 58.2542 6.84977 58.2257 6.84977 58.1971C6.88538 58.4399 6.92811 58.6756 6.98508 58.9255C6.94947 58.7113 6.90674 58.497 6.87826 58.2828ZM6.87826 58.2828C6.8569 58.2542 6.84977 58.2257 6.84977 58.1971C6.88538 58.4399 6.92811 58.6756 6.98508 58.9255C6.94947 58.7113 6.90674 58.497 6.87826 58.2828ZM6.87826 58.2828C6.8569 58.2542 6.84977 58.2257 6.84977 58.1971C6.88538 58.4399 6.92811 58.6756 6.98508 58.9255C6.94947 58.7113 6.90674 58.497 6.87826 58.2828ZM6.87826 58.2828C6.8569 58.2542 6.84977 58.2257 6.84977 58.1971C6.88538 58.4399 6.92811 58.6756 6.98508 58.9255C6.94947 58.7113 6.90674 58.497 6.87826 58.2828Z" fill="white"/>
<path d="M32.0652 62.0605V63.9886H33.0051C33.5392 63.9886 34.0092 64.0314 34.4294 64.1171C34.8495 64.2028 35.2056 64.3456 35.4975 64.5384C35.7895 64.7312 36.0103 64.9811 36.1669 65.2811C36.3165 65.581 36.3948 65.9523 36.3948 66.395C36.3948 67.2019 36.1028 67.8018 35.5189 68.2088C34.935 68.6158 34.116 68.8158 33.0479 68.8158C32.8912 68.8158 32.7274 68.8158 32.5494 68.8087C32.3714 68.8015 32.1933 68.7872 32.0153 68.7729C31.8373 68.7587 31.6593 68.7372 31.4883 68.7158C31.3103 68.6944 31.1537 68.6658 31.0112 68.6301V61.1465H35.6898V62.0534H32.0652V62.0605ZM33.1333 67.8875C33.4182 67.8875 33.6888 67.8661 33.9451 67.8232C34.2015 67.7804 34.4294 67.7018 34.6288 67.5876C34.8282 67.4733 34.9848 67.3233 35.0988 67.1305C35.2127 66.9377 35.2768 66.7021 35.2768 66.4093C35.2768 66.1023 35.2269 65.8523 35.1201 65.6524C35.0133 65.4524 34.8638 65.2953 34.6644 65.1811C34.465 65.0668 34.2229 64.9811 33.938 64.9383C33.6532 64.8883 33.3256 64.8669 32.9624 64.8669H32.0652V67.8589C32.1435 67.8661 32.2432 67.8732 32.35 67.8803C32.4426 67.8875 32.5565 67.8946 32.6918 67.8946C32.82 67.8875 32.9695 67.8875 33.1333 67.8875Z" fill="white"/>
<path d="M39.4531 63.8955C39.4531 64.1383 39.446 64.3953 39.4389 64.6667C39.4246 64.938 39.4104 65.2165 39.3819 65.4879C39.3534 65.7592 39.3107 66.0306 39.2608 66.302C39.211 66.5662 39.1469 66.8161 39.0614 67.0517C38.9831 67.2874 38.8834 67.5016 38.7623 67.7087C38.6413 67.9158 38.4917 68.0943 38.3208 68.2514C38.1428 68.4085 37.9434 68.537 37.7084 68.6442C37.4734 68.7513 37.2028 68.8155 36.8895 68.8441L36.7471 67.9872C37.1031 67.9158 37.388 67.7801 37.5945 67.5802C37.801 67.3802 37.9648 67.1446 38.093 66.8589C38.1998 66.609 38.2852 66.3305 38.3351 66.0163C38.3849 65.7021 38.4205 65.3736 38.4419 65.038C38.4633 64.6953 38.4775 64.3596 38.4775 64.0169C38.4775 63.6741 38.4846 63.3456 38.4846 63.0386H42.2659V68.737H41.2476V63.8955H39.4531Z" fill="white"/>
<path d="M46.0729 62.9028C46.4788 62.9028 46.8207 62.9528 47.1055 63.0599C47.3832 63.167 47.6111 63.317 47.782 63.5098C47.9529 63.7026 48.074 63.9311 48.1452 64.2025C48.2164 64.4667 48.252 64.7595 48.252 65.0808V68.6441C48.1666 68.6584 48.0455 68.6798 47.8888 68.7012C47.7322 68.7298 47.5541 68.7512 47.3619 68.7726C47.1625 68.7941 46.9488 68.8155 46.721 68.8298C46.4931 68.8512 46.2652 68.8583 46.0373 68.8583C45.7169 68.8583 45.4249 68.8226 45.1543 68.7584C44.8837 68.6941 44.6487 68.587 44.4564 68.4442C44.2571 68.3013 44.1075 68.1157 44.0007 67.88C43.8939 67.6444 43.8369 67.3659 43.8369 67.0374C43.8369 66.7232 43.901 66.4518 44.0292 66.2233C44.1574 65.9948 44.3283 65.8163 44.549 65.6735C44.7698 65.5378 45.0261 65.4307 45.311 65.3664C45.603 65.3022 45.9092 65.2665 46.2296 65.2665C46.3293 65.2665 46.4361 65.2736 46.5501 65.2807C46.6569 65.2879 46.7637 65.3093 46.8634 65.3236C46.9631 65.345 47.0485 65.3593 47.1198 65.3736C47.191 65.3879 47.2408 65.4021 47.2693 65.4093V65.1236C47.2693 64.9594 47.2479 64.788 47.2123 64.6238C47.1767 64.4595 47.1126 64.3167 47.0129 64.1882C46.9204 64.0597 46.7851 63.9597 46.6213 63.8811C46.4575 63.8026 46.2439 63.7669 45.9804 63.7669C45.6457 63.7669 45.3537 63.7883 45.1045 63.8383C44.8552 63.8883 44.663 63.9383 44.5419 63.9882L44.4208 63.1456C44.549 63.0885 44.7698 63.0314 45.076 62.9742C45.3822 62.9314 45.7098 62.9028 46.0729 62.9028ZM46.1584 68.0086C46.4005 68.0086 46.6141 68.0014 46.7993 67.9943C46.9844 67.98 47.1411 67.9657 47.2622 67.9372V66.2376C47.191 66.2019 47.0699 66.1734 46.9061 66.1448C46.7423 66.1162 46.5429 66.1091 46.3079 66.1091C46.1513 66.1091 45.9946 66.1162 45.8237 66.1448C45.6528 66.1662 45.4961 66.2091 45.3537 66.2805C45.2113 66.3519 45.0902 66.4447 44.9977 66.5661C44.9051 66.6875 44.8552 66.8446 44.8552 67.0445C44.8552 67.4087 44.9692 67.6658 45.2042 67.8086C45.4392 67.9372 45.7596 68.0086 46.1584 68.0086Z" fill="white"/>
<path d="M53.2337 63.8955H50.7341V68.737H49.7158V63.0386H53.2337V63.8955Z" fill="white"/>
<path d="M59.2976 65.8949C59.2976 66.3447 59.2335 66.7589 59.0982 67.1231C58.97 67.4873 58.7849 67.8015 58.5427 68.0657C58.3006 68.3299 58.0229 68.5298 57.6953 68.6727C57.3678 68.8155 57.0117 68.8869 56.6272 68.8869C56.2426 68.8869 55.8866 68.8155 55.559 68.6727C55.2314 68.5298 54.9466 68.3299 54.7116 68.0657C54.4766 67.8015 54.2914 67.4873 54.1561 67.1231C54.0279 66.7589 53.9639 66.3519 53.9639 65.8949C53.9639 65.4521 54.0279 65.0451 54.1561 64.6738C54.2843 64.3024 54.4695 63.9882 54.7116 63.724C54.9537 63.4598 55.2314 63.2599 55.559 63.1171C55.8866 62.9742 56.2426 62.9028 56.6272 62.9028C57.0117 62.9028 57.3678 62.9742 57.6953 63.1171C58.0229 63.2599 58.3077 63.4598 58.5427 63.724C58.7777 63.9882 58.9629 64.3024 59.0982 64.6738C59.2264 65.038 59.2976 65.445 59.2976 65.8949ZM58.2365 65.8949C58.2365 65.2522 58.0941 64.7452 57.8022 64.3667C57.5173 63.9882 57.1256 63.8026 56.6272 63.8026C56.1287 63.8026 55.737 63.9882 55.4522 64.3667C55.1673 64.7452 55.0178 65.2522 55.0178 65.8949C55.0178 66.5375 55.1602 67.0445 55.4522 67.423C55.737 67.8015 56.1287 67.9871 56.6272 67.9871C57.1256 67.9871 57.5173 67.8015 57.8022 67.423C58.087 67.0445 58.2365 66.5375 58.2365 65.8949Z" fill="white"/>
<path d="M64.3155 63.0454V63.9023H62.4711V68.7438H61.4528V63.9023H59.6084V63.0454H64.3155Z" fill="white"/>
<path d="M67.2027 68.8366C66.7755 68.8366 66.3767 68.8152 66.0135 68.7795C65.6503 68.7366 65.3584 68.6938 65.1519 68.6438V63.1025C65.3655 63.0525 65.6503 63.0025 66.0135 62.9668C66.3767 62.924 66.7755 62.9097 67.2027 62.9097C67.5018 62.9097 67.7938 62.9382 68.0786 62.9882C68.3635 63.0382 68.6127 63.1239 68.8335 63.2453C69.0542 63.3667 69.2251 63.5309 69.3604 63.738C69.4957 63.9451 69.5598 64.2022 69.5598 64.5092C69.5598 64.7877 69.4886 65.0234 69.3533 65.2233C69.218 65.4233 69.0329 65.5732 68.7979 65.6803C69.1112 65.7874 69.3604 65.9517 69.5456 66.1659C69.7307 66.3801 69.8233 66.6801 69.8233 67.0728C69.8233 67.4156 69.7592 67.7012 69.6239 67.9297C69.4886 68.1582 69.3035 68.3367 69.0685 68.4796C68.8335 68.6152 68.5558 68.7152 68.2353 68.7723C67.9077 68.808 67.5659 68.8366 67.2027 68.8366ZM67.2241 65.3733C67.4235 65.3733 67.6015 65.359 67.7653 65.3376C67.9291 65.309 68.0715 65.2662 68.1926 65.2019C68.3136 65.1376 68.4062 65.0448 68.4774 64.9377C68.5486 64.8306 68.5842 64.6877 68.5842 64.5235C68.5842 64.345 68.5415 64.2093 68.4561 64.1093C68.3706 64.0094 68.2567 63.9308 68.1142 63.8737C67.9718 63.8166 67.8152 63.7809 67.6371 63.7666C67.4591 63.7451 67.2811 63.738 67.0959 63.738C66.925 63.738 66.7612 63.7452 66.5903 63.7523C66.4194 63.7594 66.277 63.7666 66.1559 63.7737V65.3876H67.2241V65.3733ZM66.1417 67.9725C66.1844 67.9797 66.2485 67.9868 66.3268 67.994C66.4052 68.0011 66.4977 68.0083 66.5974 68.0083C66.6971 68.0154 66.804 68.0154 66.9179 68.0225C67.0318 68.0225 67.1386 68.0297 67.2383 68.0297C67.452 68.0297 67.6514 68.0154 67.8436 67.9868C68.0359 67.9583 68.2068 67.9083 68.3492 67.8297C68.4917 67.7583 68.6056 67.6584 68.6911 67.537C68.7765 67.4156 68.8192 67.2656 68.8192 67.0728C68.8192 66.8871 68.7836 66.7372 68.7053 66.6158C68.627 66.4944 68.5273 66.4016 68.392 66.323C68.2638 66.2516 68.1071 66.2016 67.9291 66.173C67.7511 66.1445 67.5588 66.1302 67.3523 66.1302H66.1417V67.9725Z" fill="white"/>
<path d="M75.925 65.8949C75.925 66.3447 75.8609 66.7589 75.7256 67.1231C75.5974 67.4873 75.4123 67.8015 75.1702 68.0657C74.9352 68.3299 74.6504 68.5298 74.3228 68.6727C73.9952 68.8155 73.6392 68.8869 73.2546 68.8869C72.8701 68.8869 72.514 68.8155 72.1864 68.6727C71.8589 68.5298 71.574 68.3299 71.339 68.0657C71.104 67.8015 70.9189 67.4873 70.7836 67.1231C70.6554 66.7589 70.5913 66.3519 70.5913 65.8949C70.5913 65.4521 70.6554 65.0451 70.7836 64.6738C70.9118 64.3024 71.0969 63.9882 71.339 63.724C71.574 63.4598 71.8589 63.2599 72.1864 63.1171C72.514 62.9742 72.8701 62.9028 73.2546 62.9028C73.6392 62.9028 73.9952 62.9742 74.3228 63.1171C74.6504 63.2599 74.9352 63.4598 75.1702 63.724C75.4052 63.9882 75.5903 64.3024 75.7256 64.6738C75.8609 65.038 75.925 65.445 75.925 65.8949ZM74.8711 65.8949C74.8711 65.2522 74.7287 64.7452 74.4367 64.3667C74.1519 63.9882 73.7602 63.8026 73.2617 63.8026C72.7633 63.8026 72.3716 63.9882 72.0867 64.3667C71.8019 64.7452 71.6524 65.2522 71.6524 65.8949C71.6524 66.5375 71.7948 67.0445 72.0867 67.423C72.3716 67.8015 72.7633 67.9871 73.2617 67.9871C73.7602 67.9871 74.1447 67.8015 74.4367 67.423C74.7216 67.0445 74.8711 66.5375 74.8711 65.8949Z" fill="white"/>
<path d="M81.9263 65.9021C81.9263 66.3305 81.8694 66.7304 81.7554 67.0946C81.6415 67.4588 81.4777 67.773 81.257 68.0372C81.0362 68.3014 80.7727 68.5085 80.4523 68.6513C80.139 68.8013 79.7758 68.8727 79.3627 68.8727C79.0352 68.8727 78.7432 68.8298 78.494 68.7441C78.2447 68.6584 78.0525 68.5728 77.9314 68.4942V70.7721H76.9131V63.2242C77.1552 63.1671 77.4543 63.1028 77.8175 63.0314C78.1806 62.96 78.5937 62.9243 79.0708 62.9243C79.5052 62.9243 79.9039 62.9957 80.2529 63.1314C80.6018 63.2671 80.9009 63.467 81.1501 63.7241C81.3994 63.9812 81.5917 64.2882 81.727 64.6596C81.8551 65.0309 81.9263 65.4451 81.9263 65.9021ZM80.8653 65.9021C80.8653 65.238 80.7015 64.7238 80.374 64.3668C80.0464 64.0097 79.612 63.8312 79.0637 63.8312C78.7574 63.8312 78.5153 63.8383 78.3515 63.8669C78.1806 63.8883 78.0453 63.9169 77.9385 63.9455V67.5373C78.0596 67.6373 78.2376 67.7373 78.4726 67.8301C78.7076 67.9229 78.9568 67.9729 79.2346 67.9729C79.5265 67.9729 79.7758 67.9229 79.9823 67.8158C80.1888 67.7087 80.3597 67.5659 80.4879 67.3802C80.6161 67.1946 80.7158 66.9732 80.7727 66.7233C80.8368 66.4662 80.8653 66.1948 80.8653 65.9021Z" fill="white"/>
<path d="M87.9086 63.0454V68.7438H86.9259V64.4022C86.7052 64.6807 86.4702 65.002 86.2067 65.3805C85.9432 65.7518 85.6797 66.1374 85.4162 66.5373C85.1528 66.9372 84.9035 67.3299 84.6614 67.7155C84.4193 68.1011 84.2128 68.4439 84.0348 68.7438H83.1304V63.0454H84.1131V67.1443C84.3054 66.8301 84.519 66.4873 84.7611 66.1088C85.0032 65.7304 85.2525 65.3591 85.5088 64.9877C85.7652 64.6164 86.0287 64.2665 86.285 63.9237C86.5414 63.581 86.7835 63.2882 87.0114 63.0454H87.9086Z" fill="white"/>
<path d="M93.6709 63.0454V63.9023H91.8265V68.7438H90.8082V63.9023H88.9639V63.0454H93.6709Z" fill="white"/>
<path d="M94.3999 65.902C94.3999 65.395 94.4711 64.9594 94.6207 64.5809C94.7702 64.2025 94.9625 63.8954 95.1975 63.6455C95.4396 63.3956 95.7173 63.2099 96.0306 63.0885C96.344 62.9671 96.6644 62.9028 96.992 62.9028C97.7539 62.9028 98.345 63.1456 98.7509 63.6241C99.1568 64.1025 99.3633 64.8309 99.3633 65.8092C99.3633 65.852 99.3633 65.9091 99.3633 65.9805C99.3633 66.052 99.3633 66.1162 99.3562 66.1734H95.4681C95.5108 66.766 95.6817 67.2159 95.9808 67.523C96.2799 67.83 96.7427 67.98 97.3765 67.98C97.7326 67.98 98.0317 67.9514 98.2809 67.8872C98.523 67.8229 98.7082 67.7658 98.8292 67.7086L98.9717 68.5655C98.8506 68.6298 98.6298 68.7012 98.3236 68.7726C98.0174 68.844 97.6614 68.8797 97.2697 68.8797C96.7712 68.8797 96.344 68.8012 95.9879 68.6512C95.6247 68.5013 95.3328 68.2942 95.0978 68.03C94.8628 67.7658 94.6919 67.4516 94.5779 67.0945C94.4498 66.7303 94.3999 66.3305 94.3999 65.902ZM98.2952 65.345C98.3023 64.888 98.1883 64.5095 97.9533 64.2096C97.7183 63.9168 97.3908 63.7669 96.9777 63.7669C96.7427 63.7669 96.5362 63.8097 96.3582 63.9026C96.1802 63.9954 96.0306 64.1096 95.9025 64.2596C95.7743 64.4096 95.6817 64.5738 95.6105 64.7666C95.5393 64.9594 95.4966 65.1522 95.4752 65.345H98.2952Z" fill="white"/>
<path d="M102.692 63.8955C102.692 64.1383 102.685 64.3953 102.678 64.6667C102.663 64.938 102.649 65.2165 102.621 65.4879C102.592 65.7592 102.549 66.0306 102.5 66.302C102.45 66.5662 102.386 66.8161 102.3 67.0517C102.222 67.2874 102.122 67.5016 102.001 67.7087C101.88 67.9158 101.731 68.0943 101.56 68.2514C101.382 68.4085 101.182 68.537 100.947 68.6442C100.712 68.7513 100.442 68.8155 100.128 68.8441L99.9858 67.9872C100.342 67.9158 100.627 67.7801 100.833 67.5802C101.04 67.3802 101.204 67.1446 101.332 66.8589C101.439 66.609 101.524 66.3305 101.574 66.0163C101.624 65.7021 101.659 65.3736 101.681 65.038C101.702 64.6953 101.716 64.3596 101.716 64.0169C101.716 63.6741 101.723 63.3456 101.723 63.0386H105.505V68.737H104.486V63.8955H102.692Z" fill="white"/>
<path d="M107.027 68.6224V63.0454H108.045V65.2234C108.102 65.2091 108.18 65.1948 108.28 65.1805C108.38 65.1662 108.487 65.152 108.601 65.1377C108.715 65.1234 108.829 65.1091 108.957 65.102C109.078 65.0948 109.199 65.0948 109.306 65.0948C109.619 65.0948 109.911 65.1305 110.189 65.202C110.466 65.2734 110.708 65.3805 110.915 65.5304C111.122 65.6804 111.285 65.8732 111.413 66.1088C111.535 66.3445 111.599 66.6301 111.599 66.9586C111.599 67.3014 111.542 67.5941 111.421 67.8369C111.307 68.0797 111.136 68.2725 110.915 68.4296C110.694 68.5796 110.438 68.6938 110.132 68.7652C109.833 68.8367 109.491 68.8724 109.12 68.8724C108.757 68.8724 108.401 68.8509 108.052 68.8152C107.703 68.7581 107.362 68.701 107.027 68.6224ZM109.177 68.0297C109.605 68.0297 109.947 67.9441 110.196 67.7798C110.445 67.6156 110.566 67.3442 110.566 66.9658C110.566 66.7801 110.53 66.623 110.459 66.4945C110.388 66.3659 110.288 66.2588 110.16 66.1731C110.032 66.0874 109.882 66.0232 109.719 65.9874C109.555 65.9446 109.37 65.9303 109.185 65.9303C108.985 65.9303 108.786 65.9375 108.579 65.9446C108.373 65.9517 108.195 65.9803 108.052 66.016V67.9798C108.095 67.9869 108.159 67.994 108.252 68.0012C108.337 68.0083 108.437 68.0155 108.544 68.0155C108.65 68.0226 108.757 68.0226 108.871 68.0297C108.971 68.0226 109.078 68.0297 109.177 68.0297Z" fill="white"/>
<path d="M117.231 68.737H116.213V66.2163H113.592V68.737H112.574V63.0386H113.592V65.3594H116.213V63.0386H117.231V68.737Z" fill="white"/>
<path d="M118.765 63.0457H119.783V65.2237C119.905 65.1951 120.09 65.1666 120.325 65.138C120.56 65.1094 120.788 65.0951 121.008 65.0951C121.307 65.0951 121.592 65.1309 121.863 65.2023C122.133 65.2737 122.368 65.3808 122.575 65.5307C122.781 65.6807 122.938 65.8735 123.059 66.1091C123.18 66.3448 123.237 66.6304 123.237 66.9589C123.237 67.3017 123.18 67.5945 123.059 67.8372C122.945 68.08 122.781 68.2728 122.568 68.4299C122.354 68.5799 122.105 68.6941 121.806 68.7656C121.507 68.837 121.179 68.8727 120.823 68.8727C120.481 68.8727 120.132 68.8512 119.783 68.8155C119.435 68.7727 119.093 68.7156 118.765 68.637V63.0457ZM120.852 65.9235C120.652 65.9235 120.467 65.9306 120.275 65.9378C120.09 65.9449 119.926 65.9735 119.776 66.0092V67.9729C119.819 67.9801 119.883 67.9872 119.969 67.9943C120.054 68.0015 120.147 68.0086 120.239 68.0086C120.339 68.0158 120.439 68.0158 120.538 68.0229C120.638 68.0229 120.731 68.03 120.809 68.03C121.25 68.03 121.599 67.9444 121.834 67.7801C122.076 67.6159 122.198 67.3445 122.198 66.9661C122.198 66.7804 122.162 66.6233 122.084 66.4948C122.005 66.3662 121.906 66.2591 121.777 66.1734C121.649 66.0877 121.507 66.0235 121.343 65.9878C121.193 65.9449 121.023 65.9235 120.852 65.9235ZM125.295 68.737H124.277V63.0386H125.295V68.737Z" fill="white"/>
<path d="M131.818 63.0458V68.7442H130.836V64.4026C130.615 64.6811 130.38 65.0024 130.116 65.3809C129.853 65.7522 129.589 66.1378 129.326 66.5377C129.062 66.9376 128.813 67.3303 128.571 67.7159C128.329 68.1016 128.122 68.4443 127.944 68.7442H127.04V63.0458H128.023V67.1447C128.215 66.8305 128.429 66.4877 128.671 66.1093C128.913 65.7308 129.162 65.3595 129.418 64.9881C129.675 64.6168 129.938 64.2669 130.195 63.9241C130.451 63.5814 130.693 63.2886 130.921 63.0458H131.818ZM129.433 62.1246C128.977 62.1246 128.6 62.0104 128.315 61.7747C128.03 61.5391 127.852 61.2178 127.795 60.7964L128.571 60.5894C128.628 60.825 128.728 61.0107 128.863 61.1606C128.998 61.3034 129.191 61.382 129.433 61.382C129.675 61.382 129.86 61.3106 130.002 61.1606C130.138 61.0107 130.237 60.825 130.294 60.5894L131.056 60.7964C130.999 61.2106 130.828 61.5391 130.544 61.7747C130.266 62.0032 129.896 62.1246 129.433 62.1246Z" fill="white"/>
<path d="M139.894 70.765H138.911V68.7727C138.484 68.7656 138.078 68.6942 137.7 68.5656C137.323 68.4371 136.988 68.2443 136.703 68.0015C136.419 67.7587 136.191 67.4588 136.02 67.1018C135.849 66.7519 135.771 66.3448 135.771 65.8878C135.771 65.4379 135.856 65.0309 136.02 64.6739C136.184 64.324 136.411 64.0169 136.703 63.7741C136.988 63.5313 137.323 63.3385 137.7 63.21C138.078 63.0814 138.484 63.01 138.911 63.0029V60.4036L139.894 60.2251V62.9958C140.314 63.0029 140.72 63.0743 141.104 63.2028C141.489 63.3314 141.823 63.5242 142.108 63.767C142.393 64.0098 142.621 64.3097 142.792 64.6667C142.956 65.0238 143.041 65.4237 143.041 65.8807C143.041 66.3305 142.956 66.7376 142.792 67.0946C142.621 67.4517 142.393 67.7516 142.108 67.9944C141.823 68.2372 141.489 68.43 141.104 68.5585C140.72 68.687 140.321 68.7584 139.894 68.7656V70.765ZM136.803 65.895C136.803 66.2163 136.853 66.5019 136.96 66.7519C137.067 67.0018 137.216 67.2089 137.401 67.3803C137.594 67.5516 137.814 67.6802 138.071 67.773C138.327 67.8658 138.605 67.9158 138.904 67.923V63.8669C138.605 63.8741 138.327 63.9241 138.071 64.024C137.814 64.1169 137.586 64.2526 137.401 64.4239C137.209 64.5953 137.067 64.8024 136.96 65.0523C136.853 65.2951 136.803 65.5808 136.803 65.895ZM139.894 67.9158C140.193 67.9087 140.47 67.8587 140.727 67.7659C140.983 67.673 141.211 67.5445 141.396 67.3731C141.588 67.2017 141.731 66.9947 141.838 66.7447C141.945 66.4948 141.994 66.2092 141.994 65.8878C141.994 65.5736 141.945 65.2951 141.838 65.0452C141.731 64.7953 141.581 64.5882 141.396 64.4168C141.204 64.2454 140.983 64.1097 140.727 64.0169C140.47 63.9241 140.193 63.8669 139.894 63.8598V67.9158Z" fill="white"/>
<path d="M149.473 65.8949C149.473 66.3447 149.409 66.7589 149.274 67.1231C149.146 67.4873 148.961 67.8015 148.719 68.0657C148.484 68.3299 148.199 68.5298 147.871 68.6727C147.544 68.8155 147.187 68.8869 146.803 68.8869C146.418 68.8869 146.062 68.8155 145.735 68.6727C145.407 68.5298 145.122 68.3299 144.887 68.0657C144.652 67.8015 144.467 67.4873 144.332 67.1231C144.204 66.7589 144.14 66.3519 144.14 65.8949C144.14 65.4521 144.204 65.0451 144.332 64.6738C144.46 64.3024 144.645 63.9882 144.887 63.724C145.129 63.4598 145.407 63.2599 145.735 63.1171C146.062 62.9742 146.418 62.9028 146.803 62.9028C147.187 62.9028 147.544 62.9742 147.871 63.1171C148.199 63.2599 148.484 63.4598 148.719 63.724C148.954 63.9882 149.139 64.3024 149.274 64.6738C149.409 65.038 149.473 65.445 149.473 65.8949ZM148.412 65.8949C148.412 65.2522 148.27 64.7452 147.978 64.3667C147.693 63.9882 147.301 63.8026 146.803 63.8026C146.304 63.8026 145.913 63.9882 145.628 64.3667C145.343 64.7452 145.194 65.2522 145.194 65.8949C145.194 66.5375 145.336 67.0445 145.628 67.423C145.913 67.8015 146.304 67.9871 146.803 67.9871C147.301 67.9871 147.693 67.8015 147.978 67.423C148.27 67.0445 148.412 66.5375 148.412 65.8949Z" fill="white"/>
<path d="M155.336 68.737H154.318V66.2163H151.698V68.737H150.679V63.0386H151.698V65.3594H154.318V63.0386H155.336V68.737Z" fill="white"/>
<path d="M156.171 67.9087H156.783C157.025 67.5588 157.218 67.1946 157.36 66.8232C157.503 66.4519 157.609 66.0663 157.681 65.6664C157.752 65.2665 157.802 64.8524 157.823 64.4168C157.844 63.9812 157.859 63.5242 157.866 63.0386H161.59V67.9015H162.352V70.3223H161.391V68.737H157.132V70.3223H156.171V67.9087ZM160.572 67.9087V63.9026H158.791C158.784 64.2454 158.763 64.5881 158.735 64.938C158.706 65.2879 158.656 65.6307 158.592 65.9663C158.528 66.3091 158.435 66.6376 158.314 66.9661C158.193 67.2874 158.044 67.6087 157.859 67.9158H160.572V67.9087Z" fill="white"/>
<path d="M30.107 57.8973C30.1141 57.7759 30.1212 57.6474 30.1212 57.4974C30.1355 57.0761 30.1355 56.819 30.1355 56.7333C30.1355 56.7262 30.1355 56.7191 30.1355 56.7119L30.0571 55.6765H31.1894C31.3033 55.6765 31.403 55.6122 31.4529 55.5123C32.051 54.234 33.0694 51.9275 34.579 48.4642C36.1813 44.8081 37.3848 42.0374 38.2464 40.0023C39.4143 37.2245 40.1762 35.375 40.5679 34.3467H41.7856C42.3767 35.8248 42.9748 37.2816 43.5588 38.6883C43.6229 38.8454 46.0084 44.5653 47.4255 47.9572C48.8711 51.4062 49.9179 53.877 50.6158 55.5051C50.6585 55.6122 50.7653 55.6765 50.8793 55.6765H52.0115L51.9332 56.7119C51.9332 56.7191 51.9332 56.7262 51.9332 56.7333C51.9332 57.0261 51.9403 57.2975 51.9474 57.5688C51.9546 57.6688 51.9546 57.7759 51.9688 57.883C51.5059 57.3832 50.8864 57.069 50.1031 56.9333C49.1916 56.7833 47.6249 56.7119 45.3034 56.7119H37.107C35.0419 56.7119 33.8812 56.7262 33.5607 56.7476C32.051 56.8476 30.8903 57.2332 30.107 57.8973ZM40.5038 37.4387C40.3899 37.4387 40.2902 37.5029 40.2403 37.6101C39.2932 39.7095 38.4814 41.5447 37.8191 43.0728C36.9717 45.0437 36.167 46.9932 35.4264 48.8784C34.6218 50.9706 33.8242 53.1272 33.0694 55.2909C33.0409 55.3766 33.0551 55.4765 33.105 55.5551C33.1619 55.6336 33.2474 55.6765 33.34 55.6765H47.7246C47.8172 55.6765 47.9098 55.6265 47.9667 55.548C48.0237 55.4694 48.0308 55.3694 47.9952 55.2766L40.9026 37.6172C40.8599 37.5101 40.7531 37.4387 40.632 37.4387H40.5038Z" fill="white"/>
<path d="M74.7722 56.7117C74.7651 56.7117 74.7366 56.7117 74.7366 56.7117L73.17 56.7974C72.3938 54.5837 71.7315 52.7699 71.1903 51.3989C70.8271 50.492 70.3286 49.3138 69.7091 47.8856C69.6664 47.7785 69.5596 47.7142 69.4456 47.7142H60.9074C60.7863 47.7142 60.6867 47.7856 60.6368 47.8927C59.3408 51.1347 58.6073 53.0127 58.4506 53.4626C58.1302 54.3195 57.767 55.4335 57.3682 56.7903L56.357 56.7046C56.3499 56.7046 56.3428 56.7046 56.3356 56.7046C56.3285 56.7046 56.3214 56.7046 56.3143 56.7046L55.6235 56.7617L65.8352 33.8252H66.2269L76.0469 56.7974L74.7722 56.7117ZM65.2086 37.7027C65.0946 37.7027 64.9878 37.7741 64.9451 37.8812L61.2706 46.4717C61.235 46.5645 61.2421 46.6645 61.292 46.743C61.3489 46.8216 61.4344 46.8716 61.5341 46.8716H68.9187C69.0184 46.8716 69.1038 46.8216 69.1608 46.743C69.2106 46.6645 69.2249 46.5574 69.1822 46.4717L65.472 37.8812C65.4293 37.7741 65.3225 37.7027 65.2086 37.7027Z" fill="white"/>
<path d="M89.7698 37.6172C89.7271 37.5101 89.6203 37.4315 89.4992 37.4315H89.2001C89.0862 37.4315 88.9794 37.4958 88.9367 37.6029C87.3486 41.1948 85.8746 44.7224 84.5501 48.0786C83.2611 51.3491 82.1787 54.284 81.3384 56.819L80.3272 56.7119C80.3201 56.7119 80.3059 56.7119 80.2987 56.7119C80.2845 56.7119 80.2774 56.7119 80.2703 56.7119L79.5938 56.7905C80.078 55.7979 80.9325 53.9341 82.1502 51.2134C83.3181 48.5785 84.7423 45.2936 86.3873 41.459C87.9397 37.8386 88.9082 35.4535 89.2856 34.3467H90.4606C91.1727 36.1033 91.8777 37.8314 92.5756 39.4953C93.7078 42.2516 95.1748 45.7649 96.9408 49.9424C98.4006 53.42 99.3833 55.6765 99.9174 56.7905C99.9174 56.7905 98.7923 56.7191 98.7852 56.7191C98.778 56.7191 98.7709 56.7191 98.7638 56.7191L97.3325 56.8333L89.7698 37.6172Z" fill="white"/>
<path d="M104.203 56.7404V34.3608L105.143 34.4394C105.15 34.4394 105.179 34.4394 105.186 34.4394L106.354 34.3608V44.4652C106.354 44.6223 106.482 44.758 106.646 44.758H109.701C112.898 44.758 114.878 45.1507 116.081 45.9291C117.242 46.6789 117.833 48.0428 117.833 49.9994C117.833 51.8846 117.256 53.3627 116.11 54.3982C115.034 55.3693 113.518 56.1048 111.118 56.5833C110.797 56.6475 110.121 56.6904 109.102 56.7118C108.141 56.7332 107.465 56.7475 107.279 56.7475H104.203V56.7404ZM106.639 45.4578C106.482 45.4578 106.347 45.5863 106.347 45.7505V55.6264C106.347 55.7835 106.475 55.9192 106.639 55.9192H109.964C109.971 55.9192 109.985 55.9192 109.993 55.9192C111.716 55.7549 113.083 55.1479 114.073 54.1125C115.063 53.0771 115.561 51.7489 115.561 50.1707C115.561 48.8925 115.248 47.85 114.628 47.0573C113.931 46.1647 113.133 45.672 112.243 45.5863C111.41 45.5078 110.783 45.4649 110.32 45.4649H106.639V45.4578Z" fill="white"/>
<path d="M144.887 56.8402C143.285 56.8402 141.69 56.8259 139.682 56.7974C137.545 56.7688 135.487 56.7402 133.515 56.7045H133.508C130.609 56.7045 128.252 56.7188 126.501 56.7474C124.856 56.7759 123.552 56.8045 122.135 56.8331V34.2607L123.075 34.3393C123.082 34.3393 123.111 34.3393 123.111 34.3393L124.279 34.2607V55.3478C124.279 55.5049 124.407 55.6405 124.571 55.6405H132.034C132.19 55.6405 132.44 55.512 132.44 55.3478V34.2607L133.493 34.3393C133.501 34.3393 133.508 34.3393 133.515 34.3393C133.999 34.3393 134.277 34.325 134.59 34.2893V55.3478C134.59 55.5049 134.832 55.6405 134.996 55.6405H142.459C142.616 55.6405 142.751 55.512 142.751 55.3478V34.2607L143.919 34.3393C143.926 34.3393 143.954 34.3393 143.954 34.3393L144.894 34.2607V56.8402H144.887Z" fill="white"/>
<path d="M150.643 56.7112V34.3389H161.731L161.659 34.9887C161.659 35.0101 161.659 35.0315 161.659 35.0458L161.724 35.6385C161.225 35.5457 160.791 35.4743 160.442 35.4243C160 35.3672 159.53 35.3386 159.025 35.3386H153.078C152.922 35.3386 152.787 35.4671 152.787 35.6314V44.0862C152.787 44.2433 152.915 44.3789 153.078 44.3789H158.284C158.726 44.3789 159.302 44.3575 160 44.3147C160.413 44.2861 160.734 44.2718 160.947 44.2575L160.883 44.8003C160.883 44.8217 160.883 44.8431 160.883 44.8645L160.947 45.4786C160.591 45.4644 160.15 45.4358 159.616 45.3858C158.868 45.3144 158.441 45.2858 158.277 45.2858H153.071C152.915 45.2858 152.779 45.4144 152.779 45.5786V55.4187C152.779 55.5758 152.908 55.7115 153.071 55.7115C153.805 55.7115 154.987 55.6901 156.589 55.6473C157.636 55.6187 159.046 55.583 159.153 55.583C159.801 55.583 160.264 55.5687 160.563 55.533C160.819 55.5044 161.275 55.4402 161.916 55.3402L161.852 55.9757C161.852 55.9972 161.852 56.0114 161.852 56.0329L161.923 56.7255H150.643V56.7112Z" fill="white"/>
<path d="M33.1092 92.4021L32.2689 92.0451C31.6565 91.7809 31.0085 91.5024 30.332 91.181C29.8121 90.9454 29.2638 90.6883 28.7155 90.4241C28.687 90.4027 28.6656 90.3955 28.6371 90.3884C28.5588 90.3527 28.4947 90.3099 28.4164 90.2813C24.8701 88.5318 20.9748 86.311 18.2617 84.2901V84.283C18.1548 84.2115 18.048 84.1401 17.9412 84.0402C17.8629 83.9902 17.7774 83.9259 17.6991 83.8688C17.6492 83.8331 17.5994 83.7902 17.5424 83.7545C17.4855 83.7045 17.4285 83.6546 17.3644 83.6117C17.1792 83.4689 16.9941 83.3189 16.809 83.1618C16.7733 83.1261 16.7235 83.0904 16.6808 83.0547C16.5526 82.9476 16.4315 82.8405 16.2962 82.7334C16.1681 82.6263 16.047 82.5263 15.9188 82.412C15.869 82.3835 15.8191 82.3406 15.7764 82.2978C15.2565 81.8408 14.7225 81.3623 14.1955 80.8696C14.1172 80.7982 14.0531 80.7339 13.9819 80.6554C13.9534 80.634 13.9107 80.5983 13.8822 80.5697C13.8038 80.4983 13.7397 80.434 13.6685 80.3555C13.6614 80.3555 13.6614 80.3555 13.6614 80.3483C11.0764 77.8419 8.84754 75.1141 7.01741 72.2077C6.83226 71.915 6.64711 71.6222 6.48333 71.3223C6.41211 71.2223 6.35514 71.1295 6.31242 71.0295C6.12727 70.7153 5.95636 70.4011 5.77833 70.0869C5.59318 69.7727 5.4294 69.4656 5.26561 69.1514C4.94516 68.5373 4.66744 67.9589 4.41108 67.3948C4.26865 67.0806 4.13336 66.7807 4.0123 66.4807C3.88412 66.1808 3.77018 65.8666 3.65624 65.5667C3.54942 65.2668 3.44261 64.9526 3.33579 64.6455C3.25034 64.4099 3.17912 64.1885 3.12216 63.9672C3.11503 63.9386 3.10079 63.91 3.10079 63.8886C2.89428 63.1888 2.75186 62.5104 2.65216 61.8463C2.50974 60.9251 2.44565 60.0182 2.50974 59.1471C2.50974 59.0685 2.51686 58.99 2.51686 58.9114C2.52398 58.7757 2.53822 58.6472 2.55246 58.5258C2.55246 58.4758 2.55247 58.4187 2.55959 58.3687C2.55959 58.2616 2.56671 58.1545 2.58807 58.0545C2.60944 57.8688 2.63792 57.6832 2.6664 57.5118C2.69489 57.369 2.73762 57.219 2.7661 57.0762C2.7661 57.0691 2.7661 57.0691 2.77322 57.0548C2.77322 57.0334 2.78034 57.0191 2.78034 56.9977C2.78746 56.962 2.78746 56.9191 2.80882 56.8905C2.80882 56.8834 2.80882 56.8834 2.80882 56.8691V56.8406C2.81595 56.7834 2.83731 56.7334 2.84443 56.6835C2.8658 56.5835 2.89428 56.4764 2.92276 56.3835C2.92988 56.3121 2.95125 56.255 2.97261 56.1907C3.00109 56.0836 3.0367 55.9837 3.07943 55.8765C3.18624 55.5338 3.32155 55.1982 3.46397 54.8768C3.46397 54.8768 3.47109 54.8768 3.47109 54.8697C3.50669 54.7626 3.57079 54.6626 3.61351 54.5698C3.66336 54.4626 3.72033 54.3555 3.77018 54.2556C3.79154 54.2199 3.80578 54.1842 3.84139 54.1484C3.84851 54.1484 3.84851 54.1485 3.84851 54.1413C3.85563 54.1199 3.86987 54.1056 3.87699 54.0842C3.90548 54.0342 3.94821 53.9771 3.98381 53.9199C4.2829 53.4915 4.84547 52.7417 5.67152 52.0776C6.22697 51.6134 6.88211 51.1921 7.65119 50.9208C7.79361 50.8636 7.95028 50.8137 8.10694 50.7637H8.11406V50.7708C7.19544 52.1276 6.85362 53.8414 6.7468 55.1696C6.7112 55.5766 6.68984 55.9551 6.68984 56.2693V56.2764C6.68984 56.5264 6.68984 56.7406 6.69696 56.8977C6.70408 57.1333 6.71832 57.2547 6.71832 57.2547C6.75392 57.6046 6.80378 57.9474 6.86074 58.2973C6.88923 58.5115 6.92484 58.7258 6.96756 58.94C7.02453 59.2328 7.0815 59.5112 7.15271 59.7969C7.22392 60.0682 7.29513 60.3539 7.37347 60.6324C7.44468 60.9037 7.53013 61.1751 7.6227 61.4607C7.87194 62.2462 8.17815 63.0745 8.54133 63.9386C10.1293 67.7304 12.2728 71.2437 14.8934 74.4285C14.9788 74.5357 15.0714 74.6428 15.164 74.7499C15.3847 75.0212 15.6268 75.2926 15.8618 75.5639C16.8517 76.6922 17.9127 77.7705 19.0307 78.7702C19.1019 78.8416 19.1732 78.8987 19.2444 78.9559C19.3441 79.0558 19.4295 79.1272 19.5221 79.2201C20.6828 80.2484 21.8365 81.1838 22.9901 82.0193C23.2607 82.2121 23.5313 82.4049 23.8019 82.6048C24.0511 82.7762 24.3075 82.9476 24.5639 83.1119C24.8273 83.2832 25.0837 83.4617 25.3472 83.6188C27.4479 84.9328 29.5629 85.9325 31.6992 86.6466L31.9698 86.7323L32.0054 86.9465L32.041 87.1536L32.0481 87.1821L32.9668 92.0022L32.9739 92.0237L33.1092 92.4021Z" fill="white"/>
</g>
<defs>
<clipPath id="clip0_105_139">
<rect width="168" height="100" fill="white"/>
</clipPath>
</defs>
</svg>
