<svg width="202" height="400" viewBox="0 0 202 400" fill="none" xmlns="http://www.w3.org/2000/svg">
<path d="M76.5273 152.333C119.817 230.181 175.637 297.477 200.912 331.77L173.761 397.897C104.545 317.899 46.6754 234.735 24.2843 170.626C14.6976 143.159 22.7171 101.147 27.8855 75.819C31.7785 56.7208 38.5309 37.5675 43.5243 28.8564C37.7056 40.7101 27.0019 63.2817 76.5273 152.333Z" fill="url(#paint0_linear_105_129)"/>
<path d="M43.4392 29.043C37.6038 40.9518 27.2836 63.766 76.5339 152.321C119.782 230.092 175.61 297.432 200.919 331.758L201.41 331.229C175.368 296.936 120.524 229.42 77.2259 151.571C27.7088 62.52 38.4041 39.9484 44.2228 28.0947C43.9727 28.3924 43.7059 28.7122 43.4392 29.043Z" fill="#E4AFB9"/>
<path d="M121.897 151.677C79.899 230.761 25.2051 299.655 0.504883 334.665L28.748 399.998C96.6214 318.026 153.116 233.209 174.432 168.46C183.568 140.728 174.848 98.9478 169.263 73.7739C165.053 54.797 157.993 35.8421 152.849 27.2744C158.868 38.9627 169.938 61.2145 121.897 151.677Z" fill="url(#paint1_linear_105_129)"/>
<path d="M152.945 27.4692C158.98 39.2126 169.667 61.7181 121.892 151.685C79.936 230.691 25.2337 299.63 0.500178 334.672L0 334.154C25.4671 299.111 79.1857 230.029 121.184 150.946C169.225 60.4831 158.155 38.2312 152.136 26.543C152.403 26.8297 152.678 27.1384 152.945 27.4692Z" fill="#E4AFB9"/>
<path d="M155.558 28.8582C146.129 10.8627 128.59 -0.428597 97.8878 0.0124697C67.1855 0.453536 49.8378 12.2521 40.7097 30.5233C34.8576 42.2226 16.8431 110.853 19.7274 140.845C22.32 129.08 40.2095 76.0744 98.5046 75.2254C156.8 74.3763 175.556 126.852 178.349 138.552C180.541 103.024 161.593 40.3921 155.558 28.8582Z" fill="url(#paint2_linear_105_129)"/>
<path d="M155.558 28.8582C146.129 10.8627 128.59 -0.428597 97.8878 0.0124697C67.1855 0.453536 49.8378 12.2521 40.7097 30.5233C34.8576 42.2226 16.8431 110.853 19.7274 140.845C22.32 129.08 40.2095 76.0744 98.5046 75.2254C156.8 74.3763 175.556 126.852 178.349 138.552C180.541 103.024 161.593 40.3921 155.558 28.8582Z" fill="url(#paint3_linear_105_129)"/>
<path d="M178.332 136.135C175.539 124.447 156.791 72.7761 98.4961 73.6141C40.2009 74.4521 22.3114 126.663 19.7105 138.429C19.5521 136.775 19.4605 134.989 19.4188 133.114C19.4021 135.893 19.5021 138.484 19.7272 140.833C22.3198 129.067 40.2093 76.062 98.5044 75.2129C156.8 74.3749 175.556 126.84 178.349 138.539C178.507 135.948 178.549 133.202 178.499 130.357C178.499 132.353 178.449 134.283 178.332 136.135Z" fill="#E4AFB9"/>
<defs>
<linearGradient id="paint0_linear_105_129" x1="60.6884" y1="126.233" x2="213.071" y2="298.456" gradientUnits="userSpaceOnUse">
<stop stop-color="#CE8E9A"/>
<stop offset="0.200852" stop-color="#E3AEB8"/>
<stop offset="0.302149" stop-color="#F6D9DE"/>
<stop offset="0.69286" stop-color="#EBBFC8"/>
<stop offset="1" stop-color="#E3AEB8"/>
</linearGradient>
<linearGradient id="paint1_linear_105_129" x1="123.631" y1="116.315" x2="-28.2783" y2="322.599" gradientUnits="userSpaceOnUse">
<stop stop-color="#CE8E9A"/>
<stop offset="0.137112" stop-color="#E3AEB8"/>
<stop offset="0.564858" stop-color="#F6D9DE"/>
<stop offset="0.69286" stop-color="#EBBFC8"/>
<stop offset="1" stop-color="#E3AEB8"/>
</linearGradient>
<linearGradient id="paint2_linear_105_129" x1="18.8979" y1="71.0126" x2="178.003" y2="69.7013" gradientUnits="userSpaceOnUse">
<stop stop-color="#FF4AA8"/>
<stop offset="0.0498" stop-color="#FF54AE"/>
<stop offset="0.1344" stop-color="#FF6FC0"/>
<stop offset="0.2429" stop-color="#FF9ADC"/>
<stop offset="0.2672" stop-color="#FFA5E3"/>
<stop offset="0.3304" stop-color="#FF86CF"/>
<stop offset="0.41" stop-color="#FF65BA"/>
<stop offset="0.4765" stop-color="#FF51AD"/>
<stop offset="0.5214" stop-color="#FF4AA8"/>
<stop offset="0.7199" stop-color="#FF7DC6"/>
<stop offset="0.7386" stop-color="#FF77C2"/>
<stop offset="0.8479" stop-color="#FF56AF"/>
<stop offset="0.9389" stop-color="#FF41A3"/>
<stop offset="1" stop-color="#FF3A9F"/>
</linearGradient>
<linearGradient id="paint3_linear_105_129" x1="39.8342" y1="60.6261" x2="162.497" y2="74.6865" gradientUnits="userSpaceOnUse">
<stop stop-color="#CE8E9A"/>
<stop offset="0.11" stop-color="#E3AEB8"/>
<stop offset="0.342163" stop-color="#F6D9DE"/>
<stop offset="0.69286" stop-color="#EBBFC8"/>
<stop offset="1" stop-color="#E3AEB8"/>
</linearGradient>
</defs>
</svg>
