<svg width="315" height="202" viewBox="0 0 315 202" fill="none" xmlns="http://www.w3.org/2000/svg">
<path d="M163.04 174.92C157.95 176.36 152.85 177.79 147.76 179.22M127.56 179.22C128.58 180.2 134.26 179.91 136.19 179.25C136.79 178.17 137.35 177.06 138.04 175.98M138.04 175.98C138.14 173.25 140.2 168 137.51 167.35L132.95 164.93C132.07 164.63 131.52 164.83 131.23 165.72C130.37 168.36 129.49 170.99 128.65 173.65C128.41 174.39 128 177 127.56 178.86C123.07 178.97 113.92 178.51 109.52 177.48C107.71 177.06 105.49 176.53 103.5 175.98M138.04 175.98C138.21 175.71 138.68 175.55 139.03 175.48C144.07 174.51 149.12 173.55 154.17 172.61C155.76 172.32 157.29 172.43 158.74 173.23C161.01 174.48 163.38 174.53 165.82 173.79C167.73 173.21 169.64 172.61 171.59 172.14C174.05 171.54 176.42 171.31 178.92 172.73C180.26 173.42 181.87 173.58 183.43 174.2M112.49 117.68C112.89 117.99 113.28 118.15 113.45 118.45C113.88 119.2 114.38 119.97 114.56 120.79C115.3 124.19 115.88 127.62 116.61 131.02C117.82 136.6 117.91 142.13 116.51 147.71C115.75 150.72 115.6 153.81 116.37 156.9C116.71 158.25 116.83 159.65 117.16 161C117.25 161.39 117.66 161.91 118.02 162C121.91 162.95 125.82 163.83 129.73 164.7C130.03 164.77 131.42 165.295 131.55 165.115M117.202 107.634C115.5 109 113.81 109.71 112.9 110.2C110.28 111.61 107.61 112.79 104.65 113.37C100.91 114.1 98.5199 116.58 97.6499 120.17C97.0399 122.71 96.6299 135.8 96.8099 138.41M96.8099 138.41C97.4599 146.66 98.0899 154.91 98.9899 163.13C99.3499 166.48 100.33 169.77 101.17 173.05C101.36 173.82 102.03 174.55 102.66 175.09C103.2 175.55 103.29 175.84 103.06 176.49C102.57 177.88 101.44 181.06 101.17 182.5M96.8099 138.41C96.6499 136.38 96.2999 134.5 95.1999 132.73C94.5399 131.67 94.0999 130.46 93.6199 129.29C91.7399 124.7 91.7299 120.14 93.8599 115.61C94.6899 113.84 95.5199 112.06 96.2999 110.26C96.6499 109.43 97.0699 108.55 97.1299 107.68C97.6199 100.79 98.8499 94.03 100.47 87.34M120.48 184.58C120.08 184.58 115.13 184.21 114.73 184.16C106.5 183.35 98.2699 182.49 90.0299 181.74C86.3099 181.4 82.5599 181 78.8399 181.13C73.3499 181.32 70.2599 184.63 69.9099 190.1C69.7699 192.27 69.6999 194.44 69.5599 196.61M70.2018 188C67.4018 173.03 63.7699 153.88 61.1299 138.88C60.1799 133.49 59.6499 128.02 58.9199 122.59C58.9199 121.98 58.9199 121.37 58.9199 120.76C59.2599 118.28 60.3899 116.4 62.6899 115.18C63.2199 114.89 63.5499 113.83 63.5999 113.1C63.7199 111.47 64.0999 110.79 65.6699 110.4C66.5099 110.19 67.3899 110.1 68.2399 109.96C74.4399 109.01 80.6399 108.07 86.8399 107.14C87.3099 107.07 96.9499 105.61 97.4199 105.58M76 181.562C74.52 174.312 72.7299 164.59 71.3199 157.33C69.0399 145.53 66.7999 133.73 64.5699 121.92C64.2899 120.43 63.6599 116.33 63.4799 114.82M103 92.56C101.42 97.03 100.51 101.7 98.8099 106.13M95.6199 127.42C94.6599 125.13 94.2699 122.84 94.9799 120.55C95.8299 117.78 96.8799 115.03 98.1399 112.43C99.4099 109.82 101.22 107.46 102.52 104.86C104.54 100.82 106.33 96.66 108.22 92.56C108.63 91.68 109.07 90.82 109.49 89.95M118.96 100.31C121.65 96.59 122.81 92.61 121.41 88C120.52 85.07 120.74 82.06 121.78 79.13C122.51 77.04 123.88 75.77 126.09 75.46C127.59 75.25 129.09 74.97 130.61 74.79C134.77 74.32 138.34 72.72 142.33 70.98M120.99 105.12C122.69 105.41 123.26 105.83 123.69 107.29C124.24 109.2 124.67 111.28 125.74 112.89C129.17 118.06 131.12 123.78 132.73 129.69C133.5 132.49 134.4 135.28 135.52 137.96M120.99 105.12C120.99 104.79 122.83 102.97 123.02 102.8C125.5 100.59 126.56 97.69 127.11 94.54C127.61 91.65 128.12 88.76 126.41 86.04C126.18 85.68 126.12 85.22 126.02 84.8C125.03 80.62 126.75 78.08 130.98 77.56C132.83 77.33 134.71 77.28 136.58 77.12C140.56 76.79 144.01 75.35 146.58 72.17C147.34 71.1 146.7 70.04 146.86 69.68M120.99 105.12C119.71 104.85 118.68 105.38 117.91 106.39C116.76 107.89 116.65 109.63 117 111.38C117.43 113.51 117.92 115.64 118.56 117.71C118.72 118.22 119.47 118.76 120.04 118.89C121.47 119.22 122.96 119.33 124.43 119.54C124.89 119.61 125.33 119.72 126.2 119.91C125.12 121.24 124.33 122.32 123.42 123.27C122.56 124.17 122.52 124.97 123.08 126.07C126.36 132.6 129.56 139.17 132.83 145.71C134.77 149.59 140.374 155.68 140.574 160M135.52 137.96C136.47 140.23 138.2 141.88 140.64 142.71C141.7 143.06 142.17 142.79 142.05 141.7M135.52 137.96C137.5 142.691 139.65 150.69 140.2 154.85C140.65 158.24 140.9 164.547 140.94 167.977M142.05 141.7C141.72 138.68 141.5 135.63 140.94 132.66C140 127.71 138.66 122.83 137.8 117.87C137.29 114.88 136.75 111.98 135.26 109.3C134.09 107.19 134.25 105.02 135.35 102.92C135.89 101.89 137.37 100.05 138 99M142.05 141.7C143.12 148.27 144.9 161.162 146 167.722M127.583 90C127.453 92.3666 129.25 93.39 130.82 94.38C134.38 96.65 137.97 98.85 141.58 101.05C142.21 101.44 142.89 101.75 143.59 101.98C145.08 102.48 145.95 101.84 146.04 100.27C146.08 99.66 146.05 99.02 146.27 98.48C146.57 97.75 147 97.5 147.5 97.5M149.31 115.51C143.5 113.5 139.5 104.86 134.5 107.042M149.31 115.51C151.51 116.12 153.12 117.08 153.82 118.86C155.67 123.54 157.56 128.23 159.01 133.05C160.75 138.83 160.43 148.02 163.02 153.7C165.4 154.51 166.19 154.34 168.13 155.74M149.31 115.51C154.65 131.99 156.43 149.742 155 166.922M139.532 108C140.262 110.13 140.94 111.38 139 113.5C141.58 115 142.523 115.51 142.78 116.5C143.41 118.93 144.66 138.74 144.7 141.7C144.74 144.66 144.434 157.06 145.024 159.9M187.673 159.93C188.063 160.23 190.22 159.85 190.7 159.67C194.5 159 198.87 161.99 200.54 164.01C201.44 165.1 202.26 166.27 203.02 167.27M230.88 155.83C221.36 158.94 211.62 161.38 202 164.13M204.49 166.39C209.66 165.61 214.74 166.17 219.74 167.57C220.1 167.68 220.66 168.12 220.63 168.33C220.57 168.72 220.17 169.09 219.85 169.39C219.64 169.59 219.31 169.67 219.02 169.76C209.32 172.88 199.62 175.98 189.93 179.11C186.57 180.19 183.2 180.4 179.76 179.55C177.81 179.07 175.85 178.68 173.9 178.21C172.7 177.92 171.65 177.54 170.27 177.15C169.04 176.26 170.77 176.18 171.71 175.91C173.98 175.37 176.24 174.79 178.53 174.31M199.26 167.66C198.89 167.41 198.53 167.16 198.16 166.92C194.88 164.71 191.59 162.52 188.31 160.29C187.28 159.59 186.22 159.44 185.1 159.93C181.01 161.72 174.56 160.377 170.27 159.407M195.95 169.84C194.71 170.25 193.46 170.67 192.22 171.07C190.99 171.47 189.77 171.86 188.17 172.36C187.87 171.97 187.11 171.32 186.73 170.5C185.34 167.49 182.97 166.12 179.78 165.45C175.08 164.46 170.49 164.61 165.79 165.41C163.527 165.796 161.159 166.151 158.74 166.468M138.5 168.041C144.878 167.93 152.008 167.349 158.74 166.468M161.92 166.025C161.92 165.41 162.2 164.78 162.33 164.54C164.29 160.74 167.45 159.15 171.65 159.43C171.77 159.43 171.9 159.39 172.2 159.34C171.96 159.01 171.81 158.71 171.58 158.51C170.44 157.56 169.32 156.6 168.13 155.74M168.13 155.74C164.913 156.875 158.532 160.61 158.74 166.468" stroke="#3C3C3B" stroke-miterlimit="10" stroke-linecap="round" stroke-linejoin="round"/>
<path d="M218.6 175.64C218.12 175.92 217.48 176.64 217.56 177.01C217.72 177.72 218.2 178.55 218.8 178.91C219.49 179.33 220.46 179.47 221.31 179.45C227.01 179.36 232.71 179.33 238.4 178.98C240.39 178.86 242.39 178.08 244.26 177.3C247.32 176.03 248.74 173.67 248.48 170.25C248.15 165.91 247.15 161.73 245.71 157.66C243.8 152.25 241.79 146.86 239.83 141.46C239.53 140.62 237.01 133.64 236.72 132.79C235.37 131.77 229.02 131.24 229.05 136.42C229.2 137.59 229.52 138.73 229.82 139.86C230.42 142.14 231.02 144.41 231.67 146.67C231.86 147.36 231.87 147.75 231.02 148M218.6 175.64C224.85 172.02 231.57 170.2 238.81 170.33C239.31 170.34 239.81 170.33 240.59 170.33M218.6 175.64C223.41 176.7 229.31 177.29 234.08 176.75C235.93 176.54 237.78 176.22 239.63 175.96C240.65 175.82 242 173 240.59 170.33M240.59 170.33C240.05 168.61 239.69 167.09 239.11 165.66C237.03 160.45 234.83 155.28 232.78 150.06C232.33 148.91 232.19 147.63 231.02 148M231.02 148C223.55 150.2 216.11 152.5 208.62 154.65C206.45 155.27 204.18 155.57 201.94 155.83C198.98 156.18 197.31 154.24 197.9 151.34C200.45 138.75 202.97 126.16 205.57 113.59C206.21 110.49 207.14 107.44 207.9 104.36C208.6 101.52 210.41 100.18 213.29 99.94C224.92 98.97 236.54 97.93 248.16 96.93C249.94 96.78 251.73 96.69 253.51 96.62C255.02 96.56 255.35 96.92 255 98.39C253.12 106.3 251.23 114.22 249.27 122.12C247.89 127.7 246.4 133.25 244.96 138.81C244.85 139.25 243.83 143.63 243.75 144.08" stroke="#3C3C3B" stroke-miterlimit="10" stroke-linecap="round" stroke-linejoin="round"/>
<path d="M130.56 55.47C125.95 54.43 122.95 56.09 119.94 60.11M109.48 89.94C112.68 80.2 115.32 67.6 119.42 57.75C121.52 54.33 124.79 52.95 128.57 52.46C129.75 52.31 133.863 51.9053 135.203 52.3053M103 92.61C103 92.36 103.73 89.88 103.81 89.66C104.54 87.58 105.28 85.52 106.03 83.45C107.76 78.66 109.44 73.86 111.25 69.1C112.87 64.87 114 61 117.5 57M100.58 86.91C100.77 86.08 102.35 80.3 102.54 79.72C104.62 73.33 107.07 67.1 110.66 61.38C113.13 57.44 115.87 53.74 119.94 51.29C123.38 49.22 127.17 48.37 130.75 50.34C133.27 51.72 135.84 52.61 138.55 53.31C138.63 53.33 138.71 53.38 138.79 53.41C143.95 55.37 148.08 58.84 152.13 62.41C154.13 64.17 155.53 66.39 156.42 68.87C156.76 69.82 156.86 70.91 156.85 71.93C156.84 72.96 155.67 73.9 154.73 74.14" stroke="#3C3C3B" stroke-miterlimit="10" stroke-linecap="round" stroke-linejoin="round"/>
<path d="M147.76 179.22C139.97 181.41 107.7 190.61 99.9299 192.88C92.6599 195 85.4199 197.21 78.1599 199.36M76.8599 197.2C76.7899 196.84 76.6699 196.48 76.6699 196.12C76.6799 194.16 76.6599 192.2 76.7799 190.24C76.9199 187.97 77.9199 186.9 80.1999 186.75C81.7999 186.65 83.4299 186.74 85.0199 186.92C90.7299 187.58 96.4199 188.34 102.13 189.01C105.68 189.42 108.48 190.604 112 189.404" stroke="#3C3C3B" stroke-miterlimit="10" stroke-linecap="round"/>
<path d="M201 155.5C201.08 154.81 201.42 153.45 201.5 153C203.21 143.66 204.56 134.33 206.32 125C207.77 117.31 209.32 109.64 211.83 102.2C212.19 101.12 212.92 100.09 214 100" stroke="#3C3C3B" stroke-miterlimit="10" stroke-linecap="round"/>
<path d="M148.5 69.7901C149.39 69.6701 149.41 69.63 150.31 69.79C151.57 70.02 152.68 70.44 153.52 71.37C154.82 72.81 154.77 74.7 154.5 76.5C153.96 80.07 154.43 83.39 156.09 86.68C156.32 87.14 156.38 87.69 156.46 88.2C156.69 89.73 156.27 91.14 155.81 92.55" stroke="#3C3C3B" stroke-miterlimit="10" stroke-linecap="round" stroke-linejoin="round"/>
<path d="M146.5 67.5C145.45 63.42 143.2 62 139.67 60.18C138.02 59.33 137.28 58.72 135.58 57.93C135.14 57.72 133.75 57.03 133.36 56.72" stroke="#3C3C3B" stroke-miterlimit="10" stroke-linecap="round" stroke-linejoin="round"/>
<path d="M149.37 90.95C152.32 90.28 152.32 90.29 151.39 87.32C151.28 86.99 151.2 86.65 151.12 86.31C150.59 84.08 151.26 81.62 152.94 79.89" stroke="#3C3C3B" stroke-linecap="round"/>
<path d="M149.71 92.23C149.7 94.41 148.03 94.19 146.68 94.42C147.28 95.12 147.76 95.69 148.17 96.17" stroke="#3C3C3B" stroke-linecap="round"/>
<path d="M186.85 173.84C184.33 171.73 181.98 169.36 178.8 168.25C177.2 167.69 171.85 167.9 170.84 168.57" stroke="#3C3C3B" stroke-linecap="round"/>
<path d="M158.25 64.15C161.03 63.85 163.91 63.85 166.54 63.03C172.62 61.13 177.05 56.87 180.79 51.87C182.07 50.16 181.98 49.69 180.25 48.38C176.61 45.63 174.01 42.17 173.2 37.61C171.66 28.93 174.55 21.82 181.14 16.13C187.06 11.02 194.07 8.16 201.62 6.55C208.14 4.79 219.19 4.61 227.02 7.17C234.79 9.72 242.09 12.69 247.56 19C254.69 27.23 254.85 36.28 248.02 44.75C244.18 49.51 239.35 53.03 233.77 55.38C217.64 62.18 200.72 59.02 192.86 55.84C189.91 54.64 187.33 54.81 184.83 56.81C183.52 57.86 182.13 58.83 180.71 59.75C175.98 62.81 165.35 65.86 158.25 64.15Z" stroke="#3C3C3B" stroke-miterlimit="10"/>
<path d="M208.01 13.51C214.72 13.51 221.41 15.84 226.68 20C228.12 21.14 229.48 22.43 230.42 24.01C233.08 28.43 231.86 34.6 228.11 38.16C224.36 41.71 218.6 42.71 213.64 41.28C208.68 39.84 204.53 36.22 201.79 31.84C200.42 29.65 199.34 27.17 199.39 24.59C199.49 19.47 204.39 15.23 209.5 15C214.61 14.78 219.48 17.98 222.17 22.33C223.46 24.42 224.34 26.84 224.24 29.3C224.14 31.76 222.95 34.24 220.85 35.52C218.59 36.9 215.7 36.73 213.14 36.05C208.48 34.81 204.24 32.03 201.25 28.24C199.37 25.85 197.94 22.7 198.87 19.79C200 16.26 204.39 14.56 207.99 15.43C211.6 16.29 214.44 19.09 216.56 22.13C218.79 25.33 220.49 29.24 219.77 33.08C218.86 38 213.96 41.56 208.97 41.9C203.98 42.24 199.09 39.86 195.42 36.47C193.71 34.89 192.19 33.04 191.41 30.85C190.63 28.66 190.68 26.09 191.94 24.14C193.02 22.48 194.84 21.43 196.74 20.89C202.21 19.31 208.59 21.89 211.44 26.82C214.29 31.75 213.32 38.57 209.22 42.51C205.12 46.46 198.27 47.16 193.45 44.12C190.91 42.52 188.97 40.03 187.87 37.23C186.33 33.31 186.54 28.49 189.24 25.25C191.8 22.18 196.17 21.03 200.11 21.68C204.05 22.32 207.58 24.54 210.55 27.22C215.38 31.59 219.08 37.76 218.71 44.27C218.59 46.42 217.83 48.8 215.89 49.76C214.48 50.46 212.76 50.21 211.31 49.57C206.77 47.57 204.49 41.84 205.86 37.08C207.24 32.32 211.78 28.81 216.69 28.08C221.52 27.36 226.75 29.26 229.68 33.17C232.6 37.08 232.86 42.9 229.97 46.84C227.08 50.78 221.13 52.22 216.93 49.73C215.58 48.93 214.44 47.79 213.48 46.55C210.24 42.4 208.94 36.09 212.19 31.96C213.51 30.29 215.4 29.17 217.31 28.24C220.54 26.67 224.55 25.58 227.56 27.52C230.85 29.63 231.26 34.56 229.46 38.02C228.47 39.92 226.85 41.59 224.78 42.11C222.76 42.62 220.58 41.95 218.91 40.72C217.24 39.49 216.01 37.74 215.01 35.92C211.58 29.72 210.37 22.45 206.69 16.4C206.02 15.31 205.25 14.23 204.17 13.55C201.6 11.94 198.23 13.01 195.54 14.42C191.16 16.73 186.95 20.25 185.89 25.09C185.15 28.45 186.08 32.04 187.91 34.95C189.74 37.87 192.4 40.17 195.27 42.08C199.52 44.91 204.47 46.99 209.57 46.82C214.67 46.64 219.88 43.84 221.88 39.14C222.93 36.66 223.04 33.86 222.72 31.19C221.99 25.09 214.18 14.73 214.3 15.66C214.42 16.59 224.25 21.19 228.05 25.03C230.91 27.92 233.87 31.6 233.07 35.58C232.59 37.97 230.8 39.88 228.89 41.4C221.3 47.43 210.42 49.01 201.43 45.37C197.77 43.89 194.32 41.48 192.49 37.98C190.31 33.8 190.8 28.51 193.23 24.47C195.66 20.43 199.82 17.6 204.32 16.2C208.82 14.8 213.65 14.74 218.33 15.36C214.25 14.16 210.12 12.95 205.87 12.72C201.62 12.49 197.17 13.34 193.77 15.9C189.47 19.14 187.4 24.85 187.93 30.2C188.45 35.56 191.33 40.51 195.24 44.21C197.11 45.98 199.25 47.52 201.66 48.42C204.37 49.43 207.35 49.6 210.23 49.26C220.41 48.08 229.63 39.84 231.03 29.69C231.44 26.72 231.2 23.61 229.94 20.89C227.38 15.38 221.04 12.46 214.97 12.16C211.77 12 208.49 12.45 205.63 13.91C202.77 15.37 200.39 17.88 199.51 20.96C198.59 24.18 199.36 27.67 200.67 30.76C203.72 37.95 209.77 43.82 217.05 46.64C220.7 48.06 224.7 48.73 228.57 48.12C232.44 47.5 236.15 45.52 238.46 42.36C241.14 38.7 241.67 33.58 239.81 29.44C238.09 25.62 234.53 22.81 230.59 21.4C226.64 19.99 222.33 19.88 218.17 20.41" stroke="#3C3C3B" stroke-miterlimit="10"/>
</svg>
