<svg width="214" height="46" viewBox="0 0 214 46" fill="none" xmlns="http://www.w3.org/2000/svg">
<g clip-path="url(#clip0_58_1364)">
<path d="M36.7466 42.421H38.2032V43.4039C38.2122 43.6819 38.1582 43.9583 38.0455 44.2126C37.9327 44.4668 37.764 44.6924 37.5518 44.8723C37.011 45.3171 36.3201 45.5375 35.6216 45.4881C34.9195 45.5369 34.2252 45.3167 33.6795 44.8723C33.4801 44.6852 33.3238 44.4569 33.2216 44.2033C33.1193 43.9498 33.0735 43.6769 33.0874 43.4039V39.8512C33.0743 39.5783 33.1205 39.3057 33.2227 39.0522C33.3249 38.7988 33.4807 38.5704 33.6795 38.3828C34.2297 37.9478 34.9217 37.7326 35.6216 37.7789C36.3194 37.7355 37.0081 37.9552 37.5518 38.3947C37.754 38.5802 37.9129 38.8079 38.0173 39.0616C38.1217 39.3154 38.169 39.589 38.1558 39.8631V40.846H36.7466V39.8631C36.7623 39.6924 36.7408 39.5204 36.6835 39.3589C36.6263 39.1974 36.5347 39.0502 36.415 38.9276C36.1973 38.7747 35.9345 38.6997 35.669 38.7144C35.3994 38.6969 35.132 38.7722 34.9111 38.9276C34.7935 39.0513 34.7041 39.1989 34.6489 39.3604C34.5937 39.5218 34.5741 39.6933 34.5913 39.8631V43.4157C34.5741 43.5855 34.5937 43.757 34.6489 43.9184C34.7041 44.0799 34.7935 44.2276 34.9111 44.3512C35.132 44.5067 35.3994 44.5819 35.669 44.5644C35.9225 44.5585 36.1674 44.4713 36.3676 44.3157C36.4873 44.1931 36.5789 44.0459 36.6362 43.8844C36.6934 43.7229 36.7149 43.5508 36.6992 43.3802L36.7466 42.421Z" fill="black"/>
<path d="M42.5496 38.9157C42.43 39.0384 42.3384 39.1856 42.2811 39.3471C42.2239 39.5086 42.2023 39.6806 42.2181 39.8512V43.4039C42.2023 43.5745 42.2239 43.7465 42.2811 43.9081C42.3384 44.0696 42.43 44.2167 42.5496 44.3394C42.7642 44.4986 43.0294 44.5744 43.2957 44.5526C43.5652 44.57 43.8327 44.4948 44.0536 44.3394C44.1711 44.2157 44.2606 44.0681 44.3158 43.9066C44.3709 43.7451 44.3906 43.5736 44.3733 43.4039V39.8512C44.3906 39.6815 44.3709 39.51 44.3158 39.3485C44.2606 39.1871 44.1711 39.0394 44.0536 38.9157C43.8327 38.7603 43.5652 38.6851 43.2957 38.7026C43.0294 38.6808 42.7642 38.7565 42.5496 38.9157ZM43.2957 37.7315C43.9955 37.6852 44.6876 37.9005 45.2378 38.3355C45.4366 38.523 45.5924 38.7514 45.6946 39.0049C45.7968 39.2583 45.843 39.5309 45.8299 39.8039V43.3565C45.8437 43.6296 45.798 43.9024 45.6957 44.156C45.5934 44.4096 45.4372 44.6378 45.2378 44.8249C44.6921 45.2694 43.9978 45.4895 43.2957 45.4407C42.5972 45.4901 41.9063 45.2697 41.3654 44.8249C41.1619 44.6405 41.0021 44.4129 40.8977 44.1589C40.7932 43.9049 40.7467 43.6308 40.7615 43.3565V39.8039C40.7569 39.5397 40.8084 39.2775 40.9125 39.0346C41.0166 38.7917 41.171 38.5736 41.3654 38.3947C41.9109 37.9594 42.5994 37.744 43.2957 37.7907" fill="black"/>
<path d="M49.856 45.3104H48.3994V37.921H49.6547L49.856 38.3236C50.1446 38.0403 50.5119 37.8504 50.9099 37.7789C51.3039 37.6956 51.713 37.7201 52.0941 37.8499C52.5168 37.9719 52.8838 38.2371 53.1323 38.6001C53.3808 38.9631 53.4952 39.4012 53.456 39.8394V45.3104H51.9994V39.8394C52.0167 39.6696 51.997 39.4981 51.9418 39.3366C51.8867 39.1752 51.7972 39.0275 51.6797 38.9039C51.462 38.751 51.1992 38.6759 50.9336 38.6907C50.6641 38.6732 50.3967 38.7484 50.1757 38.9039C50.0598 39.0262 49.9713 39.1719 49.9161 39.3312C49.861 39.4905 49.8405 39.6597 49.856 39.8275V45.3104Z" fill="black"/>
<path d="M55.883 42.9537H57.2685V43.3918C57.2454 43.6648 57.2818 43.9396 57.3751 44.1971C57.5291 44.434 57.8843 44.5524 58.4527 44.5524C59.0212 44.5524 59.3646 44.434 59.5185 44.1971C59.6119 43.9396 59.6482 43.6648 59.6251 43.3918C59.6296 43.1886 59.5778 42.9882 59.4754 42.8126C59.3729 42.637 59.2239 42.4932 59.0449 42.3971C58.6286 42.2033 58.1969 42.0448 57.7541 41.9234C57.2971 41.7962 56.8703 41.5788 56.4988 41.284C56.3004 41.1043 56.1451 40.8821 56.0446 40.6339C55.9441 40.3858 55.901 40.1182 55.9185 39.8511C55.9185 38.4537 56.7712 37.7432 58.4883 37.7432C60.2054 37.7432 61.0462 38.4537 61.0462 39.8511V40.2774H59.6251V39.8392C59.6468 39.5591 59.585 39.2789 59.4475 39.034C59.1646 38.8041 58.8113 38.6787 58.4468 38.6787C58.0824 38.6787 57.729 38.8041 57.4462 39.034C57.3087 39.2789 57.2469 39.5591 57.2685 39.8392C57.2698 40.0459 57.3251 40.2486 57.429 40.4273C57.5328 40.6059 57.6817 40.7543 57.8606 40.8576C58.2763 41.0435 58.7085 41.1902 59.1514 41.2958C59.6139 41.4094 60.0488 41.6147 60.4304 41.8997C60.6296 42.0864 60.785 42.3149 60.8853 42.5688C60.9856 42.8227 61.0284 43.0957 61.0106 43.3682C61.0333 43.6412 61.001 43.9161 60.9156 44.1765C60.8301 44.4368 60.6933 44.6774 60.5133 44.884C59.8932 45.2702 59.1773 45.475 58.4468 45.475C57.7163 45.475 57.0004 45.2702 56.3804 44.884C56.2003 44.6774 56.0635 44.4368 55.9781 44.1765C55.8927 43.9161 55.8603 43.6412 55.883 43.3682V42.9537Z" fill="black"/>
<path d="M67.0388 42.4211H68.4954V43.404C68.5092 43.677 68.4634 43.9498 68.3612 44.2034C68.2589 44.457 68.1027 44.6853 67.9033 44.8724C67.3372 45.2731 66.6607 45.4883 65.9671 45.4883C65.2735 45.4883 64.597 45.2731 64.0309 44.8724C63.8296 44.6868 63.672 44.4588 63.5696 44.2048C63.4672 43.9509 63.4225 43.6773 63.4388 43.404V39.8513C63.4234 39.5781 63.4684 39.3048 63.5708 39.0509C63.6731 38.7971 63.8302 38.569 64.0309 38.3829C64.6003 37.9903 65.2755 37.78 65.9671 37.78C66.6587 37.78 67.334 37.9903 67.9033 38.3829C68.1021 38.5705 68.2579 38.7988 68.3601 39.0523C68.4623 39.3058 68.5085 39.5783 68.4954 39.8513V40.8342H67.0388V39.8513C67.0561 39.6816 67.0364 39.5101 66.9813 39.3486C66.9261 39.1871 66.8366 39.0395 66.7191 38.9158C66.4982 38.7604 66.2307 38.6852 65.9612 38.7026C65.6956 38.6879 65.4328 38.763 65.2151 38.9158C65.0976 39.0395 65.0082 39.1871 64.953 39.3486C64.8978 39.5101 64.8781 39.6816 64.8954 39.8513V43.404C64.8781 43.5737 64.8978 43.7452 64.953 43.9067C65.0082 44.0682 65.0976 44.2158 65.2151 44.3395C65.4328 44.4923 65.6956 44.5674 65.9612 44.5526C66.2307 44.5701 66.4982 44.4949 66.7191 44.3395C66.8366 44.2158 66.9261 44.0682 66.9813 43.9067C67.0364 43.7452 67.0561 43.5737 67.0388 43.404V42.4211Z" fill="black"/>
<path d="M72.521 45.3104H71.0645V37.9209H72.521V45.3104ZM72.521 36.5236H71.0645V35.4341H72.521V36.5236Z" fill="black"/>
<path d="M76.8675 38.9158C76.75 39.0395 76.6605 39.1872 76.6054 39.3486C76.5502 39.5101 76.5305 39.6816 76.5478 39.8514V43.404C76.5305 43.5738 76.5502 43.7452 76.6054 43.9067C76.6605 44.0682 76.75 44.2158 76.8675 44.3395C77.0884 44.4949 77.3559 44.5701 77.6254 44.5527C77.891 44.5674 78.1538 44.4923 78.3715 44.3395C78.489 44.2158 78.5784 44.0682 78.6336 43.9067C78.6888 43.7452 78.7085 43.5738 78.6912 43.404V39.8514C78.7085 39.6816 78.6888 39.5101 78.6336 39.3486C78.5784 39.1872 78.489 39.0395 78.3715 38.9158C78.1538 38.763 77.891 38.6879 77.6254 38.7027C77.3559 38.6852 77.0884 38.7604 76.8675 38.9158ZM77.6254 37.7316C78.3217 37.6849 79.0102 37.9003 79.5557 38.3356C79.7686 38.5239 79.9357 38.7584 80.0445 39.021C80.1532 39.2836 80.2007 39.5676 80.1833 39.8514V43.404C80.1981 43.6783 80.1516 43.9524 80.0471 44.2064C79.9427 44.4604 79.7829 44.6879 79.5794 44.8724C79.0385 45.3172 78.3476 45.5376 77.6491 45.4882C76.947 45.537 76.2527 45.3168 75.707 44.8724C75.5056 44.6868 75.3481 44.4588 75.2457 44.2048C75.1432 43.9509 75.0986 43.6773 75.1149 43.404V39.8514C75.0982 39.5819 75.1404 39.3119 75.2385 39.0604C75.3367 38.8089 75.4885 38.5817 75.6833 38.3948C76.2335 37.9598 76.9256 37.7446 77.6254 37.7908" fill="black"/>
<path d="M86.3293 37.9211H87.7859V45.3106H86.5187L86.3293 44.908C86.0407 45.1913 85.6734 45.3811 85.2753 45.4527C84.8814 45.5366 84.4722 45.512 84.0911 45.3817C83.6653 45.2596 83.2953 44.9931 83.0446 44.6279C82.794 44.2627 82.6783 43.8216 82.7174 43.3804V37.9211H84.174V43.3804C84.1565 43.5529 84.1772 43.7272 84.2345 43.8909C84.2918 44.0546 84.3843 44.2037 84.5056 44.3277C84.7192 44.4889 84.9851 44.5649 85.2516 44.5409C85.5212 44.5583 85.7886 44.4831 86.0095 44.3277C86.1255 44.2054 86.214 44.0597 86.2691 43.9004C86.3243 43.7411 86.3448 43.5719 86.3293 43.404V37.9211Z" fill="black"/>
<path d="M90.2023 42.9537H91.5997V43.3918C91.5766 43.6648 91.613 43.9396 91.7063 44.1971C91.8484 44.434 92.2037 44.5524 92.7721 44.5524C93.3405 44.5524 93.6958 44.434 93.8379 44.1971C93.9312 43.9396 93.9676 43.6648 93.9445 43.3918C93.9517 43.1881 93.9011 42.9865 93.7983 42.8105C93.6956 42.6344 93.5451 42.4911 93.3642 42.3971C92.9328 42.2066 92.4849 42.0559 92.026 41.9471C91.5923 41.8042 91.1903 41.5791 90.8418 41.284C90.6419 41.1049 90.4849 40.8831 90.3824 40.635C90.2799 40.387 90.2345 40.119 90.2497 39.8511C90.2497 38.4537 91.1142 37.7432 92.8194 37.7432C94.5247 37.7432 95.3892 38.4537 95.3892 39.8511V40.2774H93.9445V39.8392C93.969 39.5604 93.9114 39.2804 93.7787 39.034C93.6504 38.9001 93.4925 38.7982 93.3177 38.7365C93.1428 38.6748 92.956 38.655 92.7721 38.6787C92.5882 38.655 92.4013 38.6748 92.2265 38.7365C92.0517 38.7982 91.8938 38.9001 91.7655 39.034C91.6328 39.2804 91.5751 39.5604 91.5997 39.8392C91.5921 40.0461 91.6424 40.2511 91.7449 40.431C91.8475 40.6109 91.9981 40.7587 92.18 40.8576C92.5965 41.0415 93.0284 41.1881 93.4708 41.2958C93.937 41.4236 94.3722 41.6453 94.7497 41.9471C94.9511 42.1327 95.1086 42.3607 95.2111 42.6147C95.3135 42.8686 95.3581 43.1422 95.3418 43.4155C95.3645 43.6886 95.3322 43.9635 95.2467 44.2238C95.1613 44.4842 95.0245 44.7248 94.8444 44.9313C94.2226 45.3186 93.5047 45.524 92.7721 45.524C92.0395 45.524 91.3215 45.3186 90.6997 44.9313C90.5196 44.7248 90.3829 44.4842 90.2974 44.2238C90.212 43.9635 90.1797 43.6886 90.2023 43.4155V42.9537Z" fill="black"/>
<path d="M102.826 42.9538H104.211V43.392C104.188 43.6649 104.225 43.9397 104.318 44.1972C104.472 44.4341 104.827 44.5525 105.396 44.5525C105.964 44.5525 106.319 44.4341 106.461 44.1972C106.555 43.9397 106.591 43.6649 106.568 43.392C106.575 43.1883 106.525 42.9867 106.422 42.8106C106.319 42.6345 106.169 42.4912 105.988 42.3972C105.572 42.2094 105.14 42.0588 104.697 41.9472C104.233 41.8265 103.798 41.613 103.418 41.3196C103.218 41.1405 103.061 40.9187 102.959 40.6707C102.856 40.4226 102.811 40.1547 102.826 39.8867C102.826 38.4893 103.679 37.7788 105.396 37.7788C107.113 37.7788 107.965 38.4893 107.965 39.8867V40.313H106.568V39.8749C106.587 39.5964 106.529 39.318 106.402 39.0696C106.117 38.8388 105.762 38.7129 105.396 38.7129C105.029 38.7129 104.674 38.8388 104.389 39.0696C104.252 39.3146 104.19 39.5948 104.211 39.8749C104.213 40.0815 104.268 40.2843 104.372 40.4629C104.476 40.6416 104.625 40.79 104.804 40.8933C105.22 41.0771 105.652 41.2237 106.094 41.3314C106.574 41.4425 107.026 41.6522 107.421 41.9472C107.622 42.1328 107.78 42.3608 107.882 42.6148C107.984 42.8688 108.029 43.1423 108.013 43.4157C108.018 43.6894 107.968 43.9615 107.867 44.2157C107.765 44.47 107.613 44.7013 107.421 44.8959C106.799 45.2832 106.081 45.4885 105.348 45.4885C104.616 45.4885 103.898 45.2832 103.276 44.8959C103.096 44.6894 102.959 44.4488 102.874 44.1884C102.788 43.9281 102.756 43.6532 102.779 43.3801L102.826 42.9538Z" fill="black"/>
<path d="M114.099 37.921H115.71L113.341 40.5973C113.887 40.6211 114.41 40.8204 114.833 41.1657C115.035 41.3518 115.194 41.5795 115.298 41.8332C115.402 42.0868 115.45 42.3602 115.437 42.6342V45.3105H113.993V42.6342C114.007 42.4655 113.984 42.2957 113.927 42.1364C113.87 41.977 113.779 41.8318 113.661 41.7105C113.447 41.5513 113.181 41.4755 112.915 41.4973H111.837V45.3105H110.381V34.6526H111.837V40.5144L114.099 37.921Z" fill="black"/>
<path d="M119.263 45.3104H117.818V37.9209H119.263V45.3104ZM119.263 36.5236H117.818V35.4341H119.263V36.5236Z" fill="black"/>
<path d="M123.3 45.3104H121.844V37.921H123.099L123.3 38.3236C123.589 38.0403 123.956 37.8504 124.354 37.7789C124.748 37.6956 125.157 37.7201 125.538 37.8499C125.961 37.9719 126.328 38.2371 126.577 38.6001C126.825 38.9631 126.94 39.4012 126.9 39.8394V45.3104H125.444V39.8394C125.461 39.6696 125.441 39.4981 125.386 39.3366C125.331 39.1752 125.242 39.0275 125.124 38.9039C124.906 38.751 124.644 38.6759 124.378 38.6907C124.108 38.6732 123.841 38.7484 123.62 38.9039C123.504 39.0262 123.416 39.1719 123.36 39.3312C123.305 39.4905 123.285 39.6597 123.3 39.8275V45.3104Z" fill="black"/>
<path d="M134.539 42.9538H135.925V43.392C135.902 43.6649 135.938 43.9397 136.031 44.1972C136.185 44.4341 136.541 44.5525 137.109 44.5525C137.677 44.5525 138.033 44.4341 138.175 44.1972C138.268 43.9397 138.304 43.6649 138.281 43.392C138.289 43.1883 138.238 42.9867 138.135 42.8106C138.033 42.6345 137.882 42.4912 137.701 42.3972C137.286 42.2013 136.854 42.0427 136.41 41.9235C135.946 41.8028 135.511 41.5893 135.131 41.2959C134.931 41.1168 134.774 40.895 134.672 40.647C134.569 40.3989 134.524 40.131 134.539 39.863C134.539 38.4657 135.392 37.7551 137.109 37.7551C138.826 37.7551 139.679 38.4657 139.679 39.863V40.2893H138.281V39.8512C138.303 39.5711 138.241 39.2909 138.104 39.0459C137.977 38.9138 137.821 38.8129 137.648 38.7512C137.476 38.6896 137.291 38.6688 137.109 38.6907C136.925 38.6669 136.738 38.6867 136.563 38.7484C136.389 38.8101 136.231 38.912 136.102 39.0459C135.965 39.2909 135.903 39.5711 135.925 39.8512C135.926 40.0578 135.981 40.2606 136.085 40.4392C136.189 40.6179 136.338 40.7663 136.517 40.8696C136.933 41.0534 137.365 41.2 137.808 41.3078C138.27 41.4213 138.705 41.6267 139.087 41.9117C139.288 42.0973 139.446 42.3253 139.548 42.5793C139.65 42.8332 139.695 43.1068 139.679 43.3801C139.703 43.6542 139.67 43.9303 139.582 44.1911C139.494 44.4519 139.354 44.6918 139.17 44.8959C138.583 45.348 137.846 45.5598 137.109 45.488C136.368 45.5592 135.628 45.3477 135.037 44.8959C134.857 44.6894 134.72 44.4488 134.634 44.1884C134.549 43.9281 134.517 43.6532 134.539 43.3801V42.9538Z" fill="black"/>
<path d="M145.706 42.4208H147.163V43.4037C147.177 43.678 147.131 43.9521 147.026 44.2061C146.922 44.4602 146.762 44.6877 146.559 44.8722C146.018 45.3169 145.327 45.5373 144.628 45.488C143.926 45.5368 143.232 45.3166 142.686 44.8722C142.487 44.6851 142.331 44.4568 142.228 44.2032C142.126 43.9496 142.08 43.6768 142.094 43.4037V39.8511C142.081 39.5781 142.127 39.3056 142.23 39.0521C142.332 38.7986 142.488 38.5703 142.686 38.3827C143.236 37.9477 143.929 37.7325 144.628 37.7787C145.325 37.732 146.013 37.9474 146.559 38.3827C146.761 38.5682 146.92 38.7959 147.024 39.0497C147.129 39.3034 147.176 39.577 147.163 39.8511V40.834H145.706V39.8511C145.722 39.6805 145.7 39.5084 145.643 39.3469C145.586 39.1854 145.494 39.0382 145.374 38.9156C145.16 38.7564 144.895 38.6806 144.628 38.7024C144.359 38.685 144.091 38.7602 143.871 38.9156C143.753 39.0393 143.664 39.1869 143.608 39.3484C143.553 39.5099 143.534 39.6813 143.551 39.8511V43.4037C143.534 43.5735 143.553 43.745 143.608 43.9065C143.664 44.0679 143.753 44.2156 143.871 44.3393C144.091 44.4947 144.359 44.5699 144.628 44.5524C144.895 44.5742 145.16 44.4985 145.374 44.3393C145.494 44.2166 145.586 44.0694 145.643 43.9079C145.7 43.7464 145.722 43.5744 145.706 43.4037V42.4208Z" fill="black"/>
<path d="M151.236 45.3104H149.779V37.9209H151.236V45.3104ZM151.236 36.5236H149.779V35.4341H151.236V36.5236Z" fill="black"/>
<path d="M155.203 41.1776H157.358V39.8631C157.376 39.6933 157.356 39.5218 157.301 39.3604C157.246 39.1989 157.156 39.0513 157.039 38.9276C156.81 38.7885 156.548 38.7149 156.281 38.7149C156.013 38.7149 155.751 38.7885 155.523 38.9276C155.405 39.0513 155.316 39.1989 155.261 39.3604C155.206 39.5218 155.186 39.6933 155.203 39.8631V41.1776ZM153.747 39.8631C153.733 39.59 153.779 39.3172 153.881 39.0636C153.983 38.81 154.139 38.5818 154.339 38.3947C154.887 37.9554 155.579 37.7359 156.281 37.7789C156.979 37.7331 157.668 37.9531 158.211 38.3947C158.415 38.5791 158.574 38.8067 158.679 39.0607C158.783 39.3147 158.83 39.5888 158.815 39.8631V42.1013H155.203V43.4039C155.184 43.5756 155.203 43.7493 155.258 43.913C155.313 44.0766 155.404 44.2262 155.523 44.3513C155.751 44.4904 156.013 44.564 156.281 44.564C156.548 44.564 156.81 44.4904 157.039 44.3513C157.158 44.2262 157.248 44.0766 157.303 43.913C157.359 43.7493 157.377 43.5756 157.358 43.4039V42.7999H158.815V43.4039C158.83 43.6799 158.784 43.9558 158.679 44.2118C158.575 44.4677 158.415 44.6973 158.211 44.8841C157.667 45.3215 156.977 45.5372 156.281 45.4881C155.581 45.5344 154.889 45.3191 154.339 44.8841C154.139 44.6948 153.983 44.4644 153.881 44.2089C153.778 43.9534 153.733 43.6787 153.747 43.4039V39.8631Z" fill="black"/>
<path d="M162.84 45.3104H161.372V37.921H162.639L162.84 38.3236C163.127 38.0378 163.495 37.8476 163.894 37.7789C164.288 37.6956 164.697 37.7201 165.079 37.8499C165.501 37.9719 165.868 38.2371 166.117 38.6001C166.365 38.9631 166.48 39.4012 166.44 39.8394V45.3104H164.984V39.8394C165.001 39.6696 164.982 39.4981 164.926 39.3366C164.871 39.1752 164.782 39.0275 164.664 38.9039C164.443 38.7484 164.176 38.6732 163.906 38.6907C163.641 38.6759 163.378 38.751 163.16 38.9039C163.044 39.0262 162.956 39.1719 162.901 39.3312C162.845 39.4905 162.825 39.6597 162.84 39.8275V45.3104Z" fill="black"/>
<path d="M172.623 42.4208H174.08V43.4037C174.094 43.678 174.048 43.9521 173.943 44.2061C173.839 44.4602 173.679 44.6877 173.476 44.8722C172.935 45.3169 172.244 45.5373 171.545 45.488C170.843 45.5368 170.149 45.3166 169.603 44.8722C169.404 44.6851 169.248 44.4568 169.145 44.2032C169.043 43.9496 168.997 43.6768 169.011 43.4037V39.8511C168.998 39.5781 169.044 39.3056 169.147 39.0521C169.249 38.7986 169.405 38.5703 169.603 38.3827C170.153 37.9477 170.846 37.7325 171.545 37.7787C172.242 37.732 172.93 37.9474 173.476 38.3827C173.678 38.5682 173.837 38.7959 173.941 39.0497C174.046 39.3034 174.093 39.577 174.08 39.8511V40.834H172.623V39.8511C172.639 39.6805 172.617 39.5084 172.56 39.3469C172.503 39.1854 172.411 39.0382 172.291 38.9156C172.077 38.7564 171.812 38.6806 171.545 38.7024C171.276 38.685 171.008 38.7602 170.788 38.9156C170.67 39.0393 170.581 39.1869 170.525 39.3484C170.47 39.5099 170.451 39.6813 170.468 39.8511V43.4037C170.451 43.5735 170.47 43.745 170.525 43.9065C170.581 44.0679 170.67 44.2156 170.788 44.3393C171.008 44.4947 171.276 44.5699 171.545 44.5524C171.812 44.5742 172.077 44.4985 172.291 44.3393C172.411 44.2166 172.503 44.0694 172.56 43.9079C172.617 43.7464 172.639 43.5744 172.623 43.4037V42.4208Z" fill="black"/>
<path d="M178.094 41.1775H180.25V39.863C180.267 39.6933 180.247 39.5218 180.192 39.3603C180.137 39.1988 180.047 39.0512 179.93 38.9275C179.709 38.7721 179.441 38.6969 179.172 38.7144C178.906 38.6926 178.64 38.7683 178.426 38.9275C178.306 39.0502 178.215 39.1973 178.157 39.3589C178.1 39.5204 178.079 39.6924 178.094 39.863V41.1775ZM176.638 39.863C176.629 39.585 176.683 39.3086 176.795 39.0543C176.908 38.8001 177.077 38.5746 177.289 38.3946C177.833 37.9551 178.521 37.7354 179.219 37.7788C179.921 37.7359 180.613 37.9554 181.161 38.3946C181.361 38.5817 181.517 38.81 181.619 39.0636C181.722 39.3172 181.767 39.59 181.753 39.863V42.1012H178.201V43.4038C178.183 43.5764 178.204 43.7507 178.261 43.9144C178.319 44.0781 178.411 44.2272 178.532 44.3512C178.747 44.5104 179.012 44.5862 179.278 44.5644C179.548 44.5818 179.815 44.5066 180.036 44.3512C180.156 44.2262 180.246 44.0766 180.301 43.9129C180.356 43.7493 180.375 43.5755 180.356 43.4038V42.7999H181.813V43.4038C181.827 43.6787 181.781 43.9533 181.679 44.2088C181.577 44.4643 181.42 44.6947 181.221 44.8841C180.67 45.3191 179.978 45.5343 179.278 45.488C178.582 45.5348 177.894 45.3193 177.348 44.8841C177.144 44.6973 176.985 44.4677 176.88 44.2117C176.776 43.9558 176.729 43.6799 176.744 43.4038L176.638 39.863Z" fill="black"/>
<path d="M9.58127 24.8355H6.6089C5.42469 24.8355 5.15232 24.6223 5.15232 23.4736V7.4868C5.15232 6.30259 5.38916 6.12496 6.6089 6.12496H9.58127V3.12891H5.14048C2.02601 3.12891 0.841797 4.25391 0.841797 7.16706V23.746C0.841797 26.6592 2.02601 27.7842 5.14048 27.7842H9.58127V24.8355Z" fill="black"/>
<path d="M92.3566 18.9618C92.4264 19.7135 92.2155 20.4644 91.7645 21.0697C91.5849 21.2199 91.3773 21.3328 91.1537 21.4019C90.93 21.4711 90.6949 21.495 90.4619 21.4724C89.9935 21.5149 89.5268 21.3749 89.1592 21.0816C88.7095 20.4711 88.4989 19.717 88.5671 18.9618V12.8868C88.4969 12.1388 88.708 11.3915 89.1592 10.7908C89.5447 10.5386 89.9953 10.4043 90.456 10.4043C90.9166 10.4043 91.3672 10.5386 91.7527 10.7908C92.212 11.3924 92.4277 12.1451 92.3566 12.8987V18.9618ZM90.4619 7.23815C89.6215 7.18748 88.7798 7.31066 87.9892 7.6C87.1986 7.88933 86.4762 8.3386 85.8671 8.91973C84.8905 10.0032 84.3837 11.43 84.4579 12.8868V18.9618C84.4123 19.6948 84.5134 20.4296 84.7554 21.123C84.9974 21.8164 85.3754 22.4545 85.8671 23C87.1499 24.0851 88.7758 24.6805 90.456 24.6805C92.1362 24.6805 93.762 24.0851 95.0448 23C95.5336 22.4641 95.9109 21.8363 96.1549 21.1532C96.3989 20.4701 96.5045 19.7454 96.4658 19.021V12.8868C96.5401 11.43 96.0333 10.0032 95.0566 8.91973C94.4475 8.3386 93.7251 7.88933 92.9345 7.6C92.144 7.31066 91.3022 7.18748 90.4619 7.23815Z" fill="black"/>
<path d="M75.2928 1.50663C74.4876 1.95958 73.8275 2.63185 73.3893 3.44525C72.9512 4.25866 72.753 5.17974 72.8178 6.10137V7.28558H70.8047V10.3882H72.8178V24.5987H76.9034V10.3882H81.2494V7.23821H76.9034V6.054C76.8719 5.71814 76.921 5.3796 77.0466 5.06653C77.1723 4.75347 77.3708 4.4749 77.6257 4.254C78.5208 3.73777 79.5732 3.56517 80.5863 3.76847L81.581 3.91058L82.1494 0.725052L81.1192 0.630315C79.1331 0.33183 77.1032 0.637142 75.2928 1.50663Z" fill="black"/>
<path d="M64.3501 7.24986C63.3772 6.94975 62.328 7.01717 61.4014 7.43934C60.6656 7.76146 60.0341 8.28225 59.5778 8.94328C59.2421 8.43876 58.7998 8.01399 58.2822 7.6989C57.7645 7.38381 57.1841 7.18607 56.5817 7.1196C55.9852 7.02216 55.3743 7.05989 54.7943 7.23001C54.2143 7.40012 53.6798 7.69828 53.2304 8.1025L52.9462 7.23802H49.3936V24.6104H53.4909V12.7683C53.4225 12.0414 53.5752 11.3108 53.9291 10.6722C53.9291 10.5893 54.1778 10.317 55.0067 10.317C55.8357 10.317 56.0133 10.5893 56.0725 10.6841C56.4263 11.3311 56.575 12.0703 56.4988 12.8038V24.5749H60.608V12.8393C60.5346 12.1022 60.6831 11.36 61.0343 10.7078C61.0343 10.6249 61.283 10.3525 62.1238 10.3525C62.9646 10.3525 63.1422 10.6249 63.2014 10.7078C63.536 11.3654 63.6757 12.105 63.6041 12.8393V24.6104H67.7133V12.8393C67.7548 11.5269 67.4133 10.2307 66.7304 9.10907C66.1809 8.22821 65.3379 7.56975 64.3501 7.24986Z" fill="black"/>
<path d="M37.2565 12.8869C37.1837 12.1368 37.3997 11.3872 37.8604 10.7909C38.0389 10.639 38.2464 10.525 38.4704 10.4557C38.6943 10.3865 38.93 10.3636 39.163 10.3882C39.628 10.3438 40.0917 10.4842 40.4538 10.779C40.9301 11.3738 41.1629 12.1272 41.1052 12.8869V18.9619C41.1786 19.7157 40.9627 20.4693 40.5012 21.0698C40.3245 21.2208 40.119 21.3343 39.8971 21.4035C39.6752 21.4728 39.4416 21.4962 39.2104 21.4725C38.7417 21.5188 38.2736 21.3784 37.9078 21.0817C37.4487 20.4754 37.2332 19.7192 37.3038 18.9619L37.2565 12.8869ZM39.163 7.23825C38.3226 7.18614 37.4804 7.30866 36.6897 7.59807C35.8989 7.88748 35.1766 8.33751 34.5683 8.91983C33.5917 10.0033 33.0848 11.4301 33.1591 12.8869V18.9619C33.1135 19.6949 33.2146 20.4297 33.4566 21.1231C33.6986 21.8165 34.0765 22.4546 34.5683 23.0001C35.1776 23.5803 35.9003 24.0281 36.6911 24.3155C37.4818 24.6029 38.3234 24.7235 39.163 24.6698C40.0008 24.7226 40.8404 24.6014 41.6291 24.3141C42.4177 24.0267 43.1385 23.5794 43.7459 23.0001C44.7244 21.9129 45.2313 20.4818 45.1552 19.0211V12.8869C45.2294 11.4301 44.7226 10.0033 43.7459 8.91983C43.1395 8.33843 42.4192 7.88888 41.6305 7.59948C40.8417 7.31008 40.0016 7.18708 39.163 7.23825Z" fill="black"/>
<path d="M22.8436 7.23825C22.005 7.18708 21.1649 7.31008 20.3762 7.59948C19.5875 7.88888 18.8672 8.33843 18.2607 8.91983C17.284 10.0033 16.7772 11.4301 16.8515 12.8869V18.9619C16.8058 19.6949 16.907 20.4297 17.149 21.1231C17.391 21.8165 17.7689 22.4546 18.2607 23.0001C18.8682 23.5794 19.5889 24.0267 20.3776 24.3141C21.1663 24.6014 22.0058 24.7226 22.8436 24.6698C23.6832 24.7235 24.5248 24.6029 25.3156 24.3155C26.1063 24.0281 26.8291 23.5803 27.4383 23.0001C28.4168 21.9129 28.9237 20.4818 28.8475 19.0211V18.5948H24.7502V19.0211C24.8236 19.775 24.6077 20.5285 24.1462 21.129C23.9677 21.2809 23.7602 21.395 23.5363 21.4642C23.3123 21.5334 23.0767 21.5564 22.8436 21.5317C22.3787 21.5762 21.915 21.4358 21.5528 21.1409C21.0875 20.5157 20.8798 19.7358 20.9725 18.9619V12.8869C20.9023 12.1389 21.1134 11.3916 21.5646 10.7909C21.7442 10.6407 21.9519 10.5278 22.1755 10.4587C22.3991 10.3895 22.6343 10.3656 22.8673 10.3882C23.336 10.3419 23.8041 10.4823 24.1699 10.779C24.6293 11.3806 24.8449 12.1333 24.7739 12.8869V14.4619H28.8712V12.8869C28.9455 11.4301 28.4387 10.0033 27.462 8.91983C26.8537 8.33751 26.1315 7.88748 25.3407 7.59807C24.5499 7.30866 23.7077 7.18614 22.8673 7.23825" fill="black"/>
<path d="M178.473 7.46326C177.552 7.10914 176.547 7.03498 175.584 7.25011C174.835 7.42193 174.138 7.76667 173.547 8.25668L173.274 7.23826H169.722V24.6106H173.736V12.7685C173.666 12.0352 173.878 11.3028 174.328 10.7198C174.715 10.4652 175.168 10.3294 175.631 10.3294C176.094 10.3294 176.547 10.4652 176.934 10.7198C177.393 11.3167 177.609 12.0659 177.537 12.8159V24.5869H181.635V12.8396C181.635 10.1159 180.545 8.30405 178.366 7.46326" fill="black"/>
<path d="M190.091 12.8988C190.019 12.1488 190.235 11.3996 190.695 10.8027C191.076 10.5399 191.528 10.3992 191.991 10.3992C192.455 10.3992 192.907 10.5399 193.288 10.8027C193.748 11.3996 193.964 12.1488 193.892 12.8988V13.8461H190.091V12.8988ZM198.001 16.9961V12.8988C198.036 12.1784 197.929 11.4583 197.685 10.7796C197.441 10.1008 197.066 9.47691 196.58 8.94349C195.297 7.85836 193.672 7.26294 191.991 7.26294C190.311 7.26294 188.685 7.85836 187.403 8.94349C186.919 9.47785 186.546 10.1022 186.304 10.7809C186.063 11.4595 185.957 12.1792 185.993 12.8988V18.9738C185.949 19.7048 186.051 20.4373 186.293 21.1286C186.535 21.8198 186.912 22.456 187.403 23.0001C188.685 24.0852 190.311 24.6806 191.991 24.6806C193.672 24.6806 195.297 24.0852 196.58 23.0001C197.063 22.5785 197.442 22.0517 197.688 21.4603C197.934 20.869 198.042 20.2289 198.001 19.5895V18.6185H193.868V19.5895C193.9 19.848 193.873 20.1102 193.789 20.3568C193.706 20.6034 193.568 20.8281 193.386 21.0145C193.204 21.2008 192.983 21.344 192.739 21.4335C192.494 21.523 192.233 21.5566 191.974 21.5316C190.399 21.5316 190.067 20.0159 190.067 19.0211V16.9961H198.001Z" fill="black"/>
<path d="M161.279 18.9618C161.346 19.7151 161.131 20.4665 160.675 21.0697C160.496 21.2216 160.289 21.3356 160.065 21.4048C159.841 21.474 159.605 21.497 159.372 21.4723C158.907 21.5168 158.444 21.3764 158.081 21.0815C157.622 20.4752 157.407 19.719 157.478 18.9618V12.8868C157.407 12.1388 157.618 11.3914 158.07 10.7907C158.456 10.5361 158.909 10.4003 159.372 10.4003C159.835 10.4003 160.288 10.5361 160.675 10.7907C161.129 11.3949 161.344 12.1456 161.279 12.8986V18.9618ZM159.372 7.2381C158.534 7.18694 157.694 7.30993 156.905 7.59933C156.116 7.88874 155.396 8.33829 154.789 8.91968C154.301 9.4538 153.925 10.0796 153.681 10.7606C153.437 11.4416 153.331 12.1644 153.368 12.8868V18.9618C153.324 19.6956 153.427 20.4308 153.671 21.1243C153.915 21.8177 154.295 22.4554 154.789 22.9999C156.073 24.0882 157.701 24.6855 159.384 24.6855C161.067 24.6855 162.695 24.0882 163.979 22.9999C164.957 21.9128 165.464 20.4817 165.388 19.021V12.8868C165.462 11.43 164.955 10.0032 163.979 8.91968C163.37 8.33855 162.647 7.88929 161.857 7.59995C161.066 7.31062 160.224 7.18744 159.384 7.2381" fill="black"/>
<path d="M109.504 7.46321C108.579 7.1088 107.57 7.03466 106.603 7.25005C105.858 7.42194 105.165 7.76677 104.578 8.25663L104.306 7.23821H100.753V24.6106H104.862V12.7685C104.794 12.0317 105.005 11.2962 105.454 10.7079C105.822 10.4146 106.289 10.2746 106.757 10.3172C107.222 10.2727 107.686 10.4131 108.048 10.7079C108.507 11.3048 108.723 12.054 108.652 12.804V14.4264H112.761V12.8395C112.761 10.1158 111.66 8.304 109.492 7.46321" fill="black"/>
<path d="M122.85 0.5H118.965V7.23816H115.437V10.3882H118.752V24.6105H122.85V10.3882H126.177V7.23816H122.85V0.5Z" fill="black"/>
<path d="M149.922 7.23804H137.937V10.388H144.948L137.89 22.7986L137.854 24.6104H149.922V21.4722H142.935L149.886 9.28672L149.922 7.23804Z" fill="black"/>
<path d="M205.26 24.8355H208.232C209.416 24.8355 209.689 24.6223 209.689 23.4736V7.4868C209.689 6.30259 209.452 6.12496 208.232 6.12496H205.26V3.12891H209.701C212.791 3.12891 213.999 4.25391 213.999 7.16706V23.746C213.999 26.6592 212.815 27.7842 209.701 27.7842H205.26V24.8355Z" fill="black"/>
<path d="M205.26 24.8355H208.232C209.416 24.8355 209.689 24.6223 209.689 23.4736V7.4868C209.689 6.30259 209.452 6.12496 208.232 6.12496H205.26V3.12891H209.701C212.791 3.12891 213.999 4.25391 213.999 7.16706V23.746C213.999 26.6592 212.815 27.7842 209.701 27.7842H205.26V24.8355Z" fill="black"/>
</g>
<defs>
<clipPath id="clip0_58_1364">
<rect width="213.158" height="45" fill="white" transform="translate(0.841797 0.5)"/>
</clipPath>
</defs>
</svg>
