<svg width="195" height="42" viewBox="0 0 195 42" fill="none" xmlns="http://www.w3.org/2000/svg">
<g clip-path="url(#clip0_58_1364)">
<path d="M32.8458 38.85H34.1783V39.7491C34.1865 40.0035 34.1372 40.2564 34.034 40.489C33.9309 40.7216 33.7765 40.9279 33.5825 41.0925C33.0877 41.4993 32.4557 41.701 31.8166 41.6558C31.1744 41.7005 30.5392 41.499 30.04 41.0925C29.8576 40.9213 29.7146 40.7125 29.6211 40.4805C29.5275 40.2485 29.4856 39.9989 29.4983 39.7491V36.4991C29.4864 36.2494 29.5286 36.0001 29.6221 35.7682C29.7156 35.5363 29.8581 35.3274 30.04 35.1558C30.5433 34.7579 31.1764 34.561 31.8166 34.6033C32.455 34.5636 33.085 34.7646 33.5825 35.1666C33.7674 35.3363 33.9128 35.5446 34.0083 35.7768C34.1038 36.0089 34.147 36.2592 34.135 36.51V37.4091H32.8458V36.51C32.8602 36.3539 32.8405 36.1965 32.7881 36.0487C32.7358 35.901 32.6519 35.7663 32.5425 35.6541C32.3433 35.5143 32.1029 35.4456 31.86 35.4591C31.6134 35.4432 31.3687 35.512 31.1666 35.6541C31.0591 35.7673 30.9773 35.9024 30.9268 36.0501C30.8763 36.1978 30.8584 36.3547 30.8741 36.51V39.76C30.8584 39.9153 30.8763 40.0722 30.9268 40.2199C30.9773 40.3676 31.0591 40.5026 31.1666 40.6158C31.3687 40.758 31.6134 40.8268 31.86 40.8108C32.0919 40.8054 32.3159 40.7256 32.4991 40.5833C32.6086 40.4711 32.6924 40.3365 32.7448 40.1887C32.7972 40.0409 32.8168 39.8836 32.8025 39.7275L32.8458 38.85Z" fill="#3C3C3B"/>
<path d="M38.1549 35.6432C38.0454 35.7554 37.9616 35.89 37.9092 36.0378C37.8569 36.1855 37.8372 36.3429 37.8516 36.499V39.749C37.8372 39.9051 37.8569 40.0625 37.9092 40.2102C37.9616 40.358 38.0454 40.4926 38.1549 40.6048C38.3512 40.7505 38.5938 40.8198 38.8374 40.7998C39.084 40.8158 39.3286 40.747 39.5307 40.6048C39.6383 40.4917 39.7201 40.3566 39.7706 40.2089C39.8211 40.0612 39.839 39.9043 39.8232 39.749V36.499C39.839 36.3437 39.8211 36.1868 39.7706 36.0391C39.7201 35.8914 39.6383 35.7563 39.5307 35.6432C39.3286 35.501 39.084 35.4322 38.8374 35.4482C38.5938 35.4282 38.3512 35.4975 38.1549 35.6432ZM38.8374 34.5598C39.4776 34.5175 40.1108 34.7144 40.6141 35.1123C40.7959 35.2839 40.9384 35.4928 41.0319 35.7247C41.1254 35.9566 41.1677 36.2059 41.1557 36.4557V39.7057C41.1684 39.9555 41.1265 40.2051 41.033 40.437C40.9394 40.669 40.7965 40.8779 40.6141 41.049C40.1149 41.4556 39.4797 41.657 38.8374 41.6123C38.1984 41.6575 37.5664 41.4559 37.0716 41.049C36.8854 40.8803 36.7392 40.6721 36.6436 40.4397C36.5481 40.2073 36.5055 39.9566 36.5191 39.7057V36.4557C36.5149 36.214 36.562 35.9741 36.6572 35.7519C36.7524 35.5297 36.8937 35.3302 37.0716 35.1665C37.5706 34.7683 38.2005 34.5713 38.8374 34.614" fill="#3C3C3B"/>
<path d="M44.8384 41.4933H43.5059V34.7333H44.6542L44.8384 35.1017C45.1024 34.8425 45.4384 34.6688 45.8025 34.6033C46.1629 34.5272 46.5372 34.5496 46.8859 34.6683C47.2725 34.7799 47.6083 35.0226 47.8356 35.3546C48.0629 35.6867 48.1676 36.0875 48.1317 36.4883V41.4933H46.7992V36.4883C46.815 36.333 46.797 36.1762 46.7465 36.0284C46.696 35.8807 46.6142 35.7457 46.5067 35.6325C46.3075 35.4927 46.0671 35.424 45.8242 35.4375C45.5776 35.4215 45.333 35.4903 45.1309 35.6325C45.0248 35.7444 44.9438 35.8777 44.8934 36.0234C44.8429 36.1691 44.8242 36.324 44.8384 36.4775V41.4933Z" fill="#3C3C3B"/>
<path d="M50.3521 39.3372H51.6196V39.7381C51.5985 39.9878 51.6318 40.2391 51.7171 40.4747C51.858 40.6914 52.183 40.7997 52.703 40.7997C53.223 40.7997 53.5371 40.6914 53.678 40.4747C53.7633 40.2391 53.7966 39.9878 53.7755 39.7381C53.7796 39.5522 53.7322 39.3688 53.6385 39.2081C53.5448 39.0475 53.4085 38.916 53.2446 38.8281C52.8639 38.6507 52.4689 38.5058 52.0638 38.3947C51.6458 38.2783 51.2554 38.0794 50.9155 37.8097C50.7339 37.6453 50.5919 37.4421 50.5 37.2151C50.4081 36.9881 50.3686 36.7433 50.3846 36.4989C50.3846 35.2206 51.1646 34.5706 52.7355 34.5706C54.3063 34.5706 55.0755 35.2206 55.0755 36.4989V36.8889H53.7755V36.4881C53.7953 36.2318 53.7388 35.9755 53.613 35.7514C53.3542 35.5411 53.031 35.4264 52.6976 35.4264C52.3641 35.4264 52.0409 35.5411 51.7821 35.7514C51.6563 35.9755 51.5998 36.2318 51.6196 36.4881C51.6208 36.6771 51.6714 36.8626 51.7664 37.026C51.8614 37.1895 51.9976 37.3252 52.1613 37.4197C52.5416 37.5898 52.9369 37.724 53.3421 37.8206C53.7652 37.9244 54.1631 38.1123 54.5121 38.3731C54.6944 38.5438 54.8365 38.7529 54.9283 38.9852C55.0201 39.2174 55.0592 39.4672 55.043 39.7164C55.0637 39.9662 55.0341 40.2176 54.956 40.4558C54.8778 40.694 54.7527 40.9141 54.588 41.1031C54.0208 41.4564 53.3658 41.6438 52.6976 41.6438C52.0293 41.6438 51.3744 41.4564 50.8071 41.1031C50.6424 40.9141 50.5173 40.694 50.4391 40.4558C50.361 40.2176 50.3314 39.9662 50.3521 39.7164V39.3372Z" fill="#3C3C3B"/>
<path d="M60.5581 38.8499H61.8906V39.7491C61.9032 39.9989 61.8613 40.2485 61.7678 40.4805C61.6742 40.7125 61.5313 40.9213 61.3489 41.0924C60.831 41.459 60.2121 41.6559 59.5776 41.6559C58.9431 41.6559 58.3243 41.459 57.8064 41.0924C57.6222 40.9227 57.478 40.7141 57.3843 40.4817C57.2907 40.2494 57.2498 39.9992 57.2647 39.7491V36.4991C57.2506 36.2491 57.2918 35.9991 57.3854 35.7669C57.479 35.5347 57.6228 35.326 57.8064 35.1558C58.3272 34.7966 58.945 34.6042 59.5776 34.6042C60.2103 34.6042 60.828 34.7966 61.3489 35.1558C61.5307 35.3274 61.6733 35.5363 61.7668 35.7681C61.8603 36 61.9025 36.2494 61.8906 36.4991V37.3983H60.5581V36.4991C60.5738 36.3438 60.5559 36.1869 60.5054 36.0392C60.4549 35.8915 60.3731 35.7564 60.2656 35.6433C60.0634 35.5011 59.8188 35.4323 59.5722 35.4483C59.3293 35.4348 59.0889 35.5035 58.8897 35.6433C58.7822 35.7564 58.7004 35.8915 58.6499 36.0392C58.5994 36.1869 58.5814 36.3438 58.5972 36.4991V39.7491C58.5814 39.9044 58.5994 40.0613 58.6499 40.209C58.7004 40.3567 58.7822 40.4918 58.8897 40.6049C59.0889 40.7447 59.3293 40.8134 59.5722 40.7999C59.8188 40.8159 60.0634 40.7471 60.2656 40.6049C60.3731 40.4918 60.4549 40.3567 60.5054 40.209C60.5559 40.0613 60.5738 39.9044 60.5581 39.7491V38.8499Z" fill="#3C3C3B"/>
<path d="M65.5727 41.4933H64.2402V34.7333H65.5727V41.4933ZM65.5727 33.4549H64.2402V32.4583H65.5727V33.4549Z" fill="#3C3C3B"/>
<path d="M69.549 35.6433C69.4414 35.7564 69.3596 35.8915 69.3091 36.0392C69.2587 36.1869 69.2407 36.3438 69.2565 36.4991V39.7491C69.2407 39.9044 69.2587 40.0613 69.3091 40.209C69.3596 40.3567 69.4414 40.4918 69.549 40.6049C69.7511 40.7471 69.9957 40.8159 70.2423 40.7999C70.4852 40.8134 70.7257 40.7447 70.9248 40.6049C71.0323 40.4918 71.1142 40.3567 71.1646 40.209C71.2151 40.0613 71.2331 39.9044 71.2173 39.7491V36.4991C71.2331 36.3438 71.2151 36.1869 71.1646 36.0392C71.1142 35.8915 71.0323 35.7564 70.9248 35.6433C70.7257 35.5035 70.4852 35.4348 70.2423 35.4483C69.9957 35.4323 69.7511 35.5011 69.549 35.6433ZM70.2423 34.5599C70.8793 34.5172 71.5092 34.7143 72.0081 35.1124C72.2029 35.2848 72.3558 35.4992 72.4553 35.7395C72.5548 35.9798 72.5982 36.2395 72.5823 36.4991V39.7491C72.5959 40 72.5533 40.2508 72.4577 40.4832C72.3622 40.7155 72.216 40.9237 72.0298 41.0924C71.535 41.4993 70.903 41.7009 70.264 41.6558C69.6217 41.7004 68.9865 41.499 68.4873 41.0924C68.3031 40.9227 68.1589 40.7141 68.0653 40.4817C67.9716 40.2494 67.9307 39.9992 67.9456 39.7491V36.4991C67.9304 36.2526 67.969 36.0057 68.0588 35.7755C68.1486 35.5454 68.2874 35.3376 68.4656 35.1666C68.9689 34.7687 69.6021 34.5718 70.2423 34.6141" fill="#3C3C3B"/>
<path d="M78.2055 34.7334H79.538V41.4934H78.3789L78.2055 41.1251C77.9415 41.3843 77.6055 41.5579 77.2414 41.6234C76.881 41.7001 76.5066 41.6777 76.158 41.5584C75.7685 41.4467 75.43 41.2029 75.2007 40.8688C74.9714 40.5347 74.8655 40.1312 74.9014 39.7276V34.7334H76.2339V39.7276C76.2179 39.8854 76.2368 40.0449 76.2892 40.1946C76.3416 40.3444 76.4263 40.4808 76.5372 40.5942C76.7326 40.7417 76.9759 40.8112 77.2197 40.7892C77.4663 40.8052 77.7109 40.7364 77.913 40.5942C78.0191 40.4823 78.1001 40.349 78.1505 40.2033C78.201 40.0576 78.2197 39.9028 78.2055 39.7492V34.7334Z" fill="#3C3C3B"/>
<path d="M81.7486 39.3372H83.027V39.7381C83.0058 39.9878 83.0391 40.2391 83.1245 40.4747C83.2545 40.6914 83.5795 40.7997 84.0995 40.7997C84.6194 40.7997 84.9445 40.6914 85.0745 40.4747C85.1598 40.2391 85.1931 39.9878 85.172 39.7381C85.1786 39.5517 85.1323 39.3673 85.0383 39.2062C84.9443 39.0451 84.8066 38.914 84.6411 38.8281C84.2465 38.6537 83.8367 38.5159 83.417 38.4164C83.0202 38.2857 82.6524 38.0797 82.3336 37.8097C82.1507 37.6459 82.0071 37.443 81.9133 37.2161C81.8196 36.9891 81.7781 36.744 81.792 36.4989C81.792 35.2206 82.5828 34.5706 84.1428 34.5706C85.7028 34.5706 86.4936 35.2206 86.4936 36.4989V36.8889H85.172V36.4881C85.1944 36.233 85.1417 35.9769 85.0203 35.7514C84.903 35.6289 84.7585 35.5357 84.5986 35.4793C84.4386 35.4228 84.2677 35.4047 84.0995 35.4264C83.9312 35.4047 83.7603 35.4228 83.6003 35.4793C83.4404 35.5357 83.296 35.6289 83.1786 35.7514C83.0572 35.9769 83.0045 36.233 83.027 36.4881C83.02 36.6774 83.066 36.8648 83.1598 37.0294C83.2536 37.194 83.3914 37.3292 83.5578 37.4197C83.9388 37.5879 84.334 37.722 84.7386 37.8206C85.1651 37.9375 85.5632 38.1402 85.9086 38.4164C86.0928 38.5862 86.237 38.7948 86.3307 39.0271C86.4243 39.2594 86.4652 39.5097 86.4503 39.7597C86.471 40.0095 86.4415 40.261 86.3633 40.4992C86.2852 40.7373 86.16 40.9574 85.9953 41.1464C85.4264 41.5007 84.7696 41.6885 84.0995 41.6885C83.4293 41.6885 82.7725 41.5007 82.2036 41.1464C82.0389 40.9574 81.9138 40.7373 81.8356 40.4992C81.7574 40.261 81.7279 40.0095 81.7486 39.7597V39.3372Z" fill="#3C3C3B"/>
<path d="M93.2968 39.3374H94.5643V39.7383C94.5432 39.988 94.5765 40.2393 94.6618 40.4749C94.8027 40.6916 95.1277 40.7999 95.6477 40.7999C96.1677 40.7999 96.4927 40.6916 96.6227 40.4749C96.708 40.2393 96.7413 39.988 96.7202 39.7383C96.7268 39.5519 96.6805 39.3675 96.5865 39.2064C96.4925 39.0453 96.3548 38.9142 96.1893 38.8283C95.8087 38.6564 95.4135 38.5186 95.0085 38.4166C94.5837 38.3062 94.1857 38.1109 93.8385 37.8424C93.6556 37.6786 93.512 37.4757 93.4182 37.2488C93.3244 37.0219 93.283 36.7767 93.2968 36.5316C93.2968 35.2533 94.0768 34.6033 95.6477 34.6033C97.2185 34.6033 97.9985 35.2533 97.9985 36.5316V36.9216H96.7202V36.5208C96.7373 36.266 96.6849 36.0114 96.5685 35.7841C96.308 35.573 95.9829 35.4578 95.6477 35.4578C95.3124 35.4578 94.9873 35.573 94.7268 35.7841C94.601 36.0082 94.5445 36.2646 94.5643 36.5208C94.5655 36.7098 94.6161 36.8953 94.7111 37.0587C94.8061 37.2222 94.9423 37.3579 95.106 37.4524C95.487 37.6206 95.8822 37.7547 96.2868 37.8533C96.726 37.9549 97.1392 38.1467 97.5002 38.4166C97.6844 38.5864 97.8285 38.795 97.9222 39.0273C98.0159 39.2596 98.0567 39.5099 98.0418 39.7599C98.0466 40.0104 98.0012 40.2593 97.9081 40.4919C97.8151 40.7245 97.6764 40.936 97.5002 41.1141C96.9313 41.4684 96.2745 41.6563 95.6043 41.6563C94.9341 41.6563 94.2774 41.4684 93.7085 41.1141C93.5438 40.9251 93.4186 40.7051 93.3405 40.4669C93.2623 40.2287 93.2328 39.9773 93.2535 39.7274L93.2968 39.3374Z" fill="#3C3C3B"/>
<path d="M103.61 34.7334H105.083L102.916 37.1817C103.415 37.2035 103.894 37.3859 104.281 37.7017C104.466 37.8719 104.611 38.0803 104.706 38.3123C104.802 38.5444 104.845 38.7944 104.834 39.0451V41.4934H103.512V39.0451C103.525 38.8907 103.504 38.7354 103.452 38.5897C103.4 38.4439 103.317 38.3111 103.209 38.2001C103.013 38.0544 102.77 37.9851 102.526 38.0051H101.541V41.4934H100.208V31.7434H101.541V37.1059L103.61 34.7334Z" fill="#3C3C3B"/>
<path d="M108.333 41.4933H107.012V34.7333H108.333V41.4933ZM108.333 33.4549H107.012V32.4583H108.333V33.4549Z" fill="#3C3C3B"/>
<path d="M112.027 41.4933H110.694V34.7333H111.843L112.027 35.1017C112.291 34.8425 112.627 34.6688 112.991 34.6033C113.351 34.5272 113.726 34.5496 114.074 34.6683C114.461 34.7799 114.797 35.0226 115.024 35.3546C115.251 35.6867 115.356 36.0875 115.32 36.4883V41.4933H113.988V36.4883C114.003 36.333 113.985 36.1762 113.935 36.0284C113.885 35.8807 113.803 35.7457 113.695 35.6325C113.496 35.4927 113.256 35.424 113.013 35.4375C112.766 35.4215 112.521 35.4903 112.319 35.6325C112.213 35.7444 112.132 35.8777 112.082 36.0234C112.031 36.1691 112.013 36.324 112.027 36.4775V41.4933Z" fill="#3C3C3B"/>
<path d="M122.308 39.3374H123.576V39.7382C123.555 39.9879 123.588 40.2393 123.673 40.4749C123.814 40.6915 124.139 40.7999 124.659 40.7999C125.179 40.7999 125.504 40.6915 125.634 40.4749C125.719 40.2393 125.753 39.9879 125.732 39.7382C125.738 39.5519 125.692 39.3674 125.598 39.2064C125.504 39.0453 125.366 38.9142 125.201 38.8282C124.821 38.6489 124.426 38.5039 124.02 38.3949C123.595 38.2845 123.197 38.0891 122.85 37.8207C122.667 37.6569 122.523 37.454 122.43 37.2271C122.336 37.0001 122.294 36.755 122.308 36.5099C122.308 35.2315 123.088 34.5815 124.659 34.5815C126.23 34.5815 127.01 35.2315 127.01 36.5099V36.8999H125.732V36.499C125.751 36.2428 125.695 35.9865 125.569 35.7624C125.453 35.6415 125.31 35.5492 125.152 35.4928C124.994 35.4364 124.826 35.4174 124.659 35.4374C124.491 35.4157 124.32 35.4338 124.16 35.4902C124 35.5467 123.856 35.6399 123.738 35.7624C123.612 35.9865 123.556 36.2428 123.576 36.499C123.577 36.6881 123.627 36.8736 123.722 37.037C123.817 37.2005 123.954 37.3362 124.117 37.4307C124.498 37.5989 124.894 37.733 125.298 37.8315C125.721 37.9354 126.119 38.1233 126.468 38.384C126.652 38.5538 126.797 38.7624 126.89 38.9947C126.984 39.2271 127.025 39.4773 127.01 39.7274C127.032 39.9781 127.002 40.2307 126.921 40.4693C126.841 40.7078 126.713 40.9273 126.544 41.114C126.007 41.5277 125.333 41.7213 124.659 41.6557C123.981 41.7209 123.304 41.5274 122.763 41.114C122.598 40.9251 122.473 40.705 122.395 40.4668C122.317 40.2286 122.287 39.9772 122.308 39.7274V39.3374Z" fill="#3C3C3B"/>
<path d="M132.524 38.8498H133.857V39.749C133.87 39.9999 133.828 40.2507 133.732 40.483C133.637 40.7154 133.49 40.9236 133.304 41.0923C132.809 41.4992 132.177 41.7008 131.538 41.6557C130.896 41.7003 130.261 41.4989 129.762 41.0923C129.579 40.9212 129.436 40.7123 129.343 40.4804C129.249 40.2484 129.207 39.9988 129.22 39.749V36.499C129.208 36.2493 129.25 35.9999 129.344 35.768C129.437 35.5362 129.58 35.3273 129.762 35.1557C130.265 34.7577 130.898 34.5608 131.538 34.6032C132.175 34.5604 132.805 34.7575 133.304 35.1557C133.489 35.3254 133.634 35.5337 133.73 35.7658C133.825 35.998 133.869 36.2483 133.857 36.499V37.3982H132.524V36.499C132.539 36.3429 132.519 36.1855 132.466 36.0378C132.414 35.89 132.33 35.7554 132.221 35.6432C132.025 35.4975 131.782 35.4282 131.538 35.4482C131.292 35.4322 131.047 35.501 130.845 35.6432C130.737 35.7563 130.656 35.8914 130.605 36.0391C130.555 36.1868 130.537 36.3437 130.552 36.499V39.749C130.537 39.9043 130.555 40.0612 130.605 40.2089C130.656 40.3566 130.737 40.4917 130.845 40.6048C131.047 40.747 131.292 40.8158 131.538 40.7998C131.782 40.8198 132.025 40.7505 132.221 40.6048C132.33 40.4926 132.414 40.358 132.466 40.2102C132.519 40.0625 132.539 39.9051 132.524 39.749V38.8498Z" fill="#3C3C3B"/>
<path d="M137.583 41.4933H136.25V34.7333H137.583V41.4933ZM137.583 33.4549H136.25V32.4583H137.583V33.4549Z" fill="#3C3C3B"/>
<path d="M141.212 37.7125H143.183V36.51C143.199 36.3547 143.181 36.1978 143.131 36.0501C143.08 35.9024 142.998 35.7673 142.891 35.6542C142.682 35.5269 142.442 35.4596 142.198 35.4596C141.953 35.4596 141.713 35.5269 141.504 35.6542C141.397 35.7673 141.315 35.9024 141.264 36.0501C141.214 36.1978 141.196 36.3547 141.212 36.51V37.7125ZM139.879 36.51C139.867 36.2602 139.908 36.0106 140.002 35.7786C140.096 35.5466 140.238 35.3378 140.421 35.1667C140.923 34.7648 141.556 34.564 142.198 34.6033C142.836 34.5615 143.467 34.7627 143.963 35.1667C144.15 35.3354 144.296 35.5436 144.391 35.7759C144.487 36.0083 144.529 36.2591 144.516 36.51V38.5575H141.212V39.7492C141.194 39.9062 141.211 40.0652 141.262 40.2149C141.313 40.3646 141.395 40.5014 141.504 40.6158C141.713 40.7431 141.953 40.8104 142.198 40.8104C142.442 40.8104 142.682 40.7431 142.891 40.6158C143 40.5014 143.083 40.3646 143.133 40.2149C143.184 40.0652 143.201 39.9062 143.183 39.7492V39.1967H144.516V39.7492C144.53 40.0017 144.487 40.2541 144.392 40.4882C144.296 40.7224 144.15 40.9324 143.963 41.1033C143.465 41.5034 142.835 41.7007 142.198 41.6558C141.557 41.6982 140.924 41.5013 140.421 41.1033C140.238 40.9301 140.095 40.7193 140.002 40.4856C139.908 40.2518 139.866 40.0006 139.879 39.7492V36.51Z" fill="#3C3C3B"/>
<path d="M148.199 41.4933H146.855V34.7333H148.015L148.199 35.1017C148.461 34.8402 148.798 34.6662 149.163 34.6033C149.523 34.5272 149.898 34.5496 150.246 34.6683C150.633 34.7799 150.969 35.0226 151.196 35.3546C151.423 35.6867 151.528 36.0875 151.492 36.4883V41.4933H150.16V36.4883C150.175 36.333 150.157 36.1762 150.107 36.0284C150.056 35.8807 149.975 35.7457 149.867 35.6325C149.665 35.4903 149.42 35.4215 149.174 35.4375C148.931 35.424 148.69 35.4927 148.491 35.6325C148.385 35.7444 148.304 35.8777 148.254 36.0234C148.203 36.1691 148.185 36.324 148.199 36.4775V41.4933Z" fill="#3C3C3B"/>
<path d="M157.148 38.8498H158.481V39.749C158.494 39.9999 158.452 40.2507 158.356 40.483C158.261 40.7154 158.114 40.9236 157.928 41.0923C157.433 41.4992 156.801 41.7008 156.162 41.6557C155.52 41.7003 154.885 41.4989 154.386 41.0923C154.203 40.9212 154.06 40.7123 153.967 40.4804C153.873 40.2484 153.831 39.9988 153.844 39.749V36.499C153.832 36.2493 153.874 35.9999 153.968 35.768C154.061 35.5362 154.204 35.3273 154.386 35.1557C154.889 34.7577 155.522 34.5608 156.162 34.6032C156.799 34.5604 157.429 34.7575 157.928 35.1557C158.113 35.3254 158.259 35.5337 158.354 35.7658C158.449 35.998 158.493 36.2483 158.481 36.499V37.3982H157.148V36.499C157.163 36.3429 157.143 36.1855 157.091 36.0378C157.038 35.89 156.954 35.7554 156.845 35.6432C156.649 35.4975 156.406 35.4282 156.162 35.4482C155.916 35.4322 155.671 35.501 155.469 35.6432C155.361 35.7563 155.28 35.8914 155.229 36.0391C155.179 36.1868 155.161 36.3437 155.177 36.499V39.749C155.161 39.9043 155.179 40.0612 155.229 40.2089C155.28 40.3566 155.361 40.4917 155.469 40.6048C155.671 40.747 155.916 40.8158 156.162 40.7998C156.406 40.8198 156.649 40.7505 156.845 40.6048C156.954 40.4926 157.038 40.358 157.091 40.2102C157.143 40.0625 157.163 39.9051 157.148 39.749V38.8498Z" fill="#3C3C3B"/>
<path d="M162.153 37.7125H164.124V36.51C164.14 36.3547 164.122 36.1978 164.072 36.0501C164.021 35.9024 163.939 35.7673 163.832 35.6542C163.63 35.512 163.385 35.4432 163.139 35.4592C162.895 35.4392 162.652 35.5085 162.456 35.6542C162.347 35.7664 162.263 35.901 162.21 36.0488C162.158 36.1965 162.138 36.3539 162.153 36.51V37.7125ZM160.82 36.51C160.812 36.2557 160.861 36.0028 160.964 35.7702C161.068 35.5376 161.222 35.3313 161.416 35.1667C161.913 34.7646 162.544 34.5636 163.182 34.6033C163.824 34.564 164.457 34.7648 164.959 35.1667C165.141 35.3378 165.284 35.5466 165.377 35.7786C165.471 36.0106 165.513 36.2602 165.5 36.51V38.5575H162.25V39.7492C162.234 39.907 162.253 40.0665 162.306 40.2162C162.358 40.366 162.443 40.5024 162.554 40.6158C162.75 40.7615 162.992 40.8308 163.236 40.8108C163.483 40.8268 163.727 40.758 163.929 40.6158C164.038 40.5014 164.121 40.3646 164.172 40.2149C164.222 40.0652 164.239 39.9062 164.222 39.7492V39.1967H165.554V39.7492C165.567 40.0006 165.525 40.2518 165.432 40.4856C165.338 40.7193 165.195 40.9301 165.013 41.1033C164.509 41.5013 163.876 41.6982 163.236 41.6558C162.599 41.6986 161.969 41.5015 161.47 41.1033C161.284 40.9324 161.138 40.7224 161.042 40.4882C160.947 40.2541 160.904 40.0017 160.918 39.7492L160.82 36.51Z" fill="#3C3C3B"/>
<path d="M7.995 22.7625H5.27583C4.1925 22.7625 3.94333 22.5675 3.94333 21.5167V6.8917C3.94333 5.80836 4.16 5.64586 5.27583 5.64586H7.995V2.90503H3.9325C1.08333 2.90503 0 3.9342 0 6.5992V21.7659C0 24.4309 1.08333 25.46 3.9325 25.46H7.995V22.7625Z" fill="#3C3C3B"/>
<path d="M83.719 17.3892C83.7829 18.0768 83.5899 18.7638 83.1773 19.3175C83.013 19.4549 82.8231 19.5582 82.6185 19.6215C82.4139 19.6847 82.1988 19.7066 81.9857 19.6859C81.5572 19.7248 81.1303 19.5967 80.794 19.3284C80.3825 18.7699 80.1898 18.0801 80.2523 17.3892V11.8317C80.1881 11.1474 80.3812 10.4637 80.794 9.91421C81.1466 9.6835 81.5589 9.56062 81.9802 9.56062C82.4016 9.56062 82.8139 9.6835 83.1665 9.91421C83.5867 10.4646 83.784 11.1531 83.719 11.8425V17.3892ZM81.9857 6.66421C81.2169 6.61785 80.4469 6.73054 79.7236 6.99523C79.0004 7.25992 78.3395 7.67091 77.7823 8.20254C76.8889 9.19376 76.4252 10.499 76.4932 11.8317V17.3892C76.4514 18.0598 76.5439 18.7319 76.7653 19.3663C76.9867 20.0006 77.3324 20.5844 77.7823 21.0834C78.9558 22.0761 80.4432 22.6208 81.9802 22.6208C83.5173 22.6208 85.0046 22.0761 86.1782 21.0834C86.6253 20.5931 86.9705 20.0188 87.1937 19.3939C87.4169 18.769 87.5136 18.106 87.4782 17.4434V11.8317C87.5461 10.499 87.0824 9.19376 86.189 8.20254C85.6318 7.67091 84.9709 7.25992 84.2477 6.99523C83.5244 6.73054 82.7544 6.61785 81.9857 6.66421Z" fill="#3C3C3B"/>
<path d="M68.1088 1.42079C67.3721 1.83516 66.7682 2.45016 66.3674 3.19428C65.9666 3.93839 65.7853 4.78101 65.8446 5.62413V6.70746H64.0029V9.54579H65.8446V22.5458H69.5821V9.54579H73.5579V6.66413H69.5821V5.58079C69.5533 5.27354 69.5982 4.96385 69.7131 4.67745C69.8281 4.39105 70.0097 4.13621 70.2429 3.93413C71.0617 3.46187 72.0245 3.30398 72.9513 3.48996L73.8613 3.61996L74.3813 0.705794L73.4388 0.619127C71.6219 0.346069 69.7649 0.625372 68.1088 1.42079Z" fill="#3C3C3B"/>
<path d="M58.0985 6.67481C57.2085 6.40025 56.2486 6.46193 55.401 6.84814C54.7279 7.14282 54.1502 7.61925 53.7327 8.22397C53.4256 7.76243 53.021 7.37384 52.5474 7.08559C52.0739 6.79734 51.5429 6.61644 50.9918 6.55564C50.4461 6.4665 49.8873 6.50102 49.3567 6.65664C48.8261 6.81226 48.3372 7.08503 47.926 7.45481L47.666 6.66397H44.416V22.5565H48.1643V11.7231C48.1017 11.0582 48.2415 10.3898 48.5652 9.80564C48.5652 9.72981 48.7927 9.48064 49.551 9.48064C50.3094 9.48064 50.4718 9.72981 50.526 9.81647C50.8497 10.4084 50.9857 11.0847 50.916 11.7556V22.524H54.6752V11.7881C54.608 11.1138 54.7438 10.4348 55.0652 9.83814C55.0652 9.76231 55.2927 9.51314 56.0618 9.51314C56.831 9.51314 56.9935 9.76231 57.0477 9.83814C57.3537 10.4398 57.4815 11.1163 57.416 11.7881V22.5565H61.1752V11.7881C61.2132 10.5875 60.9007 9.4017 60.276 8.37564C59.7733 7.56981 59.0021 6.96744 58.0985 6.67481Z" fill="#3C3C3B"/>
<path d="M33.3128 11.8318C33.2462 11.1456 33.4438 10.4598 33.8653 9.91426C34.0286 9.77529 34.2184 9.67098 34.4233 9.60766C34.6281 9.54434 34.8437 9.52334 35.0569 9.54592C35.4822 9.50522 35.9065 9.63366 36.2378 9.90342C36.6735 10.4475 36.8864 11.1367 36.8336 11.8318V17.3893C36.9008 18.0789 36.7033 18.7682 36.2811 19.3176C36.1195 19.4557 35.9314 19.5596 35.7285 19.6229C35.5255 19.6862 35.3118 19.7076 35.1003 19.6859C34.6715 19.7284 34.2432 19.5999 33.9086 19.3284C33.4886 18.7738 33.2915 18.082 33.3561 17.3893L33.3128 11.8318ZM35.0569 6.66426C34.2881 6.61659 33.5177 6.72866 32.7942 6.99342C32.0708 7.25818 31.4101 7.66988 30.8536 8.20259C29.9602 9.19381 29.4965 10.499 29.5644 11.8318V17.3893C29.5227 18.0598 29.6152 18.732 29.8366 19.3663C30.058 20.0007 30.4037 20.5844 30.8536 21.0834C31.411 21.6142 32.0721 22.0239 32.7955 22.2868C33.5189 22.5497 34.2888 22.66 35.0569 22.6109C35.8233 22.6592 36.5914 22.5484 37.3129 22.2855C38.0344 22.0226 38.6937 21.6134 39.2494 21.0834C40.1446 20.0889 40.6083 18.7797 40.5386 17.4434V11.8318C40.6065 10.499 40.1429 9.19381 39.2494 8.20259C38.6946 7.67072 38.0357 7.25946 37.3142 6.99471C36.5926 6.72996 35.8241 6.61745 35.0569 6.66426Z" fill="#3C3C3B"/>
<path d="M20.1272 6.66426C19.36 6.61745 18.5915 6.72996 17.8699 6.99471C17.1484 7.25946 16.4895 7.67072 15.9347 8.20259C15.0412 9.19381 14.5776 10.499 14.6455 11.8318V17.3893C14.6037 18.0598 14.6963 18.732 14.9176 19.3663C15.139 20.0007 15.4848 20.5844 15.9347 21.0834C16.4904 21.6134 17.1497 22.0226 17.8712 22.2855C18.5927 22.5484 19.3608 22.6592 20.1272 22.6109C20.8953 22.66 21.6652 22.5497 22.3886 22.2868C23.112 22.0239 23.7731 21.6142 24.3305 21.0834C25.2256 20.0889 25.6893 18.7797 25.6197 17.4434V17.0534H21.8713V17.4434C21.9385 18.133 21.741 18.8224 21.3188 19.3718C21.1555 19.5107 20.9657 19.615 20.7608 19.6783C20.556 19.7417 20.3404 19.7627 20.1272 19.7401C19.7019 19.7808 19.2776 19.6524 18.9463 19.3826C18.5207 18.8106 18.3307 18.0972 18.4155 17.3893V11.8318C18.3512 11.1475 18.5444 10.4638 18.9572 9.91426C19.1214 9.77688 19.3114 9.67357 19.516 9.61034C19.7206 9.5471 19.9357 9.5252 20.1488 9.54592C20.5776 9.50349 21.0059 9.63196 21.3405 9.90342C21.7607 10.4538 21.958 11.1424 21.893 11.8318V13.2726H25.6413V11.8318C25.7093 10.499 25.2456 9.19381 24.3522 8.20259C23.7957 7.66988 23.1349 7.25818 22.4115 6.99342C21.6881 6.72866 20.9177 6.61659 20.1488 6.66426" fill="#3C3C3B"/>
<path d="M162.5 6.87015C161.657 6.54619 160.738 6.47835 159.857 6.67515C159.172 6.83233 158.534 7.14771 157.993 7.59598L157.744 6.66431H154.494V22.5568H158.167V11.7235C158.103 11.0526 158.296 10.3826 158.708 9.84931C159.062 9.61634 159.476 9.49217 159.9 9.49217C160.324 9.49217 160.738 9.61634 161.092 9.84931C161.512 10.3954 161.71 11.0807 161.644 11.7668V22.5351H165.392V11.7885C165.392 9.29681 164.396 7.63931 162.402 6.87015" fill="#3C3C3B"/>
<path d="M173.128 11.8425C173.062 11.1564 173.26 10.471 173.68 9.92499C174.029 9.68461 174.443 9.5559 174.866 9.5559C175.29 9.5559 175.704 9.68461 176.053 9.92499C176.473 10.471 176.671 11.1564 176.605 11.8425V12.7092H173.128V11.8425ZM180.364 15.5908V11.8425C180.396 11.1835 180.298 10.5247 180.075 9.90382C179.852 9.28293 179.508 8.71214 179.064 8.22416C177.891 7.23147 176.403 6.68677 174.866 6.68677C173.329 6.68677 171.842 7.23147 170.668 8.22416C170.226 8.713 169.885 9.28417 169.664 9.90503C169.443 10.5259 169.346 11.1843 169.379 11.8425V17.4C169.339 18.0688 169.432 18.7389 169.654 19.3713C169.875 20.0036 170.22 20.5856 170.668 21.0833C171.842 22.076 173.329 22.6207 174.866 22.6207C176.403 22.6207 177.891 22.076 179.064 21.0833C179.506 20.6977 179.852 20.2157 180.078 19.6747C180.303 19.1338 180.401 18.5482 180.364 17.9633V17.075H176.583V17.9633C176.612 18.1998 176.587 18.4396 176.511 18.6652C176.435 18.8908 176.309 19.0964 176.142 19.2669C175.976 19.4374 175.774 19.5683 175.55 19.6502C175.326 19.7321 175.087 19.7628 174.85 19.74C173.409 19.74 173.106 18.3533 173.106 17.4433V15.5908H180.364Z" fill="#3C3C3B"/>
<path d="M146.77 17.3891C146.832 18.0782 146.635 18.7657 146.218 19.3175C146.054 19.4564 145.865 19.5608 145.66 19.6241C145.455 19.6874 145.239 19.7084 145.026 19.6858C144.601 19.7265 144.176 19.5981 143.845 19.3283C143.425 18.7737 143.228 18.0819 143.293 17.3891V11.8316C143.228 11.1473 143.422 10.4637 143.834 9.91414C144.188 9.68117 144.602 9.557 145.026 9.557C145.45 9.557 145.864 9.68117 146.218 9.91414C146.633 10.4669 146.83 11.1536 146.77 11.8425V17.3891ZM145.026 6.66414C144.259 6.61734 143.49 6.72985 142.769 6.9946C142.047 7.25935 141.388 7.67061 140.833 8.20248C140.387 8.6911 140.042 9.26355 139.819 9.88657C139.596 10.5096 139.499 11.1708 139.533 11.8316V17.3891C139.493 18.0605 139.587 18.733 139.811 19.3674C140.034 20.0018 140.382 20.5852 140.833 21.0833C142.008 22.0789 143.497 22.6253 145.037 22.6253C146.576 22.6253 148.066 22.0789 149.24 21.0833C150.135 20.0888 150.599 18.7795 150.529 17.4433V11.8316C150.597 10.4989 150.134 9.1937 149.24 8.20248C148.683 7.67085 148.022 7.25985 147.299 6.99517C146.576 6.73048 145.806 6.61779 145.037 6.66414" fill="#3C3C3B"/>
<path d="M99.4062 6.87008C98.5598 6.54586 97.6367 6.47804 96.7521 6.67508C96.0708 6.83232 95.4362 7.14778 94.8996 7.59591L94.6504 6.66424H91.4004V22.5567H95.1596V11.7234C95.0972 11.0494 95.2905 10.3765 95.7012 9.83841C96.0375 9.57005 96.4644 9.44197 96.8929 9.48091C97.3182 9.44021 97.7424 9.56864 98.0737 9.83841C98.4942 10.3845 98.6917 11.0698 98.6262 11.7559V13.2401H102.385V11.7884C102.385 9.29674 101.378 7.63924 99.3954 6.87008" fill="#3C3C3B"/>
<path d="M111.615 0.5H108.061V6.66417H104.833V9.54583H107.866V22.5567H111.615V9.54583H114.659V6.66417H111.615V0.5Z" fill="#3C3C3B"/>
<path d="M136.38 6.66406H125.417V9.54573H131.83L125.373 20.8991L125.341 22.5566H136.38V19.6857H129.988L136.347 8.53823L136.38 6.66406Z" fill="#3C3C3B"/>
<path d="M187.005 22.7625H189.724C190.807 22.7625 191.057 22.5675 191.057 21.5167V6.8917C191.057 5.80836 190.84 5.64586 189.724 5.64586H187.005V2.90503H191.067C193.895 2.90503 195 3.9342 195 6.5992V21.7659C195 24.4309 193.917 25.46 191.067 25.46H187.005V22.7625Z" fill="#3C3C3B"/>
<path d="M187.005 22.7625H189.724C190.807 22.7625 191.057 22.5675 191.057 21.5167V6.8917C191.057 5.80836 190.84 5.64586 189.724 5.64586H187.005V2.90503H191.067C193.895 2.90503 195 3.9342 195 6.5992V21.7659C195 24.4309 193.917 25.46 191.067 25.46H187.005V22.7625Z" fill="#3C3C3B"/>
</g>
<defs>
<clipPath id="clip0_58_1364">
<rect width="195" height="41.1667" fill="white" transform="translate(0 0.5)"/>
</clipPath>
</defs>
</svg>
