<svg width="255" height="34" viewBox="0 0 255 34" fill="none" xmlns="http://www.w3.org/2000/svg">
<g clip-path="url(#clip0_58_1221)">
<path d="M212.225 9.49707C207.239 9.49707 204.134 12.7588 204.134 18.0276C204.134 23.0456 207.646 26.5425 212.696 26.5425C215.095 26.5425 217.4 25.5232 218.717 23.8924L218.874 23.6885C219 23.5317 218.984 23.2965 218.843 23.1396L218.263 22.5438C218.184 22.4654 218.074 22.4183 217.965 22.4183C217.855 22.4183 217.745 22.4811 217.667 22.5594L217.478 22.779C216.397 24.0178 214.577 24.8019 212.727 24.8019C208.682 24.8019 206.157 22.4026 205.906 18.3413H219.203C219.423 18.3413 219.611 18.153 219.611 17.9336V17.6513C219.611 17.5258 219.611 17.416 219.627 17.2906C219.642 17.1495 219.642 17.024 219.642 16.8672C219.596 12.5392 216.554 9.49707 212.225 9.49707ZM205.906 16.6634C206.376 13.2292 208.666 11.2063 212.069 11.2063C213.809 11.2063 215.268 11.7552 216.287 12.8058C217.228 13.7624 217.761 15.0796 217.855 16.6634H205.906Z" fill="#3C3C3B"/>
<path d="M246.445 9.49683C244.564 9.49683 242.541 10.1711 241.051 11.2688V10.1711C241.051 9.9516 240.862 9.76343 240.643 9.76343H239.749C239.529 9.76343 239.342 9.9516 239.342 10.1711V32.5952C239.342 32.8147 239.529 33.0029 239.749 33.0029H240.643C240.862 33.0029 241.051 32.8147 241.051 32.5952V25.4289C242.446 26.1502 244.187 26.5422 246.038 26.5422C250.946 26.5422 254.364 22.9355 254.364 17.7764C254.348 12.7428 251.244 9.49683 246.445 9.49683ZM252.655 17.8706C252.639 21.9633 249.942 24.8173 246.068 24.8173C244.124 24.8173 242.478 24.3469 241.051 23.3589V13.5269C242.007 12.3665 244.25 11.1904 246.445 11.1904C250.271 11.206 252.655 13.7621 252.655 17.8706Z" fill="#3C3C3B"/>
<path d="M229.4 9.49609C224.413 9.49609 221.309 12.7578 221.309 18.0266C221.309 23.0446 224.821 26.5415 229.87 26.5415C232.254 26.5415 234.559 25.5222 235.892 23.8914L236.048 23.6876C236.175 23.5307 236.159 23.2955 236.018 23.1387L235.422 22.5428C235.343 22.4644 235.218 22.4017 235.124 22.4174C235.014 22.4174 234.904 22.4801 234.826 22.5585L234.637 22.778C233.556 24.0168 231.736 24.8009 229.886 24.8009C225.841 24.8009 223.316 22.4017 223.065 18.3403H236.362C236.582 18.3403 236.77 18.1521 236.77 17.9326V17.6503C236.77 17.5406 236.77 17.4307 236.786 17.3053C236.801 17.1641 236.801 17.023 236.801 16.8662C236.801 14.7493 236.064 12.8519 234.731 11.519C233.383 10.2174 231.501 9.49609 229.4 9.49609ZM223.112 16.6624C223.582 13.2282 225.856 11.2053 229.274 11.2053C231.015 11.2053 232.473 11.7542 233.493 12.8048C234.418 13.7457 234.967 15.0786 235.061 16.6624H223.112Z" fill="#3C3C3B"/>
<path d="M204.062 23.9057C203.999 23.8117 203.905 23.7489 203.795 23.7333C203.686 23.7176 203.576 23.7332 203.481 23.8117L203.246 23.9842C202.823 24.3134 201.992 24.6584 201.176 24.6584C199.859 24.6584 199.138 24.1253 199.138 21.334V1.74829C199.138 1.52875 198.95 1.34058 198.73 1.34058H197.836C197.617 1.34058 197.429 1.52875 197.429 1.74829V21.8359C197.429 24.878 198.652 26.352 201.176 26.352C202.259 26.352 203.419 25.9914 204.266 25.3798L204.485 25.223C204.673 25.0975 204.705 24.8466 204.595 24.6584L204.062 23.9057Z" fill="#3C3C3B"/>
<path d="M190.275 17.1476C190.259 17.1319 190.229 17.1319 190.213 17.1162C188.143 16.4419 186.355 15.8617 186.355 13.7448C186.355 12.3021 187.783 11.2045 189.664 11.2045C191.075 11.2045 192.267 11.6435 193.035 12.4275L193.255 12.6471C193.333 12.7255 193.428 12.7726 193.553 12.7726C193.663 12.7726 193.772 12.7255 193.851 12.6314L194.447 11.9415C194.588 11.7847 194.572 11.5494 194.447 11.3926L194.29 11.2202C193.365 10.1695 191.546 9.47949 189.742 9.47949C186.7 9.47949 184.646 11.2045 184.646 13.7762C184.646 17.1319 187.422 18.0257 189.648 18.7628C191.922 19.4998 193.333 20.0486 193.333 21.8519C193.333 23.9062 191.405 24.8314 189.492 24.8314C188.237 24.8314 186.465 24.2512 185.775 23.3103L185.618 23.0908C185.493 22.9026 185.242 22.8555 185.053 22.981L184.301 23.4828C184.207 23.5455 184.144 23.6396 184.129 23.7494C184.113 23.8591 184.129 23.9689 184.191 24.063L184.348 24.2825C185.226 25.6311 187.735 26.5406 189.523 26.5406C192.878 26.5406 195.058 24.6902 195.058 21.8206C195.027 18.6843 192.471 17.8532 190.275 17.1476Z" fill="#3C3C3B"/>
<path d="M111.454 9.49609C106.467 9.49609 103.362 12.7578 103.362 18.0109C103.362 23.0289 106.875 26.5258 111.924 26.5258C114.323 26.5258 116.629 25.5065 117.945 23.8757L118.102 23.6719C118.228 23.515 118.212 23.2798 118.071 23.123L117.491 22.5428C117.412 22.4644 117.303 22.4017 117.193 22.4174C117.083 22.4174 116.973 22.4801 116.895 22.5585L116.707 22.7937C115.625 24.0325 113.806 24.8166 111.956 24.8166C107.91 24.8166 105.385 22.4174 105.134 18.3559H118.416C118.636 18.3559 118.823 18.1677 118.823 17.9482V17.666C118.823 17.5562 118.823 17.4464 118.839 17.321C118.855 17.1798 118.855 17.0387 118.855 16.8819C118.823 12.5383 115.797 9.49609 111.454 9.49609ZM105.15 16.6624C105.62 13.2282 107.91 11.2053 111.312 11.2053C113.053 11.2053 114.511 11.7542 115.531 12.8048C116.472 13.7614 117.005 15.0943 117.099 16.6624H105.15Z" fill="#3C3C3B"/>
<path d="M94.127 9.49643C92.3234 9.49643 90.2533 10.2177 88.7326 11.3625V1.76562C88.7326 1.54608 88.5443 1.35791 88.3251 1.35791H87.4154C87.1962 1.35791 87.0078 1.54608 87.0078 1.76562V24.1112C87.0078 24.2367 87.0544 24.3465 87.1489 24.4249L87.2428 24.5033C88.8422 25.8832 90.8493 26.5575 93.3742 26.5575C98.5487 26.5575 102.03 23.045 102.03 17.7917C102.046 12.7581 98.9412 9.49643 94.127 9.49643ZM88.7326 13.6519C89.7047 12.4602 91.9939 11.2213 94.127 11.2213C97.9528 11.2213 100.321 13.7774 100.321 17.9015C100.321 19.9244 99.6625 21.6493 98.3918 22.9195C97.1376 24.174 95.4128 24.8483 93.4057 24.8483C92.0885 24.8483 90.5205 24.6914 88.7169 23.4997V13.6519H88.7326Z" fill="#3C3C3B"/>
<path d="M149.226 9.7627H148.332C148.112 9.7627 147.925 9.95086 147.925 10.1704V22.0881C147.015 23.2328 144.694 24.8323 142.326 24.8323C138.735 24.8323 137.198 23.0289 137.198 18.8264V10.1704C137.198 9.95086 137.011 9.7627 136.791 9.7627H135.897C135.678 9.7627 135.489 9.95086 135.489 10.1704V18.9205C135.489 24.0482 137.7 26.5415 142.264 26.5415C144.474 26.5415 146.56 25.4909 147.941 24.4089V25.8672C147.941 26.0868 148.128 26.2749 148.348 26.2749H149.242C149.461 26.2749 149.65 26.0868 149.65 25.8672V10.1861C149.65 9.95087 149.461 9.7627 149.226 9.7627Z" fill="#3C3C3B"/>
<path d="M170.571 25.85L176.953 10.3256C177.001 10.2002 176.985 10.0591 176.923 9.9493C176.844 9.83956 176.718 9.76113 176.577 9.76113H175.59C175.417 9.76113 175.276 9.85525 175.213 10.012L169.693 23.5919L162.746 9.98067C162.683 9.83956 162.542 9.76113 162.386 9.76113H161.382C161.367 9.76113 161.367 9.76113 161.351 9.76113H154.278V5.9663C154.278 5.74677 154.091 5.55859 153.871 5.55859H152.977C152.758 5.55859 152.569 5.74677 152.569 5.9663V19.8284C152.569 24.1878 154.389 26.3988 157.995 26.3988C159.077 26.3988 160.237 26.0382 161.084 25.4266L161.304 25.2698C161.492 25.1444 161.539 24.8934 161.413 24.7053L160.896 23.9212C160.833 23.8271 160.739 23.7644 160.614 23.7487C160.504 23.7331 160.378 23.7644 160.3 23.8271L160.08 23.9997C159.641 24.3289 158.826 24.6739 158.011 24.6739C155.376 24.6739 154.294 23.1842 154.294 19.5148V11.486H161.602L168.862 25.6148L168.642 26.1323C167.106 29.8644 165.882 31.3227 164.299 31.3227C163.86 31.3227 163.342 31.1816 162.621 30.868L162.37 30.7582C162.166 30.6641 161.931 30.7582 161.837 30.962L161.476 31.7774C161.429 31.8716 161.429 31.997 161.461 32.0911C161.508 32.2008 161.586 32.2793 161.68 32.3263L161.947 32.4361C162.809 32.8124 163.609 33.0006 164.377 33.0006C166.808 33.0006 168.392 31.1972 170.571 25.85Z" fill="#3C3C3B"/>
<path d="M126.289 9.49609C124.549 9.49609 123.09 9.93518 121.413 10.9858L121.177 11.1269C121.083 11.1897 121.02 11.2681 120.989 11.3779C120.958 11.4876 120.989 11.5973 121.036 11.6915L121.491 12.4285C121.6 12.6166 121.852 12.6794 122.039 12.5696L122.275 12.4285C123.639 11.613 124.58 11.221 126.195 11.221C129.943 11.221 130.492 12.946 130.539 17.1328C128.971 16.4115 127.293 16.286 126.368 16.286C122.463 16.286 119.923 18.3403 119.923 21.5079C119.923 24.4402 122.087 26.4004 125.317 26.4004C127.418 26.4004 129.143 25.7888 130.539 24.5186V25.8516C130.539 26.0711 130.727 26.2593 130.947 26.2593H131.841C132.06 26.2593 132.248 26.0711 132.248 25.8516V16.1136C132.295 11.6601 130.335 9.49609 126.289 9.49609ZM130.586 19.1243V21.9626C129.567 23.3268 128.139 24.6912 125.333 24.6912C123.153 24.6912 121.679 23.4053 121.679 21.4765C121.679 20.614 121.961 19.877 122.542 19.2968C123.373 18.4657 124.753 17.9953 126.337 17.9953C127.968 17.9953 129.394 18.3873 130.586 19.1243Z" fill="#3C3C3B"/>
<path d="M212.226 9.49707C207.239 9.49707 204.134 12.7588 204.134 18.0277C204.134 23.0456 207.646 26.5425 212.696 26.5425C215.095 26.5425 217.4 25.5232 218.717 23.8924L218.874 23.6885C219 23.5317 218.984 23.2965 218.843 23.1397L218.263 22.5438C218.185 22.4654 218.074 22.4183 217.965 22.4183C217.855 22.4183 217.745 22.4811 217.667 22.5595L217.478 22.7791C216.397 24.0178 214.577 24.8019 212.727 24.8019C208.682 24.8019 206.157 22.4027 205.906 18.3413H219.204C219.423 18.3413 219.611 18.1531 219.611 17.9336V17.6513C219.611 17.5258 219.611 17.4161 219.627 17.2906C219.643 17.1495 219.643 17.0241 219.643 16.8672C219.596 12.5392 216.554 9.49707 212.226 9.49707ZM205.906 16.6634C206.376 13.2292 208.666 11.2064 212.069 11.2064C213.809 11.2064 215.268 11.7552 216.287 12.8058C217.228 13.7624 217.761 15.0796 217.855 16.6634H205.906Z" fill="#3C3C3B"/>
<path d="M246.445 9.49683C244.564 9.49683 242.541 10.1711 241.051 11.2689V10.1711C241.051 9.9516 240.862 9.76343 240.643 9.76343H239.749C239.529 9.76343 239.342 9.9516 239.342 10.1711V32.5952C239.342 32.8147 239.529 33.0029 239.749 33.0029H240.643C240.862 33.0029 241.051 32.8147 241.051 32.5952V25.4289C242.446 26.1503 244.187 26.5423 246.038 26.5423C250.946 26.5423 254.364 22.9356 254.364 17.7765C254.348 12.7428 251.244 9.49683 246.445 9.49683ZM252.655 17.8706C252.639 21.9634 249.942 24.8173 246.068 24.8173C244.124 24.8173 242.478 24.3469 241.051 23.359V13.5269C242.007 12.3665 244.25 11.1904 246.445 11.1904C250.271 11.2061 252.655 13.7621 252.655 17.8706Z" fill="#3C3C3B"/>
<path d="M229.4 9.49609C224.414 9.49609 221.309 12.7578 221.309 18.0267C221.309 23.0446 224.821 26.5416 229.87 26.5416C232.254 26.5416 234.559 25.5223 235.892 23.8914L236.048 23.6876C236.175 23.5308 236.159 23.2955 236.018 23.1387L235.422 22.5429C235.343 22.4644 235.218 22.4017 235.124 22.4174C235.014 22.4174 234.904 22.4801 234.826 22.5585L234.637 22.7781C233.556 24.0168 231.736 24.801 229.886 24.801C225.841 24.801 223.316 22.4017 223.065 18.3403H236.362C236.582 18.3403 236.77 18.1521 236.77 17.9326V17.6503C236.77 17.5406 236.77 17.4308 236.786 17.3053C236.801 17.1642 236.801 17.0231 236.801 16.8662C236.801 14.7493 236.064 12.8519 234.732 11.519C233.383 10.2175 231.501 9.49609 229.4 9.49609ZM223.112 16.6624C223.582 13.2283 225.856 11.2054 229.274 11.2054C231.015 11.2054 232.473 11.7542 233.493 12.8049C234.418 13.7457 234.967 15.0786 235.061 16.6624H223.112Z" fill="#3C3C3B"/>
<path d="M204.062 23.9082C203.999 23.8141 203.905 23.7513 203.795 23.7357C203.686 23.72 203.576 23.7357 203.481 23.8141L203.246 23.9866C202.823 24.3159 201.992 24.6609 201.176 24.6609C199.859 24.6609 199.138 24.1278 199.138 21.3365V1.75073C199.138 1.53119 198.95 1.34302 198.73 1.34302H197.836C197.617 1.34302 197.429 1.53119 197.429 1.75073V21.8383C197.429 24.8804 198.652 26.3544 201.176 26.3544C202.259 26.3544 203.419 25.9938 204.266 25.3822L204.485 25.2254C204.673 25.1 204.705 24.8491 204.595 24.6609L204.062 23.9082Z" fill="#3C3C3B"/>
<path d="M190.275 17.1475C190.26 17.1319 190.229 17.1319 190.213 17.1162C188.143 16.4419 186.355 15.8617 186.355 13.7447C186.355 12.3021 187.783 11.2044 189.664 11.2044C191.075 11.2044 192.267 11.6435 193.035 12.4275L193.255 12.6471C193.333 12.7254 193.428 12.7725 193.553 12.7725C193.663 12.7725 193.772 12.7254 193.851 12.6314L194.447 11.9414C194.588 11.7846 194.572 11.5494 194.447 11.3926L194.29 11.2201C193.365 10.1694 191.546 9.47949 189.742 9.47949C186.7 9.47949 184.646 11.2044 184.646 13.7761C184.646 17.1319 187.422 18.0257 189.648 18.7627C191.922 19.4997 193.333 20.0486 193.333 21.8519C193.333 23.9061 191.405 24.8314 189.492 24.8314C188.237 24.8314 186.465 24.2511 185.775 23.3102L185.618 23.0907C185.493 22.9025 185.242 22.8555 185.053 22.981L184.301 23.4827C184.207 23.5455 184.144 23.6396 184.129 23.7493C184.113 23.8591 184.129 23.9689 184.191 24.0629L184.348 24.2825C185.226 25.6311 187.735 26.5406 189.523 26.5406C192.878 26.5406 195.059 24.6902 195.059 21.8206C195.027 18.6843 192.471 17.8532 190.275 17.1475Z" fill="#3C3C3B"/>
<path d="M111.454 9.49609C106.467 9.49609 103.362 12.7578 103.362 18.011C103.362 23.0289 106.875 26.5259 111.924 26.5259C114.323 26.5259 116.629 25.5066 117.945 23.8757L118.102 23.6719C118.228 23.5151 118.212 23.2798 118.071 23.123L117.491 22.5429C117.412 22.4644 117.303 22.4017 117.193 22.4174C117.083 22.4174 116.973 22.4801 116.895 22.5585L116.707 22.7938C115.625 24.0325 113.806 24.8166 111.956 24.8166C107.91 24.8166 105.385 22.4174 105.134 18.356H118.416C118.636 18.356 118.823 18.1678 118.823 17.9483V17.666C118.823 17.5562 118.823 17.4464 118.839 17.321C118.855 17.1799 118.855 17.0388 118.855 16.8819C118.823 12.5383 115.797 9.49609 111.454 9.49609ZM105.15 16.6624C105.62 13.2283 107.91 11.2054 111.312 11.2054C113.053 11.2054 114.511 11.7542 115.531 12.8049C116.472 13.7614 117.005 15.0943 117.099 16.6624H105.15Z" fill="#3C3C3B"/>
<path d="M94.127 9.4964C92.3234 9.4964 90.2533 10.2178 88.7326 11.3625V1.76562C88.7326 1.54608 88.5443 1.35791 88.3251 1.35791H87.4154C87.1962 1.35791 87.0078 1.54608 87.0078 1.76562V24.1113C87.0078 24.2367 87.0544 24.3465 87.1489 24.4249L87.2428 24.5033C88.8422 25.8832 90.8493 26.5575 93.3742 26.5575C98.5487 26.5575 102.03 23.0449 102.03 17.7918C102.046 12.7581 98.9412 9.4964 94.127 9.4964ZM88.7326 13.6519C89.7047 12.4601 91.9939 11.2214 94.127 11.2214C97.9528 11.2214 100.321 13.7774 100.321 17.9015C100.321 19.9244 99.6625 21.6493 98.3918 22.9195C97.1376 24.174 95.4128 24.8483 93.4057 24.8483C92.0885 24.8483 90.5205 24.6915 88.7169 23.4997V13.6519H88.7326Z" fill="#3C3C3B"/>
<path d="M149.226 9.7627H148.332C148.112 9.7627 147.925 9.95086 147.925 10.1704V22.0881C147.015 23.2328 144.694 24.8323 142.326 24.8323C138.735 24.8323 137.198 23.0289 137.198 18.8264V10.1704C137.198 9.95086 137.011 9.7627 136.791 9.7627H135.897C135.678 9.7627 135.489 9.95086 135.489 10.1704V18.9205C135.489 24.0482 137.7 26.5416 142.264 26.5416C144.474 26.5416 146.56 25.4909 147.941 24.4089V25.8672C147.941 26.0868 148.128 26.275 148.348 26.275H149.242C149.461 26.275 149.65 26.0868 149.65 25.8672V10.1861C149.65 9.95087 149.461 9.7627 149.226 9.7627Z" fill="#3C3C3B"/>
<path d="M170.571 25.85L176.953 10.3257C177.001 10.2002 176.985 10.0591 176.923 9.94934C176.844 9.83953 176.718 9.76117 176.577 9.76117H175.59C175.417 9.76117 175.276 9.85521 175.213 10.012L169.693 23.5919L162.746 9.98071C162.683 9.83953 162.542 9.76117 162.386 9.76117H161.382C161.367 9.76117 161.367 9.76117 161.351 9.76117H154.278V5.9663C154.278 5.74676 154.091 5.55859 153.871 5.55859H152.977C152.758 5.55859 152.569 5.74676 152.569 5.9663V19.8284C152.569 24.1878 154.389 26.3988 157.995 26.3988C159.077 26.3988 160.237 26.0382 161.084 25.4266L161.304 25.2698C161.492 25.1443 161.539 24.8934 161.413 24.7052L160.896 23.9212C160.833 23.8271 160.739 23.7644 160.614 23.7487C160.504 23.733 160.378 23.7644 160.3 23.8271L160.08 23.9996C159.641 24.3289 158.826 24.6739 158.011 24.6739C155.376 24.6739 154.294 23.1842 154.294 19.5148V11.4861H161.602L168.862 25.6148L168.642 26.1322C167.106 29.8643 165.882 31.3227 164.299 31.3227C163.86 31.3227 163.342 31.1816 162.621 30.8679L162.37 30.7582C162.166 30.6641 161.931 30.7582 161.837 30.9621L161.476 31.7775C161.429 31.8715 161.429 31.997 161.461 32.0911C161.508 32.2009 161.586 32.2792 161.68 32.3263L161.947 32.4361C162.809 32.8124 163.609 33.0006 164.377 33.0006C166.808 33.0006 168.392 31.1973 170.571 25.85Z" fill="#3C3C3B"/>
<path d="M126.289 9.49609C124.549 9.49609 123.09 9.93518 121.413 10.9858L121.177 11.1269C121.083 11.1897 121.02 11.2681 120.989 11.3779C120.958 11.4876 120.989 11.5974 121.036 11.6915L121.491 12.4285C121.6 12.6167 121.852 12.6794 122.039 12.5696L122.275 12.4285C123.639 11.6131 124.58 11.2211 126.195 11.2211C129.943 11.2211 130.492 12.946 130.539 17.1328C128.971 16.4115 127.293 16.286 126.368 16.286C122.463 16.286 119.923 18.3403 119.923 21.5079C119.923 24.4402 122.087 26.4004 125.317 26.4004C127.418 26.4004 129.143 25.7889 130.539 24.5187V25.8515C130.539 26.0711 130.727 26.2593 130.947 26.2593H131.841C132.06 26.2593 132.248 26.0711 132.248 25.8515V16.1136C132.295 11.6602 130.335 9.49609 126.289 9.49609ZM130.586 19.1243V21.9627C129.567 23.3269 128.139 24.6912 125.333 24.6912C123.153 24.6912 121.679 23.4053 121.679 21.4765C121.679 20.6141 121.961 19.877 122.542 19.2968C123.373 18.4657 124.753 17.9953 126.337 17.9953C127.968 17.9953 129.394 18.3874 130.586 19.1243Z" fill="#3C3C3B"/>
<path d="M212.226 9.49707C207.239 9.49707 204.134 12.7588 204.134 18.0277C204.134 23.0456 207.646 26.5425 212.696 26.5425C215.095 26.5425 217.4 25.5232 218.717 23.8924L218.874 23.6885C219 23.5317 218.984 23.2965 218.843 23.1397L218.263 22.5438C218.185 22.4654 218.074 22.4183 217.965 22.4183C217.855 22.4183 217.745 22.4811 217.667 22.5595L217.478 22.7791C216.397 24.0178 214.577 24.8019 212.727 24.8019C208.682 24.8019 206.157 22.4027 205.906 18.3413H219.204C219.423 18.3413 219.611 18.1531 219.611 17.9336V17.6513C219.611 17.5258 219.611 17.4161 219.627 17.2906C219.643 17.1495 219.643 17.0241 219.643 16.8672C219.596 12.5392 216.554 9.49707 212.226 9.49707ZM205.906 16.6634C206.376 13.2292 208.666 11.2064 212.069 11.2064C213.809 11.2064 215.268 11.7552 216.287 12.8058C217.228 13.7624 217.761 15.0796 217.855 16.6634H205.906Z" stroke="#3C3C3B" stroke-width="0.214888"/>
<path d="M246.445 9.49683C244.564 9.49683 242.541 10.1711 241.051 11.2689V10.1711C241.051 9.9516 240.862 9.76343 240.643 9.76343H239.749C239.529 9.76343 239.342 9.9516 239.342 10.1711V32.5952C239.342 32.8147 239.529 33.0029 239.749 33.0029H240.643C240.862 33.0029 241.051 32.8147 241.051 32.5952V25.4289C242.446 26.1503 244.187 26.5423 246.038 26.5423C250.946 26.5423 254.364 22.9356 254.364 17.7765C254.348 12.7428 251.244 9.49683 246.445 9.49683ZM252.655 17.8706C252.639 21.9634 249.942 24.8173 246.068 24.8173C244.124 24.8173 242.478 24.3469 241.051 23.359V13.5269C242.007 12.3665 244.25 11.1904 246.445 11.1904C250.271 11.2061 252.655 13.7621 252.655 17.8706Z" stroke="#3C3C3B" stroke-width="0.214888"/>
<path d="M229.4 9.49609C224.414 9.49609 221.309 12.7578 221.309 18.0267C221.309 23.0446 224.821 26.5416 229.87 26.5416C232.254 26.5416 234.559 25.5223 235.892 23.8914L236.048 23.6876C236.175 23.5308 236.159 23.2955 236.018 23.1387L235.422 22.5429C235.343 22.4644 235.218 22.4017 235.124 22.4174C235.014 22.4174 234.904 22.4801 234.826 22.5585L234.637 22.7781C233.556 24.0168 231.736 24.801 229.886 24.801C225.841 24.801 223.316 22.4017 223.065 18.3403H236.362C236.582 18.3403 236.77 18.1521 236.77 17.9326V17.6503C236.77 17.5406 236.77 17.4308 236.786 17.3053C236.801 17.1642 236.801 17.0231 236.801 16.8662C236.801 14.7493 236.064 12.8519 234.732 11.519C233.383 10.2175 231.501 9.49609 229.4 9.49609ZM223.111 16.6624C223.582 13.2283 225.856 11.2054 229.274 11.2054C231.015 11.2054 232.473 11.7542 233.493 12.8049C234.418 13.7457 234.967 15.0786 235.061 16.6624H223.111Z" stroke="#3C3C3B" stroke-width="0.214888"/>
<path d="M204.062 23.9082C203.999 23.8141 203.905 23.7513 203.795 23.7357C203.686 23.72 203.576 23.7357 203.481 23.8141L203.246 23.9866C202.823 24.3159 201.992 24.6609 201.176 24.6609C199.859 24.6609 199.138 24.1278 199.138 21.3365V1.75073C199.138 1.53119 198.95 1.34302 198.73 1.34302H197.836C197.617 1.34302 197.429 1.53119 197.429 1.75073V21.8383C197.429 24.8804 198.652 26.3544 201.176 26.3544C202.259 26.3544 203.419 25.9938 204.266 25.3822L204.485 25.2254C204.673 25.1 204.705 24.8491 204.595 24.6609L204.062 23.9082Z" stroke="#3C3C3B" stroke-width="0.214888"/>
<path d="M190.275 17.1475C190.26 17.1319 190.229 17.1319 190.213 17.1162C188.143 16.4419 186.355 15.8617 186.355 13.7447C186.355 12.3021 187.783 11.2044 189.664 11.2044C191.075 11.2044 192.267 11.6435 193.035 12.4275L193.255 12.6471C193.333 12.7254 193.428 12.7725 193.553 12.7725C193.663 12.7725 193.772 12.7254 193.851 12.6314L194.447 11.9414C194.588 11.7846 194.572 11.5494 194.447 11.3926L194.29 11.2201C193.365 10.1694 191.546 9.47949 189.742 9.47949C186.7 9.47949 184.646 11.2044 184.646 13.7761C184.646 17.1319 187.422 18.0257 189.648 18.7627C191.922 19.4997 193.333 20.0486 193.333 21.8519C193.333 23.9061 191.405 24.8314 189.492 24.8314C188.237 24.8314 186.465 24.2511 185.775 23.3102L185.618 23.0907C185.493 22.9025 185.242 22.8555 185.053 22.981L184.301 23.4827C184.207 23.5455 184.144 23.6396 184.129 23.7493C184.113 23.8591 184.129 23.9689 184.191 24.0629L184.348 24.2825C185.226 25.6311 187.735 26.5406 189.523 26.5406C192.878 26.5406 195.059 24.6902 195.059 21.8206C195.027 18.6843 192.471 17.8532 190.275 17.1475Z" stroke="#3C3C3B" stroke-width="0.214888"/>
<path d="M111.454 9.49609C106.467 9.49609 103.362 12.7578 103.362 18.011C103.362 23.0289 106.875 26.5259 111.924 26.5259C114.323 26.5259 116.629 25.5066 117.945 23.8757L118.102 23.6719C118.228 23.5151 118.212 23.2798 118.071 23.1231L117.491 22.5429C117.412 22.4644 117.303 22.4017 117.193 22.4174C117.083 22.4174 116.973 22.4801 116.895 22.5585L116.707 22.7938C115.625 24.0325 113.806 24.8166 111.956 24.8166C107.91 24.8166 105.385 22.4174 105.134 18.356H118.416C118.636 18.356 118.823 18.1678 118.823 17.9483V17.666C118.823 17.5562 118.823 17.4464 118.839 17.321C118.855 17.1799 118.855 17.0388 118.855 16.8819C118.823 12.5383 115.797 9.49609 111.454 9.49609ZM105.15 16.6624C105.62 13.2283 107.91 11.2054 111.312 11.2054C113.053 11.2054 114.511 11.7542 115.531 12.8049C116.472 13.7614 117.005 15.0943 117.099 16.6624H105.15Z" stroke="#3C3C3B" stroke-width="0.214888"/>
<path d="M94.127 9.4964C92.3234 9.4964 90.2533 10.2178 88.7326 11.3625V1.76562C88.7326 1.54608 88.5443 1.35791 88.3251 1.35791H87.4154C87.1962 1.35791 87.0078 1.54608 87.0078 1.76562V24.1113C87.0078 24.2367 87.0544 24.3465 87.1489 24.4249L87.2428 24.5033C88.8422 25.8832 90.8493 26.5575 93.3742 26.5575C98.5487 26.5575 102.03 23.0449 102.03 17.7918C102.046 12.7581 98.9412 9.4964 94.127 9.4964ZM88.7326 13.6519C89.7047 12.4601 91.9939 11.2214 94.127 11.2214C97.9528 11.2214 100.321 13.7774 100.321 17.9015C100.321 19.9244 99.6625 21.6493 98.3918 22.9195C97.1376 24.174 95.4128 24.8483 93.4057 24.8483C92.0885 24.8483 90.5205 24.6915 88.7169 23.4997V13.6519H88.7326Z" stroke="#3C3C3B" stroke-width="0.214888"/>
<path d="M149.226 9.7627H148.332C148.112 9.7627 147.925 9.95086 147.925 10.1704V22.0881C147.015 23.2328 144.694 24.8323 142.326 24.8323C138.735 24.8323 137.198 23.0289 137.198 18.8264V10.1704C137.198 9.95086 137.011 9.7627 136.791 9.7627H135.897C135.678 9.7627 135.489 9.95086 135.489 10.1704V18.9205C135.489 24.0482 137.7 26.5416 142.264 26.5416C144.474 26.5416 146.56 25.4909 147.941 24.4089V25.8672C147.941 26.0868 148.128 26.275 148.348 26.275H149.242C149.461 26.275 149.65 26.0868 149.65 25.8672V10.1861C149.65 9.95087 149.461 9.7627 149.226 9.7627Z" stroke="#3C3C3B" stroke-width="0.214888"/>
<path d="M170.571 25.85L176.953 10.3257C177.001 10.2002 176.985 10.0591 176.923 9.94934C176.844 9.83953 176.718 9.76117 176.577 9.76117H175.59C175.417 9.76117 175.276 9.85521 175.213 10.012L169.693 23.5919L162.746 9.98071C162.683 9.83953 162.542 9.76117 162.386 9.76117H161.382C161.367 9.76117 161.367 9.76117 161.351 9.76117H154.278V5.9663C154.278 5.74676 154.091 5.55859 153.871 5.55859H152.977C152.758 5.55859 152.569 5.74676 152.569 5.9663V19.8284C152.569 24.1878 154.389 26.3988 157.995 26.3988C159.077 26.3988 160.237 26.0382 161.084 25.4266L161.304 25.2698C161.492 25.1443 161.539 24.8934 161.413 24.7052L160.896 23.9212C160.833 23.8271 160.739 23.7644 160.614 23.7487C160.504 23.733 160.378 23.7644 160.3 23.8271L160.08 23.9996C159.641 24.3289 158.826 24.6739 158.011 24.6739C155.376 24.6739 154.294 23.1842 154.294 19.5148V11.4861H161.602L168.862 25.6148L168.642 26.1322C167.106 29.8643 165.882 31.3227 164.299 31.3227C163.86 31.3227 163.342 31.1816 162.621 30.8679L162.37 30.7582C162.166 30.6641 161.931 30.7582 161.837 30.9621L161.476 31.7775C161.429 31.8715 161.429 31.997 161.461 32.0911C161.508 32.2009 161.586 32.2792 161.68 32.3263L161.947 32.4361C162.809 32.8124 163.609 33.0006 164.377 33.0006C166.808 33.0006 168.392 31.1973 170.571 25.85Z" stroke="#3C3C3B" stroke-width="0.214888"/>
<path d="M126.289 9.49609C124.549 9.49609 123.09 9.93518 121.413 10.9858L121.177 11.1269C121.083 11.1897 121.02 11.2681 120.989 11.3779C120.958 11.4876 120.989 11.5974 121.036 11.6915L121.491 12.4285C121.6 12.6167 121.852 12.6794 122.039 12.5696L122.275 12.4285C123.639 11.6131 124.58 11.2211 126.195 11.2211C129.943 11.2211 130.492 12.946 130.539 17.1328C128.971 16.4115 127.293 16.286 126.368 16.286C122.463 16.286 119.923 18.3403 119.923 21.5079C119.923 24.4402 122.087 26.4004 125.317 26.4004C127.418 26.4004 129.143 25.7889 130.539 24.5187V25.8515C130.539 26.0711 130.727 26.2593 130.947 26.2593H131.841C132.06 26.2593 132.248 26.0711 132.248 25.8515V16.1136C132.295 11.6602 130.335 9.49609 126.289 9.49609ZM130.586 19.1243V21.9627C129.567 23.3269 128.139 24.6912 125.333 24.6912C123.153 24.6912 121.679 23.4053 121.679 21.4765C121.679 20.6141 121.961 19.877 122.542 19.2968C123.373 18.4657 124.753 17.9953 126.337 17.9953C127.968 17.9953 129.394 18.3874 130.586 19.1243Z" stroke="#3C3C3B" stroke-width="0.214888"/>
<path fill-rule="evenodd" clip-rule="evenodd" d="M71.5834 8.10669C72.3818 8.10669 73.1561 8.20992 73.8939 8.40382C70.0079 9.4259 67.1418 12.9634 67.1418 17.1702C67.1418 21.3776 70.0085 24.9154 73.8953 25.937C73.1568 26.1311 72.3825 26.2345 71.5834 26.2345C66.5775 26.2345 62.5195 22.1765 62.5195 17.1706C62.5195 12.1647 66.5775 8.10669 71.5834 8.10669ZM9.21332 26.2371C14.2192 26.2371 18.2772 22.179 18.2772 17.1732C18.2772 12.1673 14.2192 8.10924 9.21332 8.10924C4.20746 8.10924 0.149414 12.1673 0.149414 17.1732C0.149414 22.179 4.20746 26.2371 9.21332 26.2371ZM35.1095 8.57516C37.9358 9.78132 39.9718 13.1732 39.9718 17.1689C39.9718 21.1617 37.9389 24.5515 35.1158 25.76C34.7988 26.0677 34.1954 26.2345 33.1805 26.2345C32.7823 26.2345 32.3902 26.2088 32.0055 26.159C31.8663 26.141 31.728 26.1199 31.5907 26.0956L31.5885 26.0952C27.3418 25.3427 24.1166 21.6333 24.1166 17.1706C24.1166 12.7318 27.3073 9.03831 31.5202 8.25841L31.5333 8.25533C32.015 8.16702 32.5099 8.11679 33.015 8.10786L33.0213 8.10807C33.0743 8.10715 33.1273 8.10669 33.1805 8.10669C34.1888 8.10669 34.7909 8.27131 35.1095 8.57516ZM46.4896 17.1724C46.4896 12.2455 50.4206 8.23671 55.3173 8.1115V26.2333C50.4206 26.108 46.4896 22.0993 46.4896 17.1724Z" fill="#3C3C3B"/>
</g>
<defs>
<clipPath id="clip0_58_1221">
<rect width="255" height="32.2331" fill="white" transform="translate(0 0.966797)"/>
</clipPath>
</defs>
</svg>
