<svg width="75" height="26" viewBox="0 0 75 26" fill="none" xmlns="http://www.w3.org/2000/svg">
<path d="M13.4893 3.82959C11.0067 3.82959 9.46436 5.36722 9.46436 7.84259C9.46436 10.2052 11.2139 11.8556 13.7193 11.8556C14.9098 11.8556 16.0586 11.3754 16.7179 10.6013L16.7938 10.5078C16.8756 10.4107 16.8679 10.2648 16.7734 10.165L16.4897 9.89598C16.4283 9.83779 16.3546 9.80986 16.2942 9.81817C16.2268 9.81817 16.1555 9.84909 16.0937 9.90862L16.0035 10.0157C15.4842 10.58 14.6145 10.9302 13.7344 10.9302C11.8349 10.9302 10.6219 9.8624 10.4759 8.06905H16.8917C17.0378 8.06905 17.1614 7.952 17.1614 7.81333V7.68264C17.1614 7.63443 17.1614 7.58621 17.1684 7.53001C17.1765 7.46085 17.1765 7.39201 17.1765 7.31885C17.161 5.26447 15.645 3.82959 13.4893 3.82959ZM10.4899 7.15092C10.7378 5.64888 11.8283 4.75503 13.4205 4.75503C14.2536 4.75503 14.9491 5.00409 15.4319 5.47629C15.8602 5.88963 16.1158 6.46724 16.173 7.15092L10.4899 7.15092Z" fill="#4F6FC1"/>
<path d="M5.01879 3.83051C4.16915 3.83051 3.19872 4.13511 2.45265 4.63125L2.45265 0.314311C2.45265 0.175645 2.32942 0.0585938 2.18336 0.0585938L1.73888 0.0585938C1.59282 0.0585938 1.46924 0.175645 1.46924 0.314311L1.46924 10.6707C1.46924 10.7495 1.50259 10.819 1.56368 10.8672L1.60862 10.9028C2.40525 11.5542 3.40025 11.8711 4.65085 11.8711C7.22331 11.8711 8.95139 10.2118 8.95139 7.74209C8.95525 6.5473 8.56764 5.54538 7.83035 4.84473C7.13202 4.18133 6.15984 3.83051 5.01879 3.83051ZM7.9757 7.79263C7.9757 8.71142 7.65691 9.49919 7.05373 10.0715C6.45055 10.6434 5.62513 10.9457 4.66629 10.9457C4.04451 10.9457 3.29527 10.8745 2.44493 10.3515L2.44493 5.85563C2.91539 5.31693 4.00203 4.76293 5.01879 4.76293C6.84272 4.76326 7.9757 5.9238 7.9757 7.79263Z" fill="#4F6FC1"/>
<path d="M54.278 14.9136C51.7958 14.9136 50.2534 16.4542 50.2534 18.9339C50.2534 21.2965 52.0029 22.9469 54.508 22.9469C55.6985 22.9469 56.847 22.4667 57.5063 21.6926L57.5818 21.5991C57.6639 21.5024 57.6566 21.3561 57.5625 21.257L57.2781 20.98C57.1773 20.8849 57.0092 20.8716 56.8842 20.9909L56.7925 21.0924C56.2729 21.6567 55.4033 22.0068 54.5234 22.0068C52.6244 22.0068 51.411 20.9391 51.2646 19.1457H57.6882C57.8342 19.1457 57.9578 19.0287 57.9578 18.8903V18.7593C57.9578 18.7041 57.9575 18.6556 57.9652 18.5997C57.9733 18.5305 57.9733 18.4713 57.9733 18.3955C57.9497 16.3455 56.4302 14.9136 54.278 14.9136ZM56.954 18.2349H51.2705C51.5184 16.7329 52.6089 15.839 54.2015 15.839C55.0346 15.839 55.7301 16.0884 56.2132 16.5603C56.6482 16.9806 56.8975 17.5436 56.954 18.2349Z" fill="#4F6FC1"/>
<path d="M70.9958 14.9136C70.1121 14.9136 69.1634 15.1956 68.4297 15.6724V15.2927C68.4297 15.154 68.3061 15.0369 68.16 15.0369H67.7233C67.5772 15.0369 67.4536 15.154 67.4536 15.2927V25.6853C67.4536 25.8236 67.5772 25.941 67.7233 25.941H68.16C68.3061 25.941 68.4297 25.824 68.4297 25.6853V22.4714C69.1087 22.7826 69.9239 22.9466 70.7964 22.9466C73.2336 22.9466 74.9361 21.2486 74.9361 18.8172C74.928 16.4462 73.3815 14.9136 70.9958 14.9136ZM70.8118 22.0141C69.8832 22.0141 69.1034 21.8033 68.4297 21.3697V16.8722C68.891 16.3574 69.9671 15.8317 70.9954 15.8317C72.8243 15.8387 73.9604 16.9995 73.9604 18.8607C73.9527 20.7176 72.6582 22.0141 70.8118 22.0141Z" fill="#4F6FC1"/>
<path d="M62.6686 14.9136C60.1864 14.9136 58.644 16.4542 58.644 18.9339C58.644 21.2965 60.3935 22.9469 62.8986 22.9469C64.0814 22.9469 65.2298 22.4667 65.8969 21.6926L65.9731 21.5988C66.0545 21.502 66.0468 21.3557 65.9524 21.2563L65.661 20.98C65.6115 20.9331 65.5279 20.8918 65.4658 20.9025C65.3984 20.9025 65.3271 20.9334 65.2667 20.9913L65.1751 21.0927C64.6558 21.657 63.7861 22.0072 62.906 22.0072C61.0065 22.0072 59.7935 20.9394 59.6475 19.1461H66.071C66.2175 19.1461 66.3407 19.029 66.3407 18.8907V18.7596C66.3407 18.7114 66.3403 18.6629 66.3477 18.6073C66.3558 18.5382 66.3558 18.4693 66.3558 18.3965C66.3558 17.3993 65.9892 16.5027 65.3229 15.8703C64.6495 15.2534 63.7068 14.9136 62.6686 14.9136ZM59.6766 18.2349C59.9266 16.7109 60.9911 15.839 62.6075 15.839C63.4407 15.839 64.1362 16.0884 64.6189 16.5603C65.0476 16.9739 65.3029 17.5519 65.3597 18.2349H59.6766Z" fill="#4F6FC1"/>
<path d="M50.341 21.6209C50.2985 21.561 50.2353 21.5224 50.1626 21.5124C50.0812 21.5008 50.0113 21.5188 49.9583 21.561L49.8414 21.6421C49.6465 21.7858 49.2603 21.9404 48.8731 21.9404C48.259 21.9404 47.9469 21.7123 47.9469 20.4663V11.3892C47.9469 11.2508 47.8233 11.1338 47.6776 11.1338H47.2408C47.0948 11.1338 46.9712 11.2508 46.9712 11.3892V20.6991C46.9712 22.1522 47.5933 22.8589 48.8731 22.8589C49.4204 22.8589 50.0004 22.6856 50.4239 22.3957L50.5292 22.3242C50.6464 22.25 50.6798 22.096 50.6015 21.9687L50.341 21.6209Z" fill="#4F6FC1"/>
<path d="M43.569 18.464L43.5325 18.4477C42.5083 18.1312 41.6991 17.8811 41.6991 16.9493C41.6991 16.3162 42.364 15.8387 43.246 15.8387C43.9117 15.8387 44.479 16.0329 44.8442 16.386L44.9512 16.4881C45.0611 16.5919 45.2476 16.5879 45.3455 16.4771L45.6359 16.1586C45.7247 16.0648 45.7257 15.9218 45.6355 15.8151L45.5597 15.7359C45.099 15.2398 44.1848 14.9062 43.2846 14.9062C41.7528 14.9062 40.7234 15.7333 40.7234 16.964C40.7234 18.5561 42.0926 18.9858 43.193 19.3309L43.2165 19.3382C44.3028 19.6721 44.9688 19.9169 44.9688 20.7066C44.9688 21.6148 44.0612 22.0211 43.1614 22.0211C42.5673 22.0211 41.7257 21.7621 41.4024 21.3441L41.3269 21.244C41.2447 21.1273 41.0773 21.0963 40.9537 21.1748L40.5857 21.4073C40.5222 21.4475 40.4815 21.5077 40.4709 21.5765C40.4597 21.6477 40.4744 21.7142 40.5141 21.7701L40.5889 21.8695C41.0309 22.5136 42.284 22.9462 43.1768 22.9462C44.8628 22.9462 45.9522 22.0614 45.9522 20.6917C45.9364 19.1869 44.6244 18.7859 43.569 18.464Z" fill="#4F6FC1"/>
<path d="M31.9513 3.95297H31.5146C31.3685 3.95297 31.2449 4.07002 31.2449 4.20869V9.70877C30.8008 10.2252 29.6948 10.9375 28.5794 10.9375C26.872 10.9375 26.1435 10.1251 26.1435 8.22069V4.20835C26.1435 4.06969 26.0199 3.95264 25.8739 3.95264H25.4371C25.2911 3.95264 25.1675 4.06969 25.1675 4.20835V8.26358C25.1675 10.6851 26.2734 11.8622 28.5485 11.8622C29.7658 11.8622 30.7804 11.2717 31.2526 10.9411V11.4828C31.2526 11.6215 31.3762 11.7382 31.5223 11.7382H31.959C32.1051 11.7382 32.2287 11.6212 32.2287 11.4828V4.21567C32.2283 4.07102 32.104 3.95297 31.9513 3.95297Z" fill="#4F6FC1"/>
<path d="M42.4435 11.5025L45.5633 4.30581C45.5928 4.23132 45.5854 4.1452 45.5398 4.06938C45.4853 3.99722 45.4007 3.95432 45.3137 3.95432H44.8309C44.7185 3.95432 44.6234 4.01484 44.5816 4.11228L41.9421 10.2711L38.6187 4.09598C38.5779 4.00853 38.4856 3.95432 38.3782 3.95432L34.4863 3.95432V2.26207C34.4863 2.1234 34.3627 2.00635 34.2167 2.00635H33.7799C33.6338 2.00635 33.5103 2.1234 33.5103 2.26207V8.68659C33.5103 10.7513 34.4259 11.7984 36.2319 11.7984C36.7796 11.7984 37.3593 11.6252 37.7827 11.3355L37.888 11.264C38.0109 11.1866 38.0436 11.028 37.9614 10.9106L37.7083 10.5471C37.6647 10.4849 37.5998 10.4474 37.5215 10.4377C37.4492 10.4277 37.3681 10.4477 37.3154 10.4876L37.2094 10.5667C36.9998 10.7157 36.6188 10.8657 36.24 10.8657C34.9999 10.8657 34.494 10.1923 34.494 8.54127V4.88674L37.9523 4.88674L41.4657 11.3711L41.3709 11.5829C40.6322 13.2845 40.0553 13.9473 39.3131 13.9473C39.1098 13.9473 38.8655 13.8841 38.5211 13.7421L38.3999 13.6919C38.2669 13.6333 38.1082 13.6909 38.0457 13.8199L37.8712 14.1947C37.841 14.2509 37.8368 14.3263 37.8617 14.3962C37.8905 14.4594 37.9389 14.5086 38.0067 14.5402L38.1356 14.5907C38.5699 14.7706 38.9676 14.8581 39.3514 14.8581C40.5851 14.8581 41.3653 14.0111 42.4435 11.5025Z" fill="#4F6FC1"/>
<path d="M20.7394 3.82959C19.8698 3.82959 19.1458 4.03909 18.3201 4.52957L18.2021 4.59641C18.1403 4.63565 18.101 4.68586 18.0817 4.74971C18.0638 4.8089 18.0732 4.87374 18.1122 4.94823L18.3334 5.28841C18.3685 5.34527 18.4257 5.38617 18.4945 5.40347C18.5634 5.42076 18.6374 5.41111 18.6985 5.3772L18.8133 5.31202C19.4709 4.93925 19.92 4.76201 20.6931 4.76201C22.3917 4.76201 22.7108 5.40679 22.7442 7.33282C21.9799 7.02423 21.1899 6.97668 20.777 6.97668C18.8211 6.97668 17.5571 7.95266 17.5571 9.46336C17.5571 10.8593 18.6448 11.7974 20.2637 11.7974C21.2605 11.7974 22.074 11.538 22.7456 11.0053V11.4768C22.7456 11.6152 22.8692 11.7322 23.0152 11.7322H23.452C23.5981 11.7322 23.7216 11.6152 23.7216 11.4768V6.96404C23.7336 5.87234 23.4664 5.05697 22.9271 4.54054C22.4345 4.06901 21.6986 3.82959 20.7394 3.82959ZM18.9576 8.48571C19.3488 8.11494 20.0064 7.90212 20.7626 7.90212C21.5206 7.90212 22.1954 8.06838 22.7691 8.39593V9.6519C22.2878 10.2581 21.6126 10.872 20.2721 10.872C19.2462 10.872 18.5567 10.3 18.5567 9.44872C18.5567 9.06199 18.6915 8.7381 18.9576 8.48571Z" fill="#4F6FC1"/>
<path fill-rule="evenodd" clip-rule="evenodd" d="M33.38 18.5459C33.38 16.5756 34.7956 14.9186 36.7147 14.4401C36.3503 14.3493 35.9676 14.3008 35.573 14.3008C33.1006 14.3008 31.0965 16.2015 31.0965 18.5459C31.0965 20.8902 33.1006 22.791 35.573 22.791C35.9676 22.791 36.3503 22.7424 36.7147 22.6517C34.7953 22.1732 33.38 20.5161 33.38 18.5459ZM4.76941 22.792C7.24181 22.792 9.24586 20.8912 9.24586 18.5469C9.24586 16.2025 7.24181 14.3018 4.76941 14.3018C2.29701 14.3018 0.292969 16.2022 0.292969 18.5466C0.292969 20.8909 2.29701 22.792 4.76941 22.792ZM17.5598 14.5206C18.9546 15.0862 19.9591 16.6741 19.9591 18.5449C19.9591 20.4131 18.9571 21.9996 17.565 22.5669C17.4091 22.7125 17.1107 22.7913 16.6069 22.7913C16.4577 22.7913 16.3102 22.7843 16.1649 22.7707C16.0529 22.7604 15.9423 22.7461 15.8327 22.7281L15.8254 22.7265C13.7255 22.376 12.1301 20.6375 12.1301 18.5459C12.1301 16.4732 13.6963 14.7477 15.7674 14.3753L15.7906 14.3699C16.0304 14.3284 16.2772 14.3048 16.5289 14.3008L16.5384 14.3011C16.5609 14.3008 16.5837 14.3008 16.6065 14.3008C17.1051 14.3011 17.4025 14.3783 17.5598 14.5206ZM23.1804 18.5466C23.1804 16.2388 25.1223 14.361 27.5413 14.3028V22.7903C25.1223 22.7321 23.1804 20.8547 23.1804 18.5466Z" fill="url(#paint0_linear_120_488)"/>
<defs>
<linearGradient id="paint0_linear_120_488" x1="8.52782" y1="33.1216" x2="41.2326" y2="37.85" gradientUnits="userSpaceOnUse">
<stop stop-color="#F0C9D1"/>
<stop offset="0.75864" stop-color="#4E79C0"/>
</linearGradient>
</defs>
</svg>
